<?xml version="1.0" encoding="utf-8"?>
<svg xmlns="http://www.w3.org/2000/svg" xmlns:xlink="http://www.w3.org/1999/xlink" width="1200" height="300" viewBox="0 0 4800 1200">
<defs>
  <clipPath id="clip280">
    <rect x="0" y="0" width="4800" height="1200"/>
  </clipPath>
</defs>
<path clip-path="url(#clip280)" d="M0 1200 L4800 1200 L4800 0 L0 0  Z" fill="#ffffff" fill-rule="evenodd" fill-opacity="1"/>
<defs>
  <clipPath id="clip281">
    <rect x="960" y="0" width="3361" height="1200"/>
  </clipPath>
</defs>
<path clip-path="url(#clip280)" d="M449.885 880.951 L4752.76 880.951 L4752.76 47.2441 L449.885 47.2441  Z" fill="#ffffff" fill-rule="evenodd" fill-opacity="1"/>
<defs>
  <clipPath id="clip282">
    <rect x="449" y="47" width="4304" height="835"/>
  </clipPath>
</defs>
<polyline clip-path="url(#clip282)" style="stroke:#000000; stroke-linecap:round; stroke-linejoin:round; stroke-width:2; stroke-opacity:0.1; fill:none" points="571.665,880.951 571.665,47.2441 "/>
<polyline clip-path="url(#clip282)" style="stroke:#000000; stroke-linecap:round; stroke-linejoin:round; stroke-width:2; stroke-opacity:0.1; fill:none" points="1383.53,880.951 1383.53,47.2441 "/>
<polyline clip-path="url(#clip282)" style="stroke:#000000; stroke-linecap:round; stroke-linejoin:round; stroke-width:2; stroke-opacity:0.1; fill:none" points="2195.39,880.951 2195.39,47.2441 "/>
<polyline clip-path="url(#clip282)" style="stroke:#000000; stroke-linecap:round; stroke-linejoin:round; stroke-width:2; stroke-opacity:0.1; fill:none" points="3007.25,880.951 3007.25,47.2441 "/>
<polyline clip-path="url(#clip282)" style="stroke:#000000; stroke-linecap:round; stroke-linejoin:round; stroke-width:2; stroke-opacity:0.1; fill:none" points="3819.11,880.951 3819.11,47.2441 "/>
<polyline clip-path="url(#clip282)" style="stroke:#000000; stroke-linecap:round; stroke-linejoin:round; stroke-width:2; stroke-opacity:0.1; fill:none" points="4630.98,880.951 4630.98,47.2441 "/>
<polyline clip-path="url(#clip282)" style="stroke:#000000; stroke-linecap:round; stroke-linejoin:round; stroke-width:2; stroke-opacity:0.1; fill:none" points="449.885,809.226 4752.76,809.226 "/>
<polyline clip-path="url(#clip282)" style="stroke:#000000; stroke-linecap:round; stroke-linejoin:round; stroke-width:2; stroke-opacity:0.1; fill:none" points="449.885,696.275 4752.76,696.275 "/>
<polyline clip-path="url(#clip282)" style="stroke:#000000; stroke-linecap:round; stroke-linejoin:round; stroke-width:2; stroke-opacity:0.1; fill:none" points="449.885,583.324 4752.76,583.324 "/>
<polyline clip-path="url(#clip282)" style="stroke:#000000; stroke-linecap:round; stroke-linejoin:round; stroke-width:2; stroke-opacity:0.1; fill:none" points="449.885,470.373 4752.76,470.373 "/>
<polyline clip-path="url(#clip282)" style="stroke:#000000; stroke-linecap:round; stroke-linejoin:round; stroke-width:2; stroke-opacity:0.1; fill:none" points="449.885,357.422 4752.76,357.422 "/>
<polyline clip-path="url(#clip282)" style="stroke:#000000; stroke-linecap:round; stroke-linejoin:round; stroke-width:2; stroke-opacity:0.1; fill:none" points="449.885,244.471 4752.76,244.471 "/>
<polyline clip-path="url(#clip282)" style="stroke:#000000; stroke-linecap:round; stroke-linejoin:round; stroke-width:2; stroke-opacity:0.1; fill:none" points="449.885,131.52 4752.76,131.52 "/>
<polyline clip-path="url(#clip280)" style="stroke:#000000; stroke-linecap:round; stroke-linejoin:round; stroke-width:4; stroke-opacity:1; fill:none" points="449.885,880.951 4752.76,880.951 "/>
<polyline clip-path="url(#clip280)" style="stroke:#000000; stroke-linecap:round; stroke-linejoin:round; stroke-width:4; stroke-opacity:1; fill:none" points="571.665,880.951 571.665,862.054 "/>
<polyline clip-path="url(#clip280)" style="stroke:#000000; stroke-linecap:round; stroke-linejoin:round; stroke-width:4; stroke-opacity:1; fill:none" points="1383.53,880.951 1383.53,862.054 "/>
<polyline clip-path="url(#clip280)" style="stroke:#000000; stroke-linecap:round; stroke-linejoin:round; stroke-width:4; stroke-opacity:1; fill:none" points="2195.39,880.951 2195.39,862.054 "/>
<polyline clip-path="url(#clip280)" style="stroke:#000000; stroke-linecap:round; stroke-linejoin:round; stroke-width:4; stroke-opacity:1; fill:none" points="3007.25,880.951 3007.25,862.054 "/>
<polyline clip-path="url(#clip280)" style="stroke:#000000; stroke-linecap:round; stroke-linejoin:round; stroke-width:4; stroke-opacity:1; fill:none" points="3819.11,880.951 3819.11,862.054 "/>
<polyline clip-path="url(#clip280)" style="stroke:#000000; stroke-linecap:round; stroke-linejoin:round; stroke-width:4; stroke-opacity:1; fill:none" points="4630.98,880.951 4630.98,862.054 "/>
<path clip-path="url(#clip280)" d="M571.665 942.789 Q564.443 942.789 560.785 949.918 Q557.174 957.002 557.174 971.261 Q557.174 985.474 560.785 992.603 Q564.443 999.687 571.665 999.687 Q578.933 999.687 582.544 992.603 Q586.202 985.474 586.202 971.261 Q586.202 957.002 582.544 949.918 Q578.933 942.789 571.665 942.789 M571.665 935.382 Q583.285 935.382 589.396 944.594 Q595.554 953.761 595.554 971.261 Q595.554 988.715 589.396 997.927 Q583.285 1007.09 571.665 1007.09 Q560.044 1007.09 553.887 997.927 Q547.776 988.715 547.776 971.261 Q547.776 953.761 553.887 944.594 Q560.044 935.382 571.665 935.382 Z" fill="#000000" fill-rule="nonzero" fill-opacity="1" /><path clip-path="url(#clip280)" d="M1372.83 997.881 L1405.47 997.881 L1405.47 1005.75 L1361.58 1005.75 L1361.58 997.881 Q1366.91 992.372 1376.07 983.113 Q1385.29 973.807 1387.65 971.122 Q1392.14 966.076 1393.9 962.604 Q1395.7 959.085 1395.7 955.705 Q1395.7 950.196 1391.81 946.724 Q1387.97 943.252 1381.77 943.252 Q1377.37 943.252 1372.46 944.78 Q1367.6 946.307 1362.05 949.409 L1362.05 939.965 Q1367.69 937.696 1372.6 936.539 Q1377.51 935.382 1381.58 935.382 Q1392.32 935.382 1398.71 940.752 Q1405.1 946.122 1405.1 955.104 Q1405.1 959.363 1403.48 963.205 Q1401.91 967.002 1397.69 972.187 Q1396.54 973.529 1390.33 979.965 Q1384.13 986.353 1372.83 997.881 Z" fill="#000000" fill-rule="nonzero" fill-opacity="1" /><path clip-path="url(#clip280)" d="M2201.41 944.78 L2177.8 981.678 L2201.41 981.678 L2201.41 944.78 M2198.95 936.631 L2210.71 936.631 L2210.71 981.678 L2220.57 981.678 L2220.57 989.455 L2210.71 989.455 L2210.71 1005.75 L2201.41 1005.75 L2201.41 989.455 L2170.2 989.455 L2170.2 980.428 L2198.95 936.631 Z" fill="#000000" fill-rule="nonzero" fill-opacity="1" /><path clip-path="url(#clip280)" d="M3008.06 967.465 Q3001.77 967.465 2998.06 971.77 Q2994.4 976.076 2994.4 983.576 Q2994.4 991.029 2998.06 995.381 Q3001.77 999.687 3008.06 999.687 Q3014.36 999.687 3018.02 995.381 Q3021.72 991.029 3021.72 983.576 Q3021.72 976.076 3018.02 971.77 Q3014.36 967.465 3008.06 967.465 M3026.63 938.159 L3026.63 946.678 Q3023.11 945.011 3019.5 944.131 Q3015.93 943.252 3012.41 943.252 Q3003.15 943.252 2998.25 949.502 Q2993.39 955.752 2992.69 968.391 Q2995.42 964.363 2999.54 962.233 Q3003.66 960.057 3008.62 960.057 Q3019.03 960.057 3025.05 966.4 Q3031.12 972.696 3031.12 983.576 Q3031.12 994.224 3024.82 1000.66 Q3018.52 1007.09 3008.06 1007.09 Q2996.07 1007.09 2989.73 997.927 Q2983.39 988.715 2983.39 971.261 Q2983.39 954.872 2991.16 945.15 Q2998.94 935.382 3012.04 935.382 Q3015.56 935.382 3019.13 936.076 Q3022.74 936.77 3026.63 938.159 Z" fill="#000000" fill-rule="nonzero" fill-opacity="1" /><path clip-path="url(#clip280)" d="M3819.11 972.928 Q3812.45 972.928 3808.6 976.492 Q3804.81 980.057 3804.81 986.307 Q3804.81 992.557 3808.6 996.122 Q3812.45 999.687 3819.11 999.687 Q3825.78 999.687 3829.62 996.122 Q3833.47 992.511 3833.47 986.307 Q3833.47 980.057 3829.62 976.492 Q3825.83 972.928 3819.11 972.928 M3809.76 968.946 Q3803.74 967.465 3800.36 963.344 Q3797.03 959.224 3797.03 953.298 Q3797.03 945.011 3802.91 940.196 Q3808.84 935.382 3819.11 935.382 Q3829.44 935.382 3835.32 940.196 Q3841.2 945.011 3841.2 953.298 Q3841.2 959.224 3837.82 963.344 Q3834.48 967.465 3828.51 968.946 Q3835.27 970.52 3839.02 975.104 Q3842.82 979.687 3842.82 986.307 Q3842.82 996.353 3836.66 1001.72 Q3830.55 1007.09 3819.11 1007.09 Q3807.68 1007.09 3801.52 1001.72 Q3795.41 996.353 3795.41 986.307 Q3795.41 979.687 3799.21 975.104 Q3803 970.52 3809.76 968.946 M3806.34 954.178 Q3806.34 959.548 3809.67 962.557 Q3813.05 965.567 3819.11 965.567 Q3825.13 965.567 3828.51 962.557 Q3831.94 959.548 3831.94 954.178 Q3831.94 948.807 3828.51 945.798 Q3825.13 942.789 3819.11 942.789 Q3813.05 942.789 3809.67 945.798 Q3806.34 948.807 3806.34 954.178 Z" fill="#000000" fill-rule="nonzero" fill-opacity="1" /><path clip-path="url(#clip280)" d="M4580.35 997.881 L4595.63 997.881 L4595.63 945.15 L4579.01 948.483 L4579.01 939.965 L4595.54 936.631 L4604.89 936.631 L4604.89 997.881 L4620.17 997.881 L4620.17 1005.75 L4580.35 1005.75 L4580.35 997.881 Z" fill="#000000" fill-rule="nonzero" fill-opacity="1" /><path clip-path="url(#clip280)" d="M4659.06 942.789 Q4651.83 942.789 4648.18 949.918 Q4644.56 957.002 4644.56 971.261 Q4644.56 985.474 4648.18 992.603 Q4651.83 999.687 4659.06 999.687 Q4666.32 999.687 4669.93 992.603 Q4673.59 985.474 4673.59 971.261 Q4673.59 957.002 4669.93 949.918 Q4666.32 942.789 4659.06 942.789 M4659.06 935.382 Q4670.68 935.382 4676.79 944.594 Q4682.94 953.761 4682.94 971.261 Q4682.94 988.715 4676.79 997.927 Q4670.68 1007.09 4659.06 1007.09 Q4647.43 1007.09 4641.28 997.927 Q4635.17 988.715 4635.17 971.261 Q4635.17 953.761 4641.28 944.594 Q4647.43 935.382 4659.06 935.382 Z" fill="#000000" fill-rule="nonzero" fill-opacity="1" /><path clip-path="url(#clip280)" d="M2318.56 1072.18 L2384.34 1072.18 L2384.34 1081.04 L2356.74 1081.04 L2356.74 1149.94 L2346.17 1149.94 L2346.17 1081.04 L2318.56 1081.04 L2318.56 1072.18 Z" fill="#000000" fill-rule="nonzero" fill-opacity="1" /><path clip-path="url(#clip280)" d="M2390.8 1091.61 L2400.38 1091.61 L2400.38 1149.94 L2390.8 1149.94 L2390.8 1091.61 M2390.8 1068.9 L2400.38 1068.9 L2400.38 1081.04 L2390.8 1081.04 L2390.8 1068.9 Z" fill="#000000" fill-rule="nonzero" fill-opacity="1" /><path clip-path="url(#clip280)" d="M2465.85 1102.81 Q2469.45 1096.35 2474.45 1093.28 Q2479.45 1090.2 2486.22 1090.2 Q2495.33 1090.2 2500.28 1096.61 Q2505.23 1102.96 2505.23 1114.74 L2505.23 1149.94 L2495.59 1149.94 L2495.59 1115.05 Q2495.59 1106.66 2492.62 1102.6 Q2489.65 1098.54 2483.56 1098.54 Q2476.11 1098.54 2471.79 1103.49 Q2467.47 1108.43 2467.47 1116.97 L2467.47 1149.94 L2457.83 1149.94 L2457.83 1115.05 Q2457.83 1106.61 2454.86 1102.6 Q2451.89 1098.54 2445.7 1098.54 Q2438.35 1098.54 2434.03 1103.54 Q2429.71 1108.49 2429.71 1116.97 L2429.71 1149.94 L2420.07 1149.94 L2420.07 1091.61 L2429.71 1091.61 L2429.71 1100.67 Q2432.99 1095.31 2437.57 1092.76 Q2442.15 1090.2 2448.46 1090.2 Q2454.81 1090.2 2459.24 1093.43 Q2463.72 1096.66 2465.85 1102.81 Z" fill="#000000" fill-rule="nonzero" fill-opacity="1" /><path clip-path="url(#clip280)" d="M2574.24 1118.38 L2574.24 1123.07 L2530.18 1123.07 Q2530.8 1132.96 2536.11 1138.17 Q2541.48 1143.33 2551.01 1143.33 Q2556.53 1143.33 2561.69 1141.97 Q2566.89 1140.62 2572 1137.91 L2572 1146.97 Q2566.84 1149.16 2561.43 1150.31 Q2556.01 1151.45 2550.44 1151.45 Q2536.48 1151.45 2528.3 1143.33 Q2520.18 1135.2 2520.18 1121.35 Q2520.18 1107.03 2527.88 1098.64 Q2535.64 1090.2 2548.77 1090.2 Q2560.54 1090.2 2567.36 1097.81 Q2574.24 1105.36 2574.24 1118.38 M2564.65 1115.57 Q2564.55 1107.7 2560.23 1103.02 Q2555.96 1098.33 2548.87 1098.33 Q2540.85 1098.33 2536.01 1102.86 Q2531.22 1107.39 2530.49 1115.62 L2564.65 1115.57 Z" fill="#000000" fill-rule="nonzero" fill-opacity="1" /><path clip-path="url(#clip280)" d="M2646.89 1069.01 Q2639.91 1080.99 2636.53 1092.7 Q2633.14 1104.42 2633.14 1116.45 Q2633.14 1128.49 2636.53 1140.31 Q2639.97 1152.08 2646.89 1164.01 L2638.56 1164.01 Q2630.75 1151.77 2626.84 1139.94 Q2622.99 1128.12 2622.99 1116.45 Q2622.99 1104.84 2626.84 1093.07 Q2630.7 1081.3 2638.56 1069.01 L2646.89 1069.01 Z" fill="#000000" fill-rule="nonzero" fill-opacity="1" /><path clip-path="url(#clip280)" d="M2703.87 1100.46 L2703.87 1068.9 L2713.46 1068.9 L2713.46 1149.94 L2703.87 1149.94 L2703.87 1141.19 Q2700.85 1146.4 2696.22 1148.95 Q2691.63 1151.45 2685.17 1151.45 Q2674.6 1151.45 2667.93 1143.02 Q2661.32 1134.58 2661.32 1120.83 Q2661.32 1107.08 2667.93 1098.64 Q2674.6 1090.2 2685.17 1090.2 Q2691.63 1090.2 2696.22 1092.76 Q2700.85 1095.26 2703.87 1100.46 M2671.22 1120.83 Q2671.22 1131.4 2675.54 1137.44 Q2679.91 1143.43 2687.52 1143.43 Q2695.12 1143.43 2699.5 1137.44 Q2703.87 1131.4 2703.87 1120.83 Q2703.87 1110.26 2699.5 1104.27 Q2695.12 1098.23 2687.52 1098.23 Q2679.91 1098.23 2675.54 1104.27 Q2671.22 1110.26 2671.22 1120.83 Z" fill="#000000" fill-rule="nonzero" fill-opacity="1" /><path clip-path="url(#clip280)" d="M2759.71 1120.62 Q2748.09 1120.62 2743.61 1123.28 Q2739.13 1125.93 2739.13 1132.34 Q2739.13 1137.44 2742.47 1140.46 Q2745.85 1143.43 2751.63 1143.43 Q2759.6 1143.43 2764.39 1137.81 Q2769.24 1132.13 2769.24 1122.76 L2769.24 1120.62 L2759.71 1120.62 M2778.82 1116.66 L2778.82 1149.94 L2769.24 1149.94 L2769.24 1141.09 Q2765.96 1146.4 2761.06 1148.95 Q2756.16 1151.45 2749.08 1151.45 Q2740.12 1151.45 2734.81 1146.45 Q2729.55 1141.4 2729.55 1132.96 Q2729.55 1123.12 2736.11 1118.12 Q2742.73 1113.12 2755.8 1113.12 L2769.24 1113.12 L2769.24 1112.18 Q2769.24 1105.57 2764.86 1101.98 Q2760.54 1098.33 2752.67 1098.33 Q2747.67 1098.33 2742.93 1099.53 Q2738.19 1100.73 2733.82 1103.12 L2733.82 1094.27 Q2739.08 1092.24 2744.03 1091.25 Q2748.98 1090.2 2753.66 1090.2 Q2766.32 1090.2 2772.57 1096.77 Q2778.82 1103.33 2778.82 1116.66 Z" fill="#000000" fill-rule="nonzero" fill-opacity="1" /><path clip-path="url(#clip280)" d="M2822.83 1155.36 Q2818.77 1165.78 2814.91 1168.95 Q2811.06 1172.13 2804.6 1172.13 L2796.94 1172.13 L2796.94 1164.11 L2802.57 1164.11 Q2806.53 1164.11 2808.72 1162.24 Q2810.9 1160.36 2813.56 1153.38 L2815.28 1149.01 L2791.68 1091.61 L2801.84 1091.61 L2820.07 1137.24 L2838.3 1091.61 L2848.45 1091.61 L2822.83 1155.36 Z" fill="#000000" fill-rule="nonzero" fill-opacity="1" /><path clip-path="url(#clip280)" d="M2860.17 1069.01 L2868.51 1069.01 Q2876.32 1081.3 2880.17 1093.07 Q2884.08 1104.84 2884.08 1116.45 Q2884.08 1128.12 2880.17 1139.94 Q2876.32 1151.77 2868.51 1164.01 L2860.17 1164.01 Q2867.1 1152.08 2870.49 1140.31 Q2873.92 1128.49 2873.92 1116.45 Q2873.92 1104.42 2870.49 1092.7 Q2867.1 1080.99 2860.17 1069.01 Z" fill="#000000" fill-rule="nonzero" fill-opacity="1" /><polyline clip-path="url(#clip280)" style="stroke:#000000; stroke-linecap:round; stroke-linejoin:round; stroke-width:4; stroke-opacity:1; fill:none" points="449.885,880.951 449.885,47.2441 "/>
<polyline clip-path="url(#clip280)" style="stroke:#000000; stroke-linecap:round; stroke-linejoin:round; stroke-width:4; stroke-opacity:1; fill:none" points="449.885,809.226 468.783,809.226 "/>
<polyline clip-path="url(#clip280)" style="stroke:#000000; stroke-linecap:round; stroke-linejoin:round; stroke-width:4; stroke-opacity:1; fill:none" points="449.885,696.275 468.783,696.275 "/>
<polyline clip-path="url(#clip280)" style="stroke:#000000; stroke-linecap:round; stroke-linejoin:round; stroke-width:4; stroke-opacity:1; fill:none" points="449.885,583.324 468.783,583.324 "/>
<polyline clip-path="url(#clip280)" style="stroke:#000000; stroke-linecap:round; stroke-linejoin:round; stroke-width:4; stroke-opacity:1; fill:none" points="449.885,470.373 468.783,470.373 "/>
<polyline clip-path="url(#clip280)" style="stroke:#000000; stroke-linecap:round; stroke-linejoin:round; stroke-width:4; stroke-opacity:1; fill:none" points="449.885,357.422 468.783,357.422 "/>
<polyline clip-path="url(#clip280)" style="stroke:#000000; stroke-linecap:round; stroke-linejoin:round; stroke-width:4; stroke-opacity:1; fill:none" points="449.885,244.471 468.783,244.471 "/>
<polyline clip-path="url(#clip280)" style="stroke:#000000; stroke-linecap:round; stroke-linejoin:round; stroke-width:4; stroke-opacity:1; fill:none" points="449.885,131.52 468.783,131.52 "/>
<path clip-path="url(#clip280)" d="M194.136 810.129 L253.488 810.129 L253.488 817.999 L194.136 817.999 L194.136 810.129 Z" fill="#000000" fill-rule="nonzero" fill-opacity="1" /><path clip-path="url(#clip280)" d="M299.367 782.814 L275.756 819.712 L299.367 819.712 L299.367 782.814 M296.914 774.666 L308.673 774.666 L308.673 819.712 L318.534 819.712 L318.534 827.49 L308.673 827.49 L308.673 843.786 L299.367 843.786 L299.367 827.49 L268.164 827.49 L268.164 818.462 L296.914 774.666 Z" fill="#000000" fill-rule="nonzero" fill-opacity="1" /><path clip-path="url(#clip280)" d="M353.997 780.823 Q346.774 780.823 343.117 787.953 Q339.506 795.036 339.506 809.295 Q339.506 823.508 343.117 830.638 Q346.774 837.721 353.997 837.721 Q361.265 837.721 364.876 830.638 Q368.534 823.508 368.534 809.295 Q368.534 795.036 364.876 787.953 Q361.265 780.823 353.997 780.823 M353.997 773.416 Q365.617 773.416 371.728 782.629 Q377.885 791.795 377.885 809.295 Q377.885 826.749 371.728 835.962 Q365.617 845.128 353.997 845.128 Q342.376 845.128 336.219 835.962 Q330.108 826.749 330.108 809.295 Q330.108 791.795 336.219 782.629 Q342.376 773.416 353.997 773.416 Z" fill="#000000" fill-rule="nonzero" fill-opacity="1" /><path clip-path="url(#clip280)" d="M194.136 697.178 L253.488 697.178 L253.488 705.048 L194.136 705.048 L194.136 697.178 Z" fill="#000000" fill-rule="nonzero" fill-opacity="1" /><path clip-path="url(#clip280)" d="M281.729 722.965 L314.367 722.965 L314.367 730.835 L270.479 730.835 L270.479 722.965 Q275.803 717.455 284.969 708.196 Q294.182 698.891 296.543 696.205 Q301.034 691.159 302.793 687.687 Q304.599 684.168 304.599 680.789 Q304.599 675.28 300.71 671.807 Q296.867 668.335 290.664 668.335 Q286.266 668.335 281.358 669.863 Q276.497 671.391 270.942 674.493 L270.942 665.048 Q276.59 662.78 281.497 661.622 Q286.404 660.465 290.478 660.465 Q301.219 660.465 307.608 665.835 Q313.997 671.206 313.997 680.187 Q313.997 684.446 312.376 688.289 Q310.802 692.085 306.589 697.27 Q305.432 698.613 299.228 705.048 Q293.025 711.437 281.729 722.965 Z" fill="#000000" fill-rule="nonzero" fill-opacity="1" /><path clip-path="url(#clip280)" d="M353.997 667.872 Q346.774 667.872 343.117 675.002 Q339.506 682.085 339.506 696.344 Q339.506 710.557 343.117 717.687 Q346.774 724.77 353.997 724.77 Q361.265 724.77 364.876 717.687 Q368.534 710.557 368.534 696.344 Q368.534 682.085 364.876 675.002 Q361.265 667.872 353.997 667.872 M353.997 660.465 Q365.617 660.465 371.728 669.678 Q377.885 678.844 377.885 696.344 Q377.885 713.798 371.728 723.011 Q365.617 732.177 353.997 732.177 Q342.376 732.177 336.219 723.011 Q330.108 713.798 330.108 696.344 Q330.108 678.844 336.219 669.678 Q342.376 660.465 353.997 660.465 Z" fill="#000000" fill-rule="nonzero" fill-opacity="1" /><path clip-path="url(#clip280)" d="M353.997 554.921 Q346.774 554.921 343.117 562.051 Q339.506 569.134 339.506 583.393 Q339.506 597.606 343.117 604.736 Q346.774 611.819 353.997 611.819 Q361.265 611.819 364.876 604.736 Q368.534 597.606 368.534 583.393 Q368.534 569.134 364.876 562.051 Q361.265 554.921 353.997 554.921 M353.997 547.514 Q365.617 547.514 371.728 556.727 Q377.885 565.893 377.885 583.393 Q377.885 600.847 371.728 610.06 Q365.617 619.226 353.997 619.226 Q342.376 619.226 336.219 610.06 Q330.108 600.847 330.108 583.393 Q330.108 565.893 336.219 556.727 Q342.376 547.514 353.997 547.514 Z" fill="#000000" fill-rule="nonzero" fill-opacity="1" /><path clip-path="url(#clip280)" d="M281.729 497.063 L314.367 497.063 L314.367 504.933 L270.479 504.933 L270.479 497.063 Q275.803 491.553 284.969 482.294 Q294.182 472.989 296.543 470.303 Q301.034 465.257 302.793 461.785 Q304.599 458.266 304.599 454.887 Q304.599 449.378 300.71 445.905 Q296.867 442.433 290.664 442.433 Q286.266 442.433 281.358 443.961 Q276.497 445.489 270.942 448.591 L270.942 439.146 Q276.59 436.878 281.497 435.72 Q286.404 434.563 290.478 434.563 Q301.219 434.563 307.608 439.933 Q313.997 445.304 313.997 454.285 Q313.997 458.544 312.376 462.387 Q310.802 466.183 306.589 471.368 Q305.432 472.711 299.228 479.146 Q293.025 485.535 281.729 497.063 Z" fill="#000000" fill-rule="nonzero" fill-opacity="1" /><path clip-path="url(#clip280)" d="M353.997 441.97 Q346.774 441.97 343.117 449.1 Q339.506 456.183 339.506 470.442 Q339.506 484.655 343.117 491.785 Q346.774 498.868 353.997 498.868 Q361.265 498.868 364.876 491.785 Q368.534 484.655 368.534 470.442 Q368.534 456.183 364.876 449.1 Q361.265 441.97 353.997 441.97 M353.997 434.563 Q365.617 434.563 371.728 443.776 Q377.885 452.942 377.885 470.442 Q377.885 487.896 371.728 497.109 Q365.617 506.275 353.997 506.275 Q342.376 506.275 336.219 497.109 Q330.108 487.896 330.108 470.442 Q330.108 452.942 336.219 443.776 Q342.376 434.563 353.997 434.563 Z" fill="#000000" fill-rule="nonzero" fill-opacity="1" /><path clip-path="url(#clip280)" d="M299.367 331.01 L275.756 367.908 L299.367 367.908 L299.367 331.01 M296.914 322.862 L308.673 322.862 L308.673 367.908 L318.534 367.908 L318.534 375.686 L308.673 375.686 L308.673 391.982 L299.367 391.982 L299.367 375.686 L268.164 375.686 L268.164 366.658 L296.914 322.862 Z" fill="#000000" fill-rule="nonzero" fill-opacity="1" /><path clip-path="url(#clip280)" d="M353.997 329.019 Q346.774 329.019 343.117 336.149 Q339.506 343.232 339.506 357.491 Q339.506 371.704 343.117 378.834 Q346.774 385.917 353.997 385.917 Q361.265 385.917 364.876 378.834 Q368.534 371.704 368.534 357.491 Q368.534 343.232 364.876 336.149 Q361.265 329.019 353.997 329.019 M353.997 321.612 Q365.617 321.612 371.728 330.825 Q377.885 339.991 377.885 357.491 Q377.885 374.945 371.728 384.158 Q365.617 393.324 353.997 393.324 Q342.376 393.324 336.219 384.158 Q330.108 374.945 330.108 357.491 Q330.108 339.991 336.219 330.825 Q342.376 321.612 353.997 321.612 Z" fill="#000000" fill-rule="nonzero" fill-opacity="1" /><path clip-path="url(#clip280)" d="M294.83 240.744 Q288.534 240.744 284.83 245.05 Q281.173 249.355 281.173 256.855 Q281.173 264.309 284.83 268.661 Q288.534 272.966 294.83 272.966 Q301.127 272.966 304.784 268.661 Q308.488 264.309 308.488 256.855 Q308.488 249.355 304.784 245.05 Q301.127 240.744 294.83 240.744 M313.395 211.439 L313.395 219.957 Q309.876 218.29 306.265 217.411 Q302.701 216.531 299.182 216.531 Q289.923 216.531 285.016 222.781 Q280.154 229.031 279.46 241.67 Q282.191 237.642 286.312 235.513 Q290.432 233.337 295.386 233.337 Q305.802 233.337 311.821 239.679 Q317.886 245.975 317.886 256.855 Q317.886 267.503 311.589 273.938 Q305.293 280.373 294.83 280.373 Q282.84 280.373 276.497 271.207 Q270.154 261.994 270.154 244.54 Q270.154 228.151 277.932 218.429 Q285.71 208.661 298.812 208.661 Q302.33 208.661 305.895 209.355 Q309.506 210.05 313.395 211.439 Z" fill="#000000" fill-rule="nonzero" fill-opacity="1" /><path clip-path="url(#clip280)" d="M353.997 216.068 Q346.774 216.068 343.117 223.198 Q339.506 230.281 339.506 244.54 Q339.506 258.753 343.117 265.883 Q346.774 272.966 353.997 272.966 Q361.265 272.966 364.876 265.883 Q368.534 258.753 368.534 244.54 Q368.534 230.281 364.876 223.198 Q361.265 216.068 353.997 216.068 M353.997 208.661 Q365.617 208.661 371.728 217.874 Q377.885 227.04 377.885 244.54 Q377.885 261.994 371.728 271.207 Q365.617 280.373 353.997 280.373 Q342.376 280.373 336.219 271.207 Q330.108 261.994 330.108 244.54 Q330.108 227.04 336.219 217.874 Q342.376 208.661 353.997 208.661 Z" fill="#000000" fill-rule="nonzero" fill-opacity="1" /><path clip-path="url(#clip280)" d="M293.673 133.256 Q287.006 133.256 283.164 136.821 Q279.367 140.386 279.367 146.636 Q279.367 152.885 283.164 156.45 Q287.006 160.015 293.673 160.015 Q300.34 160.015 304.182 156.45 Q308.025 152.839 308.025 146.636 Q308.025 140.386 304.182 136.821 Q300.386 133.256 293.673 133.256 M284.321 129.274 Q278.303 127.793 274.923 123.673 Q271.59 119.552 271.59 113.626 Q271.59 105.339 277.469 100.525 Q283.395 95.7099 293.673 95.7099 Q303.997 95.7099 309.876 100.525 Q315.756 105.339 315.756 113.626 Q315.756 119.552 312.376 123.673 Q309.043 127.793 303.071 129.274 Q309.83 130.849 313.58 135.432 Q317.376 140.015 317.376 146.636 Q317.376 156.682 311.219 162.052 Q305.108 167.422 293.673 167.422 Q282.238 167.422 276.08 162.052 Q269.969 156.682 269.969 146.636 Q269.969 140.015 273.766 135.432 Q277.562 130.849 284.321 129.274 M280.895 114.506 Q280.895 119.876 284.228 122.886 Q287.608 125.895 293.673 125.895 Q299.691 125.895 303.071 122.886 Q306.497 119.876 306.497 114.506 Q306.497 109.136 303.071 106.126 Q299.691 103.117 293.673 103.117 Q287.608 103.117 284.228 106.126 Q280.895 109.136 280.895 114.506 Z" fill="#000000" fill-rule="nonzero" fill-opacity="1" /><path clip-path="url(#clip280)" d="M353.997 103.117 Q346.774 103.117 343.117 110.247 Q339.506 117.33 339.506 131.589 Q339.506 145.802 343.117 152.932 Q346.774 160.015 353.997 160.015 Q361.265 160.015 364.876 152.932 Q368.534 145.802 368.534 131.589 Q368.534 117.33 364.876 110.247 Q361.265 103.117 353.997 103.117 M353.997 95.7099 Q365.617 95.7099 371.728 104.923 Q377.885 114.089 377.885 131.589 Q377.885 149.043 371.728 158.256 Q365.617 167.422 353.997 167.422 Q342.376 167.422 336.219 158.256 Q330.108 149.043 330.108 131.589 Q330.108 114.089 336.219 104.923 Q342.376 95.7099 353.997 95.7099 Z" fill="#000000" fill-rule="nonzero" fill-opacity="1" /><path clip-path="url(#clip280)" d="M21.0484 826.283 L21.0484 812.117 L86.1001 777.638 L21.0484 777.638 L21.0484 767.43 L98.8084 767.43 L98.8084 781.596 L33.7566 816.075 L98.8084 816.075 L98.8084 826.283 L21.0484 826.283 Z" fill="#000000" fill-rule="nonzero" fill-opacity="1" /><path clip-path="url(#clip280)" d="M28.1838 714.93 Q28.1838 726.388 36.7254 733.159 Q45.267 739.878 60.0065 739.878 Q74.6939 739.878 83.2355 733.159 Q91.7772 726.388 91.7772 714.93 Q91.7772 703.472 83.2355 696.805 Q74.6939 690.086 60.0065 690.086 Q45.267 690.086 36.7254 696.805 Q28.1838 703.472 28.1838 714.93 M19.6421 714.93 Q19.6421 698.576 30.6317 688.784 Q41.5691 678.992 60.0065 678.992 Q78.3918 678.992 89.3813 688.784 Q100.319 698.576 100.319 714.93 Q100.319 731.336 89.3813 741.18 Q78.4439 750.971 60.0065 750.971 Q41.5691 750.971 30.6317 741.18 Q19.6421 731.336 19.6421 714.93 Z" fill="#000000" fill-rule="nonzero" fill-opacity="1" /><path clip-path="url(#clip280)" d="M21.0484 628.628 L21.0484 579.462 L29.9025 579.462 L29.9025 618.107 L52.9232 618.107 L52.9232 581.076 L61.7773 581.076 L61.7773 618.107 L89.9543 618.107 L89.9543 578.524 L98.8084 578.524 L98.8084 628.628 L21.0484 628.628 Z" fill="#000000" fill-rule="nonzero" fill-opacity="1" /><path clip-path="url(#clip280)" d="M49.4336 527.847 Q48.4961 529.462 48.0795 531.389 Q47.6107 533.264 47.6107 535.556 Q47.6107 543.681 52.9232 548.056 Q58.1836 552.379 68.0794 552.379 L98.8084 552.379 L98.8084 562.014 L40.4754 562.014 L40.4754 552.379 L49.5378 552.379 Q44.2253 549.358 41.6733 544.514 Q39.0691 539.67 39.0691 532.743 Q39.0691 531.754 39.2254 530.556 Q39.3295 529.358 39.5899 527.9 L49.4336 527.847 Z" fill="#000000" fill-rule="nonzero" fill-opacity="1" /><path clip-path="url(#clip280)" d="M49.4336 485.869 Q48.4961 487.483 48.0795 489.41 Q47.6107 491.285 47.6107 493.577 Q47.6107 501.702 52.9232 506.077 Q58.1836 510.4 68.0794 510.4 L98.8084 510.4 L98.8084 520.035 L40.4754 520.035 L40.4754 510.4 L49.5378 510.4 Q44.2253 507.379 41.6733 502.535 Q39.0691 497.691 39.0691 490.764 Q39.0691 489.775 39.2254 488.577 Q39.3295 487.379 39.5899 485.921 L49.4336 485.869 Z" fill="#000000" fill-rule="nonzero" fill-opacity="1" /><path clip-path="url(#clip280)" d="M47.1941 455.556 Q47.1941 463.264 53.2357 467.744 Q59.2253 472.223 69.694 472.223 Q80.1626 472.223 86.2043 467.796 Q92.1938 463.317 92.1938 455.556 Q92.1938 447.9 86.1522 443.421 Q80.1106 438.942 69.694 438.942 Q59.3294 438.942 53.2878 443.421 Q47.1941 447.9 47.1941 455.556 M39.0691 455.556 Q39.0691 443.056 47.1941 435.921 Q55.319 428.785 69.694 428.785 Q84.0168 428.785 92.1938 435.921 Q100.319 443.056 100.319 455.556 Q100.319 468.108 92.1938 475.244 Q84.0168 482.327 69.694 482.327 Q55.319 482.327 47.1941 475.244 Q39.0691 468.108 39.0691 455.556 Z" fill="#000000" fill-rule="nonzero" fill-opacity="1" /><path clip-path="url(#clip280)" d="M49.4336 379.098 Q48.4961 380.713 48.0795 382.64 Q47.6107 384.515 47.6107 386.807 Q47.6107 394.931 52.9232 399.306 Q58.1836 403.629 68.0794 403.629 L98.8084 403.629 L98.8084 413.265 L40.4754 413.265 L40.4754 403.629 L49.5378 403.629 Q44.2253 400.609 41.6733 395.765 Q39.0691 390.921 39.0691 383.994 Q39.0691 383.004 39.2254 381.807 Q39.3295 380.609 39.5899 379.15 L49.4336 379.098 Z" fill="#000000" fill-rule="nonzero" fill-opacity="1" /><path clip-path="url(#clip280)" d="M17.8713 346.026 Q29.8504 353.005 41.5691 356.39 Q53.2878 359.775 65.319 359.775 Q77.3502 359.775 89.173 356.39 Q100.944 352.953 112.871 346.026 L112.871 354.359 Q100.631 362.171 88.8084 366.077 Q76.9856 369.932 65.319 369.932 Q53.7045 369.932 41.9337 366.077 Q30.1629 362.223 17.8713 354.359 L17.8713 346.026 Z" fill="#000000" fill-rule="nonzero" fill-opacity="1" /><path clip-path="url(#clip280)" d="M90.0584 318.161 L120.996 318.161 L120.996 327.796 L40.4754 327.796 L40.4754 318.161 L49.3295 318.161 Q44.1212 315.14 41.6212 310.557 Q39.0691 305.922 39.0691 299.515 Q39.0691 288.89 47.5066 282.276 Q55.944 275.609 69.694 275.609 Q83.4439 275.609 91.8813 282.276 Q100.319 288.89 100.319 299.515 Q100.319 305.922 97.8188 310.557 Q95.2667 315.14 90.0584 318.161 M69.694 285.557 Q59.1211 285.557 53.1315 289.932 Q47.0899 294.255 47.0899 301.859 Q47.0899 309.463 53.1315 313.838 Q59.1211 318.161 69.694 318.161 Q80.2668 318.161 86.3084 313.838 Q92.298 309.463 92.298 301.859 Q92.298 294.255 86.3084 289.932 Q80.2668 285.557 69.694 285.557 Z" fill="#000000" fill-rule="nonzero" fill-opacity="1" /><path clip-path="url(#clip280)" d="M90.0584 250.453 L120.996 250.453 L120.996 260.088 L40.4754 260.088 L40.4754 250.453 L49.3295 250.453 Q44.1212 247.432 41.6212 242.849 Q39.0691 238.214 39.0691 231.807 Q39.0691 221.182 47.5066 214.568 Q55.944 207.901 69.694 207.901 Q83.4439 207.901 91.8813 214.568 Q100.319 221.182 100.319 231.807 Q100.319 238.214 97.8188 242.849 Q95.2667 247.432 90.0584 250.453 M69.694 217.849 Q59.1211 217.849 53.1315 222.224 Q47.0899 226.547 47.0899 234.151 Q47.0899 241.755 53.1315 246.13 Q59.1211 250.453 69.694 250.453 Q80.2668 250.453 86.3084 246.13 Q92.298 241.755 92.298 234.151 Q92.298 226.547 86.3084 222.224 Q80.2668 217.849 69.694 217.849 Z" fill="#000000" fill-rule="nonzero" fill-opacity="1" /><path clip-path="url(#clip280)" d="M69.694 150.141 Q59.1211 150.141 53.1315 154.516 Q47.0899 158.839 47.0899 166.443 Q47.0899 174.047 53.1315 178.422 Q59.1211 182.745 69.694 182.745 Q80.2668 182.745 86.3084 178.422 Q92.298 174.047 92.298 166.443 Q92.298 158.839 86.3084 154.516 Q80.2668 150.141 69.694 150.141 M49.3295 182.745 Q44.1212 179.724 41.6212 175.141 Q39.0691 170.506 39.0691 164.099 Q39.0691 153.474 47.5066 146.86 Q55.944 140.193 69.694 140.193 Q83.4439 140.193 91.8813 146.86 Q100.319 153.474 100.319 164.099 Q100.319 170.506 97.8188 175.141 Q95.2667 179.724 90.0584 182.745 L98.8084 182.745 L98.8084 192.381 L17.7671 192.381 L17.7671 182.745 L49.3295 182.745 Z" fill="#000000" fill-rule="nonzero" fill-opacity="1" /><path clip-path="url(#clip280)" d="M17.8713 125.818 L17.8713 117.485 Q30.1629 109.673 41.9337 105.818 Q53.7045 101.912 65.319 101.912 Q76.9856 101.912 88.8084 105.818 Q100.631 109.673 112.871 117.485 L112.871 125.818 Q100.944 118.891 89.173 115.506 Q77.3502 112.068 65.319 112.068 Q53.2878 112.068 41.5691 115.506 Q29.8504 118.891 17.8713 125.818 Z" fill="#000000" fill-rule="nonzero" fill-opacity="1" /><path clip-path="url(#clip282)" d="M571.665 593.955 L588.579 664.482 L605.492 717.874 L622.406 757.523 L639.32 782.438 L656.234 792.196 L673.148 780.318 L690.061 756.902 L706.975 715.436 L723.889 680.445 L740.803 680.214 L757.717 699.406 L774.63 721.665 L791.544 740.918 L808.458 752.825 L825.372 749.123 L842.286 732.17 L859.199 712.764 L876.113 691.313 L893.027 685.042 L909.941 701.256 L926.855 727.421 L943.768 748.271 L960.682 764.382 L977.596 789.644 L994.51 819.993 L1011.42 840.791 L1028.34 853.323 L1045.25 857.356 L1062.16 847.585 L1079.08 822.493 L1095.99 774.384 L1112.91 728.434 L1129.82 690.519 L1146.73 690.156 L1163.65 706.733 L1180.56 727.662 L1197.48 755.96 L1214.39 772.342 L1231.3 772.981 L1248.22 748.579 L1265.13 719.032 L1282.04 698.106 L1298.96 692.917 L1315.87 702.978 L1332.79 725.175 L1349.7 743.005 L1366.61 760.63 L1383.53 785.716 L1400.44 813.102 L1417.35 835.356 L1434.27 849.031 L1451.18 854.489 L1468.1 849.521 L1485.01 821.794 L1501.92 788.932 L1518.84 740.704 L1535.75 699.871 L1552.67 693.779 L1569.58 708.02 L1586.49 730.394 L1603.41 757.954 L1620.32 771.095 L1637.23 768.306 L1654.15 751.748 L1671.06 724.837 L1687.98 694.741 L1704.89 689.165 L1721.8 701.685 L1738.72 729.751 L1755.63 749.121 L1772.54 764.319 L1789.46 784.326 L1806.37 813.643 L1823.29 832.56 L1840.2 847.088 L1857.11 852.072 L1874.03 845.609 L1890.94 819.133 L1907.85 783.225 L1924.77 734.08 L1941.68 689.922 L1958.6 683.653 L1975.51 701.303 L1992.42 731.831 L2009.34 754.138 L2026.25 771.744 L2043.17 772.456 L2060.08 748.628 L2076.99 723.527 L2093.91 700.44 L2110.82 696.895 L2127.73 704.406 L2144.65 724.524 L2161.56 738.137 L2178.48 755.086 L2195.39 781.584 L2212.3 814.037 L2229.22 835.254 L2246.13 847.978 L2263.04 852.145 L2279.96 843.739 L2296.87 817.36 L2313.79 784.347 L2330.7 737.84 L2347.61 696.002 L2364.53 694.524 L2381.44 709.386 L2398.36 728.76 L2415.27 753.442 L2432.18 769.961 L2449.1 769.544 L2466.01 750.991 L2482.92 719.461 L2499.84 691.208 L2516.75 693.235 L2533.67 706.441 L2550.58 725.586 L2567.49 740.439 L2584.41 758.536 L2601.32 780.526 L2618.23 811.766 L2635.15 833.591 L2652.06 846.999 L2668.98 852.185 L2685.89 838.436 L2702.8 815.598 L2719.72 783.971 L2736.63 730.133 L2753.54 686.828 L2770.46 681.531 L2787.37 700.092 L2804.29 728.38 L2821.2 754.845 L2838.11 769.862 L2855.03 766.084 L2871.94 746.741 L2888.86 718.694 L2905.77 694.334 L2922.68 689.032 L2939.6 699.259 L2956.51 719.86 L2973.42 739.749 L2990.34 757.058 L3007.25 777.048 L3024.17 809.537 L3041.08 831.94 L3057.99 845.387 L3074.91 850.528 L3091.82 841.526 L3108.73 817.562 L3125.65 778.56 L3142.56 729.518 L3159.48 689.105 L3176.39 684.842 L3193.3 701.34 L3210.22 726.19 L3227.13 754.15 L3244.05 769.333 L3260.96 765.19 L3277.87 746.497 L3294.79 719.368 L3311.7 690.565 L3328.61 687.562 L3345.53 696.755 L3362.44 721.287 L3379.36 741.525 L3396.27 757.347 L3413.18 784.872 L3430.1 812.853 L3447.01 832.205 L3463.92 845.384 L3480.84 849.976 L3497.75 841.838 L3514.67 817.288 L3531.58 772.819 L3548.49 724.536 L3565.41 686.558 L3582.32 684.022 L3599.23 700.687 L3616.15 723.884 L3633.06 752.459 L3649.98 769.797 L3666.89 770.831 L3683.8 753.374 L3700.72 724.804 L3717.63 691.409 L3734.55 685.913 L3751.46 695.576 L3768.37 719.739 L3785.29 739.297 L3802.2 755.965 L3819.11 775.417 L3836.03 807.178 L3852.94 829.703 L3869.86 843.418 L3886.77 847.961 L3903.68 844.275 L3920.6 817.836 L3937.51 782.456 L3954.42 727.539 L3971.34 685.164 L3988.25 683.104 L4005.17 700.523 L4022.08 724.704 L4038.99 752.89 L4055.91 768.627 L4072.82 766.503 L4089.73 746.931 L4106.65 716.085 L4123.56 686.983 L4140.48 680.867 L4157.39 689.995 L4174.3 714.996 L4191.22 737.836 L4208.13 755.688 L4225.05 781.329 L4241.96 808.102 L4258.87 830.207 L4275.79 843.634 L4292.7 848.805 L4309.61 841.29 L4326.53 817.709 L4343.44 785.857 L4360.36 730.226 L4377.27 686.804 L4394.18 684.901 L4411.1 697.822 L4428.01 728.864 L4444.92 753.801 L4461.84 766.449 L4478.75 762.715 L4495.67 744.889 L4512.58 718.704 L4529.49 690.227 L4546.41 688.326 L4563.32 698.841 L4580.24 719.015 L4597.15 737.035 L4614.06 755.523 L4630.98 777.353 L4630.98 172.353 L4614.06 135.097 L4597.15 107.295 L4580.24 85.7282 L4563.32 70.8396 L4546.41 85.9802 L4529.49 131.198 L4512.58 192.985 L4495.67 242.857 L4478.75 277.988 L4461.84 287.831 L4444.92 281.776 L4428.01 252.993 L4411.1 219.313 L4394.18 187.816 L4377.27 184.39 L4360.36 230.15 L4343.44 282.858 L4326.53 321.208 L4309.61 351.045 L4292.7 349.823 L4275.79 327.268 L4258.87 288.415 L4241.96 237.066 L4225.05 181.156 L4208.13 148.117 L4191.22 120.326 L4174.3 100.136 L4157.39 87.3503 L4140.48 103.006 L4123.56 144.538 L4106.65 207.114 L4089.73 258.434 L4072.82 295.654 L4055.91 300.595 L4038.99 291.518 L4022.08 262.329 L4005.17 230.908 L3988.25 204.174 L3971.34 199.024 L3954.42 241.332 L3937.51 294.404 L3920.6 333.55 L3903.68 357.77 L3886.77 366.78 L3869.86 343.75 L3852.94 306.897 L3836.03 258.875 L3819.11 201.195 L3802.2 159.262 L3785.29 133.415 L3768.37 114.51 L3751.46 102.92 L3734.55 109.444 L3717.63 158.725 L3700.72 221.431 L3683.8 279.017 L3666.89 307.136 L3649.98 310.055 L3633.06 297.436 L3616.15 266.94 L3599.23 233.021 L3582.32 204.443 L3565.41 200.097 L3548.49 243.562 L3531.58 300.404 L3514.67 334.397 L3497.75 359.086 L3480.84 362.126 L3463.92 338.268 L3447.01 297.909 L3430.1 244.064 L3413.18 188.737 L3396.27 156.708 L3379.36 131.377 L3362.44 118.453 L3345.53 105.438 L3328.61 121.645 L3311.7 166.317 L3294.79 227.028 L3277.87 274.999 L3260.96 307.35 L3244.05 314.919 L3227.13 306.834 L3210.22 276.186 L3193.3 241.493 L3176.39 208.533 L3159.48 204.773 L3142.56 250.12 L3125.65 303.348 L3108.73 337.133 L3091.82 362.011 L3074.91 372.494 L3057.99 352.348 L3041.08 313.762 L3024.17 262.542 L3007.25 207.143 L2990.34 174.653 L2973.42 148.258 L2956.51 130.096 L2939.6 119.47 L2922.68 136.93 L2905.77 180.256 L2888.86 242.199 L2871.94 291.995 L2855.03 324.543 L2838.11 326.767 L2821.2 311.314 L2804.29 282.894 L2787.37 249.218 L2770.46 219.513 L2753.54 214.837 L2736.63 261.036 L2719.72 316.07 L2702.8 345.726 L2685.89 371.007 L2668.98 370.818 L2652.06 355.921 L2635.15 319.46 L2618.23 267.523 L2601.32 214.079 L2584.41 182.395 L2567.49 159.008 L2550.58 139.295 L2533.67 125.254 L2516.75 142.198 L2499.84 191.682 L2482.92 253.971 L2466.01 307.25 L2449.1 340.839 L2432.18 342.003 L2415.27 323.441 L2398.36 290.131 L2381.44 256.042 L2364.53 228.539 L2347.61 223.901 L2330.7 266.181 L2313.79 320.607 L2296.87 353.808 L2279.96 379.947 L2263.04 381.011 L2246.13 366.952 L2229.22 332.678 L2212.3 283.129 L2195.39 224.435 L2178.48 188.311 L2161.56 169.009 L2144.65 151.166 L2127.73 133.652 L2110.82 148.781 L2093.91 194.311 L2076.99 258.197 L2060.08 308.439 L2043.17 342.915 L2026.25 345.229 L2009.34 332.735 L1992.42 300.4 L1975.51 264.296 L1958.6 232.257 L1941.68 226.679 L1924.77 265.72 L1907.85 319.947 L1890.94 359.23 L1874.03 387.772 L1857.11 393.396 L1840.2 374.826 L1823.29 347.219 L1806.37 296.493 L1789.46 236.482 L1772.54 198.729 L1755.63 177.607 L1738.72 159.195 L1721.8 144.673 L1704.89 160.401 L1687.98 208.988 L1671.06 274.525 L1654.15 327.628 L1637.23 359.925 L1620.32 362.412 L1603.41 345.415 L1586.49 315.192 L1569.58 278.212 L1552.67 244.813 L1535.75 238.472 L1518.84 283.389 L1501.92 337.488 L1485.01 368.249 L1468.1 396.497 L1451.18 405.646 L1434.27 393.637 L1417.35 366.048 L1400.44 315.552 L1383.53 257.129 L1366.61 224.167 L1349.7 201.562 L1332.79 181.967 L1315.87 172.639 L1298.96 193.645 L1282.04 246.729 L1265.13 313.481 L1248.22 365.858 L1231.3 396.928 L1214.39 403.494 L1197.48 394.049 L1180.56 364.741 L1163.65 319.384 L1146.73 278.83 L1129.82 267.365 L1112.91 314.675 L1095.99 377.741 L1079.08 431.377 L1062.16 462.717 L1045.25 470.368 L1028.34 464.873 L1011.42 430.786 L994.51 383.914 L977.596 328.57 L960.682 298.038 L943.768 276.9 L926.855 262.628 L909.941 260.467 L893.027 288.203 L876.113 322.646 L859.199 373.869 L842.286 411.615 L825.372 438.657 L808.458 451.852 L791.544 460.201 L774.63 451.555 L757.717 429.733 L740.803 395.634 L723.889 389.523 L706.975 433.663 L690.061 493.347 L673.148 533.961 L656.234 566.221 L639.32 580.414 L622.406 582.766 L605.492 576.777 L588.579 567.118 L571.665 545.518  Z" fill="#aeaeae" fill-rule="evenodd" fill-opacity="0.5"/>
<polyline clip-path="url(#clip282)" style="stroke:#aeaeae; stroke-linecap:round; stroke-linejoin:round; stroke-width:0; stroke-opacity:1; fill:none" points="571.665,583.966 588.579,599.988 605.492,613.461 622.406,623.33 639.32,628.024 656.234,626.14 673.148,613.607 690.061,596.226 706.975,572.147 723.889,553.762 740.803,555.319 757.717,567.493 774.63,581.87 791.544,594.301 808.458,599.938 825.372,598.236 842.286,586.78 859.199,570.34 876.113,552.268 893.027,541.908 909.941,541.651 926.855,550.193 943.768,559.356 960.682,568.897 977.596,582.691 994.51,602.174 1011.42,617.809 1028.34,628.386 1045.25,633.33 1062.16,629.811 1079.08,616.813 1095.99,597.569 1112.91,572.407 1129.82,553.697 1146.73,555.261 1163.65,567.731 1180.56,582.468 1197.48,595.007 1214.39,600.29 1231.3,598.32 1248.22,586.794 1265.13,569.969 1282.04,551.528 1298.96,540.899 1315.87,540.457 1332.79,548.842 1349.7,557.68 1366.61,566.772 1383.53,580.465 1400.44,599.908 1417.35,615.555 1434.27,626.143 1451.18,631.069 1468.1,627.82 1485.01,614.8 1501.92,595.634 1518.84,570.393 1535.75,551.781 1552.67,553.216 1569.58,565.647 1586.49,580.44 1603.41,593.063 1620.32,598.582 1637.23,596.558 1654.15,584.911 1671.06,568.001 1687.98,549.372 1704.89,538.659 1721.8,538.065 1738.72,546.49 1755.63,555.425 1772.54,564.666 1789.46,578.437 1806.37,597.858 1823.29,613.558 1840.2,624.256 1857.11,629.346 1874.03,625.862 1890.94,612.815 1907.85,593.323 1924.77,568.029 1941.68,549.517 1958.6,551.115 1975.51,563.641 1992.42,578.56 2009.34,591.267 2026.25,596.87 2043.17,594.765 2060.08,583.029 2076.99,566.261 2093.91,547.659 2110.82,536.839 2127.73,536.344 2144.65,544.659 2161.56,553.613 2178.48,562.963 2195.39,576.647 2212.3,596.037 2229.22,611.868 2246.13,622.677 2263.04,627.824 2279.96,624.809 2296.87,611.904 2313.79,592.812 2330.7,567.52 2347.61,548.855 2364.53,550.151 2381.44,562.488 2398.36,577.361 2415.27,589.994 2432.18,595.71 2449.1,593.716 2466.01,581.893 2482.92,564.992 2499.84,546.283 2516.75,535.205 2533.67,534.704 2550.58,543.124 2567.49,552.118 2584.41,561.469 2601.32,575.141 2618.23,594.702 2635.15,610.533 2652.06,621.437 2668.98,626.659 2685.89,623.303 2702.8,610.541 2719.72,591.217 2736.63,565.826 2753.54,547.218 2770.46,548.592 2787.37,561.093 2804.29,575.962 2821.2,588.668 2838.11,594.312 2855.03,592.216 2871.94,580.588 2888.86,563.601 2905.77,544.889 2922.68,534.017 2939.6,533.49 2956.51,541.843 2973.42,550.804 2990.34,560.133 3007.25,574.02 3024.17,593.541 3041.08,609.458 3057.99,620.404 3074.91,625.752 3091.82,622.608 3108.73,609.857 3125.65,590.47 3142.56,565.114 3159.48,546.516 3176.39,547.697 3193.3,560.058 3210.22,574.954 3227.13,587.625 3244.05,593.3 3260.96,591.13 3277.87,579.366 3294.79,562.384 3311.7,543.714 3328.61,532.933 3345.53,532.274 3362.44,540.574 3379.36,549.506 3396.27,558.946 3413.18,572.769 3430.1,592.409 3447.01,608.372 3463.92,619.358 3480.84,624.767 3497.75,621.832 3514.67,609.028 3531.58,589.768 3548.49,564.558 3565.41,545.758 3582.32,547.067 3599.23,559.401 3616.15,574.252 3633.06,586.78 3649.98,592.309 3666.89,590.441 3683.8,578.551 3700.72,561.452 3717.63,542.692 3734.55,531.809 3751.46,531.222 3768.37,539.604 3785.29,548.602 3802.2,558.106 3819.11,571.922 3836.03,591.529 3852.94,607.63 3869.86,618.7 3886.77,624.141 3903.68,621.209 3920.6,608.574 3937.51,589.02 3954.42,563.617 3971.34,544.955 3988.25,546.223 4005.17,558.611 4022.08,573.462 4038.99,586.1 4055.91,591.668 4072.82,589.57 4089.73,577.603 4106.65,560.564 4123.56,541.743 4140.48,530.819 4157.39,530.258 4174.3,538.7 4191.22,547.864 4208.13,557.365 4225.05,571.329 4241.96,590.99 4258.87,607.056 4275.79,618.132 4292.7,623.603 4309.61,620.618 4326.53,608.02 4343.44,588.702 4360.36,563.437 4377.27,544.76 4394.18,545.905 4411.1,558.25 4428.01,573.006 4444.92,585.583 4461.84,591.157 4478.75,588.971 4495.67,576.951 4512.58,559.885 4529.49,541.163 4546.41,530.288 4563.32,529.893 4580.24,538.266 4597.15,547.263 4614.06,556.852 4630.98,569.613 "/>
<path clip-path="url(#clip282)" d="M571.665 591.91 L588.579 639.953 L605.492 678.649 L622.406 708.757 L639.32 727.148 L656.234 733.175 L673.148 718.792 L690.061 692.904 L706.975 650.186 L723.889 613.675 L740.803 614.358 L757.717 637.188 L774.63 665.252 L791.544 690.112 L808.458 702.381 L825.372 705.631 L842.286 686.601 L859.199 661.997 L876.113 636.248 L893.027 622.665 L909.941 631.152 L926.855 657.288 L943.768 678.471 L960.682 695.554 L977.596 718.832 L994.51 753.6 L1011.42 777.678 L1028.34 794.189 L1045.25 801.995 L1062.16 794.27 L1079.08 771.664 L1095.99 736.533 L1112.91 690.337 L1129.82 649.074 L1146.73 646.794 L1163.65 663.361 L1180.56 688.042 L1197.48 710.951 L1214.39 722.546 L1231.3 719.087 L1248.22 698.871 L1265.13 669.873 L1282.04 645.245 L1298.96 634.557 L1315.87 643.934 L1332.79 666.827 L1349.7 688.067 L1366.61 707.369 L1383.53 729.431 L1400.44 761.596 L1417.35 784.943 L1434.27 800.901 L1451.18 807.091 L1468.1 799.408 L1485.01 776.766 L1501.92 738.767 L1518.84 690.004 L1535.75 653.453 L1552.67 649.391 L1569.58 665.933 L1586.49 688.283 L1603.41 712.411 L1620.32 725.12 L1637.23 719.83 L1654.15 699.539 L1671.06 669.695 L1687.98 643.515 L1704.89 634.339 L1721.8 641.933 L1738.72 664.251 L1755.63 685.634 L1772.54 704.797 L1789.46 727.025 L1806.37 756.442 L1823.29 782.192 L1840.2 797.625 L1857.11 804.686 L1874.03 798.089 L1890.94 774.032 L1907.85 738.171 L1924.77 689.59 L1941.68 650.896 L1958.6 645.866 L1975.51 663.786 L1992.42 686.558 L2009.34 708.657 L2026.25 720.222 L2043.17 716.865 L2060.08 695.538 L2076.99 667.535 L2093.91 640.947 L2110.82 630.316 L2127.73 641.783 L2144.65 661.724 L2161.56 683.086 L2178.48 700.996 L2195.39 723.205 L2212.3 753.635 L2229.22 778.84 L2246.13 794.226 L2263.04 801.41 L2279.96 793.779 L2296.87 770.947 L2313.79 736.227 L2330.7 687.214 L2347.61 645.981 L2364.53 643.741 L2381.44 660.26 L2398.36 685.396 L2415.27 707.069 L2432.18 719.2 L2449.1 715.553 L2466.01 696.097 L2482.92 666.924 L2499.84 640.343 L2516.75 628.971 L2533.67 635.346 L2550.58 658.159 L2567.49 680.034 L2584.41 696.961 L2601.32 722.508 L2618.23 750.982 L2635.15 774.25 L2652.06 790.659 L2668.98 797.391 L2685.89 789.151 L2702.8 768.155 L2719.72 730.244 L2736.63 681.412 L2753.54 644.328 L2770.46 641.823 L2787.37 657.785 L2804.29 682.256 L2821.2 705.655 L2838.11 716.753 L2855.03 712.977 L2871.94 693.331 L2888.86 664.316 L2905.77 638.07 L2922.68 629.51 L2939.6 635.017 L2956.51 657.152 L2973.42 677.01 L2990.34 694.813 L3007.25 717.269 L3024.17 748.581 L3041.08 772.066 L3057.99 788.35 L3074.91 794.845 L3091.82 790.239 L3108.73 767.024 L3125.65 729.284 L3142.56 680.323 L3159.48 640.56 L3176.39 637.275 L3193.3 655.94 L3210.22 681.424 L3227.13 703.233 L3244.05 714.285 L3260.96 714.643 L3277.87 694.65 L3294.79 664.479 L3311.7 636.385 L3328.61 625.09 L3345.53 633.048 L3362.44 654.008 L3379.36 672.795 L3396.27 691.263 L3413.18 714.357 L3430.1 745.666 L3447.01 769.15 L3463.92 784.817 L3480.84 792.767 L3497.75 787.669 L3514.67 763.167 L3531.58 727.7 L3548.49 678.413 L3565.41 639.732 L3582.32 637.173 L3599.23 654.934 L3616.15 681.302 L3633.06 701.939 L3649.98 714.707 L3666.89 712.602 L3683.8 691.795 L3700.72 662.234 L3717.63 636.909 L3734.55 622.93 L3751.46 632.013 L3768.37 654.405 L3785.29 673.722 L3802.2 690.897 L3819.11 713.754 L3836.03 744.644 L3852.94 767.826 L3869.86 785.144 L3886.77 791.972 L3903.68 786.316 L3920.6 762.453 L3937.51 725.57 L3954.42 676.284 L3971.34 639.16 L3988.25 637.088 L4005.17 653.343 L4022.08 678.345 L4038.99 702.126 L4055.91 714.066 L4072.82 711.692 L4089.73 690.659 L4106.65 661.278 L4123.56 635.023 L4140.48 622.173 L4157.39 627.348 L4174.3 649.542 L4191.22 669.407 L4208.13 687.815 L4225.05 709.727 L4241.96 741.743 L4258.87 765.525 L4275.79 782.031 L4292.7 789.559 L4309.61 784.286 L4326.53 760.338 L4343.44 724.82 L4360.36 678.206 L4377.27 638.429 L4394.18 633.598 L4411.1 651.684 L4428.01 678.798 L4444.92 700.938 L4461.84 711.878 L4478.75 709.417 L4495.67 689.576 L4512.58 659.596 L4529.49 633.898 L4546.41 621.713 L4563.32 630.065 L4580.24 650.602 L4597.15 671.66 L4614.06 689.598 L4630.98 708.894 L4630.98 344.593 L4614.06 313.141 L4597.15 290.309 L4580.24 272.445 L4563.32 258.866 L4546.41 272.314 L4529.49 310.111 L4512.58 361.787 L4495.67 404.111 L4478.75 431.744 L4461.84 433.118 L4444.92 421.693 L4428.01 388.244 L4411.1 350.602 L4394.18 321.454 L4377.27 317.62 L4360.36 357.798 L4343.44 410.228 L4326.53 453.095 L4309.61 479.92 L4292.7 482.993 L4275.79 468.265 L4258.87 438.328 L4241.96 395.34 L4225.05 347.667 L4208.13 311.92 L4191.22 291.536 L4174.3 274.89 L4157.39 263.275 L4140.48 273.296 L4123.56 313.493 L4106.65 365.409 L4089.73 406.867 L4072.82 435.805 L4055.91 435.912 L4038.99 421.048 L4022.08 388.29 L4005.17 351.531 L3988.25 320.904 L3971.34 317.075 L3954.42 355.32 L3937.51 414.218 L3920.6 458.398 L3903.68 480.862 L3886.77 483.161 L3869.86 469.621 L3852.94 439.89 L3836.03 396.769 L3819.11 346.184 L3802.2 311.797 L3785.29 293.289 L3768.37 274.979 L3751.46 263.12 L3734.55 275.479 L3717.63 316.536 L3700.72 366.142 L3683.8 406.366 L3666.89 434.203 L3649.98 436.965 L3633.06 422.94 L3616.15 389.722 L3599.23 353.262 L3582.32 322.283 L3565.41 318.44 L3548.49 359.868 L3531.58 416.192 L3514.67 455.396 L3497.75 481.746 L3480.84 484.789 L3463.92 470.242 L3447.01 441.25 L3430.1 398.491 L3413.18 347.185 L3396.27 312.862 L3379.36 291.88 L3362.44 278.491 L3345.53 266.337 L3328.61 277.2 L3311.7 314.452 L3294.79 364.348 L3277.87 405.905 L3260.96 434.29 L3244.05 438.183 L3227.13 424.542 L3210.22 391.907 L3193.3 354.401 L3176.39 325.442 L3159.48 322.168 L3142.56 358.286 L3125.65 412.788 L3108.73 456.134 L3091.82 482.43 L3074.91 487.556 L3057.99 470.426 L3041.08 442.324 L3024.17 402.179 L3007.25 352.397 L2990.34 315.264 L2973.42 295.549 L2956.51 280.782 L2939.6 268.425 L2922.68 281.925 L2905.77 316.955 L2888.86 368.753 L2871.94 409.297 L2855.03 435.875 L2838.11 440.586 L2821.2 425.55 L2804.29 394.735 L2787.37 355.865 L2770.46 324.322 L2753.54 318.939 L2736.63 359.535 L2719.72 414.097 L2702.8 458.434 L2685.89 484.498 L2668.98 488.779 L2652.06 476.416 L2635.15 444.162 L2618.23 403.28 L2601.32 353.105 L2584.41 317.463 L2567.49 298.287 L2550.58 281.493 L2533.67 270.639 L2516.75 281.232 L2499.84 320.557 L2482.92 373.068 L2466.01 410.107 L2449.1 438.529 L2432.18 440.869 L2415.27 428.346 L2398.36 394.411 L2381.44 357.405 L2364.53 329.15 L2347.61 327.522 L2330.7 364.853 L2313.79 418.891 L2296.87 462.428 L2279.96 490.879 L2263.04 492.533 L2246.13 478.324 L2229.22 448.692 L2212.3 407.414 L2195.39 357.116 L2178.48 320.521 L2161.56 300.955 L2144.65 285.556 L2127.73 274.653 L2110.82 285.445 L2093.91 323.099 L2076.99 373.349 L2060.08 415.837 L2043.17 440.831 L2026.25 445.107 L2009.34 431.846 L1992.42 399.779 L1975.51 362.9 L1958.6 332.554 L1941.68 328.103 L1924.77 367.883 L1907.85 424.335 L1890.94 467.42 L1874.03 494.575 L1857.11 499.45 L1840.2 483.529 L1823.29 451.713 L1806.37 409.292 L1789.46 363.543 L1772.54 325.161 L1755.63 306.403 L1738.72 289.454 L1721.8 279.259 L1704.89 292.699 L1687.98 329.113 L1671.06 382.025 L1654.15 423.041 L1637.23 449.45 L1620.32 453.631 L1603.41 438.038 L1586.49 405.622 L1569.58 368.546 L1552.67 341.349 L1535.75 334.705 L1518.84 376.065 L1501.92 429.493 L1485.01 473.271 L1468.1 501.891 L1451.18 506.922 L1434.27 493.699 L1417.35 466.342 L1400.44 425.148 L1383.53 374.172 L1366.61 339.584 L1349.7 324.358 L1332.79 310.892 L1315.87 300.184 L1298.96 313.145 L1282.04 350.408 L1265.13 396.436 L1248.22 438.379 L1231.3 467.525 L1214.39 472.119 L1197.48 457.369 L1180.56 427.911 L1163.65 394.37 L1146.73 365.844 L1129.82 361.487 L1112.91 398.226 L1095.99 451.275 L1079.08 496.04 L1062.16 526.322 L1045.25 537.892 L1028.34 523.59 L1011.42 498.917 L994.51 460.224 L977.596 416.112 L960.682 386.213 L943.768 370.884 L926.855 354.835 L909.941 344.49 L893.027 358.478 L876.113 395.067 L859.199 446.553 L842.286 487.545 L825.372 516.137 L808.458 523.496 L791.544 517.479 L774.63 491.884 L757.717 465.06 L740.803 438.672 L723.889 429.949 L706.975 464.787 L690.061 516.91 L673.148 558.527 L656.234 595.408 L639.32 610.863 L622.406 611.124 L605.492 601.82 L588.579 586.021 L571.665 568.557  Z" fill="#757575" fill-rule="evenodd" fill-opacity="0.5"/>
<polyline clip-path="url(#clip282)" style="stroke:#757575; stroke-linecap:round; stroke-linejoin:round; stroke-width:0; stroke-opacity:1; fill:none" points="571.665,583.966 588.579,599.988 605.492,613.461 622.406,623.33 639.32,628.024 656.234,626.14 673.148,613.607 690.061,596.226 706.975,572.147 723.889,553.762 740.803,555.319 757.717,567.493 774.63,581.87 791.544,594.301 808.458,599.938 825.372,598.236 842.286,586.78 859.199,570.34 876.113,552.268 893.027,541.908 909.941,541.651 926.855,550.193 943.768,559.356 960.682,568.897 977.596,582.691 994.51,602.174 1011.42,617.809 1028.34,628.386 1045.25,633.33 1062.16,629.811 1079.08,616.813 1095.99,597.569 1112.91,572.407 1129.82,553.697 1146.73,555.261 1163.65,567.731 1180.56,582.468 1197.48,595.007 1214.39,600.29 1231.3,598.32 1248.22,586.794 1265.13,569.969 1282.04,551.528 1298.96,540.899 1315.87,540.457 1332.79,548.842 1349.7,557.68 1366.61,566.772 1383.53,580.465 1400.44,599.908 1417.35,615.555 1434.27,626.143 1451.18,631.069 1468.1,627.82 1485.01,614.8 1501.92,595.634 1518.84,570.393 1535.75,551.781 1552.67,553.216 1569.58,565.647 1586.49,580.44 1603.41,593.063 1620.32,598.582 1637.23,596.558 1654.15,584.911 1671.06,568.001 1687.98,549.372 1704.89,538.659 1721.8,538.065 1738.72,546.49 1755.63,555.425 1772.54,564.666 1789.46,578.437 1806.37,597.858 1823.29,613.558 1840.2,624.256 1857.11,629.346 1874.03,625.862 1890.94,612.815 1907.85,593.323 1924.77,568.029 1941.68,549.517 1958.6,551.115 1975.51,563.641 1992.42,578.56 2009.34,591.267 2026.25,596.87 2043.17,594.765 2060.08,583.029 2076.99,566.261 2093.91,547.659 2110.82,536.839 2127.73,536.344 2144.65,544.659 2161.56,553.613 2178.48,562.963 2195.39,576.647 2212.3,596.037 2229.22,611.868 2246.13,622.677 2263.04,627.824 2279.96,624.809 2296.87,611.904 2313.79,592.812 2330.7,567.52 2347.61,548.855 2364.53,550.151 2381.44,562.488 2398.36,577.361 2415.27,589.994 2432.18,595.71 2449.1,593.716 2466.01,581.893 2482.92,564.992 2499.84,546.283 2516.75,535.205 2533.67,534.704 2550.58,543.124 2567.49,552.118 2584.41,561.469 2601.32,575.141 2618.23,594.702 2635.15,610.533 2652.06,621.437 2668.98,626.659 2685.89,623.303 2702.8,610.541 2719.72,591.217 2736.63,565.826 2753.54,547.218 2770.46,548.592 2787.37,561.093 2804.29,575.962 2821.2,588.668 2838.11,594.312 2855.03,592.216 2871.94,580.588 2888.86,563.601 2905.77,544.889 2922.68,534.017 2939.6,533.49 2956.51,541.843 2973.42,550.804 2990.34,560.133 3007.25,574.02 3024.17,593.541 3041.08,609.458 3057.99,620.404 3074.91,625.752 3091.82,622.608 3108.73,609.857 3125.65,590.47 3142.56,565.114 3159.48,546.516 3176.39,547.697 3193.3,560.058 3210.22,574.954 3227.13,587.625 3244.05,593.3 3260.96,591.13 3277.87,579.366 3294.79,562.384 3311.7,543.714 3328.61,532.933 3345.53,532.274 3362.44,540.574 3379.36,549.506 3396.27,558.946 3413.18,572.769 3430.1,592.409 3447.01,608.372 3463.92,619.358 3480.84,624.767 3497.75,621.832 3514.67,609.028 3531.58,589.768 3548.49,564.558 3565.41,545.758 3582.32,547.067 3599.23,559.401 3616.15,574.252 3633.06,586.78 3649.98,592.309 3666.89,590.441 3683.8,578.551 3700.72,561.452 3717.63,542.692 3734.55,531.809 3751.46,531.222 3768.37,539.604 3785.29,548.602 3802.2,558.106 3819.11,571.922 3836.03,591.529 3852.94,607.63 3869.86,618.7 3886.77,624.141 3903.68,621.209 3920.6,608.574 3937.51,589.02 3954.42,563.617 3971.34,544.955 3988.25,546.223 4005.17,558.611 4022.08,573.462 4038.99,586.1 4055.91,591.668 4072.82,589.57 4089.73,577.603 4106.65,560.564 4123.56,541.743 4140.48,530.819 4157.39,530.258 4174.3,538.7 4191.22,547.864 4208.13,557.365 4225.05,571.329 4241.96,590.99 4258.87,607.056 4275.79,618.132 4292.7,623.603 4309.61,620.618 4326.53,608.02 4343.44,588.702 4360.36,563.437 4377.27,544.76 4394.18,545.905 4411.1,558.25 4428.01,573.006 4444.92,585.583 4461.84,591.157 4478.75,588.971 4495.67,576.951 4512.58,559.885 4529.49,541.163 4546.41,530.288 4563.32,529.893 4580.24,538.266 4597.15,547.263 4614.06,556.852 4630.98,569.613 "/>
<path clip-path="url(#clip282)" d="M571.665 591.255 L588.579 634.744 L605.492 670.368 L622.406 696.904 L639.32 714.979 L656.234 720.529 L673.148 704.729 L690.061 677.899 L706.975 634.013 L723.889 597.279 L740.803 599.138 L757.717 620.744 L774.63 647.889 L791.544 673.366 L808.458 686.96 L825.372 686.93 L842.286 668.251 L859.199 640.92 L876.113 610.33 L893.027 602.785 L909.941 608.648 L926.855 627.281 L943.768 649.59 L960.682 669.682 L977.596 697.136 L994.51 730.886 L1011.42 759.13 L1028.34 774.812 L1045.25 783.1 L1062.16 777.556 L1079.08 751.981 L1095.99 716.917 L1112.91 669.26 L1129.82 629.854 L1146.73 627.835 L1163.65 648.521 L1180.56 674.491 L1197.48 695.228 L1214.39 705.311 L1231.3 702.848 L1248.22 682.256 L1265.13 653.266 L1282.04 623.523 L1298.96 615.25 L1315.87 620.043 L1332.79 642.994 L1349.7 661.607 L1366.61 680.893 L1383.53 705.961 L1400.44 739.656 L1417.35 764.781 L1434.27 782.09 L1451.18 788.674 L1468.1 781.373 L1485.01 757.563 L1501.92 721.472 L1518.84 672.385 L1535.75 633.266 L1552.67 631.239 L1569.58 650.868 L1586.49 675.659 L1603.41 696.322 L1620.32 706.3 L1637.23 703.824 L1654.15 683.033 L1671.06 651.612 L1687.98 624.952 L1704.89 615.553 L1721.8 620.362 L1738.72 641.997 L1755.63 663.43 L1772.54 682.746 L1789.46 707.162 L1806.37 739.709 L1823.29 765.392 L1840.2 781.531 L1857.11 788.427 L1874.03 781.603 L1890.94 757.649 L1907.85 719.695 L1924.77 670.085 L1941.68 632.277 L1958.6 628.456 L1975.51 649.823 L1992.42 673.925 L2009.34 694.349 L2026.25 703.095 L2043.17 700.81 L2060.08 679.975 L2076.99 648.995 L2093.91 621.012 L2110.82 611.509 L2127.73 618.871 L2144.65 638.334 L2161.56 658.76 L2178.48 678.673 L2195.39 702.673 L2212.3 736.211 L2229.22 760.378 L2246.13 778.326 L2263.04 785.651 L2279.96 778.371 L2296.87 753.237 L2313.79 717.957 L2330.7 668.882 L2347.61 628.995 L2364.53 626.677 L2381.44 645.953 L2398.36 670.356 L2415.27 691.706 L2432.18 700.982 L2449.1 699.196 L2466.01 678.334 L2482.92 648.893 L2499.84 619.985 L2516.75 608.908 L2533.67 614.19 L2550.58 637.253 L2567.49 654.749 L2584.41 673.923 L2601.32 701.326 L2618.23 733.17 L2635.15 759.26 L2652.06 776.147 L2668.98 783.98 L2685.89 775.721 L2702.8 751.19 L2719.72 714.741 L2736.63 664.998 L2753.54 626.161 L2770.46 622.728 L2787.37 643.146 L2804.29 667.048 L2821.2 688.707 L2838.11 699.542 L2855.03 695.419 L2871.94 676.266 L2888.86 646.741 L2905.77 615.885 L2922.68 605.626 L2939.6 612.56 L2956.51 634.037 L2973.42 652.091 L2990.34 671.646 L3007.25 696.881 L3024.17 729.627 L3041.08 754.811 L3057.99 772.361 L3074.91 780.782 L3091.82 772.604 L3108.73 747.815 L3125.65 713.409 L3142.56 663.811 L3159.48 624.057 L3176.39 620.786 L3193.3 640.762 L3210.22 665.754 L3227.13 686.847 L3244.05 698.839 L3260.96 694.695 L3277.87 674.601 L3294.79 643.673 L3311.7 613.214 L3328.61 602.933 L3345.53 609.056 L3362.44 629.942 L3379.36 649.838 L3396.27 667.679 L3413.18 692.777 L3430.1 727.204 L3447.01 752.694 L3463.92 769.264 L3480.84 776.83 L3497.75 769.52 L3514.67 747.03 L3531.58 712.329 L3548.49 661.8 L3565.41 622.263 L3582.32 620.365 L3599.23 639.029 L3616.15 665.089 L3633.06 685.836 L3649.98 696.996 L3666.89 694.32 L3683.8 673.144 L3700.72 641.976 L3717.63 612.844 L3734.55 600.763 L3751.46 607.119 L3768.37 627.021 L3785.29 647.902 L3802.2 664.13 L3819.11 689.035 L3836.03 723.184 L3852.94 749.923 L3869.86 768.298 L3886.77 776.035 L3903.68 768.911 L3920.6 746.257 L3937.51 710.504 L3954.42 660.61 L3971.34 619.174 L3988.25 618.792 L4005.17 637.745 L4022.08 663.987 L4038.99 686.141 L4055.91 695.06 L4072.82 693.545 L4089.73 672.087 L4106.65 641.341 L4123.56 612.349 L4140.48 600.228 L4157.39 607.535 L4174.3 625.423 L4191.22 644.725 L4208.13 663.747 L4225.05 687.121 L4241.96 721.09 L4258.87 749.511 L4275.79 766.701 L4292.7 774.323 L4309.61 767.312 L4326.53 743.937 L4343.44 709.774 L4360.36 660.632 L4377.27 621.306 L4394.18 617.143 L4411.1 637.409 L4428.01 661.014 L4444.92 682.907 L4461.84 695.718 L4478.75 691.521 L4495.67 671.493 L4512.58 640.079 L4529.49 610.987 L4546.41 598.289 L4563.32 606.092 L4580.24 625.214 L4597.15 643.7 L4614.06 662.392 L4630.98 683.575 L4630.98 398.59 L4614.06 370.077 L4597.15 352.398 L4580.24 333.743 L4563.32 327.179 L4546.41 330.169 L4529.49 359.854 L4512.58 405.498 L4495.67 445.199 L4478.75 472.856 L4461.84 477.512 L4444.92 465.237 L4428.01 435.341 L4411.1 401.304 L4394.18 368.471 L4377.27 363.894 L4360.36 400.915 L4343.44 454.971 L4326.53 499.414 L4309.61 527.212 L4292.7 533.73 L4275.79 517.146 L4258.87 485.455 L4241.96 447.047 L4225.05 401.834 L4208.13 370.13 L4191.22 350.759 L4174.3 334.684 L4157.39 322.524 L4140.48 329.504 L4123.56 362.478 L4106.65 405.993 L4089.73 445.905 L4072.82 473.099 L4055.91 480.524 L4038.99 465.377 L4022.08 435.807 L4005.17 401.948 L3988.25 370.717 L3971.34 363.625 L3954.42 400.473 L3937.51 456.027 L3920.6 498.717 L3903.68 526.346 L3886.77 532.672 L3869.86 516.36 L3852.94 485.542 L3836.03 447.01 L3819.11 403.463 L3802.2 370.141 L3785.29 352.517 L3768.37 337.07 L3751.46 326.114 L3734.55 332.605 L3717.63 363.026 L3700.72 408.688 L3683.8 447.382 L3666.89 477.496 L3649.98 479.635 L3633.06 468.194 L3616.15 437.928 L3599.23 404.414 L3582.32 372.449 L3565.41 363.694 L3548.49 401.539 L3531.58 458.743 L3514.67 500.381 L3497.75 529.848 L3480.84 535.132 L3463.92 519.195 L3447.01 488.101 L3430.1 449.351 L3413.18 402.901 L3396.27 370.625 L3379.36 350.978 L3362.44 337.331 L3345.53 328.739 L3328.61 333.061 L3311.7 365.48 L3294.79 411.141 L3277.87 451.169 L3260.96 477.422 L3244.05 481.86 L3227.13 469.667 L3210.22 438.125 L3193.3 405.105 L3176.39 372.682 L3159.48 366.128 L3142.56 404.451 L3125.65 457.226 L3108.73 502.41 L3091.82 530.362 L3074.91 535.236 L3057.99 519.198 L3041.08 489.21 L3024.17 452.865 L3007.25 408.111 L2990.34 376.3 L2973.42 357.87 L2956.51 341.934 L2939.6 331.157 L2922.68 334.757 L2905.77 366.103 L2888.86 413.855 L2871.94 451.291 L2855.03 479.031 L2838.11 483.99 L2821.2 471.486 L2804.29 441.601 L2787.37 405.417 L2770.46 374.693 L2753.54 369.376 L2736.63 404.984 L2719.72 461.118 L2702.8 503.511 L2685.89 530.526 L2668.98 537.422 L2652.06 521.885 L2635.15 492.829 L2618.23 453.985 L2601.32 407.934 L2584.41 377.303 L2567.49 357.788 L2550.58 341.784 L2533.67 329.583 L2516.75 338.241 L2499.84 369.731 L2482.92 416.798 L2466.01 452.637 L2449.1 482.494 L2432.18 488.165 L2415.27 473.687 L2398.36 444.712 L2381.44 408.84 L2364.53 376.537 L2347.61 369.8 L2330.7 407.048 L2313.79 461.07 L2296.87 505.157 L2279.96 534.772 L2263.04 539.276 L2246.13 522.962 L2229.22 495.392 L2212.3 457.288 L2195.39 411.174 L2178.48 378.841 L2161.56 360.205 L2144.65 342.793 L2127.73 333.701 L2110.82 341.47 L2093.91 373.805 L2076.99 421.002 L2060.08 458.491 L2043.17 485.087 L2026.25 488.026 L2009.34 475.741 L1992.42 445.548 L1975.51 409.889 L1958.6 377.615 L1941.68 369.752 L1924.77 408.188 L1907.85 460.935 L1890.94 506.075 L1874.03 535.757 L1857.11 540.93 L1840.2 524.541 L1823.29 497.642 L1806.37 460.109 L1789.46 414.887 L1772.54 383.527 L1755.63 365.933 L1738.72 351.046 L1721.8 338.83 L1704.89 349.075 L1687.98 377.108 L1671.06 424.079 L1654.15 466.234 L1637.23 490.906 L1620.32 494.347 L1603.41 480.344 L1586.49 450.841 L1569.58 415.848 L1552.67 386.36 L1535.75 377.635 L1518.84 413.562 L1501.92 470.526 L1485.01 511.757 L1468.1 541.942 L1451.18 547.432 L1434.27 534.43 L1417.35 505.972 L1400.44 465.96 L1383.53 424.223 L1366.61 392.416 L1349.7 376.088 L1332.79 360.63 L1315.87 349.841 L1298.96 359.377 L1282.04 391.276 L1265.13 438.103 L1248.22 477.712 L1231.3 501.828 L1214.39 507.968 L1197.48 495.084 L1180.56 466.261 L1163.65 431.676 L1146.73 402.478 L1129.82 393.737 L1112.91 430.031 L1095.99 483.753 L1079.08 527.1 L1062.16 558.859 L1045.25 566.096 L1028.34 554.579 L1011.42 529.342 L994.51 493.084 L977.596 450.972 L960.682 423.264 L943.768 406.258 L926.855 391.266 L909.941 377.989 L893.027 390.575 L876.113 424.671 L859.199 469.226 L842.286 508.718 L825.372 534.601 L808.458 541.53 L791.544 533.639 L774.63 510.262 L757.717 478.891 L740.803 452.041 L723.889 446.556 L706.975 482.639 L690.061 533.153 L673.148 577.486 L656.234 612.685 L639.32 625.614 L622.406 624.012 L605.492 611.938 L588.579 594.598 L571.665 574.794  Z" fill="#414141" fill-rule="evenodd" fill-opacity="0.5"/>
<polyline clip-path="url(#clip282)" style="stroke:#414141; stroke-linecap:round; stroke-linejoin:round; stroke-width:0; stroke-opacity:1; fill:none" points="571.665,583.966 588.579,599.988 605.492,613.461 622.406,623.33 639.32,628.024 656.234,626.14 673.148,613.607 690.061,596.226 706.975,572.147 723.889,553.762 740.803,555.319 757.717,567.493 774.63,581.87 791.544,594.301 808.458,599.938 825.372,598.236 842.286,586.78 859.199,570.34 876.113,552.268 893.027,541.908 909.941,541.651 926.855,550.193 943.768,559.356 960.682,568.897 977.596,582.691 994.51,602.174 1011.42,617.809 1028.34,628.386 1045.25,633.33 1062.16,629.811 1079.08,616.813 1095.99,597.569 1112.91,572.407 1129.82,553.697 1146.73,555.261 1163.65,567.731 1180.56,582.468 1197.48,595.007 1214.39,600.29 1231.3,598.32 1248.22,586.794 1265.13,569.969 1282.04,551.528 1298.96,540.899 1315.87,540.457 1332.79,548.842 1349.7,557.68 1366.61,566.772 1383.53,580.465 1400.44,599.908 1417.35,615.555 1434.27,626.143 1451.18,631.069 1468.1,627.82 1485.01,614.8 1501.92,595.634 1518.84,570.393 1535.75,551.781 1552.67,553.216 1569.58,565.647 1586.49,580.44 1603.41,593.063 1620.32,598.582 1637.23,596.558 1654.15,584.911 1671.06,568.001 1687.98,549.372 1704.89,538.659 1721.8,538.065 1738.72,546.49 1755.63,555.425 1772.54,564.666 1789.46,578.437 1806.37,597.858 1823.29,613.558 1840.2,624.256 1857.11,629.346 1874.03,625.862 1890.94,612.815 1907.85,593.323 1924.77,568.029 1941.68,549.517 1958.6,551.115 1975.51,563.641 1992.42,578.56 2009.34,591.267 2026.25,596.87 2043.17,594.765 2060.08,583.029 2076.99,566.261 2093.91,547.659 2110.82,536.839 2127.73,536.344 2144.65,544.659 2161.56,553.613 2178.48,562.963 2195.39,576.647 2212.3,596.037 2229.22,611.868 2246.13,622.677 2263.04,627.824 2279.96,624.809 2296.87,611.904 2313.79,592.812 2330.7,567.52 2347.61,548.855 2364.53,550.151 2381.44,562.488 2398.36,577.361 2415.27,589.994 2432.18,595.71 2449.1,593.716 2466.01,581.893 2482.92,564.992 2499.84,546.283 2516.75,535.205 2533.67,534.704 2550.58,543.124 2567.49,552.118 2584.41,561.469 2601.32,575.141 2618.23,594.702 2635.15,610.533 2652.06,621.437 2668.98,626.659 2685.89,623.303 2702.8,610.541 2719.72,591.217 2736.63,565.826 2753.54,547.218 2770.46,548.592 2787.37,561.093 2804.29,575.962 2821.2,588.668 2838.11,594.312 2855.03,592.216 2871.94,580.588 2888.86,563.601 2905.77,544.889 2922.68,534.017 2939.6,533.49 2956.51,541.843 2973.42,550.804 2990.34,560.133 3007.25,574.02 3024.17,593.541 3041.08,609.458 3057.99,620.404 3074.91,625.752 3091.82,622.608 3108.73,609.857 3125.65,590.47 3142.56,565.114 3159.48,546.516 3176.39,547.697 3193.3,560.058 3210.22,574.954 3227.13,587.625 3244.05,593.3 3260.96,591.13 3277.87,579.366 3294.79,562.384 3311.7,543.714 3328.61,532.933 3345.53,532.274 3362.44,540.574 3379.36,549.506 3396.27,558.946 3413.18,572.769 3430.1,592.409 3447.01,608.372 3463.92,619.358 3480.84,624.767 3497.75,621.832 3514.67,609.028 3531.58,589.768 3548.49,564.558 3565.41,545.758 3582.32,547.067 3599.23,559.401 3616.15,574.252 3633.06,586.78 3649.98,592.309 3666.89,590.441 3683.8,578.551 3700.72,561.452 3717.63,542.692 3734.55,531.809 3751.46,531.222 3768.37,539.604 3785.29,548.602 3802.2,558.106 3819.11,571.922 3836.03,591.529 3852.94,607.63 3869.86,618.7 3886.77,624.141 3903.68,621.209 3920.6,608.574 3937.51,589.02 3954.42,563.617 3971.34,544.955 3988.25,546.223 4005.17,558.611 4022.08,573.462 4038.99,586.1 4055.91,591.668 4072.82,589.57 4089.73,577.603 4106.65,560.564 4123.56,541.743 4140.48,530.819 4157.39,530.258 4174.3,538.7 4191.22,547.864 4208.13,557.365 4225.05,571.329 4241.96,590.99 4258.87,607.056 4275.79,618.132 4292.7,623.603 4309.61,620.618 4326.53,608.02 4343.44,588.702 4360.36,563.437 4377.27,544.76 4394.18,545.905 4411.1,558.25 4428.01,573.006 4444.92,585.583 4461.84,591.157 4478.75,588.971 4495.67,576.951 4512.58,559.885 4529.49,541.163 4546.41,530.288 4563.32,529.893 4580.24,538.266 4597.15,547.263 4614.06,556.852 4630.98,569.613 "/>
<path clip-path="url(#clip280)" d="M3859.77 593.434 L4609.33 593.434 L4609.33 75.0343 L3859.77 75.0343  Z" fill="#ffffff" fill-rule="evenodd" fill-opacity="1"/>
<polyline clip-path="url(#clip280)" style="stroke:#000000; stroke-linecap:round; stroke-linejoin:round; stroke-width:4; stroke-opacity:1; fill:none" points="3859.77,593.434 4609.33,593.434 4609.33,75.0343 3859.77,75.0343 3859.77,593.434 "/>
<polyline clip-path="url(#clip280)" style="stroke:#aeaeae; stroke-linecap:round; stroke-linejoin:round; stroke-width:2; stroke-opacity:1; fill:none" points="3907.58,204.634 4194.44,204.634 "/>
<path clip-path="url(#clip280)" d="M4243.93 237.996 L4263.02 237.996 L4263.02 172.082 L4242.25 176.249 L4242.25 165.601 L4262.91 161.434 L4274.6 161.434 L4274.6 237.996 L4293.69 237.996 L4293.69 247.834 L4243.93 247.834 L4243.93 237.996 Z" fill="#000000" fill-rule="nonzero" fill-opacity="1" /><path clip-path="url(#clip280)" d="M4342.31 169.131 Q4333.28 169.131 4328.71 178.043 Q4324.19 186.897 4324.19 204.721 Q4324.19 222.487 4328.71 231.399 Q4333.28 240.253 4342.31 240.253 Q4351.39 240.253 4355.9 231.399 Q4360.48 222.487 4360.48 204.721 Q4360.48 186.897 4355.9 178.043 Q4351.39 169.131 4342.31 169.131 M4342.31 159.872 Q4356.83 159.872 4364.47 171.388 Q4372.17 182.846 4372.17 204.721 Q4372.17 226.538 4364.47 238.054 Q4356.83 249.513 4342.31 249.513 Q4327.78 249.513 4320.08 238.054 Q4312.44 226.538 4312.44 204.721 Q4312.44 182.846 4320.08 171.388 Q4327.78 159.872 4342.31 159.872 Z" fill="#000000" fill-rule="nonzero" fill-opacity="1" /><path clip-path="url(#clip280)" d="M4417.71 169.131 Q4408.68 169.131 4404.11 178.043 Q4399.6 186.897 4399.6 204.721 Q4399.6 222.487 4404.11 231.399 Q4408.68 240.253 4417.71 240.253 Q4426.8 240.253 4431.31 231.399 Q4435.88 222.487 4435.88 204.721 Q4435.88 186.897 4431.31 178.043 Q4426.8 169.131 4417.71 169.131 M4417.71 159.872 Q4432.24 159.872 4439.87 171.388 Q4447.57 182.846 4447.57 204.721 Q4447.57 226.538 4439.87 238.054 Q4432.24 249.513 4417.71 249.513 Q4403.18 249.513 4395.49 238.054 Q4387.85 226.538 4387.85 204.721 Q4387.85 182.846 4395.49 171.388 Q4403.18 159.872 4417.71 159.872 Z" fill="#000000" fill-rule="nonzero" fill-opacity="1" /><path clip-path="url(#clip280)" d="M4541.61 209.814 Q4536.58 209.814 4533.68 214.096 Q4530.85 218.378 4530.85 226.017 Q4530.85 233.54 4533.68 237.881 Q4536.58 242.163 4541.61 242.163 Q4546.53 242.163 4549.36 237.881 Q4552.26 233.54 4552.26 226.017 Q4552.26 218.436 4549.36 214.154 Q4546.53 209.814 4541.61 209.814 M4541.61 202.464 Q4550.75 202.464 4556.14 208.83 Q4561.52 215.196 4561.52 226.017 Q4561.52 236.839 4556.08 243.205 Q4550.7 249.513 4541.61 249.513 Q4532.35 249.513 4526.97 243.205 Q4521.59 236.839 4521.59 226.017 Q4521.59 215.138 4526.97 208.83 Q4532.41 202.464 4541.61 202.464 M4481.89 167.221 Q4476.91 167.221 4474.02 171.562 Q4471.18 175.844 4471.18 183.367 Q4471.18 191.006 4474.02 195.288 Q4476.85 199.571 4481.89 199.571 Q4486.92 199.571 4489.76 195.288 Q4492.65 191.006 4492.65 183.367 Q4492.65 175.902 4489.76 171.562 Q4486.86 167.221 4481.89 167.221 M4534.14 159.872 L4543.4 159.872 L4489.35 249.513 L4480.09 249.513 L4534.14 159.872 M4481.89 159.872 Q4491.03 159.872 4496.47 166.238 Q4501.91 172.545 4501.91 183.367 Q4501.91 194.305 4496.47 200.612 Q4491.09 206.92 4481.89 206.92 Q4472.69 206.92 4467.3 200.612 Q4461.98 194.247 4461.98 183.367 Q4461.98 172.603 4467.36 166.238 Q4472.74 159.872 4481.89 159.872 Z" fill="#000000" fill-rule="nonzero" fill-opacity="1" /><polyline clip-path="url(#clip280)" style="stroke:#757575; stroke-linecap:round; stroke-linejoin:round; stroke-width:2; stroke-opacity:1; fill:none" points="3907.58,334.234 4194.44,334.234 "/>
<path clip-path="url(#clip280)" d="M4247.8 375.64 L4247.8 364.992 Q4252.2 367.076 4256.72 368.175 Q4261.23 369.275 4265.57 369.275 Q4277.14 369.275 4283.22 361.52 Q4289.35 353.708 4290.22 337.851 Q4286.87 342.828 4281.72 345.49 Q4276.57 348.152 4270.32 348.152 Q4257.35 348.152 4249.77 340.34 Q4242.25 332.469 4242.25 318.87 Q4242.25 305.56 4250.12 297.516 Q4257.99 289.472 4271.07 289.472 Q4286.06 289.472 4293.93 300.988 Q4301.85 312.446 4301.85 334.321 Q4301.85 354.749 4292.13 366.96 Q4282.47 379.113 4266.09 379.113 Q4261.69 379.113 4257.18 378.245 Q4252.66 377.376 4247.8 375.64 M4271.07 339.009 Q4278.94 339.009 4283.51 333.627 Q4288.14 328.245 4288.14 318.87 Q4288.14 309.553 4283.51 304.171 Q4278.94 298.731 4271.07 298.731 Q4263.2 298.731 4258.57 304.171 Q4254 309.553 4254 318.87 Q4254 328.245 4258.57 333.627 Q4263.2 339.009 4271.07 339.009 Z" fill="#000000" fill-rule="nonzero" fill-opacity="1" /><path clip-path="url(#clip280)" d="M4347.86 298.731 Q4338.83 298.731 4334.26 307.643 Q4329.75 316.497 4329.75 334.321 Q4329.75 352.087 4334.26 360.999 Q4338.83 369.853 4347.86 369.853 Q4356.95 369.853 4361.46 360.999 Q4366.03 352.087 4366.03 334.321 Q4366.03 316.497 4361.46 307.643 Q4356.95 298.731 4347.86 298.731 M4347.86 289.472 Q4362.39 289.472 4370.03 300.988 Q4377.72 312.446 4377.72 334.321 Q4377.72 356.138 4370.03 367.654 Q4362.39 379.113 4347.86 379.113 Q4333.34 379.113 4325.64 367.654 Q4318 356.138 4318 334.321 Q4318 312.446 4325.64 300.988 Q4333.34 289.472 4347.86 289.472 Z" fill="#000000" fill-rule="nonzero" fill-opacity="1" /><path clip-path="url(#clip280)" d="M4471.76 339.414 Q4466.73 339.414 4463.83 343.696 Q4461 347.978 4461 355.617 Q4461 363.14 4463.83 367.481 Q4466.73 371.763 4471.76 371.763 Q4476.68 371.763 4479.52 367.481 Q4482.41 363.14 4482.41 355.617 Q4482.41 348.036 4479.52 343.754 Q4476.68 339.414 4471.76 339.414 M4471.76 332.064 Q4480.9 332.064 4486.29 338.43 Q4491.67 344.796 4491.67 355.617 Q4491.67 366.439 4486.23 372.805 Q4480.85 379.113 4471.76 379.113 Q4462.5 379.113 4457.12 372.805 Q4451.74 366.439 4451.74 355.617 Q4451.74 344.738 4457.12 338.43 Q4462.56 332.064 4471.76 332.064 M4412.04 296.821 Q4407.06 296.821 4404.17 301.162 Q4401.33 305.444 4401.33 312.967 Q4401.33 320.606 4404.17 324.888 Q4407 329.171 4412.04 329.171 Q4417.07 329.171 4419.91 324.888 Q4422.8 320.606 4422.8 312.967 Q4422.8 305.502 4419.91 301.162 Q4417.02 296.821 4412.04 296.821 M4464.3 289.472 L4473.55 289.472 L4419.5 379.113 L4410.24 379.113 L4464.3 289.472 M4412.04 289.472 Q4421.18 289.472 4426.62 295.838 Q4432.06 302.145 4432.06 312.967 Q4432.06 323.905 4426.62 330.212 Q4421.24 336.52 4412.04 336.52 Q4402.84 336.52 4397.46 330.212 Q4392.13 323.847 4392.13 312.967 Q4392.13 302.203 4397.51 295.838 Q4402.9 289.472 4412.04 289.472 Z" fill="#000000" fill-rule="nonzero" fill-opacity="1" /><polyline clip-path="url(#clip280)" style="stroke:#414141; stroke-linecap:round; stroke-linejoin:round; stroke-width:2; stroke-opacity:1; fill:none" points="3907.58,463.834 4194.44,463.834 "/>
<path clip-path="url(#clip280)" d="M4271.88 466.004 Q4263.54 466.004 4258.74 470.46 Q4254 474.916 4254 482.729 Q4254 490.541 4258.74 494.997 Q4263.54 499.453 4271.88 499.453 Q4280.21 499.453 4285.01 494.997 Q4289.82 490.484 4289.82 482.729 Q4289.82 474.916 4285.01 470.46 Q4280.27 466.004 4271.88 466.004 M4260.19 461.028 Q4252.66 459.176 4248.44 454.025 Q4244.27 448.875 4244.27 441.468 Q4244.27 431.109 4251.62 425.09 Q4259.03 419.072 4271.88 419.072 Q4284.78 419.072 4292.13 425.09 Q4299.48 431.109 4299.48 441.468 Q4299.48 448.875 4295.26 454.025 Q4291.09 459.176 4283.63 461.028 Q4292.07 462.995 4296.76 468.724 Q4301.51 474.453 4301.51 482.729 Q4301.51 495.287 4293.81 502 Q4286.17 508.713 4271.88 508.713 Q4257.58 508.713 4249.89 502 Q4242.25 495.287 4242.25 482.729 Q4242.25 474.453 4246.99 468.724 Q4251.74 462.995 4260.19 461.028 M4255.91 442.567 Q4255.91 449.28 4260.07 453.042 Q4264.3 456.803 4271.88 456.803 Q4279.4 456.803 4283.63 453.042 Q4287.91 449.28 4287.91 442.567 Q4287.91 435.854 4283.63 432.093 Q4279.4 428.331 4271.88 428.331 Q4264.3 428.331 4260.07 432.093 Q4255.91 435.854 4255.91 442.567 Z" fill="#000000" fill-rule="nonzero" fill-opacity="1" /><path clip-path="url(#clip280)" d="M4347.28 428.331 Q4338.25 428.331 4333.68 437.243 Q4329.17 446.097 4329.17 463.921 Q4329.17 481.687 4333.68 490.599 Q4338.25 499.453 4347.28 499.453 Q4356.37 499.453 4360.88 490.599 Q4365.45 481.687 4365.45 463.921 Q4365.45 446.097 4360.88 437.243 Q4356.37 428.331 4347.28 428.331 M4347.28 419.072 Q4361.81 419.072 4369.45 430.588 Q4377.14 442.046 4377.14 463.921 Q4377.14 485.738 4369.45 497.254 Q4361.81 508.713 4347.28 508.713 Q4332.76 508.713 4325.06 497.254 Q4317.42 485.738 4317.42 463.921 Q4317.42 442.046 4325.06 430.588 Q4332.76 419.072 4347.28 419.072 Z" fill="#000000" fill-rule="nonzero" fill-opacity="1" /><path clip-path="url(#clip280)" d="M4471.18 469.014 Q4466.15 469.014 4463.25 473.296 Q4460.42 477.578 4460.42 485.217 Q4460.42 492.74 4463.25 497.081 Q4466.15 501.363 4471.18 501.363 Q4476.1 501.363 4478.94 497.081 Q4481.83 492.74 4481.83 485.217 Q4481.83 477.636 4478.94 473.354 Q4476.1 469.014 4471.18 469.014 M4471.18 461.664 Q4480.33 461.664 4485.71 468.03 Q4491.09 474.396 4491.09 485.217 Q4491.09 496.039 4485.65 502.405 Q4480.27 508.713 4471.18 508.713 Q4461.92 508.713 4456.54 502.405 Q4451.16 496.039 4451.16 485.217 Q4451.16 474.338 4456.54 468.03 Q4461.98 461.664 4471.18 461.664 M4411.46 426.421 Q4406.48 426.421 4403.59 430.762 Q4400.75 435.044 4400.75 442.567 Q4400.75 450.206 4403.59 454.488 Q4406.43 458.771 4411.46 458.771 Q4416.49 458.771 4419.33 454.488 Q4422.22 450.206 4422.22 442.567 Q4422.22 435.102 4419.33 430.762 Q4416.44 426.421 4411.46 426.421 M4463.72 419.072 L4472.98 419.072 L4418.93 508.713 L4409.67 508.713 L4463.72 419.072 M4411.46 419.072 Q4420.6 419.072 4426.04 425.438 Q4431.48 431.745 4431.48 442.567 Q4431.48 453.505 4426.04 459.812 Q4420.66 466.12 4411.46 466.12 Q4402.26 466.12 4396.88 459.812 Q4391.55 453.447 4391.55 442.567 Q4391.55 431.803 4396.93 425.438 Q4402.32 419.072 4411.46 419.072 Z" fill="#000000" fill-rule="nonzero" fill-opacity="1" /></svg>
