<?xml version="1.0" encoding="utf-8"?>
<svg xmlns="http://www.w3.org/2000/svg" xmlns:xlink="http://www.w3.org/1999/xlink" width="1200" height="300" viewBox="0 0 4800 1200">
<defs>
  <clipPath id="clip520">
    <rect x="0" y="0" width="4800" height="1200"/>
  </clipPath>
</defs>
<path clip-path="url(#clip520)" d="M0 1200 L4800 1200 L4800 0 L0 0  Z" fill="#ffffff" fill-rule="evenodd" fill-opacity="1"/>
<defs>
  <clipPath id="clip521">
    <rect x="960" y="0" width="3361" height="1200"/>
  </clipPath>
</defs>
<path clip-path="url(#clip520)" d="M661.319 880.951 L4752.76 880.951 L4752.76 47.2441 L661.319 47.2441  Z" fill="#ffffff" fill-rule="evenodd" fill-opacity="1"/>
<defs>
  <clipPath id="clip522">
    <rect x="661" y="47" width="4092" height="835"/>
  </clipPath>
</defs>
<polyline clip-path="url(#clip522)" style="stroke:#000000; stroke-linecap:round; stroke-linejoin:round; stroke-width:2; stroke-opacity:0.1; fill:none" points="777.115,880.951 777.115,47.2441 "/>
<polyline clip-path="url(#clip522)" style="stroke:#000000; stroke-linecap:round; stroke-linejoin:round; stroke-width:2; stroke-opacity:0.1; fill:none" points="1549.08,880.951 1549.08,47.2441 "/>
<polyline clip-path="url(#clip522)" style="stroke:#000000; stroke-linecap:round; stroke-linejoin:round; stroke-width:2; stroke-opacity:0.1; fill:none" points="2321.05,880.951 2321.05,47.2441 "/>
<polyline clip-path="url(#clip522)" style="stroke:#000000; stroke-linecap:round; stroke-linejoin:round; stroke-width:2; stroke-opacity:0.1; fill:none" points="3093.02,880.951 3093.02,47.2441 "/>
<polyline clip-path="url(#clip522)" style="stroke:#000000; stroke-linecap:round; stroke-linejoin:round; stroke-width:2; stroke-opacity:0.1; fill:none" points="3864.99,880.951 3864.99,47.2441 "/>
<polyline clip-path="url(#clip522)" style="stroke:#000000; stroke-linecap:round; stroke-linejoin:round; stroke-width:2; stroke-opacity:0.1; fill:none" points="4636.96,880.951 4636.96,47.2441 "/>
<polyline clip-path="url(#clip522)" style="stroke:#000000; stroke-linecap:round; stroke-linejoin:round; stroke-width:2; stroke-opacity:0.1; fill:none" points="661.319,742.711 4752.76,742.711 "/>
<polyline clip-path="url(#clip522)" style="stroke:#000000; stroke-linecap:round; stroke-linejoin:round; stroke-width:2; stroke-opacity:0.1; fill:none" points="661.319,590.255 4752.76,590.255 "/>
<polyline clip-path="url(#clip522)" style="stroke:#000000; stroke-linecap:round; stroke-linejoin:round; stroke-width:2; stroke-opacity:0.1; fill:none" points="661.319,437.799 4752.76,437.799 "/>
<polyline clip-path="url(#clip522)" style="stroke:#000000; stroke-linecap:round; stroke-linejoin:round; stroke-width:2; stroke-opacity:0.1; fill:none" points="661.319,285.344 4752.76,285.344 "/>
<polyline clip-path="url(#clip522)" style="stroke:#000000; stroke-linecap:round; stroke-linejoin:round; stroke-width:2; stroke-opacity:0.1; fill:none" points="661.319,132.888 4752.76,132.888 "/>
<polyline clip-path="url(#clip520)" style="stroke:#000000; stroke-linecap:round; stroke-linejoin:round; stroke-width:4; stroke-opacity:1; fill:none" points="661.319,880.951 4752.76,880.951 "/>
<polyline clip-path="url(#clip520)" style="stroke:#000000; stroke-linecap:round; stroke-linejoin:round; stroke-width:4; stroke-opacity:1; fill:none" points="777.115,880.951 777.115,862.054 "/>
<polyline clip-path="url(#clip520)" style="stroke:#000000; stroke-linecap:round; stroke-linejoin:round; stroke-width:4; stroke-opacity:1; fill:none" points="1549.08,880.951 1549.08,862.054 "/>
<polyline clip-path="url(#clip520)" style="stroke:#000000; stroke-linecap:round; stroke-linejoin:round; stroke-width:4; stroke-opacity:1; fill:none" points="2321.05,880.951 2321.05,862.054 "/>
<polyline clip-path="url(#clip520)" style="stroke:#000000; stroke-linecap:round; stroke-linejoin:round; stroke-width:4; stroke-opacity:1; fill:none" points="3093.02,880.951 3093.02,862.054 "/>
<polyline clip-path="url(#clip520)" style="stroke:#000000; stroke-linecap:round; stroke-linejoin:round; stroke-width:4; stroke-opacity:1; fill:none" points="3864.99,880.951 3864.99,862.054 "/>
<polyline clip-path="url(#clip520)" style="stroke:#000000; stroke-linecap:round; stroke-linejoin:round; stroke-width:4; stroke-opacity:1; fill:none" points="4636.96,880.951 4636.96,862.054 "/>
<path clip-path="url(#clip520)" d="M777.115 942.789 Q769.893 942.789 766.235 949.918 Q762.624 957.002 762.624 971.261 Q762.624 985.474 766.235 992.603 Q769.893 999.687 777.115 999.687 Q784.383 999.687 787.994 992.603 Q791.652 985.474 791.652 971.261 Q791.652 957.002 787.994 949.918 Q784.383 942.789 777.115 942.789 M777.115 935.382 Q788.735 935.382 794.846 944.594 Q801.004 953.761 801.004 971.261 Q801.004 988.715 794.846 997.927 Q788.735 1007.09 777.115 1007.09 Q765.495 1007.09 759.337 997.927 Q753.226 988.715 753.226 971.261 Q753.226 953.761 759.337 944.594 Q765.495 935.382 777.115 935.382 Z" fill="#000000" fill-rule="nonzero" fill-opacity="1" /><path clip-path="url(#clip520)" d="M1538.39 997.881 L1571.03 997.881 L1571.03 1005.75 L1527.14 1005.75 L1527.14 997.881 Q1532.46 992.372 1541.63 983.113 Q1550.84 973.807 1553.2 971.122 Q1557.7 966.076 1559.45 962.604 Q1561.26 959.085 1561.26 955.705 Q1561.26 950.196 1557.37 946.724 Q1553.53 943.252 1547.32 943.252 Q1542.93 943.252 1538.02 944.78 Q1533.16 946.307 1527.6 949.409 L1527.6 939.965 Q1533.25 937.696 1538.16 936.539 Q1543.07 935.382 1547.14 935.382 Q1557.88 935.382 1564.27 940.752 Q1570.66 946.122 1570.66 955.104 Q1570.66 959.363 1569.04 963.205 Q1567.46 967.002 1563.25 972.187 Q1562.09 973.529 1555.89 979.965 Q1549.69 986.353 1538.39 997.881 Z" fill="#000000" fill-rule="nonzero" fill-opacity="1" /><path clip-path="url(#clip520)" d="M2327.07 944.78 L2303.46 981.678 L2327.07 981.678 L2327.07 944.78 M2324.62 936.631 L2336.38 936.631 L2336.38 981.678 L2346.24 981.678 L2346.24 989.455 L2336.38 989.455 L2336.38 1005.75 L2327.07 1005.75 L2327.07 989.455 L2295.87 989.455 L2295.87 980.428 L2324.62 936.631 Z" fill="#000000" fill-rule="nonzero" fill-opacity="1" /><path clip-path="url(#clip520)" d="M3093.83 967.465 Q3087.54 967.465 3083.83 971.77 Q3080.18 976.076 3080.18 983.576 Q3080.18 991.029 3083.83 995.381 Q3087.54 999.687 3093.83 999.687 Q3100.13 999.687 3103.79 995.381 Q3107.49 991.029 3107.49 983.576 Q3107.49 976.076 3103.79 971.77 Q3100.13 967.465 3093.83 967.465 M3112.4 938.159 L3112.4 946.678 Q3108.88 945.011 3105.27 944.131 Q3101.7 943.252 3098.18 943.252 Q3088.93 943.252 3084.02 949.502 Q3079.16 955.752 3078.46 968.391 Q3081.19 964.363 3085.31 962.233 Q3089.43 960.057 3094.39 960.057 Q3104.8 960.057 3110.82 966.4 Q3116.89 972.696 3116.89 983.576 Q3116.89 994.224 3110.59 1000.66 Q3104.3 1007.09 3093.83 1007.09 Q3081.84 1007.09 3075.5 997.927 Q3069.16 988.715 3069.16 971.261 Q3069.16 954.872 3076.93 945.15 Q3084.71 935.382 3097.81 935.382 Q3101.33 935.382 3104.9 936.076 Q3108.51 936.77 3112.4 938.159 Z" fill="#000000" fill-rule="nonzero" fill-opacity="1" /><path clip-path="url(#clip520)" d="M3864.99 972.928 Q3858.32 972.928 3854.48 976.492 Q3850.69 980.057 3850.69 986.307 Q3850.69 992.557 3854.48 996.122 Q3858.32 999.687 3864.99 999.687 Q3871.66 999.687 3875.5 996.122 Q3879.34 992.511 3879.34 986.307 Q3879.34 980.057 3875.5 976.492 Q3871.7 972.928 3864.99 972.928 M3855.64 968.946 Q3849.62 967.465 3846.24 963.344 Q3842.91 959.224 3842.91 953.298 Q3842.91 945.011 3848.79 940.196 Q3854.71 935.382 3864.99 935.382 Q3875.32 935.382 3881.2 940.196 Q3887.07 945.011 3887.07 953.298 Q3887.07 959.224 3883.69 963.344 Q3880.36 967.465 3874.39 968.946 Q3881.15 970.52 3884.9 975.104 Q3888.69 979.687 3888.69 986.307 Q3888.69 996.353 3882.54 1001.72 Q3876.43 1007.09 3864.99 1007.09 Q3853.56 1007.09 3847.4 1001.72 Q3841.29 996.353 3841.29 986.307 Q3841.29 979.687 3845.08 975.104 Q3848.88 970.52 3855.64 968.946 M3852.21 954.178 Q3852.21 959.548 3855.55 962.557 Q3858.93 965.567 3864.99 965.567 Q3871.01 965.567 3874.39 962.557 Q3877.82 959.548 3877.82 954.178 Q3877.82 948.807 3874.39 945.798 Q3871.01 942.789 3864.99 942.789 Q3858.93 942.789 3855.55 945.798 Q3852.21 948.807 3852.21 954.178 Z" fill="#000000" fill-rule="nonzero" fill-opacity="1" /><path clip-path="url(#clip520)" d="M4586.34 997.881 L4601.61 997.881 L4601.61 945.15 L4584.99 948.483 L4584.99 939.965 L4601.52 936.631 L4610.87 936.631 L4610.87 997.881 L4626.15 997.881 L4626.15 1005.75 L4586.34 1005.75 L4586.34 997.881 Z" fill="#000000" fill-rule="nonzero" fill-opacity="1" /><path clip-path="url(#clip520)" d="M4665.04 942.789 Q4657.82 942.789 4654.16 949.918 Q4650.55 957.002 4650.55 971.261 Q4650.55 985.474 4654.16 992.603 Q4657.82 999.687 4665.04 999.687 Q4672.31 999.687 4675.92 992.603 Q4679.58 985.474 4679.58 971.261 Q4679.58 957.002 4675.92 949.918 Q4672.31 942.789 4665.04 942.789 M4665.04 935.382 Q4676.66 935.382 4682.77 944.594 Q4688.93 953.761 4688.93 971.261 Q4688.93 988.715 4682.77 997.927 Q4676.66 1007.09 4665.04 1007.09 Q4653.42 1007.09 4647.26 997.927 Q4641.15 988.715 4641.15 971.261 Q4641.15 953.761 4647.26 944.594 Q4653.42 935.382 4665.04 935.382 Z" fill="#000000" fill-rule="nonzero" fill-opacity="1" /><path clip-path="url(#clip520)" d="M2424.28 1072.18 L2490.06 1072.18 L2490.06 1081.04 L2462.46 1081.04 L2462.46 1149.94 L2451.88 1149.94 L2451.88 1081.04 L2424.28 1081.04 L2424.28 1072.18 Z" fill="#000000" fill-rule="nonzero" fill-opacity="1" /><path clip-path="url(#clip520)" d="M2496.52 1091.61 L2506.1 1091.61 L2506.1 1149.94 L2496.52 1149.94 L2496.52 1091.61 M2496.52 1068.9 L2506.1 1068.9 L2506.1 1081.04 L2496.52 1081.04 L2496.52 1068.9 Z" fill="#000000" fill-rule="nonzero" fill-opacity="1" /><path clip-path="url(#clip520)" d="M2571.57 1102.81 Q2575.16 1096.35 2580.16 1093.28 Q2585.16 1090.2 2591.93 1090.2 Q2601.05 1090.2 2606 1096.61 Q2610.94 1102.96 2610.94 1114.74 L2610.94 1149.94 L2601.31 1149.94 L2601.31 1115.05 Q2601.31 1106.66 2598.34 1102.6 Q2595.37 1098.54 2589.28 1098.54 Q2581.83 1098.54 2577.51 1103.49 Q2573.18 1108.43 2573.18 1116.97 L2573.18 1149.94 L2563.55 1149.94 L2563.55 1115.05 Q2563.55 1106.61 2560.58 1102.6 Q2557.61 1098.54 2551.41 1098.54 Q2544.07 1098.54 2539.75 1103.54 Q2535.42 1108.49 2535.42 1116.97 L2535.42 1149.94 L2525.79 1149.94 L2525.79 1091.61 L2535.42 1091.61 L2535.42 1100.67 Q2538.71 1095.31 2543.29 1092.76 Q2547.87 1090.2 2554.17 1090.2 Q2560.53 1090.2 2564.96 1093.43 Q2569.43 1096.66 2571.57 1102.81 Z" fill="#000000" fill-rule="nonzero" fill-opacity="1" /><path clip-path="url(#clip520)" d="M2679.95 1118.38 L2679.95 1123.07 L2635.89 1123.07 Q2636.52 1132.96 2641.83 1138.17 Q2647.19 1143.33 2656.73 1143.33 Q2662.25 1143.33 2667.4 1141.97 Q2672.61 1140.62 2677.71 1137.91 L2677.71 1146.97 Q2672.56 1149.16 2667.14 1150.31 Q2661.73 1151.45 2656.15 1151.45 Q2642.19 1151.45 2634.02 1143.33 Q2625.89 1135.2 2625.89 1121.35 Q2625.89 1107.03 2633.6 1098.64 Q2641.36 1090.2 2654.49 1090.2 Q2666.26 1090.2 2673.08 1097.81 Q2679.95 1105.36 2679.95 1118.38 M2670.37 1115.57 Q2670.27 1107.7 2665.94 1103.02 Q2661.67 1098.33 2654.59 1098.33 Q2646.57 1098.33 2641.73 1102.86 Q2636.93 1107.39 2636.2 1115.62 L2670.37 1115.57 Z" fill="#000000" fill-rule="nonzero" fill-opacity="1" /><path clip-path="url(#clip520)" d="M2752.61 1069.01 Q2745.63 1080.99 2742.25 1092.7 Q2738.86 1104.42 2738.86 1116.45 Q2738.86 1128.49 2742.25 1140.31 Q2745.68 1152.08 2752.61 1164.01 L2744.28 1164.01 Q2736.46 1151.77 2732.56 1139.94 Q2728.7 1128.12 2728.7 1116.45 Q2728.7 1104.84 2732.56 1093.07 Q2736.41 1081.3 2744.28 1069.01 L2752.61 1069.01 Z" fill="#000000" fill-rule="nonzero" fill-opacity="1" /><path clip-path="url(#clip520)" d="M2809.59 1100.46 L2809.59 1068.9 L2819.17 1068.9 L2819.17 1149.94 L2809.59 1149.94 L2809.59 1141.19 Q2806.57 1146.4 2801.93 1148.95 Q2797.35 1151.45 2790.89 1151.45 Q2780.32 1151.45 2773.65 1143.02 Q2767.04 1134.58 2767.04 1120.83 Q2767.04 1107.08 2773.65 1098.64 Q2780.32 1090.2 2790.89 1090.2 Q2797.35 1090.2 2801.93 1092.76 Q2806.57 1095.26 2809.59 1100.46 M2776.93 1120.83 Q2776.93 1131.4 2781.26 1137.44 Q2785.63 1143.43 2793.24 1143.43 Q2800.84 1143.43 2805.21 1137.44 Q2809.59 1131.4 2809.59 1120.83 Q2809.59 1110.26 2805.21 1104.27 Q2800.84 1098.23 2793.24 1098.23 Q2785.63 1098.23 2781.26 1104.27 Q2776.93 1110.26 2776.93 1120.83 Z" fill="#000000" fill-rule="nonzero" fill-opacity="1" /><path clip-path="url(#clip520)" d="M2865.42 1120.62 Q2853.81 1120.62 2849.33 1123.28 Q2844.85 1125.93 2844.85 1132.34 Q2844.85 1137.44 2848.18 1140.46 Q2851.57 1143.43 2857.35 1143.43 Q2865.32 1143.43 2870.11 1137.81 Q2874.95 1132.13 2874.95 1122.76 L2874.95 1120.62 L2865.42 1120.62 M2884.54 1116.66 L2884.54 1149.94 L2874.95 1149.94 L2874.95 1141.09 Q2871.67 1146.4 2866.78 1148.95 Q2861.88 1151.45 2854.8 1151.45 Q2845.84 1151.45 2840.53 1146.45 Q2835.27 1141.4 2835.27 1132.96 Q2835.27 1123.12 2841.83 1118.12 Q2848.44 1113.12 2861.52 1113.12 L2874.95 1113.12 L2874.95 1112.18 Q2874.95 1105.57 2870.58 1101.98 Q2866.26 1098.33 2858.39 1098.33 Q2853.39 1098.33 2848.65 1099.53 Q2843.91 1100.73 2839.54 1103.12 L2839.54 1094.27 Q2844.8 1092.24 2849.75 1091.25 Q2854.69 1090.2 2859.38 1090.2 Q2872.04 1090.2 2878.29 1096.77 Q2884.54 1103.33 2884.54 1116.66 Z" fill="#000000" fill-rule="nonzero" fill-opacity="1" /><path clip-path="url(#clip520)" d="M2928.55 1155.36 Q2924.48 1165.78 2920.63 1168.95 Q2916.78 1172.13 2910.32 1172.13 L2902.66 1172.13 L2902.66 1164.11 L2908.29 1164.11 Q2912.24 1164.11 2914.43 1162.24 Q2916.62 1160.36 2919.28 1153.38 L2920.99 1149.01 L2897.4 1091.61 L2907.56 1091.61 L2925.79 1137.24 L2944.02 1091.61 L2954.17 1091.61 L2928.55 1155.36 Z" fill="#000000" fill-rule="nonzero" fill-opacity="1" /><path clip-path="url(#clip520)" d="M2965.89 1069.01 L2974.22 1069.01 Q2982.04 1081.3 2985.89 1093.07 Q2989.8 1104.84 2989.8 1116.45 Q2989.8 1128.12 2985.89 1139.94 Q2982.04 1151.77 2974.22 1164.01 L2965.89 1164.01 Q2972.82 1152.08 2976.2 1140.31 Q2979.64 1128.49 2979.64 1116.45 Q2979.64 1104.42 2976.2 1092.7 Q2972.82 1080.99 2965.89 1069.01 Z" fill="#000000" fill-rule="nonzero" fill-opacity="1" /><polyline clip-path="url(#clip520)" style="stroke:#000000; stroke-linecap:round; stroke-linejoin:round; stroke-width:4; stroke-opacity:1; fill:none" points="661.319,880.951 661.319,47.2441 "/>
<polyline clip-path="url(#clip520)" style="stroke:#000000; stroke-linecap:round; stroke-linejoin:round; stroke-width:4; stroke-opacity:1; fill:none" points="661.319,742.711 680.217,742.711 "/>
<polyline clip-path="url(#clip520)" style="stroke:#000000; stroke-linecap:round; stroke-linejoin:round; stroke-width:4; stroke-opacity:1; fill:none" points="661.319,590.255 680.217,590.255 "/>
<polyline clip-path="url(#clip520)" style="stroke:#000000; stroke-linecap:round; stroke-linejoin:round; stroke-width:4; stroke-opacity:1; fill:none" points="661.319,437.799 680.217,437.799 "/>
<polyline clip-path="url(#clip520)" style="stroke:#000000; stroke-linecap:round; stroke-linejoin:round; stroke-width:4; stroke-opacity:1; fill:none" points="661.319,285.344 680.217,285.344 "/>
<polyline clip-path="url(#clip520)" style="stroke:#000000; stroke-linecap:round; stroke-linejoin:round; stroke-width:4; stroke-opacity:1; fill:none" points="661.319,132.888 680.217,132.888 "/>
<path clip-path="url(#clip520)" d="M197.655 743.614 L257.006 743.614 L257.006 751.484 L197.655 751.484 L197.655 743.614 Z" fill="#000000" fill-rule="nonzero" fill-opacity="1" /><path clip-path="url(#clip520)" d="M297.191 714.308 Q289.969 714.308 286.312 721.438 Q282.701 728.521 282.701 742.781 Q282.701 756.993 286.312 764.123 Q289.969 771.206 297.191 771.206 Q304.46 771.206 308.071 764.123 Q311.728 756.993 311.728 742.781 Q311.728 728.521 308.071 721.438 Q304.46 714.308 297.191 714.308 M297.191 706.901 Q308.812 706.901 314.923 716.114 Q321.08 725.281 321.08 742.781 Q321.08 760.234 314.923 769.447 Q308.812 778.614 297.191 778.614 Q285.571 778.614 279.414 769.447 Q273.303 760.234 273.303 742.781 Q273.303 725.281 279.414 716.114 Q285.571 706.901 297.191 706.901 Z" fill="#000000" fill-rule="nonzero" fill-opacity="1" /><path clip-path="url(#clip520)" d="M337.515 765.512 L347.284 765.512 L347.284 777.271 L337.515 777.271 L337.515 765.512 Z" fill="#000000" fill-rule="nonzero" fill-opacity="1" /><path clip-path="url(#clip520)" d="M387.654 714.308 Q380.432 714.308 376.774 721.438 Q373.163 728.521 373.163 742.781 Q373.163 756.993 376.774 764.123 Q380.432 771.206 387.654 771.206 Q394.922 771.206 398.533 764.123 Q402.191 756.993 402.191 742.781 Q402.191 728.521 398.533 721.438 Q394.922 714.308 387.654 714.308 M387.654 706.901 Q399.274 706.901 405.385 716.114 Q411.543 725.281 411.543 742.781 Q411.543 760.234 405.385 769.447 Q399.274 778.614 387.654 778.614 Q376.034 778.614 369.876 769.447 Q363.765 760.234 363.765 742.781 Q363.765 725.281 369.876 716.114 Q376.034 706.901 387.654 706.901 Z" fill="#000000" fill-rule="nonzero" fill-opacity="1" /><path clip-path="url(#clip520)" d="M447.978 714.308 Q440.755 714.308 437.098 721.438 Q433.487 728.521 433.487 742.781 Q433.487 756.993 437.098 764.123 Q440.755 771.206 447.978 771.206 Q455.246 771.206 458.857 764.123 Q462.515 756.993 462.515 742.781 Q462.515 728.521 458.857 721.438 Q455.246 714.308 447.978 714.308 M447.978 706.901 Q459.598 706.901 465.709 716.114 Q471.866 725.281 471.866 742.781 Q471.866 760.234 465.709 769.447 Q459.598 778.614 447.978 778.614 Q436.357 778.614 430.2 769.447 Q424.089 760.234 424.089 742.781 Q424.089 725.281 430.2 716.114 Q436.357 706.901 447.978 706.901 Z" fill="#000000" fill-rule="nonzero" fill-opacity="1" /><path clip-path="url(#clip520)" d="M489.922 769.401 L505.2 769.401 L505.2 716.67 L488.579 720.003 L488.579 711.484 L505.107 708.151 L514.459 708.151 L514.459 769.401 L529.736 769.401 L529.736 777.271 L489.922 777.271 L489.922 769.401 Z" fill="#000000" fill-rule="nonzero" fill-opacity="1" /><path clip-path="url(#clip520)" d="M556.681 769.401 L589.319 769.401 L589.319 777.271 L545.431 777.271 L545.431 769.401 Q550.755 763.892 559.921 754.632 Q569.134 745.327 571.495 742.642 Q575.986 737.595 577.745 734.123 Q579.551 730.605 579.551 727.225 Q579.551 721.716 575.662 718.244 Q571.82 714.771 565.616 714.771 Q561.218 714.771 556.31 716.299 Q551.449 717.827 545.894 720.929 L545.894 711.484 Q551.542 709.216 556.449 708.058 Q561.357 706.901 565.431 706.901 Q576.171 706.901 582.56 712.271 Q588.949 717.642 588.949 726.623 Q588.949 730.882 587.329 734.725 Q585.755 738.521 581.542 743.706 Q580.384 745.049 574.181 751.484 Q567.977 757.873 556.681 769.401 Z" fill="#000000" fill-rule="nonzero" fill-opacity="1" /><path clip-path="url(#clip520)" d="M194.831 591.158 L254.182 591.158 L254.182 599.028 L194.831 599.028 L194.831 591.158 Z" fill="#000000" fill-rule="nonzero" fill-opacity="1" /><path clip-path="url(#clip520)" d="M294.367 561.853 Q287.145 561.853 283.488 568.982 Q279.877 576.065 279.877 590.325 Q279.877 604.538 283.488 611.667 Q287.145 618.75 294.367 618.75 Q301.636 618.75 305.247 611.667 Q308.904 604.538 308.904 590.325 Q308.904 576.065 305.247 568.982 Q301.636 561.853 294.367 561.853 M294.367 554.445 Q305.988 554.445 312.099 563.658 Q318.256 572.825 318.256 590.325 Q318.256 607.778 312.099 616.991 Q305.988 626.158 294.367 626.158 Q282.747 626.158 276.59 616.991 Q270.479 607.778 270.479 590.325 Q270.479 572.825 276.59 563.658 Q282.747 554.445 294.367 554.445 Z" fill="#000000" fill-rule="nonzero" fill-opacity="1" /><path clip-path="url(#clip520)" d="M334.691 613.056 L344.46 613.056 L344.46 624.815 L334.691 624.815 L334.691 613.056 Z" fill="#000000" fill-rule="nonzero" fill-opacity="1" /><path clip-path="url(#clip520)" d="M384.83 561.853 Q377.608 561.853 373.95 568.982 Q370.339 576.065 370.339 590.325 Q370.339 604.538 373.95 611.667 Q377.608 618.75 384.83 618.75 Q392.098 618.75 395.709 611.667 Q399.367 604.538 399.367 590.325 Q399.367 576.065 395.709 568.982 Q392.098 561.853 384.83 561.853 M384.83 554.445 Q396.45 554.445 402.561 563.658 Q408.719 572.825 408.719 590.325 Q408.719 607.778 402.561 616.991 Q396.45 626.158 384.83 626.158 Q373.209 626.158 367.052 616.991 Q360.941 607.778 360.941 590.325 Q360.941 572.825 367.052 563.658 Q373.209 554.445 384.83 554.445 Z" fill="#000000" fill-rule="nonzero" fill-opacity="1" /><path clip-path="url(#clip520)" d="M445.154 561.853 Q437.931 561.853 434.274 568.982 Q430.663 576.065 430.663 590.325 Q430.663 604.538 434.274 611.667 Q437.931 618.75 445.154 618.75 Q452.422 618.75 456.033 611.667 Q459.691 604.538 459.691 590.325 Q459.691 576.065 456.033 568.982 Q452.422 561.853 445.154 561.853 M445.154 554.445 Q456.774 554.445 462.885 563.658 Q469.042 572.825 469.042 590.325 Q469.042 607.778 462.885 616.991 Q456.774 626.158 445.154 626.158 Q433.533 626.158 427.376 616.991 Q421.265 607.778 421.265 590.325 Q421.265 572.825 427.376 563.658 Q433.533 554.445 445.154 554.445 Z" fill="#000000" fill-rule="nonzero" fill-opacity="1" /><path clip-path="url(#clip520)" d="M505.477 561.853 Q498.255 561.853 494.598 568.982 Q490.987 576.065 490.987 590.325 Q490.987 604.538 494.598 611.667 Q498.255 618.75 505.477 618.75 Q512.746 618.75 516.357 611.667 Q520.014 604.538 520.014 590.325 Q520.014 576.065 516.357 568.982 Q512.746 561.853 505.477 561.853 M505.477 554.445 Q517.098 554.445 523.209 563.658 Q529.366 572.825 529.366 590.325 Q529.366 607.778 523.209 616.991 Q517.098 626.158 505.477 626.158 Q493.857 626.158 487.7 616.991 Q481.589 607.778 481.589 590.325 Q481.589 572.825 487.7 563.658 Q493.857 554.445 505.477 554.445 Z" fill="#000000" fill-rule="nonzero" fill-opacity="1" /><path clip-path="url(#clip520)" d="M546.079 623.38 L546.079 614.862 Q549.597 616.528 553.209 617.408 Q556.82 618.287 560.292 618.287 Q569.551 618.287 574.412 612.084 Q579.319 605.834 580.014 593.149 Q577.329 597.13 573.208 599.26 Q569.088 601.389 564.088 601.389 Q553.718 601.389 547.653 595.139 Q541.635 588.843 541.635 577.964 Q541.635 567.316 547.931 560.88 Q554.227 554.445 564.69 554.445 Q576.681 554.445 582.977 563.658 Q589.319 572.825 589.319 590.325 Q589.319 606.667 581.542 616.436 Q573.81 626.158 560.708 626.158 Q557.19 626.158 553.579 625.463 Q549.968 624.769 546.079 623.38 M564.69 594.075 Q570.986 594.075 574.644 589.769 Q578.347 585.464 578.347 577.964 Q578.347 570.51 574.644 566.204 Q570.986 561.853 564.69 561.853 Q558.394 561.853 554.69 566.204 Q551.033 570.51 551.033 577.964 Q551.033 585.464 554.69 589.769 Q558.394 594.075 564.69 594.075 Z" fill="#000000" fill-rule="nonzero" fill-opacity="1" /><path clip-path="url(#clip520)" d="M194.136 438.702 L253.488 438.702 L253.488 446.573 L194.136 446.573 L194.136 438.702 Z" fill="#000000" fill-rule="nonzero" fill-opacity="1" /><path clip-path="url(#clip520)" d="M293.673 409.397 Q286.451 409.397 282.793 416.526 Q279.182 423.61 279.182 437.869 Q279.182 452.082 282.793 459.211 Q286.451 466.295 293.673 466.295 Q300.941 466.295 304.552 459.211 Q308.21 452.082 308.21 437.869 Q308.21 423.61 304.552 416.526 Q300.941 409.397 293.673 409.397 M293.673 401.989 Q305.293 401.989 311.404 411.202 Q317.562 420.369 317.562 437.869 Q317.562 455.322 311.404 464.535 Q305.293 473.702 293.673 473.702 Q282.053 473.702 275.895 464.535 Q269.784 455.322 269.784 437.869 Q269.784 420.369 275.895 411.202 Q282.053 401.989 293.673 401.989 Z" fill="#000000" fill-rule="nonzero" fill-opacity="1" /><path clip-path="url(#clip520)" d="M333.997 460.6 L343.765 460.6 L343.765 472.359 L333.997 472.359 L333.997 460.6 Z" fill="#000000" fill-rule="nonzero" fill-opacity="1" /><path clip-path="url(#clip520)" d="M384.135 409.397 Q376.913 409.397 373.256 416.526 Q369.645 423.61 369.645 437.869 Q369.645 452.082 373.256 459.211 Q376.913 466.295 384.135 466.295 Q391.404 466.295 395.015 459.211 Q398.672 452.082 398.672 437.869 Q398.672 423.61 395.015 416.526 Q391.404 409.397 384.135 409.397 M384.135 401.989 Q395.756 401.989 401.867 411.202 Q408.024 420.369 408.024 437.869 Q408.024 455.322 401.867 464.535 Q395.756 473.702 384.135 473.702 Q372.515 473.702 366.358 464.535 Q360.247 455.322 360.247 437.869 Q360.247 420.369 366.358 411.202 Q372.515 401.989 384.135 401.989 Z" fill="#000000" fill-rule="nonzero" fill-opacity="1" /><path clip-path="url(#clip520)" d="M444.459 409.397 Q437.237 409.397 433.58 416.526 Q429.968 423.61 429.968 437.869 Q429.968 452.082 433.58 459.211 Q437.237 466.295 444.459 466.295 Q451.728 466.295 455.339 459.211 Q458.996 452.082 458.996 437.869 Q458.996 423.61 455.339 416.526 Q451.728 409.397 444.459 409.397 M444.459 401.989 Q456.079 401.989 462.19 411.202 Q468.348 420.369 468.348 437.869 Q468.348 455.322 462.19 464.535 Q456.079 473.702 444.459 473.702 Q432.839 473.702 426.681 464.535 Q420.57 455.322 420.57 437.869 Q420.57 420.369 426.681 411.202 Q432.839 401.989 444.459 401.989 Z" fill="#000000" fill-rule="nonzero" fill-opacity="1" /><path clip-path="url(#clip520)" d="M504.783 409.397 Q497.561 409.397 493.903 416.526 Q490.292 423.61 490.292 437.869 Q490.292 452.082 493.903 459.211 Q497.561 466.295 504.783 466.295 Q512.051 466.295 515.662 459.211 Q519.32 452.082 519.32 437.869 Q519.32 423.61 515.662 416.526 Q512.051 409.397 504.783 409.397 M504.783 401.989 Q516.403 401.989 522.514 411.202 Q528.672 420.369 528.672 437.869 Q528.672 455.322 522.514 464.535 Q516.403 473.702 504.783 473.702 Q493.163 473.702 487.005 464.535 Q480.894 455.322 480.894 437.869 Q480.894 420.369 487.005 411.202 Q493.163 401.989 504.783 401.989 Z" fill="#000000" fill-rule="nonzero" fill-opacity="1" /><path clip-path="url(#clip520)" d="M566.264 434.073 Q559.968 434.073 556.264 438.378 Q552.607 442.684 552.607 450.184 Q552.607 457.637 556.264 461.989 Q559.968 466.295 566.264 466.295 Q572.56 466.295 576.218 461.989 Q579.921 457.637 579.921 450.184 Q579.921 442.684 576.218 438.378 Q572.56 434.073 566.264 434.073 M584.829 404.767 L584.829 413.286 Q581.31 411.619 577.699 410.739 Q574.134 409.86 570.616 409.86 Q561.357 409.86 556.449 416.11 Q551.588 422.36 550.894 434.998 Q553.625 430.971 557.746 428.841 Q561.866 426.665 566.82 426.665 Q577.236 426.665 583.255 433.008 Q589.319 439.304 589.319 450.184 Q589.319 460.832 583.023 467.267 Q576.727 473.702 566.264 473.702 Q554.273 473.702 547.931 464.535 Q541.588 455.322 541.588 437.869 Q541.588 421.48 549.366 411.758 Q557.144 401.989 570.245 401.989 Q573.764 401.989 577.329 402.684 Q580.94 403.378 584.829 404.767 Z" fill="#000000" fill-rule="nonzero" fill-opacity="1" /><path clip-path="url(#clip520)" d="M195.757 286.246 L255.108 286.246 L255.108 294.117 L195.757 294.117 L195.757 286.246 Z" fill="#000000" fill-rule="nonzero" fill-opacity="1" /><path clip-path="url(#clip520)" d="M295.293 256.941 Q288.071 256.941 284.414 264.071 Q280.803 271.154 280.803 285.413 Q280.803 299.626 284.414 306.755 Q288.071 313.839 295.293 313.839 Q302.562 313.839 306.173 306.755 Q309.83 299.626 309.83 285.413 Q309.83 271.154 306.173 264.071 Q302.562 256.941 295.293 256.941 M295.293 249.534 Q306.914 249.534 313.025 258.746 Q319.182 267.913 319.182 285.413 Q319.182 302.867 313.025 312.08 Q306.914 321.246 295.293 321.246 Q283.673 321.246 277.516 312.08 Q271.404 302.867 271.404 285.413 Q271.404 267.913 277.516 258.746 Q283.673 249.534 295.293 249.534 Z" fill="#000000" fill-rule="nonzero" fill-opacity="1" /><path clip-path="url(#clip520)" d="M335.617 308.144 L345.386 308.144 L345.386 319.904 L335.617 319.904 L335.617 308.144 Z" fill="#000000" fill-rule="nonzero" fill-opacity="1" /><path clip-path="url(#clip520)" d="M385.756 256.941 Q378.534 256.941 374.876 264.071 Q371.265 271.154 371.265 285.413 Q371.265 299.626 374.876 306.755 Q378.534 313.839 385.756 313.839 Q393.024 313.839 396.635 306.755 Q400.293 299.626 400.293 285.413 Q400.293 271.154 396.635 264.071 Q393.024 256.941 385.756 256.941 M385.756 249.534 Q397.376 249.534 403.487 258.746 Q409.644 267.913 409.644 285.413 Q409.644 302.867 403.487 312.08 Q397.376 321.246 385.756 321.246 Q374.135 321.246 367.978 312.08 Q361.867 302.867 361.867 285.413 Q361.867 267.913 367.978 258.746 Q374.135 249.534 385.756 249.534 Z" fill="#000000" fill-rule="nonzero" fill-opacity="1" /><path clip-path="url(#clip520)" d="M446.079 256.941 Q438.857 256.941 435.2 264.071 Q431.589 271.154 431.589 285.413 Q431.589 299.626 435.2 306.755 Q438.857 313.839 446.079 313.839 Q453.348 313.839 456.959 306.755 Q460.616 299.626 460.616 285.413 Q460.616 271.154 456.959 264.071 Q453.348 256.941 446.079 256.941 M446.079 249.534 Q457.7 249.534 463.811 258.746 Q469.968 267.913 469.968 285.413 Q469.968 302.867 463.811 312.08 Q457.7 321.246 446.079 321.246 Q434.459 321.246 428.302 312.08 Q422.191 302.867 422.191 285.413 Q422.191 267.913 428.302 258.746 Q434.459 249.534 446.079 249.534 Z" fill="#000000" fill-rule="nonzero" fill-opacity="1" /><path clip-path="url(#clip520)" d="M506.403 256.941 Q499.181 256.941 495.524 264.071 Q491.913 271.154 491.913 285.413 Q491.913 299.626 495.524 306.755 Q499.181 313.839 506.403 313.839 Q513.672 313.839 517.283 306.755 Q520.94 299.626 520.94 285.413 Q520.94 271.154 517.283 264.071 Q513.672 256.941 506.403 256.941 M506.403 249.534 Q518.024 249.534 524.135 258.746 Q530.292 267.913 530.292 285.413 Q530.292 302.867 524.135 312.08 Q518.024 321.246 506.403 321.246 Q494.783 321.246 488.626 312.08 Q482.514 302.867 482.514 285.413 Q482.514 267.913 488.626 258.746 Q494.783 249.534 506.403 249.534 Z" fill="#000000" fill-rule="nonzero" fill-opacity="1" /><path clip-path="url(#clip520)" d="M575.06 282.635 Q581.773 284.07 585.523 288.607 Q589.319 293.144 589.319 299.811 Q589.319 310.043 582.282 315.644 Q575.245 321.246 562.283 321.246 Q557.931 321.246 553.301 320.367 Q548.718 319.533 543.81 317.82 L543.81 308.793 Q547.699 311.061 552.329 312.218 Q556.959 313.376 562.005 313.376 Q570.801 313.376 575.384 309.904 Q580.014 306.431 580.014 299.811 Q580.014 293.7 575.708 290.274 Q571.449 286.802 563.81 286.802 L555.755 286.802 L555.755 279.117 L564.181 279.117 Q571.079 279.117 574.736 276.385 Q578.394 273.608 578.394 268.422 Q578.394 263.098 574.597 260.274 Q570.847 257.404 563.81 257.404 Q559.968 257.404 555.57 258.237 Q551.172 259.071 545.894 260.83 L545.894 252.497 Q551.218 251.015 555.847 250.274 Q560.523 249.534 564.644 249.534 Q575.292 249.534 581.495 254.395 Q587.699 259.209 587.699 267.45 Q587.699 273.191 584.412 277.172 Q581.125 281.107 575.06 282.635 Z" fill="#000000" fill-rule="nonzero" fill-opacity="1" /><path clip-path="url(#clip520)" d="M293.997 104.485 Q286.775 104.485 283.117 111.615 Q279.506 118.698 279.506 132.957 Q279.506 147.17 283.117 154.3 Q286.775 161.383 293.997 161.383 Q301.265 161.383 304.877 154.3 Q308.534 147.17 308.534 132.957 Q308.534 118.698 304.877 111.615 Q301.265 104.485 293.997 104.485 M293.997 97.0777 Q305.617 97.0777 311.728 106.291 Q317.886 115.457 317.886 132.957 Q317.886 150.411 311.728 159.624 Q305.617 168.79 293.997 168.79 Q282.377 168.79 276.219 159.624 Q270.108 150.411 270.108 132.957 Q270.108 115.457 276.219 106.291 Q282.377 97.0777 293.997 97.0777 Z" fill="#000000" fill-rule="nonzero" fill-opacity="1" /><path clip-path="url(#clip520)" d="M334.321 155.689 L344.089 155.689 L344.089 167.448 L334.321 167.448 L334.321 155.689 Z" fill="#000000" fill-rule="nonzero" fill-opacity="1" /><path clip-path="url(#clip520)" d="M384.459 104.485 Q377.237 104.485 373.58 111.615 Q369.969 118.698 369.969 132.957 Q369.969 147.17 373.58 154.3 Q377.237 161.383 384.459 161.383 Q391.728 161.383 395.339 154.3 Q398.996 147.17 398.996 132.957 Q398.996 118.698 395.339 111.615 Q391.728 104.485 384.459 104.485 M384.459 97.0777 Q396.08 97.0777 402.191 106.291 Q408.348 115.457 408.348 132.957 Q408.348 150.411 402.191 159.624 Q396.08 168.79 384.459 168.79 Q372.839 168.79 366.682 159.624 Q360.571 150.411 360.571 132.957 Q360.571 115.457 366.682 106.291 Q372.839 97.0777 384.459 97.0777 Z" fill="#000000" fill-rule="nonzero" fill-opacity="1" /><path clip-path="url(#clip520)" d="M444.783 104.485 Q437.561 104.485 433.904 111.615 Q430.293 118.698 430.293 132.957 Q430.293 147.17 433.904 154.3 Q437.561 161.383 444.783 161.383 Q452.052 161.383 455.663 154.3 Q459.32 147.17 459.32 132.957 Q459.32 118.698 455.663 111.615 Q452.052 104.485 444.783 104.485 M444.783 97.0777 Q456.403 97.0777 462.515 106.291 Q468.672 115.457 468.672 132.957 Q468.672 150.411 462.515 159.624 Q456.403 168.79 444.783 168.79 Q433.163 168.79 427.006 159.624 Q420.894 150.411 420.894 132.957 Q420.894 115.457 427.006 106.291 Q433.163 97.0777 444.783 97.0777 Z" fill="#000000" fill-rule="nonzero" fill-opacity="1" /><path clip-path="url(#clip520)" d="M505.107 104.485 Q497.885 104.485 494.227 111.615 Q490.616 118.698 490.616 132.957 Q490.616 147.17 494.227 154.3 Q497.885 161.383 505.107 161.383 Q512.375 161.383 515.987 154.3 Q519.644 147.17 519.644 132.957 Q519.644 118.698 515.987 111.615 Q512.375 104.485 505.107 104.485 M505.107 97.0777 Q516.727 97.0777 522.838 106.291 Q528.996 115.457 528.996 132.957 Q528.996 150.411 522.838 159.624 Q516.727 168.79 505.107 168.79 Q493.487 168.79 487.329 159.624 Q481.218 150.411 481.218 132.957 Q481.218 115.457 487.329 106.291 Q493.487 97.0777 505.107 97.0777 Z" fill="#000000" fill-rule="nonzero" fill-opacity="1" /><path clip-path="url(#clip520)" d="M565.431 104.485 Q558.209 104.485 554.551 111.615 Q550.94 118.698 550.94 132.957 Q550.94 147.17 554.551 154.3 Q558.209 161.383 565.431 161.383 Q572.699 161.383 576.31 154.3 Q579.968 147.17 579.968 132.957 Q579.968 118.698 576.31 111.615 Q572.699 104.485 565.431 104.485 M565.431 97.0777 Q577.051 97.0777 583.162 106.291 Q589.319 115.457 589.319 132.957 Q589.319 150.411 583.162 159.624 Q577.051 168.79 565.431 168.79 Q553.81 168.79 547.653 159.624 Q541.542 150.411 541.542 132.957 Q541.542 115.457 547.653 106.291 Q553.81 97.0777 565.431 97.0777 Z" fill="#000000" fill-rule="nonzero" fill-opacity="1" /><path clip-path="url(#clip520)" d="M21.0484 860.424 L21.0484 849.903 L52.9232 849.903 L52.9232 811.674 L21.0484 811.674 L21.0484 801.153 L98.8084 801.153 L98.8084 811.674 L61.7773 811.674 L61.7773 849.903 L98.8084 849.903 L98.8084 860.424 L21.0484 860.424 Z" fill="#000000" fill-rule="nonzero" fill-opacity="1" /><path clip-path="url(#clip520)" d="M28.1838 748.654 Q28.1838 760.112 36.7254 766.883 Q45.267 773.601 60.0065 773.601 Q74.6939 773.601 83.2355 766.883 Q91.7772 760.112 91.7772 748.654 Q91.7772 737.195 83.2355 730.529 Q74.6939 723.81 60.0065 723.81 Q45.267 723.81 36.7254 730.529 Q28.1838 737.195 28.1838 748.654 M19.6421 748.654 Q19.6421 732.299 30.6317 722.508 Q41.5691 712.716 60.0065 712.716 Q78.3918 712.716 89.3813 722.508 Q100.319 732.299 100.319 748.654 Q100.319 765.06 89.3813 774.903 Q78.4439 784.695 60.0065 784.695 Q41.5691 784.695 30.6317 774.903 Q19.6421 765.06 19.6421 748.654 Z" fill="#000000" fill-rule="nonzero" fill-opacity="1" /><path clip-path="url(#clip520)" d="M89.9543 686.258 L89.9543 649.54 L98.8084 649.54 L98.8084 698.914 L89.9543 698.914 Q83.7564 692.925 73.3398 682.612 Q62.8711 672.248 59.8503 669.591 Q54.1732 664.539 50.267 662.56 Q46.3087 660.529 42.5066 660.529 Q36.3087 660.529 32.4025 664.904 Q28.4963 669.227 28.4963 676.206 Q28.4963 681.154 30.215 686.675 Q31.9337 692.143 35.4233 698.393 L24.7984 698.393 Q22.2463 692.039 20.9442 686.518 Q19.6421 680.998 19.6421 676.414 Q19.6421 664.331 25.6838 657.144 Q31.7254 649.956 41.8295 649.956 Q46.6212 649.956 50.9441 651.779 Q55.2149 653.55 61.0482 658.289 Q62.5586 659.592 69.7981 666.571 Q76.9856 673.55 89.9543 686.258 Z" fill="#000000" fill-rule="nonzero" fill-opacity="1" /><path clip-path="url(#clip520)" d="M21.0484 594.488 L21.0484 545.321 L29.9025 545.321 L29.9025 583.967 L52.9232 583.967 L52.9232 546.936 L61.7773 546.936 L61.7773 583.967 L89.9543 583.967 L89.9543 544.384 L98.8084 544.384 L98.8084 594.488 L21.0484 594.488 Z" fill="#000000" fill-rule="nonzero" fill-opacity="1" /><path clip-path="url(#clip520)" d="M49.4336 493.707 Q48.4961 495.322 48.0795 497.249 Q47.6107 499.124 47.6107 501.415 Q47.6107 509.54 52.9232 513.915 Q58.1836 518.238 68.0794 518.238 L98.8084 518.238 L98.8084 527.873 L40.4754 527.873 L40.4754 518.238 L49.5378 518.238 Q44.2253 515.217 41.6733 510.374 Q39.0691 505.53 39.0691 498.603 Q39.0691 497.613 39.2254 496.415 Q39.3295 495.217 39.5899 493.759 L49.4336 493.707 Z" fill="#000000" fill-rule="nonzero" fill-opacity="1" /><path clip-path="url(#clip520)" d="M49.4336 451.728 Q48.4961 453.343 48.0795 455.27 Q47.6107 457.145 47.6107 459.436 Q47.6107 467.561 52.9232 471.936 Q58.1836 476.259 68.0794 476.259 L98.8084 476.259 L98.8084 485.895 L40.4754 485.895 L40.4754 476.259 L49.5378 476.259 Q44.2253 473.238 41.6733 468.395 Q39.0691 463.551 39.0691 456.624 Q39.0691 455.634 39.2254 454.436 Q39.3295 453.238 39.5899 451.78 L49.4336 451.728 Z" fill="#000000" fill-rule="nonzero" fill-opacity="1" /><path clip-path="url(#clip520)" d="M47.1941 421.416 Q47.1941 429.124 53.2357 433.603 Q59.2253 438.082 69.694 438.082 Q80.1626 438.082 86.2043 433.655 Q92.1938 429.176 92.1938 421.416 Q92.1938 413.76 86.1522 409.28 Q80.1106 404.801 69.694 404.801 Q59.3294 404.801 53.2878 409.28 Q47.1941 413.76 47.1941 421.416 M39.0691 421.416 Q39.0691 408.916 47.1941 401.78 Q55.319 394.645 69.694 394.645 Q84.0168 394.645 92.1938 401.78 Q100.319 408.916 100.319 421.416 Q100.319 433.968 92.1938 441.103 Q84.0168 448.186 69.694 448.186 Q55.319 448.186 47.1941 441.103 Q39.0691 433.968 39.0691 421.416 Z" fill="#000000" fill-rule="nonzero" fill-opacity="1" /><path clip-path="url(#clip520)" d="M49.4336 344.958 Q48.4961 346.572 48.0795 348.499 Q47.6107 350.374 47.6107 352.666 Q47.6107 360.791 52.9232 365.166 Q58.1836 369.489 68.0794 369.489 L98.8084 369.489 L98.8084 379.124 L40.4754 379.124 L40.4754 369.489 L49.5378 369.489 Q44.2253 366.468 41.6733 361.624 Q39.0691 356.781 39.0691 349.854 Q39.0691 348.864 39.2254 347.666 Q39.3295 346.468 39.5899 345.01 L49.4336 344.958 Z" fill="#000000" fill-rule="nonzero" fill-opacity="1" /><path clip-path="url(#clip520)" d="M17.8713 311.885 Q29.8504 318.864 41.5691 322.25 Q53.2878 325.635 65.319 325.635 Q77.3502 325.635 89.173 322.25 Q100.944 318.812 112.871 311.885 L112.871 320.218 Q100.631 328.031 88.8084 331.937 Q76.9856 335.791 65.319 335.791 Q53.7045 335.791 41.9337 331.937 Q30.1629 328.083 17.8713 320.218 L17.8713 311.885 Z" fill="#000000" fill-rule="nonzero" fill-opacity="1" /><path clip-path="url(#clip520)" d="M90.0584 284.021 L120.996 284.021 L120.996 293.656 L40.4754 293.656 L40.4754 284.021 L49.3295 284.021 Q44.1212 281 41.6212 276.417 Q39.0691 271.781 39.0691 265.375 Q39.0691 254.75 47.5066 248.135 Q55.944 241.469 69.694 241.469 Q83.4439 241.469 91.8813 248.135 Q100.319 254.75 100.319 265.375 Q100.319 271.781 97.8188 276.417 Q95.2667 281 90.0584 284.021 M69.694 251.417 Q59.1211 251.417 53.1315 255.792 Q47.0899 260.115 47.0899 267.719 Q47.0899 275.323 53.1315 279.698 Q59.1211 284.021 69.694 284.021 Q80.2668 284.021 86.3084 279.698 Q92.298 275.323 92.298 267.719 Q92.298 260.115 86.3084 255.792 Q80.2668 251.417 69.694 251.417 Z" fill="#000000" fill-rule="nonzero" fill-opacity="1" /><path clip-path="url(#clip520)" d="M90.0584 216.313 L120.996 216.313 L120.996 225.948 L40.4754 225.948 L40.4754 216.313 L49.3295 216.313 Q44.1212 213.292 41.6212 208.709 Q39.0691 204.073 39.0691 197.667 Q39.0691 187.042 47.5066 180.427 Q55.944 173.761 69.694 173.761 Q83.4439 173.761 91.8813 180.427 Q100.319 187.042 100.319 197.667 Q100.319 204.073 97.8188 208.709 Q95.2667 213.292 90.0584 216.313 M69.694 183.709 Q59.1211 183.709 53.1315 188.084 Q47.0899 192.407 47.0899 200.011 Q47.0899 207.615 53.1315 211.99 Q59.1211 216.313 69.694 216.313 Q80.2668 216.313 86.3084 211.99 Q92.298 207.615 92.298 200.011 Q92.298 192.407 86.3084 188.084 Q80.2668 183.709 69.694 183.709 Z" fill="#000000" fill-rule="nonzero" fill-opacity="1" /><path clip-path="url(#clip520)" d="M69.694 116.001 Q59.1211 116.001 53.1315 120.376 Q47.0899 124.699 47.0899 132.303 Q47.0899 139.907 53.1315 144.282 Q59.1211 148.605 69.694 148.605 Q80.2668 148.605 86.3084 144.282 Q92.298 139.907 92.298 132.303 Q92.298 124.699 86.3084 120.376 Q80.2668 116.001 69.694 116.001 M49.3295 148.605 Q44.1212 145.584 41.6212 141.001 Q39.0691 136.365 39.0691 129.959 Q39.0691 119.334 47.5066 112.719 Q55.944 106.053 69.694 106.053 Q83.4439 106.053 91.8813 112.719 Q100.319 119.334 100.319 129.959 Q100.319 136.365 97.8188 141.001 Q95.2667 145.584 90.0584 148.605 L98.8084 148.605 L98.8084 158.24 L17.7671 158.24 L17.7671 148.605 L49.3295 148.605 Z" fill="#000000" fill-rule="nonzero" fill-opacity="1" /><path clip-path="url(#clip520)" d="M17.8713 91.6779 L17.8713 83.3446 Q30.1629 75.5322 41.9337 71.678 Q53.7045 67.7718 65.319 67.7718 Q76.9856 67.7718 88.8084 71.678 Q100.631 75.5322 112.871 83.3446 L112.871 91.6779 Q100.944 84.7509 89.173 81.3655 Q77.3502 77.928 65.319 77.928 Q53.2878 77.928 41.5691 81.3655 Q29.8504 84.7509 17.8713 91.6779 Z" fill="#000000" fill-rule="nonzero" fill-opacity="1" /><path clip-path="url(#clip522)" d="M777.115 164.842 L793.198 179.629 L809.28 198.948 L825.363 225.11 L841.446 253.422 L857.528 288.073 L873.611 319.092 L889.694 341.184 L905.776 328.534 L921.859 293.862 L937.942 254.058 L954.024 226.259 L970.107 214.322 L986.19 219.127 L1002.27 228.598 L1018.36 240.654 L1034.44 261.577 L1050.52 285.949 L1066.6 305.308 L1082.69 316.659 L1098.77 310.663 L1114.85 293.657 L1130.93 267.73 L1147.02 259.566 L1163.1 262.693 L1179.18 276.939 L1195.26 296.938 L1211.35 323.643 L1227.43 352.67 L1243.51 387.177 L1259.6 420 L1275.68 439.129 L1291.76 418.537 L1307.84 372.367 L1323.93 322.802 L1340.01 285.458 L1356.09 262.895 L1372.17 256.294 L1388.26 263.031 L1404.34 280.192 L1420.42 300.946 L1436.51 324.327 L1452.59 342.662 L1468.67 353.623 L1484.75 346.299 L1500.84 327.4 L1516.92 299.233 L1533 286.583 L1549.08 289.557 L1565.17 304.435 L1581.25 325.328 L1597.33 353.288 L1613.41 383.751 L1629.5 434.684 L1645.58 471.38 L1661.66 483.738 L1677.75 460.783 L1693.83 407.08 L1709.91 350.346 L1725.99 308.702 L1742.08 283.22 L1758.16 274.923 L1774.24 280.808 L1790.32 297.593 L1806.41 318.529 L1822.49 342.124 L1838.57 360.516 L1854.66 372.568 L1870.74 365.035 L1886.82 343.976 L1902.9 314.438 L1918.99 297.598 L1935.07 299.946 L1951.15 315.092 L1967.23 336.604 L1983.32 365.567 L1999.4 410.055 L2015.48 470.525 L2031.56 511.485 L2047.65 521.933 L2063.73 494.324 L2079.81 435.742 L2095.9 369.181 L2111.98 323.567 L2128.06 296.207 L2144.14 286.872 L2160.23 292.371 L2176.31 309.41 L2192.39 330.863 L2208.47 354.952 L2224.56 376.441 L2240.64 390.701 L2256.72 383.167 L2272.81 360.858 L2288.89 331.417 L2304.97 314.633 L2321.05 305.698 L2337.14 321.31 L2353.22 343.437 L2369.3 381.069 L2385.38 437.591 L2401.47 503.843 L2417.55 549.269 L2433.63 561.369 L2449.71 527.636 L2465.8 464.302 L2481.88 392.296 L2497.96 338.175 L2514.05 306.891 L2530.13 296.748 L2546.21 302.108 L2562.29 319.326 L2578.38 341.794 L2594.46 370.841 L2610.54 394.716 L2626.62 410.101 L2642.71 402.624 L2658.79 379.632 L2674.87 348.42 L2690.95 331.134 L2707.04 321.522 L2723.12 332.206 L2739.2 358.488 L2755.29 403.939 L2771.37 465.346 L2787.45 537.857 L2803.53 588.211 L2819.62 602.237 L2835.7 565.375 L2851.78 496.229 L2867.86 418.257 L2883.95 359.485 L2900.03 323.159 L2916.11 309.512 L2932.2 314.381 L2948.28 333.75 L2964.36 359.623 L2980.44 390.023 L2996.53 415.128 L3012.61 431.689 L3028.69 424.325 L3044.77 400.641 L3060.86 366.549 L3076.94 348.724 L3093.02 338.911 L3109.1 350.816 L3125.19 379.334 L3141.27 428.491 L3157.35 495.119 L3173.44 574.339 L3189.52 630.021 L3205.6 646.535 L3221.68 609.104 L3237.77 533.436 L3253.85 448.342 L3269.93 384.246 L3286.01 344.437 L3302.1 328.957 L3318.18 333.284 L3334.26 353.249 L3350.35 380.335 L3366.43 412.292 L3382.51 438.947 L3398.59 457.011 L3414.68 449.88 L3430.76 425.427 L3446.84 386.341 L3462.92 367.191 L3479.01 357.228 L3495.09 370.345 L3511.17 401.24 L3527.25 454.424 L3543.34 526.805 L3559.42 613.513 L3575.5 675.24 L3591.59 694.323 L3607.67 662.091 L3623.75 578.646 L3639.83 484.685 L3655.92 414.058 L3672 370.037 L3688.08 352.42 L3704.16 356.156 L3720.25 376.765 L3736.33 404.996 L3752.41 438.805 L3768.5 467.513 L3784.58 487.565 L3800.66 480.884 L3816.74 455.569 L3832.83 414.148 L3848.91 386.934 L3864.99 376.821 L3881.07 391.426 L3897.16 425.076 L3913.24 482.817 L3929.32 561.693 L3945.4 656.813 L3961.49 725.344 L3977.57 763.756 L3993.65 728.858 L4009.74 635.605 L4025.82 530.609 L4041.9 451.757 L4057.98 402.435 L4074.07 382.168 L4090.15 385.259 L4106.23 406.8 L4122.31 436.767 L4138.4 473.304 L4154.48 504.53 L4170.56 527.05 L4186.65 520.92 L4202.73 494.641 L4218.81 450.292 L4234.89 409.204 L4250.98 398.915 L4267.06 415.121 L4283.14 451.796 L4299.22 514.661 L4315.31 600.908 L4331.39 705.776 L4347.47 794.421 L4363.55 857.356 L4379.64 819.265 L4395.72 712.209 L4411.8 592.383 L4427.89 502.395 L4443.97 445.755 L4460.05 421.784 L4476.13 423.922 L4492.22 446.663 L4508.3 479.056 L4524.38 519.028 L4540.46 553.82 L4556.55 579.951 L4572.63 574.828 L4588.71 547.381 L4604.8 499.133 L4620.88 450.432 L4636.96 423.653 L4636.96 73.4665 L4620.88 77.0784 L4604.8 81.873 L4588.71 86.732 L4572.63 90.0654 L4556.55 91.5584 L4540.46 89.7016 L4524.38 86.3471 L4508.3 82.1642 L4492.22 78.2843 L4476.13 74.6492 L4460.05 72.0825 L4443.97 70.8396 L4427.89 71.2007 L4411.8 72.999 L4395.72 76.1129 L4379.64 78.5665 L4363.55 80.8111 L4347.47 81.0705 L4331.39 79.6772 L4315.31 76.5858 L4299.22 74.0678 L4283.14 72.5717 L4267.06 72.6379 L4250.98 74.1406 L4234.89 77.7615 L4218.81 82.5435 L4202.73 87.3912 L4186.65 90.7322 L4170.56 92.2239 L4154.48 90.3739 L4138.4 87.0414 L4122.31 82.8916 L4106.23 79.0415 L4090.15 75.4655 L4074.07 72.9142 L4057.98 71.662 L4041.9 72.0055 L4025.82 73.7676 L4009.74 76.7858 L3993.65 79.2299 L3977.57 81.5553 L3961.49 81.8016 L3945.4 80.4331 L3929.32 77.3652 L3913.24 74.8586 L3897.16 73.3646 L3881.07 73.4191 L3864.99 74.9095 L3848.91 78.515 L3832.83 83.2761 L3816.74 88.1129 L3800.66 91.5831 L3784.58 93.1428 L3768.5 91.367 L3752.41 88.0908 L3736.33 83.975 L3720.25 80.1568 L3704.16 76.6176 L3688.08 74.1062 L3672 72.9022 L3655.92 73.2992 L3639.83 75.1283 L3623.75 78.2367 L3607.67 80.702 L3591.59 82.8158 L3575.5 82.991 L3559.42 81.5844 L3543.34 78.5458 L3527.25 76.0818 L3511.17 74.6281 L3495.09 74.7673 L3479.01 76.2885 L3462.92 79.9117 L3446.84 84.688 L3430.76 89.5322 L3414.68 92.9671 L3398.59 94.516 L3382.51 92.7536 L3366.43 89.5389 L3350.35 85.4984 L3334.26 81.6868 L3318.18 78.1972 L3302.1 75.707 L3286.01 74.5091 L3269.93 74.8836 L3253.85 76.6064 L3237.77 79.644 L3221.68 82.0071 L3205.6 84.1553 L3189.52 84.3682 L3173.44 82.9519 L3157.35 79.9303 L3141.27 77.4824 L3125.19 76.0441 L3109.1 76.1986 L3093.02 77.7361 L3076.94 81.3617 L3060.86 86.1261 L3044.77 90.9229 L3028.69 94.4045 L3012.61 95.965 L2996.53 94.2703 L2980.44 91.0962 L2964.36 87.0743 L2948.28 83.2939 L2932.2 79.8143 L2916.11 77.3139 L2900.03 76.0934 L2883.95 76.3952 L2867.86 78.1261 L2851.78 81.047 L2835.7 83.391 L2819.62 85.5385 L2803.53 85.965 L2787.45 84.7955 L2771.37 81.8356 L2755.29 79.4186 L2739.2 78.012 L2723.12 78.1928 L2707.04 79.7432 L2690.95 83.3817 L2674.87 88.1782 L2658.79 93.0611 L2642.71 96.4846 L2626.62 98.1294 L2610.54 96.4803 L2594.46 93.3953 L2578.38 89.486 L2562.29 85.8468 L2546.21 82.4068 L2530.13 80.005 L2514.05 78.8893 L2497.96 79.3227 L2481.88 81.1245 L2465.8 84.1072 L2449.71 86.3631 L2433.63 88.4231 L2417.55 88.6305 L2401.47 87.2791 L2385.38 84.3205 L2369.3 81.9181 L2353.22 80.4879 L2337.14 80.6292 L2321.05 82.1269 L2304.97 85.7466 L2288.89 90.5443 L2272.81 95.4529 L2256.72 99.009 L2240.64 100.713 L2224.56 99.1643 L2208.47 96.1392 L2192.39 92.256 L2176.31 88.6221 L2160.23 85.2004 L2144.14 82.8011 L2128.06 81.6901 L2111.98 82.1265 L2095.9 83.942 L2079.81 86.9949 L2063.73 89.4447 L2047.65 91.6942 L2031.56 91.9231 L2015.48 90.6241 L1999.4 87.7748 L1983.32 85.4317 L1967.23 84.0444 L1951.15 84.2204 L1935.07 85.7586 L1918.99 89.3986 L1902.9 94.214 L1886.82 99.1267 L1870.74 102.698 L1854.66 104.5 L1838.57 103.126 L1822.49 100.286 L1806.41 96.5459 L1790.32 93.0538 L1774.24 89.8008 L1758.16 87.5388 L1742.08 86.5564 L1725.99 87.0991 L1709.91 88.9801 L1693.83 92.0062 L1677.75 94.3051 L1661.66 96.472 L1645.58 96.8393 L1629.5 95.6539 L1613.41 92.8457 L1597.33 90.5147 L1581.25 89.1484 L1565.17 89.3248 L1549.08 90.9175 L1533 94.6257 L1516.92 99.5166 L1500.84 104.566 L1484.75 108.369 L1468.67 110.417 L1452.59 109.302 L1436.51 106.525 L1420.42 102.906 L1404.34 99.5178 L1388.26 96.3946 L1372.17 94.2871 L1356.09 93.4591 L1340.01 94.1542 L1323.93 96.1734 L1307.84 99.3161 L1291.76 101.781 L1275.68 104.035 L1259.6 104.562 L1243.51 103.585 L1227.43 100.996 L1211.35 98.8968 L1195.26 97.731 L1179.18 98.0546 L1163.1 99.7411 L1147.02 103.526 L1130.93 108.487 L1114.85 113.617 L1098.77 117.559 L1082.69 119.79 L1066.6 119.096 L1050.52 117.034 L1034.44 114.095 L1018.36 111.411 L1002.27 108.491 L986.19 105.486 L970.107 104.892 L954.024 106.842 L937.942 110.576 L921.859 113.732 L905.776 116.257 L889.694 118.919 L873.611 120.134 L857.528 120.099 L841.446 118.716 L825.363 118.093 L809.28 118.81 L793.198 121.669 L777.115 122.512  Z" fill="#aeaeae" fill-rule="evenodd" fill-opacity="0.5"/>
<polyline clip-path="url(#clip522)" style="stroke:#aeaeae; stroke-linecap:round; stroke-linejoin:round; stroke-width:0; stroke-opacity:1; fill:none" points="777.115,131.909 793.198,130.027 809.28,130.037 825.363,131.834 841.446,134.7 857.528,138.025 873.611,139.689 889.694,139.593 905.776,137.356 921.859,134.468 937.942,130.964 954.024,128.513 970.107,127.413 986.19,127.912 1002.27,129.782 1018.36,132.716 1034.44,135.967 1050.52,139.383 1066.6,142.007 1082.69,143.383 1098.77,142.066 1114.85,139.221 1130.93,135.305 1147.02,131.618 1163.1,129.125 1179.18,128.721 1195.26,129.71 1211.35,132.179 1227.43,135.532 1243.51,139.233 1259.6,141.15 1275.68,141.144 1291.76,138.759 1307.84,135.578 1323.93,131.794 1340.01,129.15 1356.09,127.927 1372.17,128.343 1388.26,130.152 1404.34,133.033 1420.42,136.225 1436.51,139.588 1452.59,142.173 1468.67,143.538 1484.75,142.205 1500.84,139.338 1516.92,135.396 1533,131.685 1549.08,129.18 1565.17,128.786 1581.25,129.807 1597.33,132.326 1613.41,135.748 1629.5,139.526 1645.58,141.494 1661.66,141.494 1677.75,139.014 1693.83,135.699 1709.91,131.799 1725.99,129.084 1742.08,127.826 1758.16,128.234 1774.24,130.044 1790.32,132.929 1806.41,136.126 1822.49,139.499 1838.57,142.093 1854.66,143.472 1870.74,142.142 1886.82,139.27 1902.9,135.315 1918.99,131.588 1935.07,129.072 1951.15,128.683 1967.23,129.721 1983.32,132.273 1999.4,135.741 2015.48,139.579 2031.56,141.597 2047.65,141.62 2063.73,139.117 2079.81,135.736 2095.9,131.765 2111.98,129.005 2128.06,127.723 2144.14,128.123 2160.23,129.935 2176.31,132.829 2192.39,136.037 2208.47,139.423 2224.56,142.029 2240.64,143.418 2256.72,142.092 2272.81,139.217 2288.89,135.252 2304.97,131.512 2321.05,128.987 2337.14,128.605 2353.22,129.658 2369.3,132.237 2385.38,135.74 2401.47,139.623 2417.55,141.672 2433.63,141.693 2449.71,139.155 2465.8,135.723 2481.88,131.708 2497.96,128.924 2514.05,127.634 2530.13,128.037 2546.21,129.859 2562.29,132.763 2578.38,135.981 2594.46,139.381 2610.54,141.999 2626.62,143.403 2642.71,142.083 2658.79,139.209 2674.87,135.234 2690.95,131.483 2707.04,128.951 2723.12,128.571 2739.2,129.634 2755.29,132.235 2771.37,135.771 2787.45,139.699 2803.53,141.787 2819.62,141.834 2835.7,139.276 2851.78,135.795 2867.86,131.735 2883.95,128.922 2900.03,127.615 2916.11,128.011 2932.2,129.836 2948.28,132.748 2964.36,135.98 2980.44,139.389 2996.53,142.019 3012.61,143.431 3028.69,142.111 3044.77,139.232 3060.86,135.249 3076.94,131.488 3093.02,128.948 3109.1,128.57 3125.19,129.642 3141.27,132.261 3157.35,135.827 3173.44,139.793 3189.52,141.912 3205.6,141.975 3221.68,139.397 3237.77,135.878 3253.85,131.778 3269.93,128.941 3286.01,127.621 3302.1,128.015 3318.18,129.843 3334.26,132.761 3350.35,136 3366.43,139.423 3382.51,142.062 3398.59,143.484 3414.68,142.166 3430.76,139.287 3446.84,135.297 3462.92,131.527 3479.01,128.98 3495.09,128.604 3511.17,129.685 3527.25,132.324 3543.34,135.919 3559.42,139.923 3575.5,142.076 3591.59,142.156 3607.67,139.557 3623.75,135.992 3639.83,131.854 3655.92,128.99 3672,127.654 3688.08,128.042 3704.16,129.874 3720.25,132.803 3736.33,136.044 3752.41,139.477 3768.5,142.128 3784.58,143.56 3800.66,142.245 3816.74,139.364 3832.83,135.366 3848.91,131.585 3864.99,129.03 3881.07,128.656 3897.16,129.748 3913.24,132.406 3929.32,136.03 3945.4,140.076 3961.49,142.263 3977.57,142.364 3993.65,139.753 4009.74,136.151 4025.82,131.969 4041.9,129.077 4057.98,127.725 4074.07,128.106 4090.15,129.935 4106.23,132.866 4122.31,136.12 4138.4,139.563 4154.48,142.223 4170.56,143.665 4186.65,142.353 4202.73,139.469 4218.81,135.461 4234.89,131.668 4250.98,129.104 4267.06,128.73 4283.14,129.831 4299.22,132.509 4315.31,136.167 4331.39,140.259 4347.47,142.492 4363.55,142.618 4379.64,139.987 4395.72,136.34 4411.8,132.112 4427.89,129.188 4443.97,127.817 4460.05,128.191 4476.13,130.022 4492.22,132.959 4508.3,136.221 4524.38,139.676 4540.46,142.346 4556.55,143.796 4572.63,142.484 4588.71,139.595 4604.8,135.576 4620.88,131.773 4636.96,129.212 "/>
<path clip-path="url(#clip522)" d="M777.115 137.408 L793.198 136.164 L809.28 143.902 L825.363 157.611 L841.446 178.885 L857.528 198.849 L873.611 211.742 L889.694 217.587 L905.776 209.341 L921.859 191.985 L937.942 175.301 L954.024 161.207 L970.107 153.417 L986.19 155.846 L1002.27 161.406 L1018.36 174.189 L1034.44 186.322 L1050.52 201.206 L1066.6 214.554 L1082.69 218.86 L1098.77 214.619 L1114.85 202.602 L1130.93 191.666 L1147.02 181.623 L1163.1 174.54 L1179.18 176.377 L1195.26 184.329 L1211.35 198.147 L1227.43 218.425 L1243.51 242.253 L1259.6 254.295 L1275.68 253.307 L1291.76 239.263 L1307.84 220.736 L1323.93 199.231 L1340.01 182.285 L1356.09 172.966 L1372.17 172.995 L1388.26 178.541 L1404.34 187.201 L1420.42 200.203 L1436.51 215.915 L1452.59 224.044 L1468.67 229.144 L1484.75 224.134 L1500.84 213.042 L1516.92 201.172 L1533 192.457 L1549.08 184.144 L1565.17 186.082 L1581.25 194.391 L1597.33 208.598 L1613.41 229.186 L1629.5 250.322 L1645.58 264.95 L1661.66 262.566 L1677.75 246.22 L1693.83 228.434 L1709.91 205.479 L1725.99 187.153 L1742.08 176.404 L1758.16 176.456 L1774.24 181.071 L1790.32 190.941 L1806.41 203.376 L1822.49 218.115 L1838.57 227.798 L1854.66 231.868 L1870.74 227.135 L1886.82 216.577 L1902.9 203.864 L1918.99 194.799 L1935.07 186.676 L1951.15 188.059 L1967.23 197.217 L1983.32 210.696 L1999.4 231.572 L2015.48 253.002 L2031.56 267.502 L2047.65 264.971 L2063.73 249.195 L2079.81 230.764 L2095.9 207.182 L2111.98 189.46 L2128.06 177.213 L2144.14 176.932 L2160.23 181.627 L2176.31 191.845 L2192.39 204.158 L2208.47 218.465 L2224.56 228.89 L2240.64 232.961 L2256.72 227.638 L2272.81 217.723 L2288.89 204.788 L2304.97 195.728 L2321.05 188.206 L2337.14 189.757 L2353.22 198.684 L2369.3 211.743 L2385.38 232.653 L2401.47 254.214 L2417.55 268.55 L2433.63 265.705 L2449.71 249.952 L2465.8 231.681 L2481.88 208.361 L2497.96 189.887 L2514.05 177.294 L2530.13 177.175 L2546.21 182.247 L2562.29 192.074 L2578.38 203.913 L2594.46 218.983 L2610.54 229.058 L2626.62 233.254 L2642.71 227.797 L2658.79 217.939 L2674.87 205.049 L2690.95 196.068 L2707.04 189.458 L2723.12 190.977 L2739.2 199.557 L2755.29 211.621 L2771.37 232.805 L2787.45 256.854 L2803.53 269.274 L2819.62 266.893 L2835.7 251.219 L2851.78 232.158 L2867.86 209.674 L2883.95 190.22 L2900.03 177.525 L2916.11 177.356 L2932.2 182.727 L2948.28 192.282 L2964.36 203.37 L2980.44 219.24 L2996.53 229.045 L3012.61 233.553 L3028.69 227.608 L3044.77 218.031 L3060.86 205.43 L3076.94 196.165 L3093.02 190.23 L3109.1 191.326 L3125.19 200.064 L3141.27 211.478 L3157.35 233.258 L3173.44 257.334 L3189.52 270.402 L3205.6 267.648 L3221.68 251.772 L3237.77 232.677 L3253.85 210.726 L3269.93 190.307 L3286.01 178.258 L3302.1 177.488 L3318.18 182.912 L3334.26 193.014 L3350.35 203.543 L3366.43 219.35 L3382.51 228.971 L3398.59 234.047 L3414.68 227.679 L3430.76 217.834 L3446.84 205.744 L3462.92 196.319 L3479.01 190.079 L3495.09 191.082 L3511.17 200.151 L3527.25 211.617 L3543.34 233.377 L3559.42 256.444 L3575.5 271.408 L3591.59 268.314 L3607.67 252.2 L3623.75 232.766 L3639.83 210.951 L3655.92 190.164 L3672 178.81 L3688.08 177.671 L3704.16 183.12 L3720.25 193.487 L3736.33 203.695 L3752.41 219.149 L3768.5 228.675 L3784.58 234.174 L3800.66 227.434 L3816.74 218.143 L3832.83 205.822 L3848.91 196.508 L3864.99 189.917 L3881.07 191.045 L3897.16 199.763 L3913.24 211.491 L3929.32 234.396 L3945.4 256.682 L3961.49 272.246 L3977.57 268.955 L3993.65 252.67 L4009.74 233.062 L4025.82 210.327 L4041.9 191.191 L4057.98 179.581 L4074.07 177.908 L4090.15 183.683 L4106.23 193.832 L4122.31 204.36 L4138.4 218.426 L4154.48 228.343 L4170.56 234.393 L4186.65 227.449 L4202.73 218.47 L4218.81 206.032 L4234.89 196.864 L4250.98 189.545 L4267.06 190.898 L4283.14 199.017 L4299.22 211.599 L4315.31 235.219 L4331.39 256.771 L4347.47 273.312 L4363.55 269.606 L4379.64 253.419 L4395.72 233.387 L4411.8 209.935 L4427.89 192.418 L4443.97 179.999 L4460.05 178.032 L4476.13 183.677 L4492.22 193.996 L4508.3 204.985 L4524.38 218.139 L4540.46 227.853 L4556.55 234.044 L4572.63 227.992 L4588.71 218.62 L4604.8 206.154 L4620.88 196.782 L4636.96 189.536 L4636.96 93.437 L4620.88 97.1646 L4604.8 102.029 L4588.71 106.91 L4572.63 110.473 L4556.55 111.972 L4540.46 110.124 L4524.38 106.92 L4508.3 102.775 L4492.22 98.7898 L4476.13 95.0531 L4460.05 92.2631 L4443.97 90.6792 L4427.89 90.5931 L4411.8 92.1165 L4395.72 95.0475 L4379.64 97.4985 L4363.55 99.7593 L4347.47 99.9109 L4331.39 98.4446 L4315.31 95.3069 L4299.22 92.8507 L4283.14 91.4319 L4267.06 91.6605 L4250.98 93.2691 L4234.89 97.0239 L4218.81 101.967 L4202.73 106.936 L4186.65 110.516 L4170.56 111.992 L4154.48 110.081 L4138.4 106.787 L4122.31 102.687 L4106.23 98.7715 L4090.15 95.1672 L4074.07 92.4106 L4057.98 90.8655 L4041.9 90.8666 L4025.82 92.1489 L4009.74 95.0776 L3993.65 97.505 L3977.57 99.7501 L3961.49 100.057 L3945.4 98.7407 L3929.32 95.6051 L3913.24 92.9586 L3897.16 91.4631 L3881.07 91.6511 L3864.99 93.2327 L3848.91 97.007 L3832.83 101.95 L3816.74 106.915 L3800.66 110.46 L3784.58 111.989 L3768.5 110.085 L3752.41 106.85 L3736.33 102.764 L3720.25 98.9519 L3704.16 95.3804 L3688.08 92.675 L3672 91.1118 L3655.92 91.0424 L3639.83 92.3832 L3623.75 95.1602 L3607.67 97.5261 L3591.59 99.8929 L3575.5 100.221 L3559.42 98.7724 L3543.34 95.6191 L3527.25 93.1775 L3511.17 91.7508 L3495.09 91.8928 L3479.01 93.4266 L3462.92 97.1759 L3446.84 102.1 L3430.76 107.069 L3414.68 110.592 L3398.59 112.048 L3382.51 110.143 L3366.43 106.903 L3350.35 102.824 L3334.26 98.9765 L3318.18 95.3897 L3302.1 92.6904 L3286.01 91.2272 L3269.93 91.3391 L3253.85 92.6933 L3237.77 95.4684 L3221.68 97.6557 L3205.6 99.8919 L3189.52 100.304 L3173.44 99.0893 L3157.35 96.0001 L3141.27 93.5679 L3125.19 92.1436 L3109.1 92.3241 L3093.02 93.8713 L3076.94 97.5755 L3060.86 102.299 L3044.77 107.209 L3028.69 110.625 L3012.61 112.09 L2996.53 110.52 L2980.44 107.445 L2964.36 103.437 L2948.28 99.646 L2932.2 96.1838 L2916.11 93.5659 L2900.03 92.0326 L2883.95 91.9712 L2867.86 93.4561 L2851.78 96.0476 L2835.7 98.1388 L2819.62 100.2 L2803.53 100.501 L2787.45 99.3132 L2771.37 96.4936 L2755.29 94.1388 L2739.2 92.6591 L2723.12 92.832 L2707.04 94.3891 L2690.95 98.095 L2674.87 102.948 L2658.79 107.913 L2642.71 111.308 L2626.62 112.922 L2610.54 111.309 L2594.46 108.215 L2578.38 104.261 L2562.29 100.564 L2546.21 97.0453 L2530.13 94.462 L2514.05 93.0373 L2497.96 93.033 L2481.88 94.4025 L2465.8 97.0898 L2449.71 99.2319 L2433.63 101.279 L2417.55 101.465 L2401.47 100.256 L2385.38 97.3727 L2369.3 95.0364 L2353.22 93.5475 L2337.14 93.6717 L2321.05 95.2779 L2304.97 99.0376 L2288.89 103.951 L2272.81 108.867 L2256.72 112.366 L2240.64 114.023 L2224.56 112.355 L2208.47 109.238 L2192.39 105.209 L2176.31 101.471 L2160.23 97.9269 L2144.14 95.383 L2128.06 94.056 L2111.98 94.264 L2095.9 95.8192 L2079.81 98.4418 L2063.73 100.412 L2047.65 102.413 L2031.56 102.671 L2015.48 101.389 L1999.4 98.5184 L1983.32 96.2626 L1967.23 94.943 L1951.15 95.1492 L1935.07 96.7939 L1918.99 100.452 L1902.9 105.337 L1886.82 110.251 L1870.74 113.782 L1854.66 115.417 L1838.57 113.735 L1822.49 110.633 L1806.41 106.803 L1790.32 103.249 L1774.24 99.8021 L1758.16 97.3844 L1742.08 96.153 L1725.99 96.3201 L1709.91 97.7619 L1693.83 100.276 L1677.75 102.29 L1661.66 104.385 L1645.58 104.725 L1629.5 103.714 L1613.41 100.97 L1597.33 98.6388 L1581.25 97.4382 L1565.17 97.6549 L1549.08 99.2467 L1533 102.899 L1516.92 107.832 L1500.84 112.786 L1484.75 116.481 L1468.67 118.243 L1452.59 116.624 L1436.51 113.712 L1420.42 110.09 L1404.34 106.68 L1388.26 103.436 L1372.17 101.172 L1356.09 100.183 L1340.01 100.636 L1323.93 102.298 L1307.84 104.973 L1291.76 106.976 L1275.68 109.063 L1259.6 109.524 L1243.51 108.534 L1227.43 105.997 L1211.35 103.897 L1195.26 102.638 L1179.18 102.944 L1163.1 104.585 L1147.02 108.337 L1130.93 113.348 L1114.85 118.447 L1098.77 122.162 L1082.69 124.405 L1066.6 123.333 L1050.52 120.783 L1034.44 117.491 L1018.36 114.298 L1002.27 111.434 L986.19 109.421 L970.107 108.966 L954.024 110.269 L937.942 113.017 L921.859 116.817 L905.776 119.494 L889.694 122.158 L873.611 123.314 L857.528 123.193 L841.446 121.572 L825.363 120.655 L809.28 120.916 L793.198 123.414 L777.115 127.095  Z" fill="#757575" fill-rule="evenodd" fill-opacity="0.5"/>
<polyline clip-path="url(#clip522)" style="stroke:#757575; stroke-linecap:round; stroke-linejoin:round; stroke-width:0; stroke-opacity:1; fill:none" points="777.115,131.909 793.198,130.027 809.28,130.037 825.363,131.834 841.446,134.7 857.528,138.025 873.611,139.689 889.694,139.593 905.776,137.356 921.859,134.468 937.942,130.964 954.024,128.513 970.107,127.413 986.19,127.912 1002.27,129.782 1018.36,132.716 1034.44,135.967 1050.52,139.383 1066.6,142.007 1082.69,143.383 1098.77,142.066 1114.85,139.221 1130.93,135.305 1147.02,131.618 1163.1,129.125 1179.18,128.721 1195.26,129.71 1211.35,132.179 1227.43,135.532 1243.51,139.233 1259.6,141.15 1275.68,141.144 1291.76,138.759 1307.84,135.578 1323.93,131.794 1340.01,129.15 1356.09,127.927 1372.17,128.343 1388.26,130.152 1404.34,133.033 1420.42,136.225 1436.51,139.588 1452.59,142.173 1468.67,143.538 1484.75,142.205 1500.84,139.338 1516.92,135.396 1533,131.685 1549.08,129.18 1565.17,128.786 1581.25,129.807 1597.33,132.326 1613.41,135.748 1629.5,139.526 1645.58,141.494 1661.66,141.494 1677.75,139.014 1693.83,135.699 1709.91,131.799 1725.99,129.084 1742.08,127.826 1758.16,128.234 1774.24,130.044 1790.32,132.929 1806.41,136.126 1822.49,139.499 1838.57,142.093 1854.66,143.472 1870.74,142.142 1886.82,139.27 1902.9,135.315 1918.99,131.588 1935.07,129.072 1951.15,128.683 1967.23,129.721 1983.32,132.273 1999.4,135.741 2015.48,139.579 2031.56,141.597 2047.65,141.62 2063.73,139.117 2079.81,135.736 2095.9,131.765 2111.98,129.005 2128.06,127.723 2144.14,128.123 2160.23,129.935 2176.31,132.829 2192.39,136.037 2208.47,139.423 2224.56,142.029 2240.64,143.418 2256.72,142.092 2272.81,139.217 2288.89,135.252 2304.97,131.512 2321.05,128.987 2337.14,128.605 2353.22,129.658 2369.3,132.237 2385.38,135.74 2401.47,139.623 2417.55,141.672 2433.63,141.693 2449.71,139.155 2465.8,135.723 2481.88,131.708 2497.96,128.924 2514.05,127.634 2530.13,128.037 2546.21,129.859 2562.29,132.763 2578.38,135.981 2594.46,139.381 2610.54,141.999 2626.62,143.403 2642.71,142.083 2658.79,139.209 2674.87,135.234 2690.95,131.483 2707.04,128.951 2723.12,128.571 2739.2,129.634 2755.29,132.235 2771.37,135.771 2787.45,139.699 2803.53,141.787 2819.62,141.834 2835.7,139.276 2851.78,135.795 2867.86,131.735 2883.95,128.922 2900.03,127.615 2916.11,128.011 2932.2,129.836 2948.28,132.748 2964.36,135.98 2980.44,139.389 2996.53,142.019 3012.61,143.431 3028.69,142.111 3044.77,139.232 3060.86,135.249 3076.94,131.488 3093.02,128.948 3109.1,128.57 3125.19,129.642 3141.27,132.261 3157.35,135.827 3173.44,139.793 3189.52,141.912 3205.6,141.975 3221.68,139.397 3237.77,135.878 3253.85,131.778 3269.93,128.941 3286.01,127.621 3302.1,128.015 3318.18,129.843 3334.26,132.761 3350.35,136 3366.43,139.423 3382.51,142.062 3398.59,143.484 3414.68,142.166 3430.76,139.287 3446.84,135.297 3462.92,131.527 3479.01,128.98 3495.09,128.604 3511.17,129.685 3527.25,132.324 3543.34,135.919 3559.42,139.923 3575.5,142.076 3591.59,142.156 3607.67,139.557 3623.75,135.992 3639.83,131.854 3655.92,128.99 3672,127.654 3688.08,128.042 3704.16,129.874 3720.25,132.803 3736.33,136.044 3752.41,139.477 3768.5,142.128 3784.58,143.56 3800.66,142.245 3816.74,139.364 3832.83,135.366 3848.91,131.585 3864.99,129.03 3881.07,128.656 3897.16,129.748 3913.24,132.406 3929.32,136.03 3945.4,140.076 3961.49,142.263 3977.57,142.364 3993.65,139.753 4009.74,136.151 4025.82,131.969 4041.9,129.077 4057.98,127.725 4074.07,128.106 4090.15,129.935 4106.23,132.866 4122.31,136.12 4138.4,139.563 4154.48,142.223 4170.56,143.665 4186.65,142.353 4202.73,139.469 4218.81,135.461 4234.89,131.668 4250.98,129.104 4267.06,128.73 4283.14,129.831 4299.22,132.509 4315.31,136.167 4331.39,140.259 4347.47,142.492 4363.55,142.618 4379.64,139.987 4395.72,136.34 4411.8,132.112 4427.89,129.188 4443.97,127.817 4460.05,128.191 4476.13,130.022 4492.22,132.959 4508.3,136.221 4524.38,139.676 4540.46,142.346 4556.55,143.796 4572.63,142.484 4588.71,139.595 4604.8,135.576 4620.88,131.773 4636.96,129.212 "/>
<path clip-path="url(#clip522)" d="M777.115 134.188 L793.198 131.149 L809.28 134.88 L825.363 144.999 L841.446 160.062 L857.528 174.295 L873.611 182.172 L889.694 184.577 L905.776 176.821 L921.859 165.625 L937.942 152.834 L954.024 143.017 L970.107 140.878 L986.19 141.86 L1002.27 147.924 L1018.36 156.611 L1034.44 166.483 L1050.52 178.91 L1066.6 187.329 L1082.69 192.026 L1098.77 189.295 L1114.85 181.678 L1130.93 168.889 L1147.02 157.823 L1163.1 151.33 L1179.18 151.233 L1195.26 156.477 L1211.35 167.92 L1227.43 182.997 L1243.51 200.962 L1259.6 209.647 L1275.68 208.645 L1291.76 199.047 L1307.84 184.717 L1323.93 168.059 L1340.01 159.08 L1356.09 152.452 L1372.17 152.368 L1388.26 158.079 L1404.34 165.52 L1420.42 174.736 L1436.51 186.82 L1452.59 194.667 L1468.67 199.621 L1484.75 196.584 L1500.84 186.847 L1516.92 174.255 L1533 162.467 L1549.08 155.963 L1565.17 156.806 L1581.25 161.012 L1597.33 172.738 L1613.41 187.386 L1629.5 205.745 L1645.58 215.323 L1661.66 214.853 L1677.75 204.59 L1693.83 188.974 L1709.91 170.998 L1725.99 161.287 L1742.08 154.623 L1758.16 154.352 L1774.24 158.814 L1790.32 167.552 L1806.41 176.662 L1822.49 188.385 L1838.57 196.594 L1854.66 201.508 L1870.74 197.735 L1886.82 188.07 L1902.9 174.804 L1918.99 163.331 L1935.07 157.23 L1951.15 157.829 L1967.23 161.986 L1983.32 173.425 L1999.4 189.215 L2015.48 206.284 L2031.56 216.645 L2047.65 216.766 L2063.73 205.519 L2079.81 189.995 L2095.9 171.986 L2111.98 161.971 L2128.06 155.036 L2144.14 154.536 L2160.23 159.079 L2176.31 167.969 L2192.39 177.413 L2208.47 188.705 L2224.56 196.849 L2240.64 201.838 L2256.72 198.209 L2272.81 188.481 L2288.89 174.87 L2304.97 163.521 L2321.05 157.739 L2337.14 157.734 L2353.22 162.152 L2369.3 173.425 L2385.38 189.057 L2401.47 206.776 L2417.55 216.906 L2433.63 217.305 L2449.71 205.265 L2465.8 189.838 L2481.88 171.824 L2497.96 162.21 L2514.05 155.375 L2530.13 154.509 L2546.21 159.432 L2562.29 168.427 L2578.38 177.268 L2594.46 188.561 L2610.54 197.013 L2626.62 202.278 L2642.71 198.367 L2658.79 188.52 L2674.87 174.472 L2690.95 163.602 L2707.04 157.886 L2723.12 157.826 L2739.2 162.304 L2755.29 173.207 L2771.37 188.641 L2787.45 206.786 L2803.53 216.973 L2819.62 216.939 L2835.7 205.008 L2851.78 190.232 L2867.86 171.86 L2883.95 162.49 L2900.03 155.331 L2916.11 154.623 L2932.2 159.103 L2948.28 168.914 L2964.36 177.276 L2980.44 188.741 L2996.53 196.956 L3012.61 202.178 L3028.69 198.426 L3044.77 188.501 L3060.86 174.701 L3076.94 163.657 L3093.02 157.254 L3109.1 157.599 L3125.19 162.164 L3141.27 173.412 L3157.35 188.585 L3173.44 206.672 L3189.52 216.907 L3205.6 216.944 L3221.68 204.993 L3237.77 190.584 L3253.85 171.689 L3269.93 162.199 L3286.01 155.083 L3302.1 154.694 L3318.18 159.037 L3334.26 169.19 L3350.35 177.406 L3366.43 188.678 L3382.51 197.138 L3398.59 201.971 L3414.68 198.626 L3430.76 188.579 L3446.84 174.95 L3462.92 163.836 L3479.01 157.222 L3495.09 157.618 L3511.17 162.096 L3527.25 173.798 L3543.34 188.496 L3559.42 206.724 L3575.5 216.901 L3591.59 216.973 L3607.67 205.022 L3623.75 190.304 L3639.83 171.826 L3655.92 161.948 L3672 154.638 L3688.08 154.914 L3704.16 158.834 L3720.25 168.943 L3736.33 178.002 L3752.41 188.232 L3768.5 197.274 L3784.58 201.91 L3800.66 198.812 L3816.74 188.837 L3832.83 175.035 L3848.91 163.885 L3864.99 157.075 L3881.07 157.554 L3897.16 162.594 L3913.24 174.211 L3929.32 188.282 L3945.4 207.107 L3961.49 217.235 L3977.57 217.225 L3993.65 205.713 L4009.74 190.904 L4025.82 171.647 L4041.9 161.404 L4057.98 154.51 L4074.07 155.089 L4090.15 159.038 L4106.23 169.147 L4122.31 178.232 L4138.4 188.415 L4154.48 197.238 L4170.56 201.725 L4186.65 198.957 L4202.73 188.884 L4218.81 175.283 L4234.89 163.896 L4250.98 156.882 L4267.06 157.404 L4283.14 162.566 L4299.22 174.572 L4315.31 188.526 L4331.39 207.123 L4347.47 217.346 L4363.55 216.995 L4379.64 205.314 L4395.72 190.809 L4411.8 172.055 L4427.89 161.585 L4443.97 154.615 L4460.05 155.262 L4476.13 159.447 L4492.22 169.366 L4508.3 178.369 L4524.38 188.564 L4540.46 197.214 L4556.55 201.713 L4572.63 199.04 L4588.71 189.056 L4604.8 175.338 L4620.88 163.88 L4636.96 157.021 L4636.96 98.1539 L4620.88 102.298 L4604.8 107.365 L4588.71 112.498 L4572.63 116.05 L4556.55 117.398 L4540.46 115.645 L4524.38 112.556 L4508.3 108.322 L4492.22 104.314 L4476.13 100.63 L4460.05 97.9205 L4443.97 96.4348 L4427.89 96.4314 L4411.8 97.8535 L4395.72 100.603 L4379.64 102.741 L4363.55 104.794 L4347.47 105.068 L4331.39 103.725 L4315.31 100.591 L4299.22 98.2954 L4283.14 96.7725 L4267.06 96.577 L4250.98 98.1554 L4234.89 102.268 L4218.81 107.405 L4202.73 112.462 L4186.65 115.971 L4170.56 117.239 L4154.48 115.686 L4138.4 112.471 L4122.31 108.233 L4106.23 104.324 L4090.15 100.731 L4074.07 97.9907 L4057.98 96.4925 L4041.9 96.4349 L4025.82 97.9083 L4009.74 100.479 L3993.65 102.74 L3977.57 104.739 L3961.49 105.023 L3945.4 103.803 L3929.32 100.574 L3913.24 98.1966 L3897.16 96.7533 L3881.07 96.7828 L3864.99 98.3373 L3848.91 102.214 L3832.83 107.356 L3816.74 112.416 L3800.66 116.059 L3784.58 117.392 L3768.5 115.656 L3752.41 112.516 L3736.33 108.407 L3720.25 104.416 L3704.16 100.698 L3688.08 97.9978 L3672 96.5155 L3655.92 96.5726 L3639.83 97.7718 L3623.75 100.463 L3607.67 102.548 L3591.59 104.807 L3575.5 104.987 L3559.42 103.842 L3543.34 100.762 L3527.25 98.3316 L3511.17 96.9361 L3495.09 96.9207 L3479.01 98.5109 L3462.92 102.488 L3446.84 107.439 L3430.76 112.592 L3414.68 116.105 L3398.59 117.528 L3382.51 115.812 L3366.43 112.587 L3350.35 108.631 L3334.26 104.689 L3318.18 101.203 L3302.1 98.4027 L3286.01 96.8714 L3269.93 96.7802 L3253.85 98.0016 L3237.77 100.598 L3221.68 102.666 L3205.6 104.776 L3189.52 105.048 L3173.44 103.916 L3157.35 101.005 L3141.27 98.6276 L3125.19 97.1544 L3109.1 96.9205 L3093.02 98.5172 L3076.94 102.558 L3060.86 107.776 L3044.77 112.842 L3028.69 116.404 L3012.61 118.024 L2996.53 116.332 L2980.44 113.088 L2964.36 109.052 L2948.28 105.349 L2932.2 101.801 L2916.11 99.1097 L2900.03 97.4743 L2883.95 97.4646 L2867.86 98.7558 L2851.78 101.356 L2835.7 103.329 L2819.62 105.335 L2803.53 105.491 L2787.45 104.251 L2771.37 101.284 L2755.29 98.9857 L2739.2 97.4624 L2723.12 97.3161 L2707.04 98.9523 L2690.95 103.055 L2674.87 108.133 L2658.79 113.312 L2642.71 116.704 L2626.62 118.454 L2610.54 116.845 L2594.46 113.545 L2578.38 109.43 L2562.29 105.758 L2546.21 102.186 L2530.13 99.6059 L2514.05 98.3979 L2497.96 98.2486 L2481.88 99.4234 L2465.8 101.776 L2449.71 103.788 L2433.63 105.895 L2417.55 106.099 L2401.47 104.743 L2385.38 101.891 L2369.3 99.5331 L2353.22 97.9511 L2337.14 97.9829 L2321.05 99.6581 L2304.97 103.426 L2288.89 108.497 L2272.81 113.837 L2256.72 117.459 L2240.64 119.186 L2224.56 117.53 L2208.47 114.328 L2192.39 110.134 L2176.31 106.282 L2160.23 102.731 L2144.14 100.21 L2128.06 98.9861 L2111.98 99.1567 L2095.9 100.446 L2079.81 102.954 L2063.73 104.75 L2047.65 106.628 L2031.56 106.951 L2015.48 105.892 L1999.4 103.002 L1983.32 100.416 L1967.23 99.0215 L1951.15 99.0183 L1935.07 100.633 L1918.99 104.543 L1902.9 109.838 L1886.82 114.899 L1870.74 118.579 L1854.66 120.168 L1838.57 118.49 L1822.49 115.178 L1806.41 111.184 L1790.32 107.446 L1774.24 103.768 L1758.16 101.41 L1742.08 100.09 L1725.99 100.171 L1709.91 101.519 L1693.83 104.034 L1677.75 105.725 L1661.66 107.761 L1645.58 108.193 L1629.5 107.101 L1613.41 104.469 L1597.33 102.229 L1581.25 100.981 L1565.17 101.134 L1549.08 102.686 L1533 106.592 L1516.92 111.606 L1500.84 116.798 L1484.75 120.471 L1468.67 122.227 L1452.59 120.335 L1436.51 117.214 L1420.42 113.213 L1404.34 109.453 L1388.26 106.141 L1372.17 103.657 L1356.09 102.618 L1340.01 103.091 L1323.93 104.743 L1307.84 107.465 L1291.76 109.439 L1275.68 111.439 L1259.6 111.856 L1243.51 110.927 L1227.43 108.221 L1211.35 106.02 L1195.26 104.679 L1179.18 104.913 L1163.1 106.587 L1147.02 110.589 L1130.93 115.598 L1114.85 120.871 L1098.77 124.648 L1082.69 126.451 L1066.6 125.209 L1050.52 122.447 L1034.44 118.999 L1018.36 115.598 L1002.27 112.579 L986.19 110.582 L970.107 110.035 L954.024 111.319 L937.942 114.07 L921.859 117.647 L905.776 120.332 L889.694 123.121 L873.611 124.237 L857.528 124.125 L841.446 122.442 L825.363 121.36 L809.28 121.539 L793.198 123.826 L777.115 127.81  Z" fill="#414141" fill-rule="evenodd" fill-opacity="0.5"/>
<polyline clip-path="url(#clip522)" style="stroke:#414141; stroke-linecap:round; stroke-linejoin:round; stroke-width:0; stroke-opacity:1; fill:none" points="777.115,131.909 793.198,130.027 809.28,130.037 825.363,131.834 841.446,134.7 857.528,138.025 873.611,139.689 889.694,139.593 905.776,137.356 921.859,134.468 937.942,130.964 954.024,128.513 970.107,127.413 986.19,127.912 1002.27,129.782 1018.36,132.716 1034.44,135.967 1050.52,139.383 1066.6,142.007 1082.69,143.383 1098.77,142.066 1114.85,139.221 1130.93,135.305 1147.02,131.618 1163.1,129.125 1179.18,128.721 1195.26,129.71 1211.35,132.179 1227.43,135.532 1243.51,139.233 1259.6,141.15 1275.68,141.144 1291.76,138.759 1307.84,135.578 1323.93,131.794 1340.01,129.15 1356.09,127.927 1372.17,128.343 1388.26,130.152 1404.34,133.033 1420.42,136.225 1436.51,139.588 1452.59,142.173 1468.67,143.538 1484.75,142.205 1500.84,139.338 1516.92,135.396 1533,131.685 1549.08,129.18 1565.17,128.786 1581.25,129.807 1597.33,132.326 1613.41,135.748 1629.5,139.526 1645.58,141.494 1661.66,141.494 1677.75,139.014 1693.83,135.699 1709.91,131.799 1725.99,129.084 1742.08,127.826 1758.16,128.234 1774.24,130.044 1790.32,132.929 1806.41,136.126 1822.49,139.499 1838.57,142.093 1854.66,143.472 1870.74,142.142 1886.82,139.27 1902.9,135.315 1918.99,131.588 1935.07,129.072 1951.15,128.683 1967.23,129.721 1983.32,132.273 1999.4,135.741 2015.48,139.579 2031.56,141.597 2047.65,141.62 2063.73,139.117 2079.81,135.736 2095.9,131.765 2111.98,129.005 2128.06,127.723 2144.14,128.123 2160.23,129.935 2176.31,132.829 2192.39,136.037 2208.47,139.423 2224.56,142.029 2240.64,143.418 2256.72,142.092 2272.81,139.217 2288.89,135.252 2304.97,131.512 2321.05,128.987 2337.14,128.605 2353.22,129.658 2369.3,132.237 2385.38,135.74 2401.47,139.623 2417.55,141.672 2433.63,141.693 2449.71,139.155 2465.8,135.723 2481.88,131.708 2497.96,128.924 2514.05,127.634 2530.13,128.037 2546.21,129.859 2562.29,132.763 2578.38,135.981 2594.46,139.381 2610.54,141.999 2626.62,143.403 2642.71,142.083 2658.79,139.209 2674.87,135.234 2690.95,131.483 2707.04,128.951 2723.12,128.571 2739.2,129.634 2755.29,132.235 2771.37,135.771 2787.45,139.699 2803.53,141.787 2819.62,141.834 2835.7,139.276 2851.78,135.795 2867.86,131.735 2883.95,128.922 2900.03,127.615 2916.11,128.011 2932.2,129.836 2948.28,132.748 2964.36,135.98 2980.44,139.389 2996.53,142.019 3012.61,143.431 3028.69,142.111 3044.77,139.232 3060.86,135.249 3076.94,131.488 3093.02,128.948 3109.1,128.57 3125.19,129.642 3141.27,132.261 3157.35,135.827 3173.44,139.793 3189.52,141.912 3205.6,141.975 3221.68,139.397 3237.77,135.878 3253.85,131.778 3269.93,128.941 3286.01,127.621 3302.1,128.015 3318.18,129.843 3334.26,132.761 3350.35,136 3366.43,139.423 3382.51,142.062 3398.59,143.484 3414.68,142.166 3430.76,139.287 3446.84,135.297 3462.92,131.527 3479.01,128.98 3495.09,128.604 3511.17,129.685 3527.25,132.324 3543.34,135.919 3559.42,139.923 3575.5,142.076 3591.59,142.156 3607.67,139.557 3623.75,135.992 3639.83,131.854 3655.92,128.99 3672,127.654 3688.08,128.042 3704.16,129.874 3720.25,132.803 3736.33,136.044 3752.41,139.477 3768.5,142.128 3784.58,143.56 3800.66,142.245 3816.74,139.364 3832.83,135.366 3848.91,131.585 3864.99,129.03 3881.07,128.656 3897.16,129.748 3913.24,132.406 3929.32,136.03 3945.4,140.076 3961.49,142.263 3977.57,142.364 3993.65,139.753 4009.74,136.151 4025.82,131.969 4041.9,129.077 4057.98,127.725 4074.07,128.106 4090.15,129.935 4106.23,132.866 4122.31,136.12 4138.4,139.563 4154.48,142.223 4170.56,143.665 4186.65,142.353 4202.73,139.469 4218.81,135.461 4234.89,131.668 4250.98,129.104 4267.06,128.73 4283.14,129.831 4299.22,132.509 4315.31,136.167 4331.39,140.259 4347.47,142.492 4363.55,142.618 4379.64,139.987 4395.72,136.34 4411.8,132.112 4427.89,129.188 4443.97,127.817 4460.05,128.191 4476.13,130.022 4492.22,132.959 4508.3,136.221 4524.38,139.676 4540.46,142.346 4556.55,143.796 4572.63,142.484 4588.71,139.595 4604.8,135.576 4620.88,131.773 4636.96,129.212 "/>
<path clip-path="url(#clip520)" d="M3887.96 853.161 L4616.37 853.161 L4616.37 334.761 L3887.96 334.761  Z" fill="#ffffff" fill-rule="evenodd" fill-opacity="1"/>
<polyline clip-path="url(#clip520)" style="stroke:#000000; stroke-linecap:round; stroke-linejoin:round; stroke-width:4; stroke-opacity:1; fill:none" points="3887.96,853.161 4616.37,853.161 4616.37,334.761 3887.96,334.761 3887.96,853.161 "/>
<polyline clip-path="url(#clip520)" style="stroke:#aeaeae; stroke-linecap:round; stroke-linejoin:round; stroke-width:2; stroke-opacity:1; fill:none" points="3933.42,464.361 4206.18,464.361 "/>
<path clip-path="url(#clip520)" d="M4253.32 497.723 L4272.42 497.723 L4272.42 431.809 L4251.65 435.976 L4251.65 425.328 L4272.3 421.161 L4283.99 421.161 L4283.99 497.723 L4303.09 497.723 L4303.09 507.561 L4253.32 507.561 L4253.32 497.723 Z" fill="#000000" fill-rule="nonzero" fill-opacity="1" /><path clip-path="url(#clip520)" d="M4351.7 428.858 Q4342.67 428.858 4338.1 437.77 Q4333.59 446.624 4333.59 464.448 Q4333.59 482.214 4338.1 491.126 Q4342.67 499.98 4351.7 499.98 Q4360.79 499.98 4365.3 491.126 Q4369.87 482.214 4369.87 464.448 Q4369.87 446.624 4365.3 437.77 Q4360.79 428.858 4351.7 428.858 M4351.7 419.599 Q4366.23 419.599 4373.87 431.115 Q4381.56 442.573 4381.56 464.448 Q4381.56 486.265 4373.87 497.781 Q4366.23 509.239 4351.7 509.239 Q4337.18 509.239 4329.48 497.781 Q4321.84 486.265 4321.84 464.448 Q4321.84 442.573 4329.48 431.115 Q4337.18 419.599 4351.7 419.599 Z" fill="#000000" fill-rule="nonzero" fill-opacity="1" /><path clip-path="url(#clip520)" d="M4427.11 428.858 Q4418.08 428.858 4413.51 437.77 Q4408.99 446.624 4408.99 464.448 Q4408.99 482.214 4413.51 491.126 Q4418.08 499.98 4427.11 499.98 Q4436.19 499.98 4440.71 491.126 Q4445.28 482.214 4445.28 464.448 Q4445.28 446.624 4440.71 437.77 Q4436.19 428.858 4427.11 428.858 M4427.11 419.599 Q4441.63 419.599 4449.27 431.115 Q4456.97 442.573 4456.97 464.448 Q4456.97 486.265 4449.27 497.781 Q4441.63 509.239 4427.11 509.239 Q4412.58 509.239 4404.89 497.781 Q4397.25 486.265 4397.25 464.448 Q4397.25 442.573 4404.89 431.115 Q4412.58 419.599 4427.11 419.599 Z" fill="#000000" fill-rule="nonzero" fill-opacity="1" /><path clip-path="url(#clip520)" d="M4551.01 469.541 Q4545.97 469.541 4543.08 473.823 Q4540.24 478.105 4540.24 485.744 Q4540.24 493.267 4543.08 497.608 Q4545.97 501.89 4551.01 501.89 Q4555.93 501.89 4558.76 497.608 Q4561.66 493.267 4561.66 485.744 Q4561.66 478.163 4558.76 473.881 Q4555.93 469.541 4551.01 469.541 M4551.01 462.191 Q4560.15 462.191 4565.53 468.557 Q4570.91 474.923 4570.91 485.744 Q4570.91 496.566 4565.47 502.932 Q4560.09 509.239 4551.01 509.239 Q4541.75 509.239 4536.37 502.932 Q4530.98 496.566 4530.98 485.744 Q4530.98 474.865 4536.37 468.557 Q4541.81 462.191 4551.01 462.191 M4491.29 426.948 Q4486.31 426.948 4483.41 431.289 Q4480.58 435.571 4480.58 443.094 Q4480.58 450.733 4483.41 455.015 Q4486.25 459.298 4491.29 459.298 Q4496.32 459.298 4499.16 455.015 Q4502.05 450.733 4502.05 443.094 Q4502.05 435.629 4499.16 431.289 Q4496.26 426.948 4491.29 426.948 M4543.54 419.599 L4552.8 419.599 L4498.75 509.239 L4489.49 509.239 L4543.54 419.599 M4491.29 419.599 Q4500.43 419.599 4505.87 425.964 Q4511.31 432.272 4511.31 443.094 Q4511.31 454.031 4505.87 460.339 Q4500.49 466.647 4491.29 466.647 Q4482.08 466.647 4476.7 460.339 Q4471.38 453.974 4471.38 443.094 Q4471.38 432.33 4476.76 425.964 Q4482.14 419.599 4491.29 419.599 Z" fill="#000000" fill-rule="nonzero" fill-opacity="1" /><polyline clip-path="url(#clip520)" style="stroke:#757575; stroke-linecap:round; stroke-linejoin:round; stroke-width:2; stroke-opacity:1; fill:none" points="3933.42,593.961 4206.18,593.961 "/>
<path clip-path="url(#clip520)" d="M4257.2 635.367 L4257.2 624.719 Q4261.6 626.803 4266.11 627.902 Q4270.63 629.002 4274.97 629.002 Q4286.54 629.002 4292.62 621.247 Q4298.75 613.435 4299.62 597.578 Q4296.26 602.555 4291.11 605.217 Q4285.96 607.879 4279.71 607.879 Q4266.75 607.879 4259.17 600.067 Q4251.65 592.196 4251.65 578.597 Q4251.65 565.287 4259.52 557.243 Q4267.39 549.199 4280.46 549.199 Q4295.45 549.199 4303.32 560.715 Q4311.25 572.173 4311.25 594.048 Q4311.25 614.476 4301.53 626.687 Q4291.86 638.839 4275.49 638.839 Q4271.09 638.839 4266.58 637.971 Q4262.06 637.103 4257.2 635.367 M4280.46 598.736 Q4288.33 598.736 4292.91 593.354 Q4297.54 587.972 4297.54 578.597 Q4297.54 569.28 4292.91 563.898 Q4288.33 558.458 4280.46 558.458 Q4272.59 558.458 4267.96 563.898 Q4263.39 569.28 4263.39 578.597 Q4263.39 587.972 4267.96 593.354 Q4272.59 598.736 4280.46 598.736 Z" fill="#000000" fill-rule="nonzero" fill-opacity="1" /><path clip-path="url(#clip520)" d="M4357.26 558.458 Q4348.23 558.458 4343.66 567.37 Q4339.14 576.224 4339.14 594.048 Q4339.14 611.814 4343.66 620.726 Q4348.23 629.58 4357.26 629.58 Q4366.34 629.58 4370.86 620.726 Q4375.43 611.814 4375.43 594.048 Q4375.43 576.224 4370.86 567.37 Q4366.34 558.458 4357.26 558.458 M4357.26 549.199 Q4371.78 549.199 4379.42 560.715 Q4387.12 572.173 4387.12 594.048 Q4387.12 615.865 4379.42 627.381 Q4371.78 638.839 4357.26 638.839 Q4342.73 638.839 4335.04 627.381 Q4327.4 615.865 4327.4 594.048 Q4327.4 572.173 4335.04 560.715 Q4342.73 549.199 4357.26 549.199 Z" fill="#000000" fill-rule="nonzero" fill-opacity="1" /><path clip-path="url(#clip520)" d="M4481.16 599.141 Q4476.12 599.141 4473.23 603.423 Q4470.39 607.705 4470.39 615.344 Q4470.39 622.867 4473.23 627.208 Q4476.12 631.49 4481.16 631.49 Q4486.08 631.49 4488.91 627.208 Q4491.81 622.867 4491.81 615.344 Q4491.81 607.763 4488.91 603.481 Q4486.08 599.141 4481.16 599.141 M4481.16 591.791 Q4490.3 591.791 4495.68 598.157 Q4501.07 604.523 4501.07 615.344 Q4501.07 626.166 4495.63 632.532 Q4490.24 638.839 4481.16 638.839 Q4471.9 638.839 4466.52 632.532 Q4461.13 626.166 4461.13 615.344 Q4461.13 604.465 4466.52 598.157 Q4471.96 591.791 4481.16 591.791 M4421.44 556.548 Q4416.46 556.548 4413.57 560.889 Q4410.73 565.171 4410.73 572.694 Q4410.73 580.333 4413.57 584.615 Q4416.4 588.898 4421.44 588.898 Q4426.47 588.898 4429.31 584.615 Q4432.2 580.333 4432.2 572.694 Q4432.2 565.229 4429.31 560.889 Q4426.41 556.548 4421.44 556.548 M4473.69 549.199 L4482.95 549.199 L4428.9 638.839 L4419.64 638.839 L4473.69 549.199 M4421.44 549.199 Q4430.58 549.199 4436.02 555.564 Q4441.46 561.872 4441.46 572.694 Q4441.46 583.631 4436.02 589.939 Q4430.64 596.247 4421.44 596.247 Q4412.23 596.247 4406.85 589.939 Q4401.53 583.574 4401.53 572.694 Q4401.53 561.93 4406.91 555.564 Q4412.29 549.199 4421.44 549.199 Z" fill="#000000" fill-rule="nonzero" fill-opacity="1" /><polyline clip-path="url(#clip520)" style="stroke:#414141; stroke-linecap:round; stroke-linejoin:round; stroke-width:2; stroke-opacity:1; fill:none" points="3933.42,723.561 4206.18,723.561 "/>
<path clip-path="url(#clip520)" d="M4281.27 725.731 Q4272.94 725.731 4268.14 730.187 Q4263.39 734.643 4263.39 742.456 Q4263.39 750.268 4268.14 754.724 Q4272.94 759.18 4281.27 759.18 Q4289.61 759.18 4294.41 754.724 Q4299.21 750.21 4299.21 742.456 Q4299.21 734.643 4294.41 730.187 Q4289.67 725.731 4281.27 725.731 M4269.58 720.755 Q4262.06 718.903 4257.84 713.752 Q4253.67 708.602 4253.67 701.194 Q4253.67 690.836 4261.02 684.817 Q4268.43 678.799 4281.27 678.799 Q4294.18 678.799 4301.53 684.817 Q4308.88 690.836 4308.88 701.194 Q4308.88 708.602 4304.65 713.752 Q4300.49 718.903 4293.02 720.755 Q4301.47 722.722 4306.16 728.451 Q4310.9 734.18 4310.9 742.456 Q4310.9 755.014 4303.21 761.727 Q4295.57 768.439 4281.27 768.439 Q4266.98 768.439 4259.28 761.727 Q4251.65 755.014 4251.65 742.456 Q4251.65 734.18 4256.39 728.451 Q4261.14 722.722 4269.58 720.755 M4265.3 702.294 Q4265.3 709.007 4269.47 712.768 Q4273.69 716.53 4281.27 716.53 Q4288.8 716.53 4293.02 712.768 Q4297.3 709.007 4297.3 702.294 Q4297.3 695.581 4293.02 691.82 Q4288.8 688.058 4281.27 688.058 Q4273.69 688.058 4269.47 691.82 Q4265.3 695.581 4265.3 702.294 Z" fill="#000000" fill-rule="nonzero" fill-opacity="1" /><path clip-path="url(#clip520)" d="M4356.68 688.058 Q4347.65 688.058 4343.08 696.97 Q4338.57 705.824 4338.57 723.648 Q4338.57 741.414 4343.08 750.326 Q4347.65 759.18 4356.68 759.18 Q4365.76 759.18 4370.28 750.326 Q4374.85 741.414 4374.85 723.648 Q4374.85 705.824 4370.28 696.97 Q4365.76 688.058 4356.68 688.058 M4356.68 678.799 Q4371.2 678.799 4378.84 690.315 Q4386.54 701.773 4386.54 723.648 Q4386.54 745.465 4378.84 756.981 Q4371.2 768.439 4356.68 768.439 Q4342.15 768.439 4334.46 756.981 Q4326.82 745.465 4326.82 723.648 Q4326.82 701.773 4334.46 690.315 Q4342.15 678.799 4356.68 678.799 Z" fill="#000000" fill-rule="nonzero" fill-opacity="1" /><path clip-path="url(#clip520)" d="M4480.58 728.741 Q4475.54 728.741 4472.65 733.023 Q4469.82 737.305 4469.82 744.944 Q4469.82 752.467 4472.65 756.808 Q4475.54 761.09 4480.58 761.09 Q4485.5 761.09 4488.33 756.808 Q4491.23 752.467 4491.23 744.944 Q4491.23 737.363 4488.33 733.081 Q4485.5 728.741 4480.58 728.741 M4480.58 721.391 Q4489.72 721.391 4495.1 727.757 Q4500.49 734.123 4500.49 744.944 Q4500.49 755.766 4495.05 762.132 Q4489.66 768.439 4480.58 768.439 Q4471.32 768.439 4465.94 762.132 Q4460.56 755.766 4460.56 744.944 Q4460.56 734.065 4465.94 727.757 Q4471.38 721.391 4480.58 721.391 M4420.86 686.148 Q4415.88 686.148 4412.99 690.489 Q4410.15 694.771 4410.15 702.294 Q4410.15 709.933 4412.99 714.215 Q4415.82 718.498 4420.86 718.498 Q4425.89 718.498 4428.73 714.215 Q4431.62 709.933 4431.62 702.294 Q4431.62 694.829 4428.73 690.489 Q4425.83 686.148 4420.86 686.148 M4473.11 678.799 L4482.37 678.799 L4428.32 768.439 L4419.06 768.439 L4473.11 678.799 M4420.86 678.799 Q4430 678.799 4435.44 685.164 Q4440.88 691.472 4440.88 702.294 Q4440.88 713.231 4435.44 719.539 Q4430.06 725.847 4420.86 725.847 Q4411.66 725.847 4406.27 719.539 Q4400.95 713.174 4400.95 702.294 Q4400.95 691.53 4406.33 685.164 Q4411.71 678.799 4420.86 678.799 Z" fill="#000000" fill-rule="nonzero" fill-opacity="1" /></svg>
