<?xml version="1.0" encoding="utf-8"?>
<svg xmlns="http://www.w3.org/2000/svg" xmlns:xlink="http://www.w3.org/1999/xlink" width="1200" height="300" viewBox="0 0 4800 1200">
<defs>
  <clipPath id="clip440">
    <rect x="0" y="0" width="4800" height="1200"/>
  </clipPath>
</defs>
<path clip-path="url(#clip440)" d="M0 1200 L4800 1200 L4800 0 L0 0  Z" fill="#ffffff" fill-rule="evenodd" fill-opacity="1"/>
<defs>
  <clipPath id="clip441">
    <rect x="960" y="0" width="3361" height="1200"/>
  </clipPath>
</defs>
<path clip-path="url(#clip440)" d="M721.319 880.951 L4752.76 880.951 L4752.76 47.2441 L721.319 47.2441  Z" fill="#ffffff" fill-rule="evenodd" fill-opacity="1"/>
<defs>
  <clipPath id="clip442">
    <rect x="721" y="47" width="4032" height="835"/>
  </clipPath>
</defs>
<polyline clip-path="url(#clip442)" style="stroke:#000000; stroke-linecap:round; stroke-linejoin:round; stroke-width:2; stroke-opacity:0.1; fill:none" points="835.416,880.951 835.416,47.2441 "/>
<polyline clip-path="url(#clip442)" style="stroke:#000000; stroke-linecap:round; stroke-linejoin:round; stroke-width:2; stroke-opacity:0.1; fill:none" points="1596.06,880.951 1596.06,47.2441 "/>
<polyline clip-path="url(#clip442)" style="stroke:#000000; stroke-linecap:round; stroke-linejoin:round; stroke-width:2; stroke-opacity:0.1; fill:none" points="2356.71,880.951 2356.71,47.2441 "/>
<polyline clip-path="url(#clip442)" style="stroke:#000000; stroke-linecap:round; stroke-linejoin:round; stroke-width:2; stroke-opacity:0.1; fill:none" points="3117.36,880.951 3117.36,47.2441 "/>
<polyline clip-path="url(#clip442)" style="stroke:#000000; stroke-linecap:round; stroke-linejoin:round; stroke-width:2; stroke-opacity:0.1; fill:none" points="3878.01,880.951 3878.01,47.2441 "/>
<polyline clip-path="url(#clip442)" style="stroke:#000000; stroke-linecap:round; stroke-linejoin:round; stroke-width:2; stroke-opacity:0.1; fill:none" points="4638.66,880.951 4638.66,47.2441 "/>
<polyline clip-path="url(#clip442)" style="stroke:#000000; stroke-linecap:round; stroke-linejoin:round; stroke-width:2; stroke-opacity:0.1; fill:none" points="721.319,797.685 4752.76,797.685 "/>
<polyline clip-path="url(#clip442)" style="stroke:#000000; stroke-linecap:round; stroke-linejoin:round; stroke-width:2; stroke-opacity:0.1; fill:none" points="721.319,630.872 4752.76,630.872 "/>
<polyline clip-path="url(#clip442)" style="stroke:#000000; stroke-linecap:round; stroke-linejoin:round; stroke-width:2; stroke-opacity:0.1; fill:none" points="721.319,464.059 4752.76,464.059 "/>
<polyline clip-path="url(#clip442)" style="stroke:#000000; stroke-linecap:round; stroke-linejoin:round; stroke-width:2; stroke-opacity:0.1; fill:none" points="721.319,297.246 4752.76,297.246 "/>
<polyline clip-path="url(#clip442)" style="stroke:#000000; stroke-linecap:round; stroke-linejoin:round; stroke-width:2; stroke-opacity:0.1; fill:none" points="721.319,130.433 4752.76,130.433 "/>
<polyline clip-path="url(#clip440)" style="stroke:#000000; stroke-linecap:round; stroke-linejoin:round; stroke-width:4; stroke-opacity:1; fill:none" points="721.319,880.951 4752.76,880.951 "/>
<polyline clip-path="url(#clip440)" style="stroke:#000000; stroke-linecap:round; stroke-linejoin:round; stroke-width:4; stroke-opacity:1; fill:none" points="835.416,880.951 835.416,862.054 "/>
<polyline clip-path="url(#clip440)" style="stroke:#000000; stroke-linecap:round; stroke-linejoin:round; stroke-width:4; stroke-opacity:1; fill:none" points="1596.06,880.951 1596.06,862.054 "/>
<polyline clip-path="url(#clip440)" style="stroke:#000000; stroke-linecap:round; stroke-linejoin:round; stroke-width:4; stroke-opacity:1; fill:none" points="2356.71,880.951 2356.71,862.054 "/>
<polyline clip-path="url(#clip440)" style="stroke:#000000; stroke-linecap:round; stroke-linejoin:round; stroke-width:4; stroke-opacity:1; fill:none" points="3117.36,880.951 3117.36,862.054 "/>
<polyline clip-path="url(#clip440)" style="stroke:#000000; stroke-linecap:round; stroke-linejoin:round; stroke-width:4; stroke-opacity:1; fill:none" points="3878.01,880.951 3878.01,862.054 "/>
<polyline clip-path="url(#clip440)" style="stroke:#000000; stroke-linecap:round; stroke-linejoin:round; stroke-width:4; stroke-opacity:1; fill:none" points="4638.66,880.951 4638.66,862.054 "/>
<path clip-path="url(#clip440)" d="M835.416 942.789 Q828.194 942.789 824.537 949.918 Q820.926 957.002 820.926 971.261 Q820.926 985.474 824.537 992.603 Q828.194 999.687 835.416 999.687 Q842.685 999.687 846.296 992.603 Q849.953 985.474 849.953 971.261 Q849.953 957.002 846.296 949.918 Q842.685 942.789 835.416 942.789 M835.416 935.382 Q847.037 935.382 853.148 944.594 Q859.305 953.761 859.305 971.261 Q859.305 988.715 853.148 997.927 Q847.037 1007.09 835.416 1007.09 Q823.796 1007.09 817.639 997.927 Q811.528 988.715 811.528 971.261 Q811.528 953.761 817.639 944.594 Q823.796 935.382 835.416 935.382 Z" fill="#000000" fill-rule="nonzero" fill-opacity="1" /><path clip-path="url(#clip440)" d="M1585.37 997.881 L1618.01 997.881 L1618.01 1005.75 L1574.12 1005.75 L1574.12 997.881 Q1579.44 992.372 1588.61 983.113 Q1597.82 973.807 1600.19 971.122 Q1604.68 966.076 1606.44 962.604 Q1608.24 959.085 1608.24 955.705 Q1608.24 950.196 1604.35 946.724 Q1600.51 943.252 1594.31 943.252 Q1589.91 943.252 1585 944.78 Q1580.14 946.307 1574.58 949.409 L1574.58 939.965 Q1580.23 937.696 1585.14 936.539 Q1590.05 935.382 1594.12 935.382 Q1604.86 935.382 1611.25 940.752 Q1617.64 946.122 1617.64 955.104 Q1617.64 959.363 1616.02 963.205 Q1614.44 967.002 1610.23 972.187 Q1609.07 973.529 1602.87 979.965 Q1596.67 986.353 1585.37 997.881 Z" fill="#000000" fill-rule="nonzero" fill-opacity="1" /><path clip-path="url(#clip440)" d="M2362.73 944.78 L2339.12 981.678 L2362.73 981.678 L2362.73 944.78 M2360.28 936.631 L2372.04 936.631 L2372.04 981.678 L2381.9 981.678 L2381.9 989.455 L2372.04 989.455 L2372.04 1005.75 L2362.73 1005.75 L2362.73 989.455 L2331.53 989.455 L2331.53 980.428 L2360.28 936.631 Z" fill="#000000" fill-rule="nonzero" fill-opacity="1" /><path clip-path="url(#clip440)" d="M3118.17 967.465 Q3111.88 967.465 3108.17 971.77 Q3104.51 976.076 3104.51 983.576 Q3104.51 991.029 3108.17 995.381 Q3111.88 999.687 3118.17 999.687 Q3124.47 999.687 3128.13 995.381 Q3131.83 991.029 3131.83 983.576 Q3131.83 976.076 3128.13 971.77 Q3124.47 967.465 3118.17 967.465 M3136.74 938.159 L3136.74 946.678 Q3133.22 945.011 3129.61 944.131 Q3126.04 943.252 3122.52 943.252 Q3113.26 943.252 3108.36 949.502 Q3103.5 955.752 3102.8 968.391 Q3105.53 964.363 3109.65 962.233 Q3113.77 960.057 3118.73 960.057 Q3129.14 960.057 3135.16 966.4 Q3141.23 972.696 3141.23 983.576 Q3141.23 994.224 3134.93 1000.66 Q3128.63 1007.09 3118.17 1007.09 Q3106.18 1007.09 3099.84 997.927 Q3093.5 988.715 3093.5 971.261 Q3093.5 954.872 3101.27 945.15 Q3109.05 935.382 3122.15 935.382 Q3125.67 935.382 3129.24 936.076 Q3132.85 936.77 3136.74 938.159 Z" fill="#000000" fill-rule="nonzero" fill-opacity="1" /><path clip-path="url(#clip440)" d="M3878.01 972.928 Q3871.34 972.928 3867.5 976.492 Q3863.7 980.057 3863.7 986.307 Q3863.7 992.557 3867.5 996.122 Q3871.34 999.687 3878.01 999.687 Q3884.68 999.687 3888.52 996.122 Q3892.36 992.511 3892.36 986.307 Q3892.36 980.057 3888.52 976.492 Q3884.72 972.928 3878.01 972.928 M3868.66 968.946 Q3862.64 967.465 3859.26 963.344 Q3855.93 959.224 3855.93 953.298 Q3855.93 945.011 3861.81 940.196 Q3867.73 935.382 3878.01 935.382 Q3888.33 935.382 3894.21 940.196 Q3900.09 945.011 3900.09 953.298 Q3900.09 959.224 3896.71 963.344 Q3893.38 967.465 3887.41 968.946 Q3894.17 970.52 3897.92 975.104 Q3901.71 979.687 3901.71 986.307 Q3901.71 996.353 3895.56 1001.72 Q3889.45 1007.09 3878.01 1007.09 Q3866.58 1007.09 3860.42 1001.72 Q3854.31 996.353 3854.31 986.307 Q3854.31 979.687 3858.1 975.104 Q3861.9 970.52 3868.66 968.946 M3865.23 954.178 Q3865.23 959.548 3868.57 962.557 Q3871.95 965.567 3878.01 965.567 Q3884.03 965.567 3887.41 962.557 Q3890.83 959.548 3890.83 954.178 Q3890.83 948.807 3887.41 945.798 Q3884.03 942.789 3878.01 942.789 Q3871.95 942.789 3868.57 945.798 Q3865.23 948.807 3865.23 954.178 Z" fill="#000000" fill-rule="nonzero" fill-opacity="1" /><path clip-path="url(#clip440)" d="M4588.03 997.881 L4603.31 997.881 L4603.31 945.15 L4586.69 948.483 L4586.69 939.965 L4603.22 936.631 L4612.57 936.631 L4612.57 997.881 L4627.85 997.881 L4627.85 1005.75 L4588.03 1005.75 L4588.03 997.881 Z" fill="#000000" fill-rule="nonzero" fill-opacity="1" /><path clip-path="url(#clip440)" d="M4666.74 942.789 Q4659.52 942.789 4655.86 949.918 Q4652.25 957.002 4652.25 971.261 Q4652.25 985.474 4655.86 992.603 Q4659.52 999.687 4666.74 999.687 Q4674.01 999.687 4677.62 992.603 Q4681.27 985.474 4681.27 971.261 Q4681.27 957.002 4677.62 949.918 Q4674.01 942.789 4666.74 942.789 M4666.74 935.382 Q4678.36 935.382 4684.47 944.594 Q4690.63 953.761 4690.63 971.261 Q4690.63 988.715 4684.47 997.927 Q4678.36 1007.09 4666.74 1007.09 Q4655.12 1007.09 4648.96 997.927 Q4642.85 988.715 4642.85 971.261 Q4642.85 953.761 4648.96 944.594 Q4655.12 935.382 4666.74 935.382 Z" fill="#000000" fill-rule="nonzero" fill-opacity="1" /><path clip-path="url(#clip440)" d="M2454.28 1072.18 L2520.06 1072.18 L2520.06 1081.04 L2492.46 1081.04 L2492.46 1149.94 L2481.88 1149.94 L2481.88 1081.04 L2454.28 1081.04 L2454.28 1072.18 Z" fill="#000000" fill-rule="nonzero" fill-opacity="1" /><path clip-path="url(#clip440)" d="M2526.52 1091.61 L2536.1 1091.61 L2536.1 1149.94 L2526.52 1149.94 L2526.52 1091.61 M2526.52 1068.9 L2536.1 1068.9 L2536.1 1081.04 L2526.52 1081.04 L2526.52 1068.9 Z" fill="#000000" fill-rule="nonzero" fill-opacity="1" /><path clip-path="url(#clip440)" d="M2601.57 1102.81 Q2605.16 1096.35 2610.16 1093.28 Q2615.16 1090.2 2621.93 1090.2 Q2631.05 1090.2 2636 1096.61 Q2640.94 1102.96 2640.94 1114.74 L2640.94 1149.94 L2631.31 1149.94 L2631.31 1115.05 Q2631.31 1106.66 2628.34 1102.6 Q2625.37 1098.54 2619.28 1098.54 Q2611.83 1098.54 2607.51 1103.49 Q2603.18 1108.43 2603.18 1116.97 L2603.18 1149.94 L2593.55 1149.94 L2593.55 1115.05 Q2593.55 1106.61 2590.58 1102.6 Q2587.61 1098.54 2581.41 1098.54 Q2574.07 1098.54 2569.75 1103.54 Q2565.42 1108.49 2565.42 1116.97 L2565.42 1149.94 L2555.79 1149.94 L2555.79 1091.61 L2565.42 1091.61 L2565.42 1100.67 Q2568.71 1095.31 2573.29 1092.76 Q2577.87 1090.2 2584.17 1090.2 Q2590.53 1090.2 2594.95 1093.43 Q2599.43 1096.66 2601.57 1102.81 Z" fill="#000000" fill-rule="nonzero" fill-opacity="1" /><path clip-path="url(#clip440)" d="M2709.95 1118.38 L2709.95 1123.07 L2665.89 1123.07 Q2666.52 1132.96 2671.83 1138.17 Q2677.19 1143.33 2686.73 1143.33 Q2692.25 1143.33 2697.4 1141.97 Q2702.61 1140.62 2707.71 1137.91 L2707.71 1146.97 Q2702.56 1149.16 2697.14 1150.31 Q2691.73 1151.45 2686.15 1151.45 Q2672.19 1151.45 2664.02 1143.33 Q2655.89 1135.2 2655.89 1121.35 Q2655.89 1107.03 2663.6 1098.64 Q2671.36 1090.2 2684.49 1090.2 Q2696.26 1090.2 2703.08 1097.81 Q2709.95 1105.36 2709.95 1118.38 M2700.37 1115.57 Q2700.27 1107.7 2695.94 1103.02 Q2691.67 1098.33 2684.59 1098.33 Q2676.57 1098.33 2671.73 1102.86 Q2666.93 1107.39 2666.2 1115.62 L2700.37 1115.57 Z" fill="#000000" fill-rule="nonzero" fill-opacity="1" /><path clip-path="url(#clip440)" d="M2782.61 1069.01 Q2775.63 1080.99 2772.25 1092.7 Q2768.86 1104.42 2768.86 1116.45 Q2768.86 1128.49 2772.25 1140.31 Q2775.68 1152.08 2782.61 1164.01 L2774.28 1164.01 Q2766.46 1151.77 2762.56 1139.94 Q2758.7 1128.12 2758.7 1116.45 Q2758.7 1104.84 2762.56 1093.07 Q2766.41 1081.3 2774.28 1069.01 L2782.61 1069.01 Z" fill="#000000" fill-rule="nonzero" fill-opacity="1" /><path clip-path="url(#clip440)" d="M2839.59 1100.46 L2839.59 1068.9 L2849.17 1068.9 L2849.17 1149.94 L2839.59 1149.94 L2839.59 1141.19 Q2836.57 1146.4 2831.93 1148.95 Q2827.35 1151.45 2820.89 1151.45 Q2810.32 1151.45 2803.65 1143.02 Q2797.04 1134.58 2797.04 1120.83 Q2797.04 1107.08 2803.65 1098.64 Q2810.32 1090.2 2820.89 1090.2 Q2827.35 1090.2 2831.93 1092.76 Q2836.57 1095.26 2839.59 1100.46 M2806.93 1120.83 Q2806.93 1131.4 2811.26 1137.44 Q2815.63 1143.43 2823.23 1143.43 Q2830.84 1143.43 2835.21 1137.44 Q2839.59 1131.4 2839.59 1120.83 Q2839.59 1110.26 2835.21 1104.27 Q2830.84 1098.23 2823.23 1098.23 Q2815.63 1098.23 2811.26 1104.27 Q2806.93 1110.26 2806.93 1120.83 Z" fill="#000000" fill-rule="nonzero" fill-opacity="1" /><path clip-path="url(#clip440)" d="M2895.42 1120.62 Q2883.81 1120.62 2879.33 1123.28 Q2874.85 1125.93 2874.85 1132.34 Q2874.85 1137.44 2878.18 1140.46 Q2881.57 1143.43 2887.35 1143.43 Q2895.32 1143.43 2900.11 1137.81 Q2904.95 1132.13 2904.95 1122.76 L2904.95 1120.62 L2895.42 1120.62 M2914.54 1116.66 L2914.54 1149.94 L2904.95 1149.94 L2904.95 1141.09 Q2901.67 1146.4 2896.78 1148.95 Q2891.88 1151.45 2884.8 1151.45 Q2875.84 1151.45 2870.53 1146.45 Q2865.27 1141.4 2865.27 1132.96 Q2865.27 1123.12 2871.83 1118.12 Q2878.44 1113.12 2891.52 1113.12 L2904.95 1113.12 L2904.95 1112.18 Q2904.95 1105.57 2900.58 1101.98 Q2896.26 1098.33 2888.39 1098.33 Q2883.39 1098.33 2878.65 1099.53 Q2873.91 1100.73 2869.54 1103.12 L2869.54 1094.27 Q2874.8 1092.24 2879.75 1091.25 Q2884.69 1090.2 2889.38 1090.2 Q2902.04 1090.2 2908.29 1096.77 Q2914.54 1103.33 2914.54 1116.66 Z" fill="#000000" fill-rule="nonzero" fill-opacity="1" /><path clip-path="url(#clip440)" d="M2958.55 1155.36 Q2954.48 1165.78 2950.63 1168.95 Q2946.78 1172.13 2940.32 1172.13 L2932.66 1172.13 L2932.66 1164.11 L2938.29 1164.11 Q2942.24 1164.11 2944.43 1162.24 Q2946.62 1160.36 2949.28 1153.38 L2950.99 1149.01 L2927.4 1091.61 L2937.56 1091.61 L2955.79 1137.24 L2974.02 1091.61 L2984.17 1091.61 L2958.55 1155.36 Z" fill="#000000" fill-rule="nonzero" fill-opacity="1" /><path clip-path="url(#clip440)" d="M2995.89 1069.01 L3004.22 1069.01 Q3012.04 1081.3 3015.89 1093.07 Q3019.8 1104.84 3019.8 1116.45 Q3019.8 1128.12 3015.89 1139.94 Q3012.04 1151.77 3004.22 1164.01 L2995.89 1164.01 Q3002.82 1152.08 3006.2 1140.31 Q3009.64 1128.49 3009.64 1116.45 Q3009.64 1104.42 3006.2 1092.7 Q3002.82 1080.99 2995.89 1069.01 Z" fill="#000000" fill-rule="nonzero" fill-opacity="1" /><polyline clip-path="url(#clip440)" style="stroke:#000000; stroke-linecap:round; stroke-linejoin:round; stroke-width:4; stroke-opacity:1; fill:none" points="721.319,880.951 721.319,47.2441 "/>
<polyline clip-path="url(#clip440)" style="stroke:#000000; stroke-linecap:round; stroke-linejoin:round; stroke-width:4; stroke-opacity:1; fill:none" points="721.319,797.685 740.217,797.685 "/>
<polyline clip-path="url(#clip440)" style="stroke:#000000; stroke-linecap:round; stroke-linejoin:round; stroke-width:4; stroke-opacity:1; fill:none" points="721.319,630.872 740.217,630.872 "/>
<polyline clip-path="url(#clip440)" style="stroke:#000000; stroke-linecap:round; stroke-linejoin:round; stroke-width:4; stroke-opacity:1; fill:none" points="721.319,464.059 740.217,464.059 "/>
<polyline clip-path="url(#clip440)" style="stroke:#000000; stroke-linecap:round; stroke-linejoin:round; stroke-width:4; stroke-opacity:1; fill:none" points="721.319,297.246 740.217,297.246 "/>
<polyline clip-path="url(#clip440)" style="stroke:#000000; stroke-linecap:round; stroke-linejoin:round; stroke-width:4; stroke-opacity:1; fill:none" points="721.319,130.433 740.217,130.433 "/>
<path clip-path="url(#clip440)" d="M194.136 798.588 L253.488 798.588 L253.488 806.458 L194.136 806.458 L194.136 798.588 Z" fill="#000000" fill-rule="nonzero" fill-opacity="1" /><path clip-path="url(#clip440)" d="M293.673 769.283 Q286.451 769.283 282.793 776.412 Q279.182 783.496 279.182 797.755 Q279.182 811.968 282.793 819.097 Q286.451 826.181 293.673 826.181 Q300.941 826.181 304.552 819.097 Q308.21 811.968 308.21 797.755 Q308.21 783.496 304.552 776.412 Q300.941 769.283 293.673 769.283 M293.673 761.875 Q305.293 761.875 311.404 771.088 Q317.562 780.255 317.562 797.755 Q317.562 815.208 311.404 824.421 Q305.293 833.588 293.673 833.588 Q282.053 833.588 275.895 824.421 Q269.784 815.208 269.784 797.755 Q269.784 780.255 275.895 771.088 Q282.053 761.875 293.673 761.875 Z" fill="#000000" fill-rule="nonzero" fill-opacity="1" /><path clip-path="url(#clip440)" d="M333.997 820.486 L343.765 820.486 L343.765 832.245 L333.997 832.245 L333.997 820.486 Z" fill="#000000" fill-rule="nonzero" fill-opacity="1" /><path clip-path="url(#clip440)" d="M384.135 769.283 Q376.913 769.283 373.256 776.412 Q369.645 783.496 369.645 797.755 Q369.645 811.968 373.256 819.097 Q376.913 826.181 384.135 826.181 Q391.404 826.181 395.015 819.097 Q398.672 811.968 398.672 797.755 Q398.672 783.496 395.015 776.412 Q391.404 769.283 384.135 769.283 M384.135 761.875 Q395.756 761.875 401.867 771.088 Q408.024 780.255 408.024 797.755 Q408.024 815.208 401.867 824.421 Q395.756 833.588 384.135 833.588 Q372.515 833.588 366.358 824.421 Q360.247 815.208 360.247 797.755 Q360.247 780.255 366.358 771.088 Q372.515 761.875 384.135 761.875 Z" fill="#000000" fill-rule="nonzero" fill-opacity="1" /><path clip-path="url(#clip440)" d="M444.459 769.283 Q437.237 769.283 433.58 776.412 Q429.968 783.496 429.968 797.755 Q429.968 811.968 433.58 819.097 Q437.237 826.181 444.459 826.181 Q451.728 826.181 455.339 819.097 Q458.996 811.968 458.996 797.755 Q458.996 783.496 455.339 776.412 Q451.728 769.283 444.459 769.283 M444.459 761.875 Q456.079 761.875 462.19 771.088 Q468.348 780.255 468.348 797.755 Q468.348 815.208 462.19 824.421 Q456.079 833.588 444.459 833.588 Q432.839 833.588 426.681 824.421 Q420.57 815.208 420.57 797.755 Q420.57 780.255 426.681 771.088 Q432.839 761.875 444.459 761.875 Z" fill="#000000" fill-rule="nonzero" fill-opacity="1" /><path clip-path="url(#clip440)" d="M486.403 824.375 L501.681 824.375 L501.681 771.644 L485.061 774.977 L485.061 766.459 L501.588 763.125 L510.94 763.125 L510.94 824.375 L526.218 824.375 L526.218 832.245 L486.403 832.245 L486.403 824.375 Z" fill="#000000" fill-rule="nonzero" fill-opacity="1" /><path clip-path="url(#clip440)" d="M565.107 769.283 Q557.884 769.283 554.227 776.412 Q550.616 783.496 550.616 797.755 Q550.616 811.968 554.227 819.097 Q557.884 826.181 565.107 826.181 Q572.375 826.181 575.986 819.097 Q579.644 811.968 579.644 797.755 Q579.644 783.496 575.986 776.412 Q572.375 769.283 565.107 769.283 M565.107 761.875 Q576.727 761.875 582.838 771.088 Q588.995 780.255 588.995 797.755 Q588.995 815.208 582.838 824.421 Q576.727 833.588 565.107 833.588 Q553.486 833.588 547.329 824.421 Q541.218 815.208 541.218 797.755 Q541.218 780.255 547.329 771.088 Q553.486 761.875 565.107 761.875 Z" fill="#000000" fill-rule="nonzero" fill-opacity="1" /><path clip-path="url(#clip440)" d="M625.43 769.283 Q618.208 769.283 614.551 776.412 Q610.94 783.496 610.94 797.755 Q610.94 811.968 614.551 819.097 Q618.208 826.181 625.43 826.181 Q632.699 826.181 636.31 819.097 Q639.967 811.968 639.967 797.755 Q639.967 783.496 636.31 776.412 Q632.699 769.283 625.43 769.283 M625.43 761.875 Q637.051 761.875 643.162 771.088 Q649.319 780.255 649.319 797.755 Q649.319 815.208 643.162 824.421 Q637.051 833.588 625.43 833.588 Q613.81 833.588 607.653 824.421 Q601.542 815.208 601.542 797.755 Q601.542 780.255 607.653 771.088 Q613.81 761.875 625.43 761.875 Z" fill="#000000" fill-rule="nonzero" fill-opacity="1" /><path clip-path="url(#clip440)" d="M196.127 631.775 L255.479 631.775 L255.479 639.645 L196.127 639.645 L196.127 631.775 Z" fill="#000000" fill-rule="nonzero" fill-opacity="1" /><path clip-path="url(#clip440)" d="M295.664 602.47 Q288.441 602.47 284.784 609.599 Q281.173 616.683 281.173 630.942 Q281.173 645.155 284.784 652.284 Q288.441 659.367 295.664 659.367 Q302.932 659.367 306.543 652.284 Q310.201 645.155 310.201 630.942 Q310.201 616.683 306.543 609.599 Q302.932 602.47 295.664 602.47 M295.664 595.062 Q307.284 595.062 313.395 604.275 Q319.552 613.442 319.552 630.942 Q319.552 648.395 313.395 657.608 Q307.284 666.775 295.664 666.775 Q284.043 666.775 277.886 657.608 Q271.775 648.395 271.775 630.942 Q271.775 613.442 277.886 604.275 Q284.043 595.062 295.664 595.062 Z" fill="#000000" fill-rule="nonzero" fill-opacity="1" /><path clip-path="url(#clip440)" d="M335.987 653.673 L345.756 653.673 L345.756 665.432 L335.987 665.432 L335.987 653.673 Z" fill="#000000" fill-rule="nonzero" fill-opacity="1" /><path clip-path="url(#clip440)" d="M386.126 602.47 Q378.904 602.47 375.247 609.599 Q371.635 616.683 371.635 630.942 Q371.635 645.155 375.247 652.284 Q378.904 659.367 386.126 659.367 Q393.395 659.367 397.006 652.284 Q400.663 645.155 400.663 630.942 Q400.663 616.683 397.006 609.599 Q393.395 602.47 386.126 602.47 M386.126 595.062 Q397.746 595.062 403.857 604.275 Q410.015 613.442 410.015 630.942 Q410.015 648.395 403.857 657.608 Q397.746 666.775 386.126 666.775 Q374.506 666.775 368.348 657.608 Q362.237 648.395 362.237 630.942 Q362.237 613.442 368.348 604.275 Q374.506 595.062 386.126 595.062 Z" fill="#000000" fill-rule="nonzero" fill-opacity="1" /><path clip-path="url(#clip440)" d="M446.45 602.47 Q439.228 602.47 435.57 609.599 Q431.959 616.683 431.959 630.942 Q431.959 645.155 435.57 652.284 Q439.228 659.367 446.45 659.367 Q453.718 659.367 457.329 652.284 Q460.987 645.155 460.987 630.942 Q460.987 616.683 457.329 609.599 Q453.718 602.47 446.45 602.47 M446.45 595.062 Q458.07 595.062 464.181 604.275 Q470.339 613.442 470.339 630.942 Q470.339 648.395 464.181 657.608 Q458.07 666.775 446.45 666.775 Q434.83 666.775 428.672 657.608 Q422.561 648.395 422.561 630.942 Q422.561 613.442 428.672 604.275 Q434.83 595.062 446.45 595.062 Z" fill="#000000" fill-rule="nonzero" fill-opacity="1" /><path clip-path="url(#clip440)" d="M506.774 602.47 Q499.551 602.47 495.894 609.599 Q492.283 616.683 492.283 630.942 Q492.283 645.155 495.894 652.284 Q499.551 659.367 506.774 659.367 Q514.042 659.367 517.653 652.284 Q521.311 645.155 521.311 630.942 Q521.311 616.683 517.653 609.599 Q514.042 602.47 506.774 602.47 M506.774 595.062 Q518.394 595.062 524.505 604.275 Q530.662 613.442 530.662 630.942 Q530.662 648.395 524.505 657.608 Q518.394 666.775 506.774 666.775 Q495.153 666.775 488.996 657.608 Q482.885 648.395 482.885 630.942 Q482.885 613.442 488.996 604.275 Q495.153 595.062 506.774 595.062 Z" fill="#000000" fill-rule="nonzero" fill-opacity="1" /><path clip-path="url(#clip440)" d="M544.736 596.312 L589.181 596.312 L589.181 600.294 L564.088 665.432 L554.32 665.432 L577.931 604.183 L544.736 604.183 L544.736 596.312 Z" fill="#000000" fill-rule="nonzero" fill-opacity="1" /><path clip-path="url(#clip440)" d="M607.514 596.312 L644.227 596.312 L644.227 604.183 L616.079 604.183 L616.079 621.127 Q618.116 620.433 620.153 620.108 Q622.19 619.738 624.227 619.738 Q635.801 619.738 642.56 626.081 Q649.319 632.423 649.319 643.256 Q649.319 654.414 642.375 660.617 Q635.43 666.775 622.791 666.775 Q618.44 666.775 613.903 666.034 Q609.412 665.293 604.597 663.812 L604.597 654.414 Q608.764 656.682 613.208 657.793 Q617.653 658.905 622.606 658.905 Q630.616 658.905 635.291 654.692 Q639.967 650.479 639.967 643.256 Q639.967 636.034 635.291 631.821 Q630.616 627.608 622.606 627.608 Q618.856 627.608 615.106 628.442 Q611.403 629.275 607.514 631.034 L607.514 596.312 Z" fill="#000000" fill-rule="nonzero" fill-opacity="1" /><path clip-path="url(#clip440)" d="M194.136 464.962 L253.488 464.962 L253.488 472.832 L194.136 472.832 L194.136 464.962 Z" fill="#000000" fill-rule="nonzero" fill-opacity="1" /><path clip-path="url(#clip440)" d="M293.673 435.657 Q286.451 435.657 282.793 442.786 Q279.182 449.87 279.182 464.129 Q279.182 478.342 282.793 485.471 Q286.451 492.554 293.673 492.554 Q300.941 492.554 304.552 485.471 Q308.21 478.342 308.21 464.129 Q308.21 449.87 304.552 442.786 Q300.941 435.657 293.673 435.657 M293.673 428.249 Q305.293 428.249 311.404 437.462 Q317.562 446.629 317.562 464.129 Q317.562 481.582 311.404 490.795 Q305.293 499.962 293.673 499.962 Q282.053 499.962 275.895 490.795 Q269.784 481.582 269.784 464.129 Q269.784 446.629 275.895 437.462 Q282.053 428.249 293.673 428.249 Z" fill="#000000" fill-rule="nonzero" fill-opacity="1" /><path clip-path="url(#clip440)" d="M333.997 486.86 L343.765 486.86 L343.765 498.619 L333.997 498.619 L333.997 486.86 Z" fill="#000000" fill-rule="nonzero" fill-opacity="1" /><path clip-path="url(#clip440)" d="M384.135 435.657 Q376.913 435.657 373.256 442.786 Q369.645 449.87 369.645 464.129 Q369.645 478.342 373.256 485.471 Q376.913 492.554 384.135 492.554 Q391.404 492.554 395.015 485.471 Q398.672 478.342 398.672 464.129 Q398.672 449.87 395.015 442.786 Q391.404 435.657 384.135 435.657 M384.135 428.249 Q395.756 428.249 401.867 437.462 Q408.024 446.629 408.024 464.129 Q408.024 481.582 401.867 490.795 Q395.756 499.962 384.135 499.962 Q372.515 499.962 366.358 490.795 Q360.247 481.582 360.247 464.129 Q360.247 446.629 366.358 437.462 Q372.515 428.249 384.135 428.249 Z" fill="#000000" fill-rule="nonzero" fill-opacity="1" /><path clip-path="url(#clip440)" d="M444.459 435.657 Q437.237 435.657 433.58 442.786 Q429.968 449.87 429.968 464.129 Q429.968 478.342 433.58 485.471 Q437.237 492.554 444.459 492.554 Q451.728 492.554 455.339 485.471 Q458.996 478.342 458.996 464.129 Q458.996 449.87 455.339 442.786 Q451.728 435.657 444.459 435.657 M444.459 428.249 Q456.079 428.249 462.19 437.462 Q468.348 446.629 468.348 464.129 Q468.348 481.582 462.19 490.795 Q456.079 499.962 444.459 499.962 Q432.839 499.962 426.681 490.795 Q420.57 481.582 420.57 464.129 Q420.57 446.629 426.681 437.462 Q432.839 428.249 444.459 428.249 Z" fill="#000000" fill-rule="nonzero" fill-opacity="1" /><path clip-path="url(#clip440)" d="M504.783 435.657 Q497.561 435.657 493.903 442.786 Q490.292 449.87 490.292 464.129 Q490.292 478.342 493.903 485.471 Q497.561 492.554 504.783 492.554 Q512.051 492.554 515.662 485.471 Q519.32 478.342 519.32 464.129 Q519.32 449.87 515.662 442.786 Q512.051 435.657 504.783 435.657 M504.783 428.249 Q516.403 428.249 522.514 437.462 Q528.672 446.629 528.672 464.129 Q528.672 481.582 522.514 490.795 Q516.403 499.962 504.783 499.962 Q493.163 499.962 487.005 490.795 Q480.894 481.582 480.894 464.129 Q480.894 446.629 487.005 437.462 Q493.163 428.249 504.783 428.249 Z" fill="#000000" fill-rule="nonzero" fill-opacity="1" /><path clip-path="url(#clip440)" d="M545.199 429.499 L581.912 429.499 L581.912 437.37 L553.764 437.37 L553.764 454.314 Q555.801 453.62 557.838 453.295 Q559.875 452.925 561.912 452.925 Q573.486 452.925 580.245 459.268 Q587.005 465.61 587.005 476.443 Q587.005 487.601 580.06 493.804 Q573.116 499.962 560.477 499.962 Q556.125 499.962 551.588 499.221 Q547.097 498.48 542.283 496.999 L542.283 487.601 Q546.449 489.869 550.894 490.98 Q555.338 492.092 560.292 492.092 Q568.301 492.092 572.977 487.879 Q577.653 483.666 577.653 476.443 Q577.653 469.221 572.977 465.008 Q568.301 460.795 560.292 460.795 Q556.542 460.795 552.792 461.629 Q549.088 462.462 545.199 464.221 L545.199 429.499 Z" fill="#000000" fill-rule="nonzero" fill-opacity="1" /><path clip-path="url(#clip440)" d="M625.43 435.657 Q618.208 435.657 614.551 442.786 Q610.94 449.87 610.94 464.129 Q610.94 478.342 614.551 485.471 Q618.208 492.554 625.43 492.554 Q632.699 492.554 636.31 485.471 Q639.967 478.342 639.967 464.129 Q639.967 449.87 636.31 442.786 Q632.699 435.657 625.43 435.657 M625.43 428.249 Q637.051 428.249 643.162 437.462 Q649.319 446.629 649.319 464.129 Q649.319 481.582 643.162 490.795 Q637.051 499.962 625.43 499.962 Q613.81 499.962 607.653 490.795 Q601.542 481.582 601.542 464.129 Q601.542 446.629 607.653 437.462 Q613.81 428.249 625.43 428.249 Z" fill="#000000" fill-rule="nonzero" fill-opacity="1" /><path clip-path="url(#clip440)" d="M196.127 298.149 L255.479 298.149 L255.479 306.019 L196.127 306.019 L196.127 298.149 Z" fill="#000000" fill-rule="nonzero" fill-opacity="1" /><path clip-path="url(#clip440)" d="M295.664 268.844 Q288.441 268.844 284.784 275.973 Q281.173 283.057 281.173 297.316 Q281.173 311.529 284.784 318.658 Q288.441 325.741 295.664 325.741 Q302.932 325.741 306.543 318.658 Q310.201 311.529 310.201 297.316 Q310.201 283.057 306.543 275.973 Q302.932 268.844 295.664 268.844 M295.664 261.436 Q307.284 261.436 313.395 270.649 Q319.552 279.816 319.552 297.316 Q319.552 314.769 313.395 323.982 Q307.284 333.149 295.664 333.149 Q284.043 333.149 277.886 323.982 Q271.775 314.769 271.775 297.316 Q271.775 279.816 277.886 270.649 Q284.043 261.436 295.664 261.436 Z" fill="#000000" fill-rule="nonzero" fill-opacity="1" /><path clip-path="url(#clip440)" d="M335.987 320.047 L345.756 320.047 L345.756 331.806 L335.987 331.806 L335.987 320.047 Z" fill="#000000" fill-rule="nonzero" fill-opacity="1" /><path clip-path="url(#clip440)" d="M386.126 268.844 Q378.904 268.844 375.247 275.973 Q371.635 283.057 371.635 297.316 Q371.635 311.529 375.247 318.658 Q378.904 325.741 386.126 325.741 Q393.395 325.741 397.006 318.658 Q400.663 311.529 400.663 297.316 Q400.663 283.057 397.006 275.973 Q393.395 268.844 386.126 268.844 M386.126 261.436 Q397.746 261.436 403.857 270.649 Q410.015 279.816 410.015 297.316 Q410.015 314.769 403.857 323.982 Q397.746 333.149 386.126 333.149 Q374.506 333.149 368.348 323.982 Q362.237 314.769 362.237 297.316 Q362.237 279.816 368.348 270.649 Q374.506 261.436 386.126 261.436 Z" fill="#000000" fill-rule="nonzero" fill-opacity="1" /><path clip-path="url(#clip440)" d="M446.45 268.844 Q439.228 268.844 435.57 275.973 Q431.959 283.057 431.959 297.316 Q431.959 311.529 435.57 318.658 Q439.228 325.741 446.45 325.741 Q453.718 325.741 457.329 318.658 Q460.987 311.529 460.987 297.316 Q460.987 283.057 457.329 275.973 Q453.718 268.844 446.45 268.844 M446.45 261.436 Q458.07 261.436 464.181 270.649 Q470.339 279.816 470.339 297.316 Q470.339 314.769 464.181 323.982 Q458.07 333.149 446.45 333.149 Q434.83 333.149 428.672 323.982 Q422.561 314.769 422.561 297.316 Q422.561 279.816 428.672 270.649 Q434.83 261.436 446.45 261.436 Z" fill="#000000" fill-rule="nonzero" fill-opacity="1" /><path clip-path="url(#clip440)" d="M506.774 268.844 Q499.551 268.844 495.894 275.973 Q492.283 283.057 492.283 297.316 Q492.283 311.529 495.894 318.658 Q499.551 325.741 506.774 325.741 Q514.042 325.741 517.653 318.658 Q521.311 311.529 521.311 297.316 Q521.311 283.057 517.653 275.973 Q514.042 268.844 506.774 268.844 M506.774 261.436 Q518.394 261.436 524.505 270.649 Q530.662 279.816 530.662 297.316 Q530.662 314.769 524.505 323.982 Q518.394 333.149 506.774 333.149 Q495.153 333.149 488.996 323.982 Q482.885 314.769 482.885 297.316 Q482.885 279.816 488.996 270.649 Q495.153 261.436 506.774 261.436 Z" fill="#000000" fill-rule="nonzero" fill-opacity="1" /><path clip-path="url(#clip440)" d="M555.153 323.936 L587.792 323.936 L587.792 331.806 L543.903 331.806 L543.903 323.936 Q549.227 318.427 558.394 309.167 Q567.607 299.862 569.968 297.177 Q574.458 292.131 576.218 288.658 Q578.023 285.14 578.023 281.76 Q578.023 276.251 574.134 272.779 Q570.292 269.307 564.088 269.307 Q559.69 269.307 554.783 270.834 Q549.922 272.362 544.366 275.464 L544.366 266.02 Q550.014 263.751 554.921 262.594 Q559.829 261.436 563.903 261.436 Q574.644 261.436 581.032 266.807 Q587.421 272.177 587.421 281.158 Q587.421 285.418 585.801 289.26 Q584.227 293.056 580.014 298.242 Q578.857 299.584 572.653 306.019 Q566.449 312.408 555.153 323.936 Z" fill="#000000" fill-rule="nonzero" fill-opacity="1" /><path clip-path="url(#clip440)" d="M607.514 262.686 L644.227 262.686 L644.227 270.557 L616.079 270.557 L616.079 287.501 Q618.116 286.806 620.153 286.482 Q622.19 286.112 624.227 286.112 Q635.801 286.112 642.56 292.455 Q649.319 298.797 649.319 309.63 Q649.319 320.788 642.375 326.991 Q635.43 333.149 622.791 333.149 Q618.44 333.149 613.903 332.408 Q609.412 331.667 604.597 330.186 L604.597 320.788 Q608.764 323.056 613.208 324.167 Q617.653 325.279 622.606 325.279 Q630.616 325.279 635.291 321.066 Q639.967 316.853 639.967 309.63 Q639.967 302.408 635.291 298.195 Q630.616 293.982 622.606 293.982 Q618.856 293.982 615.106 294.816 Q611.403 295.649 607.514 297.408 L607.514 262.686 Z" fill="#000000" fill-rule="nonzero" fill-opacity="1" /><path clip-path="url(#clip440)" d="M293.673 102.031 Q286.451 102.031 282.793 109.16 Q279.182 116.243 279.182 130.503 Q279.182 144.716 282.793 151.845 Q286.451 158.928 293.673 158.928 Q300.941 158.928 304.552 151.845 Q308.21 144.716 308.21 130.503 Q308.21 116.243 304.552 109.16 Q300.941 102.031 293.673 102.031 M293.673 94.6232 Q305.293 94.6232 311.404 103.836 Q317.562 113.003 317.562 130.503 Q317.562 147.956 311.404 157.169 Q305.293 166.336 293.673 166.336 Q282.053 166.336 275.895 157.169 Q269.784 147.956 269.784 130.503 Q269.784 113.003 275.895 103.836 Q282.053 94.6232 293.673 94.6232 Z" fill="#000000" fill-rule="nonzero" fill-opacity="1" /><path clip-path="url(#clip440)" d="M333.997 153.234 L343.765 153.234 L343.765 164.993 L333.997 164.993 L333.997 153.234 Z" fill="#000000" fill-rule="nonzero" fill-opacity="1" /><path clip-path="url(#clip440)" d="M384.135 102.031 Q376.913 102.031 373.256 109.16 Q369.645 116.243 369.645 130.503 Q369.645 144.716 373.256 151.845 Q376.913 158.928 384.135 158.928 Q391.404 158.928 395.015 151.845 Q398.672 144.716 398.672 130.503 Q398.672 116.243 395.015 109.16 Q391.404 102.031 384.135 102.031 M384.135 94.6232 Q395.756 94.6232 401.867 103.836 Q408.024 113.003 408.024 130.503 Q408.024 147.956 401.867 157.169 Q395.756 166.336 384.135 166.336 Q372.515 166.336 366.358 157.169 Q360.247 147.956 360.247 130.503 Q360.247 113.003 366.358 103.836 Q372.515 94.6232 384.135 94.6232 Z" fill="#000000" fill-rule="nonzero" fill-opacity="1" /><path clip-path="url(#clip440)" d="M444.459 102.031 Q437.237 102.031 433.58 109.16 Q429.968 116.243 429.968 130.503 Q429.968 144.716 433.58 151.845 Q437.237 158.928 444.459 158.928 Q451.728 158.928 455.339 151.845 Q458.996 144.716 458.996 130.503 Q458.996 116.243 455.339 109.16 Q451.728 102.031 444.459 102.031 M444.459 94.6232 Q456.079 94.6232 462.19 103.836 Q468.348 113.003 468.348 130.503 Q468.348 147.956 462.19 157.169 Q456.079 166.336 444.459 166.336 Q432.839 166.336 426.681 157.169 Q420.57 147.956 420.57 130.503 Q420.57 113.003 426.681 103.836 Q432.839 94.6232 444.459 94.6232 Z" fill="#000000" fill-rule="nonzero" fill-opacity="1" /><path clip-path="url(#clip440)" d="M504.783 102.031 Q497.561 102.031 493.903 109.16 Q490.292 116.243 490.292 130.503 Q490.292 144.716 493.903 151.845 Q497.561 158.928 504.783 158.928 Q512.051 158.928 515.662 151.845 Q519.32 144.716 519.32 130.503 Q519.32 116.243 515.662 109.16 Q512.051 102.031 504.783 102.031 M504.783 94.6232 Q516.403 94.6232 522.514 103.836 Q528.672 113.003 528.672 130.503 Q528.672 147.956 522.514 157.169 Q516.403 166.336 504.783 166.336 Q493.163 166.336 487.005 157.169 Q480.894 147.956 480.894 130.503 Q480.894 113.003 487.005 103.836 Q493.163 94.6232 504.783 94.6232 Z" fill="#000000" fill-rule="nonzero" fill-opacity="1" /><path clip-path="url(#clip440)" d="M565.107 102.031 Q557.884 102.031 554.227 109.16 Q550.616 116.243 550.616 130.503 Q550.616 144.716 554.227 151.845 Q557.884 158.928 565.107 158.928 Q572.375 158.928 575.986 151.845 Q579.644 144.716 579.644 130.503 Q579.644 116.243 575.986 109.16 Q572.375 102.031 565.107 102.031 M565.107 94.6232 Q576.727 94.6232 582.838 103.836 Q588.995 113.003 588.995 130.503 Q588.995 147.956 582.838 157.169 Q576.727 166.336 565.107 166.336 Q553.486 166.336 547.329 157.169 Q541.218 147.956 541.218 130.503 Q541.218 113.003 547.329 103.836 Q553.486 94.6232 565.107 94.6232 Z" fill="#000000" fill-rule="nonzero" fill-opacity="1" /><path clip-path="url(#clip440)" d="M625.43 102.031 Q618.208 102.031 614.551 109.16 Q610.94 116.243 610.94 130.503 Q610.94 144.716 614.551 151.845 Q618.208 158.928 625.43 158.928 Q632.699 158.928 636.31 151.845 Q639.967 144.716 639.967 130.503 Q639.967 116.243 636.31 109.16 Q632.699 102.031 625.43 102.031 M625.43 94.6232 Q637.051 94.6232 643.162 103.836 Q649.319 113.003 649.319 130.503 Q649.319 147.956 643.162 157.169 Q637.051 166.336 625.43 166.336 Q613.81 166.336 607.653 157.169 Q601.542 147.956 601.542 130.503 Q601.542 113.003 607.653 103.836 Q613.81 94.6232 625.43 94.6232 Z" fill="#000000" fill-rule="nonzero" fill-opacity="1" /><path clip-path="url(#clip440)" d="M21.0484 860.215 L21.0484 846.049 L86.1001 811.57 L21.0484 811.57 L21.0484 801.362 L98.8084 801.362 L98.8084 815.528 L33.7566 850.007 L98.8084 850.007 L98.8084 860.215 L21.0484 860.215 Z" fill="#000000" fill-rule="nonzero" fill-opacity="1" /><path clip-path="url(#clip440)" d="M28.1838 748.862 Q28.1838 760.32 36.7254 767.091 Q45.267 773.81 60.0065 773.81 Q74.6939 773.81 83.2355 767.091 Q91.7772 760.32 91.7772 748.862 Q91.7772 737.404 83.2355 730.737 Q74.6939 724.018 60.0065 724.018 Q45.267 724.018 36.7254 730.737 Q28.1838 737.404 28.1838 748.862 M19.6421 748.862 Q19.6421 732.508 30.6317 722.716 Q41.5691 712.925 60.0065 712.925 Q78.3918 712.925 89.3813 722.716 Q100.319 732.508 100.319 748.862 Q100.319 765.268 89.3813 775.112 Q78.4439 784.903 60.0065 784.903 Q41.5691 784.903 30.6317 775.112 Q19.6421 765.268 19.6421 748.862 Z" fill="#000000" fill-rule="nonzero" fill-opacity="1" /><path clip-path="url(#clip440)" d="M56.8815 663.654 Q58.4961 656.102 63.6002 651.883 Q68.7044 647.612 76.2043 647.612 Q87.7147 647.612 94.0167 655.529 Q100.319 663.446 100.319 678.029 Q100.319 682.925 99.3292 688.133 Q98.3917 693.289 96.4646 698.81 L86.3084 698.81 Q88.8605 694.435 90.1626 689.227 Q91.4647 684.018 91.4647 678.341 Q91.4647 668.446 87.5584 663.289 Q83.6522 658.081 76.2043 658.081 Q69.3294 658.081 65.4752 662.925 Q61.569 667.716 61.569 676.31 L61.569 685.373 L52.9232 685.373 L52.9232 675.894 Q52.9232 668.133 49.8503 664.019 Q46.7253 659.904 40.892 659.904 Q34.9025 659.904 31.7254 664.175 Q28.4963 668.394 28.4963 676.31 Q28.4963 680.633 29.4337 685.581 Q30.3712 690.529 32.3504 696.466 L22.9755 696.466 Q21.3088 690.477 20.4755 685.268 Q19.6421 680.008 19.6421 675.373 Q19.6421 663.394 25.1109 656.414 Q30.5275 649.435 39.7983 649.435 Q46.2566 649.435 50.7357 653.133 Q55.1628 656.831 56.8815 663.654 Z" fill="#000000" fill-rule="nonzero" fill-opacity="1" /><path clip-path="url(#clip440)" d="M21.0484 594.696 L21.0484 545.53 L29.9025 545.53 L29.9025 584.175 L52.9232 584.175 L52.9232 547.144 L61.7773 547.144 L61.7773 584.175 L89.9543 584.175 L89.9543 544.592 L98.8084 544.592 L98.8084 594.696 L21.0484 594.696 Z" fill="#000000" fill-rule="nonzero" fill-opacity="1" /><path clip-path="url(#clip440)" d="M49.4336 493.915 Q48.4961 495.53 48.0795 497.457 Q47.6107 499.332 47.6107 501.624 Q47.6107 509.749 52.9232 514.124 Q58.1836 518.446 68.0794 518.446 L98.8084 518.446 L98.8084 528.082 L40.4754 528.082 L40.4754 518.446 L49.5378 518.446 Q44.2253 515.426 41.6733 510.582 Q39.0691 505.738 39.0691 498.811 Q39.0691 497.822 39.2254 496.624 Q39.3295 495.426 39.5899 493.967 L49.4336 493.915 Z" fill="#000000" fill-rule="nonzero" fill-opacity="1" /><path clip-path="url(#clip440)" d="M49.4336 451.936 Q48.4961 453.551 48.0795 455.478 Q47.6107 457.353 47.6107 459.645 Q47.6107 467.77 52.9232 472.145 Q58.1836 476.468 68.0794 476.468 L98.8084 476.468 L98.8084 486.103 L40.4754 486.103 L40.4754 476.468 L49.5378 476.468 Q44.2253 473.447 41.6733 468.603 Q39.0691 463.759 39.0691 456.832 Q39.0691 455.843 39.2254 454.645 Q39.3295 453.447 39.5899 451.988 L49.4336 451.936 Z" fill="#000000" fill-rule="nonzero" fill-opacity="1" /><path clip-path="url(#clip440)" d="M47.1941 421.624 Q47.1941 429.332 53.2357 433.811 Q59.2253 438.291 69.694 438.291 Q80.1626 438.291 86.2043 433.864 Q92.1938 429.384 92.1938 421.624 Q92.1938 413.968 86.1522 409.489 Q80.1106 405.01 69.694 405.01 Q59.3294 405.01 53.2878 409.489 Q47.1941 413.968 47.1941 421.624 M39.0691 421.624 Q39.0691 409.124 47.1941 401.989 Q55.319 394.853 69.694 394.853 Q84.0168 394.853 92.1938 401.989 Q100.319 409.124 100.319 421.624 Q100.319 434.176 92.1938 441.311 Q84.0168 448.395 69.694 448.395 Q55.319 448.395 47.1941 441.311 Q39.0691 434.176 39.0691 421.624 Z" fill="#000000" fill-rule="nonzero" fill-opacity="1" /><path clip-path="url(#clip440)" d="M49.4336 345.166 Q48.4961 346.781 48.0795 348.708 Q47.6107 350.583 47.6107 352.874 Q47.6107 360.999 52.9232 365.374 Q58.1836 369.697 68.0794 369.697 L98.8084 369.697 L98.8084 379.333 L40.4754 379.333 L40.4754 369.697 L49.5378 369.697 Q44.2253 366.676 41.6733 361.833 Q39.0691 356.989 39.0691 350.062 Q39.0691 349.072 39.2254 347.874 Q39.3295 346.677 39.5899 345.218 L49.4336 345.166 Z" fill="#000000" fill-rule="nonzero" fill-opacity="1" /><path clip-path="url(#clip440)" d="M17.8713 312.093 Q29.8504 319.073 41.5691 322.458 Q53.2878 325.843 65.319 325.843 Q77.3502 325.843 89.173 322.458 Q100.944 319.02 112.871 312.093 L112.871 320.427 Q100.631 328.239 88.8084 332.145 Q76.9856 336 65.319 336 Q53.7045 336 41.9337 332.145 Q30.1629 328.291 17.8713 320.427 L17.8713 312.093 Z" fill="#000000" fill-rule="nonzero" fill-opacity="1" /><path clip-path="url(#clip440)" d="M90.0584 284.229 L120.996 284.229 L120.996 293.864 L40.4754 293.864 L40.4754 284.229 L49.3295 284.229 Q44.1212 281.208 41.6212 276.625 Q39.0691 271.989 39.0691 265.583 Q39.0691 254.958 47.5066 248.344 Q55.944 241.677 69.694 241.677 Q83.4439 241.677 91.8813 248.344 Q100.319 254.958 100.319 265.583 Q100.319 271.989 97.8188 276.625 Q95.2667 281.208 90.0584 284.229 M69.694 251.625 Q59.1211 251.625 53.1315 256 Q47.0899 260.323 47.0899 267.927 Q47.0899 275.531 53.1315 279.906 Q59.1211 284.229 69.694 284.229 Q80.2668 284.229 86.3084 279.906 Q92.298 275.531 92.298 267.927 Q92.298 260.323 86.3084 256 Q80.2668 251.625 69.694 251.625 Z" fill="#000000" fill-rule="nonzero" fill-opacity="1" /><path clip-path="url(#clip440)" d="M90.0584 216.521 L120.996 216.521 L120.996 226.156 L40.4754 226.156 L40.4754 216.521 L49.3295 216.521 Q44.1212 213.5 41.6212 208.917 Q39.0691 204.281 39.0691 197.875 Q39.0691 187.25 47.5066 180.636 Q55.944 173.969 69.694 173.969 Q83.4439 173.969 91.8813 180.636 Q100.319 187.25 100.319 197.875 Q100.319 204.281 97.8188 208.917 Q95.2667 213.5 90.0584 216.521 M69.694 183.917 Q59.1211 183.917 53.1315 188.292 Q47.0899 192.615 47.0899 200.219 Q47.0899 207.823 53.1315 212.198 Q59.1211 216.521 69.694 216.521 Q80.2668 216.521 86.3084 212.198 Q92.298 207.823 92.298 200.219 Q92.298 192.615 86.3084 188.292 Q80.2668 183.917 69.694 183.917 Z" fill="#000000" fill-rule="nonzero" fill-opacity="1" /><path clip-path="url(#clip440)" d="M69.694 116.209 Q59.1211 116.209 53.1315 120.584 Q47.0899 124.907 47.0899 132.511 Q47.0899 140.115 53.1315 144.49 Q59.1211 148.813 69.694 148.813 Q80.2668 148.813 86.3084 144.49 Q92.298 140.115 92.298 132.511 Q92.298 124.907 86.3084 120.584 Q80.2668 116.209 69.694 116.209 M49.3295 148.813 Q44.1212 145.792 41.6212 141.209 Q39.0691 136.574 39.0691 130.167 Q39.0691 119.542 47.5066 112.928 Q55.944 106.261 69.694 106.261 Q83.4439 106.261 91.8813 112.928 Q100.319 119.542 100.319 130.167 Q100.319 136.574 97.8188 141.209 Q95.2667 145.792 90.0584 148.813 L98.8084 148.813 L98.8084 158.448 L17.7671 158.448 L17.7671 148.813 L49.3295 148.813 Z" fill="#000000" fill-rule="nonzero" fill-opacity="1" /><path clip-path="url(#clip440)" d="M17.8713 91.8862 L17.8713 83.553 Q30.1629 75.7405 41.9337 71.8864 Q53.7045 67.9801 65.319 67.9801 Q76.9856 67.9801 88.8084 71.8864 Q100.631 75.7405 112.871 83.553 L112.871 91.8862 Q100.944 84.9592 89.173 81.5738 Q77.3502 78.1363 65.319 78.1363 Q53.2878 78.1363 41.5691 81.5738 Q29.8504 84.9592 17.8713 91.8862 Z" fill="#000000" fill-rule="nonzero" fill-opacity="1" /><path clip-path="url(#clip442)" d="M835.416 245.051 L851.263 247.702 L867.11 254.818 L882.957 263.832 L898.804 277.657 L914.651 298.698 L930.497 321.032 L946.344 345.427 L962.191 360.269 L978.038 365.869 L993.885 371.746 L1009.73 367.674 L1025.58 347.479 L1041.43 315.69 L1057.27 281.962 L1073.12 254.957 L1088.97 235.964 L1104.81 229.713 L1120.66 235.341 L1136.51 251.342 L1152.35 273.876 L1168.2 299.731 L1184.05 320.532 L1199.89 332.222 L1215.74 334.296 L1231.59 340.956 L1247.43 348.349 L1263.28 357.108 L1279.13 370.894 L1294.97 392.563 L1310.82 415.493 L1326.67 439.882 L1342.52 451.759 L1358.36 452.799 L1374.21 453.536 L1390.06 444.371 L1405.9 417.81 L1421.75 378.152 L1437.6 336.259 L1453.44 302.14 L1469.29 277.636 L1485.14 267.178 L1500.98 271.184 L1516.83 287.407 L1532.68 310.812 L1548.52 338.027 L1564.37 360.184 L1580.22 372.7 L1596.06 374.423 L1611.91 384.829 L1627.76 392.085 L1643.61 400.813 L1659.45 415.13 L1675.3 438.148 L1691.15 462.817 L1706.99 489.243 L1722.84 502.715 L1738.69 503.091 L1754.53 503.746 L1770.38 493.441 L1786.23 463.559 L1802.07 418.67 L1817.92 370.875 L1833.77 331.638 L1849.61 303.637 L1865.46 289.492 L1881.31 289.13 L1897.15 305.999 L1913 330.825 L1928.85 362.341 L1944.7 388.253 L1960.54 402.596 L1976.39 404.667 L1992.24 416.832 L2008.08 424.05 L2023.93 432.819 L2039.78 447.702 L2055.62 472.127 L2071.47 498.733 L2087.32 527.442 L2103.16 542.534 L2119.01 543.874 L2134.86 545.479 L2150.7 535.18 L2166.55 503.076 L2182.4 453.628 L2198.24 400.529 L2214.09 356.768 L2229.94 325.424 L2245.79 309.27 L2261.63 306.096 L2277.48 322.421 L2293.33 352.021 L2309.17 386.792 L2325.02 415.676 L2340.87 432.05 L2356.71 433.179 L2372.56 445.527 L2388.41 452.756 L2404.25 461.597 L2420.1 477.079 L2435.95 502.919 L2451.79 531.441 L2467.64 562.486 L2483.49 579.18 L2499.33 582.055 L2515.18 585.053 L2531.03 575.173 L2546.88 541.064 L2562.72 487.355 L2578.57 429.125 L2594.42 381.127 L2610.26 346.504 L2626.11 328.492 L2641.96 324.537 L2657.8 342.851 L2673.65 375.009 L2689.5 413.15 L2705.34 445.311 L2721.19 463.917 L2737.04 465.529 L2752.88 473.841 L2768.73 481.039 L2784.58 489.95 L2800.42 506.069 L2816.27 533.443 L2832.12 564.032 L2847.97 597.552 L2863.81 616.286 L2879.66 620.764 L2895.51 625.36 L2911.35 616.02 L2927.2 580.017 L2943.05 522.017 L2958.89 458.615 L2974.74 405.986 L2990.59 368.131 L3006.43 348.29 L3022.28 343.742 L3038.13 365.683 L3053.97 400.736 L3069.82 442.713 L3085.67 478.585 L3101.51 499.778 L3117.36 501.952 L3133.21 503.409 L3149.06 510.619 L3164.9 519.601 L3180.75 536.338 L3196.6 565.218 L3212.44 597.879 L3228.29 634.269 L3244.14 655.156 L3259.98 661.306 L3275.83 667.57 L3291.68 658.72 L3307.52 620.686 L3323.37 558.188 L3339.22 489.455 L3355.06 432.256 L3370.91 390.823 L3386.76 368.874 L3402.6 367.011 L3418.45 392.504 L3434.3 431.008 L3450.15 477.488 L3465.99 517.737 L3481.84 542.083 L3497.69 544.999 L3513.53 541.107 L3529.38 541.343 L3545.23 550.362 L3561.07 567.75 L3576.92 598.258 L3592.77 633.169 L3608.61 671.99 L3624.46 695.61 L3640.31 703.852 L3656.15 712.225 L3672 704.032 L3687.85 664.027 L3703.69 596.879 L3719.54 522.448 L3735.39 460.281 L3751.24 415.153 L3767.08 391.669 L3782.93 396.856 L3798.78 424.934 L3814.62 467.755 L3830.47 519.768 L3846.32 565.426 L3862.16 593.551 L3878.01 597.317 L3893.86 592.011 L3909.7 575.193 L3925.55 583.268 L3941.4 601.381 L3957.24 633.569 L3973.09 670.79 L3988.94 712.936 L4004.78 739.071 L4020.63 749.575 L4036.48 764.617 L4052.33 759.033 L4068.17 714.045 L4084.02 638.81 L4099.87 558.317 L4115.71 490.784 L4131.56 446.715 L4147.41 430.009 L4163.25 435.445 L4179.1 466.708 L4194.95 514.947 L4210.79 574.083 L4226.64 626.702 L4242.49 659.793 L4258.33 664.858 L4274.18 658.189 L4290.03 637.773 L4305.87 624.55 L4321.72 638.061 L4337.57 672.098 L4353.42 711.904 L4369.26 765.533 L4385.11 809.374 L4400.96 834.489 L4416.8 857.356 L4432.65 855.109 L4448.5 806.777 L4464.34 720.107 L4480.19 625.266 L4496.04 550.073 L4511.88 500.437 L4527.73 480.762 L4543.58 486.719 L4559.42 522.423 L4575.27 578.038 L4591.12 646.712 L4606.96 708.679 L4622.81 748.521 L4638.66 755.322 L4638.66 78.3447 L4622.81 79.1519 L4606.96 79.37 L4591.12 78.6445 L4575.27 76.8445 L4559.42 74.768 L4543.58 72.6886 L4527.73 71.3802 L4511.88 70.8396 L4496.04 71.3314 L4480.19 72.4086 L4464.34 74.0617 L4448.5 75.7588 L4432.65 77.049 L4416.8 77.4979 L4400.96 77.5417 L4385.11 78.3304 L4369.26 78.7635 L4353.42 78.1711 L4337.57 77.7451 L4321.72 77.205 L4305.87 77.3016 L4290.03 77.7946 L4274.18 78.4112 L4258.33 78.8251 L4242.49 79.6519 L4226.64 79.8856 L4210.79 79.1828 L4194.95 77.4176 L4179.1 75.3573 L4163.25 73.2864 L4147.41 71.9889 L4131.56 71.4591 L4115.71 71.9499 L4099.87 73.0454 L4084.02 74.6764 L4068.17 76.3424 L4052.33 77.6222 L4036.48 78.074 L4020.63 78.0874 L4004.78 78.9226 L3988.94 79.4636 L3973.09 78.8567 L3957.24 78.4297 L3941.4 77.8775 L3925.55 77.9537 L3909.7 78.422 L3893.86 79.0096 L3878.01 79.4074 L3862.16 80.2303 L3846.32 80.4688 L3830.47 79.7852 L3814.62 78.163 L3798.78 76.1805 L3782.93 74.1797 L3767.08 72.9253 L3751.24 72.4086 L3735.39 72.9023 L3719.54 73.9985 L3703.69 75.6324 L3687.85 77.3207 L3672 78.6526 L3656.15 79.1965 L3640.31 79.3427 L3624.46 80.2459 L3608.61 80.6245 L3592.77 79.9524 L3576.92 79.4707 L3561.07 78.9159 L3545.23 79.003 L3529.38 79.4839 L3513.53 80.1322 L3497.69 80.5538 L3481.84 81.4022 L3465.99 81.6771 L3450.15 81.0279 L3434.3 79.3973 L3418.45 77.42 L3402.6 75.4335 L3386.76 74.2273 L3370.91 73.762 L3355.06 74.2362 L3339.22 75.3456 L3323.37 76.9657 L3307.52 78.6376 L3291.68 79.9506 L3275.83 80.4257 L3259.98 80.5542 L3244.14 81.4095 L3228.29 81.8494 L3212.44 81.2129 L3196.6 80.7047 L3180.75 80.1375 L3164.9 80.2128 L3149.06 80.6842 L3133.21 81.3302 L3117.36 81.7628 L3101.51 82.6226 L3085.67 82.9088 L3069.82 82.244 L3053.97 80.6801 L3038.13 78.7286 L3022.28 76.8064 L3006.43 75.6289 L2990.59 75.1629 L2974.74 75.6395 L2958.89 76.7251 L2943.05 78.3017 L2927.2 79.9294 L2911.35 81.1765 L2895.51 81.686 L2879.66 81.7544 L2863.81 82.637 L2847.97 83.1067 L2832.12 82.6679 L2816.27 82.3683 L2800.42 81.8299 L2784.58 81.9063 L2768.73 82.3825 L2752.88 83.0361 L2737.04 83.4767 L2721.19 84.3578 L2705.34 84.6964 L2689.5 84.1392 L2673.65 82.5478 L2657.8 80.6897 L2641.96 78.8117 L2626.11 77.7068 L2610.26 77.3248 L2594.42 77.9022 L2578.57 78.9885 L2562.72 80.6183 L2546.88 82.316 L2531.03 83.682 L2515.18 84.2837 L2499.33 84.4567 L2483.49 85.3053 L2467.64 85.7275 L2451.79 85.0923 L2435.95 84.6094 L2420.1 84.0434 L2404.25 84.1042 L2388.41 84.5331 L2372.56 85.1328 L2356.71 85.5213 L2340.87 86.3957 L2325.02 86.7606 L2309.17 86.2588 L2293.33 84.8169 L2277.48 83.0313 L2261.63 81.2481 L2245.79 80.1882 L2229.94 79.8087 L2214.09 80.3593 L2198.24 81.4225 L2182.4 83.0127 L2166.55 84.6848 L2150.7 86.0506 L2134.86 86.6936 L2119.01 86.9829 L2103.16 88.0592 L2087.32 88.6905 L2071.47 88.0805 L2055.62 87.6276 L2039.78 87.1296 L2023.93 87.2121 L2008.08 87.6512 L1992.24 88.2626 L1976.39 88.6839 L1960.54 89.5888 L1944.7 89.9988 L1928.85 89.5378 L1913 88.143 L1897.15 86.4681 L1881.31 84.849 L1865.46 83.9464 L1849.61 83.6727 L1833.77 84.3157 L1817.92 85.4857 L1802.07 87.152 L1786.23 88.9055 L1770.38 90.3632 L1754.53 91.0975 L1738.69 91.4212 L1722.84 92.4167 L1706.99 93.0145 L1691.15 92.5387 L1675.3 92.1696 L1659.45 91.6724 L1643.61 91.7279 L1627.76 92.1519 L1611.91 92.7404 L1596.06 93.207 L1580.22 94.1883 L1564.37 94.7022 L1548.52 94.4104 L1532.68 93.195 L1516.83 91.5792 L1500.98 90.0445 L1485.14 89.2468 L1469.29 89.132 L1453.44 89.8782 L1437.6 91.1443 L1421.75 92.9104 L1405.9 94.7668 L1390.06 96.351 L1374.21 97.2318 L1358.36 97.7034 L1342.52 98.8684 L1326.67 99.5233 L1310.82 99.1101 L1294.97 98.794 L1279.13 98.332 L1263.28 98.4325 L1247.43 98.8926 L1231.59 99.5099 L1215.74 100.024 L1199.89 101.094 L1184.05 101.763 L1168.2 101.693 L1152.35 100.851 L1136.51 99.762 L1120.66 98.7297 L1104.81 98.4378 L1088.97 98.3161 L1073.12 99.1297 L1057.27 100.761 L1041.43 103.001 L1025.58 105.398 L1009.73 107.283 L993.885 108.157 L978.038 108.526 L962.191 109.749 L946.344 110.801 L930.497 110.904 L914.651 111.177 L898.804 111.479 L882.957 112.195 L867.11 112.658 L851.263 112.216 L835.416 109.416  Z" fill="#aeaeae" fill-rule="evenodd" fill-opacity="0.5"/>
<polyline clip-path="url(#clip442)" style="stroke:#aeaeae; stroke-linecap:round; stroke-linejoin:round; stroke-width:0; stroke-opacity:1; fill:none" points="835.416,131.667 851.263,130.774 867.11,130.269 882.957,130.25 898.804,130.736 914.651,131.824 930.497,132.721 946.344,133.583 962.191,133.18 978.038,132.02 993.885,131.312 1009.73,130.172 1025.58,128.42 1041.43,126.509 1057.27,124.745 1073.12,123.463 1088.97,122.674 1104.81,122.711 1120.66,123.428 1136.51,124.972 1152.35,126.74 1168.2,128.413 1184.05,129.372 1199.89,129.619 1215.74,129.473 1231.59,129.923 1247.43,130.277 1263.28,130.816 1279.13,131.686 1294.97,133.06 1310.82,134.159 1326.67,135.119 1342.52,134.643 1358.36,133.296 1374.21,132.415 1390.06,131.139 1405.9,129.26 1421.75,127.213 1437.6,125.313 1453.44,123.908 1469.29,123.007 1485.14,122.956 1500.98,123.621 1516.83,125.164 1532.68,126.954 1548.52,128.66 1564.37,129.652 1580.22,129.921 1596.06,129.782 1611.91,130.237 1627.76,130.59 1643.61,131.132 1659.45,132.017 1675.3,133.416 1691.15,134.537 1706.99,135.512 1722.84,134.998 1738.69,133.594 1754.53,132.677 1770.38,131.371 1786.23,129.451 1802.07,127.35 1817.92,125.392 1833.77,123.933 1849.61,122.991 1865.46,122.92 1881.31,123.582 1897.15,125.143 1913,126.964 1928.85,128.708 1944.7,129.733 1960.54,130.022 1976.39,129.887 1992.24,130.342 2008.08,130.687 2023.93,131.224 2039.78,132.111 2055.62,133.527 2071.47,134.673 2087.32,135.675 2103.16,135.181 2119.01,133.773 2134.86,132.849 2150.7,131.532 2166.55,129.585 2182.4,127.442 2198.24,125.436 2214.09,123.939 2229.94,122.971 2245.79,122.89 2261.63,123.552 2277.48,125.128 2293.33,126.976 2309.17,128.751 2325.02,129.804 2340.87,130.111 2356.71,129.978 2372.56,130.435 2388.41,130.773 2404.25,131.304 2420.1,132.191 2435.95,133.614 2451.79,134.769 2467.64,135.774 2483.49,135.284 2499.33,133.878 2515.18,132.964 2531.03,131.655 2546.88,129.697 2562.72,127.526 2578.57,125.489 2594.42,123.962 2610.26,122.973 2626.11,122.884 2641.96,123.55 2657.8,125.144 2673.65,127.017 2689.5,128.822 2705.34,129.9 2721.19,130.222 2737.04,130.093 2752.88,130.547 2768.73,130.876 2784.58,131.4 2800.42,132.287 2816.27,133.721 2832.12,134.893 2847.97,135.924 2863.81,135.447 2879.66,134.042 2895.51,133.134 2911.35,131.825 2927.2,129.85 2943.05,127.648 2958.89,125.576 2974.74,124.023 2990.59,123.02 3006.43,122.922 3022.28,123.592 3038.13,125.198 3053.97,127.089 3069.82,128.916 3085.67,130.015 3101.51,130.351 3117.36,130.225 3133.21,130.677 3149.06,130.996 3164.9,131.512 3180.75,132.397 3196.6,133.838 3212.44,135.019 3228.29,136.066 3244.14,135.6 3259.98,134.204 3275.83,133.306 3291.68,132 3307.52,130.013 3323.37,127.786 3339.22,125.684 3355.06,124.105 3370.91,123.084 3386.76,122.982 3402.6,123.653 3418.45,125.272 3434.3,127.182 3450.15,129.035 3465.99,130.155 3481.84,130.506 3497.69,130.382 3513.53,130.831 3529.38,131.142 3545.23,131.651 3561.07,132.536 3576.92,133.981 3592.77,135.174 3608.61,136.237 3624.46,135.78 3640.31,134.387 3656.15,133.5 3672,132.197 3687.85,130.197 3703.69,127.942 3719.54,125.812 3735.39,124.211 3751.24,123.168 3767.08,123.06 3782.93,123.736 3798.78,125.369 3814.62,127.297 3830.47,129.173 3846.32,130.315 3862.16,130.678 3878.01,130.556 3893.86,131.002 3909.7,131.306 3925.55,131.807 3941.4,132.689 3957.24,134.142 3973.09,135.344 3988.94,136.424 4004.78,135.986 4020.63,134.607 4036.48,133.728 4052.33,132.431 4068.17,130.419 4084.02,128.136 4099.87,125.97 4115.71,124.34 4131.56,123.283 4147.41,123.169 4163.25,123.846 4179.1,125.492 4194.95,127.44 4210.79,129.341 4226.64,130.503 4242.49,130.879 4258.33,130.759 4274.18,131.2 4290.03,131.492 4305.87,131.984 4321.72,132.864 4337.57,134.324 4353.42,135.545 4369.26,136.643 4385.11,136.219 4400.96,134.853 4416.8,133.988 4432.65,132.697 4448.5,130.672 4464.34,128.362 4480.19,126.161 4496.04,124.502 4511.88,123.426 4527.73,123.305 4543.58,123.985 4559.42,125.642 4575.27,127.609 4591.12,129.534 4606.96,130.72 4622.81,131.114 4638.66,131.008 "/>
<path clip-path="url(#clip442)" d="M835.416 167.041 L851.263 169.299 L867.11 171.468 L882.957 178.19 L898.804 184.463 L914.651 193.012 L930.497 203.443 L946.344 211.749 L962.191 211.555 L978.038 207.118 L993.885 204.922 L1009.73 200.799 L1025.58 193.228 L1041.43 181.21 L1057.27 170.783 L1073.12 161.808 L1088.97 157.131 L1104.81 157.281 L1120.66 159.498 L1136.51 167.5 L1152.35 177.621 L1168.2 188.397 L1184.05 194.458 L1199.89 197.263 L1215.74 197.717 L1231.59 206.722 L1247.43 209.008 L1263.28 213.83 L1279.13 221.256 L1294.97 233.848 L1310.82 242.039 L1326.67 248.035 L1342.52 246.842 L1358.36 237.435 L1374.21 229.289 L1390.06 221.519 L1405.9 214.307 L1421.75 200.826 L1437.6 188.186 L1453.44 178.537 L1469.29 170.514 L1485.14 168.592 L1500.98 170.809 L1516.83 177.759 L1532.68 188.161 L1548.52 197.534 L1564.37 203.572 L1580.22 205.575 L1596.06 207.799 L1611.91 214.73 L1627.76 216.89 L1643.61 222.76 L1659.45 229.647 L1675.3 242.323 L1691.15 251.306 L1706.99 255.967 L1722.84 255.015 L1738.69 244.893 L1754.53 235.874 L1770.38 227.018 L1786.23 219.835 L1802.07 205.212 L1817.92 191.801 L1833.77 182.693 L1849.61 174.407 L1865.46 171.349 L1881.31 173.08 L1897.15 180.628 L1913 190.289 L1928.85 199.588 L1944.7 205.61 L1960.54 208.099 L1976.39 211.01 L1992.24 217.164 L2008.08 219.173 L2023.93 226.317 L2039.78 232.717 L2055.62 245.433 L2071.47 253.647 L2087.32 258.042 L2103.16 257.746 L2119.01 247.256 L2134.86 238.456 L2150.7 229.18 L2166.55 221.7 L2182.4 206.871 L2198.24 192.789 L2214.09 184.527 L2229.94 175.796 L2245.79 172.525 L2261.63 174.372 L2277.48 181.548 L2293.33 190.819 L2309.17 200.664 L2325.02 206.72 L2340.87 209.543 L2356.71 212.374 L2372.56 218.438 L2388.41 220.085 L2404.25 227.431 L2420.1 233.991 L2435.95 246.977 L2451.79 254.558 L2467.64 258.67 L2483.49 259.065 L2499.33 248.693 L2515.18 239.879 L2531.03 230.946 L2546.88 222.328 L2562.72 207.669 L2578.57 192.996 L2594.42 185.154 L2610.26 176.099 L2626.11 172.602 L2641.96 174.432 L2657.8 181.539 L2673.65 191.189 L2689.5 201.089 L2705.34 207.082 L2721.19 210.595 L2737.04 212.899 L2752.88 218.988 L2768.73 220.357 L2784.58 227.577 L2800.42 235.02 L2816.27 247.26 L2832.12 254.45 L2847.97 259.701 L2863.81 259.347 L2879.66 250.323 L2895.51 241.157 L2911.35 232.746 L2927.2 222.338 L2943.05 208.149 L2958.89 193.066 L2974.74 185.298 L2990.59 176.541 L3006.43 172.816 L3022.28 174.127 L3038.13 181.766 L3053.97 190.984 L3069.82 201.239 L3085.67 206.765 L3101.51 211.325 L3117.36 213.267 L3133.21 218.878 L3149.06 220.419 L3164.9 227.402 L3180.75 235.184 L3196.6 247.385 L3212.44 254.484 L3228.29 260.791 L3244.14 259.428 L3259.98 251.474 L3275.83 242.06 L3291.68 234.335 L3307.52 222.212 L3323.37 208.743 L3339.22 192.864 L3355.06 185.868 L3370.91 177.491 L3386.76 172.808 L3402.6 174.376 L3418.45 181.631 L3434.3 190.701 L3450.15 200.967 L3465.99 206.931 L3481.84 211.897 L3497.69 213.39 L3513.53 218.523 L3529.38 220.167 L3545.23 227.191 L3561.07 234.739 L3576.92 247.268 L3592.77 254.438 L3608.61 262.128 L3624.46 260.616 L3640.31 252.159 L3656.15 243.144 L3672 235.504 L3687.85 222.925 L3703.69 208.99 L3719.54 193.293 L3735.39 186.014 L3751.24 178.226 L3767.08 173.069 L3782.93 174.454 L3798.78 181.355 L3814.62 190.636 L3830.47 200.951 L3846.32 207.061 L3862.16 211.991 L3878.01 214.217 L3893.86 218.022 L3909.7 220.102 L3925.55 227.273 L3941.4 234.281 L3957.24 246.64 L3973.09 254.047 L3988.94 262.931 L4004.78 261.662 L4020.63 252.417 L4036.48 243.576 L4052.33 236.045 L4068.17 223.111 L4084.02 209.618 L4099.87 194.428 L4115.71 186.423 L4131.56 178.572 L4147.41 173.038 L4163.25 174.231 L4179.1 181.063 L4194.95 190.473 L4210.79 200.814 L4226.64 207.348 L4242.49 212.14 L4258.33 215.734 L4274.18 217.891 L4290.03 219.984 L4305.87 227.385 L4321.72 234.467 L4337.57 246.185 L4353.42 255.104 L4369.26 263.848 L4385.11 262.569 L4400.96 252.538 L4416.8 243.712 L4432.65 236.493 L4448.5 222.821 L4464.34 210.55 L4480.19 195.344 L4496.04 186.734 L4511.88 178.842 L4527.73 173.59 L4543.58 174.471 L4559.42 180.832 L4575.27 190.271 L4591.12 200.625 L4606.96 207.76 L4622.81 212.459 L4638.66 216.927 L4638.66 95.2377 L4622.81 96.0005 L4606.96 96.1122 L4591.12 95.3327 L4575.27 93.5658 L4559.42 91.4552 L4543.58 89.3774 L4527.73 88.0862 L4511.88 87.4847 L4496.04 87.9435 L4480.19 89.0189 L4464.34 90.6079 L4448.5 92.2049 L4432.65 93.2492 L4416.8 93.4342 L4400.96 93.3475 L4385.11 94.2356 L4369.26 94.8904 L4353.42 94.2587 L4337.57 93.7471 L4321.72 93.2127 L4305.87 93.3807 L4290.03 93.9362 L4274.18 94.6143 L4258.33 95.062 L4242.49 95.8819 L4226.64 96.0695 L4210.79 95.2935 L4194.95 93.5398 L4179.1 91.3749 L4163.25 89.2785 L4147.41 88.052 L4131.56 87.6457 L4115.71 88.0125 L4099.87 89.0449 L4084.02 90.616 L4068.17 92.154 L4052.33 93.3098 L4036.48 93.5392 L4020.63 93.4963 L4004.78 94.3496 L3988.94 94.8749 L3973.09 94.3505 L3957.24 93.9727 L3941.4 93.5247 L3925.55 93.6448 L3909.7 94.0994 L3893.86 94.6514 L3878.01 94.9756 L3862.16 95.7893 L3846.32 96.0041 L3830.47 95.3237 L3814.62 93.6018 L3798.78 91.5031 L3782.93 89.4542 L3767.08 88.2458 L3751.24 87.6741 L3735.39 88.083 L3719.54 89.243 L3703.69 90.7241 L3687.85 92.1325 L3672 93.2573 L3656.15 93.6197 L3640.31 93.6046 L3624.46 94.4789 L3608.61 94.9519 L3592.77 94.4081 L3576.92 94.0324 L3561.07 93.5405 L3545.23 93.6372 L3529.38 94.1312 L3513.53 94.7664 L3497.69 95.1554 L3481.84 95.9465 L3465.99 96.1553 L3450.15 95.4759 L3434.3 93.8102 L3418.45 91.7764 L3402.6 89.7346 L3386.76 88.443 L3370.91 87.8933 L3355.06 88.372 L3339.22 89.4283 L3323.37 90.92 L3307.52 92.4477 L3291.68 93.5523 L3275.83 93.906 L3259.98 93.8864 L3244.14 94.7433 L3228.29 95.1799 L3212.44 94.6729 L3196.6 94.3802 L3180.75 93.8884 L3164.9 93.9761 L3149.06 94.4296 L3133.21 94.9951 L3117.36 95.3624 L3101.51 96.1994 L3085.67 96.478 L3069.82 95.8278 L3053.97 94.1424 L3038.13 92.1143 L3022.28 90.1355 L3006.43 88.9397 L2990.59 88.4414 L2974.74 88.9382 L2958.89 90.0218 L2943.05 91.4993 L2927.2 93.0205 L2911.35 94.1225 L2895.51 94.3088 L2879.66 94.3136 L2863.81 95.2382 L2847.97 95.7084 L2832.12 95.2069 L2816.27 94.8439 L2800.42 94.3003 L2784.58 94.3681 L2768.73 94.7987 L2752.88 95.392 L2737.04 95.7841 L2721.19 96.618 L2705.34 96.9158 L2689.5 96.3016 L2673.65 94.7374 L2657.8 92.7809 L2641.96 90.7912 L2626.11 89.7062 L2610.26 89.3221 L2594.42 89.7963 L2578.57 90.8161 L2562.72 92.3781 L2546.88 93.9539 L2531.03 95.0841 L2515.18 95.3626 L2499.33 95.365 L2483.49 96.0825 L2467.64 96.4987 L2451.79 95.937 L2435.95 95.6299 L2420.1 95.0915 L2404.25 95.1125 L2388.41 95.5116 L2372.56 96.0685 L2356.71 96.4194 L2340.87 97.2716 L2325.02 97.5946 L2309.17 96.9975 L2293.33 95.4917 L2277.48 93.5794 L2261.63 91.7214 L2245.79 90.6612 L2229.94 90.3239 L2214.09 90.8596 L2198.24 91.8167 L2182.4 93.3665 L2166.55 94.9364 L2150.7 96.0708 L2134.86 96.3116 L2119.01 96.3863 L2103.16 97.1221 L2087.32 97.6916 L2071.47 97.1139 L2055.62 96.6452 L2039.78 96.0532 L2023.93 96.0982 L2008.08 96.5013 L1992.24 97.112 L1976.39 97.5448 L1960.54 98.4577 L1944.7 98.8551 L1928.85 98.3686 L1913 96.8217 L1897.15 94.9884 L1881.31 93.2126 L1865.46 92.1945 L1849.61 91.8002 L1833.77 92.377 L1817.92 93.4776 L1802.07 94.9984 L1786.23 96.5817 L1770.38 97.7292 L1754.53 98.2178 L1738.69 98.1126 L1722.84 98.9141 L1706.99 99.4988 L1691.15 98.971 L1675.3 98.5671 L1659.45 98.0706 L1643.61 98.1935 L1627.76 98.6634 L1611.91 99.2004 L1596.06 99.6046 L1580.22 100.497 L1564.37 100.911 L1548.52 100.46 L1532.68 99.1054 L1516.83 97.391 L1500.98 95.7145 L1485.14 94.8292 L1469.29 94.594 L1453.44 95.2447 L1437.6 96.4335 L1421.75 98.2396 L1405.9 99.9755 L1390.06 101.327 L1374.21 101.991 L1358.36 102.106 L1342.52 103.112 L1326.67 103.743 L1310.82 103.313 L1294.97 102.876 L1279.13 102.433 L1263.28 102.532 L1247.43 102.986 L1231.59 103.612 L1215.74 104.08 L1199.89 105 L1184.05 105.461 L1168.2 105.245 L1152.35 104.043 L1136.51 102.567 L1120.66 101.126 L1104.81 100.536 L1088.97 100.586 L1073.12 101.655 L1057.27 103.304 L1041.43 105.42 L1025.58 107.605 L1009.73 109.52 L993.885 110.582 L978.038 111.263 L962.191 112.689 L946.344 113.76 L930.497 113.816 L914.651 114.088 L898.804 114.215 L882.957 114.827 L867.11 116.185 L851.263 117.411 L835.416 118.128  Z" fill="#757575" fill-rule="evenodd" fill-opacity="0.5"/>
<polyline clip-path="url(#clip442)" style="stroke:#757575; stroke-linecap:round; stroke-linejoin:round; stroke-width:0; stroke-opacity:1; fill:none" points="835.416,131.667 851.263,130.774 867.11,130.269 882.957,130.25 898.804,130.736 914.651,131.824 930.497,132.721 946.344,133.583 962.191,133.18 978.038,132.02 993.885,131.312 1009.73,130.172 1025.58,128.42 1041.43,126.509 1057.27,124.745 1073.12,123.463 1088.97,122.674 1104.81,122.711 1120.66,123.428 1136.51,124.972 1152.35,126.74 1168.2,128.413 1184.05,129.372 1199.89,129.619 1215.74,129.473 1231.59,129.923 1247.43,130.277 1263.28,130.816 1279.13,131.686 1294.97,133.06 1310.82,134.159 1326.67,135.119 1342.52,134.643 1358.36,133.296 1374.21,132.415 1390.06,131.139 1405.9,129.26 1421.75,127.213 1437.6,125.313 1453.44,123.908 1469.29,123.007 1485.14,122.956 1500.98,123.621 1516.83,125.164 1532.68,126.954 1548.52,128.66 1564.37,129.652 1580.22,129.921 1596.06,129.782 1611.91,130.237 1627.76,130.59 1643.61,131.132 1659.45,132.017 1675.3,133.416 1691.15,134.537 1706.99,135.512 1722.84,134.998 1738.69,133.594 1754.53,132.677 1770.38,131.371 1786.23,129.451 1802.07,127.35 1817.92,125.392 1833.77,123.933 1849.61,122.991 1865.46,122.92 1881.31,123.582 1897.15,125.143 1913,126.964 1928.85,128.708 1944.7,129.733 1960.54,130.022 1976.39,129.887 1992.24,130.342 2008.08,130.687 2023.93,131.224 2039.78,132.111 2055.62,133.527 2071.47,134.673 2087.32,135.675 2103.16,135.181 2119.01,133.773 2134.86,132.849 2150.7,131.532 2166.55,129.585 2182.4,127.442 2198.24,125.436 2214.09,123.939 2229.94,122.971 2245.79,122.89 2261.63,123.552 2277.48,125.128 2293.33,126.976 2309.17,128.751 2325.02,129.804 2340.87,130.111 2356.71,129.978 2372.56,130.435 2388.41,130.773 2404.25,131.304 2420.1,132.191 2435.95,133.614 2451.79,134.769 2467.64,135.774 2483.49,135.284 2499.33,133.878 2515.18,132.964 2531.03,131.655 2546.88,129.697 2562.72,127.526 2578.57,125.489 2594.42,123.962 2610.26,122.973 2626.11,122.884 2641.96,123.55 2657.8,125.144 2673.65,127.017 2689.5,128.822 2705.34,129.9 2721.19,130.222 2737.04,130.093 2752.88,130.547 2768.73,130.876 2784.58,131.4 2800.42,132.287 2816.27,133.721 2832.12,134.893 2847.97,135.924 2863.81,135.447 2879.66,134.042 2895.51,133.134 2911.35,131.825 2927.2,129.85 2943.05,127.648 2958.89,125.576 2974.74,124.023 2990.59,123.02 3006.43,122.922 3022.28,123.592 3038.13,125.198 3053.97,127.089 3069.82,128.916 3085.67,130.015 3101.51,130.351 3117.36,130.225 3133.21,130.677 3149.06,130.996 3164.9,131.512 3180.75,132.397 3196.6,133.838 3212.44,135.019 3228.29,136.066 3244.14,135.6 3259.98,134.204 3275.83,133.306 3291.68,132 3307.52,130.013 3323.37,127.786 3339.22,125.684 3355.06,124.105 3370.91,123.084 3386.76,122.982 3402.6,123.653 3418.45,125.272 3434.3,127.182 3450.15,129.035 3465.99,130.155 3481.84,130.506 3497.69,130.382 3513.53,130.831 3529.38,131.142 3545.23,131.651 3561.07,132.536 3576.92,133.981 3592.77,135.174 3608.61,136.237 3624.46,135.78 3640.31,134.387 3656.15,133.5 3672,132.197 3687.85,130.197 3703.69,127.942 3719.54,125.812 3735.39,124.211 3751.24,123.168 3767.08,123.06 3782.93,123.736 3798.78,125.369 3814.62,127.297 3830.47,129.173 3846.32,130.315 3862.16,130.678 3878.01,130.556 3893.86,131.002 3909.7,131.306 3925.55,131.807 3941.4,132.689 3957.24,134.142 3973.09,135.344 3988.94,136.424 4004.78,135.986 4020.63,134.607 4036.48,133.728 4052.33,132.431 4068.17,130.419 4084.02,128.136 4099.87,125.97 4115.71,124.34 4131.56,123.283 4147.41,123.169 4163.25,123.846 4179.1,125.492 4194.95,127.44 4210.79,129.341 4226.64,130.503 4242.49,130.879 4258.33,130.759 4274.18,131.2 4290.03,131.492 4305.87,131.984 4321.72,132.864 4337.57,134.324 4353.42,135.545 4369.26,136.643 4385.11,136.219 4400.96,134.853 4416.8,133.988 4432.65,132.697 4448.5,130.672 4464.34,128.362 4480.19,126.161 4496.04,124.502 4511.88,123.426 4527.73,123.305 4543.58,123.985 4559.42,125.642 4575.27,127.609 4591.12,129.534 4606.96,130.72 4622.81,131.114 4638.66,131.008 "/>
<path clip-path="url(#clip442)" d="M835.416 149.059 L851.263 148.816 L867.11 150.362 L882.957 152.965 L898.804 158.022 L914.651 165.162 L930.497 169.873 L946.344 175.104 L962.191 174.449 L978.038 170.69 L993.885 167.833 L1009.73 162.585 L1025.58 155.801 L1041.43 149.917 L1057.27 144.614 L1073.12 140.612 L1088.97 137.169 L1104.81 137.363 L1120.66 139.697 L1136.51 145.106 L1152.35 150.956 L1168.2 157.792 L1184.05 162.008 L1199.89 164.271 L1215.74 164.853 L1231.59 166.905 L1247.43 170.225 L1263.28 172.958 L1279.13 178.406 L1294.97 186.21 L1310.82 191.614 L1326.67 197.232 L1342.52 194.761 L1358.36 188.255 L1374.21 182.648 L1390.06 175.777 L1405.9 167.425 L1421.75 159.99 L1437.6 153.374 L1453.44 147.953 L1469.29 144.416 L1485.14 144.034 L1500.98 145.957 L1516.83 150.612 L1532.68 157.387 L1548.52 163.214 L1564.37 167.433 L1580.22 169.509 L1596.06 169.166 L1611.91 171.55 L1627.76 174.296 L1643.61 177.397 L1659.45 183.185 L1675.3 190.705 L1691.15 196.482 L1706.99 201.012 L1722.84 198.346 L1738.69 191.135 L1754.53 185.297 L1770.38 178.265 L1786.23 169.269 L1802.07 162.229 L1817.92 155.349 L1833.77 149.592 L1849.61 145.568 L1865.46 145.026 L1881.31 147.053 L1897.15 151.947 L1913 158.29 L1928.85 164.292 L1944.7 168.77 L1960.54 170.706 L1976.39 170.315 L1992.24 172.467 L2008.08 175.603 L2023.93 178.245 L2039.78 184.114 L2055.62 191.504 L2071.47 197.546 L2087.32 202.328 L2103.16 199.576 L2119.01 192.043 L2134.86 185.84 L2150.7 178.878 L2166.55 170.286 L2182.4 163.357 L2198.24 155.509 L2214.09 149.97 L2229.94 145.879 L2245.79 145.076 L2261.63 147.573 L2277.48 152.222 L2293.33 158.516 L2309.17 164.45 L2325.02 169.169 L2340.87 171.282 L2356.71 170.838 L2372.56 172.948 L2388.41 175.729 L2404.25 178.598 L2420.1 184.713 L2435.95 191.567 L2451.79 198.635 L2467.64 202.198 L2483.49 199.443 L2499.33 192.76 L2515.18 185.953 L2531.03 178.969 L2546.88 170.611 L2562.72 163.591 L2578.57 155.873 L2594.42 150.082 L2610.26 146.121 L2626.11 145.206 L2641.96 147.763 L2657.8 152.448 L2673.65 158.688 L2689.5 164.661 L2705.34 169.319 L2721.19 171.565 L2737.04 171.187 L2752.88 172.982 L2768.73 175.934 L2784.58 179.086 L2800.42 185.091 L2816.27 192.063 L2832.12 199.129 L2847.97 203.214 L2863.81 200.482 L2879.66 193.341 L2895.51 185.944 L2911.35 179.803 L2927.2 171.133 L2943.05 163.688 L2958.89 156.162 L2974.74 150.21 L2990.59 146.338 L3006.43 145.571 L3022.28 147.541 L3038.13 152.664 L3053.97 158.86 L3069.82 165.044 L3085.67 169.5 L3101.51 171.931 L3117.36 171.566 L3133.21 173.406 L3149.06 176.296 L3164.9 179.7 L3180.75 185.438 L3196.6 192.397 L3212.44 199.553 L3228.29 203.042 L3244.14 200.497 L3259.98 193.287 L3275.83 186.407 L3291.68 180.49 L3307.52 171.7 L3323.37 163.544 L3339.22 156.245 L3355.06 150.457 L3370.91 146.671 L3386.76 145.547 L3402.6 147.607 L3418.45 153.005 L3434.3 159.021 L3450.15 165.598 L3465.99 169.986 L3481.84 172.226 L3497.69 172.078 L3513.53 173.916 L3529.38 176.507 L3545.23 180.526 L3561.07 185.705 L3576.92 192.809 L3592.77 199.377 L3608.61 203.615 L3624.46 200.935 L3640.31 192.901 L3656.15 186.215 L3672 181.086 L3687.85 172.117 L3703.69 163.75 L3719.54 156.492 L3735.39 150.781 L3751.24 146.807 L3767.08 146.033 L3782.93 147.947 L3798.78 153.191 L3814.62 159.41 L3830.47 165.883 L3846.32 170.427 L3862.16 172.458 L3878.01 172.394 L3893.86 173.964 L3909.7 176.52 L3925.55 180.586 L3941.4 185.939 L3957.24 193.321 L3973.09 199.196 L3988.94 203.836 L4004.78 200.989 L4020.63 192.849 L4036.48 186.297 L4052.33 182.002 L4068.17 172.513 L4084.02 163.996 L4099.87 156.908 L4115.71 151.038 L4131.56 146.823 L4147.41 146.043 L4163.25 148.122 L4179.1 153.515 L4194.95 159.645 L4210.79 166.299 L4226.64 170.871 L4242.49 172.785 L4258.33 172.894 L4274.18 174.503 L4290.03 176.749 L4305.87 180.542 L4321.72 185.942 L4337.57 193.551 L4353.42 199.2 L4369.26 204.252 L4385.11 201.825 L4400.96 192.711 L4416.8 186.409 L4432.65 182.247 L4448.5 172.932 L4464.34 164.524 L4480.19 157.159 L4496.04 150.991 L4511.88 146.778 L4527.73 146.201 L4543.58 148.398 L4559.42 153.738 L4575.27 160.123 L4591.12 166.729 L4606.96 171.37 L4622.81 173.156 L4638.66 172.712 L4638.66 99.3234 L4622.81 100.043 L4606.96 100.144 L4591.12 99.2576 L4575.27 97.5354 L4559.42 95.3383 L4543.58 93.2118 L4527.73 91.9448 L4511.88 91.6487 L4496.04 92.3221 L4480.19 93.553 L4464.34 95.1649 L4448.5 96.7248 L4432.65 97.8528 L4416.8 97.9746 L4400.96 97.8295 L4385.11 98.7475 L4369.26 99.2079 L4353.42 98.65 L4337.57 98.1627 L4321.72 97.6027 L4305.87 97.7714 L4290.03 98.2675 L4274.18 98.7379 L4258.33 99.095 L4242.49 99.8669 L4226.64 100.034 L4210.79 99.2301 L4194.95 97.3757 L4179.1 95.2799 L4163.25 93.2947 L4147.41 92.0444 L4131.56 91.742 L4115.71 92.3953 L4099.87 93.4289 L4084.02 94.9998 L4068.17 96.5473 L4052.33 97.5736 L4036.48 97.8914 L4020.63 97.8086 L4004.78 98.637 L3988.94 99.1224 L3973.09 98.4577 L3957.24 98.0631 L3941.4 97.5019 L3925.55 97.6172 L3909.7 97.9895 L3893.86 98.6448 L3878.01 98.9193 L3862.16 99.6458 L3846.32 99.8674 L3830.47 99.1593 L3814.62 97.4527 L3798.78 95.4483 L3782.93 93.4045 L3767.08 92.1892 L3751.24 91.7911 L3735.39 92.3756 L3719.54 93.4533 L3703.69 94.9733 L3687.85 96.5453 L3672 97.5734 L3656.15 97.865 L3640.31 97.775 L3624.46 98.5542 L3608.61 99.2309 L3592.77 98.638 L3576.92 98.1411 L3561.07 97.5446 L3545.23 97.6273 L3529.38 98.1275 L3513.53 98.683 L3497.69 98.9723 L3481.84 99.7678 L3465.99 99.9472 L3450.15 99.207 L3434.3 97.5526 L3418.45 95.5288 L3402.6 93.5326 L3386.76 92.3164 L3370.91 91.8845 L3355.06 92.4176 L3339.22 93.5332 L3323.37 95.1427 L3307.52 96.7033 L3291.68 97.7693 L3275.83 98.1313 L3259.98 97.8901 L3244.14 98.5761 L3228.29 99.0527 L3212.44 98.6022 L3196.6 98.3657 L3180.75 97.7995 L3164.9 97.7726 L3149.06 98.2216 L3133.21 98.8732 L3117.36 99.1145 L3101.51 99.8795 L3085.67 100.069 L3069.82 99.2875 L3053.97 97.6223 L3038.13 95.6762 L3022.28 93.6775 L3006.43 92.4462 L2990.59 92.07 L2974.74 92.554 L2958.89 93.785 L2943.05 95.3395 L2927.2 96.9804 L2911.35 98.0874 L2895.51 98.3328 L2879.66 98.1353 L2863.81 98.9097 L2847.97 99.4814 L2832.12 98.9304 L2816.27 98.484 L2800.42 97.9865 L2784.58 98.0916 L2768.73 98.5036 L2752.88 99.0388 L2737.04 99.3463 L2721.19 100.267 L2705.34 100.491 L2689.5 99.7695 L2673.65 98.0444 L2657.8 95.978 L2641.96 94.0685 L2626.11 92.9883 L2610.26 92.5956 L2594.42 93.1123 L2578.57 94.0422 L2562.72 95.4982 L2546.88 96.9905 L2531.03 98.0962 L2515.18 98.436 L2499.33 98.4873 L2483.49 99.311 L2467.64 99.8645 L2451.79 99.2722 L2435.95 98.8351 L2420.1 98.3196 L2404.25 98.3126 L2388.41 98.8058 L2372.56 99.3936 L2356.71 99.6547 L2340.87 100.471 L2325.02 100.77 L2309.17 100.184 L2293.33 98.5732 L2277.48 96.607 L2261.63 94.6895 L2245.79 93.5167 L2229.94 93.1671 L2214.09 93.7356 L2198.24 94.7859 L2182.4 96.3715 L2166.55 97.9331 L2150.7 99.0285 L2134.86 99.2457 L2119.01 99.1837 L2103.16 99.9389 L2087.32 100.484 L2071.47 100.034 L2055.62 99.6831 L2039.78 99.1573 L2023.93 99.1967 L2008.08 99.6191 L1992.24 100.076 L1976.39 100.288 L1960.54 101.212 L1944.7 101.541 L1928.85 100.903 L1913 99.3408 L1897.15 97.47 L1881.31 95.6168 L1865.46 94.5477 L1849.61 94.1678 L1833.77 94.8097 L1817.92 95.973 L1802.07 97.4367 L1786.23 99.0165 L1770.38 100.25 L1754.53 100.571 L1738.69 100.504 L1722.84 101.485 L1706.99 101.988 L1691.15 101.439 L1675.3 101.103 L1659.45 100.582 L1643.61 100.648 L1627.76 101.052 L1611.91 101.587 L1596.06 101.928 L1580.22 102.78 L1564.37 103.099 L1548.52 102.58 L1532.68 101.118 L1516.83 99.274 L1500.98 97.4493 L1485.14 96.5025 L1469.29 96.2544 L1453.44 96.9952 L1437.6 98.2869 L1421.75 99.9621 L1405.9 101.758 L1390.06 103.029 L1374.21 103.605 L1358.36 103.684 L1342.52 104.589 L1326.67 105.07 L1310.82 104.544 L1294.97 104.191 L1279.13 103.693 L1263.28 103.829 L1247.43 104.254 L1231.59 104.86 L1215.74 105.25 L1199.89 106.158 L1184.05 106.597 L1168.2 106.238 L1152.35 104.964 L1136.51 103.45 L1120.66 102.073 L1104.81 101.382 L1088.97 101.419 L1073.12 102.426 L1057.27 103.979 L1041.43 106.117 L1025.58 108.327 L1009.73 110.274 L993.885 111.498 L978.038 112.215 L962.191 113.777 L946.344 114.921 L930.497 115 L914.651 115.275 L898.804 115.239 L882.957 116.009 L867.11 117.293 L851.263 118.77 L835.416 120.426  Z" fill="#414141" fill-rule="evenodd" fill-opacity="0.5"/>
<polyline clip-path="url(#clip442)" style="stroke:#414141; stroke-linecap:round; stroke-linejoin:round; stroke-width:0; stroke-opacity:1; fill:none" points="835.416,131.667 851.263,130.774 867.11,130.269 882.957,130.25 898.804,130.736 914.651,131.824 930.497,132.721 946.344,133.583 962.191,133.18 978.038,132.02 993.885,131.312 1009.73,130.172 1025.58,128.42 1041.43,126.509 1057.27,124.745 1073.12,123.463 1088.97,122.674 1104.81,122.711 1120.66,123.428 1136.51,124.972 1152.35,126.74 1168.2,128.413 1184.05,129.372 1199.89,129.619 1215.74,129.473 1231.59,129.923 1247.43,130.277 1263.28,130.816 1279.13,131.686 1294.97,133.06 1310.82,134.159 1326.67,135.119 1342.52,134.643 1358.36,133.296 1374.21,132.415 1390.06,131.139 1405.9,129.26 1421.75,127.213 1437.6,125.313 1453.44,123.908 1469.29,123.007 1485.14,122.956 1500.98,123.621 1516.83,125.164 1532.68,126.954 1548.52,128.66 1564.37,129.652 1580.22,129.921 1596.06,129.782 1611.91,130.237 1627.76,130.59 1643.61,131.132 1659.45,132.017 1675.3,133.416 1691.15,134.537 1706.99,135.512 1722.84,134.998 1738.69,133.594 1754.53,132.677 1770.38,131.371 1786.23,129.451 1802.07,127.35 1817.92,125.392 1833.77,123.933 1849.61,122.991 1865.46,122.92 1881.31,123.582 1897.15,125.143 1913,126.964 1928.85,128.708 1944.7,129.733 1960.54,130.022 1976.39,129.887 1992.24,130.342 2008.08,130.687 2023.93,131.224 2039.78,132.111 2055.62,133.527 2071.47,134.673 2087.32,135.675 2103.16,135.181 2119.01,133.773 2134.86,132.849 2150.7,131.532 2166.55,129.585 2182.4,127.442 2198.24,125.436 2214.09,123.939 2229.94,122.971 2245.79,122.89 2261.63,123.552 2277.48,125.128 2293.33,126.976 2309.17,128.751 2325.02,129.804 2340.87,130.111 2356.71,129.978 2372.56,130.435 2388.41,130.773 2404.25,131.304 2420.1,132.191 2435.95,133.614 2451.79,134.769 2467.64,135.774 2483.49,135.284 2499.33,133.878 2515.18,132.964 2531.03,131.655 2546.88,129.697 2562.72,127.526 2578.57,125.489 2594.42,123.962 2610.26,122.973 2626.11,122.884 2641.96,123.55 2657.8,125.144 2673.65,127.017 2689.5,128.822 2705.34,129.9 2721.19,130.222 2737.04,130.093 2752.88,130.547 2768.73,130.876 2784.58,131.4 2800.42,132.287 2816.27,133.721 2832.12,134.893 2847.97,135.924 2863.81,135.447 2879.66,134.042 2895.51,133.134 2911.35,131.825 2927.2,129.85 2943.05,127.648 2958.89,125.576 2974.74,124.023 2990.59,123.02 3006.43,122.922 3022.28,123.592 3038.13,125.198 3053.97,127.089 3069.82,128.916 3085.67,130.015 3101.51,130.351 3117.36,130.225 3133.21,130.677 3149.06,130.996 3164.9,131.512 3180.75,132.397 3196.6,133.838 3212.44,135.019 3228.29,136.066 3244.14,135.6 3259.98,134.204 3275.83,133.306 3291.68,132 3307.52,130.013 3323.37,127.786 3339.22,125.684 3355.06,124.105 3370.91,123.084 3386.76,122.982 3402.6,123.653 3418.45,125.272 3434.3,127.182 3450.15,129.035 3465.99,130.155 3481.84,130.506 3497.69,130.382 3513.53,130.831 3529.38,131.142 3545.23,131.651 3561.07,132.536 3576.92,133.981 3592.77,135.174 3608.61,136.237 3624.46,135.78 3640.31,134.387 3656.15,133.5 3672,132.197 3687.85,130.197 3703.69,127.942 3719.54,125.812 3735.39,124.211 3751.24,123.168 3767.08,123.06 3782.93,123.736 3798.78,125.369 3814.62,127.297 3830.47,129.173 3846.32,130.315 3862.16,130.678 3878.01,130.556 3893.86,131.002 3909.7,131.306 3925.55,131.807 3941.4,132.689 3957.24,134.142 3973.09,135.344 3988.94,136.424 4004.78,135.986 4020.63,134.607 4036.48,133.728 4052.33,132.431 4068.17,130.419 4084.02,128.136 4099.87,125.97 4115.71,124.34 4131.56,123.283 4147.41,123.169 4163.25,123.846 4179.1,125.492 4194.95,127.44 4210.79,129.341 4226.64,130.503 4242.49,130.879 4258.33,130.759 4274.18,131.2 4290.03,131.492 4305.87,131.984 4321.72,132.864 4337.57,134.324 4353.42,135.545 4369.26,136.643 4385.11,136.219 4400.96,134.853 4416.8,133.988 4432.65,132.697 4448.5,130.672 4464.34,128.362 4480.19,126.161 4496.04,124.502 4511.88,123.426 4527.73,123.305 4543.58,123.985 4559.42,125.642 4575.27,127.609 4591.12,129.534 4606.96,130.72 4622.81,131.114 4638.66,131.008 "/>
<path clip-path="url(#clip440)" d="M3895.96 853.161 L4618.37 853.161 L4618.37 334.761 L3895.96 334.761  Z" fill="#ffffff" fill-rule="evenodd" fill-opacity="1"/>
<polyline clip-path="url(#clip440)" style="stroke:#000000; stroke-linecap:round; stroke-linejoin:round; stroke-width:4; stroke-opacity:1; fill:none" points="3895.96,853.161 4618.37,853.161 4618.37,334.761 3895.96,334.761 3895.96,853.161 "/>
<polyline clip-path="url(#clip440)" style="stroke:#aeaeae; stroke-linecap:round; stroke-linejoin:round; stroke-width:2; stroke-opacity:1; fill:none" points="3940.76,464.361 4209.52,464.361 "/>
<path clip-path="url(#clip440)" d="M4255.99 497.723 L4275.09 497.723 L4275.09 431.809 L4254.31 435.976 L4254.31 425.328 L4274.97 421.161 L4286.66 421.161 L4286.66 497.723 L4305.76 497.723 L4305.76 507.561 L4255.99 507.561 L4255.99 497.723 Z" fill="#000000" fill-rule="nonzero" fill-opacity="1" /><path clip-path="url(#clip440)" d="M4354.37 428.858 Q4345.34 428.858 4340.77 437.77 Q4336.26 446.624 4336.26 464.448 Q4336.26 482.214 4340.77 491.126 Q4345.34 499.98 4354.37 499.98 Q4363.45 499.98 4367.97 491.126 Q4372.54 482.214 4372.54 464.448 Q4372.54 446.624 4367.97 437.77 Q4363.45 428.858 4354.37 428.858 M4354.37 419.599 Q4368.89 419.599 4376.53 431.115 Q4384.23 442.573 4384.23 464.448 Q4384.23 486.265 4376.53 497.781 Q4368.89 509.239 4354.37 509.239 Q4339.84 509.239 4332.15 497.781 Q4324.51 486.265 4324.51 464.448 Q4324.51 442.573 4332.15 431.115 Q4339.84 419.599 4354.37 419.599 Z" fill="#000000" fill-rule="nonzero" fill-opacity="1" /><path clip-path="url(#clip440)" d="M4429.77 428.858 Q4420.75 428.858 4416.17 437.77 Q4411.66 446.624 4411.66 464.448 Q4411.66 482.214 4416.17 491.126 Q4420.75 499.98 4429.77 499.98 Q4438.86 499.98 4443.37 491.126 Q4447.95 482.214 4447.95 464.448 Q4447.95 446.624 4443.37 437.77 Q4438.86 428.858 4429.77 428.858 M4429.77 419.599 Q4444.3 419.599 4451.94 431.115 Q4459.63 442.573 4459.63 464.448 Q4459.63 486.265 4451.94 497.781 Q4444.3 509.239 4429.77 509.239 Q4415.25 509.239 4407.55 497.781 Q4399.91 486.265 4399.91 464.448 Q4399.91 442.573 4407.55 431.115 Q4415.25 419.599 4429.77 419.599 Z" fill="#000000" fill-rule="nonzero" fill-opacity="1" /><path clip-path="url(#clip440)" d="M4553.67 469.541 Q4548.64 469.541 4545.75 473.823 Q4542.91 478.105 4542.91 485.744 Q4542.91 493.267 4545.75 497.608 Q4548.64 501.89 4553.67 501.89 Q4558.59 501.89 4561.43 497.608 Q4564.32 493.267 4564.32 485.744 Q4564.32 478.163 4561.43 473.881 Q4558.59 469.541 4553.67 469.541 M4553.67 462.191 Q4562.82 462.191 4568.2 468.557 Q4573.58 474.923 4573.58 485.744 Q4573.58 496.566 4568.14 502.932 Q4562.76 509.239 4553.67 509.239 Q4544.41 509.239 4539.03 502.932 Q4533.65 496.566 4533.65 485.744 Q4533.65 474.865 4539.03 468.557 Q4544.47 462.191 4553.67 462.191 M4493.95 426.948 Q4488.97 426.948 4486.08 431.289 Q4483.25 435.571 4483.25 443.094 Q4483.25 450.733 4486.08 455.015 Q4488.92 459.298 4493.95 459.298 Q4498.99 459.298 4501.82 455.015 Q4504.72 450.733 4504.72 443.094 Q4504.72 435.629 4501.82 431.289 Q4498.93 426.948 4493.95 426.948 M4546.21 419.599 L4555.47 419.599 L4501.42 509.239 L4492.16 509.239 L4546.21 419.599 M4493.95 419.599 Q4503.1 419.599 4508.53 425.964 Q4513.97 432.272 4513.97 443.094 Q4513.97 454.031 4508.53 460.339 Q4503.15 466.647 4493.95 466.647 Q4484.75 466.647 4479.37 460.339 Q4474.04 453.974 4474.04 443.094 Q4474.04 432.33 4479.43 425.964 Q4484.81 419.599 4493.95 419.599 Z" fill="#000000" fill-rule="nonzero" fill-opacity="1" /><polyline clip-path="url(#clip440)" style="stroke:#757575; stroke-linecap:round; stroke-linejoin:round; stroke-width:2; stroke-opacity:1; fill:none" points="3940.76,593.961 4209.52,593.961 "/>
<path clip-path="url(#clip440)" d="M4259.87 635.367 L4259.87 624.719 Q4264.27 626.803 4268.78 627.902 Q4273.29 629.002 4277.63 629.002 Q4289.21 629.002 4295.28 621.247 Q4301.42 613.435 4302.29 597.578 Q4298.93 602.555 4293.78 605.217 Q4288.63 607.879 4282.38 607.879 Q4269.42 607.879 4261.83 600.067 Q4254.31 592.196 4254.31 578.597 Q4254.31 565.287 4262.18 557.243 Q4270.05 549.199 4283.13 549.199 Q4298.12 549.199 4305.99 560.715 Q4313.92 572.173 4313.92 594.048 Q4313.92 614.476 4304.2 626.687 Q4294.53 638.839 4278.15 638.839 Q4273.76 638.839 4269.24 637.971 Q4264.73 637.103 4259.87 635.367 M4283.13 598.736 Q4291 598.736 4295.57 593.354 Q4300.2 587.972 4300.2 578.597 Q4300.2 569.28 4295.57 563.898 Q4291 558.458 4283.13 558.458 Q4275.26 558.458 4270.63 563.898 Q4266.06 569.28 4266.06 578.597 Q4266.06 587.972 4270.63 593.354 Q4275.26 598.736 4283.13 598.736 Z" fill="#000000" fill-rule="nonzero" fill-opacity="1" /><path clip-path="url(#clip440)" d="M4359.92 558.458 Q4350.9 558.458 4346.33 567.37 Q4341.81 576.224 4341.81 594.048 Q4341.81 611.814 4346.33 620.726 Q4350.9 629.58 4359.92 629.58 Q4369.01 629.58 4373.52 620.726 Q4378.1 611.814 4378.1 594.048 Q4378.1 576.224 4373.52 567.37 Q4369.01 558.458 4359.92 558.458 M4359.92 549.199 Q4374.45 549.199 4382.09 560.715 Q4389.79 572.173 4389.79 594.048 Q4389.79 615.865 4382.09 627.381 Q4374.45 638.839 4359.92 638.839 Q4345.4 638.839 4337.7 627.381 Q4330.06 615.865 4330.06 594.048 Q4330.06 572.173 4337.7 560.715 Q4345.4 549.199 4359.92 549.199 Z" fill="#000000" fill-rule="nonzero" fill-opacity="1" /><path clip-path="url(#clip440)" d="M4483.82 599.141 Q4478.79 599.141 4475.9 603.423 Q4473.06 607.705 4473.06 615.344 Q4473.06 622.867 4475.9 627.208 Q4478.79 631.49 4483.82 631.49 Q4488.74 631.49 4491.58 627.208 Q4494.47 622.867 4494.47 615.344 Q4494.47 607.763 4491.58 603.481 Q4488.74 599.141 4483.82 599.141 M4483.82 591.791 Q4492.97 591.791 4498.35 598.157 Q4503.73 604.523 4503.73 615.344 Q4503.73 626.166 4498.29 632.532 Q4492.91 638.839 4483.82 638.839 Q4474.57 638.839 4469.18 632.532 Q4463.8 626.166 4463.8 615.344 Q4463.8 604.465 4469.18 598.157 Q4474.62 591.791 4483.82 591.791 M4424.1 556.548 Q4419.13 556.548 4416.23 560.889 Q4413.4 565.171 4413.4 572.694 Q4413.4 580.333 4416.23 584.615 Q4419.07 588.898 4424.1 588.898 Q4429.14 588.898 4431.97 584.615 Q4434.87 580.333 4434.87 572.694 Q4434.87 565.229 4431.97 560.889 Q4429.08 556.548 4424.1 556.548 M4476.36 549.199 L4485.62 549.199 L4431.57 638.839 L4422.31 638.839 L4476.36 549.199 M4424.1 549.199 Q4433.25 549.199 4438.69 555.564 Q4444.13 561.872 4444.13 572.694 Q4444.13 583.631 4438.69 589.939 Q4433.3 596.247 4424.1 596.247 Q4414.9 596.247 4409.52 589.939 Q4404.2 583.574 4404.2 572.694 Q4404.2 561.93 4409.58 555.564 Q4414.96 549.199 4424.1 549.199 Z" fill="#000000" fill-rule="nonzero" fill-opacity="1" /><polyline clip-path="url(#clip440)" style="stroke:#414141; stroke-linecap:round; stroke-linejoin:round; stroke-width:2; stroke-opacity:1; fill:none" points="3940.76,723.561 4209.52,723.561 "/>
<path clip-path="url(#clip440)" d="M4283.94 725.731 Q4275.61 725.731 4270.8 730.187 Q4266.06 734.643 4266.06 742.456 Q4266.06 750.268 4270.8 754.724 Q4275.61 759.18 4283.94 759.18 Q4292.27 759.18 4297.08 754.724 Q4301.88 750.21 4301.88 742.456 Q4301.88 734.643 4297.08 730.187 Q4292.33 725.731 4283.94 725.731 M4272.25 720.755 Q4264.73 718.903 4260.5 713.752 Q4256.34 708.602 4256.34 701.194 Q4256.34 690.836 4263.69 684.817 Q4271.09 678.799 4283.94 678.799 Q4296.85 678.799 4304.2 684.817 Q4311.55 690.836 4311.55 701.194 Q4311.55 708.602 4307.32 713.752 Q4303.15 718.903 4295.69 720.755 Q4304.14 722.722 4308.83 728.451 Q4313.57 734.18 4313.57 742.456 Q4313.57 755.014 4305.87 761.727 Q4298.24 768.439 4283.94 768.439 Q4269.65 768.439 4261.95 761.727 Q4254.31 755.014 4254.31 742.456 Q4254.31 734.18 4259.06 728.451 Q4263.8 722.722 4272.25 720.755 M4267.97 702.294 Q4267.97 709.007 4272.14 712.768 Q4276.36 716.53 4283.94 716.53 Q4291.46 716.53 4295.69 712.768 Q4299.97 709.007 4299.97 702.294 Q4299.97 695.581 4295.69 691.82 Q4291.46 688.058 4283.94 688.058 Q4276.36 688.058 4272.14 691.82 Q4267.97 695.581 4267.97 702.294 Z" fill="#000000" fill-rule="nonzero" fill-opacity="1" /><path clip-path="url(#clip440)" d="M4359.35 688.058 Q4350.32 688.058 4345.75 696.97 Q4341.23 705.824 4341.23 723.648 Q4341.23 741.414 4345.75 750.326 Q4350.32 759.18 4359.35 759.18 Q4368.43 759.18 4372.95 750.326 Q4377.52 741.414 4377.52 723.648 Q4377.52 705.824 4372.95 696.97 Q4368.43 688.058 4359.35 688.058 M4359.35 678.799 Q4373.87 678.799 4381.51 690.315 Q4389.21 701.773 4389.21 723.648 Q4389.21 745.465 4381.51 756.981 Q4373.87 768.439 4359.35 768.439 Q4344.82 768.439 4337.12 756.981 Q4329.49 745.465 4329.49 723.648 Q4329.49 701.773 4337.12 690.315 Q4344.82 678.799 4359.35 678.799 Z" fill="#000000" fill-rule="nonzero" fill-opacity="1" /><path clip-path="url(#clip440)" d="M4483.25 728.741 Q4478.21 728.741 4475.32 733.023 Q4472.48 737.305 4472.48 744.944 Q4472.48 752.467 4475.32 756.808 Q4478.21 761.09 4483.25 761.09 Q4488.16 761.09 4491 756.808 Q4493.89 752.467 4493.89 744.944 Q4493.89 737.363 4491 733.081 Q4488.16 728.741 4483.25 728.741 M4483.25 721.391 Q4492.39 721.391 4497.77 727.757 Q4503.15 734.123 4503.15 744.944 Q4503.15 755.766 4497.71 762.132 Q4492.33 768.439 4483.25 768.439 Q4473.99 768.439 4468.6 762.132 Q4463.22 755.766 4463.22 744.944 Q4463.22 734.065 4468.6 727.757 Q4474.04 721.391 4483.25 721.391 M4423.52 686.148 Q4418.55 686.148 4415.65 690.489 Q4412.82 694.771 4412.82 702.294 Q4412.82 709.933 4415.65 714.215 Q4418.49 718.498 4423.52 718.498 Q4428.56 718.498 4431.39 714.215 Q4434.29 709.933 4434.29 702.294 Q4434.29 694.829 4431.39 690.489 Q4428.5 686.148 4423.52 686.148 M4475.78 678.799 L4485.04 678.799 L4430.99 768.439 L4421.73 768.439 L4475.78 678.799 M4423.52 678.799 Q4432.67 678.799 4438.11 685.164 Q4443.55 691.472 4443.55 702.294 Q4443.55 713.231 4438.11 719.539 Q4432.73 725.847 4423.52 725.847 Q4414.32 725.847 4408.94 719.539 Q4403.62 713.174 4403.62 702.294 Q4403.62 691.53 4409 685.164 Q4414.38 678.799 4423.52 678.799 Z" fill="#000000" fill-rule="nonzero" fill-opacity="1" /></svg>
