<?xml version="1.0" encoding="utf-8"?>
<svg xmlns="http://www.w3.org/2000/svg" xmlns:xlink="http://www.w3.org/1999/xlink" width="1200" height="300" viewBox="0 0 4800 1200">
<defs>
  <clipPath id="clip360">
    <rect x="0" y="0" width="4800" height="1200"/>
  </clipPath>
</defs>
<path clip-path="url(#clip360)" d="M0 1200 L4800 1200 L4800 0 L0 0  Z" fill="#ffffff" fill-rule="evenodd" fill-opacity="1"/>
<defs>
  <clipPath id="clip361">
    <rect x="960" y="0" width="3361" height="1200"/>
  </clipPath>
</defs>
<path clip-path="url(#clip360)" d="M449.885 880.951 L4752.76 880.951 L4752.76 47.2441 L449.885 47.2441  Z" fill="#ffffff" fill-rule="evenodd" fill-opacity="1"/>
<defs>
  <clipPath id="clip362">
    <rect x="449" y="47" width="4304" height="835"/>
  </clipPath>
</defs>
<polyline clip-path="url(#clip362)" style="stroke:#000000; stroke-linecap:round; stroke-linejoin:round; stroke-width:2; stroke-opacity:0.1; fill:none" points="571.665,880.951 571.665,47.2441 "/>
<polyline clip-path="url(#clip362)" style="stroke:#000000; stroke-linecap:round; stroke-linejoin:round; stroke-width:2; stroke-opacity:0.1; fill:none" points="1383.53,880.951 1383.53,47.2441 "/>
<polyline clip-path="url(#clip362)" style="stroke:#000000; stroke-linecap:round; stroke-linejoin:round; stroke-width:2; stroke-opacity:0.1; fill:none" points="2195.39,880.951 2195.39,47.2441 "/>
<polyline clip-path="url(#clip362)" style="stroke:#000000; stroke-linecap:round; stroke-linejoin:round; stroke-width:2; stroke-opacity:0.1; fill:none" points="3007.25,880.951 3007.25,47.2441 "/>
<polyline clip-path="url(#clip362)" style="stroke:#000000; stroke-linecap:round; stroke-linejoin:round; stroke-width:2; stroke-opacity:0.1; fill:none" points="3819.11,880.951 3819.11,47.2441 "/>
<polyline clip-path="url(#clip362)" style="stroke:#000000; stroke-linecap:round; stroke-linejoin:round; stroke-width:2; stroke-opacity:0.1; fill:none" points="4630.98,880.951 4630.98,47.2441 "/>
<polyline clip-path="url(#clip362)" style="stroke:#000000; stroke-linecap:round; stroke-linejoin:round; stroke-width:2; stroke-opacity:0.1; fill:none" points="449.885,797.424 4752.76,797.424 "/>
<polyline clip-path="url(#clip362)" style="stroke:#000000; stroke-linecap:round; stroke-linejoin:round; stroke-width:2; stroke-opacity:0.1; fill:none" points="449.885,679.73 4752.76,679.73 "/>
<polyline clip-path="url(#clip362)" style="stroke:#000000; stroke-linecap:round; stroke-linejoin:round; stroke-width:2; stroke-opacity:0.1; fill:none" points="449.885,562.036 4752.76,562.036 "/>
<polyline clip-path="url(#clip362)" style="stroke:#000000; stroke-linecap:round; stroke-linejoin:round; stroke-width:2; stroke-opacity:0.1; fill:none" points="449.885,444.342 4752.76,444.342 "/>
<polyline clip-path="url(#clip362)" style="stroke:#000000; stroke-linecap:round; stroke-linejoin:round; stroke-width:2; stroke-opacity:0.1; fill:none" points="449.885,326.648 4752.76,326.648 "/>
<polyline clip-path="url(#clip362)" style="stroke:#000000; stroke-linecap:round; stroke-linejoin:round; stroke-width:2; stroke-opacity:0.1; fill:none" points="449.885,208.954 4752.76,208.954 "/>
<polyline clip-path="url(#clip362)" style="stroke:#000000; stroke-linecap:round; stroke-linejoin:round; stroke-width:2; stroke-opacity:0.1; fill:none" points="449.885,91.2603 4752.76,91.2603 "/>
<polyline clip-path="url(#clip360)" style="stroke:#000000; stroke-linecap:round; stroke-linejoin:round; stroke-width:4; stroke-opacity:1; fill:none" points="449.885,880.951 4752.76,880.951 "/>
<polyline clip-path="url(#clip360)" style="stroke:#000000; stroke-linecap:round; stroke-linejoin:round; stroke-width:4; stroke-opacity:1; fill:none" points="571.665,880.951 571.665,862.054 "/>
<polyline clip-path="url(#clip360)" style="stroke:#000000; stroke-linecap:round; stroke-linejoin:round; stroke-width:4; stroke-opacity:1; fill:none" points="1383.53,880.951 1383.53,862.054 "/>
<polyline clip-path="url(#clip360)" style="stroke:#000000; stroke-linecap:round; stroke-linejoin:round; stroke-width:4; stroke-opacity:1; fill:none" points="2195.39,880.951 2195.39,862.054 "/>
<polyline clip-path="url(#clip360)" style="stroke:#000000; stroke-linecap:round; stroke-linejoin:round; stroke-width:4; stroke-opacity:1; fill:none" points="3007.25,880.951 3007.25,862.054 "/>
<polyline clip-path="url(#clip360)" style="stroke:#000000; stroke-linecap:round; stroke-linejoin:round; stroke-width:4; stroke-opacity:1; fill:none" points="3819.11,880.951 3819.11,862.054 "/>
<polyline clip-path="url(#clip360)" style="stroke:#000000; stroke-linecap:round; stroke-linejoin:round; stroke-width:4; stroke-opacity:1; fill:none" points="4630.98,880.951 4630.98,862.054 "/>
<path clip-path="url(#clip360)" d="M571.665 942.789 Q564.443 942.789 560.785 949.918 Q557.174 957.002 557.174 971.261 Q557.174 985.474 560.785 992.603 Q564.443 999.687 571.665 999.687 Q578.933 999.687 582.544 992.603 Q586.202 985.474 586.202 971.261 Q586.202 957.002 582.544 949.918 Q578.933 942.789 571.665 942.789 M571.665 935.382 Q583.285 935.382 589.396 944.594 Q595.554 953.761 595.554 971.261 Q595.554 988.715 589.396 997.927 Q583.285 1007.09 571.665 1007.09 Q560.044 1007.09 553.887 997.927 Q547.776 988.715 547.776 971.261 Q547.776 953.761 553.887 944.594 Q560.044 935.382 571.665 935.382 Z" fill="#000000" fill-rule="nonzero" fill-opacity="1" /><path clip-path="url(#clip360)" d="M1372.83 997.881 L1405.47 997.881 L1405.47 1005.75 L1361.58 1005.75 L1361.58 997.881 Q1366.91 992.372 1376.07 983.113 Q1385.29 973.807 1387.65 971.122 Q1392.14 966.076 1393.9 962.604 Q1395.7 959.085 1395.7 955.705 Q1395.7 950.196 1391.81 946.724 Q1387.97 943.252 1381.77 943.252 Q1377.37 943.252 1372.46 944.78 Q1367.6 946.307 1362.05 949.409 L1362.05 939.965 Q1367.69 937.696 1372.6 936.539 Q1377.51 935.382 1381.58 935.382 Q1392.32 935.382 1398.71 940.752 Q1405.1 946.122 1405.1 955.104 Q1405.1 959.363 1403.48 963.205 Q1401.91 967.002 1397.69 972.187 Q1396.54 973.529 1390.33 979.965 Q1384.13 986.353 1372.83 997.881 Z" fill="#000000" fill-rule="nonzero" fill-opacity="1" /><path clip-path="url(#clip360)" d="M2201.41 944.78 L2177.8 981.678 L2201.41 981.678 L2201.41 944.78 M2198.95 936.631 L2210.71 936.631 L2210.71 981.678 L2220.57 981.678 L2220.57 989.455 L2210.71 989.455 L2210.71 1005.75 L2201.41 1005.75 L2201.41 989.455 L2170.2 989.455 L2170.2 980.428 L2198.95 936.631 Z" fill="#000000" fill-rule="nonzero" fill-opacity="1" /><path clip-path="url(#clip360)" d="M3008.06 967.465 Q3001.77 967.465 2998.06 971.77 Q2994.4 976.076 2994.4 983.576 Q2994.4 991.029 2998.06 995.381 Q3001.77 999.687 3008.06 999.687 Q3014.36 999.687 3018.02 995.381 Q3021.72 991.029 3021.72 983.576 Q3021.72 976.076 3018.02 971.77 Q3014.36 967.465 3008.06 967.465 M3026.63 938.159 L3026.63 946.678 Q3023.11 945.011 3019.5 944.131 Q3015.93 943.252 3012.41 943.252 Q3003.15 943.252 2998.25 949.502 Q2993.39 955.752 2992.69 968.391 Q2995.42 964.363 2999.54 962.233 Q3003.66 960.057 3008.62 960.057 Q3019.03 960.057 3025.05 966.4 Q3031.12 972.696 3031.12 983.576 Q3031.12 994.224 3024.82 1000.66 Q3018.52 1007.09 3008.06 1007.09 Q2996.07 1007.09 2989.73 997.927 Q2983.39 988.715 2983.39 971.261 Q2983.39 954.872 2991.16 945.15 Q2998.94 935.382 3012.04 935.382 Q3015.56 935.382 3019.13 936.076 Q3022.74 936.77 3026.63 938.159 Z" fill="#000000" fill-rule="nonzero" fill-opacity="1" /><path clip-path="url(#clip360)" d="M3819.11 972.928 Q3812.45 972.928 3808.6 976.492 Q3804.81 980.057 3804.81 986.307 Q3804.81 992.557 3808.6 996.122 Q3812.45 999.687 3819.11 999.687 Q3825.78 999.687 3829.62 996.122 Q3833.47 992.511 3833.47 986.307 Q3833.47 980.057 3829.62 976.492 Q3825.83 972.928 3819.11 972.928 M3809.76 968.946 Q3803.74 967.465 3800.36 963.344 Q3797.03 959.224 3797.03 953.298 Q3797.03 945.011 3802.91 940.196 Q3808.84 935.382 3819.11 935.382 Q3829.44 935.382 3835.32 940.196 Q3841.2 945.011 3841.2 953.298 Q3841.2 959.224 3837.82 963.344 Q3834.48 967.465 3828.51 968.946 Q3835.27 970.52 3839.02 975.104 Q3842.82 979.687 3842.82 986.307 Q3842.82 996.353 3836.66 1001.72 Q3830.55 1007.09 3819.11 1007.09 Q3807.68 1007.09 3801.52 1001.72 Q3795.41 996.353 3795.41 986.307 Q3795.41 979.687 3799.21 975.104 Q3803 970.52 3809.76 968.946 M3806.34 954.178 Q3806.34 959.548 3809.67 962.557 Q3813.05 965.567 3819.11 965.567 Q3825.13 965.567 3828.51 962.557 Q3831.94 959.548 3831.94 954.178 Q3831.94 948.807 3828.51 945.798 Q3825.13 942.789 3819.11 942.789 Q3813.05 942.789 3809.67 945.798 Q3806.34 948.807 3806.34 954.178 Z" fill="#000000" fill-rule="nonzero" fill-opacity="1" /><path clip-path="url(#clip360)" d="M4580.35 997.881 L4595.63 997.881 L4595.63 945.15 L4579.01 948.483 L4579.01 939.965 L4595.54 936.631 L4604.89 936.631 L4604.89 997.881 L4620.17 997.881 L4620.17 1005.75 L4580.35 1005.75 L4580.35 997.881 Z" fill="#000000" fill-rule="nonzero" fill-opacity="1" /><path clip-path="url(#clip360)" d="M4659.06 942.789 Q4651.83 942.789 4648.18 949.918 Q4644.56 957.002 4644.56 971.261 Q4644.56 985.474 4648.18 992.603 Q4651.83 999.687 4659.06 999.687 Q4666.32 999.687 4669.93 992.603 Q4673.59 985.474 4673.59 971.261 Q4673.59 957.002 4669.93 949.918 Q4666.32 942.789 4659.06 942.789 M4659.06 935.382 Q4670.68 935.382 4676.79 944.594 Q4682.94 953.761 4682.94 971.261 Q4682.94 988.715 4676.79 997.927 Q4670.68 1007.09 4659.06 1007.09 Q4647.43 1007.09 4641.28 997.927 Q4635.17 988.715 4635.17 971.261 Q4635.17 953.761 4641.28 944.594 Q4647.43 935.382 4659.06 935.382 Z" fill="#000000" fill-rule="nonzero" fill-opacity="1" /><path clip-path="url(#clip360)" d="M2318.56 1072.18 L2384.34 1072.18 L2384.34 1081.04 L2356.74 1081.04 L2356.74 1149.94 L2346.17 1149.94 L2346.17 1081.04 L2318.56 1081.04 L2318.56 1072.18 Z" fill="#000000" fill-rule="nonzero" fill-opacity="1" /><path clip-path="url(#clip360)" d="M2390.8 1091.61 L2400.38 1091.61 L2400.38 1149.94 L2390.8 1149.94 L2390.8 1091.61 M2390.8 1068.9 L2400.38 1068.9 L2400.38 1081.04 L2390.8 1081.04 L2390.8 1068.9 Z" fill="#000000" fill-rule="nonzero" fill-opacity="1" /><path clip-path="url(#clip360)" d="M2465.85 1102.81 Q2469.45 1096.35 2474.45 1093.28 Q2479.45 1090.2 2486.22 1090.2 Q2495.33 1090.2 2500.28 1096.61 Q2505.23 1102.96 2505.23 1114.74 L2505.23 1149.94 L2495.59 1149.94 L2495.59 1115.05 Q2495.59 1106.66 2492.62 1102.6 Q2489.65 1098.54 2483.56 1098.54 Q2476.11 1098.54 2471.79 1103.49 Q2467.47 1108.43 2467.47 1116.97 L2467.47 1149.94 L2457.83 1149.94 L2457.83 1115.05 Q2457.83 1106.61 2454.86 1102.6 Q2451.89 1098.54 2445.7 1098.54 Q2438.35 1098.54 2434.03 1103.54 Q2429.71 1108.49 2429.71 1116.97 L2429.71 1149.94 L2420.07 1149.94 L2420.07 1091.61 L2429.71 1091.61 L2429.71 1100.67 Q2432.99 1095.31 2437.57 1092.76 Q2442.15 1090.2 2448.46 1090.2 Q2454.81 1090.2 2459.24 1093.43 Q2463.72 1096.66 2465.85 1102.81 Z" fill="#000000" fill-rule="nonzero" fill-opacity="1" /><path clip-path="url(#clip360)" d="M2574.24 1118.38 L2574.24 1123.07 L2530.18 1123.07 Q2530.8 1132.96 2536.11 1138.17 Q2541.48 1143.33 2551.01 1143.33 Q2556.53 1143.33 2561.69 1141.97 Q2566.89 1140.62 2572 1137.91 L2572 1146.97 Q2566.84 1149.16 2561.43 1150.31 Q2556.01 1151.45 2550.44 1151.45 Q2536.48 1151.45 2528.3 1143.33 Q2520.18 1135.2 2520.18 1121.35 Q2520.18 1107.03 2527.88 1098.64 Q2535.64 1090.2 2548.77 1090.2 Q2560.54 1090.2 2567.36 1097.81 Q2574.24 1105.36 2574.24 1118.38 M2564.65 1115.57 Q2564.55 1107.7 2560.23 1103.02 Q2555.96 1098.33 2548.87 1098.33 Q2540.85 1098.33 2536.01 1102.86 Q2531.22 1107.39 2530.49 1115.62 L2564.65 1115.57 Z" fill="#000000" fill-rule="nonzero" fill-opacity="1" /><path clip-path="url(#clip360)" d="M2646.89 1069.01 Q2639.91 1080.99 2636.53 1092.7 Q2633.14 1104.42 2633.14 1116.45 Q2633.14 1128.49 2636.53 1140.31 Q2639.97 1152.08 2646.89 1164.01 L2638.56 1164.01 Q2630.75 1151.77 2626.84 1139.94 Q2622.99 1128.12 2622.99 1116.45 Q2622.99 1104.84 2626.84 1093.07 Q2630.7 1081.3 2638.56 1069.01 L2646.89 1069.01 Z" fill="#000000" fill-rule="nonzero" fill-opacity="1" /><path clip-path="url(#clip360)" d="M2703.87 1100.46 L2703.87 1068.9 L2713.46 1068.9 L2713.46 1149.94 L2703.87 1149.94 L2703.87 1141.19 Q2700.85 1146.4 2696.22 1148.95 Q2691.63 1151.45 2685.17 1151.45 Q2674.6 1151.45 2667.93 1143.02 Q2661.32 1134.58 2661.32 1120.83 Q2661.32 1107.08 2667.93 1098.64 Q2674.6 1090.2 2685.17 1090.2 Q2691.63 1090.2 2696.22 1092.76 Q2700.85 1095.26 2703.87 1100.46 M2671.22 1120.83 Q2671.22 1131.4 2675.54 1137.44 Q2679.91 1143.43 2687.52 1143.43 Q2695.12 1143.43 2699.5 1137.44 Q2703.87 1131.4 2703.87 1120.83 Q2703.87 1110.26 2699.5 1104.27 Q2695.12 1098.23 2687.52 1098.23 Q2679.91 1098.23 2675.54 1104.27 Q2671.22 1110.26 2671.22 1120.83 Z" fill="#000000" fill-rule="nonzero" fill-opacity="1" /><path clip-path="url(#clip360)" d="M2759.71 1120.62 Q2748.09 1120.62 2743.61 1123.28 Q2739.13 1125.93 2739.13 1132.34 Q2739.13 1137.44 2742.47 1140.46 Q2745.85 1143.43 2751.63 1143.43 Q2759.6 1143.43 2764.39 1137.81 Q2769.24 1132.13 2769.24 1122.76 L2769.24 1120.62 L2759.71 1120.62 M2778.82 1116.66 L2778.82 1149.94 L2769.24 1149.94 L2769.24 1141.09 Q2765.96 1146.4 2761.06 1148.95 Q2756.16 1151.45 2749.08 1151.45 Q2740.12 1151.45 2734.81 1146.45 Q2729.55 1141.4 2729.55 1132.96 Q2729.55 1123.12 2736.11 1118.12 Q2742.73 1113.12 2755.8 1113.12 L2769.24 1113.12 L2769.24 1112.18 Q2769.24 1105.57 2764.86 1101.98 Q2760.54 1098.33 2752.67 1098.33 Q2747.67 1098.33 2742.93 1099.53 Q2738.19 1100.73 2733.82 1103.12 L2733.82 1094.27 Q2739.08 1092.24 2744.03 1091.25 Q2748.98 1090.2 2753.66 1090.2 Q2766.32 1090.2 2772.57 1096.77 Q2778.82 1103.33 2778.82 1116.66 Z" fill="#000000" fill-rule="nonzero" fill-opacity="1" /><path clip-path="url(#clip360)" d="M2822.83 1155.36 Q2818.77 1165.78 2814.91 1168.95 Q2811.06 1172.13 2804.6 1172.13 L2796.94 1172.13 L2796.94 1164.11 L2802.57 1164.11 Q2806.53 1164.11 2808.72 1162.24 Q2810.9 1160.36 2813.56 1153.38 L2815.28 1149.01 L2791.68 1091.61 L2801.84 1091.61 L2820.07 1137.24 L2838.3 1091.61 L2848.45 1091.61 L2822.83 1155.36 Z" fill="#000000" fill-rule="nonzero" fill-opacity="1" /><path clip-path="url(#clip360)" d="M2860.17 1069.01 L2868.51 1069.01 Q2876.32 1081.3 2880.17 1093.07 Q2884.08 1104.84 2884.08 1116.45 Q2884.08 1128.12 2880.17 1139.94 Q2876.32 1151.77 2868.51 1164.01 L2860.17 1164.01 Q2867.1 1152.08 2870.49 1140.31 Q2873.92 1128.49 2873.92 1116.45 Q2873.92 1104.42 2870.49 1092.7 Q2867.1 1080.99 2860.17 1069.01 Z" fill="#000000" fill-rule="nonzero" fill-opacity="1" /><polyline clip-path="url(#clip360)" style="stroke:#000000; stroke-linecap:round; stroke-linejoin:round; stroke-width:4; stroke-opacity:1; fill:none" points="449.885,880.951 449.885,47.2441 "/>
<polyline clip-path="url(#clip360)" style="stroke:#000000; stroke-linecap:round; stroke-linejoin:round; stroke-width:4; stroke-opacity:1; fill:none" points="449.885,797.424 468.783,797.424 "/>
<polyline clip-path="url(#clip360)" style="stroke:#000000; stroke-linecap:round; stroke-linejoin:round; stroke-width:4; stroke-opacity:1; fill:none" points="449.885,679.73 468.783,679.73 "/>
<polyline clip-path="url(#clip360)" style="stroke:#000000; stroke-linecap:round; stroke-linejoin:round; stroke-width:4; stroke-opacity:1; fill:none" points="449.885,562.036 468.783,562.036 "/>
<polyline clip-path="url(#clip360)" style="stroke:#000000; stroke-linecap:round; stroke-linejoin:round; stroke-width:4; stroke-opacity:1; fill:none" points="449.885,444.342 468.783,444.342 "/>
<polyline clip-path="url(#clip360)" style="stroke:#000000; stroke-linecap:round; stroke-linejoin:round; stroke-width:4; stroke-opacity:1; fill:none" points="449.885,326.648 468.783,326.648 "/>
<polyline clip-path="url(#clip360)" style="stroke:#000000; stroke-linecap:round; stroke-linejoin:round; stroke-width:4; stroke-opacity:1; fill:none" points="449.885,208.954 468.783,208.954 "/>
<polyline clip-path="url(#clip360)" style="stroke:#000000; stroke-linecap:round; stroke-linejoin:round; stroke-width:4; stroke-opacity:1; fill:none" points="449.885,91.2603 468.783,91.2603 "/>
<path clip-path="url(#clip360)" d="M194.136 798.326 L253.488 798.326 L253.488 806.197 L194.136 806.197 L194.136 798.326 Z" fill="#000000" fill-rule="nonzero" fill-opacity="1" /><path clip-path="url(#clip360)" d="M302.006 794.715 Q308.719 796.15 312.469 800.687 Q316.265 805.224 316.265 811.891 Q316.265 822.123 309.228 827.724 Q302.191 833.326 289.228 833.326 Q284.877 833.326 280.247 832.447 Q275.664 831.613 270.756 829.9 L270.756 820.873 Q274.645 823.141 279.275 824.298 Q283.904 825.456 288.951 825.456 Q297.747 825.456 302.33 821.984 Q306.96 818.511 306.96 811.891 Q306.96 805.78 302.654 802.354 Q298.395 798.882 290.756 798.882 L282.701 798.882 L282.701 791.197 L291.127 791.197 Q298.025 791.197 301.682 788.465 Q305.339 785.688 305.339 780.502 Q305.339 775.178 301.543 772.354 Q297.793 769.484 290.756 769.484 Q286.914 769.484 282.516 770.317 Q278.117 771.151 272.84 772.91 L272.84 764.577 Q278.164 763.095 282.793 762.354 Q287.469 761.614 291.59 761.614 Q302.238 761.614 308.441 766.475 Q314.645 771.289 314.645 779.53 Q314.645 785.271 311.358 789.252 Q308.071 793.187 302.006 794.715 Z" fill="#000000" fill-rule="nonzero" fill-opacity="1" /><path clip-path="url(#clip360)" d="M353.997 769.021 Q346.774 769.021 343.117 776.151 Q339.506 783.234 339.506 797.493 Q339.506 811.706 343.117 818.835 Q346.774 825.919 353.997 825.919 Q361.265 825.919 364.876 818.835 Q368.534 811.706 368.534 797.493 Q368.534 783.234 364.876 776.151 Q361.265 769.021 353.997 769.021 M353.997 761.614 Q365.617 761.614 371.728 770.826 Q377.885 779.993 377.885 797.493 Q377.885 814.947 371.728 824.16 Q365.617 833.326 353.997 833.326 Q342.376 833.326 336.219 824.16 Q330.108 814.947 330.108 797.493 Q330.108 779.993 336.219 770.826 Q342.376 761.614 353.997 761.614 Z" fill="#000000" fill-rule="nonzero" fill-opacity="1" /><path clip-path="url(#clip360)" d="M194.136 680.632 L253.488 680.632 L253.488 688.503 L194.136 688.503 L194.136 680.632 Z" fill="#000000" fill-rule="nonzero" fill-opacity="1" /><path clip-path="url(#clip360)" d="M281.729 706.419 L314.367 706.419 L314.367 714.29 L270.479 714.29 L270.479 706.419 Q275.803 700.91 284.969 691.651 Q294.182 682.345 296.543 679.66 Q301.034 674.614 302.793 671.142 Q304.599 667.623 304.599 664.244 Q304.599 658.734 300.71 655.262 Q296.867 651.79 290.664 651.79 Q286.266 651.79 281.358 653.318 Q276.497 654.846 270.942 657.947 L270.942 648.503 Q276.59 646.235 281.497 645.077 Q286.404 643.92 290.478 643.92 Q301.219 643.92 307.608 649.29 Q313.997 654.66 313.997 663.642 Q313.997 667.901 312.376 671.744 Q310.802 675.54 306.589 680.725 Q305.432 682.068 299.228 688.503 Q293.025 694.892 281.729 706.419 Z" fill="#000000" fill-rule="nonzero" fill-opacity="1" /><path clip-path="url(#clip360)" d="M353.997 651.327 Q346.774 651.327 343.117 658.457 Q339.506 665.54 339.506 679.799 Q339.506 694.012 343.117 701.142 Q346.774 708.225 353.997 708.225 Q361.265 708.225 364.876 701.142 Q368.534 694.012 368.534 679.799 Q368.534 665.54 364.876 658.457 Q361.265 651.327 353.997 651.327 M353.997 643.92 Q365.617 643.92 371.728 653.133 Q377.885 662.299 377.885 679.799 Q377.885 697.253 371.728 706.466 Q365.617 715.632 353.997 715.632 Q342.376 715.632 336.219 706.466 Q330.108 697.253 330.108 679.799 Q330.108 662.299 336.219 653.133 Q342.376 643.92 353.997 643.92 Z" fill="#000000" fill-rule="nonzero" fill-opacity="1" /><path clip-path="url(#clip360)" d="M194.136 562.939 L253.488 562.939 L253.488 570.809 L194.136 570.809 L194.136 562.939 Z" fill="#000000" fill-rule="nonzero" fill-opacity="1" /><path clip-path="url(#clip360)" d="M275.293 588.725 L290.571 588.725 L290.571 535.994 L273.951 539.328 L273.951 530.809 L290.478 527.476 L299.83 527.476 L299.83 588.725 L315.108 588.725 L315.108 596.596 L275.293 596.596 L275.293 588.725 Z" fill="#000000" fill-rule="nonzero" fill-opacity="1" /><path clip-path="url(#clip360)" d="M353.997 533.633 Q346.774 533.633 343.117 540.763 Q339.506 547.846 339.506 562.105 Q339.506 576.318 343.117 583.448 Q346.774 590.531 353.997 590.531 Q361.265 590.531 364.876 583.448 Q368.534 576.318 368.534 562.105 Q368.534 547.846 364.876 540.763 Q361.265 533.633 353.997 533.633 M353.997 526.226 Q365.617 526.226 371.728 535.439 Q377.885 544.605 377.885 562.105 Q377.885 579.559 371.728 588.772 Q365.617 597.938 353.997 597.938 Q342.376 597.938 336.219 588.772 Q330.108 579.559 330.108 562.105 Q330.108 544.605 336.219 535.439 Q342.376 526.226 353.997 526.226 Z" fill="#000000" fill-rule="nonzero" fill-opacity="1" /><path clip-path="url(#clip360)" d="M353.997 415.939 Q346.774 415.939 343.117 423.069 Q339.506 430.152 339.506 444.411 Q339.506 458.624 343.117 465.754 Q346.774 472.837 353.997 472.837 Q361.265 472.837 364.876 465.754 Q368.534 458.624 368.534 444.411 Q368.534 430.152 364.876 423.069 Q361.265 415.939 353.997 415.939 M353.997 408.532 Q365.617 408.532 371.728 417.745 Q377.885 426.911 377.885 444.411 Q377.885 461.865 371.728 471.078 Q365.617 480.245 353.997 480.245 Q342.376 480.245 336.219 471.078 Q330.108 461.865 330.108 444.411 Q330.108 426.911 336.219 417.745 Q342.376 408.532 353.997 408.532 Z" fill="#000000" fill-rule="nonzero" fill-opacity="1" /><path clip-path="url(#clip360)" d="M275.293 353.338 L290.571 353.338 L290.571 300.607 L273.951 303.94 L273.951 295.421 L290.478 292.088 L299.83 292.088 L299.83 353.338 L315.108 353.338 L315.108 361.208 L275.293 361.208 L275.293 353.338 Z" fill="#000000" fill-rule="nonzero" fill-opacity="1" /><path clip-path="url(#clip360)" d="M353.997 298.245 Q346.774 298.245 343.117 305.375 Q339.506 312.458 339.506 326.718 Q339.506 340.93 343.117 348.06 Q346.774 355.143 353.997 355.143 Q361.265 355.143 364.876 348.06 Q368.534 340.93 368.534 326.718 Q368.534 312.458 364.876 305.375 Q361.265 298.245 353.997 298.245 M353.997 290.838 Q365.617 290.838 371.728 300.051 Q377.885 309.218 377.885 326.718 Q377.885 344.171 371.728 353.384 Q365.617 362.551 353.997 362.551 Q342.376 362.551 336.219 353.384 Q330.108 344.171 330.108 326.718 Q330.108 309.218 336.219 300.051 Q342.376 290.838 353.997 290.838 Z" fill="#000000" fill-rule="nonzero" fill-opacity="1" /><path clip-path="url(#clip360)" d="M281.729 235.644 L314.367 235.644 L314.367 243.514 L270.479 243.514 L270.479 235.644 Q275.803 230.135 284.969 220.875 Q294.182 211.57 296.543 208.885 Q301.034 203.838 302.793 200.366 Q304.599 196.848 304.599 193.468 Q304.599 187.959 300.71 184.487 Q296.867 181.015 290.664 181.015 Q286.266 181.015 281.358 182.542 Q276.497 184.07 270.942 187.172 L270.942 177.728 Q276.59 175.459 281.497 174.302 Q286.404 173.144 290.478 173.144 Q301.219 173.144 307.608 178.515 Q313.997 183.885 313.997 192.866 Q313.997 197.126 312.376 200.968 Q310.802 204.764 306.589 209.95 Q305.432 211.292 299.228 217.727 Q293.025 224.116 281.729 235.644 Z" fill="#000000" fill-rule="nonzero" fill-opacity="1" /><path clip-path="url(#clip360)" d="M353.997 180.552 Q346.774 180.552 343.117 187.681 Q339.506 194.764 339.506 209.024 Q339.506 223.237 343.117 230.366 Q346.774 237.449 353.997 237.449 Q361.265 237.449 364.876 230.366 Q368.534 223.237 368.534 209.024 Q368.534 194.764 364.876 187.681 Q361.265 180.552 353.997 180.552 M353.997 173.144 Q365.617 173.144 371.728 182.357 Q377.885 191.524 377.885 209.024 Q377.885 226.477 371.728 235.69 Q365.617 244.857 353.997 244.857 Q342.376 244.857 336.219 235.69 Q330.108 226.477 330.108 209.024 Q330.108 191.524 336.219 182.357 Q342.376 173.144 353.997 173.144 Z" fill="#000000" fill-rule="nonzero" fill-opacity="1" /><path clip-path="url(#clip360)" d="M302.006 88.552 Q308.719 89.9872 312.469 94.5242 Q316.265 99.0612 316.265 105.728 Q316.265 115.959 309.228 121.561 Q302.191 127.163 289.228 127.163 Q284.877 127.163 280.247 126.283 Q275.664 125.45 270.756 123.737 L270.756 114.709 Q274.645 116.978 279.275 118.135 Q283.904 119.293 288.951 119.293 Q297.747 119.293 302.33 115.82 Q306.96 112.348 306.96 105.728 Q306.96 99.6168 302.654 96.1909 Q298.395 92.7187 290.756 92.7187 L282.701 92.7187 L282.701 85.0335 L291.127 85.0335 Q298.025 85.0335 301.682 82.302 Q305.339 79.5243 305.339 74.3391 Q305.339 69.0151 301.543 66.191 Q297.793 63.3207 290.756 63.3207 Q286.914 63.3207 282.516 64.154 Q278.117 64.9873 272.84 66.7466 L272.84 58.4133 Q278.164 56.9318 282.793 56.1911 Q287.469 55.4503 291.59 55.4503 Q302.238 55.4503 308.441 60.3114 Q314.645 65.1262 314.645 73.3669 Q314.645 79.1076 311.358 83.0891 Q308.071 87.0242 302.006 88.552 Z" fill="#000000" fill-rule="nonzero" fill-opacity="1" /><path clip-path="url(#clip360)" d="M353.997 62.8577 Q346.774 62.8577 343.117 69.9873 Q339.506 77.0706 339.506 91.3298 Q339.506 105.543 343.117 112.672 Q346.774 119.756 353.997 119.756 Q361.265 119.756 364.876 112.672 Q368.534 105.543 368.534 91.3298 Q368.534 77.0706 364.876 69.9873 Q361.265 62.8577 353.997 62.8577 M353.997 55.4503 Q365.617 55.4503 371.728 64.6632 Q377.885 73.8299 377.885 91.3298 Q377.885 108.783 371.728 117.996 Q365.617 127.163 353.997 127.163 Q342.376 127.163 336.219 117.996 Q330.108 108.783 330.108 91.3298 Q330.108 73.8299 336.219 64.6632 Q342.376 55.4503 353.997 55.4503 Z" fill="#000000" fill-rule="nonzero" fill-opacity="1" /><path clip-path="url(#clip360)" d="M21.0484 860.215 L21.0484 846.049 L86.1001 811.57 L21.0484 811.57 L21.0484 801.362 L98.8084 801.362 L98.8084 815.528 L33.7566 850.007 L98.8084 850.007 L98.8084 860.215 L21.0484 860.215 Z" fill="#000000" fill-rule="nonzero" fill-opacity="1" /><path clip-path="url(#clip360)" d="M28.1838 748.862 Q28.1838 760.32 36.7254 767.091 Q45.267 773.81 60.0065 773.81 Q74.6939 773.81 83.2355 767.091 Q91.7772 760.32 91.7772 748.862 Q91.7772 737.404 83.2355 730.737 Q74.6939 724.018 60.0065 724.018 Q45.267 724.018 36.7254 730.737 Q28.1838 737.404 28.1838 748.862 M19.6421 748.862 Q19.6421 732.508 30.6317 722.716 Q41.5691 712.925 60.0065 712.925 Q78.3918 712.925 89.3813 722.716 Q100.319 732.508 100.319 748.862 Q100.319 765.268 89.3813 775.112 Q78.4439 784.903 60.0065 784.903 Q41.5691 784.903 30.6317 775.112 Q19.6421 765.268 19.6421 748.862 Z" fill="#000000" fill-rule="nonzero" fill-opacity="1" /><path clip-path="url(#clip360)" d="M89.9543 686.466 L89.9543 649.748 L98.8084 649.748 L98.8084 699.123 L89.9543 699.123 Q83.7564 693.133 73.3398 682.821 Q62.8711 672.456 59.8503 669.8 Q54.1732 664.748 50.267 662.769 Q46.3087 660.737 42.5066 660.737 Q36.3087 660.737 32.4025 665.112 Q28.4963 669.435 28.4963 676.414 Q28.4963 681.362 30.215 686.883 Q31.9337 692.352 35.4233 698.602 L24.7984 698.602 Q22.2463 692.248 20.9442 686.727 Q19.6421 681.206 19.6421 676.623 Q19.6421 664.539 25.6838 657.352 Q31.7254 650.165 41.8295 650.165 Q46.6212 650.165 50.9441 651.987 Q55.2149 653.758 61.0482 658.498 Q62.5586 659.8 69.7981 666.779 Q76.9856 673.758 89.9543 686.466 Z" fill="#000000" fill-rule="nonzero" fill-opacity="1" /><path clip-path="url(#clip360)" d="M21.0484 594.696 L21.0484 545.53 L29.9025 545.53 L29.9025 584.175 L52.9232 584.175 L52.9232 547.144 L61.7773 547.144 L61.7773 584.175 L89.9543 584.175 L89.9543 544.592 L98.8084 544.592 L98.8084 594.696 L21.0484 594.696 Z" fill="#000000" fill-rule="nonzero" fill-opacity="1" /><path clip-path="url(#clip360)" d="M49.4336 493.915 Q48.4961 495.53 48.0795 497.457 Q47.6107 499.332 47.6107 501.624 Q47.6107 509.749 52.9232 514.124 Q58.1836 518.446 68.0794 518.446 L98.8084 518.446 L98.8084 528.082 L40.4754 528.082 L40.4754 518.446 L49.5378 518.446 Q44.2253 515.426 41.6733 510.582 Q39.0691 505.738 39.0691 498.811 Q39.0691 497.822 39.2254 496.624 Q39.3295 495.426 39.5899 493.967 L49.4336 493.915 Z" fill="#000000" fill-rule="nonzero" fill-opacity="1" /><path clip-path="url(#clip360)" d="M49.4336 451.936 Q48.4961 453.551 48.0795 455.478 Q47.6107 457.353 47.6107 459.645 Q47.6107 467.77 52.9232 472.145 Q58.1836 476.468 68.0794 476.468 L98.8084 476.468 L98.8084 486.103 L40.4754 486.103 L40.4754 476.468 L49.5378 476.468 Q44.2253 473.447 41.6733 468.603 Q39.0691 463.759 39.0691 456.832 Q39.0691 455.843 39.2254 454.645 Q39.3295 453.447 39.5899 451.988 L49.4336 451.936 Z" fill="#000000" fill-rule="nonzero" fill-opacity="1" /><path clip-path="url(#clip360)" d="M47.1941 421.624 Q47.1941 429.332 53.2357 433.811 Q59.2253 438.291 69.694 438.291 Q80.1626 438.291 86.2043 433.864 Q92.1938 429.384 92.1938 421.624 Q92.1938 413.968 86.1522 409.489 Q80.1106 405.01 69.694 405.01 Q59.3294 405.01 53.2878 409.489 Q47.1941 413.968 47.1941 421.624 M39.0691 421.624 Q39.0691 409.124 47.1941 401.989 Q55.319 394.853 69.694 394.853 Q84.0168 394.853 92.1938 401.989 Q100.319 409.124 100.319 421.624 Q100.319 434.176 92.1938 441.311 Q84.0168 448.395 69.694 448.395 Q55.319 448.395 47.1941 441.311 Q39.0691 434.176 39.0691 421.624 Z" fill="#000000" fill-rule="nonzero" fill-opacity="1" /><path clip-path="url(#clip360)" d="M49.4336 345.166 Q48.4961 346.781 48.0795 348.708 Q47.6107 350.583 47.6107 352.874 Q47.6107 360.999 52.9232 365.374 Q58.1836 369.697 68.0794 369.697 L98.8084 369.697 L98.8084 379.333 L40.4754 379.333 L40.4754 369.697 L49.5378 369.697 Q44.2253 366.676 41.6733 361.833 Q39.0691 356.989 39.0691 350.062 Q39.0691 349.072 39.2254 347.874 Q39.3295 346.677 39.5899 345.218 L49.4336 345.166 Z" fill="#000000" fill-rule="nonzero" fill-opacity="1" /><path clip-path="url(#clip360)" d="M17.8713 312.093 Q29.8504 319.073 41.5691 322.458 Q53.2878 325.843 65.319 325.843 Q77.3502 325.843 89.173 322.458 Q100.944 319.02 112.871 312.093 L112.871 320.427 Q100.631 328.239 88.8084 332.145 Q76.9856 336 65.319 336 Q53.7045 336 41.9337 332.145 Q30.1629 328.291 17.8713 320.427 L17.8713 312.093 Z" fill="#000000" fill-rule="nonzero" fill-opacity="1" /><path clip-path="url(#clip360)" d="M90.0584 284.229 L120.996 284.229 L120.996 293.864 L40.4754 293.864 L40.4754 284.229 L49.3295 284.229 Q44.1212 281.208 41.6212 276.625 Q39.0691 271.989 39.0691 265.583 Q39.0691 254.958 47.5066 248.344 Q55.944 241.677 69.694 241.677 Q83.4439 241.677 91.8813 248.344 Q100.319 254.958 100.319 265.583 Q100.319 271.989 97.8188 276.625 Q95.2667 281.208 90.0584 284.229 M69.694 251.625 Q59.1211 251.625 53.1315 256 Q47.0899 260.323 47.0899 267.927 Q47.0899 275.531 53.1315 279.906 Q59.1211 284.229 69.694 284.229 Q80.2668 284.229 86.3084 279.906 Q92.298 275.531 92.298 267.927 Q92.298 260.323 86.3084 256 Q80.2668 251.625 69.694 251.625 Z" fill="#000000" fill-rule="nonzero" fill-opacity="1" /><path clip-path="url(#clip360)" d="M90.0584 216.521 L120.996 216.521 L120.996 226.156 L40.4754 226.156 L40.4754 216.521 L49.3295 216.521 Q44.1212 213.5 41.6212 208.917 Q39.0691 204.281 39.0691 197.875 Q39.0691 187.25 47.5066 180.636 Q55.944 173.969 69.694 173.969 Q83.4439 173.969 91.8813 180.636 Q100.319 187.25 100.319 197.875 Q100.319 204.281 97.8188 208.917 Q95.2667 213.5 90.0584 216.521 M69.694 183.917 Q59.1211 183.917 53.1315 188.292 Q47.0899 192.615 47.0899 200.219 Q47.0899 207.823 53.1315 212.198 Q59.1211 216.521 69.694 216.521 Q80.2668 216.521 86.3084 212.198 Q92.298 207.823 92.298 200.219 Q92.298 192.615 86.3084 188.292 Q80.2668 183.917 69.694 183.917 Z" fill="#000000" fill-rule="nonzero" fill-opacity="1" /><path clip-path="url(#clip360)" d="M69.694 116.209 Q59.1211 116.209 53.1315 120.584 Q47.0899 124.907 47.0899 132.511 Q47.0899 140.115 53.1315 144.49 Q59.1211 148.813 69.694 148.813 Q80.2668 148.813 86.3084 144.49 Q92.298 140.115 92.298 132.511 Q92.298 124.907 86.3084 120.584 Q80.2668 116.209 69.694 116.209 M49.3295 148.813 Q44.1212 145.792 41.6212 141.209 Q39.0691 136.574 39.0691 130.167 Q39.0691 119.542 47.5066 112.928 Q55.944 106.261 69.694 106.261 Q83.4439 106.261 91.8813 112.928 Q100.319 119.542 100.319 130.167 Q100.319 136.574 97.8188 141.209 Q95.2667 145.792 90.0584 148.813 L98.8084 148.813 L98.8084 158.448 L17.7671 158.448 L17.7671 148.813 L49.3295 148.813 Z" fill="#000000" fill-rule="nonzero" fill-opacity="1" /><path clip-path="url(#clip360)" d="M17.8713 91.8862 L17.8713 83.553 Q30.1629 75.7405 41.9337 71.8864 Q53.7045 67.9801 65.319 67.9801 Q76.9856 67.9801 88.8084 71.8864 Q100.631 75.7405 112.871 83.553 L112.871 91.8862 Q100.944 84.9592 89.173 81.5738 Q77.3502 78.1363 65.319 78.1363 Q53.2878 78.1363 41.5691 81.5738 Q29.8504 84.9592 17.8713 91.8862 Z" fill="#000000" fill-rule="nonzero" fill-opacity="1" /><path clip-path="url(#clip362)" d="M571.665 494.088 L588.579 484.122 L605.492 461.476 L622.406 431.034 L639.32 408.315 L656.234 393.51 L673.148 395.535 L690.061 411.718 L706.975 448.248 L723.889 491.602 L740.803 521.605 L757.717 539.571 L774.63 542.894 L791.544 535.341 L808.458 527.952 L825.372 525.822 L842.286 539.142 L859.199 567.686 L876.113 612.515 L893.027 658.334 L909.941 701.202 L926.855 732.222 L943.768 757.386 L960.682 771.506 L977.596 765.653 L994.51 726.413 L1011.42 677.333 L1028.34 626.191 L1045.25 581.773 L1062.16 556.856 L1079.08 550.816 L1095.99 553.309 L1112.91 579.53 L1129.82 615.443 L1146.73 638.612 L1163.65 654.251 L1180.56 666.547 L1197.48 661.015 L1214.39 648.048 L1231.3 640.173 L1248.22 649.553 L1265.13 673.125 L1282.04 711.519 L1298.96 751.578 L1315.87 786.511 L1332.79 810.418 L1349.7 829.214 L1366.61 837.518 L1383.53 827.786 L1400.44 785.089 L1417.35 731.14 L1434.27 676.072 L1451.18 626.476 L1468.1 587.449 L1485.01 578.222 L1501.92 581.717 L1518.84 604.993 L1535.75 638.73 L1552.67 668.116 L1569.58 692.354 L1586.49 702.331 L1603.41 695.193 L1620.32 680.649 L1637.23 670.599 L1654.15 677.466 L1671.06 698.426 L1687.98 735.243 L1704.89 772.857 L1721.8 805.641 L1738.72 828.024 L1755.63 845.274 L1772.54 852.148 L1789.46 839.895 L1806.37 795.085 L1823.29 739.679 L1840.2 682.459 L1857.11 631.212 L1874.03 590.724 L1890.94 582.616 L1907.85 583.375 L1924.77 607.551 L1941.68 641.616 L1958.6 667.648 L1975.51 692.785 L1992.42 703.633 L2009.34 697.051 L2026.25 682.526 L2043.17 672.638 L2060.08 680.039 L2076.99 702.002 L2093.91 738.302 L2110.82 776.59 L2127.73 810.328 L2144.65 832.855 L2161.56 850.323 L2178.48 857.356 L2195.39 845.292 L2212.3 800.236 L2229.22 744.438 L2246.13 686.588 L2263.04 634.948 L2279.96 591.348 L2296.87 582.835 L2313.79 585.711 L2330.7 610.362 L2347.61 645.184 L2364.53 665.953 L2381.44 689.303 L2398.36 700.311 L2415.27 694.201 L2432.18 680.765 L2449.1 671.641 L2466.01 679.433 L2482.92 701.552 L2499.84 737.82 L2516.75 775.852 L2533.67 809.323 L2550.58 831.507 L2567.49 848.272 L2584.41 855.147 L2601.32 843.437 L2618.23 798.853 L2635.15 742.892 L2652.06 684.955 L2668.98 632.892 L2685.89 589.924 L2702.8 578.153 L2719.72 581.831 L2736.63 607.093 L2753.54 642.55 L2770.46 668.221 L2787.37 693.022 L2804.29 703.754 L2821.2 697.603 L2838.11 684.485 L2855.03 675.414 L2871.94 682.01 L2888.86 703.807 L2905.77 739.321 L2922.68 774.997 L2939.6 805.434 L2956.51 825.258 L2973.42 841.913 L2990.34 849.004 L3007.25 836.771 L3024.17 790.871 L3041.08 735.967 L3057.99 678.643 L3074.91 626.984 L3091.82 593.946 L3108.73 584.555 L3125.65 588.788 L3142.56 613.824 L3159.48 648.35 L3176.39 668.043 L3193.3 680.891 L3210.22 692.642 L3227.13 687.496 L3244.05 674.519 L3260.96 665.935 L3277.87 673.714 L3294.79 696.283 L3311.7 732.844 L3328.61 769.921 L3345.53 803.642 L3362.44 826.167 L3379.36 843.583 L3396.27 850.736 L3413.18 838.266 L3430.1 792.59 L3447.01 736.194 L3463.92 677.842 L3480.84 626.827 L3497.75 594.142 L3514.67 585.664 L3531.58 591.863 L3548.49 618.762 L3565.41 653.4 L3582.32 672.954 L3599.23 684.906 L3616.15 696.099 L3633.06 690.599 L3649.98 676.499 L3666.89 667.077 L3683.8 674.093 L3700.72 695.778 L3717.63 731.438 L3734.55 766.695 L3751.46 798.452 L3768.37 819.393 L3785.29 836.335 L3802.2 843.488 L3819.11 832.318 L3836.03 787.691 L3852.94 732.561 L3869.86 674.871 L3886.77 624.467 L3903.68 597 L3920.6 587.196 L3937.51 591.182 L3954.42 613.007 L3971.34 646.118 L3988.25 666.35 L4005.17 677.563 L4022.08 689.944 L4038.99 685.409 L4055.91 672.658 L4072.82 664.019 L4089.73 671.513 L4106.65 693.5 L4123.56 729.293 L4140.48 765.505 L4157.39 797.87 L4174.3 819.495 L4191.22 836.702 L4208.13 844.097 L4225.05 832.992 L4241.96 788.203 L4258.87 732.166 L4275.79 673.986 L4292.7 621.903 L4309.61 588.625 L4326.53 579.944 L4343.44 582.304 L4360.36 607.504 L4377.27 643.64 L4394.18 664.135 L4411.1 683.977 L4428.01 695.366 L4444.92 690.316 L4461.84 677.075 L4478.75 668.417 L4495.67 675.991 L4512.58 698.44 L4529.49 734.699 L4546.41 771.23 L4563.32 803.166 L4580.24 824.504 L4597.15 840.99 L4614.06 848.251 L4630.98 836.18 L4630.98 145.748 L4614.06 147.358 L4597.15 144.716 L4580.24 139.087 L4563.32 128.32 L4546.41 114.351 L4529.49 101.254 L4512.58 87.8508 L4495.67 79.5931 L4478.75 75.8043 L4461.84 79.2387 L4444.92 86.628 L4428.01 95.1176 L4411.1 99.8283 L4394.18 101.146 L4377.27 96.9801 L4360.36 82.8755 L4343.44 70.8423 L4326.53 70.8396 L4309.61 76.7529 L4292.7 89.8046 L4275.79 104.274 L4258.87 122.855 L4241.96 137.298 L4225.05 149.599 L4208.13 150.334 L4191.22 146.399 L4174.3 139.639 L4157.39 132.145 L4140.48 121.317 L4123.56 108.118 L4106.65 94.5788 L4089.73 86.5113 L4072.82 82.4799 L4055.91 84.8508 L4038.99 90.712 L4022.08 97.117 L4005.17 101.329 L3988.25 103.18 L3971.34 99.7946 L3954.42 87.4428 L3937.51 79.2791 L3920.6 79.5487 L3903.68 84.4225 L3886.77 98.3161 L3869.86 112.976 L3852.94 129.554 L3836.03 145.119 L3819.11 157.949 L3802.2 159.257 L3785.29 155.913 L3768.37 152.132 L3751.46 142.239 L3734.55 125.681 L3717.63 110.283 L3700.72 95.4326 L3683.8 87.582 L3666.89 84.8982 L3649.98 89.1051 L3633.06 96.7669 L3616.15 103.267 L3599.23 107.481 L3582.32 109.146 L3565.41 106.005 L3548.49 93.5036 L3531.58 83.6434 L3514.67 84.2404 L3497.75 89.1484 L3480.84 101.97 L3463.92 116.64 L3447.01 131.965 L3430.1 147.723 L3413.18 160.184 L3396.27 161.065 L3379.36 157.145 L3362.44 150.311 L3345.53 142.318 L3328.61 127.392 L3311.7 112.808 L3294.79 98.5415 L3277.87 90.5089 L3260.96 87.4828 L3244.05 91.756 L3227.13 100.321 L3210.22 107.787 L3193.3 112.145 L3176.39 113.909 L3159.48 110.427 L3142.56 97.3576 L3125.65 88.5732 L3108.73 90.6499 L3091.82 96.8165 L3074.91 110.26 L3057.99 125.198 L3041.08 140.456 L3024.17 156.524 L3007.25 169.505 L2990.34 169.796 L2973.42 164.424 L2956.51 155.536 L2939.6 144.875 L2922.68 130.314 L2905.77 116.422 L2888.86 102.962 L2871.94 94.7369 L2855.03 91.1039 L2838.11 95.0359 L2821.2 102.711 L2804.29 109.756 L2787.37 113.866 L2770.46 115.438 L2753.54 111.968 L2736.63 99.5926 L2719.72 91.6479 L2702.8 94.3084 L2685.89 99.9272 L2668.98 114.618 L2652.06 129.274 L2635.15 146.153 L2618.23 162.232 L2601.32 176.311 L2584.41 177.971 L2567.49 173.638 L2550.58 165.758 L2533.67 154.432 L2516.75 138.896 L2499.84 121.746 L2482.92 106.55 L2466.01 97.5476 L2449.1 94.2355 L2432.18 97.9085 L2415.27 105.633 L2398.36 114.682 L2381.44 121.627 L2364.53 124.912 L2347.61 121.911 L2330.7 109.877 L2313.79 101.84 L2296.87 104.249 L2279.96 109.438 L2263.04 123.392 L2246.13 137.394 L2229.22 153.509 L2212.3 168.802 L2195.39 180.777 L2178.48 180.957 L2161.56 175.568 L2144.65 166.859 L2127.73 156.001 L2110.82 139.111 L2093.91 122.639 L2076.99 106.669 L2060.08 98.1562 L2043.17 95.4017 L2026.25 100.397 L2009.34 108.469 L1992.42 117.938 L1975.51 125.01 L1958.6 129.583 L1941.68 129.09 L1924.77 118.112 L1907.85 109.943 L1890.94 112.729 L1874.03 116.817 L1857.11 129.577 L1840.2 144.011 L1823.29 160.434 L1806.37 175.856 L1789.46 188.445 L1772.54 189.092 L1755.63 183.735 L1738.72 175.059 L1721.8 164.645 L1704.89 149.916 L1687.98 134.011 L1671.06 119.146 L1654.15 110.532 L1637.23 107.414 L1620.32 111.662 L1603.41 120.181 L1586.49 130.185 L1569.58 137.969 L1552.67 143.293 L1535.75 143.63 L1518.84 133.317 L1501.92 122.664 L1485.01 122.668 L1468.1 126.309 L1451.18 138.384 L1434.27 152.859 L1417.35 168.663 L1400.44 183.434 L1383.53 195.753 L1366.61 196.478 L1349.7 191.728 L1332.79 184.295 L1315.87 176.429 L1298.96 165.567 L1282.04 148.607 L1265.13 133.424 L1248.22 124.75 L1231.3 121.696 L1214.39 126.703 L1197.48 136.373 L1180.56 146.982 L1163.65 155.553 L1146.73 161.52 L1129.82 162.198 L1112.91 152.39 L1095.99 144.865 L1079.08 147.697 L1062.16 154.035 L1045.25 167.75 L1028.34 183.963 L1011.42 205.63 L994.51 221.275 L977.596 235.178 L960.682 237.315 L943.768 234.973 L926.855 230.61 L909.941 225.594 L893.027 217.186 L876.113 207.636 L859.199 196.351 L842.286 191.592 L825.372 192.292 L808.458 201.171 L791.544 214.958 L774.63 230.462 L757.717 241.579 L740.803 246.096 L723.889 246.93 L706.975 241.481 L690.061 229.096 L673.148 239.558 L656.234 261.011 L639.32 292.49 L622.406 320.844 L605.492 351.065 L588.579 379.908 L571.665 404.012  Z" fill="#aeaeae" fill-rule="evenodd" fill-opacity="0.5"/>
<polyline clip-path="url(#clip362)" style="stroke:#aeaeae; stroke-linecap:round; stroke-linejoin:round; stroke-width:0; stroke-opacity:1; fill:none" points="571.665,449.35 588.579,444.246 605.492,434.049 622.406,421.795 639.32,410.419 656.234,400.893 673.148,397.335 690.061,397.882 706.975,405.961 723.889,416.883 740.803,422.493 757.717,424.637 774.63,423.85 791.544,419.975 808.458,415.564 825.372,413.246 842.286,415.888 859.199,422.617 876.113,433.891 893.027,445.994 909.941,457.615 926.855,466.686 943.768,474.265 960.682,478.638 977.596,477.841 994.51,467.515 1011.42,453.975 1028.34,439.434 1045.25,426.493 1062.16,415.471 1079.08,410.958 1095.99,410.532 1112.91,417.984 1129.82,428.543 1146.73,433.562 1163.65,434.938 1180.56,433.404 1197.48,428.864 1214.39,423.881 1231.3,421.141 1248.22,423.489 1265.13,430.004 1282.04,441.085 1298.96,452.937 1315.87,464.264 1332.79,473.021 1349.7,480.23 1366.61,484.202 1383.53,483.043 1400.44,472.361 1417.35,458.459 1434.27,443.579 1451.18,430.263 1468.1,418.974 1485.01,414.198 1501.92,413.586 1518.84,421.025 1535.75,431.574 1552.67,436.488 1569.58,437.712 1586.49,435.996 1603.41,431.272 1620.32,426.157 1637.23,423.29 1654.15,425.539 1671.06,431.925 1687.98,442.816 1704.89,454.435 1721.8,465.525 1738.72,474.085 1755.63,481.124 1772.54,484.963 1789.46,483.688 1806.37,472.869 1823.29,458.847 1840.2,443.861 1857.11,430.47 1874.03,419.018 1890.94,414.113 1907.85,413.295 1924.77,420.551 1941.68,431.067 1958.6,436.029 1975.51,437.291 1992.42,435.613 2009.34,430.919 2026.25,425.834 2043.17,422.974 2060.08,425.199 2076.99,431.522 2093.91,442.353 2110.82,453.874 2127.73,464.895 2144.65,473.351 2161.56,480.317 2178.48,484.118 2195.39,482.782 2212.3,471.893 2229.22,457.846 2246.13,442.824 2263.04,429.425 2279.96,418.064 2296.87,413.204 2313.79,412.649 2330.7,420.018 2347.61,430.566 2364.53,435.552 2381.44,436.809 2398.36,435.134 2415.27,430.447 2432.18,425.383 2449.1,422.555 2466.01,424.79 2482.92,431.083 2499.84,441.856 2516.75,453.244 2533.67,464.161 2550.58,472.553 2567.49,479.468 2584.41,483.22 2601.32,481.849 2618.23,470.967 2635.15,456.898 2652.06,441.88 2668.98,428.465 2685.89,416.999 2702.8,412.111 2719.72,411.407 2736.63,418.711 2753.54,429.346 2770.46,434.382 2787.37,435.694 2804.29,434.082 2821.2,429.459 2838.11,424.429 2855.03,421.626 2871.94,423.848 2888.86,430.142 2905.77,440.901 2922.68,452.318 2939.6,463.22 2956.51,471.573 2973.42,478.448 2990.34,482.166 3007.25,480.82 3024.17,469.922 3041.08,455.87 3057.99,440.869 3074.91,427.472 3091.82,416.051 3108.73,411.182 3125.65,410.466 3142.56,417.84 3159.48,428.494 3176.39,433.564 3193.3,434.904 3210.22,433.314 3227.13,428.712 3244.05,423.702 3260.96,420.915 3277.87,423.144 3294.79,429.403 3311.7,440.119 3328.61,451.518 3345.53,462.356 3362.44,470.642 3379.36,477.465 3396.27,481.173 3413.18,479.793 3430.1,468.902 3447.01,454.854 3463.92,439.845 3480.84,426.449 3497.75,415.071 3514.67,410.198 3531.58,409.511 3548.49,416.961 3565.41,427.67 3582.32,432.756 3599.23,434.124 3616.15,432.593 3633.06,428.01 3649.98,423.001 3666.89,420.237 3683.8,422.517 3700.72,428.766 3717.63,439.453 3734.55,450.762 3751.46,461.567 3768.37,469.831 3785.29,476.645 3802.2,480.352 3819.11,478.968 3836.03,468.065 3852.94,454.032 3869.86,439.051 3886.77,425.677 3903.68,414.298 3920.6,409.483 3937.51,408.748 3954.42,416.104 3971.34,426.834 3988.25,431.958 4005.17,433.354 4022.08,431.833 4038.99,427.297 4055.91,422.337 4072.82,419.583 4089.73,421.833 4106.65,428.072 4123.56,438.715 4140.48,449.957 4157.39,460.722 4174.3,468.955 4191.22,475.783 4208.13,479.498 4225.05,478.148 4241.96,467.277 4258.87,453.258 4275.79,438.292 4292.7,424.938 4309.61,413.559 4326.53,408.742 4343.44,408.08 4360.36,415.538 4377.27,426.282 4394.18,431.439 4411.1,432.859 4428.01,431.356 4444.92,426.831 4461.84,421.882 4478.75,419.134 4495.67,421.364 4512.58,427.571 4529.49,438.205 4546.41,449.464 4563.32,460.256 4580.24,468.474 4597.15,475.257 4614.06,478.96 4630.98,477.331 "/>
<path clip-path="url(#clip362)" d="M571.665 481.167 L588.579 474.527 L605.492 452.188 L622.406 424.106 L639.32 400.838 L656.234 384.672 L673.148 383.398 L690.061 392.755 L706.975 420.52 L723.889 456.431 L740.803 482.461 L757.717 497.333 L774.63 501.521 L791.544 492.433 L808.458 482.477 L825.372 473.682 L842.286 482.206 L859.199 501.763 L876.113 535.804 L893.027 571.972 L909.941 606.946 L926.855 635.129 L943.768 659.433 L960.682 674.853 L977.596 672.704 L994.51 642.255 L1011.42 600.955 L1028.34 561.027 L1045.25 527.463 L1062.16 500.647 L1079.08 491.581 L1095.99 494.957 L1112.91 517.666 L1129.82 550.776 L1146.73 570.413 L1163.65 581.878 L1180.56 583.848 L1197.48 569.031 L1214.39 554.784 L1231.3 544.226 L1248.22 547.904 L1265.13 563.191 L1282.04 593.367 L1298.96 627.532 L1315.87 659.402 L1332.79 684.224 L1349.7 703.363 L1366.61 714.548 L1383.53 709.345 L1400.44 676.268 L1417.35 636.388 L1434.27 593.159 L1451.18 555.835 L1468.1 525.661 L1485.01 513.836 L1501.92 515.786 L1518.84 537.693 L1535.75 568.046 L1552.67 587.979 L1569.58 600.051 L1586.49 601.268 L1603.41 588.39 L1620.32 571.116 L1637.23 560.288 L1654.15 563.21 L1671.06 576.371 L1687.98 605.904 L1704.89 639.378 L1721.8 671.139 L1738.72 695.154 L1755.63 710.763 L1772.54 721.995 L1789.46 715.874 L1806.37 683.276 L1823.29 640.239 L1840.2 597.937 L1857.11 561.491 L1874.03 529.769 L1890.94 518.541 L1907.85 519.073 L1924.77 539.896 L1941.68 571.328 L1958.6 589.943 L1975.51 601.303 L1992.42 600.668 L2009.34 588.811 L2026.25 571.976 L2043.17 562.005 L2060.08 563.627 L2076.99 577.884 L2093.91 607.579 L2110.82 639.094 L2127.73 669.485 L2144.65 693.716 L2161.56 710.94 L2178.48 722.883 L2195.39 716.582 L2212.3 682.495 L2229.22 641.032 L2246.13 596.833 L2263.04 559.301 L2279.96 529.158 L2296.87 517.554 L2313.79 518.447 L2330.7 541.828 L2347.61 570.994 L2364.53 589.74 L2381.44 600.019 L2398.36 602.355 L2415.27 590.98 L2432.18 573.143 L2449.1 561.28 L2466.01 564.735 L2482.92 577.656 L2499.84 606.684 L2516.75 639.915 L2533.67 671.335 L2550.58 694.144 L2567.49 711.95 L2584.41 721.414 L2601.32 716.17 L2618.23 683.257 L2635.15 641.226 L2652.06 598.043 L2668.98 559.032 L2685.89 527.679 L2702.8 515.683 L2719.72 517.485 L2736.63 539.091 L2753.54 569.338 L2770.46 589.74 L2787.37 598.876 L2804.29 601.107 L2821.2 589.115 L2838.11 571.782 L2855.03 559.9 L2871.94 562.467 L2888.86 576.888 L2905.77 605.073 L2922.68 638.235 L2939.6 669.948 L2956.51 694.525 L2973.42 710.192 L2990.34 721.333 L3007.25 714.797 L3024.17 680.822 L3041.08 638.566 L3057.99 596.216 L3074.91 557.414 L3091.82 529.17 L3108.73 514.549 L3125.65 516.82 L3142.56 537.707 L3159.48 568.852 L3176.39 588.353 L3193.3 598.772 L3210.22 600.179 L3227.13 586.79 L3244.05 570.234 L3260.96 559.262 L3277.87 561.282 L3294.79 575.2 L3311.7 604.069 L3328.61 637.023 L3345.53 668.914 L3362.44 691.239 L3379.36 709.009 L3396.27 719.126 L3413.18 711.908 L3430.1 679.352 L3447.01 637.519 L3463.92 595.694 L3480.84 555.941 L3497.75 526.58 L3514.67 513.316 L3531.58 516.26 L3548.49 537.787 L3565.41 570.241 L3582.32 588.059 L3599.23 596.61 L3616.15 597.661 L3633.06 586.123 L3649.98 571.396 L3666.89 560.17 L3683.8 560.95 L3700.72 576.162 L3717.63 604.871 L3734.55 637.388 L3751.46 668.65 L3768.37 690.941 L3785.29 708.312 L3802.2 717.167 L3819.11 710.739 L3836.03 676.812 L3852.94 636.814 L3869.86 594.18 L3886.77 556.714 L3903.68 526.516 L3920.6 514.662 L3937.51 516.609 L3954.42 537.523 L3971.34 567.648 L3988.25 587.621 L4005.17 597.426 L4022.08 597.913 L4038.99 587.703 L4055.91 570.124 L4072.82 558.35 L4089.73 561.257 L4106.65 575.908 L4123.56 604.207 L4140.48 636.833 L4157.39 667.326 L4174.3 688.983 L4191.22 708.14 L4208.13 715.796 L4225.05 710.466 L4241.96 677.781 L4258.87 637.312 L4275.79 592.796 L4292.7 555.281 L4309.61 525.415 L4326.53 513.342 L4343.44 515.548 L4360.36 537.171 L4377.27 567.228 L4394.18 584.855 L4411.1 595.074 L4428.01 596.341 L4444.92 586.07 L4461.84 569.975 L4478.75 557.26 L4495.67 561.408 L4512.58 575.93 L4529.49 603.726 L4546.41 634.784 L4563.32 667.112 L4580.24 691.597 L4597.15 707.232 L4614.06 715.984 L4630.98 709.679 L4630.98 272.31 L4614.06 273.025 L4597.15 268.265 L4580.24 260.701 L4563.32 251.188 L4546.41 237.625 L4529.49 224.282 L4512.58 208.527 L4495.67 198.549 L4478.75 192.78 L4461.84 193.485 L4444.92 198.849 L4428.01 204.959 L4411.1 210.349 L4394.18 213.364 L4377.27 206.9 L4360.36 192.797 L4343.44 182.414 L4326.53 183.595 L4309.61 189.471 L4292.7 206.036 L4275.79 224.657 L4258.87 242.037 L4241.96 259.654 L4225.05 272.436 L4208.13 272.279 L4191.22 268.27 L4174.3 260.845 L4157.39 252.254 L4140.48 239.02 L4123.56 225.348 L4106.65 210.407 L4089.73 199.161 L4072.82 193.24 L4055.91 195.03 L4038.99 201.054 L4022.08 208.662 L4005.17 213.725 L3988.25 215.806 L3971.34 211.532 L3954.42 197.941 L3937.51 188.42 L3920.6 188.631 L3903.68 193.928 L3886.77 208.765 L3869.86 225.002 L3852.94 242.901 L3836.03 260.221 L3819.11 275.573 L3802.2 275.624 L3785.29 270.408 L3768.37 262.824 L3751.46 254.82 L3734.55 242.705 L3717.63 226.779 L3700.72 210.759 L3683.8 200.994 L3666.89 194.386 L3649.98 194.875 L3633.06 201.361 L3616.15 209.04 L3599.23 214.506 L3582.32 216.2 L3565.41 213.465 L3548.49 198.232 L3531.58 188.56 L3514.67 191.254 L3497.75 197.483 L3480.84 212.58 L3463.92 227.567 L3447.01 246.523 L3430.1 264.322 L3413.18 278.67 L3396.27 278.812 L3379.36 274.208 L3362.44 267.155 L3345.53 258.452 L3328.61 245.316 L3311.7 229.733 L3294.79 213.776 L3277.87 203.916 L3260.96 199.134 L3244.05 200.128 L3227.13 205.595 L3210.22 212.758 L3193.3 216.712 L3176.39 218.145 L3159.48 215.448 L3142.56 201.075 L3125.65 191.532 L3108.73 192.4 L3091.82 199.123 L3074.91 212.398 L3057.99 228.884 L3041.08 248.284 L3024.17 265.591 L3007.25 280.278 L2990.34 281.749 L2973.42 277.2 L2956.51 269.65 L2939.6 259.64 L2922.68 246.982 L2905.77 232.713 L2888.86 217.244 L2871.94 206.863 L2855.03 201.794 L2838.11 203.65 L2821.2 209.253 L2804.29 215.994 L2787.37 221.125 L2770.46 222.821 L2753.54 219.097 L2736.63 205.515 L2719.72 194.85 L2702.8 195.669 L2685.89 201.205 L2668.98 216.27 L2652.06 233.947 L2635.15 252.728 L2618.23 269.163 L2601.32 283.39 L2584.41 285.467 L2567.49 282.383 L2550.58 275.109 L2533.67 265.524 L2516.75 250.386 L2499.84 236.007 L2482.92 220.852 L2466.01 211.614 L2449.1 205.355 L2432.18 206.737 L2415.27 210.812 L2398.36 217.275 L2381.44 221.5 L2364.53 223.914 L2347.61 220.621 L2330.7 207.855 L2313.79 198.61 L2296.87 199.738 L2279.96 204.896 L2263.04 219.464 L2246.13 235.91 L2229.22 255.9 L2212.3 273.934 L2195.39 288.897 L2178.48 291.436 L2161.56 288.516 L2144.65 280.236 L2127.73 268.873 L2110.82 254.677 L2093.91 239.728 L2076.99 223.997 L2060.08 215.509 L2043.17 210.595 L2026.25 212.832 L2009.34 217.484 L1992.42 223.172 L1975.51 228.346 L1958.6 230.875 L1941.68 227.602 L1924.77 214.123 L1907.85 204.09 L1890.94 205.068 L1874.03 211.923 L1857.11 227.519 L1840.2 243.295 L1823.29 262.103 L1806.37 280.609 L1789.46 295.587 L1772.54 298.135 L1755.63 292.701 L1738.72 284.307 L1721.8 274.085 L1704.89 260.357 L1687.98 245.402 L1671.06 229.347 L1654.15 219.786 L1637.23 215.162 L1620.32 216.294 L1603.41 221.338 L1586.49 228.291 L1569.58 234.706 L1552.67 236.675 L1535.75 232.683 L1518.84 219.178 L1501.92 209.096 L1485.01 211.24 L1468.1 216.348 L1451.18 232.72 L1434.27 249.454 L1417.35 268.518 L1400.44 287.474 L1383.53 302.885 L1366.61 304.797 L1349.7 301.128 L1332.79 291.28 L1315.87 281.848 L1298.96 268.111 L1282.04 253.724 L1265.13 239.476 L1248.22 229.152 L1231.3 224.218 L1214.39 226.947 L1197.48 233.031 L1180.56 240.767 L1163.65 247.414 L1146.73 249.333 L1129.82 246.253 L1112.91 234.025 L1095.99 226.315 L1079.08 228.495 L1062.16 235.182 L1045.25 251.1 L1028.34 268.926 L1011.42 290.339 L994.51 310.83 L977.596 327.167 L960.682 331.164 L943.768 328.688 L926.855 320.773 L909.941 314.973 L893.027 303.526 L876.113 289.422 L859.199 277.383 L842.286 269.772 L825.372 269.019 L808.458 273.985 L791.544 282.922 L774.63 293.355 L757.717 300.517 L740.803 304.32 L723.889 305.01 L706.975 295.989 L690.061 291.171 L673.148 297.944 L656.234 311.833 L639.32 334.461 L622.406 360.596 L605.492 386.917 L588.579 410.807 L571.665 427.153  Z" fill="#757575" fill-rule="evenodd" fill-opacity="0.5"/>
<polyline clip-path="url(#clip362)" style="stroke:#757575; stroke-linecap:round; stroke-linejoin:round; stroke-width:0; stroke-opacity:1; fill:none" points="571.665,449.35 588.579,444.246 605.492,434.049 622.406,421.795 639.32,410.419 656.234,400.893 673.148,397.335 690.061,397.882 706.975,405.961 723.889,416.883 740.803,422.493 757.717,424.637 774.63,423.85 791.544,419.975 808.458,415.564 825.372,413.246 842.286,415.888 859.199,422.617 876.113,433.891 893.027,445.994 909.941,457.615 926.855,466.686 943.768,474.265 960.682,478.638 977.596,477.841 994.51,467.515 1011.42,453.975 1028.34,439.434 1045.25,426.493 1062.16,415.471 1079.08,410.958 1095.99,410.532 1112.91,417.984 1129.82,428.543 1146.73,433.562 1163.65,434.938 1180.56,433.404 1197.48,428.864 1214.39,423.881 1231.3,421.141 1248.22,423.489 1265.13,430.004 1282.04,441.085 1298.96,452.937 1315.87,464.264 1332.79,473.021 1349.7,480.23 1366.61,484.202 1383.53,483.043 1400.44,472.361 1417.35,458.459 1434.27,443.579 1451.18,430.263 1468.1,418.974 1485.01,414.198 1501.92,413.586 1518.84,421.025 1535.75,431.574 1552.67,436.488 1569.58,437.712 1586.49,435.996 1603.41,431.272 1620.32,426.157 1637.23,423.29 1654.15,425.539 1671.06,431.925 1687.98,442.816 1704.89,454.435 1721.8,465.525 1738.72,474.085 1755.63,481.124 1772.54,484.963 1789.46,483.688 1806.37,472.869 1823.29,458.847 1840.2,443.861 1857.11,430.47 1874.03,419.018 1890.94,414.113 1907.85,413.295 1924.77,420.551 1941.68,431.067 1958.6,436.029 1975.51,437.291 1992.42,435.613 2009.34,430.919 2026.25,425.834 2043.17,422.974 2060.08,425.199 2076.99,431.522 2093.91,442.353 2110.82,453.874 2127.73,464.895 2144.65,473.351 2161.56,480.317 2178.48,484.118 2195.39,482.782 2212.3,471.893 2229.22,457.846 2246.13,442.824 2263.04,429.425 2279.96,418.064 2296.87,413.204 2313.79,412.649 2330.7,420.018 2347.61,430.566 2364.53,435.552 2381.44,436.809 2398.36,435.134 2415.27,430.447 2432.18,425.383 2449.1,422.555 2466.01,424.79 2482.92,431.083 2499.84,441.856 2516.75,453.244 2533.67,464.161 2550.58,472.553 2567.49,479.468 2584.41,483.22 2601.32,481.849 2618.23,470.967 2635.15,456.898 2652.06,441.88 2668.98,428.465 2685.89,416.999 2702.8,412.111 2719.72,411.407 2736.63,418.711 2753.54,429.346 2770.46,434.382 2787.37,435.694 2804.29,434.082 2821.2,429.459 2838.11,424.429 2855.03,421.626 2871.94,423.848 2888.86,430.142 2905.77,440.901 2922.68,452.318 2939.6,463.22 2956.51,471.573 2973.42,478.448 2990.34,482.166 3007.25,480.82 3024.17,469.922 3041.08,455.87 3057.99,440.869 3074.91,427.472 3091.82,416.051 3108.73,411.182 3125.65,410.466 3142.56,417.84 3159.48,428.494 3176.39,433.564 3193.3,434.904 3210.22,433.314 3227.13,428.712 3244.05,423.702 3260.96,420.915 3277.87,423.144 3294.79,429.403 3311.7,440.119 3328.61,451.518 3345.53,462.356 3362.44,470.642 3379.36,477.465 3396.27,481.173 3413.18,479.793 3430.1,468.902 3447.01,454.854 3463.92,439.845 3480.84,426.449 3497.75,415.071 3514.67,410.198 3531.58,409.511 3548.49,416.961 3565.41,427.67 3582.32,432.756 3599.23,434.124 3616.15,432.593 3633.06,428.01 3649.98,423.001 3666.89,420.237 3683.8,422.517 3700.72,428.766 3717.63,439.453 3734.55,450.762 3751.46,461.567 3768.37,469.831 3785.29,476.645 3802.2,480.352 3819.11,478.968 3836.03,468.065 3852.94,454.032 3869.86,439.051 3886.77,425.677 3903.68,414.298 3920.6,409.483 3937.51,408.748 3954.42,416.104 3971.34,426.834 3988.25,431.958 4005.17,433.354 4022.08,431.833 4038.99,427.297 4055.91,422.337 4072.82,419.583 4089.73,421.833 4106.65,428.072 4123.56,438.715 4140.48,449.957 4157.39,460.722 4174.3,468.955 4191.22,475.783 4208.13,479.498 4225.05,478.148 4241.96,467.277 4258.87,453.258 4275.79,438.292 4292.7,424.938 4309.61,413.559 4326.53,408.742 4343.44,408.08 4360.36,415.538 4377.27,426.282 4394.18,431.439 4411.1,432.859 4428.01,431.356 4444.92,426.831 4461.84,421.882 4478.75,419.134 4495.67,421.364 4512.58,427.571 4529.49,438.205 4546.41,449.464 4563.32,460.256 4580.24,468.474 4597.15,475.257 4614.06,478.96 4630.98,477.331 "/>
<path clip-path="url(#clip362)" d="M571.665 477.96 L588.579 471.114 L605.492 448.934 L622.406 421.717 L639.32 398.437 L656.234 380.835 L673.148 378.531 L690.061 387.022 L706.975 412.429 L723.889 446.111 L740.803 469.406 L757.717 484.015 L774.63 489.314 L791.544 482.505 L808.458 468.653 L825.372 461.201 L842.286 467.907 L859.199 485.65 L876.113 516.254 L893.027 552.555 L909.941 584.933 L926.855 612.732 L943.768 635.492 L960.682 649.235 L977.596 648.702 L994.51 620.613 L1011.42 584.624 L1028.34 547.18 L1045.25 511.002 L1062.16 483.065 L1079.08 474.078 L1095.99 476.104 L1112.91 497.637 L1129.82 527.117 L1146.73 547.176 L1163.65 559.383 L1180.56 558.327 L1197.48 546.697 L1214.39 529.391 L1231.3 518.819 L1248.22 521.975 L1265.13 538.587 L1282.04 568.121 L1298.96 600.74 L1315.87 631.535 L1332.79 656.121 L1349.7 676.517 L1366.61 688.354 L1383.53 684.046 L1400.44 653.246 L1417.35 614.462 L1434.27 573.03 L1451.18 534.744 L1468.1 504.873 L1485.01 494.015 L1501.92 494.77 L1518.84 514.419 L1535.75 545.65 L1552.67 566.099 L1569.58 574.617 L1586.49 573.836 L1603.41 559.046 L1620.32 542.315 L1637.23 531.976 L1654.15 533.272 L1671.06 549.071 L1687.98 577.941 L1704.89 609.581 L1721.8 638.341 L1738.72 662.254 L1755.63 681.283 L1772.54 692.35 L1789.46 687.001 L1806.37 657.966 L1823.29 618.072 L1840.2 576.222 L1857.11 539.668 L1874.03 508.187 L1890.94 497.088 L1907.85 496.806 L1924.77 515.361 L1941.68 547.103 L1958.6 566.637 L1975.51 576.558 L1992.42 575.177 L2009.34 560.708 L2026.25 541.697 L2043.17 532.793 L2060.08 533.418 L2076.99 549.201 L2093.91 578.053 L2110.82 610.963 L2127.73 640.077 L2144.65 663.099 L2161.56 683.083 L2178.48 692.667 L2195.39 687.802 L2212.3 656.875 L2229.22 618.094 L2246.13 576.268 L2263.04 538.287 L2279.96 508.72 L2296.87 496.231 L2313.79 497.594 L2330.7 517.175 L2347.61 546.472 L2364.53 568.056 L2381.44 578.002 L2398.36 576.04 L2415.27 561.103 L2432.18 543.675 L2449.1 532.734 L2466.01 534.914 L2482.92 550.313 L2499.84 578.419 L2516.75 610.545 L2533.67 639.173 L2550.58 661.964 L2567.49 682.22 L2584.41 692.236 L2601.32 687.348 L2618.23 656.061 L2635.15 617.762 L2652.06 575.001 L2668.98 536.648 L2685.89 506.547 L2702.8 495.959 L2719.72 497.089 L2736.63 515.064 L2753.54 545.544 L2770.46 565.167 L2787.37 576.475 L2804.29 574.53 L2821.2 560.519 L2838.11 542.308 L2855.03 531.519 L2871.94 533.935 L2888.86 548.764 L2905.77 577.219 L2922.68 609.554 L2939.6 637.006 L2956.51 661.373 L2973.42 680.919 L2990.34 690.548 L3007.25 686.236 L3024.17 656.565 L3041.08 616.799 L3057.99 573.74 L3074.91 536.149 L3091.82 506.18 L3108.73 493.828 L3125.65 494.919 L3142.56 513.124 L3159.48 542.335 L3176.39 563.639 L3193.3 572.792 L3210.22 572.804 L3227.13 557.917 L3244.05 540.122 L3260.96 531.209 L3277.87 533.916 L3294.79 548.342 L3311.7 576.765 L3328.61 607.856 L3345.53 638.051 L3362.44 662.885 L3379.36 681.81 L3396.27 691.762 L3413.18 686.661 L3430.1 656.67 L3447.01 616.23 L3463.92 573.832 L3480.84 535.353 L3497.75 504.878 L3514.67 494.387 L3531.58 494.411 L3548.49 513.909 L3565.41 542.653 L3582.32 562.389 L3599.23 573.423 L3616.15 572.993 L3633.06 557.238 L3649.98 541.39 L3666.89 531.065 L3683.8 532.636 L3700.72 547.144 L3717.63 575.767 L3734.55 606.571 L3751.46 636.602 L3768.37 661.283 L3785.29 680.329 L3802.2 689.138 L3819.11 684.563 L3836.03 654.574 L3852.94 615.532 L3869.86 572.704 L3886.77 533.55 L3903.68 503.761 L3920.6 492.076 L3937.51 492.405 L3954.42 511.608 L3971.34 541.8 L3988.25 561.708 L4005.17 572.922 L4022.08 571.771 L4038.99 557.062 L4055.91 539.989 L4072.82 529.875 L4089.73 530.973 L4106.65 545.935 L4123.56 573.677 L4140.48 605.438 L4157.39 633.666 L4174.3 659.698 L4191.22 678.241 L4208.13 689.527 L4225.05 684.437 L4241.96 653.023 L4258.87 614.673 L4275.79 570.731 L4292.7 530.516 L4309.61 502.948 L4326.53 491.893 L4343.44 494.267 L4360.36 513.253 L4377.27 542.912 L4394.18 561.38 L4411.1 571.166 L4428.01 571.903 L4444.92 556.485 L4461.84 539.631 L4478.75 528.844 L4495.67 530.503 L4512.58 544.92 L4529.49 573.326 L4546.41 604.553 L4563.32 633.884 L4580.24 659.609 L4597.15 677.665 L4614.06 688.725 L4630.98 682.13 L4630.98 331.978 L4614.06 332.474 L4597.15 327.322 L4580.24 318.557 L4563.32 306.802 L4546.41 293.304 L4529.49 278.113 L4512.58 261.825 L4495.67 250.674 L4478.75 245.044 L4461.84 246.848 L4444.92 252.92 L4428.01 260.855 L4411.1 264.45 L4394.18 265.796 L4377.27 262.49 L4360.36 246.989 L4343.44 236.497 L4326.53 238.606 L4309.61 247.149 L4292.7 263.79 L4275.79 280.917 L4258.87 302.454 L4241.96 318.594 L4225.05 330.977 L4208.13 332.769 L4191.22 328.251 L4174.3 319.636 L4157.39 308.521 L4140.48 294.721 L4123.56 279.35 L4106.65 264.101 L4089.73 253.396 L4072.82 246.373 L4055.91 247.57 L4038.99 254.406 L4022.08 262.905 L4005.17 266.376 L3988.25 266.873 L3971.34 262.544 L3954.42 247.617 L3937.51 236.849 L3920.6 240.283 L3903.68 247.971 L3886.77 265.812 L3869.86 283.738 L3852.94 303.875 L3836.03 322.545 L3819.11 335.857 L3802.2 335.634 L3785.29 329.654 L3768.37 321.566 L3751.46 311.47 L3734.55 297.795 L3717.63 282.07 L3700.72 264.257 L3683.8 251.975 L3666.89 247.927 L3649.98 251.047 L3633.06 256.502 L3616.15 264.119 L3599.23 268.29 L3582.32 270.641 L3565.41 266.964 L3548.49 251.728 L3531.58 240.369 L3514.67 242.867 L3497.75 249.053 L3480.84 267.753 L3463.92 286.99 L3447.01 305.97 L3430.1 325.351 L3413.18 338.791 L3396.27 339.634 L3379.36 334.929 L3362.44 325.491 L3345.53 313.845 L3328.61 297.945 L3311.7 282.81 L3294.79 266.122 L3277.87 255.925 L3260.96 250.094 L3244.05 252.997 L3227.13 258.794 L3210.22 265.658 L3193.3 270.441 L3176.39 271.145 L3159.48 267.499 L3142.56 253.692 L3125.65 243.315 L3108.73 246.928 L3091.82 253.411 L3074.91 269.485 L3057.99 289.534 L3041.08 308.403 L3024.17 326.588 L3007.25 340.504 L2990.34 341.176 L2973.42 336.557 L2956.51 326.951 L2939.6 315.518 L2922.68 299.366 L2905.77 284.755 L2888.86 267.723 L2871.94 256.34 L2855.03 250.484 L2838.11 252.128 L2821.2 259.559 L2804.29 266.81 L2787.37 272.293 L2770.46 274.539 L2753.54 269.854 L2736.63 256.884 L2719.72 247.221 L2702.8 248.693 L2685.89 256.067 L2668.98 273.385 L2652.06 295.103 L2635.15 313.465 L2618.23 330.448 L2601.32 344.378 L2584.41 344.933 L2567.49 339.744 L2550.58 331.091 L2533.67 318.349 L2516.75 302.078 L2499.84 287.314 L2482.92 271.744 L2466.01 259.505 L2449.1 253.594 L2432.18 255.684 L2415.27 261.761 L2398.36 270.353 L2381.44 275.709 L2364.53 276.654 L2347.61 272.612 L2330.7 258.624 L2313.79 248.815 L2296.87 249.912 L2279.96 258.399 L2263.04 274.791 L2246.13 294.862 L2229.22 315.798 L2212.3 333.961 L2195.39 345.394 L2178.48 346.037 L2161.56 341.674 L2144.65 332.198 L2127.73 319.507 L2110.82 303.998 L2093.91 288.876 L2076.99 272.853 L2060.08 262.264 L2043.17 256.828 L2026.25 259.532 L2009.34 263.978 L1992.42 271.583 L1975.51 275.376 L1958.6 277.64 L1941.68 274.156 L1924.77 258.632 L1907.85 250.342 L1890.94 253.618 L1874.03 262.366 L1857.11 278.065 L1840.2 296.608 L1823.29 319.247 L1806.37 335.98 L1789.46 349.602 L1772.54 348.456 L1755.63 343.708 L1738.72 334.645 L1721.8 322.505 L1704.89 307.751 L1687.98 293.057 L1671.06 277.99 L1654.15 267.492 L1637.23 262.742 L1620.32 262.459 L1603.41 267.736 L1586.49 274.86 L1569.58 279.702 L1552.67 282.326 L1535.75 279.556 L1518.84 264.544 L1501.92 254.381 L1485.01 256.908 L1468.1 264.714 L1451.18 282.958 L1434.27 303.334 L1417.35 323.498 L1400.44 342.126 L1383.53 354.739 L1366.61 354.675 L1349.7 350.343 L1332.79 341.13 L1315.87 329.395 L1298.96 315.703 L1282.04 299.196 L1265.13 284.457 L1248.22 272.957 L1231.3 267.362 L1214.39 268.425 L1197.48 273.962 L1180.56 281.015 L1163.65 286.213 L1146.73 288.288 L1129.82 284.874 L1112.91 272.41 L1095.99 262.893 L1079.08 265.287 L1062.16 274.456 L1045.25 291.861 L1028.34 314.36 L1011.42 335.486 L994.51 354.269 L977.596 371.007 L960.682 370.33 L943.768 367.843 L926.855 359.643 L909.941 351.753 L893.027 337.516 L876.113 323.223 L859.199 308.711 L842.286 299.801 L825.372 297.119 L808.458 299.983 L791.544 308.844 L774.63 317.08 L757.717 323.476 L740.803 327.721 L723.889 326.471 L706.975 315.403 L690.061 306.257 L673.148 311.359 L656.234 323.771 L639.32 346.642 L622.406 372.383 L605.492 397.984 L588.579 419.13 L571.665 432.404  Z" fill="#414141" fill-rule="evenodd" fill-opacity="0.5"/>
<polyline clip-path="url(#clip362)" style="stroke:#414141; stroke-linecap:round; stroke-linejoin:round; stroke-width:0; stroke-opacity:1; fill:none" points="571.665,449.35 588.579,444.246 605.492,434.049 622.406,421.795 639.32,410.419 656.234,400.893 673.148,397.335 690.061,397.882 706.975,405.961 723.889,416.883 740.803,422.493 757.717,424.637 774.63,423.85 791.544,419.975 808.458,415.564 825.372,413.246 842.286,415.888 859.199,422.617 876.113,433.891 893.027,445.994 909.941,457.615 926.855,466.686 943.768,474.265 960.682,478.638 977.596,477.841 994.51,467.515 1011.42,453.975 1028.34,439.434 1045.25,426.493 1062.16,415.471 1079.08,410.958 1095.99,410.532 1112.91,417.984 1129.82,428.543 1146.73,433.562 1163.65,434.938 1180.56,433.404 1197.48,428.864 1214.39,423.881 1231.3,421.141 1248.22,423.489 1265.13,430.004 1282.04,441.085 1298.96,452.937 1315.87,464.264 1332.79,473.021 1349.7,480.23 1366.61,484.202 1383.53,483.043 1400.44,472.361 1417.35,458.459 1434.27,443.579 1451.18,430.263 1468.1,418.974 1485.01,414.198 1501.92,413.586 1518.84,421.025 1535.75,431.574 1552.67,436.488 1569.58,437.712 1586.49,435.996 1603.41,431.272 1620.32,426.157 1637.23,423.29 1654.15,425.539 1671.06,431.925 1687.98,442.816 1704.89,454.435 1721.8,465.525 1738.72,474.085 1755.63,481.124 1772.54,484.963 1789.46,483.688 1806.37,472.869 1823.29,458.847 1840.2,443.861 1857.11,430.47 1874.03,419.018 1890.94,414.113 1907.85,413.295 1924.77,420.551 1941.68,431.067 1958.6,436.029 1975.51,437.291 1992.42,435.613 2009.34,430.919 2026.25,425.834 2043.17,422.974 2060.08,425.199 2076.99,431.522 2093.91,442.353 2110.82,453.874 2127.73,464.895 2144.65,473.351 2161.56,480.317 2178.48,484.118 2195.39,482.782 2212.3,471.893 2229.22,457.846 2246.13,442.824 2263.04,429.425 2279.96,418.064 2296.87,413.204 2313.79,412.649 2330.7,420.018 2347.61,430.566 2364.53,435.552 2381.44,436.809 2398.36,435.134 2415.27,430.447 2432.18,425.383 2449.1,422.555 2466.01,424.79 2482.92,431.083 2499.84,441.856 2516.75,453.244 2533.67,464.161 2550.58,472.553 2567.49,479.468 2584.41,483.22 2601.32,481.849 2618.23,470.967 2635.15,456.898 2652.06,441.88 2668.98,428.465 2685.89,416.999 2702.8,412.111 2719.72,411.407 2736.63,418.711 2753.54,429.346 2770.46,434.382 2787.37,435.694 2804.29,434.082 2821.2,429.459 2838.11,424.429 2855.03,421.626 2871.94,423.848 2888.86,430.142 2905.77,440.901 2922.68,452.318 2939.6,463.22 2956.51,471.573 2973.42,478.448 2990.34,482.166 3007.25,480.82 3024.17,469.922 3041.08,455.87 3057.99,440.869 3074.91,427.472 3091.82,416.051 3108.73,411.182 3125.65,410.466 3142.56,417.84 3159.48,428.494 3176.39,433.564 3193.3,434.904 3210.22,433.314 3227.13,428.712 3244.05,423.702 3260.96,420.915 3277.87,423.144 3294.79,429.403 3311.7,440.119 3328.61,451.518 3345.53,462.356 3362.44,470.642 3379.36,477.465 3396.27,481.173 3413.18,479.793 3430.1,468.902 3447.01,454.854 3463.92,439.845 3480.84,426.449 3497.75,415.071 3514.67,410.198 3531.58,409.511 3548.49,416.961 3565.41,427.67 3582.32,432.756 3599.23,434.124 3616.15,432.593 3633.06,428.01 3649.98,423.001 3666.89,420.237 3683.8,422.517 3700.72,428.766 3717.63,439.453 3734.55,450.762 3751.46,461.567 3768.37,469.831 3785.29,476.645 3802.2,480.352 3819.11,478.968 3836.03,468.065 3852.94,454.032 3869.86,439.051 3886.77,425.677 3903.68,414.298 3920.6,409.483 3937.51,408.748 3954.42,416.104 3971.34,426.834 3988.25,431.958 4005.17,433.354 4022.08,431.833 4038.99,427.297 4055.91,422.337 4072.82,419.583 4089.73,421.833 4106.65,428.072 4123.56,438.715 4140.48,449.957 4157.39,460.722 4174.3,468.955 4191.22,475.783 4208.13,479.498 4225.05,478.148 4241.96,467.277 4258.87,453.258 4275.79,438.292 4292.7,424.938 4309.61,413.559 4326.53,408.742 4343.44,408.08 4360.36,415.538 4377.27,426.282 4394.18,431.439 4411.1,432.859 4428.01,431.356 4444.92,426.831 4461.84,421.882 4478.75,419.134 4495.67,421.364 4512.58,427.571 4529.49,438.205 4546.41,449.464 4563.32,460.256 4580.24,468.474 4597.15,475.257 4614.06,478.96 4630.98,477.331 "/>
<path clip-path="url(#clip360)" d="M3859.77 593.434 L4609.33 593.434 L4609.33 75.0343 L3859.77 75.0343  Z" fill="#ffffff" fill-rule="evenodd" fill-opacity="1"/>
<polyline clip-path="url(#clip360)" style="stroke:#000000; stroke-linecap:round; stroke-linejoin:round; stroke-width:4; stroke-opacity:1; fill:none" points="3859.77,593.434 4609.33,593.434 4609.33,75.0343 3859.77,75.0343 3859.77,593.434 "/>
<polyline clip-path="url(#clip360)" style="stroke:#aeaeae; stroke-linecap:round; stroke-linejoin:round; stroke-width:2; stroke-opacity:1; fill:none" points="3907.58,204.634 4194.44,204.634 "/>
<path clip-path="url(#clip360)" d="M4243.93 237.996 L4263.02 237.996 L4263.02 172.082 L4242.25 176.249 L4242.25 165.601 L4262.91 161.434 L4274.6 161.434 L4274.6 237.996 L4293.69 237.996 L4293.69 247.834 L4243.93 247.834 L4243.93 237.996 Z" fill="#000000" fill-rule="nonzero" fill-opacity="1" /><path clip-path="url(#clip360)" d="M4342.31 169.131 Q4333.28 169.131 4328.71 178.043 Q4324.19 186.897 4324.19 204.721 Q4324.19 222.487 4328.71 231.399 Q4333.28 240.253 4342.31 240.253 Q4351.39 240.253 4355.9 231.399 Q4360.48 222.487 4360.48 204.721 Q4360.48 186.897 4355.9 178.043 Q4351.39 169.131 4342.31 169.131 M4342.31 159.872 Q4356.83 159.872 4364.47 171.388 Q4372.17 182.846 4372.17 204.721 Q4372.17 226.538 4364.47 238.054 Q4356.83 249.513 4342.31 249.513 Q4327.78 249.513 4320.08 238.054 Q4312.44 226.538 4312.44 204.721 Q4312.44 182.846 4320.08 171.388 Q4327.78 159.872 4342.31 159.872 Z" fill="#000000" fill-rule="nonzero" fill-opacity="1" /><path clip-path="url(#clip360)" d="M4417.71 169.131 Q4408.68 169.131 4404.11 178.043 Q4399.6 186.897 4399.6 204.721 Q4399.6 222.487 4404.11 231.399 Q4408.68 240.253 4417.71 240.253 Q4426.8 240.253 4431.31 231.399 Q4435.88 222.487 4435.88 204.721 Q4435.88 186.897 4431.31 178.043 Q4426.8 169.131 4417.71 169.131 M4417.71 159.872 Q4432.24 159.872 4439.87 171.388 Q4447.57 182.846 4447.57 204.721 Q4447.57 226.538 4439.87 238.054 Q4432.24 249.513 4417.71 249.513 Q4403.18 249.513 4395.49 238.054 Q4387.85 226.538 4387.85 204.721 Q4387.85 182.846 4395.49 171.388 Q4403.18 159.872 4417.71 159.872 Z" fill="#000000" fill-rule="nonzero" fill-opacity="1" /><path clip-path="url(#clip360)" d="M4541.61 209.814 Q4536.58 209.814 4533.68 214.096 Q4530.85 218.378 4530.85 226.017 Q4530.85 233.54 4533.68 237.881 Q4536.58 242.163 4541.61 242.163 Q4546.53 242.163 4549.36 237.881 Q4552.26 233.54 4552.26 226.017 Q4552.26 218.436 4549.36 214.154 Q4546.53 209.814 4541.61 209.814 M4541.61 202.464 Q4550.75 202.464 4556.14 208.83 Q4561.52 215.196 4561.52 226.017 Q4561.52 236.839 4556.08 243.205 Q4550.7 249.513 4541.61 249.513 Q4532.35 249.513 4526.97 243.205 Q4521.59 236.839 4521.59 226.017 Q4521.59 215.138 4526.97 208.83 Q4532.41 202.464 4541.61 202.464 M4481.89 167.221 Q4476.91 167.221 4474.02 171.562 Q4471.18 175.844 4471.18 183.367 Q4471.18 191.006 4474.02 195.288 Q4476.85 199.571 4481.89 199.571 Q4486.92 199.571 4489.76 195.288 Q4492.65 191.006 4492.65 183.367 Q4492.65 175.902 4489.76 171.562 Q4486.86 167.221 4481.89 167.221 M4534.14 159.872 L4543.4 159.872 L4489.35 249.513 L4480.09 249.513 L4534.14 159.872 M4481.89 159.872 Q4491.03 159.872 4496.47 166.238 Q4501.91 172.545 4501.91 183.367 Q4501.91 194.305 4496.47 200.612 Q4491.09 206.92 4481.89 206.92 Q4472.69 206.92 4467.3 200.612 Q4461.98 194.247 4461.98 183.367 Q4461.98 172.603 4467.36 166.238 Q4472.74 159.872 4481.89 159.872 Z" fill="#000000" fill-rule="nonzero" fill-opacity="1" /><polyline clip-path="url(#clip360)" style="stroke:#757575; stroke-linecap:round; stroke-linejoin:round; stroke-width:2; stroke-opacity:1; fill:none" points="3907.58,334.234 4194.44,334.234 "/>
<path clip-path="url(#clip360)" d="M4247.8 375.64 L4247.8 364.992 Q4252.2 367.076 4256.72 368.175 Q4261.23 369.275 4265.57 369.275 Q4277.14 369.275 4283.22 361.52 Q4289.35 353.708 4290.22 337.851 Q4286.87 342.828 4281.72 345.49 Q4276.57 348.152 4270.32 348.152 Q4257.35 348.152 4249.77 340.34 Q4242.25 332.469 4242.25 318.87 Q4242.25 305.56 4250.12 297.516 Q4257.99 289.472 4271.07 289.472 Q4286.06 289.472 4293.93 300.988 Q4301.85 312.446 4301.85 334.321 Q4301.85 354.749 4292.13 366.96 Q4282.47 379.113 4266.09 379.113 Q4261.69 379.113 4257.18 378.245 Q4252.66 377.376 4247.8 375.64 M4271.07 339.009 Q4278.94 339.009 4283.51 333.627 Q4288.14 328.245 4288.14 318.87 Q4288.14 309.553 4283.51 304.171 Q4278.94 298.731 4271.07 298.731 Q4263.2 298.731 4258.57 304.171 Q4254 309.553 4254 318.87 Q4254 328.245 4258.57 333.627 Q4263.2 339.009 4271.07 339.009 Z" fill="#000000" fill-rule="nonzero" fill-opacity="1" /><path clip-path="url(#clip360)" d="M4347.86 298.731 Q4338.83 298.731 4334.26 307.643 Q4329.75 316.497 4329.75 334.321 Q4329.75 352.087 4334.26 360.999 Q4338.83 369.853 4347.86 369.853 Q4356.95 369.853 4361.46 360.999 Q4366.03 352.087 4366.03 334.321 Q4366.03 316.497 4361.46 307.643 Q4356.95 298.731 4347.86 298.731 M4347.86 289.472 Q4362.39 289.472 4370.03 300.988 Q4377.72 312.446 4377.72 334.321 Q4377.72 356.138 4370.03 367.654 Q4362.39 379.113 4347.86 379.113 Q4333.34 379.113 4325.64 367.654 Q4318 356.138 4318 334.321 Q4318 312.446 4325.64 300.988 Q4333.34 289.472 4347.86 289.472 Z" fill="#000000" fill-rule="nonzero" fill-opacity="1" /><path clip-path="url(#clip360)" d="M4471.76 339.414 Q4466.73 339.414 4463.83 343.696 Q4461 347.978 4461 355.617 Q4461 363.14 4463.83 367.481 Q4466.73 371.763 4471.76 371.763 Q4476.68 371.763 4479.52 367.481 Q4482.41 363.14 4482.41 355.617 Q4482.41 348.036 4479.52 343.754 Q4476.68 339.414 4471.76 339.414 M4471.76 332.064 Q4480.9 332.064 4486.29 338.43 Q4491.67 344.796 4491.67 355.617 Q4491.67 366.439 4486.23 372.805 Q4480.85 379.113 4471.76 379.113 Q4462.5 379.113 4457.12 372.805 Q4451.74 366.439 4451.74 355.617 Q4451.74 344.738 4457.12 338.43 Q4462.56 332.064 4471.76 332.064 M4412.04 296.821 Q4407.06 296.821 4404.17 301.162 Q4401.33 305.444 4401.33 312.967 Q4401.33 320.606 4404.17 324.888 Q4407 329.171 4412.04 329.171 Q4417.07 329.171 4419.91 324.888 Q4422.8 320.606 4422.8 312.967 Q4422.8 305.502 4419.91 301.162 Q4417.02 296.821 4412.04 296.821 M4464.3 289.472 L4473.55 289.472 L4419.5 379.113 L4410.24 379.113 L4464.3 289.472 M4412.04 289.472 Q4421.18 289.472 4426.62 295.838 Q4432.06 302.145 4432.06 312.967 Q4432.06 323.905 4426.62 330.212 Q4421.24 336.52 4412.04 336.52 Q4402.84 336.52 4397.46 330.212 Q4392.13 323.847 4392.13 312.967 Q4392.13 302.203 4397.51 295.838 Q4402.9 289.472 4412.04 289.472 Z" fill="#000000" fill-rule="nonzero" fill-opacity="1" /><polyline clip-path="url(#clip360)" style="stroke:#414141; stroke-linecap:round; stroke-linejoin:round; stroke-width:2; stroke-opacity:1; fill:none" points="3907.58,463.834 4194.44,463.834 "/>
<path clip-path="url(#clip360)" d="M4271.88 466.004 Q4263.54 466.004 4258.74 470.46 Q4254 474.916 4254 482.729 Q4254 490.541 4258.74 494.997 Q4263.54 499.453 4271.88 499.453 Q4280.21 499.453 4285.01 494.997 Q4289.82 490.484 4289.82 482.729 Q4289.82 474.916 4285.01 470.46 Q4280.27 466.004 4271.88 466.004 M4260.19 461.028 Q4252.66 459.176 4248.44 454.025 Q4244.27 448.875 4244.27 441.468 Q4244.27 431.109 4251.62 425.09 Q4259.03 419.072 4271.88 419.072 Q4284.78 419.072 4292.13 425.09 Q4299.48 431.109 4299.48 441.468 Q4299.48 448.875 4295.26 454.025 Q4291.09 459.176 4283.63 461.028 Q4292.07 462.995 4296.76 468.724 Q4301.51 474.453 4301.51 482.729 Q4301.51 495.287 4293.81 502 Q4286.17 508.713 4271.88 508.713 Q4257.58 508.713 4249.89 502 Q4242.25 495.287 4242.25 482.729 Q4242.25 474.453 4246.99 468.724 Q4251.74 462.995 4260.19 461.028 M4255.91 442.567 Q4255.91 449.28 4260.07 453.042 Q4264.3 456.803 4271.88 456.803 Q4279.4 456.803 4283.63 453.042 Q4287.91 449.28 4287.91 442.567 Q4287.91 435.854 4283.63 432.093 Q4279.4 428.331 4271.88 428.331 Q4264.3 428.331 4260.07 432.093 Q4255.91 435.854 4255.91 442.567 Z" fill="#000000" fill-rule="nonzero" fill-opacity="1" /><path clip-path="url(#clip360)" d="M4347.28 428.331 Q4338.25 428.331 4333.68 437.243 Q4329.17 446.097 4329.17 463.921 Q4329.17 481.687 4333.68 490.599 Q4338.25 499.453 4347.28 499.453 Q4356.37 499.453 4360.88 490.599 Q4365.45 481.687 4365.45 463.921 Q4365.45 446.097 4360.88 437.243 Q4356.37 428.331 4347.28 428.331 M4347.28 419.072 Q4361.81 419.072 4369.45 430.588 Q4377.14 442.046 4377.14 463.921 Q4377.14 485.738 4369.45 497.254 Q4361.81 508.713 4347.28 508.713 Q4332.76 508.713 4325.06 497.254 Q4317.42 485.738 4317.42 463.921 Q4317.42 442.046 4325.06 430.588 Q4332.76 419.072 4347.28 419.072 Z" fill="#000000" fill-rule="nonzero" fill-opacity="1" /><path clip-path="url(#clip360)" d="M4471.18 469.014 Q4466.15 469.014 4463.25 473.296 Q4460.42 477.578 4460.42 485.217 Q4460.42 492.74 4463.25 497.081 Q4466.15 501.363 4471.18 501.363 Q4476.1 501.363 4478.94 497.081 Q4481.83 492.74 4481.83 485.217 Q4481.83 477.636 4478.94 473.354 Q4476.1 469.014 4471.18 469.014 M4471.18 461.664 Q4480.33 461.664 4485.71 468.03 Q4491.09 474.396 4491.09 485.217 Q4491.09 496.039 4485.65 502.405 Q4480.27 508.713 4471.18 508.713 Q4461.92 508.713 4456.54 502.405 Q4451.16 496.039 4451.16 485.217 Q4451.16 474.338 4456.54 468.03 Q4461.98 461.664 4471.18 461.664 M4411.46 426.421 Q4406.48 426.421 4403.59 430.762 Q4400.75 435.044 4400.75 442.567 Q4400.75 450.206 4403.59 454.488 Q4406.43 458.771 4411.46 458.771 Q4416.49 458.771 4419.33 454.488 Q4422.22 450.206 4422.22 442.567 Q4422.22 435.102 4419.33 430.762 Q4416.44 426.421 4411.46 426.421 M4463.72 419.072 L4472.98 419.072 L4418.93 508.713 L4409.67 508.713 L4463.72 419.072 M4411.46 419.072 Q4420.6 419.072 4426.04 425.438 Q4431.48 431.745 4431.48 442.567 Q4431.48 453.505 4426.04 459.812 Q4420.66 466.12 4411.46 466.12 Q4402.26 466.12 4396.88 459.812 Q4391.55 453.447 4391.55 442.567 Q4391.55 431.803 4396.93 425.438 Q4402.32 419.072 4411.46 419.072 Z" fill="#000000" fill-rule="nonzero" fill-opacity="1" /></svg>
