<?xml version="1.0" encoding="utf-8"?>
<svg xmlns="http://www.w3.org/2000/svg" xmlns:xlink="http://www.w3.org/1999/xlink" width="1200" height="300" viewBox="0 0 4800 1200">
<defs>
  <clipPath id="clip200">
    <rect x="0" y="0" width="4800" height="1200"/>
  </clipPath>
</defs>
<path clip-path="url(#clip200)" d="M0 1200 L4800 1200 L4800 0 L0 0  Z" fill="#ffffff" fill-rule="evenodd" fill-opacity="1"/>
<defs>
  <clipPath id="clip201">
    <rect x="960" y="0" width="3361" height="1200"/>
  </clipPath>
</defs>
<path clip-path="url(#clip200)" d="M449.885 880.951 L4752.76 880.951 L4752.76 47.2441 L449.885 47.2441  Z" fill="#ffffff" fill-rule="evenodd" fill-opacity="1"/>
<defs>
  <clipPath id="clip202">
    <rect x="449" y="47" width="4304" height="835"/>
  </clipPath>
</defs>
<polyline clip-path="url(#clip202)" style="stroke:#000000; stroke-linecap:round; stroke-linejoin:round; stroke-width:2; stroke-opacity:0.1; fill:none" points="571.665,880.951 571.665,47.2441 "/>
<polyline clip-path="url(#clip202)" style="stroke:#000000; stroke-linecap:round; stroke-linejoin:round; stroke-width:2; stroke-opacity:0.1; fill:none" points="1383.53,880.951 1383.53,47.2441 "/>
<polyline clip-path="url(#clip202)" style="stroke:#000000; stroke-linecap:round; stroke-linejoin:round; stroke-width:2; stroke-opacity:0.1; fill:none" points="2195.39,880.951 2195.39,47.2441 "/>
<polyline clip-path="url(#clip202)" style="stroke:#000000; stroke-linecap:round; stroke-linejoin:round; stroke-width:2; stroke-opacity:0.1; fill:none" points="3007.25,880.951 3007.25,47.2441 "/>
<polyline clip-path="url(#clip202)" style="stroke:#000000; stroke-linecap:round; stroke-linejoin:round; stroke-width:2; stroke-opacity:0.1; fill:none" points="3819.11,880.951 3819.11,47.2441 "/>
<polyline clip-path="url(#clip202)" style="stroke:#000000; stroke-linecap:round; stroke-linejoin:round; stroke-width:2; stroke-opacity:0.1; fill:none" points="4630.98,880.951 4630.98,47.2441 "/>
<polyline clip-path="url(#clip202)" style="stroke:#000000; stroke-linecap:round; stroke-linejoin:round; stroke-width:2; stroke-opacity:0.1; fill:none" points="449.885,758.039 4752.76,758.039 "/>
<polyline clip-path="url(#clip202)" style="stroke:#000000; stroke-linecap:round; stroke-linejoin:round; stroke-width:2; stroke-opacity:0.1; fill:none" points="449.885,615.208 4752.76,615.208 "/>
<polyline clip-path="url(#clip202)" style="stroke:#000000; stroke-linecap:round; stroke-linejoin:round; stroke-width:2; stroke-opacity:0.1; fill:none" points="449.885,472.378 4752.76,472.378 "/>
<polyline clip-path="url(#clip202)" style="stroke:#000000; stroke-linecap:round; stroke-linejoin:round; stroke-width:2; stroke-opacity:0.1; fill:none" points="449.885,329.547 4752.76,329.547 "/>
<polyline clip-path="url(#clip202)" style="stroke:#000000; stroke-linecap:round; stroke-linejoin:round; stroke-width:2; stroke-opacity:0.1; fill:none" points="449.885,186.717 4752.76,186.717 "/>
<polyline clip-path="url(#clip200)" style="stroke:#000000; stroke-linecap:round; stroke-linejoin:round; stroke-width:4; stroke-opacity:1; fill:none" points="449.885,880.951 4752.76,880.951 "/>
<polyline clip-path="url(#clip200)" style="stroke:#000000; stroke-linecap:round; stroke-linejoin:round; stroke-width:4; stroke-opacity:1; fill:none" points="571.665,880.951 571.665,862.054 "/>
<polyline clip-path="url(#clip200)" style="stroke:#000000; stroke-linecap:round; stroke-linejoin:round; stroke-width:4; stroke-opacity:1; fill:none" points="1383.53,880.951 1383.53,862.054 "/>
<polyline clip-path="url(#clip200)" style="stroke:#000000; stroke-linecap:round; stroke-linejoin:round; stroke-width:4; stroke-opacity:1; fill:none" points="2195.39,880.951 2195.39,862.054 "/>
<polyline clip-path="url(#clip200)" style="stroke:#000000; stroke-linecap:round; stroke-linejoin:round; stroke-width:4; stroke-opacity:1; fill:none" points="3007.25,880.951 3007.25,862.054 "/>
<polyline clip-path="url(#clip200)" style="stroke:#000000; stroke-linecap:round; stroke-linejoin:round; stroke-width:4; stroke-opacity:1; fill:none" points="3819.11,880.951 3819.11,862.054 "/>
<polyline clip-path="url(#clip200)" style="stroke:#000000; stroke-linecap:round; stroke-linejoin:round; stroke-width:4; stroke-opacity:1; fill:none" points="4630.98,880.951 4630.98,862.054 "/>
<path clip-path="url(#clip200)" d="M571.665 942.789 Q564.443 942.789 560.785 949.918 Q557.174 957.002 557.174 971.261 Q557.174 985.474 560.785 992.603 Q564.443 999.687 571.665 999.687 Q578.933 999.687 582.544 992.603 Q586.202 985.474 586.202 971.261 Q586.202 957.002 582.544 949.918 Q578.933 942.789 571.665 942.789 M571.665 935.382 Q583.285 935.382 589.396 944.594 Q595.554 953.761 595.554 971.261 Q595.554 988.715 589.396 997.927 Q583.285 1007.09 571.665 1007.09 Q560.044 1007.09 553.887 997.927 Q547.776 988.715 547.776 971.261 Q547.776 953.761 553.887 944.594 Q560.044 935.382 571.665 935.382 Z" fill="#000000" fill-rule="nonzero" fill-opacity="1" /><path clip-path="url(#clip200)" d="M1372.83 997.881 L1405.47 997.881 L1405.47 1005.75 L1361.58 1005.75 L1361.58 997.881 Q1366.91 992.372 1376.07 983.113 Q1385.29 973.807 1387.65 971.122 Q1392.14 966.076 1393.9 962.604 Q1395.7 959.085 1395.7 955.705 Q1395.7 950.196 1391.81 946.724 Q1387.97 943.252 1381.77 943.252 Q1377.37 943.252 1372.46 944.78 Q1367.6 946.307 1362.05 949.409 L1362.05 939.965 Q1367.69 937.696 1372.6 936.539 Q1377.51 935.382 1381.58 935.382 Q1392.32 935.382 1398.71 940.752 Q1405.1 946.122 1405.1 955.104 Q1405.1 959.363 1403.48 963.205 Q1401.91 967.002 1397.69 972.187 Q1396.54 973.529 1390.33 979.965 Q1384.13 986.353 1372.83 997.881 Z" fill="#000000" fill-rule="nonzero" fill-opacity="1" /><path clip-path="url(#clip200)" d="M2201.41 944.78 L2177.8 981.678 L2201.41 981.678 L2201.41 944.78 M2198.95 936.631 L2210.71 936.631 L2210.71 981.678 L2220.57 981.678 L2220.57 989.455 L2210.71 989.455 L2210.71 1005.75 L2201.41 1005.75 L2201.41 989.455 L2170.2 989.455 L2170.2 980.428 L2198.95 936.631 Z" fill="#000000" fill-rule="nonzero" fill-opacity="1" /><path clip-path="url(#clip200)" d="M3008.06 967.465 Q3001.77 967.465 2998.06 971.77 Q2994.4 976.076 2994.4 983.576 Q2994.4 991.029 2998.06 995.381 Q3001.77 999.687 3008.06 999.687 Q3014.36 999.687 3018.02 995.381 Q3021.72 991.029 3021.72 983.576 Q3021.72 976.076 3018.02 971.77 Q3014.36 967.465 3008.06 967.465 M3026.63 938.159 L3026.63 946.678 Q3023.11 945.011 3019.5 944.131 Q3015.93 943.252 3012.41 943.252 Q3003.15 943.252 2998.25 949.502 Q2993.39 955.752 2992.69 968.391 Q2995.42 964.363 2999.54 962.233 Q3003.66 960.057 3008.62 960.057 Q3019.03 960.057 3025.05 966.4 Q3031.12 972.696 3031.12 983.576 Q3031.12 994.224 3024.82 1000.66 Q3018.52 1007.09 3008.06 1007.09 Q2996.07 1007.09 2989.73 997.927 Q2983.39 988.715 2983.39 971.261 Q2983.39 954.872 2991.16 945.15 Q2998.94 935.382 3012.04 935.382 Q3015.56 935.382 3019.13 936.076 Q3022.74 936.77 3026.63 938.159 Z" fill="#000000" fill-rule="nonzero" fill-opacity="1" /><path clip-path="url(#clip200)" d="M3819.11 972.928 Q3812.45 972.928 3808.6 976.492 Q3804.81 980.057 3804.81 986.307 Q3804.81 992.557 3808.6 996.122 Q3812.45 999.687 3819.11 999.687 Q3825.78 999.687 3829.62 996.122 Q3833.47 992.511 3833.47 986.307 Q3833.47 980.057 3829.62 976.492 Q3825.83 972.928 3819.11 972.928 M3809.76 968.946 Q3803.74 967.465 3800.36 963.344 Q3797.03 959.224 3797.03 953.298 Q3797.03 945.011 3802.91 940.196 Q3808.84 935.382 3819.11 935.382 Q3829.44 935.382 3835.32 940.196 Q3841.2 945.011 3841.2 953.298 Q3841.2 959.224 3837.82 963.344 Q3834.48 967.465 3828.51 968.946 Q3835.27 970.52 3839.02 975.104 Q3842.82 979.687 3842.82 986.307 Q3842.82 996.353 3836.66 1001.72 Q3830.55 1007.09 3819.11 1007.09 Q3807.68 1007.09 3801.52 1001.72 Q3795.41 996.353 3795.41 986.307 Q3795.41 979.687 3799.21 975.104 Q3803 970.52 3809.76 968.946 M3806.34 954.178 Q3806.34 959.548 3809.67 962.557 Q3813.05 965.567 3819.11 965.567 Q3825.13 965.567 3828.51 962.557 Q3831.94 959.548 3831.94 954.178 Q3831.94 948.807 3828.51 945.798 Q3825.13 942.789 3819.11 942.789 Q3813.05 942.789 3809.67 945.798 Q3806.34 948.807 3806.34 954.178 Z" fill="#000000" fill-rule="nonzero" fill-opacity="1" /><path clip-path="url(#clip200)" d="M4580.35 997.881 L4595.63 997.881 L4595.63 945.15 L4579.01 948.483 L4579.01 939.965 L4595.54 936.631 L4604.89 936.631 L4604.89 997.881 L4620.17 997.881 L4620.17 1005.75 L4580.35 1005.75 L4580.35 997.881 Z" fill="#000000" fill-rule="nonzero" fill-opacity="1" /><path clip-path="url(#clip200)" d="M4659.06 942.789 Q4651.83 942.789 4648.18 949.918 Q4644.56 957.002 4644.56 971.261 Q4644.56 985.474 4648.18 992.603 Q4651.83 999.687 4659.06 999.687 Q4666.32 999.687 4669.93 992.603 Q4673.59 985.474 4673.59 971.261 Q4673.59 957.002 4669.93 949.918 Q4666.32 942.789 4659.06 942.789 M4659.06 935.382 Q4670.68 935.382 4676.79 944.594 Q4682.94 953.761 4682.94 971.261 Q4682.94 988.715 4676.79 997.927 Q4670.68 1007.09 4659.06 1007.09 Q4647.43 1007.09 4641.28 997.927 Q4635.17 988.715 4635.17 971.261 Q4635.17 953.761 4641.28 944.594 Q4647.43 935.382 4659.06 935.382 Z" fill="#000000" fill-rule="nonzero" fill-opacity="1" /><path clip-path="url(#clip200)" d="M2318.56 1072.18 L2384.34 1072.18 L2384.34 1081.04 L2356.74 1081.04 L2356.74 1149.94 L2346.17 1149.94 L2346.17 1081.04 L2318.56 1081.04 L2318.56 1072.18 Z" fill="#000000" fill-rule="nonzero" fill-opacity="1" /><path clip-path="url(#clip200)" d="M2390.8 1091.61 L2400.38 1091.61 L2400.38 1149.94 L2390.8 1149.94 L2390.8 1091.61 M2390.8 1068.9 L2400.38 1068.9 L2400.38 1081.04 L2390.8 1081.04 L2390.8 1068.9 Z" fill="#000000" fill-rule="nonzero" fill-opacity="1" /><path clip-path="url(#clip200)" d="M2465.85 1102.81 Q2469.45 1096.35 2474.45 1093.28 Q2479.45 1090.2 2486.22 1090.2 Q2495.33 1090.2 2500.28 1096.61 Q2505.23 1102.96 2505.23 1114.74 L2505.23 1149.94 L2495.59 1149.94 L2495.59 1115.05 Q2495.59 1106.66 2492.62 1102.6 Q2489.65 1098.54 2483.56 1098.54 Q2476.11 1098.54 2471.79 1103.49 Q2467.47 1108.43 2467.47 1116.97 L2467.47 1149.94 L2457.83 1149.94 L2457.83 1115.05 Q2457.83 1106.61 2454.86 1102.6 Q2451.89 1098.54 2445.7 1098.54 Q2438.35 1098.54 2434.03 1103.54 Q2429.71 1108.49 2429.71 1116.97 L2429.71 1149.94 L2420.07 1149.94 L2420.07 1091.61 L2429.71 1091.61 L2429.71 1100.67 Q2432.99 1095.31 2437.57 1092.76 Q2442.15 1090.2 2448.46 1090.2 Q2454.81 1090.2 2459.24 1093.43 Q2463.72 1096.66 2465.85 1102.81 Z" fill="#000000" fill-rule="nonzero" fill-opacity="1" /><path clip-path="url(#clip200)" d="M2574.24 1118.38 L2574.24 1123.07 L2530.18 1123.07 Q2530.8 1132.96 2536.11 1138.17 Q2541.48 1143.33 2551.01 1143.33 Q2556.53 1143.33 2561.69 1141.97 Q2566.89 1140.62 2572 1137.91 L2572 1146.97 Q2566.84 1149.16 2561.43 1150.31 Q2556.01 1151.45 2550.44 1151.45 Q2536.48 1151.45 2528.3 1143.33 Q2520.18 1135.2 2520.18 1121.35 Q2520.18 1107.03 2527.88 1098.64 Q2535.64 1090.2 2548.77 1090.2 Q2560.54 1090.2 2567.36 1097.81 Q2574.24 1105.36 2574.24 1118.38 M2564.65 1115.57 Q2564.55 1107.7 2560.23 1103.02 Q2555.96 1098.33 2548.87 1098.33 Q2540.85 1098.33 2536.01 1102.86 Q2531.22 1107.39 2530.49 1115.62 L2564.65 1115.57 Z" fill="#000000" fill-rule="nonzero" fill-opacity="1" /><path clip-path="url(#clip200)" d="M2646.89 1069.01 Q2639.91 1080.99 2636.53 1092.7 Q2633.14 1104.42 2633.14 1116.45 Q2633.14 1128.49 2636.53 1140.31 Q2639.97 1152.08 2646.89 1164.01 L2638.56 1164.01 Q2630.75 1151.77 2626.84 1139.94 Q2622.99 1128.12 2622.99 1116.45 Q2622.99 1104.84 2626.84 1093.07 Q2630.7 1081.3 2638.56 1069.01 L2646.89 1069.01 Z" fill="#000000" fill-rule="nonzero" fill-opacity="1" /><path clip-path="url(#clip200)" d="M2703.87 1100.46 L2703.87 1068.9 L2713.46 1068.9 L2713.46 1149.94 L2703.87 1149.94 L2703.87 1141.19 Q2700.85 1146.4 2696.22 1148.95 Q2691.63 1151.45 2685.17 1151.45 Q2674.6 1151.45 2667.93 1143.02 Q2661.32 1134.58 2661.32 1120.83 Q2661.32 1107.08 2667.93 1098.64 Q2674.6 1090.2 2685.17 1090.2 Q2691.63 1090.2 2696.22 1092.76 Q2700.85 1095.26 2703.87 1100.46 M2671.22 1120.83 Q2671.22 1131.4 2675.54 1137.44 Q2679.91 1143.43 2687.52 1143.43 Q2695.12 1143.43 2699.5 1137.44 Q2703.87 1131.4 2703.87 1120.83 Q2703.87 1110.26 2699.5 1104.27 Q2695.12 1098.23 2687.52 1098.23 Q2679.91 1098.23 2675.54 1104.27 Q2671.22 1110.26 2671.22 1120.83 Z" fill="#000000" fill-rule="nonzero" fill-opacity="1" /><path clip-path="url(#clip200)" d="M2759.71 1120.62 Q2748.09 1120.62 2743.61 1123.28 Q2739.13 1125.93 2739.13 1132.34 Q2739.13 1137.44 2742.47 1140.46 Q2745.85 1143.43 2751.63 1143.43 Q2759.6 1143.43 2764.39 1137.81 Q2769.24 1132.13 2769.24 1122.76 L2769.24 1120.62 L2759.71 1120.62 M2778.82 1116.66 L2778.82 1149.94 L2769.24 1149.94 L2769.24 1141.09 Q2765.96 1146.4 2761.06 1148.95 Q2756.16 1151.45 2749.08 1151.45 Q2740.12 1151.45 2734.81 1146.45 Q2729.55 1141.4 2729.55 1132.96 Q2729.55 1123.12 2736.11 1118.12 Q2742.73 1113.12 2755.8 1113.12 L2769.24 1113.12 L2769.24 1112.18 Q2769.24 1105.57 2764.86 1101.98 Q2760.54 1098.33 2752.67 1098.33 Q2747.67 1098.33 2742.93 1099.53 Q2738.19 1100.73 2733.82 1103.12 L2733.82 1094.27 Q2739.08 1092.24 2744.03 1091.25 Q2748.98 1090.2 2753.66 1090.2 Q2766.32 1090.2 2772.57 1096.77 Q2778.82 1103.33 2778.82 1116.66 Z" fill="#000000" fill-rule="nonzero" fill-opacity="1" /><path clip-path="url(#clip200)" d="M2822.83 1155.36 Q2818.77 1165.78 2814.91 1168.95 Q2811.06 1172.13 2804.6 1172.13 L2796.94 1172.13 L2796.94 1164.11 L2802.57 1164.11 Q2806.53 1164.11 2808.72 1162.24 Q2810.9 1160.36 2813.56 1153.38 L2815.28 1149.01 L2791.68 1091.61 L2801.84 1091.61 L2820.07 1137.24 L2838.3 1091.61 L2848.45 1091.61 L2822.83 1155.36 Z" fill="#000000" fill-rule="nonzero" fill-opacity="1" /><path clip-path="url(#clip200)" d="M2860.17 1069.01 L2868.51 1069.01 Q2876.32 1081.3 2880.17 1093.07 Q2884.08 1104.84 2884.08 1116.45 Q2884.08 1128.12 2880.17 1139.94 Q2876.32 1151.77 2868.51 1164.01 L2860.17 1164.01 Q2867.1 1152.08 2870.49 1140.31 Q2873.92 1128.49 2873.92 1116.45 Q2873.92 1104.42 2870.49 1092.7 Q2867.1 1080.99 2860.17 1069.01 Z" fill="#000000" fill-rule="nonzero" fill-opacity="1" /><polyline clip-path="url(#clip200)" style="stroke:#000000; stroke-linecap:round; stroke-linejoin:round; stroke-width:4; stroke-opacity:1; fill:none" points="449.885,880.951 449.885,47.2441 "/>
<polyline clip-path="url(#clip200)" style="stroke:#000000; stroke-linecap:round; stroke-linejoin:round; stroke-width:4; stroke-opacity:1; fill:none" points="449.885,758.039 468.783,758.039 "/>
<polyline clip-path="url(#clip200)" style="stroke:#000000; stroke-linecap:round; stroke-linejoin:round; stroke-width:4; stroke-opacity:1; fill:none" points="449.885,615.208 468.783,615.208 "/>
<polyline clip-path="url(#clip200)" style="stroke:#000000; stroke-linecap:round; stroke-linejoin:round; stroke-width:4; stroke-opacity:1; fill:none" points="449.885,472.378 468.783,472.378 "/>
<polyline clip-path="url(#clip200)" style="stroke:#000000; stroke-linecap:round; stroke-linejoin:round; stroke-width:4; stroke-opacity:1; fill:none" points="449.885,329.547 468.783,329.547 "/>
<polyline clip-path="url(#clip200)" style="stroke:#000000; stroke-linecap:round; stroke-linejoin:round; stroke-width:4; stroke-opacity:1; fill:none" points="449.885,186.717 468.783,186.717 "/>
<path clip-path="url(#clip200)" d="M194.136 758.941 L253.488 758.941 L253.488 766.812 L194.136 766.812 L194.136 758.941 Z" fill="#000000" fill-rule="nonzero" fill-opacity="1" /><path clip-path="url(#clip200)" d="M293.673 759.775 Q287.006 759.775 283.164 763.339 Q279.367 766.904 279.367 773.154 Q279.367 779.404 283.164 782.969 Q287.006 786.534 293.673 786.534 Q300.34 786.534 304.182 782.969 Q308.025 779.358 308.025 773.154 Q308.025 766.904 304.182 763.339 Q300.386 759.775 293.673 759.775 M284.321 755.793 Q278.303 754.312 274.923 750.191 Q271.59 746.071 271.59 740.145 Q271.59 731.858 277.469 727.043 Q283.395 722.229 293.673 722.229 Q303.997 722.229 309.876 727.043 Q315.756 731.858 315.756 740.145 Q315.756 746.071 312.376 750.191 Q309.043 754.312 303.071 755.793 Q309.83 757.367 313.58 761.951 Q317.376 766.534 317.376 773.154 Q317.376 783.2 311.219 788.571 Q305.108 793.941 293.673 793.941 Q282.238 793.941 276.08 788.571 Q269.969 783.2 269.969 773.154 Q269.969 766.534 273.766 761.951 Q277.562 757.367 284.321 755.793 M280.895 741.025 Q280.895 746.395 284.228 749.404 Q287.608 752.414 293.673 752.414 Q299.691 752.414 303.071 749.404 Q306.497 746.395 306.497 741.025 Q306.497 735.654 303.071 732.645 Q299.691 729.636 293.673 729.636 Q287.608 729.636 284.228 732.645 Q280.895 735.654 280.895 741.025 Z" fill="#000000" fill-rule="nonzero" fill-opacity="1" /><path clip-path="url(#clip200)" d="M353.997 729.636 Q346.774 729.636 343.117 736.766 Q339.506 743.849 339.506 758.108 Q339.506 772.321 343.117 779.45 Q346.774 786.534 353.997 786.534 Q361.265 786.534 364.876 779.45 Q368.534 772.321 368.534 758.108 Q368.534 743.849 364.876 736.766 Q361.265 729.636 353.997 729.636 M353.997 722.229 Q365.617 722.229 371.728 731.441 Q377.885 740.608 377.885 758.108 Q377.885 775.562 371.728 784.775 Q365.617 793.941 353.997 793.941 Q342.376 793.941 336.219 784.775 Q330.108 775.562 330.108 758.108 Q330.108 740.608 336.219 731.441 Q342.376 722.229 353.997 722.229 Z" fill="#000000" fill-rule="nonzero" fill-opacity="1" /><path clip-path="url(#clip200)" d="M194.136 616.111 L253.488 616.111 L253.488 623.981 L194.136 623.981 L194.136 616.111 Z" fill="#000000" fill-rule="nonzero" fill-opacity="1" /><path clip-path="url(#clip200)" d="M294.83 611.481 Q288.534 611.481 284.83 615.787 Q281.173 620.092 281.173 627.592 Q281.173 635.046 284.83 639.398 Q288.534 643.703 294.83 643.703 Q301.127 643.703 304.784 639.398 Q308.488 635.046 308.488 627.592 Q308.488 620.092 304.784 615.787 Q301.127 611.481 294.83 611.481 M313.395 582.176 L313.395 590.694 Q309.876 589.028 306.265 588.148 Q302.701 587.268 299.182 587.268 Q289.923 587.268 285.016 593.518 Q280.154 599.768 279.46 612.407 Q282.191 608.379 286.312 606.25 Q290.432 604.074 295.386 604.074 Q305.802 604.074 311.821 610.416 Q317.886 616.713 317.886 627.592 Q317.886 638.24 311.589 644.676 Q305.293 651.111 294.83 651.111 Q282.84 651.111 276.497 641.944 Q270.154 632.731 270.154 615.278 Q270.154 598.889 277.932 589.167 Q285.71 579.398 298.812 579.398 Q302.33 579.398 305.895 580.093 Q309.506 580.787 313.395 582.176 Z" fill="#000000" fill-rule="nonzero" fill-opacity="1" /><path clip-path="url(#clip200)" d="M353.997 586.805 Q346.774 586.805 343.117 593.935 Q339.506 601.018 339.506 615.278 Q339.506 629.49 343.117 636.62 Q346.774 643.703 353.997 643.703 Q361.265 643.703 364.876 636.62 Q368.534 629.49 368.534 615.278 Q368.534 601.018 364.876 593.935 Q361.265 586.805 353.997 586.805 M353.997 579.398 Q365.617 579.398 371.728 588.611 Q377.885 597.778 377.885 615.278 Q377.885 632.731 371.728 641.944 Q365.617 651.111 353.997 651.111 Q342.376 651.111 336.219 641.944 Q330.108 632.731 330.108 615.278 Q330.108 597.778 336.219 588.611 Q342.376 579.398 353.997 579.398 Z" fill="#000000" fill-rule="nonzero" fill-opacity="1" /><path clip-path="url(#clip200)" d="M194.136 473.28 L253.488 473.28 L253.488 481.151 L194.136 481.151 L194.136 473.28 Z" fill="#000000" fill-rule="nonzero" fill-opacity="1" /><path clip-path="url(#clip200)" d="M299.367 445.966 L275.756 482.864 L299.367 482.864 L299.367 445.966 M296.914 437.818 L308.673 437.818 L308.673 482.864 L318.534 482.864 L318.534 490.641 L308.673 490.641 L308.673 506.938 L299.367 506.938 L299.367 490.641 L268.164 490.641 L268.164 481.614 L296.914 437.818 Z" fill="#000000" fill-rule="nonzero" fill-opacity="1" /><path clip-path="url(#clip200)" d="M353.997 443.975 Q346.774 443.975 343.117 451.105 Q339.506 458.188 339.506 472.447 Q339.506 486.66 343.117 493.79 Q346.774 500.873 353.997 500.873 Q361.265 500.873 364.876 493.79 Q368.534 486.66 368.534 472.447 Q368.534 458.188 364.876 451.105 Q361.265 443.975 353.997 443.975 M353.997 436.568 Q365.617 436.568 371.728 445.781 Q377.885 454.947 377.885 472.447 Q377.885 489.901 371.728 499.114 Q365.617 508.28 353.997 508.28 Q342.376 508.28 336.219 499.114 Q330.108 489.901 330.108 472.447 Q330.108 454.947 336.219 445.781 Q342.376 436.568 353.997 436.568 Z" fill="#000000" fill-rule="nonzero" fill-opacity="1" /><path clip-path="url(#clip200)" d="M194.136 330.45 L253.488 330.45 L253.488 338.32 L194.136 338.32 L194.136 330.45 Z" fill="#000000" fill-rule="nonzero" fill-opacity="1" /><path clip-path="url(#clip200)" d="M281.729 356.237 L314.367 356.237 L314.367 364.107 L270.479 364.107 L270.479 356.237 Q275.803 350.728 284.969 341.468 Q294.182 332.163 296.543 329.478 Q301.034 324.431 302.793 320.959 Q304.599 317.441 304.599 314.061 Q304.599 308.552 300.71 305.08 Q296.867 301.607 290.664 301.607 Q286.266 301.607 281.358 303.135 Q276.497 304.663 270.942 307.765 L270.942 298.32 Q276.59 296.052 281.497 294.895 Q286.404 293.737 290.478 293.737 Q301.219 293.737 307.608 299.107 Q313.997 304.478 313.997 313.459 Q313.997 317.718 312.376 321.561 Q310.802 325.357 306.589 330.543 Q305.432 331.885 299.228 338.32 Q293.025 344.709 281.729 356.237 Z" fill="#000000" fill-rule="nonzero" fill-opacity="1" /><path clip-path="url(#clip200)" d="M353.997 301.145 Q346.774 301.145 343.117 308.274 Q339.506 315.357 339.506 329.617 Q339.506 343.829 343.117 350.959 Q346.774 358.042 353.997 358.042 Q361.265 358.042 364.876 350.959 Q368.534 343.829 368.534 329.617 Q368.534 315.357 364.876 308.274 Q361.265 301.145 353.997 301.145 M353.997 293.737 Q365.617 293.737 371.728 302.95 Q377.885 312.117 377.885 329.617 Q377.885 347.07 371.728 356.283 Q365.617 365.45 353.997 365.45 Q342.376 365.45 336.219 356.283 Q330.108 347.07 330.108 329.617 Q330.108 312.117 336.219 302.95 Q342.376 293.737 353.997 293.737 Z" fill="#000000" fill-rule="nonzero" fill-opacity="1" /><path clip-path="url(#clip200)" d="M353.997 158.314 Q346.774 158.314 343.117 165.444 Q339.506 172.527 339.506 186.786 Q339.506 200.999 343.117 208.129 Q346.774 215.212 353.997 215.212 Q361.265 215.212 364.876 208.129 Q368.534 200.999 368.534 186.786 Q368.534 172.527 364.876 165.444 Q361.265 158.314 353.997 158.314 M353.997 150.907 Q365.617 150.907 371.728 160.12 Q377.885 169.286 377.885 186.786 Q377.885 204.24 371.728 213.453 Q365.617 222.619 353.997 222.619 Q342.376 222.619 336.219 213.453 Q330.108 204.24 330.108 186.786 Q330.108 169.286 336.219 160.12 Q342.376 150.907 353.997 150.907 Z" fill="#000000" fill-rule="nonzero" fill-opacity="1" /><path clip-path="url(#clip200)" d="M28.1838 786.518 Q28.1838 797.976 36.7254 804.747 Q45.267 811.466 60.0065 811.466 Q74.6939 811.466 83.2355 804.747 Q91.7772 797.976 91.7772 786.518 Q91.7772 775.06 83.2355 768.393 Q74.6939 761.674 60.0065 761.674 Q45.267 761.674 36.7254 768.393 Q28.1838 775.06 28.1838 786.518 M19.6421 786.518 Q19.6421 770.164 30.6317 760.372 Q41.5691 750.581 60.0065 750.581 Q78.3918 750.581 89.3813 760.372 Q100.319 770.164 100.319 786.518 Q100.319 802.924 89.3813 812.768 Q78.4439 822.559 60.0065 822.559 Q41.5691 822.559 30.6317 812.768 Q19.6421 802.924 19.6421 786.518 Z" fill="#000000" fill-rule="nonzero" fill-opacity="1" /><path clip-path="url(#clip200)" d="M56.8815 701.31 Q58.4961 693.758 63.6002 689.539 Q68.7044 685.268 76.2043 685.268 Q87.7147 685.268 94.0167 693.185 Q100.319 701.102 100.319 715.685 Q100.319 720.581 99.3292 725.789 Q98.3917 730.945 96.4646 736.466 L86.3084 736.466 Q88.8605 732.091 90.1626 726.883 Q91.4647 721.675 91.4647 715.997 Q91.4647 706.102 87.5584 700.945 Q83.6522 695.737 76.2043 695.737 Q69.3294 695.737 65.4752 700.581 Q61.569 705.373 61.569 713.966 L61.569 723.029 L52.9232 723.029 L52.9232 713.55 Q52.9232 705.789 49.8503 701.675 Q46.7253 697.56 40.892 697.56 Q34.9025 697.56 31.7254 701.831 Q28.4963 706.05 28.4963 713.966 Q28.4963 718.289 29.4337 723.237 Q30.3712 728.185 32.3504 734.122 L22.9755 734.122 Q21.3088 728.133 20.4755 722.925 Q19.6421 717.664 19.6421 713.029 Q19.6421 701.05 25.1109 694.071 Q30.5275 687.091 39.7983 687.091 Q46.2566 687.091 50.7357 690.789 Q55.1628 694.487 56.8815 701.31 Z" fill="#000000" fill-rule="nonzero" fill-opacity="1" /><path clip-path="url(#clip200)" d="M21.0484 632.352 L21.0484 583.186 L29.9025 583.186 L29.9025 621.831 L52.9232 621.831 L52.9232 584.8 L61.7773 584.8 L61.7773 621.831 L89.9543 621.831 L89.9543 582.248 L98.8084 582.248 L98.8084 632.352 L21.0484 632.352 Z" fill="#000000" fill-rule="nonzero" fill-opacity="1" /><path clip-path="url(#clip200)" d="M49.4336 531.571 Q48.4961 533.186 48.0795 535.113 Q47.6107 536.988 47.6107 539.28 Q47.6107 547.405 52.9232 551.78 Q58.1836 556.103 68.0794 556.103 L98.8084 556.103 L98.8084 565.738 L40.4754 565.738 L40.4754 556.103 L49.5378 556.103 Q44.2253 553.082 41.6733 548.238 Q39.0691 543.394 39.0691 536.467 Q39.0691 535.478 39.2254 534.28 Q39.3295 533.082 39.5899 531.623 L49.4336 531.571 Z" fill="#000000" fill-rule="nonzero" fill-opacity="1" /><path clip-path="url(#clip200)" d="M49.4336 489.592 Q48.4961 491.207 48.0795 493.134 Q47.6107 495.009 47.6107 497.301 Q47.6107 505.426 52.9232 509.801 Q58.1836 514.124 68.0794 514.124 L98.8084 514.124 L98.8084 523.759 L40.4754 523.759 L40.4754 514.124 L49.5378 514.124 Q44.2253 511.103 41.6733 506.259 Q39.0691 501.415 39.0691 494.488 Q39.0691 493.499 39.2254 492.301 Q39.3295 491.103 39.5899 489.645 L49.4336 489.592 Z" fill="#000000" fill-rule="nonzero" fill-opacity="1" /><path clip-path="url(#clip200)" d="M47.1941 459.28 Q47.1941 466.988 53.2357 471.468 Q59.2253 475.947 69.694 475.947 Q80.1626 475.947 86.2043 471.52 Q92.1938 467.04 92.1938 459.28 Q92.1938 451.624 86.1522 447.145 Q80.1106 442.666 69.694 442.666 Q59.3294 442.666 53.2878 447.145 Q47.1941 451.624 47.1941 459.28 M39.0691 459.28 Q39.0691 446.78 47.1941 439.645 Q55.319 432.509 69.694 432.509 Q84.0168 432.509 92.1938 439.645 Q100.319 446.78 100.319 459.28 Q100.319 471.832 92.1938 478.968 Q84.0168 486.051 69.694 486.051 Q55.319 486.051 47.1941 478.968 Q39.0691 471.832 39.0691 459.28 Z" fill="#000000" fill-rule="nonzero" fill-opacity="1" /><path clip-path="url(#clip200)" d="M49.4336 382.822 Q48.4961 384.437 48.0795 386.364 Q47.6107 388.239 47.6107 390.53 Q47.6107 398.655 52.9232 403.03 Q58.1836 407.353 68.0794 407.353 L98.8084 407.353 L98.8084 416.989 L40.4754 416.989 L40.4754 407.353 L49.5378 407.353 Q44.2253 404.332 41.6733 399.489 Q39.0691 394.645 39.0691 387.718 Q39.0691 386.728 39.2254 385.531 Q39.3295 384.333 39.5899 382.874 L49.4336 382.822 Z" fill="#000000" fill-rule="nonzero" fill-opacity="1" /><path clip-path="url(#clip200)" d="M17.8713 349.749 Q29.8504 356.729 41.5691 360.114 Q53.2878 363.499 65.319 363.499 Q77.3502 363.499 89.173 360.114 Q100.944 356.676 112.871 349.749 L112.871 358.083 Q100.631 365.895 88.8084 369.801 Q76.9856 373.656 65.319 373.656 Q53.7045 373.656 41.9337 369.801 Q30.1629 365.947 17.8713 358.083 L17.8713 349.749 Z" fill="#000000" fill-rule="nonzero" fill-opacity="1" /><path clip-path="url(#clip200)" d="M90.0584 321.885 L120.996 321.885 L120.996 331.52 L40.4754 331.52 L40.4754 321.885 L49.3295 321.885 Q44.1212 318.864 41.6212 314.281 Q39.0691 309.645 39.0691 303.239 Q39.0691 292.614 47.5066 286 Q55.944 279.333 69.694 279.333 Q83.4439 279.333 91.8813 286 Q100.319 292.614 100.319 303.239 Q100.319 309.645 97.8188 314.281 Q95.2667 318.864 90.0584 321.885 M69.694 289.281 Q59.1211 289.281 53.1315 293.656 Q47.0899 297.979 47.0899 305.583 Q47.0899 313.187 53.1315 317.562 Q59.1211 321.885 69.694 321.885 Q80.2668 321.885 86.3084 317.562 Q92.298 313.187 92.298 305.583 Q92.298 297.979 86.3084 293.656 Q80.2668 289.281 69.694 289.281 Z" fill="#000000" fill-rule="nonzero" fill-opacity="1" /><path clip-path="url(#clip200)" d="M90.0584 254.177 L120.996 254.177 L120.996 263.812 L40.4754 263.812 L40.4754 254.177 L49.3295 254.177 Q44.1212 251.156 41.6212 246.573 Q39.0691 241.938 39.0691 235.531 Q39.0691 224.906 47.5066 218.292 Q55.944 211.625 69.694 211.625 Q83.4439 211.625 91.8813 218.292 Q100.319 224.906 100.319 235.531 Q100.319 241.938 97.8188 246.573 Q95.2667 251.156 90.0584 254.177 M69.694 221.573 Q59.1211 221.573 53.1315 225.948 Q47.0899 230.271 47.0899 237.875 Q47.0899 245.479 53.1315 249.854 Q59.1211 254.177 69.694 254.177 Q80.2668 254.177 86.3084 249.854 Q92.298 245.479 92.298 237.875 Q92.298 230.271 86.3084 225.948 Q80.2668 221.573 69.694 221.573 Z" fill="#000000" fill-rule="nonzero" fill-opacity="1" /><path clip-path="url(#clip200)" d="M69.694 153.865 Q59.1211 153.865 53.1315 158.24 Q47.0899 162.563 47.0899 170.167 Q47.0899 177.771 53.1315 182.146 Q59.1211 186.469 69.694 186.469 Q80.2668 186.469 86.3084 182.146 Q92.298 177.771 92.298 170.167 Q92.298 162.563 86.3084 158.24 Q80.2668 153.865 69.694 153.865 M49.3295 186.469 Q44.1212 183.448 41.6212 178.865 Q39.0691 174.23 39.0691 167.823 Q39.0691 157.198 47.5066 150.584 Q55.944 143.917 69.694 143.917 Q83.4439 143.917 91.8813 150.584 Q100.319 157.198 100.319 167.823 Q100.319 174.23 97.8188 178.865 Q95.2667 183.448 90.0584 186.469 L98.8084 186.469 L98.8084 196.104 L17.7671 196.104 L17.7671 186.469 L49.3295 186.469 Z" fill="#000000" fill-rule="nonzero" fill-opacity="1" /><path clip-path="url(#clip200)" d="M17.8713 129.542 L17.8713 121.209 Q30.1629 113.397 41.9337 109.542 Q53.7045 105.636 65.319 105.636 Q76.9856 105.636 88.8084 109.542 Q100.631 113.397 112.871 121.209 L112.871 129.542 Q100.944 122.615 89.173 119.23 Q77.3502 115.792 65.319 115.792 Q53.2878 115.792 41.5691 119.23 Q29.8504 122.615 17.8713 129.542 Z" fill="#000000" fill-rule="nonzero" fill-opacity="1" /><path clip-path="url(#clip202)" d="M571.665 206.784 L588.579 231.903 L605.492 259.914 L622.406 289.753 L639.32 318.449 L656.234 348.886 L673.148 366.247 L690.061 376.421 L706.975 365.722 L723.889 350.652 L740.803 340.325 L757.717 330.949 L774.63 326.431 L791.544 328.699 L808.458 336.905 L825.372 348.91 L842.286 359.461 L859.199 369.536 L876.113 379.248 L893.027 390.359 L909.941 401.87 L926.855 410.305 L943.768 407.77 L960.682 397.939 L977.596 391.804 L994.51 418.542 L1011.42 447.961 L1028.34 479.164 L1045.25 509.141 L1062.16 536.145 L1079.08 549.816 L1095.99 551.775 L1112.91 535.611 L1129.82 512.738 L1146.73 492.687 L1163.65 473.483 L1180.56 456.492 L1197.48 447.298 L1214.39 443.874 L1231.3 445.521 L1248.22 446.07 L1265.13 449.844 L1282.04 455.04 L1298.96 465.354 L1315.87 476.189 L1332.79 484.065 L1349.7 480.807 L1366.61 470.076 L1383.53 467.351 L1400.44 493.862 L1417.35 523.212 L1434.27 554.446 L1451.18 584.556 L1468.1 611.446 L1485.01 624.834 L1501.92 624.963 L1518.84 604.509 L1535.75 576.256 L1552.67 551.321 L1569.58 527.462 L1586.49 505.659 L1603.41 492.007 L1620.32 485.036 L1637.23 482.98 L1654.15 481.303 L1671.06 483.283 L1687.98 486.992 L1704.89 496.557 L1721.8 507.529 L1738.72 515.654 L1755.63 512.429 L1772.54 501.417 L1789.46 494.395 L1806.37 520.75 L1823.29 550.16 L1840.2 581.503 L1857.11 611.716 L1874.03 638.914 L1890.94 651.828 L1907.85 655.133 L1924.77 641.753 L1941.68 609.049 L1958.6 582.519 L1975.51 556.833 L1992.42 533.686 L2009.34 518.246 L2026.25 509.095 L2043.17 505.443 L2060.08 502.795 L2076.99 504.03 L2093.91 507.379 L2110.82 517.303 L2127.73 528.709 L2144.65 537.296 L2161.56 534.289 L2178.48 523.208 L2195.39 524.482 L2212.3 541.64 L2229.22 565.926 L2246.13 597.427 L2263.04 627.839 L2279.96 656.16 L2296.87 677.63 L2313.79 688.068 L2330.7 673.542 L2347.61 640.798 L2364.53 610.612 L2381.44 581.594 L2398.36 555.216 L2415.27 536.52 L2432.18 526.959 L2449.1 522.667 L2466.01 519.108 L2482.92 519.994 L2499.84 522.657 L2516.75 532.842 L2533.67 544.796 L2550.58 553.843 L2567.49 551.075 L2584.41 548.945 L2601.32 551.211 L2618.23 568.563 L2635.15 591.331 L2652.06 619.638 L2668.98 651.281 L2685.89 684.605 L2702.8 706.899 L2719.72 717.891 L2736.63 703.283 L2753.54 670.27 L2770.46 639.498 L2787.37 609.693 L2804.29 582.502 L2821.2 562.186 L2838.11 547.874 L2855.03 537.779 L2871.94 533.778 L2888.86 534.84 L2905.77 537.785 L2922.68 549.801 L2939.6 565.366 L2956.51 577.046 L2973.42 575.036 L2990.34 574.761 L3007.25 577.285 L3024.17 594.93 L3041.08 617.946 L3057.99 646.594 L3074.91 678.758 L3091.82 712.812 L3108.73 735.987 L3125.65 749.073 L3142.56 734.811 L3159.48 701.514 L3176.39 670.477 L3193.3 640.101 L3210.22 611.881 L3227.13 590.271 L3244.05 574.701 L3260.96 564.03 L3277.87 555.747 L3294.79 557.483 L3311.7 563.963 L3328.61 579.106 L3345.53 595.89 L3362.44 608.875 L3379.36 607.818 L3396.27 601.032 L3413.18 603.766 L3430.1 621.599 L3447.01 644.773 L3463.92 673.692 L3480.84 706.317 L3497.75 741.069 L3514.67 764.882 L3531.58 777.139 L3548.49 764.28 L3565.41 734.209 L3582.32 705.933 L3599.23 674.678 L3616.15 643.947 L3633.06 620.468 L3649.98 604.323 L3666.89 595.228 L3683.8 589.248 L3700.72 589.462 L3717.63 595.961 L3734.55 612.158 L3751.46 630.362 L3768.37 644.797 L3785.29 644.774 L3802.2 633.738 L3819.11 628.742 L3836.03 646.808 L3852.94 670.189 L3869.86 699.43 L3886.77 732.572 L3903.68 768.07 L3920.6 792.783 L3937.51 807.327 L3954.42 802.201 L3971.34 776.385 L3988.25 748.607 L4005.17 717.002 L4022.08 685.266 L4038.99 660.548 L4055.91 642.898 L4072.82 632.564 L4089.73 625.122 L4106.65 625.95 L4123.56 632.909 L4140.48 650.262 L4157.39 670.331 L4174.3 686.657 L4191.22 688.014 L4208.13 677.675 L4225.05 666.559 L4241.96 674.737 L4258.87 697.733 L4275.79 727.308 L4292.7 760.985 L4309.61 797.274 L4326.53 831.616 L4343.44 857.356 L4360.36 855.028 L4377.27 828.737 L4394.18 801.314 L4411.1 770.027 L4428.01 737.56 L4444.92 711.283 L4461.84 691.775 L4478.75 679.721 L4495.67 671.599 L4512.58 672.521 L4529.49 680.537 L4546.41 699.984 L4563.32 722.219 L4580.24 740.73 L4597.15 743.65 L4614.06 734.057 L4630.98 722.939 L4630.98 95.811 L4614.06 96.5097 L4597.15 99.8931 L4580.24 102.756 L4563.32 103.384 L4546.41 104.438 L4529.49 106.161 L4512.58 110.212 L4495.67 113.182 L4478.75 114.981 L4461.84 112.929 L4444.92 109.48 L4428.01 106.56 L4411.1 107.168 L4394.18 112.573 L4377.27 123.979 L4360.36 141.777 L4343.44 154.845 L4326.53 156.803 L4309.61 152.345 L4292.7 140.544 L4275.79 127.072 L4258.87 113.306 L4241.96 101.335 L4225.05 93.2658 L4208.13 93.8508 L4191.22 97.3068 L4174.3 100.269 L4157.39 100.985 L4140.48 102.048 L4123.56 103.741 L4106.65 107.68 L4089.73 110.494 L4072.82 112.279 L4055.91 110.276 L4038.99 106.54 L4022.08 103.535 L4005.17 104.175 L3988.25 108.818 L3971.34 119.868 L3954.42 137.547 L3937.51 150.573 L3920.6 152.573 L3903.68 148.119 L3886.77 136.367 L3869.86 122.95 L3852.94 109.242 L3836.03 97.5522 L3819.11 89.3111 L3802.2 89.8632 L3785.29 93.2967 L3768.37 96.2385 L3751.46 96.9331 L3734.55 97.9765 L3717.63 99.6225 L3700.72 102.73 L3683.8 105.655 L3666.89 108.035 L3649.98 105.635 L3633.06 101.597 L3616.15 98.394 L3599.23 98.8719 L3582.32 104.083 L3565.41 115.298 L3548.49 133.055 L3531.58 146.164 L3514.67 148.242 L3497.75 143.868 L3480.84 132.149 L3463.92 118.734 L3447.01 105.009 L3430.1 93.3123 L3413.18 84.9969 L3396.27 85.4855 L3379.36 88.8372 L3362.44 91.6414 L3345.53 92.1841 L3328.61 93.178 L3311.7 94.8253 L3294.79 98.2346 L3277.87 101.09 L3260.96 102.958 L3244.05 100.501 L3227.13 96.3142 L3210.22 92.9185 L3193.3 93.0804 L3176.39 98.4395 L3159.48 109.776 L3142.56 127.535 L3125.65 140.697 L3108.73 142.807 L3091.82 138.484 L3074.91 126.836 L3057.99 113.489 L3041.08 99.829 L3024.17 88.1497 L3007.25 79.8758 L2990.34 80.3506 L2973.42 83.6674 L2956.51 86.4442 L2939.6 86.9273 L2922.68 87.7222 L2905.77 88.9748 L2888.86 91.8814 L2871.94 94.5824 L2855.03 96.6914 L2838.11 94.5129 L2821.2 90.893 L2804.29 87.5331 L2787.37 87.9351 L2770.46 93.0528 L2753.54 104.303 L2736.63 122.173 L2719.72 135.386 L2702.8 137.567 L2685.89 133.291 L2668.98 121.719 L2652.06 108.452 L2635.15 94.8489 L2618.23 83.231 L2601.32 74.9909 L2584.41 75.5753 L2567.49 78.978 L2550.58 81.8254 L2533.67 82.3988 L2516.75 83.2878 L2499.84 83.4809 L2482.92 86.4262 L2466.01 89.1765 L2449.1 91.3996 L2432.18 90.2057 L2415.27 86.2919 L2398.36 82.9222 L2381.44 83.238 L2364.53 88.1895 L2347.61 99.0026 L2330.7 116.866 L2313.79 130.188 L2296.87 132.556 L2279.96 128.505 L2263.04 117.108 L2246.13 104.011 L2229.22 90.569 L2212.3 79.116 L2195.39 71.0169 L2178.48 71.7315 L2161.56 75.3112 L2144.65 78.3417 L2127.73 79.1318 L2110.82 80.1227 L2093.91 80.2741 L2076.99 83.3682 L2060.08 86.2595 L2043.17 88.6517 L2026.25 87.3716 L2009.34 83.405 L1992.42 79.9366 L1975.51 80.2405 L1958.6 85.3124 L1941.68 96.6231 L1924.77 114.639 L1907.85 128.138 L1890.94 130.676 L1874.03 126.884 L1857.11 115.747 L1840.2 102.923 L1823.29 89.7754 L1806.37 78.6159 L1789.46 70.8396 L1772.54 71.8413 L1755.63 75.7126 L1738.72 79.0593 L1721.8 80.1139 L1704.89 81.4546 L1687.98 82.8394 L1671.06 86.2216 L1654.15 89.3956 L1637.23 92.0378 L1620.32 90.2482 L1603.41 86.7795 L1586.49 83.9339 L1569.58 84.8672 L1552.67 90.4505 L1535.75 101.849 L1518.84 120.36 L1501.92 134.299 L1485.01 137.283 L1468.1 133.89 L1451.18 123.111 L1434.27 110.61 L1417.35 97.777 L1400.44 86.3997 L1383.53 79.4692 L1366.61 80.8683 L1349.7 85.1536 L1332.79 89.0107 L1315.87 90.6426 L1298.96 92.5572 L1282.04 95.0637 L1265.13 98.1815 L1248.22 101.103 L1231.3 103.594 L1214.39 103.537 L1197.48 102.28 L1180.56 100.31 L1163.65 102.116 L1146.73 108.459 L1129.82 120.674 L1112.91 139.743 L1095.99 154.338 L1079.08 158.026 L1062.16 155.338 L1045.25 145.348 L1028.34 131.403 L1011.42 116.207 L994.51 104.206 L977.596 98.2621 L960.682 104.308 L943.768 113.933 L926.855 119.281 L909.941 121.353 L893.027 120.654 L876.113 121.829 L859.199 126.312 L842.286 130.48 L825.372 134.05 L808.458 135.093 L791.544 129.609 L774.63 127.144 L757.717 133.574 L740.803 146.906 L723.889 162.331 L706.975 185.525 L690.061 204.878 L673.148 212.554 L656.234 213.242 L639.32 206.748 L622.406 198.203 L605.492 185.302 L588.579 175.585 L571.665 171.613  Z" fill="#aeaeae" fill-rule="evenodd" fill-opacity="0.5"/>
<polyline clip-path="url(#clip202)" style="stroke:#aeaeae; stroke-linecap:round; stroke-linejoin:round; stroke-width:0; stroke-opacity:1; fill:none" points="571.665,184.233 588.579,188.505 605.492,194.869 622.406,202.375 639.32,209.612 656.234,215.777 673.148,217.45 690.061,215.152 706.975,206.395 723.889,195.033 740.803,187.58 757.717,183.036 774.63,181.109 791.544,182.074 808.458,184.552 825.372,187.257 842.286,188.442 859.199,188.777 876.113,187.912 893.027,187.726 909.941,187.562 926.855,187.216 943.768,185.09 960.682,182.317 977.596,181.208 994.51,185.595 1011.42,192.164 1028.34,199.92 1045.25,207.411 1062.16,213.859 1079.08,215.775 1095.99,213.689 1112.91,205.017 1129.82,193.636 1146.73,186.24 1163.65,181.849 1180.56,180.09 1197.48,181.194 1214.39,183.751 1231.3,186.495 1248.22,187.717 1265.13,188.065 1282.04,187.25 1298.96,187.205 1315.87,187.227 1332.79,187.066 1349.7,185.11 1366.61,182.488 1383.53,181.514 1400.44,186.037 1417.35,192.733 1434.27,200.609 1451.18,208.236 1468.1,214.808 1485.01,216.841 1501.92,214.839 1518.84,206.149 1535.75,194.708 1552.67,187.232 1569.58,182.762 1586.49,180.939 1603.41,181.998 1620.32,184.524 1637.23,187.234 1654.15,188.418 1671.06,188.755 1687.98,187.969 1704.89,188 1721.8,188.106 1738.72,188.032 1755.63,186.159 1772.54,183.612 1789.46,182.707 1806.37,187.3 1823.29,194.067 1840.2,202.015 1857.11,209.713 1874.03,216.365 1890.94,218.471 1907.85,216.557 1924.77,207.938 1941.68,196.512 1958.6,189.01 1975.51,184.499 1992.42,182.634 2009.34,183.65 2026.25,186.139 2043.17,188.811 2060.08,189.962 2076.99,190.309 2093.91,189.536 2110.82,189.591 2127.73,189.726 2144.65,189.689 2161.56,187.852 2178.48,185.338 2195.39,184.465 2212.3,189.095 2229.22,195.901 2246.13,203.899 2263.04,211.638 2279.96,218.331 2296.87,220.488 2313.79,218.551 2330.7,209.934 2347.61,198.507 2364.53,190.964 2381.44,186.413 2398.36,184.51 2415.27,185.483 2432.18,187.938 2449.1,190.581 2466.01,191.698 2482.92,192.02 2499.84,191.228 2516.75,191.289 2533.67,191.44 2550.58,191.421 2567.49,189.601 2584.41,187.106 2601.32,186.248 2618.23,190.898 2635.15,197.729 2652.06,205.751 2668.98,213.526 2685.89,220.26 2702.8,222.457 2719.72,220.589 2736.63,212.011 2753.54,200.55 2770.46,192.975 2787.37,188.39 2804.29,186.435 2821.2,187.362 2838.11,189.768 2855.03,192.356 2871.94,193.456 2888.86,193.743 2905.77,192.923 2922.68,192.966 2939.6,193.108 2956.51,193.091 2973.42,191.277 2990.34,188.788 3007.25,187.937 3024.17,192.596 3041.08,199.439 3057.99,207.473 3074.91,215.27 3091.82,222.026 3108.73,224.251 3125.65,222.412 3142.56,213.824 3159.48,202.366 3176.39,194.757 3193.3,190.129 3210.22,188.139 3227.13,189.023 3244.05,191.393 3260.96,193.943 3277.87,194.997 3294.79,195.261 3311.7,194.432 3328.61,194.458 3345.53,194.595 3362.44,194.582 3379.36,192.773 3396.27,190.288 3413.18,189.441 3430.1,194.107 3447.01,200.956 3463.92,209.006 3480.84,216.821 3497.75,223.598 3514.67,225.842 3531.58,224.022 3548.49,215.432 3565.41,203.947 3582.32,196.336 3599.23,191.683 3616.15,189.647 3633.06,190.49 3649.98,192.818 3666.89,195.353 3683.8,196.356 3700.72,196.582 3717.63,195.724 3734.55,195.752 3751.46,195.886 3768.37,195.871 3785.29,194.062 3802.2,191.578 3819.11,190.732 3836.03,195.401 3852.94,202.256 3869.86,210.311 3886.77,218.132 3903.68,224.923 3920.6,227.178 3937.51,225.372 3954.42,216.818 3971.34,205.328 3988.25,197.688 4005.17,193.008 4022.08,190.947 4038.99,191.758 4055.91,194.053 4072.82,196.545 4089.73,197.521 4106.65,197.729 4123.56,196.86 4140.48,196.891 4157.39,197.024 4174.3,197.012 4191.22,195.202 4208.13,192.713 4225.05,191.863 4241.96,196.531 4258.87,203.386 4275.79,211.443 4292.7,219.268 4309.61,226.067 4326.53,228.331 4343.44,226.53 4360.36,217.952 4377.27,206.466 4394.18,198.802 4411.1,194.099 4428.01,192.011 4444.92,192.795 4461.84,195.065 4478.75,197.527 4495.67,198.484 4512.58,198.679 4529.49,197.804 4546.41,197.816 4563.32,197.943 4580.24,197.93 4597.15,196.123 4614.06,193.639 4630.98,192.787 "/>
<path clip-path="url(#clip202)" d="M571.665 194.125 L588.579 206.11 L605.492 224.225 L622.406 246.341 L639.32 270.837 L656.234 293.929 L673.148 307.033 L690.061 310.379 L706.975 294.289 L723.889 269.104 L740.803 254.124 L757.717 242.934 L774.63 237.945 L791.544 239.768 L808.458 245.128 L825.372 252.682 L842.286 257.833 L859.199 264.204 L876.113 265.13 L893.027 268.756 L909.941 271.202 L926.855 270.943 L943.768 270.241 L960.682 265.563 L977.596 267.541 L994.51 280.404 L1011.42 297.873 L1028.34 321.615 L1045.25 345.142 L1062.16 365.8 L1079.08 377.427 L1095.99 377.428 L1112.91 359.827 L1129.82 331.112 L1146.73 311.914 L1163.65 294.266 L1180.56 285.331 L1197.48 283.815 L1214.39 284.455 L1231.3 286.813 L1248.22 285.289 L1265.13 287.449 L1282.04 287.524 L1298.96 289.519 L1315.87 294.51 L1332.79 296.326 L1349.7 296.427 L1366.61 294.235 L1383.53 292.536 L1400.44 303.897 L1417.35 323.512 L1434.27 347.163 L1451.18 371.106 L1468.1 392.17 L1485.01 402.535 L1501.92 405.655 L1518.84 385.397 L1535.75 355.213 L1552.67 331.766 L1569.58 312.307 L1586.49 301.483 L1603.41 298.481 L1620.32 298.289 L1637.23 298.835 L1654.15 296.703 L1671.06 297.03 L1687.98 295.082 L1704.89 296.298 L1721.8 301.754 L1738.72 306.874 L1755.63 306.858 L1772.54 304.944 L1789.46 302.684 L1806.37 312.049 L1823.29 330.761 L1840.2 354.261 L1857.11 380.386 L1874.03 401.561 L1890.94 412.462 L1907.85 413.468 L1924.77 395.939 L1941.68 367.405 L1958.6 341.994 L1975.51 321.312 L1992.42 309.421 L2009.34 303.956 L2026.25 302.535 L2043.17 303.256 L2060.08 302.796 L2076.99 301.239 L2093.91 299.552 L2110.82 303.286 L2127.73 307.278 L2144.65 313.469 L2161.56 312.61 L2178.48 311.069 L2195.39 315.49 L2212.3 324.5 L2229.22 337.942 L2246.13 360.551 L2263.04 386.706 L2279.96 407.257 L2296.87 416.956 L2313.79 418.703 L2330.7 402.379 L2347.61 374.677 L2364.53 348.756 L2381.44 327.569 L2398.36 311.074 L2415.27 307.504 L2432.18 307.451 L2449.1 308.24 L2466.01 308.097 L2482.92 306.209 L2499.84 304.907 L2516.75 308.238 L2533.67 312.547 L2550.58 318.23 L2567.49 316.497 L2584.41 315.989 L2601.32 318.05 L2618.23 331.47 L2635.15 349.405 L2652.06 366.995 L2668.98 390.905 L2685.89 409.437 L2702.8 420.779 L2719.72 422.083 L2736.63 408.97 L2753.54 380.411 L2770.46 352.806 L2787.37 331.551 L2804.29 317.309 L2821.2 310.719 L2838.11 311.023 L2855.03 311.43 L2871.94 310.726 L2888.86 309.327 L2905.77 306.896 L2922.68 310.481 L2939.6 315.381 L2956.51 320.483 L2973.42 319.99 L2990.34 318.778 L3007.25 321.089 L3024.17 334.3 L3041.08 352.251 L3057.99 374.654 L3074.91 393.998 L3091.82 412.694 L3108.73 422.944 L3125.65 427.588 L3142.56 413.285 L3159.48 382.77 L3176.39 355.081 L3193.3 334.296 L3210.22 319.402 L3227.13 313.475 L3244.05 313.747 L3260.96 314.315 L3277.87 313.544 L3294.79 311.891 L3311.7 308.579 L3328.61 312.593 L3345.53 318.483 L3362.44 322.32 L3379.36 322.218 L3396.27 320.636 L3413.18 323.309 L3430.1 338.751 L3447.01 356.407 L3463.92 377.496 L3480.84 397.53 L3497.75 415.9 L3514.67 425.945 L3531.58 429.738 L3548.49 416.742 L3565.41 384.77 L3582.32 356.725 L3599.23 337.901 L3616.15 320.023 L3633.06 315.142 L3649.98 315.966 L3666.89 316.43 L3683.8 315.941 L3700.72 314.351 L3717.63 310.307 L3734.55 315.512 L3751.46 320.767 L3768.37 324.115 L3785.29 325.977 L3802.2 323.562 L3819.11 327.279 L3836.03 340.148 L3852.94 357.671 L3869.86 379.38 L3886.77 400.912 L3903.68 418.024 L3920.6 429.911 L3937.51 432.117 L3954.42 418.19 L3971.34 385.73 L3988.25 359.573 L4005.17 340.071 L4022.08 320.468 L4038.99 317.892 L4055.91 317.6 L4072.82 318.627 L4089.73 317.56 L4106.65 316.23 L4123.56 313.506 L4140.48 319.281 L4157.39 324.691 L4174.3 326.162 L4191.22 327.375 L4208.13 325.125 L4225.05 330.121 L4241.96 342.039 L4258.87 358.836 L4275.79 379.913 L4292.7 403.873 L4309.61 421.61 L4326.53 432.304 L4343.44 433.741 L4360.36 418.222 L4377.27 386.464 L4394.18 362.938 L4411.1 342.788 L4428.01 324.811 L4444.92 321.106 L4461.84 319.356 L4478.75 320.787 L4495.67 319.032 L4512.58 317.468 L4529.49 315.334 L4546.41 320.227 L4563.32 325.636 L4580.24 327.676 L4597.15 328.973 L4614.06 328.875 L4630.98 330.47 L4630.98 123.876 L4614.06 126.565 L4597.15 134.529 L4580.24 140.388 L4563.32 140.115 L4546.41 141.476 L4529.49 142.788 L4512.58 146.435 L4495.67 149.299 L4478.75 146.758 L4461.84 140.622 L4444.92 136.202 L4428.01 131.989 L4411.1 133.353 L4394.18 140.598 L4377.27 152.785 L4360.36 173.035 L4343.44 187.885 L4326.53 190.759 L4309.61 186.325 L4292.7 173.72 L4275.79 158.464 L4258.87 142.907 L4241.96 129.718 L4225.05 121.424 L4208.13 124.597 L4191.22 131.987 L4174.3 137.768 L4157.39 137.371 L4140.48 139.019 L4123.56 139.648 L4106.65 143.379 L4089.73 146.448 L4072.82 144.816 L4055.91 137.854 L4038.99 132.302 L4022.08 130.333 L4005.17 130.843 L3988.25 138.693 L3971.34 150.459 L3954.42 169.88 L3937.51 184.768 L3920.6 188.333 L3903.68 184.052 L3886.77 171.174 L3869.86 155.69 L3852.94 140.178 L3836.03 127.396 L3819.11 119.544 L3802.2 122.653 L3785.29 129.183 L3768.37 134.085 L3751.46 134.614 L3734.55 134.754 L3717.63 135.915 L3700.72 139.935 L3683.8 142.222 L3666.89 142.376 L3649.98 135.024 L3633.06 129.56 L3616.15 126.609 L3599.23 128.43 L3582.32 135.501 L3565.41 146.794 L3548.49 166.344 L3531.58 181.823 L3514.67 184.83 L3497.75 180.507 L3480.84 167.84 L3463.92 152.925 L3447.01 137.173 L3430.1 124.491 L3413.18 116.766 L3396.27 119.346 L3379.36 126.17 L3362.44 130.335 L3345.53 129.73 L3328.61 128.707 L3311.7 130.923 L3294.79 135.195 L3277.87 137.666 L3260.96 136.773 L3244.05 131.371 L3227.13 125.612 L3210.22 122.013 L3193.3 124.238 L3176.39 130.422 L3159.48 142.274 L3142.56 162.187 L3125.65 176.786 L3108.73 180.16 L3091.82 176.399 L3074.91 164.166 L3057.99 148.568 L3041.08 133.649 L3024.17 121.048 L3007.25 112.998 L2990.34 115.568 L2973.42 122.65 L2956.51 125.48 L2939.6 124.318 L2922.68 123.199 L2905.77 125.761 L2888.86 130.199 L2871.94 132.258 L2855.03 131.816 L2838.11 127.112 L2821.2 121.494 L2804.29 118.434 L2787.37 120.145 L2770.46 125.313 L2753.54 137.038 L2736.63 156.187 L2719.72 171.459 L2702.8 175.301 L2685.89 171.69 L2668.98 159.249 L2652.06 144.821 L2635.15 129.474 L2618.23 117.065 L2601.32 109.287 L2584.41 111.535 L2567.49 117.285 L2550.58 120.349 L2533.67 118.349 L2516.75 119.584 L2499.84 121.158 L2482.92 123.45 L2466.01 125.749 L2449.1 127.82 L2432.18 123.677 L2415.27 116.947 L2398.36 113.553 L2381.44 114.706 L2364.53 121.285 L2347.61 132.432 L2330.7 151.718 L2313.79 166.929 L2296.87 170.224 L2279.96 166.836 L2263.04 154.48 L2246.13 140.91 L2229.22 125.902 L2212.3 113.417 L2195.39 105.507 L2178.48 107.468 L2161.56 113.253 L2144.65 116.041 L2127.73 114.004 L2110.82 114.995 L2093.91 115.19 L2076.99 117.899 L2060.08 120.393 L2043.17 122.158 L2026.25 119.732 L2009.34 113.723 L1992.42 110.199 L1975.51 111.565 L1958.6 117.682 L1941.68 129.198 L1924.77 148.655 L1907.85 163.543 L1890.94 167.048 L1874.03 163.684 L1857.11 151.606 L1840.2 138.037 L1823.29 123.708 L1806.37 110.583 L1789.46 103.128 L1772.54 105.326 L1755.63 110.489 L1738.72 113.788 L1721.8 112.442 L1704.89 112.887 L1687.98 113.509 L1671.06 117.147 L1654.15 119.665 L1637.23 121.373 L1620.32 118.712 L1603.41 113.515 L1586.49 109.975 L1569.58 112.018 L1552.67 117.42 L1535.75 129.337 L1518.84 148.761 L1501.92 164.909 L1485.01 168.657 L1468.1 165.788 L1451.18 153.666 L1434.27 140.097 L1417.35 125.554 L1400.44 113.14 L1383.53 105.725 L1366.61 108.771 L1349.7 114.75 L1332.79 118.518 L1315.87 120.332 L1298.96 119.378 L1282.04 119.939 L1265.13 123.098 L1248.22 126.361 L1231.3 128.428 L1214.39 125.337 L1197.48 120.837 L1180.56 118.146 L1163.65 120.821 L1146.73 127.851 L1129.82 140.294 L1112.91 160.562 L1095.99 176.983 L1079.08 181.23 L1062.16 178.548 L1045.25 167.367 L1028.34 153.04 L1011.42 138.513 L994.51 125.838 L977.596 119.116 L960.682 124.463 L943.768 131.66 L926.855 137.609 L909.941 139.011 L893.027 139.64 L876.113 140.547 L859.199 145.221 L842.286 149.231 L825.372 150.979 L808.458 148.143 L791.544 145.157 L774.63 144.186 L757.717 149.683 L740.803 159.344 L723.889 174.805 L706.975 196.312 L690.061 214.088 L673.148 220.941 L656.234 221.033 L639.32 213.547 L622.406 203.154 L605.492 190.391 L588.579 179.772 L571.665 174.507  Z" fill="#757575" fill-rule="evenodd" fill-opacity="0.5"/>
<polyline clip-path="url(#clip202)" style="stroke:#757575; stroke-linecap:round; stroke-linejoin:round; stroke-width:0; stroke-opacity:1; fill:none" points="571.665,184.233 588.579,188.505 605.492,194.869 622.406,202.375 639.32,209.612 656.234,215.777 673.148,217.45 690.061,215.152 706.975,206.395 723.889,195.033 740.803,187.58 757.717,183.036 774.63,181.109 791.544,182.074 808.458,184.552 825.372,187.257 842.286,188.442 859.199,188.777 876.113,187.912 893.027,187.726 909.941,187.562 926.855,187.216 943.768,185.09 960.682,182.317 977.596,181.208 994.51,185.595 1011.42,192.164 1028.34,199.92 1045.25,207.411 1062.16,213.859 1079.08,215.775 1095.99,213.689 1112.91,205.017 1129.82,193.636 1146.73,186.24 1163.65,181.849 1180.56,180.09 1197.48,181.194 1214.39,183.751 1231.3,186.495 1248.22,187.717 1265.13,188.065 1282.04,187.25 1298.96,187.205 1315.87,187.227 1332.79,187.066 1349.7,185.11 1366.61,182.488 1383.53,181.514 1400.44,186.037 1417.35,192.733 1434.27,200.609 1451.18,208.236 1468.1,214.808 1485.01,216.841 1501.92,214.839 1518.84,206.149 1535.75,194.708 1552.67,187.232 1569.58,182.762 1586.49,180.939 1603.41,181.998 1620.32,184.524 1637.23,187.234 1654.15,188.418 1671.06,188.755 1687.98,187.969 1704.89,188 1721.8,188.106 1738.72,188.032 1755.63,186.159 1772.54,183.612 1789.46,182.707 1806.37,187.3 1823.29,194.067 1840.2,202.015 1857.11,209.713 1874.03,216.365 1890.94,218.471 1907.85,216.557 1924.77,207.938 1941.68,196.512 1958.6,189.01 1975.51,184.499 1992.42,182.634 2009.34,183.65 2026.25,186.139 2043.17,188.811 2060.08,189.962 2076.99,190.309 2093.91,189.536 2110.82,189.591 2127.73,189.726 2144.65,189.689 2161.56,187.852 2178.48,185.338 2195.39,184.465 2212.3,189.095 2229.22,195.901 2246.13,203.899 2263.04,211.638 2279.96,218.331 2296.87,220.488 2313.79,218.551 2330.7,209.934 2347.61,198.507 2364.53,190.964 2381.44,186.413 2398.36,184.51 2415.27,185.483 2432.18,187.938 2449.1,190.581 2466.01,191.698 2482.92,192.02 2499.84,191.228 2516.75,191.289 2533.67,191.44 2550.58,191.421 2567.49,189.601 2584.41,187.106 2601.32,186.248 2618.23,190.898 2635.15,197.729 2652.06,205.751 2668.98,213.526 2685.89,220.26 2702.8,222.457 2719.72,220.589 2736.63,212.011 2753.54,200.55 2770.46,192.975 2787.37,188.39 2804.29,186.435 2821.2,187.362 2838.11,189.768 2855.03,192.356 2871.94,193.456 2888.86,193.743 2905.77,192.923 2922.68,192.966 2939.6,193.108 2956.51,193.091 2973.42,191.277 2990.34,188.788 3007.25,187.937 3024.17,192.596 3041.08,199.439 3057.99,207.473 3074.91,215.27 3091.82,222.026 3108.73,224.251 3125.65,222.412 3142.56,213.824 3159.48,202.366 3176.39,194.757 3193.3,190.129 3210.22,188.139 3227.13,189.023 3244.05,191.393 3260.96,193.943 3277.87,194.997 3294.79,195.261 3311.7,194.432 3328.61,194.458 3345.53,194.595 3362.44,194.582 3379.36,192.773 3396.27,190.288 3413.18,189.441 3430.1,194.107 3447.01,200.956 3463.92,209.006 3480.84,216.821 3497.75,223.598 3514.67,225.842 3531.58,224.022 3548.49,215.432 3565.41,203.947 3582.32,196.336 3599.23,191.683 3616.15,189.647 3633.06,190.49 3649.98,192.818 3666.89,195.353 3683.8,196.356 3700.72,196.582 3717.63,195.724 3734.55,195.752 3751.46,195.886 3768.37,195.871 3785.29,194.062 3802.2,191.578 3819.11,190.732 3836.03,195.401 3852.94,202.256 3869.86,210.311 3886.77,218.132 3903.68,224.923 3920.6,227.178 3937.51,225.372 3954.42,216.818 3971.34,205.328 3988.25,197.688 4005.17,193.008 4022.08,190.947 4038.99,191.758 4055.91,194.053 4072.82,196.545 4089.73,197.521 4106.65,197.729 4123.56,196.86 4140.48,196.891 4157.39,197.024 4174.3,197.012 4191.22,195.202 4208.13,192.713 4225.05,191.863 4241.96,196.531 4258.87,203.386 4275.79,211.443 4292.7,219.268 4309.61,226.067 4326.53,228.331 4343.44,226.53 4360.36,217.952 4377.27,206.466 4394.18,198.802 4411.1,194.099 4428.01,192.011 4444.92,192.795 4461.84,195.065 4478.75,197.527 4495.67,198.484 4512.58,198.679 4529.49,197.804 4546.41,197.816 4563.32,197.943 4580.24,197.93 4597.15,196.123 4614.06,193.639 4630.98,192.787 "/>
<path clip-path="url(#clip202)" d="M571.665 189.343 L588.579 199.87 L605.492 215.237 L622.406 236.133 L639.32 257.45 L656.234 277.726 L673.148 286.167 L690.061 285.41 L706.975 267.965 L723.889 241.743 L740.803 225.754 L757.717 214.709 L774.63 210.379 L791.544 213.238 L808.458 219.654 L825.372 228.329 L842.286 233.378 L859.199 236.355 L876.113 236.287 L893.027 237.39 L909.941 240.425 L926.855 242.219 L943.768 233.597 L960.682 228.928 L977.596 228.08 L994.51 239.377 L1011.42 253.189 L1028.34 270.696 L1045.25 289.542 L1062.16 309.006 L1079.08 318.412 L1095.99 319.737 L1112.91 298.067 L1129.82 268.593 L1146.73 251.379 L1163.65 239.713 L1180.56 233.713 L1197.48 234.672 L1214.39 239.499 L1231.3 243.127 L1248.22 247.978 L1265.13 250.395 L1282.04 250.001 L1298.96 251.685 L1315.87 253.984 L1332.79 252.35 L1349.7 243.904 L1366.61 239.8 L1383.53 240.206 L1400.44 250.39 L1417.35 262.869 L1434.27 281.182 L1451.18 301.101 L1468.1 319.023 L1485.01 327.268 L1501.92 330.098 L1518.84 310.674 L1535.75 278.486 L1552.67 260.803 L1569.58 247.915 L1586.49 242.523 L1603.41 241.817 L1620.32 245.635 L1637.23 251.304 L1654.15 253.782 L1671.06 254.622 L1687.98 255.396 L1704.89 254.913 L1721.8 258.311 L1738.72 256.788 L1755.63 249.464 L1772.54 246.67 L1789.46 246.098 L1806.37 255.666 L1823.29 270.008 L1840.2 286.261 L1857.11 305.242 L1874.03 324.123 L1890.94 332.069 L1907.85 332.054 L1924.77 313.523 L1941.68 284.245 L1958.6 265.606 L1975.51 252.775 L1992.42 246.947 L2009.34 246.541 L2026.25 249.954 L2043.17 255.184 L2060.08 256.949 L2076.99 258.447 L2093.91 258.952 L2110.82 257.672 L2127.73 260.592 L2144.65 259.197 L2161.56 254.926 L2178.48 251.859 L2195.39 250.874 L2212.3 261.007 L2229.22 273.747 L2246.13 290.312 L2263.04 309.507 L2279.96 328.451 L2296.87 336.296 L2313.79 334.549 L2330.7 314.854 L2347.61 287.243 L2364.53 268.5 L2381.44 256.662 L2398.36 250.802 L2415.27 251.241 L2432.18 254.253 L2449.1 257.916 L2466.01 260.592 L2482.92 262.884 L2499.84 261.535 L2516.75 261.669 L2533.67 264.33 L2550.58 263.374 L2567.49 257.545 L2584.41 254.218 L2601.32 254.141 L2618.23 264.514 L2635.15 278.224 L2652.06 291.823 L2668.98 312.34 L2685.89 331.06 L2702.8 338.574 L2719.72 337.636 L2736.63 318.738 L2753.54 291.694 L2770.46 273.468 L2787.37 261.336 L2804.29 254.731 L2821.2 254.461 L2838.11 257.322 L2855.03 262.147 L2871.94 263.442 L2888.86 265.873 L2905.77 265.591 L2922.68 266.566 L2939.6 267.087 L2956.51 266.498 L2973.42 261.455 L2990.34 259.889 L3007.25 257.141 L3024.17 267.297 L3041.08 283.285 L3057.99 297.22 L3074.91 314.751 L3091.82 332.608 L3108.73 341.942 L3125.65 339.642 L3142.56 321.521 L3159.48 294.377 L3176.39 274.467 L3193.3 264.96 L3210.22 256.813 L3227.13 255.919 L3244.05 259.542 L3260.96 263.561 L3277.87 265.814 L3294.79 267.329 L3311.7 268.326 L3328.61 267.122 L3345.53 268.979 L3362.44 269.284 L3379.36 264.987 L3396.27 262.519 L3413.18 260.476 L3430.1 270.08 L3447.01 285.066 L3463.92 302.173 L3480.84 317.443 L3497.75 335.416 L3514.67 344.003 L3531.58 343.312 L3548.49 325.322 L3565.41 296.363 L3582.32 277.679 L3599.23 266.309 L3616.15 259.753 L3633.06 259.554 L3649.98 261.807 L3666.89 266.337 L3683.8 267.792 L3700.72 269.69 L3717.63 268.754 L3734.55 269.903 L3751.46 270.984 L3768.37 271.841 L3785.29 266.905 L3802.2 265.027 L3819.11 264.107 L3836.03 273.645 L3852.94 286.425 L3869.86 306.998 L3886.77 319.869 L3903.68 336.704 L3920.6 345.491 L3937.51 344.978 L3954.42 326.631 L3971.34 298.802 L3988.25 280.692 L4005.17 269.443 L4022.08 263.602 L4038.99 261.88 L4055.91 264.744 L4072.82 268.666 L4089.73 269.553 L4106.65 271.391 L4123.56 270.755 L4140.48 271.356 L4157.39 273.579 L4174.3 274.058 L4191.22 269.359 L4208.13 267.322 L4225.05 266.816 L4241.96 277.132 L4258.87 290.981 L4275.79 307.788 L4292.7 322.698 L4309.61 338.275 L4326.53 346.42 L4343.44 345.741 L4360.36 327.562 L4377.27 300.925 L4394.18 283.432 L4411.1 272.392 L4428.01 265.728 L4444.92 264.149 L4461.84 267.039 L4478.75 271.406 L4495.67 271.554 L4512.58 272.592 L4529.49 273.489 L4546.41 274.248 L4563.32 275.987 L4580.24 277.425 L4597.15 275.154 L4614.06 269.089 L4630.98 268.795 L4630.98 133.186 L4614.06 137.218 L4597.15 144.182 L4580.24 149.632 L4563.32 152.38 L4546.41 154.217 L4529.49 156.482 L4512.58 159.447 L4495.67 160.156 L4478.75 159.001 L4461.84 151.573 L4444.92 144.019 L4428.01 140.653 L4411.1 141.591 L4394.18 148.306 L4377.27 160.978 L4360.36 181.882 L4343.44 197.835 L4326.53 201.451 L4309.61 197.867 L4292.7 186.401 L4275.79 169.872 L4258.87 154.016 L4241.96 140.279 L4225.05 131.851 L4208.13 135.623 L4191.22 141.851 L4174.3 146.549 L4157.39 149.591 L4140.48 152.166 L4123.56 153.766 L4106.65 157.473 L4089.73 157.431 L4072.82 156.114 L4055.91 149.418 L4038.99 142.085 L4022.08 137.602 L4005.17 139.81 L3988.25 146.077 L3971.34 158.574 L3954.42 179.471 L3937.51 194.688 L3920.6 198.044 L3903.68 194.772 L3886.77 183.213 L3869.86 167.855 L3852.94 151.56 L3836.03 138.017 L3819.11 129.658 L3802.2 133.388 L3785.29 138.766 L3768.37 142.902 L3751.46 146.978 L3734.55 149.126 L3717.63 150.759 L3700.72 154.603 L3683.8 154.447 L3666.89 152.684 L3649.98 146.531 L3633.06 139.736 L3616.15 135.26 L3599.23 136.967 L3582.32 142.97 L3565.41 155.455 L3548.49 175.735 L3531.58 191.042 L3514.67 194.727 L3497.75 191.541 L3480.84 179.514 L3463.92 165.151 L3447.01 149.207 L3430.1 135.336 L3413.18 126.889 L3396.27 130.588 L3379.36 135.096 L3362.44 140.013 L3345.53 143.299 L3328.61 145.331 L3311.7 147.619 L3294.79 151.115 L3277.87 151.342 L3260.96 149.169 L3244.05 143.495 L3227.13 137.113 L3210.22 132.371 L3193.3 133.213 L3176.39 139.102 L3159.48 151.199 L3142.56 171.287 L3125.65 186.489 L3108.73 191.169 L3091.82 187.296 L3074.91 175.362 L3057.99 161.662 L3041.08 145.284 L3024.17 131.842 L3007.25 123.694 L2990.34 126.298 L2973.42 130.831 L2956.51 137.264 L2939.6 140.249 L2922.68 140.995 L2905.77 142.169 L2888.86 146.958 L2871.94 147.824 L2855.03 146.003 L2838.11 140.22 L2821.2 133.819 L2804.29 128.721 L2787.37 129.69 L2770.46 135.403 L2753.54 147.419 L2736.63 166.897 L2719.72 182.435 L2702.8 187.041 L2685.89 183.185 L2668.98 170.931 L2652.06 156.439 L2635.15 141.738 L2618.23 128.51 L2601.32 120.252 L2584.41 121.591 L2567.49 127.261 L2550.58 133.643 L2533.67 135.505 L2516.75 135.646 L2499.84 137.345 L2482.92 141.508 L2466.01 144.209 L2449.1 141.716 L2432.18 135.876 L2415.27 129.576 L2398.36 125.237 L2381.44 125.642 L2364.53 130.901 L2347.61 142.603 L2330.7 162.453 L2313.79 178.484 L2296.87 182.297 L2279.96 178.6 L2263.04 166.684 L2246.13 152.69 L2229.22 136.895 L2212.3 124.616 L2195.39 116.545 L2178.48 117.783 L2161.56 123.526 L2144.65 130.173 L2127.73 131.267 L2110.82 131.458 L2093.91 133.258 L2076.99 137.054 L2060.08 139.927 L2043.17 137.937 L2026.25 132.561 L2009.34 126.089 L1992.42 121.605 L1975.51 122.684 L1958.6 127.96 L1941.68 139.363 L1924.77 158.789 L1907.85 175.006 L1890.94 178.751 L1874.03 174.573 L1857.11 163.354 L1840.2 149.317 L1823.29 134.263 L1806.37 121.875 L1789.46 113.827 L1772.54 115.488 L1755.63 121.18 L1738.72 127.911 L1721.8 128.345 L1704.89 127.992 L1687.98 130.588 L1671.06 135.581 L1654.15 137.744 L1637.23 134.971 L1620.32 130.474 L1603.41 124.893 L1586.49 120.183 L1569.58 121.523 L1552.67 127.399 L1535.75 138.495 L1518.84 158.402 L1501.92 174.595 L1485.01 178.741 L1468.1 175.545 L1451.18 164.332 L1434.27 150.813 L1417.35 136.06 L1400.44 123.293 L1383.53 115.648 L1366.61 118.295 L1349.7 123.85 L1332.79 129.388 L1315.87 130.417 L1298.96 132.605 L1282.04 135.403 L1265.13 139.854 L1248.22 141.726 L1231.3 140.544 L1214.39 135.171 L1197.48 129.599 L1180.56 125.86 L1163.65 127.224 L1146.73 134.524 L1129.82 147.208 L1112.91 167.622 L1095.99 183.432 L1079.08 187.745 L1062.16 185.871 L1045.25 175.147 L1028.34 161.692 L1011.42 146.447 L994.51 134.443 L977.596 127.021 L960.682 131.454 L943.768 138.432 L926.855 143.993 L909.941 146.709 L893.027 149.53 L876.113 151.795 L859.199 156.347 L842.286 157.948 L825.372 157.14 L808.458 153.179 L791.544 149.984 L774.63 149.161 L757.717 154.327 L740.803 163.543 L723.889 177.864 L706.975 199.884 L690.061 217.262 L673.148 223.792 L656.234 223.653 L639.32 215.611 L622.406 204.921 L605.492 192.427 L588.579 181.376 L571.665 175.593  Z" fill="#414141" fill-rule="evenodd" fill-opacity="0.5"/>
<polyline clip-path="url(#clip202)" style="stroke:#414141; stroke-linecap:round; stroke-linejoin:round; stroke-width:0; stroke-opacity:1; fill:none" points="571.665,184.233 588.579,188.505 605.492,194.869 622.406,202.375 639.32,209.612 656.234,215.777 673.148,217.45 690.061,215.152 706.975,206.395 723.889,195.033 740.803,187.58 757.717,183.036 774.63,181.109 791.544,182.074 808.458,184.552 825.372,187.257 842.286,188.442 859.199,188.777 876.113,187.912 893.027,187.726 909.941,187.562 926.855,187.216 943.768,185.09 960.682,182.317 977.596,181.208 994.51,185.595 1011.42,192.164 1028.34,199.92 1045.25,207.411 1062.16,213.859 1079.08,215.775 1095.99,213.689 1112.91,205.017 1129.82,193.636 1146.73,186.24 1163.65,181.849 1180.56,180.09 1197.48,181.194 1214.39,183.751 1231.3,186.495 1248.22,187.717 1265.13,188.065 1282.04,187.25 1298.96,187.205 1315.87,187.227 1332.79,187.066 1349.7,185.11 1366.61,182.488 1383.53,181.514 1400.44,186.037 1417.35,192.733 1434.27,200.609 1451.18,208.236 1468.1,214.808 1485.01,216.841 1501.92,214.839 1518.84,206.149 1535.75,194.708 1552.67,187.232 1569.58,182.762 1586.49,180.939 1603.41,181.998 1620.32,184.524 1637.23,187.234 1654.15,188.418 1671.06,188.755 1687.98,187.969 1704.89,188 1721.8,188.106 1738.72,188.032 1755.63,186.159 1772.54,183.612 1789.46,182.707 1806.37,187.3 1823.29,194.067 1840.2,202.015 1857.11,209.713 1874.03,216.365 1890.94,218.471 1907.85,216.557 1924.77,207.938 1941.68,196.512 1958.6,189.01 1975.51,184.499 1992.42,182.634 2009.34,183.65 2026.25,186.139 2043.17,188.811 2060.08,189.962 2076.99,190.309 2093.91,189.536 2110.82,189.591 2127.73,189.726 2144.65,189.689 2161.56,187.852 2178.48,185.338 2195.39,184.465 2212.3,189.095 2229.22,195.901 2246.13,203.899 2263.04,211.638 2279.96,218.331 2296.87,220.488 2313.79,218.551 2330.7,209.934 2347.61,198.507 2364.53,190.964 2381.44,186.413 2398.36,184.51 2415.27,185.483 2432.18,187.938 2449.1,190.581 2466.01,191.698 2482.92,192.02 2499.84,191.228 2516.75,191.289 2533.67,191.44 2550.58,191.421 2567.49,189.601 2584.41,187.106 2601.32,186.248 2618.23,190.898 2635.15,197.729 2652.06,205.751 2668.98,213.526 2685.89,220.26 2702.8,222.457 2719.72,220.589 2736.63,212.011 2753.54,200.55 2770.46,192.975 2787.37,188.39 2804.29,186.435 2821.2,187.362 2838.11,189.768 2855.03,192.356 2871.94,193.456 2888.86,193.743 2905.77,192.923 2922.68,192.966 2939.6,193.108 2956.51,193.091 2973.42,191.277 2990.34,188.788 3007.25,187.937 3024.17,192.596 3041.08,199.439 3057.99,207.473 3074.91,215.27 3091.82,222.026 3108.73,224.251 3125.65,222.412 3142.56,213.824 3159.48,202.366 3176.39,194.757 3193.3,190.129 3210.22,188.139 3227.13,189.023 3244.05,191.393 3260.96,193.943 3277.87,194.997 3294.79,195.261 3311.7,194.432 3328.61,194.458 3345.53,194.595 3362.44,194.582 3379.36,192.773 3396.27,190.288 3413.18,189.441 3430.1,194.107 3447.01,200.956 3463.92,209.006 3480.84,216.821 3497.75,223.598 3514.67,225.842 3531.58,224.022 3548.49,215.432 3565.41,203.947 3582.32,196.336 3599.23,191.683 3616.15,189.647 3633.06,190.49 3649.98,192.818 3666.89,195.353 3683.8,196.356 3700.72,196.582 3717.63,195.724 3734.55,195.752 3751.46,195.886 3768.37,195.871 3785.29,194.062 3802.2,191.578 3819.11,190.732 3836.03,195.401 3852.94,202.256 3869.86,210.311 3886.77,218.132 3903.68,224.923 3920.6,227.178 3937.51,225.372 3954.42,216.818 3971.34,205.328 3988.25,197.688 4005.17,193.008 4022.08,190.947 4038.99,191.758 4055.91,194.053 4072.82,196.545 4089.73,197.521 4106.65,197.729 4123.56,196.86 4140.48,196.891 4157.39,197.024 4174.3,197.012 4191.22,195.202 4208.13,192.713 4225.05,191.863 4241.96,196.531 4258.87,203.386 4275.79,211.443 4292.7,219.268 4309.61,226.067 4326.53,228.331 4343.44,226.53 4360.36,217.952 4377.27,206.466 4394.18,198.802 4411.1,194.099 4428.01,192.011 4444.92,192.795 4461.84,195.065 4478.75,197.527 4495.67,198.484 4512.58,198.679 4529.49,197.804 4546.41,197.816 4563.32,197.943 4580.24,197.93 4597.15,196.123 4614.06,193.639 4630.98,192.787 "/>
<path clip-path="url(#clip200)" d="M3859.77 853.161 L4609.33 853.161 L4609.33 334.761 L3859.77 334.761  Z" fill="#ffffff" fill-rule="evenodd" fill-opacity="1"/>
<polyline clip-path="url(#clip200)" style="stroke:#000000; stroke-linecap:round; stroke-linejoin:round; stroke-width:4; stroke-opacity:1; fill:none" points="3859.77,853.161 4609.33,853.161 4609.33,334.761 3859.77,334.761 3859.77,853.161 "/>
<polyline clip-path="url(#clip200)" style="stroke:#aeaeae; stroke-linecap:round; stroke-linejoin:round; stroke-width:2; stroke-opacity:1; fill:none" points="3907.58,464.361 4194.44,464.361 "/>
<path clip-path="url(#clip200)" d="M4243.93 497.723 L4263.02 497.723 L4263.02 431.809 L4242.25 435.976 L4242.25 425.328 L4262.91 421.161 L4274.6 421.161 L4274.6 497.723 L4293.69 497.723 L4293.69 507.561 L4243.93 507.561 L4243.93 497.723 Z" fill="#000000" fill-rule="nonzero" fill-opacity="1" /><path clip-path="url(#clip200)" d="M4342.31 428.858 Q4333.28 428.858 4328.71 437.77 Q4324.19 446.624 4324.19 464.448 Q4324.19 482.214 4328.71 491.126 Q4333.28 499.98 4342.31 499.98 Q4351.39 499.98 4355.9 491.126 Q4360.48 482.214 4360.48 464.448 Q4360.48 446.624 4355.9 437.77 Q4351.39 428.858 4342.31 428.858 M4342.31 419.599 Q4356.83 419.599 4364.47 431.115 Q4372.17 442.573 4372.17 464.448 Q4372.17 486.265 4364.47 497.781 Q4356.83 509.239 4342.31 509.239 Q4327.78 509.239 4320.08 497.781 Q4312.44 486.265 4312.44 464.448 Q4312.44 442.573 4320.08 431.115 Q4327.78 419.599 4342.31 419.599 Z" fill="#000000" fill-rule="nonzero" fill-opacity="1" /><path clip-path="url(#clip200)" d="M4417.71 428.858 Q4408.68 428.858 4404.11 437.77 Q4399.6 446.624 4399.6 464.448 Q4399.6 482.214 4404.11 491.126 Q4408.68 499.98 4417.71 499.98 Q4426.8 499.98 4431.31 491.126 Q4435.88 482.214 4435.88 464.448 Q4435.88 446.624 4431.31 437.77 Q4426.8 428.858 4417.71 428.858 M4417.71 419.599 Q4432.24 419.599 4439.87 431.115 Q4447.57 442.573 4447.57 464.448 Q4447.57 486.265 4439.87 497.781 Q4432.24 509.239 4417.71 509.239 Q4403.18 509.239 4395.49 497.781 Q4387.85 486.265 4387.85 464.448 Q4387.85 442.573 4395.49 431.115 Q4403.18 419.599 4417.71 419.599 Z" fill="#000000" fill-rule="nonzero" fill-opacity="1" /><path clip-path="url(#clip200)" d="M4541.61 469.541 Q4536.58 469.541 4533.68 473.823 Q4530.85 478.105 4530.85 485.744 Q4530.85 493.267 4533.68 497.608 Q4536.58 501.89 4541.61 501.89 Q4546.53 501.89 4549.36 497.608 Q4552.26 493.267 4552.26 485.744 Q4552.26 478.163 4549.36 473.881 Q4546.53 469.541 4541.61 469.541 M4541.61 462.191 Q4550.75 462.191 4556.14 468.557 Q4561.52 474.923 4561.52 485.744 Q4561.52 496.566 4556.08 502.932 Q4550.7 509.239 4541.61 509.239 Q4532.35 509.239 4526.97 502.932 Q4521.59 496.566 4521.59 485.744 Q4521.59 474.865 4526.97 468.557 Q4532.41 462.191 4541.61 462.191 M4481.89 426.948 Q4476.91 426.948 4474.02 431.289 Q4471.18 435.571 4471.18 443.094 Q4471.18 450.733 4474.02 455.015 Q4476.85 459.298 4481.89 459.298 Q4486.92 459.298 4489.76 455.015 Q4492.65 450.733 4492.65 443.094 Q4492.65 435.629 4489.76 431.289 Q4486.86 426.948 4481.89 426.948 M4534.14 419.599 L4543.4 419.599 L4489.35 509.239 L4480.09 509.239 L4534.14 419.599 M4481.89 419.599 Q4491.03 419.599 4496.47 425.964 Q4501.91 432.272 4501.91 443.094 Q4501.91 454.031 4496.47 460.339 Q4491.09 466.647 4481.89 466.647 Q4472.69 466.647 4467.3 460.339 Q4461.98 453.974 4461.98 443.094 Q4461.98 432.33 4467.36 425.964 Q4472.74 419.599 4481.89 419.599 Z" fill="#000000" fill-rule="nonzero" fill-opacity="1" /><polyline clip-path="url(#clip200)" style="stroke:#757575; stroke-linecap:round; stroke-linejoin:round; stroke-width:2; stroke-opacity:1; fill:none" points="3907.58,593.961 4194.44,593.961 "/>
<path clip-path="url(#clip200)" d="M4247.8 635.367 L4247.8 624.719 Q4252.2 626.803 4256.72 627.902 Q4261.23 629.002 4265.57 629.002 Q4277.14 629.002 4283.22 621.247 Q4289.35 613.435 4290.22 597.578 Q4286.87 602.555 4281.72 605.217 Q4276.57 607.879 4270.32 607.879 Q4257.35 607.879 4249.77 600.067 Q4242.25 592.196 4242.25 578.597 Q4242.25 565.287 4250.12 557.243 Q4257.99 549.199 4271.07 549.199 Q4286.06 549.199 4293.93 560.715 Q4301.85 572.173 4301.85 594.048 Q4301.85 614.476 4292.13 626.687 Q4282.47 638.839 4266.09 638.839 Q4261.69 638.839 4257.18 637.971 Q4252.66 637.103 4247.8 635.367 M4271.07 598.736 Q4278.94 598.736 4283.51 593.354 Q4288.14 587.972 4288.14 578.597 Q4288.14 569.28 4283.51 563.898 Q4278.94 558.458 4271.07 558.458 Q4263.2 558.458 4258.57 563.898 Q4254 569.28 4254 578.597 Q4254 587.972 4258.57 593.354 Q4263.2 598.736 4271.07 598.736 Z" fill="#000000" fill-rule="nonzero" fill-opacity="1" /><path clip-path="url(#clip200)" d="M4347.86 558.458 Q4338.83 558.458 4334.26 567.37 Q4329.75 576.224 4329.75 594.048 Q4329.75 611.814 4334.26 620.726 Q4338.83 629.58 4347.86 629.58 Q4356.95 629.58 4361.46 620.726 Q4366.03 611.814 4366.03 594.048 Q4366.03 576.224 4361.46 567.37 Q4356.95 558.458 4347.86 558.458 M4347.86 549.199 Q4362.39 549.199 4370.03 560.715 Q4377.72 572.173 4377.72 594.048 Q4377.72 615.865 4370.03 627.381 Q4362.39 638.839 4347.86 638.839 Q4333.34 638.839 4325.64 627.381 Q4318 615.865 4318 594.048 Q4318 572.173 4325.64 560.715 Q4333.34 549.199 4347.86 549.199 Z" fill="#000000" fill-rule="nonzero" fill-opacity="1" /><path clip-path="url(#clip200)" d="M4471.76 599.141 Q4466.73 599.141 4463.83 603.423 Q4461 607.705 4461 615.344 Q4461 622.867 4463.83 627.208 Q4466.73 631.49 4471.76 631.49 Q4476.68 631.49 4479.52 627.208 Q4482.41 622.867 4482.41 615.344 Q4482.41 607.763 4479.52 603.481 Q4476.68 599.141 4471.76 599.141 M4471.76 591.791 Q4480.9 591.791 4486.29 598.157 Q4491.67 604.523 4491.67 615.344 Q4491.67 626.166 4486.23 632.532 Q4480.85 638.839 4471.76 638.839 Q4462.5 638.839 4457.12 632.532 Q4451.74 626.166 4451.74 615.344 Q4451.74 604.465 4457.12 598.157 Q4462.56 591.791 4471.76 591.791 M4412.04 556.548 Q4407.06 556.548 4404.17 560.889 Q4401.33 565.171 4401.33 572.694 Q4401.33 580.333 4404.17 584.615 Q4407 588.898 4412.04 588.898 Q4417.07 588.898 4419.91 584.615 Q4422.8 580.333 4422.8 572.694 Q4422.8 565.229 4419.91 560.889 Q4417.02 556.548 4412.04 556.548 M4464.3 549.199 L4473.55 549.199 L4419.5 638.839 L4410.24 638.839 L4464.3 549.199 M4412.04 549.199 Q4421.18 549.199 4426.62 555.564 Q4432.06 561.872 4432.06 572.694 Q4432.06 583.631 4426.62 589.939 Q4421.24 596.247 4412.04 596.247 Q4402.84 596.247 4397.46 589.939 Q4392.13 583.574 4392.13 572.694 Q4392.13 561.93 4397.51 555.564 Q4402.9 549.199 4412.04 549.199 Z" fill="#000000" fill-rule="nonzero" fill-opacity="1" /><polyline clip-path="url(#clip200)" style="stroke:#414141; stroke-linecap:round; stroke-linejoin:round; stroke-width:2; stroke-opacity:1; fill:none" points="3907.58,723.561 4194.44,723.561 "/>
<path clip-path="url(#clip200)" d="M4271.88 725.731 Q4263.54 725.731 4258.74 730.187 Q4254 734.643 4254 742.456 Q4254 750.268 4258.74 754.724 Q4263.54 759.18 4271.88 759.18 Q4280.21 759.18 4285.01 754.724 Q4289.82 750.21 4289.82 742.456 Q4289.82 734.643 4285.01 730.187 Q4280.27 725.731 4271.88 725.731 M4260.19 720.755 Q4252.66 718.903 4248.44 713.752 Q4244.27 708.602 4244.27 701.194 Q4244.27 690.836 4251.62 684.817 Q4259.03 678.799 4271.88 678.799 Q4284.78 678.799 4292.13 684.817 Q4299.48 690.836 4299.48 701.194 Q4299.48 708.602 4295.26 713.752 Q4291.09 718.903 4283.63 720.755 Q4292.07 722.722 4296.76 728.451 Q4301.51 734.18 4301.51 742.456 Q4301.51 755.014 4293.81 761.727 Q4286.17 768.439 4271.88 768.439 Q4257.58 768.439 4249.89 761.727 Q4242.25 755.014 4242.25 742.456 Q4242.25 734.18 4246.99 728.451 Q4251.74 722.722 4260.19 720.755 M4255.91 702.294 Q4255.91 709.007 4260.07 712.768 Q4264.3 716.53 4271.88 716.53 Q4279.4 716.53 4283.63 712.768 Q4287.91 709.007 4287.91 702.294 Q4287.91 695.581 4283.63 691.82 Q4279.4 688.058 4271.88 688.058 Q4264.3 688.058 4260.07 691.82 Q4255.91 695.581 4255.91 702.294 Z" fill="#000000" fill-rule="nonzero" fill-opacity="1" /><path clip-path="url(#clip200)" d="M4347.28 688.058 Q4338.25 688.058 4333.68 696.97 Q4329.17 705.824 4329.17 723.648 Q4329.17 741.414 4333.68 750.326 Q4338.25 759.18 4347.28 759.18 Q4356.37 759.18 4360.88 750.326 Q4365.45 741.414 4365.45 723.648 Q4365.45 705.824 4360.88 696.97 Q4356.37 688.058 4347.28 688.058 M4347.28 678.799 Q4361.81 678.799 4369.45 690.315 Q4377.14 701.773 4377.14 723.648 Q4377.14 745.465 4369.45 756.981 Q4361.81 768.439 4347.28 768.439 Q4332.76 768.439 4325.06 756.981 Q4317.42 745.465 4317.42 723.648 Q4317.42 701.773 4325.06 690.315 Q4332.76 678.799 4347.28 678.799 Z" fill="#000000" fill-rule="nonzero" fill-opacity="1" /><path clip-path="url(#clip200)" d="M4471.18 728.741 Q4466.15 728.741 4463.25 733.023 Q4460.42 737.305 4460.42 744.944 Q4460.42 752.467 4463.25 756.808 Q4466.15 761.09 4471.18 761.09 Q4476.1 761.09 4478.94 756.808 Q4481.83 752.467 4481.83 744.944 Q4481.83 737.363 4478.94 733.081 Q4476.1 728.741 4471.18 728.741 M4471.18 721.391 Q4480.33 721.391 4485.71 727.757 Q4491.09 734.123 4491.09 744.944 Q4491.09 755.766 4485.65 762.132 Q4480.27 768.439 4471.18 768.439 Q4461.92 768.439 4456.54 762.132 Q4451.16 755.766 4451.16 744.944 Q4451.16 734.065 4456.54 727.757 Q4461.98 721.391 4471.18 721.391 M4411.46 686.148 Q4406.48 686.148 4403.59 690.489 Q4400.75 694.771 4400.75 702.294 Q4400.75 709.933 4403.59 714.215 Q4406.43 718.498 4411.46 718.498 Q4416.49 718.498 4419.33 714.215 Q4422.22 709.933 4422.22 702.294 Q4422.22 694.829 4419.33 690.489 Q4416.44 686.148 4411.46 686.148 M4463.72 678.799 L4472.98 678.799 L4418.93 768.439 L4409.67 768.439 L4463.72 678.799 M4411.46 678.799 Q4420.6 678.799 4426.04 685.164 Q4431.48 691.472 4431.48 702.294 Q4431.48 713.231 4426.04 719.539 Q4420.66 725.847 4411.46 725.847 Q4402.26 725.847 4396.88 719.539 Q4391.55 713.174 4391.55 702.294 Q4391.55 691.53 4396.93 685.164 Q4402.32 678.799 4411.46 678.799 Z" fill="#000000" fill-rule="nonzero" fill-opacity="1" /></svg>
