<?xml version="1.0" encoding="utf-8"?>
<svg xmlns="http://www.w3.org/2000/svg" xmlns:xlink="http://www.w3.org/1999/xlink" width="1200" height="300" viewBox="0 0 4800 1200">
<defs>
  <clipPath id="clip670">
    <rect x="0" y="0" width="4800" height="1200"/>
  </clipPath>
</defs>
<path clip-path="url(#clip670)" d="M0 1200 L4800 1200 L4800 0 L0 0  Z" fill="#ffffff" fill-rule="evenodd" fill-opacity="1"/>
<defs>
  <clipPath id="clip671">
    <rect x="960" y="0" width="3361" height="1200"/>
  </clipPath>
</defs>
<path clip-path="url(#clip670)" d="M467.969 849.455 L4752.76 849.455 L4752.76 47.2441 L467.969 47.2441  Z" fill="#ffffff" fill-rule="evenodd" fill-opacity="1"/>
<defs>
  <clipPath id="clip672">
    <rect x="467" y="47" width="4286" height="803"/>
  </clipPath>
</defs>
<polyline clip-path="url(#clip672)" style="stroke:#000000; stroke-linecap:round; stroke-linejoin:round; stroke-width:2; stroke-opacity:0.1; fill:none" points="589.237,849.455 589.237,47.2441 "/>
<polyline clip-path="url(#clip672)" style="stroke:#000000; stroke-linecap:round; stroke-linejoin:round; stroke-width:2; stroke-opacity:0.1; fill:none" points="1397.69,849.455 1397.69,47.2441 "/>
<polyline clip-path="url(#clip672)" style="stroke:#000000; stroke-linecap:round; stroke-linejoin:round; stroke-width:2; stroke-opacity:0.1; fill:none" points="2206.14,849.455 2206.14,47.2441 "/>
<polyline clip-path="url(#clip672)" style="stroke:#000000; stroke-linecap:round; stroke-linejoin:round; stroke-width:2; stroke-opacity:0.1; fill:none" points="3014.59,849.455 3014.59,47.2441 "/>
<polyline clip-path="url(#clip672)" style="stroke:#000000; stroke-linecap:round; stroke-linejoin:round; stroke-width:2; stroke-opacity:0.1; fill:none" points="3823.04,849.455 3823.04,47.2441 "/>
<polyline clip-path="url(#clip672)" style="stroke:#000000; stroke-linecap:round; stroke-linejoin:round; stroke-width:2; stroke-opacity:0.1; fill:none" points="4631.49,849.455 4631.49,47.2441 "/>
<polyline clip-path="url(#clip672)" style="stroke:#000000; stroke-linecap:round; stroke-linejoin:round; stroke-width:2; stroke-opacity:0.1; fill:none" points="467.969,809.335 4752.76,809.335 "/>
<polyline clip-path="url(#clip672)" style="stroke:#000000; stroke-linecap:round; stroke-linejoin:round; stroke-width:2; stroke-opacity:0.1; fill:none" points="467.969,677.155 4752.76,677.155 "/>
<polyline clip-path="url(#clip672)" style="stroke:#000000; stroke-linecap:round; stroke-linejoin:round; stroke-width:2; stroke-opacity:0.1; fill:none" points="467.969,544.974 4752.76,544.974 "/>
<polyline clip-path="url(#clip672)" style="stroke:#000000; stroke-linecap:round; stroke-linejoin:round; stroke-width:2; stroke-opacity:0.1; fill:none" points="467.969,412.794 4752.76,412.794 "/>
<polyline clip-path="url(#clip672)" style="stroke:#000000; stroke-linecap:round; stroke-linejoin:round; stroke-width:2; stroke-opacity:0.1; fill:none" points="467.969,280.614 4752.76,280.614 "/>
<polyline clip-path="url(#clip672)" style="stroke:#000000; stroke-linecap:round; stroke-linejoin:round; stroke-width:2; stroke-opacity:0.1; fill:none" points="467.969,148.433 4752.76,148.433 "/>
<polyline clip-path="url(#clip670)" style="stroke:#000000; stroke-linecap:round; stroke-linejoin:round; stroke-width:4; stroke-opacity:1; fill:none" points="467.969,849.455 4752.76,849.455 "/>
<polyline clip-path="url(#clip670)" style="stroke:#000000; stroke-linecap:round; stroke-linejoin:round; stroke-width:4; stroke-opacity:1; fill:none" points="589.237,849.455 589.237,830.558 "/>
<polyline clip-path="url(#clip670)" style="stroke:#000000; stroke-linecap:round; stroke-linejoin:round; stroke-width:4; stroke-opacity:1; fill:none" points="1397.69,849.455 1397.69,830.558 "/>
<polyline clip-path="url(#clip670)" style="stroke:#000000; stroke-linecap:round; stroke-linejoin:round; stroke-width:4; stroke-opacity:1; fill:none" points="2206.14,849.455 2206.14,830.558 "/>
<polyline clip-path="url(#clip670)" style="stroke:#000000; stroke-linecap:round; stroke-linejoin:round; stroke-width:4; stroke-opacity:1; fill:none" points="3014.59,849.455 3014.59,830.558 "/>
<polyline clip-path="url(#clip670)" style="stroke:#000000; stroke-linecap:round; stroke-linejoin:round; stroke-width:4; stroke-opacity:1; fill:none" points="3823.04,849.455 3823.04,830.558 "/>
<polyline clip-path="url(#clip670)" style="stroke:#000000; stroke-linecap:round; stroke-linejoin:round; stroke-width:4; stroke-opacity:1; fill:none" points="4631.49,849.455 4631.49,830.558 "/>
<path clip-path="url(#clip670)" d="M589.237 911.293 Q582.015 911.293 578.357 918.422 Q574.746 925.506 574.746 939.765 Q574.746 953.978 578.357 961.107 Q582.015 968.191 589.237 968.191 Q596.506 968.191 600.117 961.107 Q603.774 953.978 603.774 939.765 Q603.774 925.506 600.117 918.422 Q596.506 911.293 589.237 911.293 M589.237 903.885 Q600.857 903.885 606.968 913.098 Q613.126 922.265 613.126 939.765 Q613.126 957.218 606.968 966.431 Q600.857 975.598 589.237 975.598 Q577.617 975.598 571.459 966.431 Q565.348 957.218 565.348 939.765 Q565.348 922.265 571.459 913.098 Q577.617 903.885 589.237 903.885 Z" fill="#000000" fill-rule="nonzero" fill-opacity="1" /><path clip-path="url(#clip670)" d="M1386.99 966.385 L1419.63 966.385 L1419.63 974.255 L1375.74 974.255 L1375.74 966.385 Q1381.07 960.876 1390.23 951.617 Q1399.45 942.311 1401.81 939.626 Q1406.3 934.58 1408.06 931.108 Q1409.86 927.589 1409.86 924.209 Q1409.86 918.7 1405.97 915.228 Q1402.13 911.756 1395.93 911.756 Q1391.53 911.756 1386.62 913.284 Q1381.76 914.811 1376.21 917.913 L1376.21 908.469 Q1381.85 906.2 1386.76 905.043 Q1391.67 903.885 1395.74 903.885 Q1406.48 903.885 1412.87 909.256 Q1419.26 914.626 1419.26 923.608 Q1419.26 927.867 1417.64 931.709 Q1416.07 935.506 1411.85 940.691 Q1410.7 942.033 1404.49 948.469 Q1398.29 954.857 1386.99 966.385 Z" fill="#000000" fill-rule="nonzero" fill-opacity="1" /><path clip-path="url(#clip670)" d="M2212.16 913.284 L2188.55 950.181 L2212.16 950.181 L2212.16 913.284 M2209.7 905.135 L2221.46 905.135 L2221.46 950.181 L2231.32 950.181 L2231.32 957.959 L2221.46 957.959 L2221.46 974.255 L2212.16 974.255 L2212.16 957.959 L2180.95 957.959 L2180.95 948.931 L2209.7 905.135 Z" fill="#000000" fill-rule="nonzero" fill-opacity="1" /><path clip-path="url(#clip670)" d="M3015.4 935.969 Q3009.1 935.969 3005.4 940.274 Q3001.74 944.58 3001.74 952.08 Q3001.74 959.533 3005.4 963.885 Q3009.1 968.191 3015.4 968.191 Q3021.69 968.191 3025.35 963.885 Q3029.06 959.533 3029.06 952.08 Q3029.06 944.58 3025.35 940.274 Q3021.69 935.969 3015.4 935.969 M3033.96 906.663 L3033.96 915.182 Q3030.44 913.515 3026.83 912.635 Q3023.27 911.756 3019.75 911.756 Q3010.49 911.756 3005.58 918.006 Q3000.72 924.256 3000.03 936.895 Q3002.76 932.867 3006.88 930.737 Q3011 928.561 3015.95 928.561 Q3026.37 928.561 3032.39 934.904 Q3038.45 941.2 3038.45 952.08 Q3038.45 962.728 3032.16 969.163 Q3025.86 975.598 3015.4 975.598 Q3003.41 975.598 2997.06 966.431 Q2990.72 957.218 2990.72 939.765 Q2990.72 923.376 2998.5 913.654 Q3006.28 903.885 3019.38 903.885 Q3022.9 903.885 3026.46 904.58 Q3030.07 905.274 3033.96 906.663 Z" fill="#000000" fill-rule="nonzero" fill-opacity="1" /><path clip-path="url(#clip670)" d="M3823.04 941.432 Q3816.37 941.432 3812.53 944.996 Q3808.73 948.561 3808.73 954.811 Q3808.73 961.061 3812.53 964.626 Q3816.37 968.191 3823.04 968.191 Q3829.7 968.191 3833.55 964.626 Q3837.39 961.015 3837.39 954.811 Q3837.39 948.561 3833.55 944.996 Q3829.75 941.432 3823.04 941.432 M3813.69 937.45 Q3807.67 935.969 3804.29 931.848 Q3800.95 927.728 3800.95 921.802 Q3800.95 913.515 3806.83 908.7 Q3812.76 903.885 3823.04 903.885 Q3833.36 903.885 3839.24 908.7 Q3845.12 913.515 3845.12 921.802 Q3845.12 927.728 3841.74 931.848 Q3838.41 935.969 3832.44 937.45 Q3839.2 939.024 3842.95 943.607 Q3846.74 948.191 3846.74 954.811 Q3846.74 964.857 3840.58 970.228 Q3834.47 975.598 3823.04 975.598 Q3811.6 975.598 3805.45 970.228 Q3799.33 964.857 3799.33 954.811 Q3799.33 948.191 3803.13 943.607 Q3806.93 939.024 3813.69 937.45 M3810.26 922.682 Q3810.26 928.052 3813.59 931.061 Q3816.97 934.07 3823.04 934.07 Q3829.06 934.07 3832.44 931.061 Q3835.86 928.052 3835.86 922.682 Q3835.86 917.311 3832.44 914.302 Q3829.06 911.293 3823.04 911.293 Q3816.97 911.293 3813.59 914.302 Q3810.26 917.311 3810.26 922.682 Z" fill="#000000" fill-rule="nonzero" fill-opacity="1" /><path clip-path="url(#clip670)" d="M4580.86 966.385 L4596.14 966.385 L4596.14 913.654 L4579.52 916.987 L4579.52 908.469 L4596.05 905.135 L4605.4 905.135 L4605.4 966.385 L4620.68 966.385 L4620.68 974.255 L4580.86 974.255 L4580.86 966.385 Z" fill="#000000" fill-rule="nonzero" fill-opacity="1" /><path clip-path="url(#clip670)" d="M4659.57 911.293 Q4652.34 911.293 4648.69 918.422 Q4645.08 925.506 4645.08 939.765 Q4645.08 953.978 4648.69 961.107 Q4652.34 968.191 4659.57 968.191 Q4666.84 968.191 4670.45 961.107 Q4674.1 953.978 4674.1 939.765 Q4674.1 925.506 4670.45 918.422 Q4666.84 911.293 4659.57 911.293 M4659.57 903.885 Q4671.19 903.885 4677.3 913.098 Q4683.46 922.265 4683.46 939.765 Q4683.46 957.218 4677.3 966.431 Q4671.19 975.598 4659.57 975.598 Q4647.95 975.598 4641.79 966.431 Q4635.68 957.218 4635.68 939.765 Q4635.68 922.265 4641.79 913.098 Q4647.95 903.885 4659.57 903.885 Z" fill="#000000" fill-rule="nonzero" fill-opacity="1" /><path clip-path="url(#clip670)" d="M2327.6 1040.69 L2393.38 1040.69 L2393.38 1049.54 L2365.78 1049.54 L2365.78 1118.45 L2355.21 1118.45 L2355.21 1049.54 L2327.6 1049.54 L2327.6 1040.69 Z" fill="#000000" fill-rule="nonzero" fill-opacity="1" /><path clip-path="url(#clip670)" d="M2399.84 1060.11 L2409.43 1060.11 L2409.43 1118.45 L2399.84 1118.45 L2399.84 1060.11 M2399.84 1037.41 L2409.43 1037.41 L2409.43 1049.54 L2399.84 1049.54 L2399.84 1037.41 Z" fill="#000000" fill-rule="nonzero" fill-opacity="1" /><path clip-path="url(#clip670)" d="M2474.89 1071.31 Q2478.49 1064.85 2483.49 1061.78 Q2488.49 1058.71 2495.26 1058.71 Q2504.37 1058.71 2509.32 1065.11 Q2514.27 1071.47 2514.27 1083.24 L2514.27 1118.45 L2504.63 1118.45 L2504.63 1083.55 Q2504.63 1075.17 2501.67 1071.1 Q2498.7 1067.04 2492.6 1067.04 Q2485.16 1067.04 2480.83 1071.99 Q2476.51 1076.94 2476.51 1085.48 L2476.51 1118.45 L2466.87 1118.45 L2466.87 1083.55 Q2466.87 1075.11 2463.91 1071.1 Q2460.94 1067.04 2454.74 1067.04 Q2447.39 1067.04 2443.07 1072.04 Q2438.75 1076.99 2438.75 1085.48 L2438.75 1118.45 L2429.11 1118.45 L2429.11 1060.11 L2438.75 1060.11 L2438.75 1069.18 Q2442.03 1063.81 2446.61 1061.26 Q2451.2 1058.71 2457.5 1058.71 Q2463.85 1058.71 2468.28 1061.94 Q2472.76 1065.17 2474.89 1071.31 Z" fill="#000000" fill-rule="nonzero" fill-opacity="1" /><path clip-path="url(#clip670)" d="M2583.28 1086.89 L2583.28 1091.57 L2539.22 1091.57 Q2539.84 1101.47 2545.15 1106.68 Q2550.52 1111.83 2560.05 1111.83 Q2565.57 1111.83 2570.73 1110.48 Q2575.94 1109.12 2581.04 1106.42 L2581.04 1115.48 Q2575.88 1117.67 2570.47 1118.81 Q2565.05 1119.96 2559.48 1119.96 Q2545.52 1119.96 2537.34 1111.83 Q2529.22 1103.71 2529.22 1089.85 Q2529.22 1075.53 2536.93 1067.15 Q2544.69 1058.71 2557.81 1058.71 Q2569.58 1058.71 2576.4 1066.31 Q2583.28 1073.86 2583.28 1086.89 M2573.7 1084.07 Q2573.59 1076.21 2569.27 1071.52 Q2565 1066.83 2557.92 1066.83 Q2549.89 1066.83 2545.05 1071.36 Q2540.26 1075.9 2539.53 1084.12 L2573.7 1084.07 Z" fill="#000000" fill-rule="nonzero" fill-opacity="1" /><path clip-path="url(#clip670)" d="M2655.94 1037.51 Q2648.96 1049.49 2645.57 1061.21 Q2642.19 1072.93 2642.19 1084.96 Q2642.19 1096.99 2645.57 1108.81 Q2649.01 1120.58 2655.94 1132.51 L2647.6 1132.51 Q2639.79 1120.27 2635.88 1108.45 Q2632.03 1096.62 2632.03 1084.96 Q2632.03 1073.34 2635.88 1061.57 Q2639.74 1049.8 2647.6 1037.51 L2655.94 1037.51 Z" fill="#000000" fill-rule="nonzero" fill-opacity="1" /><path clip-path="url(#clip670)" d="M2712.91 1068.97 L2712.91 1037.41 L2722.5 1037.41 L2722.5 1118.45 L2712.91 1118.45 L2712.91 1109.7 Q2709.89 1114.91 2705.26 1117.46 Q2700.67 1119.96 2694.22 1119.96 Q2683.64 1119.96 2676.98 1111.52 Q2670.36 1103.08 2670.36 1089.33 Q2670.36 1075.58 2676.98 1067.15 Q2683.64 1058.71 2694.22 1058.71 Q2700.67 1058.71 2705.26 1061.26 Q2709.89 1063.76 2712.91 1068.97 M2680.26 1089.33 Q2680.26 1099.91 2684.58 1105.95 Q2688.96 1111.94 2696.56 1111.94 Q2704.16 1111.94 2708.54 1105.95 Q2712.91 1099.91 2712.91 1089.33 Q2712.91 1078.76 2708.54 1072.77 Q2704.16 1066.73 2696.56 1066.73 Q2688.96 1066.73 2684.58 1072.77 Q2680.26 1078.76 2680.26 1089.33 Z" fill="#000000" fill-rule="nonzero" fill-opacity="1" /><path clip-path="url(#clip670)" d="M2768.75 1089.12 Q2757.13 1089.12 2752.65 1091.78 Q2748.17 1094.44 2748.17 1100.84 Q2748.17 1105.95 2751.51 1108.97 Q2754.89 1111.94 2760.67 1111.94 Q2768.64 1111.94 2773.43 1106.31 Q2778.28 1100.64 2778.28 1091.26 L2778.28 1089.12 L2768.75 1089.12 M2787.86 1085.17 L2787.86 1118.45 L2778.28 1118.45 L2778.28 1109.59 Q2775 1114.91 2770.1 1117.46 Q2765.21 1119.96 2758.12 1119.96 Q2749.16 1119.96 2743.85 1114.96 Q2738.59 1109.91 2738.59 1101.47 Q2738.59 1091.62 2745.15 1086.62 Q2751.77 1081.62 2764.84 1081.62 L2778.28 1081.62 L2778.28 1080.69 Q2778.28 1074.07 2773.9 1070.48 Q2769.58 1066.83 2761.72 1066.83 Q2756.72 1066.83 2751.98 1068.03 Q2747.24 1069.23 2742.86 1071.62 L2742.86 1062.77 Q2748.12 1060.74 2753.07 1059.75 Q2758.02 1058.71 2762.71 1058.71 Q2775.36 1058.71 2781.61 1065.27 Q2787.86 1071.83 2787.86 1085.17 Z" fill="#000000" fill-rule="nonzero" fill-opacity="1" /><path clip-path="url(#clip670)" d="M2831.87 1123.86 Q2827.81 1134.28 2823.96 1137.46 Q2820.1 1140.63 2813.64 1140.63 L2805.99 1140.63 L2805.99 1132.61 L2811.61 1132.61 Q2815.57 1132.61 2817.76 1130.74 Q2819.94 1128.86 2822.6 1121.88 L2824.32 1117.51 L2800.73 1060.11 L2810.88 1060.11 L2829.11 1105.74 L2847.34 1060.11 L2857.5 1060.11 L2831.87 1123.86 Z" fill="#000000" fill-rule="nonzero" fill-opacity="1" /><path clip-path="url(#clip670)" d="M2869.22 1037.51 L2877.55 1037.51 Q2885.36 1049.8 2889.22 1061.57 Q2893.12 1073.34 2893.12 1084.96 Q2893.12 1096.62 2889.22 1108.45 Q2885.36 1120.27 2877.55 1132.51 L2869.22 1132.51 Q2876.14 1120.58 2879.53 1108.81 Q2882.97 1096.99 2882.97 1084.96 Q2882.97 1072.93 2879.53 1061.21 Q2876.14 1049.49 2869.22 1037.51 Z" fill="#000000" fill-rule="nonzero" fill-opacity="1" /><polyline clip-path="url(#clip670)" style="stroke:#000000; stroke-linecap:round; stroke-linejoin:round; stroke-width:4; stroke-opacity:1; fill:none" points="467.969,849.455 467.969,47.2441 "/>
<polyline clip-path="url(#clip670)" style="stroke:#000000; stroke-linecap:round; stroke-linejoin:round; stroke-width:4; stroke-opacity:1; fill:none" points="467.969,809.335 486.867,809.335 "/>
<polyline clip-path="url(#clip670)" style="stroke:#000000; stroke-linecap:round; stroke-linejoin:round; stroke-width:4; stroke-opacity:1; fill:none" points="467.969,677.155 486.867,677.155 "/>
<polyline clip-path="url(#clip670)" style="stroke:#000000; stroke-linecap:round; stroke-linejoin:round; stroke-width:4; stroke-opacity:1; fill:none" points="467.969,544.974 486.867,544.974 "/>
<polyline clip-path="url(#clip670)" style="stroke:#000000; stroke-linecap:round; stroke-linejoin:round; stroke-width:4; stroke-opacity:1; fill:none" points="467.969,412.794 486.867,412.794 "/>
<polyline clip-path="url(#clip670)" style="stroke:#000000; stroke-linecap:round; stroke-linejoin:round; stroke-width:4; stroke-opacity:1; fill:none" points="467.969,280.614 486.867,280.614 "/>
<polyline clip-path="url(#clip670)" style="stroke:#000000; stroke-linecap:round; stroke-linejoin:round; stroke-width:4; stroke-opacity:1; fill:none" points="467.969,148.433 486.867,148.433 "/>
<path clip-path="url(#clip670)" d="M212.22 810.238 L271.572 810.238 L271.572 818.108 L212.22 818.108 L212.22 810.238 Z" fill="#000000" fill-rule="nonzero" fill-opacity="1" /><path clip-path="url(#clip670)" d="M317.451 782.923 L293.84 819.821 L317.451 819.821 L317.451 782.923 M314.998 774.775 L326.757 774.775 L326.757 819.821 L336.618 819.821 L336.618 827.599 L326.757 827.599 L326.757 843.895 L317.451 843.895 L317.451 827.599 L286.248 827.599 L286.248 818.571 L314.998 774.775 Z" fill="#000000" fill-rule="nonzero" fill-opacity="1" /><path clip-path="url(#clip670)" d="M372.081 780.932 Q364.859 780.932 361.201 788.062 Q357.59 795.145 357.59 809.405 Q357.59 823.617 361.201 830.747 Q364.859 837.83 372.081 837.83 Q379.349 837.83 382.96 830.747 Q386.618 823.617 386.618 809.405 Q386.618 795.145 382.96 788.062 Q379.349 780.932 372.081 780.932 M372.081 773.525 Q383.701 773.525 389.812 782.738 Q395.969 791.905 395.969 809.405 Q395.969 826.858 389.812 836.071 Q383.701 845.238 372.081 845.238 Q360.46 845.238 354.303 836.071 Q348.192 826.858 348.192 809.405 Q348.192 791.905 354.303 782.738 Q360.46 773.525 372.081 773.525 Z" fill="#000000" fill-rule="nonzero" fill-opacity="1" /><path clip-path="url(#clip670)" d="M212.22 678.057 L271.572 678.057 L271.572 685.928 L212.22 685.928 L212.22 678.057 Z" fill="#000000" fill-rule="nonzero" fill-opacity="1" /><path clip-path="url(#clip670)" d="M320.09 674.446 Q326.803 675.882 330.553 680.419 Q334.349 684.956 334.349 691.622 Q334.349 701.854 327.312 707.455 Q320.275 713.057 307.313 713.057 Q302.961 713.057 298.331 712.178 Q293.748 711.344 288.84 709.631 L288.84 700.604 Q292.729 702.872 297.359 704.03 Q301.989 705.187 307.035 705.187 Q315.831 705.187 320.414 701.715 Q325.044 698.243 325.044 691.622 Q325.044 685.511 320.738 682.085 Q316.479 678.613 308.84 678.613 L300.785 678.613 L300.785 670.928 L309.211 670.928 Q316.109 670.928 319.766 668.196 Q323.424 665.419 323.424 660.233 Q323.424 654.909 319.627 652.085 Q315.877 649.215 308.84 649.215 Q304.998 649.215 300.6 650.048 Q296.202 650.882 290.924 652.641 L290.924 644.308 Q296.248 642.826 300.877 642.085 Q305.553 641.345 309.674 641.345 Q320.322 641.345 326.525 646.206 Q332.729 651.021 332.729 659.261 Q332.729 665.002 329.442 668.983 Q326.155 672.919 320.09 674.446 Z" fill="#000000" fill-rule="nonzero" fill-opacity="1" /><path clip-path="url(#clip670)" d="M372.081 648.752 Q364.859 648.752 361.201 655.882 Q357.59 662.965 357.59 677.224 Q357.59 691.437 361.201 698.567 Q364.859 705.65 372.081 705.65 Q379.349 705.65 382.96 698.567 Q386.618 691.437 386.618 677.224 Q386.618 662.965 382.96 655.882 Q379.349 648.752 372.081 648.752 M372.081 641.345 Q383.701 641.345 389.812 650.558 Q395.969 659.724 395.969 677.224 Q395.969 694.678 389.812 703.891 Q383.701 713.057 372.081 713.057 Q360.46 713.057 354.303 703.891 Q348.192 694.678 348.192 677.224 Q348.192 659.724 354.303 650.558 Q360.46 641.345 372.081 641.345 Z" fill="#000000" fill-rule="nonzero" fill-opacity="1" /><path clip-path="url(#clip670)" d="M212.22 545.877 L271.572 545.877 L271.572 553.747 L212.22 553.747 L212.22 545.877 Z" fill="#000000" fill-rule="nonzero" fill-opacity="1" /><path clip-path="url(#clip670)" d="M299.813 571.664 L332.451 571.664 L332.451 579.534 L288.563 579.534 L288.563 571.664 Q293.887 566.155 303.053 556.896 Q312.266 547.59 314.627 544.905 Q319.118 539.859 320.877 536.386 Q322.683 532.868 322.683 529.488 Q322.683 523.979 318.794 520.507 Q314.951 517.035 308.748 517.035 Q304.35 517.035 299.442 518.562 Q294.581 520.09 289.026 523.192 L289.026 513.748 Q294.674 511.479 299.581 510.322 Q304.488 509.164 308.563 509.164 Q319.303 509.164 325.692 514.535 Q332.081 519.905 332.081 528.886 Q332.081 533.146 330.461 536.988 Q328.887 540.785 324.674 545.97 Q323.516 547.312 317.313 553.747 Q311.109 560.136 299.813 571.664 Z" fill="#000000" fill-rule="nonzero" fill-opacity="1" /><path clip-path="url(#clip670)" d="M372.081 516.572 Q364.859 516.572 361.201 523.701 Q357.59 530.785 357.59 545.044 Q357.59 559.257 361.201 566.386 Q364.859 573.47 372.081 573.47 Q379.349 573.47 382.96 566.386 Q386.618 559.257 386.618 545.044 Q386.618 530.785 382.96 523.701 Q379.349 516.572 372.081 516.572 M372.081 509.164 Q383.701 509.164 389.812 518.377 Q395.969 527.544 395.969 545.044 Q395.969 562.497 389.812 571.71 Q383.701 580.877 372.081 580.877 Q360.46 580.877 354.303 571.71 Q348.192 562.497 348.192 545.044 Q348.192 527.544 354.303 518.377 Q360.46 509.164 372.081 509.164 Z" fill="#000000" fill-rule="nonzero" fill-opacity="1" /><path clip-path="url(#clip670)" d="M212.22 413.697 L271.572 413.697 L271.572 421.567 L212.22 421.567 L212.22 413.697 Z" fill="#000000" fill-rule="nonzero" fill-opacity="1" /><path clip-path="url(#clip670)" d="M293.377 439.484 L308.655 439.484 L308.655 386.752 L292.035 390.086 L292.035 381.567 L308.563 378.234 L317.914 378.234 L317.914 439.484 L333.192 439.484 L333.192 447.354 L293.377 447.354 L293.377 439.484 Z" fill="#000000" fill-rule="nonzero" fill-opacity="1" /><path clip-path="url(#clip670)" d="M372.081 384.391 Q364.859 384.391 361.201 391.521 Q357.59 398.604 357.59 412.863 Q357.59 427.076 361.201 434.206 Q364.859 441.289 372.081 441.289 Q379.349 441.289 382.96 434.206 Q386.618 427.076 386.618 412.863 Q386.618 398.604 382.96 391.521 Q379.349 384.391 372.081 384.391 M372.081 376.984 Q383.701 376.984 389.812 386.197 Q395.969 395.363 395.969 412.863 Q395.969 430.317 389.812 439.53 Q383.701 448.697 372.081 448.697 Q360.46 448.697 354.303 439.53 Q348.192 430.317 348.192 412.863 Q348.192 395.363 354.303 386.197 Q360.46 376.984 372.081 376.984 Z" fill="#000000" fill-rule="nonzero" fill-opacity="1" /><path clip-path="url(#clip670)" d="M372.081 252.211 Q364.859 252.211 361.201 259.341 Q357.59 266.424 357.59 280.683 Q357.59 294.896 361.201 302.025 Q364.859 309.109 372.081 309.109 Q379.349 309.109 382.96 302.025 Q386.618 294.896 386.618 280.683 Q386.618 266.424 382.96 259.341 Q379.349 252.211 372.081 252.211 M372.081 244.804 Q383.701 244.804 389.812 254.016 Q395.969 263.183 395.969 280.683 Q395.969 298.137 389.812 307.35 Q383.701 316.516 372.081 316.516 Q360.46 316.516 354.303 307.35 Q348.192 298.137 348.192 280.683 Q348.192 263.183 354.303 254.016 Q360.46 244.804 372.081 244.804 Z" fill="#000000" fill-rule="nonzero" fill-opacity="1" /><path clip-path="url(#clip670)" d="M293.377 175.123 L308.655 175.123 L308.655 122.392 L292.035 125.725 L292.035 117.207 L308.563 113.873 L317.914 113.873 L317.914 175.123 L333.192 175.123 L333.192 182.993 L293.377 182.993 L293.377 175.123 Z" fill="#000000" fill-rule="nonzero" fill-opacity="1" /><path clip-path="url(#clip670)" d="M372.081 120.031 Q364.859 120.031 361.201 127.16 Q357.59 134.243 357.59 148.503 Q357.59 162.716 361.201 169.845 Q364.859 176.928 372.081 176.928 Q379.349 176.928 382.96 169.845 Q386.618 162.716 386.618 148.503 Q386.618 134.243 382.96 127.16 Q379.349 120.031 372.081 120.031 M372.081 112.623 Q383.701 112.623 389.812 121.836 Q395.969 131.003 395.969 148.503 Q395.969 165.956 389.812 175.169 Q383.701 184.336 372.081 184.336 Q360.46 184.336 354.303 175.169 Q348.192 165.956 348.192 148.503 Q348.192 131.003 354.303 121.836 Q360.46 112.623 372.081 112.623 Z" fill="#000000" fill-rule="nonzero" fill-opacity="1" /><path clip-path="url(#clip672)" d="M589.237 257.97 L606.08 306.464 L622.922 348.748 L639.765 382.724 L656.608 412.771 L673.451 441.644 L690.293 447.519 L707.136 433.447 L723.979 391.554 L740.821 364.484 L757.664 355.531 L774.507 357.626 L791.35 367.232 L808.192 382.469 L825.035 399.058 L841.878 414.466 L858.72 425.412 L875.563 436.172 L892.406 444.829 L909.249 460.591 L926.091 478.467 L942.934 496.612 L959.777 509.827 L976.619 519.269 L993.462 529.275 L1010.3 549.418 L1027.15 569.363 L1043.99 587.749 L1060.83 601.79 L1077.68 610.377 L1094.52 604.735 L1111.36 589.011 L1128.2 557.34 L1145.05 524.525 L1161.89 509.565 L1178.73 506.59 L1195.57 510.597 L1212.42 520.486 L1229.26 531.781 L1246.1 541.843 L1262.95 547.448 L1279.79 552.915 L1296.63 557.12 L1313.47 568.184 L1330.32 581.986 L1347.16 596.877 L1364 607.152 L1380.84 613.95 L1397.69 621.649 L1414.53 639.982 L1431.37 658.533 L1448.22 675.816 L1465.06 688.972 L1481.9 696.922 L1498.74 690.729 L1515.59 674.04 L1532.43 640.934 L1549.27 605.714 L1566.11 588.096 L1582.96 581.652 L1599.8 582.742 L1616.64 589.8 L1633.49 598.208 L1650.33 605.491 L1667.17 608.383 L1684.01 610.451 L1700.86 612.497 L1717.7 621.076 L1734.54 633.22 L1751.38 646.697 L1768.23 655.719 L1785.07 661.264 L1801.91 667.939 L1818.76 685.5 L1835.6 703.468 L1852.44 720.302 L1869.28 733.188 L1886.13 741.331 L1902.97 734.985 L1919.81 717.995 L1936.65 684.261 L1953.5 648.077 L1970.34 629.013 L1987.18 621.205 L2004.02 621.02 L2020.87 626.443 L2037.71 633.462 L2054.55 639.278 L2071.4 640.765 L2088.24 641.49 L2105.08 642.226 L2121.92 649.694 L2138.77 660.824 L2155.61 673.567 L2172.45 682.067 L2189.29 686.604 L2206.14 692.682 L2222.98 709.774 L2239.82 727.412 L2256.67 744.034 L2273.51 756.94 L2290.35 764.938 L2307.19 758.627 L2324.04 741.559 L2340.88 707.68 L2357.72 671.234 L2374.56 651.739 L2391.41 643.223 L2408.25 642.268 L2425.09 647.063 L2441.94 653.415 L2458.78 658.576 L2475.62 659.379 L2492.46 659.804 L2509.31 659.577 L2526.15 666.519 L2542.99 677.128 L2559.83 689.702 L2576.68 697.335 L2593.52 702.311 L2610.36 707.946 L2627.21 724.807 L2644.05 742.349 L2660.89 759.2 L2677.73 772.195 L2694.58 781.238 L2711.42 776.462 L2728.26 760.612 L2745.1 727.613 L2761.95 691.407 L2778.79 671.297 L2795.63 661.756 L2812.48 659.391 L2829.32 662.796 L2846.16 667.922 L2863 671.989 L2879.85 671.571 L2896.69 671.111 L2913.53 670.604 L2930.37 677.365 L2947.22 687.85 L2964.06 700.234 L2980.9 708.56 L2997.75 713.284 L3014.59 719.081 L3031.43 736.954 L3048.27 755.819 L3065.12 774.039 L3081.96 788.686 L3098.8 798.337 L3115.64 793.515 L3132.49 777.66 L3149.33 744.551 L3166.17 708.118 L3183.01 687.726 L3199.86 677.843 L3216.7 675.116 L3233.54 678.215 L3250.39 682.912 L3267.23 686.437 L3284.07 685.552 L3300.91 684.109 L3317.76 682.98 L3334.6 688.999 L3351.44 699 L3368.28 711.16 L3385.13 719.165 L3401.97 724.203 L3418.81 730.684 L3435.66 748.5 L3452.5 767.338 L3469.34 785.594 L3486.18 800.277 L3503.03 809.968 L3519.87 805.226 L3536.71 789.358 L3553.55 756.177 L3570.4 719.571 L3587.24 698.948 L3604.08 688.817 L3620.93 685.854 L3637.77 688.695 L3654.61 693.169 L3671.45 696.48 L3688.3 695.356 L3705.14 693.693 L3721.98 692.334 L3738.82 698.165 L3755.67 708.024 L3772.51 720.145 L3789.35 727.988 L3806.2 732.931 L3823.04 739.402 L3839.88 757.225 L3856.72 776.091 L3873.57 794.355 L3890.41 809.061 L3907.25 818.78 L3924.09 814.008 L3940.94 798.131 L3957.78 764.955 L3974.62 728.246 L3991.47 707.486 L4008.31 697.2 L4025.15 694.113 L4041.99 696.809 L4058.84 701.132 L4075.68 704.357 L4092.52 703.079 L4109.36 701.326 L4126.21 699.941 L4143.05 705.76 L4159.89 715.624 L4176.74 727.708 L4193.58 735.665 L4210.42 740.687 L4227.26 747.169 L4244.11 765.028 L4260.95 783.928 L4277.79 802.249 L4294.63 817.005 L4311.48 826.751 L4328.32 822.061 L4345.16 806.216 L4362 772.974 L4378.85 736.22 L4395.69 715.343 L4412.53 704.919 L4429.38 701.68 L4446.22 704.228 L4463.06 708.401 L4479.9 711.429 L4496.75 709.93 L4513.59 707.888 L4530.43 706.195 L4547.27 711.659 L4564.12 721.233 L4580.96 733.095 L4597.8 740.897 L4614.65 745.8 L4631.49 752.202 L4631.49 90.1762 L4614.65 101.444 L4597.8 123.485 L4580.96 145.144 L4564.12 157.485 L4547.27 162.848 L4530.43 162.336 L4513.59 165.571 L4496.75 161.725 L4479.9 148.207 L4463.06 128.525 L4446.22 109.484 L4429.38 97.0015 L4412.53 96.0031 L4395.69 106.631 L4378.85 126.442 L4362 160.909 L4345.16 193.968 L4328.32 209.407 L4311.48 205.129 L4294.63 181.998 L4277.79 153.839 L4260.95 125.051 L4244.11 101.377 L4227.26 89.8894 L4210.42 101.135 L4193.58 123.126 L4176.74 144.829 L4159.89 157.715 L4143.05 161.843 L4126.21 161.303 L4109.36 164.605 L4092.52 160.902 L4075.68 147.546 L4058.84 127.899 L4041.99 108.755 L4025.15 96.6054 L4008.31 95.9067 L3991.47 106 L3974.62 126.155 L3957.78 161.043 L3940.94 193.007 L3924.09 208.497 L3907.25 203.842 L3890.41 180.746 L3873.57 152.622 L3856.72 123.676 L3839.88 99.7232 L3823.04 88.3382 L3806.2 99.6373 L3789.35 121.707 L3772.51 143.404 L3755.67 156.588 L3738.82 159.033 L3721.98 159.455 L3705.14 162.829 L3688.3 159.41 L3671.45 146.21 L3654.61 127.078 L3637.77 107.812 L3620.93 95.5223 L3604.08 94.9843 L3587.24 104.71 L3570.4 125.152 L3553.55 159.4 L3536.71 191.419 L3519.87 207.19 L3503.03 202.683 L3486.18 179.639 L3469.34 151.559 L3452.5 122.821 L3435.66 99.0969 L3418.81 87.6878 L3401.97 99.034 L3385.13 121.102 L3368.28 141.205 L3351.44 153.276 L3334.6 154.873 L3317.76 156.893 L3300.91 160.132 L3284.07 157.987 L3267.23 144.531 L3250.39 125.991 L3233.54 106.843 L3216.7 94.6026 L3199.86 94.2887 L3183.01 103.999 L3166.17 123.764 L3149.33 157.882 L3132.49 189.994 L3115.64 205.725 L3098.8 200.858 L3081.96 177.986 L3065.12 149.953 L3048.27 120.96 L3031.43 97.0549 L3014.59 85.695 L2997.75 97.0303 L2980.9 119.094 L2964.06 138.803 L2947.22 148.521 L2930.37 150.051 L2913.53 151.997 L2896.69 156.897 L2879.85 155.893 L2863 142.601 L2846.16 123.918 L2829.32 105.136 L2812.48 92.7162 L2795.63 91.9782 L2778.79 101.509 L2761.95 121.749 L2745.1 155.975 L2728.26 188.018 L2711.42 201.889 L2694.58 196.824 L2677.73 175.942 L2660.89 147.967 L2644.05 118.302 L2627.21 94.4868 L2610.36 83.2071 L2593.52 94.6197 L2576.68 116.102 L2559.83 135.362 L2542.99 142.48 L2526.15 143.863 L2509.31 145.579 L2492.46 150.307 L2475.62 152.906 L2458.78 139.676 L2441.94 120.857 L2425.09 102.971 L2408.25 90.8097 L2391.41 90.2294 L2374.56 99.6754 L2357.72 119.189 L2340.88 153.192 L2324.04 185.29 L2307.19 196.752 L2290.35 191.83 L2273.51 171.23 L2256.67 144.47 L2239.82 114.723 L2222.98 90.9339 L2206.14 79.6415 L2189.29 90.9836 L2172.45 112.487 L2155.61 130.622 L2138.77 135.378 L2121.92 136.464 L2105.08 138.005 L2088.24 142.592 L2071.4 145.057 L2054.55 136.241 L2037.71 117.124 L2020.87 98.9711 L2004.02 87.8732 L1987.18 86.6094 L1970.34 95.8742 L1953.5 115.381 L1936.65 149.578 L1919.81 179.481 L1902.97 188.777 L1886.13 184.069 L1869.28 163.676 L1852.44 138.159 L1835.6 110.092 L1818.76 86.4188 L1801.91 75.2148 L1785.07 86.6426 L1768.23 106.239 L1751.38 124.435 L1734.54 126.882 L1717.7 127.962 L1700.86 129.449 L1684.01 133.953 L1667.17 136.382 L1650.33 131.916 L1633.49 112.649 L1616.64 94.2891 L1599.8 82.6893 L1582.96 82.86 L1566.11 92.0881 L1549.27 111.353 L1532.43 141.921 L1515.59 171.409 L1498.74 180.97 L1481.9 176.545 L1465.06 156.478 L1448.22 131.287 L1431.37 104.46 L1414.53 80.9841 L1397.69 69.9482 L1380.84 81.4741 L1364 101.019 L1347.16 119.566 L1330.32 122.535 L1313.47 124.071 L1296.63 125.887 L1279.79 129.302 L1262.95 131.03 L1246.1 127.271 L1229.26 107.929 L1212.42 89.3277 L1195.57 78.1581 L1178.73 78.7716 L1161.89 88.6954 L1145.05 107.813 L1128.2 141.563 L1111.36 173.092 L1094.52 183.449 L1077.68 179.84 L1060.83 160.462 L1043.99 133.517 L1027.15 105.461 L1010.3 82.6682 L993.462 72.3514 L976.619 84.6665 L959.777 107.723 L942.934 130.264 L926.091 143.35 L909.249 145.312 L892.406 143.996 L875.563 147.461 L858.72 150.616 L841.878 140.523 L825.035 125.72 L808.192 113.454 L791.35 109.951 L774.507 121.026 L757.664 142.051 L740.821 174.176 L723.979 219.993 L707.136 256.406 L690.293 271.116 L673.451 274.315 L656.608 260.719 L639.765 238.743 L622.922 216.095 L606.08 200.159 L589.237 198.445  Z" fill="#aeaeae" fill-rule="evenodd" fill-opacity="0.5"/>
<polyline clip-path="url(#clip672)" style="stroke:#aeaeae; stroke-linecap:round; stroke-linejoin:round; stroke-width:0; stroke-opacity:1; fill:none" points="589.237,251.546 606.08,260.413 622.922,271.915 639.765,284.657 656.608,296.16 673.451,304.87 690.293,304.818 707.136,297.434 723.979,279.533 740.821,259.314 757.664,247.297 774.507,240.886 791.35,239.277 808.192,242.279 825.035,247.531 841.878,252.822 858.72,255.556 875.563,256.572 892.406,255.349 909.249,254.71 926.091,253.935 942.934,252.59 959.777,248.374 976.619,243.29 993.462,241.286 1010.3,248.18 1027.15,258.711 1043.99,270.994 1060.83,282.373 1077.68,291.125 1094.52,291.243 1111.36,284.076 1128.2,266.906 1145.05,248.155 1161.89,238.172 1178.73,233.848 1195.57,234.207 1212.42,238.816 1229.26,245.344 1246.1,251.638 1262.95,255.14 1279.79,256.74 1296.63,255.96 1313.47,255.706 1330.32,255.288 1347.16,254.263 1364,250.34 1380.84,245.552 1397.69,243.818 1414.53,250.98 1431.37,261.778 1448.22,274.327 1465.06,285.961 1481.9,294.963 1498.74,295.307 1515.59,288.337 1532.43,271.261 1549.27,252.491 1566.11,242.382 1582.96,237.939 1599.8,238.16 1616.64,242.678 1633.49,249.119 1650.33,255.343 1667.17,258.783 1684.01,260.311 1700.86,259.506 1717.7,259.271 1734.54,258.86 1751.38,257.851 1768.23,253.966 1785.07,249.221 1801.91,247.55 1818.76,254.784 1835.6,265.668 1852.44,278.309 1869.28,290.041 1886.13,299.152 1902.97,299.588 1919.81,292.693 1936.65,275.612 1953.5,256.762 1970.34,246.488 1987.18,241.856 2004.02,241.894 2020.87,246.243 2037.71,252.547 2054.55,258.643 2071.4,261.98 2088.24,263.445 2105.08,262.577 2121.92,262.306 2138.77,261.875 2155.61,260.855 2172.45,256.977 2189.29,252.254 2206.14,250.606 2222.98,257.875 2239.82,268.805 2256.67,281.501 2273.51,293.303 2290.35,302.47 2307.19,302.969 2324.04,296.104 2340.88,279.044 2357.72,260.087 2374.56,249.704 2391.41,244.907 2408.25,244.8 2425.09,249.044 2441.94,255.23 2458.78,261.231 2475.62,264.49 2492.46,265.875 2509.31,264.971 2526.15,264.672 2542.99,264.223 2559.83,263.189 2576.68,259.31 2593.52,254.586 2610.36,252.952 2627.21,260.247 2644.05,271.21 2660.89,283.951 2677.73,295.791 2694.58,305.006 2711.42,305.553 2728.26,298.712 2745.1,281.655 2761.95,262.661 2778.79,252.173 2795.63,247.287 2812.48,247.063 2829.32,251.189 2846.16,257.292 2863,263.219 2879.85,266.406 2896.69,267.759 2913.53,266.819 2930.37,266.481 2947.22,266.02 2964.06,264.976 2980.9,261.099 2997.75,256.387 3014.59,254.768 3031.43,262.081 3048.27,273.07 3065.12,285.835 3081.96,297.702 3098.8,306.954 3115.64,307.531 3132.49,300.741 3149.33,283.666 3166.17,264.637 3183.01,254.072 3199.86,249.089 3216.7,248.757 3233.54,252.825 3250.39,258.866 3267.23,264.735 3284.07,267.873 3300.91,269.185 3317.76,268.213 3334.6,267.861 3351.44,267.393 3368.28,266.349 3385.13,262.475 3401.97,257.778 3418.81,256.168 3435.66,263.493 3452.5,274.497 3469.34,287.287 3486.18,299.174 3503.03,308.449 3519.87,309.053 3536.71,302.278 3553.55,285.217 3570.4,266.15 3587.24,255.521 3604.08,250.469 3620.93,250.08 3637.77,254.067 3654.61,260.057 3671.45,265.891 3688.3,268.986 3705.14,270.286 3721.98,269.297 3738.82,268.939 3755.67,268.453 3772.51,267.401 3789.35,263.526 3806.2,258.828 3823.04,257.226 3839.88,264.562 3856.72,275.58 3873.57,288.384 3890.41,300.293 3907.25,309.587 3924.09,310.209 3940.94,303.429 3957.78,286.367 3974.62,267.258 3991.47,256.595 4008.31,251.481 4025.15,251.068 4041.99,255.027 4058.84,260.98 4075.68,266.775 4092.52,269.847 4109.36,271.121 4126.21,270.119 4143.05,269.757 4159.89,269.267 4176.74,268.222 4193.58,264.35 4210.42,259.664 4227.26,258.071 4244.11,265.416 4260.95,276.444 4277.79,289.256 4294.63,301.182 4311.48,310.485 4328.32,311.119 4345.16,304.371 4362,287.298 4378.85,268.199 4395.69,257.486 4412.53,252.335 4429.38,251.877 4446.22,255.783 4463.06,261.698 4479.9,267.466 4496.75,270.52 4513.59,271.762 4530.43,270.756 4547.27,270.38 4564.12,269.89 4580.96,268.841 4597.8,264.973 4614.65,260.285 4631.49,258.695 "/>
<path clip-path="url(#clip672)" d="M589.237 239.487 L606.08 273.821 L622.922 306.697 L639.765 335.85 L656.608 364.171 L673.451 384.002 L690.293 386.998 L707.136 374.982 L723.979 340.199 L740.821 301.917 L757.664 284.122 L774.507 277.248 L791.35 281.563 L808.192 291.994 L825.035 303.062 L841.878 312.367 L858.72 316.881 L875.563 317.161 L892.406 317.27 L909.249 320.357 L926.091 324.429 L942.934 329.419 L959.777 333.587 L976.619 334.677 L993.462 339.292 L1010.3 358.614 L1027.15 378.565 L1043.99 399.02 L1060.83 417.359 L1077.68 433.699 L1094.52 431.527 L1111.36 414.523 L1128.2 379.25 L1145.05 334.68 L1161.89 315.401 L1178.73 307.403 L1195.57 309.271 L1212.42 317.425 L1229.26 326.884 L1246.1 334.821 L1262.95 336.016 L1279.79 335.903 L1296.63 333.899 L1313.47 337.087 L1330.32 342.601 L1347.16 351.402 L1364 354.944 L1380.84 357.341 L1397.69 361.19 L1414.53 376.991 L1431.37 397.652 L1448.22 417.191 L1465.06 435.043 L1481.9 450.926 L1498.74 448.853 L1515.59 432.412 L1532.43 394.375 L1549.27 352.641 L1566.11 332.164 L1582.96 325.663 L1599.8 323.931 L1616.64 328.718 L1633.49 337.176 L1650.33 346.331 L1667.17 349.276 L1684.01 348.821 L1700.86 346.195 L1717.7 347.432 L1734.54 353.089 L1751.38 362.672 L1768.23 367.106 L1785.07 369.455 L1801.91 373.815 L1818.76 388.223 L1835.6 407.325 L1852.44 426.778 L1869.28 447.939 L1886.13 461.151 L1902.97 459.101 L1919.81 443.583 L1936.65 404.632 L1953.5 365.968 L1970.34 345.949 L1987.18 339.919 L2004.02 338.047 L2020.87 342.579 L2037.71 348.583 L2054.55 355.437 L2071.4 358.648 L2088.24 358.179 L2105.08 353.047 L2121.92 357.597 L2138.77 364.401 L2155.61 372.932 L2172.45 376.845 L2189.29 376.209 L2206.14 378.352 L2222.98 394.552 L2239.82 414.703 L2256.67 437.694 L2273.51 457.346 L2290.35 469.146 L2307.19 468.3 L2324.04 453.197 L2340.88 413.681 L2357.72 375.414 L2374.56 354.509 L2391.41 348.233 L2408.25 346.322 L2425.09 352.212 L2441.94 358.516 L2458.78 364.175 L2475.62 364.127 L2492.46 364.087 L2509.31 360.499 L2526.15 364.873 L2542.99 372.777 L2559.83 377.572 L2576.68 379.809 L2593.52 385.359 L2610.36 389.971 L2627.21 406.855 L2644.05 424.924 L2660.89 445.509 L2677.73 463.778 L2694.58 474.609 L2711.42 472.745 L2728.26 457.303 L2745.1 422 L2761.95 385.621 L2778.79 364.891 L2795.63 355.687 L2812.48 352.902 L2829.32 359.89 L2846.16 364.779 L2863 370.396 L2879.85 370.582 L2896.69 368.579 L2913.53 366.18 L2930.37 369.876 L2947.22 376.228 L2964.06 380.494 L2980.9 385.686 L2997.75 392.962 L3014.59 396.476 L3031.43 413.149 L3048.27 431.619 L3065.12 451.411 L3081.96 469.531 L3098.8 480.903 L3115.64 477.851 L3132.49 462.07 L3149.33 427.536 L3166.17 391.043 L3183.01 372.138 L3199.86 361.714 L3216.7 361.257 L3233.54 365.005 L3250.39 370.691 L3267.23 374.826 L3284.07 373.888 L3300.91 372.102 L3317.76 368.896 L3334.6 373.09 L3351.44 379.261 L3368.28 386.066 L3385.13 391.428 L3401.97 396.696 L3418.81 402.399 L3435.66 418.15 L3452.5 435.723 L3469.34 454.607 L3486.18 472.704 L3503.03 484.591 L3519.87 482.461 L3536.71 466.635 L3553.55 432.054 L3570.4 395.336 L3587.24 376.834 L3604.08 365.99 L3620.93 366.636 L3637.77 369.342 L3654.61 375.486 L3671.45 379.531 L3688.3 379.587 L3705.14 375.496 L3721.98 371.273 L3738.82 375.474 L3755.67 383.103 L3772.51 390.533 L3789.35 395.771 L3806.2 399.999 L3823.04 405.238 L3839.88 420.828 L3856.72 438.146 L3873.57 457.537 L3890.41 475.857 L3907.25 487.612 L3924.09 486.028 L3940.94 472.425 L3957.78 437.548 L3974.62 399.566 L3991.47 380.466 L4008.31 369.117 L4025.15 369.445 L4041.99 372.066 L4058.84 378.171 L4075.68 384.48 L4092.52 383.827 L4109.36 378.866 L4126.21 375.456 L4143.05 378.068 L4159.89 384.888 L4176.74 393.625 L4193.58 398.329 L4210.42 401.423 L4227.26 406.197 L4244.11 422.165 L4260.95 440.201 L4277.79 459.358 L4294.63 478.017 L4311.48 489.767 L4328.32 488.478 L4345.16 476.446 L4362 440.022 L4378.85 402.67 L4395.69 382.888 L4412.53 371.683 L4429.38 371.954 L4446.22 375.178 L4463.06 379.308 L4479.9 386.673 L4496.75 386.629 L4513.59 382.534 L4530.43 378.231 L4547.27 380.938 L4564.12 386.866 L4580.96 395.026 L4597.8 400.25 L4614.65 403.204 L4631.49 408.139 L4631.49 118.179 L4614.65 129.715 L4597.8 149.153 L4580.96 167.677 L4564.12 178.672 L4547.27 184.241 L4530.43 188.205 L4513.59 189.461 L4496.75 183.716 L4479.9 172.642 L4463.06 155.727 L4446.22 138.66 L4429.38 127.181 L4412.53 129.09 L4395.69 140.995 L4378.85 159.68 L4362 194.152 L4345.16 224.77 L4328.32 237.936 L4311.48 232.91 L4294.63 211.252 L4277.79 183.141 L4260.95 152.991 L4244.11 128.726 L4227.26 117.523 L4210.42 128.892 L4193.58 148.162 L4176.74 167.071 L4159.89 178.288 L4143.05 183.089 L4126.21 187.125 L4109.36 188.774 L4092.52 182.706 L4075.68 171.669 L4058.84 154.779 L4041.99 137.323 L4025.15 125.96 L4008.31 127.83 L3991.47 139.726 L3974.62 158.297 L3957.78 192.283 L3940.94 223.694 L3924.09 235.944 L3907.25 231.444 L3890.41 209.929 L3873.57 182.16 L3856.72 151.662 L3839.88 127.547 L3823.04 116.191 L3806.2 127.88 L3789.35 147.486 L3772.51 166.371 L3755.67 176.804 L3738.82 181.736 L3721.98 185.686 L3705.14 187.216 L3688.3 181.655 L3671.45 170.487 L3654.61 153.528 L3637.77 135.851 L3620.93 124.902 L3604.08 126.615 L3587.24 138.678 L3570.4 156.864 L3553.55 190.721 L3536.71 222.181 L3519.87 233.12 L3503.03 229.463 L3486.18 208.244 L3469.34 180.306 L3452.5 150.141 L3435.66 125.963 L3418.81 114.557 L3401.97 126.187 L3385.13 145.789 L3368.28 164.626 L3351.44 175.142 L3334.6 180.034 L3317.76 183.727 L3300.91 185.26 L3284.07 180.03 L3267.23 168.85 L3250.39 152.332 L3233.54 134.849 L3216.7 123.519 L3199.86 124.534 L3183.01 136.55 L3166.17 154.525 L3149.33 188.279 L3132.49 220.067 L3115.64 231.252 L3098.8 226.918 L3081.96 205.588 L3065.12 177.904 L3048.27 148.233 L3031.43 124.073 L3014.59 112.349 L2997.75 124.11 L2980.9 144.107 L2964.06 162.713 L2947.22 172.948 L2930.37 178.106 L2913.53 181.671 L2896.69 183.492 L2879.85 177.897 L2863 166.714 L2846.16 150.053 L2829.32 132.221 L2812.48 121.302 L2795.63 122.395 L2778.79 133.539 L2761.95 151.984 L2745.1 185.536 L2728.26 216.818 L2711.42 228.517 L2694.58 223.993 L2677.73 202.826 L2660.89 175.137 L2644.05 145.058 L2627.21 120.551 L2610.36 109.033 L2593.52 121.737 L2576.68 140.911 L2559.83 160.196 L2542.99 170.293 L2526.15 175.891 L2509.31 179.109 L2492.46 180.577 L2475.62 175.319 L2458.78 163.309 L2441.94 147.56 L2425.09 129.839 L2408.25 118.348 L2391.41 119.286 L2374.56 129.876 L2357.72 147.89 L2340.88 181.235 L2324.04 212.438 L2307.19 224.578 L2290.35 220.084 L2273.51 198.409 L2256.67 170.759 L2239.82 142.013 L2222.98 117.514 L2206.14 106.018 L2189.29 117.839 L2172.45 137.425 L2155.61 157.298 L2138.77 167.144 L2121.92 172.186 L2105.08 175.132 L2088.24 176.539 L2071.4 171.734 L2054.55 159.894 L2037.71 143.352 L2020.87 126.269 L2004.02 115.035 L1987.18 115.224 L1970.34 124.741 L1953.5 142.629 L1936.65 175.539 L1919.81 207.623 L1902.97 219.446 L1886.13 216.099 L1869.28 193.829 L1852.44 165.566 L1835.6 136.502 L1818.76 112.868 L1801.91 101.588 L1785.07 112.495 L1768.23 133.561 L1751.38 152.28 L1734.54 161.53 L1717.7 166.602 L1700.86 170.899 L1684.01 172.061 L1667.17 166.526 L1650.33 155.842 L1633.49 138.21 L1616.64 121.056 L1599.8 109.864 L1582.96 110.115 L1566.11 117.886 L1549.27 136.412 L1532.43 170.055 L1515.59 201.088 L1498.74 213.574 L1481.9 210.125 L1465.06 187.619 L1448.22 160.011 L1431.37 130.563 L1414.53 107.279 L1397.69 96.1158 L1380.84 107.593 L1364 128.341 L1347.16 146.899 L1330.32 156.668 L1313.47 162.076 L1296.63 165.761 L1279.79 166.67 L1262.95 161.442 L1246.1 151.388 L1229.26 134.41 L1212.42 118.213 L1195.57 106.403 L1178.73 106.989 L1161.89 115.309 L1145.05 132.923 L1128.2 166.483 L1111.36 198.034 L1094.52 211.178 L1077.68 208.415 L1060.83 186.692 L1043.99 159.867 L1027.15 131.11 L1010.3 108.244 L993.462 97.6714 L976.619 109.602 L959.777 131.699 L942.934 151.731 L926.091 162.636 L909.249 167.884 L892.406 172.645 L875.563 175.524 L858.72 171.482 L841.878 162.713 L825.035 149.783 L808.192 136.337 L791.35 132.15 L774.507 141.725 L757.664 163.093 L740.821 191.283 L723.979 233.66 L707.136 270.478 L690.293 286.542 L673.451 288.511 L656.608 272.774 L639.765 251.541 L622.922 228.124 L606.08 211.605 L589.237 206.676  Z" fill="#757575" fill-rule="evenodd" fill-opacity="0.5"/>
<polyline clip-path="url(#clip672)" style="stroke:#757575; stroke-linecap:round; stroke-linejoin:round; stroke-width:0; stroke-opacity:1; fill:none" points="589.237,251.546 606.08,260.413 622.922,271.915 639.765,284.657 656.608,296.16 673.451,304.87 690.293,304.818 707.136,297.434 723.979,279.533 740.821,259.314 757.664,247.297 774.507,240.886 791.35,239.277 808.192,242.279 825.035,247.531 841.878,252.822 858.72,255.556 875.563,256.572 892.406,255.349 909.249,254.71 926.091,253.935 942.934,252.59 959.777,248.374 976.619,243.29 993.462,241.286 1010.3,248.18 1027.15,258.711 1043.99,270.994 1060.83,282.373 1077.68,291.125 1094.52,291.243 1111.36,284.076 1128.2,266.906 1145.05,248.155 1161.89,238.172 1178.73,233.848 1195.57,234.207 1212.42,238.816 1229.26,245.344 1246.1,251.638 1262.95,255.14 1279.79,256.74 1296.63,255.96 1313.47,255.706 1330.32,255.288 1347.16,254.263 1364,250.34 1380.84,245.552 1397.69,243.818 1414.53,250.98 1431.37,261.778 1448.22,274.327 1465.06,285.961 1481.9,294.963 1498.74,295.307 1515.59,288.337 1532.43,271.261 1549.27,252.491 1566.11,242.382 1582.96,237.939 1599.8,238.16 1616.64,242.678 1633.49,249.119 1650.33,255.343 1667.17,258.783 1684.01,260.311 1700.86,259.506 1717.7,259.271 1734.54,258.86 1751.38,257.851 1768.23,253.966 1785.07,249.221 1801.91,247.55 1818.76,254.784 1835.6,265.668 1852.44,278.309 1869.28,290.041 1886.13,299.152 1902.97,299.588 1919.81,292.693 1936.65,275.612 1953.5,256.762 1970.34,246.488 1987.18,241.856 2004.02,241.894 2020.87,246.243 2037.71,252.547 2054.55,258.643 2071.4,261.98 2088.24,263.445 2105.08,262.577 2121.92,262.306 2138.77,261.875 2155.61,260.855 2172.45,256.977 2189.29,252.254 2206.14,250.606 2222.98,257.875 2239.82,268.805 2256.67,281.501 2273.51,293.303 2290.35,302.47 2307.19,302.969 2324.04,296.104 2340.88,279.044 2357.72,260.087 2374.56,249.704 2391.41,244.907 2408.25,244.8 2425.09,249.044 2441.94,255.23 2458.78,261.231 2475.62,264.49 2492.46,265.875 2509.31,264.971 2526.15,264.672 2542.99,264.223 2559.83,263.189 2576.68,259.31 2593.52,254.586 2610.36,252.952 2627.21,260.247 2644.05,271.21 2660.89,283.951 2677.73,295.791 2694.58,305.006 2711.42,305.553 2728.26,298.712 2745.1,281.655 2761.95,262.661 2778.79,252.173 2795.63,247.287 2812.48,247.063 2829.32,251.189 2846.16,257.292 2863,263.219 2879.85,266.406 2896.69,267.759 2913.53,266.819 2930.37,266.481 2947.22,266.02 2964.06,264.976 2980.9,261.099 2997.75,256.387 3014.59,254.768 3031.43,262.081 3048.27,273.07 3065.12,285.835 3081.96,297.702 3098.8,306.954 3115.64,307.531 3132.49,300.741 3149.33,283.666 3166.17,264.637 3183.01,254.072 3199.86,249.089 3216.7,248.757 3233.54,252.825 3250.39,258.866 3267.23,264.735 3284.07,267.873 3300.91,269.185 3317.76,268.213 3334.6,267.861 3351.44,267.393 3368.28,266.349 3385.13,262.475 3401.97,257.778 3418.81,256.168 3435.66,263.493 3452.5,274.497 3469.34,287.287 3486.18,299.174 3503.03,308.449 3519.87,309.053 3536.71,302.278 3553.55,285.217 3570.4,266.15 3587.24,255.521 3604.08,250.469 3620.93,250.08 3637.77,254.067 3654.61,260.057 3671.45,265.891 3688.3,268.986 3705.14,270.286 3721.98,269.297 3738.82,268.939 3755.67,268.453 3772.51,267.401 3789.35,263.526 3806.2,258.828 3823.04,257.226 3839.88,264.562 3856.72,275.58 3873.57,288.384 3890.41,300.293 3907.25,309.587 3924.09,310.209 3940.94,303.429 3957.78,286.367 3974.62,267.258 3991.47,256.595 4008.31,251.481 4025.15,251.068 4041.99,255.027 4058.84,260.98 4075.68,266.775 4092.52,269.847 4109.36,271.121 4126.21,270.119 4143.05,269.757 4159.89,269.267 4176.74,268.222 4193.58,264.35 4210.42,259.664 4227.26,258.071 4244.11,265.416 4260.95,276.444 4277.79,289.256 4294.63,301.182 4311.48,310.485 4328.32,311.119 4345.16,304.371 4362,287.298 4378.85,268.199 4395.69,257.486 4412.53,252.335 4429.38,251.877 4446.22,255.783 4463.06,261.698 4479.9,267.466 4496.75,270.52 4513.59,271.762 4530.43,270.756 4547.27,270.38 4564.12,269.89 4580.96,268.841 4597.8,264.973 4614.65,260.285 4631.49,258.695 "/>
<path clip-path="url(#clip672)" d="M589.237 235.266 L606.08 264.413 L622.922 293.878 L639.765 322.505 L656.608 347.702 L673.451 369.625 L690.293 372.848 L707.136 360.147 L723.979 326.891 L740.821 284.895 L757.664 264.09 L774.507 255.751 L791.35 257.055 L808.192 265.035 L825.035 273.897 L841.878 283.511 L858.72 288.444 L875.563 290.5 L892.406 286.996 L909.249 289.911 L926.091 291.273 L942.934 296.782 L959.777 298.024 L976.619 300.557 L993.462 306.085 L1010.3 325.375 L1027.15 344.999 L1043.99 363.169 L1060.83 381.165 L1077.68 396.353 L1094.52 394.715 L1111.36 378.486 L1128.2 342.356 L1145.05 302.076 L1161.89 278.645 L1178.73 270.155 L1195.57 270.852 L1212.42 278.627 L1229.26 287.552 L1246.1 295.686 L1262.95 298.362 L1279.79 298.817 L1296.63 296.432 L1313.47 299.499 L1330.32 304.622 L1347.16 309.667 L1364 311.285 L1380.84 313.584 L1397.69 317.398 L1414.53 337.805 L1431.37 357.712 L1448.22 377.401 L1465.06 398.35 L1481.9 410.593 L1498.74 409.744 L1515.59 392.886 L1532.43 356.192 L1549.27 317.792 L1566.11 293.185 L1582.96 282.872 L1599.8 286.058 L1616.64 291.562 L1633.49 298.153 L1650.33 306.274 L1667.17 307.644 L1684.01 308.382 L1700.86 306.223 L1717.7 308.961 L1734.54 314.347 L1751.38 321.207 L1768.23 321.852 L1785.07 321.623 L1801.91 326.637 L1818.76 346.665 L1835.6 366.114 L1852.44 389.394 L1869.28 408.219 L1886.13 422.241 L1902.97 419.781 L1919.81 403.707 L1936.65 367.881 L1953.5 327.207 L1970.34 301.845 L1987.18 291.411 L2004.02 293.684 L2020.87 300.269 L2037.71 308.1 L2054.55 315.657 L2071.4 316.828 L2088.24 316.625 L2105.08 314.812 L2121.92 316.527 L2138.77 322.069 L2155.61 327.314 L2172.45 329.939 L2189.29 331.169 L2206.14 334.398 L2222.98 352.541 L2239.82 375.073 L2256.67 397.771 L2273.51 416.314 L2290.35 429.679 L2307.19 427.253 L2324.04 411.938 L2340.88 376.048 L2357.72 335.955 L2374.56 310.066 L2391.41 300.446 L2408.25 301.006 L2425.09 308.063 L2441.94 316.973 L2458.78 322.421 L2475.62 323.461 L2492.46 323.558 L2509.31 320.648 L2526.15 323.675 L2542.99 327.747 L2559.83 332.111 L2576.68 335.152 L2593.52 335.732 L2610.36 339.729 L2627.21 357.383 L2644.05 378.39 L2660.89 402.985 L2677.73 422.484 L2694.58 435.641 L2711.42 433.969 L2728.26 419.958 L2745.1 382.88 L2761.95 340.631 L2778.79 317.664 L2795.63 307.924 L2812.48 307.938 L2829.32 313.281 L2846.16 322.06 L2863 328.011 L2879.85 328.001 L2896.69 328.134 L2913.53 324.473 L2930.37 327.038 L2947.22 331.024 L2964.06 336.99 L2980.9 339.866 L2997.75 340.877 L3014.59 344.051 L3031.43 361.343 L3048.27 382.764 L3065.12 406.084 L3081.96 426.032 L3098.8 439.992 L3115.64 438.866 L3132.49 423.089 L3149.33 389.162 L3166.17 346.31 L3183.01 322.063 L3199.86 313.116 L3216.7 312.04 L3233.54 317.281 L3250.39 325.53 L3267.23 331.25 L3284.07 332.412 L3300.91 330.613 L3317.76 327.195 L3334.6 329.763 L3351.44 334.328 L3368.28 339.957 L3385.13 342.086 L3401.97 343.43 L3418.81 347.736 L3435.66 365.103 L3452.5 386.143 L3469.34 409.066 L3486.18 430.096 L3503.03 444.796 L3519.87 442.938 L3536.71 427.474 L3553.55 392.626 L3570.4 349.817 L3587.24 327.363 L3604.08 318.281 L3620.93 316.02 L3637.77 322.529 L3654.61 330.918 L3671.45 336.461 L3688.3 336.154 L3705.14 334.862 L3721.98 331.414 L3738.82 333.6 L3755.67 336.805 L3772.51 343.283 L3789.35 344.896 L3806.2 345.928 L3823.04 350.036 L3839.88 367.806 L3856.72 388.865 L3873.57 410.532 L3890.41 432.3 L3907.25 446.194 L3924.09 445.274 L3940.94 431.491 L3957.78 396.91 L3974.62 353.165 L3991.47 330.066 L4008.31 320.564 L4025.15 318.114 L4041.99 324.104 L4058.84 333.586 L4075.68 339.112 L4092.52 338.546 L4109.36 337.266 L4126.21 334.512 L4143.05 335.12 L4159.89 337.984 L4176.74 344.958 L4193.58 347.628 L4210.42 348.507 L4227.26 353.616 L4244.11 370.647 L4260.95 391.193 L4277.79 411.99 L4294.63 433.449 L4311.48 447.89 L4328.32 447.337 L4345.16 433.931 L4362 400.371 L4378.85 354.961 L4395.69 332.812 L4412.53 323.18 L4429.38 321.086 L4446.22 326.619 L4463.06 334.125 L4479.9 342.636 L4496.75 340.919 L4513.59 338.596 L4530.43 336.419 L4547.27 336.661 L4564.12 339.673 L4580.96 346.299 L4597.8 349.207 L4614.65 350.772 L4631.49 355.218 L4631.49 129.833 L4614.65 140.002 L4597.8 160.294 L4580.96 179.017 L4564.12 188.267 L4547.27 193.712 L4530.43 197.347 L4513.59 198.001 L4496.75 193.423 L4479.9 183.216 L4463.06 165.914 L4446.22 149.098 L4429.38 139.231 L4412.53 141.859 L4395.69 151.184 L4378.85 170.711 L4362 206.623 L4345.16 237.389 L4328.32 250.275 L4311.48 245.974 L4294.63 223.989 L4277.79 195.098 L4260.95 164.683 L4244.11 140.948 L4227.26 128.901 L4210.42 139.502 L4193.58 159.552 L4176.74 177.59 L4159.89 187.059 L4143.05 192.579 L4126.21 196.288 L4109.36 196.984 L4092.52 192.264 L4075.68 182.211 L4058.84 164.888 L4041.99 148.114 L4025.15 138.626 L4008.31 140.505 L3991.47 150.104 L3974.62 169.125 L3957.78 204.941 L3940.94 236.506 L3924.09 249.547 L3907.25 244.964 L3890.41 222.572 L3873.57 194.166 L3856.72 163.368 L3839.88 139.63 L3823.04 127.723 L3806.2 138.557 L3789.35 158.412 L3772.51 176.927 L3755.67 185.988 L3738.82 191.683 L3721.98 195.413 L3705.14 195.678 L3688.3 191.161 L3671.45 180.817 L3654.61 163.581 L3637.77 146.997 L3620.93 137.503 L3604.08 139.441 L3587.24 148.488 L3570.4 167.711 L3553.55 203.329 L3536.71 234.961 L3519.87 248.23 L3503.03 243.321 L3486.18 220.771 L3469.34 191.732 L3452.5 161.824 L3435.66 137.615 L3418.81 126.033 L3401.97 137.067 L3385.13 156.757 L3368.28 175.403 L3351.44 184.152 L3334.6 190.121 L3317.76 194.027 L3300.91 194.132 L3284.07 189.89 L3267.23 179.284 L3250.39 162.413 L3233.54 145.505 L3216.7 135.966 L3199.86 137.359 L3183.01 145.954 L3166.17 164.809 L3149.33 200.853 L3132.49 232.846 L3115.64 245.907 L3098.8 241.661 L3081.96 219.291 L3065.12 190.471 L3048.27 160.196 L3031.43 135.559 L3014.59 123.966 L2997.75 134.854 L2980.9 154.901 L2964.06 173.648 L2947.22 182.289 L2930.37 187.73 L2913.53 191.452 L2896.69 192.039 L2879.85 187.789 L2863 177.086 L2846.16 160.352 L2829.32 144.064 L2812.48 133.961 L2795.63 134.8 L2778.79 143.337 L2761.95 162.432 L2745.1 197.703 L2728.26 230.167 L2711.42 242.973 L2694.58 238.355 L2677.73 216.787 L2660.89 187.657 L2644.05 157.619 L2627.21 133.11 L2610.36 121.32 L2593.52 132.59 L2576.68 152.132 L2559.83 170.579 L2542.99 179.01 L2526.15 184.886 L2509.31 188.63 L2492.46 189.591 L2475.62 184.857 L2458.78 174.35 L2441.94 157.264 L2425.09 140.958 L2408.25 131.254 L2391.41 130.94 L2374.56 139.882 L2357.72 158.785 L2340.88 193.973 L2324.04 225.617 L2307.19 238.68 L2290.35 234.756 L2273.51 212.256 L2256.67 183.664 L2239.82 154.115 L2222.98 130.33 L2206.14 118.081 L2189.29 129.289 L2172.45 149.157 L2155.61 167.118 L2138.77 176.202 L2121.92 181.265 L2105.08 184.606 L2088.24 186.121 L2071.4 181.078 L2054.55 171.338 L2037.71 153.58 L2020.87 137.493 L2004.02 128.069 L1987.18 127.133 L1970.34 135.53 L1953.5 154.049 L1936.65 188.387 L1919.81 220.558 L1902.97 233.798 L1886.13 229.871 L1869.28 206.928 L1852.44 178.67 L1835.6 149.803 L1818.76 125.953 L1801.91 114.063 L1785.07 125.265 L1768.23 145.13 L1751.38 162.191 L1734.54 170.666 L1717.7 176.171 L1700.86 179.43 L1684.01 180.606 L1667.17 176.083 L1650.33 165.916 L1633.49 149.678 L1616.64 133.125 L1599.8 122.931 L1582.96 122.205 L1566.11 129.203 L1549.27 147.412 L1532.43 181.582 L1515.59 213.784 L1498.74 227.201 L1481.9 223.886 L1465.06 201.221 L1448.22 173.185 L1431.37 144.545 L1414.53 120.406 L1397.69 109.247 L1380.84 120.084 L1364 140.017 L1347.16 157.462 L1330.32 165.712 L1313.47 171.44 L1296.63 174.558 L1279.79 176.315 L1262.95 171.569 L1246.1 161.495 L1229.26 145.913 L1212.42 129.093 L1195.57 118.815 L1178.73 117.923 L1161.89 125.634 L1145.05 143.578 L1128.2 178.549 L1111.36 210.87 L1094.52 225.054 L1077.68 221.702 L1060.83 199.541 L1043.99 171.876 L1027.15 144.136 L1010.3 121.193 L993.462 109.793 L976.619 121.654 L959.777 142.909 L942.934 161.511 L926.091 170.499 L909.249 177.739 L892.406 181.502 L875.563 183.667 L858.72 180.791 L841.878 173.268 L825.035 160.069 L808.192 147.807 L791.35 143.028 L774.507 150.993 L757.664 170.35 L740.821 198.784 L723.979 239.522 L707.136 275.22 L690.293 292.052 L673.451 294.361 L656.608 278.253 L639.765 255.805 L622.922 233.224 L606.08 216.555 L589.237 209.794  Z" fill="#414141" fill-rule="evenodd" fill-opacity="0.5"/>
<polyline clip-path="url(#clip672)" style="stroke:#414141; stroke-linecap:round; stroke-linejoin:round; stroke-width:0; stroke-opacity:1; fill:none" points="589.237,251.546 606.08,260.413 622.922,271.915 639.765,284.657 656.608,296.16 673.451,304.87 690.293,304.818 707.136,297.434 723.979,279.533 740.821,259.314 757.664,247.297 774.507,240.886 791.35,239.277 808.192,242.279 825.035,247.531 841.878,252.822 858.72,255.556 875.563,256.572 892.406,255.349 909.249,254.71 926.091,253.935 942.934,252.59 959.777,248.374 976.619,243.29 993.462,241.286 1010.3,248.18 1027.15,258.711 1043.99,270.994 1060.83,282.373 1077.68,291.125 1094.52,291.243 1111.36,284.076 1128.2,266.906 1145.05,248.155 1161.89,238.172 1178.73,233.848 1195.57,234.207 1212.42,238.816 1229.26,245.344 1246.1,251.638 1262.95,255.14 1279.79,256.74 1296.63,255.96 1313.47,255.706 1330.32,255.288 1347.16,254.263 1364,250.34 1380.84,245.552 1397.69,243.818 1414.53,250.98 1431.37,261.778 1448.22,274.327 1465.06,285.961 1481.9,294.963 1498.74,295.307 1515.59,288.337 1532.43,271.261 1549.27,252.491 1566.11,242.382 1582.96,237.939 1599.8,238.16 1616.64,242.678 1633.49,249.119 1650.33,255.343 1667.17,258.783 1684.01,260.311 1700.86,259.506 1717.7,259.271 1734.54,258.86 1751.38,257.851 1768.23,253.966 1785.07,249.221 1801.91,247.55 1818.76,254.784 1835.6,265.668 1852.44,278.309 1869.28,290.041 1886.13,299.152 1902.97,299.588 1919.81,292.693 1936.65,275.612 1953.5,256.762 1970.34,246.488 1987.18,241.856 2004.02,241.894 2020.87,246.243 2037.71,252.547 2054.55,258.643 2071.4,261.98 2088.24,263.445 2105.08,262.577 2121.92,262.306 2138.77,261.875 2155.61,260.855 2172.45,256.977 2189.29,252.254 2206.14,250.606 2222.98,257.875 2239.82,268.805 2256.67,281.501 2273.51,293.303 2290.35,302.47 2307.19,302.969 2324.04,296.104 2340.88,279.044 2357.72,260.087 2374.56,249.704 2391.41,244.907 2408.25,244.8 2425.09,249.044 2441.94,255.23 2458.78,261.231 2475.62,264.49 2492.46,265.875 2509.31,264.971 2526.15,264.672 2542.99,264.223 2559.83,263.189 2576.68,259.31 2593.52,254.586 2610.36,252.952 2627.21,260.247 2644.05,271.21 2660.89,283.951 2677.73,295.791 2694.58,305.006 2711.42,305.553 2728.26,298.712 2745.1,281.655 2761.95,262.661 2778.79,252.173 2795.63,247.287 2812.48,247.063 2829.32,251.189 2846.16,257.292 2863,263.219 2879.85,266.406 2896.69,267.759 2913.53,266.819 2930.37,266.481 2947.22,266.02 2964.06,264.976 2980.9,261.099 2997.75,256.387 3014.59,254.768 3031.43,262.081 3048.27,273.07 3065.12,285.835 3081.96,297.702 3098.8,306.954 3115.64,307.531 3132.49,300.741 3149.33,283.666 3166.17,264.637 3183.01,254.072 3199.86,249.089 3216.7,248.757 3233.54,252.825 3250.39,258.866 3267.23,264.735 3284.07,267.873 3300.91,269.185 3317.76,268.213 3334.6,267.861 3351.44,267.393 3368.28,266.349 3385.13,262.475 3401.97,257.778 3418.81,256.168 3435.66,263.493 3452.5,274.497 3469.34,287.287 3486.18,299.174 3503.03,308.449 3519.87,309.053 3536.71,302.278 3553.55,285.217 3570.4,266.15 3587.24,255.521 3604.08,250.469 3620.93,250.08 3637.77,254.067 3654.61,260.057 3671.45,265.891 3688.3,268.986 3705.14,270.286 3721.98,269.297 3738.82,268.939 3755.67,268.453 3772.51,267.401 3789.35,263.526 3806.2,258.828 3823.04,257.226 3839.88,264.562 3856.72,275.58 3873.57,288.384 3890.41,300.293 3907.25,309.587 3924.09,310.209 3940.94,303.429 3957.78,286.367 3974.62,267.258 3991.47,256.595 4008.31,251.481 4025.15,251.068 4041.99,255.027 4058.84,260.98 4075.68,266.775 4092.52,269.847 4109.36,271.121 4126.21,270.119 4143.05,269.757 4159.89,269.267 4176.74,268.222 4193.58,264.35 4210.42,259.664 4227.26,258.071 4244.11,265.416 4260.95,276.444 4277.79,289.256 4294.63,301.182 4311.48,310.485 4328.32,311.119 4345.16,304.371 4362,287.298 4378.85,268.199 4395.69,257.486 4412.53,252.335 4429.38,251.877 4446.22,255.783 4463.06,261.698 4479.9,267.466 4496.75,270.52 4513.59,271.762 4530.43,270.756 4547.27,270.38 4564.12,269.89 4580.96,268.841 4597.8,264.973 4614.65,260.285 4631.49,258.695 "/>
<path clip-path="url(#clip670)" d="M3862.18 592.384 L4609.93 592.384 L4609.93 73.9845 L3862.18 73.9845  Z" fill="#ffffff" fill-rule="evenodd" fill-opacity="1"/>
<polyline clip-path="url(#clip670)" style="stroke:#000000; stroke-linecap:round; stroke-linejoin:round; stroke-width:4; stroke-opacity:1; fill:none" points="3862.18,592.384 4609.93,592.384 4609.93,73.9845 3862.18,73.9845 3862.18,592.384 "/>
<polyline clip-path="url(#clip670)" style="stroke:#aeaeae; stroke-linecap:round; stroke-linejoin:round; stroke-width:2; stroke-opacity:1; fill:none" points="3909.79,203.584 4195.44,203.584 "/>
<path clip-path="url(#clip670)" d="M4244.73 236.947 L4263.83 236.947 L4263.83 171.033 L4243.05 175.199 L4243.05 164.551 L4263.71 160.384 L4275.4 160.384 L4275.4 236.947 L4294.5 236.947 L4294.5 246.784 L4244.73 246.784 L4244.73 236.947 Z" fill="#000000" fill-rule="nonzero" fill-opacity="1" /><path clip-path="url(#clip670)" d="M4343.11 168.081 Q4334.08 168.081 4329.51 176.993 Q4325 185.847 4325 203.671 Q4325 221.437 4329.51 230.349 Q4334.08 239.203 4343.11 239.203 Q4352.19 239.203 4356.71 230.349 Q4361.28 221.437 4361.28 203.671 Q4361.28 185.847 4356.71 176.993 Q4352.19 168.081 4343.11 168.081 M4343.11 158.822 Q4357.63 158.822 4365.27 170.338 Q4372.97 181.796 4372.97 203.671 Q4372.97 225.488 4365.27 237.004 Q4357.63 248.463 4343.11 248.463 Q4328.58 248.463 4320.89 237.004 Q4313.25 225.488 4313.25 203.671 Q4313.25 181.796 4320.89 170.338 Q4328.58 158.822 4343.11 158.822 Z" fill="#000000" fill-rule="nonzero" fill-opacity="1" /><path clip-path="url(#clip670)" d="M4418.51 168.081 Q4409.49 168.081 4404.91 176.993 Q4400.4 185.847 4400.4 203.671 Q4400.4 221.437 4404.91 230.349 Q4409.49 239.203 4418.51 239.203 Q4427.6 239.203 4432.11 230.349 Q4436.69 221.437 4436.69 203.671 Q4436.69 185.847 4432.11 176.993 Q4427.6 168.081 4418.51 168.081 M4418.51 158.822 Q4433.04 158.822 4440.68 170.338 Q4448.37 181.796 4448.37 203.671 Q4448.37 225.488 4440.68 237.004 Q4433.04 248.463 4418.51 248.463 Q4403.99 248.463 4396.29 237.004 Q4388.65 225.488 4388.65 203.671 Q4388.65 181.796 4396.29 170.338 Q4403.99 158.822 4418.51 158.822 Z" fill="#000000" fill-rule="nonzero" fill-opacity="1" /><path clip-path="url(#clip670)" d="M4542.41 208.764 Q4537.38 208.764 4534.49 213.046 Q4531.65 217.329 4531.65 224.967 Q4531.65 232.491 4534.49 236.831 Q4537.38 241.113 4542.41 241.113 Q4547.33 241.113 4550.17 236.831 Q4553.06 232.491 4553.06 224.967 Q4553.06 217.386 4550.17 213.104 Q4547.33 208.764 4542.41 208.764 M4542.41 201.414 Q4551.56 201.414 4556.94 207.78 Q4562.32 214.146 4562.32 224.967 Q4562.32 235.789 4556.88 242.155 Q4551.5 248.463 4542.41 248.463 Q4533.15 248.463 4527.77 242.155 Q4522.39 235.789 4522.39 224.967 Q4522.39 214.088 4527.77 207.78 Q4533.21 201.414 4542.41 201.414 M4482.69 166.171 Q4477.71 166.171 4474.82 170.512 Q4471.99 174.794 4471.99 182.317 Q4471.99 189.956 4474.82 194.238 Q4477.66 198.521 4482.69 198.521 Q4487.73 198.521 4490.56 194.238 Q4493.46 189.956 4493.46 182.317 Q4493.46 174.852 4490.56 170.512 Q4487.67 166.171 4482.69 166.171 M4534.95 158.822 L4544.21 158.822 L4490.16 248.463 L4480.9 248.463 L4534.95 158.822 M4482.69 158.822 Q4491.84 158.822 4497.28 165.188 Q4502.71 171.496 4502.71 182.317 Q4502.71 193.255 4497.28 199.563 Q4491.89 205.87 4482.69 205.87 Q4473.49 205.87 4468.11 199.563 Q4462.78 193.197 4462.78 182.317 Q4462.78 171.553 4468.17 165.188 Q4473.55 158.822 4482.69 158.822 Z" fill="#000000" fill-rule="nonzero" fill-opacity="1" /><polyline clip-path="url(#clip670)" style="stroke:#757575; stroke-linecap:round; stroke-linejoin:round; stroke-width:2; stroke-opacity:1; fill:none" points="3909.79,333.184 4195.44,333.184 "/>
<path clip-path="url(#clip670)" d="M4248.61 374.591 L4248.61 363.942 Q4253.01 366.026 4257.52 367.125 Q4262.03 368.225 4266.37 368.225 Q4277.95 368.225 4284.02 360.47 Q4290.16 352.658 4291.03 336.801 Q4287.67 341.778 4282.52 344.44 Q4277.37 347.102 4271.12 347.102 Q4258.16 347.102 4250.57 339.29 Q4243.05 331.419 4243.05 317.82 Q4243.05 304.51 4250.92 296.466 Q4258.79 288.422 4271.87 288.422 Q4286.86 288.422 4294.73 299.938 Q4302.66 311.396 4302.66 333.271 Q4302.66 353.699 4292.94 365.91 Q4283.27 378.063 4266.89 378.063 Q4262.5 378.063 4257.98 377.195 Q4253.47 376.327 4248.61 374.591 M4271.87 337.959 Q4279.74 337.959 4284.31 332.577 Q4288.94 327.195 4288.94 317.82 Q4288.94 308.503 4284.31 303.121 Q4279.74 297.681 4271.87 297.681 Q4264 297.681 4259.37 303.121 Q4254.8 308.503 4254.8 317.82 Q4254.8 327.195 4259.37 332.577 Q4264 337.959 4271.87 337.959 Z" fill="#000000" fill-rule="nonzero" fill-opacity="1" /><path clip-path="url(#clip670)" d="M4348.66 297.681 Q4339.64 297.681 4335.07 306.593 Q4330.55 315.447 4330.55 333.271 Q4330.55 351.037 4335.07 359.949 Q4339.64 368.803 4348.66 368.803 Q4357.75 368.803 4362.26 359.949 Q4366.84 351.037 4366.84 333.271 Q4366.84 315.447 4362.26 306.593 Q4357.75 297.681 4348.66 297.681 M4348.66 288.422 Q4363.19 288.422 4370.83 299.938 Q4378.53 311.396 4378.53 333.271 Q4378.53 355.088 4370.83 366.604 Q4363.19 378.063 4348.66 378.063 Q4334.14 378.063 4326.44 366.604 Q4318.8 355.088 4318.8 333.271 Q4318.8 311.396 4326.44 299.938 Q4334.14 288.422 4348.66 288.422 Z" fill="#000000" fill-rule="nonzero" fill-opacity="1" /><path clip-path="url(#clip670)" d="M4472.56 338.364 Q4467.53 338.364 4464.64 342.646 Q4461.8 346.929 4461.8 354.567 Q4461.8 362.091 4464.64 366.431 Q4467.53 370.713 4472.56 370.713 Q4477.48 370.713 4480.32 366.431 Q4483.21 362.091 4483.21 354.567 Q4483.21 346.986 4480.32 342.704 Q4477.48 338.364 4472.56 338.364 M4472.56 331.014 Q4481.71 331.014 4487.09 337.38 Q4492.47 343.746 4492.47 354.567 Q4492.47 365.389 4487.03 371.755 Q4481.65 378.063 4472.56 378.063 Q4463.31 378.063 4457.92 371.755 Q4452.54 365.389 4452.54 354.567 Q4452.54 343.688 4457.92 337.38 Q4463.36 331.014 4472.56 331.014 M4412.84 295.771 Q4407.87 295.771 4404.97 300.112 Q4402.14 304.394 4402.14 311.917 Q4402.14 319.556 4404.97 323.838 Q4407.81 328.121 4412.84 328.121 Q4417.88 328.121 4420.71 323.838 Q4423.61 319.556 4423.61 311.917 Q4423.61 304.452 4420.71 300.112 Q4417.82 295.771 4412.84 295.771 M4465.1 288.422 L4474.36 288.422 L4420.31 378.063 L4411.05 378.063 L4465.1 288.422 M4412.84 288.422 Q4421.99 288.422 4427.43 294.788 Q4432.87 301.096 4432.87 311.917 Q4432.87 322.855 4427.43 329.163 Q4422.04 335.47 4412.84 335.47 Q4403.64 335.47 4398.26 329.163 Q4392.94 322.797 4392.94 311.917 Q4392.94 301.153 4398.32 294.788 Q4403.7 288.422 4412.84 288.422 Z" fill="#000000" fill-rule="nonzero" fill-opacity="1" /><polyline clip-path="url(#clip670)" style="stroke:#414141; stroke-linecap:round; stroke-linejoin:round; stroke-width:2; stroke-opacity:1; fill:none" points="3909.79,462.784 4195.44,462.784 "/>
<path clip-path="url(#clip670)" d="M4272.68 464.955 Q4264.35 464.955 4259.54 469.411 Q4254.8 473.867 4254.8 481.679 Q4254.8 489.492 4259.54 493.947 Q4264.35 498.403 4272.68 498.403 Q4281.01 498.403 4285.82 493.947 Q4290.62 489.434 4290.62 481.679 Q4290.62 473.867 4285.82 469.411 Q4281.07 464.955 4272.68 464.955 M4260.99 459.978 Q4253.47 458.126 4249.24 452.975 Q4245.08 447.825 4245.08 440.418 Q4245.08 430.059 4252.43 424.04 Q4259.83 418.022 4272.68 418.022 Q4285.59 418.022 4292.94 424.04 Q4300.29 430.059 4300.29 440.418 Q4300.29 447.825 4296.06 452.975 Q4291.89 458.126 4284.43 459.978 Q4292.88 461.945 4297.57 467.674 Q4302.31 473.404 4302.31 481.679 Q4302.31 494.237 4294.61 500.95 Q4286.98 507.663 4272.68 507.663 Q4258.39 507.663 4250.69 500.95 Q4243.05 494.237 4243.05 481.679 Q4243.05 473.404 4247.8 467.674 Q4252.54 461.945 4260.99 459.978 M4256.71 441.517 Q4256.71 448.23 4260.88 451.992 Q4265.1 455.753 4272.68 455.753 Q4280.2 455.753 4284.43 451.992 Q4288.71 448.23 4288.71 441.517 Q4288.71 434.804 4284.43 431.043 Q4280.2 427.281 4272.68 427.281 Q4265.1 427.281 4260.88 431.043 Q4256.71 434.804 4256.71 441.517 Z" fill="#000000" fill-rule="nonzero" fill-opacity="1" /><path clip-path="url(#clip670)" d="M4348.09 427.281 Q4339.06 427.281 4334.49 436.193 Q4329.97 445.047 4329.97 462.871 Q4329.97 480.637 4334.49 489.549 Q4339.06 498.403 4348.09 498.403 Q4357.17 498.403 4361.69 489.549 Q4366.26 480.637 4366.26 462.871 Q4366.26 445.047 4361.69 436.193 Q4357.17 427.281 4348.09 427.281 M4348.09 418.022 Q4362.61 418.022 4370.25 429.538 Q4377.95 440.996 4377.95 462.871 Q4377.95 484.688 4370.25 496.204 Q4362.61 507.663 4348.09 507.663 Q4333.56 507.663 4325.86 496.204 Q4318.23 484.688 4318.23 462.871 Q4318.23 440.996 4325.86 429.538 Q4333.56 418.022 4348.09 418.022 Z" fill="#000000" fill-rule="nonzero" fill-opacity="1" /><path clip-path="url(#clip670)" d="M4471.99 467.964 Q4466.95 467.964 4464.06 472.246 Q4461.22 476.529 4461.22 484.167 Q4461.22 491.691 4464.06 496.031 Q4466.95 500.313 4471.99 500.313 Q4476.9 500.313 4479.74 496.031 Q4482.63 491.691 4482.63 484.167 Q4482.63 476.586 4479.74 472.304 Q4476.9 467.964 4471.99 467.964 M4471.99 460.614 Q4481.13 460.614 4486.51 466.98 Q4491.89 473.346 4491.89 484.167 Q4491.89 494.989 4486.45 501.355 Q4481.07 507.663 4471.99 507.663 Q4462.73 507.663 4457.34 501.355 Q4451.96 494.989 4451.96 484.167 Q4451.96 473.288 4457.34 466.98 Q4462.78 460.614 4471.99 460.614 M4412.26 425.371 Q4407.29 425.371 4404.39 429.712 Q4401.56 433.994 4401.56 441.517 Q4401.56 449.156 4404.39 453.438 Q4407.23 457.721 4412.26 457.721 Q4417.3 457.721 4420.13 453.438 Q4423.03 449.156 4423.03 441.517 Q4423.03 434.052 4420.13 429.712 Q4417.24 425.371 4412.26 425.371 M4464.52 418.022 L4473.78 418.022 L4419.73 507.663 L4410.47 507.663 L4464.52 418.022 M4412.26 418.022 Q4421.41 418.022 4426.85 424.388 Q4432.29 430.696 4432.29 441.517 Q4432.29 452.455 4426.85 458.763 Q4421.47 465.07 4412.26 465.07 Q4403.06 465.07 4397.68 458.763 Q4392.36 452.397 4392.36 441.517 Q4392.36 430.753 4397.74 424.388 Q4403.12 418.022 4412.26 418.022 Z" fill="#000000" fill-rule="nonzero" fill-opacity="1" /></svg>
