<?xml version="1.0" encoding="utf-8"?>
<svg xmlns="http://www.w3.org/2000/svg" xmlns:xlink="http://www.w3.org/1999/xlink" width="1200" height="300" viewBox="0 0 4800 1200">
<defs>
  <clipPath id="clip540">
    <rect x="0" y="0" width="4800" height="1200"/>
  </clipPath>
</defs>
<path clip-path="url(#clip540)" d="M0 1200 L4800 1200 L4800 0 L0 0  Z" fill="#ffffff" fill-rule="evenodd" fill-opacity="1"/>
<defs>
  <clipPath id="clip541">
    <rect x="960" y="0" width="3361" height="1200"/>
  </clipPath>
</defs>
<path clip-path="url(#clip540)" d="M660.509 849.455 L4752.76 849.455 L4752.76 47.2441 L660.509 47.2441  Z" fill="#ffffff" fill-rule="evenodd" fill-opacity="1"/>
<defs>
  <clipPath id="clip542">
    <rect x="660" y="47" width="4093" height="803"/>
  </clipPath>
</defs>
<polyline clip-path="url(#clip542)" style="stroke:#000000; stroke-linecap:round; stroke-linejoin:round; stroke-width:2; stroke-opacity:0.1; fill:none" points="776.327,849.455 776.327,47.2441 "/>
<polyline clip-path="url(#clip542)" style="stroke:#000000; stroke-linecap:round; stroke-linejoin:round; stroke-width:2; stroke-opacity:0.1; fill:none" points="1548.45,849.455 1548.45,47.2441 "/>
<polyline clip-path="url(#clip542)" style="stroke:#000000; stroke-linecap:round; stroke-linejoin:round; stroke-width:2; stroke-opacity:0.1; fill:none" points="2320.57,849.455 2320.57,47.2441 "/>
<polyline clip-path="url(#clip542)" style="stroke:#000000; stroke-linecap:round; stroke-linejoin:round; stroke-width:2; stroke-opacity:0.1; fill:none" points="3092.69,849.455 3092.69,47.2441 "/>
<polyline clip-path="url(#clip542)" style="stroke:#000000; stroke-linecap:round; stroke-linejoin:round; stroke-width:2; stroke-opacity:0.1; fill:none" points="3864.82,849.455 3864.82,47.2441 "/>
<polyline clip-path="url(#clip542)" style="stroke:#000000; stroke-linecap:round; stroke-linejoin:round; stroke-width:2; stroke-opacity:0.1; fill:none" points="4636.94,849.455 4636.94,47.2441 "/>
<polyline clip-path="url(#clip542)" style="stroke:#000000; stroke-linecap:round; stroke-linejoin:round; stroke-width:2; stroke-opacity:0.1; fill:none" points="660.509,826.783 4752.76,826.783 "/>
<polyline clip-path="url(#clip542)" style="stroke:#000000; stroke-linecap:round; stroke-linejoin:round; stroke-width:2; stroke-opacity:0.1; fill:none" points="660.509,640.364 4752.76,640.364 "/>
<polyline clip-path="url(#clip542)" style="stroke:#000000; stroke-linecap:round; stroke-linejoin:round; stroke-width:2; stroke-opacity:0.1; fill:none" points="660.509,453.944 4752.76,453.944 "/>
<polyline clip-path="url(#clip542)" style="stroke:#000000; stroke-linecap:round; stroke-linejoin:round; stroke-width:2; stroke-opacity:0.1; fill:none" points="660.509,267.525 4752.76,267.525 "/>
<polyline clip-path="url(#clip542)" style="stroke:#000000; stroke-linecap:round; stroke-linejoin:round; stroke-width:2; stroke-opacity:0.1; fill:none" points="660.509,81.105 4752.76,81.105 "/>
<polyline clip-path="url(#clip540)" style="stroke:#000000; stroke-linecap:round; stroke-linejoin:round; stroke-width:4; stroke-opacity:1; fill:none" points="660.509,849.455 4752.76,849.455 "/>
<polyline clip-path="url(#clip540)" style="stroke:#000000; stroke-linecap:round; stroke-linejoin:round; stroke-width:4; stroke-opacity:1; fill:none" points="776.327,849.455 776.327,830.558 "/>
<polyline clip-path="url(#clip540)" style="stroke:#000000; stroke-linecap:round; stroke-linejoin:round; stroke-width:4; stroke-opacity:1; fill:none" points="1548.45,849.455 1548.45,830.558 "/>
<polyline clip-path="url(#clip540)" style="stroke:#000000; stroke-linecap:round; stroke-linejoin:round; stroke-width:4; stroke-opacity:1; fill:none" points="2320.57,849.455 2320.57,830.558 "/>
<polyline clip-path="url(#clip540)" style="stroke:#000000; stroke-linecap:round; stroke-linejoin:round; stroke-width:4; stroke-opacity:1; fill:none" points="3092.69,849.455 3092.69,830.558 "/>
<polyline clip-path="url(#clip540)" style="stroke:#000000; stroke-linecap:round; stroke-linejoin:round; stroke-width:4; stroke-opacity:1; fill:none" points="3864.82,849.455 3864.82,830.558 "/>
<polyline clip-path="url(#clip540)" style="stroke:#000000; stroke-linecap:round; stroke-linejoin:round; stroke-width:4; stroke-opacity:1; fill:none" points="4636.94,849.455 4636.94,830.558 "/>
<path clip-path="url(#clip540)" d="M776.327 911.293 Q769.105 911.293 765.448 918.422 Q761.837 925.506 761.837 939.765 Q761.837 953.978 765.448 961.107 Q769.105 968.191 776.327 968.191 Q783.596 968.191 787.207 961.107 Q790.864 953.978 790.864 939.765 Q790.864 925.506 787.207 918.422 Q783.596 911.293 776.327 911.293 M776.327 903.885 Q787.948 903.885 794.059 913.098 Q800.216 922.265 800.216 939.765 Q800.216 957.218 794.059 966.431 Q787.948 975.598 776.327 975.598 Q764.707 975.598 758.55 966.431 Q752.439 957.218 752.439 939.765 Q752.439 922.265 758.55 913.098 Q764.707 903.885 776.327 903.885 Z" fill="#000000" fill-rule="nonzero" fill-opacity="1" /><path clip-path="url(#clip540)" d="M1537.75 966.385 L1570.39 966.385 L1570.39 974.255 L1526.51 974.255 L1526.51 966.385 Q1531.83 960.876 1541 951.617 Q1550.21 942.311 1552.57 939.626 Q1557.06 934.58 1558.82 931.108 Q1560.63 927.589 1560.63 924.209 Q1560.63 918.7 1556.74 915.228 Q1552.89 911.756 1546.69 911.756 Q1542.29 911.756 1537.38 913.284 Q1532.52 914.811 1526.97 917.913 L1526.97 908.469 Q1532.62 906.2 1537.52 905.043 Q1542.43 903.885 1546.5 903.885 Q1557.25 903.885 1563.63 909.256 Q1570.02 914.626 1570.02 923.608 Q1570.02 927.867 1568.4 931.709 Q1566.83 935.506 1562.62 940.691 Q1561.46 942.033 1555.25 948.469 Q1549.05 954.857 1537.75 966.385 Z" fill="#000000" fill-rule="nonzero" fill-opacity="1" /><path clip-path="url(#clip540)" d="M2326.59 913.284 L2302.98 950.181 L2326.59 950.181 L2326.59 913.284 M2324.14 905.135 L2335.9 905.135 L2335.9 950.181 L2345.76 950.181 L2345.76 957.959 L2335.9 957.959 L2335.9 974.255 L2326.59 974.255 L2326.59 957.959 L2295.39 957.959 L2295.39 948.931 L2324.14 905.135 Z" fill="#000000" fill-rule="nonzero" fill-opacity="1" /><path clip-path="url(#clip540)" d="M3093.5 935.969 Q3087.21 935.969 3083.5 940.274 Q3079.85 944.58 3079.85 952.08 Q3079.85 959.533 3083.5 963.885 Q3087.21 968.191 3093.5 968.191 Q3099.8 968.191 3103.46 963.885 Q3107.16 959.533 3107.16 952.08 Q3107.16 944.58 3103.46 940.274 Q3099.8 935.969 3093.5 935.969 M3112.07 906.663 L3112.07 915.182 Q3108.55 913.515 3104.94 912.635 Q3101.37 911.756 3097.86 911.756 Q3088.6 911.756 3083.69 918.006 Q3078.83 924.256 3078.13 936.895 Q3080.86 932.867 3084.99 930.737 Q3089.11 928.561 3094.06 928.561 Q3104.48 928.561 3110.49 934.904 Q3116.56 941.2 3116.56 952.08 Q3116.56 962.728 3110.26 969.163 Q3103.97 975.598 3093.5 975.598 Q3081.51 975.598 3075.17 966.431 Q3068.83 957.218 3068.83 939.765 Q3068.83 923.376 3076.61 913.654 Q3084.38 903.885 3097.49 903.885 Q3101 903.885 3104.57 904.58 Q3108.18 905.274 3112.07 906.663 Z" fill="#000000" fill-rule="nonzero" fill-opacity="1" /><path clip-path="url(#clip540)" d="M3864.82 941.432 Q3858.15 941.432 3854.31 944.996 Q3850.51 948.561 3850.51 954.811 Q3850.51 961.061 3854.31 964.626 Q3858.15 968.191 3864.82 968.191 Q3871.48 968.191 3875.32 964.626 Q3879.17 961.015 3879.17 954.811 Q3879.17 948.561 3875.32 944.996 Q3871.53 941.432 3864.82 941.432 M3855.46 937.45 Q3849.45 935.969 3846.07 931.848 Q3842.73 927.728 3842.73 921.802 Q3842.73 913.515 3848.61 908.7 Q3854.54 903.885 3864.82 903.885 Q3875.14 903.885 3881.02 908.7 Q3886.9 913.515 3886.9 921.802 Q3886.9 927.728 3883.52 931.848 Q3880.19 935.969 3874.21 937.45 Q3880.97 939.024 3884.72 943.607 Q3888.52 948.191 3888.52 954.811 Q3888.52 964.857 3882.36 970.228 Q3876.25 975.598 3864.82 975.598 Q3853.38 975.598 3847.22 970.228 Q3841.11 964.857 3841.11 954.811 Q3841.11 948.191 3844.91 943.607 Q3848.7 939.024 3855.46 937.45 M3852.04 922.682 Q3852.04 928.052 3855.37 931.061 Q3858.75 934.07 3864.82 934.07 Q3870.83 934.07 3874.21 931.061 Q3877.64 928.052 3877.64 922.682 Q3877.64 917.311 3874.21 914.302 Q3870.83 911.293 3864.82 911.293 Q3858.75 911.293 3855.37 914.302 Q3852.04 917.311 3852.04 922.682 Z" fill="#000000" fill-rule="nonzero" fill-opacity="1" /><path clip-path="url(#clip540)" d="M4586.31 966.385 L4601.59 966.385 L4601.59 913.654 L4584.97 916.987 L4584.97 908.469 L4601.5 905.135 L4610.85 905.135 L4610.85 966.385 L4626.13 966.385 L4626.13 974.255 L4586.31 974.255 L4586.31 966.385 Z" fill="#000000" fill-rule="nonzero" fill-opacity="1" /><path clip-path="url(#clip540)" d="M4665.02 911.293 Q4657.79 911.293 4654.14 918.422 Q4650.53 925.506 4650.53 939.765 Q4650.53 953.978 4654.14 961.107 Q4657.79 968.191 4665.02 968.191 Q4672.28 968.191 4675.9 961.107 Q4679.55 953.978 4679.55 939.765 Q4679.55 925.506 4675.9 918.422 Q4672.28 911.293 4665.02 911.293 M4665.02 903.885 Q4676.64 903.885 4682.75 913.098 Q4688.9 922.265 4688.9 939.765 Q4688.9 957.218 4682.75 966.431 Q4676.64 975.598 4665.02 975.598 Q4653.4 975.598 4647.24 966.431 Q4641.13 957.218 4641.13 939.765 Q4641.13 922.265 4647.24 913.098 Q4653.4 903.885 4665.02 903.885 Z" fill="#000000" fill-rule="nonzero" fill-opacity="1" /><path clip-path="url(#clip540)" d="M2423.87 1040.69 L2489.65 1040.69 L2489.65 1049.54 L2462.05 1049.54 L2462.05 1118.45 L2451.48 1118.45 L2451.48 1049.54 L2423.87 1049.54 L2423.87 1040.69 Z" fill="#000000" fill-rule="nonzero" fill-opacity="1" /><path clip-path="url(#clip540)" d="M2496.11 1060.11 L2505.7 1060.11 L2505.7 1118.45 L2496.11 1118.45 L2496.11 1060.11 M2496.11 1037.41 L2505.7 1037.41 L2505.7 1049.54 L2496.11 1049.54 L2496.11 1037.41 Z" fill="#000000" fill-rule="nonzero" fill-opacity="1" /><path clip-path="url(#clip540)" d="M2571.16 1071.31 Q2574.76 1064.85 2579.76 1061.78 Q2584.76 1058.71 2591.53 1058.71 Q2600.64 1058.71 2605.59 1065.11 Q2610.54 1071.47 2610.54 1083.24 L2610.54 1118.45 L2600.9 1118.45 L2600.9 1083.55 Q2600.9 1075.17 2597.94 1071.1 Q2594.97 1067.04 2588.87 1067.04 Q2581.42 1067.04 2577.1 1071.99 Q2572.78 1076.94 2572.78 1085.48 L2572.78 1118.45 L2563.14 1118.45 L2563.14 1083.55 Q2563.14 1075.11 2560.17 1071.1 Q2557.21 1067.04 2551.01 1067.04 Q2543.66 1067.04 2539.34 1072.04 Q2535.02 1076.99 2535.02 1085.48 L2535.02 1118.45 L2525.38 1118.45 L2525.38 1060.11 L2535.02 1060.11 L2535.02 1069.18 Q2538.3 1063.81 2542.88 1061.26 Q2547.47 1058.71 2553.77 1058.71 Q2560.12 1058.71 2564.55 1061.94 Q2569.03 1065.17 2571.16 1071.31 Z" fill="#000000" fill-rule="nonzero" fill-opacity="1" /><path clip-path="url(#clip540)" d="M2679.55 1086.89 L2679.55 1091.57 L2635.49 1091.57 Q2636.11 1101.47 2641.42 1106.68 Q2646.79 1111.83 2656.32 1111.83 Q2661.84 1111.83 2667 1110.48 Q2672.21 1109.12 2677.31 1106.42 L2677.31 1115.48 Q2672.15 1117.67 2666.74 1118.81 Q2661.32 1119.96 2655.75 1119.96 Q2641.79 1119.96 2633.61 1111.83 Q2625.49 1103.71 2625.49 1089.85 Q2625.49 1075.53 2633.2 1067.15 Q2640.96 1058.71 2654.08 1058.71 Q2665.85 1058.71 2672.67 1066.31 Q2679.55 1073.86 2679.55 1086.89 M2669.97 1084.07 Q2669.86 1076.21 2665.54 1071.52 Q2661.27 1066.83 2654.18 1066.83 Q2646.16 1066.83 2641.32 1071.36 Q2636.53 1075.9 2635.8 1084.12 L2669.97 1084.07 Z" fill="#000000" fill-rule="nonzero" fill-opacity="1" /><path clip-path="url(#clip540)" d="M2752.21 1037.51 Q2745.23 1049.49 2741.84 1061.21 Q2738.46 1072.93 2738.46 1084.96 Q2738.46 1096.99 2741.84 1108.81 Q2745.28 1120.58 2752.21 1132.51 L2743.87 1132.51 Q2736.06 1120.27 2732.15 1108.45 Q2728.3 1096.62 2728.3 1084.96 Q2728.3 1073.34 2732.15 1061.57 Q2736.01 1049.8 2743.87 1037.51 L2752.21 1037.51 Z" fill="#000000" fill-rule="nonzero" fill-opacity="1" /><path clip-path="url(#clip540)" d="M2809.18 1068.97 L2809.18 1037.41 L2818.77 1037.41 L2818.77 1118.45 L2809.18 1118.45 L2809.18 1109.7 Q2806.16 1114.91 2801.53 1117.46 Q2796.94 1119.96 2790.49 1119.96 Q2779.91 1119.96 2773.25 1111.52 Q2766.63 1103.08 2766.63 1089.33 Q2766.63 1075.58 2773.25 1067.15 Q2779.91 1058.71 2790.49 1058.71 Q2796.94 1058.71 2801.53 1061.26 Q2806.16 1063.76 2809.18 1068.97 M2776.53 1089.33 Q2776.53 1099.91 2780.85 1105.95 Q2785.23 1111.94 2792.83 1111.94 Q2800.43 1111.94 2804.81 1105.95 Q2809.18 1099.91 2809.18 1089.33 Q2809.18 1078.76 2804.81 1072.77 Q2800.43 1066.73 2792.83 1066.73 Q2785.23 1066.73 2780.85 1072.77 Q2776.53 1078.76 2776.53 1089.33 Z" fill="#000000" fill-rule="nonzero" fill-opacity="1" /><path clip-path="url(#clip540)" d="M2865.02 1089.12 Q2853.4 1089.12 2848.92 1091.78 Q2844.44 1094.44 2844.44 1100.84 Q2844.44 1105.95 2847.78 1108.97 Q2851.16 1111.94 2856.94 1111.94 Q2864.91 1111.94 2869.7 1106.31 Q2874.55 1100.64 2874.55 1091.26 L2874.55 1089.12 L2865.02 1089.12 M2884.13 1085.17 L2884.13 1118.45 L2874.55 1118.45 L2874.55 1109.59 Q2871.27 1114.91 2866.37 1117.46 Q2861.48 1119.96 2854.39 1119.96 Q2845.43 1119.96 2840.12 1114.96 Q2834.86 1109.91 2834.86 1101.47 Q2834.86 1091.62 2841.42 1086.62 Q2848.04 1081.62 2861.11 1081.62 L2874.55 1081.62 L2874.55 1080.69 Q2874.55 1074.07 2870.17 1070.48 Q2865.85 1066.83 2857.99 1066.83 Q2852.99 1066.83 2848.25 1068.03 Q2843.51 1069.23 2839.13 1071.62 L2839.13 1062.77 Q2844.39 1060.74 2849.34 1059.75 Q2854.29 1058.71 2858.98 1058.71 Q2871.63 1058.71 2877.88 1065.27 Q2884.13 1071.83 2884.13 1085.17 Z" fill="#000000" fill-rule="nonzero" fill-opacity="1" /><path clip-path="url(#clip540)" d="M2928.14 1123.86 Q2924.08 1134.28 2920.23 1137.46 Q2916.37 1140.63 2909.91 1140.63 L2902.26 1140.63 L2902.26 1132.61 L2907.88 1132.61 Q2911.84 1132.61 2914.03 1130.74 Q2916.21 1128.86 2918.87 1121.88 L2920.59 1117.51 L2897 1060.11 L2907.15 1060.11 L2925.38 1105.74 L2943.61 1060.11 L2953.77 1060.11 L2928.14 1123.86 Z" fill="#000000" fill-rule="nonzero" fill-opacity="1" /><path clip-path="url(#clip540)" d="M2965.49 1037.51 L2973.82 1037.51 Q2981.63 1049.8 2985.49 1061.57 Q2989.39 1073.34 2989.39 1084.96 Q2989.39 1096.62 2985.49 1108.45 Q2981.63 1120.27 2973.82 1132.51 L2965.49 1132.51 Q2972.41 1120.58 2975.8 1108.81 Q2979.24 1096.99 2979.24 1084.96 Q2979.24 1072.93 2975.8 1061.21 Q2972.41 1049.49 2965.49 1037.51 Z" fill="#000000" fill-rule="nonzero" fill-opacity="1" /><polyline clip-path="url(#clip540)" style="stroke:#000000; stroke-linecap:round; stroke-linejoin:round; stroke-width:4; stroke-opacity:1; fill:none" points="660.509,849.455 660.509,47.2441 "/>
<polyline clip-path="url(#clip540)" style="stroke:#000000; stroke-linecap:round; stroke-linejoin:round; stroke-width:4; stroke-opacity:1; fill:none" points="660.509,826.783 679.407,826.783 "/>
<polyline clip-path="url(#clip540)" style="stroke:#000000; stroke-linecap:round; stroke-linejoin:round; stroke-width:4; stroke-opacity:1; fill:none" points="660.509,640.364 679.407,640.364 "/>
<polyline clip-path="url(#clip540)" style="stroke:#000000; stroke-linecap:round; stroke-linejoin:round; stroke-width:4; stroke-opacity:1; fill:none" points="660.509,453.944 679.407,453.944 "/>
<polyline clip-path="url(#clip540)" style="stroke:#000000; stroke-linecap:round; stroke-linejoin:round; stroke-width:4; stroke-opacity:1; fill:none" points="660.509,267.525 679.407,267.525 "/>
<polyline clip-path="url(#clip540)" style="stroke:#000000; stroke-linecap:round; stroke-linejoin:round; stroke-width:4; stroke-opacity:1; fill:none" points="660.509,81.105 679.407,81.105 "/>
<path clip-path="url(#clip540)" d="M564.62 798.38 Q557.398 798.38 553.741 805.51 Q550.13 812.593 550.13 826.853 Q550.13 841.065 553.741 848.195 Q557.398 855.278 564.62 855.278 Q571.889 855.278 575.5 848.195 Q579.157 841.065 579.157 826.853 Q579.157 812.593 575.5 805.51 Q571.889 798.38 564.62 798.38 M564.62 790.973 Q576.241 790.973 582.352 800.186 Q588.509 809.353 588.509 826.853 Q588.509 844.306 582.352 853.519 Q576.241 862.686 564.62 862.686 Q553 862.686 546.843 853.519 Q540.731 844.306 540.731 826.853 Q540.731 809.353 546.843 800.186 Q553 790.973 564.62 790.973 Z" fill="#000000" fill-rule="nonzero" fill-opacity="1" /><path clip-path="url(#clip540)" d="M219.35 679.948 L234.628 679.948 L234.628 627.217 L218.007 630.551 L218.007 622.032 L234.535 618.699 L243.887 618.699 L243.887 679.948 L259.165 679.948 L259.165 687.819 L219.35 687.819 L219.35 679.948 Z" fill="#000000" fill-rule="nonzero" fill-opacity="1" /><path clip-path="url(#clip540)" d="M278.053 676.06 L287.822 676.06 L287.822 687.819 L278.053 687.819 L278.053 676.06 Z" fill="#000000" fill-rule="nonzero" fill-opacity="1" /><path clip-path="url(#clip540)" d="M328.192 624.856 Q320.97 624.856 317.313 631.986 Q313.701 639.069 313.701 653.328 Q313.701 667.541 317.313 674.671 Q320.97 681.754 328.192 681.754 Q335.461 681.754 339.072 674.671 Q342.729 667.541 342.729 653.328 Q342.729 639.069 339.072 631.986 Q335.461 624.856 328.192 624.856 M328.192 617.449 Q339.812 617.449 345.923 626.662 Q352.081 635.828 352.081 653.328 Q352.081 670.782 345.923 679.995 Q339.812 689.161 328.192 689.161 Q316.572 689.161 310.414 679.995 Q304.303 670.782 304.303 653.328 Q304.303 635.828 310.414 626.662 Q316.572 617.449 328.192 617.449 Z" fill="#000000" fill-rule="nonzero" fill-opacity="1" /><path clip-path="url(#clip540)" d="M424.858 636.893 L403.701 658.143 L424.858 679.3 L419.349 684.902 L398.099 663.652 L376.849 684.902 L371.386 679.3 L392.497 658.143 L371.386 636.893 L376.849 631.291 L398.099 652.541 L419.349 631.291 L424.858 636.893 Z" fill="#000000" fill-rule="nonzero" fill-opacity="1" /><path clip-path="url(#clip540)" d="M449.58 679.948 L464.858 679.948 L464.858 627.217 L448.238 630.551 L448.238 622.032 L464.765 618.699 L474.117 618.699 L474.117 679.948 L489.395 679.948 L489.395 687.819 L449.58 687.819 L449.58 679.948 Z" fill="#000000" fill-rule="nonzero" fill-opacity="1" /><path clip-path="url(#clip540)" d="M528.284 624.856 Q521.061 624.856 517.404 631.986 Q513.793 639.069 513.793 653.328 Q513.793 667.541 517.404 674.671 Q521.061 681.754 528.284 681.754 Q535.552 681.754 539.163 674.671 Q542.821 667.541 542.821 653.328 Q542.821 639.069 539.163 631.986 Q535.552 624.856 528.284 624.856 M528.284 617.449 Q539.904 617.449 546.015 626.662 Q552.172 635.828 552.172 653.328 Q552.172 670.782 546.015 679.995 Q539.904 689.161 528.284 689.161 Q516.663 689.161 510.506 679.995 Q504.395 670.782 504.395 653.328 Q504.395 635.828 510.506 626.662 Q516.663 617.449 528.284 617.449 Z" fill="#000000" fill-rule="nonzero" fill-opacity="1" /><path clip-path="url(#clip540)" d="M554.542 576.838 L584.371 576.838 L584.371 583.233 L561.501 583.233 L561.501 597 Q563.156 596.436 564.811 596.172 Q566.466 595.871 568.121 595.871 Q577.525 595.871 583.017 601.025 Q588.509 606.178 588.509 614.98 Q588.509 624.045 582.867 629.086 Q577.224 634.089 566.955 634.089 Q563.419 634.089 559.733 633.487 Q556.084 632.885 552.172 631.681 L552.172 624.045 Q555.558 625.889 559.169 626.791 Q562.78 627.694 566.805 627.694 Q573.312 627.694 577.111 624.271 Q580.911 620.848 580.911 614.98 Q580.911 609.112 577.111 605.689 Q573.312 602.266 566.805 602.266 Q563.758 602.266 560.711 602.943 Q557.702 603.62 554.542 605.05 L554.542 576.838 Z" fill="#000000" fill-rule="nonzero" fill-opacity="1" /><path clip-path="url(#clip540)" d="M225.785 493.529 L258.424 493.529 L258.424 501.399 L214.535 501.399 L214.535 493.529 Q219.859 488.02 229.026 478.76 Q238.239 469.455 240.6 466.77 Q245.091 461.724 246.85 458.251 Q248.655 454.733 248.655 451.353 Q248.655 445.844 244.767 442.372 Q240.924 438.9 234.72 438.9 Q230.322 438.9 225.415 440.427 Q220.554 441.955 214.998 445.057 L214.998 435.613 Q220.646 433.344 225.554 432.187 Q230.461 431.029 234.535 431.029 Q245.276 431.029 251.665 436.4 Q258.054 441.77 258.054 450.751 Q258.054 455.011 256.433 458.853 Q254.859 462.649 250.646 467.835 Q249.489 469.177 243.285 475.612 Q237.081 482.001 225.785 493.529 Z" fill="#000000" fill-rule="nonzero" fill-opacity="1" /><path clip-path="url(#clip540)" d="M278.053 489.64 L287.822 489.64 L287.822 501.399 L278.053 501.399 L278.053 489.64 Z" fill="#000000" fill-rule="nonzero" fill-opacity="1" /><path clip-path="url(#clip540)" d="M328.192 438.437 Q320.97 438.437 317.313 445.566 Q313.701 452.65 313.701 466.909 Q313.701 481.122 317.313 488.251 Q320.97 495.334 328.192 495.334 Q335.461 495.334 339.072 488.251 Q342.729 481.122 342.729 466.909 Q342.729 452.65 339.072 445.566 Q335.461 438.437 328.192 438.437 M328.192 431.029 Q339.812 431.029 345.923 440.242 Q352.081 449.409 352.081 466.909 Q352.081 484.362 345.923 493.575 Q339.812 502.742 328.192 502.742 Q316.572 502.742 310.414 493.575 Q304.303 484.362 304.303 466.909 Q304.303 449.409 310.414 440.242 Q316.572 431.029 328.192 431.029 Z" fill="#000000" fill-rule="nonzero" fill-opacity="1" /><path clip-path="url(#clip540)" d="M424.858 450.474 L403.701 471.723 L424.858 492.881 L419.349 498.483 L398.099 477.233 L376.849 498.483 L371.386 492.881 L392.497 471.723 L371.386 450.474 L376.849 444.872 L398.099 466.122 L419.349 444.872 L424.858 450.474 Z" fill="#000000" fill-rule="nonzero" fill-opacity="1" /><path clip-path="url(#clip540)" d="M449.58 493.529 L464.858 493.529 L464.858 440.798 L448.238 444.131 L448.238 435.613 L464.765 432.279 L474.117 432.279 L474.117 493.529 L489.395 493.529 L489.395 501.399 L449.58 501.399 L449.58 493.529 Z" fill="#000000" fill-rule="nonzero" fill-opacity="1" /><path clip-path="url(#clip540)" d="M528.284 438.437 Q521.061 438.437 517.404 445.566 Q513.793 452.65 513.793 466.909 Q513.793 481.122 517.404 488.251 Q521.061 495.334 528.284 495.334 Q535.552 495.334 539.163 488.251 Q542.821 481.122 542.821 466.909 Q542.821 452.65 539.163 445.566 Q535.552 438.437 528.284 438.437 M528.284 431.029 Q539.904 431.029 546.015 440.242 Q552.172 449.409 552.172 466.909 Q552.172 484.362 546.015 493.575 Q539.904 502.742 528.284 502.742 Q516.663 502.742 510.506 493.575 Q504.395 484.362 504.395 466.909 Q504.395 449.409 510.506 440.242 Q516.663 431.029 528.284 431.029 Z" fill="#000000" fill-rule="nonzero" fill-opacity="1" /><path clip-path="url(#clip540)" d="M554.542 390.418 L584.371 390.418 L584.371 396.813 L561.501 396.813 L561.501 410.58 Q563.156 410.016 564.811 409.753 Q566.466 409.452 568.121 409.452 Q577.525 409.452 583.017 414.605 Q588.509 419.759 588.509 428.561 Q588.509 437.626 582.867 442.666 Q577.224 447.669 566.955 447.669 Q563.419 447.669 559.733 447.067 Q556.084 446.466 552.172 445.262 L552.172 437.626 Q555.558 439.469 559.169 440.372 Q562.78 441.275 566.805 441.275 Q573.312 441.275 577.111 437.852 Q580.911 434.429 580.911 428.561 Q580.911 422.693 577.111 419.27 Q573.312 415.847 566.805 415.847 Q563.758 415.847 560.711 416.524 Q557.702 417.201 554.542 418.63 L554.542 390.418 Z" fill="#000000" fill-rule="nonzero" fill-opacity="1" /><path clip-path="url(#clip540)" d="M246.063 277.711 Q252.776 279.147 256.526 283.684 Q260.322 288.221 260.322 294.887 Q260.322 305.119 253.285 310.721 Q246.248 316.322 233.285 316.322 Q228.933 316.322 224.304 315.443 Q219.72 314.609 214.813 312.896 L214.813 303.869 Q218.702 306.137 223.332 307.295 Q227.961 308.452 233.007 308.452 Q241.804 308.452 246.387 304.98 Q251.017 301.508 251.017 294.887 Q251.017 288.776 246.711 285.35 Q242.452 281.878 234.813 281.878 L226.757 281.878 L226.757 274.193 L235.183 274.193 Q242.081 274.193 245.739 271.461 Q249.396 268.684 249.396 263.499 Q249.396 258.174 245.6 255.35 Q241.85 252.48 234.813 252.48 Q230.97 252.48 226.572 253.313 Q222.174 254.147 216.896 255.906 L216.896 247.573 Q222.22 246.091 226.85 245.35 Q231.526 244.61 235.646 244.61 Q246.294 244.61 252.498 249.471 Q258.702 254.286 258.702 262.526 Q258.702 268.267 255.415 272.248 Q252.128 276.184 246.063 277.711 Z" fill="#000000" fill-rule="nonzero" fill-opacity="1" /><path clip-path="url(#clip540)" d="M278.053 303.221 L287.822 303.221 L287.822 314.98 L278.053 314.98 L278.053 303.221 Z" fill="#000000" fill-rule="nonzero" fill-opacity="1" /><path clip-path="url(#clip540)" d="M328.192 252.017 Q320.97 252.017 317.313 259.147 Q313.701 266.23 313.701 280.489 Q313.701 294.702 317.313 301.832 Q320.97 308.915 328.192 308.915 Q335.461 308.915 339.072 301.832 Q342.729 294.702 342.729 280.489 Q342.729 266.23 339.072 259.147 Q335.461 252.017 328.192 252.017 M328.192 244.61 Q339.812 244.61 345.923 253.823 Q352.081 262.989 352.081 280.489 Q352.081 297.943 345.923 307.156 Q339.812 316.322 328.192 316.322 Q316.572 316.322 310.414 307.156 Q304.303 297.943 304.303 280.489 Q304.303 262.989 310.414 253.823 Q316.572 244.61 328.192 244.61 Z" fill="#000000" fill-rule="nonzero" fill-opacity="1" /><path clip-path="url(#clip540)" d="M424.858 264.054 L403.701 285.304 L424.858 306.461 L419.349 312.063 L398.099 290.813 L376.849 312.063 L371.386 306.461 L392.497 285.304 L371.386 264.054 L376.849 258.452 L398.099 279.702 L419.349 258.452 L424.858 264.054 Z" fill="#000000" fill-rule="nonzero" fill-opacity="1" /><path clip-path="url(#clip540)" d="M449.58 307.109 L464.858 307.109 L464.858 254.378 L448.238 257.712 L448.238 249.193 L464.765 245.86 L474.117 245.86 L474.117 307.109 L489.395 307.109 L489.395 314.98 L449.58 314.98 L449.58 307.109 Z" fill="#000000" fill-rule="nonzero" fill-opacity="1" /><path clip-path="url(#clip540)" d="M528.284 252.017 Q521.061 252.017 517.404 259.147 Q513.793 266.23 513.793 280.489 Q513.793 294.702 517.404 301.832 Q521.061 308.915 528.284 308.915 Q535.552 308.915 539.163 301.832 Q542.821 294.702 542.821 280.489 Q542.821 266.23 539.163 259.147 Q535.552 252.017 528.284 252.017 M528.284 244.61 Q539.904 244.61 546.015 253.823 Q552.172 262.989 552.172 280.489 Q552.172 297.943 546.015 307.156 Q539.904 316.322 528.284 316.322 Q516.663 316.322 510.506 307.156 Q504.395 297.943 504.395 280.489 Q504.395 262.989 510.506 253.823 Q516.663 244.61 528.284 244.61 Z" fill="#000000" fill-rule="nonzero" fill-opacity="1" /><path clip-path="url(#clip540)" d="M554.542 203.999 L584.371 203.999 L584.371 210.394 L561.501 210.394 L561.501 224.161 Q563.156 223.597 564.811 223.333 Q566.466 223.032 568.121 223.032 Q577.525 223.032 583.017 228.186 Q588.509 233.339 588.509 242.141 Q588.509 251.206 582.867 256.247 Q577.224 261.25 566.955 261.25 Q563.419 261.25 559.733 260.648 Q556.084 260.046 552.172 258.842 L552.172 251.206 Q555.558 253.05 559.169 253.952 Q562.78 254.855 566.805 254.855 Q573.312 254.855 577.111 251.432 Q580.911 248.009 580.911 242.141 Q580.911 236.273 577.111 232.85 Q573.312 229.427 566.805 229.427 Q563.758 229.427 560.711 230.104 Q557.702 230.781 554.542 232.211 L554.542 203.999 Z" fill="#000000" fill-rule="nonzero" fill-opacity="1" /><path clip-path="url(#clip540)" d="M243.424 67.5883 L219.813 104.486 L243.424 104.486 L243.424 67.5883 M240.97 59.4402 L252.73 59.4402 L252.73 104.486 L262.591 104.486 L262.591 112.264 L252.73 112.264 L252.73 128.56 L243.424 128.56 L243.424 112.264 L212.22 112.264 L212.22 103.236 L240.97 59.4402 Z" fill="#000000" fill-rule="nonzero" fill-opacity="1" /><path clip-path="url(#clip540)" d="M278.053 116.801 L287.822 116.801 L287.822 128.56 L278.053 128.56 L278.053 116.801 Z" fill="#000000" fill-rule="nonzero" fill-opacity="1" /><path clip-path="url(#clip540)" d="M328.192 65.5976 Q320.97 65.5976 317.313 72.7272 Q313.701 79.8105 313.701 94.0697 Q313.701 108.283 317.313 115.412 Q320.97 122.495 328.192 122.495 Q335.461 122.495 339.072 115.412 Q342.729 108.283 342.729 94.0697 Q342.729 79.8105 339.072 72.7272 Q335.461 65.5976 328.192 65.5976 M328.192 58.1902 Q339.812 58.1902 345.923 67.4031 Q352.081 76.5698 352.081 94.0697 Q352.081 111.523 345.923 120.736 Q339.812 129.903 328.192 129.903 Q316.572 129.903 310.414 120.736 Q304.303 111.523 304.303 94.0697 Q304.303 76.5698 310.414 67.4031 Q316.572 58.1902 328.192 58.1902 Z" fill="#000000" fill-rule="nonzero" fill-opacity="1" /><path clip-path="url(#clip540)" d="M424.858 77.6346 L403.701 98.8845 L424.858 120.042 L419.349 125.644 L398.099 104.394 L376.849 125.644 L371.386 120.042 L392.497 98.8845 L371.386 77.6346 L376.849 72.0328 L398.099 93.2826 L419.349 72.0328 L424.858 77.6346 Z" fill="#000000" fill-rule="nonzero" fill-opacity="1" /><path clip-path="url(#clip540)" d="M449.58 120.69 L464.858 120.69 L464.858 67.9587 L448.238 71.292 L448.238 62.7735 L464.765 59.4402 L474.117 59.4402 L474.117 120.69 L489.395 120.69 L489.395 128.56 L449.58 128.56 L449.58 120.69 Z" fill="#000000" fill-rule="nonzero" fill-opacity="1" /><path clip-path="url(#clip540)" d="M528.284 65.5976 Q521.061 65.5976 517.404 72.7272 Q513.793 79.8105 513.793 94.0697 Q513.793 108.283 517.404 115.412 Q521.061 122.495 528.284 122.495 Q535.552 122.495 539.163 115.412 Q542.821 108.283 542.821 94.0697 Q542.821 79.8105 539.163 72.7272 Q535.552 65.5976 528.284 65.5976 M528.284 58.1902 Q539.904 58.1902 546.015 67.4031 Q552.172 76.5698 552.172 94.0697 Q552.172 111.523 546.015 120.736 Q539.904 129.903 528.284 129.903 Q516.663 129.903 510.506 120.736 Q504.395 111.523 504.395 94.0697 Q504.395 76.5698 510.506 67.4031 Q516.663 58.1902 528.284 58.1902 Z" fill="#000000" fill-rule="nonzero" fill-opacity="1" /><path clip-path="url(#clip540)" d="M554.542 17.5794 L584.371 17.5794 L584.371 23.9741 L561.501 23.9741 L561.501 37.7414 Q563.156 37.1771 564.811 36.9138 Q566.466 36.6129 568.121 36.6129 Q577.525 36.6129 583.017 41.7662 Q588.509 46.9195 588.509 55.7216 Q588.509 64.7869 582.867 69.8274 Q577.224 74.8303 566.955 74.8303 Q563.419 74.8303 559.733 74.2284 Q556.084 73.6266 552.172 72.4229 L552.172 64.7869 Q555.558 66.6301 559.169 67.5329 Q562.78 68.4356 566.805 68.4356 Q573.312 68.4356 577.111 65.0126 Q580.911 61.5896 580.911 55.7216 Q580.911 49.8536 577.111 46.4305 Q573.312 43.0075 566.805 43.0075 Q563.758 43.0075 560.711 43.6846 Q557.702 44.3617 554.542 45.7911 L554.542 17.5794 Z" fill="#000000" fill-rule="nonzero" fill-opacity="1" /><path clip-path="url(#clip542)" d="M776.327 826.751 L792.413 826.499 L808.499 826.384 L824.585 826.275 L840.671 826.172 L856.757 826.078 L872.843 825.925 L888.928 824.877 L905.014 824.52 L921.1 824.441 L937.186 824.368 L953.272 824.301 L969.358 824.24 L985.444 824.185 L1001.53 824.137 L1017.62 824.095 L1033.7 824.055 L1049.79 824.017 L1065.87 823.978 L1081.96 823.936 L1098.04 823.895 L1114.13 823.855 L1130.22 823.811 L1146.3 823.763 L1162.39 823.712 L1178.47 823.667 L1194.56 823.625 L1210.65 823.591 L1226.73 823.565 L1242.82 823.548 L1258.9 823.532 L1274.99 823.513 L1291.08 823.499 L1307.16 823.493 L1323.25 823.492 L1339.33 823.495 L1355.42 823.5 L1371.5 823.508 L1387.59 823.518 L1403.68 823.529 L1419.76 823.539 L1435.85 823.548 L1451.93 823.555 L1468.02 823.557 L1484.11 823.561 L1500.19 823.561 L1516.28 823.553 L1532.36 823.535 L1548.45 823.514 L1564.54 823.495 L1580.62 823.478 L1596.71 823.466 L1612.79 823.455 L1628.88 823.442 L1644.96 823.423 L1661.05 823.405 L1677.14 823.399 L1693.22 823.403 L1709.31 823.417 L1725.39 823.436 L1741.48 823.458 L1757.57 823.482 L1773.65 823.508 L1789.74 823.533 L1805.82 823.562 L1821.91 823.592 L1838 823.614 L1854.08 823.627 L1870.17 823.635 L1886.25 823.649 L1902.34 823.652 L1918.42 823.646 L1934.51 823.635 L1950.6 823.627 L1966.68 823.621 L1982.77 823.618 L1998.85 823.617 L2014.94 823.612 L2031.03 823.603 L2047.11 823.593 L2063.2 823.594 L2079.28 823.603 L2095.37 823.621 L2111.46 823.643 L2127.54 823.675 L2143.63 823.714 L2159.71 823.753 L2175.8 823.792 L2191.88 823.828 L2207.97 823.866 L2224.06 823.896 L2240.14 823.918 L2256.23 823.933 L2272.31 823.94 L2288.4 823.936 L2304.49 823.923 L2320.57 823.907 L2336.66 823.905 L2352.74 823.904 L2368.83 823.908 L2384.91 823.915 L2401 823.918 L2417.09 823.915 L2433.17 823.911 L2449.26 823.913 L2465.34 823.926 L2481.43 823.954 L2497.52 823.985 L2513.6 824.016 L2529.69 824.047 L2545.77 824.079 L2561.86 824.11 L2577.95 824.139 L2594.03 824.168 L2610.12 824.193 L2626.2 824.216 L2642.29 824.233 L2658.37 824.243 L2674.46 824.243 L2690.55 824.234 L2706.63 824.222 L2722.72 824.212 L2738.8 824.205 L2754.89 824.208 L2770.98 824.218 L2787.06 824.223 L2803.15 824.222 L2819.23 824.215 L2835.32 824.217 L2851.41 824.231 L2867.49 824.251 L2883.58 824.273 L2899.66 824.295 L2915.75 824.318 L2931.83 824.342 L2947.92 824.367 L2964.01 824.392 L2980.09 824.416 L2996.18 824.438 L3012.26 824.458 L3028.35 824.473 L3044.44 824.482 L3060.52 824.48 L3076.61 824.471 L3092.69 824.458 L3108.78 824.449 L3124.87 824.447 L3140.95 824.45 L3157.04 824.461 L3173.12 824.469 L3189.21 824.472 L3205.29 824.467 L3221.38 824.462 L3237.47 824.467 L3253.55 824.482 L3269.64 824.499 L3285.72 824.517 L3301.81 824.537 L3317.9 824.558 L3333.98 824.58 L3350.07 824.603 L3366.15 824.625 L3382.24 824.646 L3398.33 824.665 L3414.41 824.679 L3430.5 824.687 L3446.58 824.685 L3462.67 824.675 L3478.75 824.662 L3494.84 824.655 L3510.93 824.653 L3527.01 824.657 L3543.1 824.665 L3559.18 824.674 L3575.27 824.678 L3591.36 824.673 L3607.44 824.668 L3623.53 824.671 L3639.61 824.681 L3655.7 824.696 L3671.79 824.713 L3687.87 824.731 L3703.96 824.75 L3720.04 824.771 L3736.13 824.792 L3752.21 824.814 L3768.3 824.834 L3784.39 824.853 L3800.47 824.867 L3816.56 824.874 L3832.64 824.872 L3848.73 824.862 L3864.82 824.848 L3880.9 824.843 L3896.99 824.841 L3913.07 824.844 L3929.16 824.851 L3945.24 824.86 L3961.33 824.864 L3977.42 824.86 L3993.5 824.854 L4009.59 824.857 L4025.67 824.865 L4041.76 824.879 L4057.85 824.894 L4073.93 824.91 L4090.02 824.928 L4106.1 824.948 L4122.19 824.968 L4138.28 824.989 L4154.36 825.009 L4170.45 825.027 L4186.53 825.041 L4202.62 825.049 L4218.7 825.046 L4234.79 825.036 L4250.88 825.022 L4266.96 825.017 L4283.05 825.015 L4299.13 825.017 L4315.22 825.025 L4331.31 825.034 L4347.39 825.038 L4363.48 825.034 L4379.56 825.028 L4395.65 825.03 L4411.74 825.036 L4427.82 825.049 L4443.91 825.063 L4459.99 825.078 L4476.08 825.095 L4492.16 825.114 L4508.25 825.133 L4524.34 825.153 L4540.42 825.173 L4556.51 825.19 L4572.59 825.204 L4588.68 825.211 L4604.77 825.209 L4620.85 825.198 L4636.94 825.185 L4636.94 406.855 L4620.85 406.522 L4604.77 406.181 L4588.68 405.83 L4572.59 405.466 L4556.51 405.096 L4540.42 404.498 L4524.34 403.211 L4508.25 401.229 L4492.16 398.63 L4476.08 395.541 L4459.99 392.128 L4443.91 388.584 L4427.82 385.11 L4411.74 381.911 L4395.65 379.177 L4379.56 377.099 L4363.48 375.939 L4347.39 377.593 L4331.31 377.272 L4315.22 376.943 L4299.13 376.606 L4283.05 376.261 L4266.96 375.912 L4250.88 375.558 L4234.79 375.201 L4218.7 374.837 L4202.62 374.462 L4186.53 374.076 L4170.45 373.682 L4154.36 373.049 L4138.28 371.672 L4122.19 369.546 L4106.1 366.757 L4090.02 363.441 L4073.93 359.776 L4057.85 355.968 L4041.76 352.238 L4025.67 348.798 L4009.59 345.865 L3993.5 343.628 L3977.42 342.366 L3961.33 344.146 L3945.24 343.801 L3929.16 343.448 L3913.07 343.087 L3896.99 342.717 L3880.9 342.343 L3864.82 341.964 L3848.73 341.581 L3832.64 341.192 L3816.56 340.792 L3800.47 340.379 L3784.39 339.96 L3768.3 339.287 L3752.21 337.811 L3736.13 335.53 L3720.04 332.534 L3703.96 328.971 L3687.87 325.033 L3671.79 320.94 L3655.7 316.93 L3639.61 313.232 L3623.53 310.072 L3607.44 307.66 L3591.36 306.281 L3575.27 308.169 L3559.18 307.794 L3543.1 307.411 L3527.01 307.017 L3510.93 306.614 L3494.84 306.205 L3478.75 305.792 L3462.67 305.373 L3446.58 304.946 L3430.5 304.509 L3414.41 304.058 L3398.33 303.6 L3382.24 302.867 L3366.15 301.269 L3350.07 298.8 L3333.98 295.559 L3317.9 291.707 L3301.81 287.446 L3285.72 283.017 L3269.64 278.671 L3253.55 274.66 L3237.47 271.224 L3221.38 268.583 L3205.29 267.03 L3189.21 269.028 L3173.12 268.583 L3157.04 268.122 L3140.95 267.646 L3124.87 267.156 L3108.78 266.655 L3092.69 266.144 L3076.61 265.624 L3060.52 265.09 L3044.44 264.539 L3028.35 263.971 L3012.26 263.389 L2996.18 262.508 L2980.09 260.683 L2964.01 257.905 L2947.92 254.28 L2931.83 249.977 L2915.75 245.218 L2899.66 240.259 L2883.58 235.376 L2867.49 230.842 L2851.41 226.844 L2835.32 222.842 L2819.23 220.43 L2803.15 222.315 L2787.06 222.44 L2770.98 222.526 L2754.89 222.585 L2738.8 222.399 L2722.72 221.665 L2706.63 220.834 L2690.55 219.965 L2674.46 219.062 L2658.37 218.124 L2642.29 217.148 L2626.2 216.139 L2610.12 214.844 L2594.03 212.484 L2577.95 209.04 L2561.86 204.624 L2545.77 199.414 L2529.69 193.658 L2513.6 187.634 L2497.52 181.647 L2481.43 175.732 L2465.34 169.781 L2449.26 165.306 L2433.17 162.786 L2417.09 162.38 L2401 163.032 L2384.91 163.702 L2368.83 164.388 L2352.74 165.092 L2336.66 165.815 L2320.57 166.555 L2304.49 167.307 L2288.4 168.055 L2272.31 168.751 L2256.23 169.295 L2240.14 169.571 L2224.06 168.674 L2207.97 165.611 L2191.88 160.791 L2175.8 154.668 L2159.71 147.371 L2143.63 139.112 L2127.54 130.422 L2111.46 121.937 L2095.37 114.284 L2079.28 108.048 L2063.2 103.715 L2047.11 101.662 L2031.03 102.014 L2014.94 103.593 L1998.85 105.219 L1982.77 106.892 L1966.68 108.612 L1950.6 110.383 L1934.51 112.206 L1918.42 114.082 L1902.34 116.008 L1886.25 117.98 L1870.17 119.991 L1854.08 122 L1838 122.858 L1821.91 121.463 L1805.82 117.989 L1789.74 112.738 L1773.65 106.126 L1757.57 98.6684 L1741.48 90.962 L1725.39 83.6407 L1709.31 77.3452 L1693.22 72.6571 L1677.14 70.0763 L1661.05 69.9482 L1644.96 72.4226 L1628.88 76.2622 L1612.79 80.2186 L1596.71 84.2931 L1580.62 88.4898 L1564.54 92.814 L1548.45 97.2692 L1532.36 101.858 L1516.28 106.582 L1500.19 111.439 L1484.11 116.431 L1468.02 121.567 L1451.93 125.76 L1435.85 127.937 L1419.76 128.308 L1403.68 127.202 L1387.59 125.054 L1371.5 122.385 L1355.42 119.775 L1339.33 117.82 L1323.25 117.095 L1307.16 118.105 L1291.08 121.24 L1274.99 126.76 L1258.9 134.773 L1242.82 144.174 L1226.73 153.864 L1210.65 163.85 L1194.56 174.142 L1178.47 184.75 L1162.39 195.683 L1146.3 206.953 L1130.22 218.564 L1114.13 230.522 L1098.04 242.835 L1081.96 255.565 L1065.87 268.005 L1049.79 279.498 L1033.7 290.337 L1017.62 300.886 L1001.53 311.558 L985.444 322.785 L969.358 334.982 L953.272 348.511 L937.186 363.643 L921.1 380.54 L905.014 399.24 L888.928 419.994 L872.843 655.592 L856.757 678.621 L840.671 702.459 L824.585 727.031 L808.499 752.086 L792.413 776.331 L776.327 816.336  Z" fill="#aeaeae" fill-rule="evenodd" fill-opacity="0.5"/>
<polyline clip-path="url(#clip542)" style="stroke:#aeaeae; stroke-linecap:round; stroke-linejoin:round; stroke-width:0; stroke-opacity:1; fill:none" points="776.327,826.734 792.413,826.481 808.499,826.359 824.585,826.24 840.671,826.126 856.757,826.015 872.843,825.845 888.928,824.79 905.014,824.415 921.1,824.324 937.186,824.244 953.272,824.175 969.358,824.114 985.444,824.061 1001.53,824.012 1017.62,823.965 1033.7,823.917 1049.79,823.868 1065.87,823.813 1081.96,823.753 1098.04,823.693 1114.13,823.635 1130.22,823.578 1146.3,823.522 1162.39,823.467 1178.47,823.416 1194.56,823.366 1210.65,823.319 1226.73,823.273 1242.82,823.228 1258.9,823.184 1274.99,823.143 1291.08,823.114 1307.16,823.097 1323.25,823.093 1339.33,823.098 1355.42,823.109 1371.5,823.125 1387.59,823.141 1403.68,823.154 1419.76,823.161 1435.85,823.16 1451.93,823.15 1468.02,823.129 1484.11,823.105 1500.19,823.082 1516.28,823.059 1532.36,823.035 1548.45,823.013 1564.54,822.992 1580.62,822.972 1596.71,822.954 1612.79,822.936 1628.88,822.919 1644.96,822.901 1661.05,822.886 1677.14,822.883 1693.22,822.893 1709.31,822.914 1725.39,822.944 1741.48,822.981 1757.57,823.02 1773.65,823.058 1789.74,823.092 1805.82,823.119 1821.91,823.137 1838,823.143 1854.08,823.139 1870.17,823.131 1886.25,823.122 1902.34,823.113 1918.42,823.103 1934.51,823.094 1950.6,823.086 1966.68,823.079 1982.77,823.072 1998.85,823.066 2014.94,823.06 2031.03,823.054 2047.11,823.049 2063.2,823.055 2079.28,823.072 2095.37,823.1 2111.46,823.137 2127.54,823.178 2143.63,823.221 2159.71,823.263 2175.8,823.301 2191.88,823.332 2207.97,823.356 2224.06,823.37 2240.14,823.374 2256.23,823.374 2272.31,823.373 2288.4,823.37 2304.49,823.367 2320.57,823.363 2336.66,823.361 2352.74,823.359 2368.83,823.358 2384.91,823.357 2401,823.356 2417.09,823.354 2433.17,823.353 2449.26,823.361 2465.34,823.38 2481.43,823.407 2497.52,823.439 2513.6,823.473 2529.69,823.506 2545.77,823.538 2561.86,823.566 2577.95,823.59 2594.03,823.608 2610.12,823.621 2626.2,823.629 2642.29,823.635 2658.37,823.641 2674.46,823.645 2690.55,823.648 2706.63,823.65 2722.72,823.653 2738.8,823.656 2754.89,823.658 2770.98,823.66 2787.06,823.662 2803.15,823.662 2819.23,823.658 2835.32,823.663 2851.41,823.679 2867.49,823.7 2883.58,823.724 2899.66,823.75 2915.75,823.775 2931.83,823.8 2947.92,823.823 2964.01,823.842 2980.09,823.857 2996.18,823.866 3012.26,823.872 3028.35,823.877 3044.44,823.881 3060.52,823.884 3076.61,823.886 3092.69,823.889 3108.78,823.892 3124.87,823.896 3140.95,823.9 3157.04,823.905 3173.12,823.909 3189.21,823.912 3205.29,823.908 3221.38,823.908 3237.47,823.917 3253.55,823.933 3269.64,823.952 3285.72,823.973 3301.81,823.995 3317.9,824.017 3333.98,824.037 3350.07,824.054 3366.15,824.067 3382.24,824.076 3398.33,824.08 3414.41,824.084 3430.5,824.088 3446.58,824.09 3462.67,824.092 3478.75,824.094 3494.84,824.097 3510.93,824.101 3527.01,824.105 3543.1,824.109 3559.18,824.113 3575.27,824.116 3591.36,824.113 3607.44,824.111 3623.53,824.119 3639.61,824.133 3655.7,824.15 3671.79,824.169 3687.87,824.19 3703.96,824.21 3720.04,824.228 3736.13,824.244 3752.21,824.256 3768.3,824.264 3784.39,824.268 3800.47,824.272 3816.56,824.275 3832.64,824.277 3848.73,824.279 3864.82,824.281 3880.9,824.284 3896.99,824.287 3913.07,824.291 3929.16,824.295 3945.24,824.299 3961.33,824.302 3977.42,824.299 3993.5,824.297 4009.59,824.304 4025.67,824.317 4041.76,824.332 4057.85,824.35 4073.93,824.369 4090.02,824.388 4106.1,824.405 4122.19,824.42 4138.28,824.431 4154.36,824.438 4170.45,824.442 4186.53,824.446 4202.62,824.449 4218.7,824.452 4234.79,824.453 4250.88,824.455 4266.96,824.457 4283.05,824.461 4299.13,824.464 4315.22,824.468 4331.31,824.472 4347.39,824.475 4363.48,824.472 4379.56,824.47 4395.65,824.477 4411.74,824.488 4427.82,824.503 4443.91,824.519 4459.99,824.537 4476.08,824.554 4492.16,824.57 4508.25,824.584 4524.34,824.594 4540.42,824.601 4556.51,824.605 4572.59,824.609 4588.68,824.612 4604.77,824.614 4620.85,824.615 4636.94,824.617 "/>
<path clip-path="url(#clip542)" d="M776.327 826.742 L792.413 826.49 L808.499 826.37 L824.585 826.255 L840.671 826.145 L856.757 826.04 L872.843 825.876 L888.928 824.824 L905.014 824.45 L921.1 824.359 L937.186 824.28 L953.272 824.21 L969.358 824.15 L985.444 824.097 L1001.53 824.05 L1017.62 824.004 L1033.7 823.958 L1049.79 823.911 L1065.87 823.858 L1081.96 823.802 L1098.04 823.745 L1114.13 823.693 L1130.22 823.637 L1146.3 823.583 L1162.39 823.529 L1178.47 823.479 L1194.56 823.433 L1210.65 823.389 L1226.73 823.348 L1242.82 823.311 L1258.9 823.271 L1274.99 823.235 L1291.08 823.207 L1307.16 823.189 L1323.25 823.183 L1339.33 823.187 L1355.42 823.197 L1371.5 823.21 L1387.59 823.225 L1403.68 823.237 L1419.76 823.245 L1435.85 823.246 L1451.93 823.236 L1468.02 823.219 L1484.11 823.198 L1500.19 823.178 L1516.28 823.156 L1532.36 823.135 L1548.45 823.113 L1564.54 823.094 L1580.62 823.077 L1596.71 823.063 L1612.79 823.05 L1628.88 823.038 L1644.96 823.025 L1661.05 823.016 L1677.14 823.014 L1693.22 823.019 L1709.31 823.037 L1725.39 823.065 L1741.48 823.098 L1757.57 823.133 L1773.65 823.168 L1789.74 823.199 L1805.82 823.225 L1821.91 823.244 L1838 823.253 L1854.08 823.251 L1870.17 823.253 L1886.25 823.248 L1902.34 823.24 L1918.42 823.229 L1934.51 823.22 L1950.6 823.212 L1966.68 823.209 L1982.77 823.207 L1998.85 823.206 L2014.94 823.206 L2031.03 823.205 L2047.11 823.204 L2063.2 823.21 L2079.28 823.223 L2095.37 823.249 L2111.46 823.282 L2127.54 823.318 L2143.63 823.358 L2159.71 823.397 L2175.8 823.433 L2191.88 823.462 L2207.97 823.484 L2224.06 823.503 L2240.14 823.51 L2256.23 823.515 L2272.31 823.518 L2288.4 823.517 L2304.49 823.513 L2320.57 823.508 L2336.66 823.509 L2352.74 823.51 L2368.83 823.512 L2384.91 823.516 L2401 823.523 L2417.09 823.526 L2433.17 823.528 L2449.26 823.537 L2465.34 823.555 L2481.43 823.582 L2497.52 823.612 L2513.6 823.641 L2529.69 823.671 L2545.77 823.7 L2561.86 823.727 L2577.95 823.749 L2594.03 823.769 L2610.12 823.786 L2626.2 823.798 L2642.29 823.807 L2658.37 823.816 L2674.46 823.82 L2690.55 823.821 L2706.63 823.822 L2722.72 823.825 L2738.8 823.828 L2754.89 823.833 L2770.98 823.839 L2787.06 823.848 L2803.15 823.854 L2819.23 823.855 L2835.32 823.861 L2851.41 823.875 L2867.49 823.894 L2883.58 823.915 L2899.66 823.939 L2915.75 823.964 L2931.83 823.988 L2947.92 824.011 L2964.01 824.03 L2980.09 824.046 L2996.18 824.058 L3012.26 824.068 L3028.35 824.077 L3044.44 824.085 L3060.52 824.088 L3076.61 824.088 L3092.69 824.087 L3108.78 824.089 L3124.87 824.092 L3140.95 824.098 L3157.04 824.109 L3173.12 824.122 L3189.21 824.132 L3205.29 824.134 L3221.38 824.138 L3237.47 824.148 L3253.55 824.162 L3269.64 824.178 L3285.72 824.195 L3301.81 824.215 L3317.9 824.236 L3333.98 824.256 L3350.07 824.273 L3366.15 824.287 L3382.24 824.297 L3398.33 824.308 L3414.41 824.32 L3430.5 824.33 L3446.58 824.336 L3462.67 824.338 L3478.75 824.338 L3494.84 824.34 L3510.93 824.346 L3527.01 824.354 L3543.1 824.365 L3559.18 824.378 L3575.27 824.387 L3591.36 824.391 L3607.44 824.392 L3623.53 824.4 L3639.61 824.413 L3655.7 824.426 L3671.79 824.44 L3687.87 824.455 L3703.96 824.47 L3720.04 824.486 L3736.13 824.501 L3752.21 824.513 L3768.3 824.521 L3784.39 824.529 L3800.47 824.539 L3816.56 824.554 L3832.64 824.564 L3848.73 824.568 L3864.82 824.569 L3880.9 824.573 L3896.99 824.58 L3913.07 824.589 L3929.16 824.602 L3945.24 824.617 L3961.33 824.632 L3977.42 824.643 L3993.5 824.642 L4009.59 824.646 L4025.67 824.654 L4041.76 824.664 L4057.85 824.677 L4073.93 824.69 L4090.02 824.701 L4106.1 824.713 L4122.19 824.721 L4138.28 824.727 L4154.36 824.738 L4170.45 824.746 L4186.53 824.756 L4202.62 824.766 L4218.7 824.775 L4234.79 824.782 L4250.88 824.78 L4266.96 824.78 L4283.05 824.789 L4299.13 824.799 L4315.22 824.811 L4331.31 824.824 L4347.39 824.833 L4363.48 824.836 L4379.56 824.836 L4395.65 824.841 L4411.74 824.848 L4427.82 824.856 L4443.91 824.865 L4459.99 824.873 L4476.08 824.881 L4492.16 824.888 L4508.25 824.893 L4524.34 824.898 L4540.42 824.903 L4556.51 824.913 L4572.59 824.925 L4588.68 824.937 L4604.77 824.946 L4620.85 824.951 L4636.94 824.95 L4636.94 824.588 L4620.85 824.587 L4604.77 824.585 L4588.68 824.581 L4572.59 824.577 L4556.51 824.573 L4540.42 824.568 L4524.34 824.562 L4508.25 824.552 L4492.16 824.54 L4476.08 824.524 L4459.99 824.507 L4443.91 824.489 L4427.82 824.473 L4411.74 824.459 L4395.65 824.449 L4379.56 824.444 L4363.48 824.448 L4347.39 824.45 L4331.31 824.448 L4315.22 824.443 L4299.13 824.438 L4283.05 824.433 L4266.96 824.429 L4250.88 824.425 L4234.79 824.423 L4218.7 824.42 L4202.62 824.417 L4186.53 824.413 L4170.45 824.408 L4154.36 824.404 L4138.28 824.398 L4122.19 824.387 L4106.1 824.374 L4090.02 824.357 L4073.93 824.338 L4057.85 824.319 L4041.76 824.302 L4025.67 824.286 L4009.59 824.275 L3993.5 824.27 L3977.42 824.273 L3961.33 824.276 L3945.24 824.273 L3929.16 824.268 L3913.07 824.263 L3896.99 824.259 L3880.9 824.254 L3864.82 824.25 L3848.73 824.247 L3832.64 824.245 L3816.56 824.242 L3800.47 824.237 L3784.39 824.233 L3768.3 824.228 L3752.21 824.221 L3736.13 824.21 L3720.04 824.196 L3703.96 824.177 L3687.87 824.157 L3671.79 824.137 L3655.7 824.118 L3639.61 824.101 L3623.53 824.088 L3607.44 824.082 L3591.36 824.085 L3575.27 824.088 L3559.18 824.086 L3543.1 824.081 L3527.01 824.076 L3510.93 824.071 L3494.84 824.066 L3478.75 824.062 L3462.67 824.059 L3446.58 824.056 L3430.5 824.053 L3414.41 824.049 L3398.33 824.044 L3382.24 824.039 L3366.15 824.032 L3350.07 824.019 L3333.98 824.004 L3317.9 823.984 L3301.81 823.962 L3285.72 823.94 L3269.64 823.919 L3253.55 823.9 L3237.47 823.886 L3221.38 823.878 L3205.29 823.88 L3189.21 823.884 L3173.12 823.881 L3157.04 823.876 L3140.95 823.871 L3124.87 823.866 L3108.78 823.86 L3092.69 823.856 L3076.61 823.852 L3060.52 823.849 L3044.44 823.846 L3028.35 823.84 L3012.26 823.835 L2996.18 823.83 L2980.09 823.82 L2964.01 823.807 L2947.92 823.788 L2931.83 823.766 L2915.75 823.741 L2899.66 823.716 L2883.58 823.691 L2867.49 823.667 L2851.41 823.647 L2835.32 823.633 L2819.23 823.629 L2803.15 823.634 L2787.06 823.633 L2770.98 823.631 L2754.89 823.628 L2738.8 823.625 L2722.72 823.621 L2706.63 823.617 L2690.55 823.614 L2674.46 823.611 L2658.37 823.606 L2642.29 823.599 L2626.2 823.592 L2610.12 823.585 L2594.03 823.573 L2577.95 823.555 L2561.86 823.532 L2545.77 823.504 L2529.69 823.473 L2513.6 823.44 L2497.52 823.406 L2481.43 823.375 L2465.34 823.348 L2449.26 823.332 L2433.17 823.325 L2417.09 823.326 L2401 823.328 L2384.91 823.329 L2368.83 823.329 L2352.74 823.33 L2336.66 823.33 L2320.57 823.331 L2304.49 823.334 L2288.4 823.337 L2272.31 823.339 L2256.23 823.339 L2240.14 823.339 L2224.06 823.335 L2207.97 823.322 L2191.88 823.299 L2175.8 823.269 L2159.71 823.232 L2143.63 823.19 L2127.54 823.147 L2111.46 823.106 L2095.37 823.07 L2079.28 823.043 L2063.2 823.028 L2047.11 823.023 L2031.03 823.029 L2014.94 823.035 L1998.85 823.041 L1982.77 823.046 L1966.68 823.051 L1950.6 823.058 L1934.51 823.065 L1918.42 823.074 L1902.34 823.083 L1886.25 823.092 L1870.17 823.1 L1854.08 823.107 L1838 823.112 L1821.91 823.106 L1805.82 823.089 L1789.74 823.063 L1773.65 823.03 L1757.57 822.992 L1741.48 822.954 L1725.39 822.918 L1709.31 822.888 L1693.22 822.868 L1677.14 822.861 L1661.05 822.866 L1644.96 822.881 L1628.88 822.899 L1612.79 822.916 L1596.71 822.932 L1580.62 822.95 L1564.54 822.968 L1548.45 822.988 L1532.36 823.011 L1516.28 823.034 L1500.19 823.057 L1484.11 823.079 L1468.02 823.103 L1451.93 823.124 L1435.85 823.136 L1419.76 823.138 L1403.68 823.131 L1387.59 823.119 L1371.5 823.104 L1355.42 823.089 L1339.33 823.078 L1323.25 823.074 L1307.16 823.081 L1291.08 823.099 L1274.99 823.13 L1258.9 823.172 L1242.82 823.216 L1226.73 823.26 L1210.65 823.305 L1194.56 823.351 L1178.47 823.399 L1162.39 823.45 L1146.3 823.505 L1130.22 823.562 L1114.13 823.619 L1098.04 823.677 L1081.96 823.737 L1065.87 823.797 L1049.79 823.853 L1033.7 823.904 L1017.62 823.953 L1001.53 824.001 L985.444 824.05 L969.358 824.105 L953.272 824.166 L937.186 824.237 L921.1 824.318 L905.014 824.412 L888.928 824.79 L872.843 825.846 L856.757 826.016 L840.671 826.127 L824.585 826.242 L808.499 826.359 L792.413 826.48 L776.327 826.733  Z" fill="#757575" fill-rule="evenodd" fill-opacity="0.5"/>
<polyline clip-path="url(#clip542)" style="stroke:#757575; stroke-linecap:round; stroke-linejoin:round; stroke-width:0; stroke-opacity:1; fill:none" points="776.327,826.734 792.413,826.481 808.499,826.359 824.585,826.24 840.671,826.126 856.757,826.015 872.843,825.845 888.928,824.79 905.014,824.415 921.1,824.324 937.186,824.244 953.272,824.175 969.358,824.114 985.444,824.061 1001.53,824.012 1017.62,823.965 1033.7,823.917 1049.79,823.868 1065.87,823.813 1081.96,823.753 1098.04,823.693 1114.13,823.635 1130.22,823.578 1146.3,823.522 1162.39,823.467 1178.47,823.416 1194.56,823.366 1210.65,823.319 1226.73,823.273 1242.82,823.228 1258.9,823.184 1274.99,823.143 1291.08,823.114 1307.16,823.097 1323.25,823.093 1339.33,823.098 1355.42,823.109 1371.5,823.125 1387.59,823.141 1403.68,823.154 1419.76,823.161 1435.85,823.16 1451.93,823.15 1468.02,823.129 1484.11,823.105 1500.19,823.082 1516.28,823.059 1532.36,823.035 1548.45,823.013 1564.54,822.992 1580.62,822.972 1596.71,822.954 1612.79,822.936 1628.88,822.919 1644.96,822.901 1661.05,822.886 1677.14,822.883 1693.22,822.893 1709.31,822.914 1725.39,822.944 1741.48,822.981 1757.57,823.02 1773.65,823.058 1789.74,823.092 1805.82,823.119 1821.91,823.137 1838,823.143 1854.08,823.139 1870.17,823.131 1886.25,823.122 1902.34,823.113 1918.42,823.103 1934.51,823.094 1950.6,823.086 1966.68,823.079 1982.77,823.072 1998.85,823.066 2014.94,823.06 2031.03,823.054 2047.11,823.049 2063.2,823.055 2079.28,823.072 2095.37,823.1 2111.46,823.137 2127.54,823.178 2143.63,823.221 2159.71,823.263 2175.8,823.301 2191.88,823.332 2207.97,823.356 2224.06,823.37 2240.14,823.374 2256.23,823.374 2272.31,823.373 2288.4,823.37 2304.49,823.367 2320.57,823.363 2336.66,823.361 2352.74,823.359 2368.83,823.358 2384.91,823.357 2401,823.356 2417.09,823.354 2433.17,823.353 2449.26,823.361 2465.34,823.38 2481.43,823.407 2497.52,823.439 2513.6,823.473 2529.69,823.506 2545.77,823.538 2561.86,823.566 2577.95,823.59 2594.03,823.608 2610.12,823.621 2626.2,823.629 2642.29,823.635 2658.37,823.641 2674.46,823.645 2690.55,823.648 2706.63,823.65 2722.72,823.653 2738.8,823.656 2754.89,823.658 2770.98,823.66 2787.06,823.662 2803.15,823.662 2819.23,823.658 2835.32,823.663 2851.41,823.679 2867.49,823.7 2883.58,823.724 2899.66,823.75 2915.75,823.775 2931.83,823.8 2947.92,823.823 2964.01,823.842 2980.09,823.857 2996.18,823.866 3012.26,823.872 3028.35,823.877 3044.44,823.881 3060.52,823.884 3076.61,823.886 3092.69,823.889 3108.78,823.892 3124.87,823.896 3140.95,823.9 3157.04,823.905 3173.12,823.909 3189.21,823.912 3205.29,823.908 3221.38,823.908 3237.47,823.917 3253.55,823.933 3269.64,823.952 3285.72,823.973 3301.81,823.995 3317.9,824.017 3333.98,824.037 3350.07,824.054 3366.15,824.067 3382.24,824.076 3398.33,824.08 3414.41,824.084 3430.5,824.088 3446.58,824.09 3462.67,824.092 3478.75,824.094 3494.84,824.097 3510.93,824.101 3527.01,824.105 3543.1,824.109 3559.18,824.113 3575.27,824.116 3591.36,824.113 3607.44,824.111 3623.53,824.119 3639.61,824.133 3655.7,824.15 3671.79,824.169 3687.87,824.19 3703.96,824.21 3720.04,824.228 3736.13,824.244 3752.21,824.256 3768.3,824.264 3784.39,824.268 3800.47,824.272 3816.56,824.275 3832.64,824.277 3848.73,824.279 3864.82,824.281 3880.9,824.284 3896.99,824.287 3913.07,824.291 3929.16,824.295 3945.24,824.299 3961.33,824.302 3977.42,824.299 3993.5,824.297 4009.59,824.304 4025.67,824.317 4041.76,824.332 4057.85,824.35 4073.93,824.369 4090.02,824.388 4106.1,824.405 4122.19,824.42 4138.28,824.431 4154.36,824.438 4170.45,824.442 4186.53,824.446 4202.62,824.449 4218.7,824.452 4234.79,824.453 4250.88,824.455 4266.96,824.457 4283.05,824.461 4299.13,824.464 4315.22,824.468 4331.31,824.472 4347.39,824.475 4363.48,824.472 4379.56,824.47 4395.65,824.477 4411.74,824.488 4427.82,824.503 4443.91,824.519 4459.99,824.537 4476.08,824.554 4492.16,824.57 4508.25,824.584 4524.34,824.594 4540.42,824.601 4556.51,824.605 4572.59,824.609 4588.68,824.612 4604.77,824.614 4620.85,824.615 4636.94,824.617 "/>
<path clip-path="url(#clip542)" d="M776.327 826.739 L792.413 826.487 L808.499 826.367 L824.585 826.252 L840.671 826.141 L856.757 826.034 L872.843 825.867 L888.928 824.814 L905.014 824.438 L921.1 824.344 L937.186 824.263 L953.272 824.193 L969.358 824.132 L985.444 824.08 L1001.53 824.031 L1017.62 823.986 L1033.7 823.941 L1049.79 823.892 L1065.87 823.839 L1081.96 823.78 L1098.04 823.721 L1114.13 823.664 L1130.22 823.607 L1146.3 823.548 L1162.39 823.494 L1178.47 823.445 L1194.56 823.398 L1210.65 823.354 L1226.73 823.312 L1242.82 823.271 L1258.9 823.229 L1274.99 823.189 L1291.08 823.159 L1307.16 823.138 L1323.25 823.132 L1339.33 823.135 L1355.42 823.145 L1371.5 823.16 L1387.59 823.175 L1403.68 823.19 L1419.76 823.198 L1435.85 823.198 L1451.93 823.188 L1468.02 823.168 L1484.11 823.147 L1500.19 823.125 L1516.28 823.1 L1532.36 823.077 L1548.45 823.053 L1564.54 823.034 L1580.62 823.017 L1596.71 823.001 L1612.79 822.987 L1628.88 822.973 L1644.96 822.957 L1661.05 822.944 L1677.14 822.939 L1693.22 822.945 L1709.31 822.964 L1725.39 822.991 L1741.48 823.025 L1757.57 823.063 L1773.65 823.101 L1789.74 823.135 L1805.82 823.163 L1821.91 823.182 L1838 823.19 L1854.08 823.187 L1870.17 823.179 L1886.25 823.171 L1902.34 823.161 L1918.42 823.152 L1934.51 823.14 L1950.6 823.135 L1966.68 823.13 L1982.77 823.126 L1998.85 823.124 L2014.94 823.123 L2031.03 823.119 L2047.11 823.114 L2063.2 823.118 L2079.28 823.132 L2095.37 823.156 L2111.46 823.188 L2127.54 823.229 L2143.63 823.272 L2159.71 823.311 L2175.8 823.349 L2191.88 823.381 L2207.97 823.405 L2224.06 823.42 L2240.14 823.424 L2256.23 823.424 L2272.31 823.423 L2288.4 823.42 L2304.49 823.417 L2320.57 823.412 L2336.66 823.412 L2352.74 823.412 L2368.83 823.414 L2384.91 823.417 L2401 823.422 L2417.09 823.421 L2433.17 823.421 L2449.26 823.427 L2465.34 823.441 L2481.43 823.464 L2497.52 823.493 L2513.6 823.525 L2529.69 823.559 L2545.77 823.589 L2561.86 823.616 L2577.95 823.64 L2594.03 823.659 L2610.12 823.672 L2626.2 823.682 L2642.29 823.689 L2658.37 823.695 L2674.46 823.699 L2690.55 823.7 L2706.63 823.701 L2722.72 823.705 L2738.8 823.712 L2754.89 823.718 L2770.98 823.725 L2787.06 823.73 L2803.15 823.732 L2819.23 823.729 L2835.32 823.731 L2851.41 823.742 L2867.49 823.76 L2883.58 823.781 L2899.66 823.806 L2915.75 823.829 L2931.83 823.853 L2947.92 823.875 L2964.01 823.893 L2980.09 823.908 L2996.18 823.919 L3012.26 823.926 L3028.35 823.931 L3044.44 823.936 L3060.52 823.938 L3076.61 823.939 L3092.69 823.941 L3108.78 823.946 L3124.87 823.952 L3140.95 823.961 L3157.04 823.97 L3173.12 823.978 L3189.21 823.982 L3205.29 823.98 L3221.38 823.977 L3237.47 823.981 L3253.55 823.994 L3269.64 824.01 L3285.72 824.029 L3301.81 824.05 L3317.9 824.072 L3333.98 824.091 L3350.07 824.107 L3366.15 824.123 L3382.24 824.131 L3398.33 824.135 L3414.41 824.14 L3430.5 824.144 L3446.58 824.146 L3462.67 824.146 L3478.75 824.147 L3494.84 824.152 L3510.93 824.159 L3527.01 824.166 L3543.1 824.175 L3559.18 824.183 L3575.27 824.188 L3591.36 824.187 L3607.44 824.183 L3623.53 824.189 L3639.61 824.199 L3655.7 824.211 L3671.79 824.227 L3687.87 824.246 L3703.96 824.266 L3720.04 824.285 L3736.13 824.3 L3752.21 824.312 L3768.3 824.319 L3784.39 824.323 L3800.47 824.327 L3816.56 824.331 L3832.64 824.333 L3848.73 824.333 L3864.82 824.334 L3880.9 824.339 L3896.99 824.345 L3913.07 824.353 L3929.16 824.361 L3945.24 824.369 L3961.33 824.375 L3977.42 824.373 L3993.5 824.37 L4009.59 824.374 L4025.67 824.382 L4041.76 824.393 L4057.85 824.41 L4073.93 824.427 L4090.02 824.444 L4106.1 824.462 L4122.19 824.476 L4138.28 824.487 L4154.36 824.495 L4170.45 824.501 L4186.53 824.506 L4202.62 824.51 L4218.7 824.511 L4234.79 824.51 L4250.88 824.509 L4266.96 824.514 L4283.05 824.52 L4299.13 824.528 L4315.22 824.535 L4331.31 824.544 L4347.39 824.548 L4363.48 824.548 L4379.56 824.545 L4395.65 824.547 L4411.74 824.556 L4427.82 824.567 L4443.91 824.58 L4459.99 824.596 L4476.08 824.612 L4492.16 824.627 L4508.25 824.641 L4524.34 824.651 L4540.42 824.658 L4556.51 824.664 L4572.59 824.669 L4588.68 824.674 L4604.77 824.675 L4620.85 824.674 L4636.94 824.673 L4636.94 824.595 L4620.85 824.594 L4604.77 824.592 L4588.68 824.59 L4572.59 824.586 L4556.51 824.582 L4540.42 824.578 L4524.34 824.572 L4508.25 824.562 L4492.16 824.549 L4476.08 824.534 L4459.99 824.516 L4443.91 824.499 L4427.82 824.482 L4411.74 824.467 L4395.65 824.457 L4379.56 824.452 L4363.48 824.456 L4347.39 824.459 L4331.31 824.456 L4315.22 824.451 L4299.13 824.446 L4283.05 824.44 L4266.96 824.436 L4250.88 824.432 L4234.79 824.43 L4218.7 824.429 L4202.62 824.426 L4186.53 824.422 L4170.45 824.418 L4154.36 824.414 L4138.28 824.407 L4122.19 824.397 L4106.1 824.383 L4090.02 824.366 L4073.93 824.347 L4057.85 824.328 L4041.76 824.311 L4025.67 824.295 L4009.59 824.283 L3993.5 824.278 L3977.42 824.281 L3961.33 824.284 L3945.24 824.281 L3929.16 824.277 L3913.07 824.271 L3896.99 824.266 L3880.9 824.261 L3864.82 824.257 L3848.73 824.255 L3832.64 824.253 L3816.56 824.25 L3800.47 824.247 L3784.39 824.242 L3768.3 824.238 L3752.21 824.23 L3736.13 824.219 L3720.04 824.205 L3703.96 824.186 L3687.87 824.166 L3671.79 824.146 L3655.7 824.126 L3639.61 824.11 L3623.53 824.097 L3607.44 824.091 L3591.36 824.094 L3575.27 824.097 L3559.18 824.094 L3543.1 824.089 L3527.01 824.084 L3510.93 824.078 L3494.84 824.073 L3478.75 824.069 L3462.67 824.067 L3446.58 824.065 L3430.5 824.062 L3414.41 824.058 L3398.33 824.053 L3382.24 824.048 L3366.15 824.041 L3350.07 824.028 L3333.98 824.012 L3317.9 823.993 L3301.81 823.971 L3285.72 823.948 L3269.64 823.927 L3253.55 823.908 L3237.47 823.894 L3221.38 823.886 L3205.29 823.888 L3189.21 823.893 L3173.12 823.889 L3157.04 823.884 L3140.95 823.879 L3124.87 823.873 L3108.78 823.868 L3092.69 823.863 L3076.61 823.861 L3060.52 823.858 L3044.44 823.854 L3028.35 823.849 L3012.26 823.844 L2996.18 823.838 L2980.09 823.829 L2964.01 823.815 L2947.92 823.797 L2931.83 823.775 L2915.75 823.75 L2899.66 823.724 L2883.58 823.699 L2867.49 823.675 L2851.41 823.654 L2835.32 823.641 L2819.23 823.638 L2803.15 823.642 L2787.06 823.641 L2770.98 823.639 L2754.89 823.636 L2738.8 823.632 L2722.72 823.628 L2706.63 823.624 L2690.55 823.622 L2674.46 823.619 L2658.37 823.614 L2642.29 823.607 L2626.2 823.6 L2610.12 823.593 L2594.03 823.581 L2577.95 823.563 L2561.86 823.54 L2545.77 823.512 L2529.69 823.481 L2513.6 823.447 L2497.52 823.413 L2481.43 823.382 L2465.34 823.355 L2449.26 823.339 L2433.17 823.332 L2417.09 823.333 L2401 823.335 L2384.91 823.335 L2368.83 823.335 L2352.74 823.335 L2336.66 823.336 L2320.57 823.337 L2304.49 823.34 L2288.4 823.344 L2272.31 823.346 L2256.23 823.346 L2240.14 823.346 L2224.06 823.342 L2207.97 823.329 L2191.88 823.306 L2175.8 823.275 L2159.71 823.238 L2143.63 823.196 L2127.54 823.153 L2111.46 823.112 L2095.37 823.076 L2079.28 823.049 L2063.2 823.034 L2047.11 823.029 L2031.03 823.034 L2014.94 823.041 L1998.85 823.046 L1982.77 823.051 L1966.68 823.056 L1950.6 823.062 L1934.51 823.069 L1918.42 823.078 L1902.34 823.088 L1886.25 823.097 L1870.17 823.105 L1854.08 823.113 L1838 823.118 L1821.91 823.111 L1805.82 823.095 L1789.74 823.069 L1773.65 823.035 L1757.57 822.997 L1741.48 822.958 L1725.39 822.922 L1709.31 822.892 L1693.22 822.872 L1677.14 822.865 L1661.05 822.87 L1644.96 822.885 L1628.88 822.903 L1612.79 822.919 L1596.71 822.936 L1580.62 822.953 L1564.54 822.971 L1548.45 822.991 L1532.36 823.014 L1516.28 823.038 L1500.19 823.061 L1484.11 823.084 L1468.02 823.107 L1451.93 823.129 L1435.85 823.14 L1419.76 823.142 L1403.68 823.135 L1387.59 823.123 L1371.5 823.107 L1355.42 823.092 L1339.33 823.081 L1323.25 823.077 L1307.16 823.083 L1291.08 823.102 L1274.99 823.133 L1258.9 823.174 L1242.82 823.218 L1226.73 823.262 L1210.65 823.307 L1194.56 823.353 L1178.47 823.401 L1162.39 823.452 L1146.3 823.507 L1130.22 823.564 L1114.13 823.622 L1098.04 823.679 L1081.96 823.74 L1065.87 823.8 L1049.79 823.856 L1033.7 823.907 L1017.62 823.955 L1001.53 824.003 L985.444 824.052 L969.358 824.106 L953.272 824.168 L937.186 824.238 L921.1 824.319 L905.014 824.413 L888.928 824.79 L872.843 825.846 L856.757 826.017 L840.671 826.128 L824.585 826.242 L808.499 826.36 L792.413 826.481 L776.327 826.734  Z" fill="#414141" fill-rule="evenodd" fill-opacity="0.5"/>
<polyline clip-path="url(#clip542)" style="stroke:#414141; stroke-linecap:round; stroke-linejoin:round; stroke-width:0; stroke-opacity:1; fill:none" points="776.327,826.734 792.413,826.481 808.499,826.359 824.585,826.24 840.671,826.126 856.757,826.015 872.843,825.845 888.928,824.79 905.014,824.415 921.1,824.324 937.186,824.244 953.272,824.175 969.358,824.114 985.444,824.061 1001.53,824.012 1017.62,823.965 1033.7,823.917 1049.79,823.868 1065.87,823.813 1081.96,823.753 1098.04,823.693 1114.13,823.635 1130.22,823.578 1146.3,823.522 1162.39,823.467 1178.47,823.416 1194.56,823.366 1210.65,823.319 1226.73,823.273 1242.82,823.228 1258.9,823.184 1274.99,823.143 1291.08,823.114 1307.16,823.097 1323.25,823.093 1339.33,823.098 1355.42,823.109 1371.5,823.125 1387.59,823.141 1403.68,823.154 1419.76,823.161 1435.85,823.16 1451.93,823.15 1468.02,823.129 1484.11,823.105 1500.19,823.082 1516.28,823.059 1532.36,823.035 1548.45,823.013 1564.54,822.992 1580.62,822.972 1596.71,822.954 1612.79,822.936 1628.88,822.919 1644.96,822.901 1661.05,822.886 1677.14,822.883 1693.22,822.893 1709.31,822.914 1725.39,822.944 1741.48,822.981 1757.57,823.02 1773.65,823.058 1789.74,823.092 1805.82,823.119 1821.91,823.137 1838,823.143 1854.08,823.139 1870.17,823.131 1886.25,823.122 1902.34,823.113 1918.42,823.103 1934.51,823.094 1950.6,823.086 1966.68,823.079 1982.77,823.072 1998.85,823.066 2014.94,823.06 2031.03,823.054 2047.11,823.049 2063.2,823.055 2079.28,823.072 2095.37,823.1 2111.46,823.137 2127.54,823.178 2143.63,823.221 2159.71,823.263 2175.8,823.301 2191.88,823.332 2207.97,823.356 2224.06,823.37 2240.14,823.374 2256.23,823.374 2272.31,823.373 2288.4,823.37 2304.49,823.367 2320.57,823.363 2336.66,823.361 2352.74,823.359 2368.83,823.358 2384.91,823.357 2401,823.356 2417.09,823.354 2433.17,823.353 2449.26,823.361 2465.34,823.38 2481.43,823.407 2497.52,823.439 2513.6,823.473 2529.69,823.506 2545.77,823.538 2561.86,823.566 2577.95,823.59 2594.03,823.608 2610.12,823.621 2626.2,823.629 2642.29,823.635 2658.37,823.641 2674.46,823.645 2690.55,823.648 2706.63,823.65 2722.72,823.653 2738.8,823.656 2754.89,823.658 2770.98,823.66 2787.06,823.662 2803.15,823.662 2819.23,823.658 2835.32,823.663 2851.41,823.679 2867.49,823.7 2883.58,823.724 2899.66,823.75 2915.75,823.775 2931.83,823.8 2947.92,823.823 2964.01,823.842 2980.09,823.857 2996.18,823.866 3012.26,823.872 3028.35,823.877 3044.44,823.881 3060.52,823.884 3076.61,823.886 3092.69,823.889 3108.78,823.892 3124.87,823.896 3140.95,823.9 3157.04,823.905 3173.12,823.909 3189.21,823.912 3205.29,823.908 3221.38,823.908 3237.47,823.917 3253.55,823.933 3269.64,823.952 3285.72,823.973 3301.81,823.995 3317.9,824.017 3333.98,824.037 3350.07,824.054 3366.15,824.067 3382.24,824.076 3398.33,824.08 3414.41,824.084 3430.5,824.088 3446.58,824.09 3462.67,824.092 3478.75,824.094 3494.84,824.097 3510.93,824.101 3527.01,824.105 3543.1,824.109 3559.18,824.113 3575.27,824.116 3591.36,824.113 3607.44,824.111 3623.53,824.119 3639.61,824.133 3655.7,824.15 3671.79,824.169 3687.87,824.19 3703.96,824.21 3720.04,824.228 3736.13,824.244 3752.21,824.256 3768.3,824.264 3784.39,824.268 3800.47,824.272 3816.56,824.275 3832.64,824.277 3848.73,824.279 3864.82,824.281 3880.9,824.284 3896.99,824.287 3913.07,824.291 3929.16,824.295 3945.24,824.299 3961.33,824.302 3977.42,824.299 3993.5,824.297 4009.59,824.304 4025.67,824.317 4041.76,824.332 4057.85,824.35 4073.93,824.369 4090.02,824.388 4106.1,824.405 4122.19,824.42 4138.28,824.431 4154.36,824.438 4170.45,824.442 4186.53,824.446 4202.62,824.449 4218.7,824.452 4234.79,824.453 4250.88,824.455 4266.96,824.457 4283.05,824.461 4299.13,824.464 4315.22,824.468 4331.31,824.472 4347.39,824.475 4363.48,824.472 4379.56,824.47 4395.65,824.477 4411.74,824.488 4427.82,824.503 4443.91,824.519 4459.99,824.537 4476.08,824.554 4492.16,824.57 4508.25,824.584 4524.34,824.594 4540.42,824.601 4556.51,824.605 4572.59,824.609 4588.68,824.612 4604.77,824.614 4620.85,824.615 4636.94,824.617 "/>
<path clip-path="url(#clip540)" d="M3887.85 592.384 L4616.35 592.384 L4616.35 73.9845 L3887.85 73.9845  Z" fill="#ffffff" fill-rule="evenodd" fill-opacity="1"/>
<polyline clip-path="url(#clip540)" style="stroke:#000000; stroke-linecap:round; stroke-linejoin:round; stroke-width:4; stroke-opacity:1; fill:none" points="3887.85,592.384 4616.35,592.384 4616.35,73.9845 3887.85,73.9845 3887.85,592.384 "/>
<polyline clip-path="url(#clip540)" style="stroke:#aeaeae; stroke-linecap:round; stroke-linejoin:round; stroke-width:2; stroke-opacity:1; fill:none" points="3933.32,203.584 4206.14,203.584 "/>
<path clip-path="url(#clip540)" d="M4253.29 236.947 L4272.38 236.947 L4272.38 171.033 L4251.61 175.199 L4251.61 164.551 L4272.27 160.384 L4283.96 160.384 L4283.96 236.947 L4303.06 236.947 L4303.06 246.784 L4253.29 246.784 L4253.29 236.947 Z" fill="#000000" fill-rule="nonzero" fill-opacity="1" /><path clip-path="url(#clip540)" d="M4351.67 168.081 Q4342.64 168.081 4338.07 176.993 Q4333.55 185.847 4333.55 203.671 Q4333.55 221.437 4338.07 230.349 Q4342.64 239.203 4351.67 239.203 Q4360.75 239.203 4365.27 230.349 Q4369.84 221.437 4369.84 203.671 Q4369.84 185.847 4365.27 176.993 Q4360.75 168.081 4351.67 168.081 M4351.67 158.822 Q4366.19 158.822 4373.83 170.338 Q4381.53 181.796 4381.53 203.671 Q4381.53 225.488 4373.83 237.004 Q4366.19 248.463 4351.67 248.463 Q4337.14 248.463 4329.44 237.004 Q4321.81 225.488 4321.81 203.671 Q4321.81 181.796 4329.44 170.338 Q4337.14 158.822 4351.67 158.822 Z" fill="#000000" fill-rule="nonzero" fill-opacity="1" /><path clip-path="url(#clip540)" d="M4427.07 168.081 Q4418.04 168.081 4413.47 176.993 Q4408.96 185.847 4408.96 203.671 Q4408.96 221.437 4413.47 230.349 Q4418.04 239.203 4427.07 239.203 Q4436.16 239.203 4440.67 230.349 Q4445.24 221.437 4445.24 203.671 Q4445.24 185.847 4440.67 176.993 Q4436.16 168.081 4427.07 168.081 M4427.07 158.822 Q4441.6 158.822 4449.24 170.338 Q4456.93 181.796 4456.93 203.671 Q4456.93 225.488 4449.24 237.004 Q4441.6 248.463 4427.07 248.463 Q4412.55 248.463 4404.85 237.004 Q4397.21 225.488 4397.21 203.671 Q4397.21 181.796 4404.85 170.338 Q4412.55 158.822 4427.07 158.822 Z" fill="#000000" fill-rule="nonzero" fill-opacity="1" /><path clip-path="url(#clip540)" d="M4550.97 208.764 Q4545.94 208.764 4543.04 213.046 Q4540.21 217.329 4540.21 224.967 Q4540.21 232.491 4543.04 236.831 Q4545.94 241.113 4550.97 241.113 Q4555.89 241.113 4558.73 236.831 Q4561.62 232.491 4561.62 224.967 Q4561.62 217.386 4558.73 213.104 Q4555.89 208.764 4550.97 208.764 M4550.97 201.414 Q4560.11 201.414 4565.5 207.78 Q4570.88 214.146 4570.88 224.967 Q4570.88 235.789 4565.44 242.155 Q4560.06 248.463 4550.97 248.463 Q4541.71 248.463 4536.33 242.155 Q4530.95 235.789 4530.95 224.967 Q4530.95 214.088 4536.33 207.78 Q4541.77 201.414 4550.97 201.414 M4491.25 166.171 Q4486.27 166.171 4483.38 170.512 Q4480.54 174.794 4480.54 182.317 Q4480.54 189.956 4483.38 194.238 Q4486.21 198.521 4491.25 198.521 Q4496.28 198.521 4499.12 194.238 Q4502.01 189.956 4502.01 182.317 Q4502.01 174.852 4499.12 170.512 Q4496.23 166.171 4491.25 166.171 M4543.51 158.822 L4552.76 158.822 L4498.71 248.463 L4489.46 248.463 L4543.51 158.822 M4491.25 158.822 Q4500.39 158.822 4505.83 165.188 Q4511.27 171.496 4511.27 182.317 Q4511.27 193.255 4505.83 199.563 Q4500.45 205.87 4491.25 205.87 Q4482.05 205.87 4476.67 199.563 Q4471.34 193.197 4471.34 182.317 Q4471.34 171.553 4476.72 165.188 Q4482.11 158.822 4491.25 158.822 Z" fill="#000000" fill-rule="nonzero" fill-opacity="1" /><polyline clip-path="url(#clip540)" style="stroke:#757575; stroke-linecap:round; stroke-linejoin:round; stroke-width:2; stroke-opacity:1; fill:none" points="3933.32,333.184 4206.14,333.184 "/>
<path clip-path="url(#clip540)" d="M4257.16 374.591 L4257.16 363.942 Q4261.56 366.026 4266.08 367.125 Q4270.59 368.225 4274.93 368.225 Q4286.5 368.225 4292.58 360.47 Q4298.72 352.658 4299.58 336.801 Q4296.23 341.778 4291.08 344.44 Q4285.93 347.102 4279.68 347.102 Q4266.71 347.102 4259.13 339.29 Q4251.61 331.419 4251.61 317.82 Q4251.61 304.51 4259.48 296.466 Q4267.35 288.422 4280.43 288.422 Q4295.42 288.422 4303.29 299.938 Q4311.22 311.396 4311.22 333.271 Q4311.22 353.699 4301.49 365.91 Q4291.83 378.063 4275.45 378.063 Q4271.05 378.063 4266.54 377.195 Q4262.03 376.327 4257.16 374.591 M4280.43 337.959 Q4288.3 337.959 4292.87 332.577 Q4297.5 327.195 4297.5 317.82 Q4297.5 308.503 4292.87 303.121 Q4288.3 297.681 4280.43 297.681 Q4272.56 297.681 4267.93 303.121 Q4263.36 308.503 4263.36 317.82 Q4263.36 327.195 4267.93 332.577 Q4272.56 337.959 4280.43 337.959 Z" fill="#000000" fill-rule="nonzero" fill-opacity="1" /><path clip-path="url(#clip540)" d="M4357.22 297.681 Q4348.19 297.681 4343.62 306.593 Q4339.11 315.447 4339.11 333.271 Q4339.11 351.037 4343.62 359.949 Q4348.19 368.803 4357.22 368.803 Q4366.31 368.803 4370.82 359.949 Q4375.39 351.037 4375.39 333.271 Q4375.39 315.447 4370.82 306.593 Q4366.31 297.681 4357.22 297.681 M4357.22 288.422 Q4371.75 288.422 4379.39 299.938 Q4387.08 311.396 4387.08 333.271 Q4387.08 355.088 4379.39 366.604 Q4371.75 378.063 4357.22 378.063 Q4342.7 378.063 4335 366.604 Q4327.36 355.088 4327.36 333.271 Q4327.36 311.396 4335 299.938 Q4342.7 288.422 4357.22 288.422 Z" fill="#000000" fill-rule="nonzero" fill-opacity="1" /><path clip-path="url(#clip540)" d="M4481.12 338.364 Q4476.09 338.364 4473.19 342.646 Q4470.36 346.929 4470.36 354.567 Q4470.36 362.091 4473.19 366.431 Q4476.09 370.713 4481.12 370.713 Q4486.04 370.713 4488.88 366.431 Q4491.77 362.091 4491.77 354.567 Q4491.77 346.986 4488.88 342.704 Q4486.04 338.364 4481.12 338.364 M4481.12 331.014 Q4490.27 331.014 4495.65 337.38 Q4501.03 343.746 4501.03 354.567 Q4501.03 365.389 4495.59 371.755 Q4490.21 378.063 4481.12 378.063 Q4471.86 378.063 4466.48 371.755 Q4461.1 365.389 4461.1 354.567 Q4461.1 343.688 4466.48 337.38 Q4471.92 331.014 4481.12 331.014 M4421.4 295.771 Q4416.42 295.771 4413.53 300.112 Q4410.69 304.394 4410.69 311.917 Q4410.69 319.556 4413.53 323.838 Q4416.37 328.121 4421.4 328.121 Q4426.43 328.121 4429.27 323.838 Q4432.16 319.556 4432.16 311.917 Q4432.16 304.452 4429.27 300.112 Q4426.38 295.771 4421.4 295.771 M4473.66 288.422 L4482.92 288.422 L4428.87 378.063 L4419.61 378.063 L4473.66 288.422 M4421.4 288.422 Q4430.54 288.422 4435.98 294.788 Q4441.42 301.096 4441.42 311.917 Q4441.42 322.855 4435.98 329.163 Q4430.6 335.47 4421.4 335.47 Q4412.2 335.47 4406.82 329.163 Q4401.49 322.797 4401.49 311.917 Q4401.49 301.153 4406.87 294.788 Q4412.26 288.422 4421.4 288.422 Z" fill="#000000" fill-rule="nonzero" fill-opacity="1" /><polyline clip-path="url(#clip540)" style="stroke:#414141; stroke-linecap:round; stroke-linejoin:round; stroke-width:2; stroke-opacity:1; fill:none" points="3933.32,462.784 4206.14,462.784 "/>
<path clip-path="url(#clip540)" d="M4281.24 464.955 Q4272.91 464.955 4268.1 469.411 Q4263.36 473.867 4263.36 481.679 Q4263.36 489.492 4268.1 493.947 Q4272.91 498.403 4281.24 498.403 Q4289.57 498.403 4294.38 493.947 Q4299.18 489.434 4299.18 481.679 Q4299.18 473.867 4294.38 469.411 Q4289.63 464.955 4281.24 464.955 M4269.55 459.978 Q4262.03 458.126 4257.8 452.975 Q4253.63 447.825 4253.63 440.418 Q4253.63 430.059 4260.98 424.04 Q4268.39 418.022 4281.24 418.022 Q4294.14 418.022 4301.49 424.04 Q4308.84 430.059 4308.84 440.418 Q4308.84 447.825 4304.62 452.975 Q4300.45 458.126 4292.99 459.978 Q4301.44 461.945 4306.12 467.674 Q4310.87 473.404 4310.87 481.679 Q4310.87 494.237 4303.17 500.95 Q4295.53 507.663 4281.24 507.663 Q4266.94 507.663 4259.25 500.95 Q4251.61 494.237 4251.61 481.679 Q4251.61 473.404 4256.35 467.674 Q4261.1 461.945 4269.55 459.978 M4265.27 441.517 Q4265.27 448.23 4269.43 451.992 Q4273.66 455.753 4281.24 455.753 Q4288.76 455.753 4292.99 451.992 Q4297.27 448.23 4297.27 441.517 Q4297.27 434.804 4292.99 431.043 Q4288.76 427.281 4281.24 427.281 Q4273.66 427.281 4269.43 431.043 Q4265.27 434.804 4265.27 441.517 Z" fill="#000000" fill-rule="nonzero" fill-opacity="1" /><path clip-path="url(#clip540)" d="M4356.64 427.281 Q4347.62 427.281 4343.04 436.193 Q4338.53 445.047 4338.53 462.871 Q4338.53 480.637 4343.04 489.549 Q4347.62 498.403 4356.64 498.403 Q4365.73 498.403 4370.24 489.549 Q4374.81 480.637 4374.81 462.871 Q4374.81 445.047 4370.24 436.193 Q4365.73 427.281 4356.64 427.281 M4356.64 418.022 Q4371.17 418.022 4378.81 429.538 Q4386.5 440.996 4386.5 462.871 Q4386.5 484.688 4378.81 496.204 Q4371.17 507.663 4356.64 507.663 Q4342.12 507.663 4334.42 496.204 Q4326.78 484.688 4326.78 462.871 Q4326.78 440.996 4334.42 429.538 Q4342.12 418.022 4356.64 418.022 Z" fill="#000000" fill-rule="nonzero" fill-opacity="1" /><path clip-path="url(#clip540)" d="M4480.54 467.964 Q4475.51 467.964 4472.61 472.246 Q4469.78 476.529 4469.78 484.167 Q4469.78 491.691 4472.61 496.031 Q4475.51 500.313 4480.54 500.313 Q4485.46 500.313 4488.3 496.031 Q4491.19 491.691 4491.19 484.167 Q4491.19 476.586 4488.3 472.304 Q4485.46 467.964 4480.54 467.964 M4480.54 460.614 Q4489.69 460.614 4495.07 466.98 Q4500.45 473.346 4500.45 484.167 Q4500.45 494.989 4495.01 501.355 Q4489.63 507.663 4480.54 507.663 Q4471.28 507.663 4465.9 501.355 Q4460.52 494.989 4460.52 484.167 Q4460.52 473.288 4465.9 466.98 Q4471.34 460.614 4480.54 460.614 M4420.82 425.371 Q4415.84 425.371 4412.95 429.712 Q4410.12 433.994 4410.12 441.517 Q4410.12 449.156 4412.95 453.438 Q4415.79 457.721 4420.82 457.721 Q4425.86 457.721 4428.69 453.438 Q4431.59 449.156 4431.59 441.517 Q4431.59 434.052 4428.69 429.712 Q4425.8 425.371 4420.82 425.371 M4473.08 418.022 L4482.34 418.022 L4428.29 507.663 L4419.03 507.663 L4473.08 418.022 M4420.82 418.022 Q4429.96 418.022 4435.4 424.388 Q4440.84 430.696 4440.84 441.517 Q4440.84 452.455 4435.4 458.763 Q4430.02 465.07 4420.82 465.07 Q4411.62 465.07 4406.24 458.763 Q4400.91 452.397 4400.91 441.517 Q4400.91 430.753 4406.3 424.388 Q4411.68 418.022 4420.82 418.022 Z" fill="#000000" fill-rule="nonzero" fill-opacity="1" /></svg>
