<?xml version="1.0" encoding="utf-8"?>
<svg xmlns="http://www.w3.org/2000/svg" xmlns:xlink="http://www.w3.org/1999/xlink" width="1200" height="300" viewBox="0 0 4800 1200">
<defs>
  <clipPath id="clip230">
    <rect x="0" y="0" width="4800" height="1200"/>
  </clipPath>
</defs>
<path clip-path="url(#clip230)" d="M0 1200 L4800 1200 L4800 0 L0 0  Z" fill="#ffffff" fill-rule="evenodd" fill-opacity="1"/>
<defs>
  <clipPath id="clip231">
    <rect x="960" y="0" width="3361" height="1200"/>
  </clipPath>
</defs>
<path clip-path="url(#clip230)" d="M404.977 880.951 L4752.76 880.951 L4752.76 47.2441 L404.977 47.2441  Z" fill="#ffffff" fill-rule="evenodd" fill-opacity="1"/>
<defs>
  <clipPath id="clip232">
    <rect x="404" y="47" width="4349" height="835"/>
  </clipPath>
</defs>
<polyline clip-path="url(#clip232)" style="stroke:#000000; stroke-linecap:round; stroke-linejoin:round; stroke-width:2; stroke-opacity:0.1; fill:none" points="528.028,880.951 528.028,47.2441 "/>
<polyline clip-path="url(#clip232)" style="stroke:#000000; stroke-linecap:round; stroke-linejoin:round; stroke-width:2; stroke-opacity:0.1; fill:none" points="1348.36,880.951 1348.36,47.2441 "/>
<polyline clip-path="url(#clip232)" style="stroke:#000000; stroke-linecap:round; stroke-linejoin:round; stroke-width:2; stroke-opacity:0.1; fill:none" points="2168.7,880.951 2168.7,47.2441 "/>
<polyline clip-path="url(#clip232)" style="stroke:#000000; stroke-linecap:round; stroke-linejoin:round; stroke-width:2; stroke-opacity:0.1; fill:none" points="2989.03,880.951 2989.03,47.2441 "/>
<polyline clip-path="url(#clip232)" style="stroke:#000000; stroke-linecap:round; stroke-linejoin:round; stroke-width:2; stroke-opacity:0.1; fill:none" points="3809.37,880.951 3809.37,47.2441 "/>
<polyline clip-path="url(#clip232)" style="stroke:#000000; stroke-linecap:round; stroke-linejoin:round; stroke-width:2; stroke-opacity:0.1; fill:none" points="4629.71,880.951 4629.71,47.2441 "/>
<polyline clip-path="url(#clip232)" style="stroke:#000000; stroke-linecap:round; stroke-linejoin:round; stroke-width:2; stroke-opacity:0.1; fill:none" points="404.977,758.039 4752.76,758.039 "/>
<polyline clip-path="url(#clip232)" style="stroke:#000000; stroke-linecap:round; stroke-linejoin:round; stroke-width:2; stroke-opacity:0.1; fill:none" points="404.977,615.208 4752.76,615.208 "/>
<polyline clip-path="url(#clip232)" style="stroke:#000000; stroke-linecap:round; stroke-linejoin:round; stroke-width:2; stroke-opacity:0.1; fill:none" points="404.977,472.378 4752.76,472.378 "/>
<polyline clip-path="url(#clip232)" style="stroke:#000000; stroke-linecap:round; stroke-linejoin:round; stroke-width:2; stroke-opacity:0.1; fill:none" points="404.977,329.547 4752.76,329.547 "/>
<polyline clip-path="url(#clip232)" style="stroke:#000000; stroke-linecap:round; stroke-linejoin:round; stroke-width:2; stroke-opacity:0.1; fill:none" points="404.977,186.717 4752.76,186.717 "/>
<polyline clip-path="url(#clip230)" style="stroke:#000000; stroke-linecap:round; stroke-linejoin:round; stroke-width:4; stroke-opacity:1; fill:none" points="404.977,880.951 4752.76,880.951 "/>
<polyline clip-path="url(#clip230)" style="stroke:#000000; stroke-linecap:round; stroke-linejoin:round; stroke-width:4; stroke-opacity:1; fill:none" points="528.028,880.951 528.028,862.054 "/>
<polyline clip-path="url(#clip230)" style="stroke:#000000; stroke-linecap:round; stroke-linejoin:round; stroke-width:4; stroke-opacity:1; fill:none" points="1348.36,880.951 1348.36,862.054 "/>
<polyline clip-path="url(#clip230)" style="stroke:#000000; stroke-linecap:round; stroke-linejoin:round; stroke-width:4; stroke-opacity:1; fill:none" points="2168.7,880.951 2168.7,862.054 "/>
<polyline clip-path="url(#clip230)" style="stroke:#000000; stroke-linecap:round; stroke-linejoin:round; stroke-width:4; stroke-opacity:1; fill:none" points="2989.03,880.951 2989.03,862.054 "/>
<polyline clip-path="url(#clip230)" style="stroke:#000000; stroke-linecap:round; stroke-linejoin:round; stroke-width:4; stroke-opacity:1; fill:none" points="3809.37,880.951 3809.37,862.054 "/>
<polyline clip-path="url(#clip230)" style="stroke:#000000; stroke-linecap:round; stroke-linejoin:round; stroke-width:4; stroke-opacity:1; fill:none" points="4629.71,880.951 4629.71,862.054 "/>
<path clip-path="url(#clip230)" d="M528.028 942.789 Q520.806 942.789 517.148 949.918 Q513.537 957.002 513.537 971.261 Q513.537 985.474 517.148 992.603 Q520.806 999.687 528.028 999.687 Q535.296 999.687 538.907 992.603 Q542.565 985.474 542.565 971.261 Q542.565 957.002 538.907 949.918 Q535.296 942.789 528.028 942.789 M528.028 935.382 Q539.648 935.382 545.759 944.594 Q551.916 953.761 551.916 971.261 Q551.916 988.715 545.759 997.927 Q539.648 1007.09 528.028 1007.09 Q516.407 1007.09 510.25 997.927 Q504.139 988.715 504.139 971.261 Q504.139 953.761 510.25 944.594 Q516.407 935.382 528.028 935.382 Z" fill="#000000" fill-rule="nonzero" fill-opacity="1" /><path clip-path="url(#clip230)" d="M1337.67 997.881 L1370.31 997.881 L1370.31 1005.75 L1326.42 1005.75 L1326.42 997.881 Q1331.74 992.372 1340.91 983.113 Q1350.12 973.807 1352.48 971.122 Q1356.97 966.076 1358.73 962.604 Q1360.54 959.085 1360.54 955.705 Q1360.54 950.196 1356.65 946.724 Q1352.81 943.252 1346.6 943.252 Q1342.21 943.252 1337.3 944.78 Q1332.44 946.307 1326.88 949.409 L1326.88 939.965 Q1332.53 937.696 1337.44 936.539 Q1342.34 935.382 1346.42 935.382 Q1357.16 935.382 1363.55 940.752 Q1369.94 946.122 1369.94 955.104 Q1369.94 959.363 1368.32 963.205 Q1366.74 967.002 1362.53 972.187 Q1361.37 973.529 1355.17 979.965 Q1348.97 986.353 1337.67 997.881 Z" fill="#000000" fill-rule="nonzero" fill-opacity="1" /><path clip-path="url(#clip230)" d="M2174.72 944.78 L2151.11 981.678 L2174.72 981.678 L2174.72 944.78 M2172.26 936.631 L2184.02 936.631 L2184.02 981.678 L2193.88 981.678 L2193.88 989.455 L2184.02 989.455 L2184.02 1005.75 L2174.72 1005.75 L2174.72 989.455 L2143.51 989.455 L2143.51 980.428 L2172.26 936.631 Z" fill="#000000" fill-rule="nonzero" fill-opacity="1" /><path clip-path="url(#clip230)" d="M2989.84 967.465 Q2983.55 967.465 2979.84 971.77 Q2976.19 976.076 2976.19 983.576 Q2976.19 991.029 2979.84 995.381 Q2983.55 999.687 2989.84 999.687 Q2996.14 999.687 2999.8 995.381 Q3003.5 991.029 3003.5 983.576 Q3003.5 976.076 2999.8 971.77 Q2996.14 967.465 2989.84 967.465 M3008.41 938.159 L3008.41 946.678 Q3004.89 945.011 3001.28 944.131 Q2997.71 943.252 2994.2 943.252 Q2984.94 943.252 2980.03 949.502 Q2975.17 955.752 2974.47 968.391 Q2977.21 964.363 2981.33 962.233 Q2985.45 960.057 2990.4 960.057 Q3000.82 960.057 3006.84 966.4 Q3012.9 972.696 3012.9 983.576 Q3012.9 994.224 3006.6 1000.66 Q3000.31 1007.09 2989.84 1007.09 Q2977.85 1007.09 2971.51 997.927 Q2965.17 988.715 2965.17 971.261 Q2965.17 954.872 2972.95 945.15 Q2980.72 935.382 2993.83 935.382 Q2997.34 935.382 3000.91 936.076 Q3004.52 936.77 3008.41 938.159 Z" fill="#000000" fill-rule="nonzero" fill-opacity="1" /><path clip-path="url(#clip230)" d="M3809.37 972.928 Q3802.7 972.928 3798.86 976.492 Q3795.06 980.057 3795.06 986.307 Q3795.06 992.557 3798.86 996.122 Q3802.7 999.687 3809.37 999.687 Q3816.04 999.687 3819.88 996.122 Q3823.72 992.511 3823.72 986.307 Q3823.72 980.057 3819.88 976.492 Q3816.08 972.928 3809.37 972.928 M3800.02 968.946 Q3794 967.465 3790.62 963.344 Q3787.29 959.224 3787.29 953.298 Q3787.29 945.011 3793.17 940.196 Q3799.09 935.382 3809.37 935.382 Q3819.69 935.382 3825.57 940.196 Q3831.45 945.011 3831.45 953.298 Q3831.45 959.224 3828.07 963.344 Q3824.74 967.465 3818.77 968.946 Q3825.53 970.52 3829.28 975.104 Q3833.07 979.687 3833.07 986.307 Q3833.07 996.353 3826.92 1001.72 Q3820.81 1007.09 3809.37 1007.09 Q3797.93 1007.09 3791.78 1001.72 Q3785.67 996.353 3785.67 986.307 Q3785.67 979.687 3789.46 975.104 Q3793.26 970.52 3800.02 968.946 M3796.59 954.178 Q3796.59 959.548 3799.93 962.557 Q3803.31 965.567 3809.37 965.567 Q3815.39 965.567 3818.77 962.557 Q3822.19 959.548 3822.19 954.178 Q3822.19 948.807 3818.77 945.798 Q3815.39 942.789 3809.37 942.789 Q3803.31 942.789 3799.93 945.798 Q3796.59 948.807 3796.59 954.178 Z" fill="#000000" fill-rule="nonzero" fill-opacity="1" /><path clip-path="url(#clip230)" d="M4579.08 997.881 L4594.36 997.881 L4594.36 945.15 L4577.74 948.483 L4577.74 939.965 L4594.27 936.631 L4603.62 936.631 L4603.62 997.881 L4618.9 997.881 L4618.9 1005.75 L4579.08 1005.75 L4579.08 997.881 Z" fill="#000000" fill-rule="nonzero" fill-opacity="1" /><path clip-path="url(#clip230)" d="M4657.78 942.789 Q4650.56 942.789 4646.9 949.918 Q4643.29 957.002 4643.29 971.261 Q4643.29 985.474 4646.9 992.603 Q4650.56 999.687 4657.78 999.687 Q4665.05 999.687 4668.66 992.603 Q4672.32 985.474 4672.32 971.261 Q4672.32 957.002 4668.66 949.918 Q4665.05 942.789 4657.78 942.789 M4657.78 935.382 Q4669.4 935.382 4675.52 944.594 Q4681.67 953.761 4681.67 971.261 Q4681.67 988.715 4675.52 997.927 Q4669.4 1007.09 4657.78 1007.09 Q4646.16 1007.09 4640.01 997.927 Q4633.9 988.715 4633.9 971.261 Q4633.9 953.761 4640.01 944.594 Q4646.16 935.382 4657.78 935.382 Z" fill="#000000" fill-rule="nonzero" fill-opacity="1" /><path clip-path="url(#clip230)" d="M2296.11 1072.18 L2361.89 1072.18 L2361.89 1081.04 L2334.28 1081.04 L2334.28 1149.94 L2323.71 1149.94 L2323.71 1081.04 L2296.11 1081.04 L2296.11 1072.18 Z" fill="#000000" fill-rule="nonzero" fill-opacity="1" /><path clip-path="url(#clip230)" d="M2368.35 1091.61 L2377.93 1091.61 L2377.93 1149.94 L2368.35 1149.94 L2368.35 1091.61 M2368.35 1068.9 L2377.93 1068.9 L2377.93 1081.04 L2368.35 1081.04 L2368.35 1068.9 Z" fill="#000000" fill-rule="nonzero" fill-opacity="1" /><path clip-path="url(#clip230)" d="M2443.4 1102.81 Q2446.99 1096.35 2451.99 1093.28 Q2456.99 1090.2 2463.76 1090.2 Q2472.88 1090.2 2477.83 1096.61 Q2482.77 1102.96 2482.77 1114.74 L2482.77 1149.94 L2473.14 1149.94 L2473.14 1115.05 Q2473.14 1106.66 2470.17 1102.6 Q2467.2 1098.54 2461.11 1098.54 Q2453.66 1098.54 2449.34 1103.49 Q2445.01 1108.43 2445.01 1116.97 L2445.01 1149.94 L2435.38 1149.94 L2435.38 1115.05 Q2435.38 1106.61 2432.41 1102.6 Q2429.44 1098.54 2423.24 1098.54 Q2415.9 1098.54 2411.58 1103.54 Q2407.25 1108.49 2407.25 1116.97 L2407.25 1149.94 L2397.62 1149.94 L2397.62 1091.61 L2407.25 1091.61 L2407.25 1100.67 Q2410.53 1095.31 2415.12 1092.76 Q2419.7 1090.2 2426 1090.2 Q2432.36 1090.2 2436.78 1093.43 Q2441.26 1096.66 2443.4 1102.81 Z" fill="#000000" fill-rule="nonzero" fill-opacity="1" /><path clip-path="url(#clip230)" d="M2551.78 1118.38 L2551.78 1123.07 L2507.72 1123.07 Q2508.35 1132.96 2513.66 1138.17 Q2519.02 1143.33 2528.55 1143.33 Q2534.08 1143.33 2539.23 1141.97 Q2544.44 1140.62 2549.54 1137.91 L2549.54 1146.97 Q2544.39 1149.16 2538.97 1150.31 Q2533.55 1151.45 2527.98 1151.45 Q2514.02 1151.45 2505.85 1143.33 Q2497.72 1135.2 2497.72 1121.35 Q2497.72 1107.03 2505.43 1098.64 Q2513.19 1090.2 2526.31 1090.2 Q2538.09 1090.2 2544.91 1097.81 Q2551.78 1105.36 2551.78 1118.38 M2542.2 1115.57 Q2542.1 1107.7 2537.77 1103.02 Q2533.5 1098.33 2526.42 1098.33 Q2518.4 1098.33 2513.55 1102.86 Q2508.76 1107.39 2508.03 1115.62 L2542.2 1115.57 Z" fill="#000000" fill-rule="nonzero" fill-opacity="1" /><path clip-path="url(#clip230)" d="M2624.44 1069.01 Q2617.46 1080.99 2614.07 1092.7 Q2610.69 1104.42 2610.69 1116.45 Q2610.69 1128.49 2614.07 1140.31 Q2617.51 1152.08 2624.44 1164.01 L2616.11 1164.01 Q2608.29 1151.77 2604.39 1139.94 Q2600.53 1128.12 2600.53 1116.45 Q2600.53 1104.84 2604.39 1093.07 Q2608.24 1081.3 2616.11 1069.01 L2624.44 1069.01 Z" fill="#000000" fill-rule="nonzero" fill-opacity="1" /><path clip-path="url(#clip230)" d="M2681.42 1100.46 L2681.42 1068.9 L2691 1068.9 L2691 1149.94 L2681.42 1149.94 L2681.42 1141.19 Q2678.4 1146.4 2673.76 1148.95 Q2669.18 1151.45 2662.72 1151.45 Q2652.15 1151.45 2645.48 1143.02 Q2638.87 1134.58 2638.87 1120.83 Q2638.87 1107.08 2645.48 1098.64 Q2652.15 1090.2 2662.72 1090.2 Q2669.18 1090.2 2673.76 1092.76 Q2678.4 1095.26 2681.42 1100.46 M2648.76 1120.83 Q2648.76 1131.4 2653.08 1137.44 Q2657.46 1143.43 2665.06 1143.43 Q2672.67 1143.43 2677.04 1137.44 Q2681.42 1131.4 2681.42 1120.83 Q2681.42 1110.26 2677.04 1104.27 Q2672.67 1098.23 2665.06 1098.23 Q2657.46 1098.23 2653.08 1104.27 Q2648.76 1110.26 2648.76 1120.83 Z" fill="#000000" fill-rule="nonzero" fill-opacity="1" /><path clip-path="url(#clip230)" d="M2737.25 1120.62 Q2725.64 1120.62 2721.16 1123.28 Q2716.68 1125.93 2716.68 1132.34 Q2716.68 1137.44 2720.01 1140.46 Q2723.4 1143.43 2729.18 1143.43 Q2737.15 1143.43 2741.94 1137.81 Q2746.78 1132.13 2746.78 1122.76 L2746.78 1120.62 L2737.25 1120.62 M2756.37 1116.66 L2756.37 1149.94 L2746.78 1149.94 L2746.78 1141.09 Q2743.5 1146.4 2738.61 1148.95 Q2733.71 1151.45 2726.63 1151.45 Q2717.67 1151.45 2712.36 1146.45 Q2707.1 1141.4 2707.1 1132.96 Q2707.1 1123.12 2713.66 1118.12 Q2720.27 1113.12 2733.34 1113.12 L2746.78 1113.12 L2746.78 1112.18 Q2746.78 1105.57 2742.41 1101.98 Q2738.08 1098.33 2730.22 1098.33 Q2725.22 1098.33 2720.48 1099.53 Q2715.74 1100.73 2711.37 1103.12 L2711.37 1094.27 Q2716.63 1092.24 2721.57 1091.25 Q2726.52 1090.2 2731.21 1090.2 Q2743.87 1090.2 2750.12 1096.77 Q2756.37 1103.33 2756.37 1116.66 Z" fill="#000000" fill-rule="nonzero" fill-opacity="1" /><path clip-path="url(#clip230)" d="M2800.38 1155.36 Q2796.31 1165.78 2792.46 1168.95 Q2788.61 1172.13 2782.15 1172.13 L2774.49 1172.13 L2774.49 1164.11 L2780.12 1164.11 Q2784.07 1164.11 2786.26 1162.24 Q2788.45 1160.36 2791.11 1153.38 L2792.82 1149.01 L2769.23 1091.61 L2779.39 1091.61 L2797.62 1137.24 L2815.84 1091.61 L2826 1091.61 L2800.38 1155.36 Z" fill="#000000" fill-rule="nonzero" fill-opacity="1" /><path clip-path="url(#clip230)" d="M2837.72 1069.01 L2846.05 1069.01 Q2853.87 1081.3 2857.72 1093.07 Q2861.63 1104.84 2861.63 1116.45 Q2861.63 1128.12 2857.72 1139.94 Q2853.87 1151.77 2846.05 1164.01 L2837.72 1164.01 Q2844.65 1152.08 2848.03 1140.31 Q2851.47 1128.49 2851.47 1116.45 Q2851.47 1104.42 2848.03 1092.7 Q2844.65 1080.99 2837.72 1069.01 Z" fill="#000000" fill-rule="nonzero" fill-opacity="1" /><polyline clip-path="url(#clip230)" style="stroke:#000000; stroke-linecap:round; stroke-linejoin:round; stroke-width:4; stroke-opacity:1; fill:none" points="404.977,880.951 404.977,47.2441 "/>
<polyline clip-path="url(#clip230)" style="stroke:#000000; stroke-linecap:round; stroke-linejoin:round; stroke-width:4; stroke-opacity:1; fill:none" points="404.977,758.039 423.875,758.039 "/>
<polyline clip-path="url(#clip230)" style="stroke:#000000; stroke-linecap:round; stroke-linejoin:round; stroke-width:4; stroke-opacity:1; fill:none" points="404.977,615.208 423.875,615.208 "/>
<polyline clip-path="url(#clip230)" style="stroke:#000000; stroke-linecap:round; stroke-linejoin:round; stroke-width:4; stroke-opacity:1; fill:none" points="404.977,472.378 423.875,472.378 "/>
<polyline clip-path="url(#clip230)" style="stroke:#000000; stroke-linecap:round; stroke-linejoin:round; stroke-width:4; stroke-opacity:1; fill:none" points="404.977,329.547 423.875,329.547 "/>
<polyline clip-path="url(#clip230)" style="stroke:#000000; stroke-linecap:round; stroke-linejoin:round; stroke-width:4; stroke-opacity:1; fill:none" points="404.977,186.717 423.875,186.717 "/>
<path clip-path="url(#clip230)" d="M149.228 758.941 L208.58 758.941 L208.58 766.812 L149.228 766.812 L149.228 758.941 Z" fill="#000000" fill-rule="nonzero" fill-opacity="1" /><path clip-path="url(#clip230)" d="M248.765 759.775 Q242.098 759.775 238.256 763.339 Q234.459 766.904 234.459 773.154 Q234.459 779.404 238.256 782.969 Q242.098 786.534 248.765 786.534 Q255.431 786.534 259.274 782.969 Q263.117 779.358 263.117 773.154 Q263.117 766.904 259.274 763.339 Q255.478 759.775 248.765 759.775 M239.413 755.793 Q233.395 754.312 230.015 750.191 Q226.682 746.071 226.682 740.145 Q226.682 731.858 232.561 727.043 Q238.487 722.229 248.765 722.229 Q259.089 722.229 264.968 727.043 Q270.848 731.858 270.848 740.145 Q270.848 746.071 267.468 750.191 Q264.135 754.312 258.163 755.793 Q264.922 757.367 268.672 761.951 Q272.468 766.534 272.468 773.154 Q272.468 783.2 266.311 788.571 Q260.2 793.941 248.765 793.941 Q237.33 793.941 231.172 788.571 Q225.061 783.2 225.061 773.154 Q225.061 766.534 228.858 761.951 Q232.654 757.367 239.413 755.793 M235.987 741.025 Q235.987 746.395 239.32 749.404 Q242.7 752.414 248.765 752.414 Q254.783 752.414 258.163 749.404 Q261.589 746.395 261.589 741.025 Q261.589 735.654 258.163 732.645 Q254.783 729.636 248.765 729.636 Q242.7 729.636 239.32 732.645 Q235.987 735.654 235.987 741.025 Z" fill="#000000" fill-rule="nonzero" fill-opacity="1" /><path clip-path="url(#clip230)" d="M309.089 729.636 Q301.866 729.636 298.209 736.766 Q294.598 743.849 294.598 758.108 Q294.598 772.321 298.209 779.45 Q301.866 786.534 309.089 786.534 Q316.357 786.534 319.968 779.45 Q323.626 772.321 323.626 758.108 Q323.626 743.849 319.968 736.766 Q316.357 729.636 309.089 729.636 M309.089 722.229 Q320.709 722.229 326.82 731.441 Q332.977 740.608 332.977 758.108 Q332.977 775.562 326.82 784.775 Q320.709 793.941 309.089 793.941 Q297.468 793.941 291.311 784.775 Q285.2 775.562 285.2 758.108 Q285.2 740.608 291.311 731.441 Q297.468 722.229 309.089 722.229 Z" fill="#000000" fill-rule="nonzero" fill-opacity="1" /><path clip-path="url(#clip230)" d="M149.228 616.111 L208.58 616.111 L208.58 623.981 L149.228 623.981 L149.228 616.111 Z" fill="#000000" fill-rule="nonzero" fill-opacity="1" /><path clip-path="url(#clip230)" d="M249.922 611.481 Q243.626 611.481 239.922 615.787 Q236.265 620.092 236.265 627.592 Q236.265 635.046 239.922 639.398 Q243.626 643.703 249.922 643.703 Q256.219 643.703 259.876 639.398 Q263.58 635.046 263.58 627.592 Q263.58 620.092 259.876 615.787 Q256.219 611.481 249.922 611.481 M268.487 582.176 L268.487 590.694 Q264.968 589.028 261.357 588.148 Q257.793 587.268 254.274 587.268 Q245.015 587.268 240.107 593.518 Q235.246 599.768 234.552 612.407 Q237.283 608.379 241.404 606.25 Q245.524 604.074 250.478 604.074 Q260.894 604.074 266.913 610.416 Q272.978 616.713 272.978 627.592 Q272.978 638.24 266.681 644.676 Q260.385 651.111 249.922 651.111 Q237.932 651.111 231.589 641.944 Q225.246 632.731 225.246 615.278 Q225.246 598.889 233.024 589.167 Q240.802 579.398 253.904 579.398 Q257.422 579.398 260.987 580.093 Q264.598 580.787 268.487 582.176 Z" fill="#000000" fill-rule="nonzero" fill-opacity="1" /><path clip-path="url(#clip230)" d="M309.089 586.805 Q301.866 586.805 298.209 593.935 Q294.598 601.018 294.598 615.278 Q294.598 629.49 298.209 636.62 Q301.866 643.703 309.089 643.703 Q316.357 643.703 319.968 636.62 Q323.626 629.49 323.626 615.278 Q323.626 601.018 319.968 593.935 Q316.357 586.805 309.089 586.805 M309.089 579.398 Q320.709 579.398 326.82 588.611 Q332.977 597.778 332.977 615.278 Q332.977 632.731 326.82 641.944 Q320.709 651.111 309.089 651.111 Q297.468 651.111 291.311 641.944 Q285.2 632.731 285.2 615.278 Q285.2 597.778 291.311 588.611 Q297.468 579.398 309.089 579.398 Z" fill="#000000" fill-rule="nonzero" fill-opacity="1" /><path clip-path="url(#clip230)" d="M149.228 473.28 L208.58 473.28 L208.58 481.151 L149.228 481.151 L149.228 473.28 Z" fill="#000000" fill-rule="nonzero" fill-opacity="1" /><path clip-path="url(#clip230)" d="M254.459 445.966 L230.848 482.864 L254.459 482.864 L254.459 445.966 M252.006 437.818 L263.765 437.818 L263.765 482.864 L273.626 482.864 L273.626 490.641 L263.765 490.641 L263.765 506.938 L254.459 506.938 L254.459 490.641 L223.256 490.641 L223.256 481.614 L252.006 437.818 Z" fill="#000000" fill-rule="nonzero" fill-opacity="1" /><path clip-path="url(#clip230)" d="M309.089 443.975 Q301.866 443.975 298.209 451.105 Q294.598 458.188 294.598 472.447 Q294.598 486.66 298.209 493.79 Q301.866 500.873 309.089 500.873 Q316.357 500.873 319.968 493.79 Q323.626 486.66 323.626 472.447 Q323.626 458.188 319.968 451.105 Q316.357 443.975 309.089 443.975 M309.089 436.568 Q320.709 436.568 326.82 445.781 Q332.977 454.947 332.977 472.447 Q332.977 489.901 326.82 499.114 Q320.709 508.28 309.089 508.28 Q297.468 508.28 291.311 499.114 Q285.2 489.901 285.2 472.447 Q285.2 454.947 291.311 445.781 Q297.468 436.568 309.089 436.568 Z" fill="#000000" fill-rule="nonzero" fill-opacity="1" /><path clip-path="url(#clip230)" d="M149.228 330.45 L208.58 330.45 L208.58 338.32 L149.228 338.32 L149.228 330.45 Z" fill="#000000" fill-rule="nonzero" fill-opacity="1" /><path clip-path="url(#clip230)" d="M236.82 356.237 L269.459 356.237 L269.459 364.107 L225.571 364.107 L225.571 356.237 Q230.895 350.728 240.061 341.468 Q249.274 332.163 251.635 329.478 Q256.126 324.431 257.885 320.959 Q259.691 317.441 259.691 314.061 Q259.691 308.552 255.802 305.08 Q251.959 301.607 245.756 301.607 Q241.357 301.607 236.45 303.135 Q231.589 304.663 226.033 307.765 L226.033 298.32 Q231.682 296.052 236.589 294.895 Q241.496 293.737 245.57 293.737 Q256.311 293.737 262.7 299.107 Q269.089 304.478 269.089 313.459 Q269.089 317.718 267.468 321.561 Q265.894 325.357 261.681 330.543 Q260.524 331.885 254.32 338.32 Q248.117 344.709 236.82 356.237 Z" fill="#000000" fill-rule="nonzero" fill-opacity="1" /><path clip-path="url(#clip230)" d="M309.089 301.145 Q301.866 301.145 298.209 308.274 Q294.598 315.357 294.598 329.617 Q294.598 343.829 298.209 350.959 Q301.866 358.042 309.089 358.042 Q316.357 358.042 319.968 350.959 Q323.626 343.829 323.626 329.617 Q323.626 315.357 319.968 308.274 Q316.357 301.145 309.089 301.145 M309.089 293.737 Q320.709 293.737 326.82 302.95 Q332.977 312.117 332.977 329.617 Q332.977 347.07 326.82 356.283 Q320.709 365.45 309.089 365.45 Q297.468 365.45 291.311 356.283 Q285.2 347.07 285.2 329.617 Q285.2 312.117 291.311 302.95 Q297.468 293.737 309.089 293.737 Z" fill="#000000" fill-rule="nonzero" fill-opacity="1" /><path clip-path="url(#clip230)" d="M309.089 158.314 Q301.866 158.314 298.209 165.444 Q294.598 172.527 294.598 186.786 Q294.598 200.999 298.209 208.129 Q301.866 215.212 309.089 215.212 Q316.357 215.212 319.968 208.129 Q323.626 200.999 323.626 186.786 Q323.626 172.527 319.968 165.444 Q316.357 158.314 309.089 158.314 M309.089 150.907 Q320.709 150.907 326.82 160.12 Q332.977 169.286 332.977 186.786 Q332.977 204.24 326.82 213.453 Q320.709 222.619 309.089 222.619 Q297.468 222.619 291.311 213.453 Q285.2 204.24 285.2 186.786 Q285.2 169.286 291.311 160.12 Q297.468 150.907 309.089 150.907 Z" fill="#000000" fill-rule="nonzero" fill-opacity="1" /><path clip-path="url(#clip232)" d="M528.028 206.784 L545.118 231.903 L562.208 259.914 L579.299 289.753 L596.389 318.449 L613.479 348.886 L630.57 366.247 L647.66 376.421 L664.75 365.722 L681.841 350.652 L698.931 340.325 L716.021 330.949 L733.112 326.431 L750.202 328.699 L767.292 336.905 L784.383 348.91 L801.473 359.461 L818.563 369.536 L835.654 379.248 L852.744 390.359 L869.834 401.87 L886.925 410.305 L904.015 407.77 L921.105 397.939 L938.195 391.804 L955.286 418.542 L972.376 447.961 L989.466 479.164 L1006.56 509.141 L1023.65 536.145 L1040.74 549.816 L1057.83 551.775 L1074.92 535.611 L1092.01 512.738 L1109.1 492.687 L1126.19 473.483 L1143.28 456.492 L1160.37 447.298 L1177.46 443.874 L1194.55 445.521 L1211.64 446.07 L1228.73 449.844 L1245.82 455.04 L1262.91 465.354 L1280 476.189 L1297.09 484.065 L1314.18 480.807 L1331.27 470.076 L1348.36 467.351 L1365.45 493.862 L1382.54 523.212 L1399.63 554.446 L1416.72 584.556 L1433.81 611.446 L1450.91 624.834 L1468 624.963 L1485.09 604.509 L1502.18 576.256 L1519.27 551.321 L1536.36 527.462 L1553.45 505.659 L1570.54 492.007 L1587.63 485.036 L1604.72 482.98 L1621.81 481.303 L1638.9 483.283 L1655.99 486.992 L1673.08 496.557 L1690.17 507.529 L1707.26 515.654 L1724.35 512.429 L1741.44 501.417 L1758.53 494.395 L1775.62 520.75 L1792.71 550.16 L1809.8 581.503 L1826.89 611.716 L1843.98 638.914 L1861.07 651.828 L1878.16 655.133 L1895.25 641.753 L1912.34 609.049 L1929.43 582.519 L1946.52 556.833 L1963.61 533.686 L1980.71 518.246 L1997.8 509.095 L2014.89 505.443 L2031.98 502.795 L2049.07 504.03 L2066.16 507.379 L2083.25 517.303 L2100.34 528.709 L2117.43 537.296 L2134.52 534.289 L2151.61 523.208 L2168.7 524.482 L2185.79 541.64 L2202.88 565.926 L2219.97 597.427 L2237.06 627.839 L2254.15 656.16 L2271.24 677.63 L2288.33 688.068 L2305.42 673.542 L2322.51 640.798 L2339.6 610.612 L2356.69 581.594 L2373.78 555.216 L2390.87 536.52 L2407.96 526.959 L2425.05 522.667 L2442.14 519.108 L2459.23 519.994 L2476.32 522.657 L2493.42 532.842 L2510.51 544.796 L2527.6 553.843 L2544.69 551.075 L2561.78 548.945 L2578.87 551.211 L2595.96 568.563 L2613.05 591.331 L2630.14 619.638 L2647.23 651.281 L2664.32 684.605 L2681.41 706.899 L2698.5 717.891 L2715.59 703.283 L2732.68 670.27 L2749.77 639.498 L2766.86 609.693 L2783.95 582.502 L2801.04 562.186 L2818.13 547.874 L2835.22 537.779 L2852.31 533.778 L2869.4 534.84 L2886.49 537.785 L2903.58 549.801 L2920.67 565.366 L2937.76 577.046 L2954.85 575.036 L2971.94 574.761 L2989.03 577.285 L3006.12 594.93 L3023.22 617.946 L3040.31 646.594 L3057.4 678.758 L3074.49 712.812 L3091.58 735.987 L3108.67 749.073 L3125.76 734.811 L3142.85 701.514 L3159.94 670.477 L3177.03 640.101 L3194.12 611.881 L3211.21 590.271 L3228.3 574.701 L3245.39 564.03 L3262.48 555.747 L3279.57 557.483 L3296.66 563.963 L3313.75 579.106 L3330.84 595.89 L3347.93 608.875 L3365.02 607.818 L3382.11 601.032 L3399.2 603.766 L3416.29 621.599 L3433.38 644.773 L3450.47 673.692 L3467.56 706.317 L3484.65 741.069 L3501.74 764.882 L3518.83 777.139 L3535.92 764.28 L3553.02 734.209 L3570.11 705.933 L3587.2 674.678 L3604.29 643.947 L3621.38 620.468 L3638.47 604.323 L3655.56 595.228 L3672.65 589.248 L3689.74 589.462 L3706.83 595.961 L3723.92 612.158 L3741.01 630.362 L3758.1 644.797 L3775.19 644.774 L3792.28 633.738 L3809.37 628.742 L3826.46 646.808 L3843.55 670.189 L3860.64 699.43 L3877.73 732.572 L3894.82 768.07 L3911.91 792.783 L3929 807.327 L3946.09 802.201 L3963.18 776.385 L3980.27 748.607 L3997.36 717.002 L4014.45 685.266 L4031.54 660.548 L4048.63 642.898 L4065.72 632.564 L4082.82 625.122 L4099.91 625.95 L4117 632.909 L4134.09 650.262 L4151.18 670.331 L4168.27 686.657 L4185.36 688.014 L4202.45 677.675 L4219.54 666.559 L4236.63 674.737 L4253.72 697.733 L4270.81 727.308 L4287.9 760.985 L4304.99 797.274 L4322.08 831.616 L4339.17 857.356 L4356.26 855.028 L4373.35 828.737 L4390.44 801.314 L4407.53 770.027 L4424.62 737.56 L4441.71 711.283 L4458.8 691.775 L4475.89 679.721 L4492.98 671.599 L4510.07 672.521 L4527.16 680.537 L4544.25 699.984 L4561.34 722.219 L4578.43 740.73 L4595.52 743.65 L4612.62 734.057 L4629.71 722.939 L4629.71 95.811 L4612.62 96.5097 L4595.52 99.8931 L4578.43 102.756 L4561.34 103.384 L4544.25 104.438 L4527.16 106.161 L4510.07 110.212 L4492.98 113.182 L4475.89 114.981 L4458.8 112.929 L4441.71 109.48 L4424.62 106.56 L4407.53 107.168 L4390.44 112.573 L4373.35 123.979 L4356.26 141.777 L4339.17 154.845 L4322.08 156.803 L4304.99 152.345 L4287.9 140.544 L4270.81 127.072 L4253.72 113.306 L4236.63 101.335 L4219.54 93.2658 L4202.45 93.8508 L4185.36 97.3068 L4168.27 100.269 L4151.18 100.985 L4134.09 102.048 L4117 103.741 L4099.91 107.68 L4082.82 110.494 L4065.72 112.279 L4048.63 110.276 L4031.54 106.54 L4014.45 103.535 L3997.36 104.175 L3980.27 108.818 L3963.18 119.868 L3946.09 137.547 L3929 150.573 L3911.91 152.573 L3894.82 148.119 L3877.73 136.367 L3860.64 122.95 L3843.55 109.242 L3826.46 97.5522 L3809.37 89.3111 L3792.28 89.8632 L3775.19 93.2967 L3758.1 96.2385 L3741.01 96.9331 L3723.92 97.9765 L3706.83 99.6225 L3689.74 102.73 L3672.65 105.655 L3655.56 108.035 L3638.47 105.635 L3621.38 101.597 L3604.29 98.394 L3587.2 98.8719 L3570.11 104.083 L3553.02 115.298 L3535.92 133.055 L3518.83 146.164 L3501.74 148.242 L3484.65 143.868 L3467.56 132.149 L3450.47 118.734 L3433.38 105.009 L3416.29 93.3123 L3399.2 84.9969 L3382.11 85.4855 L3365.02 88.8372 L3347.93 91.6414 L3330.84 92.1841 L3313.75 93.178 L3296.66 94.8253 L3279.57 98.2346 L3262.48 101.09 L3245.39 102.958 L3228.3 100.501 L3211.21 96.3142 L3194.12 92.9185 L3177.03 93.0804 L3159.94 98.4395 L3142.85 109.776 L3125.76 127.535 L3108.67 140.697 L3091.58 142.807 L3074.49 138.484 L3057.4 126.836 L3040.31 113.489 L3023.22 99.829 L3006.12 88.1497 L2989.03 79.8758 L2971.94 80.3506 L2954.85 83.6674 L2937.76 86.4442 L2920.67 86.9273 L2903.58 87.7222 L2886.49 88.9748 L2869.4 91.8814 L2852.31 94.5824 L2835.22 96.6914 L2818.13 94.5129 L2801.04 90.893 L2783.95 87.5331 L2766.86 87.9351 L2749.77 93.0528 L2732.68 104.303 L2715.59 122.173 L2698.5 135.386 L2681.41 137.567 L2664.32 133.291 L2647.23 121.719 L2630.14 108.452 L2613.05 94.8489 L2595.96 83.231 L2578.87 74.9909 L2561.78 75.5753 L2544.69 78.978 L2527.6 81.8254 L2510.51 82.3988 L2493.42 83.2878 L2476.32 83.4809 L2459.23 86.4262 L2442.14 89.1765 L2425.05 91.3996 L2407.96 90.2057 L2390.87 86.2919 L2373.78 82.9222 L2356.69 83.238 L2339.6 88.1895 L2322.51 99.0026 L2305.42 116.866 L2288.33 130.188 L2271.24 132.556 L2254.15 128.505 L2237.06 117.108 L2219.97 104.011 L2202.88 90.569 L2185.79 79.116 L2168.7 71.0169 L2151.61 71.7315 L2134.52 75.3112 L2117.43 78.3417 L2100.34 79.1318 L2083.25 80.1227 L2066.16 80.2741 L2049.07 83.3682 L2031.98 86.2595 L2014.89 88.6517 L1997.8 87.3716 L1980.71 83.405 L1963.61 79.9366 L1946.52 80.2405 L1929.43 85.3124 L1912.34 96.6231 L1895.25 114.639 L1878.16 128.138 L1861.07 130.676 L1843.98 126.884 L1826.89 115.747 L1809.8 102.923 L1792.71 89.7754 L1775.62 78.6159 L1758.53 70.8396 L1741.44 71.8413 L1724.35 75.7126 L1707.26 79.0593 L1690.17 80.1139 L1673.08 81.4546 L1655.99 82.8394 L1638.9 86.2216 L1621.81 89.3956 L1604.72 92.0378 L1587.63 90.2482 L1570.54 86.7795 L1553.45 83.9339 L1536.36 84.8672 L1519.27 90.4505 L1502.18 101.849 L1485.09 120.36 L1468 134.299 L1450.91 137.283 L1433.81 133.89 L1416.72 123.111 L1399.63 110.61 L1382.54 97.777 L1365.45 86.3997 L1348.36 79.4692 L1331.27 80.8683 L1314.18 85.1536 L1297.09 89.0107 L1280 90.6426 L1262.91 92.5572 L1245.82 95.0637 L1228.73 98.1815 L1211.64 101.103 L1194.55 103.594 L1177.46 103.537 L1160.37 102.28 L1143.28 100.31 L1126.19 102.116 L1109.1 108.459 L1092.01 120.674 L1074.92 139.743 L1057.83 154.338 L1040.74 158.026 L1023.65 155.338 L1006.56 145.348 L989.466 131.403 L972.376 116.207 L955.286 104.206 L938.195 98.2621 L921.105 104.308 L904.015 113.933 L886.925 119.281 L869.834 121.353 L852.744 120.654 L835.654 121.829 L818.563 126.312 L801.473 130.48 L784.383 134.05 L767.292 135.093 L750.202 129.609 L733.112 127.144 L716.021 133.574 L698.931 146.906 L681.841 162.331 L664.75 185.525 L647.66 204.878 L630.57 212.554 L613.479 213.242 L596.389 206.748 L579.299 198.203 L562.208 185.302 L545.118 175.585 L528.028 171.613  Z" fill="#aeaeae" fill-rule="evenodd" fill-opacity="0.5"/>
<polyline clip-path="url(#clip232)" style="stroke:#aeaeae; stroke-linecap:round; stroke-linejoin:round; stroke-width:0; stroke-opacity:1; fill:none" points="528.028,184.233 545.118,188.505 562.208,194.869 579.299,202.375 596.389,209.612 613.479,215.777 630.57,217.45 647.66,215.152 664.75,206.395 681.841,195.033 698.931,187.58 716.021,183.036 733.112,181.109 750.202,182.074 767.292,184.552 784.383,187.257 801.473,188.442 818.563,188.777 835.654,187.912 852.744,187.726 869.834,187.562 886.925,187.216 904.015,185.09 921.105,182.317 938.195,181.208 955.286,185.595 972.376,192.164 989.466,199.92 1006.56,207.411 1023.65,213.859 1040.74,215.775 1057.83,213.689 1074.92,205.017 1092.01,193.636 1109.1,186.24 1126.19,181.849 1143.28,180.09 1160.37,181.194 1177.46,183.751 1194.55,186.495 1211.64,187.717 1228.73,188.065 1245.82,187.25 1262.91,187.205 1280,187.227 1297.09,187.066 1314.18,185.11 1331.27,182.488 1348.36,181.514 1365.45,186.037 1382.54,192.733 1399.63,200.609 1416.72,208.236 1433.81,214.808 1450.91,216.841 1468,214.839 1485.09,206.149 1502.18,194.708 1519.27,187.232 1536.36,182.762 1553.45,180.939 1570.54,181.998 1587.63,184.524 1604.72,187.234 1621.81,188.418 1638.9,188.755 1655.99,187.969 1673.08,188 1690.17,188.106 1707.26,188.032 1724.35,186.159 1741.44,183.612 1758.53,182.707 1775.62,187.3 1792.71,194.067 1809.8,202.015 1826.89,209.713 1843.98,216.365 1861.07,218.471 1878.16,216.557 1895.25,207.938 1912.34,196.512 1929.43,189.01 1946.52,184.499 1963.61,182.634 1980.71,183.65 1997.8,186.139 2014.89,188.811 2031.98,189.962 2049.07,190.309 2066.16,189.536 2083.25,189.591 2100.34,189.726 2117.43,189.689 2134.52,187.852 2151.61,185.338 2168.7,184.465 2185.79,189.095 2202.88,195.901 2219.97,203.899 2237.06,211.638 2254.15,218.331 2271.24,220.488 2288.33,218.551 2305.42,209.934 2322.51,198.507 2339.6,190.964 2356.69,186.413 2373.78,184.51 2390.87,185.483 2407.96,187.938 2425.05,190.581 2442.14,191.698 2459.23,192.02 2476.32,191.228 2493.42,191.289 2510.51,191.44 2527.6,191.421 2544.69,189.601 2561.78,187.106 2578.87,186.248 2595.96,190.898 2613.05,197.729 2630.14,205.751 2647.23,213.526 2664.32,220.26 2681.41,222.457 2698.5,220.589 2715.59,212.011 2732.68,200.55 2749.77,192.975 2766.86,188.39 2783.95,186.435 2801.04,187.362 2818.13,189.768 2835.22,192.356 2852.31,193.456 2869.4,193.743 2886.49,192.923 2903.58,192.966 2920.67,193.108 2937.76,193.091 2954.85,191.277 2971.94,188.788 2989.03,187.937 3006.12,192.596 3023.22,199.439 3040.31,207.473 3057.4,215.27 3074.49,222.026 3091.58,224.251 3108.67,222.412 3125.76,213.824 3142.85,202.366 3159.94,194.757 3177.03,190.129 3194.12,188.139 3211.21,189.023 3228.3,191.393 3245.39,193.943 3262.48,194.997 3279.57,195.261 3296.66,194.432 3313.75,194.458 3330.84,194.595 3347.93,194.582 3365.02,192.773 3382.11,190.288 3399.2,189.441 3416.29,194.107 3433.38,200.956 3450.47,209.006 3467.56,216.821 3484.65,223.598 3501.74,225.842 3518.83,224.022 3535.92,215.432 3553.02,203.947 3570.11,196.336 3587.2,191.683 3604.29,189.647 3621.38,190.49 3638.47,192.818 3655.56,195.353 3672.65,196.356 3689.74,196.582 3706.83,195.724 3723.92,195.752 3741.01,195.886 3758.1,195.871 3775.19,194.062 3792.28,191.578 3809.37,190.732 3826.46,195.401 3843.55,202.256 3860.64,210.311 3877.73,218.132 3894.82,224.923 3911.91,227.178 3929,225.372 3946.09,216.818 3963.18,205.328 3980.27,197.688 3997.36,193.008 4014.45,190.947 4031.54,191.758 4048.63,194.053 4065.72,196.545 4082.82,197.521 4099.91,197.729 4117,196.86 4134.09,196.891 4151.18,197.024 4168.27,197.012 4185.36,195.202 4202.45,192.713 4219.54,191.863 4236.63,196.531 4253.72,203.386 4270.81,211.443 4287.9,219.268 4304.99,226.067 4322.08,228.331 4339.17,226.53 4356.26,217.952 4373.35,206.466 4390.44,198.802 4407.53,194.099 4424.62,192.011 4441.71,192.795 4458.8,195.065 4475.89,197.527 4492.98,198.484 4510.07,198.679 4527.16,197.804 4544.25,197.816 4561.34,197.943 4578.43,197.93 4595.52,196.123 4612.62,193.639 4629.71,192.787 "/>
<path clip-path="url(#clip232)" d="M528.028 194.125 L545.118 206.11 L562.208 224.225 L579.299 246.341 L596.389 270.837 L613.479 293.929 L630.57 307.033 L647.66 310.379 L664.75 294.289 L681.841 269.104 L698.931 254.124 L716.021 242.934 L733.112 237.945 L750.202 239.768 L767.292 245.128 L784.383 252.682 L801.473 257.833 L818.563 264.204 L835.654 265.13 L852.744 268.756 L869.834 271.202 L886.925 270.943 L904.015 270.241 L921.105 265.563 L938.195 267.541 L955.286 280.404 L972.376 297.873 L989.466 321.615 L1006.56 345.142 L1023.65 365.8 L1040.74 377.427 L1057.83 377.428 L1074.92 359.827 L1092.01 331.112 L1109.1 311.914 L1126.19 294.266 L1143.28 285.331 L1160.37 283.815 L1177.46 284.455 L1194.55 286.813 L1211.64 285.289 L1228.73 287.449 L1245.82 287.524 L1262.91 289.519 L1280 294.51 L1297.09 296.326 L1314.18 296.427 L1331.27 294.235 L1348.36 292.536 L1365.45 303.897 L1382.54 323.512 L1399.63 347.163 L1416.72 371.106 L1433.81 392.17 L1450.91 402.535 L1468 405.655 L1485.09 385.397 L1502.18 355.213 L1519.27 331.766 L1536.36 312.307 L1553.45 301.483 L1570.54 298.481 L1587.63 298.289 L1604.72 298.835 L1621.81 296.703 L1638.9 297.03 L1655.99 295.082 L1673.08 296.298 L1690.17 301.754 L1707.26 306.874 L1724.35 306.858 L1741.44 304.944 L1758.53 302.684 L1775.62 312.049 L1792.71 330.761 L1809.8 354.261 L1826.89 380.386 L1843.98 401.561 L1861.07 412.462 L1878.16 413.468 L1895.25 395.939 L1912.34 367.405 L1929.43 341.994 L1946.52 321.312 L1963.61 309.421 L1980.71 303.956 L1997.8 302.535 L2014.89 303.256 L2031.98 302.796 L2049.07 301.239 L2066.16 299.552 L2083.25 303.286 L2100.34 307.278 L2117.43 313.469 L2134.52 312.61 L2151.61 311.069 L2168.7 315.49 L2185.79 324.5 L2202.88 337.942 L2219.97 360.551 L2237.06 386.706 L2254.15 407.257 L2271.24 416.956 L2288.33 418.703 L2305.42 402.379 L2322.51 374.677 L2339.6 348.756 L2356.69 327.569 L2373.78 311.074 L2390.87 307.504 L2407.96 307.451 L2425.05 308.24 L2442.14 308.097 L2459.23 306.209 L2476.32 304.907 L2493.42 308.238 L2510.51 312.547 L2527.6 318.23 L2544.69 316.497 L2561.78 315.989 L2578.87 318.05 L2595.96 331.47 L2613.05 349.405 L2630.14 366.995 L2647.23 390.905 L2664.32 409.437 L2681.41 420.779 L2698.5 422.083 L2715.59 408.97 L2732.68 380.411 L2749.77 352.806 L2766.86 331.551 L2783.95 317.309 L2801.04 310.719 L2818.13 311.023 L2835.22 311.43 L2852.31 310.726 L2869.4 309.327 L2886.49 306.896 L2903.58 310.481 L2920.67 315.381 L2937.76 320.483 L2954.85 319.99 L2971.94 318.778 L2989.03 321.089 L3006.12 334.3 L3023.22 352.251 L3040.31 374.654 L3057.4 393.998 L3074.49 412.694 L3091.58 422.944 L3108.67 427.588 L3125.76 413.285 L3142.85 382.77 L3159.94 355.081 L3177.03 334.296 L3194.12 319.402 L3211.21 313.475 L3228.3 313.747 L3245.39 314.315 L3262.48 313.544 L3279.57 311.891 L3296.66 308.579 L3313.75 312.593 L3330.84 318.483 L3347.93 322.32 L3365.02 322.218 L3382.11 320.636 L3399.2 323.309 L3416.29 338.751 L3433.38 356.407 L3450.47 377.496 L3467.56 397.53 L3484.65 415.9 L3501.74 425.945 L3518.83 429.738 L3535.92 416.742 L3553.02 384.77 L3570.11 356.725 L3587.2 337.901 L3604.29 320.023 L3621.38 315.142 L3638.47 315.966 L3655.56 316.43 L3672.65 315.941 L3689.74 314.351 L3706.83 310.307 L3723.92 315.512 L3741.01 320.767 L3758.1 324.115 L3775.19 325.977 L3792.28 323.562 L3809.37 327.279 L3826.46 340.148 L3843.55 357.671 L3860.64 379.38 L3877.73 400.912 L3894.82 418.024 L3911.91 429.911 L3929 432.117 L3946.09 418.19 L3963.18 385.73 L3980.27 359.573 L3997.36 340.071 L4014.45 320.468 L4031.54 317.892 L4048.63 317.6 L4065.72 318.627 L4082.82 317.56 L4099.91 316.23 L4117 313.506 L4134.09 319.281 L4151.18 324.691 L4168.27 326.162 L4185.36 327.375 L4202.45 325.125 L4219.54 330.121 L4236.63 342.039 L4253.72 358.836 L4270.81 379.913 L4287.9 403.873 L4304.99 421.61 L4322.08 432.304 L4339.17 433.741 L4356.26 418.222 L4373.35 386.464 L4390.44 362.938 L4407.53 342.788 L4424.62 324.811 L4441.71 321.106 L4458.8 319.356 L4475.89 320.787 L4492.98 319.032 L4510.07 317.468 L4527.16 315.334 L4544.25 320.227 L4561.34 325.636 L4578.43 327.676 L4595.52 328.973 L4612.62 328.875 L4629.71 330.47 L4629.71 123.876 L4612.62 126.565 L4595.52 134.529 L4578.43 140.388 L4561.34 140.115 L4544.25 141.476 L4527.16 142.788 L4510.07 146.435 L4492.98 149.299 L4475.89 146.758 L4458.8 140.622 L4441.71 136.202 L4424.62 131.989 L4407.53 133.353 L4390.44 140.598 L4373.35 152.785 L4356.26 173.035 L4339.17 187.885 L4322.08 190.759 L4304.99 186.325 L4287.9 173.72 L4270.81 158.464 L4253.72 142.907 L4236.63 129.718 L4219.54 121.424 L4202.45 124.597 L4185.36 131.987 L4168.27 137.768 L4151.18 137.371 L4134.09 139.019 L4117 139.648 L4099.91 143.379 L4082.82 146.448 L4065.72 144.816 L4048.63 137.854 L4031.54 132.302 L4014.45 130.333 L3997.36 130.843 L3980.27 138.693 L3963.18 150.459 L3946.09 169.88 L3929 184.768 L3911.91 188.333 L3894.82 184.052 L3877.73 171.174 L3860.64 155.69 L3843.55 140.178 L3826.46 127.396 L3809.37 119.544 L3792.28 122.653 L3775.19 129.183 L3758.1 134.085 L3741.01 134.614 L3723.92 134.754 L3706.83 135.915 L3689.74 139.935 L3672.65 142.222 L3655.56 142.376 L3638.47 135.024 L3621.38 129.56 L3604.29 126.609 L3587.2 128.43 L3570.11 135.501 L3553.02 146.794 L3535.92 166.344 L3518.83 181.823 L3501.74 184.83 L3484.65 180.507 L3467.56 167.84 L3450.47 152.925 L3433.38 137.173 L3416.29 124.491 L3399.2 116.766 L3382.11 119.346 L3365.02 126.17 L3347.93 130.335 L3330.84 129.73 L3313.75 128.707 L3296.66 130.923 L3279.57 135.195 L3262.48 137.666 L3245.39 136.773 L3228.3 131.371 L3211.21 125.612 L3194.12 122.013 L3177.03 124.238 L3159.94 130.422 L3142.85 142.274 L3125.76 162.187 L3108.67 176.786 L3091.58 180.16 L3074.49 176.399 L3057.4 164.166 L3040.31 148.568 L3023.22 133.649 L3006.12 121.048 L2989.03 112.998 L2971.94 115.568 L2954.85 122.65 L2937.76 125.48 L2920.67 124.318 L2903.58 123.199 L2886.49 125.761 L2869.4 130.199 L2852.31 132.258 L2835.22 131.816 L2818.13 127.112 L2801.04 121.494 L2783.95 118.434 L2766.86 120.145 L2749.77 125.313 L2732.68 137.038 L2715.59 156.187 L2698.5 171.459 L2681.41 175.301 L2664.32 171.69 L2647.23 159.249 L2630.14 144.821 L2613.05 129.474 L2595.96 117.065 L2578.87 109.287 L2561.78 111.535 L2544.69 117.285 L2527.6 120.349 L2510.51 118.349 L2493.42 119.584 L2476.32 121.158 L2459.23 123.45 L2442.14 125.749 L2425.05 127.82 L2407.96 123.677 L2390.87 116.947 L2373.78 113.553 L2356.69 114.706 L2339.6 121.285 L2322.51 132.432 L2305.42 151.718 L2288.33 166.929 L2271.24 170.224 L2254.15 166.836 L2237.06 154.48 L2219.97 140.91 L2202.88 125.902 L2185.79 113.417 L2168.7 105.507 L2151.61 107.468 L2134.52 113.253 L2117.43 116.041 L2100.34 114.004 L2083.25 114.995 L2066.16 115.19 L2049.07 117.899 L2031.98 120.393 L2014.89 122.158 L1997.8 119.732 L1980.71 113.723 L1963.61 110.199 L1946.52 111.565 L1929.43 117.682 L1912.34 129.198 L1895.25 148.655 L1878.16 163.543 L1861.07 167.048 L1843.98 163.684 L1826.89 151.606 L1809.8 138.037 L1792.71 123.708 L1775.62 110.583 L1758.53 103.128 L1741.44 105.326 L1724.35 110.489 L1707.26 113.788 L1690.17 112.442 L1673.08 112.887 L1655.99 113.509 L1638.9 117.147 L1621.81 119.665 L1604.72 121.373 L1587.63 118.712 L1570.54 113.515 L1553.45 109.975 L1536.36 112.018 L1519.27 117.42 L1502.18 129.337 L1485.09 148.761 L1468 164.909 L1450.91 168.657 L1433.81 165.788 L1416.72 153.666 L1399.63 140.097 L1382.54 125.554 L1365.45 113.14 L1348.36 105.725 L1331.27 108.771 L1314.18 114.75 L1297.09 118.518 L1280 120.332 L1262.91 119.378 L1245.82 119.939 L1228.73 123.098 L1211.64 126.361 L1194.55 128.428 L1177.46 125.337 L1160.37 120.837 L1143.28 118.146 L1126.19 120.821 L1109.1 127.851 L1092.01 140.294 L1074.92 160.562 L1057.83 176.983 L1040.74 181.23 L1023.65 178.548 L1006.56 167.367 L989.466 153.04 L972.376 138.513 L955.286 125.838 L938.195 119.116 L921.105 124.463 L904.015 131.66 L886.925 137.609 L869.834 139.011 L852.744 139.64 L835.654 140.547 L818.563 145.221 L801.473 149.231 L784.383 150.979 L767.292 148.143 L750.202 145.157 L733.112 144.186 L716.021 149.683 L698.931 159.344 L681.841 174.805 L664.75 196.312 L647.66 214.088 L630.57 220.941 L613.479 221.033 L596.389 213.547 L579.299 203.154 L562.208 190.391 L545.118 179.772 L528.028 174.507  Z" fill="#757575" fill-rule="evenodd" fill-opacity="0.5"/>
<polyline clip-path="url(#clip232)" style="stroke:#757575; stroke-linecap:round; stroke-linejoin:round; stroke-width:0; stroke-opacity:1; fill:none" points="528.028,184.233 545.118,188.505 562.208,194.869 579.299,202.375 596.389,209.612 613.479,215.777 630.57,217.45 647.66,215.152 664.75,206.395 681.841,195.033 698.931,187.58 716.021,183.036 733.112,181.109 750.202,182.074 767.292,184.552 784.383,187.257 801.473,188.442 818.563,188.777 835.654,187.912 852.744,187.726 869.834,187.562 886.925,187.216 904.015,185.09 921.105,182.317 938.195,181.208 955.286,185.595 972.376,192.164 989.466,199.92 1006.56,207.411 1023.65,213.859 1040.74,215.775 1057.83,213.689 1074.92,205.017 1092.01,193.636 1109.1,186.24 1126.19,181.849 1143.28,180.09 1160.37,181.194 1177.46,183.751 1194.55,186.495 1211.64,187.717 1228.73,188.065 1245.82,187.25 1262.91,187.205 1280,187.227 1297.09,187.066 1314.18,185.11 1331.27,182.488 1348.36,181.514 1365.45,186.037 1382.54,192.733 1399.63,200.609 1416.72,208.236 1433.81,214.808 1450.91,216.841 1468,214.839 1485.09,206.149 1502.18,194.708 1519.27,187.232 1536.36,182.762 1553.45,180.939 1570.54,181.998 1587.63,184.524 1604.72,187.234 1621.81,188.418 1638.9,188.755 1655.99,187.969 1673.08,188 1690.17,188.106 1707.26,188.032 1724.35,186.159 1741.44,183.612 1758.53,182.707 1775.62,187.3 1792.71,194.067 1809.8,202.015 1826.89,209.713 1843.98,216.365 1861.07,218.471 1878.16,216.557 1895.25,207.938 1912.34,196.512 1929.43,189.01 1946.52,184.499 1963.61,182.634 1980.71,183.65 1997.8,186.139 2014.89,188.811 2031.98,189.962 2049.07,190.309 2066.16,189.536 2083.25,189.591 2100.34,189.726 2117.43,189.689 2134.52,187.852 2151.61,185.338 2168.7,184.465 2185.79,189.095 2202.88,195.901 2219.97,203.899 2237.06,211.638 2254.15,218.331 2271.24,220.488 2288.33,218.551 2305.42,209.934 2322.51,198.507 2339.6,190.964 2356.69,186.413 2373.78,184.51 2390.87,185.483 2407.96,187.938 2425.05,190.581 2442.14,191.698 2459.23,192.02 2476.32,191.228 2493.42,191.289 2510.51,191.44 2527.6,191.421 2544.69,189.601 2561.78,187.106 2578.87,186.248 2595.96,190.898 2613.05,197.729 2630.14,205.751 2647.23,213.526 2664.32,220.26 2681.41,222.457 2698.5,220.589 2715.59,212.011 2732.68,200.55 2749.77,192.975 2766.86,188.39 2783.95,186.435 2801.04,187.362 2818.13,189.768 2835.22,192.356 2852.31,193.456 2869.4,193.743 2886.49,192.923 2903.58,192.966 2920.67,193.108 2937.76,193.091 2954.85,191.277 2971.94,188.788 2989.03,187.937 3006.12,192.596 3023.22,199.439 3040.31,207.473 3057.4,215.27 3074.49,222.026 3091.58,224.251 3108.67,222.412 3125.76,213.824 3142.85,202.366 3159.94,194.757 3177.03,190.129 3194.12,188.139 3211.21,189.023 3228.3,191.393 3245.39,193.943 3262.48,194.997 3279.57,195.261 3296.66,194.432 3313.75,194.458 3330.84,194.595 3347.93,194.582 3365.02,192.773 3382.11,190.288 3399.2,189.441 3416.29,194.107 3433.38,200.956 3450.47,209.006 3467.56,216.821 3484.65,223.598 3501.74,225.842 3518.83,224.022 3535.92,215.432 3553.02,203.947 3570.11,196.336 3587.2,191.683 3604.29,189.647 3621.38,190.49 3638.47,192.818 3655.56,195.353 3672.65,196.356 3689.74,196.582 3706.83,195.724 3723.92,195.752 3741.01,195.886 3758.1,195.871 3775.19,194.062 3792.28,191.578 3809.37,190.732 3826.46,195.401 3843.55,202.256 3860.64,210.311 3877.73,218.132 3894.82,224.923 3911.91,227.178 3929,225.372 3946.09,216.818 3963.18,205.328 3980.27,197.688 3997.36,193.008 4014.45,190.947 4031.54,191.758 4048.63,194.053 4065.72,196.545 4082.82,197.521 4099.91,197.729 4117,196.86 4134.09,196.891 4151.18,197.024 4168.27,197.012 4185.36,195.202 4202.45,192.713 4219.54,191.863 4236.63,196.531 4253.72,203.386 4270.81,211.443 4287.9,219.268 4304.99,226.067 4322.08,228.331 4339.17,226.53 4356.26,217.952 4373.35,206.466 4390.44,198.802 4407.53,194.099 4424.62,192.011 4441.71,192.795 4458.8,195.065 4475.89,197.527 4492.98,198.484 4510.07,198.679 4527.16,197.804 4544.25,197.816 4561.34,197.943 4578.43,197.93 4595.52,196.123 4612.62,193.639 4629.71,192.787 "/>
<path clip-path="url(#clip232)" d="M528.028 189.343 L545.118 199.87 L562.208 215.237 L579.299 236.133 L596.389 257.45 L613.479 277.726 L630.57 286.167 L647.66 285.41 L664.75 267.965 L681.841 241.743 L698.931 225.754 L716.021 214.709 L733.112 210.379 L750.202 213.238 L767.292 219.654 L784.383 228.329 L801.473 233.378 L818.563 236.355 L835.654 236.287 L852.744 237.39 L869.834 240.425 L886.925 242.219 L904.015 233.597 L921.105 228.928 L938.195 228.08 L955.286 239.377 L972.376 253.189 L989.466 270.696 L1006.56 289.542 L1023.65 309.006 L1040.74 318.412 L1057.83 319.737 L1074.92 298.067 L1092.01 268.593 L1109.1 251.379 L1126.19 239.713 L1143.28 233.713 L1160.37 234.672 L1177.46 239.499 L1194.55 243.127 L1211.64 247.978 L1228.73 250.395 L1245.82 250.001 L1262.91 251.685 L1280 253.984 L1297.09 252.35 L1314.18 243.904 L1331.27 239.8 L1348.36 240.206 L1365.45 250.39 L1382.54 262.869 L1399.63 281.182 L1416.72 301.101 L1433.81 319.023 L1450.91 327.268 L1468 330.098 L1485.09 310.674 L1502.18 278.486 L1519.27 260.803 L1536.36 247.915 L1553.45 242.523 L1570.54 241.817 L1587.63 245.635 L1604.72 251.304 L1621.81 253.782 L1638.9 254.622 L1655.99 255.396 L1673.08 254.913 L1690.17 258.311 L1707.26 256.788 L1724.35 249.464 L1741.44 246.67 L1758.53 246.098 L1775.62 255.666 L1792.71 270.008 L1809.8 286.261 L1826.89 305.242 L1843.98 324.123 L1861.07 332.069 L1878.16 332.054 L1895.25 313.523 L1912.34 284.245 L1929.43 265.606 L1946.52 252.775 L1963.61 246.947 L1980.71 246.541 L1997.8 249.954 L2014.89 255.184 L2031.98 256.949 L2049.07 258.447 L2066.16 258.952 L2083.25 257.672 L2100.34 260.592 L2117.43 259.197 L2134.52 254.926 L2151.61 251.859 L2168.7 250.874 L2185.79 261.007 L2202.88 273.747 L2219.97 290.312 L2237.06 309.507 L2254.15 328.451 L2271.24 336.296 L2288.33 334.549 L2305.42 314.854 L2322.51 287.243 L2339.6 268.5 L2356.69 256.662 L2373.78 250.802 L2390.87 251.241 L2407.96 254.253 L2425.05 257.916 L2442.14 260.592 L2459.23 262.884 L2476.32 261.535 L2493.42 261.669 L2510.51 264.33 L2527.6 263.374 L2544.69 257.545 L2561.78 254.218 L2578.87 254.141 L2595.96 264.514 L2613.05 278.224 L2630.14 291.823 L2647.23 312.34 L2664.32 331.06 L2681.41 338.574 L2698.5 337.636 L2715.59 318.738 L2732.68 291.694 L2749.77 273.468 L2766.86 261.336 L2783.95 254.731 L2801.04 254.461 L2818.13 257.322 L2835.22 262.147 L2852.31 263.442 L2869.4 265.873 L2886.49 265.591 L2903.58 266.566 L2920.67 267.087 L2937.76 266.498 L2954.85 261.455 L2971.94 259.889 L2989.03 257.141 L3006.12 267.297 L3023.22 283.285 L3040.31 297.22 L3057.4 314.751 L3074.49 332.608 L3091.58 341.942 L3108.67 339.642 L3125.76 321.521 L3142.85 294.377 L3159.94 274.467 L3177.03 264.96 L3194.12 256.813 L3211.21 255.919 L3228.3 259.542 L3245.39 263.561 L3262.48 265.814 L3279.57 267.329 L3296.66 268.326 L3313.75 267.122 L3330.84 268.979 L3347.93 269.284 L3365.02 264.987 L3382.11 262.519 L3399.2 260.476 L3416.29 270.08 L3433.38 285.066 L3450.47 302.173 L3467.56 317.443 L3484.65 335.416 L3501.74 344.003 L3518.83 343.312 L3535.92 325.322 L3553.02 296.363 L3570.11 277.679 L3587.2 266.309 L3604.29 259.753 L3621.38 259.554 L3638.47 261.807 L3655.56 266.337 L3672.65 267.792 L3689.74 269.69 L3706.83 268.754 L3723.92 269.903 L3741.01 270.984 L3758.1 271.841 L3775.19 266.905 L3792.28 265.027 L3809.37 264.107 L3826.46 273.645 L3843.55 286.425 L3860.64 306.998 L3877.73 319.869 L3894.82 336.704 L3911.91 345.491 L3929 344.978 L3946.09 326.631 L3963.18 298.802 L3980.27 280.692 L3997.36 269.443 L4014.45 263.602 L4031.54 261.88 L4048.63 264.744 L4065.72 268.666 L4082.82 269.553 L4099.91 271.391 L4117 270.755 L4134.09 271.356 L4151.18 273.579 L4168.27 274.058 L4185.36 269.359 L4202.45 267.322 L4219.54 266.816 L4236.63 277.132 L4253.72 290.981 L4270.81 307.788 L4287.9 322.698 L4304.99 338.275 L4322.08 346.42 L4339.17 345.741 L4356.26 327.562 L4373.35 300.925 L4390.44 283.432 L4407.53 272.392 L4424.62 265.728 L4441.71 264.149 L4458.8 267.039 L4475.89 271.406 L4492.98 271.554 L4510.07 272.592 L4527.16 273.489 L4544.25 274.248 L4561.34 275.987 L4578.43 277.425 L4595.52 275.154 L4612.62 269.089 L4629.71 268.795 L4629.71 133.186 L4612.62 137.218 L4595.52 144.182 L4578.43 149.632 L4561.34 152.38 L4544.25 154.217 L4527.16 156.482 L4510.07 159.447 L4492.98 160.156 L4475.89 159.001 L4458.8 151.573 L4441.71 144.019 L4424.62 140.653 L4407.53 141.591 L4390.44 148.306 L4373.35 160.978 L4356.26 181.882 L4339.17 197.835 L4322.08 201.451 L4304.99 197.867 L4287.9 186.401 L4270.81 169.872 L4253.72 154.016 L4236.63 140.279 L4219.54 131.851 L4202.45 135.623 L4185.36 141.851 L4168.27 146.549 L4151.18 149.591 L4134.09 152.166 L4117 153.766 L4099.91 157.473 L4082.82 157.431 L4065.72 156.114 L4048.63 149.418 L4031.54 142.085 L4014.45 137.602 L3997.36 139.81 L3980.27 146.077 L3963.18 158.574 L3946.09 179.471 L3929 194.688 L3911.91 198.044 L3894.82 194.772 L3877.73 183.213 L3860.64 167.855 L3843.55 151.56 L3826.46 138.017 L3809.37 129.658 L3792.28 133.388 L3775.19 138.766 L3758.1 142.902 L3741.01 146.978 L3723.92 149.126 L3706.83 150.759 L3689.74 154.603 L3672.65 154.447 L3655.56 152.684 L3638.47 146.531 L3621.38 139.736 L3604.29 135.26 L3587.2 136.967 L3570.11 142.97 L3553.02 155.455 L3535.92 175.735 L3518.83 191.042 L3501.74 194.727 L3484.65 191.541 L3467.56 179.514 L3450.47 165.151 L3433.38 149.207 L3416.29 135.336 L3399.2 126.889 L3382.11 130.588 L3365.02 135.096 L3347.93 140.013 L3330.84 143.299 L3313.75 145.331 L3296.66 147.619 L3279.57 151.115 L3262.48 151.342 L3245.39 149.169 L3228.3 143.495 L3211.21 137.113 L3194.12 132.371 L3177.03 133.213 L3159.94 139.102 L3142.85 151.199 L3125.76 171.287 L3108.67 186.489 L3091.58 191.169 L3074.49 187.296 L3057.4 175.362 L3040.31 161.662 L3023.22 145.284 L3006.12 131.842 L2989.03 123.694 L2971.94 126.298 L2954.85 130.831 L2937.76 137.264 L2920.67 140.249 L2903.58 140.995 L2886.49 142.169 L2869.4 146.958 L2852.31 147.824 L2835.22 146.003 L2818.13 140.22 L2801.04 133.819 L2783.95 128.721 L2766.86 129.69 L2749.77 135.403 L2732.68 147.419 L2715.59 166.897 L2698.5 182.435 L2681.41 187.041 L2664.32 183.185 L2647.23 170.931 L2630.14 156.439 L2613.05 141.738 L2595.96 128.51 L2578.87 120.252 L2561.78 121.591 L2544.69 127.261 L2527.6 133.643 L2510.51 135.505 L2493.42 135.646 L2476.32 137.345 L2459.23 141.508 L2442.14 144.209 L2425.05 141.716 L2407.96 135.876 L2390.87 129.576 L2373.78 125.237 L2356.69 125.642 L2339.6 130.901 L2322.51 142.603 L2305.42 162.453 L2288.33 178.484 L2271.24 182.297 L2254.15 178.6 L2237.06 166.684 L2219.97 152.69 L2202.88 136.895 L2185.79 124.616 L2168.7 116.545 L2151.61 117.783 L2134.52 123.526 L2117.43 130.173 L2100.34 131.267 L2083.25 131.458 L2066.16 133.258 L2049.07 137.054 L2031.98 139.927 L2014.89 137.937 L1997.8 132.561 L1980.71 126.089 L1963.61 121.605 L1946.52 122.684 L1929.43 127.96 L1912.34 139.363 L1895.25 158.789 L1878.16 175.006 L1861.07 178.751 L1843.98 174.573 L1826.89 163.354 L1809.8 149.317 L1792.71 134.263 L1775.62 121.875 L1758.53 113.827 L1741.44 115.488 L1724.35 121.18 L1707.26 127.911 L1690.17 128.345 L1673.08 127.992 L1655.99 130.588 L1638.9 135.581 L1621.81 137.744 L1604.72 134.971 L1587.63 130.474 L1570.54 124.893 L1553.45 120.183 L1536.36 121.523 L1519.27 127.399 L1502.18 138.495 L1485.09 158.402 L1468 174.595 L1450.91 178.741 L1433.81 175.545 L1416.72 164.332 L1399.63 150.813 L1382.54 136.06 L1365.45 123.293 L1348.36 115.648 L1331.27 118.295 L1314.18 123.85 L1297.09 129.388 L1280 130.417 L1262.91 132.605 L1245.82 135.403 L1228.73 139.854 L1211.64 141.726 L1194.55 140.544 L1177.46 135.171 L1160.37 129.599 L1143.28 125.86 L1126.19 127.224 L1109.1 134.524 L1092.01 147.208 L1074.92 167.622 L1057.83 183.432 L1040.74 187.745 L1023.65 185.871 L1006.56 175.147 L989.466 161.692 L972.376 146.447 L955.286 134.443 L938.195 127.021 L921.105 131.454 L904.015 138.432 L886.925 143.993 L869.834 146.709 L852.744 149.53 L835.654 151.795 L818.563 156.347 L801.473 157.948 L784.383 157.14 L767.292 153.179 L750.202 149.984 L733.112 149.161 L716.021 154.327 L698.931 163.543 L681.841 177.864 L664.75 199.884 L647.66 217.262 L630.57 223.792 L613.479 223.653 L596.389 215.611 L579.299 204.921 L562.208 192.427 L545.118 181.376 L528.028 175.593  Z" fill="#414141" fill-rule="evenodd" fill-opacity="0.5"/>
<polyline clip-path="url(#clip232)" style="stroke:#414141; stroke-linecap:round; stroke-linejoin:round; stroke-width:0; stroke-opacity:1; fill:none" points="528.028,184.233 545.118,188.505 562.208,194.869 579.299,202.375 596.389,209.612 613.479,215.777 630.57,217.45 647.66,215.152 664.75,206.395 681.841,195.033 698.931,187.58 716.021,183.036 733.112,181.109 750.202,182.074 767.292,184.552 784.383,187.257 801.473,188.442 818.563,188.777 835.654,187.912 852.744,187.726 869.834,187.562 886.925,187.216 904.015,185.09 921.105,182.317 938.195,181.208 955.286,185.595 972.376,192.164 989.466,199.92 1006.56,207.411 1023.65,213.859 1040.74,215.775 1057.83,213.689 1074.92,205.017 1092.01,193.636 1109.1,186.24 1126.19,181.849 1143.28,180.09 1160.37,181.194 1177.46,183.751 1194.55,186.495 1211.64,187.717 1228.73,188.065 1245.82,187.25 1262.91,187.205 1280,187.227 1297.09,187.066 1314.18,185.11 1331.27,182.488 1348.36,181.514 1365.45,186.037 1382.54,192.733 1399.63,200.609 1416.72,208.236 1433.81,214.808 1450.91,216.841 1468,214.839 1485.09,206.149 1502.18,194.708 1519.27,187.232 1536.36,182.762 1553.45,180.939 1570.54,181.998 1587.63,184.524 1604.72,187.234 1621.81,188.418 1638.9,188.755 1655.99,187.969 1673.08,188 1690.17,188.106 1707.26,188.032 1724.35,186.159 1741.44,183.612 1758.53,182.707 1775.62,187.3 1792.71,194.067 1809.8,202.015 1826.89,209.713 1843.98,216.365 1861.07,218.471 1878.16,216.557 1895.25,207.938 1912.34,196.512 1929.43,189.01 1946.52,184.499 1963.61,182.634 1980.71,183.65 1997.8,186.139 2014.89,188.811 2031.98,189.962 2049.07,190.309 2066.16,189.536 2083.25,189.591 2100.34,189.726 2117.43,189.689 2134.52,187.852 2151.61,185.338 2168.7,184.465 2185.79,189.095 2202.88,195.901 2219.97,203.899 2237.06,211.638 2254.15,218.331 2271.24,220.488 2288.33,218.551 2305.42,209.934 2322.51,198.507 2339.6,190.964 2356.69,186.413 2373.78,184.51 2390.87,185.483 2407.96,187.938 2425.05,190.581 2442.14,191.698 2459.23,192.02 2476.32,191.228 2493.42,191.289 2510.51,191.44 2527.6,191.421 2544.69,189.601 2561.78,187.106 2578.87,186.248 2595.96,190.898 2613.05,197.729 2630.14,205.751 2647.23,213.526 2664.32,220.26 2681.41,222.457 2698.5,220.589 2715.59,212.011 2732.68,200.55 2749.77,192.975 2766.86,188.39 2783.95,186.435 2801.04,187.362 2818.13,189.768 2835.22,192.356 2852.31,193.456 2869.4,193.743 2886.49,192.923 2903.58,192.966 2920.67,193.108 2937.76,193.091 2954.85,191.277 2971.94,188.788 2989.03,187.937 3006.12,192.596 3023.22,199.439 3040.31,207.473 3057.4,215.27 3074.49,222.026 3091.58,224.251 3108.67,222.412 3125.76,213.824 3142.85,202.366 3159.94,194.757 3177.03,190.129 3194.12,188.139 3211.21,189.023 3228.3,191.393 3245.39,193.943 3262.48,194.997 3279.57,195.261 3296.66,194.432 3313.75,194.458 3330.84,194.595 3347.93,194.582 3365.02,192.773 3382.11,190.288 3399.2,189.441 3416.29,194.107 3433.38,200.956 3450.47,209.006 3467.56,216.821 3484.65,223.598 3501.74,225.842 3518.83,224.022 3535.92,215.432 3553.02,203.947 3570.11,196.336 3587.2,191.683 3604.29,189.647 3621.38,190.49 3638.47,192.818 3655.56,195.353 3672.65,196.356 3689.74,196.582 3706.83,195.724 3723.92,195.752 3741.01,195.886 3758.1,195.871 3775.19,194.062 3792.28,191.578 3809.37,190.732 3826.46,195.401 3843.55,202.256 3860.64,210.311 3877.73,218.132 3894.82,224.923 3911.91,227.178 3929,225.372 3946.09,216.818 3963.18,205.328 3980.27,197.688 3997.36,193.008 4014.45,190.947 4031.54,191.758 4048.63,194.053 4065.72,196.545 4082.82,197.521 4099.91,197.729 4117,196.86 4134.09,196.891 4151.18,197.024 4168.27,197.012 4185.36,195.202 4202.45,192.713 4219.54,191.863 4236.63,196.531 4253.72,203.386 4270.81,211.443 4287.9,219.268 4304.99,226.067 4322.08,228.331 4339.17,226.53 4356.26,217.952 4373.35,206.466 4390.44,198.802 4407.53,194.099 4424.62,192.011 4441.71,192.795 4458.8,195.065 4475.89,197.527 4492.98,198.484 4510.07,198.679 4527.16,197.804 4544.25,197.816 4561.34,197.943 4578.43,197.93 4595.52,196.123 4612.62,193.639 4629.71,192.787 "/>
<path clip-path="url(#clip230)" d="M3853.78 853.161 L4607.83 853.161 L4607.83 334.761 L3853.78 334.761  Z" fill="#ffffff" fill-rule="evenodd" fill-opacity="1"/>
<polyline clip-path="url(#clip230)" style="stroke:#000000; stroke-linecap:round; stroke-linejoin:round; stroke-width:4; stroke-opacity:1; fill:none" points="3853.78,853.161 4607.83,853.161 4607.83,334.761 3853.78,334.761 3853.78,853.161 "/>
<polyline clip-path="url(#clip230)" style="stroke:#aeaeae; stroke-linecap:round; stroke-linejoin:round; stroke-width:2; stroke-opacity:1; fill:none" points="3902.09,464.361 4191.94,464.361 "/>
<path clip-path="url(#clip230)" d="M4241.93 497.723 L4261.03 497.723 L4261.03 431.809 L4240.25 435.976 L4240.25 425.328 L4260.91 421.161 L4272.6 421.161 L4272.6 497.723 L4291.7 497.723 L4291.7 507.561 L4241.93 507.561 L4241.93 497.723 Z" fill="#000000" fill-rule="nonzero" fill-opacity="1" /><path clip-path="url(#clip230)" d="M4340.31 428.858 Q4331.28 428.858 4326.71 437.77 Q4322.2 446.624 4322.2 464.448 Q4322.2 482.214 4326.71 491.126 Q4331.28 499.98 4340.31 499.98 Q4349.4 499.98 4353.91 491.126 Q4358.48 482.214 4358.48 464.448 Q4358.48 446.624 4353.91 437.77 Q4349.4 428.858 4340.31 428.858 M4340.31 419.599 Q4354.83 419.599 4362.47 431.115 Q4370.17 442.573 4370.17 464.448 Q4370.17 486.265 4362.47 497.781 Q4354.83 509.239 4340.31 509.239 Q4325.78 509.239 4318.09 497.781 Q4310.45 486.265 4310.45 464.448 Q4310.45 442.573 4318.09 431.115 Q4325.78 419.599 4340.31 419.599 Z" fill="#000000" fill-rule="nonzero" fill-opacity="1" /><path clip-path="url(#clip230)" d="M4415.71 428.858 Q4406.69 428.858 4402.11 437.77 Q4397.6 446.624 4397.6 464.448 Q4397.6 482.214 4402.11 491.126 Q4406.69 499.98 4415.71 499.98 Q4424.8 499.98 4429.31 491.126 Q4433.89 482.214 4433.89 464.448 Q4433.89 446.624 4429.31 437.77 Q4424.8 428.858 4415.71 428.858 M4415.71 419.599 Q4430.24 419.599 4437.88 431.115 Q4445.58 442.573 4445.58 464.448 Q4445.58 486.265 4437.88 497.781 Q4430.24 509.239 4415.71 509.239 Q4401.19 509.239 4393.49 497.781 Q4385.85 486.265 4385.85 464.448 Q4385.85 442.573 4393.49 431.115 Q4401.19 419.599 4415.71 419.599 Z" fill="#000000" fill-rule="nonzero" fill-opacity="1" /><path clip-path="url(#clip230)" d="M4539.61 469.541 Q4534.58 469.541 4531.69 473.823 Q4528.85 478.105 4528.85 485.744 Q4528.85 493.267 4531.69 497.608 Q4534.58 501.89 4539.61 501.89 Q4544.53 501.89 4547.37 497.608 Q4550.26 493.267 4550.26 485.744 Q4550.26 478.163 4547.37 473.881 Q4544.53 469.541 4539.61 469.541 M4539.61 462.191 Q4548.76 462.191 4554.14 468.557 Q4559.52 474.923 4559.52 485.744 Q4559.52 496.566 4554.08 502.932 Q4548.7 509.239 4539.61 509.239 Q4530.35 509.239 4524.97 502.932 Q4519.59 496.566 4519.59 485.744 Q4519.59 474.865 4524.97 468.557 Q4530.41 462.191 4539.61 462.191 M4479.89 426.948 Q4474.92 426.948 4472.02 431.289 Q4469.19 435.571 4469.19 443.094 Q4469.19 450.733 4472.02 455.015 Q4474.86 459.298 4479.89 459.298 Q4484.93 459.298 4487.76 455.015 Q4490.66 450.733 4490.66 443.094 Q4490.66 435.629 4487.76 431.289 Q4484.87 426.948 4479.89 426.948 M4532.15 419.599 L4541.41 419.599 L4487.36 509.239 L4478.1 509.239 L4532.15 419.599 M4479.89 419.599 Q4489.04 419.599 4494.48 425.964 Q4499.92 432.272 4499.92 443.094 Q4499.92 454.031 4494.48 460.339 Q4489.09 466.647 4479.89 466.647 Q4470.69 466.647 4465.31 460.339 Q4459.98 453.974 4459.98 443.094 Q4459.98 432.33 4465.37 425.964 Q4470.75 419.599 4479.89 419.599 Z" fill="#000000" fill-rule="nonzero" fill-opacity="1" /><polyline clip-path="url(#clip230)" style="stroke:#757575; stroke-linecap:round; stroke-linejoin:round; stroke-width:2; stroke-opacity:1; fill:none" points="3902.09,593.961 4191.94,593.961 "/>
<path clip-path="url(#clip230)" d="M4245.81 635.367 L4245.81 624.719 Q4250.21 626.803 4254.72 627.902 Q4259.23 629.002 4263.57 629.002 Q4275.15 629.002 4281.22 621.247 Q4287.36 613.435 4288.23 597.578 Q4284.87 602.555 4279.72 605.217 Q4274.57 607.879 4268.32 607.879 Q4255.36 607.879 4247.78 600.067 Q4240.25 592.196 4240.25 578.597 Q4240.25 565.287 4248.12 557.243 Q4255.99 549.199 4269.07 549.199 Q4284.06 549.199 4291.93 560.715 Q4299.86 572.173 4299.86 594.048 Q4299.86 614.476 4290.14 626.687 Q4280.47 638.839 4264.09 638.839 Q4259.7 638.839 4255.18 637.971 Q4250.67 637.103 4245.81 635.367 M4269.07 598.736 Q4276.94 598.736 4281.51 593.354 Q4286.14 587.972 4286.14 578.597 Q4286.14 569.28 4281.51 563.898 Q4276.94 558.458 4269.07 558.458 Q4261.2 558.458 4256.57 563.898 Q4252 569.28 4252 578.597 Q4252 587.972 4256.57 593.354 Q4261.2 598.736 4269.07 598.736 Z" fill="#000000" fill-rule="nonzero" fill-opacity="1" /><path clip-path="url(#clip230)" d="M4345.87 558.458 Q4336.84 558.458 4332.27 567.37 Q4327.75 576.224 4327.75 594.048 Q4327.75 611.814 4332.27 620.726 Q4336.84 629.58 4345.87 629.58 Q4354.95 629.58 4359.46 620.726 Q4364.04 611.814 4364.04 594.048 Q4364.04 576.224 4359.46 567.37 Q4354.95 558.458 4345.87 558.458 M4345.87 549.199 Q4360.39 549.199 4368.03 560.715 Q4375.73 572.173 4375.73 594.048 Q4375.73 615.865 4368.03 627.381 Q4360.39 638.839 4345.87 638.839 Q4331.34 638.839 4323.64 627.381 Q4316 615.865 4316 594.048 Q4316 572.173 4323.64 560.715 Q4331.34 549.199 4345.87 549.199 Z" fill="#000000" fill-rule="nonzero" fill-opacity="1" /><path clip-path="url(#clip230)" d="M4469.76 599.141 Q4464.73 599.141 4461.84 603.423 Q4459 607.705 4459 615.344 Q4459 622.867 4461.84 627.208 Q4464.73 631.49 4469.76 631.49 Q4474.68 631.49 4477.52 627.208 Q4480.41 622.867 4480.41 615.344 Q4480.41 607.763 4477.52 603.481 Q4474.68 599.141 4469.76 599.141 M4469.76 591.791 Q4478.91 591.791 4484.29 598.157 Q4489.67 604.523 4489.67 615.344 Q4489.67 626.166 4484.23 632.532 Q4478.85 638.839 4469.76 638.839 Q4460.51 638.839 4455.12 632.532 Q4449.74 626.166 4449.74 615.344 Q4449.74 604.465 4455.12 598.157 Q4460.56 591.791 4469.76 591.791 M4410.04 556.548 Q4405.07 556.548 4402.17 560.889 Q4399.34 565.171 4399.34 572.694 Q4399.34 580.333 4402.17 584.615 Q4405.01 588.898 4410.04 588.898 Q4415.08 588.898 4417.91 584.615 Q4420.81 580.333 4420.81 572.694 Q4420.81 565.229 4417.91 560.889 Q4415.02 556.548 4410.04 556.548 M4462.3 549.199 L4471.56 549.199 L4417.51 638.839 L4408.25 638.839 L4462.3 549.199 M4410.04 549.199 Q4419.19 549.199 4424.63 555.564 Q4430.07 561.872 4430.07 572.694 Q4430.07 583.631 4424.63 589.939 Q4419.24 596.247 4410.04 596.247 Q4400.84 596.247 4395.46 589.939 Q4390.14 583.574 4390.14 572.694 Q4390.14 561.93 4395.52 555.564 Q4400.9 549.199 4410.04 549.199 Z" fill="#000000" fill-rule="nonzero" fill-opacity="1" /><polyline clip-path="url(#clip230)" style="stroke:#414141; stroke-linecap:round; stroke-linejoin:round; stroke-width:2; stroke-opacity:1; fill:none" points="3902.09,723.561 4191.94,723.561 "/>
<path clip-path="url(#clip230)" d="M4269.88 725.731 Q4261.55 725.731 4256.75 730.187 Q4252 734.643 4252 742.456 Q4252 750.268 4256.75 754.724 Q4261.55 759.18 4269.88 759.18 Q4278.21 759.18 4283.02 754.724 Q4287.82 750.21 4287.82 742.456 Q4287.82 734.643 4283.02 730.187 Q4278.27 725.731 4269.88 725.731 M4258.19 720.755 Q4250.67 718.903 4246.44 713.752 Q4242.28 708.602 4242.28 701.194 Q4242.28 690.836 4249.63 684.817 Q4257.03 678.799 4269.88 678.799 Q4282.79 678.799 4290.14 684.817 Q4297.49 690.836 4297.49 701.194 Q4297.49 708.602 4293.26 713.752 Q4289.09 718.903 4281.63 720.755 Q4290.08 722.722 4294.77 728.451 Q4299.51 734.18 4299.51 742.456 Q4299.51 755.014 4291.81 761.727 Q4284.18 768.439 4269.88 768.439 Q4255.59 768.439 4247.89 761.727 Q4240.25 755.014 4240.25 742.456 Q4240.25 734.18 4245 728.451 Q4249.74 722.722 4258.19 720.755 M4253.91 702.294 Q4253.91 709.007 4258.08 712.768 Q4262.3 716.53 4269.88 716.53 Q4277.4 716.53 4281.63 712.768 Q4285.91 709.007 4285.91 702.294 Q4285.91 695.581 4281.63 691.82 Q4277.4 688.058 4269.88 688.058 Q4262.3 688.058 4258.08 691.82 Q4253.91 695.581 4253.91 702.294 Z" fill="#000000" fill-rule="nonzero" fill-opacity="1" /><path clip-path="url(#clip230)" d="M4345.29 688.058 Q4336.26 688.058 4331.69 696.97 Q4327.17 705.824 4327.17 723.648 Q4327.17 741.414 4331.69 750.326 Q4336.26 759.18 4345.29 759.18 Q4354.37 759.18 4358.89 750.326 Q4363.46 741.414 4363.46 723.648 Q4363.46 705.824 4358.89 696.97 Q4354.37 688.058 4345.29 688.058 M4345.29 678.799 Q4359.81 678.799 4367.45 690.315 Q4375.15 701.773 4375.15 723.648 Q4375.15 745.465 4367.45 756.981 Q4359.81 768.439 4345.29 768.439 Q4330.76 768.439 4323.06 756.981 Q4315.43 745.465 4315.43 723.648 Q4315.43 701.773 4323.06 690.315 Q4330.76 678.799 4345.29 678.799 Z" fill="#000000" fill-rule="nonzero" fill-opacity="1" /><path clip-path="url(#clip230)" d="M4469.19 728.741 Q4464.15 728.741 4461.26 733.023 Q4458.42 737.305 4458.42 744.944 Q4458.42 752.467 4461.26 756.808 Q4464.15 761.09 4469.19 761.09 Q4474.11 761.09 4476.94 756.808 Q4479.83 752.467 4479.83 744.944 Q4479.83 737.363 4476.94 733.081 Q4474.11 728.741 4469.19 728.741 M4469.19 721.391 Q4478.33 721.391 4483.71 727.757 Q4489.09 734.123 4489.09 744.944 Q4489.09 755.766 4483.65 762.132 Q4478.27 768.439 4469.19 768.439 Q4459.93 768.439 4454.55 762.132 Q4449.16 755.766 4449.16 744.944 Q4449.16 734.065 4454.55 727.757 Q4459.98 721.391 4469.19 721.391 M4409.46 686.148 Q4404.49 686.148 4401.59 690.489 Q4398.76 694.771 4398.76 702.294 Q4398.76 709.933 4401.59 714.215 Q4404.43 718.498 4409.46 718.498 Q4414.5 718.498 4417.33 714.215 Q4420.23 709.933 4420.23 702.294 Q4420.23 694.829 4417.33 690.489 Q4414.44 686.148 4409.46 686.148 M4461.72 678.799 L4470.98 678.799 L4416.93 768.439 L4407.67 768.439 L4461.72 678.799 M4409.46 678.799 Q4418.61 678.799 4424.05 685.164 Q4429.49 691.472 4429.49 702.294 Q4429.49 713.231 4424.05 719.539 Q4418.67 725.847 4409.46 725.847 Q4400.26 725.847 4394.88 719.539 Q4389.56 713.174 4389.56 702.294 Q4389.56 691.53 4394.94 685.164 Q4400.32 678.799 4409.46 678.799 Z" fill="#000000" fill-rule="nonzero" fill-opacity="1" /></svg>
