<?xml version="1.0" encoding="utf-8"?>
<svg xmlns="http://www.w3.org/2000/svg" xmlns:xlink="http://www.w3.org/1999/xlink" width="1200" height="300" viewBox="0 0 4800 1200">
<defs>
  <clipPath id="clip160">
    <rect x="0" y="0" width="4800" height="1200"/>
  </clipPath>
</defs>
<path clip-path="url(#clip160)" d="M0 1200 L4800 1200 L4800 0 L0 0  Z" fill="#ffffff" fill-rule="evenodd" fill-opacity="1"/>
<defs>
  <clipPath id="clip161">
    <rect x="960" y="0" width="3361" height="1200"/>
  </clipPath>
</defs>
<path clip-path="url(#clip160)" d="M404.977 880.951 L4752.76 880.951 L4752.76 47.2441 L404.977 47.2441  Z" fill="#ffffff" fill-rule="evenodd" fill-opacity="1"/>
<defs>
  <clipPath id="clip162">
    <rect x="404" y="47" width="4349" height="835"/>
  </clipPath>
</defs>
<polyline clip-path="url(#clip162)" style="stroke:#000000; stroke-linecap:round; stroke-linejoin:round; stroke-width:2; stroke-opacity:0.1; fill:none" points="528.028,880.951 528.028,47.2441 "/>
<polyline clip-path="url(#clip162)" style="stroke:#000000; stroke-linecap:round; stroke-linejoin:round; stroke-width:2; stroke-opacity:0.1; fill:none" points="1348.36,880.951 1348.36,47.2441 "/>
<polyline clip-path="url(#clip162)" style="stroke:#000000; stroke-linecap:round; stroke-linejoin:round; stroke-width:2; stroke-opacity:0.1; fill:none" points="2168.7,880.951 2168.7,47.2441 "/>
<polyline clip-path="url(#clip162)" style="stroke:#000000; stroke-linecap:round; stroke-linejoin:round; stroke-width:2; stroke-opacity:0.1; fill:none" points="2989.03,880.951 2989.03,47.2441 "/>
<polyline clip-path="url(#clip162)" style="stroke:#000000; stroke-linecap:round; stroke-linejoin:round; stroke-width:2; stroke-opacity:0.1; fill:none" points="3809.37,880.951 3809.37,47.2441 "/>
<polyline clip-path="url(#clip162)" style="stroke:#000000; stroke-linecap:round; stroke-linejoin:round; stroke-width:2; stroke-opacity:0.1; fill:none" points="4629.71,880.951 4629.71,47.2441 "/>
<polyline clip-path="url(#clip162)" style="stroke:#000000; stroke-linecap:round; stroke-linejoin:round; stroke-width:2; stroke-opacity:0.1; fill:none" points="404.977,755.68 4752.76,755.68 "/>
<polyline clip-path="url(#clip162)" style="stroke:#000000; stroke-linecap:round; stroke-linejoin:round; stroke-width:2; stroke-opacity:0.1; fill:none" points="404.977,612.63 4752.76,612.63 "/>
<polyline clip-path="url(#clip162)" style="stroke:#000000; stroke-linecap:round; stroke-linejoin:round; stroke-width:2; stroke-opacity:0.1; fill:none" points="404.977,469.581 4752.76,469.581 "/>
<polyline clip-path="url(#clip162)" style="stroke:#000000; stroke-linecap:round; stroke-linejoin:round; stroke-width:2; stroke-opacity:0.1; fill:none" points="404.977,326.531 4752.76,326.531 "/>
<polyline clip-path="url(#clip162)" style="stroke:#000000; stroke-linecap:round; stroke-linejoin:round; stroke-width:2; stroke-opacity:0.1; fill:none" points="404.977,183.481 4752.76,183.481 "/>
<polyline clip-path="url(#clip160)" style="stroke:#000000; stroke-linecap:round; stroke-linejoin:round; stroke-width:4; stroke-opacity:1; fill:none" points="404.977,880.951 4752.76,880.951 "/>
<polyline clip-path="url(#clip160)" style="stroke:#000000; stroke-linecap:round; stroke-linejoin:round; stroke-width:4; stroke-opacity:1; fill:none" points="528.028,880.951 528.028,862.054 "/>
<polyline clip-path="url(#clip160)" style="stroke:#000000; stroke-linecap:round; stroke-linejoin:round; stroke-width:4; stroke-opacity:1; fill:none" points="1348.36,880.951 1348.36,862.054 "/>
<polyline clip-path="url(#clip160)" style="stroke:#000000; stroke-linecap:round; stroke-linejoin:round; stroke-width:4; stroke-opacity:1; fill:none" points="2168.7,880.951 2168.7,862.054 "/>
<polyline clip-path="url(#clip160)" style="stroke:#000000; stroke-linecap:round; stroke-linejoin:round; stroke-width:4; stroke-opacity:1; fill:none" points="2989.03,880.951 2989.03,862.054 "/>
<polyline clip-path="url(#clip160)" style="stroke:#000000; stroke-linecap:round; stroke-linejoin:round; stroke-width:4; stroke-opacity:1; fill:none" points="3809.37,880.951 3809.37,862.054 "/>
<polyline clip-path="url(#clip160)" style="stroke:#000000; stroke-linecap:round; stroke-linejoin:round; stroke-width:4; stroke-opacity:1; fill:none" points="4629.71,880.951 4629.71,862.054 "/>
<path clip-path="url(#clip160)" d="M528.028 942.789 Q520.806 942.789 517.148 949.918 Q513.537 957.002 513.537 971.261 Q513.537 985.474 517.148 992.603 Q520.806 999.687 528.028 999.687 Q535.296 999.687 538.907 992.603 Q542.565 985.474 542.565 971.261 Q542.565 957.002 538.907 949.918 Q535.296 942.789 528.028 942.789 M528.028 935.382 Q539.648 935.382 545.759 944.594 Q551.916 953.761 551.916 971.261 Q551.916 988.715 545.759 997.927 Q539.648 1007.09 528.028 1007.09 Q516.407 1007.09 510.25 997.927 Q504.139 988.715 504.139 971.261 Q504.139 953.761 510.25 944.594 Q516.407 935.382 528.028 935.382 Z" fill="#000000" fill-rule="nonzero" fill-opacity="1" /><path clip-path="url(#clip160)" d="M1337.67 997.881 L1370.31 997.881 L1370.31 1005.75 L1326.42 1005.75 L1326.42 997.881 Q1331.74 992.372 1340.91 983.113 Q1350.12 973.807 1352.48 971.122 Q1356.97 966.076 1358.73 962.604 Q1360.54 959.085 1360.54 955.705 Q1360.54 950.196 1356.65 946.724 Q1352.81 943.252 1346.6 943.252 Q1342.21 943.252 1337.3 944.78 Q1332.44 946.307 1326.88 949.409 L1326.88 939.965 Q1332.53 937.696 1337.44 936.539 Q1342.34 935.382 1346.42 935.382 Q1357.16 935.382 1363.55 940.752 Q1369.94 946.122 1369.94 955.104 Q1369.94 959.363 1368.32 963.205 Q1366.74 967.002 1362.53 972.187 Q1361.37 973.529 1355.17 979.965 Q1348.97 986.353 1337.67 997.881 Z" fill="#000000" fill-rule="nonzero" fill-opacity="1" /><path clip-path="url(#clip160)" d="M2174.72 944.78 L2151.11 981.678 L2174.72 981.678 L2174.72 944.78 M2172.26 936.631 L2184.02 936.631 L2184.02 981.678 L2193.88 981.678 L2193.88 989.455 L2184.02 989.455 L2184.02 1005.75 L2174.72 1005.75 L2174.72 989.455 L2143.51 989.455 L2143.51 980.428 L2172.26 936.631 Z" fill="#000000" fill-rule="nonzero" fill-opacity="1" /><path clip-path="url(#clip160)" d="M2989.84 967.465 Q2983.55 967.465 2979.84 971.77 Q2976.19 976.076 2976.19 983.576 Q2976.19 991.029 2979.84 995.381 Q2983.55 999.687 2989.84 999.687 Q2996.14 999.687 2999.8 995.381 Q3003.5 991.029 3003.5 983.576 Q3003.5 976.076 2999.8 971.77 Q2996.14 967.465 2989.84 967.465 M3008.41 938.159 L3008.41 946.678 Q3004.89 945.011 3001.28 944.131 Q2997.71 943.252 2994.2 943.252 Q2984.94 943.252 2980.03 949.502 Q2975.17 955.752 2974.47 968.391 Q2977.21 964.363 2981.33 962.233 Q2985.45 960.057 2990.4 960.057 Q3000.82 960.057 3006.84 966.4 Q3012.9 972.696 3012.9 983.576 Q3012.9 994.224 3006.6 1000.66 Q3000.31 1007.09 2989.84 1007.09 Q2977.85 1007.09 2971.51 997.927 Q2965.17 988.715 2965.17 971.261 Q2965.17 954.872 2972.95 945.15 Q2980.72 935.382 2993.83 935.382 Q2997.34 935.382 3000.91 936.076 Q3004.52 936.77 3008.41 938.159 Z" fill="#000000" fill-rule="nonzero" fill-opacity="1" /><path clip-path="url(#clip160)" d="M3809.37 972.928 Q3802.7 972.928 3798.86 976.492 Q3795.06 980.057 3795.06 986.307 Q3795.06 992.557 3798.86 996.122 Q3802.7 999.687 3809.37 999.687 Q3816.04 999.687 3819.88 996.122 Q3823.72 992.511 3823.72 986.307 Q3823.72 980.057 3819.88 976.492 Q3816.08 972.928 3809.37 972.928 M3800.02 968.946 Q3794 967.465 3790.62 963.344 Q3787.29 959.224 3787.29 953.298 Q3787.29 945.011 3793.17 940.196 Q3799.09 935.382 3809.37 935.382 Q3819.69 935.382 3825.57 940.196 Q3831.45 945.011 3831.45 953.298 Q3831.45 959.224 3828.07 963.344 Q3824.74 967.465 3818.77 968.946 Q3825.53 970.52 3829.28 975.104 Q3833.07 979.687 3833.07 986.307 Q3833.07 996.353 3826.92 1001.72 Q3820.81 1007.09 3809.37 1007.09 Q3797.93 1007.09 3791.78 1001.72 Q3785.67 996.353 3785.67 986.307 Q3785.67 979.687 3789.46 975.104 Q3793.26 970.52 3800.02 968.946 M3796.59 954.178 Q3796.59 959.548 3799.93 962.557 Q3803.31 965.567 3809.37 965.567 Q3815.39 965.567 3818.77 962.557 Q3822.19 959.548 3822.19 954.178 Q3822.19 948.807 3818.77 945.798 Q3815.39 942.789 3809.37 942.789 Q3803.31 942.789 3799.93 945.798 Q3796.59 948.807 3796.59 954.178 Z" fill="#000000" fill-rule="nonzero" fill-opacity="1" /><path clip-path="url(#clip160)" d="M4579.08 997.881 L4594.36 997.881 L4594.36 945.15 L4577.74 948.483 L4577.74 939.965 L4594.27 936.631 L4603.62 936.631 L4603.62 997.881 L4618.9 997.881 L4618.9 1005.75 L4579.08 1005.75 L4579.08 997.881 Z" fill="#000000" fill-rule="nonzero" fill-opacity="1" /><path clip-path="url(#clip160)" d="M4657.78 942.789 Q4650.56 942.789 4646.9 949.918 Q4643.29 957.002 4643.29 971.261 Q4643.29 985.474 4646.9 992.603 Q4650.56 999.687 4657.78 999.687 Q4665.05 999.687 4668.66 992.603 Q4672.32 985.474 4672.32 971.261 Q4672.32 957.002 4668.66 949.918 Q4665.05 942.789 4657.78 942.789 M4657.78 935.382 Q4669.4 935.382 4675.52 944.594 Q4681.67 953.761 4681.67 971.261 Q4681.67 988.715 4675.52 997.927 Q4669.4 1007.09 4657.78 1007.09 Q4646.16 1007.09 4640.01 997.927 Q4633.9 988.715 4633.9 971.261 Q4633.9 953.761 4640.01 944.594 Q4646.16 935.382 4657.78 935.382 Z" fill="#000000" fill-rule="nonzero" fill-opacity="1" /><path clip-path="url(#clip160)" d="M2296.11 1072.18 L2361.89 1072.18 L2361.89 1081.04 L2334.28 1081.04 L2334.28 1149.94 L2323.71 1149.94 L2323.71 1081.04 L2296.11 1081.04 L2296.11 1072.18 Z" fill="#000000" fill-rule="nonzero" fill-opacity="1" /><path clip-path="url(#clip160)" d="M2368.35 1091.61 L2377.93 1091.61 L2377.93 1149.94 L2368.35 1149.94 L2368.35 1091.61 M2368.35 1068.9 L2377.93 1068.9 L2377.93 1081.04 L2368.35 1081.04 L2368.35 1068.9 Z" fill="#000000" fill-rule="nonzero" fill-opacity="1" /><path clip-path="url(#clip160)" d="M2443.4 1102.81 Q2446.99 1096.35 2451.99 1093.28 Q2456.99 1090.2 2463.76 1090.2 Q2472.88 1090.2 2477.83 1096.61 Q2482.77 1102.96 2482.77 1114.74 L2482.77 1149.94 L2473.14 1149.94 L2473.14 1115.05 Q2473.14 1106.66 2470.17 1102.6 Q2467.2 1098.54 2461.11 1098.54 Q2453.66 1098.54 2449.34 1103.49 Q2445.01 1108.43 2445.01 1116.97 L2445.01 1149.94 L2435.38 1149.94 L2435.38 1115.05 Q2435.38 1106.61 2432.41 1102.6 Q2429.44 1098.54 2423.24 1098.54 Q2415.9 1098.54 2411.58 1103.54 Q2407.25 1108.49 2407.25 1116.97 L2407.25 1149.94 L2397.62 1149.94 L2397.62 1091.61 L2407.25 1091.61 L2407.25 1100.67 Q2410.53 1095.31 2415.12 1092.76 Q2419.7 1090.2 2426 1090.2 Q2432.36 1090.2 2436.78 1093.43 Q2441.26 1096.66 2443.4 1102.81 Z" fill="#000000" fill-rule="nonzero" fill-opacity="1" /><path clip-path="url(#clip160)" d="M2551.78 1118.38 L2551.78 1123.07 L2507.72 1123.07 Q2508.35 1132.96 2513.66 1138.17 Q2519.02 1143.33 2528.55 1143.33 Q2534.08 1143.33 2539.23 1141.97 Q2544.44 1140.62 2549.54 1137.91 L2549.54 1146.97 Q2544.39 1149.16 2538.97 1150.31 Q2533.55 1151.45 2527.98 1151.45 Q2514.02 1151.45 2505.85 1143.33 Q2497.72 1135.2 2497.72 1121.35 Q2497.72 1107.03 2505.43 1098.64 Q2513.19 1090.2 2526.31 1090.2 Q2538.09 1090.2 2544.91 1097.81 Q2551.78 1105.36 2551.78 1118.38 M2542.2 1115.57 Q2542.1 1107.7 2537.77 1103.02 Q2533.5 1098.33 2526.42 1098.33 Q2518.4 1098.33 2513.55 1102.86 Q2508.76 1107.39 2508.03 1115.62 L2542.2 1115.57 Z" fill="#000000" fill-rule="nonzero" fill-opacity="1" /><path clip-path="url(#clip160)" d="M2624.44 1069.01 Q2617.46 1080.99 2614.07 1092.7 Q2610.69 1104.42 2610.69 1116.45 Q2610.69 1128.49 2614.07 1140.31 Q2617.51 1152.08 2624.44 1164.01 L2616.11 1164.01 Q2608.29 1151.77 2604.39 1139.94 Q2600.53 1128.12 2600.53 1116.45 Q2600.53 1104.84 2604.39 1093.07 Q2608.24 1081.3 2616.11 1069.01 L2624.44 1069.01 Z" fill="#000000" fill-rule="nonzero" fill-opacity="1" /><path clip-path="url(#clip160)" d="M2681.42 1100.46 L2681.42 1068.9 L2691 1068.9 L2691 1149.94 L2681.42 1149.94 L2681.42 1141.19 Q2678.4 1146.4 2673.76 1148.95 Q2669.18 1151.45 2662.72 1151.45 Q2652.15 1151.45 2645.48 1143.02 Q2638.87 1134.58 2638.87 1120.83 Q2638.87 1107.08 2645.48 1098.64 Q2652.15 1090.2 2662.72 1090.2 Q2669.18 1090.2 2673.76 1092.76 Q2678.4 1095.26 2681.42 1100.46 M2648.76 1120.83 Q2648.76 1131.4 2653.08 1137.44 Q2657.46 1143.43 2665.06 1143.43 Q2672.67 1143.43 2677.04 1137.44 Q2681.42 1131.4 2681.42 1120.83 Q2681.42 1110.26 2677.04 1104.27 Q2672.67 1098.23 2665.06 1098.23 Q2657.46 1098.23 2653.08 1104.27 Q2648.76 1110.26 2648.76 1120.83 Z" fill="#000000" fill-rule="nonzero" fill-opacity="1" /><path clip-path="url(#clip160)" d="M2737.25 1120.62 Q2725.64 1120.62 2721.16 1123.28 Q2716.68 1125.93 2716.68 1132.34 Q2716.68 1137.44 2720.01 1140.46 Q2723.4 1143.43 2729.18 1143.43 Q2737.15 1143.43 2741.94 1137.81 Q2746.78 1132.13 2746.78 1122.76 L2746.78 1120.62 L2737.25 1120.62 M2756.37 1116.66 L2756.37 1149.94 L2746.78 1149.94 L2746.78 1141.09 Q2743.5 1146.4 2738.61 1148.95 Q2733.71 1151.45 2726.63 1151.45 Q2717.67 1151.45 2712.36 1146.45 Q2707.1 1141.4 2707.1 1132.96 Q2707.1 1123.12 2713.66 1118.12 Q2720.27 1113.12 2733.34 1113.12 L2746.78 1113.12 L2746.78 1112.18 Q2746.78 1105.57 2742.41 1101.98 Q2738.08 1098.33 2730.22 1098.33 Q2725.22 1098.33 2720.48 1099.53 Q2715.74 1100.73 2711.37 1103.12 L2711.37 1094.27 Q2716.63 1092.24 2721.57 1091.25 Q2726.52 1090.2 2731.21 1090.2 Q2743.87 1090.2 2750.12 1096.77 Q2756.37 1103.33 2756.37 1116.66 Z" fill="#000000" fill-rule="nonzero" fill-opacity="1" /><path clip-path="url(#clip160)" d="M2800.38 1155.36 Q2796.31 1165.78 2792.46 1168.95 Q2788.61 1172.13 2782.15 1172.13 L2774.49 1172.13 L2774.49 1164.11 L2780.12 1164.11 Q2784.07 1164.11 2786.26 1162.24 Q2788.45 1160.36 2791.11 1153.38 L2792.82 1149.01 L2769.23 1091.61 L2779.39 1091.61 L2797.62 1137.24 L2815.84 1091.61 L2826 1091.61 L2800.38 1155.36 Z" fill="#000000" fill-rule="nonzero" fill-opacity="1" /><path clip-path="url(#clip160)" d="M2837.72 1069.01 L2846.05 1069.01 Q2853.87 1081.3 2857.72 1093.07 Q2861.63 1104.84 2861.63 1116.45 Q2861.63 1128.12 2857.72 1139.94 Q2853.87 1151.77 2846.05 1164.01 L2837.72 1164.01 Q2844.65 1152.08 2848.03 1140.31 Q2851.47 1128.49 2851.47 1116.45 Q2851.47 1104.42 2848.03 1092.7 Q2844.65 1080.99 2837.72 1069.01 Z" fill="#000000" fill-rule="nonzero" fill-opacity="1" /><polyline clip-path="url(#clip160)" style="stroke:#000000; stroke-linecap:round; stroke-linejoin:round; stroke-width:4; stroke-opacity:1; fill:none" points="404.977,880.951 404.977,47.2441 "/>
<polyline clip-path="url(#clip160)" style="stroke:#000000; stroke-linecap:round; stroke-linejoin:round; stroke-width:4; stroke-opacity:1; fill:none" points="404.977,755.68 423.875,755.68 "/>
<polyline clip-path="url(#clip160)" style="stroke:#000000; stroke-linecap:round; stroke-linejoin:round; stroke-width:4; stroke-opacity:1; fill:none" points="404.977,612.63 423.875,612.63 "/>
<polyline clip-path="url(#clip160)" style="stroke:#000000; stroke-linecap:round; stroke-linejoin:round; stroke-width:4; stroke-opacity:1; fill:none" points="404.977,469.581 423.875,469.581 "/>
<polyline clip-path="url(#clip160)" style="stroke:#000000; stroke-linecap:round; stroke-linejoin:round; stroke-width:4; stroke-opacity:1; fill:none" points="404.977,326.531 423.875,326.531 "/>
<polyline clip-path="url(#clip160)" style="stroke:#000000; stroke-linecap:round; stroke-linejoin:round; stroke-width:4; stroke-opacity:1; fill:none" points="404.977,183.481 423.875,183.481 "/>
<path clip-path="url(#clip160)" d="M149.228 756.583 L208.58 756.583 L208.58 764.453 L149.228 764.453 L149.228 756.583 Z" fill="#000000" fill-rule="nonzero" fill-opacity="1" /><path clip-path="url(#clip160)" d="M248.765 757.416 Q242.098 757.416 238.256 760.981 Q234.459 764.546 234.459 770.796 Q234.459 777.046 238.256 780.61 Q242.098 784.175 248.765 784.175 Q255.431 784.175 259.274 780.61 Q263.117 776.999 263.117 770.796 Q263.117 764.546 259.274 760.981 Q255.478 757.416 248.765 757.416 M239.413 753.435 Q233.395 751.953 230.015 747.833 Q226.682 743.712 226.682 737.787 Q226.682 729.5 232.561 724.685 Q238.487 719.87 248.765 719.87 Q259.089 719.87 264.968 724.685 Q270.848 729.5 270.848 737.787 Q270.848 743.712 267.468 747.833 Q264.135 751.953 258.163 753.435 Q264.922 755.009 268.672 759.592 Q272.468 764.175 272.468 770.796 Q272.468 780.842 266.311 786.212 Q260.2 791.583 248.765 791.583 Q237.33 791.583 231.172 786.212 Q225.061 780.842 225.061 770.796 Q225.061 764.175 228.858 759.592 Q232.654 755.009 239.413 753.435 M235.987 738.666 Q235.987 744.037 239.32 747.046 Q242.7 750.055 248.765 750.055 Q254.783 750.055 258.163 747.046 Q261.589 744.037 261.589 738.666 Q261.589 733.296 258.163 730.287 Q254.783 727.277 248.765 727.277 Q242.7 727.277 239.32 730.287 Q235.987 733.296 235.987 738.666 Z" fill="#000000" fill-rule="nonzero" fill-opacity="1" /><path clip-path="url(#clip160)" d="M309.089 727.277 Q301.866 727.277 298.209 734.407 Q294.598 741.49 294.598 755.749 Q294.598 769.962 298.209 777.092 Q301.866 784.175 309.089 784.175 Q316.357 784.175 319.968 777.092 Q323.626 769.962 323.626 755.749 Q323.626 741.49 319.968 734.407 Q316.357 727.277 309.089 727.277 M309.089 719.87 Q320.709 719.87 326.82 729.083 Q332.977 738.25 332.977 755.749 Q332.977 773.203 326.82 782.416 Q320.709 791.583 309.089 791.583 Q297.468 791.583 291.311 782.416 Q285.2 773.203 285.2 755.749 Q285.2 738.25 291.311 729.083 Q297.468 719.87 309.089 719.87 Z" fill="#000000" fill-rule="nonzero" fill-opacity="1" /><path clip-path="url(#clip160)" d="M149.228 613.533 L208.58 613.533 L208.58 621.403 L149.228 621.403 L149.228 613.533 Z" fill="#000000" fill-rule="nonzero" fill-opacity="1" /><path clip-path="url(#clip160)" d="M249.922 608.904 Q243.626 608.904 239.922 613.209 Q236.265 617.515 236.265 625.015 Q236.265 632.468 239.922 636.82 Q243.626 641.126 249.922 641.126 Q256.219 641.126 259.876 636.82 Q263.58 632.468 263.58 625.015 Q263.58 617.515 259.876 613.209 Q256.219 608.904 249.922 608.904 M268.487 579.598 L268.487 588.117 Q264.968 586.45 261.357 585.57 Q257.793 584.691 254.274 584.691 Q245.015 584.691 240.107 590.941 Q235.246 597.191 234.552 609.829 Q237.283 605.802 241.404 603.672 Q245.524 601.496 250.478 601.496 Q260.894 601.496 266.913 607.839 Q272.978 614.135 272.978 625.015 Q272.978 635.663 266.681 642.098 Q260.385 648.533 249.922 648.533 Q237.932 648.533 231.589 639.366 Q225.246 630.153 225.246 612.7 Q225.246 596.311 233.024 586.589 Q240.802 576.82 253.904 576.82 Q257.422 576.82 260.987 577.515 Q264.598 578.209 268.487 579.598 Z" fill="#000000" fill-rule="nonzero" fill-opacity="1" /><path clip-path="url(#clip160)" d="M309.089 584.228 Q301.866 584.228 298.209 591.357 Q294.598 598.441 294.598 612.7 Q294.598 626.913 298.209 634.042 Q301.866 641.126 309.089 641.126 Q316.357 641.126 319.968 634.042 Q323.626 626.913 323.626 612.7 Q323.626 598.441 319.968 591.357 Q316.357 584.228 309.089 584.228 M309.089 576.82 Q320.709 576.82 326.82 586.033 Q332.977 595.2 332.977 612.7 Q332.977 630.153 326.82 639.366 Q320.709 648.533 309.089 648.533 Q297.468 648.533 291.311 639.366 Q285.2 630.153 285.2 612.7 Q285.2 595.2 291.311 586.033 Q297.468 576.82 309.089 576.82 Z" fill="#000000" fill-rule="nonzero" fill-opacity="1" /><path clip-path="url(#clip160)" d="M149.228 470.483 L208.58 470.483 L208.58 478.354 L149.228 478.354 L149.228 470.483 Z" fill="#000000" fill-rule="nonzero" fill-opacity="1" /><path clip-path="url(#clip160)" d="M254.459 443.169 L230.848 480.067 L254.459 480.067 L254.459 443.169 M252.006 435.021 L263.765 435.021 L263.765 480.067 L273.626 480.067 L273.626 487.844 L263.765 487.844 L263.765 504.141 L254.459 504.141 L254.459 487.844 L223.256 487.844 L223.256 478.817 L252.006 435.021 Z" fill="#000000" fill-rule="nonzero" fill-opacity="1" /><path clip-path="url(#clip160)" d="M309.089 441.178 Q301.866 441.178 298.209 448.308 Q294.598 455.391 294.598 469.65 Q294.598 483.863 298.209 490.993 Q301.866 498.076 309.089 498.076 Q316.357 498.076 319.968 490.993 Q323.626 483.863 323.626 469.65 Q323.626 455.391 319.968 448.308 Q316.357 441.178 309.089 441.178 M309.089 433.771 Q320.709 433.771 326.82 442.984 Q332.977 452.15 332.977 469.65 Q332.977 487.104 326.82 496.317 Q320.709 505.483 309.089 505.483 Q297.468 505.483 291.311 496.317 Q285.2 487.104 285.2 469.65 Q285.2 452.15 291.311 442.984 Q297.468 433.771 309.089 433.771 Z" fill="#000000" fill-rule="nonzero" fill-opacity="1" /><path clip-path="url(#clip160)" d="M149.228 327.434 L208.58 327.434 L208.58 335.304 L149.228 335.304 L149.228 327.434 Z" fill="#000000" fill-rule="nonzero" fill-opacity="1" /><path clip-path="url(#clip160)" d="M236.82 353.221 L269.459 353.221 L269.459 361.091 L225.571 361.091 L225.571 353.221 Q230.895 347.711 240.061 338.452 Q249.274 329.147 251.635 326.462 Q256.126 321.415 257.885 317.943 Q259.691 314.425 259.691 311.045 Q259.691 305.536 255.802 302.064 Q251.959 298.591 245.756 298.591 Q241.357 298.591 236.45 300.119 Q231.589 301.647 226.033 304.749 L226.033 295.304 Q231.682 293.036 236.589 291.878 Q241.496 290.721 245.57 290.721 Q256.311 290.721 262.7 296.091 Q269.089 301.462 269.089 310.443 Q269.089 314.702 267.468 318.545 Q265.894 322.341 261.681 327.526 Q260.524 328.869 254.32 335.304 Q248.117 341.693 236.82 353.221 Z" fill="#000000" fill-rule="nonzero" fill-opacity="1" /><path clip-path="url(#clip160)" d="M309.089 298.128 Q301.866 298.128 298.209 305.258 Q294.598 312.341 294.598 326.6 Q294.598 340.813 298.209 347.943 Q301.866 355.026 309.089 355.026 Q316.357 355.026 319.968 347.943 Q323.626 340.813 323.626 326.6 Q323.626 312.341 319.968 305.258 Q316.357 298.128 309.089 298.128 M309.089 290.721 Q320.709 290.721 326.82 299.934 Q332.977 309.101 332.977 326.6 Q332.977 344.054 326.82 353.267 Q320.709 362.434 309.089 362.434 Q297.468 362.434 291.311 353.267 Q285.2 344.054 285.2 326.6 Q285.2 309.101 291.311 299.934 Q297.468 290.721 309.089 290.721 Z" fill="#000000" fill-rule="nonzero" fill-opacity="1" /><path clip-path="url(#clip160)" d="M309.089 155.079 Q301.866 155.079 298.209 162.208 Q294.598 169.292 294.598 183.551 Q294.598 197.764 298.209 204.893 Q301.866 211.977 309.089 211.977 Q316.357 211.977 319.968 204.893 Q323.626 197.764 323.626 183.551 Q323.626 169.292 319.968 162.208 Q316.357 155.079 309.089 155.079 M309.089 147.671 Q320.709 147.671 326.82 156.884 Q332.977 166.051 332.977 183.551 Q332.977 201.004 326.82 210.217 Q320.709 219.384 309.089 219.384 Q297.468 219.384 291.311 210.217 Q285.2 201.004 285.2 183.551 Q285.2 166.051 291.311 156.884 Q297.468 147.671 309.089 147.671 Z" fill="#000000" fill-rule="nonzero" fill-opacity="1" /><path clip-path="url(#clip162)" d="M528.028 203.579 L545.118 228.931 L562.208 257.087 L579.299 287.022 L596.389 315.786 L613.479 347.082 L630.57 366.816 L647.66 378.396 L664.75 367.172 L681.841 346.064 L698.931 339.371 L716.021 331.722 L733.112 326.616 L750.202 328.113 L767.292 335.902 L784.383 345.835 L801.473 357.311 L818.563 368.464 L835.654 378.202 L852.744 389.462 L869.834 401.334 L886.925 410.095 L904.015 407.77 L921.105 398.102 L938.195 390.622 L955.286 415.099 L972.376 444.629 L989.466 475.886 L1006.56 505.902 L1023.65 532.873 L1040.74 547.843 L1057.83 550.365 L1074.92 534.866 L1092.01 511.505 L1109.1 490.811 L1126.19 471.352 L1143.28 454.547 L1160.37 444.98 L1177.46 441.539 L1194.55 442.621 L1211.64 443.687 L1228.73 447.182 L1245.82 452.455 L1262.91 463.04 L1280 474.074 L1297.09 482.097 L1314.18 478.925 L1331.27 468.241 L1348.36 466.423 L1365.45 492.861 L1382.54 522.085 L1399.63 553.165 L1416.72 583.112 L1433.81 609.69 L1450.91 622.644 L1468 622.606 L1485.09 601.86 L1502.18 573.407 L1519.27 549.213 L1536.36 524.947 L1553.45 503.237 L1570.54 489.276 L1587.63 481.9 L1604.72 479.525 L1621.81 477.96 L1638.9 479.988 L1655.99 483.566 L1673.08 493.389 L1690.17 504.585 L1707.26 512.88 L1724.35 509.74 L1741.44 498.757 L1758.53 492.157 L1775.62 518.737 L1792.71 548.14 L1809.8 579.438 L1826.89 609.645 L1843.98 636.873 L1861.07 650.741 L1878.16 650.91 L1895.25 636.974 L1912.34 606.244 L1929.43 580.447 L1946.52 554.66 L1963.61 530.686 L1980.71 514.909 L1997.8 505.947 L2014.89 502.218 L2031.98 499.386 L2049.07 500.469 L2066.16 503.578 L2083.25 513.617 L2100.34 525.265 L2117.43 534.021 L2134.52 531.103 L2151.61 520.066 L2168.7 522.217 L2185.79 539.471 L2202.88 562.173 L2219.97 592.741 L2237.06 623 L2254.15 654.182 L2271.24 675.894 L2288.33 686.237 L2305.42 671.146 L2322.51 638.095 L2339.6 607.494 L2356.69 578.01 L2373.78 551.446 L2390.87 532.762 L2407.96 523.062 L2425.05 518.702 L2442.14 515.243 L2459.23 516.367 L2476.32 520.066 L2493.42 530.481 L2510.51 542.591 L2527.6 551.782 L2544.69 549.1 L2561.78 546.285 L2578.87 548.759 L2595.96 566.291 L2613.05 589.198 L2630.14 617.611 L2647.23 649.342 L2664.32 682.726 L2681.41 705.034 L2698.5 715.656 L2715.59 701.345 L2732.68 668.283 L2749.77 637.498 L2766.86 607.479 L2783.95 579.871 L2801.04 559.226 L2818.13 544.629 L2835.22 536.122 L2852.31 531.341 L2869.4 532.165 L2886.49 536.082 L2903.58 546.994 L2920.67 562.784 L2937.76 574.67 L2954.85 572.792 L2971.94 572.698 L2989.03 575.387 L3006.12 593.201 L3023.22 616.35 L3040.31 645.099 L3057.4 677.348 L3074.49 711.47 L3091.58 734.47 L3108.67 745.504 L3125.76 730.984 L3142.85 698.302 L3159.94 666.925 L3177.03 636.404 L3194.12 608.041 L3211.21 586.327 L3228.3 570.467 L3245.39 559.803 L3262.48 553.525 L3279.57 555.261 L3296.66 561.502 L3313.75 576.765 L3330.84 593.767 L3347.93 606.928 L3365.02 605.98 L3382.11 598.073 L3399.2 600.995 L3416.29 619.042 L3433.38 642.391 L3450.47 671.445 L3467.56 704.182 L3484.65 739.005 L3501.74 762.793 L3518.83 774.712 L3535.92 761.257 L3553.02 731.286 L3570.11 702.735 L3587.2 671.78 L3604.29 640.988 L3621.38 617.31 L3638.47 600.889 L3655.56 591.715 L3672.65 585.758 L3689.74 587.447 L3706.83 594.309 L3723.92 610.411 L3741.01 628.896 L3758.1 643.563 L3775.19 643.707 L3792.28 632.788 L3809.37 627.701 L3826.46 645.876 L3843.55 669.35 L3860.64 698.67 L3877.73 731.882 L3894.82 767.441 L3911.91 792.101 L3929 807.1 L3946.09 804.367 L3963.18 778.145 L3980.27 749.611 L3997.36 717.735 L4014.45 685.686 L4031.54 660.425 L4048.63 642.41 L4065.72 631.241 L4082.82 623.947 L4099.91 624.884 L4117 631.827 L4134.09 649.368 L4151.18 669.642 L4168.27 686.126 L4185.36 687.586 L4202.45 677.316 L4219.54 666.246 L4236.63 674.465 L4253.72 697.439 L4270.81 727.155 L4287.9 760.971 L4304.99 797.26 L4322.08 831.128 L4339.17 857.356 L4356.26 855.716 L4373.35 831.006 L4390.44 803.137 L4407.53 770.713 L4424.62 737.375 L4441.71 710.431 L4458.8 690.482 L4475.89 678.205 L4492.98 670.047 L4510.07 671.157 L4527.16 678.812 L4544.25 698.075 L4561.34 720.594 L4578.43 739.28 L4595.52 742.303 L4612.62 732.764 L4629.71 721.687 L4629.71 98.642 L4612.62 101.588 L4595.52 104.952 L4578.43 107.851 L4561.34 108.577 L4544.25 109.612 L4527.16 111.304 L4510.07 115.289 L4492.98 118.196 L4475.89 120.099 L4458.8 118.22 L4441.71 114.57 L4424.62 111.745 L4407.53 112.588 L4390.44 117.743 L4373.35 129.09 L4356.26 146.832 L4339.17 159.823 L4322.08 161.68 L4304.99 157.107 L4287.9 145.192 L4270.81 131.593 L4253.72 117.705 L4236.63 104.347 L4219.54 96.9042 L4202.45 97.8894 L4185.36 101.25 L4168.27 104.124 L4151.18 104.744 L4134.09 105.708 L4117 107.316 L4099.91 111.224 L4082.82 114.025 L4065.72 115.544 L4048.63 113.28 L4031.54 109.755 L4014.45 106.805 L3997.36 107.547 L3980.27 112.822 L3963.18 123.661 L3946.09 141.294 L3929 154.201 L3911.91 156.032 L3894.82 151.466 L3877.73 139.559 L3860.64 125.973 L3843.55 112.084 L3826.46 100.195 L3809.37 91.7239 L3792.28 92.1464 L3775.19 95.4317 L3758.1 98.1994 L3741.01 98.7346 L3723.92 99.6311 L3706.83 101.166 L3689.74 104.948 L3672.65 107.654 L3655.56 109.343 L3638.47 107.129 L3621.38 103.333 L3604.29 100.32 L3587.2 100.94 L3570.11 105.802 L3553.02 117.092 L3535.92 134.86 L3518.83 147.891 L3501.74 149.86 L3484.65 145.381 L3467.56 133.612 L3450.47 120.171 L3433.38 106.432 L3416.29 94.7276 L3399.2 86.4568 L3382.11 86.9414 L3365.02 90.2775 L3347.93 93.1001 L3330.84 93.676 L3313.75 94.4695 L3296.66 95.7761 L3279.57 98.5827 L3262.48 101.219 L3245.39 103.34 L3228.3 100.982 L3211.21 97.1872 L3194.12 93.9139 L3177.03 94.4242 L3159.94 99.6668 L3142.85 110.886 L3125.76 128.591 L3108.67 141.698 L3091.58 143.754 L3074.49 139.393 L3057.4 127.671 L3040.31 114.239 L3023.22 100.485 L3006.12 88.7165 L2989.03 80.3172 L2971.94 80.7587 L2954.85 84.0754 L2937.76 86.8524 L2920.67 87.3843 L2903.58 88.128 L2886.49 88.6924 L2869.4 91.5529 L2852.31 94.2367 L2835.22 96.4617 L2818.13 94.5931 L2801.04 90.5569 L2783.95 87.3504 L2766.86 88.3205 L2749.77 93.4185 L2732.68 104.606 L2715.59 122.424 L2698.5 135.654 L2681.41 137.856 L2664.32 133.644 L2647.23 122.065 L2630.14 108.741 L2613.05 95.1051 L2595.96 83.4422 L2578.87 75.1878 L2561.78 75.7163 L2544.69 79.1043 L2527.6 81.9436 L2510.51 82.5209 L2493.42 83.3353 L2476.32 82.7357 L2459.23 85.5911 L2442.14 88.2981 L2425.05 90.5613 L2407.96 90.025 L2390.87 85.9224 L2373.78 82.5689 L2356.69 82.9654 L2339.6 87.9737 L2322.51 99.146 L2305.42 117.105 L2288.33 130.542 L2271.24 132.953 L2254.15 128.953 L2237.06 117.583 L2219.97 104.48 L2202.88 91.0051 L2185.79 79.4638 L2168.7 71.2686 L2151.61 71.853 L2134.52 75.2457 L2117.43 78.073 L2100.34 78.5073 L2083.25 79.2212 L2066.16 79.8938 L2049.07 82.7908 L2031.98 85.5282 L2014.89 87.7618 L1997.8 86.0062 L1980.71 81.8327 L1963.61 78.4507 L1946.52 78.9896 L1929.43 84.3812 L1912.34 95.9235 L1895.25 114.092 L1878.16 127.745 L1861.07 130.463 L1843.98 126.751 L1826.89 115.717 L1809.8 102.93 L1792.71 89.804 L1775.62 78.6323 L1758.53 70.8396 L1741.44 71.7632 L1724.35 75.4901 L1707.26 78.6809 L1690.17 79.522 L1673.08 80.6531 L1655.99 80.8133 L1638.9 84.0152 L1621.81 87.0315 L1604.72 89.5987 L1587.63 89.1299 L1570.54 85.4093 L1553.45 82.4582 L1536.36 83.2246 L1519.27 88.1191 L1502.18 99.6681 L1485.09 118.041 L1468 131.996 L1450.91 135.01 L1433.81 131.633 L1416.72 120.954 L1399.63 108.549 L1382.54 95.8061 L1365.45 85.026 L1348.36 77.6439 L1331.27 79.0156 L1314.18 83.2271 L1297.09 86.9168 L1280 88.3347 L1262.91 90.0714 L1245.82 92.5 L1228.73 96.1245 L1211.64 98.8548 L1194.55 101.474 L1177.46 101.645 L1160.37 99.3329 L1143.28 97.409 L1126.19 99.2029 L1109.1 105.46 L1092.01 117.725 L1074.92 136.821 L1057.83 151.442 L1040.74 155.203 L1023.65 152.598 L1006.56 142.65 L989.466 128.871 L972.376 113.658 L955.286 101.599 L938.195 95.5797 L921.105 101.567 L904.015 110.935 L886.925 116.144 L869.834 118.748 L852.744 117.767 L835.654 118.107 L818.563 121.983 L801.473 126.014 L784.383 129.697 L767.292 130.728 L750.202 125.372 L733.112 123.081 L716.021 129.563 L698.931 142.575 L681.841 159.032 L664.75 181.782 L647.66 200.82 L630.57 208.428 L613.479 209.262 L596.389 202.914 L579.299 194.668 L562.208 181.817 L545.118 172.183 L528.028 168.355  Z" fill="#aeaeae" fill-rule="evenodd" fill-opacity="0.5"/>
<polyline clip-path="url(#clip162)" style="stroke:#aeaeae; stroke-linecap:round; stroke-linejoin:round; stroke-width:0; stroke-opacity:1; fill:none" points="528.028,180.994 545.118,185.194 562.208,191.498 579.299,198.948 596.389,206.129 613.479,212.234 630.57,213.849 647.66,211.52 664.75,202.705 681.841,191.308 698.931,183.826 716.021,179.241 733.112,177.263 750.202,178.187 767.292,180.632 784.383,183.359 801.473,184.6 818.563,185.042 835.654,184.339 852.744,184.313 869.834,184.29 886.925,184.054 904.015,182.005 921.105,179.29 938.195,178.222 955.286,182.638 972.376,189.22 989.466,196.967 1006.56,204.447 1023.65,210.858 1040.74,212.733 1057.83,210.619 1074.92,201.927 1092.01,190.514 1109.1,183.053 1126.19,178.582 1143.28,176.74 1160.37,177.767 1177.46,180.276 1194.55,182.979 1211.64,184.189 1228.73,184.635 1245.82,183.947 1262.91,184.041 1280,184.175 1297.09,184.105 1314.18,182.214 1331.27,179.635 1348.36,178.693 1365.45,183.233 1382.54,189.935 1399.63,197.802 1416.72,205.405 1433.81,211.937 1450.91,213.938 1468,211.887 1485.09,203.164 1502.18,191.68 1519.27,184.152 1536.36,179.62 1553.45,177.737 1570.54,178.722 1587.63,181.192 1604.72,183.868 1621.81,185.054 1638.9,185.471 1655.99,184.793 1673.08,184.948 1690.17,185.151 1707.26,185.156 1724.35,183.333 1741.44,180.82 1758.53,179.939 1775.62,184.546 1792.71,191.316 1809.8,199.25 1826.89,206.928 1843.98,213.544 1861.07,215.626 1878.16,213.637 1895.25,204.964 1912.34,193.481 1929.43,185.933 1946.52,181.356 1963.61,179.423 1980.71,180.367 1997.8,182.802 2014.89,185.457 2031.98,186.619 2049.07,187.025 2066.16,186.356 2083.25,186.537 2100.34,186.778 2117.43,186.824 2134.52,185.039 2151.61,182.564 2168.7,181.721 2185.79,186.371 2202.88,193.186 2219.97,201.172 2237.06,208.903 2254.15,215.573 2271.24,217.698 2288.33,215.762 2305.42,207.083 2322.51,195.604 2339.6,188.035 2356.69,183.433 2373.78,181.451 2390.87,182.349 2407.96,184.744 2425.05,187.355 2442.14,188.489 2459.23,188.876 2476.32,188.19 2493.42,188.365 2510.51,188.618 2527.6,188.678 2544.69,186.919 2561.78,184.465 2578.87,183.642 2595.96,188.32 2613.05,195.165 2630.14,203.187 2647.23,210.959 2664.32,217.675 2681.41,219.853 2698.5,217.95 2715.59,209.322 2732.68,197.827 2749.77,190.219 2766.86,185.571 2783.95,183.554 2801.04,184.406 2818.13,186.764 2835.22,189.338 2852.31,190.423 2869.4,190.791 2886.49,190.091 2903.58,190.248 2920.67,190.488 2937.76,190.553 2954.85,188.796 2971.94,186.349 2989.03,185.534 3006.12,190.224 3023.22,197.086 3040.31,205.128 3057.4,212.929 3074.49,219.675 3091.58,221.872 3108.67,219.994 3125.76,211.368 3142.85,199.876 3159.94,192.24 3177.03,187.556 3194.12,185.493 3211.21,186.305 3228.3,188.609 3245.39,191.137 3262.48,192.192 3279.57,192.52 3296.66,191.788 3313.75,191.938 3330.84,192.182 3347.93,192.245 3365.02,190.491 3382.11,188.052 3399.2,187.244 3416.29,191.947 3433.38,198.824 3450.47,206.883 3467.56,214.698 3484.65,221.47 3501.74,223.704 3518.83,221.87 3535.92,213.283 3553.02,201.787 3570.11,194.126 3587.2,189.408 3604.29,187.297 3621.38,188.057 3638.47,190.314 3655.56,192.808 3672.65,193.834 3689.74,194.13 3706.83,193.383 3723.92,193.528 3741.01,193.766 3758.1,193.83 3775.19,192.079 3792.28,189.639 3809.37,188.831 3826.46,193.537 3843.55,200.416 3860.64,208.492 3877.73,216.326 3894.82,223.118 3911.91,225.371 3929,223.559 3946.09,214.975 3963.18,203.463 3980.27,195.779 3997.36,191.018 4014.45,188.866 4031.54,189.591 4048.63,191.817 4065.72,194.263 4082.82,195.263 4099.91,195.55 4117,194.777 4134.09,194.898 4151.18,195.123 4168.27,195.185 4185.36,193.433 4202.45,190.994 4219.54,190.186 4236.63,194.897 4253.72,201.783 4270.81,209.865 4287.9,217.711 4304.99,224.513 4322.08,226.784 4339.17,224.992 4356.26,216.408 4373.35,204.899 4390.44,197.197 4407.53,192.415 4424.62,190.229 4441.71,190.915 4458.8,193.11 4475.89,195.522 4492.98,196.472 4510.07,196.722 4527.16,195.947 4544.25,196.071 4561.34,196.295 4578.43,196.358 4595.52,194.614 4612.62,192.177 4629.71,191.373 "/>
<path clip-path="url(#clip162)" d="M528.028 190.901 L545.118 202.889 L562.208 221.063 L579.299 243.138 L596.389 267.418 L613.479 290.479 L630.57 303.942 L647.66 307.237 L664.75 289.467 L681.841 265.581 L698.931 252.311 L716.021 237.631 L733.112 232.996 L750.202 235.03 L767.292 240.384 L784.383 247.296 L801.473 253.262 L818.563 259.847 L835.654 261.273 L852.744 264.401 L869.834 267.258 L886.925 268.42 L904.015 268.002 L921.105 263.533 L938.195 265.15 L955.286 279.022 L972.376 295.893 L989.466 320.191 L1006.56 342.787 L1023.65 363.832 L1040.74 375.896 L1057.83 376.748 L1074.92 358.217 L1092.01 326.53 L1109.1 309.749 L1126.19 292.645 L1143.28 283.855 L1160.37 280.745 L1177.46 280.708 L1194.55 282.511 L1211.64 280.906 L1228.73 283.201 L1245.82 283.573 L1262.91 285.9 L1280 290.442 L1297.09 293.634 L1314.18 293.667 L1331.27 292.721 L1348.36 290.907 L1365.45 302.279 L1382.54 321.367 L1399.63 345.857 L1416.72 369.593 L1433.81 389.127 L1450.91 399.929 L1468 403.448 L1485.09 383.632 L1502.18 355.133 L1519.27 329.611 L1536.36 309.421 L1553.45 299.187 L1570.54 295.109 L1587.63 295.016 L1604.72 295.026 L1621.81 293.295 L1638.9 294.462 L1655.99 291.694 L1673.08 293.827 L1690.17 299.621 L1707.26 304.122 L1724.35 304.316 L1741.44 302.46 L1758.53 300.552 L1775.62 310.015 L1792.71 328.773 L1809.8 352.271 L1826.89 377.75 L1843.98 399.127 L1861.07 409.427 L1878.16 411.877 L1895.25 394.006 L1912.34 364.565 L1929.43 339.033 L1946.52 318.641 L1963.61 305.995 L1980.71 299.575 L1997.8 299.163 L2014.89 299.662 L2031.98 298.704 L2049.07 299.197 L2066.16 296.832 L2083.25 300.238 L2100.34 304.517 L2117.43 309.893 L2134.52 309.996 L2151.61 309.107 L2168.7 312.883 L2185.79 321.605 L2202.88 334.933 L2219.97 357.637 L2237.06 384.648 L2254.15 404.109 L2271.24 415.524 L2288.33 417.239 L2305.42 399.628 L2322.51 371.805 L2339.6 344.827 L2356.69 324.433 L2373.78 309.444 L2390.87 303.674 L2407.96 303.783 L2425.05 303.643 L2442.14 303.735 L2459.23 302.822 L2476.32 300.804 L2493.42 304.681 L2510.51 309.67 L2527.6 316.199 L2544.69 315.208 L2561.78 313.17 L2578.87 315.701 L2595.96 329.202 L2613.05 346.978 L2630.14 363.964 L2647.23 389.228 L2664.32 407.382 L2681.41 417.968 L2698.5 420.672 L2715.59 405.95 L2732.68 377.298 L2749.77 349.8 L2766.86 327.875 L2783.95 313.768 L2801.04 308.385 L2818.13 306.89 L2835.22 307.893 L2852.31 306.982 L2869.4 306.014 L2886.49 303.675 L2903.58 307.311 L2920.67 312.253 L2937.76 318.393 L2954.85 318.492 L2971.94 316.286 L2989.03 318.748 L3006.12 332.63 L3023.22 350.628 L3040.31 372.997 L3057.4 392.654 L3074.49 410.683 L3091.58 420.531 L3108.67 425.702 L3125.76 412.394 L3142.85 380.176 L3159.94 352.919 L3177.03 331.191 L3194.12 315.192 L3211.21 309.84 L3228.3 309.643 L3245.39 310.755 L3262.48 309.333 L3279.57 308.404 L3296.66 305.287 L3313.75 309.926 L3330.84 315.67 L3347.93 319.554 L3365.02 321.58 L3382.11 318.419 L3399.2 321.473 L3416.29 337.087 L3433.38 354.805 L3450.47 376.535 L3467.56 395.783 L3484.65 414.418 L3501.74 424.942 L3518.83 428.16 L3535.92 413.413 L3553.02 379.876 L3570.11 354.301 L3587.2 334.759 L3604.29 316.636 L3621.38 313.658 L3638.47 312.922 L3655.56 313.632 L3672.65 312.148 L3689.74 310.447 L3706.83 307.272 L3723.92 311.802 L3741.01 317.615 L3758.1 322.275 L3775.19 324.361 L3792.28 321.961 L3809.37 326.916 L3826.46 339.006 L3843.55 357.077 L3860.64 378.87 L3877.73 400.072 L3894.82 417.717 L3911.91 429.352 L3929 431.385 L3946.09 415.679 L3963.18 383.13 L3980.27 359.235 L3997.36 338.583 L4014.45 319.211 L4031.54 315.824 L4048.63 316.009 L4065.72 315.91 L4082.82 315.36 L4099.91 313.149 L4117 311.088 L4134.09 317.043 L4151.18 323.104 L4168.27 323.777 L4185.36 326.623 L4202.45 325.207 L4219.54 329.498 L4236.63 342.005 L4253.72 357.077 L4270.81 379.564 L4287.9 403.156 L4304.99 422.175 L4322.08 432.504 L4339.17 432.934 L4356.26 415.911 L4373.35 383.031 L4390.44 361.247 L4407.53 339.94 L4424.62 323.477 L4441.71 318.586 L4458.8 317.836 L4475.89 318.357 L4492.98 317.458 L4510.07 315.309 L4527.16 314.011 L4544.25 319.102 L4561.34 324.968 L4578.43 328.074 L4595.52 329.579 L4612.62 327.548 L4629.71 330.105 L4629.71 126.378 L4612.62 129.341 L4595.52 136.233 L4578.43 142.629 L4561.34 143.043 L4544.25 144.495 L4527.16 145.941 L4510.07 149.445 L4492.98 150.576 L4475.89 146.933 L4458.8 142.42 L4441.71 137.249 L4424.62 133.432 L4407.53 135.279 L4390.44 142.514 L4373.35 154.486 L4356.26 173.882 L4339.17 189.801 L4322.08 193.216 L4304.99 188.467 L4287.9 175.919 L4270.81 160.506 L4253.72 144.832 L4236.63 132.019 L4219.54 123.78 L4202.45 126.202 L4185.36 133.667 L4168.27 140.362 L4151.18 139.499 L4134.09 141.209 L4117 141.603 L4099.91 145.861 L4082.82 147.743 L4065.72 143.631 L4048.63 138.991 L4031.54 133.872 L4014.45 130.027 L3997.36 131.676 L3980.27 138.573 L3963.18 151.715 L3946.09 171.762 L3929 186.776 L3911.91 189.766 L3894.82 185.314 L3877.73 172.557 L3860.64 157.421 L3843.55 141.861 L3826.46 128.494 L3809.37 120.713 L3792.28 123.18 L3775.19 129.911 L3758.1 135.495 L3741.01 135.905 L3723.92 136.281 L3706.83 137.172 L3689.74 140.993 L3672.65 143.855 L3655.56 140.52 L3638.47 134.938 L3621.38 129.571 L3604.29 127.411 L3587.2 128.699 L3570.11 135.436 L3553.02 147.81 L3535.92 167.001 L3518.83 182.163 L3501.74 185.533 L3484.65 181.278 L3467.56 168.599 L3450.47 153.544 L3433.38 137.974 L3416.29 124.867 L3399.2 116.611 L3382.11 119.886 L3365.02 126.073 L3347.93 130.776 L3330.84 130.674 L3313.75 129.562 L3296.66 130.613 L3279.57 134.968 L3262.48 136.962 L3245.39 136.497 L3228.3 131.328 L3211.21 125.286 L3194.12 121.488 L3177.03 124.315 L3159.94 130.965 L3142.85 142.867 L3125.76 162.208 L3108.67 177.384 L3091.58 180.672 L3074.49 176.614 L3057.4 163.997 L3040.31 148.923 L3023.22 133.621 L3006.12 120.944 L2989.03 113.035 L2971.94 115.43 L2954.85 122.128 L2937.76 124.549 L2920.67 123.66 L2903.58 123.648 L2886.49 125.321 L2869.4 128.552 L2852.31 130.512 L2835.22 131.473 L2818.13 124.774 L2801.04 120.303 L2783.95 117.31 L2766.86 118.785 L2749.77 124.3 L2732.68 135.994 L2715.59 155.091 L2698.5 170.411 L2681.41 174.46 L2664.32 170.298 L2647.23 158.59 L2630.14 144.499 L2613.05 129.568 L2595.96 117.092 L2578.87 108.842 L2561.78 110.487 L2544.69 116.117 L2527.6 119.572 L2510.51 117.223 L2493.42 117.963 L2476.32 118.078 L2459.23 120.666 L2442.14 122.949 L2425.05 124.873 L2407.96 121.198 L2390.87 115.092 L2373.78 112.145 L2356.69 113.921 L2339.6 119.414 L2322.51 130.465 L2305.42 150.164 L2288.33 165.099 L2271.24 168.18 L2254.15 164.974 L2237.06 153.802 L2219.97 139.691 L2202.88 125.493 L2185.79 112.428 L2168.7 104.434 L2151.61 106.265 L2134.52 111.201 L2117.43 115.042 L2100.34 112.513 L2083.25 113.095 L2066.16 113.052 L2049.07 115.811 L2031.98 118.1 L2014.89 119.756 L1997.8 117.516 L1980.71 110.576 L1963.61 108.323 L1946.52 109.506 L1929.43 115.584 L1912.34 126.793 L1895.25 146.439 L1878.16 161.628 L1861.07 165.264 L1843.98 162.214 L1826.89 149.689 L1809.8 136.945 L1792.71 122.539 L1775.62 109.169 L1758.53 101.494 L1741.44 103.887 L1724.35 109.469 L1707.26 112.943 L1690.17 110.724 L1673.08 110.807 L1655.99 110.871 L1638.9 113.923 L1621.81 116.375 L1604.72 117.793 L1587.63 116.004 L1570.54 110.449 L1553.45 108.457 L1536.36 109.987 L1519.27 115.698 L1502.18 127.041 L1485.09 146.665 L1468 161.993 L1450.91 166.512 L1433.81 163.015 L1416.72 151.706 L1399.63 138.117 L1382.54 123.693 L1365.45 111.295 L1348.36 103.472 L1331.27 106.857 L1314.18 112.29 L1297.09 116.564 L1280 116.83 L1262.91 115.678 L1245.82 116.738 L1228.73 120.229 L1211.64 122.959 L1194.55 124.746 L1177.46 122.02 L1160.37 117.985 L1143.28 115.217 L1126.19 117.727 L1109.1 124.821 L1092.01 137.421 L1074.92 158.045 L1057.83 174.128 L1040.74 178.581 L1023.65 175.748 L1006.56 164.538 L989.466 150.968 L972.376 136.278 L955.286 123.545 L938.195 116.771 L921.105 122.028 L904.015 129.156 L886.925 134.559 L869.834 135.799 L852.744 135.308 L835.654 136.6 L818.563 140.955 L801.473 144.908 L784.383 146.102 L767.292 143.654 L750.202 140.657 L733.112 139.907 L716.021 145.309 L698.931 155.536 L681.841 170.321 L664.75 191.952 L647.66 209.781 L630.57 216.687 L613.479 217.2 L596.389 209.711 L579.299 199.514 L562.208 186.929 L545.118 176.397 L528.028 171.253  Z" fill="#757575" fill-rule="evenodd" fill-opacity="0.5"/>
<polyline clip-path="url(#clip162)" style="stroke:#757575; stroke-linecap:round; stroke-linejoin:round; stroke-width:0; stroke-opacity:1; fill:none" points="528.028,180.994 545.118,185.194 562.208,191.498 579.299,198.948 596.389,206.129 613.479,212.234 630.57,213.849 647.66,211.52 664.75,202.705 681.841,191.308 698.931,183.826 716.021,179.241 733.112,177.263 750.202,178.187 767.292,180.632 784.383,183.359 801.473,184.6 818.563,185.042 835.654,184.339 852.744,184.313 869.834,184.29 886.925,184.054 904.015,182.005 921.105,179.29 938.195,178.222 955.286,182.638 972.376,189.22 989.466,196.967 1006.56,204.447 1023.65,210.858 1040.74,212.733 1057.83,210.619 1074.92,201.927 1092.01,190.514 1109.1,183.053 1126.19,178.582 1143.28,176.74 1160.37,177.767 1177.46,180.276 1194.55,182.979 1211.64,184.189 1228.73,184.635 1245.82,183.947 1262.91,184.041 1280,184.175 1297.09,184.105 1314.18,182.214 1331.27,179.635 1348.36,178.693 1365.45,183.233 1382.54,189.935 1399.63,197.802 1416.72,205.405 1433.81,211.937 1450.91,213.938 1468,211.887 1485.09,203.164 1502.18,191.68 1519.27,184.152 1536.36,179.62 1553.45,177.737 1570.54,178.722 1587.63,181.192 1604.72,183.868 1621.81,185.054 1638.9,185.471 1655.99,184.793 1673.08,184.948 1690.17,185.151 1707.26,185.156 1724.35,183.333 1741.44,180.82 1758.53,179.939 1775.62,184.546 1792.71,191.316 1809.8,199.25 1826.89,206.928 1843.98,213.544 1861.07,215.626 1878.16,213.637 1895.25,204.964 1912.34,193.481 1929.43,185.933 1946.52,181.356 1963.61,179.423 1980.71,180.367 1997.8,182.802 2014.89,185.457 2031.98,186.619 2049.07,187.025 2066.16,186.356 2083.25,186.537 2100.34,186.778 2117.43,186.824 2134.52,185.039 2151.61,182.564 2168.7,181.721 2185.79,186.371 2202.88,193.186 2219.97,201.172 2237.06,208.903 2254.15,215.573 2271.24,217.698 2288.33,215.762 2305.42,207.083 2322.51,195.604 2339.6,188.035 2356.69,183.433 2373.78,181.451 2390.87,182.349 2407.96,184.744 2425.05,187.355 2442.14,188.489 2459.23,188.876 2476.32,188.19 2493.42,188.365 2510.51,188.618 2527.6,188.678 2544.69,186.919 2561.78,184.465 2578.87,183.642 2595.96,188.32 2613.05,195.165 2630.14,203.187 2647.23,210.959 2664.32,217.675 2681.41,219.853 2698.5,217.95 2715.59,209.322 2732.68,197.827 2749.77,190.219 2766.86,185.571 2783.95,183.554 2801.04,184.406 2818.13,186.764 2835.22,189.338 2852.31,190.423 2869.4,190.791 2886.49,190.091 2903.58,190.248 2920.67,190.488 2937.76,190.553 2954.85,188.796 2971.94,186.349 2989.03,185.534 3006.12,190.224 3023.22,197.086 3040.31,205.128 3057.4,212.929 3074.49,219.675 3091.58,221.872 3108.67,219.994 3125.76,211.368 3142.85,199.876 3159.94,192.24 3177.03,187.556 3194.12,185.493 3211.21,186.305 3228.3,188.609 3245.39,191.137 3262.48,192.192 3279.57,192.52 3296.66,191.788 3313.75,191.938 3330.84,192.182 3347.93,192.245 3365.02,190.491 3382.11,188.052 3399.2,187.244 3416.29,191.947 3433.38,198.824 3450.47,206.883 3467.56,214.698 3484.65,221.47 3501.74,223.704 3518.83,221.87 3535.92,213.283 3553.02,201.787 3570.11,194.126 3587.2,189.408 3604.29,187.297 3621.38,188.057 3638.47,190.314 3655.56,192.808 3672.65,193.834 3689.74,194.13 3706.83,193.383 3723.92,193.528 3741.01,193.766 3758.1,193.83 3775.19,192.079 3792.28,189.639 3809.37,188.831 3826.46,193.537 3843.55,200.416 3860.64,208.492 3877.73,216.326 3894.82,223.118 3911.91,225.371 3929,223.559 3946.09,214.975 3963.18,203.463 3980.27,195.779 3997.36,191.018 4014.45,188.866 4031.54,189.591 4048.63,191.817 4065.72,194.263 4082.82,195.263 4099.91,195.55 4117,194.777 4134.09,194.898 4151.18,195.123 4168.27,195.185 4185.36,193.433 4202.45,190.994 4219.54,190.186 4236.63,194.897 4253.72,201.783 4270.81,209.865 4287.9,217.711 4304.99,224.513 4322.08,226.784 4339.17,224.992 4356.26,216.408 4373.35,204.899 4390.44,197.197 4407.53,192.415 4424.62,190.229 4441.71,190.915 4458.8,193.11 4475.89,195.522 4492.98,196.472 4510.07,196.722 4527.16,195.947 4544.25,196.071 4561.34,196.295 4578.43,196.358 4595.52,194.614 4612.62,192.177 4629.71,191.373 "/>
<path clip-path="url(#clip162)" d="M528.028 186.112 L545.118 196.499 L562.208 211.696 L579.299 232.858 L596.389 253.781 L613.479 274.325 L630.57 283.041 L647.66 282.773 L664.75 264.605 L681.841 237.493 L698.931 221.263 L716.021 210.784 L733.112 206.63 L750.202 209.401 L767.292 214.975 L784.383 223.821 L801.473 228.635 L818.563 231.754 L835.654 232.518 L852.744 233.26 L869.834 236.585 L886.925 239.04 L904.015 230.948 L921.105 225.209 L938.195 225.841 L955.286 235.761 L972.376 250.112 L989.466 267.233 L1006.56 287.265 L1023.65 307.468 L1040.74 315.017 L1057.83 317.556 L1074.92 295.568 L1092.01 266.127 L1109.1 248.42 L1126.19 234.907 L1143.28 229.926 L1160.37 230.23 L1177.46 234.993 L1194.55 240.147 L1211.64 244.399 L1228.73 246.71 L1245.82 247.872 L1262.91 248.428 L1280 250.49 L1297.09 250.479 L1314.18 241.727 L1331.27 237.204 L1348.36 236.159 L1365.45 246.715 L1382.54 260.603 L1399.63 278.43 L1416.72 298.987 L1433.81 316.476 L1450.91 325.162 L1468 327.806 L1485.09 307.82 L1502.18 277.176 L1519.27 257.108 L1536.36 244.827 L1553.45 238.53 L1570.54 237.946 L1587.63 241.763 L1604.72 246.752 L1621.81 250.088 L1638.9 251.375 L1655.99 252.924 L1673.08 251.829 L1690.17 254.3 L1707.26 254.632 L1724.35 247.035 L1741.44 243.156 L1758.53 243.205 L1775.62 253.013 L1792.71 266.262 L1809.8 283.022 L1826.89 303.532 L1843.98 322.48 L1861.07 330.69 L1878.16 329.798 L1895.25 310.238 L1912.34 282.035 L1929.43 261.64 L1946.52 249.51 L1963.61 243.785 L1980.71 242.058 L1997.8 245.195 L2014.89 250.308 L2031.98 252.805 L2049.07 254.527 L2066.16 255.213 L2083.25 255.1 L2100.34 257.824 L2117.43 257.714 L2134.52 251.696 L2151.61 248.482 L2168.7 247.327 L2185.79 258.326 L2202.88 270.28 L2219.97 287.566 L2237.06 306.983 L2254.15 325.244 L2271.24 334.289 L2288.33 332.548 L2305.42 313.203 L2322.51 285.092 L2339.6 265.799 L2356.69 254.261 L2373.78 247.525 L2390.87 246.834 L2407.96 249.509 L2425.05 254.07 L2442.14 255.858 L2459.23 259.519 L2476.32 258.298 L2493.42 259.574 L2510.51 260.753 L2527.6 261.4 L2544.69 255.902 L2561.78 251.555 L2578.87 250.96 L2595.96 262.701 L2613.05 274.435 L2630.14 289.804 L2647.23 311.264 L2664.32 328.452 L2681.41 336.831 L2698.5 335.247 L2715.59 316.833 L2732.68 288.059 L2749.77 269.817 L2766.86 258.358 L2783.95 251.732 L2801.04 252.389 L2818.13 253.704 L2835.22 258.539 L2852.31 260.085 L2869.4 262.559 L2886.49 263.352 L2903.58 263.354 L2920.67 263.853 L2937.76 265.186 L2954.85 259.262 L2971.94 256.954 L2989.03 255.149 L3006.12 264.766 L3023.22 279.75 L3040.31 294.154 L3057.4 313.377 L3074.49 331.805 L3091.58 339.403 L3108.67 338.45 L3125.76 319.504 L3142.85 292.18 L3159.94 273.44 L3177.03 261.841 L3194.12 254.523 L3211.21 254.397 L3228.3 257.463 L3245.39 262.463 L3262.48 262.917 L3279.57 264.821 L3296.66 265.525 L3313.75 264.731 L3330.84 265.546 L3347.93 266.885 L3365.02 263.698 L3382.11 260.308 L3399.2 259.53 L3416.29 269.122 L3433.38 283.606 L3450.47 300.774 L3467.56 316.046 L3484.65 333.713 L3501.74 343.1 L3518.83 340.819 L3535.92 323.334 L3553.02 294.232 L3570.11 275.279 L3587.2 266.184 L3604.29 257.78 L3621.38 258.176 L3638.47 259.892 L3655.56 265.019 L3672.65 264.905 L3689.74 267.004 L3706.83 267.48 L3723.92 268.384 L3741.01 268.157 L3758.1 269.326 L3775.19 264.667 L3792.28 264.44 L3809.37 262.109 L3826.46 272.421 L3843.55 286.605 L3860.64 305.235 L3877.73 318.62 L3894.82 334.373 L3911.91 345.17 L3929 343.597 L3946.09 325.53 L3963.18 297.09 L3980.27 278.978 L3997.36 268.028 L4014.45 261.71 L4031.54 260.198 L4048.63 263.803 L4065.72 267.916 L4082.82 268.133 L4099.91 269.138 L4117 269.573 L4134.09 270.041 L4151.18 271.861 L4168.27 272.423 L4185.36 269.608 L4202.45 266.397 L4219.54 264.767 L4236.63 276.136 L4253.72 289.985 L4270.81 307.423 L4287.9 324.171 L4304.99 337.38 L4322.08 346.193 L4339.17 345.837 L4356.26 327.511 L4373.35 299.036 L4390.44 282.053 L4407.53 271.497 L4424.62 264.139 L4441.71 263.155 L4458.8 266.367 L4475.89 270.433 L4492.98 269.966 L4510.07 270.848 L4527.16 271.631 L4544.25 272.883 L4561.34 274.712 L4578.43 276.854 L4595.52 274.499 L4612.62 267.942 L4629.71 268.016 L4629.71 135.159 L4612.62 138.309 L4595.52 146.217 L4578.43 151.005 L4561.34 154.081 L4544.25 156.039 L4527.16 157.74 L4510.07 160.208 L4492.98 161.171 L4475.89 158.408 L4458.8 150.919 L4441.71 144.541 L4424.62 141.482 L4407.53 143.545 L4390.44 149.746 L4373.35 162.895 L4356.26 183.603 L4339.17 199.111 L4322.08 203.441 L4304.99 200.156 L4287.9 186.84 L4270.81 170.835 L4253.72 154.754 L4236.63 140.698 L4219.54 132.924 L4202.45 135.993 L4185.36 143.873 L4168.27 148.117 L4151.18 150.682 L4134.09 153.247 L4117 154.713 L4099.91 157.332 L4082.82 157.925 L4065.72 155.62 L4048.63 148.898 L4031.54 141.839 L4014.45 138.348 L3997.36 140.599 L3980.27 147.174 L3963.18 159.518 L3946.09 180.199 L3929 196.088 L3911.91 200.416 L3894.82 196.91 L3877.73 184.578 L3860.64 168.12 L3843.55 151.527 L3826.46 137.732 L3809.37 129.668 L3792.28 133.864 L3775.19 139.685 L3758.1 144.292 L3741.01 147.393 L3723.92 150.164 L3706.83 151.299 L3689.74 154.209 L3672.65 154.405 L3655.56 151.587 L3638.47 145.717 L3621.38 138.848 L3604.29 134.796 L3587.2 136.621 L3570.11 143.076 L3553.02 155.943 L3535.92 176.133 L3518.83 191.873 L3501.74 195.132 L3484.65 191.802 L3467.56 180.267 L3450.47 165.445 L3433.38 148.958 L3416.29 135.211 L3399.2 127.195 L3382.11 130.753 L3365.02 135.469 L3347.93 139.791 L3330.84 144.136 L3313.75 145.798 L3296.66 147.339 L3279.57 150.441 L3262.48 150.895 L3245.39 148.547 L3228.3 142.482 L3211.21 134.709 L3194.12 130.414 L3177.03 132.301 L3159.94 138.344 L3142.85 151.547 L3125.76 171.517 L3108.67 186.76 L3091.58 190.266 L3074.49 187.561 L3057.4 175.696 L3040.31 161.269 L3023.22 144.631 L3006.12 131.388 L2989.03 122.91 L2971.94 125.609 L2954.85 130.617 L2937.76 136.754 L2920.67 139.369 L2903.58 140.062 L2886.49 141.868 L2869.4 145.761 L2852.31 146.138 L2835.22 144.209 L2818.13 137.696 L2801.04 131.266 L2783.95 126.808 L2766.86 127.766 L2749.77 133.959 L2732.68 146.355 L2715.59 166.49 L2698.5 181.428 L2681.41 185.782 L2664.32 182.849 L2647.23 170.618 L2630.14 156.026 L2613.05 140.694 L2595.96 126.892 L2578.87 118.732 L2561.78 120.275 L2544.69 126.606 L2527.6 133.032 L2510.51 133.828 L2493.42 134.933 L2476.32 135.34 L2459.23 139.913 L2442.14 141.161 L2425.05 140.011 L2407.96 133.849 L2390.87 127.287 L2373.78 122.566 L2356.69 123.852 L2339.6 128.982 L2322.51 141.672 L2305.42 160.985 L2288.33 176.553 L2271.24 181.23 L2254.15 177.175 L2237.06 165.757 L2219.97 151.245 L2202.88 136.096 L2185.79 123.014 L2168.7 114.892 L2151.61 116.291 L2134.52 122.529 L2117.43 129.093 L2100.34 129.772 L2083.25 129.204 L2066.16 130.866 L2049.07 135.116 L2031.98 137.166 L2014.89 134.722 L1997.8 130.196 L1980.71 123.278 L1963.61 118.379 L1946.52 120.389 L1929.43 125.631 L1912.34 137.572 L1895.25 156.338 L1878.16 172.507 L1861.07 177.612 L1843.98 173.721 L1826.89 161.092 L1809.8 147.312 L1792.71 132.653 L1775.62 119.79 L1758.53 111.864 L1741.44 114.269 L1724.35 119.643 L1707.26 125.734 L1690.17 126.764 L1673.08 126.199 L1655.99 128.301 L1638.9 131.8 L1621.81 134.721 L1604.72 132.708 L1587.63 127.331 L1570.54 121.938 L1553.45 117.283 L1536.36 118.926 L1519.27 124.73 L1502.18 136.681 L1485.09 156.607 L1468 172.079 L1450.91 176.958 L1433.81 173.687 L1416.72 162.566 L1399.63 148.273 L1382.54 133.974 L1365.45 121.287 L1348.36 113.682 L1331.27 116.213 L1314.18 121.596 L1297.09 127.102 L1280 128.908 L1262.91 129.396 L1245.82 132.159 L1228.73 136.323 L1211.64 138.081 L1194.55 136.24 L1177.46 131.183 L1160.37 126.224 L1143.28 122.59 L1126.19 124.615 L1109.1 131.771 L1092.01 144.118 L1074.92 164.678 L1057.83 180.654 L1040.74 185.246 L1023.65 183.287 L1006.56 172.79 L989.466 158.939 L972.376 144.052 L955.286 131.939 L938.195 124.558 L921.105 128.758 L904.015 135.701 L886.925 141.554 L869.834 143.649 L852.744 146.613 L835.654 147.564 L818.563 152.087 L801.473 153.235 L784.383 152.707 L767.292 148.693 L750.202 145.298 L733.112 144.56 L716.021 149.962 L698.931 159.029 L681.841 173.378 L664.75 195.304 L647.66 212.85 L630.57 219.55 L613.479 219.696 L596.389 211.857 L579.299 201.22 L562.208 188.973 L545.118 178.005 L528.028 172.34  Z" fill="#414141" fill-rule="evenodd" fill-opacity="0.5"/>
<polyline clip-path="url(#clip162)" style="stroke:#414141; stroke-linecap:round; stroke-linejoin:round; stroke-width:0; stroke-opacity:1; fill:none" points="528.028,180.994 545.118,185.194 562.208,191.498 579.299,198.948 596.389,206.129 613.479,212.234 630.57,213.849 647.66,211.52 664.75,202.705 681.841,191.308 698.931,183.826 716.021,179.241 733.112,177.263 750.202,178.187 767.292,180.632 784.383,183.359 801.473,184.6 818.563,185.042 835.654,184.339 852.744,184.313 869.834,184.29 886.925,184.054 904.015,182.005 921.105,179.29 938.195,178.222 955.286,182.638 972.376,189.22 989.466,196.967 1006.56,204.447 1023.65,210.858 1040.74,212.733 1057.83,210.619 1074.92,201.927 1092.01,190.514 1109.1,183.053 1126.19,178.582 1143.28,176.74 1160.37,177.767 1177.46,180.276 1194.55,182.979 1211.64,184.189 1228.73,184.635 1245.82,183.947 1262.91,184.041 1280,184.175 1297.09,184.105 1314.18,182.214 1331.27,179.635 1348.36,178.693 1365.45,183.233 1382.54,189.935 1399.63,197.802 1416.72,205.405 1433.81,211.937 1450.91,213.938 1468,211.887 1485.09,203.164 1502.18,191.68 1519.27,184.152 1536.36,179.62 1553.45,177.737 1570.54,178.722 1587.63,181.192 1604.72,183.868 1621.81,185.054 1638.9,185.471 1655.99,184.793 1673.08,184.948 1690.17,185.151 1707.26,185.156 1724.35,183.333 1741.44,180.82 1758.53,179.939 1775.62,184.546 1792.71,191.316 1809.8,199.25 1826.89,206.928 1843.98,213.544 1861.07,215.626 1878.16,213.637 1895.25,204.964 1912.34,193.481 1929.43,185.933 1946.52,181.356 1963.61,179.423 1980.71,180.367 1997.8,182.802 2014.89,185.457 2031.98,186.619 2049.07,187.025 2066.16,186.356 2083.25,186.537 2100.34,186.778 2117.43,186.824 2134.52,185.039 2151.61,182.564 2168.7,181.721 2185.79,186.371 2202.88,193.186 2219.97,201.172 2237.06,208.903 2254.15,215.573 2271.24,217.698 2288.33,215.762 2305.42,207.083 2322.51,195.604 2339.6,188.035 2356.69,183.433 2373.78,181.451 2390.87,182.349 2407.96,184.744 2425.05,187.355 2442.14,188.489 2459.23,188.876 2476.32,188.19 2493.42,188.365 2510.51,188.618 2527.6,188.678 2544.69,186.919 2561.78,184.465 2578.87,183.642 2595.96,188.32 2613.05,195.165 2630.14,203.187 2647.23,210.959 2664.32,217.675 2681.41,219.853 2698.5,217.95 2715.59,209.322 2732.68,197.827 2749.77,190.219 2766.86,185.571 2783.95,183.554 2801.04,184.406 2818.13,186.764 2835.22,189.338 2852.31,190.423 2869.4,190.791 2886.49,190.091 2903.58,190.248 2920.67,190.488 2937.76,190.553 2954.85,188.796 2971.94,186.349 2989.03,185.534 3006.12,190.224 3023.22,197.086 3040.31,205.128 3057.4,212.929 3074.49,219.675 3091.58,221.872 3108.67,219.994 3125.76,211.368 3142.85,199.876 3159.94,192.24 3177.03,187.556 3194.12,185.493 3211.21,186.305 3228.3,188.609 3245.39,191.137 3262.48,192.192 3279.57,192.52 3296.66,191.788 3313.75,191.938 3330.84,192.182 3347.93,192.245 3365.02,190.491 3382.11,188.052 3399.2,187.244 3416.29,191.947 3433.38,198.824 3450.47,206.883 3467.56,214.698 3484.65,221.47 3501.74,223.704 3518.83,221.87 3535.92,213.283 3553.02,201.787 3570.11,194.126 3587.2,189.408 3604.29,187.297 3621.38,188.057 3638.47,190.314 3655.56,192.808 3672.65,193.834 3689.74,194.13 3706.83,193.383 3723.92,193.528 3741.01,193.766 3758.1,193.83 3775.19,192.079 3792.28,189.639 3809.37,188.831 3826.46,193.537 3843.55,200.416 3860.64,208.492 3877.73,216.326 3894.82,223.118 3911.91,225.371 3929,223.559 3946.09,214.975 3963.18,203.463 3980.27,195.779 3997.36,191.018 4014.45,188.866 4031.54,189.591 4048.63,191.817 4065.72,194.263 4082.82,195.263 4099.91,195.55 4117,194.777 4134.09,194.898 4151.18,195.123 4168.27,195.185 4185.36,193.433 4202.45,190.994 4219.54,190.186 4236.63,194.897 4253.72,201.783 4270.81,209.865 4287.9,217.711 4304.99,224.513 4322.08,226.784 4339.17,224.992 4356.26,216.408 4373.35,204.899 4390.44,197.197 4407.53,192.415 4424.62,190.229 4441.71,190.915 4458.8,193.11 4475.89,195.522 4492.98,196.472 4510.07,196.722 4527.16,195.947 4544.25,196.071 4561.34,196.295 4578.43,196.358 4595.52,194.614 4612.62,192.177 4629.71,191.373 "/>
<path clip-path="url(#clip160)" d="M3853.78 853.161 L4607.83 853.161 L4607.83 334.761 L3853.78 334.761  Z" fill="#ffffff" fill-rule="evenodd" fill-opacity="1"/>
<polyline clip-path="url(#clip160)" style="stroke:#000000; stroke-linecap:round; stroke-linejoin:round; stroke-width:4; stroke-opacity:1; fill:none" points="3853.78,853.161 4607.83,853.161 4607.83,334.761 3853.78,334.761 3853.78,853.161 "/>
<polyline clip-path="url(#clip160)" style="stroke:#aeaeae; stroke-linecap:round; stroke-linejoin:round; stroke-width:2; stroke-opacity:1; fill:none" points="3902.09,464.361 4191.94,464.361 "/>
<path clip-path="url(#clip160)" d="M4241.93 497.723 L4261.03 497.723 L4261.03 431.809 L4240.25 435.976 L4240.25 425.328 L4260.91 421.161 L4272.6 421.161 L4272.6 497.723 L4291.7 497.723 L4291.7 507.561 L4241.93 507.561 L4241.93 497.723 Z" fill="#000000" fill-rule="nonzero" fill-opacity="1" /><path clip-path="url(#clip160)" d="M4340.31 428.858 Q4331.28 428.858 4326.71 437.77 Q4322.2 446.624 4322.2 464.448 Q4322.2 482.214 4326.71 491.126 Q4331.28 499.98 4340.31 499.98 Q4349.4 499.98 4353.91 491.126 Q4358.48 482.214 4358.48 464.448 Q4358.48 446.624 4353.91 437.77 Q4349.4 428.858 4340.31 428.858 M4340.31 419.599 Q4354.83 419.599 4362.47 431.115 Q4370.17 442.573 4370.17 464.448 Q4370.17 486.265 4362.47 497.781 Q4354.83 509.239 4340.31 509.239 Q4325.78 509.239 4318.09 497.781 Q4310.45 486.265 4310.45 464.448 Q4310.45 442.573 4318.09 431.115 Q4325.78 419.599 4340.31 419.599 Z" fill="#000000" fill-rule="nonzero" fill-opacity="1" /><path clip-path="url(#clip160)" d="M4415.71 428.858 Q4406.69 428.858 4402.11 437.77 Q4397.6 446.624 4397.6 464.448 Q4397.6 482.214 4402.11 491.126 Q4406.69 499.98 4415.71 499.98 Q4424.8 499.98 4429.31 491.126 Q4433.89 482.214 4433.89 464.448 Q4433.89 446.624 4429.31 437.77 Q4424.8 428.858 4415.71 428.858 M4415.71 419.599 Q4430.24 419.599 4437.88 431.115 Q4445.58 442.573 4445.58 464.448 Q4445.58 486.265 4437.88 497.781 Q4430.24 509.239 4415.71 509.239 Q4401.19 509.239 4393.49 497.781 Q4385.85 486.265 4385.85 464.448 Q4385.85 442.573 4393.49 431.115 Q4401.19 419.599 4415.71 419.599 Z" fill="#000000" fill-rule="nonzero" fill-opacity="1" /><path clip-path="url(#clip160)" d="M4539.61 469.541 Q4534.58 469.541 4531.69 473.823 Q4528.85 478.105 4528.85 485.744 Q4528.85 493.267 4531.69 497.608 Q4534.58 501.89 4539.61 501.89 Q4544.53 501.89 4547.37 497.608 Q4550.26 493.267 4550.26 485.744 Q4550.26 478.163 4547.37 473.881 Q4544.53 469.541 4539.61 469.541 M4539.61 462.191 Q4548.76 462.191 4554.14 468.557 Q4559.52 474.923 4559.52 485.744 Q4559.52 496.566 4554.08 502.932 Q4548.7 509.239 4539.61 509.239 Q4530.35 509.239 4524.97 502.932 Q4519.59 496.566 4519.59 485.744 Q4519.59 474.865 4524.97 468.557 Q4530.41 462.191 4539.61 462.191 M4479.89 426.948 Q4474.92 426.948 4472.02 431.289 Q4469.19 435.571 4469.19 443.094 Q4469.19 450.733 4472.02 455.015 Q4474.86 459.298 4479.89 459.298 Q4484.93 459.298 4487.76 455.015 Q4490.66 450.733 4490.66 443.094 Q4490.66 435.629 4487.76 431.289 Q4484.87 426.948 4479.89 426.948 M4532.15 419.599 L4541.41 419.599 L4487.36 509.239 L4478.1 509.239 L4532.15 419.599 M4479.89 419.599 Q4489.04 419.599 4494.48 425.964 Q4499.92 432.272 4499.92 443.094 Q4499.92 454.031 4494.48 460.339 Q4489.09 466.647 4479.89 466.647 Q4470.69 466.647 4465.31 460.339 Q4459.98 453.974 4459.98 443.094 Q4459.98 432.33 4465.37 425.964 Q4470.75 419.599 4479.89 419.599 Z" fill="#000000" fill-rule="nonzero" fill-opacity="1" /><polyline clip-path="url(#clip160)" style="stroke:#757575; stroke-linecap:round; stroke-linejoin:round; stroke-width:2; stroke-opacity:1; fill:none" points="3902.09,593.961 4191.94,593.961 "/>
<path clip-path="url(#clip160)" d="M4245.81 635.367 L4245.81 624.719 Q4250.21 626.803 4254.72 627.902 Q4259.23 629.002 4263.57 629.002 Q4275.15 629.002 4281.22 621.247 Q4287.36 613.435 4288.23 597.578 Q4284.87 602.555 4279.72 605.217 Q4274.57 607.879 4268.32 607.879 Q4255.36 607.879 4247.78 600.067 Q4240.25 592.196 4240.25 578.597 Q4240.25 565.287 4248.12 557.243 Q4255.99 549.199 4269.07 549.199 Q4284.06 549.199 4291.93 560.715 Q4299.86 572.173 4299.86 594.048 Q4299.86 614.476 4290.14 626.687 Q4280.47 638.839 4264.09 638.839 Q4259.7 638.839 4255.18 637.971 Q4250.67 637.103 4245.81 635.367 M4269.07 598.736 Q4276.94 598.736 4281.51 593.354 Q4286.14 587.972 4286.14 578.597 Q4286.14 569.28 4281.51 563.898 Q4276.94 558.458 4269.07 558.458 Q4261.2 558.458 4256.57 563.898 Q4252 569.28 4252 578.597 Q4252 587.972 4256.57 593.354 Q4261.2 598.736 4269.07 598.736 Z" fill="#000000" fill-rule="nonzero" fill-opacity="1" /><path clip-path="url(#clip160)" d="M4345.87 558.458 Q4336.84 558.458 4332.27 567.37 Q4327.75 576.224 4327.75 594.048 Q4327.75 611.814 4332.27 620.726 Q4336.84 629.58 4345.87 629.58 Q4354.95 629.58 4359.46 620.726 Q4364.04 611.814 4364.04 594.048 Q4364.04 576.224 4359.46 567.37 Q4354.95 558.458 4345.87 558.458 M4345.87 549.199 Q4360.39 549.199 4368.03 560.715 Q4375.73 572.173 4375.73 594.048 Q4375.73 615.865 4368.03 627.381 Q4360.39 638.839 4345.87 638.839 Q4331.34 638.839 4323.64 627.381 Q4316 615.865 4316 594.048 Q4316 572.173 4323.64 560.715 Q4331.34 549.199 4345.87 549.199 Z" fill="#000000" fill-rule="nonzero" fill-opacity="1" /><path clip-path="url(#clip160)" d="M4469.76 599.141 Q4464.73 599.141 4461.84 603.423 Q4459 607.705 4459 615.344 Q4459 622.867 4461.84 627.208 Q4464.73 631.49 4469.76 631.49 Q4474.68 631.49 4477.52 627.208 Q4480.41 622.867 4480.41 615.344 Q4480.41 607.763 4477.52 603.481 Q4474.68 599.141 4469.76 599.141 M4469.76 591.791 Q4478.91 591.791 4484.29 598.157 Q4489.67 604.523 4489.67 615.344 Q4489.67 626.166 4484.23 632.532 Q4478.85 638.839 4469.76 638.839 Q4460.51 638.839 4455.12 632.532 Q4449.74 626.166 4449.74 615.344 Q4449.74 604.465 4455.12 598.157 Q4460.56 591.791 4469.76 591.791 M4410.04 556.548 Q4405.07 556.548 4402.17 560.889 Q4399.34 565.171 4399.34 572.694 Q4399.34 580.333 4402.17 584.615 Q4405.01 588.898 4410.04 588.898 Q4415.08 588.898 4417.91 584.615 Q4420.81 580.333 4420.81 572.694 Q4420.81 565.229 4417.91 560.889 Q4415.02 556.548 4410.04 556.548 M4462.3 549.199 L4471.56 549.199 L4417.51 638.839 L4408.25 638.839 L4462.3 549.199 M4410.04 549.199 Q4419.19 549.199 4424.63 555.564 Q4430.07 561.872 4430.07 572.694 Q4430.07 583.631 4424.63 589.939 Q4419.24 596.247 4410.04 596.247 Q4400.84 596.247 4395.46 589.939 Q4390.14 583.574 4390.14 572.694 Q4390.14 561.93 4395.52 555.564 Q4400.9 549.199 4410.04 549.199 Z" fill="#000000" fill-rule="nonzero" fill-opacity="1" /><polyline clip-path="url(#clip160)" style="stroke:#414141; stroke-linecap:round; stroke-linejoin:round; stroke-width:2; stroke-opacity:1; fill:none" points="3902.09,723.561 4191.94,723.561 "/>
<path clip-path="url(#clip160)" d="M4269.88 725.731 Q4261.55 725.731 4256.75 730.187 Q4252 734.643 4252 742.456 Q4252 750.268 4256.75 754.724 Q4261.55 759.18 4269.88 759.18 Q4278.21 759.18 4283.02 754.724 Q4287.82 750.21 4287.82 742.456 Q4287.82 734.643 4283.02 730.187 Q4278.27 725.731 4269.88 725.731 M4258.19 720.755 Q4250.67 718.903 4246.44 713.752 Q4242.28 708.602 4242.28 701.194 Q4242.28 690.836 4249.63 684.817 Q4257.03 678.799 4269.88 678.799 Q4282.79 678.799 4290.14 684.817 Q4297.49 690.836 4297.49 701.194 Q4297.49 708.602 4293.26 713.752 Q4289.09 718.903 4281.63 720.755 Q4290.08 722.722 4294.77 728.451 Q4299.51 734.18 4299.51 742.456 Q4299.51 755.014 4291.81 761.727 Q4284.18 768.439 4269.88 768.439 Q4255.59 768.439 4247.89 761.727 Q4240.25 755.014 4240.25 742.456 Q4240.25 734.18 4245 728.451 Q4249.74 722.722 4258.19 720.755 M4253.91 702.294 Q4253.91 709.007 4258.08 712.768 Q4262.3 716.53 4269.88 716.53 Q4277.4 716.53 4281.63 712.768 Q4285.91 709.007 4285.91 702.294 Q4285.91 695.581 4281.63 691.82 Q4277.4 688.058 4269.88 688.058 Q4262.3 688.058 4258.08 691.82 Q4253.91 695.581 4253.91 702.294 Z" fill="#000000" fill-rule="nonzero" fill-opacity="1" /><path clip-path="url(#clip160)" d="M4345.29 688.058 Q4336.26 688.058 4331.69 696.97 Q4327.17 705.824 4327.17 723.648 Q4327.17 741.414 4331.69 750.326 Q4336.26 759.18 4345.29 759.18 Q4354.37 759.18 4358.89 750.326 Q4363.46 741.414 4363.46 723.648 Q4363.46 705.824 4358.89 696.97 Q4354.37 688.058 4345.29 688.058 M4345.29 678.799 Q4359.81 678.799 4367.45 690.315 Q4375.15 701.773 4375.15 723.648 Q4375.15 745.465 4367.45 756.981 Q4359.81 768.439 4345.29 768.439 Q4330.76 768.439 4323.06 756.981 Q4315.43 745.465 4315.43 723.648 Q4315.43 701.773 4323.06 690.315 Q4330.76 678.799 4345.29 678.799 Z" fill="#000000" fill-rule="nonzero" fill-opacity="1" /><path clip-path="url(#clip160)" d="M4469.19 728.741 Q4464.15 728.741 4461.26 733.023 Q4458.42 737.305 4458.42 744.944 Q4458.42 752.467 4461.26 756.808 Q4464.15 761.09 4469.19 761.09 Q4474.11 761.09 4476.94 756.808 Q4479.83 752.467 4479.83 744.944 Q4479.83 737.363 4476.94 733.081 Q4474.11 728.741 4469.19 728.741 M4469.19 721.391 Q4478.33 721.391 4483.71 727.757 Q4489.09 734.123 4489.09 744.944 Q4489.09 755.766 4483.65 762.132 Q4478.27 768.439 4469.19 768.439 Q4459.93 768.439 4454.55 762.132 Q4449.16 755.766 4449.16 744.944 Q4449.16 734.065 4454.55 727.757 Q4459.98 721.391 4469.19 721.391 M4409.46 686.148 Q4404.49 686.148 4401.59 690.489 Q4398.76 694.771 4398.76 702.294 Q4398.76 709.933 4401.59 714.215 Q4404.43 718.498 4409.46 718.498 Q4414.5 718.498 4417.33 714.215 Q4420.23 709.933 4420.23 702.294 Q4420.23 694.829 4417.33 690.489 Q4414.44 686.148 4409.46 686.148 M4461.72 678.799 L4470.98 678.799 L4416.93 768.439 L4407.67 768.439 L4461.72 678.799 M4409.46 678.799 Q4418.61 678.799 4424.05 685.164 Q4429.49 691.472 4429.49 702.294 Q4429.49 713.231 4424.05 719.539 Q4418.67 725.847 4409.46 725.847 Q4400.26 725.847 4394.88 719.539 Q4389.56 713.174 4389.56 702.294 Q4389.56 691.53 4394.94 685.164 Q4400.32 678.799 4409.46 678.799 Z" fill="#000000" fill-rule="nonzero" fill-opacity="1" /></svg>
