<?xml version="1.0" encoding="utf-8"?>
<svg xmlns="http://www.w3.org/2000/svg" xmlns:xlink="http://www.w3.org/1999/xlink" width="1200" height="300" viewBox="0 0 4800 1200">
<defs>
  <clipPath id="clip280">
    <rect x="0" y="0" width="4800" height="1200"/>
  </clipPath>
</defs>
<path clip-path="url(#clip280)" d="M0 1200 L4800 1200 L4800 0 L0 0  Z" fill="#ffffff" fill-rule="evenodd" fill-opacity="1"/>
<defs>
  <clipPath id="clip281">
    <rect x="960" y="0" width="3361" height="1200"/>
  </clipPath>
</defs>
<path clip-path="url(#clip280)" d="M660.509 849.455 L4752.76 849.455 L4752.76 47.2441 L660.509 47.2441  Z" fill="#ffffff" fill-rule="evenodd" fill-opacity="1"/>
<defs>
  <clipPath id="clip282">
    <rect x="660" y="47" width="4093" height="803"/>
  </clipPath>
</defs>
<polyline clip-path="url(#clip282)" style="stroke:#000000; stroke-linecap:round; stroke-linejoin:round; stroke-width:2; stroke-opacity:0.1; fill:none" points="776.327,849.455 776.327,47.2441 "/>
<polyline clip-path="url(#clip282)" style="stroke:#000000; stroke-linecap:round; stroke-linejoin:round; stroke-width:2; stroke-opacity:0.1; fill:none" points="1548.45,849.455 1548.45,47.2441 "/>
<polyline clip-path="url(#clip282)" style="stroke:#000000; stroke-linecap:round; stroke-linejoin:round; stroke-width:2; stroke-opacity:0.1; fill:none" points="2320.57,849.455 2320.57,47.2441 "/>
<polyline clip-path="url(#clip282)" style="stroke:#000000; stroke-linecap:round; stroke-linejoin:round; stroke-width:2; stroke-opacity:0.1; fill:none" points="3092.69,849.455 3092.69,47.2441 "/>
<polyline clip-path="url(#clip282)" style="stroke:#000000; stroke-linecap:round; stroke-linejoin:round; stroke-width:2; stroke-opacity:0.1; fill:none" points="3864.82,849.455 3864.82,47.2441 "/>
<polyline clip-path="url(#clip282)" style="stroke:#000000; stroke-linecap:round; stroke-linejoin:round; stroke-width:2; stroke-opacity:0.1; fill:none" points="4636.94,849.455 4636.94,47.2441 "/>
<polyline clip-path="url(#clip282)" style="stroke:#000000; stroke-linecap:round; stroke-linejoin:round; stroke-width:2; stroke-opacity:0.1; fill:none" points="660.509,827.146 4752.76,827.146 "/>
<polyline clip-path="url(#clip282)" style="stroke:#000000; stroke-linecap:round; stroke-linejoin:round; stroke-width:2; stroke-opacity:0.1; fill:none" points="660.509,653.366 4752.76,653.366 "/>
<polyline clip-path="url(#clip282)" style="stroke:#000000; stroke-linecap:round; stroke-linejoin:round; stroke-width:2; stroke-opacity:0.1; fill:none" points="660.509,479.587 4752.76,479.587 "/>
<polyline clip-path="url(#clip282)" style="stroke:#000000; stroke-linecap:round; stroke-linejoin:round; stroke-width:2; stroke-opacity:0.1; fill:none" points="660.509,305.808 4752.76,305.808 "/>
<polyline clip-path="url(#clip282)" style="stroke:#000000; stroke-linecap:round; stroke-linejoin:round; stroke-width:2; stroke-opacity:0.1; fill:none" points="660.509,132.028 4752.76,132.028 "/>
<polyline clip-path="url(#clip280)" style="stroke:#000000; stroke-linecap:round; stroke-linejoin:round; stroke-width:4; stroke-opacity:1; fill:none" points="660.509,849.455 4752.76,849.455 "/>
<polyline clip-path="url(#clip280)" style="stroke:#000000; stroke-linecap:round; stroke-linejoin:round; stroke-width:4; stroke-opacity:1; fill:none" points="776.327,849.455 776.327,830.558 "/>
<polyline clip-path="url(#clip280)" style="stroke:#000000; stroke-linecap:round; stroke-linejoin:round; stroke-width:4; stroke-opacity:1; fill:none" points="1548.45,849.455 1548.45,830.558 "/>
<polyline clip-path="url(#clip280)" style="stroke:#000000; stroke-linecap:round; stroke-linejoin:round; stroke-width:4; stroke-opacity:1; fill:none" points="2320.57,849.455 2320.57,830.558 "/>
<polyline clip-path="url(#clip280)" style="stroke:#000000; stroke-linecap:round; stroke-linejoin:round; stroke-width:4; stroke-opacity:1; fill:none" points="3092.69,849.455 3092.69,830.558 "/>
<polyline clip-path="url(#clip280)" style="stroke:#000000; stroke-linecap:round; stroke-linejoin:round; stroke-width:4; stroke-opacity:1; fill:none" points="3864.82,849.455 3864.82,830.558 "/>
<polyline clip-path="url(#clip280)" style="stroke:#000000; stroke-linecap:round; stroke-linejoin:round; stroke-width:4; stroke-opacity:1; fill:none" points="4636.94,849.455 4636.94,830.558 "/>
<path clip-path="url(#clip280)" d="M776.327 911.293 Q769.105 911.293 765.448 918.422 Q761.837 925.506 761.837 939.765 Q761.837 953.978 765.448 961.107 Q769.105 968.191 776.327 968.191 Q783.596 968.191 787.207 961.107 Q790.864 953.978 790.864 939.765 Q790.864 925.506 787.207 918.422 Q783.596 911.293 776.327 911.293 M776.327 903.885 Q787.948 903.885 794.059 913.098 Q800.216 922.265 800.216 939.765 Q800.216 957.218 794.059 966.431 Q787.948 975.598 776.327 975.598 Q764.707 975.598 758.55 966.431 Q752.439 957.218 752.439 939.765 Q752.439 922.265 758.55 913.098 Q764.707 903.885 776.327 903.885 Z" fill="#000000" fill-rule="nonzero" fill-opacity="1" /><path clip-path="url(#clip280)" d="M1537.75 966.385 L1570.39 966.385 L1570.39 974.255 L1526.51 974.255 L1526.51 966.385 Q1531.83 960.876 1541 951.617 Q1550.21 942.311 1552.57 939.626 Q1557.06 934.58 1558.82 931.108 Q1560.63 927.589 1560.63 924.209 Q1560.63 918.7 1556.74 915.228 Q1552.89 911.756 1546.69 911.756 Q1542.29 911.756 1537.38 913.284 Q1532.52 914.811 1526.97 917.913 L1526.97 908.469 Q1532.62 906.2 1537.52 905.043 Q1542.43 903.885 1546.5 903.885 Q1557.25 903.885 1563.63 909.256 Q1570.02 914.626 1570.02 923.608 Q1570.02 927.867 1568.4 931.709 Q1566.83 935.506 1562.62 940.691 Q1561.46 942.033 1555.25 948.469 Q1549.05 954.857 1537.75 966.385 Z" fill="#000000" fill-rule="nonzero" fill-opacity="1" /><path clip-path="url(#clip280)" d="M2326.59 913.284 L2302.98 950.181 L2326.59 950.181 L2326.59 913.284 M2324.14 905.135 L2335.9 905.135 L2335.9 950.181 L2345.76 950.181 L2345.76 957.959 L2335.9 957.959 L2335.9 974.255 L2326.59 974.255 L2326.59 957.959 L2295.39 957.959 L2295.39 948.931 L2324.14 905.135 Z" fill="#000000" fill-rule="nonzero" fill-opacity="1" /><path clip-path="url(#clip280)" d="M3093.5 935.969 Q3087.21 935.969 3083.5 940.274 Q3079.85 944.58 3079.85 952.08 Q3079.85 959.533 3083.5 963.885 Q3087.21 968.191 3093.5 968.191 Q3099.8 968.191 3103.46 963.885 Q3107.16 959.533 3107.16 952.08 Q3107.16 944.58 3103.46 940.274 Q3099.8 935.969 3093.5 935.969 M3112.07 906.663 L3112.07 915.182 Q3108.55 913.515 3104.94 912.635 Q3101.37 911.756 3097.86 911.756 Q3088.6 911.756 3083.69 918.006 Q3078.83 924.256 3078.13 936.895 Q3080.86 932.867 3084.99 930.737 Q3089.11 928.561 3094.06 928.561 Q3104.48 928.561 3110.49 934.904 Q3116.56 941.2 3116.56 952.08 Q3116.56 962.728 3110.26 969.163 Q3103.97 975.598 3093.5 975.598 Q3081.51 975.598 3075.17 966.431 Q3068.83 957.218 3068.83 939.765 Q3068.83 923.376 3076.61 913.654 Q3084.38 903.885 3097.49 903.885 Q3101 903.885 3104.57 904.58 Q3108.18 905.274 3112.07 906.663 Z" fill="#000000" fill-rule="nonzero" fill-opacity="1" /><path clip-path="url(#clip280)" d="M3864.82 941.432 Q3858.15 941.432 3854.31 944.996 Q3850.51 948.561 3850.51 954.811 Q3850.51 961.061 3854.31 964.626 Q3858.15 968.191 3864.82 968.191 Q3871.48 968.191 3875.32 964.626 Q3879.17 961.015 3879.17 954.811 Q3879.17 948.561 3875.32 944.996 Q3871.53 941.432 3864.82 941.432 M3855.46 937.45 Q3849.45 935.969 3846.07 931.848 Q3842.73 927.728 3842.73 921.802 Q3842.73 913.515 3848.61 908.7 Q3854.54 903.885 3864.82 903.885 Q3875.14 903.885 3881.02 908.7 Q3886.9 913.515 3886.9 921.802 Q3886.9 927.728 3883.52 931.848 Q3880.19 935.969 3874.21 937.45 Q3880.97 939.024 3884.72 943.607 Q3888.52 948.191 3888.52 954.811 Q3888.52 964.857 3882.36 970.228 Q3876.25 975.598 3864.82 975.598 Q3853.38 975.598 3847.22 970.228 Q3841.11 964.857 3841.11 954.811 Q3841.11 948.191 3844.91 943.607 Q3848.7 939.024 3855.46 937.45 M3852.04 922.682 Q3852.04 928.052 3855.37 931.061 Q3858.75 934.07 3864.82 934.07 Q3870.83 934.07 3874.21 931.061 Q3877.64 928.052 3877.64 922.682 Q3877.64 917.311 3874.21 914.302 Q3870.83 911.293 3864.82 911.293 Q3858.75 911.293 3855.37 914.302 Q3852.04 917.311 3852.04 922.682 Z" fill="#000000" fill-rule="nonzero" fill-opacity="1" /><path clip-path="url(#clip280)" d="M4586.31 966.385 L4601.59 966.385 L4601.59 913.654 L4584.97 916.987 L4584.97 908.469 L4601.5 905.135 L4610.85 905.135 L4610.85 966.385 L4626.13 966.385 L4626.13 974.255 L4586.31 974.255 L4586.31 966.385 Z" fill="#000000" fill-rule="nonzero" fill-opacity="1" /><path clip-path="url(#clip280)" d="M4665.02 911.293 Q4657.79 911.293 4654.14 918.422 Q4650.53 925.506 4650.53 939.765 Q4650.53 953.978 4654.14 961.107 Q4657.79 968.191 4665.02 968.191 Q4672.28 968.191 4675.9 961.107 Q4679.55 953.978 4679.55 939.765 Q4679.55 925.506 4675.9 918.422 Q4672.28 911.293 4665.02 911.293 M4665.02 903.885 Q4676.64 903.885 4682.75 913.098 Q4688.9 922.265 4688.9 939.765 Q4688.9 957.218 4682.75 966.431 Q4676.64 975.598 4665.02 975.598 Q4653.4 975.598 4647.24 966.431 Q4641.13 957.218 4641.13 939.765 Q4641.13 922.265 4647.24 913.098 Q4653.4 903.885 4665.02 903.885 Z" fill="#000000" fill-rule="nonzero" fill-opacity="1" /><path clip-path="url(#clip280)" d="M2423.87 1040.69 L2489.65 1040.69 L2489.65 1049.54 L2462.05 1049.54 L2462.05 1118.45 L2451.48 1118.45 L2451.48 1049.54 L2423.87 1049.54 L2423.87 1040.69 Z" fill="#000000" fill-rule="nonzero" fill-opacity="1" /><path clip-path="url(#clip280)" d="M2496.11 1060.11 L2505.7 1060.11 L2505.7 1118.45 L2496.11 1118.45 L2496.11 1060.11 M2496.11 1037.41 L2505.7 1037.41 L2505.7 1049.54 L2496.11 1049.54 L2496.11 1037.41 Z" fill="#000000" fill-rule="nonzero" fill-opacity="1" /><path clip-path="url(#clip280)" d="M2571.16 1071.31 Q2574.76 1064.85 2579.76 1061.78 Q2584.76 1058.71 2591.53 1058.71 Q2600.64 1058.71 2605.59 1065.11 Q2610.54 1071.47 2610.54 1083.24 L2610.54 1118.45 L2600.9 1118.45 L2600.9 1083.55 Q2600.9 1075.17 2597.94 1071.1 Q2594.97 1067.04 2588.87 1067.04 Q2581.42 1067.04 2577.1 1071.99 Q2572.78 1076.94 2572.78 1085.48 L2572.78 1118.45 L2563.14 1118.45 L2563.14 1083.55 Q2563.14 1075.11 2560.17 1071.1 Q2557.21 1067.04 2551.01 1067.04 Q2543.66 1067.04 2539.34 1072.04 Q2535.02 1076.99 2535.02 1085.48 L2535.02 1118.45 L2525.38 1118.45 L2525.38 1060.11 L2535.02 1060.11 L2535.02 1069.18 Q2538.3 1063.81 2542.88 1061.26 Q2547.47 1058.71 2553.77 1058.71 Q2560.12 1058.71 2564.55 1061.94 Q2569.03 1065.17 2571.16 1071.31 Z" fill="#000000" fill-rule="nonzero" fill-opacity="1" /><path clip-path="url(#clip280)" d="M2679.55 1086.89 L2679.55 1091.57 L2635.49 1091.57 Q2636.11 1101.47 2641.42 1106.68 Q2646.79 1111.83 2656.32 1111.83 Q2661.84 1111.83 2667 1110.48 Q2672.21 1109.12 2677.31 1106.42 L2677.31 1115.48 Q2672.15 1117.67 2666.74 1118.81 Q2661.32 1119.96 2655.75 1119.96 Q2641.79 1119.96 2633.61 1111.83 Q2625.49 1103.71 2625.49 1089.85 Q2625.49 1075.53 2633.2 1067.15 Q2640.96 1058.71 2654.08 1058.71 Q2665.85 1058.71 2672.67 1066.31 Q2679.55 1073.86 2679.55 1086.89 M2669.97 1084.07 Q2669.86 1076.21 2665.54 1071.52 Q2661.27 1066.83 2654.18 1066.83 Q2646.16 1066.83 2641.32 1071.36 Q2636.53 1075.9 2635.8 1084.12 L2669.97 1084.07 Z" fill="#000000" fill-rule="nonzero" fill-opacity="1" /><path clip-path="url(#clip280)" d="M2752.21 1037.51 Q2745.23 1049.49 2741.84 1061.21 Q2738.46 1072.93 2738.46 1084.96 Q2738.46 1096.99 2741.84 1108.81 Q2745.28 1120.58 2752.21 1132.51 L2743.87 1132.51 Q2736.06 1120.27 2732.15 1108.45 Q2728.3 1096.62 2728.3 1084.96 Q2728.3 1073.34 2732.15 1061.57 Q2736.01 1049.8 2743.87 1037.51 L2752.21 1037.51 Z" fill="#000000" fill-rule="nonzero" fill-opacity="1" /><path clip-path="url(#clip280)" d="M2809.18 1068.97 L2809.18 1037.41 L2818.77 1037.41 L2818.77 1118.45 L2809.18 1118.45 L2809.18 1109.7 Q2806.16 1114.91 2801.53 1117.46 Q2796.94 1119.96 2790.49 1119.96 Q2779.91 1119.96 2773.25 1111.52 Q2766.63 1103.08 2766.63 1089.33 Q2766.63 1075.58 2773.25 1067.15 Q2779.91 1058.71 2790.49 1058.71 Q2796.94 1058.71 2801.53 1061.26 Q2806.16 1063.76 2809.18 1068.97 M2776.53 1089.33 Q2776.53 1099.91 2780.85 1105.95 Q2785.23 1111.94 2792.83 1111.94 Q2800.43 1111.94 2804.81 1105.95 Q2809.18 1099.91 2809.18 1089.33 Q2809.18 1078.76 2804.81 1072.77 Q2800.43 1066.73 2792.83 1066.73 Q2785.23 1066.73 2780.85 1072.77 Q2776.53 1078.76 2776.53 1089.33 Z" fill="#000000" fill-rule="nonzero" fill-opacity="1" /><path clip-path="url(#clip280)" d="M2865.02 1089.12 Q2853.4 1089.12 2848.92 1091.78 Q2844.44 1094.44 2844.44 1100.84 Q2844.44 1105.95 2847.78 1108.97 Q2851.16 1111.94 2856.94 1111.94 Q2864.91 1111.94 2869.7 1106.31 Q2874.55 1100.64 2874.55 1091.26 L2874.55 1089.12 L2865.02 1089.12 M2884.13 1085.17 L2884.13 1118.45 L2874.55 1118.45 L2874.55 1109.59 Q2871.27 1114.91 2866.37 1117.46 Q2861.48 1119.96 2854.39 1119.96 Q2845.43 1119.96 2840.12 1114.96 Q2834.86 1109.91 2834.86 1101.47 Q2834.86 1091.62 2841.42 1086.62 Q2848.04 1081.62 2861.11 1081.62 L2874.55 1081.62 L2874.55 1080.69 Q2874.55 1074.07 2870.17 1070.48 Q2865.85 1066.83 2857.99 1066.83 Q2852.99 1066.83 2848.25 1068.03 Q2843.51 1069.23 2839.13 1071.62 L2839.13 1062.77 Q2844.39 1060.74 2849.34 1059.75 Q2854.29 1058.71 2858.98 1058.71 Q2871.63 1058.71 2877.88 1065.27 Q2884.13 1071.83 2884.13 1085.17 Z" fill="#000000" fill-rule="nonzero" fill-opacity="1" /><path clip-path="url(#clip280)" d="M2928.14 1123.86 Q2924.08 1134.28 2920.23 1137.46 Q2916.37 1140.63 2909.91 1140.63 L2902.26 1140.63 L2902.26 1132.61 L2907.88 1132.61 Q2911.84 1132.61 2914.03 1130.74 Q2916.21 1128.86 2918.87 1121.88 L2920.59 1117.51 L2897 1060.11 L2907.15 1060.11 L2925.38 1105.74 L2943.61 1060.11 L2953.77 1060.11 L2928.14 1123.86 Z" fill="#000000" fill-rule="nonzero" fill-opacity="1" /><path clip-path="url(#clip280)" d="M2965.49 1037.51 L2973.82 1037.51 Q2981.63 1049.8 2985.49 1061.57 Q2989.39 1073.34 2989.39 1084.96 Q2989.39 1096.62 2985.49 1108.45 Q2981.63 1120.27 2973.82 1132.51 L2965.49 1132.51 Q2972.41 1120.58 2975.8 1108.81 Q2979.24 1096.99 2979.24 1084.96 Q2979.24 1072.93 2975.8 1061.21 Q2972.41 1049.49 2965.49 1037.51 Z" fill="#000000" fill-rule="nonzero" fill-opacity="1" /><polyline clip-path="url(#clip280)" style="stroke:#000000; stroke-linecap:round; stroke-linejoin:round; stroke-width:4; stroke-opacity:1; fill:none" points="660.509,849.455 660.509,47.2441 "/>
<polyline clip-path="url(#clip280)" style="stroke:#000000; stroke-linecap:round; stroke-linejoin:round; stroke-width:4; stroke-opacity:1; fill:none" points="660.509,827.146 679.407,827.146 "/>
<polyline clip-path="url(#clip280)" style="stroke:#000000; stroke-linecap:round; stroke-linejoin:round; stroke-width:4; stroke-opacity:1; fill:none" points="660.509,653.366 679.407,653.366 "/>
<polyline clip-path="url(#clip280)" style="stroke:#000000; stroke-linecap:round; stroke-linejoin:round; stroke-width:4; stroke-opacity:1; fill:none" points="660.509,479.587 679.407,479.587 "/>
<polyline clip-path="url(#clip280)" style="stroke:#000000; stroke-linecap:round; stroke-linejoin:round; stroke-width:4; stroke-opacity:1; fill:none" points="660.509,305.808 679.407,305.808 "/>
<polyline clip-path="url(#clip280)" style="stroke:#000000; stroke-linecap:round; stroke-linejoin:round; stroke-width:4; stroke-opacity:1; fill:none" points="660.509,132.028 679.407,132.028 "/>
<path clip-path="url(#clip280)" d="M564.62 798.743 Q557.398 798.743 553.741 805.873 Q550.13 812.956 550.13 827.215 Q550.13 841.428 553.741 848.558 Q557.398 855.641 564.62 855.641 Q571.889 855.641 575.5 848.558 Q579.157 841.428 579.157 827.215 Q579.157 812.956 575.5 805.873 Q571.889 798.743 564.62 798.743 M564.62 791.336 Q576.241 791.336 582.352 800.549 Q588.509 809.715 588.509 827.215 Q588.509 844.669 582.352 853.882 Q576.241 863.049 564.62 863.049 Q553 863.049 546.843 853.882 Q540.731 844.669 540.731 827.215 Q540.731 809.715 546.843 800.549 Q553 791.336 564.62 791.336 Z" fill="#000000" fill-rule="nonzero" fill-opacity="1" /><path clip-path="url(#clip280)" d="M225.785 692.951 L258.424 692.951 L258.424 700.822 L214.535 700.822 L214.535 692.951 Q219.859 687.442 229.026 678.183 Q238.239 668.877 240.6 666.192 Q245.091 661.146 246.85 657.674 Q248.655 654.155 248.655 650.776 Q248.655 645.266 244.767 641.794 Q240.924 638.322 234.72 638.322 Q230.322 638.322 225.415 639.85 Q220.554 641.378 214.998 644.479 L214.998 635.035 Q220.646 632.767 225.554 631.609 Q230.461 630.452 234.535 630.452 Q245.276 630.452 251.665 635.822 Q258.054 641.192 258.054 650.174 Q258.054 654.433 256.433 658.276 Q254.859 662.072 250.646 667.257 Q249.489 668.6 243.285 675.035 Q237.081 681.424 225.785 692.951 Z" fill="#000000" fill-rule="nonzero" fill-opacity="1" /><path clip-path="url(#clip280)" d="M278.053 689.063 L287.822 689.063 L287.822 700.822 L278.053 700.822 L278.053 689.063 Z" fill="#000000" fill-rule="nonzero" fill-opacity="1" /><path clip-path="url(#clip280)" d="M328.192 637.859 Q320.97 637.859 317.313 644.989 Q313.701 652.072 313.701 666.331 Q313.701 680.544 317.313 687.674 Q320.97 694.757 328.192 694.757 Q335.461 694.757 339.072 687.674 Q342.729 680.544 342.729 666.331 Q342.729 652.072 339.072 644.989 Q335.461 637.859 328.192 637.859 M328.192 630.452 Q339.812 630.452 345.923 639.665 Q352.081 648.831 352.081 666.331 Q352.081 683.785 345.923 692.998 Q339.812 702.164 328.192 702.164 Q316.572 702.164 310.414 692.998 Q304.303 683.785 304.303 666.331 Q304.303 648.831 310.414 639.665 Q316.572 630.452 328.192 630.452 Z" fill="#000000" fill-rule="nonzero" fill-opacity="1" /><path clip-path="url(#clip280)" d="M424.858 649.896 L403.701 671.146 L424.858 692.303 L419.349 697.905 L398.099 676.655 L376.849 697.905 L371.386 692.303 L392.497 671.146 L371.386 649.896 L376.849 644.294 L398.099 665.544 L419.349 644.294 L424.858 649.896 Z" fill="#000000" fill-rule="nonzero" fill-opacity="1" /><path clip-path="url(#clip280)" d="M449.58 692.951 L464.858 692.951 L464.858 640.22 L448.238 643.553 L448.238 635.035 L464.765 631.702 L474.117 631.702 L474.117 692.951 L489.395 692.951 L489.395 700.822 L449.58 700.822 L449.58 692.951 Z" fill="#000000" fill-rule="nonzero" fill-opacity="1" /><path clip-path="url(#clip280)" d="M528.284 637.859 Q521.061 637.859 517.404 644.989 Q513.793 652.072 513.793 666.331 Q513.793 680.544 517.404 687.674 Q521.061 694.757 528.284 694.757 Q535.552 694.757 539.163 687.674 Q542.821 680.544 542.821 666.331 Q542.821 652.072 539.163 644.989 Q535.552 637.859 528.284 637.859 M528.284 630.452 Q539.904 630.452 546.015 639.665 Q552.172 648.831 552.172 666.331 Q552.172 683.785 546.015 692.998 Q539.904 702.164 528.284 702.164 Q516.663 702.164 510.506 692.998 Q504.395 683.785 504.395 666.331 Q504.395 648.831 510.506 639.665 Q516.663 630.452 528.284 630.452 Z" fill="#000000" fill-rule="nonzero" fill-opacity="1" /><path clip-path="url(#clip280)" d="M554.542 589.841 L584.371 589.841 L584.371 596.236 L561.501 596.236 L561.501 610.003 Q563.156 609.439 564.811 609.175 Q566.466 608.874 568.121 608.874 Q577.525 608.874 583.017 614.028 Q588.509 619.181 588.509 627.983 Q588.509 637.048 582.867 642.089 Q577.224 647.092 566.955 647.092 Q563.419 647.092 559.733 646.49 Q556.084 645.888 552.172 644.684 L552.172 637.048 Q555.558 638.892 559.169 639.794 Q562.78 640.697 566.805 640.697 Q573.312 640.697 577.111 637.274 Q580.911 633.851 580.911 627.983 Q580.911 622.115 577.111 618.692 Q573.312 615.269 566.805 615.269 Q563.758 615.269 560.711 615.946 Q557.702 616.623 554.542 618.053 L554.542 589.841 Z" fill="#000000" fill-rule="nonzero" fill-opacity="1" /><path clip-path="url(#clip280)" d="M243.424 466.07 L219.813 502.968 L243.424 502.968 L243.424 466.07 M240.97 457.922 L252.73 457.922 L252.73 502.968 L262.591 502.968 L262.591 510.746 L252.73 510.746 L252.73 527.042 L243.424 527.042 L243.424 510.746 L212.22 510.746 L212.22 501.718 L240.97 457.922 Z" fill="#000000" fill-rule="nonzero" fill-opacity="1" /><path clip-path="url(#clip280)" d="M278.053 515.283 L287.822 515.283 L287.822 527.042 L278.053 527.042 L278.053 515.283 Z" fill="#000000" fill-rule="nonzero" fill-opacity="1" /><path clip-path="url(#clip280)" d="M328.192 464.08 Q320.97 464.08 317.313 471.209 Q313.701 478.292 313.701 492.552 Q313.701 506.765 317.313 513.894 Q320.97 520.977 328.192 520.977 Q335.461 520.977 339.072 513.894 Q342.729 506.765 342.729 492.552 Q342.729 478.292 339.072 471.209 Q335.461 464.08 328.192 464.08 M328.192 456.672 Q339.812 456.672 345.923 465.885 Q352.081 475.052 352.081 492.552 Q352.081 510.005 345.923 519.218 Q339.812 528.385 328.192 528.385 Q316.572 528.385 310.414 519.218 Q304.303 510.005 304.303 492.552 Q304.303 475.052 310.414 465.885 Q316.572 456.672 328.192 456.672 Z" fill="#000000" fill-rule="nonzero" fill-opacity="1" /><path clip-path="url(#clip280)" d="M424.858 476.117 L403.701 497.366 L424.858 518.524 L419.349 524.126 L398.099 502.876 L376.849 524.126 L371.386 518.524 L392.497 497.366 L371.386 476.117 L376.849 470.515 L398.099 491.765 L419.349 470.515 L424.858 476.117 Z" fill="#000000" fill-rule="nonzero" fill-opacity="1" /><path clip-path="url(#clip280)" d="M449.58 519.172 L464.858 519.172 L464.858 466.441 L448.238 469.774 L448.238 461.256 L464.765 457.922 L474.117 457.922 L474.117 519.172 L489.395 519.172 L489.395 527.042 L449.58 527.042 L449.58 519.172 Z" fill="#000000" fill-rule="nonzero" fill-opacity="1" /><path clip-path="url(#clip280)" d="M528.284 464.08 Q521.061 464.08 517.404 471.209 Q513.793 478.292 513.793 492.552 Q513.793 506.765 517.404 513.894 Q521.061 520.977 528.284 520.977 Q535.552 520.977 539.163 513.894 Q542.821 506.765 542.821 492.552 Q542.821 478.292 539.163 471.209 Q535.552 464.08 528.284 464.08 M528.284 456.672 Q539.904 456.672 546.015 465.885 Q552.172 475.052 552.172 492.552 Q552.172 510.005 546.015 519.218 Q539.904 528.385 528.284 528.385 Q516.663 528.385 510.506 519.218 Q504.395 510.005 504.395 492.552 Q504.395 475.052 510.506 465.885 Q516.663 456.672 528.284 456.672 Z" fill="#000000" fill-rule="nonzero" fill-opacity="1" /><path clip-path="url(#clip280)" d="M554.542 416.061 L584.371 416.061 L584.371 422.456 L561.501 422.456 L561.501 436.223 Q563.156 435.659 564.811 435.396 Q566.466 435.095 568.121 435.095 Q577.525 435.095 583.017 440.248 Q588.509 445.402 588.509 454.204 Q588.509 463.269 582.867 468.309 Q577.224 473.312 566.955 473.312 Q563.419 473.312 559.733 472.71 Q556.084 472.109 552.172 470.905 L552.172 463.269 Q555.558 465.112 559.169 466.015 Q562.78 466.918 566.805 466.918 Q573.312 466.918 577.111 463.495 Q580.911 460.072 580.911 454.204 Q580.911 448.336 577.111 444.913 Q573.312 441.49 566.805 441.49 Q563.758 441.49 560.711 442.167 Q557.702 442.844 554.542 444.273 L554.542 416.061 Z" fill="#000000" fill-rule="nonzero" fill-opacity="1" /><path clip-path="url(#clip280)" d="M238.887 314.976 Q232.591 314.976 228.887 319.281 Q225.23 323.587 225.23 331.087 Q225.23 338.541 228.887 342.892 Q232.591 347.198 238.887 347.198 Q245.183 347.198 248.841 342.892 Q252.544 338.541 252.544 331.087 Q252.544 323.587 248.841 319.281 Q245.183 314.976 238.887 314.976 M257.452 285.671 L257.452 294.189 Q253.933 292.522 250.322 291.643 Q246.757 290.763 243.239 290.763 Q233.98 290.763 229.072 297.013 Q224.211 303.263 223.517 315.902 Q226.248 311.874 230.369 309.744 Q234.489 307.569 239.443 307.569 Q249.859 307.569 255.878 313.911 Q261.942 320.207 261.942 331.087 Q261.942 341.735 255.646 348.17 Q249.35 354.605 238.887 354.605 Q226.896 354.605 220.554 345.439 Q214.211 336.226 214.211 318.772 Q214.211 302.383 221.989 292.661 Q229.767 282.893 242.868 282.893 Q246.387 282.893 249.952 283.587 Q253.563 284.282 257.452 285.671 Z" fill="#000000" fill-rule="nonzero" fill-opacity="1" /><path clip-path="url(#clip280)" d="M278.053 341.504 L287.822 341.504 L287.822 353.263 L278.053 353.263 L278.053 341.504 Z" fill="#000000" fill-rule="nonzero" fill-opacity="1" /><path clip-path="url(#clip280)" d="M328.192 290.3 Q320.97 290.3 317.313 297.43 Q313.701 304.513 313.701 318.772 Q313.701 332.985 317.313 340.115 Q320.97 347.198 328.192 347.198 Q335.461 347.198 339.072 340.115 Q342.729 332.985 342.729 318.772 Q342.729 304.513 339.072 297.43 Q335.461 290.3 328.192 290.3 M328.192 282.893 Q339.812 282.893 345.923 292.106 Q352.081 301.272 352.081 318.772 Q352.081 336.226 345.923 345.439 Q339.812 354.605 328.192 354.605 Q316.572 354.605 310.414 345.439 Q304.303 336.226 304.303 318.772 Q304.303 301.272 310.414 292.106 Q316.572 282.893 328.192 282.893 Z" fill="#000000" fill-rule="nonzero" fill-opacity="1" /><path clip-path="url(#clip280)" d="M424.858 302.337 L403.701 323.587 L424.858 344.744 L419.349 350.346 L398.099 329.096 L376.849 350.346 L371.386 344.744 L392.497 323.587 L371.386 302.337 L376.849 296.735 L398.099 317.985 L419.349 296.735 L424.858 302.337 Z" fill="#000000" fill-rule="nonzero" fill-opacity="1" /><path clip-path="url(#clip280)" d="M449.58 345.392 L464.858 345.392 L464.858 292.661 L448.238 295.995 L448.238 287.476 L464.765 284.143 L474.117 284.143 L474.117 345.392 L489.395 345.392 L489.395 353.263 L449.58 353.263 L449.58 345.392 Z" fill="#000000" fill-rule="nonzero" fill-opacity="1" /><path clip-path="url(#clip280)" d="M528.284 290.3 Q521.061 290.3 517.404 297.43 Q513.793 304.513 513.793 318.772 Q513.793 332.985 517.404 340.115 Q521.061 347.198 528.284 347.198 Q535.552 347.198 539.163 340.115 Q542.821 332.985 542.821 318.772 Q542.821 304.513 539.163 297.43 Q535.552 290.3 528.284 290.3 M528.284 282.893 Q539.904 282.893 546.015 292.106 Q552.172 301.272 552.172 318.772 Q552.172 336.226 546.015 345.439 Q539.904 354.605 528.284 354.605 Q516.663 354.605 510.506 345.439 Q504.395 336.226 504.395 318.772 Q504.395 301.272 510.506 292.106 Q516.663 282.893 528.284 282.893 Z" fill="#000000" fill-rule="nonzero" fill-opacity="1" /><path clip-path="url(#clip280)" d="M554.542 242.282 L584.371 242.282 L584.371 248.677 L561.501 248.677 L561.501 262.444 Q563.156 261.88 564.811 261.616 Q566.466 261.315 568.121 261.315 Q577.525 261.315 583.017 266.469 Q588.509 271.622 588.509 280.424 Q588.509 289.489 582.867 294.53 Q577.224 299.533 566.955 299.533 Q563.419 299.533 559.733 298.931 Q556.084 298.329 552.172 297.125 L552.172 289.489 Q555.558 291.333 559.169 292.235 Q562.78 293.138 566.805 293.138 Q573.312 293.138 577.111 289.715 Q580.911 286.292 580.911 280.424 Q580.911 274.556 577.111 271.133 Q573.312 267.71 566.805 267.71 Q563.758 267.71 560.711 268.387 Q557.702 269.064 554.542 270.494 L554.542 242.282 Z" fill="#000000" fill-rule="nonzero" fill-opacity="1" /><path clip-path="url(#clip280)" d="M237.73 146.659 Q231.063 146.659 227.22 150.224 Q223.424 153.789 223.424 160.039 Q223.424 166.289 227.22 169.854 Q231.063 173.419 237.73 173.419 Q244.396 173.419 248.239 169.854 Q252.081 166.243 252.081 160.039 Q252.081 153.789 248.239 150.224 Q244.443 146.659 237.73 146.659 M228.378 142.678 Q222.359 141.196 218.98 137.076 Q215.646 132.956 215.646 127.03 Q215.646 118.743 221.526 113.928 Q227.452 109.113 237.73 109.113 Q248.054 109.113 253.933 113.928 Q259.813 118.743 259.813 127.03 Q259.813 132.956 256.433 137.076 Q253.1 141.196 247.128 142.678 Q253.887 144.252 257.637 148.835 Q261.433 153.419 261.433 160.039 Q261.433 170.085 255.276 175.456 Q249.165 180.826 237.73 180.826 Q226.294 180.826 220.137 175.456 Q214.026 170.085 214.026 160.039 Q214.026 153.419 217.822 148.835 Q221.619 144.252 228.378 142.678 M224.952 127.91 Q224.952 133.28 228.285 136.289 Q231.665 139.298 237.73 139.298 Q243.748 139.298 247.128 136.289 Q250.554 133.28 250.554 127.91 Q250.554 122.539 247.128 119.53 Q243.748 116.521 237.73 116.521 Q231.665 116.521 228.285 119.53 Q224.952 122.539 224.952 127.91 Z" fill="#000000" fill-rule="nonzero" fill-opacity="1" /><path clip-path="url(#clip280)" d="M278.053 167.724 L287.822 167.724 L287.822 179.483 L278.053 179.483 L278.053 167.724 Z" fill="#000000" fill-rule="nonzero" fill-opacity="1" /><path clip-path="url(#clip280)" d="M328.192 116.521 Q320.97 116.521 317.313 123.65 Q313.701 130.734 313.701 144.993 Q313.701 159.206 317.313 166.335 Q320.97 173.419 328.192 173.419 Q335.461 173.419 339.072 166.335 Q342.729 159.206 342.729 144.993 Q342.729 130.734 339.072 123.65 Q335.461 116.521 328.192 116.521 M328.192 109.113 Q339.812 109.113 345.923 118.326 Q352.081 127.493 352.081 144.993 Q352.081 162.446 345.923 171.659 Q339.812 180.826 328.192 180.826 Q316.572 180.826 310.414 171.659 Q304.303 162.446 304.303 144.993 Q304.303 127.493 310.414 118.326 Q316.572 109.113 328.192 109.113 Z" fill="#000000" fill-rule="nonzero" fill-opacity="1" /><path clip-path="url(#clip280)" d="M424.858 128.558 L403.701 149.808 L424.858 170.965 L419.349 176.567 L398.099 155.317 L376.849 176.567 L371.386 170.965 L392.497 149.808 L371.386 128.558 L376.849 122.956 L398.099 144.206 L419.349 122.956 L424.858 128.558 Z" fill="#000000" fill-rule="nonzero" fill-opacity="1" /><path clip-path="url(#clip280)" d="M449.58 171.613 L464.858 171.613 L464.858 118.882 L448.238 122.215 L448.238 113.697 L464.765 110.363 L474.117 110.363 L474.117 171.613 L489.395 171.613 L489.395 179.483 L449.58 179.483 L449.58 171.613 Z" fill="#000000" fill-rule="nonzero" fill-opacity="1" /><path clip-path="url(#clip280)" d="M528.284 116.521 Q521.061 116.521 517.404 123.65 Q513.793 130.734 513.793 144.993 Q513.793 159.206 517.404 166.335 Q521.061 173.419 528.284 173.419 Q535.552 173.419 539.163 166.335 Q542.821 159.206 542.821 144.993 Q542.821 130.734 539.163 123.65 Q535.552 116.521 528.284 116.521 M528.284 109.113 Q539.904 109.113 546.015 118.326 Q552.172 127.493 552.172 144.993 Q552.172 162.446 546.015 171.659 Q539.904 180.826 528.284 180.826 Q516.663 180.826 510.506 171.659 Q504.395 162.446 504.395 144.993 Q504.395 127.493 510.506 118.326 Q516.663 109.113 528.284 109.113 Z" fill="#000000" fill-rule="nonzero" fill-opacity="1" /><path clip-path="url(#clip280)" d="M554.542 68.5025 L584.371 68.5025 L584.371 74.8972 L561.501 74.8972 L561.501 88.6644 Q563.156 88.1002 564.811 87.8369 Q566.466 87.536 568.121 87.536 Q577.525 87.536 583.017 92.6893 Q588.509 97.8426 588.509 106.645 Q588.509 115.71 582.867 120.75 Q577.224 125.753 566.955 125.753 Q563.419 125.753 559.733 125.152 Q556.084 124.55 552.172 123.346 L552.172 115.71 Q555.558 117.553 559.169 118.456 Q562.78 119.359 566.805 119.359 Q573.312 119.359 577.111 115.936 Q580.911 112.513 580.911 106.645 Q580.911 100.777 577.111 97.3536 Q573.312 93.9306 566.805 93.9306 Q563.758 93.9306 560.711 94.6077 Q557.702 95.2848 554.542 96.7142 L554.542 68.5025 Z" fill="#000000" fill-rule="nonzero" fill-opacity="1" /><path clip-path="url(#clip282)" d="M776.327 826.751 L792.413 824.949 L808.499 823.772 L824.585 822.633 L840.671 821.531 L856.757 820.319 L872.843 817.264 L888.928 811.295 L905.014 808.692 L921.1 807.806 L937.186 807.026 L953.272 806.324 L969.358 805.691 L985.444 805.115 L1001.53 804.582 L1017.62 804.074 L1033.7 803.573 L1049.79 803.062 L1065.87 802.524 L1081.96 801.95 L1098.04 801.375 L1114.13 800.815 L1130.22 800.27 L1146.3 799.741 L1162.39 799.227 L1178.47 798.729 L1194.56 798.247 L1210.65 797.78 L1226.73 797.328 L1242.82 796.889 L1258.9 796.469 L1274.99 796.094 L1291.08 795.821 L1307.16 795.65 L1323.25 795.57 L1339.33 795.565 L1355.42 795.612 L1371.5 795.688 L1387.59 795.768 L1403.68 795.827 L1419.76 795.843 L1435.85 795.797 L1451.93 795.674 L1468.02 795.468 L1484.11 795.236 L1500.19 795.006 L1516.28 794.78 L1532.36 794.56 L1548.45 794.346 L1564.54 794.138 L1580.62 793.938 L1596.71 793.744 L1612.79 793.556 L1628.88 793.375 L1644.96 793.205 L1661.05 793.078 L1677.14 793.056 L1693.22 793.139 L1709.31 793.313 L1725.39 793.557 L1741.48 793.847 L1757.57 794.154 L1773.65 794.452 L1789.74 794.715 L1805.82 794.921 L1821.91 795.051 L1838 795.092 L1854.08 795.04 L1870.17 794.951 L1886.25 794.857 L1902.34 794.763 L1918.42 794.671 L1934.51 794.58 L1950.6 794.493 L1966.68 794.409 L1982.77 794.328 L1998.85 794.25 L2014.94 794.175 L2031.03 794.107 L2047.11 794.077 L2063.2 794.145 L2079.28 794.309 L2095.37 794.558 L2111.46 794.869 L2127.54 795.218 L2143.63 795.579 L2159.71 795.926 L2175.8 796.236 L2191.88 796.494 L2207.97 796.686 L2224.06 796.797 L2240.14 796.82 L2256.23 796.804 L2272.31 796.775 L2288.4 796.74 L2304.49 796.704 L2320.57 796.666 L2336.66 796.63 L2352.74 796.595 L2368.83 796.561 L2384.91 796.529 L2401 796.499 L2417.09 796.474 L2433.17 796.481 L2449.26 796.573 L2465.34 796.751 L2481.43 796.995 L2497.52 797.272 L2513.6 797.556 L2529.69 797.831 L2545.77 798.09 L2561.86 798.322 L2577.95 798.519 L2594.03 798.671 L2610.12 798.773 L2626.2 798.832 L2642.29 798.876 L2658.37 798.914 L2674.46 798.948 L2690.55 798.976 L2706.63 798.999 L2722.72 799.013 L2738.8 799.022 L2754.89 799.023 L2770.98 799.019 L2787.06 799.013 L2803.15 798.999 L2819.23 798.975 L2835.32 799.043 L2851.41 799.201 L2867.49 799.397 L2883.58 799.606 L2899.66 799.824 L2915.75 800.044 L2931.83 800.254 L2947.92 800.443 L2964.01 800.601 L2980.09 800.723 L2996.18 800.801 L3012.26 800.841 L3028.35 800.869 L3044.44 800.893 L3060.52 800.916 L3076.61 800.937 L3092.69 800.958 L3108.78 800.978 L3124.87 800.998 L3140.95 801.018 L3157.04 801.038 L3173.12 801.056 L3189.21 801.063 L3205.29 801.033 L3221.38 801.062 L3237.47 801.171 L3253.55 801.319 L3269.64 801.493 L3285.72 801.682 L3301.81 801.875 L3317.9 802.06 L3333.98 802.227 L3350.07 802.368 L3366.15 802.474 L3382.24 802.542 L3398.33 802.574 L3414.41 802.595 L3430.5 802.614 L3446.58 802.631 L3462.67 802.648 L3478.75 802.663 L3494.84 802.679 L3510.93 802.695 L3527.01 802.712 L3543.1 802.729 L3559.18 802.746 L3575.27 802.753 L3591.36 802.728 L3607.44 802.749 L3623.53 802.844 L3639.61 802.977 L3655.7 803.136 L3671.79 803.309 L3687.87 803.487 L3703.96 803.657 L3720.04 803.812 L3736.13 803.942 L3752.21 804.04 L3768.3 804.102 L3784.39 804.131 L3800.47 804.15 L3816.56 804.167 L3832.64 804.183 L3848.73 804.198 L3864.82 804.212 L3880.9 804.226 L3896.99 804.241 L3913.07 804.256 L3929.16 804.272 L3945.24 804.288 L3961.33 804.295 L3977.42 804.272 L3993.5 804.289 L4009.59 804.377 L4025.67 804.5 L4041.76 804.648 L4057.85 804.809 L4073.93 804.975 L4090.02 805.134 L4106.1 805.279 L4122.19 805.4 L4138.28 805.492 L4154.36 805.55 L4170.45 805.577 L4186.53 805.595 L4202.62 805.611 L4218.7 805.626 L4234.79 805.639 L4250.88 805.652 L4266.96 805.666 L4283.05 805.679 L4299.13 805.694 L4315.22 805.709 L4331.31 805.724 L4347.39 805.731 L4363.48 805.71 L4379.56 805.725 L4395.65 805.807 L4411.74 805.922 L4427.82 806.06 L4443.91 806.211 L4459.99 806.365 L4476.08 806.514 L4492.16 806.65 L4508.25 806.763 L4524.34 806.849 L4540.42 806.903 L4556.51 806.929 L4572.59 806.946 L4588.68 806.961 L4604.77 806.975 L4620.85 806.987 L4636.94 806.999 L4636.94 402.658 L4620.85 402.331 L4604.77 402.003 L4588.68 401.676 L4572.59 401.348 L4556.51 401.022 L4540.42 400.496 L4524.34 399.251 L4508.25 397.287 L4492.16 394.689 L4476.08 391.59 L4459.99 388.159 L4443.91 384.592 L4427.82 381.095 L4411.74 377.875 L4395.65 375.125 L4379.56 373.018 L4363.48 371.767 L4347.39 373.459 L4331.31 373.139 L4315.22 372.808 L4299.13 372.47 L4283.05 372.128 L4266.96 371.782 L4250.88 371.433 L4234.79 371.082 L4218.7 370.731 L4202.62 370.38 L4186.53 370.029 L4170.45 369.68 L4154.36 369.118 L4138.28 367.784 L4122.19 365.677 L4106.1 362.889 L4090.02 359.563 L4073.93 355.881 L4057.85 352.052 L4041.76 348.298 L4025.67 344.842 L4009.59 341.889 L3993.5 339.626 L3977.42 338.272 L3961.33 340.08 L3945.24 339.739 L3929.16 339.384 L3913.07 339.021 L3896.99 338.654 L3880.9 338.283 L3864.82 337.908 L3848.73 337.532 L3832.64 337.155 L3816.56 336.778 L3800.47 336.402 L3784.39 336.027 L3768.3 335.426 L3752.21 333.994 L3736.13 331.732 L3720.04 328.738 L3703.96 325.165 L3687.87 321.209 L3671.79 317.095 L3655.7 313.062 L3639.61 309.346 L3623.53 306.17 L3607.44 303.731 L3591.36 302.262 L3575.27 304.175 L3559.18 303.803 L3543.1 303.416 L3527.01 303.021 L3510.93 302.619 L3494.84 302.212 L3478.75 301.801 L3462.67 301.388 L3446.58 300.972 L3430.5 300.556 L3414.41 300.139 L3398.33 299.723 L3382.24 299.064 L3366.15 297.508 L3350.07 295.057 L3333.98 291.817 L3317.9 287.953 L3301.81 283.673 L3285.72 279.219 L3269.64 274.848 L3253.55 270.814 L3237.47 267.354 L3221.38 264.68 L3205.29 263.04 L3189.21 265.083 L3173.12 264.639 L3157.04 264.172 L3140.95 263.692 L3124.87 263.201 L3108.78 262.7 L3092.69 262.189 L3076.61 261.671 L3060.52 261.146 L3044.44 260.614 L3028.35 260.077 L3012.26 259.535 L2996.18 258.732 L2980.09 256.95 L2964.01 254.19 L2947.92 250.565 L2931.83 246.25 L2915.75 241.472 L2899.66 236.491 L2883.58 231.582 L2867.49 227.019 L2851.41 223.062 L2835.32 219.419 L2819.23 216.947 L2803.15 219.019 L2787.06 219.221 L2770.98 219.344 L2754.89 219.411 L2738.8 219 L2722.72 218.213 L2706.63 217.387 L2690.55 216.529 L2674.46 215.642 L2658.37 214.728 L2642.29 213.79 L2626.2 212.826 L2610.12 211.623 L2594.03 209.317 L2577.95 205.901 L2561.86 201.493 L2545.77 196.282 L2529.69 190.517 L2513.6 184.482 L2497.52 178.487 L2481.43 172.842 L2465.34 167.379 L2449.26 162.863 L2433.17 160.303 L2417.09 159.883 L2401 160.535 L2384.91 161.212 L2368.83 161.908 L2352.74 162.625 L2336.66 163.363 L2320.57 164.122 L2304.49 164.903 L2288.4 165.704 L2272.31 166.514 L2256.23 167.273 L2240.14 167.749 L2224.06 166.934 L2207.97 163.608 L2191.88 158.784 L2175.8 152.723 L2159.71 145.635 L2143.63 137.692 L2127.54 129.037 L2111.46 120.52 L2095.37 112.825 L2079.28 106.553 L2063.2 102.202 L2047.11 100.133 L2031.03 100.49 L2014.94 102.082 L1998.85 103.729 L1982.77 105.425 L1966.68 107.173 L1950.6 108.974 L1934.51 110.83 L1918.42 112.742 L1902.34 114.711 L1886.25 116.738 L1870.17 118.823 L1854.08 120.933 L1838 121.925 L1821.91 120.659 L1805.82 117.298 L1789.74 112.143 L1773.65 105.615 L1757.57 98.2336 L1741.48 90.597 L1725.39 83.3457 L1709.31 77.1204 L1693.22 72.5112 L1677.14 70.0066 L1661.05 69.9482 L1644.96 72.4884 L1628.88 76.385 L1612.79 80.4076 L1596.71 84.554 L1580.62 88.8278 L1564.54 93.233 L1548.45 97.7736 L1532.36 102.454 L1516.28 107.277 L1500.19 112.248 L1484.11 117.369 L1468.02 122.643 L1451.93 126.998 L1435.85 129.35 L1419.76 129.901 L1403.68 128.982 L1387.59 127.033 L1371.5 124.575 L1355.42 122.188 L1339.33 120.47 L1323.25 119.991 L1307.16 121.254 L1291.08 124.645 L1274.99 130.404 L1258.9 138.622 L1242.82 148.199 L1226.73 158.077 L1210.65 168.262 L1194.56 178.762 L1178.47 189.585 L1162.39 200.742 L1146.3 212.245 L1130.22 224.104 L1114.13 236.328 L1098.04 248.928 L1081.96 261.943 L1065.87 274.693 L1049.79 286.542 L1033.7 297.781 L1017.62 308.775 L1001.53 319.939 L985.444 331.705 L969.358 344.481 L953.272 358.62 L937.186 374.386 L921.1 391.926 L905.014 411.289 L888.928 433.994 L872.843 502.945 L856.757 671.012 L840.671 706.891 L824.585 731.981 L808.499 757.851 L792.413 784.527 L776.327 818.419  Z" fill="#aeaeae" fill-rule="evenodd" fill-opacity="0.5"/>
<polyline clip-path="url(#clip282)" style="stroke:#aeaeae; stroke-linecap:round; stroke-linejoin:round; stroke-width:0; stroke-opacity:1; fill:none" points="776.327,826.746 792.413,824.946 808.499,823.769 824.585,822.631 840.671,821.528 856.757,820.315 872.843,817.259 888.928,811.29 905.014,808.686 921.1,807.8 937.186,807.02 953.272,806.319 969.358,805.686 985.444,805.11 1001.53,804.577 1017.62,804.069 1033.7,803.567 1049.79,803.055 1065.87,802.516 1081.96,801.942 1098.04,801.366 1114.13,800.806 1130.22,800.262 1146.3,799.734 1162.39,799.222 1178.47,798.725 1194.56,798.242 1210.65,797.775 1226.73,797.322 1242.82,796.882 1258.9,796.461 1274.99,796.085 1291.08,795.812 1307.16,795.64 1323.25,795.56 1339.33,795.554 1355.42,795.602 1371.5,795.678 1387.59,795.758 1403.68,795.817 1419.76,795.832 1435.85,795.785 1451.93,795.66 1468.02,795.455 1484.11,795.222 1500.19,794.991 1516.28,794.766 1532.36,794.547 1548.45,794.334 1564.54,794.128 1580.62,793.927 1596.71,793.733 1612.79,793.545 1628.88,793.363 1644.96,793.191 1661.05,793.063 1677.14,793.04 1693.22,793.122 1709.31,793.296 1725.39,793.54 1741.48,793.83 1757.57,794.137 1773.65,794.435 1789.74,794.698 1805.82,794.904 1821.91,795.033 1838,795.073 1854.08,795.02 1870.17,794.931 1886.25,794.836 1902.34,794.743 1918.42,794.652 1934.51,794.563 1950.6,794.476 1966.68,794.392 1982.77,794.311 1998.85,794.232 2014.94,794.156 2031.03,794.087 2047.11,794.056 2063.2,794.122 2079.28,794.286 2095.37,794.534 2111.46,794.845 2127.54,795.195 2143.63,795.556 2159.71,795.903 2175.8,796.214 2191.88,796.471 2207.97,796.662 2224.06,796.772 2240.14,796.795 2256.23,796.777 2272.31,796.748 2288.4,796.714 2304.49,796.679 2320.57,796.643 2336.66,796.607 2352.74,796.573 2368.83,796.539 2384.91,796.506 2401,796.475 2417.09,796.448 2433.17,796.454 2449.26,796.545 2465.34,796.722 2481.43,796.966 2497.52,797.244 2513.6,797.527 2529.69,797.803 2545.77,798.063 2561.86,798.295 2577.95,798.491 2594.03,798.642 2610.12,798.744 2626.2,798.801 2642.29,798.844 2658.37,798.883 2674.46,798.917 2690.55,798.947 2706.63,798.97 2722.72,798.986 2738.8,798.995 2754.89,798.996 2770.98,798.992 2787.06,798.984 2803.15,798.969 2819.23,798.943 2835.32,799.01 2851.41,799.167 2867.49,799.363 2883.58,799.573 2899.66,799.792 2915.75,800.012 2931.83,800.222 2947.92,800.411 2964.01,800.57 2980.09,800.69 2996.18,800.768 3012.26,800.806 3028.35,800.833 3044.44,800.858 3060.52,800.882 3076.61,800.904 3092.69,800.926 3108.78,800.947 3124.87,800.968 3140.95,800.988 3157.04,801.007 3173.12,801.023 3189.21,801.028 3205.29,800.997 3221.38,801.026 3237.47,801.134 3253.55,801.281 3269.64,801.455 3285.72,801.645 3301.81,801.838 3317.9,802.023 3333.98,802.19 3350.07,802.33 3366.15,802.436 3382.24,802.502 3398.33,802.533 3414.41,802.554 3430.5,802.573 3446.58,802.591 3462.67,802.609 3478.75,802.626 3494.84,802.644 3510.93,802.661 3527.01,802.678 3543.1,802.695 3559.18,802.71 3575.27,802.716 3591.36,802.688 3607.44,802.708 3623.53,802.802 3639.61,802.935 3655.7,803.093 3671.79,803.267 3687.87,803.445 3703.96,803.616 3720.04,803.77 3736.13,803.899 3752.21,803.997 3768.3,804.058 3784.39,804.086 3800.47,804.105 3816.56,804.122 3832.64,804.138 3848.73,804.154 3864.82,804.17 3880.9,804.186 3896.99,804.202 3913.07,804.217 3929.16,804.233 3945.24,804.247 3961.33,804.253 3977.42,804.227 3993.5,804.244 4009.59,804.33 4025.67,804.453 4041.76,804.601 4057.85,804.763 4073.93,804.929 4090.02,805.089 4106.1,805.233 4122.19,805.354 4138.28,805.445 4154.36,805.502 4170.45,805.528 4186.53,805.545 4202.62,805.562 4218.7,805.577 4234.79,805.592 4250.88,805.607 4266.96,805.622 4283.05,805.637 4299.13,805.651 4315.22,805.666 4331.31,805.679 4347.39,805.685 4363.48,805.662 4379.56,805.676 4395.65,805.756 4411.74,805.871 4427.82,806.009 4443.91,806.16 4459.99,806.316 4476.08,806.465 4492.16,806.6 4508.25,806.713 4524.34,806.798 4540.42,806.852 4556.51,806.877 4572.59,806.893 4588.68,806.908 4604.77,806.923 4620.85,806.937 4636.94,806.951 "/>
<path clip-path="url(#clip282)" d="M776.327 826.75 L792.413 824.948 L808.499 823.771 L824.585 822.632 L840.671 821.529 L856.757 820.316 L872.843 817.26 L888.928 811.292 L905.014 808.687 L921.1 807.8 L937.186 807.02 L953.272 806.318 L969.358 805.685 L985.444 805.109 L1001.53 804.576 L1017.62 804.068 L1033.7 803.566 L1049.79 803.054 L1065.87 802.515 L1081.96 801.94 L1098.04 801.365 L1114.13 800.804 L1130.22 800.259 L1146.3 799.73 L1162.39 799.217 L1178.47 798.72 L1194.56 798.238 L1210.65 797.77 L1226.73 797.317 L1242.82 796.878 L1258.9 796.457 L1274.99 796.081 L1291.08 795.808 L1307.16 795.636 L1323.25 795.555 L1339.33 795.549 L1355.42 795.597 L1371.5 795.673 L1387.59 795.754 L1403.68 795.813 L1419.76 795.828 L1435.85 795.781 L1451.93 795.657 L1468.02 795.45 L1484.11 795.218 L1500.19 794.986 L1516.28 794.76 L1532.36 794.541 L1548.45 794.328 L1564.54 794.121 L1580.62 793.921 L1596.71 793.727 L1612.79 793.539 L1628.88 793.357 L1644.96 793.186 L1661.05 793.057 L1677.14 793.034 L1693.22 793.116 L1709.31 793.29 L1725.39 793.534 L1741.48 793.824 L1757.57 794.132 L1773.65 794.43 L1789.74 794.693 L1805.82 794.899 L1821.91 795.028 L1838 795.068 L1854.08 795.016 L1870.17 794.926 L1886.25 794.832 L1902.34 794.738 L1918.42 794.646 L1934.51 794.556 L1950.6 794.469 L1966.68 794.385 L1982.77 794.304 L1998.85 794.226 L2014.94 794.15 L2031.03 794.081 L2047.11 794.05 L2063.2 794.116 L2079.28 794.28 L2095.37 794.528 L2111.46 794.839 L2127.54 795.189 L2143.63 795.551 L2159.71 795.898 L2175.8 796.209 L2191.88 796.467 L2207.97 796.658 L2224.06 796.768 L2240.14 796.79 L2256.23 796.773 L2272.31 796.744 L2288.4 796.709 L2304.49 796.673 L2320.57 796.637 L2336.66 796.601 L2352.74 796.566 L2368.83 796.533 L2384.91 796.501 L2401 796.469 L2417.09 796.443 L2433.17 796.449 L2449.26 796.54 L2465.34 796.716 L2481.43 796.961 L2497.52 797.238 L2513.6 797.522 L2529.69 797.798 L2545.77 798.058 L2561.86 798.291 L2577.95 798.487 L2594.03 798.638 L2610.12 798.74 L2626.2 798.797 L2642.29 798.841 L2658.37 798.879 L2674.46 798.913 L2690.55 798.942 L2706.63 798.965 L2722.72 798.981 L2738.8 798.99 L2754.89 798.991 L2770.98 798.987 L2787.06 798.98 L2803.15 798.964 L2819.23 798.939 L2835.32 799.006 L2851.41 799.163 L2867.49 799.359 L2883.58 799.569 L2899.66 799.788 L2915.75 800.008 L2931.83 800.219 L2947.92 800.408 L2964.01 800.567 L2980.09 800.687 L2996.18 800.765 L3012.26 800.804 L3028.35 800.831 L3044.44 800.855 L3060.52 800.878 L3076.61 800.9 L3092.69 800.922 L3108.78 800.943 L3124.87 800.964 L3140.95 800.984 L3157.04 801.003 L3173.12 801.02 L3189.21 801.026 L3205.29 800.995 L3221.38 801.023 L3237.47 801.131 L3253.55 801.278 L3269.64 801.452 L3285.72 801.642 L3301.81 801.835 L3317.9 802.021 L3333.98 802.188 L3350.07 802.328 L3366.15 802.434 L3382.24 802.501 L3398.33 802.532 L3414.41 802.553 L3430.5 802.571 L3446.58 802.589 L3462.67 802.607 L3478.75 802.624 L3494.84 802.641 L3510.93 802.658 L3527.01 802.676 L3543.1 802.693 L3559.18 802.708 L3575.27 802.715 L3591.36 802.688 L3607.44 802.707 L3623.53 802.801 L3639.61 802.934 L3655.7 803.092 L3671.79 803.265 L3687.87 803.443 L3703.96 803.615 L3720.04 803.77 L3736.13 803.899 L3752.21 803.996 L3768.3 804.057 L3784.39 804.086 L3800.47 804.104 L3816.56 804.122 L3832.64 804.138 L3848.73 804.154 L3864.82 804.169 L3880.9 804.185 L3896.99 804.201 L3913.07 804.217 L3929.16 804.233 L3945.24 804.247 L3961.33 804.254 L3977.42 804.228 L3993.5 804.244 L4009.59 804.331 L4025.67 804.454 L4041.76 804.601 L4057.85 804.763 L4073.93 804.929 L4090.02 805.089 L4106.1 805.234 L4122.19 805.355 L4138.28 805.446 L4154.36 805.503 L4170.45 805.53 L4186.53 805.547 L4202.62 805.563 L4218.7 805.578 L4234.79 805.593 L4250.88 805.608 L4266.96 805.623 L4283.05 805.638 L4299.13 805.653 L4315.22 805.668 L4331.31 805.681 L4347.39 805.688 L4363.48 805.665 L4379.56 805.679 L4395.65 805.759 L4411.74 805.873 L4427.82 806.011 L4443.91 806.162 L4459.99 806.318 L4476.08 806.467 L4492.16 806.603 L4508.25 806.716 L4524.34 806.802 L4540.42 806.855 L4556.51 806.88 L4572.59 806.896 L4588.68 806.911 L4604.77 806.926 L4620.85 806.94 L4636.94 806.953 L4636.94 685.736 L4620.85 685.628 L4604.77 685.52 L4588.68 685.41 L4572.59 685.298 L4556.51 685.181 L4540.42 684.972 L4524.34 684.549 L4508.25 683.9 L4492.16 683.047 L4476.08 682.021 L4459.99 680.887 L4443.91 679.709 L4427.82 678.556 L4411.74 677.495 L4395.65 676.646 L4379.56 676.059 L4363.48 675.908 L4347.39 676.222 L4331.31 676.132 L4315.22 676.034 L4299.13 675.932 L4283.05 675.829 L4266.96 675.725 L4250.88 675.62 L4234.79 675.514 L4218.7 675.407 L4202.62 675.299 L4186.53 675.19 L4170.45 675.079 L4154.36 674.894 L4138.28 674.493 L4122.19 673.864 L4106.1 673.033 L4090.02 672.04 L4073.93 670.942 L4057.85 669.802 L4041.76 668.687 L4025.67 667.663 L4009.59 666.792 L3993.5 666.16 L3977.42 666 L3961.33 666.336 L3945.24 666.241 L3929.16 666.136 L3913.07 666.028 L3896.99 665.918 L3880.9 665.807 L3864.82 665.695 L3848.73 665.582 L3832.64 665.468 L3816.56 665.353 L3800.47 665.236 L3784.39 665.118 L3768.3 664.92 L3752.21 664.491 L3736.13 663.819 L3720.04 662.93 L3703.96 661.868 L3687.87 660.672 L3671.79 659.393 L3655.7 658.074 L3639.61 656.864 L3623.53 655.843 L3607.44 655.098 L3591.36 654.869 L3575.27 655.286 L3559.18 655.173 L3543.1 655.049 L3527.01 654.921 L3510.93 654.791 L3494.84 654.66 L3478.75 654.527 L3462.67 654.394 L3446.58 654.259 L3430.5 654.122 L3414.41 653.984 L3398.33 653.844 L3382.24 653.609 L3366.15 653.096 L3350.07 652.294 L3333.98 651.232 L3317.9 649.966 L3301.81 648.564 L3285.72 647.105 L3269.64 645.674 L3253.55 644.356 L3237.47 643.235 L3221.38 642.395 L3205.29 642.165 L3189.21 642.576 L3173.12 642.451 L3157.04 642.31 L3140.95 642.161 L3124.87 642.007 L3108.78 641.85 L3092.69 641.689 L3076.61 641.525 L3060.52 641.358 L3044.44 641.186 L3028.35 641.01 L3012.26 640.829 L2996.18 640.621 L2980.09 640.109 L2964.01 639.261 L2947.92 638.114 L2931.83 636.728 L2915.75 635.181 L2899.66 633.563 L2883.58 631.971 L2867.49 630.492 L2851.41 628.939 L2835.32 627.744 L2819.23 627.586 L2803.15 627.819 L2787.06 627.878 L2770.98 627.919 L2754.89 627.949 L2738.8 627.969 L2722.72 627.978 L2706.63 627.923 L2690.55 627.762 L2674.46 627.499 L2658.37 627.203 L2642.29 626.888 L2626.2 626.558 L2610.12 626.203 L2594.03 625.509 L2577.95 624.437 L2561.86 623.047 L2545.77 621.398 L2529.69 619.567 L2513.6 617.638 L2497.52 615.6 L2481.43 613.487 L2465.34 611.703 L2449.26 610.406 L2433.17 609.714 L2417.09 609.675 L2401 609.894 L2384.91 610.124 L2368.83 610.36 L2352.74 610.603 L2336.66 610.852 L2320.57 611.106 L2304.49 611.363 L2288.4 611.618 L2272.31 611.856 L2256.23 612.051 L2240.14 612.179 L2224.06 612.056 L2207.97 611.339 L2191.88 609.971 L2175.8 608.055 L2159.71 605.712 L2143.63 603.08 L2127.54 600.337 L2111.46 597.686 L2095.37 595.337 L2079.28 593.491 L2063.2 592.312 L2047.11 591.919 L2031.03 592.331 L2014.94 592.859 L1998.85 593.409 L1982.77 593.975 L1966.68 594.558 L1950.6 595.159 L1934.51 595.779 L1918.42 596.417 L1902.34 597.073 L1886.25 597.747 L1870.17 598.436 L1854.08 599.127 L1838 599.712 L1821.91 599.518 L1805.82 598.458 L1789.74 596.881 L1773.65 594.915 L1757.57 592.708 L1741.48 590.436 L1725.39 588.262 L1709.31 586.401 L1693.22 585.051 L1677.14 584.286 L1661.05 584.234 L1644.96 584.847 L1628.88 585.835 L1612.79 587.096 L1596.71 588.396 L1580.62 589.735 L1564.54 591.115 L1548.45 592.537 L1532.36 594.003 L1516.28 595.512 L1500.19 597.065 L1484.11 598.663 L1468.02 600.092 L1451.93 601.411 L1435.85 602.568 L1419.76 603.135 L1403.68 603.225 L1387.59 602.982 L1371.5 602.574 L1355.42 602.188 L1339.33 602.017 L1323.25 602.243 L1307.16 603.018 L1291.08 604.441 L1274.99 606.626 L1258.9 609.564 L1242.82 612.679 L1226.73 615.895 L1210.65 619.211 L1194.56 622.628 L1178.47 626.152 L1162.39 629.784 L1146.3 633.529 L1130.22 637.388 L1114.13 641.365 L1098.04 645.432 L1081.96 649.622 L1065.87 653.927 L1049.79 657.911 L1033.7 661.67 L1017.62 665.246 L1001.53 668.863 L985.444 672.661 L969.358 676.755 L953.272 681.247 L937.186 686.213 L921.1 691.746 L905.014 698.025 L888.928 710.002 L872.843 763.961 L856.757 779.696 L840.671 787.624 L824.585 795.565 L808.499 803.907 L792.413 812.534 L776.327 824.226  Z" fill="#757575" fill-rule="evenodd" fill-opacity="0.5"/>
<polyline clip-path="url(#clip282)" style="stroke:#757575; stroke-linecap:round; stroke-linejoin:round; stroke-width:0; stroke-opacity:1; fill:none" points="776.327,826.746 792.413,824.946 808.499,823.769 824.585,822.631 840.671,821.528 856.757,820.315 872.843,817.259 888.928,811.29 905.014,808.686 921.1,807.8 937.186,807.02 953.272,806.319 969.358,805.686 985.444,805.11 1001.53,804.577 1017.62,804.069 1033.7,803.567 1049.79,803.055 1065.87,802.516 1081.96,801.942 1098.04,801.366 1114.13,800.806 1130.22,800.262 1146.3,799.734 1162.39,799.222 1178.47,798.725 1194.56,798.242 1210.65,797.775 1226.73,797.322 1242.82,796.882 1258.9,796.461 1274.99,796.085 1291.08,795.812 1307.16,795.64 1323.25,795.56 1339.33,795.554 1355.42,795.602 1371.5,795.678 1387.59,795.758 1403.68,795.817 1419.76,795.832 1435.85,795.785 1451.93,795.66 1468.02,795.455 1484.11,795.222 1500.19,794.991 1516.28,794.766 1532.36,794.547 1548.45,794.334 1564.54,794.128 1580.62,793.927 1596.71,793.733 1612.79,793.545 1628.88,793.363 1644.96,793.191 1661.05,793.063 1677.14,793.04 1693.22,793.122 1709.31,793.296 1725.39,793.54 1741.48,793.83 1757.57,794.137 1773.65,794.435 1789.74,794.698 1805.82,794.904 1821.91,795.033 1838,795.073 1854.08,795.02 1870.17,794.931 1886.25,794.836 1902.34,794.743 1918.42,794.652 1934.51,794.563 1950.6,794.476 1966.68,794.392 1982.77,794.311 1998.85,794.232 2014.94,794.156 2031.03,794.087 2047.11,794.056 2063.2,794.122 2079.28,794.286 2095.37,794.534 2111.46,794.845 2127.54,795.195 2143.63,795.556 2159.71,795.903 2175.8,796.214 2191.88,796.471 2207.97,796.662 2224.06,796.772 2240.14,796.795 2256.23,796.777 2272.31,796.748 2288.4,796.714 2304.49,796.679 2320.57,796.643 2336.66,796.607 2352.74,796.573 2368.83,796.539 2384.91,796.506 2401,796.475 2417.09,796.448 2433.17,796.454 2449.26,796.545 2465.34,796.722 2481.43,796.966 2497.52,797.244 2513.6,797.527 2529.69,797.803 2545.77,798.063 2561.86,798.295 2577.95,798.491 2594.03,798.642 2610.12,798.744 2626.2,798.801 2642.29,798.844 2658.37,798.883 2674.46,798.917 2690.55,798.947 2706.63,798.97 2722.72,798.986 2738.8,798.995 2754.89,798.996 2770.98,798.992 2787.06,798.984 2803.15,798.969 2819.23,798.943 2835.32,799.01 2851.41,799.167 2867.49,799.363 2883.58,799.573 2899.66,799.792 2915.75,800.012 2931.83,800.222 2947.92,800.411 2964.01,800.57 2980.09,800.69 2996.18,800.768 3012.26,800.806 3028.35,800.833 3044.44,800.858 3060.52,800.882 3076.61,800.904 3092.69,800.926 3108.78,800.947 3124.87,800.968 3140.95,800.988 3157.04,801.007 3173.12,801.023 3189.21,801.028 3205.29,800.997 3221.38,801.026 3237.47,801.134 3253.55,801.281 3269.64,801.455 3285.72,801.645 3301.81,801.838 3317.9,802.023 3333.98,802.19 3350.07,802.33 3366.15,802.436 3382.24,802.502 3398.33,802.533 3414.41,802.554 3430.5,802.573 3446.58,802.591 3462.67,802.609 3478.75,802.626 3494.84,802.644 3510.93,802.661 3527.01,802.678 3543.1,802.695 3559.18,802.71 3575.27,802.716 3591.36,802.688 3607.44,802.708 3623.53,802.802 3639.61,802.935 3655.7,803.093 3671.79,803.267 3687.87,803.445 3703.96,803.616 3720.04,803.77 3736.13,803.899 3752.21,803.997 3768.3,804.058 3784.39,804.086 3800.47,804.105 3816.56,804.122 3832.64,804.138 3848.73,804.154 3864.82,804.17 3880.9,804.186 3896.99,804.202 3913.07,804.217 3929.16,804.233 3945.24,804.247 3961.33,804.253 3977.42,804.227 3993.5,804.244 4009.59,804.33 4025.67,804.453 4041.76,804.601 4057.85,804.763 4073.93,804.929 4090.02,805.089 4106.1,805.233 4122.19,805.354 4138.28,805.445 4154.36,805.502 4170.45,805.528 4186.53,805.545 4202.62,805.562 4218.7,805.577 4234.79,805.592 4250.88,805.607 4266.96,805.622 4283.05,805.637 4299.13,805.651 4315.22,805.666 4331.31,805.679 4347.39,805.685 4363.48,805.662 4379.56,805.676 4395.65,805.756 4411.74,805.871 4427.82,806.009 4443.91,806.16 4459.99,806.316 4476.08,806.465 4492.16,806.6 4508.25,806.713 4524.34,806.798 4540.42,806.852 4556.51,806.877 4572.59,806.893 4588.68,806.908 4604.77,806.923 4620.85,806.937 4636.94,806.951 "/>
<path clip-path="url(#clip282)" d="M776.327 826.75 L792.413 824.948 L808.499 823.771 L824.585 822.632 L840.671 821.529 L856.757 820.316 L872.843 817.26 L888.928 811.291 L905.014 808.686 L921.1 807.799 L937.186 807.019 L953.272 806.316 L969.358 805.683 L985.444 805.108 L1001.53 804.574 L1017.62 804.066 L1033.7 803.564 L1049.79 803.051 L1065.87 802.512 L1081.96 801.937 L1098.04 801.362 L1114.13 800.801 L1130.22 800.256 L1146.3 799.728 L1162.39 799.215 L1178.47 798.717 L1194.56 798.235 L1210.65 797.768 L1226.73 797.315 L1242.82 796.876 L1258.9 796.454 L1274.99 796.078 L1291.08 795.804 L1307.16 795.632 L1323.25 795.552 L1339.33 795.546 L1355.42 795.593 L1371.5 795.67 L1387.59 795.75 L1403.68 795.809 L1419.76 795.824 L1435.85 795.777 L1451.93 795.652 L1468.02 795.446 L1484.11 795.213 L1500.19 794.982 L1516.28 794.756 L1532.36 794.537 L1548.45 794.324 L1564.54 794.117 L1580.62 793.917 L1596.71 793.723 L1612.79 793.535 L1628.88 793.354 L1644.96 793.182 L1661.05 793.053 L1677.14 793.03 L1693.22 793.112 L1709.31 793.285 L1725.39 793.53 L1741.48 793.819 L1757.57 794.127 L1773.65 794.425 L1789.74 794.689 L1805.82 794.894 L1821.91 795.023 L1838 795.063 L1854.08 795.01 L1870.17 794.92 L1886.25 794.826 L1902.34 794.732 L1918.42 794.64 L1934.51 794.551 L1950.6 794.465 L1966.68 794.381 L1982.77 794.3 L1998.85 794.221 L2014.94 794.145 L2031.03 794.076 L2047.11 794.045 L2063.2 794.111 L2079.28 794.274 L2095.37 794.522 L2111.46 794.834 L2127.54 795.183 L2143.63 795.545 L2159.71 795.892 L2175.8 796.203 L2191.88 796.461 L2207.97 796.652 L2224.06 796.762 L2240.14 796.784 L2256.23 796.767 L2272.31 796.737 L2288.4 796.703 L2304.49 796.667 L2320.57 796.631 L2336.66 796.596 L2352.74 796.561 L2368.83 796.527 L2384.91 796.495 L2401 796.463 L2417.09 796.437 L2433.17 796.443 L2449.26 796.534 L2465.34 796.71 L2481.43 796.954 L2497.52 797.232 L2513.6 797.516 L2529.69 797.792 L2545.77 798.052 L2561.86 798.284 L2577.95 798.48 L2594.03 798.632 L2610.12 798.733 L2626.2 798.791 L2642.29 798.834 L2658.37 798.873 L2674.46 798.906 L2690.55 798.936 L2706.63 798.959 L2722.72 798.975 L2738.8 798.984 L2754.89 798.985 L2770.98 798.981 L2787.06 798.974 L2803.15 798.958 L2819.23 798.933 L2835.32 799 L2851.41 799.156 L2867.49 799.352 L2883.58 799.562 L2899.66 799.781 L2915.75 800.002 L2931.83 800.212 L2947.92 800.402 L2964.01 800.56 L2980.09 800.68 L2996.18 800.758 L3012.26 800.797 L3028.35 800.824 L3044.44 800.848 L3060.52 800.871 L3076.61 800.894 L3092.69 800.915 L3108.78 800.937 L3124.87 800.958 L3140.95 800.978 L3157.04 800.997 L3173.12 801.014 L3189.21 801.019 L3205.29 800.988 L3221.38 801.016 L3237.47 801.124 L3253.55 801.271 L3269.64 801.445 L3285.72 801.635 L3301.81 801.828 L3317.9 802.014 L3333.98 802.182 L3350.07 802.322 L3366.15 802.427 L3382.24 802.494 L3398.33 802.525 L3414.41 802.545 L3430.5 802.565 L3446.58 802.583 L3462.67 802.6 L3478.75 802.618 L3494.84 802.635 L3510.93 802.653 L3527.01 802.67 L3543.1 802.687 L3559.18 802.703 L3575.27 802.709 L3591.36 802.682 L3607.44 802.701 L3623.53 802.794 L3639.61 802.927 L3655.7 803.085 L3671.79 803.259 L3687.87 803.437 L3703.96 803.608 L3720.04 803.763 L3736.13 803.892 L3752.21 803.989 L3768.3 804.05 L3784.39 804.079 L3800.47 804.098 L3816.56 804.115 L3832.64 804.132 L3848.73 804.148 L3864.82 804.164 L3880.9 804.179 L3896.99 804.195 L3913.07 804.212 L3929.16 804.228 L3945.24 804.242 L3961.33 804.248 L3977.42 804.222 L3993.5 804.238 L4009.59 804.325 L4025.67 804.447 L4041.76 804.595 L4057.85 804.757 L4073.93 804.923 L4090.02 805.083 L4106.1 805.227 L4122.19 805.348 L4138.28 805.439 L4154.36 805.496 L4170.45 805.523 L4186.53 805.541 L4202.62 805.557 L4218.7 805.572 L4234.79 805.587 L4250.88 805.602 L4266.96 805.617 L4283.05 805.632 L4299.13 805.647 L4315.22 805.662 L4331.31 805.676 L4347.39 805.682 L4363.48 805.658 L4379.56 805.672 L4395.65 805.752 L4411.74 805.866 L4427.82 806.004 L4443.91 806.156 L4459.99 806.311 L4476.08 806.461 L4492.16 806.596 L4508.25 806.709 L4524.34 806.795 L4540.42 806.848 L4556.51 806.873 L4572.59 806.89 L4588.68 806.905 L4604.77 806.92 L4620.85 806.934 L4636.94 806.948 L4636.94 728.363 L4620.85 728.295 L4604.77 728.226 L4588.68 728.156 L4572.59 728.084 L4556.51 728.009 L4540.42 727.923 L4524.34 727.69 L4508.25 727.284 L4492.16 726.725 L4476.08 726.045 L4459.99 725.285 L4443.91 724.493 L4427.82 723.723 L4411.74 723.038 L4395.65 722.487 L4379.56 722.138 L4363.48 722.347 L4347.39 722.321 L4331.31 722.263 L4315.22 722.196 L4299.13 722.127 L4283.05 722.056 L4266.96 721.986 L4250.88 721.915 L4234.79 721.845 L4218.7 721.773 L4202.62 721.699 L4186.53 721.624 L4170.45 721.546 L4154.36 721.459 L4138.28 721.257 L4122.19 720.908 L4106.1 720.406 L4090.02 719.784 L4073.93 719.084 L4057.85 718.353 L4041.76 717.536 L4025.67 716.757 L4009.59 716.103 L3993.5 715.627 L3977.42 715.485 L3961.33 715.724 L3945.24 715.655 L3929.16 715.577 L3913.07 715.495 L3896.99 715.413 L3880.9 715.329 L3864.82 715.245 L3848.73 715.16 L3832.64 715.074 L3816.56 714.987 L3800.47 714.899 L3784.39 714.808 L3768.3 714.652 L3752.21 714.318 L3736.13 713.805 L3720.04 713.165 L3703.96 712.387 L3687.87 711.519 L3671.79 710.614 L3655.7 709.731 L3639.61 708.931 L3623.53 708.278 L3607.44 707.843 L3591.36 708.033 L3575.27 708.035 L3559.18 707.968 L3543.1 707.889 L3527.01 707.806 L3510.93 707.722 L3494.84 707.638 L3478.75 707.554 L3462.67 707.468 L3446.58 707.381 L3430.5 707.293 L3414.41 707.202 L3398.33 707.108 L3382.24 706.995 L3366.15 706.701 L3350.07 706.198 L3333.98 705.507 L3317.9 704.668 L3301.81 703.731 L3285.72 702.753 L3269.64 701.797 L3253.55 700.926 L3237.47 700.209 L3221.38 699.702 L3205.29 699.871 L3189.21 699.887 L3173.12 699.815 L3157.04 699.724 L3140.95 699.625 L3124.87 699.522 L3108.78 699.416 L3092.69 699.307 L3076.61 699.196 L3060.52 699.082 L3044.44 698.964 L3028.35 698.842 L3012.26 698.715 L2996.18 698.566 L2980.09 698.219 L2964.01 697.643 L2947.92 696.863 L2931.83 695.918 L2915.75 694.862 L2899.66 693.757 L2883.58 692.671 L2867.49 691.547 L2851.41 690.476 L2835.32 689.712 L2819.23 689.663 L2803.15 689.721 L2787.06 689.766 L2770.98 689.799 L2754.89 689.824 L2738.8 689.84 L2722.72 689.847 L2706.63 689.843 L2690.55 689.787 L2674.46 689.65 L2658.37 689.475 L2642.29 689.279 L2626.2 689.06 L2610.12 688.809 L2594.03 688.354 L2577.95 687.643 L2561.86 686.692 L2545.77 685.548 L2529.69 684.256 L2513.6 682.831 L2497.52 681.282 L2481.43 679.827 L2465.34 678.757 L2449.26 677.902 L2433.17 677.532 L2417.09 677.648 L2401 677.806 L2384.91 677.971 L2368.83 678.141 L2352.74 678.316 L2336.66 678.496 L2320.57 678.68 L2304.49 678.865 L2288.4 679.048 L2272.31 679.221 L2256.23 679.373 L2240.14 679.488 L2224.06 679.518 L2207.97 679.048 L2191.88 678.121 L2175.8 676.809 L2159.71 675.202 L2143.63 673.425 L2127.54 671.581 L2111.46 669.806 L2095.37 668.24 L2079.28 667.026 L2063.2 666.274 L2047.11 666.063 L2031.03 666.384 L2014.94 666.616 L1998.85 666.954 L1982.77 667.317 L1966.68 667.727 L1950.6 668.151 L1934.51 668.588 L1918.42 669.037 L1902.34 669.499 L1886.25 669.97 L1870.17 670.45 L1854.08 670.912 L1838 671.291 L1821.91 671.145 L1805.82 670.51 L1789.74 669.443 L1773.65 668.056 L1757.57 666.482 L1741.48 664.854 L1725.39 663.317 L1709.31 662.016 L1693.22 661.087 L1677.14 660.642 L1661.05 660.802 L1644.96 661.524 L1628.88 662.398 L1612.79 663.304 L1596.71 664.238 L1580.62 665.201 L1564.54 666.193 L1548.45 667.216 L1532.36 668.27 L1516.28 669.303 L1500.19 670.319 L1484.11 671.364 L1468.02 672.388 L1451.93 673.161 L1435.85 673.593 L1419.76 673.729 L1403.68 673.651 L1387.59 673.412 L1371.5 673.1 L1355.42 673.123 L1339.33 673.353 L1323.25 673.328 L1307.16 673.688 L1291.08 674.52 L1274.99 675.881 L1258.9 677.657 L1242.82 679.187 L1226.73 680.952 L1210.65 682.885 L1194.56 684.877 L1178.47 687.082 L1162.39 689.52 L1146.3 692.054 L1130.22 694.665 L1114.13 697.356 L1098.04 700.144 L1081.96 703.072 L1065.87 706.067 L1049.79 708.847 L1033.7 711.239 L1017.62 713.717 L1001.53 716.214 L985.444 718.876 L969.358 721.796 L953.272 724.854 L937.186 728.452 L921.1 732.256 L905.014 736.528 L888.928 754.121 L872.843 785.884 L856.757 794.119 L840.671 799.685 L824.585 805.231 L808.499 810.732 L792.413 816.435 L776.327 825.22  Z" fill="#414141" fill-rule="evenodd" fill-opacity="0.5"/>
<polyline clip-path="url(#clip282)" style="stroke:#414141; stroke-linecap:round; stroke-linejoin:round; stroke-width:0; stroke-opacity:1; fill:none" points="776.327,826.746 792.413,824.946 808.499,823.769 824.585,822.631 840.671,821.528 856.757,820.315 872.843,817.259 888.928,811.29 905.014,808.686 921.1,807.8 937.186,807.02 953.272,806.319 969.358,805.686 985.444,805.11 1001.53,804.577 1017.62,804.069 1033.7,803.567 1049.79,803.055 1065.87,802.516 1081.96,801.942 1098.04,801.366 1114.13,800.806 1130.22,800.262 1146.3,799.734 1162.39,799.222 1178.47,798.725 1194.56,798.242 1210.65,797.775 1226.73,797.322 1242.82,796.882 1258.9,796.461 1274.99,796.085 1291.08,795.812 1307.16,795.64 1323.25,795.56 1339.33,795.554 1355.42,795.602 1371.5,795.678 1387.59,795.758 1403.68,795.817 1419.76,795.832 1435.85,795.785 1451.93,795.66 1468.02,795.455 1484.11,795.222 1500.19,794.991 1516.28,794.766 1532.36,794.547 1548.45,794.334 1564.54,794.128 1580.62,793.927 1596.71,793.733 1612.79,793.545 1628.88,793.363 1644.96,793.191 1661.05,793.063 1677.14,793.04 1693.22,793.122 1709.31,793.296 1725.39,793.54 1741.48,793.83 1757.57,794.137 1773.65,794.435 1789.74,794.698 1805.82,794.904 1821.91,795.033 1838,795.073 1854.08,795.02 1870.17,794.931 1886.25,794.836 1902.34,794.743 1918.42,794.652 1934.51,794.563 1950.6,794.476 1966.68,794.392 1982.77,794.311 1998.85,794.232 2014.94,794.156 2031.03,794.087 2047.11,794.056 2063.2,794.122 2079.28,794.286 2095.37,794.534 2111.46,794.845 2127.54,795.195 2143.63,795.556 2159.71,795.903 2175.8,796.214 2191.88,796.471 2207.97,796.662 2224.06,796.772 2240.14,796.795 2256.23,796.777 2272.31,796.748 2288.4,796.714 2304.49,796.679 2320.57,796.643 2336.66,796.607 2352.74,796.573 2368.83,796.539 2384.91,796.506 2401,796.475 2417.09,796.448 2433.17,796.454 2449.26,796.545 2465.34,796.722 2481.43,796.966 2497.52,797.244 2513.6,797.527 2529.69,797.803 2545.77,798.063 2561.86,798.295 2577.95,798.491 2594.03,798.642 2610.12,798.744 2626.2,798.801 2642.29,798.844 2658.37,798.883 2674.46,798.917 2690.55,798.947 2706.63,798.97 2722.72,798.986 2738.8,798.995 2754.89,798.996 2770.98,798.992 2787.06,798.984 2803.15,798.969 2819.23,798.943 2835.32,799.01 2851.41,799.167 2867.49,799.363 2883.58,799.573 2899.66,799.792 2915.75,800.012 2931.83,800.222 2947.92,800.411 2964.01,800.57 2980.09,800.69 2996.18,800.768 3012.26,800.806 3028.35,800.833 3044.44,800.858 3060.52,800.882 3076.61,800.904 3092.69,800.926 3108.78,800.947 3124.87,800.968 3140.95,800.988 3157.04,801.007 3173.12,801.023 3189.21,801.028 3205.29,800.997 3221.38,801.026 3237.47,801.134 3253.55,801.281 3269.64,801.455 3285.72,801.645 3301.81,801.838 3317.9,802.023 3333.98,802.19 3350.07,802.33 3366.15,802.436 3382.24,802.502 3398.33,802.533 3414.41,802.554 3430.5,802.573 3446.58,802.591 3462.67,802.609 3478.75,802.626 3494.84,802.644 3510.93,802.661 3527.01,802.678 3543.1,802.695 3559.18,802.71 3575.27,802.716 3591.36,802.688 3607.44,802.708 3623.53,802.802 3639.61,802.935 3655.7,803.093 3671.79,803.267 3687.87,803.445 3703.96,803.616 3720.04,803.77 3736.13,803.899 3752.21,803.997 3768.3,804.058 3784.39,804.086 3800.47,804.105 3816.56,804.122 3832.64,804.138 3848.73,804.154 3864.82,804.17 3880.9,804.186 3896.99,804.202 3913.07,804.217 3929.16,804.233 3945.24,804.247 3961.33,804.253 3977.42,804.227 3993.5,804.244 4009.59,804.33 4025.67,804.453 4041.76,804.601 4057.85,804.763 4073.93,804.929 4090.02,805.089 4106.1,805.233 4122.19,805.354 4138.28,805.445 4154.36,805.502 4170.45,805.528 4186.53,805.545 4202.62,805.562 4218.7,805.577 4234.79,805.592 4250.88,805.607 4266.96,805.622 4283.05,805.637 4299.13,805.651 4315.22,805.666 4331.31,805.679 4347.39,805.685 4363.48,805.662 4379.56,805.676 4395.65,805.756 4411.74,805.871 4427.82,806.009 4443.91,806.16 4459.99,806.316 4476.08,806.465 4492.16,806.6 4508.25,806.713 4524.34,806.798 4540.42,806.852 4556.51,806.877 4572.59,806.893 4588.68,806.908 4604.77,806.923 4620.85,806.937 4636.94,806.951 "/>
<path clip-path="url(#clip280)" d="M3887.85 592.384 L4616.35 592.384 L4616.35 73.9845 L3887.85 73.9845  Z" fill="#ffffff" fill-rule="evenodd" fill-opacity="1"/>
<polyline clip-path="url(#clip280)" style="stroke:#000000; stroke-linecap:round; stroke-linejoin:round; stroke-width:4; stroke-opacity:1; fill:none" points="3887.85,592.384 4616.35,592.384 4616.35,73.9845 3887.85,73.9845 3887.85,592.384 "/>
<polyline clip-path="url(#clip280)" style="stroke:#aeaeae; stroke-linecap:round; stroke-linejoin:round; stroke-width:2; stroke-opacity:1; fill:none" points="3933.32,203.584 4206.14,203.584 "/>
<path clip-path="url(#clip280)" d="M4253.29 236.947 L4272.38 236.947 L4272.38 171.033 L4251.61 175.199 L4251.61 164.551 L4272.27 160.384 L4283.96 160.384 L4283.96 236.947 L4303.06 236.947 L4303.06 246.784 L4253.29 246.784 L4253.29 236.947 Z" fill="#000000" fill-rule="nonzero" fill-opacity="1" /><path clip-path="url(#clip280)" d="M4351.67 168.081 Q4342.64 168.081 4338.07 176.993 Q4333.55 185.847 4333.55 203.671 Q4333.55 221.437 4338.07 230.349 Q4342.64 239.203 4351.67 239.203 Q4360.75 239.203 4365.27 230.349 Q4369.84 221.437 4369.84 203.671 Q4369.84 185.847 4365.27 176.993 Q4360.75 168.081 4351.67 168.081 M4351.67 158.822 Q4366.19 158.822 4373.83 170.338 Q4381.53 181.796 4381.53 203.671 Q4381.53 225.488 4373.83 237.004 Q4366.19 248.463 4351.67 248.463 Q4337.14 248.463 4329.44 237.004 Q4321.81 225.488 4321.81 203.671 Q4321.81 181.796 4329.44 170.338 Q4337.14 158.822 4351.67 158.822 Z" fill="#000000" fill-rule="nonzero" fill-opacity="1" /><path clip-path="url(#clip280)" d="M4427.07 168.081 Q4418.04 168.081 4413.47 176.993 Q4408.96 185.847 4408.96 203.671 Q4408.96 221.437 4413.47 230.349 Q4418.04 239.203 4427.07 239.203 Q4436.16 239.203 4440.67 230.349 Q4445.24 221.437 4445.24 203.671 Q4445.24 185.847 4440.67 176.993 Q4436.16 168.081 4427.07 168.081 M4427.07 158.822 Q4441.6 158.822 4449.24 170.338 Q4456.93 181.796 4456.93 203.671 Q4456.93 225.488 4449.24 237.004 Q4441.6 248.463 4427.07 248.463 Q4412.55 248.463 4404.85 237.004 Q4397.21 225.488 4397.21 203.671 Q4397.21 181.796 4404.85 170.338 Q4412.55 158.822 4427.07 158.822 Z" fill="#000000" fill-rule="nonzero" fill-opacity="1" /><path clip-path="url(#clip280)" d="M4550.97 208.764 Q4545.94 208.764 4543.04 213.046 Q4540.21 217.329 4540.21 224.967 Q4540.21 232.491 4543.04 236.831 Q4545.94 241.113 4550.97 241.113 Q4555.89 241.113 4558.73 236.831 Q4561.62 232.491 4561.62 224.967 Q4561.62 217.386 4558.73 213.104 Q4555.89 208.764 4550.97 208.764 M4550.97 201.414 Q4560.11 201.414 4565.5 207.78 Q4570.88 214.146 4570.88 224.967 Q4570.88 235.789 4565.44 242.155 Q4560.06 248.463 4550.97 248.463 Q4541.71 248.463 4536.33 242.155 Q4530.95 235.789 4530.95 224.967 Q4530.95 214.088 4536.33 207.78 Q4541.77 201.414 4550.97 201.414 M4491.25 166.171 Q4486.27 166.171 4483.38 170.512 Q4480.54 174.794 4480.54 182.317 Q4480.54 189.956 4483.38 194.238 Q4486.21 198.521 4491.25 198.521 Q4496.28 198.521 4499.12 194.238 Q4502.01 189.956 4502.01 182.317 Q4502.01 174.852 4499.12 170.512 Q4496.23 166.171 4491.25 166.171 M4543.51 158.822 L4552.76 158.822 L4498.71 248.463 L4489.46 248.463 L4543.51 158.822 M4491.25 158.822 Q4500.39 158.822 4505.83 165.188 Q4511.27 171.496 4511.27 182.317 Q4511.27 193.255 4505.83 199.563 Q4500.45 205.87 4491.25 205.87 Q4482.05 205.87 4476.67 199.563 Q4471.34 193.197 4471.34 182.317 Q4471.34 171.553 4476.72 165.188 Q4482.11 158.822 4491.25 158.822 Z" fill="#000000" fill-rule="nonzero" fill-opacity="1" /><polyline clip-path="url(#clip280)" style="stroke:#757575; stroke-linecap:round; stroke-linejoin:round; stroke-width:2; stroke-opacity:1; fill:none" points="3933.32,333.184 4206.14,333.184 "/>
<path clip-path="url(#clip280)" d="M4257.16 374.591 L4257.16 363.942 Q4261.56 366.026 4266.08 367.125 Q4270.59 368.225 4274.93 368.225 Q4286.5 368.225 4292.58 360.47 Q4298.72 352.658 4299.58 336.801 Q4296.23 341.778 4291.08 344.44 Q4285.93 347.102 4279.68 347.102 Q4266.71 347.102 4259.13 339.29 Q4251.61 331.419 4251.61 317.82 Q4251.61 304.51 4259.48 296.466 Q4267.35 288.422 4280.43 288.422 Q4295.42 288.422 4303.29 299.938 Q4311.22 311.396 4311.22 333.271 Q4311.22 353.699 4301.49 365.91 Q4291.83 378.063 4275.45 378.063 Q4271.05 378.063 4266.54 377.195 Q4262.03 376.327 4257.16 374.591 M4280.43 337.959 Q4288.3 337.959 4292.87 332.577 Q4297.5 327.195 4297.5 317.82 Q4297.5 308.503 4292.87 303.121 Q4288.3 297.681 4280.43 297.681 Q4272.56 297.681 4267.93 303.121 Q4263.36 308.503 4263.36 317.82 Q4263.36 327.195 4267.93 332.577 Q4272.56 337.959 4280.43 337.959 Z" fill="#000000" fill-rule="nonzero" fill-opacity="1" /><path clip-path="url(#clip280)" d="M4357.22 297.681 Q4348.19 297.681 4343.62 306.593 Q4339.11 315.447 4339.11 333.271 Q4339.11 351.037 4343.62 359.949 Q4348.19 368.803 4357.22 368.803 Q4366.31 368.803 4370.82 359.949 Q4375.39 351.037 4375.39 333.271 Q4375.39 315.447 4370.82 306.593 Q4366.31 297.681 4357.22 297.681 M4357.22 288.422 Q4371.75 288.422 4379.39 299.938 Q4387.08 311.396 4387.08 333.271 Q4387.08 355.088 4379.39 366.604 Q4371.75 378.063 4357.22 378.063 Q4342.7 378.063 4335 366.604 Q4327.36 355.088 4327.36 333.271 Q4327.36 311.396 4335 299.938 Q4342.7 288.422 4357.22 288.422 Z" fill="#000000" fill-rule="nonzero" fill-opacity="1" /><path clip-path="url(#clip280)" d="M4481.12 338.364 Q4476.09 338.364 4473.19 342.646 Q4470.36 346.929 4470.36 354.567 Q4470.36 362.091 4473.19 366.431 Q4476.09 370.713 4481.12 370.713 Q4486.04 370.713 4488.88 366.431 Q4491.77 362.091 4491.77 354.567 Q4491.77 346.986 4488.88 342.704 Q4486.04 338.364 4481.12 338.364 M4481.12 331.014 Q4490.27 331.014 4495.65 337.38 Q4501.03 343.746 4501.03 354.567 Q4501.03 365.389 4495.59 371.755 Q4490.21 378.063 4481.12 378.063 Q4471.86 378.063 4466.48 371.755 Q4461.1 365.389 4461.1 354.567 Q4461.1 343.688 4466.48 337.38 Q4471.92 331.014 4481.12 331.014 M4421.4 295.771 Q4416.42 295.771 4413.53 300.112 Q4410.69 304.394 4410.69 311.917 Q4410.69 319.556 4413.53 323.838 Q4416.37 328.121 4421.4 328.121 Q4426.43 328.121 4429.27 323.838 Q4432.16 319.556 4432.16 311.917 Q4432.16 304.452 4429.27 300.112 Q4426.38 295.771 4421.4 295.771 M4473.66 288.422 L4482.92 288.422 L4428.87 378.063 L4419.61 378.063 L4473.66 288.422 M4421.4 288.422 Q4430.54 288.422 4435.98 294.788 Q4441.42 301.096 4441.42 311.917 Q4441.42 322.855 4435.98 329.163 Q4430.6 335.47 4421.4 335.47 Q4412.2 335.47 4406.82 329.163 Q4401.49 322.797 4401.49 311.917 Q4401.49 301.153 4406.87 294.788 Q4412.26 288.422 4421.4 288.422 Z" fill="#000000" fill-rule="nonzero" fill-opacity="1" /><polyline clip-path="url(#clip280)" style="stroke:#414141; stroke-linecap:round; stroke-linejoin:round; stroke-width:2; stroke-opacity:1; fill:none" points="3933.32,462.784 4206.14,462.784 "/>
<path clip-path="url(#clip280)" d="M4281.24 464.955 Q4272.91 464.955 4268.1 469.411 Q4263.36 473.867 4263.36 481.679 Q4263.36 489.492 4268.1 493.947 Q4272.91 498.403 4281.24 498.403 Q4289.57 498.403 4294.38 493.947 Q4299.18 489.434 4299.18 481.679 Q4299.18 473.867 4294.38 469.411 Q4289.63 464.955 4281.24 464.955 M4269.55 459.978 Q4262.03 458.126 4257.8 452.975 Q4253.63 447.825 4253.63 440.418 Q4253.63 430.059 4260.98 424.04 Q4268.39 418.022 4281.24 418.022 Q4294.14 418.022 4301.49 424.04 Q4308.84 430.059 4308.84 440.418 Q4308.84 447.825 4304.62 452.975 Q4300.45 458.126 4292.99 459.978 Q4301.44 461.945 4306.12 467.674 Q4310.87 473.404 4310.87 481.679 Q4310.87 494.237 4303.17 500.95 Q4295.53 507.663 4281.24 507.663 Q4266.94 507.663 4259.25 500.95 Q4251.61 494.237 4251.61 481.679 Q4251.61 473.404 4256.35 467.674 Q4261.1 461.945 4269.55 459.978 M4265.27 441.517 Q4265.27 448.23 4269.43 451.992 Q4273.66 455.753 4281.24 455.753 Q4288.76 455.753 4292.99 451.992 Q4297.27 448.23 4297.27 441.517 Q4297.27 434.804 4292.99 431.043 Q4288.76 427.281 4281.24 427.281 Q4273.66 427.281 4269.43 431.043 Q4265.27 434.804 4265.27 441.517 Z" fill="#000000" fill-rule="nonzero" fill-opacity="1" /><path clip-path="url(#clip280)" d="M4356.64 427.281 Q4347.62 427.281 4343.04 436.193 Q4338.53 445.047 4338.53 462.871 Q4338.53 480.637 4343.04 489.549 Q4347.62 498.403 4356.64 498.403 Q4365.73 498.403 4370.24 489.549 Q4374.81 480.637 4374.81 462.871 Q4374.81 445.047 4370.24 436.193 Q4365.73 427.281 4356.64 427.281 M4356.64 418.022 Q4371.17 418.022 4378.81 429.538 Q4386.5 440.996 4386.5 462.871 Q4386.5 484.688 4378.81 496.204 Q4371.17 507.663 4356.64 507.663 Q4342.12 507.663 4334.42 496.204 Q4326.78 484.688 4326.78 462.871 Q4326.78 440.996 4334.42 429.538 Q4342.12 418.022 4356.64 418.022 Z" fill="#000000" fill-rule="nonzero" fill-opacity="1" /><path clip-path="url(#clip280)" d="M4480.54 467.964 Q4475.51 467.964 4472.61 472.246 Q4469.78 476.529 4469.78 484.167 Q4469.78 491.691 4472.61 496.031 Q4475.51 500.313 4480.54 500.313 Q4485.46 500.313 4488.3 496.031 Q4491.19 491.691 4491.19 484.167 Q4491.19 476.586 4488.3 472.304 Q4485.46 467.964 4480.54 467.964 M4480.54 460.614 Q4489.69 460.614 4495.07 466.98 Q4500.45 473.346 4500.45 484.167 Q4500.45 494.989 4495.01 501.355 Q4489.63 507.663 4480.54 507.663 Q4471.28 507.663 4465.9 501.355 Q4460.52 494.989 4460.52 484.167 Q4460.52 473.288 4465.9 466.98 Q4471.34 460.614 4480.54 460.614 M4420.82 425.371 Q4415.84 425.371 4412.95 429.712 Q4410.12 433.994 4410.12 441.517 Q4410.12 449.156 4412.95 453.438 Q4415.79 457.721 4420.82 457.721 Q4425.86 457.721 4428.69 453.438 Q4431.59 449.156 4431.59 441.517 Q4431.59 434.052 4428.69 429.712 Q4425.8 425.371 4420.82 425.371 M4473.08 418.022 L4482.34 418.022 L4428.29 507.663 L4419.03 507.663 L4473.08 418.022 M4420.82 418.022 Q4429.96 418.022 4435.4 424.388 Q4440.84 430.696 4440.84 441.517 Q4440.84 452.455 4435.4 458.763 Q4430.02 465.07 4420.82 465.07 Q4411.62 465.07 4406.24 458.763 Q4400.91 452.397 4400.91 441.517 Q4400.91 430.753 4406.3 424.388 Q4411.68 418.022 4420.82 418.022 Z" fill="#000000" fill-rule="nonzero" fill-opacity="1" /></svg>
