<?xml version="1.0" encoding="utf-8"?>
<svg xmlns="http://www.w3.org/2000/svg" xmlns:xlink="http://www.w3.org/1999/xlink" width="1200" height="300" viewBox="0 0 4800 1200">
<defs>
  <clipPath id="clip960">
    <rect x="0" y="0" width="4800" height="1200"/>
  </clipPath>
</defs>
<path clip-path="url(#clip960)" d="M0 1200 L4800 1200 L4800 0 L0 0  Z" fill="#ffffff" fill-rule="evenodd" fill-opacity="1"/>
<defs>
  <clipPath id="clip961">
    <rect x="960" y="0" width="3361" height="1200"/>
  </clipPath>
</defs>
<path clip-path="url(#clip960)" d="M404.977 880.951 L4752.76 880.951 L4752.76 47.2441 L404.977 47.2441  Z" fill="#ffffff" fill-rule="evenodd" fill-opacity="1"/>
<defs>
  <clipPath id="clip962">
    <rect x="404" y="47" width="4349" height="835"/>
  </clipPath>
</defs>
<polyline clip-path="url(#clip962)" style="stroke:#000000; stroke-linecap:round; stroke-linejoin:round; stroke-width:2; stroke-opacity:0.1; fill:none" points="528.028,880.951 528.028,47.2441 "/>
<polyline clip-path="url(#clip962)" style="stroke:#000000; stroke-linecap:round; stroke-linejoin:round; stroke-width:2; stroke-opacity:0.1; fill:none" points="1348.36,880.951 1348.36,47.2441 "/>
<polyline clip-path="url(#clip962)" style="stroke:#000000; stroke-linecap:round; stroke-linejoin:round; stroke-width:2; stroke-opacity:0.1; fill:none" points="2168.7,880.951 2168.7,47.2441 "/>
<polyline clip-path="url(#clip962)" style="stroke:#000000; stroke-linecap:round; stroke-linejoin:round; stroke-width:2; stroke-opacity:0.1; fill:none" points="2989.03,880.951 2989.03,47.2441 "/>
<polyline clip-path="url(#clip962)" style="stroke:#000000; stroke-linecap:round; stroke-linejoin:round; stroke-width:2; stroke-opacity:0.1; fill:none" points="3809.37,880.951 3809.37,47.2441 "/>
<polyline clip-path="url(#clip962)" style="stroke:#000000; stroke-linecap:round; stroke-linejoin:round; stroke-width:2; stroke-opacity:0.1; fill:none" points="4629.71,880.951 4629.71,47.2441 "/>
<polyline clip-path="url(#clip962)" style="stroke:#000000; stroke-linecap:round; stroke-linejoin:round; stroke-width:2; stroke-opacity:0.1; fill:none" points="404.977,723.189 4752.76,723.189 "/>
<polyline clip-path="url(#clip962)" style="stroke:#000000; stroke-linecap:round; stroke-linejoin:round; stroke-width:2; stroke-opacity:0.1; fill:none" points="404.977,546.263 4752.76,546.263 "/>
<polyline clip-path="url(#clip962)" style="stroke:#000000; stroke-linecap:round; stroke-linejoin:round; stroke-width:2; stroke-opacity:0.1; fill:none" points="404.977,369.337 4752.76,369.337 "/>
<polyline clip-path="url(#clip962)" style="stroke:#000000; stroke-linecap:round; stroke-linejoin:round; stroke-width:2; stroke-opacity:0.1; fill:none" points="404.977,192.411 4752.76,192.411 "/>
<polyline clip-path="url(#clip960)" style="stroke:#000000; stroke-linecap:round; stroke-linejoin:round; stroke-width:4; stroke-opacity:1; fill:none" points="404.977,880.951 4752.76,880.951 "/>
<polyline clip-path="url(#clip960)" style="stroke:#000000; stroke-linecap:round; stroke-linejoin:round; stroke-width:4; stroke-opacity:1; fill:none" points="528.028,880.951 528.028,862.054 "/>
<polyline clip-path="url(#clip960)" style="stroke:#000000; stroke-linecap:round; stroke-linejoin:round; stroke-width:4; stroke-opacity:1; fill:none" points="1348.36,880.951 1348.36,862.054 "/>
<polyline clip-path="url(#clip960)" style="stroke:#000000; stroke-linecap:round; stroke-linejoin:round; stroke-width:4; stroke-opacity:1; fill:none" points="2168.7,880.951 2168.7,862.054 "/>
<polyline clip-path="url(#clip960)" style="stroke:#000000; stroke-linecap:round; stroke-linejoin:round; stroke-width:4; stroke-opacity:1; fill:none" points="2989.03,880.951 2989.03,862.054 "/>
<polyline clip-path="url(#clip960)" style="stroke:#000000; stroke-linecap:round; stroke-linejoin:round; stroke-width:4; stroke-opacity:1; fill:none" points="3809.37,880.951 3809.37,862.054 "/>
<polyline clip-path="url(#clip960)" style="stroke:#000000; stroke-linecap:round; stroke-linejoin:round; stroke-width:4; stroke-opacity:1; fill:none" points="4629.71,880.951 4629.71,862.054 "/>
<path clip-path="url(#clip960)" d="M528.028 942.789 Q520.806 942.789 517.148 949.918 Q513.537 957.002 513.537 971.261 Q513.537 985.474 517.148 992.603 Q520.806 999.687 528.028 999.687 Q535.296 999.687 538.907 992.603 Q542.565 985.474 542.565 971.261 Q542.565 957.002 538.907 949.918 Q535.296 942.789 528.028 942.789 M528.028 935.382 Q539.648 935.382 545.759 944.594 Q551.916 953.761 551.916 971.261 Q551.916 988.715 545.759 997.927 Q539.648 1007.09 528.028 1007.09 Q516.407 1007.09 510.25 997.927 Q504.139 988.715 504.139 971.261 Q504.139 953.761 510.25 944.594 Q516.407 935.382 528.028 935.382 Z" fill="#000000" fill-rule="nonzero" fill-opacity="1" /><path clip-path="url(#clip960)" d="M1337.67 997.881 L1370.31 997.881 L1370.31 1005.75 L1326.42 1005.75 L1326.42 997.881 Q1331.74 992.372 1340.91 983.113 Q1350.12 973.807 1352.48 971.122 Q1356.97 966.076 1358.73 962.604 Q1360.54 959.085 1360.54 955.705 Q1360.54 950.196 1356.65 946.724 Q1352.81 943.252 1346.6 943.252 Q1342.21 943.252 1337.3 944.78 Q1332.44 946.307 1326.88 949.409 L1326.88 939.965 Q1332.53 937.696 1337.44 936.539 Q1342.34 935.382 1346.42 935.382 Q1357.16 935.382 1363.55 940.752 Q1369.94 946.122 1369.94 955.104 Q1369.94 959.363 1368.32 963.205 Q1366.74 967.002 1362.53 972.187 Q1361.37 973.529 1355.17 979.965 Q1348.97 986.353 1337.67 997.881 Z" fill="#000000" fill-rule="nonzero" fill-opacity="1" /><path clip-path="url(#clip960)" d="M2174.72 944.78 L2151.11 981.678 L2174.72 981.678 L2174.72 944.78 M2172.26 936.631 L2184.02 936.631 L2184.02 981.678 L2193.88 981.678 L2193.88 989.455 L2184.02 989.455 L2184.02 1005.75 L2174.72 1005.75 L2174.72 989.455 L2143.51 989.455 L2143.51 980.428 L2172.26 936.631 Z" fill="#000000" fill-rule="nonzero" fill-opacity="1" /><path clip-path="url(#clip960)" d="M2989.84 967.465 Q2983.55 967.465 2979.84 971.77 Q2976.19 976.076 2976.19 983.576 Q2976.19 991.029 2979.84 995.381 Q2983.55 999.687 2989.84 999.687 Q2996.14 999.687 2999.8 995.381 Q3003.5 991.029 3003.5 983.576 Q3003.5 976.076 2999.8 971.77 Q2996.14 967.465 2989.84 967.465 M3008.41 938.159 L3008.41 946.678 Q3004.89 945.011 3001.28 944.131 Q2997.71 943.252 2994.2 943.252 Q2984.94 943.252 2980.03 949.502 Q2975.17 955.752 2974.47 968.391 Q2977.21 964.363 2981.33 962.233 Q2985.45 960.057 2990.4 960.057 Q3000.82 960.057 3006.84 966.4 Q3012.9 972.696 3012.9 983.576 Q3012.9 994.224 3006.6 1000.66 Q3000.31 1007.09 2989.84 1007.09 Q2977.85 1007.09 2971.51 997.927 Q2965.17 988.715 2965.17 971.261 Q2965.17 954.872 2972.95 945.15 Q2980.72 935.382 2993.83 935.382 Q2997.34 935.382 3000.91 936.076 Q3004.52 936.77 3008.41 938.159 Z" fill="#000000" fill-rule="nonzero" fill-opacity="1" /><path clip-path="url(#clip960)" d="M3809.37 972.928 Q3802.7 972.928 3798.86 976.492 Q3795.06 980.057 3795.06 986.307 Q3795.06 992.557 3798.86 996.122 Q3802.7 999.687 3809.37 999.687 Q3816.04 999.687 3819.88 996.122 Q3823.72 992.511 3823.72 986.307 Q3823.72 980.057 3819.88 976.492 Q3816.08 972.928 3809.37 972.928 M3800.02 968.946 Q3794 967.465 3790.62 963.344 Q3787.29 959.224 3787.29 953.298 Q3787.29 945.011 3793.17 940.196 Q3799.09 935.382 3809.37 935.382 Q3819.69 935.382 3825.57 940.196 Q3831.45 945.011 3831.45 953.298 Q3831.45 959.224 3828.07 963.344 Q3824.74 967.465 3818.77 968.946 Q3825.53 970.52 3829.28 975.104 Q3833.07 979.687 3833.07 986.307 Q3833.07 996.353 3826.92 1001.72 Q3820.81 1007.09 3809.37 1007.09 Q3797.93 1007.09 3791.78 1001.72 Q3785.67 996.353 3785.67 986.307 Q3785.67 979.687 3789.46 975.104 Q3793.26 970.52 3800.02 968.946 M3796.59 954.178 Q3796.59 959.548 3799.93 962.557 Q3803.31 965.567 3809.37 965.567 Q3815.39 965.567 3818.77 962.557 Q3822.19 959.548 3822.19 954.178 Q3822.19 948.807 3818.77 945.798 Q3815.39 942.789 3809.37 942.789 Q3803.31 942.789 3799.93 945.798 Q3796.59 948.807 3796.59 954.178 Z" fill="#000000" fill-rule="nonzero" fill-opacity="1" /><path clip-path="url(#clip960)" d="M4579.08 997.881 L4594.36 997.881 L4594.36 945.15 L4577.74 948.483 L4577.74 939.965 L4594.27 936.631 L4603.62 936.631 L4603.62 997.881 L4618.9 997.881 L4618.9 1005.75 L4579.08 1005.75 L4579.08 997.881 Z" fill="#000000" fill-rule="nonzero" fill-opacity="1" /><path clip-path="url(#clip960)" d="M4657.78 942.789 Q4650.56 942.789 4646.9 949.918 Q4643.29 957.002 4643.29 971.261 Q4643.29 985.474 4646.9 992.603 Q4650.56 999.687 4657.78 999.687 Q4665.05 999.687 4668.66 992.603 Q4672.32 985.474 4672.32 971.261 Q4672.32 957.002 4668.66 949.918 Q4665.05 942.789 4657.78 942.789 M4657.78 935.382 Q4669.4 935.382 4675.52 944.594 Q4681.67 953.761 4681.67 971.261 Q4681.67 988.715 4675.52 997.927 Q4669.4 1007.09 4657.78 1007.09 Q4646.16 1007.09 4640.01 997.927 Q4633.9 988.715 4633.9 971.261 Q4633.9 953.761 4640.01 944.594 Q4646.16 935.382 4657.78 935.382 Z" fill="#000000" fill-rule="nonzero" fill-opacity="1" /><path clip-path="url(#clip960)" d="M2296.11 1072.18 L2361.89 1072.18 L2361.89 1081.04 L2334.28 1081.04 L2334.28 1149.94 L2323.71 1149.94 L2323.71 1081.04 L2296.11 1081.04 L2296.11 1072.18 Z" fill="#000000" fill-rule="nonzero" fill-opacity="1" /><path clip-path="url(#clip960)" d="M2368.35 1091.61 L2377.93 1091.61 L2377.93 1149.94 L2368.35 1149.94 L2368.35 1091.61 M2368.35 1068.9 L2377.93 1068.9 L2377.93 1081.04 L2368.35 1081.04 L2368.35 1068.9 Z" fill="#000000" fill-rule="nonzero" fill-opacity="1" /><path clip-path="url(#clip960)" d="M2443.4 1102.81 Q2446.99 1096.35 2451.99 1093.28 Q2456.99 1090.2 2463.76 1090.2 Q2472.88 1090.2 2477.83 1096.61 Q2482.77 1102.96 2482.77 1114.74 L2482.77 1149.94 L2473.14 1149.94 L2473.14 1115.05 Q2473.14 1106.66 2470.17 1102.6 Q2467.2 1098.54 2461.11 1098.54 Q2453.66 1098.54 2449.34 1103.49 Q2445.01 1108.43 2445.01 1116.97 L2445.01 1149.94 L2435.38 1149.94 L2435.38 1115.05 Q2435.38 1106.61 2432.41 1102.6 Q2429.44 1098.54 2423.24 1098.54 Q2415.9 1098.54 2411.58 1103.54 Q2407.25 1108.49 2407.25 1116.97 L2407.25 1149.94 L2397.62 1149.94 L2397.62 1091.61 L2407.25 1091.61 L2407.25 1100.67 Q2410.53 1095.31 2415.12 1092.76 Q2419.7 1090.2 2426 1090.2 Q2432.36 1090.2 2436.78 1093.43 Q2441.26 1096.66 2443.4 1102.81 Z" fill="#000000" fill-rule="nonzero" fill-opacity="1" /><path clip-path="url(#clip960)" d="M2551.78 1118.38 L2551.78 1123.07 L2507.72 1123.07 Q2508.35 1132.96 2513.66 1138.17 Q2519.02 1143.33 2528.55 1143.33 Q2534.08 1143.33 2539.23 1141.97 Q2544.44 1140.62 2549.54 1137.91 L2549.54 1146.97 Q2544.39 1149.16 2538.97 1150.31 Q2533.55 1151.45 2527.98 1151.45 Q2514.02 1151.45 2505.85 1143.33 Q2497.72 1135.2 2497.72 1121.35 Q2497.72 1107.03 2505.43 1098.64 Q2513.19 1090.2 2526.31 1090.2 Q2538.09 1090.2 2544.91 1097.81 Q2551.78 1105.36 2551.78 1118.38 M2542.2 1115.57 Q2542.1 1107.7 2537.77 1103.02 Q2533.5 1098.33 2526.42 1098.33 Q2518.4 1098.33 2513.55 1102.86 Q2508.76 1107.39 2508.03 1115.62 L2542.2 1115.57 Z" fill="#000000" fill-rule="nonzero" fill-opacity="1" /><path clip-path="url(#clip960)" d="M2624.44 1069.01 Q2617.46 1080.99 2614.07 1092.7 Q2610.69 1104.42 2610.69 1116.45 Q2610.69 1128.49 2614.07 1140.31 Q2617.51 1152.08 2624.44 1164.01 L2616.11 1164.01 Q2608.29 1151.77 2604.39 1139.94 Q2600.53 1128.12 2600.53 1116.45 Q2600.53 1104.84 2604.39 1093.07 Q2608.24 1081.3 2616.11 1069.01 L2624.44 1069.01 Z" fill="#000000" fill-rule="nonzero" fill-opacity="1" /><path clip-path="url(#clip960)" d="M2681.42 1100.46 L2681.42 1068.9 L2691 1068.9 L2691 1149.94 L2681.42 1149.94 L2681.42 1141.19 Q2678.4 1146.4 2673.76 1148.95 Q2669.18 1151.45 2662.72 1151.45 Q2652.15 1151.45 2645.48 1143.02 Q2638.87 1134.58 2638.87 1120.83 Q2638.87 1107.08 2645.48 1098.64 Q2652.15 1090.2 2662.72 1090.2 Q2669.18 1090.2 2673.76 1092.76 Q2678.4 1095.26 2681.42 1100.46 M2648.76 1120.83 Q2648.76 1131.4 2653.08 1137.44 Q2657.46 1143.43 2665.06 1143.43 Q2672.67 1143.43 2677.04 1137.44 Q2681.42 1131.4 2681.42 1120.83 Q2681.42 1110.26 2677.04 1104.27 Q2672.67 1098.23 2665.06 1098.23 Q2657.46 1098.23 2653.08 1104.27 Q2648.76 1110.26 2648.76 1120.83 Z" fill="#000000" fill-rule="nonzero" fill-opacity="1" /><path clip-path="url(#clip960)" d="M2737.25 1120.62 Q2725.64 1120.62 2721.16 1123.28 Q2716.68 1125.93 2716.68 1132.34 Q2716.68 1137.44 2720.01 1140.46 Q2723.4 1143.43 2729.18 1143.43 Q2737.15 1143.43 2741.94 1137.81 Q2746.78 1132.13 2746.78 1122.76 L2746.78 1120.62 L2737.25 1120.62 M2756.37 1116.66 L2756.37 1149.94 L2746.78 1149.94 L2746.78 1141.09 Q2743.5 1146.4 2738.61 1148.95 Q2733.71 1151.45 2726.63 1151.45 Q2717.67 1151.45 2712.36 1146.45 Q2707.1 1141.4 2707.1 1132.96 Q2707.1 1123.12 2713.66 1118.12 Q2720.27 1113.12 2733.34 1113.12 L2746.78 1113.12 L2746.78 1112.18 Q2746.78 1105.57 2742.41 1101.98 Q2738.08 1098.33 2730.22 1098.33 Q2725.22 1098.33 2720.48 1099.53 Q2715.74 1100.73 2711.37 1103.12 L2711.37 1094.27 Q2716.63 1092.24 2721.57 1091.25 Q2726.52 1090.2 2731.21 1090.2 Q2743.87 1090.2 2750.12 1096.77 Q2756.37 1103.33 2756.37 1116.66 Z" fill="#000000" fill-rule="nonzero" fill-opacity="1" /><path clip-path="url(#clip960)" d="M2800.38 1155.36 Q2796.31 1165.78 2792.46 1168.95 Q2788.61 1172.13 2782.15 1172.13 L2774.49 1172.13 L2774.49 1164.11 L2780.12 1164.11 Q2784.07 1164.11 2786.26 1162.24 Q2788.45 1160.36 2791.11 1153.38 L2792.82 1149.01 L2769.23 1091.61 L2779.39 1091.61 L2797.62 1137.24 L2815.84 1091.61 L2826 1091.61 L2800.38 1155.36 Z" fill="#000000" fill-rule="nonzero" fill-opacity="1" /><path clip-path="url(#clip960)" d="M2837.72 1069.01 L2846.05 1069.01 Q2853.87 1081.3 2857.72 1093.07 Q2861.63 1104.84 2861.63 1116.45 Q2861.63 1128.12 2857.72 1139.94 Q2853.87 1151.77 2846.05 1164.01 L2837.72 1164.01 Q2844.65 1152.08 2848.03 1140.31 Q2851.47 1128.49 2851.47 1116.45 Q2851.47 1104.42 2848.03 1092.7 Q2844.65 1080.99 2837.72 1069.01 Z" fill="#000000" fill-rule="nonzero" fill-opacity="1" /><polyline clip-path="url(#clip960)" style="stroke:#000000; stroke-linecap:round; stroke-linejoin:round; stroke-width:4; stroke-opacity:1; fill:none" points="404.977,880.951 404.977,47.2441 "/>
<polyline clip-path="url(#clip960)" style="stroke:#000000; stroke-linecap:round; stroke-linejoin:round; stroke-width:4; stroke-opacity:1; fill:none" points="404.977,723.189 423.875,723.189 "/>
<polyline clip-path="url(#clip960)" style="stroke:#000000; stroke-linecap:round; stroke-linejoin:round; stroke-width:4; stroke-opacity:1; fill:none" points="404.977,546.263 423.875,546.263 "/>
<polyline clip-path="url(#clip960)" style="stroke:#000000; stroke-linecap:round; stroke-linejoin:round; stroke-width:4; stroke-opacity:1; fill:none" points="404.977,369.337 423.875,369.337 "/>
<polyline clip-path="url(#clip960)" style="stroke:#000000; stroke-linecap:round; stroke-linejoin:round; stroke-width:4; stroke-opacity:1; fill:none" points="404.977,192.411 423.875,192.411 "/>
<path clip-path="url(#clip960)" d="M151.219 724.092 L210.571 724.092 L210.571 731.962 L151.219 731.962 L151.219 724.092 Z" fill="#000000" fill-rule="nonzero" fill-opacity="1" /><path clip-path="url(#clip960)" d="M228.395 688.629 L272.839 688.629 L272.839 692.61 L247.746 757.749 L237.978 757.749 L261.589 696.499 L228.395 696.499 L228.395 688.629 Z" fill="#000000" fill-rule="nonzero" fill-opacity="1" /><path clip-path="url(#clip960)" d="M291.172 688.629 L327.885 688.629 L327.885 696.499 L299.737 696.499 L299.737 713.444 Q301.774 712.749 303.811 712.425 Q305.848 712.055 307.885 712.055 Q319.459 712.055 326.218 718.397 Q332.977 724.74 332.977 735.573 Q332.977 746.73 326.033 752.934 Q319.089 759.091 306.45 759.091 Q302.098 759.091 297.561 758.351 Q293.07 757.61 288.255 756.128 L288.255 746.73 Q292.422 748.999 296.866 750.11 Q301.311 751.221 306.265 751.221 Q314.274 751.221 318.95 747.008 Q323.626 742.795 323.626 735.573 Q323.626 728.351 318.95 724.138 Q314.274 719.925 306.265 719.925 Q302.515 719.925 298.765 720.758 Q295.061 721.592 291.172 723.351 L291.172 688.629 Z" fill="#000000" fill-rule="nonzero" fill-opacity="1" /><path clip-path="url(#clip960)" d="M149.228 547.166 L208.58 547.166 L208.58 555.036 L149.228 555.036 L149.228 547.166 Z" fill="#000000" fill-rule="nonzero" fill-opacity="1" /><path clip-path="url(#clip960)" d="M228.858 511.703 L265.57 511.703 L265.57 519.573 L237.422 519.573 L237.422 536.518 Q239.459 535.823 241.496 535.499 Q243.533 535.129 245.57 535.129 Q257.144 535.129 263.904 541.471 Q270.663 547.814 270.663 558.647 Q270.663 569.805 263.718 576.008 Q256.774 582.166 244.135 582.166 Q239.783 582.166 235.246 581.425 Q230.756 580.684 225.941 579.203 L225.941 569.805 Q230.108 572.073 234.552 573.184 Q238.996 574.295 243.95 574.295 Q251.959 574.295 256.635 570.082 Q261.311 565.869 261.311 558.647 Q261.311 551.425 256.635 547.212 Q251.959 542.999 243.95 542.999 Q240.2 542.999 236.45 543.832 Q232.746 544.666 228.858 546.425 L228.858 511.703 Z" fill="#000000" fill-rule="nonzero" fill-opacity="1" /><path clip-path="url(#clip960)" d="M309.089 517.86 Q301.866 517.86 298.209 524.99 Q294.598 532.073 294.598 546.332 Q294.598 560.545 298.209 567.675 Q301.866 574.758 309.089 574.758 Q316.357 574.758 319.968 567.675 Q323.626 560.545 323.626 546.332 Q323.626 532.073 319.968 524.99 Q316.357 517.86 309.089 517.86 M309.089 510.453 Q320.709 510.453 326.82 519.666 Q332.977 528.833 332.977 546.332 Q332.977 563.786 326.82 572.999 Q320.709 582.166 309.089 582.166 Q297.468 582.166 291.311 572.999 Q285.2 563.786 285.2 546.332 Q285.2 528.833 291.311 519.666 Q297.468 510.453 309.089 510.453 Z" fill="#000000" fill-rule="nonzero" fill-opacity="1" /><path clip-path="url(#clip960)" d="M151.219 370.24 L210.571 370.24 L210.571 378.11 L151.219 378.11 L151.219 370.24 Z" fill="#000000" fill-rule="nonzero" fill-opacity="1" /><path clip-path="url(#clip960)" d="M238.811 396.027 L271.45 396.027 L271.45 403.897 L227.561 403.897 L227.561 396.027 Q232.885 390.518 242.052 381.258 Q251.265 371.953 253.626 369.268 Q258.117 364.221 259.876 360.749 Q261.681 357.231 261.681 353.851 Q261.681 348.342 257.793 344.87 Q253.95 341.397 247.746 341.397 Q243.348 341.397 238.441 342.925 Q233.58 344.453 228.024 347.555 L228.024 338.11 Q233.672 335.842 238.58 334.685 Q243.487 333.527 247.561 333.527 Q258.302 333.527 264.691 338.897 Q271.08 344.268 271.08 353.249 Q271.08 357.508 269.459 361.351 Q267.885 365.147 263.672 370.332 Q262.515 371.675 256.311 378.11 Q250.107 384.499 238.811 396.027 Z" fill="#000000" fill-rule="nonzero" fill-opacity="1" /><path clip-path="url(#clip960)" d="M291.172 334.777 L327.885 334.777 L327.885 342.647 L299.737 342.647 L299.737 359.592 Q301.774 358.897 303.811 358.573 Q305.848 358.203 307.885 358.203 Q319.459 358.203 326.218 364.545 Q332.977 370.888 332.977 381.721 Q332.977 392.879 326.033 399.082 Q319.089 405.24 306.45 405.24 Q302.098 405.24 297.561 404.499 Q293.07 403.758 288.255 402.277 L288.255 392.879 Q292.422 395.147 296.866 396.258 Q301.311 397.369 306.265 397.369 Q314.274 397.369 318.95 393.156 Q323.626 388.943 323.626 381.721 Q323.626 374.499 318.95 370.286 Q314.274 366.073 306.265 366.073 Q302.515 366.073 298.765 366.907 Q295.061 367.74 291.172 369.499 L291.172 334.777 Z" fill="#000000" fill-rule="nonzero" fill-opacity="1" /><path clip-path="url(#clip960)" d="M309.089 164.009 Q301.866 164.009 298.209 171.138 Q294.598 178.221 294.598 192.481 Q294.598 206.694 298.209 213.823 Q301.866 220.906 309.089 220.906 Q316.357 220.906 319.968 213.823 Q323.626 206.694 323.626 192.481 Q323.626 178.221 319.968 171.138 Q316.357 164.009 309.089 164.009 M309.089 156.601 Q320.709 156.601 326.82 165.814 Q332.977 174.981 332.977 192.481 Q332.977 209.934 326.82 219.147 Q320.709 228.314 309.089 228.314 Q297.468 228.314 291.311 219.147 Q285.2 209.934 285.2 192.481 Q285.2 174.981 291.311 165.814 Q297.468 156.601 309.089 156.601 Z" fill="#000000" fill-rule="nonzero" fill-opacity="1" /><path clip-path="url(#clip962)" d="M528.028 212.297 L545.118 238.036 L562.208 266.352 L579.299 296.283 L596.389 324.977 L613.479 354.239 L630.57 372.924 L647.66 382.874 L664.75 369.668 L681.841 351.291 L698.931 341.809 L716.021 331.673 L733.112 329.089 L750.202 333.044 L767.292 341.657 L784.383 354.509 L801.473 366.231 L818.563 379.123 L835.654 389.626 L852.744 401.598 L869.834 414.258 L886.925 423.463 L904.015 421.447 L921.105 411.985 L938.195 416.012 L955.286 442.583 L972.376 471.64 L989.466 502.306 L1006.56 531.683 L1023.65 557.767 L1040.74 570.547 L1057.83 572.717 L1074.92 550.632 L1092.01 524.111 L1109.1 503.449 L1126.19 483.507 L1143.28 466.416 L1160.37 456.883 L1177.46 453.139 L1194.55 454.278 L1211.64 455.641 L1228.73 459.665 L1245.82 464.701 L1262.91 475.036 L1280 486.181 L1297.09 494.227 L1314.18 491.009 L1331.27 480.191 L1348.36 483.214 L1365.45 509.133 L1382.54 537.724 L1399.63 568.105 L1416.72 597.26 L1433.81 623.485 L1450.91 635.921 L1468 636.719 L1485.09 611.763 L1502.18 581.212 L1519.27 555.973 L1536.36 532.184 L1553.45 511.148 L1570.54 497.624 L1587.63 490.412 L1604.72 488.359 L1621.81 486.695 L1638.9 488.867 L1655.99 492.493 L1673.08 502.517 L1690.17 513.865 L1707.26 522.18 L1724.35 519.035 L1741.44 508.001 L1758.53 504.673 L1775.62 530.647 L1792.71 559.319 L1809.8 589.835 L1826.89 619.15 L1843.98 645.869 L1861.07 658.172 L1878.16 658.533 L1895.25 644.644 L1912.34 612.172 L1929.43 585.263 L1946.52 559.68 L1963.61 536.739 L1980.71 521.506 L1997.8 513.107 L2014.89 509.657 L2031.98 506.222 L2049.07 508.004 L2066.16 511.472 L2083.25 521.783 L2100.34 533.596 L2117.43 542.372 L2134.52 539.443 L2151.61 531.067 L2168.7 532.852 L2185.79 549.506 L2202.88 571.447 L2219.97 601.603 L2237.06 631.232 L2254.15 660.536 L2271.24 682.174 L2288.33 691.659 L2305.42 676.226 L2322.51 643.39 L2339.6 613.772 L2356.69 585.326 L2373.78 559.453 L2390.87 540.609 L2407.96 530.603 L2425.05 526.064 L2442.14 523.018 L2459.23 524.778 L2476.32 528.165 L2493.42 538.751 L2510.51 550.996 L2527.6 560.171 L2544.69 557.449 L2561.78 555.741 L2578.87 557.79 L2595.96 574.642 L2613.05 596.725 L2630.14 624.199 L2647.23 654.926 L2664.32 687.301 L2681.41 708.786 L2698.5 718.803 L2715.59 703.874 L2732.68 671.423 L2749.77 641.478 L2766.86 612.441 L2783.95 585.828 L2801.04 566.051 L2818.13 551.938 L2835.22 542.712 L2852.31 537.845 L2869.4 538.721 L2886.49 542.645 L2903.58 554.164 L2920.67 569.574 L2937.76 581.468 L2954.85 579.58 L2971.94 580.978 L2989.03 583.258 L3006.12 600.384 L3023.22 622.695 L3040.31 650.498 L3057.4 681.725 L3074.49 714.804 L3091.58 737.146 L3108.67 748.091 L3125.76 734.447 L3142.85 701.948 L3159.94 671.422 L3177.03 641.507 L3194.12 613.834 L3211.21 592.923 L3228.3 578.043 L3245.39 567.72 L3262.48 559.14 L3279.57 560.763 L3296.66 566.898 L3313.75 582.125 L3330.84 599.243 L3347.93 612.421 L3365.02 611.47 L3382.11 605.928 L3399.2 608.427 L3416.29 625.8 L3433.38 648.33 L3450.47 676.448 L3467.56 708.165 L3484.65 741.941 L3501.74 764.882 L3518.83 776.531 L3535.92 763.801 L3553.02 731.236 L3570.11 703.185 L3587.2 672.84 L3604.29 642.889 L3621.38 620.043 L3638.47 604.791 L3655.56 596.292 L3672.65 590.636 L3689.74 591.908 L3706.83 598.386 L3723.92 614.682 L3741.01 633.233 L3758.1 647.901 L3775.19 648.037 L3792.28 637.106 L3809.37 633.237 L3826.46 650.815 L3843.55 673.51 L3860.64 701.935 L3877.73 734.164 L3894.82 768.606 L3911.91 793.299 L3929 806.996 L3946.09 803.285 L3963.18 776.753 L3980.27 748.894 L3997.36 717.785 L4014.45 686.655 L4031.54 662.321 L4048.63 645.202 L4065.72 635.044 L4082.82 628.27 L4099.91 629.083 L4117 635.555 L4134.09 653.253 L4151.18 673.611 L4168.27 690.031 L4185.36 691.43 L4202.45 681.093 L4219.54 669.878 L4236.63 678.353 L4253.72 701.245 L4270.81 729.971 L4287.9 762.716 L4304.99 798.027 L4322.08 830.118 L4339.17 857.356 L4356.26 855.522 L4373.35 830.159 L4390.44 802.929 L4407.53 771.15 L4424.62 738.823 L4441.71 712.65 L4458.8 693.897 L4475.89 682.223 L4492.98 673.897 L4510.07 674.965 L4527.16 683.594 L4544.25 703.134 L4561.34 725.56 L4578.43 744.122 L4595.52 747.068 L4612.62 737.465 L4629.71 726.255 L4629.71 89.2104 L4612.62 90.1116 L4595.52 93.6912 L4578.43 96.5715 L4561.34 97.0319 L4544.25 97.5152 L4527.16 98.5044 L4510.07 101.778 L4492.98 104.065 L4475.89 105.352 L4458.8 102.807 L4441.71 99.179 L4424.62 95.5517 L4407.53 95.7226 L4390.44 100.417 L4373.35 111.444 L4356.26 129.062 L4339.17 142.411 L4322.08 144.983 L4304.99 141.395 L4287.9 130.615 L4270.81 118.14 L4253.72 105.283 L4236.63 94.2945 L4219.54 86.4934 L4202.45 87.2973 L4185.36 90.7504 L4168.27 93.4852 L4151.18 93.727 L4134.09 94.086 L4117 95.061 L4099.91 98.1561 L4082.82 100.528 L4065.72 101.93 L4048.63 99.2489 L4031.54 94.7988 L4014.45 91.1269 L3997.36 91.199 L3980.27 96.4283 L3963.18 107.593 L3946.09 125.288 L3929 138.707 L3911.91 141.37 L3894.82 137.875 L3877.73 127.18 L3860.64 114.762 L3843.55 101.956 L3826.46 91.0189 L3809.37 83.283 L3792.28 84.1002 L3775.19 87.6105 L3758.1 90.4002 L3741.01 90.7126 L3723.92 91.1631 L3706.83 91.6239 L3689.74 93.9416 L3672.65 96.1856 L3655.56 98.0308 L3638.47 95.7272 L3621.38 91.126 L3604.29 87.4471 L3587.2 87.3685 L3570.11 92.218 L3553.02 103.285 L3535.92 120.974 L3518.83 134.4 L3501.74 137.187 L3484.65 133.765 L3467.56 123.106 L3450.47 110.731 L3433.38 97.964 L3416.29 87.0479 L3399.2 79.4019 L3382.11 80.2385 L3365.02 83.7564 L3347.93 86.5502 L3330.84 86.8814 L3313.75 87.4489 L3296.66 87.0702 L3279.57 89.2294 L3262.48 91.2429 L3245.39 92.8484 L3228.3 91.5767 L3211.21 87.554 L3194.12 83.7382 L3177.03 83.5989 L3159.94 87.8036 L3142.85 98.6593 L3125.76 116.285 L3108.67 129.802 L3091.58 132.647 L3074.49 129.231 L3057.4 118.582 L3040.31 106.207 L3023.22 93.4291 L3006.12 82.5037 L2989.03 74.7299 L2971.94 75.5605 L2954.85 79.0891 L2937.76 81.8914 L2920.67 82.2174 L2903.58 82.7256 L2886.49 81.3495 L2869.4 83.551 L2852.31 85.629 L2835.22 87.3194 L2818.13 86.3281 L2801.04 82.9015 L2783.95 78.8198 L2766.86 78.8475 L2749.77 83.8106 L2732.68 94.0878 L2715.59 111.872 L2698.5 125.455 L2681.41 128.368 L2664.32 125.076 L2647.23 114.613 L2630.14 102.457 L2613.05 89.9031 L2595.96 79.2436 L2578.87 71.8287 L2561.78 72.8272 L2544.69 76.4518 L2527.6 79.3421 L2510.51 79.7523 L2493.42 79.4448 L2476.32 78.2185 L2459.23 80.5882 L2442.14 82.8519 L2425.05 84.7028 L2407.96 83.7798 L2390.87 80.1423 L2373.78 76.2708 L2356.69 77.5849 L2339.6 82.0803 L2322.51 92.4511 L2305.42 110.219 L2288.33 123.717 L2271.24 126.767 L2254.15 123.629 L2237.06 113.297 L2219.97 101.247 L2202.88 88.81 L2185.79 78.2182 L2168.7 70.8396 L2151.61 71.9219 L2134.52 75.6687 L2117.43 78.7007 L2100.34 79.1807 L2083.25 79.2031 L2066.16 78.0144 L2049.07 80.5847 L2031.98 83.0724 L2014.89 85.1186 L1997.8 84.4255 L1980.71 80.6358 L1963.61 76.9512 L1946.52 76.9743 L1929.43 81.6275 L1912.34 92.2509 L1895.25 110.148 L1878.16 123.945 L1861.07 127.188 L1843.98 124.26 L1826.89 114.099 L1809.8 102.202 L1792.71 89.8932 L1775.62 79.4265 L1758.53 72.1008 L1741.44 73.2956 L1724.35 77.2408 L1707.26 80.5758 L1690.17 81.4046 L1673.08 82.3835 L1655.99 83.8078 L1638.9 86.9039 L1621.81 89.7139 L1604.72 91.5744 L1587.63 89.1379 L1570.54 84.9566 L1553.45 81.5305 L1536.36 82.0207 L1519.27 87.4034 L1502.18 99.0026 L1485.09 117.305 L1468 131.419 L1450.91 134.958 L1433.81 132.296 L1416.72 122.503 L1399.63 111.019 L1382.54 99.147 L1365.45 89.1675 L1348.36 82.4112 L1331.27 84.2645 L1314.18 88.8282 L1297.09 92.8513 L1280 94.4549 L1262.91 96.2898 L1245.82 98.6425 L1228.73 102.972 L1211.64 105.531 L1194.55 107.733 L1177.46 107.349 L1160.37 104.202 L1143.28 102.03 L1126.19 103.513 L1109.1 109.729 L1092.01 121.956 L1074.92 140.963 L1057.83 155.824 L1040.74 160.041 L1023.65 158.065 L1006.56 148.948 L989.466 137.026 L972.376 123.12 L955.286 111.826 L938.195 106.389 L921.105 112.717 L904.015 121.077 L886.925 126.505 L869.834 129.741 L852.744 129.465 L835.654 130.363 L818.563 134.526 L801.473 138.504 L784.383 142.03 L767.292 142.943 L750.202 136.357 L733.112 133.254 L716.021 138.981 L698.931 152.496 L681.841 167.862 L664.75 189.938 L647.66 208.546 L630.57 216.53 L613.479 217.429 L596.389 211.389 L579.299 203.127 L562.208 190.515 L545.118 181.203 L528.028 177.506  Z" fill="#aeaeae" fill-rule="evenodd" fill-opacity="0.5"/>
<polyline clip-path="url(#clip962)" style="stroke:#aeaeae; stroke-linecap:round; stroke-linejoin:round; stroke-width:0; stroke-opacity:1; fill:none" points="528.028,190 545.118,194.237 562.208,200.495 579.299,207.84 596.389,214.894 613.479,220.871 630.57,222.417 647.66,220.115 664.75,211.528 681.841,200.455 698.931,193.277 716.021,188.991 733.112,187.341 750.202,188.545 767.292,191.226 784.383,194.114 801.473,195.466 818.563,195.989 835.654,195.386 852.744,195.461 869.834,195.502 886.925,195.274 904.015,193.182 921.105,190.378 938.195,189.162 955.286,193.327 972.376,199.595 989.466,206.99 1006.56,214.12 1023.65,220.19 1040.74,221.817 1057.83,219.561 1074.92,210.856 1092.01,199.593 1109.1,192.257 1126.19,187.905 1143.28,186.227 1160.37,187.409 1177.46,190.059 1194.55,192.867 1211.64,194.162 1228.73,194.636 1245.82,194.007 1262.91,194.168 1280,194.346 1297.09,194.262 1314.18,192.301 1331.27,189.615 1348.36,188.507 1365.45,192.779 1382.54,199.145 1399.63,206.646 1416.72,213.865 1433.81,220.035 1450.91,221.757 1468,219.575 1485.09,210.867 1502.18,199.549 1519.27,192.184 1536.36,187.818 1553.45,186.135 1570.54,187.318 1587.63,189.96 1604.72,192.773 1621.81,194.08 1638.9,194.573 1655.99,193.996 1673.08,194.246 1690.17,194.515 1707.26,194.52 1724.35,192.644 1741.44,190.03 1758.53,188.989 1775.62,193.331 1792.71,199.757 1809.8,207.321 1826.89,214.61 1843.98,220.852 1861.07,222.649 1878.16,220.503 1895.25,211.831 1912.34,200.543 1929.43,193.16 1946.52,188.776 1963.61,187.081 1980.71,188.25 1997.8,190.887 2014.89,193.678 2031.98,194.97 2049.07,195.477 2066.16,194.924 2083.25,195.197 2100.34,195.503 2117.43,195.553 2134.52,193.717 2151.61,191.144 2168.7,190.138 2185.79,194.517 2202.88,200.986 2219.97,208.591 2237.06,215.928 2254.15,222.222 2271.24,224.064 2288.33,221.947 2305.42,213.312 2322.51,202.018 2339.6,194.628 2356.69,190.232 2373.78,188.508 2390.87,189.648 2407.96,192.252 2425.05,195.025 2442.14,196.292 2459.23,196.772 2476.32,196.201 2493.42,196.466 2510.51,196.785 2527.6,196.853 2544.69,195.042 2561.78,192.491 2578.87,191.505 2595.96,195.905 2613.05,202.4 2630.14,210.028 2647.23,217.392 2664.32,223.716 2681.41,225.602 2698.5,223.553 2715.59,214.906 2732.68,203.626 2749.77,196.23 2766.86,191.794 2783.95,190.028 2801.04,191.132 2818.13,193.707 2835.22,196.448 2852.31,197.687 2869.4,198.146 2886.49,197.551 2903.58,197.82 2920.67,198.144 2937.76,198.221 2954.85,196.42 2971.94,193.879 2989.03,192.902 3006.12,197.318 3023.22,203.828 3040.31,211.477 3057.4,218.861 3074.49,225.209 3091.58,227.112 3108.67,225.049 3125.76,216.397 3142.85,205.126 3159.94,197.695 3177.03,193.228 3194.12,191.423 3211.21,192.499 3228.3,195.04 3245.39,197.734 3262.48,198.958 3279.57,199.409 3296.66,198.801 3313.75,199.062 3330.84,199.379 3347.93,199.454 3365.02,197.657 3382.11,195.119 3399.2,194.145 3416.29,198.564 3433.38,205.082 3450.47,212.741 3467.56,220.134 3484.65,226.497 3501.74,228.404 3518.83,226.387 3535.92,217.761 3553.02,206.416 3570.11,198.971 3587.2,194.495 3604.29,192.678 3621.38,193.724 3638.47,196.233 3655.56,198.92 3672.65,200.102 3689.74,200.52 3706.83,199.913 3723.92,200.171 3741.01,200.489 3758.1,200.571 3775.19,198.775 3792.28,196.24 3809.37,195.267 3826.46,199.692 3843.55,206.213 3860.64,213.884 3877.73,221.289 3894.82,227.666 3911.91,229.605 3929,227.599 3946.09,218.99 3963.18,207.67 3980.27,200.216 3997.36,195.708 4014.45,193.862 4031.54,194.866 4048.63,197.34 4065.72,199.984 4082.82,201.142 4099.91,201.552 4117,200.923 4134.09,201.167 4151.18,201.48 4168.27,201.559 4185.36,199.766 4202.45,197.228 4219.54,196.252 4236.63,200.672 4253.72,207.19 4270.81,214.856 4287.9,222.265 4304.99,228.65 4322.08,230.586 4339.17,228.597 4356.26,219.991 4373.35,208.658 4390.44,201.175 4407.53,196.652 4424.62,194.774 4441.71,195.757 4458.8,198.211 4475.89,200.83 4492.98,201.952 4510.07,202.317 4527.16,201.677 4544.25,201.931 4561.34,202.251 4578.43,202.333 4595.52,200.544 4612.62,198.008 4629.71,197.033 "/>
<path clip-path="url(#clip962)" d="M528.028 199.846 L545.118 211.667 L562.208 229.254 L579.299 251.577 L596.389 274.926 L613.479 298.656 L630.57 309.722 L647.66 313.69 L664.75 298.977 L681.841 275.222 L698.931 260.128 L716.021 247.693 L733.112 242.975 L750.202 247.293 L767.292 253.544 L784.383 260.986 L801.473 267.198 L818.563 272.441 L835.654 275.159 L852.744 279.195 L869.834 281.778 L886.925 285.561 L904.015 283.29 L921.105 281.827 L938.195 281.469 L955.286 294.259 L972.376 311.297 L989.466 332.66 L1006.56 356.463 L1023.65 377.372 L1040.74 386.481 L1057.83 385.531 L1074.92 368.203 L1092.01 339.973 L1109.1 320.82 L1126.19 303.208 L1143.28 293.695 L1160.37 293.551 L1177.46 296.038 L1194.55 297.636 L1211.64 295.707 L1228.73 296.473 L1245.82 296.48 L1262.91 298.853 L1280 304.979 L1297.09 306.426 L1314.18 306.449 L1331.27 306.498 L1348.36 302.196 L1365.45 313.634 L1382.54 333.271 L1399.63 356.213 L1416.72 379.211 L1433.81 399.567 L1450.91 407.983 L1468 408.806 L1485.09 389.951 L1502.18 363.815 L1519.27 338.95 L1536.36 318.628 L1553.45 310.459 L1570.54 306.463 L1587.63 306.249 L1604.72 306.556 L1621.81 304.923 L1638.9 303.501 L1655.99 302.177 L1673.08 305.616 L1690.17 312.076 L1707.26 316.426 L1724.35 315.654 L1741.44 313.456 L1758.53 309.988 L1775.62 321.237 L1792.71 339.33 L1809.8 362.085 L1826.89 386.487 L1843.98 406.132 L1861.07 416.27 L1878.16 416.347 L1895.25 399.479 L1912.34 371.007 L1929.43 345.161 L1946.52 324.365 L1963.61 313.635 L1980.71 308.935 L1997.8 309.82 L2014.89 310.57 L2031.98 310.021 L2049.07 307.885 L2066.16 306.93 L2083.25 310.077 L2100.34 315.55 L2117.43 320.501 L2134.52 319.151 L2151.61 317.93 L2168.7 319.862 L2185.79 328.339 L2202.88 343.773 L2219.97 366.494 L2237.06 390.929 L2254.15 411.126 L2271.24 420.267 L2288.33 419.376 L2305.42 403.87 L2322.51 377.667 L2339.6 349.937 L2356.69 327.875 L2373.78 316.776 L2390.87 311.884 L2407.96 312.088 L2425.05 313.355 L2442.14 313.187 L2459.23 311.165 L2476.32 311.143 L2493.42 313.338 L2510.51 319.247 L2527.6 323.954 L2544.69 321.996 L2561.78 322.796 L2578.87 325.539 L2595.96 337.162 L2613.05 350.755 L2630.14 371.015 L2647.23 395.508 L2664.32 414.599 L2681.41 422.505 L2698.5 423.82 L2715.59 408.964 L2732.68 382.147 L2749.77 352.779 L2766.86 330.768 L2783.95 319.356 L2801.04 314.828 L2818.13 316.234 L2835.22 315.945 L2852.31 316.583 L2869.4 313.613 L2886.49 312.64 L2903.58 316.261 L2920.67 321.531 L2937.76 326.412 L2954.85 324.333 L2971.94 325.511 L2989.03 326.966 L3006.12 340.439 L3023.22 356.905 L3040.31 374.488 L3057.4 398.325 L3074.49 417.236 L3091.58 424.427 L3108.67 427.51 L3125.76 413.141 L3142.85 385.628 L3159.94 356.763 L3177.03 336.853 L3194.12 322.525 L3211.21 316.932 L3228.3 318.298 L3245.39 318.608 L3262.48 318.218 L3279.57 316.036 L3296.66 314.64 L3313.75 318.525 L3330.84 323.248 L3347.93 327.624 L3365.02 326.13 L3382.11 327.174 L3399.2 328.57 L3416.29 343.182 L3433.38 359.579 L3450.47 378.289 L3467.56 399.615 L3484.65 419.017 L3501.74 427.596 L3518.83 430.059 L3535.92 415.482 L3553.02 386.894 L3570.11 357.463 L3587.2 339.213 L3604.29 324.246 L3621.38 318.25 L3638.47 319.974 L3655.56 320.454 L3672.65 320.64 L3689.74 318.828 L3706.83 316.185 L3723.92 320.892 L3741.01 325.9 L3758.1 329.231 L3775.19 327.789 L3792.28 327.837 L3809.37 331.13 L3826.46 344.508 L3843.55 361.492 L3860.64 381.502 L3877.73 400.344 L3894.82 421.11 L3911.91 429.744 L3929 433.279 L3946.09 416.794 L3963.18 387.132 L3980.27 359.3 L3997.36 339.902 L4014.45 324.296 L4031.54 318.622 L4048.63 319.937 L4065.72 321.535 L4082.82 321.542 L4099.91 320.238 L4117 317.822 L4134.09 322.501 L4151.18 327.5 L4168.27 331.002 L4185.36 329.255 L4202.45 329.768 L4219.54 332.21 L4236.63 344.692 L4253.72 361.974 L4270.81 382.405 L4287.9 400.348 L4304.99 423.373 L4322.08 431.476 L4339.17 432.69 L4356.26 417.005 L4373.35 389.45 L4390.44 362.23 L4407.53 343.341 L4424.62 327.126 L4441.71 320.759 L4458.8 321.866 L4475.89 323.325 L4492.98 322.983 L4510.07 321.471 L4527.16 318.83 L4544.25 322.846 L4561.34 328.005 L4578.43 332.441 L4595.52 332.334 L4612.62 331.954 L4629.71 336.006 L4629.71 123.077 L4612.62 126.38 L4595.52 133.049 L4578.43 136.03 L4561.34 136.395 L4544.25 135.896 L4527.16 136.304 L4510.07 139.777 L4492.98 142.247 L4475.89 143.227 L4458.8 139.609 L4441.71 131.78 L4424.62 127.547 L4407.53 129.162 L4390.44 135.053 L4373.35 147.11 L4356.26 166.2 L4339.17 180.944 L4322.08 184.848 L4304.99 181.639 L4287.9 169.466 L4270.81 156.474 L4253.72 141.404 L4236.63 128.774 L4219.54 121.287 L4202.45 124.595 L4185.36 131.249 L4168.27 133.702 L4151.18 133.994 L4134.09 132.951 L4117 133.575 L4099.91 137.326 L4082.82 140.103 L4065.72 139.559 L4048.63 136.678 L4031.54 130.252 L4014.45 125.691 L3997.36 126.975 L3980.27 132.086 L3963.18 144.01 L3946.09 162.711 L3929 177.93 L3911.91 182.354 L3894.82 178.927 L3877.73 167.16 L3860.64 153.444 L3843.55 139.351 L3826.46 126.99 L3809.37 119.42 L3792.28 121.949 L3775.19 128.999 L3758.1 130.817 L3741.01 130.056 L3723.92 128.115 L3706.83 129.383 L3689.74 133.814 L3672.65 135.764 L3655.56 135.956 L3638.47 131.042 L3621.38 127.294 L3604.29 122.468 L3587.2 124.106 L3570.11 129.099 L3553.02 140.464 L3535.92 159.971 L3518.83 174.49 L3501.74 178.511 L3484.65 175.383 L3467.56 164.187 L3450.47 150.142 L3433.38 136.249 L3416.29 124.17 L3399.2 116.962 L3382.11 119.42 L3365.02 125.53 L3347.93 127.554 L3330.84 125.646 L3313.75 126.213 L3296.66 128.05 L3279.57 130.239 L3262.48 131.754 L3245.39 132.473 L3228.3 127.919 L3211.21 122.85 L3194.12 118.731 L3177.03 119.672 L3159.94 125.108 L3142.85 136.398 L3125.76 155.242 L3108.67 170.748 L3091.58 174.755 L3074.49 171.844 L3057.4 160.446 L3040.31 147.018 L3023.22 133.134 L3006.12 121.825 L2989.03 114.065 L2971.94 115.521 L2954.85 121.04 L2937.76 124.39 L2920.67 122.088 L2903.58 123.08 L2886.49 123.055 L2869.4 125.44 L2852.31 127.681 L2835.22 128.356 L2818.13 125.046 L2801.04 120.06 L2783.95 116.004 L2766.86 116.917 L2749.77 122.444 L2732.68 131.921 L2715.59 150.972 L2698.5 166.583 L2681.41 171.203 L2664.32 167.566 L2647.23 156.467 L2630.14 142.932 L2613.05 129.952 L2595.96 118.032 L2578.87 110.743 L2561.78 112.442 L2544.69 117.428 L2527.6 120.847 L2510.51 118.641 L2493.42 118.264 L2476.32 117.897 L2459.23 119.991 L2442.14 121.442 L2425.05 122.461 L2407.96 120.763 L2390.87 116.085 L2373.78 113.005 L2356.69 114.123 L2339.6 119.321 L2322.51 129.232 L2305.42 147.656 L2288.33 162.653 L2271.24 167.043 L2254.15 163.243 L2237.06 153.072 L2219.97 140.242 L2202.88 127.056 L2185.79 115.713 L2168.7 108.063 L2151.61 109.751 L2134.52 114.857 L2117.43 118.413 L2100.34 115.845 L2083.25 115.696 L2066.16 115.146 L2049.07 116.602 L2031.98 118.121 L2014.89 119.459 L1997.8 117.76 L1980.71 114.355 L1963.61 111.18 L1946.52 111.615 L1929.43 116.398 L1912.34 126.301 L1895.25 145.254 L1878.16 160.944 L1861.07 164.861 L1843.98 161.954 L1826.89 151.801 L1809.8 139.772 L1792.71 126.557 L1775.62 114.972 L1758.53 107.319 L1741.44 109.711 L1724.35 114.339 L1707.26 117.638 L1690.17 115.158 L1673.08 114.763 L1655.99 114.844 L1638.9 117.584 L1621.81 119.589 L1604.72 121.314 L1587.63 119.81 L1570.54 115.654 L1553.45 112.235 L1536.36 113.859 L1519.27 118.855 L1502.18 130.087 L1485.09 149.358 L1468 164.425 L1450.91 168.416 L1433.81 166.922 L1416.72 156.492 L1399.63 144.214 L1382.54 130.601 L1365.45 118.206 L1348.36 110.919 L1331.27 114.798 L1314.18 120.944 L1297.09 124.897 L1280 125.42 L1262.91 124.932 L1245.82 125.373 L1228.73 127.921 L1211.64 131.409 L1194.55 133.061 L1177.46 130.34 L1160.37 125.828 L1143.28 122.591 L1126.19 124.95 L1109.1 131.946 L1092.01 144.332 L1074.92 164.156 L1057.83 180.038 L1040.74 184.397 L1023.65 182.535 L1006.56 172.33 L989.466 159.436 L972.376 145.683 L955.286 134.302 L938.195 128.164 L921.105 133.008 L904.015 140.678 L886.925 146.71 L869.834 148.376 L852.744 148.559 L835.654 148.824 L818.563 153.316 L801.473 157.032 L784.383 158.944 L767.292 156.019 L750.202 152.651 L733.112 151.006 L716.021 155.401 L698.931 164.857 L681.841 179.989 L664.75 201.334 L647.66 218.655 L630.57 225.48 L613.479 225.888 L596.389 218.816 L579.299 208.217 L562.208 195.703 L545.118 185.38 L528.028 180.397  Z" fill="#757575" fill-rule="evenodd" fill-opacity="0.5"/>
<polyline clip-path="url(#clip962)" style="stroke:#757575; stroke-linecap:round; stroke-linejoin:round; stroke-width:0; stroke-opacity:1; fill:none" points="528.028,190 545.118,194.237 562.208,200.495 579.299,207.84 596.389,214.894 613.479,220.871 630.57,222.417 647.66,220.115 664.75,211.528 681.841,200.455 698.931,193.277 716.021,188.991 733.112,187.341 750.202,188.545 767.292,191.226 784.383,194.114 801.473,195.466 818.563,195.989 835.654,195.386 852.744,195.461 869.834,195.502 886.925,195.274 904.015,193.182 921.105,190.378 938.195,189.162 955.286,193.327 972.376,199.595 989.466,206.99 1006.56,214.12 1023.65,220.19 1040.74,221.817 1057.83,219.561 1074.92,210.856 1092.01,199.593 1109.1,192.257 1126.19,187.905 1143.28,186.227 1160.37,187.409 1177.46,190.059 1194.55,192.867 1211.64,194.162 1228.73,194.636 1245.82,194.007 1262.91,194.168 1280,194.346 1297.09,194.262 1314.18,192.301 1331.27,189.615 1348.36,188.507 1365.45,192.779 1382.54,199.145 1399.63,206.646 1416.72,213.865 1433.81,220.035 1450.91,221.757 1468,219.575 1485.09,210.867 1502.18,199.549 1519.27,192.184 1536.36,187.818 1553.45,186.135 1570.54,187.318 1587.63,189.96 1604.72,192.773 1621.81,194.08 1638.9,194.573 1655.99,193.996 1673.08,194.246 1690.17,194.515 1707.26,194.52 1724.35,192.644 1741.44,190.03 1758.53,188.989 1775.62,193.331 1792.71,199.757 1809.8,207.321 1826.89,214.61 1843.98,220.852 1861.07,222.649 1878.16,220.503 1895.25,211.831 1912.34,200.543 1929.43,193.16 1946.52,188.776 1963.61,187.081 1980.71,188.25 1997.8,190.887 2014.89,193.678 2031.98,194.97 2049.07,195.477 2066.16,194.924 2083.25,195.197 2100.34,195.503 2117.43,195.553 2134.52,193.717 2151.61,191.144 2168.7,190.138 2185.79,194.517 2202.88,200.986 2219.97,208.591 2237.06,215.928 2254.15,222.222 2271.24,224.064 2288.33,221.947 2305.42,213.312 2322.51,202.018 2339.6,194.628 2356.69,190.232 2373.78,188.508 2390.87,189.648 2407.96,192.252 2425.05,195.025 2442.14,196.292 2459.23,196.772 2476.32,196.201 2493.42,196.466 2510.51,196.785 2527.6,196.853 2544.69,195.042 2561.78,192.491 2578.87,191.505 2595.96,195.905 2613.05,202.4 2630.14,210.028 2647.23,217.392 2664.32,223.716 2681.41,225.602 2698.5,223.553 2715.59,214.906 2732.68,203.626 2749.77,196.23 2766.86,191.794 2783.95,190.028 2801.04,191.132 2818.13,193.707 2835.22,196.448 2852.31,197.687 2869.4,198.146 2886.49,197.551 2903.58,197.82 2920.67,198.144 2937.76,198.221 2954.85,196.42 2971.94,193.879 2989.03,192.902 3006.12,197.318 3023.22,203.828 3040.31,211.477 3057.4,218.861 3074.49,225.209 3091.58,227.112 3108.67,225.049 3125.76,216.397 3142.85,205.126 3159.94,197.695 3177.03,193.228 3194.12,191.423 3211.21,192.499 3228.3,195.04 3245.39,197.734 3262.48,198.958 3279.57,199.409 3296.66,198.801 3313.75,199.062 3330.84,199.379 3347.93,199.454 3365.02,197.657 3382.11,195.119 3399.2,194.145 3416.29,198.564 3433.38,205.082 3450.47,212.741 3467.56,220.134 3484.65,226.497 3501.74,228.404 3518.83,226.387 3535.92,217.761 3553.02,206.416 3570.11,198.971 3587.2,194.495 3604.29,192.678 3621.38,193.724 3638.47,196.233 3655.56,198.92 3672.65,200.102 3689.74,200.52 3706.83,199.913 3723.92,200.171 3741.01,200.489 3758.1,200.571 3775.19,198.775 3792.28,196.24 3809.37,195.267 3826.46,199.692 3843.55,206.213 3860.64,213.884 3877.73,221.289 3894.82,227.666 3911.91,229.605 3929,227.599 3946.09,218.99 3963.18,207.67 3980.27,200.216 3997.36,195.708 4014.45,193.862 4031.54,194.866 4048.63,197.34 4065.72,199.984 4082.82,201.142 4099.91,201.552 4117,200.923 4134.09,201.167 4151.18,201.48 4168.27,201.559 4185.36,199.766 4202.45,197.228 4219.54,196.252 4236.63,200.672 4253.72,207.19 4270.81,214.856 4287.9,222.265 4304.99,228.65 4322.08,230.586 4339.17,228.597 4356.26,219.991 4373.35,208.658 4390.44,201.175 4407.53,196.652 4424.62,194.774 4441.71,195.757 4458.8,198.211 4475.89,200.83 4492.98,201.952 4510.07,202.317 4527.16,201.677 4544.25,201.931 4561.34,202.251 4578.43,202.333 4595.52,200.544 4612.62,198.008 4629.71,197.033 "/>
<path clip-path="url(#clip962)" d="M528.028 195.155 L545.118 205.743 L562.208 220.503 L579.299 240.958 L596.389 262.022 L613.479 281.777 L630.57 290.48 L647.66 289.594 L664.75 272.114 L681.841 247.089 L698.931 231.501 L716.021 220.863 L733.112 217.332 L750.202 221.77 L767.292 229.12 L784.383 236.793 L801.473 241.98 L818.563 245.426 L835.654 245.991 L852.744 248.668 L869.834 252.275 L886.925 253.509 L904.015 244.1 L921.105 240.084 L938.195 238.773 L955.286 250.053 L972.376 264.018 L989.466 279.766 L1006.56 297.131 L1023.65 317.43 L1040.74 325.622 L1057.83 327.743 L1074.92 306.887 L1092.01 277.124 L1109.1 257.692 L1126.19 245.543 L1143.28 241.147 L1160.37 242.327 L1177.46 246.903 L1194.55 252.786 L1211.64 255.784 L1228.73 258.573 L1245.82 257.401 L1262.91 259.761 L1280 263.202 L1297.09 262.162 L1314.18 252.479 L1331.27 249.417 L1348.36 248.818 L1365.45 258.302 L1382.54 271.337 L1399.63 288.259 L1416.72 309.64 L1433.81 325.219 L1450.91 332.62 L1468 334.651 L1485.09 314.758 L1502.18 283.426 L1519.27 265.695 L1536.36 253.954 L1553.45 247.613 L1570.54 248.064 L1587.63 252.278 L1604.72 257.423 L1621.81 259.691 L1638.9 262.605 L1655.99 262.503 L1673.08 262.615 L1690.17 266.533 L1707.26 265.661 L1724.35 258.327 L1741.44 254.153 L1758.53 253.997 L1775.62 265.124 L1792.71 275.931 L1809.8 291.566 L1826.89 311.385 L1843.98 330.374 L1861.07 336.763 L1878.16 336.675 L1895.25 315.829 L1912.34 287.759 L1929.43 270.343 L1946.52 257.548 L1963.61 251.177 L1980.71 251.14 L1997.8 254.997 L2014.89 260.541 L2031.98 261.967 L2049.07 264.458 L2066.16 264.201 L2083.25 265.358 L2100.34 268.22 L2117.43 268.081 L2134.52 261.845 L2151.61 257.792 L2168.7 257.702 L2185.79 267.219 L2202.88 280.477 L2219.97 295.513 L2237.06 313.25 L2254.15 332.332 L2271.24 339.685 L2288.33 338.069 L2305.42 318.148 L2322.51 290.368 L2339.6 271.527 L2356.69 259.879 L2373.78 253.947 L2390.87 253.497 L2407.96 258.458 L2425.05 263.48 L2442.14 264.377 L2459.23 266.484 L2476.32 266.382 L2493.42 267.085 L2510.51 270.425 L2527.6 270.657 L2544.69 264.331 L2561.78 260.581 L2578.87 259.926 L2595.96 271.586 L2613.05 283.332 L2630.14 296.828 L2647.23 315.419 L2664.32 333.751 L2681.41 341.453 L2698.5 339.972 L2715.59 320.497 L2732.68 292.82 L2749.77 274.725 L2766.86 262.636 L2783.95 257.717 L2801.04 257.289 L2818.13 260.985 L2835.22 265.408 L2852.31 267.349 L2869.4 270.032 L2886.49 268.313 L2903.58 269.247 L2920.67 273.858 L2937.76 273.523 L2954.85 267.67 L2971.94 262.934 L2989.03 262.991 L3006.12 273.546 L3023.22 285.608 L3040.31 299.186 L3057.4 318.001 L3074.49 335.905 L3091.58 343.429 L3108.67 341.566 L3125.76 322.46 L3142.85 296.457 L3159.94 276.928 L3177.03 264.748 L3194.12 259.785 L3211.21 259.207 L3228.3 262.785 L3245.39 268.236 L3262.48 270.838 L3279.57 273.628 L3296.66 272.513 L3313.75 274.048 L3330.84 275.191 L3347.93 275.907 L3365.02 269.424 L3382.11 264.571 L3399.2 265.376 L3416.29 274.474 L3433.38 288.973 L3450.47 302.002 L3467.56 319.765 L3484.65 337.982 L3501.74 345.477 L3518.83 343.091 L3535.92 324.925 L3553.02 298.537 L3570.11 278.622 L3587.2 267.784 L3604.29 262.716 L3621.38 261.93 L3638.47 264.679 L3655.56 269.664 L3672.65 272.048 L3689.74 274.862 L3706.83 273.54 L3723.92 275.356 L3741.01 277.641 L3758.1 277.002 L3775.19 270.689 L3792.28 269.046 L3809.37 266.715 L3826.46 276.307 L3843.55 290.85 L3860.64 305.605 L3877.73 320.843 L3894.82 338.935 L3911.91 347.027 L3929 344.739 L3946.09 326.263 L3963.18 300.57 L3980.27 278.898 L3997.36 270.594 L4014.45 263.158 L4031.54 263.149 L4048.63 266.895 L4065.72 271.816 L4082.82 273.071 L4099.91 275.841 L4117 274.893 L4134.09 276.442 L4151.18 278.285 L4168.27 278.555 L4185.36 273.507 L4202.45 270.211 L4219.54 268.156 L4236.63 277.449 L4253.72 292.279 L4270.81 307.236 L4287.9 323.396 L4304.99 340.823 L4322.08 348.987 L4339.17 346.144 L4356.26 328.623 L4373.35 302.258 L4390.44 282.251 L4407.53 273.004 L4424.62 264.893 L4441.71 264.99 L4458.8 268.841 L4475.89 272.997 L4492.98 274.403 L4510.07 276.431 L4527.16 276.4 L4544.25 277.865 L4561.34 278.877 L4578.43 280.495 L4595.52 275.868 L4612.62 272.807 L4629.71 271.477 L4629.71 134.758 L4612.62 138.032 L4595.52 141.834 L4578.43 148.098 L4561.34 150.74 L4544.25 151.436 L4527.16 152.319 L4510.07 156.01 L4492.98 158.128 L4475.89 155.653 L4458.8 150.129 L4441.71 143.103 L4424.62 138.517 L4407.53 138.88 L4390.44 144.022 L4373.35 154.862 L4356.26 174.656 L4339.17 190.97 L4322.08 195.101 L4304.99 191.797 L4287.9 180.805 L4270.81 168.467 L4253.72 153.951 L4236.63 140.608 L4219.54 133.204 L4202.45 136.136 L4185.36 140.394 L4168.27 146.173 L4151.18 149.416 L4134.09 148.919 L4117 150.552 L4099.91 154.957 L4082.82 155.587 L4065.72 153.422 L4048.63 147.794 L4031.54 141.296 L4014.45 136.648 L3997.36 136.526 L3980.27 141.782 L3963.18 153.161 L3946.09 173.017 L3929 188.559 L3911.91 192.263 L3894.82 188.962 L3877.73 178.122 L3860.64 165.676 L3843.55 151.972 L3826.46 138.727 L3809.37 131.171 L3792.28 132.565 L3775.19 138.1 L3758.1 144.157 L3741.01 146.603 L3723.92 146.716 L3706.83 148.659 L3689.74 151.7 L3672.65 153.327 L3655.56 151.208 L3638.47 145.415 L3621.38 139.079 L3604.29 134.555 L3587.2 134.099 L3570.11 139.291 L3553.02 150.371 L3535.92 169.479 L3518.83 185.263 L3501.74 190.016 L3484.65 186.771 L3467.56 175.566 L3450.47 162.172 L3433.38 148.313 L3416.29 136.192 L3399.2 128.6 L3382.11 129.523 L3365.02 135.941 L3347.93 141.54 L3330.84 143.946 L3313.75 144.004 L3296.66 146.064 L3279.57 149.053 L3262.48 150.506 L3245.39 148.733 L3228.3 142.565 L3211.21 135.894 L3194.12 131.387 L3177.03 131.307 L3159.94 136.391 L3142.85 147.675 L3125.76 166.863 L3108.67 182.27 L3091.58 186.482 L3074.49 184.025 L3057.4 172.98 L3040.31 158.951 L3023.22 145.156 L3006.12 133.274 L2989.03 124.657 L2971.94 126.811 L2954.85 133.704 L2937.76 138.908 L2920.67 140.056 L2903.58 141.213 L2886.49 141.544 L2869.4 144.962 L2852.31 146.64 L2835.22 146.127 L2818.13 139.771 L2801.04 132.919 L2783.95 128.155 L2766.86 128.686 L2749.77 133.424 L2732.68 144.628 L2715.59 163.285 L2698.5 178.626 L2681.41 183.555 L2664.32 180.478 L2647.23 168.792 L2630.14 155.172 L2613.05 141.059 L2595.96 129.234 L2578.87 121.808 L2561.78 123.23 L2544.69 130.692 L2527.6 134.849 L2510.51 136.804 L2493.42 137.312 L2476.32 137.742 L2459.23 140.924 L2442.14 143.204 L2425.05 142.527 L2407.96 136.524 L2390.87 129.349 L2373.78 124.357 L2356.69 125.233 L2339.6 130.023 L2322.51 140.94 L2305.42 159.901 L2288.33 176.43 L2271.24 180.746 L2254.15 177.824 L2237.06 166.324 L2219.97 151.93 L2202.88 137.966 L2185.79 126.651 L2168.7 118.901 L2151.61 120.749 L2134.52 128.398 L2117.43 132.64 L2100.34 133.476 L2083.25 133.739 L2066.16 134.2 L2049.07 137.215 L2031.98 140.219 L2014.89 139.054 L1997.8 133.323 L1980.71 126.891 L1963.61 122.167 L1946.52 122.502 L1929.43 128.085 L1912.34 139.264 L1895.25 158.378 L1878.16 174.116 L1861.07 178.223 L1843.98 175.396 L1826.89 164.433 L1809.8 150.609 L1792.71 136.941 L1775.62 125.043 L1758.53 117.718 L1741.44 120.327 L1724.35 127.088 L1707.26 132.005 L1690.17 132.427 L1673.08 132.589 L1655.99 134.034 L1638.9 137.483 L1621.81 140.049 L1604.72 139.171 L1587.63 133.266 L1570.54 127.283 L1553.45 122.852 L1536.36 123.523 L1519.27 129.847 L1502.18 140.808 L1485.09 160.327 L1468 175.719 L1450.91 180.354 L1433.81 177.636 L1416.72 166.77 L1399.63 153.926 L1382.54 140.839 L1365.45 128.808 L1348.36 121.798 L1331.27 125.129 L1314.18 130.292 L1297.09 135.534 L1280 136.561 L1262.91 138.187 L1245.82 140.253 L1228.73 144.533 L1211.64 146.7 L1194.55 145.674 L1177.46 140.233 L1160.37 134.677 L1143.28 131.311 L1126.19 132.565 L1109.1 138.728 L1092.01 150.848 L1074.92 171.132 L1057.83 186.992 L1040.74 192.159 L1023.65 190.847 L1006.56 181.157 L989.466 168.042 L972.376 154.183 L955.286 142.833 L938.195 135.959 L921.105 140.555 L904.015 147.329 L886.925 153.424 L869.834 156.16 L852.744 158.177 L835.654 159.854 L818.563 164.425 L801.473 166.004 L784.383 164.856 L767.292 160.768 L750.202 157.324 L733.112 156.329 L716.021 160.544 L698.931 169.302 L681.841 183.21 L664.75 204.302 L647.66 221.39 L630.57 228.039 L613.479 228.436 L596.389 220.314 L579.299 210.299 L562.208 197.801 L545.118 187.106 L528.028 181.533  Z" fill="#414141" fill-rule="evenodd" fill-opacity="0.5"/>
<polyline clip-path="url(#clip962)" style="stroke:#414141; stroke-linecap:round; stroke-linejoin:round; stroke-width:0; stroke-opacity:1; fill:none" points="528.028,190 545.118,194.237 562.208,200.495 579.299,207.84 596.389,214.894 613.479,220.871 630.57,222.417 647.66,220.115 664.75,211.528 681.841,200.455 698.931,193.277 716.021,188.991 733.112,187.341 750.202,188.545 767.292,191.226 784.383,194.114 801.473,195.466 818.563,195.989 835.654,195.386 852.744,195.461 869.834,195.502 886.925,195.274 904.015,193.182 921.105,190.378 938.195,189.162 955.286,193.327 972.376,199.595 989.466,206.99 1006.56,214.12 1023.65,220.19 1040.74,221.817 1057.83,219.561 1074.92,210.856 1092.01,199.593 1109.1,192.257 1126.19,187.905 1143.28,186.227 1160.37,187.409 1177.46,190.059 1194.55,192.867 1211.64,194.162 1228.73,194.636 1245.82,194.007 1262.91,194.168 1280,194.346 1297.09,194.262 1314.18,192.301 1331.27,189.615 1348.36,188.507 1365.45,192.779 1382.54,199.145 1399.63,206.646 1416.72,213.865 1433.81,220.035 1450.91,221.757 1468,219.575 1485.09,210.867 1502.18,199.549 1519.27,192.184 1536.36,187.818 1553.45,186.135 1570.54,187.318 1587.63,189.96 1604.72,192.773 1621.81,194.08 1638.9,194.573 1655.99,193.996 1673.08,194.246 1690.17,194.515 1707.26,194.52 1724.35,192.644 1741.44,190.03 1758.53,188.989 1775.62,193.331 1792.71,199.757 1809.8,207.321 1826.89,214.61 1843.98,220.852 1861.07,222.649 1878.16,220.503 1895.25,211.831 1912.34,200.543 1929.43,193.16 1946.52,188.776 1963.61,187.081 1980.71,188.25 1997.8,190.887 2014.89,193.678 2031.98,194.97 2049.07,195.477 2066.16,194.924 2083.25,195.197 2100.34,195.503 2117.43,195.553 2134.52,193.717 2151.61,191.144 2168.7,190.138 2185.79,194.517 2202.88,200.986 2219.97,208.591 2237.06,215.928 2254.15,222.222 2271.24,224.064 2288.33,221.947 2305.42,213.312 2322.51,202.018 2339.6,194.628 2356.69,190.232 2373.78,188.508 2390.87,189.648 2407.96,192.252 2425.05,195.025 2442.14,196.292 2459.23,196.772 2476.32,196.201 2493.42,196.466 2510.51,196.785 2527.6,196.853 2544.69,195.042 2561.78,192.491 2578.87,191.505 2595.96,195.905 2613.05,202.4 2630.14,210.028 2647.23,217.392 2664.32,223.716 2681.41,225.602 2698.5,223.553 2715.59,214.906 2732.68,203.626 2749.77,196.23 2766.86,191.794 2783.95,190.028 2801.04,191.132 2818.13,193.707 2835.22,196.448 2852.31,197.687 2869.4,198.146 2886.49,197.551 2903.58,197.82 2920.67,198.144 2937.76,198.221 2954.85,196.42 2971.94,193.879 2989.03,192.902 3006.12,197.318 3023.22,203.828 3040.31,211.477 3057.4,218.861 3074.49,225.209 3091.58,227.112 3108.67,225.049 3125.76,216.397 3142.85,205.126 3159.94,197.695 3177.03,193.228 3194.12,191.423 3211.21,192.499 3228.3,195.04 3245.39,197.734 3262.48,198.958 3279.57,199.409 3296.66,198.801 3313.75,199.062 3330.84,199.379 3347.93,199.454 3365.02,197.657 3382.11,195.119 3399.2,194.145 3416.29,198.564 3433.38,205.082 3450.47,212.741 3467.56,220.134 3484.65,226.497 3501.74,228.404 3518.83,226.387 3535.92,217.761 3553.02,206.416 3570.11,198.971 3587.2,194.495 3604.29,192.678 3621.38,193.724 3638.47,196.233 3655.56,198.92 3672.65,200.102 3689.74,200.52 3706.83,199.913 3723.92,200.171 3741.01,200.489 3758.1,200.571 3775.19,198.775 3792.28,196.24 3809.37,195.267 3826.46,199.692 3843.55,206.213 3860.64,213.884 3877.73,221.289 3894.82,227.666 3911.91,229.605 3929,227.599 3946.09,218.99 3963.18,207.67 3980.27,200.216 3997.36,195.708 4014.45,193.862 4031.54,194.866 4048.63,197.34 4065.72,199.984 4082.82,201.142 4099.91,201.552 4117,200.923 4134.09,201.167 4151.18,201.48 4168.27,201.559 4185.36,199.766 4202.45,197.228 4219.54,196.252 4236.63,200.672 4253.72,207.19 4270.81,214.856 4287.9,222.265 4304.99,228.65 4322.08,230.586 4339.17,228.597 4356.26,219.991 4373.35,208.658 4390.44,201.175 4407.53,196.652 4424.62,194.774 4441.71,195.757 4458.8,198.211 4475.89,200.83 4492.98,201.952 4510.07,202.317 4527.16,201.677 4544.25,201.931 4561.34,202.251 4578.43,202.333 4595.52,200.544 4612.62,198.008 4629.71,197.033 "/>
<path clip-path="url(#clip960)" d="M3853.78 853.161 L4607.83 853.161 L4607.83 334.761 L3853.78 334.761  Z" fill="#ffffff" fill-rule="evenodd" fill-opacity="1"/>
<polyline clip-path="url(#clip960)" style="stroke:#000000; stroke-linecap:round; stroke-linejoin:round; stroke-width:4; stroke-opacity:1; fill:none" points="3853.78,853.161 4607.83,853.161 4607.83,334.761 3853.78,334.761 3853.78,853.161 "/>
<polyline clip-path="url(#clip960)" style="stroke:#aeaeae; stroke-linecap:round; stroke-linejoin:round; stroke-width:2; stroke-opacity:1; fill:none" points="3902.09,464.361 4191.94,464.361 "/>
<path clip-path="url(#clip960)" d="M4241.93 497.723 L4261.03 497.723 L4261.03 431.809 L4240.25 435.976 L4240.25 425.328 L4260.91 421.161 L4272.6 421.161 L4272.6 497.723 L4291.7 497.723 L4291.7 507.561 L4241.93 507.561 L4241.93 497.723 Z" fill="#000000" fill-rule="nonzero" fill-opacity="1" /><path clip-path="url(#clip960)" d="M4340.31 428.858 Q4331.28 428.858 4326.71 437.77 Q4322.2 446.624 4322.2 464.448 Q4322.2 482.214 4326.71 491.126 Q4331.28 499.98 4340.31 499.98 Q4349.4 499.98 4353.91 491.126 Q4358.48 482.214 4358.48 464.448 Q4358.48 446.624 4353.91 437.77 Q4349.4 428.858 4340.31 428.858 M4340.31 419.599 Q4354.83 419.599 4362.47 431.115 Q4370.17 442.573 4370.17 464.448 Q4370.17 486.265 4362.47 497.781 Q4354.83 509.239 4340.31 509.239 Q4325.78 509.239 4318.09 497.781 Q4310.45 486.265 4310.45 464.448 Q4310.45 442.573 4318.09 431.115 Q4325.78 419.599 4340.31 419.599 Z" fill="#000000" fill-rule="nonzero" fill-opacity="1" /><path clip-path="url(#clip960)" d="M4415.71 428.858 Q4406.69 428.858 4402.11 437.77 Q4397.6 446.624 4397.6 464.448 Q4397.6 482.214 4402.11 491.126 Q4406.69 499.98 4415.71 499.98 Q4424.8 499.98 4429.31 491.126 Q4433.89 482.214 4433.89 464.448 Q4433.89 446.624 4429.31 437.77 Q4424.8 428.858 4415.71 428.858 M4415.71 419.599 Q4430.24 419.599 4437.88 431.115 Q4445.58 442.573 4445.58 464.448 Q4445.58 486.265 4437.88 497.781 Q4430.24 509.239 4415.71 509.239 Q4401.19 509.239 4393.49 497.781 Q4385.85 486.265 4385.85 464.448 Q4385.85 442.573 4393.49 431.115 Q4401.19 419.599 4415.71 419.599 Z" fill="#000000" fill-rule="nonzero" fill-opacity="1" /><path clip-path="url(#clip960)" d="M4539.61 469.541 Q4534.58 469.541 4531.69 473.823 Q4528.85 478.105 4528.85 485.744 Q4528.85 493.267 4531.69 497.608 Q4534.58 501.89 4539.61 501.89 Q4544.53 501.89 4547.37 497.608 Q4550.26 493.267 4550.26 485.744 Q4550.26 478.163 4547.37 473.881 Q4544.53 469.541 4539.61 469.541 M4539.61 462.191 Q4548.76 462.191 4554.14 468.557 Q4559.52 474.923 4559.52 485.744 Q4559.52 496.566 4554.08 502.932 Q4548.7 509.239 4539.61 509.239 Q4530.35 509.239 4524.97 502.932 Q4519.59 496.566 4519.59 485.744 Q4519.59 474.865 4524.97 468.557 Q4530.41 462.191 4539.61 462.191 M4479.89 426.948 Q4474.92 426.948 4472.02 431.289 Q4469.19 435.571 4469.19 443.094 Q4469.19 450.733 4472.02 455.015 Q4474.86 459.298 4479.89 459.298 Q4484.93 459.298 4487.76 455.015 Q4490.66 450.733 4490.66 443.094 Q4490.66 435.629 4487.76 431.289 Q4484.87 426.948 4479.89 426.948 M4532.15 419.599 L4541.41 419.599 L4487.36 509.239 L4478.1 509.239 L4532.15 419.599 M4479.89 419.599 Q4489.04 419.599 4494.48 425.964 Q4499.92 432.272 4499.92 443.094 Q4499.92 454.031 4494.48 460.339 Q4489.09 466.647 4479.89 466.647 Q4470.69 466.647 4465.31 460.339 Q4459.98 453.974 4459.98 443.094 Q4459.98 432.33 4465.37 425.964 Q4470.75 419.599 4479.89 419.599 Z" fill="#000000" fill-rule="nonzero" fill-opacity="1" /><polyline clip-path="url(#clip960)" style="stroke:#757575; stroke-linecap:round; stroke-linejoin:round; stroke-width:2; stroke-opacity:1; fill:none" points="3902.09,593.961 4191.94,593.961 "/>
<path clip-path="url(#clip960)" d="M4245.81 635.367 L4245.81 624.719 Q4250.21 626.803 4254.72 627.902 Q4259.23 629.002 4263.57 629.002 Q4275.15 629.002 4281.22 621.247 Q4287.36 613.435 4288.23 597.578 Q4284.87 602.555 4279.72 605.217 Q4274.57 607.879 4268.32 607.879 Q4255.36 607.879 4247.78 600.067 Q4240.25 592.196 4240.25 578.597 Q4240.25 565.287 4248.12 557.243 Q4255.99 549.199 4269.07 549.199 Q4284.06 549.199 4291.93 560.715 Q4299.86 572.173 4299.86 594.048 Q4299.86 614.476 4290.14 626.687 Q4280.47 638.839 4264.09 638.839 Q4259.7 638.839 4255.18 637.971 Q4250.67 637.103 4245.81 635.367 M4269.07 598.736 Q4276.94 598.736 4281.51 593.354 Q4286.14 587.972 4286.14 578.597 Q4286.14 569.28 4281.51 563.898 Q4276.94 558.458 4269.07 558.458 Q4261.2 558.458 4256.57 563.898 Q4252 569.28 4252 578.597 Q4252 587.972 4256.57 593.354 Q4261.2 598.736 4269.07 598.736 Z" fill="#000000" fill-rule="nonzero" fill-opacity="1" /><path clip-path="url(#clip960)" d="M4345.87 558.458 Q4336.84 558.458 4332.27 567.37 Q4327.75 576.224 4327.75 594.048 Q4327.75 611.814 4332.27 620.726 Q4336.84 629.58 4345.87 629.58 Q4354.95 629.58 4359.46 620.726 Q4364.04 611.814 4364.04 594.048 Q4364.04 576.224 4359.46 567.37 Q4354.95 558.458 4345.87 558.458 M4345.87 549.199 Q4360.39 549.199 4368.03 560.715 Q4375.73 572.173 4375.73 594.048 Q4375.73 615.865 4368.03 627.381 Q4360.39 638.839 4345.87 638.839 Q4331.34 638.839 4323.64 627.381 Q4316 615.865 4316 594.048 Q4316 572.173 4323.64 560.715 Q4331.34 549.199 4345.87 549.199 Z" fill="#000000" fill-rule="nonzero" fill-opacity="1" /><path clip-path="url(#clip960)" d="M4469.76 599.141 Q4464.73 599.141 4461.84 603.423 Q4459 607.705 4459 615.344 Q4459 622.867 4461.84 627.208 Q4464.73 631.49 4469.76 631.49 Q4474.68 631.49 4477.52 627.208 Q4480.41 622.867 4480.41 615.344 Q4480.41 607.763 4477.52 603.481 Q4474.68 599.141 4469.76 599.141 M4469.76 591.791 Q4478.91 591.791 4484.29 598.157 Q4489.67 604.523 4489.67 615.344 Q4489.67 626.166 4484.23 632.532 Q4478.85 638.839 4469.76 638.839 Q4460.51 638.839 4455.12 632.532 Q4449.74 626.166 4449.74 615.344 Q4449.74 604.465 4455.12 598.157 Q4460.56 591.791 4469.76 591.791 M4410.04 556.548 Q4405.07 556.548 4402.17 560.889 Q4399.34 565.171 4399.34 572.694 Q4399.34 580.333 4402.17 584.615 Q4405.01 588.898 4410.04 588.898 Q4415.08 588.898 4417.91 584.615 Q4420.81 580.333 4420.81 572.694 Q4420.81 565.229 4417.91 560.889 Q4415.02 556.548 4410.04 556.548 M4462.3 549.199 L4471.56 549.199 L4417.51 638.839 L4408.25 638.839 L4462.3 549.199 M4410.04 549.199 Q4419.19 549.199 4424.63 555.564 Q4430.07 561.872 4430.07 572.694 Q4430.07 583.631 4424.63 589.939 Q4419.24 596.247 4410.04 596.247 Q4400.84 596.247 4395.46 589.939 Q4390.14 583.574 4390.14 572.694 Q4390.14 561.93 4395.52 555.564 Q4400.9 549.199 4410.04 549.199 Z" fill="#000000" fill-rule="nonzero" fill-opacity="1" /><polyline clip-path="url(#clip960)" style="stroke:#414141; stroke-linecap:round; stroke-linejoin:round; stroke-width:2; stroke-opacity:1; fill:none" points="3902.09,723.561 4191.94,723.561 "/>
<path clip-path="url(#clip960)" d="M4269.88 725.731 Q4261.55 725.731 4256.75 730.187 Q4252 734.643 4252 742.456 Q4252 750.268 4256.75 754.724 Q4261.55 759.18 4269.88 759.18 Q4278.21 759.18 4283.02 754.724 Q4287.82 750.21 4287.82 742.456 Q4287.82 734.643 4283.02 730.187 Q4278.27 725.731 4269.88 725.731 M4258.19 720.755 Q4250.67 718.903 4246.44 713.752 Q4242.28 708.602 4242.28 701.194 Q4242.28 690.836 4249.63 684.817 Q4257.03 678.799 4269.88 678.799 Q4282.79 678.799 4290.14 684.817 Q4297.49 690.836 4297.49 701.194 Q4297.49 708.602 4293.26 713.752 Q4289.09 718.903 4281.63 720.755 Q4290.08 722.722 4294.77 728.451 Q4299.51 734.18 4299.51 742.456 Q4299.51 755.014 4291.81 761.727 Q4284.18 768.439 4269.88 768.439 Q4255.59 768.439 4247.89 761.727 Q4240.25 755.014 4240.25 742.456 Q4240.25 734.18 4245 728.451 Q4249.74 722.722 4258.19 720.755 M4253.91 702.294 Q4253.91 709.007 4258.08 712.768 Q4262.3 716.53 4269.88 716.53 Q4277.4 716.53 4281.63 712.768 Q4285.91 709.007 4285.91 702.294 Q4285.91 695.581 4281.63 691.82 Q4277.4 688.058 4269.88 688.058 Q4262.3 688.058 4258.08 691.82 Q4253.91 695.581 4253.91 702.294 Z" fill="#000000" fill-rule="nonzero" fill-opacity="1" /><path clip-path="url(#clip960)" d="M4345.29 688.058 Q4336.26 688.058 4331.69 696.97 Q4327.17 705.824 4327.17 723.648 Q4327.17 741.414 4331.69 750.326 Q4336.26 759.18 4345.29 759.18 Q4354.37 759.18 4358.89 750.326 Q4363.46 741.414 4363.46 723.648 Q4363.46 705.824 4358.89 696.97 Q4354.37 688.058 4345.29 688.058 M4345.29 678.799 Q4359.81 678.799 4367.45 690.315 Q4375.15 701.773 4375.15 723.648 Q4375.15 745.465 4367.45 756.981 Q4359.81 768.439 4345.29 768.439 Q4330.76 768.439 4323.06 756.981 Q4315.43 745.465 4315.43 723.648 Q4315.43 701.773 4323.06 690.315 Q4330.76 678.799 4345.29 678.799 Z" fill="#000000" fill-rule="nonzero" fill-opacity="1" /><path clip-path="url(#clip960)" d="M4469.19 728.741 Q4464.15 728.741 4461.26 733.023 Q4458.42 737.305 4458.42 744.944 Q4458.42 752.467 4461.26 756.808 Q4464.15 761.09 4469.19 761.09 Q4474.11 761.09 4476.94 756.808 Q4479.83 752.467 4479.83 744.944 Q4479.83 737.363 4476.94 733.081 Q4474.11 728.741 4469.19 728.741 M4469.19 721.391 Q4478.33 721.391 4483.71 727.757 Q4489.09 734.123 4489.09 744.944 Q4489.09 755.766 4483.65 762.132 Q4478.27 768.439 4469.19 768.439 Q4459.93 768.439 4454.55 762.132 Q4449.16 755.766 4449.16 744.944 Q4449.16 734.065 4454.55 727.757 Q4459.98 721.391 4469.19 721.391 M4409.46 686.148 Q4404.49 686.148 4401.59 690.489 Q4398.76 694.771 4398.76 702.294 Q4398.76 709.933 4401.59 714.215 Q4404.43 718.498 4409.46 718.498 Q4414.5 718.498 4417.33 714.215 Q4420.23 709.933 4420.23 702.294 Q4420.23 694.829 4417.33 690.489 Q4414.44 686.148 4409.46 686.148 M4461.72 678.799 L4470.98 678.799 L4416.93 768.439 L4407.67 768.439 L4461.72 678.799 M4409.46 678.799 Q4418.61 678.799 4424.05 685.164 Q4429.49 691.472 4429.49 702.294 Q4429.49 713.231 4424.05 719.539 Q4418.67 725.847 4409.46 725.847 Q4400.26 725.847 4394.88 719.539 Q4389.56 713.174 4389.56 702.294 Q4389.56 691.53 4394.94 685.164 Q4400.32 678.799 4409.46 678.799 Z" fill="#000000" fill-rule="nonzero" fill-opacity="1" /></svg>
