<?xml version="1.0" encoding="utf-8"?>
<svg xmlns="http://www.w3.org/2000/svg" xmlns:xlink="http://www.w3.org/1999/xlink" width="1200" height="300" viewBox="0 0 4800 1200">
<defs>
  <clipPath id="clip770">
    <rect x="0" y="0" width="4800" height="1200"/>
  </clipPath>
</defs>
<path clip-path="url(#clip770)" d="M0 1200 L4800 1200 L4800 0 L0 0  Z" fill="#ffffff" fill-rule="evenodd" fill-opacity="1"/>
<defs>
  <clipPath id="clip771">
    <rect x="960" y="0" width="3361" height="1200"/>
  </clipPath>
</defs>
<path clip-path="url(#clip770)" d="M404.977 880.951 L4752.76 880.951 L4752.76 47.2441 L404.977 47.2441  Z" fill="#ffffff" fill-rule="evenodd" fill-opacity="1"/>
<defs>
  <clipPath id="clip772">
    <rect x="404" y="47" width="4349" height="835"/>
  </clipPath>
</defs>
<polyline clip-path="url(#clip772)" style="stroke:#000000; stroke-linecap:round; stroke-linejoin:round; stroke-width:2; stroke-opacity:0.1; fill:none" points="528.028,880.951 528.028,47.2441 "/>
<polyline clip-path="url(#clip772)" style="stroke:#000000; stroke-linecap:round; stroke-linejoin:round; stroke-width:2; stroke-opacity:0.1; fill:none" points="1348.36,880.951 1348.36,47.2441 "/>
<polyline clip-path="url(#clip772)" style="stroke:#000000; stroke-linecap:round; stroke-linejoin:round; stroke-width:2; stroke-opacity:0.1; fill:none" points="2168.7,880.951 2168.7,47.2441 "/>
<polyline clip-path="url(#clip772)" style="stroke:#000000; stroke-linecap:round; stroke-linejoin:round; stroke-width:2; stroke-opacity:0.1; fill:none" points="2989.03,880.951 2989.03,47.2441 "/>
<polyline clip-path="url(#clip772)" style="stroke:#000000; stroke-linecap:round; stroke-linejoin:round; stroke-width:2; stroke-opacity:0.1; fill:none" points="3809.37,880.951 3809.37,47.2441 "/>
<polyline clip-path="url(#clip772)" style="stroke:#000000; stroke-linecap:round; stroke-linejoin:round; stroke-width:2; stroke-opacity:0.1; fill:none" points="4629.71,880.951 4629.71,47.2441 "/>
<polyline clip-path="url(#clip772)" style="stroke:#000000; stroke-linecap:round; stroke-linejoin:round; stroke-width:2; stroke-opacity:0.1; fill:none" points="404.977,725.068 4752.76,725.068 "/>
<polyline clip-path="url(#clip772)" style="stroke:#000000; stroke-linecap:round; stroke-linejoin:round; stroke-width:2; stroke-opacity:0.1; fill:none" points="404.977,548.045 4752.76,548.045 "/>
<polyline clip-path="url(#clip772)" style="stroke:#000000; stroke-linecap:round; stroke-linejoin:round; stroke-width:2; stroke-opacity:0.1; fill:none" points="404.977,371.021 4752.76,371.021 "/>
<polyline clip-path="url(#clip772)" style="stroke:#000000; stroke-linecap:round; stroke-linejoin:round; stroke-width:2; stroke-opacity:0.1; fill:none" points="404.977,193.998 4752.76,193.998 "/>
<polyline clip-path="url(#clip770)" style="stroke:#000000; stroke-linecap:round; stroke-linejoin:round; stroke-width:4; stroke-opacity:1; fill:none" points="404.977,880.951 4752.76,880.951 "/>
<polyline clip-path="url(#clip770)" style="stroke:#000000; stroke-linecap:round; stroke-linejoin:round; stroke-width:4; stroke-opacity:1; fill:none" points="528.028,880.951 528.028,862.054 "/>
<polyline clip-path="url(#clip770)" style="stroke:#000000; stroke-linecap:round; stroke-linejoin:round; stroke-width:4; stroke-opacity:1; fill:none" points="1348.36,880.951 1348.36,862.054 "/>
<polyline clip-path="url(#clip770)" style="stroke:#000000; stroke-linecap:round; stroke-linejoin:round; stroke-width:4; stroke-opacity:1; fill:none" points="2168.7,880.951 2168.7,862.054 "/>
<polyline clip-path="url(#clip770)" style="stroke:#000000; stroke-linecap:round; stroke-linejoin:round; stroke-width:4; stroke-opacity:1; fill:none" points="2989.03,880.951 2989.03,862.054 "/>
<polyline clip-path="url(#clip770)" style="stroke:#000000; stroke-linecap:round; stroke-linejoin:round; stroke-width:4; stroke-opacity:1; fill:none" points="3809.37,880.951 3809.37,862.054 "/>
<polyline clip-path="url(#clip770)" style="stroke:#000000; stroke-linecap:round; stroke-linejoin:round; stroke-width:4; stroke-opacity:1; fill:none" points="4629.71,880.951 4629.71,862.054 "/>
<path clip-path="url(#clip770)" d="M528.028 942.789 Q520.806 942.789 517.148 949.918 Q513.537 957.002 513.537 971.261 Q513.537 985.474 517.148 992.603 Q520.806 999.687 528.028 999.687 Q535.296 999.687 538.907 992.603 Q542.565 985.474 542.565 971.261 Q542.565 957.002 538.907 949.918 Q535.296 942.789 528.028 942.789 M528.028 935.382 Q539.648 935.382 545.759 944.594 Q551.916 953.761 551.916 971.261 Q551.916 988.715 545.759 997.927 Q539.648 1007.09 528.028 1007.09 Q516.407 1007.09 510.25 997.927 Q504.139 988.715 504.139 971.261 Q504.139 953.761 510.25 944.594 Q516.407 935.382 528.028 935.382 Z" fill="#000000" fill-rule="nonzero" fill-opacity="1" /><path clip-path="url(#clip770)" d="M1337.67 997.881 L1370.31 997.881 L1370.31 1005.75 L1326.42 1005.75 L1326.42 997.881 Q1331.74 992.372 1340.91 983.113 Q1350.12 973.807 1352.48 971.122 Q1356.97 966.076 1358.73 962.604 Q1360.54 959.085 1360.54 955.705 Q1360.54 950.196 1356.65 946.724 Q1352.81 943.252 1346.6 943.252 Q1342.21 943.252 1337.3 944.78 Q1332.44 946.307 1326.88 949.409 L1326.88 939.965 Q1332.53 937.696 1337.44 936.539 Q1342.34 935.382 1346.42 935.382 Q1357.16 935.382 1363.55 940.752 Q1369.94 946.122 1369.94 955.104 Q1369.94 959.363 1368.32 963.205 Q1366.74 967.002 1362.53 972.187 Q1361.37 973.529 1355.17 979.965 Q1348.97 986.353 1337.67 997.881 Z" fill="#000000" fill-rule="nonzero" fill-opacity="1" /><path clip-path="url(#clip770)" d="M2174.72 944.78 L2151.11 981.678 L2174.72 981.678 L2174.72 944.78 M2172.26 936.631 L2184.02 936.631 L2184.02 981.678 L2193.88 981.678 L2193.88 989.455 L2184.02 989.455 L2184.02 1005.75 L2174.72 1005.75 L2174.72 989.455 L2143.51 989.455 L2143.51 980.428 L2172.26 936.631 Z" fill="#000000" fill-rule="nonzero" fill-opacity="1" /><path clip-path="url(#clip770)" d="M2989.84 967.465 Q2983.55 967.465 2979.84 971.77 Q2976.19 976.076 2976.19 983.576 Q2976.19 991.029 2979.84 995.381 Q2983.55 999.687 2989.84 999.687 Q2996.14 999.687 2999.8 995.381 Q3003.5 991.029 3003.5 983.576 Q3003.5 976.076 2999.8 971.77 Q2996.14 967.465 2989.84 967.465 M3008.41 938.159 L3008.41 946.678 Q3004.89 945.011 3001.28 944.131 Q2997.71 943.252 2994.2 943.252 Q2984.94 943.252 2980.03 949.502 Q2975.17 955.752 2974.47 968.391 Q2977.21 964.363 2981.33 962.233 Q2985.45 960.057 2990.4 960.057 Q3000.82 960.057 3006.84 966.4 Q3012.9 972.696 3012.9 983.576 Q3012.9 994.224 3006.6 1000.66 Q3000.31 1007.09 2989.84 1007.09 Q2977.85 1007.09 2971.51 997.927 Q2965.17 988.715 2965.17 971.261 Q2965.17 954.872 2972.95 945.15 Q2980.72 935.382 2993.83 935.382 Q2997.34 935.382 3000.91 936.076 Q3004.52 936.77 3008.41 938.159 Z" fill="#000000" fill-rule="nonzero" fill-opacity="1" /><path clip-path="url(#clip770)" d="M3809.37 972.928 Q3802.7 972.928 3798.86 976.492 Q3795.06 980.057 3795.06 986.307 Q3795.06 992.557 3798.86 996.122 Q3802.7 999.687 3809.37 999.687 Q3816.04 999.687 3819.88 996.122 Q3823.72 992.511 3823.72 986.307 Q3823.72 980.057 3819.88 976.492 Q3816.08 972.928 3809.37 972.928 M3800.02 968.946 Q3794 967.465 3790.62 963.344 Q3787.29 959.224 3787.29 953.298 Q3787.29 945.011 3793.17 940.196 Q3799.09 935.382 3809.37 935.382 Q3819.69 935.382 3825.57 940.196 Q3831.45 945.011 3831.45 953.298 Q3831.45 959.224 3828.07 963.344 Q3824.74 967.465 3818.77 968.946 Q3825.53 970.52 3829.28 975.104 Q3833.07 979.687 3833.07 986.307 Q3833.07 996.353 3826.92 1001.72 Q3820.81 1007.09 3809.37 1007.09 Q3797.93 1007.09 3791.78 1001.72 Q3785.67 996.353 3785.67 986.307 Q3785.67 979.687 3789.46 975.104 Q3793.26 970.52 3800.02 968.946 M3796.59 954.178 Q3796.59 959.548 3799.93 962.557 Q3803.31 965.567 3809.37 965.567 Q3815.39 965.567 3818.77 962.557 Q3822.19 959.548 3822.19 954.178 Q3822.19 948.807 3818.77 945.798 Q3815.39 942.789 3809.37 942.789 Q3803.31 942.789 3799.93 945.798 Q3796.59 948.807 3796.59 954.178 Z" fill="#000000" fill-rule="nonzero" fill-opacity="1" /><path clip-path="url(#clip770)" d="M4579.08 997.881 L4594.36 997.881 L4594.36 945.15 L4577.74 948.483 L4577.74 939.965 L4594.27 936.631 L4603.62 936.631 L4603.62 997.881 L4618.9 997.881 L4618.9 1005.75 L4579.08 1005.75 L4579.08 997.881 Z" fill="#000000" fill-rule="nonzero" fill-opacity="1" /><path clip-path="url(#clip770)" d="M4657.78 942.789 Q4650.56 942.789 4646.9 949.918 Q4643.29 957.002 4643.29 971.261 Q4643.29 985.474 4646.9 992.603 Q4650.56 999.687 4657.78 999.687 Q4665.05 999.687 4668.66 992.603 Q4672.32 985.474 4672.32 971.261 Q4672.32 957.002 4668.66 949.918 Q4665.05 942.789 4657.78 942.789 M4657.78 935.382 Q4669.4 935.382 4675.52 944.594 Q4681.67 953.761 4681.67 971.261 Q4681.67 988.715 4675.52 997.927 Q4669.4 1007.09 4657.78 1007.09 Q4646.16 1007.09 4640.01 997.927 Q4633.9 988.715 4633.9 971.261 Q4633.9 953.761 4640.01 944.594 Q4646.16 935.382 4657.78 935.382 Z" fill="#000000" fill-rule="nonzero" fill-opacity="1" /><path clip-path="url(#clip770)" d="M2296.11 1072.18 L2361.89 1072.18 L2361.89 1081.04 L2334.28 1081.04 L2334.28 1149.94 L2323.71 1149.94 L2323.71 1081.04 L2296.11 1081.04 L2296.11 1072.18 Z" fill="#000000" fill-rule="nonzero" fill-opacity="1" /><path clip-path="url(#clip770)" d="M2368.35 1091.61 L2377.93 1091.61 L2377.93 1149.94 L2368.35 1149.94 L2368.35 1091.61 M2368.35 1068.9 L2377.93 1068.9 L2377.93 1081.04 L2368.35 1081.04 L2368.35 1068.9 Z" fill="#000000" fill-rule="nonzero" fill-opacity="1" /><path clip-path="url(#clip770)" d="M2443.4 1102.81 Q2446.99 1096.35 2451.99 1093.28 Q2456.99 1090.2 2463.76 1090.2 Q2472.88 1090.2 2477.83 1096.61 Q2482.77 1102.96 2482.77 1114.74 L2482.77 1149.94 L2473.14 1149.94 L2473.14 1115.05 Q2473.14 1106.66 2470.17 1102.6 Q2467.2 1098.54 2461.11 1098.54 Q2453.66 1098.54 2449.34 1103.49 Q2445.01 1108.43 2445.01 1116.97 L2445.01 1149.94 L2435.38 1149.94 L2435.38 1115.05 Q2435.38 1106.61 2432.41 1102.6 Q2429.44 1098.54 2423.24 1098.54 Q2415.9 1098.54 2411.58 1103.54 Q2407.25 1108.49 2407.25 1116.97 L2407.25 1149.94 L2397.62 1149.94 L2397.62 1091.61 L2407.25 1091.61 L2407.25 1100.67 Q2410.53 1095.31 2415.12 1092.76 Q2419.7 1090.2 2426 1090.2 Q2432.36 1090.2 2436.78 1093.43 Q2441.26 1096.66 2443.4 1102.81 Z" fill="#000000" fill-rule="nonzero" fill-opacity="1" /><path clip-path="url(#clip770)" d="M2551.78 1118.38 L2551.78 1123.07 L2507.72 1123.07 Q2508.35 1132.96 2513.66 1138.17 Q2519.02 1143.33 2528.55 1143.33 Q2534.08 1143.33 2539.23 1141.97 Q2544.44 1140.62 2549.54 1137.91 L2549.54 1146.97 Q2544.39 1149.16 2538.97 1150.31 Q2533.55 1151.45 2527.98 1151.45 Q2514.02 1151.45 2505.85 1143.33 Q2497.72 1135.2 2497.72 1121.35 Q2497.72 1107.03 2505.43 1098.64 Q2513.19 1090.2 2526.31 1090.2 Q2538.09 1090.2 2544.91 1097.81 Q2551.78 1105.36 2551.78 1118.38 M2542.2 1115.57 Q2542.1 1107.7 2537.77 1103.02 Q2533.5 1098.33 2526.42 1098.33 Q2518.4 1098.33 2513.55 1102.86 Q2508.76 1107.39 2508.03 1115.62 L2542.2 1115.57 Z" fill="#000000" fill-rule="nonzero" fill-opacity="1" /><path clip-path="url(#clip770)" d="M2624.44 1069.01 Q2617.46 1080.99 2614.07 1092.7 Q2610.69 1104.42 2610.69 1116.45 Q2610.69 1128.49 2614.07 1140.31 Q2617.51 1152.08 2624.44 1164.01 L2616.11 1164.01 Q2608.29 1151.77 2604.39 1139.94 Q2600.53 1128.12 2600.53 1116.45 Q2600.53 1104.84 2604.39 1093.07 Q2608.24 1081.3 2616.11 1069.01 L2624.44 1069.01 Z" fill="#000000" fill-rule="nonzero" fill-opacity="1" /><path clip-path="url(#clip770)" d="M2681.42 1100.46 L2681.42 1068.9 L2691 1068.9 L2691 1149.94 L2681.42 1149.94 L2681.42 1141.19 Q2678.4 1146.4 2673.76 1148.95 Q2669.18 1151.45 2662.72 1151.45 Q2652.15 1151.45 2645.48 1143.02 Q2638.87 1134.58 2638.87 1120.83 Q2638.87 1107.08 2645.48 1098.64 Q2652.15 1090.2 2662.72 1090.2 Q2669.18 1090.2 2673.76 1092.76 Q2678.4 1095.26 2681.42 1100.46 M2648.76 1120.83 Q2648.76 1131.4 2653.08 1137.44 Q2657.46 1143.43 2665.06 1143.43 Q2672.67 1143.43 2677.04 1137.44 Q2681.42 1131.4 2681.42 1120.83 Q2681.42 1110.26 2677.04 1104.27 Q2672.67 1098.23 2665.06 1098.23 Q2657.46 1098.23 2653.08 1104.27 Q2648.76 1110.26 2648.76 1120.83 Z" fill="#000000" fill-rule="nonzero" fill-opacity="1" /><path clip-path="url(#clip770)" d="M2737.25 1120.62 Q2725.64 1120.62 2721.16 1123.28 Q2716.68 1125.93 2716.68 1132.34 Q2716.68 1137.44 2720.01 1140.46 Q2723.4 1143.43 2729.18 1143.43 Q2737.15 1143.43 2741.94 1137.81 Q2746.78 1132.13 2746.78 1122.76 L2746.78 1120.62 L2737.25 1120.62 M2756.37 1116.66 L2756.37 1149.94 L2746.78 1149.94 L2746.78 1141.09 Q2743.5 1146.4 2738.61 1148.95 Q2733.71 1151.45 2726.63 1151.45 Q2717.67 1151.45 2712.36 1146.45 Q2707.1 1141.4 2707.1 1132.96 Q2707.1 1123.12 2713.66 1118.12 Q2720.27 1113.12 2733.34 1113.12 L2746.78 1113.12 L2746.78 1112.18 Q2746.78 1105.57 2742.41 1101.98 Q2738.08 1098.33 2730.22 1098.33 Q2725.22 1098.33 2720.48 1099.53 Q2715.74 1100.73 2711.37 1103.12 L2711.37 1094.27 Q2716.63 1092.24 2721.57 1091.25 Q2726.52 1090.2 2731.21 1090.2 Q2743.87 1090.2 2750.12 1096.77 Q2756.37 1103.33 2756.37 1116.66 Z" fill="#000000" fill-rule="nonzero" fill-opacity="1" /><path clip-path="url(#clip770)" d="M2800.38 1155.36 Q2796.31 1165.78 2792.46 1168.95 Q2788.61 1172.13 2782.15 1172.13 L2774.49 1172.13 L2774.49 1164.11 L2780.12 1164.11 Q2784.07 1164.11 2786.26 1162.24 Q2788.45 1160.36 2791.11 1153.38 L2792.82 1149.01 L2769.23 1091.61 L2779.39 1091.61 L2797.62 1137.24 L2815.84 1091.61 L2826 1091.61 L2800.38 1155.36 Z" fill="#000000" fill-rule="nonzero" fill-opacity="1" /><path clip-path="url(#clip770)" d="M2837.72 1069.01 L2846.05 1069.01 Q2853.87 1081.3 2857.72 1093.07 Q2861.63 1104.84 2861.63 1116.45 Q2861.63 1128.12 2857.72 1139.94 Q2853.87 1151.77 2846.05 1164.01 L2837.72 1164.01 Q2844.65 1152.08 2848.03 1140.31 Q2851.47 1128.49 2851.47 1116.45 Q2851.47 1104.42 2848.03 1092.7 Q2844.65 1080.99 2837.72 1069.01 Z" fill="#000000" fill-rule="nonzero" fill-opacity="1" /><polyline clip-path="url(#clip770)" style="stroke:#000000; stroke-linecap:round; stroke-linejoin:round; stroke-width:4; stroke-opacity:1; fill:none" points="404.977,880.951 404.977,47.2441 "/>
<polyline clip-path="url(#clip770)" style="stroke:#000000; stroke-linecap:round; stroke-linejoin:round; stroke-width:4; stroke-opacity:1; fill:none" points="404.977,725.068 423.875,725.068 "/>
<polyline clip-path="url(#clip770)" style="stroke:#000000; stroke-linecap:round; stroke-linejoin:round; stroke-width:4; stroke-opacity:1; fill:none" points="404.977,548.045 423.875,548.045 "/>
<polyline clip-path="url(#clip770)" style="stroke:#000000; stroke-linecap:round; stroke-linejoin:round; stroke-width:4; stroke-opacity:1; fill:none" points="404.977,371.021 423.875,371.021 "/>
<polyline clip-path="url(#clip770)" style="stroke:#000000; stroke-linecap:round; stroke-linejoin:round; stroke-width:4; stroke-opacity:1; fill:none" points="404.977,193.998 423.875,193.998 "/>
<path clip-path="url(#clip770)" d="M151.219 725.971 L210.571 725.971 L210.571 733.841 L151.219 733.841 L151.219 725.971 Z" fill="#000000" fill-rule="nonzero" fill-opacity="1" /><path clip-path="url(#clip770)" d="M228.395 690.508 L272.839 690.508 L272.839 694.49 L247.746 759.628 L237.978 759.628 L261.589 698.378 L228.395 698.378 L228.395 690.508 Z" fill="#000000" fill-rule="nonzero" fill-opacity="1" /><path clip-path="url(#clip770)" d="M291.172 690.508 L327.885 690.508 L327.885 698.378 L299.737 698.378 L299.737 715.323 Q301.774 714.628 303.811 714.304 Q305.848 713.934 307.885 713.934 Q319.459 713.934 326.218 720.276 Q332.977 726.619 332.977 737.452 Q332.977 748.61 326.033 754.813 Q319.089 760.971 306.45 760.971 Q302.098 760.971 297.561 760.23 Q293.07 759.489 288.255 758.008 L288.255 748.61 Q292.422 750.878 296.866 751.989 Q301.311 753.1 306.265 753.1 Q314.274 753.1 318.95 748.887 Q323.626 744.675 323.626 737.452 Q323.626 730.23 318.95 726.017 Q314.274 721.804 306.265 721.804 Q302.515 721.804 298.765 722.638 Q295.061 723.471 291.172 725.23 L291.172 690.508 Z" fill="#000000" fill-rule="nonzero" fill-opacity="1" /><path clip-path="url(#clip770)" d="M149.228 548.947 L208.58 548.947 L208.58 556.818 L149.228 556.818 L149.228 548.947 Z" fill="#000000" fill-rule="nonzero" fill-opacity="1" /><path clip-path="url(#clip770)" d="M228.858 513.485 L265.57 513.485 L265.57 521.355 L237.422 521.355 L237.422 538.299 Q239.459 537.605 241.496 537.281 Q243.533 536.91 245.57 536.91 Q257.144 536.91 263.904 543.253 Q270.663 549.596 270.663 560.429 Q270.663 571.586 263.718 577.79 Q256.774 583.947 244.135 583.947 Q239.783 583.947 235.246 583.207 Q230.756 582.466 225.941 580.984 L225.941 571.586 Q230.108 573.855 234.552 574.966 Q238.996 576.077 243.95 576.077 Q251.959 576.077 256.635 571.864 Q261.311 567.651 261.311 560.429 Q261.311 553.207 256.635 548.994 Q251.959 544.781 243.95 544.781 Q240.2 544.781 236.45 545.614 Q232.746 546.447 228.858 548.207 L228.858 513.485 Z" fill="#000000" fill-rule="nonzero" fill-opacity="1" /><path clip-path="url(#clip770)" d="M309.089 519.642 Q301.866 519.642 298.209 526.772 Q294.598 533.855 294.598 548.114 Q294.598 562.327 298.209 569.457 Q301.866 576.54 309.089 576.54 Q316.357 576.54 319.968 569.457 Q323.626 562.327 323.626 548.114 Q323.626 533.855 319.968 526.772 Q316.357 519.642 309.089 519.642 M309.089 512.235 Q320.709 512.235 326.82 521.448 Q332.977 530.614 332.977 548.114 Q332.977 565.568 326.82 574.781 Q320.709 583.947 309.089 583.947 Q297.468 583.947 291.311 574.781 Q285.2 565.568 285.2 548.114 Q285.2 530.614 291.311 521.448 Q297.468 512.235 309.089 512.235 Z" fill="#000000" fill-rule="nonzero" fill-opacity="1" /><path clip-path="url(#clip770)" d="M151.219 371.924 L210.571 371.924 L210.571 379.794 L151.219 379.794 L151.219 371.924 Z" fill="#000000" fill-rule="nonzero" fill-opacity="1" /><path clip-path="url(#clip770)" d="M238.811 397.711 L271.45 397.711 L271.45 405.581 L227.561 405.581 L227.561 397.711 Q232.885 392.202 242.052 382.942 Q251.265 373.637 253.626 370.952 Q258.117 365.905 259.876 362.433 Q261.681 358.915 261.681 355.535 Q261.681 350.026 257.793 346.554 Q253.95 343.082 247.746 343.082 Q243.348 343.082 238.441 344.609 Q233.58 346.137 228.024 349.239 L228.024 339.795 Q233.672 337.526 238.58 336.369 Q243.487 335.211 247.561 335.211 Q258.302 335.211 264.691 340.582 Q271.08 345.952 271.08 354.933 Q271.08 359.193 269.459 363.035 Q267.885 366.831 263.672 372.017 Q262.515 373.359 256.311 379.794 Q250.107 386.183 238.811 397.711 Z" fill="#000000" fill-rule="nonzero" fill-opacity="1" /><path clip-path="url(#clip770)" d="M291.172 336.461 L327.885 336.461 L327.885 344.332 L299.737 344.332 L299.737 361.276 Q301.774 360.581 303.811 360.257 Q305.848 359.887 307.885 359.887 Q319.459 359.887 326.218 366.23 Q332.977 372.572 332.977 383.405 Q332.977 394.563 326.033 400.766 Q319.089 406.924 306.45 406.924 Q302.098 406.924 297.561 406.183 Q293.07 405.442 288.255 403.961 L288.255 394.563 Q292.422 396.831 296.866 397.942 Q301.311 399.053 306.265 399.053 Q314.274 399.053 318.95 394.841 Q323.626 390.628 323.626 383.405 Q323.626 376.183 318.95 371.97 Q314.274 367.757 306.265 367.757 Q302.515 367.757 298.765 368.591 Q295.061 369.424 291.172 371.183 L291.172 336.461 Z" fill="#000000" fill-rule="nonzero" fill-opacity="1" /><path clip-path="url(#clip770)" d="M309.089 165.595 Q301.866 165.595 298.209 172.725 Q294.598 179.808 294.598 194.067 Q294.598 208.28 298.209 215.41 Q301.866 222.493 309.089 222.493 Q316.357 222.493 319.968 215.41 Q323.626 208.28 323.626 194.067 Q323.626 179.808 319.968 172.725 Q316.357 165.595 309.089 165.595 M309.089 158.188 Q320.709 158.188 326.82 167.401 Q332.977 176.567 332.977 194.067 Q332.977 211.521 326.82 220.734 Q320.709 229.9 309.089 229.9 Q297.468 229.9 291.311 220.734 Q285.2 211.521 285.2 194.067 Q285.2 176.567 291.311 167.401 Q297.468 158.188 309.089 158.188 Z" fill="#000000" fill-rule="nonzero" fill-opacity="1" /><path clip-path="url(#clip772)" d="M528.028 213.894 L545.118 239.396 L562.208 267.474 L579.299 297.169 L596.389 325.627 L613.479 355.285 L630.57 373.086 L647.66 384.286 L664.75 374.728 L681.841 354.935 L698.931 348.62 L716.021 343.102 L733.112 339.387 L750.202 342.118 L767.292 350.749 L784.383 362.331 L801.473 372.978 L818.563 382.416 L835.654 392.773 L852.744 405.575 L869.834 417.967 L886.925 426.975 L904.015 424.844 L921.105 415.264 L938.195 415.278 L955.286 441.588 L972.376 470.457 L989.466 500.973 L1006.56 530.212 L1023.65 556.379 L1040.74 568.973 L1057.83 569.984 L1074.92 551.599 L1092.01 527.114 L1109.1 506.022 L1126.19 485.915 L1143.28 469.085 L1160.37 459.35 L1177.46 455.933 L1194.55 456.874 L1211.64 456.961 L1228.73 461.104 L1245.82 466.57 L1262.91 476.966 L1280 488.078 L1297.09 496.166 L1314.18 493.022 L1331.27 482.286 L1348.36 481.495 L1365.45 507.503 L1382.54 536.144 L1399.63 566.576 L1416.72 595.834 L1433.81 621.894 L1450.91 634.649 L1468 634.289 L1485.09 612.165 L1502.18 583.761 L1519.27 558.867 L1536.36 534.559 L1553.45 513.284 L1570.54 499.435 L1587.63 492.306 L1604.72 489.748 L1621.81 488.164 L1638.9 490.578 L1655.99 494.649 L1673.08 504.747 L1690.17 516.097 L1707.26 524.477 L1724.35 521.405 L1741.44 510.45 L1758.53 504.628 L1775.62 530.636 L1792.71 559.347 L1809.8 589.889 L1826.89 619.285 L1843.98 645.625 L1861.07 658.432 L1878.16 660.153 L1895.25 644.843 L1912.34 614.556 L1929.43 587.852 L1946.52 561.865 L1963.61 538.784 L1980.71 523.326 L1997.8 514.664 L2014.89 510.8 L2031.98 508.223 L2049.07 510.318 L2066.16 513.968 L2083.25 524.162 L2100.34 535.833 L2117.43 544.499 L2134.52 541.505 L2151.61 530.387 L2168.7 531.625 L2185.79 548.307 L2202.88 571.347 L2219.97 602.093 L2237.06 631.742 L2254.15 659.452 L2271.24 680.11 L2288.33 690.159 L2305.42 675.111 L2322.51 642.098 L2339.6 611.914 L2356.69 583.659 L2373.78 558.111 L2390.87 540.406 L2407.96 531.069 L2425.05 526.926 L2442.14 523.368 L2459.23 524.287 L2476.32 527.75 L2493.42 538.427 L2510.51 550.767 L2527.6 560.094 L2544.69 557.512 L2561.78 554.835 L2578.87 556.952 L2595.96 573.923 L2613.05 596.101 L2630.14 623.657 L2647.23 654.445 L2664.32 686.848 L2681.41 708.3 L2698.5 718.841 L2715.59 703.999 L2732.68 670.801 L2749.77 640.664 L2766.86 611.711 L2783.95 585.306 L2801.04 565.527 L2818.13 551.787 L2835.22 542.499 L2852.31 538.941 L2869.4 539.953 L2886.49 543.132 L2903.58 556.257 L2920.67 572.128 L2937.76 584.02 L2954.85 582.139 L2971.94 580.195 L2989.03 582.509 L3006.12 599.599 L3023.22 621.917 L3040.31 649.727 L3057.4 680.964 L3074.49 714.035 L3091.58 736.484 L3108.67 747.454 L3125.76 733.504 L3142.85 700.755 L3159.94 670.674 L3177.03 640.838 L3194.12 613.378 L3211.21 592.423 L3228.3 577.446 L3245.39 567.214 L3262.48 560.82 L3279.57 562.389 L3296.66 568.712 L3313.75 583.997 L3330.84 601.192 L3347.93 614.446 L3365.02 613.598 L3382.11 606.014 L3399.2 608.579 L3416.29 625.951 L3433.38 648.475 L3450.47 676.578 L3467.56 708.297 L3484.65 742.1 L3501.74 765.053 L3518.83 776.515 L3535.92 762.776 L3553.02 733.091 L3570.11 705.173 L3587.2 674.6 L3604.29 644.499 L3621.38 621.468 L3638.47 606.03 L3655.56 597.405 L3672.65 591.448 L3689.74 592.923 L3706.83 599.697 L3723.92 616.04 L3741.01 634.66 L3758.1 649.339 L3775.19 649.486 L3792.28 638.575 L3809.37 634.334 L3826.46 651.89 L3843.55 674.58 L3860.64 702.98 L3877.73 735.182 L3894.82 769.692 L3911.91 793.414 L3929 807.569 L3946.09 805.689 L3963.18 779.192 L3980.27 751.176 L3997.36 719.992 L4014.45 688.669 L4031.54 664.095 L4048.63 646.664 L4065.72 636.439 L4082.82 629.2 L4099.91 630.137 L4117 637.262 L4134.09 654.994 L4151.18 675.394 L4168.27 691.876 L4185.36 693.341 L4202.45 683.081 L4219.54 671.929 L4236.63 679.701 L4253.72 701.956 L4270.81 730.723 L4287.9 763.492 L4304.99 798.844 L4322.08 832.195 L4339.17 857.356 L4356.26 856.658 L4373.35 831.35 L4390.44 803.582 L4407.53 771.68 L4424.62 739.593 L4441.71 713.582 L4458.8 694.74 L4475.89 683.091 L4492.98 674.699 L4510.07 675.762 L4527.16 683.762 L4544.25 702.972 L4561.34 725.469 L4578.43 744.115 L4595.52 747.112 L4612.62 737.56 L4629.71 726.394 L4629.71 92.1582 L4612.62 92.8993 L4595.52 96.4281 L4578.43 99.2613 L4561.34 99.6114 L4544.25 99.6694 L4527.16 98.1636 L4510.07 100.498 L4492.98 102.767 L4475.89 104.648 L4458.8 103.823 L4441.71 101.518 L4424.62 98.1595 L4407.53 98.2186 L4390.44 103.031 L4373.35 114.031 L4356.26 131.557 L4339.17 144.768 L4322.08 147.426 L4304.99 143.832 L4287.9 133.004 L4270.81 120.419 L4253.72 107.419 L4236.63 96.2305 L4219.54 88.2669 L4202.45 88.9497 L4185.36 92.2793 L4168.27 94.9785 L4151.18 95.2124 L4134.09 95.4965 L4117 94.7711 L4099.91 97.2295 L4082.82 99.6096 L4065.72 101.578 L4048.63 100.749 L4031.54 96.756 L4014.45 93.2523 L3997.36 93.3304 L3980.27 98.418 L3963.18 109.624 L3946.09 127.379 L3929 140.849 L3911.91 143.524 L3894.82 139.986 L3877.73 129.222 L3860.64 116.74 L3843.55 103.828 L3826.46 92.7479 L3809.37 84.8868 L3792.28 85.7164 L3775.19 89.2182 L3758.1 92.0156 L3741.01 92.375 L3723.92 92.4794 L3706.83 91.0198 L3689.74 93.2354 L3672.65 95.3328 L3655.56 96.9896 L3638.47 95.9992 L3621.38 93.3769 L3604.29 89.9886 L3587.2 90.1488 L3570.11 95.1593 L3553.02 105.795 L3535.92 123.552 L3518.83 136.996 L3501.74 139.794 L3484.65 136.326 L3467.56 125.588 L3450.47 113.115 L3433.38 100.303 L3416.29 89.3535 L3399.2 81.5606 L3382.11 82.3925 L3365.02 85.9412 L3347.93 88.7883 L3330.84 89.186 L3313.75 85.9123 L3296.66 84.4998 L3279.57 86.7013 L3262.48 88.789 L3245.39 90.493 L3228.3 89.6039 L3211.21 88.0546 L3194.12 86.7261 L3177.03 86.7293 L3159.94 91.0161 L3142.85 101.934 L3125.76 119.622 L3108.67 133.108 L3091.58 135.936 L3074.49 132.507 L3057.4 121.83 L3040.31 109.395 L3023.22 96.5436 L3006.12 85.4985 L2989.03 77.6277 L2971.94 78.36 L2954.85 81.7728 L2937.76 84.5489 L2920.67 84.2516 L2903.58 81.0937 L2886.49 79.6878 L2869.4 81.9089 L2852.31 83.9987 L2835.22 85.7064 L2818.13 84.7307 L2801.04 83.1152 L2783.95 81.4443 L2766.86 81.4231 L2749.77 86.3159 L2732.68 97.3676 L2715.59 115.069 L2698.5 128.532 L2681.41 131.36 L2664.32 127.928 L2647.23 117.337 L2630.14 105.026 L2613.05 92.2957 L2595.96 81.403 L2578.87 73.6624 L2561.78 74.4663 L2544.69 77.8919 L2527.6 80.6802 L2510.51 80.7849 L2493.42 77.4846 L2476.32 76.1664 L2459.23 78.477 L2442.14 80.6697 L2425.05 82.4892 L2407.96 81.626 L2390.87 80.1456 L2373.78 76.9814 L2356.69 77.0299 L2339.6 81.8497 L2322.51 92.8685 L2305.42 110.571 L2288.33 124.135 L2271.24 127.133 L2254.15 123.982 L2237.06 113.604 L2219.97 101.493 L2202.88 88.977 L2185.79 78.3115 L2168.7 70.8396 L2151.61 71.8431 L2134.52 75.5216 L2117.43 78.4653 L2100.34 78.945 L2083.25 77.6761 L2066.16 76.5072 L2049.07 79.0291 L2031.98 81.4773 L2014.89 83.5139 L1997.8 82.7452 L1980.71 79.9697 L1963.61 76.4034 L1946.52 76.369 L1929.43 81.1959 L1912.34 92.6044 L1895.25 110.713 L1878.16 124.656 L1861.07 127.907 L1843.98 124.949 L1826.89 114.767 L1809.8 102.856 L1792.71 90.5218 L1775.62 80.0392 L1758.53 72.7108 L1741.44 73.9791 L1724.35 77.9639 L1707.26 81.253 L1690.17 82.1257 L1673.08 83.0039 L1655.99 82.2263 L1638.9 85.0976 L1621.81 87.8595 L1604.72 90.1856 L1587.63 89.7497 L1570.54 86.0634 L1553.45 82.9694 L1536.36 83.6193 L1519.27 88.9712 L1502.18 100.165 L1485.09 118.663 L1468 132.915 L1450.91 136.582 L1433.81 134.049 L1416.72 124.3 L1399.63 112.837 L1382.54 100.998 L1365.45 91.0274 L1348.36 84.3001 L1331.27 86.1163 L1314.18 90.6636 L1297.09 94.5982 L1280 96.1444 L1262.91 97.8652 L1245.82 99.5079 L1228.73 103.267 L1211.64 106.721 L1194.55 109.014 L1177.46 108.799 L1160.37 106.227 L1143.28 104.131 L1126.19 105.654 L1109.1 112.012 L1092.01 124.552 L1074.92 143.708 L1057.83 158.655 L1040.74 162.913 L1023.65 160.996 L1006.56 151.878 L989.466 138.612 L972.376 124.199 L955.286 112.869 L938.195 107.388 L921.105 113.693 L904.015 123.832 L886.925 129.169 L869.834 131.445 L852.744 130.411 L835.654 131.261 L818.563 135.137 L801.473 138.995 L784.383 142.689 L767.292 143.954 L750.202 138.699 L733.112 135.957 L716.021 142.002 L698.931 155.2 L681.841 170.162 L664.75 192.221 L647.66 210.867 L630.57 218.63 L613.479 219.492 L596.389 213.424 L579.299 205.104 L562.208 192.515 L545.118 183.004 L528.028 179.084  Z" fill="#aeaeae" fill-rule="evenodd" fill-opacity="0.5"/>
<polyline clip-path="url(#clip772)" style="stroke:#aeaeae; stroke-linecap:round; stroke-linejoin:round; stroke-width:0; stroke-opacity:1; fill:none" points="528.028,191.585 545.118,195.871 562.208,202.161 579.299,209.515 596.389,216.572 613.479,222.54 630.57,224.076 647.66,221.744 664.75,213.127 681.841,202.033 698.931,194.836 716.021,190.536 733.112,188.818 750.202,189.975 767.292,192.622 784.383,195.473 801.473,196.812 818.563,197.327 835.654,196.7 852.744,196.767 869.834,196.819 886.925,196.621 904.015,194.56 921.105,191.786 938.195,190.603 955.286,194.801 972.376,201.095 989.466,208.511 1006.56,215.637 1023.65,221.713 1040.74,223.332 1057.83,221.046 1074.92,212.297 1092.01,200.999 1109.1,193.644 1126.19,189.275 1143.28,187.567 1160.37,188.714 1177.46,191.328 1194.55,194.103 1211.64,195.383 1228.73,195.872 1245.82,195.248 1262.91,195.419 1280,195.621 1297.09,195.569 1314.18,193.645 1331.27,190.993 1348.36,189.918 1365.45,194.219 1382.54,200.611 1399.63,208.124 1416.72,215.356 1433.81,221.533 1450.91,223.242 1468,221.032 1485.09,212.287 1502.18,200.926 1519.27,193.525 1536.36,189.128 1553.45,187.407 1570.54,188.545 1587.63,191.147 1604.72,193.931 1621.81,195.206 1638.9,195.697 1655.99,195.111 1673.08,195.364 1690.17,195.653 1707.26,195.687 1724.35,193.843 1741.44,191.265 1758.53,190.258 1775.62,194.628 1792.71,201.088 1809.8,208.675 1826.89,215.971 1843.98,222.217 1861.07,224.001 1878.16,221.835 1895.25,213.114 1912.34,201.779 1929.43,194.375 1946.52,189.973 1963.61,188.24 1980.71,189.363 1997.8,191.97 2014.89,194.751 2031.98,196.009 2049.07,196.493 2066.16,195.923 2083.25,196.198 2100.34,196.522 2117.43,196.6 2134.52,194.8 2151.61,192.262 2168.7,191.292 2185.79,195.705 2202.88,202.204 2219.97,209.834 2237.06,217.185 2254.15,223.485 2271.24,225.328 2288.33,223.229 2305.42,214.555 2322.51,203.222 2339.6,195.812 2356.69,191.379 2373.78,189.626 2390.87,190.723 2407.96,193.291 2425.05,196.03 2442.14,197.273 2459.23,197.738 2476.32,197.163 2493.42,197.461 2510.51,197.812 2527.6,197.914 2544.69,196.14 2561.78,193.626 2578.87,192.675 2595.96,197.109 2613.05,203.632 2630.14,211.284 2647.23,218.665 2664.32,224.995 2681.41,226.866 2698.5,224.782 2715.59,216.105 2732.68,204.764 2749.77,197.33 2766.86,192.889 2783.95,191.096 2801.04,192.16 2818.13,194.698 2835.22,197.401 2852.31,198.629 2869.4,199.093 2886.49,198.498 2903.58,198.785 2920.67,199.134 2937.76,199.244 2954.85,197.477 2971.94,194.973 2989.03,194.032 3006.12,198.479 3023.22,205.015 3040.31,212.687 3057.4,220.094 3074.49,226.445 3091.58,228.338 3108.67,226.273 3125.76,217.643 3142.85,206.318 3159.94,198.856 3177.03,194.379 3194.12,192.55 3211.21,193.578 3228.3,196.061 3245.39,198.74 3262.48,199.938 3279.57,200.376 3296.66,199.764 3313.75,200.049 3330.84,200.388 3347.93,200.496 3365.02,198.74 3382.11,196.236 3399.2,195.296 3416.29,199.749 3433.38,206.296 3450.47,213.967 3467.56,221.381 3484.65,227.756 3501.74,229.67 3518.83,227.621 3535.92,218.958 3553.02,207.625 3570.11,200.153 3587.2,195.64 3604.29,193.782 3621.38,194.777 3638.47,197.253 3655.56,199.898 3672.65,201.054 3689.74,201.484 3706.83,200.875 3723.92,201.129 3741.01,201.467 3758.1,201.579 3775.19,199.818 3792.28,197.321 3809.37,196.383 3826.46,200.836 3843.55,207.383 3860.64,215.07 3877.73,222.489 3894.82,228.869 3911.91,230.784 3929,228.736 3946.09,220.089 3963.18,208.752 3980.27,201.272 3997.36,196.743 4014.45,194.867 4031.54,195.841 4048.63,198.288 4065.72,200.92 4082.82,202.06 4099.91,202.461 4117,201.825 4134.09,202.072 4151.18,202.408 4168.27,202.518 4185.36,200.761 4202.45,198.262 4219.54,197.324 4236.63,201.78 4253.72,208.331 4270.81,216.018 4287.9,223.444 4304.99,229.834 4322.08,231.775 4339.17,229.752 4356.26,221.093 4373.35,209.734 4390.44,202.229 4407.53,197.662 4424.62,195.779 4441.71,196.734 4458.8,199.158 4475.89,201.783 4492.98,202.901 4510.07,203.281 4527.16,202.641 4544.25,202.887 4561.34,203.228 4578.43,203.341 4595.52,201.584 4612.62,199.085 4629.71,198.146 "/>
<path clip-path="url(#clip772)" d="M528.028 201.436 L545.118 213.305 L562.208 230.946 L579.299 253.155 L596.389 276.52 L613.479 299.93 L630.57 311.403 L647.66 315.52 L664.75 300.036 L681.841 275.117 L698.931 260.679 L716.021 247.904 L733.112 244.136 L750.202 247.069 L767.292 253.337 L784.383 261.868 L801.473 267.644 L818.563 273.404 L835.654 276.167 L852.744 279.973 L869.834 281.535 L886.925 286.192 L904.015 283.884 L921.105 280.805 L938.195 280.929 L955.286 294.841 L972.376 311.819 L989.466 334.041 L1006.56 355.203 L1023.65 376.813 L1040.74 386.197 L1057.83 385.567 L1074.92 369.092 L1092.01 340.313 L1109.1 320.254 L1126.19 303.214 L1143.28 292.924 L1160.37 293.39 L1177.46 295.928 L1194.55 297.236 L1211.64 296.046 L1228.73 296.192 L1245.82 295.899 L1262.91 300.183 L1280 306.327 L1297.09 308.266 L1314.18 306.795 L1331.27 306.462 L1348.36 303.3 L1365.45 314.574 L1382.54 334.2 L1399.63 356.767 L1416.72 379.666 L1433.81 399.847 L1450.91 409.02 L1468 410.941 L1485.09 391.173 L1502.18 364.88 L1519.27 339.012 L1536.36 319.151 L1553.45 310.36 L1570.54 307.269 L1587.63 307.414 L1604.72 305.934 L1621.81 305.136 L1638.9 304.447 L1655.99 302.726 L1673.08 306.205 L1690.17 311.655 L1707.26 315.819 L1724.35 315.708 L1741.44 314.096 L1758.53 310.973 L1775.62 321.888 L1792.71 340.059 L1809.8 362.867 L1826.89 387.378 L1843.98 407.507 L1861.07 415.816 L1878.16 419.235 L1895.25 400.384 L1912.34 372.521 L1929.43 347.58 L1946.52 324.744 L1963.61 315.081 L1980.71 310.841 L1997.8 310.227 L2014.89 310.553 L2031.98 309.042 L2049.07 308.925 L2066.16 307.235 L2083.25 310.904 L2100.34 315.381 L2117.43 320.039 L2134.52 320.191 L2151.61 319.127 L2168.7 319.863 L2185.79 327.363 L2202.88 344.731 L2219.97 367.578 L2237.06 392.306 L2254.15 412.41 L2271.24 421.46 L2288.33 423.662 L2305.42 404.708 L2322.51 377.522 L2339.6 350.906 L2356.69 328.707 L2373.78 316.524 L2390.87 312.233 L2407.96 312.181 L2425.05 313.061 L2442.14 312.614 L2459.23 311.184 L2476.32 310.164 L2493.42 314.237 L2510.51 318.079 L2527.6 324.163 L2544.69 323.282 L2561.78 322.456 L2578.87 325.568 L2595.96 336.929 L2613.05 349.798 L2630.14 372.316 L2647.23 396.555 L2664.32 414.765 L2681.41 424.383 L2698.5 425.974 L2715.59 410.405 L2732.68 384.094 L2749.77 355.778 L2766.86 334.274 L2783.95 319.736 L2801.04 314.103 L2818.13 314.229 L2835.22 315.964 L2852.31 317.354 L2869.4 314.488 L2886.49 313.085 L2903.58 317.16 L2920.67 322.185 L2937.76 327.37 L2954.85 325.658 L2971.94 324.871 L2989.03 327.443 L3006.12 342.296 L3023.22 358.789 L3040.31 376.162 L3057.4 399.049 L3074.49 416.582 L3091.58 425.857 L3108.67 429.529 L3125.76 413.609 L3142.85 386.362 L3159.94 358.003 L3177.03 337.498 L3194.12 322.483 L3211.21 317.771 L3228.3 318.886 L3245.39 318.897 L3262.48 318.96 L3279.57 316.755 L3296.66 314.442 L3313.75 319.08 L3330.84 323.884 L3347.93 329.224 L3365.02 327.767 L3382.11 327.544 L3399.2 328.813 L3416.29 344.77 L3433.38 361.349 L3450.47 379.112 L3467.56 400.622 L3484.65 420.289 L3501.74 427.984 L3518.83 432.199 L3535.92 417.064 L3553.02 388.808 L3570.11 360.331 L3587.2 340.334 L3604.29 326.538 L3621.38 319.733 L3638.47 320.406 L3655.56 320.407 L3672.65 320.907 L3689.74 319.251 L3706.83 316.7 L3723.92 321.969 L3741.01 326.735 L3758.1 330.274 L3775.19 329.433 L3792.28 329.317 L3809.37 331.456 L3826.46 345.382 L3843.55 362.748 L3860.64 383.49 L3877.73 402.08 L3894.82 422.485 L3911.91 430.605 L3929 434.109 L3946.09 417.379 L3963.18 389.634 L3980.27 362.225 L3997.36 341.753 L4014.45 327.036 L4031.54 320.466 L4048.63 322.099 L4065.72 322.499 L4082.82 322.39 L4099.91 320.836 L4117 318.137 L4134.09 322.448 L4151.18 327.481 L4168.27 332.307 L4185.36 330.153 L4202.45 330.485 L4219.54 333.074 L4236.63 345.268 L4253.72 362.6 L4270.81 384.714 L4287.9 402.32 L4304.99 424.447 L4322.08 433.028 L4339.17 433.974 L4356.26 417.687 L4373.35 389.236 L4390.44 362.222 L4407.53 344.688 L4424.62 326.432 L4441.71 320.612 L4458.8 322.035 L4475.89 324.038 L4492.98 323.678 L4510.07 322.468 L4527.16 320.361 L4544.25 324.208 L4561.34 328.952 L4578.43 334.179 L4595.52 331.586 L4612.62 330.206 L4629.71 333.069 L4629.71 123.645 L4612.62 127.197 L4595.52 133.416 L4578.43 136.527 L4561.34 135.715 L4544.25 134.559 L4527.16 134.937 L4510.07 138.537 L4492.98 141.692 L4475.89 140.659 L4458.8 138.237 L4441.71 132.412 L4424.62 128.868 L4407.53 129.973 L4390.44 135.347 L4373.35 147.53 L4356.26 165.89 L4339.17 181.165 L4322.08 185.32 L4304.99 182.107 L4287.9 170.395 L4270.81 157.298 L4253.72 142.047 L4236.63 129.892 L4219.54 122.213 L4202.45 125.462 L4185.36 131.586 L4168.27 134.063 L4151.18 132.612 L4134.09 132.169 L4117 132.49 L4099.91 136.311 L4082.82 138.778 L4065.72 139.541 L4048.63 135.549 L4031.54 129.084 L4014.45 125.851 L3997.36 126.894 L3980.27 132.534 L3963.18 143.934 L3946.09 162.286 L3929 177.291 L3911.91 181.282 L3894.82 179.166 L3877.73 167.727 L3860.64 154.028 L3843.55 140.013 L3826.46 127.88 L3809.37 120.65 L3792.28 123.04 L3775.19 128.199 L3758.1 130.6 L3741.01 129.554 L3723.92 128.686 L3706.83 129.377 L3689.74 132.965 L3672.65 135.319 L3655.56 135.918 L3638.47 131.856 L3621.38 127.034 L3604.29 122.836 L3587.2 123.858 L3570.11 129.285 L3553.02 140.003 L3535.92 158.887 L3518.83 174.758 L3501.74 178.369 L3484.65 175.819 L3467.56 164.369 L3450.47 151.311 L3433.38 137.039 L3416.29 125.422 L3399.2 117.619 L3382.11 119.534 L3365.02 125.263 L3347.93 128.092 L3330.84 125.287 L3313.75 126.173 L3296.66 126.514 L3279.57 128.248 L3262.48 129.624 L3245.39 130.801 L3228.3 128.392 L3211.21 123.504 L3194.12 119.372 L3177.03 120.863 L3159.94 125.835 L3142.85 136.193 L3125.76 155.169 L3108.67 171.06 L3091.58 174.648 L3074.49 171.942 L3057.4 160.832 L3040.31 147.966 L3023.22 133.516 L3006.12 122.094 L2989.03 114.182 L2971.94 116.702 L2954.85 121.551 L2937.76 124.84 L2920.67 121.302 L2903.58 122.668 L2886.49 122.071 L2869.4 123.985 L2852.31 125.844 L2835.22 127.171 L2818.13 125.034 L2801.04 119.524 L2783.95 116.398 L2766.86 117.921 L2749.77 122.501 L2732.68 133.237 L2715.59 151.681 L2698.5 166.71 L2681.41 171.095 L2664.32 167.828 L2647.23 156.753 L2630.14 144.146 L2613.05 130.069 L2595.96 118.704 L2578.87 110.603 L2561.78 113.367 L2544.69 118.238 L2527.6 120.615 L2510.51 118.84 L2493.42 118.672 L2476.32 116.921 L2459.23 118.617 L2442.14 121.247 L2425.05 122.324 L2407.96 121.051 L2390.87 116.067 L2373.78 113.483 L2356.69 114.299 L2339.6 119.022 L2322.51 129.385 L2305.42 148.205 L2288.33 163.887 L2271.24 167.792 L2254.15 163.731 L2237.06 153.445 L2219.97 140.99 L2202.88 127.535 L2185.79 115.876 L2168.7 108.245 L2151.61 109.788 L2134.52 115.154 L2117.43 117.76 L2100.34 116.748 L2083.25 115.89 L2066.16 114.947 L2049.07 116.984 L2031.98 118.736 L2014.89 119.942 L1997.8 118.118 L1980.71 115.108 L1963.61 112.256 L1946.52 113.064 L1929.43 117.124 L1912.34 126.95 L1895.25 146.408 L1878.16 162.068 L1861.07 165.897 L1843.98 163.085 L1826.89 152.748 L1809.8 140.799 L1792.71 127.933 L1775.62 116.487 L1758.53 108.4 L1741.44 110.485 L1724.35 115.793 L1707.26 119.097 L1690.17 117.755 L1673.08 116.744 L1655.99 116.105 L1638.9 118.339 L1621.81 120.506 L1604.72 122.15 L1587.63 121.026 L1570.54 116.992 L1553.45 113.036 L1536.36 114.914 L1519.27 120.456 L1502.18 131.853 L1485.09 151.134 L1468 166.7 L1450.91 170.588 L1433.81 168.183 L1416.72 158.44 L1399.63 146.433 L1382.54 132.392 L1365.45 120.286 L1348.36 113.292 L1331.27 117.423 L1314.18 122.65 L1297.09 126.217 L1280 125.67 L1262.91 126.159 L1245.82 126.739 L1228.73 130.095 L1211.64 133.132 L1194.55 134.776 L1177.46 131.78 L1160.37 126.997 L1143.28 124.606 L1126.19 126.439 L1109.1 133.803 L1092.01 146.055 L1074.92 166.386 L1057.83 182.515 L1040.74 187.127 L1023.65 184.879 L1006.56 174.858 L989.466 161.69 L972.376 148.341 L955.286 136.563 L938.195 130.149 L921.105 135.108 L904.015 142.258 L886.925 148.278 L869.834 150.057 L852.744 149.172 L835.654 150.337 L818.563 154.412 L801.473 158.11 L784.383 160.418 L767.292 156.925 L750.202 153.604 L733.112 152.55 L716.021 157.376 L698.931 166.923 L681.841 181.853 L664.75 202.759 L647.66 220.68 L630.57 227.46 L613.479 227.754 L596.389 220.62 L579.299 210.191 L562.208 197.558 L545.118 187.163 L528.028 181.977  Z" fill="#757575" fill-rule="evenodd" fill-opacity="0.5"/>
<polyline clip-path="url(#clip772)" style="stroke:#757575; stroke-linecap:round; stroke-linejoin:round; stroke-width:0; stroke-opacity:1; fill:none" points="528.028,191.585 545.118,195.871 562.208,202.161 579.299,209.515 596.389,216.572 613.479,222.54 630.57,224.076 647.66,221.744 664.75,213.127 681.841,202.033 698.931,194.836 716.021,190.536 733.112,188.818 750.202,189.975 767.292,192.622 784.383,195.473 801.473,196.812 818.563,197.327 835.654,196.7 852.744,196.767 869.834,196.819 886.925,196.621 904.015,194.56 921.105,191.786 938.195,190.603 955.286,194.801 972.376,201.095 989.466,208.511 1006.56,215.637 1023.65,221.713 1040.74,223.332 1057.83,221.046 1074.92,212.297 1092.01,200.999 1109.1,193.644 1126.19,189.275 1143.28,187.567 1160.37,188.714 1177.46,191.328 1194.55,194.103 1211.64,195.383 1228.73,195.872 1245.82,195.248 1262.91,195.419 1280,195.621 1297.09,195.569 1314.18,193.645 1331.27,190.993 1348.36,189.918 1365.45,194.219 1382.54,200.611 1399.63,208.124 1416.72,215.356 1433.81,221.533 1450.91,223.242 1468,221.032 1485.09,212.287 1502.18,200.926 1519.27,193.525 1536.36,189.128 1553.45,187.407 1570.54,188.545 1587.63,191.147 1604.72,193.931 1621.81,195.206 1638.9,195.697 1655.99,195.111 1673.08,195.364 1690.17,195.653 1707.26,195.687 1724.35,193.843 1741.44,191.265 1758.53,190.258 1775.62,194.628 1792.71,201.088 1809.8,208.675 1826.89,215.971 1843.98,222.217 1861.07,224.001 1878.16,221.835 1895.25,213.114 1912.34,201.779 1929.43,194.375 1946.52,189.973 1963.61,188.24 1980.71,189.363 1997.8,191.97 2014.89,194.751 2031.98,196.009 2049.07,196.493 2066.16,195.923 2083.25,196.198 2100.34,196.522 2117.43,196.6 2134.52,194.8 2151.61,192.262 2168.7,191.292 2185.79,195.705 2202.88,202.204 2219.97,209.834 2237.06,217.185 2254.15,223.485 2271.24,225.328 2288.33,223.229 2305.42,214.555 2322.51,203.222 2339.6,195.812 2356.69,191.379 2373.78,189.626 2390.87,190.723 2407.96,193.291 2425.05,196.03 2442.14,197.273 2459.23,197.738 2476.32,197.163 2493.42,197.461 2510.51,197.812 2527.6,197.914 2544.69,196.14 2561.78,193.626 2578.87,192.675 2595.96,197.109 2613.05,203.632 2630.14,211.284 2647.23,218.665 2664.32,224.995 2681.41,226.866 2698.5,224.782 2715.59,216.105 2732.68,204.764 2749.77,197.33 2766.86,192.889 2783.95,191.096 2801.04,192.16 2818.13,194.698 2835.22,197.401 2852.31,198.629 2869.4,199.093 2886.49,198.498 2903.58,198.785 2920.67,199.134 2937.76,199.244 2954.85,197.477 2971.94,194.973 2989.03,194.032 3006.12,198.479 3023.22,205.015 3040.31,212.687 3057.4,220.094 3074.49,226.445 3091.58,228.338 3108.67,226.273 3125.76,217.643 3142.85,206.318 3159.94,198.856 3177.03,194.379 3194.12,192.55 3211.21,193.578 3228.3,196.061 3245.39,198.74 3262.48,199.938 3279.57,200.376 3296.66,199.764 3313.75,200.049 3330.84,200.388 3347.93,200.496 3365.02,198.74 3382.11,196.236 3399.2,195.296 3416.29,199.749 3433.38,206.296 3450.47,213.967 3467.56,221.381 3484.65,227.756 3501.74,229.67 3518.83,227.621 3535.92,218.958 3553.02,207.625 3570.11,200.153 3587.2,195.64 3604.29,193.782 3621.38,194.777 3638.47,197.253 3655.56,199.898 3672.65,201.054 3689.74,201.484 3706.83,200.875 3723.92,201.129 3741.01,201.467 3758.1,201.579 3775.19,199.818 3792.28,197.321 3809.37,196.383 3826.46,200.836 3843.55,207.383 3860.64,215.07 3877.73,222.489 3894.82,228.869 3911.91,230.784 3929,228.736 3946.09,220.089 3963.18,208.752 3980.27,201.272 3997.36,196.743 4014.45,194.867 4031.54,195.841 4048.63,198.288 4065.72,200.92 4082.82,202.06 4099.91,202.461 4117,201.825 4134.09,202.072 4151.18,202.408 4168.27,202.518 4185.36,200.761 4202.45,198.262 4219.54,197.324 4236.63,201.78 4253.72,208.331 4270.81,216.018 4287.9,223.444 4304.99,229.834 4322.08,231.775 4339.17,229.752 4356.26,221.093 4373.35,209.734 4390.44,202.229 4407.53,197.662 4424.62,195.779 4441.71,196.734 4458.8,199.158 4475.89,201.783 4492.98,202.901 4510.07,203.281 4527.16,202.641 4544.25,202.887 4561.34,203.228 4578.43,203.341 4595.52,201.584 4612.62,199.085 4629.71,198.146 "/>
<path clip-path="url(#clip772)" d="M528.028 196.743 L545.118 207.32 L562.208 221.983 L579.299 242.546 L596.389 263.748 L613.479 283.572 L630.57 292.088 L647.66 290.782 L664.75 273.475 L681.841 248.577 L698.931 231.776 L716.021 222.339 L733.112 218.407 L750.202 223.186 L767.292 229.764 L784.383 238.321 L801.473 243.297 L818.563 246.968 L835.654 246.74 L852.744 248.24 L869.834 251.84 L886.925 254.565 L904.015 244.232 L921.105 240.987 L938.195 239.999 L955.286 250.306 L972.376 264.716 L989.466 281.354 L1006.56 298.717 L1023.65 319.399 L1040.74 327.162 L1057.83 329.115 L1074.92 309.54 L1092.01 278.457 L1109.1 258.23 L1126.19 246.44 L1143.28 241.358 L1160.37 242.085 L1177.46 247.2 L1194.55 252.754 L1211.64 257.587 L1228.73 259.001 L1245.82 258.541 L1262.91 260.546 L1280 264.604 L1297.09 262.917 L1314.18 254.287 L1331.27 249.302 L1348.36 249.475 L1365.45 258.742 L1382.54 273.598 L1399.63 290.343 L1416.72 309.791 L1433.81 327.924 L1450.91 334.553 L1468 337.351 L1485.09 316.83 L1502.18 285.08 L1519.27 267.249 L1536.36 255.481 L1553.45 248.553 L1570.54 249.094 L1587.63 253.093 L1604.72 258.187 L1621.81 260.907 L1638.9 263.247 L1655.99 263.437 L1673.08 263.708 L1690.17 267.362 L1707.26 265.918 L1724.35 258.295 L1741.44 253.754 L1758.53 254.334 L1775.62 263.447 L1792.71 276.265 L1809.8 293.605 L1826.89 312.385 L1843.98 331.182 L1861.07 337.37 L1878.16 338.477 L1895.25 318.476 L1912.34 289.28 L1929.43 270.646 L1946.52 257.395 L1963.61 251.823 L1980.71 251.203 L1997.8 255.209 L2014.89 261.023 L2031.98 263.13 L2049.07 265.542 L2066.16 265.781 L2083.25 265.483 L2100.34 269.131 L2117.43 268.427 L2134.52 260.81 L2151.61 258.823 L2168.7 257.786 L2185.79 269.073 L2202.88 281.087 L2219.97 295.506 L2237.06 314.794 L2254.15 333.503 L2271.24 340.492 L2288.33 340.813 L2305.42 321.632 L2322.51 291.198 L2339.6 272.654 L2356.69 261.159 L2373.78 254.507 L2390.87 254.135 L2407.96 258.37 L2425.05 263.122 L2442.14 264.822 L2459.23 267.787 L2476.32 267.467 L2493.42 267.207 L2510.51 270.387 L2527.6 270.563 L2544.69 264.649 L2561.78 261.207 L2578.87 260.875 L2595.96 272.201 L2613.05 283.177 L2630.14 298.934 L2647.23 316.445 L2664.32 335.947 L2681.41 343.93 L2698.5 341.208 L2715.59 321.932 L2732.68 293.993 L2749.77 274.54 L2766.86 262.994 L2783.95 258.062 L2801.04 258.126 L2818.13 261.673 L2835.22 265.988 L2852.31 267.98 L2869.4 270.284 L2886.49 270.086 L2903.58 268.916 L2920.67 273.088 L2937.76 272.708 L2954.85 268.251 L2971.94 263.478 L2989.03 263.27 L3006.12 274.498 L3023.22 285.914 L3040.31 300.514 L3057.4 318.669 L3074.49 336.787 L3091.58 344.266 L3108.67 343.932 L3125.76 323.209 L3142.85 296.328 L3159.94 276.893 L3177.03 265.991 L3194.12 260.88 L3211.21 260.538 L3228.3 264.269 L3245.39 268.24 L3262.48 271.823 L3279.57 272.934 L3296.66 272.347 L3313.75 273.516 L3330.84 276.375 L3347.93 276.62 L3365.02 270.344 L3382.11 265.488 L3399.2 265.792 L3416.29 275.994 L3433.38 288.828 L3450.47 301.976 L3467.56 320.847 L3484.65 338.542 L3501.74 346.714 L3518.83 344.24 L3535.92 325.421 L3553.02 298.471 L3570.11 279.4 L3587.2 268.25 L3604.29 263.601 L3621.38 262.652 L3638.47 266.484 L3655.56 271.006 L3672.65 273.495 L3689.74 274.756 L3706.83 274.027 L3723.92 275.708 L3741.01 278.117 L3758.1 279.172 L3775.19 272.561 L3792.28 268.614 L3809.37 267.079 L3826.46 276.987 L3843.55 290.863 L3860.64 303.731 L3877.73 322.966 L3894.82 340.817 L3911.91 348.471 L3929 346.051 L3946.09 327.121 L3963.18 301.963 L3980.27 280.374 L3997.36 271.243 L4014.45 264.897 L4031.54 263.875 L4048.63 267.516 L4065.72 272.014 L4082.82 274.435 L4099.91 276.11 L4117 275.242 L4134.09 277.545 L4151.18 278.862 L4168.27 279.592 L4185.36 273.96 L4202.45 270.763 L4219.54 268.019 L4236.63 277.559 L4253.72 292.644 L4270.81 306.253 L4287.9 323.661 L4304.99 342.229 L4322.08 349.109 L4339.17 346.994 L4356.26 329.044 L4373.35 302.438 L4390.44 282.166 L4407.53 272.644 L4424.62 266.132 L4441.71 265.479 L4458.8 269.653 L4475.89 273.877 L4492.98 275.881 L4510.07 277.085 L4527.16 276.495 L4544.25 277.194 L4561.34 280.406 L4578.43 280.684 L4595.52 275.582 L4612.62 271.401 L4629.71 269.989 L4629.71 135.643 L4612.62 138.196 L4595.52 142.81 L4578.43 148.613 L4561.34 151.582 L4544.25 152.192 L4527.16 153.372 L4510.07 156.999 L4492.98 158.509 L4475.89 156.261 L4458.8 150.855 L4441.71 143.763 L4424.62 138.856 L4407.53 138.959 L4390.44 144.519 L4373.35 156.204 L4356.26 175.503 L4339.17 191.531 L4322.08 195.98 L4304.99 192.356 L4287.9 181.575 L4270.81 168.821 L4253.72 154.933 L4236.63 141.338 L4219.54 134.175 L4202.45 135.875 L4185.36 140.912 L4168.27 146.421 L4151.18 149.552 L4134.09 150.128 L4117 151.253 L4099.91 154.865 L4082.82 156.122 L4065.72 154.225 L4048.63 148.436 L4031.54 141.968 L4014.45 137.18 L3997.36 137.368 L3980.27 142.781 L3963.18 153.863 L3946.09 173.702 L3929 188.794 L3911.91 193.192 L3894.82 190.737 L3877.73 179.552 L3860.64 166.672 L3843.55 152.569 L3826.46 139.993 L3809.37 131.901 L3792.28 133.332 L3775.19 139.184 L3758.1 144.893 L3741.01 147.137 L3723.92 146.873 L3706.83 148.451 L3689.74 152.38 L3672.65 153.665 L3655.56 152.217 L3638.47 145.506 L3621.38 139.416 L3604.29 134.929 L3587.2 135.191 L3570.11 140.207 L3553.02 151.416 L3535.92 170.883 L3518.83 185.861 L3501.74 190.366 L3484.65 187.772 L3467.56 176.648 L3450.47 162.63 L3433.38 149.622 L3416.29 136.766 L3399.2 128.825 L3382.11 130.596 L3365.02 136.547 L3347.93 142.447 L3330.84 142.846 L3313.75 144.808 L3296.66 145.74 L3279.57 149.101 L3262.48 150.96 L3245.39 149.386 L3228.3 143.085 L3211.21 136.668 L3194.12 131.983 L3177.03 132.31 L3159.94 137.343 L3142.85 148.511 L3125.76 167.645 L3108.67 182.919 L3091.58 187.387 L3074.49 184.645 L3057.4 173.671 L3040.31 159.798 L3023.22 145.15 L3006.12 133.378 L2989.03 125.215 L2971.94 127.779 L2954.85 133.558 L2937.76 139.451 L2920.67 140.705 L2903.58 141.122 L2886.49 141.229 L2869.4 145.16 L2852.31 147.303 L2835.22 146.108 L2818.13 140.318 L2801.04 132.889 L2783.95 128.284 L2766.86 128.76 L2749.77 134.289 L2732.68 145.04 L2715.59 164.089 L2698.5 179.446 L2681.41 185.236 L2664.32 181.811 L2647.23 170.297 L2630.14 156.654 L2613.05 141.849 L2595.96 129.909 L2578.87 122.105 L2561.78 124.001 L2544.69 131.661 L2527.6 135.661 L2510.51 137.063 L2493.42 137.447 L2476.32 137.999 L2459.23 141.214 L2442.14 143.801 L2425.05 142.664 L2407.96 136.987 L2390.87 129.982 L2373.78 124.855 L2356.69 126.054 L2339.6 130.209 L2322.51 141.871 L2305.42 160.895 L2288.33 176.812 L2271.24 181.531 L2254.15 179.478 L2237.06 167.455 L2219.97 152.995 L2202.88 139.29 L2185.79 126.992 L2168.7 119.334 L2151.61 121.642 L2134.52 128.916 L2117.43 133.389 L2100.34 133.77 L2083.25 134.281 L2066.16 133.885 L2049.07 137.96 L2031.98 140.745 L2014.89 140.268 L1997.8 134.002 L1980.71 127.513 L1963.61 122.988 L1946.52 123.626 L1929.43 127.945 L1912.34 139.475 L1895.25 158.817 L1878.16 174.92 L1861.07 179.926 L1843.98 176.936 L1826.89 165.455 L1809.8 151.475 L1792.71 137.42 L1775.62 126.432 L1758.53 118.952 L1741.44 120.763 L1724.35 127.993 L1707.26 132.876 L1690.17 133.333 L1673.08 133.579 L1655.99 134.086 L1638.9 138.68 L1621.81 140.658 L1604.72 140.659 L1587.63 134.422 L1570.54 128.135 L1553.45 123.579 L1536.36 125.139 L1519.27 130.368 L1502.18 141.793 L1485.09 161.189 L1468 177.095 L1450.91 181.476 L1433.81 179.08 L1416.72 168.685 L1399.63 155.58 L1382.54 142.411 L1365.45 130.265 L1348.36 123.153 L1331.27 125.668 L1314.18 131.846 L1297.09 137.834 L1280 138.841 L1262.91 139.425 L1245.82 141.565 L1228.73 145.376 L1211.64 147.103 L1194.55 146.709 L1177.46 141.721 L1160.37 136.41 L1143.28 132.794 L1126.19 133.943 L1109.1 140.268 L1092.01 152.361 L1074.92 172.992 L1057.83 188.898 L1040.74 193.922 L1023.65 192.892 L1006.56 183.139 L989.466 169.7 L972.376 155.991 L955.286 144.503 L938.195 137.888 L921.105 141.896 L904.015 149.24 L886.925 154.622 L869.834 156.894 L852.744 159.997 L835.654 161.987 L818.563 165.975 L801.473 167.518 L784.383 166.421 L767.292 161.993 L750.202 158.757 L733.112 157.364 L716.021 161.963 L698.931 171.247 L681.841 184.764 L664.75 206.198 L647.66 223.486 L630.57 230.173 L613.479 230.168 L596.389 222.277 L579.299 212.126 L562.208 199.711 L545.118 188.815 L528.028 183.114  Z" fill="#414141" fill-rule="evenodd" fill-opacity="0.5"/>
<polyline clip-path="url(#clip772)" style="stroke:#414141; stroke-linecap:round; stroke-linejoin:round; stroke-width:0; stroke-opacity:1; fill:none" points="528.028,191.585 545.118,195.871 562.208,202.161 579.299,209.515 596.389,216.572 613.479,222.54 630.57,224.076 647.66,221.744 664.75,213.127 681.841,202.033 698.931,194.836 716.021,190.536 733.112,188.818 750.202,189.975 767.292,192.622 784.383,195.473 801.473,196.812 818.563,197.327 835.654,196.7 852.744,196.767 869.834,196.819 886.925,196.621 904.015,194.56 921.105,191.786 938.195,190.603 955.286,194.801 972.376,201.095 989.466,208.511 1006.56,215.637 1023.65,221.713 1040.74,223.332 1057.83,221.046 1074.92,212.297 1092.01,200.999 1109.1,193.644 1126.19,189.275 1143.28,187.567 1160.37,188.714 1177.46,191.328 1194.55,194.103 1211.64,195.383 1228.73,195.872 1245.82,195.248 1262.91,195.419 1280,195.621 1297.09,195.569 1314.18,193.645 1331.27,190.993 1348.36,189.918 1365.45,194.219 1382.54,200.611 1399.63,208.124 1416.72,215.356 1433.81,221.533 1450.91,223.242 1468,221.032 1485.09,212.287 1502.18,200.926 1519.27,193.525 1536.36,189.128 1553.45,187.407 1570.54,188.545 1587.63,191.147 1604.72,193.931 1621.81,195.206 1638.9,195.697 1655.99,195.111 1673.08,195.364 1690.17,195.653 1707.26,195.687 1724.35,193.843 1741.44,191.265 1758.53,190.258 1775.62,194.628 1792.71,201.088 1809.8,208.675 1826.89,215.971 1843.98,222.217 1861.07,224.001 1878.16,221.835 1895.25,213.114 1912.34,201.779 1929.43,194.375 1946.52,189.973 1963.61,188.24 1980.71,189.363 1997.8,191.97 2014.89,194.751 2031.98,196.009 2049.07,196.493 2066.16,195.923 2083.25,196.198 2100.34,196.522 2117.43,196.6 2134.52,194.8 2151.61,192.262 2168.7,191.292 2185.79,195.705 2202.88,202.204 2219.97,209.834 2237.06,217.185 2254.15,223.485 2271.24,225.328 2288.33,223.229 2305.42,214.555 2322.51,203.222 2339.6,195.812 2356.69,191.379 2373.78,189.626 2390.87,190.723 2407.96,193.291 2425.05,196.03 2442.14,197.273 2459.23,197.738 2476.32,197.163 2493.42,197.461 2510.51,197.812 2527.6,197.914 2544.69,196.14 2561.78,193.626 2578.87,192.675 2595.96,197.109 2613.05,203.632 2630.14,211.284 2647.23,218.665 2664.32,224.995 2681.41,226.866 2698.5,224.782 2715.59,216.105 2732.68,204.764 2749.77,197.33 2766.86,192.889 2783.95,191.096 2801.04,192.16 2818.13,194.698 2835.22,197.401 2852.31,198.629 2869.4,199.093 2886.49,198.498 2903.58,198.785 2920.67,199.134 2937.76,199.244 2954.85,197.477 2971.94,194.973 2989.03,194.032 3006.12,198.479 3023.22,205.015 3040.31,212.687 3057.4,220.094 3074.49,226.445 3091.58,228.338 3108.67,226.273 3125.76,217.643 3142.85,206.318 3159.94,198.856 3177.03,194.379 3194.12,192.55 3211.21,193.578 3228.3,196.061 3245.39,198.74 3262.48,199.938 3279.57,200.376 3296.66,199.764 3313.75,200.049 3330.84,200.388 3347.93,200.496 3365.02,198.74 3382.11,196.236 3399.2,195.296 3416.29,199.749 3433.38,206.296 3450.47,213.967 3467.56,221.381 3484.65,227.756 3501.74,229.67 3518.83,227.621 3535.92,218.958 3553.02,207.625 3570.11,200.153 3587.2,195.64 3604.29,193.782 3621.38,194.777 3638.47,197.253 3655.56,199.898 3672.65,201.054 3689.74,201.484 3706.83,200.875 3723.92,201.129 3741.01,201.467 3758.1,201.579 3775.19,199.818 3792.28,197.321 3809.37,196.383 3826.46,200.836 3843.55,207.383 3860.64,215.07 3877.73,222.489 3894.82,228.869 3911.91,230.784 3929,228.736 3946.09,220.089 3963.18,208.752 3980.27,201.272 3997.36,196.743 4014.45,194.867 4031.54,195.841 4048.63,198.288 4065.72,200.92 4082.82,202.06 4099.91,202.461 4117,201.825 4134.09,202.072 4151.18,202.408 4168.27,202.518 4185.36,200.761 4202.45,198.262 4219.54,197.324 4236.63,201.78 4253.72,208.331 4270.81,216.018 4287.9,223.444 4304.99,229.834 4322.08,231.775 4339.17,229.752 4356.26,221.093 4373.35,209.734 4390.44,202.229 4407.53,197.662 4424.62,195.779 4441.71,196.734 4458.8,199.158 4475.89,201.783 4492.98,202.901 4510.07,203.281 4527.16,202.641 4544.25,202.887 4561.34,203.228 4578.43,203.341 4595.52,201.584 4612.62,199.085 4629.71,198.146 "/>
<path clip-path="url(#clip770)" d="M3853.78 853.161 L4607.83 853.161 L4607.83 334.761 L3853.78 334.761  Z" fill="#ffffff" fill-rule="evenodd" fill-opacity="1"/>
<polyline clip-path="url(#clip770)" style="stroke:#000000; stroke-linecap:round; stroke-linejoin:round; stroke-width:4; stroke-opacity:1; fill:none" points="3853.78,853.161 4607.83,853.161 4607.83,334.761 3853.78,334.761 3853.78,853.161 "/>
<polyline clip-path="url(#clip770)" style="stroke:#aeaeae; stroke-linecap:round; stroke-linejoin:round; stroke-width:2; stroke-opacity:1; fill:none" points="3902.09,464.361 4191.94,464.361 "/>
<path clip-path="url(#clip770)" d="M4241.93 497.723 L4261.03 497.723 L4261.03 431.809 L4240.25 435.976 L4240.25 425.328 L4260.91 421.161 L4272.6 421.161 L4272.6 497.723 L4291.7 497.723 L4291.7 507.561 L4241.93 507.561 L4241.93 497.723 Z" fill="#000000" fill-rule="nonzero" fill-opacity="1" /><path clip-path="url(#clip770)" d="M4340.31 428.858 Q4331.28 428.858 4326.71 437.77 Q4322.2 446.624 4322.2 464.448 Q4322.2 482.214 4326.71 491.126 Q4331.28 499.98 4340.31 499.98 Q4349.4 499.98 4353.91 491.126 Q4358.48 482.214 4358.48 464.448 Q4358.48 446.624 4353.91 437.77 Q4349.4 428.858 4340.31 428.858 M4340.31 419.599 Q4354.83 419.599 4362.47 431.115 Q4370.17 442.573 4370.17 464.448 Q4370.17 486.265 4362.47 497.781 Q4354.83 509.239 4340.31 509.239 Q4325.78 509.239 4318.09 497.781 Q4310.45 486.265 4310.45 464.448 Q4310.45 442.573 4318.09 431.115 Q4325.78 419.599 4340.31 419.599 Z" fill="#000000" fill-rule="nonzero" fill-opacity="1" /><path clip-path="url(#clip770)" d="M4415.71 428.858 Q4406.69 428.858 4402.11 437.77 Q4397.6 446.624 4397.6 464.448 Q4397.6 482.214 4402.11 491.126 Q4406.69 499.98 4415.71 499.98 Q4424.8 499.98 4429.31 491.126 Q4433.89 482.214 4433.89 464.448 Q4433.89 446.624 4429.31 437.77 Q4424.8 428.858 4415.71 428.858 M4415.71 419.599 Q4430.24 419.599 4437.88 431.115 Q4445.58 442.573 4445.58 464.448 Q4445.58 486.265 4437.88 497.781 Q4430.24 509.239 4415.71 509.239 Q4401.19 509.239 4393.49 497.781 Q4385.85 486.265 4385.85 464.448 Q4385.85 442.573 4393.49 431.115 Q4401.19 419.599 4415.71 419.599 Z" fill="#000000" fill-rule="nonzero" fill-opacity="1" /><path clip-path="url(#clip770)" d="M4539.61 469.541 Q4534.58 469.541 4531.69 473.823 Q4528.85 478.105 4528.85 485.744 Q4528.85 493.267 4531.69 497.608 Q4534.58 501.89 4539.61 501.89 Q4544.53 501.89 4547.37 497.608 Q4550.26 493.267 4550.26 485.744 Q4550.26 478.163 4547.37 473.881 Q4544.53 469.541 4539.61 469.541 M4539.61 462.191 Q4548.76 462.191 4554.14 468.557 Q4559.52 474.923 4559.52 485.744 Q4559.52 496.566 4554.08 502.932 Q4548.7 509.239 4539.61 509.239 Q4530.35 509.239 4524.97 502.932 Q4519.59 496.566 4519.59 485.744 Q4519.59 474.865 4524.97 468.557 Q4530.41 462.191 4539.61 462.191 M4479.89 426.948 Q4474.92 426.948 4472.02 431.289 Q4469.19 435.571 4469.19 443.094 Q4469.19 450.733 4472.02 455.015 Q4474.86 459.298 4479.89 459.298 Q4484.93 459.298 4487.76 455.015 Q4490.66 450.733 4490.66 443.094 Q4490.66 435.629 4487.76 431.289 Q4484.87 426.948 4479.89 426.948 M4532.15 419.599 L4541.41 419.599 L4487.36 509.239 L4478.1 509.239 L4532.15 419.599 M4479.89 419.599 Q4489.04 419.599 4494.48 425.964 Q4499.92 432.272 4499.92 443.094 Q4499.92 454.031 4494.48 460.339 Q4489.09 466.647 4479.89 466.647 Q4470.69 466.647 4465.31 460.339 Q4459.98 453.974 4459.98 443.094 Q4459.98 432.33 4465.37 425.964 Q4470.75 419.599 4479.89 419.599 Z" fill="#000000" fill-rule="nonzero" fill-opacity="1" /><polyline clip-path="url(#clip770)" style="stroke:#757575; stroke-linecap:round; stroke-linejoin:round; stroke-width:2; stroke-opacity:1; fill:none" points="3902.09,593.961 4191.94,593.961 "/>
<path clip-path="url(#clip770)" d="M4245.81 635.367 L4245.81 624.719 Q4250.21 626.803 4254.72 627.902 Q4259.23 629.002 4263.57 629.002 Q4275.15 629.002 4281.22 621.247 Q4287.36 613.435 4288.23 597.578 Q4284.87 602.555 4279.72 605.217 Q4274.57 607.879 4268.32 607.879 Q4255.36 607.879 4247.78 600.067 Q4240.25 592.196 4240.25 578.597 Q4240.25 565.287 4248.12 557.243 Q4255.99 549.199 4269.07 549.199 Q4284.06 549.199 4291.93 560.715 Q4299.86 572.173 4299.86 594.048 Q4299.86 614.476 4290.14 626.687 Q4280.47 638.839 4264.09 638.839 Q4259.7 638.839 4255.18 637.971 Q4250.67 637.103 4245.81 635.367 M4269.07 598.736 Q4276.94 598.736 4281.51 593.354 Q4286.14 587.972 4286.14 578.597 Q4286.14 569.28 4281.51 563.898 Q4276.94 558.458 4269.07 558.458 Q4261.2 558.458 4256.57 563.898 Q4252 569.28 4252 578.597 Q4252 587.972 4256.57 593.354 Q4261.2 598.736 4269.07 598.736 Z" fill="#000000" fill-rule="nonzero" fill-opacity="1" /><path clip-path="url(#clip770)" d="M4345.87 558.458 Q4336.84 558.458 4332.27 567.37 Q4327.75 576.224 4327.75 594.048 Q4327.75 611.814 4332.27 620.726 Q4336.84 629.58 4345.87 629.58 Q4354.95 629.58 4359.46 620.726 Q4364.04 611.814 4364.04 594.048 Q4364.04 576.224 4359.46 567.37 Q4354.95 558.458 4345.87 558.458 M4345.87 549.199 Q4360.39 549.199 4368.03 560.715 Q4375.73 572.173 4375.73 594.048 Q4375.73 615.865 4368.03 627.381 Q4360.39 638.839 4345.87 638.839 Q4331.34 638.839 4323.64 627.381 Q4316 615.865 4316 594.048 Q4316 572.173 4323.64 560.715 Q4331.34 549.199 4345.87 549.199 Z" fill="#000000" fill-rule="nonzero" fill-opacity="1" /><path clip-path="url(#clip770)" d="M4469.76 599.141 Q4464.73 599.141 4461.84 603.423 Q4459 607.705 4459 615.344 Q4459 622.867 4461.84 627.208 Q4464.73 631.49 4469.76 631.49 Q4474.68 631.49 4477.52 627.208 Q4480.41 622.867 4480.41 615.344 Q4480.41 607.763 4477.52 603.481 Q4474.68 599.141 4469.76 599.141 M4469.76 591.791 Q4478.91 591.791 4484.29 598.157 Q4489.67 604.523 4489.67 615.344 Q4489.67 626.166 4484.23 632.532 Q4478.85 638.839 4469.76 638.839 Q4460.51 638.839 4455.12 632.532 Q4449.74 626.166 4449.74 615.344 Q4449.74 604.465 4455.12 598.157 Q4460.56 591.791 4469.76 591.791 M4410.04 556.548 Q4405.07 556.548 4402.17 560.889 Q4399.34 565.171 4399.34 572.694 Q4399.34 580.333 4402.17 584.615 Q4405.01 588.898 4410.04 588.898 Q4415.08 588.898 4417.91 584.615 Q4420.81 580.333 4420.81 572.694 Q4420.81 565.229 4417.91 560.889 Q4415.02 556.548 4410.04 556.548 M4462.3 549.199 L4471.56 549.199 L4417.51 638.839 L4408.25 638.839 L4462.3 549.199 M4410.04 549.199 Q4419.19 549.199 4424.63 555.564 Q4430.07 561.872 4430.07 572.694 Q4430.07 583.631 4424.63 589.939 Q4419.24 596.247 4410.04 596.247 Q4400.84 596.247 4395.46 589.939 Q4390.14 583.574 4390.14 572.694 Q4390.14 561.93 4395.52 555.564 Q4400.9 549.199 4410.04 549.199 Z" fill="#000000" fill-rule="nonzero" fill-opacity="1" /><polyline clip-path="url(#clip770)" style="stroke:#414141; stroke-linecap:round; stroke-linejoin:round; stroke-width:2; stroke-opacity:1; fill:none" points="3902.09,723.561 4191.94,723.561 "/>
<path clip-path="url(#clip770)" d="M4269.88 725.731 Q4261.55 725.731 4256.75 730.187 Q4252 734.643 4252 742.456 Q4252 750.268 4256.75 754.724 Q4261.55 759.18 4269.88 759.18 Q4278.21 759.18 4283.02 754.724 Q4287.82 750.21 4287.82 742.456 Q4287.82 734.643 4283.02 730.187 Q4278.27 725.731 4269.88 725.731 M4258.19 720.755 Q4250.67 718.903 4246.44 713.752 Q4242.28 708.602 4242.28 701.194 Q4242.28 690.836 4249.63 684.817 Q4257.03 678.799 4269.88 678.799 Q4282.79 678.799 4290.14 684.817 Q4297.49 690.836 4297.49 701.194 Q4297.49 708.602 4293.26 713.752 Q4289.09 718.903 4281.63 720.755 Q4290.08 722.722 4294.77 728.451 Q4299.51 734.18 4299.51 742.456 Q4299.51 755.014 4291.81 761.727 Q4284.18 768.439 4269.88 768.439 Q4255.59 768.439 4247.89 761.727 Q4240.25 755.014 4240.25 742.456 Q4240.25 734.18 4245 728.451 Q4249.74 722.722 4258.19 720.755 M4253.91 702.294 Q4253.91 709.007 4258.08 712.768 Q4262.3 716.53 4269.88 716.53 Q4277.4 716.53 4281.63 712.768 Q4285.91 709.007 4285.91 702.294 Q4285.91 695.581 4281.63 691.82 Q4277.4 688.058 4269.88 688.058 Q4262.3 688.058 4258.08 691.82 Q4253.91 695.581 4253.91 702.294 Z" fill="#000000" fill-rule="nonzero" fill-opacity="1" /><path clip-path="url(#clip770)" d="M4345.29 688.058 Q4336.26 688.058 4331.69 696.97 Q4327.17 705.824 4327.17 723.648 Q4327.17 741.414 4331.69 750.326 Q4336.26 759.18 4345.29 759.18 Q4354.37 759.18 4358.89 750.326 Q4363.46 741.414 4363.46 723.648 Q4363.46 705.824 4358.89 696.97 Q4354.37 688.058 4345.29 688.058 M4345.29 678.799 Q4359.81 678.799 4367.45 690.315 Q4375.15 701.773 4375.15 723.648 Q4375.15 745.465 4367.45 756.981 Q4359.81 768.439 4345.29 768.439 Q4330.76 768.439 4323.06 756.981 Q4315.43 745.465 4315.43 723.648 Q4315.43 701.773 4323.06 690.315 Q4330.76 678.799 4345.29 678.799 Z" fill="#000000" fill-rule="nonzero" fill-opacity="1" /><path clip-path="url(#clip770)" d="M4469.19 728.741 Q4464.15 728.741 4461.26 733.023 Q4458.42 737.305 4458.42 744.944 Q4458.42 752.467 4461.26 756.808 Q4464.15 761.09 4469.19 761.09 Q4474.11 761.09 4476.94 756.808 Q4479.83 752.467 4479.83 744.944 Q4479.83 737.363 4476.94 733.081 Q4474.11 728.741 4469.19 728.741 M4469.19 721.391 Q4478.33 721.391 4483.71 727.757 Q4489.09 734.123 4489.09 744.944 Q4489.09 755.766 4483.65 762.132 Q4478.27 768.439 4469.19 768.439 Q4459.93 768.439 4454.55 762.132 Q4449.16 755.766 4449.16 744.944 Q4449.16 734.065 4454.55 727.757 Q4459.98 721.391 4469.19 721.391 M4409.46 686.148 Q4404.49 686.148 4401.59 690.489 Q4398.76 694.771 4398.76 702.294 Q4398.76 709.933 4401.59 714.215 Q4404.43 718.498 4409.46 718.498 Q4414.5 718.498 4417.33 714.215 Q4420.23 709.933 4420.23 702.294 Q4420.23 694.829 4417.33 690.489 Q4414.44 686.148 4409.46 686.148 M4461.72 678.799 L4470.98 678.799 L4416.93 768.439 L4407.67 768.439 L4461.72 678.799 M4409.46 678.799 Q4418.61 678.799 4424.05 685.164 Q4429.49 691.472 4429.49 702.294 Q4429.49 713.231 4424.05 719.539 Q4418.67 725.847 4409.46 725.847 Q4400.26 725.847 4394.88 719.539 Q4389.56 713.174 4389.56 702.294 Q4389.56 691.53 4394.94 685.164 Q4400.32 678.799 4409.46 678.799 Z" fill="#000000" fill-rule="nonzero" fill-opacity="1" /></svg>
