<?xml version="1.0" encoding="utf-8"?>
<svg xmlns="http://www.w3.org/2000/svg" xmlns:xlink="http://www.w3.org/1999/xlink" width="1200" height="300" viewBox="0 0 4800 1200">
<defs>
  <clipPath id="clip530">
    <rect x="0" y="0" width="4800" height="1200"/>
  </clipPath>
</defs>
<path clip-path="url(#clip530)" d="M0 1200 L4800 1200 L4800 0 L0 0  Z" fill="#ffffff" fill-rule="evenodd" fill-opacity="1"/>
<defs>
  <clipPath id="clip531">
    <rect x="960" y="0" width="3361" height="1200"/>
  </clipPath>
</defs>
<path clip-path="url(#clip530)" d="M404.977 880.951 L4752.76 880.951 L4752.76 47.2441 L404.977 47.2441  Z" fill="#ffffff" fill-rule="evenodd" fill-opacity="1"/>
<defs>
  <clipPath id="clip532">
    <rect x="404" y="47" width="4349" height="835"/>
  </clipPath>
</defs>
<polyline clip-path="url(#clip532)" style="stroke:#000000; stroke-linecap:round; stroke-linejoin:round; stroke-width:2; stroke-opacity:0.1; fill:none" points="528.028,880.951 528.028,47.2441 "/>
<polyline clip-path="url(#clip532)" style="stroke:#000000; stroke-linecap:round; stroke-linejoin:round; stroke-width:2; stroke-opacity:0.1; fill:none" points="1348.36,880.951 1348.36,47.2441 "/>
<polyline clip-path="url(#clip532)" style="stroke:#000000; stroke-linecap:round; stroke-linejoin:round; stroke-width:2; stroke-opacity:0.1; fill:none" points="2168.7,880.951 2168.7,47.2441 "/>
<polyline clip-path="url(#clip532)" style="stroke:#000000; stroke-linecap:round; stroke-linejoin:round; stroke-width:2; stroke-opacity:0.1; fill:none" points="2989.03,880.951 2989.03,47.2441 "/>
<polyline clip-path="url(#clip532)" style="stroke:#000000; stroke-linecap:round; stroke-linejoin:round; stroke-width:2; stroke-opacity:0.1; fill:none" points="3809.37,880.951 3809.37,47.2441 "/>
<polyline clip-path="url(#clip532)" style="stroke:#000000; stroke-linecap:round; stroke-linejoin:round; stroke-width:2; stroke-opacity:0.1; fill:none" points="4629.71,880.951 4629.71,47.2441 "/>
<polyline clip-path="url(#clip532)" style="stroke:#000000; stroke-linecap:round; stroke-linejoin:round; stroke-width:2; stroke-opacity:0.1; fill:none" points="404.977,733.7 4752.76,733.7 "/>
<polyline clip-path="url(#clip532)" style="stroke:#000000; stroke-linecap:round; stroke-linejoin:round; stroke-width:2; stroke-opacity:0.1; fill:none" points="404.977,556.116 4752.76,556.116 "/>
<polyline clip-path="url(#clip532)" style="stroke:#000000; stroke-linecap:round; stroke-linejoin:round; stroke-width:2; stroke-opacity:0.1; fill:none" points="404.977,378.532 4752.76,378.532 "/>
<polyline clip-path="url(#clip532)" style="stroke:#000000; stroke-linecap:round; stroke-linejoin:round; stroke-width:2; stroke-opacity:0.1; fill:none" points="404.977,200.948 4752.76,200.948 "/>
<polyline clip-path="url(#clip530)" style="stroke:#000000; stroke-linecap:round; stroke-linejoin:round; stroke-width:4; stroke-opacity:1; fill:none" points="404.977,880.951 4752.76,880.951 "/>
<polyline clip-path="url(#clip530)" style="stroke:#000000; stroke-linecap:round; stroke-linejoin:round; stroke-width:4; stroke-opacity:1; fill:none" points="528.028,880.951 528.028,862.054 "/>
<polyline clip-path="url(#clip530)" style="stroke:#000000; stroke-linecap:round; stroke-linejoin:round; stroke-width:4; stroke-opacity:1; fill:none" points="1348.36,880.951 1348.36,862.054 "/>
<polyline clip-path="url(#clip530)" style="stroke:#000000; stroke-linecap:round; stroke-linejoin:round; stroke-width:4; stroke-opacity:1; fill:none" points="2168.7,880.951 2168.7,862.054 "/>
<polyline clip-path="url(#clip530)" style="stroke:#000000; stroke-linecap:round; stroke-linejoin:round; stroke-width:4; stroke-opacity:1; fill:none" points="2989.03,880.951 2989.03,862.054 "/>
<polyline clip-path="url(#clip530)" style="stroke:#000000; stroke-linecap:round; stroke-linejoin:round; stroke-width:4; stroke-opacity:1; fill:none" points="3809.37,880.951 3809.37,862.054 "/>
<polyline clip-path="url(#clip530)" style="stroke:#000000; stroke-linecap:round; stroke-linejoin:round; stroke-width:4; stroke-opacity:1; fill:none" points="4629.71,880.951 4629.71,862.054 "/>
<path clip-path="url(#clip530)" d="M528.028 942.789 Q520.806 942.789 517.148 949.918 Q513.537 957.002 513.537 971.261 Q513.537 985.474 517.148 992.603 Q520.806 999.687 528.028 999.687 Q535.296 999.687 538.907 992.603 Q542.565 985.474 542.565 971.261 Q542.565 957.002 538.907 949.918 Q535.296 942.789 528.028 942.789 M528.028 935.382 Q539.648 935.382 545.759 944.594 Q551.916 953.761 551.916 971.261 Q551.916 988.715 545.759 997.927 Q539.648 1007.09 528.028 1007.09 Q516.407 1007.09 510.25 997.927 Q504.139 988.715 504.139 971.261 Q504.139 953.761 510.25 944.594 Q516.407 935.382 528.028 935.382 Z" fill="#000000" fill-rule="nonzero" fill-opacity="1" /><path clip-path="url(#clip530)" d="M1337.67 997.881 L1370.31 997.881 L1370.31 1005.75 L1326.42 1005.75 L1326.42 997.881 Q1331.74 992.372 1340.91 983.113 Q1350.12 973.807 1352.48 971.122 Q1356.97 966.076 1358.73 962.604 Q1360.54 959.085 1360.54 955.705 Q1360.54 950.196 1356.65 946.724 Q1352.81 943.252 1346.6 943.252 Q1342.21 943.252 1337.3 944.78 Q1332.44 946.307 1326.88 949.409 L1326.88 939.965 Q1332.53 937.696 1337.44 936.539 Q1342.34 935.382 1346.42 935.382 Q1357.16 935.382 1363.55 940.752 Q1369.94 946.122 1369.94 955.104 Q1369.94 959.363 1368.32 963.205 Q1366.74 967.002 1362.53 972.187 Q1361.37 973.529 1355.17 979.965 Q1348.97 986.353 1337.67 997.881 Z" fill="#000000" fill-rule="nonzero" fill-opacity="1" /><path clip-path="url(#clip530)" d="M2174.72 944.78 L2151.11 981.678 L2174.72 981.678 L2174.72 944.78 M2172.26 936.631 L2184.02 936.631 L2184.02 981.678 L2193.88 981.678 L2193.88 989.455 L2184.02 989.455 L2184.02 1005.75 L2174.72 1005.75 L2174.72 989.455 L2143.51 989.455 L2143.51 980.428 L2172.26 936.631 Z" fill="#000000" fill-rule="nonzero" fill-opacity="1" /><path clip-path="url(#clip530)" d="M2989.84 967.465 Q2983.55 967.465 2979.84 971.77 Q2976.19 976.076 2976.19 983.576 Q2976.19 991.029 2979.84 995.381 Q2983.55 999.687 2989.84 999.687 Q2996.14 999.687 2999.8 995.381 Q3003.5 991.029 3003.5 983.576 Q3003.5 976.076 2999.8 971.77 Q2996.14 967.465 2989.84 967.465 M3008.41 938.159 L3008.41 946.678 Q3004.89 945.011 3001.28 944.131 Q2997.71 943.252 2994.2 943.252 Q2984.94 943.252 2980.03 949.502 Q2975.17 955.752 2974.47 968.391 Q2977.21 964.363 2981.33 962.233 Q2985.45 960.057 2990.4 960.057 Q3000.82 960.057 3006.84 966.4 Q3012.9 972.696 3012.9 983.576 Q3012.9 994.224 3006.6 1000.66 Q3000.31 1007.09 2989.84 1007.09 Q2977.85 1007.09 2971.51 997.927 Q2965.17 988.715 2965.17 971.261 Q2965.17 954.872 2972.95 945.15 Q2980.72 935.382 2993.83 935.382 Q2997.34 935.382 3000.91 936.076 Q3004.52 936.77 3008.41 938.159 Z" fill="#000000" fill-rule="nonzero" fill-opacity="1" /><path clip-path="url(#clip530)" d="M3809.37 972.928 Q3802.7 972.928 3798.86 976.492 Q3795.06 980.057 3795.06 986.307 Q3795.06 992.557 3798.86 996.122 Q3802.7 999.687 3809.37 999.687 Q3816.04 999.687 3819.88 996.122 Q3823.72 992.511 3823.72 986.307 Q3823.72 980.057 3819.88 976.492 Q3816.08 972.928 3809.37 972.928 M3800.02 968.946 Q3794 967.465 3790.62 963.344 Q3787.29 959.224 3787.29 953.298 Q3787.29 945.011 3793.17 940.196 Q3799.09 935.382 3809.37 935.382 Q3819.69 935.382 3825.57 940.196 Q3831.45 945.011 3831.45 953.298 Q3831.45 959.224 3828.07 963.344 Q3824.74 967.465 3818.77 968.946 Q3825.53 970.52 3829.28 975.104 Q3833.07 979.687 3833.07 986.307 Q3833.07 996.353 3826.92 1001.72 Q3820.81 1007.09 3809.37 1007.09 Q3797.93 1007.09 3791.78 1001.72 Q3785.67 996.353 3785.67 986.307 Q3785.67 979.687 3789.46 975.104 Q3793.26 970.52 3800.02 968.946 M3796.59 954.178 Q3796.59 959.548 3799.93 962.557 Q3803.31 965.567 3809.37 965.567 Q3815.39 965.567 3818.77 962.557 Q3822.19 959.548 3822.19 954.178 Q3822.19 948.807 3818.77 945.798 Q3815.39 942.789 3809.37 942.789 Q3803.31 942.789 3799.93 945.798 Q3796.59 948.807 3796.59 954.178 Z" fill="#000000" fill-rule="nonzero" fill-opacity="1" /><path clip-path="url(#clip530)" d="M4579.08 997.881 L4594.36 997.881 L4594.36 945.15 L4577.74 948.483 L4577.74 939.965 L4594.27 936.631 L4603.62 936.631 L4603.62 997.881 L4618.9 997.881 L4618.9 1005.75 L4579.08 1005.75 L4579.08 997.881 Z" fill="#000000" fill-rule="nonzero" fill-opacity="1" /><path clip-path="url(#clip530)" d="M4657.78 942.789 Q4650.56 942.789 4646.9 949.918 Q4643.29 957.002 4643.29 971.261 Q4643.29 985.474 4646.9 992.603 Q4650.56 999.687 4657.78 999.687 Q4665.05 999.687 4668.66 992.603 Q4672.32 985.474 4672.32 971.261 Q4672.32 957.002 4668.66 949.918 Q4665.05 942.789 4657.78 942.789 M4657.78 935.382 Q4669.4 935.382 4675.52 944.594 Q4681.67 953.761 4681.67 971.261 Q4681.67 988.715 4675.52 997.927 Q4669.4 1007.09 4657.78 1007.09 Q4646.16 1007.09 4640.01 997.927 Q4633.9 988.715 4633.9 971.261 Q4633.9 953.761 4640.01 944.594 Q4646.16 935.382 4657.78 935.382 Z" fill="#000000" fill-rule="nonzero" fill-opacity="1" /><path clip-path="url(#clip530)" d="M2296.11 1072.18 L2361.89 1072.18 L2361.89 1081.04 L2334.28 1081.04 L2334.28 1149.94 L2323.71 1149.94 L2323.71 1081.04 L2296.11 1081.04 L2296.11 1072.18 Z" fill="#000000" fill-rule="nonzero" fill-opacity="1" /><path clip-path="url(#clip530)" d="M2368.35 1091.61 L2377.93 1091.61 L2377.93 1149.94 L2368.35 1149.94 L2368.35 1091.61 M2368.35 1068.9 L2377.93 1068.9 L2377.93 1081.04 L2368.35 1081.04 L2368.35 1068.9 Z" fill="#000000" fill-rule="nonzero" fill-opacity="1" /><path clip-path="url(#clip530)" d="M2443.4 1102.81 Q2446.99 1096.35 2451.99 1093.28 Q2456.99 1090.2 2463.76 1090.2 Q2472.88 1090.2 2477.83 1096.61 Q2482.77 1102.96 2482.77 1114.74 L2482.77 1149.94 L2473.14 1149.94 L2473.14 1115.05 Q2473.14 1106.66 2470.17 1102.6 Q2467.2 1098.54 2461.11 1098.54 Q2453.66 1098.54 2449.34 1103.49 Q2445.01 1108.43 2445.01 1116.97 L2445.01 1149.94 L2435.38 1149.94 L2435.38 1115.05 Q2435.38 1106.61 2432.41 1102.6 Q2429.44 1098.54 2423.24 1098.54 Q2415.9 1098.54 2411.58 1103.54 Q2407.25 1108.49 2407.25 1116.97 L2407.25 1149.94 L2397.62 1149.94 L2397.62 1091.61 L2407.25 1091.61 L2407.25 1100.67 Q2410.53 1095.31 2415.12 1092.76 Q2419.7 1090.2 2426 1090.2 Q2432.36 1090.2 2436.78 1093.43 Q2441.26 1096.66 2443.4 1102.81 Z" fill="#000000" fill-rule="nonzero" fill-opacity="1" /><path clip-path="url(#clip530)" d="M2551.78 1118.38 L2551.78 1123.07 L2507.72 1123.07 Q2508.35 1132.96 2513.66 1138.17 Q2519.02 1143.33 2528.55 1143.33 Q2534.08 1143.33 2539.23 1141.97 Q2544.44 1140.62 2549.54 1137.91 L2549.54 1146.97 Q2544.39 1149.16 2538.97 1150.31 Q2533.55 1151.45 2527.98 1151.45 Q2514.02 1151.45 2505.85 1143.33 Q2497.72 1135.2 2497.72 1121.35 Q2497.72 1107.03 2505.43 1098.64 Q2513.19 1090.2 2526.31 1090.2 Q2538.09 1090.2 2544.91 1097.81 Q2551.78 1105.36 2551.78 1118.38 M2542.2 1115.57 Q2542.1 1107.7 2537.77 1103.02 Q2533.5 1098.33 2526.42 1098.33 Q2518.4 1098.33 2513.55 1102.86 Q2508.76 1107.39 2508.03 1115.62 L2542.2 1115.57 Z" fill="#000000" fill-rule="nonzero" fill-opacity="1" /><path clip-path="url(#clip530)" d="M2624.44 1069.01 Q2617.46 1080.99 2614.07 1092.7 Q2610.69 1104.42 2610.69 1116.45 Q2610.69 1128.49 2614.07 1140.31 Q2617.51 1152.08 2624.44 1164.01 L2616.11 1164.01 Q2608.29 1151.77 2604.39 1139.94 Q2600.53 1128.12 2600.53 1116.45 Q2600.53 1104.84 2604.39 1093.07 Q2608.24 1081.3 2616.11 1069.01 L2624.44 1069.01 Z" fill="#000000" fill-rule="nonzero" fill-opacity="1" /><path clip-path="url(#clip530)" d="M2681.42 1100.46 L2681.42 1068.9 L2691 1068.9 L2691 1149.94 L2681.42 1149.94 L2681.42 1141.19 Q2678.4 1146.4 2673.76 1148.95 Q2669.18 1151.45 2662.72 1151.45 Q2652.15 1151.45 2645.48 1143.02 Q2638.87 1134.58 2638.87 1120.83 Q2638.87 1107.08 2645.48 1098.64 Q2652.15 1090.2 2662.72 1090.2 Q2669.18 1090.2 2673.76 1092.76 Q2678.4 1095.26 2681.42 1100.46 M2648.76 1120.83 Q2648.76 1131.4 2653.08 1137.44 Q2657.46 1143.43 2665.06 1143.43 Q2672.67 1143.43 2677.04 1137.44 Q2681.42 1131.4 2681.42 1120.83 Q2681.42 1110.26 2677.04 1104.27 Q2672.67 1098.23 2665.06 1098.23 Q2657.46 1098.23 2653.08 1104.27 Q2648.76 1110.26 2648.76 1120.83 Z" fill="#000000" fill-rule="nonzero" fill-opacity="1" /><path clip-path="url(#clip530)" d="M2737.25 1120.62 Q2725.64 1120.62 2721.16 1123.28 Q2716.68 1125.93 2716.68 1132.34 Q2716.68 1137.44 2720.01 1140.46 Q2723.4 1143.43 2729.18 1143.43 Q2737.15 1143.43 2741.94 1137.81 Q2746.78 1132.13 2746.78 1122.76 L2746.78 1120.62 L2737.25 1120.62 M2756.37 1116.66 L2756.37 1149.94 L2746.78 1149.94 L2746.78 1141.09 Q2743.5 1146.4 2738.61 1148.95 Q2733.71 1151.45 2726.63 1151.45 Q2717.67 1151.45 2712.36 1146.45 Q2707.1 1141.4 2707.1 1132.96 Q2707.1 1123.12 2713.66 1118.12 Q2720.27 1113.12 2733.34 1113.12 L2746.78 1113.12 L2746.78 1112.18 Q2746.78 1105.57 2742.41 1101.98 Q2738.08 1098.33 2730.22 1098.33 Q2725.22 1098.33 2720.48 1099.53 Q2715.74 1100.73 2711.37 1103.12 L2711.37 1094.27 Q2716.63 1092.24 2721.57 1091.25 Q2726.52 1090.2 2731.21 1090.2 Q2743.87 1090.2 2750.12 1096.77 Q2756.37 1103.33 2756.37 1116.66 Z" fill="#000000" fill-rule="nonzero" fill-opacity="1" /><path clip-path="url(#clip530)" d="M2800.38 1155.36 Q2796.31 1165.78 2792.46 1168.95 Q2788.61 1172.13 2782.15 1172.13 L2774.49 1172.13 L2774.49 1164.11 L2780.12 1164.11 Q2784.07 1164.11 2786.26 1162.24 Q2788.45 1160.36 2791.11 1153.38 L2792.82 1149.01 L2769.23 1091.61 L2779.39 1091.61 L2797.62 1137.24 L2815.84 1091.61 L2826 1091.61 L2800.38 1155.36 Z" fill="#000000" fill-rule="nonzero" fill-opacity="1" /><path clip-path="url(#clip530)" d="M2837.72 1069.01 L2846.05 1069.01 Q2853.87 1081.3 2857.72 1093.07 Q2861.63 1104.84 2861.63 1116.45 Q2861.63 1128.12 2857.72 1139.94 Q2853.87 1151.77 2846.05 1164.01 L2837.72 1164.01 Q2844.65 1152.08 2848.03 1140.31 Q2851.47 1128.49 2851.47 1116.45 Q2851.47 1104.42 2848.03 1092.7 Q2844.65 1080.99 2837.72 1069.01 Z" fill="#000000" fill-rule="nonzero" fill-opacity="1" /><polyline clip-path="url(#clip530)" style="stroke:#000000; stroke-linecap:round; stroke-linejoin:round; stroke-width:4; stroke-opacity:1; fill:none" points="404.977,880.951 404.977,47.2441 "/>
<polyline clip-path="url(#clip530)" style="stroke:#000000; stroke-linecap:round; stroke-linejoin:round; stroke-width:4; stroke-opacity:1; fill:none" points="404.977,733.7 423.875,733.7 "/>
<polyline clip-path="url(#clip530)" style="stroke:#000000; stroke-linecap:round; stroke-linejoin:round; stroke-width:4; stroke-opacity:1; fill:none" points="404.977,556.116 423.875,556.116 "/>
<polyline clip-path="url(#clip530)" style="stroke:#000000; stroke-linecap:round; stroke-linejoin:round; stroke-width:4; stroke-opacity:1; fill:none" points="404.977,378.532 423.875,378.532 "/>
<polyline clip-path="url(#clip530)" style="stroke:#000000; stroke-linecap:round; stroke-linejoin:round; stroke-width:4; stroke-opacity:1; fill:none" points="404.977,200.948 423.875,200.948 "/>
<path clip-path="url(#clip530)" d="M151.219 734.603 L210.571 734.603 L210.571 742.473 L151.219 742.473 L151.219 734.603 Z" fill="#000000" fill-rule="nonzero" fill-opacity="1" /><path clip-path="url(#clip530)" d="M228.395 699.14 L272.839 699.14 L272.839 703.121 L247.746 768.26 L237.978 768.26 L261.589 707.01 L228.395 707.01 L228.395 699.14 Z" fill="#000000" fill-rule="nonzero" fill-opacity="1" /><path clip-path="url(#clip530)" d="M291.172 699.14 L327.885 699.14 L327.885 707.01 L299.737 707.01 L299.737 723.955 Q301.774 723.26 303.811 722.936 Q305.848 722.566 307.885 722.566 Q319.459 722.566 326.218 728.908 Q332.977 735.251 332.977 746.084 Q332.977 757.241 326.033 763.445 Q319.089 769.603 306.45 769.603 Q302.098 769.603 297.561 768.862 Q293.07 768.121 288.255 766.64 L288.255 757.241 Q292.422 759.51 296.866 760.621 Q301.311 761.732 306.265 761.732 Q314.274 761.732 318.95 757.519 Q323.626 753.306 323.626 746.084 Q323.626 738.862 318.95 734.649 Q314.274 730.436 306.265 730.436 Q302.515 730.436 298.765 731.269 Q295.061 732.103 291.172 733.862 L291.172 699.14 Z" fill="#000000" fill-rule="nonzero" fill-opacity="1" /><path clip-path="url(#clip530)" d="M149.228 557.019 L208.58 557.019 L208.58 564.889 L149.228 564.889 L149.228 557.019 Z" fill="#000000" fill-rule="nonzero" fill-opacity="1" /><path clip-path="url(#clip530)" d="M228.858 521.556 L265.57 521.556 L265.57 529.426 L237.422 529.426 L237.422 546.37 Q239.459 545.676 241.496 545.352 Q243.533 544.982 245.57 544.982 Q257.144 544.982 263.904 551.324 Q270.663 557.667 270.663 568.5 Q270.663 579.657 263.718 585.861 Q256.774 592.018 244.135 592.018 Q239.783 592.018 235.246 591.278 Q230.756 590.537 225.941 589.055 L225.941 579.657 Q230.108 581.926 234.552 583.037 Q238.996 584.148 243.95 584.148 Q251.959 584.148 256.635 579.935 Q261.311 575.722 261.311 568.5 Q261.311 561.278 256.635 557.065 Q251.959 552.852 243.95 552.852 Q240.2 552.852 236.45 553.685 Q232.746 554.519 228.858 556.278 L228.858 521.556 Z" fill="#000000" fill-rule="nonzero" fill-opacity="1" /><path clip-path="url(#clip530)" d="M309.089 527.713 Q301.866 527.713 298.209 534.843 Q294.598 541.926 294.598 556.185 Q294.598 570.398 298.209 577.528 Q301.866 584.611 309.089 584.611 Q316.357 584.611 319.968 577.528 Q323.626 570.398 323.626 556.185 Q323.626 541.926 319.968 534.843 Q316.357 527.713 309.089 527.713 M309.089 520.306 Q320.709 520.306 326.82 529.519 Q332.977 538.685 332.977 556.185 Q332.977 573.639 326.82 582.852 Q320.709 592.018 309.089 592.018 Q297.468 592.018 291.311 582.852 Q285.2 573.639 285.2 556.185 Q285.2 538.685 291.311 529.519 Q297.468 520.306 309.089 520.306 Z" fill="#000000" fill-rule="nonzero" fill-opacity="1" /><path clip-path="url(#clip530)" d="M151.219 379.434 L210.571 379.434 L210.571 387.305 L151.219 387.305 L151.219 379.434 Z" fill="#000000" fill-rule="nonzero" fill-opacity="1" /><path clip-path="url(#clip530)" d="M238.811 405.221 L271.45 405.221 L271.45 413.092 L227.561 413.092 L227.561 405.221 Q232.885 399.712 242.052 390.453 Q251.265 381.147 253.626 378.462 Q258.117 373.416 259.876 369.944 Q261.681 366.425 261.681 363.046 Q261.681 357.536 257.793 354.064 Q253.95 350.592 247.746 350.592 Q243.348 350.592 238.441 352.12 Q233.58 353.648 228.024 356.749 L228.024 347.305 Q233.672 345.036 238.58 343.879 Q243.487 342.722 247.561 342.722 Q258.302 342.722 264.691 348.092 Q271.08 353.462 271.08 362.444 Q271.08 366.703 269.459 370.546 Q267.885 374.342 263.672 379.527 Q262.515 380.87 256.311 387.305 Q250.107 393.694 238.811 405.221 Z" fill="#000000" fill-rule="nonzero" fill-opacity="1" /><path clip-path="url(#clip530)" d="M291.172 343.972 L327.885 343.972 L327.885 351.842 L299.737 351.842 L299.737 368.786 Q301.774 368.092 303.811 367.768 Q305.848 367.397 307.885 367.397 Q319.459 367.397 326.218 373.74 Q332.977 380.083 332.977 390.916 Q332.977 402.073 326.033 408.277 Q319.089 414.434 306.45 414.434 Q302.098 414.434 297.561 413.694 Q293.07 412.953 288.255 411.471 L288.255 402.073 Q292.422 404.342 296.866 405.453 Q301.311 406.564 306.265 406.564 Q314.274 406.564 318.95 402.351 Q323.626 398.138 323.626 390.916 Q323.626 383.694 318.95 379.481 Q314.274 375.268 306.265 375.268 Q302.515 375.268 298.765 376.101 Q295.061 376.934 291.172 378.694 L291.172 343.972 Z" fill="#000000" fill-rule="nonzero" fill-opacity="1" /><path clip-path="url(#clip530)" d="M309.089 172.545 Q301.866 172.545 298.209 179.674 Q294.598 186.758 294.598 201.017 Q294.598 215.23 298.209 222.359 Q301.866 229.443 309.089 229.443 Q316.357 229.443 319.968 222.359 Q323.626 215.23 323.626 201.017 Q323.626 186.758 319.968 179.674 Q316.357 172.545 309.089 172.545 M309.089 165.138 Q320.709 165.138 326.82 174.35 Q332.977 183.517 332.977 201.017 Q332.977 218.471 326.82 227.683 Q320.709 236.85 309.089 236.85 Q297.468 236.85 291.311 227.683 Q285.2 218.471 285.2 201.017 Q285.2 183.517 291.311 174.35 Q297.468 165.138 309.089 165.138 Z" fill="#000000" fill-rule="nonzero" fill-opacity="1" /><path clip-path="url(#clip532)" d="M528.028 221.076 L545.118 249.175 L562.208 279.57 L579.299 311.381 L596.389 341.784 L613.479 369.496 L630.57 387.366 L647.66 398.085 L664.75 386.988 L681.841 364.602 L698.931 354.512 L716.021 346.384 L733.112 342.205 L750.202 344.608 L767.292 351.919 L784.383 363.718 L801.473 374.787 L818.563 387.343 L835.654 398.244 L852.744 409.792 L869.834 421.994 L886.925 430.907 L904.015 428.633 L921.105 418.889 L938.195 428.777 L955.286 455.137 L972.376 484.046 L989.466 514.636 L1006.56 543.98 L1023.65 569.838 L1040.74 582.271 L1057.83 583.253 L1074.92 562.116 L1092.01 530.157 L1109.1 509.067 L1126.19 489.244 L1143.28 471.326 L1160.37 461.402 L1177.46 458.025 L1194.55 459.085 L1211.64 459.427 L1228.73 463.974 L1245.82 469.969 L1262.91 481.089 L1280 492.354 L1297.09 500.515 L1314.18 497.32 L1331.27 486.465 L1348.36 490.759 L1365.45 516.774 L1382.54 545.432 L1399.63 575.866 L1416.72 605.049 L1433.81 631.175 L1450.91 643.266 L1468 643.084 L1485.09 617.666 L1502.18 585.24 L1519.27 559.95 L1536.36 535.627 L1553.45 514.507 L1570.54 500.857 L1587.63 493.877 L1604.72 491.885 L1621.81 490.204 L1638.9 492.299 L1655.99 496.128 L1673.08 506.421 L1690.17 518.063 L1707.26 526.653 L1724.35 523.64 L1741.44 512.665 L1758.53 511.293 L1775.62 537.479 L1792.71 566.28 L1809.8 596.897 L1826.89 626.33 L1843.98 652.811 L1861.07 664.87 L1878.16 663.851 L1895.25 647.68 L1912.34 614.811 L1929.43 587.399 L1946.52 562.31 L1963.61 539.724 L1980.71 524.556 L1997.8 515.782 L2014.89 512.49 L2031.98 509.739 L2049.07 511.61 L2066.16 515.933 L2083.25 526.834 L2100.34 538.85 L2117.43 547.791 L2134.52 544.906 L2151.61 534.184 L2168.7 536.09 L2185.79 552.768 L2202.88 577.408 L2219.97 608.135 L2237.06 637.75 L2254.15 664.211 L2271.24 685.035 L2288.33 694.43 L2305.42 679.451 L2322.51 646.636 L2339.6 616.57 L2356.69 587.586 L2373.78 561.332 L2390.87 542.189 L2407.96 532.032 L2425.05 528.015 L2442.14 524.112 L2459.23 526.079 L2476.32 530.388 L2493.42 541.273 L2510.51 553.782 L2527.6 563.201 L2544.69 560.58 L2561.78 559.451 L2578.87 561.502 L2595.96 578.389 L2613.05 600.463 L2630.14 627.916 L2647.23 658.61 L2664.32 690.934 L2681.41 712.407 L2698.5 723.83 L2715.59 708.715 L2732.68 674.923 L2749.77 644.333 L2766.86 614.942 L2783.95 588.004 L2801.04 567.844 L2818.13 553.548 L2835.22 544.325 L2852.31 539.435 L2869.4 540.67 L2886.49 544.655 L2903.58 556.633 L2920.67 572.734 L2937.76 584.676 L2954.85 582.74 L2971.94 583.375 L2989.03 585.685 L3006.12 602.794 L3023.22 625.047 L3040.31 652.799 L3057.4 683.95 L3074.49 716.858 L3091.58 739.65 L3108.67 750.408 L3125.76 735.244 L3142.85 701.436 L3159.94 670.704 L3177.03 640.885 L3194.12 613.152 L3211.21 591.999 L3228.3 576.989 L3245.39 566.525 L3262.48 559.637 L3279.57 561.553 L3296.66 568.347 L3313.75 583.981 L3330.84 601.51 L3347.93 614.902 L3365.02 614.024 L3382.11 606.971 L3399.2 609.448 L3416.29 626.713 L3433.38 649.112 L3450.47 677.107 L3467.56 708.724 L3484.65 742.419 L3501.74 765.445 L3518.83 778.387 L3535.92 764.342 L3553.02 734.227 L3570.11 705.942 L3587.2 675.219 L3604.29 644.417 L3621.38 621.372 L3638.47 606.024 L3655.56 597.408 L3672.65 591.099 L3689.74 593.061 L3706.83 599.815 L3723.92 616.352 L3741.01 635.138 L3758.1 649.936 L3775.19 650.09 L3792.28 639.126 L3809.37 636.399 L3826.46 653.883 L3843.55 676.483 L3860.64 704.789 L3877.73 736.904 L3894.82 771.318 L3911.91 795.009 L3929 807.168 L3946.09 801.387 L3963.18 776.308 L3980.27 748.405 L3997.36 717.016 L4014.45 685.579 L4031.54 661.229 L4048.63 644.154 L4065.72 633.517 L4082.82 627.271 L4099.91 629.397 L4117 637.737 L4134.09 655.834 L4151.18 676.39 L4168.27 693.005 L4185.36 694.482 L4202.45 684.104 L4219.54 672.791 L4236.63 680.391 L4253.72 702.787 L4270.81 731.458 L4287.9 764.144 L4304.99 799.329 L4322.08 831.932 L4339.17 857.356 L4356.26 855.132 L4373.35 830.278 L4390.44 802.412 L4407.53 770.701 L4424.62 738.253 L4441.71 712.102 L4458.8 693.299 L4475.89 681.828 L4492.98 674.11 L4510.07 675.561 L4527.16 684.448 L4544.25 704.525 L4561.34 727.281 L4578.43 746.079 L4595.52 749.091 L4612.62 739.443 L4629.71 728.102 L4629.71 76.7205 L4612.62 77.6582 L4595.52 81.2693 L4578.43 84.13 L4561.34 84.4902 L4544.25 84.8864 L4527.16 85.7102 L4510.07 88.7274 L4492.98 90.7537 L4475.89 91.7499 L4458.8 88.9492 L4441.71 84.8241 L4424.62 81.1361 L4407.53 81.4092 L4390.44 86.5951 L4373.35 97.7503 L4356.26 115.552 L4339.17 129.205 L4322.08 132.086 L4304.99 128.759 L4287.9 118.238 L4270.81 106 L4253.72 93.3804 L4236.63 82.6171 L4219.54 75.0571 L4202.45 76.013 L4185.36 79.6587 L4168.27 82.5691 L4151.18 83.0074 L4134.09 83.6691 L4117 84.8518 L4099.91 88.1031 L4082.82 90.3942 L4065.72 91.3194 L4048.63 88.5106 L4031.54 84.687 L4014.45 80.9199 L3997.36 80.8262 L3980.27 85.6775 L3963.18 96.8091 L3946.09 114.631 L3929 128.322 L3911.91 131.351 L3894.82 128.128 L3877.73 117.664 L3860.64 105.462 L3843.55 92.8645 L3826.46 82.1107 L3809.37 74.532 L3792.28 75.5524 L3775.19 79.2318 L3758.1 82.1915 L3741.01 82.6366 L3723.92 83.0926 L3706.83 83.7158 L3689.74 85.9518 L3672.65 88.1392 L3655.56 89.8498 L3638.47 87.4958 L3621.38 82.9513 L3604.29 79.2891 L3587.2 79.3176 L3570.11 84.2709 L3553.02 95.3133 L3535.92 113.116 L3518.83 126.853 L3501.74 129.802 L3484.65 126.527 L3467.56 116.063 L3450.47 103.88 L3433.38 91.2923 L3416.29 80.5648 L3399.2 73.0005 L3382.11 73.9951 L3365.02 77.6741 L3347.93 80.6376 L3330.84 81.0396 L3313.75 81.6853 L3296.66 82.0499 L3279.57 84.2993 L3262.48 86.4334 L3245.39 88.1603 L3228.3 86.2904 L3211.21 82.288 L3194.12 78.3524 L3177.03 78.1139 L3159.94 82.8078 L3142.85 93.6523 L3125.76 111.344 L3108.67 124.829 L3091.58 127.873 L3074.49 124.725 L3057.4 114.329 L3040.31 102.198 L3023.22 89.6552 L3006.12 78.9292 L2989.03 71.3577 L2971.94 72.3407 L2954.85 75.9935 L2937.76 78.9571 L2920.67 79.3404 L2903.58 79.8122 L2886.49 79.4496 L2869.4 81.7043 L2852.31 83.8585 L2835.22 85.6159 L2818.13 84.2776 L2801.04 79.7787 L2783.95 76.1289 L2766.86 76.4207 L2749.77 81.4614 L2732.68 92.2142 L2715.59 110.24 L2698.5 124.057 L2681.41 127.117 L2664.32 123.916 L2647.23 113.559 L2630.14 101.504 L2613.05 89.021 L2595.96 78.3739 L2578.87 70.8396 L2561.78 71.8336 L2544.69 75.4597 L2527.6 78.3322 L2510.51 78.6031 L2493.42 78.806 L2476.32 79.1971 L2459.23 81.6374 L2442.14 84.0062 L2425.05 85.563 L2407.96 82.5968 L2390.87 78.7619 L2373.78 75.168 L2356.69 75.2802 L2339.6 80.016 L2322.51 91.4164 L2305.42 109.531 L2288.33 123.526 L2271.24 126.794 L2254.15 123.897 L2237.06 113.78 L2219.97 101.917 L2202.88 89.6777 L2185.79 79.3587 L2168.7 72.2087 L2151.61 73.5206 L2134.52 77.4952 L2117.43 80.7845 L2100.34 81.5392 L2083.25 82.2872 L2066.16 82.6929 L2049.07 85.2259 L2031.98 87.6327 L2014.89 89.6135 L1997.8 87.2888 L1980.71 83.4188 L1963.61 79.9275 L1946.52 80.133 L1929.43 84.8102 L1912.34 96.1399 L1895.25 114.287 L1878.16 128.37 L1861.07 131.886 L1843.98 129.184 L1826.89 119.186 L1809.8 107.452 L1792.71 95.3035 L1775.62 85.011 L1758.53 77.8611 L1741.44 79.2648 L1724.35 83.3568 L1707.26 86.7044 L1690.17 87.5322 L1673.08 88.5287 L1655.99 89.9986 L1638.9 93.1147 L1621.81 95.9234 L1604.72 97.9042 L1587.63 95.5241 L1570.54 91.5362 L1553.45 88.5558 L1536.36 89.1768 L1519.27 94.7328 L1502.18 106.611 L1485.09 125.147 L1468 139.563 L1450.91 143.323 L1433.81 140.864 L1416.72 131.208 L1399.63 119.79 L1382.54 107.957 L1365.45 97.9739 L1348.36 91.2526 L1331.27 93.0597 L1314.18 97.5822 L1297.09 101.416 L1280 102.813 L1262.91 104.463 L1245.82 106.6 L1228.73 109.993 L1211.64 112.579 L1194.55 115.12 L1177.46 115.114 L1160.37 112.583 L1143.28 110.593 L1126.19 112.632 L1109.1 119.28 L1092.01 131.297 L1074.92 150.598 L1057.83 165.668 L1040.74 170.042 L1023.65 168.171 L1006.56 159.102 L989.466 145.957 L972.376 131.661 L955.286 120.427 L938.195 115.059 L921.105 121.405 L904.015 130.864 L886.925 136.053 L869.834 137.9 L852.744 136.637 L835.654 137.19 L818.563 141.191 L801.473 145.102 L784.383 148.678 L767.292 149.807 L750.202 142.923 L733.112 140.185 L716.021 146.66 L698.931 160.536 L681.841 176.066 L664.75 198.567 L647.66 217.527 L630.57 225.593 L613.479 226.596 L596.389 220.593 L579.299 212.181 L562.208 199.491 L545.118 189.874 L528.028 185.866  Z" fill="#aeaeae" fill-rule="evenodd" fill-opacity="0.5"/>
<polyline clip-path="url(#clip532)" style="stroke:#aeaeae; stroke-linecap:round; stroke-linejoin:round; stroke-width:0; stroke-opacity:1; fill:none" points="528.028,198.486 545.118,202.922 562.208,209.321 579.299,216.757 596.389,223.86 613.479,229.857 630.57,231.387 647.66,229.037 664.75,220.356 681.841,209.144 698.931,201.826 716.021,197.332 733.112,195.493 750.202,196.521 767.292,199.079 784.383,201.911 801.473,203.274 818.563,203.866 835.654,203.365 852.744,203.562 869.834,203.705 886.925,203.568 904.015,201.531 921.105,198.759 938.195,197.564 955.286,201.751 972.376,208.017 989.466,215.404 1006.56,222.501 1023.65,228.525 1040.74,230.09 1057.83,227.743 1074.92,218.869 1092.01,207.474 1109.1,200 1126.19,195.49 1143.28,193.686 1160.37,194.746 1177.46,197.301 1194.55,200.048 1211.64,201.362 1228.73,201.915 1245.82,201.411 1262.91,201.686 1280,201.961 1297.09,201.948 1314.18,200.025 1331.27,197.355 1348.36,196.249 1365.45,200.522 1382.54,206.869 1399.63,214.335 1416.72,221.501 1433.81,227.602 1450.91,229.232 1468,226.932 1485.09,218.024 1502.18,206.591 1519.27,199.085 1536.36,194.561 1553.45,192.731 1570.54,193.787 1587.63,196.335 1604.72,199.091 1621.81,200.422 1638.9,200.996 1655.99,200.515 1673.08,200.835 1690.17,201.186 1707.26,201.247 1724.35,199.393 1741.44,196.777 1758.53,195.718 1775.62,200.035 1792.71,206.424 1809.8,213.929 1826.89,221.141 1843.98,227.295 1861.07,228.964 1878.16,226.687 1895.25,217.81 1912.34,206.389 1929.43,198.898 1946.52,194.363 1963.61,192.552 1980.71,193.62 1997.8,196.2 2014.89,198.967 2031.98,200.295 2049.07,200.872 2066.16,200.408 2083.25,200.779 2100.34,201.162 2117.43,201.263 2134.52,199.443 2151.61,196.859 2168.7,195.827 2185.79,200.173 2202.88,206.59 2219.97,214.113 2237.06,221.363 2254.15,227.548 2271.24,229.271 2288.33,227.035 2305.42,218.178 2322.51,206.771 2339.6,199.268 2356.69,194.755 2373.78,192.955 2390.87,194.022 2407.96,196.595 2425.05,199.347 2442.14,200.674 2459.23,201.266 2476.32,200.843 2493.42,201.233 2510.51,201.638 2527.6,201.758 2544.69,199.953 2561.78,197.386 2578.87,196.368 2595.96,200.729 2613.05,207.154 2630.14,214.7 2647.23,221.966 2664.32,228.171 2681.41,229.904 2698.5,227.706 2715.59,218.903 2732.68,207.488 2749.77,200 2766.86,195.49 2783.95,193.662 2801.04,194.714 2818.13,197.269 2835.22,200.019 2852.31,201.338 2869.4,201.91 2886.49,201.465 2903.58,201.862 2920.67,202.268 2937.76,202.392 2954.85,200.593 2971.94,198.03 2989.03,197.013 3006.12,201.375 3023.22,207.808 3040.31,215.362 3057.4,222.635 3074.49,228.851 3091.58,230.601 3108.67,228.397 3125.76,219.583 3142.85,208.175 3159.94,200.687 3177.03,196.17 3194.12,194.322 3211.21,195.36 3228.3,197.903 3245.39,200.634 3262.48,201.947 3279.57,202.514 3296.66,202.057 3313.75,202.442 3330.84,202.856 3347.93,203.002 3365.02,201.22 3382.11,198.669 3399.2,197.658 3416.29,202.029 3433.38,208.467 3450.47,216.03 3467.56,223.32 3484.65,229.553 3501.74,231.312 3518.83,229.148 3535.92,220.346 3553.02,208.951 3570.11,201.447 3587.2,196.927 3604.29,195.088 3621.38,196.118 3638.47,198.649 3655.56,201.383 3672.65,202.683 3689.74,203.232 3706.83,202.776 3723.92,203.168 3741.01,203.581 3758.1,203.724 3775.19,201.945 3792.28,199.393 3809.37,198.383 3826.46,202.758 3843.55,209.203 3860.64,216.773 3877.73,224.068 3894.82,230.311 3911.91,232.088 3929,229.903 3946.09,221.106 3963.18,209.696 3980.27,202.19 3997.36,197.663 4014.45,195.82 4031.54,196.838 4048.63,199.356 4065.72,202.06 4082.82,203.333 4099.91,203.882 4117,203.415 4134.09,203.787 4151.18,204.209 4168.27,204.353 4185.36,202.584 4202.45,200.034 4219.54,199.024 4236.63,203.396 4253.72,209.838 4270.81,217.406 4287.9,224.704 4304.99,230.952 4322.08,232.731 4339.17,230.554 4356.26,221.764 4373.35,210.391 4390.44,202.894 4407.53,198.339 4424.62,196.461 4441.71,197.459 4458.8,199.962 4475.89,202.65 4492.98,203.917 4510.07,204.479 4527.16,204.018 4544.25,204.401 4561.34,204.821 4578.43,204.971 4595.52,203.202 4612.62,200.654 4629.71,199.647 "/>
<path clip-path="url(#clip532)" d="M528.028 208.422 L545.118 221.011 L562.208 239.158 L579.299 262.015 L596.389 286.494 L613.479 309.531 L630.57 321.753 L647.66 324.674 L664.75 311.061 L681.841 286.113 L698.931 270.218 L716.021 258.05 L733.112 250.63 L750.202 253.194 L767.292 258.658 L784.383 267.397 L801.473 272.358 L818.563 278.74 L835.654 280.821 L852.744 284.975 L869.834 288.104 L886.925 292.258 L904.015 289.113 L921.105 288.803 L938.195 289.019 L955.286 302 L972.376 320.822 L989.466 341.024 L1006.56 365.037 L1023.65 383.747 L1040.74 392.85 L1057.83 392.694 L1074.92 373.434 L1092.01 345.086 L1109.1 328.663 L1126.19 309.63 L1143.28 299.729 L1160.37 300.196 L1177.46 301.408 L1194.55 302.752 L1211.64 302.296 L1228.73 301.198 L1245.82 301.752 L1262.91 305.212 L1280 311.644 L1297.09 313.477 L1314.18 314.085 L1331.27 313.395 L1348.36 309.533 L1365.45 321.552 L1382.54 341.045 L1399.63 362.864 L1416.72 385.691 L1433.81 405.431 L1450.91 415.783 L1468 416.981 L1485.09 396.871 L1502.18 368.752 L1519.27 343.822 L1536.36 322.403 L1553.45 314.125 L1570.54 310.627 L1587.63 311.048 L1604.72 311.542 L1621.81 310.744 L1638.9 309.344 L1655.99 307.768 L1673.08 311.825 L1690.17 317.46 L1707.26 321.307 L1724.35 321.373 L1741.44 319.736 L1758.53 315.709 L1775.62 326.945 L1792.71 345.017 L1809.8 367.633 L1826.89 390.648 L1843.98 412.216 L1861.07 421.169 L1878.16 422.039 L1895.25 402.843 L1912.34 374.653 L1929.43 350.957 L1946.52 326.772 L1963.61 318.347 L1980.71 313.613 L1997.8 313.102 L2014.89 314.597 L2031.98 313.838 L2049.07 311.738 L2066.16 310.397 L2083.25 314.557 L2100.34 320.506 L2117.43 324.453 L2134.52 324.775 L2151.61 322.558 L2168.7 322.253 L2185.79 329.976 L2202.88 347.614 L2219.97 370.247 L2237.06 394.911 L2254.15 415.225 L2271.24 424.603 L2288.33 424.407 L2305.42 405.918 L2322.51 379.342 L2339.6 353.023 L2356.69 329.443 L2373.78 319.491 L2390.87 314.178 L2407.96 313.993 L2425.05 315.903 L2442.14 315.196 L2459.23 313.26 L2476.32 312.578 L2493.42 316.83 L2510.51 322.603 L2527.6 326.268 L2544.69 326.535 L2561.78 326.457 L2578.87 328.103 L2595.96 337.485 L2613.05 351.079 L2630.14 374.266 L2647.23 398.389 L2664.32 417.754 L2681.41 426.242 L2698.5 427.201 L2715.59 409.575 L2732.68 383.692 L2749.77 356.068 L2766.86 333.634 L2783.95 320.052 L2801.04 315.117 L2818.13 314.843 L2835.22 317.335 L2852.31 316.764 L2869.4 316.313 L2886.49 314.889 L2903.58 320.01 L2920.67 324.558 L2937.76 329.165 L2954.85 327.547 L2971.94 327.342 L2989.03 329.767 L3006.12 342.573 L3023.22 356.655 L3040.31 378.083 L3057.4 400.263 L3074.49 420.262 L3091.58 427.266 L3108.67 428.871 L3125.76 413.674 L3142.85 386.543 L3159.94 358.782 L3177.03 336.314 L3194.12 320.196 L3211.21 316.035 L3228.3 317.55 L3245.39 318.555 L3262.48 318.928 L3279.57 317.534 L3296.66 315.827 L3313.75 320.053 L3330.84 325.111 L3347.93 329.144 L3365.02 328.598 L3382.11 328.667 L3399.2 330.997 L3416.29 345.4 L3433.38 361.421 L3450.47 379.874 L3467.56 401.061 L3484.65 421.808 L3501.74 427.722 L3518.83 431.868 L3535.92 415.838 L3553.02 388.216 L3570.11 358.942 L3587.2 338.935 L3604.29 323.849 L3621.38 318.713 L3638.47 319.04 L3655.56 320.516 L3672.65 320.571 L3689.74 318.73 L3706.83 316.283 L3723.92 321.333 L3741.01 326.329 L3758.1 330.629 L3775.19 329.954 L3792.28 329.615 L3809.37 331.938 L3826.46 345.583 L3843.55 362.893 L3860.64 381.766 L3877.73 402.009 L3894.82 423.028 L3911.91 429.791 L3929 432.303 L3946.09 415.426 L3963.18 386.288 L3980.27 359.407 L3997.36 338.549 L4014.45 322.915 L4031.54 317.562 L4048.63 319.335 L4065.72 320.41 L4082.82 320.521 L4099.91 319.682 L4117 317.327 L4134.09 322.489 L4151.18 327.433 L4168.27 331.509 L4185.36 330.418 L4202.45 330.395 L4219.54 333.549 L4236.63 345.161 L4253.72 362.386 L4270.81 382.973 L4287.9 401.58 L4304.99 424.416 L4322.08 432.594 L4339.17 431.482 L4356.26 414.52 L4373.35 385.973 L4390.44 360.932 L4407.53 340.671 L4424.62 324.42 L4441.71 318.093 L4458.8 319.175 L4475.89 321.682 L4492.98 321.144 L4510.07 321.21 L4527.16 319.302 L4544.25 323.556 L4561.34 328.535 L4578.43 333.117 L4595.52 330.551 L4612.62 331.191 L4629.71 333.598 L4629.71 116.791 L4612.62 119.848 L4595.52 124.78 L4578.43 125.932 L4561.34 124.324 L4544.25 124.506 L4527.16 125.097 L4510.07 128.183 L4492.98 129.403 L4475.89 130.806 L4458.8 128.466 L4441.71 123.425 L4424.62 119.964 L4407.53 120.859 L4390.44 126.024 L4373.35 137.24 L4356.26 156.502 L4339.17 171.611 L4322.08 175.313 L4304.99 172.801 L4287.9 162.409 L4270.81 149.214 L4253.72 134.955 L4236.63 123.195 L4219.54 115.847 L4202.45 118.671 L4185.36 122.583 L4168.27 125.09 L4151.18 123.068 L4134.09 123.531 L4117 124.007 L4099.91 126.219 L4082.82 128.234 L4065.72 129.287 L4048.63 126.365 L4031.54 121.409 L4014.45 117.459 L3997.36 119.887 L3980.27 124.186 L3963.18 134.756 L3946.09 154 L3929 169.426 L3911.91 173.843 L3894.82 171.475 L3877.73 159.688 L3860.64 147.534 L3843.55 133.217 L3826.46 121.71 L3809.37 114.137 L3792.28 116.703 L3775.19 121.478 L3758.1 123.776 L3741.01 120.663 L3723.92 121.623 L3706.83 121.43 L3689.74 123.327 L3672.65 124.677 L3655.56 125.553 L3638.47 123.764 L3621.38 117.876 L3604.29 115.681 L3587.2 117.313 L3570.11 122.067 L3553.02 132.918 L3535.92 151.523 L3518.83 167.022 L3501.74 171.759 L3484.65 169.408 L3467.56 157.958 L3450.47 144.342 L3433.38 131.504 L3416.29 119.548 L3399.2 112.202 L3382.11 114.614 L3365.02 119.043 L3347.93 119.513 L3330.84 117.872 L3313.75 117.669 L3296.66 118.271 L3279.57 120.476 L3262.48 122.074 L3245.39 122.951 L3228.3 121.312 L3211.21 116.518 L3194.12 113.664 L3177.03 114.215 L3159.94 119.628 L3142.85 129.99 L3125.76 149.823 L3108.67 164.608 L3091.58 168.794 L3074.49 166.456 L3057.4 156.149 L3040.31 143.306 L3023.22 129.6 L3006.12 118.112 L2989.03 110.913 L2971.94 112.787 L2954.85 116.701 L2937.76 118.364 L2920.67 117.399 L2903.58 117.001 L2886.49 116.068 L2869.4 118.196 L2852.31 120.513 L2835.22 121.04 L2818.13 119.187 L2801.04 115.307 L2783.95 112.2 L2766.86 113.762 L2749.77 118.775 L2732.68 129.392 L2715.59 148.486 L2698.5 163.878 L2681.41 167.497 L2664.32 164.915 L2647.23 154.409 L2630.14 141.888 L2613.05 128.266 L2595.96 116.6 L2578.87 109.494 L2561.78 111.69 L2544.69 115.919 L2527.6 117.818 L2510.51 115.849 L2493.42 115.892 L2476.32 113.736 L2459.23 115.944 L2442.14 117.979 L2425.05 118.882 L2407.96 117.407 L2390.87 114.846 L2373.78 111.521 L2356.69 113.297 L2339.6 118.194 L2322.51 128.891 L2305.42 146.907 L2288.33 162.251 L2271.24 166.607 L2254.15 164.444 L2237.06 153.764 L2219.97 141.42 L2202.88 128.659 L2185.79 117.143 L2168.7 109.378 L2151.61 111.437 L2134.52 115.252 L2117.43 118.21 L2100.34 116.116 L2083.25 115.482 L2066.16 114.455 L2049.07 116.911 L2031.98 118.81 L2014.89 119.983 L1997.8 118.697 L1980.71 115.748 L1963.61 113.027 L1946.52 113.912 L1929.43 119.459 L1912.34 130.113 L1895.25 149.013 L1878.16 164.499 L1861.07 168.402 L1843.98 166.2 L1826.89 155.828 L1809.8 143.41 L1792.71 131.065 L1775.62 119.262 L1758.53 111.908 L1741.44 114.391 L1724.35 119.461 L1707.26 122.645 L1690.17 120.601 L1673.08 119.433 L1655.99 118.659 L1638.9 121.397 L1621.81 124.077 L1604.72 125.172 L1587.63 123.655 L1570.54 120.318 L1553.45 117.517 L1536.36 119.027 L1519.27 125.381 L1502.18 136.475 L1485.09 155.967 L1468 171.231 L1450.91 176.039 L1433.81 173.688 L1416.72 163.194 L1399.63 151.041 L1382.54 137.602 L1365.45 125.596 L1348.36 118.852 L1331.27 121.968 L1314.18 128.501 L1297.09 132.729 L1280 132.315 L1262.91 131.256 L1245.82 132.286 L1228.73 135.826 L1211.64 137.97 L1194.55 140.026 L1177.46 136.617 L1160.37 132.662 L1143.28 130.079 L1126.19 132.49 L1109.1 139.704 L1092.01 152.303 L1074.92 172.296 L1057.83 188.633 L1040.74 193.454 L1023.65 191.398 L1006.56 181.433 L989.466 168.492 L972.376 154.638 L955.286 143.048 L938.195 136.829 L921.105 141.883 L904.015 149.238 L886.925 155.828 L869.834 157.276 L852.744 156.42 L835.654 157.265 L818.563 161.406 L801.473 165.125 L784.383 166.324 L767.292 163.572 L750.202 160.309 L733.112 158.633 L716.021 163.646 L698.931 173.46 L681.841 188.713 L664.75 209.974 L647.66 227.58 L630.57 234.454 L613.479 235.134 L596.389 227.815 L579.299 217.278 L562.208 204.577 L545.118 194.072 L528.028 188.786  Z" fill="#757575" fill-rule="evenodd" fill-opacity="0.5"/>
<polyline clip-path="url(#clip532)" style="stroke:#757575; stroke-linecap:round; stroke-linejoin:round; stroke-width:0; stroke-opacity:1; fill:none" points="528.028,198.486 545.118,202.922 562.208,209.321 579.299,216.757 596.389,223.86 613.479,229.857 630.57,231.387 647.66,229.037 664.75,220.356 681.841,209.144 698.931,201.826 716.021,197.332 733.112,195.493 750.202,196.521 767.292,199.079 784.383,201.911 801.473,203.274 818.563,203.866 835.654,203.365 852.744,203.562 869.834,203.705 886.925,203.568 904.015,201.531 921.105,198.759 938.195,197.564 955.286,201.751 972.376,208.017 989.466,215.404 1006.56,222.501 1023.65,228.525 1040.74,230.09 1057.83,227.743 1074.92,218.869 1092.01,207.474 1109.1,200 1126.19,195.49 1143.28,193.686 1160.37,194.746 1177.46,197.301 1194.55,200.048 1211.64,201.362 1228.73,201.915 1245.82,201.411 1262.91,201.686 1280,201.961 1297.09,201.948 1314.18,200.025 1331.27,197.355 1348.36,196.249 1365.45,200.522 1382.54,206.869 1399.63,214.335 1416.72,221.501 1433.81,227.602 1450.91,229.232 1468,226.932 1485.09,218.024 1502.18,206.591 1519.27,199.085 1536.36,194.561 1553.45,192.731 1570.54,193.787 1587.63,196.335 1604.72,199.091 1621.81,200.422 1638.9,200.996 1655.99,200.515 1673.08,200.835 1690.17,201.186 1707.26,201.247 1724.35,199.393 1741.44,196.777 1758.53,195.718 1775.62,200.035 1792.71,206.424 1809.8,213.929 1826.89,221.141 1843.98,227.295 1861.07,228.964 1878.16,226.687 1895.25,217.81 1912.34,206.389 1929.43,198.898 1946.52,194.363 1963.61,192.552 1980.71,193.62 1997.8,196.2 2014.89,198.967 2031.98,200.295 2049.07,200.872 2066.16,200.408 2083.25,200.779 2100.34,201.162 2117.43,201.263 2134.52,199.443 2151.61,196.859 2168.7,195.827 2185.79,200.173 2202.88,206.59 2219.97,214.113 2237.06,221.363 2254.15,227.548 2271.24,229.271 2288.33,227.035 2305.42,218.178 2322.51,206.771 2339.6,199.268 2356.69,194.755 2373.78,192.955 2390.87,194.022 2407.96,196.595 2425.05,199.347 2442.14,200.674 2459.23,201.266 2476.32,200.843 2493.42,201.233 2510.51,201.638 2527.6,201.758 2544.69,199.953 2561.78,197.386 2578.87,196.368 2595.96,200.729 2613.05,207.154 2630.14,214.7 2647.23,221.966 2664.32,228.171 2681.41,229.904 2698.5,227.706 2715.59,218.903 2732.68,207.488 2749.77,200 2766.86,195.49 2783.95,193.662 2801.04,194.714 2818.13,197.269 2835.22,200.019 2852.31,201.338 2869.4,201.91 2886.49,201.465 2903.58,201.862 2920.67,202.268 2937.76,202.392 2954.85,200.593 2971.94,198.03 2989.03,197.013 3006.12,201.375 3023.22,207.808 3040.31,215.362 3057.4,222.635 3074.49,228.851 3091.58,230.601 3108.67,228.397 3125.76,219.583 3142.85,208.175 3159.94,200.687 3177.03,196.17 3194.12,194.322 3211.21,195.36 3228.3,197.903 3245.39,200.634 3262.48,201.947 3279.57,202.514 3296.66,202.057 3313.75,202.442 3330.84,202.856 3347.93,203.002 3365.02,201.22 3382.11,198.669 3399.2,197.658 3416.29,202.029 3433.38,208.467 3450.47,216.03 3467.56,223.32 3484.65,229.553 3501.74,231.312 3518.83,229.148 3535.92,220.346 3553.02,208.951 3570.11,201.447 3587.2,196.927 3604.29,195.088 3621.38,196.118 3638.47,198.649 3655.56,201.383 3672.65,202.683 3689.74,203.232 3706.83,202.776 3723.92,203.168 3741.01,203.581 3758.1,203.724 3775.19,201.945 3792.28,199.393 3809.37,198.383 3826.46,202.758 3843.55,209.203 3860.64,216.773 3877.73,224.068 3894.82,230.311 3911.91,232.088 3929,229.903 3946.09,221.106 3963.18,209.696 3980.27,202.19 3997.36,197.663 4014.45,195.82 4031.54,196.838 4048.63,199.356 4065.72,202.06 4082.82,203.333 4099.91,203.882 4117,203.415 4134.09,203.787 4151.18,204.209 4168.27,204.353 4185.36,202.584 4202.45,200.034 4219.54,199.024 4236.63,203.396 4253.72,209.838 4270.81,217.406 4287.9,224.704 4304.99,230.952 4322.08,232.731 4339.17,230.554 4356.26,221.764 4373.35,210.391 4390.44,202.894 4407.53,198.339 4424.62,196.461 4441.71,197.459 4458.8,199.962 4475.89,202.65 4492.98,203.917 4510.07,204.479 4527.16,204.018 4544.25,204.401 4561.34,204.821 4578.43,204.971 4595.52,203.202 4612.62,200.654 4629.71,199.647 "/>
<path clip-path="url(#clip532)" d="M528.028 203.623 L545.118 214.919 L562.208 229.985 L579.299 250.472 L596.389 271.686 L613.479 291.387 L630.57 300.246 L647.66 299.354 L664.75 282.231 L681.841 256.349 L698.931 238.997 L716.021 228.984 L733.112 225.435 L750.202 229.115 L767.292 236.187 L784.383 243.785 L801.473 248.377 L818.563 251.325 L835.654 252.319 L852.744 255.716 L869.834 258.018 L886.925 260.855 L904.015 251.473 L921.105 248.065 L938.195 246.731 L955.286 257.553 L972.376 270.883 L989.466 286.931 L1006.56 304.672 L1023.65 324.992 L1040.74 331.967 L1057.83 334.256 L1074.92 313.707 L1092.01 284.231 L1109.1 263.581 L1126.19 252.526 L1143.28 246.598 L1160.37 247.814 L1177.46 252.535 L1194.55 257.467 L1211.64 261.863 L1228.73 264.115 L1245.82 264.285 L1262.91 265.834 L1280 269.349 L1297.09 268.743 L1314.18 259.3 L1331.27 256.065 L1348.36 256.029 L1365.45 265.565 L1382.54 279.919 L1399.63 294.943 L1416.72 314.217 L1433.81 331.485 L1450.91 340.266 L1468 341.049 L1485.09 320.534 L1502.18 290.013 L1519.27 271.568 L1536.36 257.362 L1553.45 251.851 L1570.54 252.936 L1587.63 256.571 L1604.72 262.183 L1621.81 264.558 L1638.9 267.137 L1655.99 267.116 L1673.08 268.325 L1690.17 271.494 L1707.26 271.042 L1724.35 261.953 L1741.44 258.144 L1758.53 258.437 L1775.62 267.833 L1792.71 280.948 L1809.8 296.946 L1826.89 316.35 L1843.98 334.53 L1861.07 341.526 L1878.16 341.709 L1895.25 321.777 L1912.34 292.101 L1929.43 273.422 L1946.52 260.396 L1963.61 254.351 L1980.71 254.535 L1997.8 257.63 L2014.89 263.842 L2031.98 264.593 L2049.07 267.937 L2066.16 268.708 L2083.25 268.795 L2100.34 271.21 L2117.43 270.932 L2134.52 263.889 L2151.61 261.027 L2168.7 261.52 L2185.79 270.282 L2202.88 282.442 L2219.97 297.435 L2237.06 317.303 L2254.15 335.311 L2271.24 342.781 L2288.33 342.598 L2305.42 322.908 L2322.51 292.368 L2339.6 273.213 L2356.69 260.85 L2373.78 256.034 L2390.87 254.417 L2407.96 258.697 L2425.05 264.615 L2442.14 265.848 L2459.23 269.011 L2476.32 269.097 L2493.42 270.41 L2510.51 271.967 L2527.6 272.146 L2544.69 266.233 L2561.78 263.709 L2578.87 263.033 L2595.96 273.998 L2613.05 285.282 L2630.14 298.979 L2647.23 317.431 L2664.32 335.563 L2681.41 343.473 L2698.5 342.974 L2715.59 323.55 L2732.68 293.698 L2749.77 274.687 L2766.86 262.43 L2783.95 257.555 L2801.04 256.406 L2818.13 261.323 L2835.22 265.664 L2852.31 267.752 L2869.4 270.798 L2886.49 270.441 L2903.58 271.078 L2920.67 273.194 L2937.76 274.207 L2954.85 268.094 L2971.94 264.09 L2989.03 263.716 L3006.12 274.473 L3023.22 287.472 L3040.31 301.639 L3057.4 318.258 L3074.49 337.003 L3091.58 345.177 L3108.67 343.84 L3125.76 323.093 L3142.85 295.283 L3159.94 275.628 L3177.03 263.458 L3194.12 258.651 L3211.21 258.56 L3228.3 262.303 L3245.39 267.014 L3262.48 269.749 L3279.57 271.703 L3296.66 270.913 L3313.75 272.091 L3330.84 275.562 L3347.93 274.65 L3365.02 269.663 L3382.11 264.651 L3399.2 264.984 L3416.29 275.412 L3433.38 288.316 L3450.47 302.153 L3467.56 319.055 L3484.65 336.511 L3501.74 346.285 L3518.83 343.839 L3535.92 323.97 L3553.02 296.51 L3570.11 275.81 L3587.2 264.368 L3604.29 259.977 L3621.38 260.346 L3638.47 264.033 L3655.56 268.58 L3672.65 270.568 L3689.74 271.987 L3706.83 271.809 L3723.92 272.584 L3741.01 276.907 L3758.1 276.685 L3775.19 271.373 L3792.28 265.24 L3809.37 264.915 L3826.46 275.487 L3843.55 288.478 L3860.64 303.067 L3877.73 320.478 L3894.82 338.203 L3911.91 345.431 L3929 344.082 L3946.09 325.304 L3963.18 297.405 L3980.27 276.917 L3997.36 266.598 L4014.45 261.829 L4031.54 260.986 L4048.63 265.24 L4065.72 269.625 L4082.82 272.048 L4099.91 273.681 L4117 273.49 L4134.09 274.299 L4151.18 277.014 L4168.27 277.449 L4185.36 272.851 L4202.45 265.957 L4219.54 265.895 L4236.63 276.581 L4253.72 290.44 L4270.81 303.94 L4287.9 321.77 L4304.99 339.839 L4322.08 346.714 L4339.17 344.896 L4356.26 326.286 L4373.35 298.633 L4390.44 278.248 L4407.53 269.516 L4424.62 262.96 L4441.71 262.412 L4458.8 266.831 L4475.89 271.031 L4492.98 273.186 L4510.07 274.609 L4527.16 273.538 L4544.25 275.565 L4561.34 279.115 L4578.43 279.909 L4595.52 273.038 L4612.62 266.901 L4629.71 266.609 L4629.71 128.021 L4612.62 129.828 L4595.52 136.739 L4578.43 140.931 L4561.34 140.941 L4544.25 142.917 L4527.16 144.229 L4510.07 147.873 L4492.98 148.837 L4475.89 147.588 L4458.8 141.531 L4441.71 135.124 L4424.62 130.759 L4407.53 132.076 L4390.44 136.862 L4373.35 147.348 L4356.26 167.249 L4339.17 182.806 L4322.08 187.567 L4304.99 185.144 L4287.9 173.309 L4270.81 159.534 L4253.72 145.962 L4236.63 134.488 L4219.54 126.459 L4202.45 127.641 L4185.36 134.905 L4168.27 139.332 L4151.18 139.629 L4134.09 141.023 L4117 143.132 L4099.91 146.76 L4082.82 148.13 L4065.72 146.196 L4048.63 139.958 L4031.54 133.905 L4014.45 129.164 L3997.36 130.413 L3980.27 135.852 L3963.18 147.342 L3946.09 166.18 L3929 181.262 L3911.91 185.211 L3894.82 183.652 L3877.73 172.22 L3860.64 158.426 L3843.55 143.874 L3826.46 132.912 L3809.37 124.352 L3792.28 126.823 L3775.19 133.924 L3758.1 137.173 L3741.01 138.187 L3723.92 139.586 L3706.83 141.035 L3689.74 144.415 L3672.65 146.356 L3655.56 145.507 L3638.47 139.189 L3621.38 132.363 L3604.29 127.752 L3587.2 128.556 L3570.11 133.786 L3553.02 145.165 L3535.92 164.675 L3518.83 180.06 L3501.74 184.125 L3484.65 180.888 L3467.56 170.599 L3450.47 156.466 L3433.38 142.071 L3416.29 130.946 L3399.2 123.053 L3382.11 124.884 L3365.02 132.557 L3347.93 136.481 L3330.84 137.314 L3313.75 138.398 L3296.66 139.027 L3279.57 142.139 L3262.48 143.96 L3245.39 143.578 L3228.3 137.528 L3211.21 130.816 L3194.12 126.402 L3177.03 127.732 L3159.94 132.102 L3142.85 143.727 L3125.76 162.588 L3108.67 178.539 L3091.58 183.065 L3074.49 180.631 L3057.4 169.318 L3040.31 155.873 L3023.22 140.991 L3006.12 129.335 L2989.03 121.25 L2971.94 123.914 L2954.85 130.933 L2937.76 135.594 L2920.67 136.083 L2903.58 137.079 L2886.49 137.216 L2869.4 140.375 L2852.31 143.174 L2835.22 142.61 L2818.13 136.156 L2801.04 129.891 L2783.95 125.285 L2766.86 126.01 L2749.77 130.516 L2732.68 141.928 L2715.59 161.164 L2698.5 177.079 L2681.41 181.555 L2664.32 178.541 L2647.23 168.033 L2630.14 154.749 L2613.05 139.84 L2595.96 128.52 L2578.87 120.407 L2561.78 122.92 L2544.69 130.071 L2527.6 134.075 L2510.51 135.189 L2493.42 135.837 L2476.32 136.033 L2459.23 139.313 L2442.14 141.594 L2425.05 140.52 L2407.96 134.865 L2390.87 128.3 L2373.78 124.246 L2356.69 125.442 L2339.6 129.004 L2322.51 140.762 L2305.42 160.419 L2288.33 176.579 L2271.24 181.201 L2254.15 177.826 L2237.06 167.904 L2219.97 154.016 L2202.88 139.638 L2185.79 127.969 L2168.7 119.807 L2151.61 123.337 L2134.52 129.427 L2117.43 133.978 L2100.34 134.869 L2083.25 135.261 L2066.16 135.449 L2049.07 138.867 L2031.98 141.294 L2014.89 140.853 L1997.8 135.034 L1980.71 128.527 L1963.61 124.07 L1946.52 124.969 L1929.43 129.709 L1912.34 141.602 L1895.25 161.151 L1878.16 176.898 L1861.07 181.785 L1843.98 179.377 L1826.89 168.483 L1809.8 154.51 L1792.71 141.27 L1775.62 129.995 L1758.53 122.25 L1741.44 124.729 L1724.35 130.874 L1707.26 135.968 L1690.17 137.117 L1673.08 137.41 L1655.99 138.476 L1638.9 142.177 L1621.81 144.256 L1604.72 143.755 L1587.63 138.111 L1570.54 131.315 L1553.45 127.8 L1536.36 128.802 L1519.27 134.141 L1502.18 146.123 L1485.09 165.736 L1468 181.381 L1450.91 186.192 L1433.81 184.613 L1416.72 173.917 L1399.63 161.293 L1382.54 148.232 L1365.45 135.69 L1348.36 128.72 L1331.27 132.288 L1314.18 137.699 L1297.09 142.753 L1280 144.224 L1262.91 145.124 L1245.82 147.214 L1228.73 152.094 L1211.64 153.638 L1194.55 151.97 L1177.46 146.632 L1160.37 141.784 L1143.28 138.529 L1126.19 140.012 L1109.1 146.965 L1092.01 159.025 L1074.92 179.002 L1057.83 195.58 L1040.74 201.212 L1023.65 200.197 L1006.56 190.179 L989.466 176.683 L972.376 162.575 L955.286 151.379 L938.195 144.889 L921.105 148.847 L904.015 156.828 L886.925 161.732 L869.834 164.206 L852.744 166.55 L835.654 168.817 L818.563 172.393 L801.473 173.559 L784.383 172.466 L767.292 168.233 L750.202 164.925 L733.112 163.815 L716.021 168.178 L698.931 177.428 L681.841 191.588 L664.75 213.055 L647.66 230.492 L630.57 237.33 L613.479 237.649 L596.389 229.584 L579.299 219.311 L562.208 206.621 L545.118 195.805 L528.028 189.911  Z" fill="#414141" fill-rule="evenodd" fill-opacity="0.5"/>
<polyline clip-path="url(#clip532)" style="stroke:#414141; stroke-linecap:round; stroke-linejoin:round; stroke-width:0; stroke-opacity:1; fill:none" points="528.028,198.486 545.118,202.922 562.208,209.321 579.299,216.757 596.389,223.86 613.479,229.857 630.57,231.387 647.66,229.037 664.75,220.356 681.841,209.144 698.931,201.826 716.021,197.332 733.112,195.493 750.202,196.521 767.292,199.079 784.383,201.911 801.473,203.274 818.563,203.866 835.654,203.365 852.744,203.562 869.834,203.705 886.925,203.568 904.015,201.531 921.105,198.759 938.195,197.564 955.286,201.751 972.376,208.017 989.466,215.404 1006.56,222.501 1023.65,228.525 1040.74,230.09 1057.83,227.743 1074.92,218.869 1092.01,207.474 1109.1,200 1126.19,195.49 1143.28,193.686 1160.37,194.746 1177.46,197.301 1194.55,200.048 1211.64,201.362 1228.73,201.915 1245.82,201.411 1262.91,201.686 1280,201.961 1297.09,201.948 1314.18,200.025 1331.27,197.355 1348.36,196.249 1365.45,200.522 1382.54,206.869 1399.63,214.335 1416.72,221.501 1433.81,227.602 1450.91,229.232 1468,226.932 1485.09,218.024 1502.18,206.591 1519.27,199.085 1536.36,194.561 1553.45,192.731 1570.54,193.787 1587.63,196.335 1604.72,199.091 1621.81,200.422 1638.9,200.996 1655.99,200.515 1673.08,200.835 1690.17,201.186 1707.26,201.247 1724.35,199.393 1741.44,196.777 1758.53,195.718 1775.62,200.035 1792.71,206.424 1809.8,213.929 1826.89,221.141 1843.98,227.295 1861.07,228.964 1878.16,226.687 1895.25,217.81 1912.34,206.389 1929.43,198.898 1946.52,194.363 1963.61,192.552 1980.71,193.62 1997.8,196.2 2014.89,198.967 2031.98,200.295 2049.07,200.872 2066.16,200.408 2083.25,200.779 2100.34,201.162 2117.43,201.263 2134.52,199.443 2151.61,196.859 2168.7,195.827 2185.79,200.173 2202.88,206.59 2219.97,214.113 2237.06,221.363 2254.15,227.548 2271.24,229.271 2288.33,227.035 2305.42,218.178 2322.51,206.771 2339.6,199.268 2356.69,194.755 2373.78,192.955 2390.87,194.022 2407.96,196.595 2425.05,199.347 2442.14,200.674 2459.23,201.266 2476.32,200.843 2493.42,201.233 2510.51,201.638 2527.6,201.758 2544.69,199.953 2561.78,197.386 2578.87,196.368 2595.96,200.729 2613.05,207.154 2630.14,214.7 2647.23,221.966 2664.32,228.171 2681.41,229.904 2698.5,227.706 2715.59,218.903 2732.68,207.488 2749.77,200 2766.86,195.49 2783.95,193.662 2801.04,194.714 2818.13,197.269 2835.22,200.019 2852.31,201.338 2869.4,201.91 2886.49,201.465 2903.58,201.862 2920.67,202.268 2937.76,202.392 2954.85,200.593 2971.94,198.03 2989.03,197.013 3006.12,201.375 3023.22,207.808 3040.31,215.362 3057.4,222.635 3074.49,228.851 3091.58,230.601 3108.67,228.397 3125.76,219.583 3142.85,208.175 3159.94,200.687 3177.03,196.17 3194.12,194.322 3211.21,195.36 3228.3,197.903 3245.39,200.634 3262.48,201.947 3279.57,202.514 3296.66,202.057 3313.75,202.442 3330.84,202.856 3347.93,203.002 3365.02,201.22 3382.11,198.669 3399.2,197.658 3416.29,202.029 3433.38,208.467 3450.47,216.03 3467.56,223.32 3484.65,229.553 3501.74,231.312 3518.83,229.148 3535.92,220.346 3553.02,208.951 3570.11,201.447 3587.2,196.927 3604.29,195.088 3621.38,196.118 3638.47,198.649 3655.56,201.383 3672.65,202.683 3689.74,203.232 3706.83,202.776 3723.92,203.168 3741.01,203.581 3758.1,203.724 3775.19,201.945 3792.28,199.393 3809.37,198.383 3826.46,202.758 3843.55,209.203 3860.64,216.773 3877.73,224.068 3894.82,230.311 3911.91,232.088 3929,229.903 3946.09,221.106 3963.18,209.696 3980.27,202.19 3997.36,197.663 4014.45,195.82 4031.54,196.838 4048.63,199.356 4065.72,202.06 4082.82,203.333 4099.91,203.882 4117,203.415 4134.09,203.787 4151.18,204.209 4168.27,204.353 4185.36,202.584 4202.45,200.034 4219.54,199.024 4236.63,203.396 4253.72,209.838 4270.81,217.406 4287.9,224.704 4304.99,230.952 4322.08,232.731 4339.17,230.554 4356.26,221.764 4373.35,210.391 4390.44,202.894 4407.53,198.339 4424.62,196.461 4441.71,197.459 4458.8,199.962 4475.89,202.65 4492.98,203.917 4510.07,204.479 4527.16,204.018 4544.25,204.401 4561.34,204.821 4578.43,204.971 4595.52,203.202 4612.62,200.654 4629.71,199.647 "/>
<path clip-path="url(#clip530)" d="M3853.78 853.161 L4607.83 853.161 L4607.83 334.761 L3853.78 334.761  Z" fill="#ffffff" fill-rule="evenodd" fill-opacity="1"/>
<polyline clip-path="url(#clip530)" style="stroke:#000000; stroke-linecap:round; stroke-linejoin:round; stroke-width:4; stroke-opacity:1; fill:none" points="3853.78,853.161 4607.83,853.161 4607.83,334.761 3853.78,334.761 3853.78,853.161 "/>
<polyline clip-path="url(#clip530)" style="stroke:#aeaeae; stroke-linecap:round; stroke-linejoin:round; stroke-width:2; stroke-opacity:1; fill:none" points="3902.09,464.361 4191.94,464.361 "/>
<path clip-path="url(#clip530)" d="M4241.93 497.723 L4261.03 497.723 L4261.03 431.809 L4240.25 435.976 L4240.25 425.328 L4260.91 421.161 L4272.6 421.161 L4272.6 497.723 L4291.7 497.723 L4291.7 507.561 L4241.93 507.561 L4241.93 497.723 Z" fill="#000000" fill-rule="nonzero" fill-opacity="1" /><path clip-path="url(#clip530)" d="M4340.31 428.858 Q4331.28 428.858 4326.71 437.77 Q4322.2 446.624 4322.2 464.448 Q4322.2 482.214 4326.71 491.126 Q4331.28 499.98 4340.31 499.98 Q4349.4 499.98 4353.91 491.126 Q4358.48 482.214 4358.48 464.448 Q4358.48 446.624 4353.91 437.77 Q4349.4 428.858 4340.31 428.858 M4340.31 419.599 Q4354.83 419.599 4362.47 431.115 Q4370.17 442.573 4370.17 464.448 Q4370.17 486.265 4362.47 497.781 Q4354.83 509.239 4340.31 509.239 Q4325.78 509.239 4318.09 497.781 Q4310.45 486.265 4310.45 464.448 Q4310.45 442.573 4318.09 431.115 Q4325.78 419.599 4340.31 419.599 Z" fill="#000000" fill-rule="nonzero" fill-opacity="1" /><path clip-path="url(#clip530)" d="M4415.71 428.858 Q4406.69 428.858 4402.11 437.77 Q4397.6 446.624 4397.6 464.448 Q4397.6 482.214 4402.11 491.126 Q4406.69 499.98 4415.71 499.98 Q4424.8 499.98 4429.31 491.126 Q4433.89 482.214 4433.89 464.448 Q4433.89 446.624 4429.31 437.77 Q4424.8 428.858 4415.71 428.858 M4415.71 419.599 Q4430.24 419.599 4437.88 431.115 Q4445.58 442.573 4445.58 464.448 Q4445.58 486.265 4437.88 497.781 Q4430.24 509.239 4415.71 509.239 Q4401.19 509.239 4393.49 497.781 Q4385.85 486.265 4385.85 464.448 Q4385.85 442.573 4393.49 431.115 Q4401.19 419.599 4415.71 419.599 Z" fill="#000000" fill-rule="nonzero" fill-opacity="1" /><path clip-path="url(#clip530)" d="M4539.61 469.541 Q4534.58 469.541 4531.69 473.823 Q4528.85 478.105 4528.85 485.744 Q4528.85 493.267 4531.69 497.608 Q4534.58 501.89 4539.61 501.89 Q4544.53 501.89 4547.37 497.608 Q4550.26 493.267 4550.26 485.744 Q4550.26 478.163 4547.37 473.881 Q4544.53 469.541 4539.61 469.541 M4539.61 462.191 Q4548.76 462.191 4554.14 468.557 Q4559.52 474.923 4559.52 485.744 Q4559.52 496.566 4554.08 502.932 Q4548.7 509.239 4539.61 509.239 Q4530.35 509.239 4524.97 502.932 Q4519.59 496.566 4519.59 485.744 Q4519.59 474.865 4524.97 468.557 Q4530.41 462.191 4539.61 462.191 M4479.89 426.948 Q4474.92 426.948 4472.02 431.289 Q4469.19 435.571 4469.19 443.094 Q4469.19 450.733 4472.02 455.015 Q4474.86 459.298 4479.89 459.298 Q4484.93 459.298 4487.76 455.015 Q4490.66 450.733 4490.66 443.094 Q4490.66 435.629 4487.76 431.289 Q4484.87 426.948 4479.89 426.948 M4532.15 419.599 L4541.41 419.599 L4487.36 509.239 L4478.1 509.239 L4532.15 419.599 M4479.89 419.599 Q4489.04 419.599 4494.48 425.964 Q4499.92 432.272 4499.92 443.094 Q4499.92 454.031 4494.48 460.339 Q4489.09 466.647 4479.89 466.647 Q4470.69 466.647 4465.31 460.339 Q4459.98 453.974 4459.98 443.094 Q4459.98 432.33 4465.37 425.964 Q4470.75 419.599 4479.89 419.599 Z" fill="#000000" fill-rule="nonzero" fill-opacity="1" /><polyline clip-path="url(#clip530)" style="stroke:#757575; stroke-linecap:round; stroke-linejoin:round; stroke-width:2; stroke-opacity:1; fill:none" points="3902.09,593.961 4191.94,593.961 "/>
<path clip-path="url(#clip530)" d="M4245.81 635.367 L4245.81 624.719 Q4250.21 626.803 4254.72 627.902 Q4259.23 629.002 4263.57 629.002 Q4275.15 629.002 4281.22 621.247 Q4287.36 613.435 4288.23 597.578 Q4284.87 602.555 4279.72 605.217 Q4274.57 607.879 4268.32 607.879 Q4255.36 607.879 4247.78 600.067 Q4240.25 592.196 4240.25 578.597 Q4240.25 565.287 4248.12 557.243 Q4255.99 549.199 4269.07 549.199 Q4284.06 549.199 4291.93 560.715 Q4299.86 572.173 4299.86 594.048 Q4299.86 614.476 4290.14 626.687 Q4280.47 638.839 4264.09 638.839 Q4259.7 638.839 4255.18 637.971 Q4250.67 637.103 4245.81 635.367 M4269.07 598.736 Q4276.94 598.736 4281.51 593.354 Q4286.14 587.972 4286.14 578.597 Q4286.14 569.28 4281.51 563.898 Q4276.94 558.458 4269.07 558.458 Q4261.2 558.458 4256.57 563.898 Q4252 569.28 4252 578.597 Q4252 587.972 4256.57 593.354 Q4261.2 598.736 4269.07 598.736 Z" fill="#000000" fill-rule="nonzero" fill-opacity="1" /><path clip-path="url(#clip530)" d="M4345.87 558.458 Q4336.84 558.458 4332.27 567.37 Q4327.75 576.224 4327.75 594.048 Q4327.75 611.814 4332.27 620.726 Q4336.84 629.58 4345.87 629.58 Q4354.95 629.58 4359.46 620.726 Q4364.04 611.814 4364.04 594.048 Q4364.04 576.224 4359.46 567.37 Q4354.95 558.458 4345.87 558.458 M4345.87 549.199 Q4360.39 549.199 4368.03 560.715 Q4375.73 572.173 4375.73 594.048 Q4375.73 615.865 4368.03 627.381 Q4360.39 638.839 4345.87 638.839 Q4331.34 638.839 4323.64 627.381 Q4316 615.865 4316 594.048 Q4316 572.173 4323.64 560.715 Q4331.34 549.199 4345.87 549.199 Z" fill="#000000" fill-rule="nonzero" fill-opacity="1" /><path clip-path="url(#clip530)" d="M4469.76 599.141 Q4464.73 599.141 4461.84 603.423 Q4459 607.705 4459 615.344 Q4459 622.867 4461.84 627.208 Q4464.73 631.49 4469.76 631.49 Q4474.68 631.49 4477.52 627.208 Q4480.41 622.867 4480.41 615.344 Q4480.41 607.763 4477.52 603.481 Q4474.68 599.141 4469.76 599.141 M4469.76 591.791 Q4478.91 591.791 4484.29 598.157 Q4489.67 604.523 4489.67 615.344 Q4489.67 626.166 4484.23 632.532 Q4478.85 638.839 4469.76 638.839 Q4460.51 638.839 4455.12 632.532 Q4449.74 626.166 4449.74 615.344 Q4449.74 604.465 4455.12 598.157 Q4460.56 591.791 4469.76 591.791 M4410.04 556.548 Q4405.07 556.548 4402.17 560.889 Q4399.34 565.171 4399.34 572.694 Q4399.34 580.333 4402.17 584.615 Q4405.01 588.898 4410.04 588.898 Q4415.08 588.898 4417.91 584.615 Q4420.81 580.333 4420.81 572.694 Q4420.81 565.229 4417.91 560.889 Q4415.02 556.548 4410.04 556.548 M4462.3 549.199 L4471.56 549.199 L4417.51 638.839 L4408.25 638.839 L4462.3 549.199 M4410.04 549.199 Q4419.19 549.199 4424.63 555.564 Q4430.07 561.872 4430.07 572.694 Q4430.07 583.631 4424.63 589.939 Q4419.24 596.247 4410.04 596.247 Q4400.84 596.247 4395.46 589.939 Q4390.14 583.574 4390.14 572.694 Q4390.14 561.93 4395.52 555.564 Q4400.9 549.199 4410.04 549.199 Z" fill="#000000" fill-rule="nonzero" fill-opacity="1" /><polyline clip-path="url(#clip530)" style="stroke:#414141; stroke-linecap:round; stroke-linejoin:round; stroke-width:2; stroke-opacity:1; fill:none" points="3902.09,723.561 4191.94,723.561 "/>
<path clip-path="url(#clip530)" d="M4269.88 725.731 Q4261.55 725.731 4256.75 730.187 Q4252 734.643 4252 742.456 Q4252 750.268 4256.75 754.724 Q4261.55 759.18 4269.88 759.18 Q4278.21 759.18 4283.02 754.724 Q4287.82 750.21 4287.82 742.456 Q4287.82 734.643 4283.02 730.187 Q4278.27 725.731 4269.88 725.731 M4258.19 720.755 Q4250.67 718.903 4246.44 713.752 Q4242.28 708.602 4242.28 701.194 Q4242.28 690.836 4249.63 684.817 Q4257.03 678.799 4269.88 678.799 Q4282.79 678.799 4290.14 684.817 Q4297.49 690.836 4297.49 701.194 Q4297.49 708.602 4293.26 713.752 Q4289.09 718.903 4281.63 720.755 Q4290.08 722.722 4294.77 728.451 Q4299.51 734.18 4299.51 742.456 Q4299.51 755.014 4291.81 761.727 Q4284.18 768.439 4269.88 768.439 Q4255.59 768.439 4247.89 761.727 Q4240.25 755.014 4240.25 742.456 Q4240.25 734.18 4245 728.451 Q4249.74 722.722 4258.19 720.755 M4253.91 702.294 Q4253.91 709.007 4258.08 712.768 Q4262.3 716.53 4269.88 716.53 Q4277.4 716.53 4281.63 712.768 Q4285.91 709.007 4285.91 702.294 Q4285.91 695.581 4281.63 691.82 Q4277.4 688.058 4269.88 688.058 Q4262.3 688.058 4258.08 691.82 Q4253.91 695.581 4253.91 702.294 Z" fill="#000000" fill-rule="nonzero" fill-opacity="1" /><path clip-path="url(#clip530)" d="M4345.29 688.058 Q4336.26 688.058 4331.69 696.97 Q4327.17 705.824 4327.17 723.648 Q4327.17 741.414 4331.69 750.326 Q4336.26 759.18 4345.29 759.18 Q4354.37 759.18 4358.89 750.326 Q4363.46 741.414 4363.46 723.648 Q4363.46 705.824 4358.89 696.97 Q4354.37 688.058 4345.29 688.058 M4345.29 678.799 Q4359.81 678.799 4367.45 690.315 Q4375.15 701.773 4375.15 723.648 Q4375.15 745.465 4367.45 756.981 Q4359.81 768.439 4345.29 768.439 Q4330.76 768.439 4323.06 756.981 Q4315.43 745.465 4315.43 723.648 Q4315.43 701.773 4323.06 690.315 Q4330.76 678.799 4345.29 678.799 Z" fill="#000000" fill-rule="nonzero" fill-opacity="1" /><path clip-path="url(#clip530)" d="M4469.19 728.741 Q4464.15 728.741 4461.26 733.023 Q4458.42 737.305 4458.42 744.944 Q4458.42 752.467 4461.26 756.808 Q4464.15 761.09 4469.19 761.09 Q4474.11 761.09 4476.94 756.808 Q4479.83 752.467 4479.83 744.944 Q4479.83 737.363 4476.94 733.081 Q4474.11 728.741 4469.19 728.741 M4469.19 721.391 Q4478.33 721.391 4483.71 727.757 Q4489.09 734.123 4489.09 744.944 Q4489.09 755.766 4483.65 762.132 Q4478.27 768.439 4469.19 768.439 Q4459.93 768.439 4454.55 762.132 Q4449.16 755.766 4449.16 744.944 Q4449.16 734.065 4454.55 727.757 Q4459.98 721.391 4469.19 721.391 M4409.46 686.148 Q4404.49 686.148 4401.59 690.489 Q4398.76 694.771 4398.76 702.294 Q4398.76 709.933 4401.59 714.215 Q4404.43 718.498 4409.46 718.498 Q4414.5 718.498 4417.33 714.215 Q4420.23 709.933 4420.23 702.294 Q4420.23 694.829 4417.33 690.489 Q4414.44 686.148 4409.46 686.148 M4461.72 678.799 L4470.98 678.799 L4416.93 768.439 L4407.67 768.439 L4461.72 678.799 M4409.46 678.799 Q4418.61 678.799 4424.05 685.164 Q4429.49 691.472 4429.49 702.294 Q4429.49 713.231 4424.05 719.539 Q4418.67 725.847 4409.46 725.847 Q4400.26 725.847 4394.88 719.539 Q4389.56 713.174 4389.56 702.294 Q4389.56 691.53 4394.94 685.164 Q4400.32 678.799 4409.46 678.799 Z" fill="#000000" fill-rule="nonzero" fill-opacity="1" /></svg>
