<?xml version="1.0" encoding="utf-8"?>
<svg xmlns="http://www.w3.org/2000/svg" xmlns:xlink="http://www.w3.org/1999/xlink" width="1200" height="300" viewBox="0 0 4800 1200">
<defs>
  <clipPath id="clip990">
    <rect x="0" y="0" width="4800" height="1200"/>
  </clipPath>
</defs>
<path clip-path="url(#clip990)" d="M0 1200 L4800 1200 L4800 0 L0 0  Z" fill="#ffffff" fill-rule="evenodd" fill-opacity="1"/>
<defs>
  <clipPath id="clip991">
    <rect x="960" y="0" width="3361" height="1200"/>
  </clipPath>
</defs>
<path clip-path="url(#clip990)" d="M404.977 880.951 L4752.76 880.951 L4752.76 47.2441 L404.977 47.2441  Z" fill="#ffffff" fill-rule="evenodd" fill-opacity="1"/>
<defs>
  <clipPath id="clip992">
    <rect x="404" y="47" width="4349" height="835"/>
  </clipPath>
</defs>
<polyline clip-path="url(#clip992)" style="stroke:#000000; stroke-linecap:round; stroke-linejoin:round; stroke-width:2; stroke-opacity:0.1; fill:none" points="528.028,880.951 528.028,47.2441 "/>
<polyline clip-path="url(#clip992)" style="stroke:#000000; stroke-linecap:round; stroke-linejoin:round; stroke-width:2; stroke-opacity:0.1; fill:none" points="1348.36,880.951 1348.36,47.2441 "/>
<polyline clip-path="url(#clip992)" style="stroke:#000000; stroke-linecap:round; stroke-linejoin:round; stroke-width:2; stroke-opacity:0.1; fill:none" points="2168.7,880.951 2168.7,47.2441 "/>
<polyline clip-path="url(#clip992)" style="stroke:#000000; stroke-linecap:round; stroke-linejoin:round; stroke-width:2; stroke-opacity:0.1; fill:none" points="2989.03,880.951 2989.03,47.2441 "/>
<polyline clip-path="url(#clip992)" style="stroke:#000000; stroke-linecap:round; stroke-linejoin:round; stroke-width:2; stroke-opacity:0.1; fill:none" points="3809.37,880.951 3809.37,47.2441 "/>
<polyline clip-path="url(#clip992)" style="stroke:#000000; stroke-linecap:round; stroke-linejoin:round; stroke-width:2; stroke-opacity:0.1; fill:none" points="4629.71,880.951 4629.71,47.2441 "/>
<polyline clip-path="url(#clip992)" style="stroke:#000000; stroke-linecap:round; stroke-linejoin:round; stroke-width:2; stroke-opacity:0.1; fill:none" points="404.977,734.213 4752.76,734.213 "/>
<polyline clip-path="url(#clip992)" style="stroke:#000000; stroke-linecap:round; stroke-linejoin:round; stroke-width:2; stroke-opacity:0.1; fill:none" points="404.977,556.507 4752.76,556.507 "/>
<polyline clip-path="url(#clip992)" style="stroke:#000000; stroke-linecap:round; stroke-linejoin:round; stroke-width:2; stroke-opacity:0.1; fill:none" points="404.977,378.8 4752.76,378.8 "/>
<polyline clip-path="url(#clip992)" style="stroke:#000000; stroke-linecap:round; stroke-linejoin:round; stroke-width:2; stroke-opacity:0.1; fill:none" points="404.977,201.094 4752.76,201.094 "/>
<polyline clip-path="url(#clip990)" style="stroke:#000000; stroke-linecap:round; stroke-linejoin:round; stroke-width:4; stroke-opacity:1; fill:none" points="404.977,880.951 4752.76,880.951 "/>
<polyline clip-path="url(#clip990)" style="stroke:#000000; stroke-linecap:round; stroke-linejoin:round; stroke-width:4; stroke-opacity:1; fill:none" points="528.028,880.951 528.028,862.054 "/>
<polyline clip-path="url(#clip990)" style="stroke:#000000; stroke-linecap:round; stroke-linejoin:round; stroke-width:4; stroke-opacity:1; fill:none" points="1348.36,880.951 1348.36,862.054 "/>
<polyline clip-path="url(#clip990)" style="stroke:#000000; stroke-linecap:round; stroke-linejoin:round; stroke-width:4; stroke-opacity:1; fill:none" points="2168.7,880.951 2168.7,862.054 "/>
<polyline clip-path="url(#clip990)" style="stroke:#000000; stroke-linecap:round; stroke-linejoin:round; stroke-width:4; stroke-opacity:1; fill:none" points="2989.03,880.951 2989.03,862.054 "/>
<polyline clip-path="url(#clip990)" style="stroke:#000000; stroke-linecap:round; stroke-linejoin:round; stroke-width:4; stroke-opacity:1; fill:none" points="3809.37,880.951 3809.37,862.054 "/>
<polyline clip-path="url(#clip990)" style="stroke:#000000; stroke-linecap:round; stroke-linejoin:round; stroke-width:4; stroke-opacity:1; fill:none" points="4629.71,880.951 4629.71,862.054 "/>
<path clip-path="url(#clip990)" d="M528.028 942.789 Q520.806 942.789 517.148 949.918 Q513.537 957.002 513.537 971.261 Q513.537 985.474 517.148 992.603 Q520.806 999.687 528.028 999.687 Q535.296 999.687 538.907 992.603 Q542.565 985.474 542.565 971.261 Q542.565 957.002 538.907 949.918 Q535.296 942.789 528.028 942.789 M528.028 935.382 Q539.648 935.382 545.759 944.594 Q551.916 953.761 551.916 971.261 Q551.916 988.715 545.759 997.927 Q539.648 1007.09 528.028 1007.09 Q516.407 1007.09 510.25 997.927 Q504.139 988.715 504.139 971.261 Q504.139 953.761 510.25 944.594 Q516.407 935.382 528.028 935.382 Z" fill="#000000" fill-rule="nonzero" fill-opacity="1" /><path clip-path="url(#clip990)" d="M1337.67 997.881 L1370.31 997.881 L1370.31 1005.75 L1326.42 1005.75 L1326.42 997.881 Q1331.74 992.372 1340.91 983.113 Q1350.12 973.807 1352.48 971.122 Q1356.97 966.076 1358.73 962.604 Q1360.54 959.085 1360.54 955.705 Q1360.54 950.196 1356.65 946.724 Q1352.81 943.252 1346.6 943.252 Q1342.21 943.252 1337.3 944.78 Q1332.44 946.307 1326.88 949.409 L1326.88 939.965 Q1332.53 937.696 1337.44 936.539 Q1342.34 935.382 1346.42 935.382 Q1357.16 935.382 1363.55 940.752 Q1369.94 946.122 1369.94 955.104 Q1369.94 959.363 1368.32 963.205 Q1366.74 967.002 1362.53 972.187 Q1361.37 973.529 1355.17 979.965 Q1348.97 986.353 1337.67 997.881 Z" fill="#000000" fill-rule="nonzero" fill-opacity="1" /><path clip-path="url(#clip990)" d="M2174.72 944.78 L2151.11 981.678 L2174.72 981.678 L2174.72 944.78 M2172.26 936.631 L2184.02 936.631 L2184.02 981.678 L2193.88 981.678 L2193.88 989.455 L2184.02 989.455 L2184.02 1005.75 L2174.72 1005.75 L2174.72 989.455 L2143.51 989.455 L2143.51 980.428 L2172.26 936.631 Z" fill="#000000" fill-rule="nonzero" fill-opacity="1" /><path clip-path="url(#clip990)" d="M2989.84 967.465 Q2983.55 967.465 2979.84 971.77 Q2976.19 976.076 2976.19 983.576 Q2976.19 991.029 2979.84 995.381 Q2983.55 999.687 2989.84 999.687 Q2996.14 999.687 2999.8 995.381 Q3003.5 991.029 3003.5 983.576 Q3003.5 976.076 2999.8 971.77 Q2996.14 967.465 2989.84 967.465 M3008.41 938.159 L3008.41 946.678 Q3004.89 945.011 3001.28 944.131 Q2997.71 943.252 2994.2 943.252 Q2984.94 943.252 2980.03 949.502 Q2975.17 955.752 2974.47 968.391 Q2977.21 964.363 2981.33 962.233 Q2985.45 960.057 2990.4 960.057 Q3000.82 960.057 3006.84 966.4 Q3012.9 972.696 3012.9 983.576 Q3012.9 994.224 3006.6 1000.66 Q3000.31 1007.09 2989.84 1007.09 Q2977.85 1007.09 2971.51 997.927 Q2965.17 988.715 2965.17 971.261 Q2965.17 954.872 2972.95 945.15 Q2980.72 935.382 2993.83 935.382 Q2997.34 935.382 3000.91 936.076 Q3004.52 936.77 3008.41 938.159 Z" fill="#000000" fill-rule="nonzero" fill-opacity="1" /><path clip-path="url(#clip990)" d="M3809.37 972.928 Q3802.7 972.928 3798.86 976.492 Q3795.06 980.057 3795.06 986.307 Q3795.06 992.557 3798.86 996.122 Q3802.7 999.687 3809.37 999.687 Q3816.04 999.687 3819.88 996.122 Q3823.72 992.511 3823.72 986.307 Q3823.72 980.057 3819.88 976.492 Q3816.08 972.928 3809.37 972.928 M3800.02 968.946 Q3794 967.465 3790.62 963.344 Q3787.29 959.224 3787.29 953.298 Q3787.29 945.011 3793.17 940.196 Q3799.09 935.382 3809.37 935.382 Q3819.69 935.382 3825.57 940.196 Q3831.45 945.011 3831.45 953.298 Q3831.45 959.224 3828.07 963.344 Q3824.74 967.465 3818.77 968.946 Q3825.53 970.52 3829.28 975.104 Q3833.07 979.687 3833.07 986.307 Q3833.07 996.353 3826.92 1001.72 Q3820.81 1007.09 3809.37 1007.09 Q3797.93 1007.09 3791.78 1001.72 Q3785.67 996.353 3785.67 986.307 Q3785.67 979.687 3789.46 975.104 Q3793.26 970.52 3800.02 968.946 M3796.59 954.178 Q3796.59 959.548 3799.93 962.557 Q3803.31 965.567 3809.37 965.567 Q3815.39 965.567 3818.77 962.557 Q3822.19 959.548 3822.19 954.178 Q3822.19 948.807 3818.77 945.798 Q3815.39 942.789 3809.37 942.789 Q3803.31 942.789 3799.93 945.798 Q3796.59 948.807 3796.59 954.178 Z" fill="#000000" fill-rule="nonzero" fill-opacity="1" /><path clip-path="url(#clip990)" d="M4579.08 997.881 L4594.36 997.881 L4594.36 945.15 L4577.74 948.483 L4577.74 939.965 L4594.27 936.631 L4603.62 936.631 L4603.62 997.881 L4618.9 997.881 L4618.9 1005.75 L4579.08 1005.75 L4579.08 997.881 Z" fill="#000000" fill-rule="nonzero" fill-opacity="1" /><path clip-path="url(#clip990)" d="M4657.78 942.789 Q4650.56 942.789 4646.9 949.918 Q4643.29 957.002 4643.29 971.261 Q4643.29 985.474 4646.9 992.603 Q4650.56 999.687 4657.78 999.687 Q4665.05 999.687 4668.66 992.603 Q4672.32 985.474 4672.32 971.261 Q4672.32 957.002 4668.66 949.918 Q4665.05 942.789 4657.78 942.789 M4657.78 935.382 Q4669.4 935.382 4675.52 944.594 Q4681.67 953.761 4681.67 971.261 Q4681.67 988.715 4675.52 997.927 Q4669.4 1007.09 4657.78 1007.09 Q4646.16 1007.09 4640.01 997.927 Q4633.9 988.715 4633.9 971.261 Q4633.9 953.761 4640.01 944.594 Q4646.16 935.382 4657.78 935.382 Z" fill="#000000" fill-rule="nonzero" fill-opacity="1" /><path clip-path="url(#clip990)" d="M2296.11 1072.18 L2361.89 1072.18 L2361.89 1081.04 L2334.28 1081.04 L2334.28 1149.94 L2323.71 1149.94 L2323.71 1081.04 L2296.11 1081.04 L2296.11 1072.18 Z" fill="#000000" fill-rule="nonzero" fill-opacity="1" /><path clip-path="url(#clip990)" d="M2368.35 1091.61 L2377.93 1091.61 L2377.93 1149.94 L2368.35 1149.94 L2368.35 1091.61 M2368.35 1068.9 L2377.93 1068.9 L2377.93 1081.04 L2368.35 1081.04 L2368.35 1068.9 Z" fill="#000000" fill-rule="nonzero" fill-opacity="1" /><path clip-path="url(#clip990)" d="M2443.4 1102.81 Q2446.99 1096.35 2451.99 1093.28 Q2456.99 1090.2 2463.76 1090.2 Q2472.88 1090.2 2477.83 1096.61 Q2482.77 1102.96 2482.77 1114.74 L2482.77 1149.94 L2473.14 1149.94 L2473.14 1115.05 Q2473.14 1106.66 2470.17 1102.6 Q2467.2 1098.54 2461.11 1098.54 Q2453.66 1098.54 2449.34 1103.49 Q2445.01 1108.43 2445.01 1116.97 L2445.01 1149.94 L2435.38 1149.94 L2435.38 1115.05 Q2435.38 1106.61 2432.41 1102.6 Q2429.44 1098.54 2423.24 1098.54 Q2415.9 1098.54 2411.58 1103.54 Q2407.25 1108.49 2407.25 1116.97 L2407.25 1149.94 L2397.62 1149.94 L2397.62 1091.61 L2407.25 1091.61 L2407.25 1100.67 Q2410.53 1095.31 2415.12 1092.76 Q2419.7 1090.2 2426 1090.2 Q2432.36 1090.2 2436.78 1093.43 Q2441.26 1096.66 2443.4 1102.81 Z" fill="#000000" fill-rule="nonzero" fill-opacity="1" /><path clip-path="url(#clip990)" d="M2551.78 1118.38 L2551.78 1123.07 L2507.72 1123.07 Q2508.35 1132.96 2513.66 1138.17 Q2519.02 1143.33 2528.55 1143.33 Q2534.08 1143.33 2539.23 1141.97 Q2544.44 1140.62 2549.54 1137.91 L2549.54 1146.97 Q2544.39 1149.16 2538.97 1150.31 Q2533.55 1151.45 2527.98 1151.45 Q2514.02 1151.45 2505.85 1143.33 Q2497.72 1135.2 2497.72 1121.35 Q2497.72 1107.03 2505.43 1098.64 Q2513.19 1090.2 2526.31 1090.2 Q2538.09 1090.2 2544.91 1097.81 Q2551.78 1105.36 2551.78 1118.38 M2542.2 1115.57 Q2542.1 1107.7 2537.77 1103.02 Q2533.5 1098.33 2526.42 1098.33 Q2518.4 1098.33 2513.55 1102.86 Q2508.76 1107.39 2508.03 1115.62 L2542.2 1115.57 Z" fill="#000000" fill-rule="nonzero" fill-opacity="1" /><path clip-path="url(#clip990)" d="M2624.44 1069.01 Q2617.46 1080.99 2614.07 1092.7 Q2610.69 1104.42 2610.69 1116.45 Q2610.69 1128.49 2614.07 1140.31 Q2617.51 1152.08 2624.44 1164.01 L2616.11 1164.01 Q2608.29 1151.77 2604.39 1139.94 Q2600.53 1128.12 2600.53 1116.45 Q2600.53 1104.84 2604.39 1093.07 Q2608.24 1081.3 2616.11 1069.01 L2624.44 1069.01 Z" fill="#000000" fill-rule="nonzero" fill-opacity="1" /><path clip-path="url(#clip990)" d="M2681.42 1100.46 L2681.42 1068.9 L2691 1068.9 L2691 1149.94 L2681.42 1149.94 L2681.42 1141.19 Q2678.4 1146.4 2673.76 1148.95 Q2669.18 1151.45 2662.72 1151.45 Q2652.15 1151.45 2645.48 1143.02 Q2638.87 1134.58 2638.87 1120.83 Q2638.87 1107.08 2645.48 1098.64 Q2652.15 1090.2 2662.72 1090.2 Q2669.18 1090.2 2673.76 1092.76 Q2678.4 1095.26 2681.42 1100.46 M2648.76 1120.83 Q2648.76 1131.4 2653.08 1137.44 Q2657.46 1143.43 2665.06 1143.43 Q2672.67 1143.43 2677.04 1137.44 Q2681.42 1131.4 2681.42 1120.83 Q2681.42 1110.26 2677.04 1104.27 Q2672.67 1098.23 2665.06 1098.23 Q2657.46 1098.23 2653.08 1104.27 Q2648.76 1110.26 2648.76 1120.83 Z" fill="#000000" fill-rule="nonzero" fill-opacity="1" /><path clip-path="url(#clip990)" d="M2737.25 1120.62 Q2725.64 1120.62 2721.16 1123.28 Q2716.68 1125.93 2716.68 1132.34 Q2716.68 1137.44 2720.01 1140.46 Q2723.4 1143.43 2729.18 1143.43 Q2737.15 1143.43 2741.94 1137.81 Q2746.78 1132.13 2746.78 1122.76 L2746.78 1120.62 L2737.25 1120.62 M2756.37 1116.66 L2756.37 1149.94 L2746.78 1149.94 L2746.78 1141.09 Q2743.5 1146.4 2738.61 1148.95 Q2733.71 1151.45 2726.63 1151.45 Q2717.67 1151.45 2712.36 1146.45 Q2707.1 1141.4 2707.1 1132.96 Q2707.1 1123.12 2713.66 1118.12 Q2720.27 1113.12 2733.34 1113.12 L2746.78 1113.12 L2746.78 1112.18 Q2746.78 1105.57 2742.41 1101.98 Q2738.08 1098.33 2730.22 1098.33 Q2725.22 1098.33 2720.48 1099.53 Q2715.74 1100.73 2711.37 1103.12 L2711.37 1094.27 Q2716.63 1092.24 2721.57 1091.25 Q2726.52 1090.2 2731.21 1090.2 Q2743.87 1090.2 2750.12 1096.77 Q2756.37 1103.33 2756.37 1116.66 Z" fill="#000000" fill-rule="nonzero" fill-opacity="1" /><path clip-path="url(#clip990)" d="M2800.38 1155.36 Q2796.31 1165.78 2792.46 1168.95 Q2788.61 1172.13 2782.15 1172.13 L2774.49 1172.13 L2774.49 1164.11 L2780.12 1164.11 Q2784.07 1164.11 2786.26 1162.24 Q2788.45 1160.36 2791.11 1153.38 L2792.82 1149.01 L2769.23 1091.61 L2779.39 1091.61 L2797.62 1137.24 L2815.84 1091.61 L2826 1091.61 L2800.38 1155.36 Z" fill="#000000" fill-rule="nonzero" fill-opacity="1" /><path clip-path="url(#clip990)" d="M2837.72 1069.01 L2846.05 1069.01 Q2853.87 1081.3 2857.72 1093.07 Q2861.63 1104.84 2861.63 1116.45 Q2861.63 1128.12 2857.72 1139.94 Q2853.87 1151.77 2846.05 1164.01 L2837.72 1164.01 Q2844.65 1152.08 2848.03 1140.31 Q2851.47 1128.49 2851.47 1116.45 Q2851.47 1104.42 2848.03 1092.7 Q2844.65 1080.99 2837.72 1069.01 Z" fill="#000000" fill-rule="nonzero" fill-opacity="1" /><polyline clip-path="url(#clip990)" style="stroke:#000000; stroke-linecap:round; stroke-linejoin:round; stroke-width:4; stroke-opacity:1; fill:none" points="404.977,880.951 404.977,47.2441 "/>
<polyline clip-path="url(#clip990)" style="stroke:#000000; stroke-linecap:round; stroke-linejoin:round; stroke-width:4; stroke-opacity:1; fill:none" points="404.977,734.213 423.875,734.213 "/>
<polyline clip-path="url(#clip990)" style="stroke:#000000; stroke-linecap:round; stroke-linejoin:round; stroke-width:4; stroke-opacity:1; fill:none" points="404.977,556.507 423.875,556.507 "/>
<polyline clip-path="url(#clip990)" style="stroke:#000000; stroke-linecap:round; stroke-linejoin:round; stroke-width:4; stroke-opacity:1; fill:none" points="404.977,378.8 423.875,378.8 "/>
<polyline clip-path="url(#clip990)" style="stroke:#000000; stroke-linecap:round; stroke-linejoin:round; stroke-width:4; stroke-opacity:1; fill:none" points="404.977,201.094 423.875,201.094 "/>
<path clip-path="url(#clip990)" d="M151.219 735.116 L210.571 735.116 L210.571 742.986 L151.219 742.986 L151.219 735.116 Z" fill="#000000" fill-rule="nonzero" fill-opacity="1" /><path clip-path="url(#clip990)" d="M228.395 699.653 L272.839 699.653 L272.839 703.634 L247.746 768.773 L237.978 768.773 L261.589 707.523 L228.395 707.523 L228.395 699.653 Z" fill="#000000" fill-rule="nonzero" fill-opacity="1" /><path clip-path="url(#clip990)" d="M291.172 699.653 L327.885 699.653 L327.885 707.523 L299.737 707.523 L299.737 724.468 Q301.774 723.773 303.811 723.449 Q305.848 723.079 307.885 723.079 Q319.459 723.079 326.218 729.421 Q332.977 735.764 332.977 746.597 Q332.977 757.754 326.033 763.958 Q319.089 770.115 306.45 770.115 Q302.098 770.115 297.561 769.375 Q293.07 768.634 288.255 767.153 L288.255 757.754 Q292.422 760.023 296.866 761.134 Q301.311 762.245 306.265 762.245 Q314.274 762.245 318.95 758.032 Q323.626 753.819 323.626 746.597 Q323.626 739.375 318.95 735.162 Q314.274 730.949 306.265 730.949 Q302.515 730.949 298.765 731.782 Q295.061 732.616 291.172 734.375 L291.172 699.653 Z" fill="#000000" fill-rule="nonzero" fill-opacity="1" /><path clip-path="url(#clip990)" d="M149.228 557.409 L208.58 557.409 L208.58 565.28 L149.228 565.28 L149.228 557.409 Z" fill="#000000" fill-rule="nonzero" fill-opacity="1" /><path clip-path="url(#clip990)" d="M228.858 521.947 L265.57 521.947 L265.57 529.817 L237.422 529.817 L237.422 546.761 Q239.459 546.067 241.496 545.743 Q243.533 545.372 245.57 545.372 Q257.144 545.372 263.904 551.715 Q270.663 558.057 270.663 568.891 Q270.663 580.048 263.718 586.252 Q256.774 592.409 244.135 592.409 Q239.783 592.409 235.246 591.668 Q230.756 590.928 225.941 589.446 L225.941 580.048 Q230.108 582.317 234.552 583.428 Q238.996 584.539 243.95 584.539 Q251.959 584.539 256.635 580.326 Q261.311 576.113 261.311 568.891 Q261.311 561.669 256.635 557.456 Q251.959 553.243 243.95 553.243 Q240.2 553.243 236.45 554.076 Q232.746 554.909 228.858 556.669 L228.858 521.947 Z" fill="#000000" fill-rule="nonzero" fill-opacity="1" /><path clip-path="url(#clip990)" d="M309.089 528.104 Q301.866 528.104 298.209 535.233 Q294.598 542.317 294.598 556.576 Q294.598 570.789 298.209 577.918 Q301.866 585.002 309.089 585.002 Q316.357 585.002 319.968 577.918 Q323.626 570.789 323.626 556.576 Q323.626 542.317 319.968 535.233 Q316.357 528.104 309.089 528.104 M309.089 520.697 Q320.709 520.697 326.82 529.909 Q332.977 539.076 332.977 556.576 Q332.977 574.03 326.82 583.242 Q320.709 592.409 309.089 592.409 Q297.468 592.409 291.311 583.242 Q285.2 574.03 285.2 556.576 Q285.2 539.076 291.311 529.909 Q297.468 520.697 309.089 520.697 Z" fill="#000000" fill-rule="nonzero" fill-opacity="1" /><path clip-path="url(#clip990)" d="M151.219 379.703 L210.571 379.703 L210.571 387.573 L151.219 387.573 L151.219 379.703 Z" fill="#000000" fill-rule="nonzero" fill-opacity="1" /><path clip-path="url(#clip990)" d="M238.811 405.49 L271.45 405.49 L271.45 413.36 L227.561 413.36 L227.561 405.49 Q232.885 399.981 242.052 390.721 Q251.265 381.416 253.626 378.731 Q258.117 373.684 259.876 370.212 Q261.681 366.694 261.681 363.314 Q261.681 357.805 257.793 354.333 Q253.95 350.86 247.746 350.86 Q243.348 350.86 238.441 352.388 Q233.58 353.916 228.024 357.018 L228.024 347.573 Q233.672 345.305 238.58 344.148 Q243.487 342.99 247.561 342.99 Q258.302 342.99 264.691 348.36 Q271.08 353.731 271.08 362.712 Q271.08 366.971 269.459 370.814 Q267.885 374.61 263.672 379.795 Q262.515 381.138 256.311 387.573 Q250.107 393.962 238.811 405.49 Z" fill="#000000" fill-rule="nonzero" fill-opacity="1" /><path clip-path="url(#clip990)" d="M291.172 344.24 L327.885 344.24 L327.885 352.11 L299.737 352.11 L299.737 369.055 Q301.774 368.36 303.811 368.036 Q305.848 367.666 307.885 367.666 Q319.459 367.666 326.218 374.008 Q332.977 380.351 332.977 391.184 Q332.977 402.342 326.033 408.545 Q319.089 414.703 306.45 414.703 Q302.098 414.703 297.561 413.962 Q293.07 413.221 288.255 411.74 L288.255 402.342 Q292.422 404.61 296.866 405.721 Q301.311 406.832 306.265 406.832 Q314.274 406.832 318.95 402.619 Q323.626 398.406 323.626 391.184 Q323.626 383.962 318.95 379.749 Q314.274 375.536 306.265 375.536 Q302.515 375.536 298.765 376.37 Q295.061 377.203 291.172 378.962 L291.172 344.24 Z" fill="#000000" fill-rule="nonzero" fill-opacity="1" /><path clip-path="url(#clip990)" d="M309.089 172.691 Q301.866 172.691 298.209 179.821 Q294.598 186.904 294.598 201.163 Q294.598 215.376 298.209 222.506 Q301.866 229.589 309.089 229.589 Q316.357 229.589 319.968 222.506 Q323.626 215.376 323.626 201.163 Q323.626 186.904 319.968 179.821 Q316.357 172.691 309.089 172.691 M309.089 165.284 Q320.709 165.284 326.82 174.497 Q332.977 183.663 332.977 201.163 Q332.977 218.617 326.82 227.83 Q320.709 236.996 309.089 236.996 Q297.468 236.996 291.311 227.83 Q285.2 218.617 285.2 201.163 Q285.2 183.663 291.311 174.497 Q297.468 165.284 309.089 165.284 Z" fill="#000000" fill-rule="nonzero" fill-opacity="1" /><path clip-path="url(#clip992)" d="M528.028 221.236 L545.118 248.721 L562.208 278.581 L579.299 309.932 L596.389 339.933 L613.479 366.707 L630.57 385.495 L647.66 395.523 L664.75 383.09 L681.841 362.34 L698.931 356.116 L716.021 349.815 L733.112 345.207 L750.202 347.328 L767.292 355.206 L784.383 366.573 L801.473 376.463 L818.563 386.771 L835.654 396.824 L852.744 408.34 L869.834 420.379 L886.925 429.122 L904.015 426.694 L921.105 416.825 L938.195 418.752 L955.286 445.224 L972.376 474.226 L989.466 504.938 L1006.56 534.409 L1023.65 560.931 L1040.74 575.686 L1057.83 576.997 L1074.92 554.726 L1092.01 525.56 L1109.1 505.304 L1126.19 486.034 L1143.28 469.494 L1160.37 460.302 L1177.46 457.193 L1194.55 458.673 L1211.64 459.952 L1228.73 463.794 L1245.82 468.063 L1262.91 478.223 L1280 489.509 L1297.09 497.647 L1314.18 494.492 L1331.27 483.677 L1348.36 489.415 L1365.45 515.532 L1382.54 544.33 L1399.63 574.908 L1416.72 604.309 L1433.81 630.607 L1450.91 642.923 L1468 643.239 L1485.09 618.936 L1502.18 584.928 L1519.27 560.657 L1536.36 536.556 L1553.45 515.507 L1570.54 502.003 L1587.63 495.209 L1604.72 493.283 L1621.81 491.205 L1638.9 493.845 L1655.99 498.62 L1673.08 509.421 L1690.17 520.694 L1707.26 528.961 L1724.35 525.687 L1741.44 514.501 L1758.53 511.851 L1775.62 537.899 L1792.71 566.648 L1809.8 597.256 L1826.89 626.713 L1843.98 652.944 L1861.07 665.342 L1878.16 665.311 L1895.25 649.272 L1912.34 616.106 L1929.43 588.142 L1946.52 563.03 L1963.61 540.618 L1980.71 525.535 L1997.8 517.265 L2014.89 514.028 L2031.98 510.994 L2049.07 512.96 L2066.16 516.872 L2083.25 527.048 L2100.34 538.784 L2117.43 547.51 L2134.52 544.459 L2151.61 533.817 L2168.7 535.666 L2185.79 552.392 L2202.88 577.07 L2219.97 607.829 L2237.06 637.365 L2254.15 664.647 L2271.24 685.123 L2288.33 694.618 L2305.42 679.736 L2322.51 647.068 L2339.6 617.223 L2356.69 588.377 L2373.78 562.225 L2390.87 543.156 L2407.96 532.577 L2425.05 527.818 L2442.14 524.999 L2459.23 527.075 L2476.32 531.318 L2493.42 541.949 L2510.51 554.219 L2527.6 563.455 L2544.69 560.676 L2561.78 559.488 L2578.87 561.502 L2595.96 578.392 L2613.05 600.506 L2630.14 628.023 L2647.23 658.795 L2664.32 691.211 L2681.41 712.764 L2698.5 724.236 L2715.59 709.74 L2732.68 677.113 L2749.77 646.822 L2766.86 617.247 L2783.95 590.092 L2801.04 569.786 L2818.13 555.418 L2835.22 546.15 L2852.31 539.588 L2869.4 540.363 L2886.49 543.746 L2903.58 556.32 L2920.67 572.314 L2937.76 584.311 L2954.85 582.459 L2971.94 583.918 L2989.03 586.124 L3006.12 603.144 L3023.22 625.384 L3040.31 653.144 L3057.4 684.344 L3074.49 717.424 L3091.58 739.962 L3108.67 752.739 L3125.76 738.415 L3142.85 706.009 L3159.94 674.939 L3177.03 644.984 L3194.12 617.06 L3211.21 595.704 L3228.3 580.394 L3245.39 569.732 L3262.48 561.398 L3279.57 563.833 L3296.66 570.784 L3313.75 586.29 L3330.84 603.408 L3347.93 616.568 L3365.02 615.524 L3382.11 608.048 L3399.2 610.484 L3416.29 627.814 L3433.38 650.297 L3450.47 678.387 L3467.56 710.104 L3484.65 743.89 L3501.74 766.924 L3518.83 779.913 L3535.92 765.882 L3553.02 733.048 L3570.11 705.442 L3587.2 675.075 L3604.29 644.802 L3621.38 621.814 L3638.47 606.2 L3655.56 597.882 L3672.65 592.537 L3689.74 593.106 L3706.83 600.289 L3723.92 616.929 L3741.01 635.523 L3758.1 650.141 L3775.19 650.15 L3792.28 639.027 L3809.37 635.773 L3826.46 653.286 L3843.55 675.93 L3860.64 704.318 L3877.73 736.526 L3894.82 771.054 L3911.91 795.003 L3929 808.907 L3946.09 802.562 L3963.18 776.883 L3980.27 748.967 L3997.36 717.946 L4014.45 686.858 L4031.54 662.648 L4048.63 645.703 L4065.72 635.43 L4082.82 629.013 L4099.91 630.525 L4117 637.699 L4134.09 655.397 L4151.18 675.773 L4168.27 692.231 L4185.36 693.568 L4202.45 683.105 L4219.54 671.719 L4236.63 680.01 L4253.72 702.885 L4270.81 731.596 L4287.9 764.344 L4304.99 799.658 L4322.08 830.825 L4339.17 857.356 L4356.26 855.337 L4373.35 829.662 L4390.44 802.11 L4407.53 771.131 L4424.62 739.181 L4441.71 713.392 L4458.8 694.512 L4475.89 683.085 L4492.98 675.383 L4510.07 676.731 L4527.16 685.474 L4544.25 705.334 L4561.34 727.894 L4578.43 746.538 L4595.52 749.44 L4612.62 739.71 L4629.71 728.316 L4629.71 76.9675 L4612.62 77.885 L4595.52 81.4977 L4578.43 84.357 L4561.34 84.7049 L4544.25 85.2482 L4527.16 86.2545 L4510.07 89.2868 L4492.98 91.3231 L4475.89 92.499 L4458.8 89.9829 L4441.71 85.9922 L4424.62 82.1808 L4407.53 82.1909 L4390.44 88.6279 L4373.35 99.2908 L4356.26 116.97 L4339.17 130.566 L4322.08 133.487 L4304.99 130.154 L4287.9 119.584 L4270.81 107.29 L4253.72 94.617 L4236.63 83.8087 L4219.54 76.1981 L4202.45 77.1051 L4185.36 80.6743 L4168.27 83.472 L4151.18 83.7395 L4134.09 84.011 L4117 83.6482 L4099.91 85.8839 L4082.82 87.9872 L4065.72 89.6789 L4048.63 88.7346 L4031.54 84.626 L4014.45 81.0401 L3997.36 81.1801 L3980.27 86.0957 L3963.18 97.2617 L3946.09 115.06 L3929 128.683 L3911.91 131.611 L3894.82 128.378 L3877.73 117.917 L3860.64 105.726 L3843.55 93.162 L3826.46 82.477 L3809.37 75.0219 L3792.28 76.0596 L3775.19 79.7221 L3758.1 82.6743 L3741.01 83.0724 L3723.92 83.4517 L3706.83 82.2109 L3689.74 84.5858 L3672.65 86.8645 L3655.56 88.6883 L3638.47 87.7337 L3621.38 84.0442 L3604.29 80.4294 L3587.2 80.5094 L3570.11 84.781 L3553.02 95.6702 L3535.92 113.396 L3518.83 127.145 L3501.74 130.181 L3484.65 126.949 L3467.56 116.526 L3450.47 104.337 L3433.38 91.7634 L3416.29 81.0349 L3399.2 73.5761 L3382.11 74.607 L3365.02 78.3047 L3347.93 81.244 L3330.84 81.626 L3313.75 81.6624 L3296.66 80.4657 L3279.57 82.8657 L3262.48 85.1736 L3245.39 87.0743 L3228.3 86.3032 L3211.21 82.4749 L3194.12 78.669 L3177.03 78.5003 L3159.94 83.3574 L3142.85 94.4546 L3125.76 112.149 L3108.67 125.719 L3091.58 128.693 L3074.49 125.406 L3057.4 114.929 L3040.31 102.733 L3023.22 90.1318 L3006.12 79.4098 L2989.03 71.804 L2971.94 72.8322 L2954.85 76.5373 L2937.76 79.5246 L2920.67 79.9777 L2903.58 79.4985 L2886.49 78.1744 L2869.4 80.598 L2852.31 82.9673 L2835.22 84.8612 L2818.13 84.1173 L2801.04 80.9721 L2783.95 77.24 L2766.86 78.7078 L2749.77 83.3061 L2732.68 93.7551 L2715.59 111.499 L2698.5 125.016 L2681.41 127.953 L2664.32 124.708 L2647.23 114.281 L2630.14 102.132 L2613.05 89.5465 L2595.96 78.764 L2578.87 71.1597 L2561.78 72.2332 L2544.69 75.9483 L2527.6 78.8981 L2510.51 79.315 L2493.42 79.6848 L2476.32 78.7181 L2459.23 81.2421 L2442.14 83.6837 L2425.05 85.7027 L2407.96 84.4556 L2390.87 80.2062 L2373.78 76.4421 L2356.69 76.3274 L2339.6 80.6311 L2322.51 91.7096 L2305.42 109.544 L2288.33 123.334 L2271.24 126.499 L2254.15 123.48 L2237.06 113.213 L2219.97 101.223 L2202.88 88.7975 L2185.79 78.2558 L2168.7 70.8396 L2151.61 72.0219 L2134.52 75.8836 L2117.43 79.0481 L2100.34 79.7425 L2083.25 80.3984 L2066.16 81.4881 L2049.07 84.1471 L2031.98 86.5901 L2014.89 88.3359 L1997.8 85.5333 L1980.71 81.6139 L1963.61 78.08 L1946.52 78.3063 L1929.43 83.3707 L1912.34 94.7535 L1895.25 112.901 L1878.16 126.964 L1861.07 130.369 L1843.98 127.549 L1826.89 117.53 L1809.8 105.81 L1792.71 93.7096 L1775.62 83.5496 L1758.53 76.6479 L1741.44 78.1993 L1724.35 82.4332 L1707.26 86.0303 L1690.17 87.1693 L1673.08 88.2108 L1655.99 89.6581 L1638.9 93.0556 L1621.81 96.0154 L1604.72 97.8159 L1587.63 96.0934 L1570.54 92.0122 L1553.45 89.2674 L1536.36 89.9519 L1519.27 95.2049 L1502.18 107.031 L1485.09 125.652 L1468 140.155 L1450.91 143.866 L1433.81 141.403 L1416.72 131.728 L1399.63 120.33 L1382.54 108.573 L1365.45 98.7185 L1348.36 92.1429 L1331.27 94.1222 L1314.18 98.8065 L1297.09 102.874 L1280 104.508 L1262.91 106.361 L1245.82 107.072 L1228.73 111.046 L1211.64 113.78 L1194.55 116.112 L1177.46 115.972 L1160.37 115.114 L1143.28 113.175 L1126.19 114.936 L1109.1 120.724 L1092.01 132.926 L1074.92 151.965 L1057.83 166.943 L1040.74 171.247 L1023.65 169.284 L1006.56 160.152 L989.466 146.777 L972.376 132.354 L955.286 120.984 L938.195 115.491 L921.105 121.803 L904.015 131.927 L886.925 137.159 L869.834 138.417 L852.744 137.299 L835.654 137.989 L818.563 142.039 L801.473 145.905 L784.383 149.342 L767.292 150.377 L750.202 144.136 L733.112 141.39 L716.021 147.418 L698.931 161.084 L681.841 176.751 L664.75 199.173 L647.66 217.819 L630.57 225.913 L613.479 226.825 L596.389 220.785 L579.299 212.3 L562.208 199.594 L545.118 189.987 L528.028 186.002  Z" fill="#aeaeae" fill-rule="evenodd" fill-opacity="0.5"/>
<polyline clip-path="url(#clip992)" style="stroke:#aeaeae; stroke-linecap:round; stroke-linejoin:round; stroke-width:0; stroke-opacity:1; fill:none" points="528.028,198.63 545.118,203.047 562.208,209.432 579.299,216.863 596.389,223.971 613.479,229.974 630.57,231.515 647.66,229.157 664.75,220.469 681.841,209.299 698.931,202.038 716.021,197.638 733.112,195.856 750.202,196.939 767.292,199.53 784.383,202.369 801.473,203.74 818.563,204.302 835.654,203.703 852.744,203.774 869.834,203.815 886.925,203.597 904.015,201.502 921.105,198.693 938.195,197.476 955.286,201.656 972.376,207.935 989.466,215.339 1006.56,222.463 1023.65,228.525 1040.74,230.138 1057.83,227.816 1074.92,218.99 1092.01,207.677 1109.1,200.281 1126.19,195.834 1143.28,194.069 1160.37,195.164 1177.46,197.753 1194.55,200.503 1211.64,201.798 1228.73,202.309 1245.82,201.72 1262.91,201.886 1280,202.074 1297.09,201.995 1314.18,200.031 1331.27,197.328 1348.36,196.205 1365.45,200.477 1382.54,206.839 1399.63,214.328 1416.72,221.536 1433.81,227.682 1450.91,229.373 1468,227.116 1485.09,218.275 1502.18,206.929 1519.27,199.479 1536.36,195.006 1553.45,193.204 1570.54,194.283 1587.63,196.853 1604.72,199.598 1621.81,200.883 1638.9,201.399 1655.99,200.853 1673.08,201.092 1690.17,201.354 1707.26,201.35 1724.35,199.446 1741.44,196.799 1758.53,195.724 1775.62,200.043 1792.71,206.448 1809.8,213.987 1826.89,221.232 1843.98,227.424 1861.07,229.146 1878.16,226.906 1895.25,218.058 1912.34,206.695 1929.43,199.238 1946.52,194.763 1963.61,192.983 1980.71,194.074 1997.8,196.664 2014.89,199.428 2031.98,200.732 2049.07,201.262 2066.16,200.722 2083.25,200.995 2100.34,201.298 2117.43,201.338 2134.52,199.475 2151.61,196.865 2168.7,195.819 2185.79,200.167 2202.88,206.596 2219.97,214.16 2237.06,221.439 2254.15,227.663 2271.24,229.408 2288.33,227.223 2305.42,218.416 2322.51,207.048 2339.6,199.621 2356.69,195.16 2373.78,193.39 2390.87,194.48 2407.96,197.061 2425.05,199.814 2442.14,201.116 2459.23,201.661 2476.32,201.149 2493.42,201.433 2510.51,201.756 2527.6,201.818 2544.69,199.971 2561.78,197.375 2578.87,196.341 2595.96,200.703 2613.05,207.148 2630.14,214.721 2647.23,222.017 2664.32,228.261 2681.41,230.034 2698.5,227.864 2715.59,219.089 2732.68,207.756 2749.77,200.33 2766.86,195.857 2783.95,194.069 2801.04,195.148 2818.13,197.717 2835.22,200.466 2852.31,201.76 2869.4,202.268 2886.49,201.752 2903.58,202.043 2920.67,202.369 2937.76,202.437 2954.85,200.603 2971.94,198.01 2989.03,196.978 3006.12,201.346 3023.22,207.797 3040.31,215.38 3057.4,222.691 3074.49,228.947 3091.58,230.742 3108.67,228.554 3125.76,219.766 3142.85,208.426 3159.94,200.974 3177.03,196.517 3194.12,194.726 3211.21,195.8 3228.3,198.359 3245.39,201.084 3262.48,202.374 3279.57,202.891 3296.66,202.381 3313.75,202.682 3330.84,203.011 3347.93,203.086 3365.02,201.259 3382.11,198.674 3399.2,197.646 3416.29,202.014 3433.38,208.468 3450.47,216.051 3467.56,223.371 3484.65,229.634 3501.74,231.443 3518.83,229.284 3535.92,220.499 3553.02,209.166 3570.11,201.725 3587.2,197.25 3604.29,195.45 3621.38,196.51 3638.47,199.058 3655.56,201.785 3672.65,203.069 3689.74,203.594 3706.83,203.07 3723.92,203.365 3741.01,203.696 3758.1,203.779 3775.19,201.957 3792.28,199.374 3809.37,198.346 3826.46,202.715 3843.55,209.168 3860.64,216.759 3877.73,224.081 3894.82,230.352 3911.91,232.159 3929,230.016 3946.09,221.266 3963.18,209.938 3980.27,202.494 3997.36,197.993 4014.45,196.182 4031.54,197.23 4048.63,199.764 4065.72,202.469 4082.82,203.744 4099.91,204.26 4117,203.723 4134.09,204.011 4151.18,204.355 4168.27,204.44 4185.36,202.621 4202.45,200.04 4219.54,199.013 4236.63,203.387 4253.72,209.843 4270.81,217.431 4287.9,224.76 4304.99,231.045 4322.08,232.881 4339.17,230.761 4356.26,222.003 4373.35,210.658 4390.44,203.207 4407.53,198.719 4424.62,196.891 4441.71,197.925 4458.8,200.438 4475.89,203.14 4492.98,204.391 4510.07,204.882 4527.16,204.346 4544.25,204.642 4561.34,204.99 4578.43,205.079 4595.52,203.266 4612.62,200.686 4629.71,199.659 "/>
<path clip-path="url(#clip992)" d="M528.028 208.573 L545.118 220.961 L562.208 238.906 L579.299 261.552 L596.389 285.994 L613.479 308.61 L630.57 320.878 L647.66 323.946 L664.75 309.726 L681.841 284.733 L698.931 269.574 L716.021 258.478 L733.112 252.957 L750.202 254.218 L767.292 260.082 L784.383 268.567 L801.473 273.25 L818.563 279.716 L835.654 279.879 L852.744 284.099 L869.834 287.849 L886.925 290.903 L904.015 289.489 L921.105 287.708 L938.195 288.12 L955.286 302.336 L972.376 318.656 L989.466 339.218 L1006.56 363.804 L1023.65 383.801 L1040.74 392.195 L1057.83 392.058 L1074.92 373.197 L1092.01 343.403 L1109.1 328.279 L1126.19 310.796 L1143.28 300.304 L1160.37 300.462 L1177.46 301.968 L1194.55 304.012 L1211.64 301.985 L1228.73 301.528 L1245.82 301.272 L1262.91 305.528 L1280 311.799 L1297.09 314.329 L1314.18 314.895 L1331.27 313.161 L1348.36 309.912 L1365.45 321.315 L1382.54 340.255 L1399.63 362.513 L1416.72 386.151 L1433.81 406.184 L1450.91 415.429 L1468 417.106 L1485.09 395.556 L1502.18 368.886 L1519.27 344.094 L1536.36 324.339 L1553.45 314.226 L1570.54 311.17 L1587.63 311.737 L1604.72 312.065 L1621.81 310.965 L1638.9 310.028 L1655.99 308.532 L1673.08 311.459 L1690.17 317.323 L1707.26 321.02 L1724.35 322.438 L1741.44 319.879 L1758.53 316.453 L1775.62 327.61 L1792.71 345.792 L1809.8 368.338 L1826.89 390.457 L1843.98 411.825 L1861.07 421.939 L1878.16 423.685 L1895.25 403.783 L1912.34 375.1 L1929.43 350.809 L1946.52 328.256 L1963.61 318.427 L1980.71 313.492 L1997.8 313.948 L2014.89 315.182 L2031.98 314.713 L2049.07 312.715 L2066.16 311.168 L2083.25 314.397 L2100.34 319.892 L2117.43 325.034 L2134.52 324.924 L2151.61 323.098 L2168.7 322.406 L2185.79 330.717 L2202.88 348.723 L2219.97 371.411 L2237.06 394.891 L2254.15 415.466 L2271.24 424.087 L2288.33 424.969 L2305.42 407.426 L2322.51 381.518 L2339.6 354.539 L2356.69 331.575 L2373.78 319.749 L2390.87 315.26 L2407.96 314.408 L2425.05 316.595 L2442.14 316.091 L2459.23 313.903 L2476.32 312.017 L2493.42 316.511 L2510.51 322.045 L2527.6 326.469 L2544.69 326.03 L2561.78 325.028 L2578.87 327.688 L2595.96 336.635 L2613.05 350.843 L2630.14 374.056 L2647.23 398.032 L2664.32 417.465 L2681.41 426.743 L2698.5 427.702 L2715.59 409.887 L2732.68 383.374 L2749.77 355.777 L2766.86 333.077 L2783.95 320.51 L2801.04 315.64 L2818.13 315.31 L2835.22 318.224 L2852.31 317.891 L2869.4 316.623 L2886.49 315.465 L2903.58 319.229 L2920.67 324.355 L2937.76 329.442 L2954.85 327.923 L2971.94 327.282 L2989.03 330.102 L3006.12 343.317 L3023.22 355.924 L3040.31 377.031 L3057.4 400.885 L3074.49 419.584 L3091.58 426.656 L3108.67 429.248 L3125.76 413.364 L3142.85 385.339 L3159.94 357.214 L3177.03 336.586 L3194.12 321.188 L3211.21 316.391 L3228.3 316.993 L3245.39 318.914 L3262.48 320.166 L3279.57 318.631 L3296.66 315.415 L3313.75 320.299 L3330.84 325.41 L3347.93 329.915 L3365.02 328.599 L3382.11 327.907 L3399.2 330.897 L3416.29 345.515 L3433.38 360.612 L3450.47 379.228 L3467.56 401.101 L3484.65 419.766 L3501.74 428.678 L3518.83 430.665 L3535.92 415.34 L3553.02 386.779 L3570.11 359.01 L3587.2 338.531 L3604.29 322.995 L3621.38 318.975 L3638.47 319.737 L3655.56 320.772 L3672.65 320.775 L3689.74 319.558 L3706.83 316.829 L3723.92 321.733 L3741.01 326.559 L3758.1 330.449 L3775.19 329.625 L3792.28 329.883 L3809.37 331.933 L3826.46 344.98 L3843.55 362.226 L3860.64 381.111 L3877.73 401.452 L3894.82 422.066 L3911.91 430.352 L3929 431.594 L3946.09 416.173 L3963.18 385.981 L3980.27 360.239 L3997.36 340.147 L4014.45 324.907 L4031.54 318.994 L4048.63 320.442 L4065.72 322.638 L4082.82 322.124 L4099.91 320.734 L4117 317.928 L4134.09 322.018 L4151.18 327.593 L4168.27 330.946 L4185.36 330.449 L4202.45 331.086 L4219.54 333.675 L4236.63 344.106 L4253.72 361.331 L4270.81 383.684 L4287.9 401.27 L4304.99 423.741 L4322.08 431.279 L4339.17 431.984 L4356.26 415.836 L4373.35 387.429 L4390.44 361.514 L4407.53 340.851 L4424.62 325.276 L4441.71 319.777 L4458.8 320.762 L4475.89 322.557 L4492.98 323.227 L4510.07 321.645 L4527.16 319.744 L4544.25 323.134 L4561.34 327.926 L4578.43 332.953 L4595.52 330.417 L4612.62 330.89 L4629.71 333.875 L4629.71 116.602 L4612.62 119.408 L4595.52 124.84 L4578.43 126.276 L4561.34 124.571 L4544.25 124.81 L4527.16 125.628 L4510.07 127.456 L4492.98 129.065 L4475.89 130.206 L4458.8 128.829 L4441.71 123.899 L4424.62 120.519 L4407.53 121.176 L4390.44 125.894 L4373.35 137.252 L4356.26 156.409 L4339.17 171.68 L4322.08 175.556 L4304.99 172.694 L4287.9 161.507 L4270.81 148.739 L4253.72 133.771 L4236.63 122.638 L4219.54 114.796 L4202.45 117.874 L4185.36 122.615 L4168.27 124.537 L4151.18 121.571 L4134.09 122.229 L4117 122.17 L4099.91 124.354 L4082.82 126.524 L4065.72 127.75 L4048.63 126.043 L4031.54 119.893 L4014.45 117.669 L3997.36 119.144 L3980.27 123.987 L3963.18 135.091 L3946.09 153.4 L3929 168.79 L3911.91 173.425 L3894.82 170.288 L3877.73 159.033 L3860.64 147.24 L3843.55 132.013 L3826.46 120.739 L3809.37 113.517 L3792.28 116.714 L3775.19 120.55 L3758.1 122.564 L3741.01 120.017 L3723.92 120.012 L3706.83 120.096 L3689.74 121.597 L3672.65 124.129 L3655.56 124.817 L3638.47 123.387 L3621.38 118.27 L3604.29 116.267 L3587.2 117.339 L3570.11 121.826 L3553.02 131.821 L3535.92 151.628 L3518.83 167.646 L3501.74 171.562 L3484.65 169.801 L3467.56 157.933 L3450.47 145.012 L3433.38 130.882 L3416.29 119.19 L3399.2 111.243 L3382.11 114.628 L3365.02 118.525 L3347.93 120.386 L3330.84 118.5 L3313.75 117.597 L3296.66 117.078 L3279.57 119.317 L3262.48 121.71 L3245.39 122.858 L3228.3 120.544 L3211.21 116.529 L3194.12 113.53 L3177.03 115.639 L3159.94 120.759 L3142.85 130.908 L3125.76 149.934 L3108.67 165.728 L3091.58 169.229 L3074.49 166.313 L3057.4 156.172 L3040.31 142.595 L3023.22 128.856 L3006.12 117.422 L2989.03 110.182 L2971.94 112.853 L2954.85 116.887 L2937.76 118.306 L2920.67 116.73 L2903.58 117.122 L2886.49 116.816 L2869.4 118.228 L2852.31 120.43 L2835.22 120.602 L2818.13 119.261 L2801.04 114.956 L2783.95 112.201 L2766.86 114.106 L2749.77 119.155 L2732.68 129.734 L2715.59 149.069 L2698.5 163.662 L2681.41 167.482 L2664.32 165.307 L2647.23 154.168 L2630.14 141.43 L2613.05 127.742 L2595.96 116.4 L2578.87 108.971 L2561.78 111.203 L2544.69 115.06 L2527.6 116.892 L2510.51 115.458 L2493.42 115.915 L2476.32 113.743 L2459.23 115.981 L2442.14 118.126 L2425.05 119.189 L2407.96 118.091 L2390.87 113.305 L2373.78 111.3 L2356.69 113.529 L2339.6 118.416 L2322.51 128.596 L2305.42 147.181 L2288.33 162.272 L2271.24 166.289 L2254.15 164.167 L2237.06 153.082 L2219.97 140.893 L2202.88 128.195 L2185.79 116.826 L2168.7 108.822 L2151.61 110.61 L2134.52 114.826 L2117.43 117.325 L2100.34 115.539 L2083.25 114.604 L2066.16 114.175 L2049.07 116.758 L2031.98 119.121 L2014.89 120.317 L1997.8 118.238 L1980.71 115.119 L1963.61 111.988 L1946.52 113.974 L1929.43 119.183 L1912.34 130.062 L1895.25 149.194 L1878.16 164.472 L1861.07 168.41 L1843.98 165.91 L1826.89 156.477 L1809.8 143.793 L1792.71 130.696 L1775.62 118.738 L1758.53 111.534 L1741.44 114.249 L1724.35 118.721 L1707.26 121.4 L1690.17 119.714 L1673.08 119.479 L1655.99 118.745 L1638.9 121.589 L1621.81 123.939 L1604.72 125.521 L1587.63 124.315 L1570.54 120.991 L1553.45 117.829 L1536.36 119.499 L1519.27 125.427 L1502.18 136.743 L1485.09 155.723 L1468 171.443 L1450.91 175.114 L1433.81 173.73 L1416.72 163.633 L1399.63 150.097 L1382.54 137.407 L1365.45 125.818 L1348.36 118.455 L1331.27 122.296 L1314.18 127.618 L1297.09 131.937 L1280 132.573 L1262.91 131.774 L1245.82 132.435 L1228.73 135.519 L1211.64 138.266 L1194.55 140.491 L1177.46 137.784 L1160.37 133.243 L1143.28 130.379 L1126.19 132.932 L1109.1 140.042 L1092.01 152.505 L1074.92 172.572 L1057.83 188.813 L1040.74 193.639 L1023.65 191.598 L1006.56 181.497 L989.466 168.34 L972.376 154.393 L955.286 142.717 L938.195 136.311 L921.105 141.501 L904.015 148.627 L886.925 155.291 L869.834 157.051 L852.744 156.808 L835.654 157.5 L818.563 161.469 L801.473 165.719 L784.383 167.084 L767.292 164.081 L750.202 160.633 L733.112 159.181 L716.021 164.007 L698.931 173.861 L681.841 189.007 L664.75 210.325 L647.66 227.848 L630.57 234.755 L613.479 235.327 L596.389 228.065 L579.299 217.369 L562.208 204.674 L545.118 194.18 L528.028 188.924  Z" fill="#757575" fill-rule="evenodd" fill-opacity="0.5"/>
<polyline clip-path="url(#clip992)" style="stroke:#757575; stroke-linecap:round; stroke-linejoin:round; stroke-width:0; stroke-opacity:1; fill:none" points="528.028,198.63 545.118,203.047 562.208,209.432 579.299,216.863 596.389,223.971 613.479,229.974 630.57,231.515 647.66,229.157 664.75,220.469 681.841,209.299 698.931,202.038 716.021,197.638 733.112,195.856 750.202,196.939 767.292,199.53 784.383,202.369 801.473,203.74 818.563,204.302 835.654,203.703 852.744,203.774 869.834,203.815 886.925,203.597 904.015,201.502 921.105,198.693 938.195,197.476 955.286,201.656 972.376,207.935 989.466,215.339 1006.56,222.463 1023.65,228.525 1040.74,230.138 1057.83,227.816 1074.92,218.99 1092.01,207.677 1109.1,200.281 1126.19,195.834 1143.28,194.069 1160.37,195.164 1177.46,197.753 1194.55,200.503 1211.64,201.798 1228.73,202.309 1245.82,201.72 1262.91,201.886 1280,202.074 1297.09,201.995 1314.18,200.031 1331.27,197.328 1348.36,196.205 1365.45,200.477 1382.54,206.839 1399.63,214.328 1416.72,221.536 1433.81,227.682 1450.91,229.373 1468,227.116 1485.09,218.275 1502.18,206.929 1519.27,199.479 1536.36,195.006 1553.45,193.204 1570.54,194.283 1587.63,196.853 1604.72,199.598 1621.81,200.883 1638.9,201.399 1655.99,200.853 1673.08,201.092 1690.17,201.354 1707.26,201.35 1724.35,199.446 1741.44,196.799 1758.53,195.724 1775.62,200.043 1792.71,206.448 1809.8,213.987 1826.89,221.232 1843.98,227.424 1861.07,229.146 1878.16,226.906 1895.25,218.058 1912.34,206.695 1929.43,199.238 1946.52,194.763 1963.61,192.983 1980.71,194.074 1997.8,196.664 2014.89,199.428 2031.98,200.732 2049.07,201.262 2066.16,200.722 2083.25,200.995 2100.34,201.298 2117.43,201.338 2134.52,199.475 2151.61,196.865 2168.7,195.819 2185.79,200.167 2202.88,206.596 2219.97,214.16 2237.06,221.439 2254.15,227.663 2271.24,229.408 2288.33,227.223 2305.42,218.416 2322.51,207.048 2339.6,199.621 2356.69,195.16 2373.78,193.39 2390.87,194.48 2407.96,197.061 2425.05,199.814 2442.14,201.116 2459.23,201.661 2476.32,201.149 2493.42,201.433 2510.51,201.756 2527.6,201.818 2544.69,199.971 2561.78,197.375 2578.87,196.341 2595.96,200.703 2613.05,207.148 2630.14,214.721 2647.23,222.017 2664.32,228.261 2681.41,230.034 2698.5,227.864 2715.59,219.089 2732.68,207.756 2749.77,200.33 2766.86,195.857 2783.95,194.069 2801.04,195.148 2818.13,197.717 2835.22,200.466 2852.31,201.76 2869.4,202.268 2886.49,201.752 2903.58,202.043 2920.67,202.369 2937.76,202.437 2954.85,200.603 2971.94,198.01 2989.03,196.978 3006.12,201.346 3023.22,207.797 3040.31,215.38 3057.4,222.691 3074.49,228.947 3091.58,230.742 3108.67,228.554 3125.76,219.766 3142.85,208.426 3159.94,200.974 3177.03,196.517 3194.12,194.726 3211.21,195.8 3228.3,198.359 3245.39,201.084 3262.48,202.374 3279.57,202.891 3296.66,202.381 3313.75,202.682 3330.84,203.011 3347.93,203.086 3365.02,201.259 3382.11,198.674 3399.2,197.646 3416.29,202.014 3433.38,208.468 3450.47,216.051 3467.56,223.371 3484.65,229.634 3501.74,231.443 3518.83,229.284 3535.92,220.499 3553.02,209.166 3570.11,201.725 3587.2,197.25 3604.29,195.45 3621.38,196.51 3638.47,199.058 3655.56,201.785 3672.65,203.069 3689.74,203.594 3706.83,203.07 3723.92,203.365 3741.01,203.696 3758.1,203.779 3775.19,201.957 3792.28,199.374 3809.37,198.346 3826.46,202.715 3843.55,209.168 3860.64,216.759 3877.73,224.081 3894.82,230.352 3911.91,232.159 3929,230.016 3946.09,221.266 3963.18,209.938 3980.27,202.494 3997.36,197.993 4014.45,196.182 4031.54,197.23 4048.63,199.764 4065.72,202.469 4082.82,203.744 4099.91,204.26 4117,203.723 4134.09,204.011 4151.18,204.355 4168.27,204.44 4185.36,202.621 4202.45,200.04 4219.54,199.013 4236.63,203.387 4253.72,209.843 4270.81,217.431 4287.9,224.76 4304.99,231.045 4322.08,232.881 4339.17,230.761 4356.26,222.003 4373.35,210.658 4390.44,203.207 4407.53,198.719 4424.62,196.891 4441.71,197.925 4458.8,200.438 4475.89,203.14 4492.98,204.391 4510.07,204.882 4527.16,204.346 4544.25,204.642 4561.34,204.99 4578.43,205.079 4595.52,203.266 4612.62,200.686 4629.71,199.659 "/>
<path clip-path="url(#clip992)" d="M528.028 203.771 L545.118 214.83 L562.208 230.108 L579.299 250.417 L596.389 271.553 L613.479 291.226 L630.57 300.359 L647.66 299.313 L664.75 281.663 L681.841 256.741 L698.931 239.035 L716.021 228.572 L733.112 225.354 L750.202 229.18 L767.292 236.781 L784.383 243.98 L801.473 249.712 L818.563 252.472 L835.654 253.067 L852.744 256.385 L869.834 258.293 L886.925 260.745 L904.015 251.683 L921.105 248.18 L938.195 246.642 L955.286 257.789 L972.376 270.853 L989.466 287.945 L1006.56 305.413 L1023.65 324.42 L1040.74 332.999 L1057.83 335 L1074.92 316.16 L1092.01 285.741 L1109.1 264.302 L1126.19 253.5 L1143.28 246.816 L1160.37 247.629 L1177.46 252.578 L1194.55 257.759 L1211.64 262.614 L1228.73 265.677 L1245.82 265.622 L1262.91 266.751 L1280 269.386 L1297.09 268.425 L1314.18 259.803 L1331.27 255.818 L1348.36 256.312 L1365.45 265.657 L1382.54 279.752 L1399.63 295.541 L1416.72 313.927 L1433.81 331.896 L1450.91 340.158 L1468 342.043 L1485.09 322.462 L1502.18 290.322 L1519.27 272.129 L1536.36 258.821 L1553.45 252.655 L1570.54 252.982 L1587.63 256.881 L1604.72 263.464 L1621.81 264.872 L1638.9 268.751 L1655.99 268.054 L1673.08 268.879 L1690.17 271.935 L1707.26 270.594 L1724.35 262.09 L1741.44 259.408 L1758.53 258.647 L1775.62 268.544 L1792.71 281.074 L1809.8 296.643 L1826.89 316.292 L1843.98 334.603 L1861.07 341.619 L1878.16 342.082 L1895.25 322.911 L1912.34 293.031 L1929.43 273.632 L1946.52 260.337 L1963.61 254.679 L1980.71 255.563 L1997.8 258.306 L2014.89 264.178 L2031.98 265.277 L2049.07 268.81 L2066.16 269.042 L2083.25 270.133 L2100.34 272.646 L2117.43 272.32 L2134.52 263.857 L2151.61 260.943 L2168.7 261.006 L2185.79 270.051 L2202.88 283.204 L2219.97 298.423 L2237.06 317.472 L2254.15 336.503 L2271.24 342.838 L2288.33 342.104 L2305.42 323.771 L2322.51 292.831 L2339.6 274.151 L2356.69 261.862 L2373.78 256.256 L2390.87 255.914 L2407.96 260.361 L2425.05 265.106 L2442.14 266.673 L2459.23 270.388 L2476.32 269.964 L2493.42 270.086 L2510.51 273.294 L2527.6 272.778 L2544.69 266.945 L2561.78 263.982 L2578.87 263.894 L2595.96 273.78 L2613.05 284.681 L2630.14 299.599 L2647.23 317.205 L2664.32 335.793 L2681.41 343.948 L2698.5 341.803 L2715.59 322.935 L2732.68 292.997 L2749.77 275.08 L2766.86 262.782 L2783.95 257.633 L2801.04 257.514 L2818.13 262.633 L2835.22 266.727 L2852.31 268.863 L2869.4 271.245 L2886.49 270.888 L2903.58 271.391 L2920.67 273.975 L2937.76 273.803 L2954.85 268.932 L2971.94 263.979 L2989.03 264.228 L3006.12 273.423 L3023.22 286.723 L3040.31 301.395 L3057.4 318.229 L3074.49 336.707 L3091.58 344.844 L3108.67 342.389 L3125.76 323.02 L3142.85 294.802 L3159.94 275.985 L3177.03 264.375 L3194.12 259.787 L3211.21 259.819 L3228.3 263.516 L3245.39 267.782 L3262.48 271.047 L3279.57 272.525 L3296.66 271.805 L3313.75 272.856 L3330.84 276.026 L3347.93 275.657 L3365.02 269.83 L3382.11 266.012 L3399.2 265.287 L3416.29 274.469 L3433.38 288.626 L3450.47 302.261 L3467.56 319.085 L3484.65 336.823 L3501.74 344.45 L3518.83 344.43 L3535.92 323.9 L3553.02 295.944 L3570.11 277.115 L3587.2 265.743 L3604.29 261.085 L3621.38 260.945 L3638.47 264.828 L3655.56 269.055 L3672.65 271.673 L3689.74 273.286 L3706.83 273.02 L3723.92 274.094 L3741.01 277.24 L3758.1 277.309 L3775.19 271.543 L3792.28 265.347 L3809.37 265.344 L3826.46 275.736 L3843.55 290.252 L3860.64 302.394 L3877.73 321.253 L3894.82 337.836 L3911.91 345.362 L3929 343.983 L3946.09 324.401 L3963.18 297.986 L3980.27 277.939 L3997.36 268.174 L4014.45 262.754 L4031.54 262.205 L4048.63 266.336 L4065.72 270.733 L4082.82 272.536 L4099.91 275.32 L4117 274.146 L4134.09 274.408 L4151.18 277.798 L4168.27 277.911 L4185.36 273.108 L4202.45 265.662 L4219.54 266.025 L4236.63 276.234 L4253.72 290.025 L4270.81 305.014 L4287.9 322.087 L4304.99 339.763 L4322.08 347.263 L4339.17 344.683 L4356.26 325.705 L4373.35 299.009 L4390.44 278.699 L4407.53 270.229 L4424.62 263.631 L4441.71 262.747 L4458.8 268.09 L4475.89 272.599 L4492.98 274.194 L4510.07 275.252 L4527.16 273.952 L4544.25 276.514 L4561.34 279.675 L4578.43 279.752 L4595.52 274.041 L4612.62 266.6 L4629.71 266.687 L4629.71 127.581 L4612.62 129.437 L4595.52 136.779 L4578.43 140.536 L4561.34 141.104 L4544.25 142.723 L4527.16 143.827 L4510.07 148.179 L4492.98 149.582 L4475.89 148.327 L4458.8 142.455 L4441.71 135.901 L4424.62 131.472 L4407.53 132.172 L4390.44 137.481 L4373.35 148.542 L4356.26 167.606 L4339.17 182.958 L4322.08 187.194 L4304.99 184.748 L4287.9 172.243 L4270.81 159.009 L4253.72 145.713 L4236.63 134.39 L4219.54 125.421 L4202.45 127.572 L4185.36 134.557 L4168.27 138.893 L4151.18 139.702 L4134.09 141.433 L4117 143.422 L4099.91 146.547 L4082.82 148.145 L4065.72 147.12 L4048.63 141.292 L4031.54 134.405 L4014.45 129.975 L3997.36 130.013 L3980.27 135.379 L3963.18 146.266 L3946.09 165.754 L3929 179.999 L3911.91 184.472 L3894.82 181.74 L3877.73 171.501 L3860.64 158.342 L3843.55 143.771 L3826.46 132.243 L3809.37 123.971 L3792.28 126.373 L3775.19 133.316 L3758.1 137.374 L3741.01 138.211 L3723.92 139.938 L3706.83 141.184 L3689.74 143.545 L3672.65 146.337 L3655.56 145.648 L3638.47 139.307 L3621.38 132.324 L3604.29 127.981 L3587.2 128.31 L3570.11 133.383 L3553.02 144.653 L3535.92 163.9 L3518.83 179.29 L3501.74 183.903 L3484.65 179.795 L3467.56 169.964 L3450.47 156.113 L3433.38 141.936 L3416.29 130.217 L3399.2 122.303 L3382.11 124.907 L3365.02 131.013 L3347.93 135.945 L3330.84 136.142 L3313.75 138.133 L3296.66 139.634 L3279.57 141.91 L3262.48 144.669 L3245.39 144.413 L3228.3 138.406 L3211.21 131.697 L3194.12 126.426 L3177.03 127.29 L3159.94 131.782 L3142.85 142.941 L3125.76 162.361 L3108.67 177.898 L3091.58 182.993 L3074.49 179.585 L3057.4 169.031 L3040.31 155.03 L3023.22 140.116 L3006.12 128.621 L2989.03 120.348 L2971.94 123.129 L2954.85 130.574 L2937.76 134.36 L2920.67 135.939 L2903.58 136.869 L2886.49 137.125 L2869.4 140.326 L2852.31 144.009 L2835.22 142.081 L2818.13 137.138 L2801.04 129.912 L2783.95 125.391 L2766.86 125.931 L2749.77 130.5 L2732.68 141.958 L2715.59 161.443 L2698.5 177.12 L2681.41 181.103 L2664.32 178.392 L2647.23 167.798 L2630.14 153.439 L2613.05 138.991 L2595.96 127.907 L2578.87 119.682 L2561.78 121.784 L2544.69 129.379 L2527.6 133.81 L2510.51 133.95 L2493.42 135.563 L2476.32 136.321 L2459.23 139.557 L2442.14 141.29 L2425.05 141.202 L2407.96 134.691 L2390.87 128.836 L2373.78 123.922 L2356.69 124.878 L2339.6 129.759 L2322.51 140.702 L2305.42 160.36 L2288.33 176.271 L2271.24 180.074 L2254.15 177.537 L2237.06 166.796 L2219.97 153.157 L2202.88 138.401 L2185.79 127.294 L2168.7 119.446 L2151.61 122 L2134.52 129.489 L2117.43 133.286 L2100.34 133.705 L2083.25 134.783 L2066.16 135.066 L2049.07 138.976 L2031.98 142.087 L2014.89 140.899 L1997.8 135.083 L1980.71 128.94 L1963.61 124.523 L1946.52 125.651 L1929.43 129.728 L1912.34 141.787 L1895.25 161.332 L1878.16 177.216 L1861.07 181.227 L1843.98 178.778 L1826.89 167.208 L1809.8 154.415 L1792.71 140.888 L1775.62 129.263 L1758.53 121.502 L1741.44 124.3 L1724.35 130.95 L1707.26 135.441 L1690.17 136.511 L1673.08 136.771 L1655.99 138.642 L1638.9 142.554 L1621.81 144.945 L1604.72 143.928 L1587.63 138.194 L1570.54 132.109 L1553.45 128.607 L1536.36 129.988 L1519.27 135.292 L1502.18 146.563 L1485.09 166.197 L1468 182.126 L1450.91 186.431 L1433.81 184.645 L1416.72 173.563 L1399.63 160.954 L1382.54 147.648 L1365.45 135.485 L1348.36 128.469 L1331.27 131.613 L1314.18 137.538 L1297.09 142.75 L1280 143.991 L1262.91 144.937 L1245.82 147.438 L1228.73 151.481 L1211.64 153.803 L1194.55 152.805 L1177.46 147.658 L1160.37 142.183 L1143.28 139.053 L1126.19 140.008 L1109.1 147.082 L1092.01 159.469 L1074.92 179.669 L1057.83 195.968 L1040.74 201.239 L1023.65 200.245 L1006.56 190.03 L989.466 176.412 L972.376 162.7 L955.286 151.162 L938.195 144.632 L921.105 148.562 L904.015 156.066 L886.925 161.642 L869.834 164.291 L852.744 166.585 L835.654 168.486 L818.563 172.984 L801.473 174.216 L784.383 172.987 L767.292 168.77 L750.202 165.348 L733.112 164.325 L716.021 168.877 L698.931 177.848 L681.841 191.934 L664.75 213.31 L647.66 230.681 L630.57 237.567 L613.479 237.906 L596.389 229.681 L579.299 219.5 L562.208 206.73 L545.118 195.91 L528.028 190.05  Z" fill="#414141" fill-rule="evenodd" fill-opacity="0.5"/>
<polyline clip-path="url(#clip992)" style="stroke:#414141; stroke-linecap:round; stroke-linejoin:round; stroke-width:0; stroke-opacity:1; fill:none" points="528.028,198.63 545.118,203.047 562.208,209.432 579.299,216.863 596.389,223.971 613.479,229.974 630.57,231.515 647.66,229.157 664.75,220.469 681.841,209.299 698.931,202.038 716.021,197.638 733.112,195.856 750.202,196.939 767.292,199.53 784.383,202.369 801.473,203.74 818.563,204.302 835.654,203.703 852.744,203.774 869.834,203.815 886.925,203.597 904.015,201.502 921.105,198.693 938.195,197.476 955.286,201.656 972.376,207.935 989.466,215.339 1006.56,222.463 1023.65,228.525 1040.74,230.138 1057.83,227.816 1074.92,218.99 1092.01,207.677 1109.1,200.281 1126.19,195.834 1143.28,194.069 1160.37,195.164 1177.46,197.753 1194.55,200.503 1211.64,201.798 1228.73,202.309 1245.82,201.72 1262.91,201.886 1280,202.074 1297.09,201.995 1314.18,200.031 1331.27,197.328 1348.36,196.205 1365.45,200.477 1382.54,206.839 1399.63,214.328 1416.72,221.536 1433.81,227.682 1450.91,229.373 1468,227.116 1485.09,218.275 1502.18,206.929 1519.27,199.479 1536.36,195.006 1553.45,193.204 1570.54,194.283 1587.63,196.853 1604.72,199.598 1621.81,200.883 1638.9,201.399 1655.99,200.853 1673.08,201.092 1690.17,201.354 1707.26,201.35 1724.35,199.446 1741.44,196.799 1758.53,195.724 1775.62,200.043 1792.71,206.448 1809.8,213.987 1826.89,221.232 1843.98,227.424 1861.07,229.146 1878.16,226.906 1895.25,218.058 1912.34,206.695 1929.43,199.238 1946.52,194.763 1963.61,192.983 1980.71,194.074 1997.8,196.664 2014.89,199.428 2031.98,200.732 2049.07,201.262 2066.16,200.722 2083.25,200.995 2100.34,201.298 2117.43,201.338 2134.52,199.475 2151.61,196.865 2168.7,195.819 2185.79,200.167 2202.88,206.596 2219.97,214.16 2237.06,221.439 2254.15,227.663 2271.24,229.408 2288.33,227.223 2305.42,218.416 2322.51,207.048 2339.6,199.621 2356.69,195.16 2373.78,193.39 2390.87,194.48 2407.96,197.061 2425.05,199.814 2442.14,201.116 2459.23,201.661 2476.32,201.149 2493.42,201.433 2510.51,201.756 2527.6,201.818 2544.69,199.971 2561.78,197.375 2578.87,196.341 2595.96,200.703 2613.05,207.148 2630.14,214.721 2647.23,222.017 2664.32,228.261 2681.41,230.034 2698.5,227.864 2715.59,219.089 2732.68,207.756 2749.77,200.33 2766.86,195.857 2783.95,194.069 2801.04,195.148 2818.13,197.717 2835.22,200.466 2852.31,201.76 2869.4,202.268 2886.49,201.752 2903.58,202.043 2920.67,202.369 2937.76,202.437 2954.85,200.603 2971.94,198.01 2989.03,196.978 3006.12,201.346 3023.22,207.797 3040.31,215.38 3057.4,222.691 3074.49,228.947 3091.58,230.742 3108.67,228.554 3125.76,219.766 3142.85,208.426 3159.94,200.974 3177.03,196.517 3194.12,194.726 3211.21,195.8 3228.3,198.359 3245.39,201.084 3262.48,202.374 3279.57,202.891 3296.66,202.381 3313.75,202.682 3330.84,203.011 3347.93,203.086 3365.02,201.259 3382.11,198.674 3399.2,197.646 3416.29,202.014 3433.38,208.468 3450.47,216.051 3467.56,223.371 3484.65,229.634 3501.74,231.443 3518.83,229.284 3535.92,220.499 3553.02,209.166 3570.11,201.725 3587.2,197.25 3604.29,195.45 3621.38,196.51 3638.47,199.058 3655.56,201.785 3672.65,203.069 3689.74,203.594 3706.83,203.07 3723.92,203.365 3741.01,203.696 3758.1,203.779 3775.19,201.957 3792.28,199.374 3809.37,198.346 3826.46,202.715 3843.55,209.168 3860.64,216.759 3877.73,224.081 3894.82,230.352 3911.91,232.159 3929,230.016 3946.09,221.266 3963.18,209.938 3980.27,202.494 3997.36,197.993 4014.45,196.182 4031.54,197.23 4048.63,199.764 4065.72,202.469 4082.82,203.744 4099.91,204.26 4117,203.723 4134.09,204.011 4151.18,204.355 4168.27,204.44 4185.36,202.621 4202.45,200.04 4219.54,199.013 4236.63,203.387 4253.72,209.843 4270.81,217.431 4287.9,224.76 4304.99,231.045 4322.08,232.881 4339.17,230.761 4356.26,222.003 4373.35,210.658 4390.44,203.207 4407.53,198.719 4424.62,196.891 4441.71,197.925 4458.8,200.438 4475.89,203.14 4492.98,204.391 4510.07,204.882 4527.16,204.346 4544.25,204.642 4561.34,204.99 4578.43,205.079 4595.52,203.266 4612.62,200.686 4629.71,199.659 "/>
<path clip-path="url(#clip990)" d="M3853.78 853.161 L4607.83 853.161 L4607.83 334.761 L3853.78 334.761  Z" fill="#ffffff" fill-rule="evenodd" fill-opacity="1"/>
<polyline clip-path="url(#clip990)" style="stroke:#000000; stroke-linecap:round; stroke-linejoin:round; stroke-width:4; stroke-opacity:1; fill:none" points="3853.78,853.161 4607.83,853.161 4607.83,334.761 3853.78,334.761 3853.78,853.161 "/>
<polyline clip-path="url(#clip990)" style="stroke:#aeaeae; stroke-linecap:round; stroke-linejoin:round; stroke-width:2; stroke-opacity:1; fill:none" points="3902.09,464.361 4191.94,464.361 "/>
<path clip-path="url(#clip990)" d="M4241.93 497.723 L4261.03 497.723 L4261.03 431.809 L4240.25 435.976 L4240.25 425.328 L4260.91 421.161 L4272.6 421.161 L4272.6 497.723 L4291.7 497.723 L4291.7 507.561 L4241.93 507.561 L4241.93 497.723 Z" fill="#000000" fill-rule="nonzero" fill-opacity="1" /><path clip-path="url(#clip990)" d="M4340.31 428.858 Q4331.28 428.858 4326.71 437.77 Q4322.2 446.624 4322.2 464.448 Q4322.2 482.214 4326.71 491.126 Q4331.28 499.98 4340.31 499.98 Q4349.4 499.98 4353.91 491.126 Q4358.48 482.214 4358.48 464.448 Q4358.48 446.624 4353.91 437.77 Q4349.4 428.858 4340.31 428.858 M4340.31 419.599 Q4354.83 419.599 4362.47 431.115 Q4370.17 442.573 4370.17 464.448 Q4370.17 486.265 4362.47 497.781 Q4354.83 509.239 4340.31 509.239 Q4325.78 509.239 4318.09 497.781 Q4310.45 486.265 4310.45 464.448 Q4310.45 442.573 4318.09 431.115 Q4325.78 419.599 4340.31 419.599 Z" fill="#000000" fill-rule="nonzero" fill-opacity="1" /><path clip-path="url(#clip990)" d="M4415.71 428.858 Q4406.69 428.858 4402.11 437.77 Q4397.6 446.624 4397.6 464.448 Q4397.6 482.214 4402.11 491.126 Q4406.69 499.98 4415.71 499.98 Q4424.8 499.98 4429.31 491.126 Q4433.89 482.214 4433.89 464.448 Q4433.89 446.624 4429.31 437.77 Q4424.8 428.858 4415.71 428.858 M4415.71 419.599 Q4430.24 419.599 4437.88 431.115 Q4445.58 442.573 4445.58 464.448 Q4445.58 486.265 4437.88 497.781 Q4430.24 509.239 4415.71 509.239 Q4401.19 509.239 4393.49 497.781 Q4385.85 486.265 4385.85 464.448 Q4385.85 442.573 4393.49 431.115 Q4401.19 419.599 4415.71 419.599 Z" fill="#000000" fill-rule="nonzero" fill-opacity="1" /><path clip-path="url(#clip990)" d="M4539.61 469.541 Q4534.58 469.541 4531.69 473.823 Q4528.85 478.105 4528.85 485.744 Q4528.85 493.267 4531.69 497.608 Q4534.58 501.89 4539.61 501.89 Q4544.53 501.89 4547.37 497.608 Q4550.26 493.267 4550.26 485.744 Q4550.26 478.163 4547.37 473.881 Q4544.53 469.541 4539.61 469.541 M4539.61 462.191 Q4548.76 462.191 4554.14 468.557 Q4559.52 474.923 4559.52 485.744 Q4559.52 496.566 4554.08 502.932 Q4548.7 509.239 4539.61 509.239 Q4530.35 509.239 4524.97 502.932 Q4519.59 496.566 4519.59 485.744 Q4519.59 474.865 4524.97 468.557 Q4530.41 462.191 4539.61 462.191 M4479.89 426.948 Q4474.92 426.948 4472.02 431.289 Q4469.19 435.571 4469.19 443.094 Q4469.19 450.733 4472.02 455.015 Q4474.86 459.298 4479.89 459.298 Q4484.93 459.298 4487.76 455.015 Q4490.66 450.733 4490.66 443.094 Q4490.66 435.629 4487.76 431.289 Q4484.87 426.948 4479.89 426.948 M4532.15 419.599 L4541.41 419.599 L4487.36 509.239 L4478.1 509.239 L4532.15 419.599 M4479.89 419.599 Q4489.04 419.599 4494.48 425.964 Q4499.92 432.272 4499.92 443.094 Q4499.92 454.031 4494.48 460.339 Q4489.09 466.647 4479.89 466.647 Q4470.69 466.647 4465.31 460.339 Q4459.98 453.974 4459.98 443.094 Q4459.98 432.33 4465.37 425.964 Q4470.75 419.599 4479.89 419.599 Z" fill="#000000" fill-rule="nonzero" fill-opacity="1" /><polyline clip-path="url(#clip990)" style="stroke:#757575; stroke-linecap:round; stroke-linejoin:round; stroke-width:2; stroke-opacity:1; fill:none" points="3902.09,593.961 4191.94,593.961 "/>
<path clip-path="url(#clip990)" d="M4245.81 635.367 L4245.81 624.719 Q4250.21 626.803 4254.72 627.902 Q4259.23 629.002 4263.57 629.002 Q4275.15 629.002 4281.22 621.247 Q4287.36 613.435 4288.23 597.578 Q4284.87 602.555 4279.72 605.217 Q4274.57 607.879 4268.32 607.879 Q4255.36 607.879 4247.78 600.067 Q4240.25 592.196 4240.25 578.597 Q4240.25 565.287 4248.12 557.243 Q4255.99 549.199 4269.07 549.199 Q4284.06 549.199 4291.93 560.715 Q4299.86 572.173 4299.86 594.048 Q4299.86 614.476 4290.14 626.687 Q4280.47 638.839 4264.09 638.839 Q4259.7 638.839 4255.18 637.971 Q4250.67 637.103 4245.81 635.367 M4269.07 598.736 Q4276.94 598.736 4281.51 593.354 Q4286.14 587.972 4286.14 578.597 Q4286.14 569.28 4281.51 563.898 Q4276.94 558.458 4269.07 558.458 Q4261.2 558.458 4256.57 563.898 Q4252 569.28 4252 578.597 Q4252 587.972 4256.57 593.354 Q4261.2 598.736 4269.07 598.736 Z" fill="#000000" fill-rule="nonzero" fill-opacity="1" /><path clip-path="url(#clip990)" d="M4345.87 558.458 Q4336.84 558.458 4332.27 567.37 Q4327.75 576.224 4327.75 594.048 Q4327.75 611.814 4332.27 620.726 Q4336.84 629.58 4345.87 629.58 Q4354.95 629.58 4359.46 620.726 Q4364.04 611.814 4364.04 594.048 Q4364.04 576.224 4359.46 567.37 Q4354.95 558.458 4345.87 558.458 M4345.87 549.199 Q4360.39 549.199 4368.03 560.715 Q4375.73 572.173 4375.73 594.048 Q4375.73 615.865 4368.03 627.381 Q4360.39 638.839 4345.87 638.839 Q4331.34 638.839 4323.64 627.381 Q4316 615.865 4316 594.048 Q4316 572.173 4323.64 560.715 Q4331.34 549.199 4345.87 549.199 Z" fill="#000000" fill-rule="nonzero" fill-opacity="1" /><path clip-path="url(#clip990)" d="M4469.76 599.141 Q4464.73 599.141 4461.84 603.423 Q4459 607.705 4459 615.344 Q4459 622.867 4461.84 627.208 Q4464.73 631.49 4469.76 631.49 Q4474.68 631.49 4477.52 627.208 Q4480.41 622.867 4480.41 615.344 Q4480.41 607.763 4477.52 603.481 Q4474.68 599.141 4469.76 599.141 M4469.76 591.791 Q4478.91 591.791 4484.29 598.157 Q4489.67 604.523 4489.67 615.344 Q4489.67 626.166 4484.23 632.532 Q4478.85 638.839 4469.76 638.839 Q4460.51 638.839 4455.12 632.532 Q4449.74 626.166 4449.74 615.344 Q4449.74 604.465 4455.12 598.157 Q4460.56 591.791 4469.76 591.791 M4410.04 556.548 Q4405.07 556.548 4402.17 560.889 Q4399.34 565.171 4399.34 572.694 Q4399.34 580.333 4402.17 584.615 Q4405.01 588.898 4410.04 588.898 Q4415.08 588.898 4417.91 584.615 Q4420.81 580.333 4420.81 572.694 Q4420.81 565.229 4417.91 560.889 Q4415.02 556.548 4410.04 556.548 M4462.3 549.199 L4471.56 549.199 L4417.51 638.839 L4408.25 638.839 L4462.3 549.199 M4410.04 549.199 Q4419.19 549.199 4424.63 555.564 Q4430.07 561.872 4430.07 572.694 Q4430.07 583.631 4424.63 589.939 Q4419.24 596.247 4410.04 596.247 Q4400.84 596.247 4395.46 589.939 Q4390.14 583.574 4390.14 572.694 Q4390.14 561.93 4395.52 555.564 Q4400.9 549.199 4410.04 549.199 Z" fill="#000000" fill-rule="nonzero" fill-opacity="1" /><polyline clip-path="url(#clip990)" style="stroke:#414141; stroke-linecap:round; stroke-linejoin:round; stroke-width:2; stroke-opacity:1; fill:none" points="3902.09,723.561 4191.94,723.561 "/>
<path clip-path="url(#clip990)" d="M4269.88 725.731 Q4261.55 725.731 4256.75 730.187 Q4252 734.643 4252 742.456 Q4252 750.268 4256.75 754.724 Q4261.55 759.18 4269.88 759.18 Q4278.21 759.18 4283.02 754.724 Q4287.82 750.21 4287.82 742.456 Q4287.82 734.643 4283.02 730.187 Q4278.27 725.731 4269.88 725.731 M4258.19 720.755 Q4250.67 718.903 4246.44 713.752 Q4242.28 708.602 4242.28 701.194 Q4242.28 690.836 4249.63 684.817 Q4257.03 678.799 4269.88 678.799 Q4282.79 678.799 4290.14 684.817 Q4297.49 690.836 4297.49 701.194 Q4297.49 708.602 4293.26 713.752 Q4289.09 718.903 4281.63 720.755 Q4290.08 722.722 4294.77 728.451 Q4299.51 734.18 4299.51 742.456 Q4299.51 755.014 4291.81 761.727 Q4284.18 768.439 4269.88 768.439 Q4255.59 768.439 4247.89 761.727 Q4240.25 755.014 4240.25 742.456 Q4240.25 734.18 4245 728.451 Q4249.74 722.722 4258.19 720.755 M4253.91 702.294 Q4253.91 709.007 4258.08 712.768 Q4262.3 716.53 4269.88 716.53 Q4277.4 716.53 4281.63 712.768 Q4285.91 709.007 4285.91 702.294 Q4285.91 695.581 4281.63 691.82 Q4277.4 688.058 4269.88 688.058 Q4262.3 688.058 4258.08 691.82 Q4253.91 695.581 4253.91 702.294 Z" fill="#000000" fill-rule="nonzero" fill-opacity="1" /><path clip-path="url(#clip990)" d="M4345.29 688.058 Q4336.26 688.058 4331.69 696.97 Q4327.17 705.824 4327.17 723.648 Q4327.17 741.414 4331.69 750.326 Q4336.26 759.18 4345.29 759.18 Q4354.37 759.18 4358.89 750.326 Q4363.46 741.414 4363.46 723.648 Q4363.46 705.824 4358.89 696.97 Q4354.37 688.058 4345.29 688.058 M4345.29 678.799 Q4359.81 678.799 4367.45 690.315 Q4375.15 701.773 4375.15 723.648 Q4375.15 745.465 4367.45 756.981 Q4359.81 768.439 4345.29 768.439 Q4330.76 768.439 4323.06 756.981 Q4315.43 745.465 4315.43 723.648 Q4315.43 701.773 4323.06 690.315 Q4330.76 678.799 4345.29 678.799 Z" fill="#000000" fill-rule="nonzero" fill-opacity="1" /><path clip-path="url(#clip990)" d="M4469.19 728.741 Q4464.15 728.741 4461.26 733.023 Q4458.42 737.305 4458.42 744.944 Q4458.42 752.467 4461.26 756.808 Q4464.15 761.09 4469.19 761.09 Q4474.11 761.09 4476.94 756.808 Q4479.83 752.467 4479.83 744.944 Q4479.83 737.363 4476.94 733.081 Q4474.11 728.741 4469.19 728.741 M4469.19 721.391 Q4478.33 721.391 4483.71 727.757 Q4489.09 734.123 4489.09 744.944 Q4489.09 755.766 4483.65 762.132 Q4478.27 768.439 4469.19 768.439 Q4459.93 768.439 4454.55 762.132 Q4449.16 755.766 4449.16 744.944 Q4449.16 734.065 4454.55 727.757 Q4459.98 721.391 4469.19 721.391 M4409.46 686.148 Q4404.49 686.148 4401.59 690.489 Q4398.76 694.771 4398.76 702.294 Q4398.76 709.933 4401.59 714.215 Q4404.43 718.498 4409.46 718.498 Q4414.5 718.498 4417.33 714.215 Q4420.23 709.933 4420.23 702.294 Q4420.23 694.829 4417.33 690.489 Q4414.44 686.148 4409.46 686.148 M4461.72 678.799 L4470.98 678.799 L4416.93 768.439 L4407.67 768.439 L4461.72 678.799 M4409.46 678.799 Q4418.61 678.799 4424.05 685.164 Q4429.49 691.472 4429.49 702.294 Q4429.49 713.231 4424.05 719.539 Q4418.67 725.847 4409.46 725.847 Q4400.26 725.847 4394.88 719.539 Q4389.56 713.174 4389.56 702.294 Q4389.56 691.53 4394.94 685.164 Q4400.32 678.799 4409.46 678.799 Z" fill="#000000" fill-rule="nonzero" fill-opacity="1" /></svg>
