<?xml version="1.0" encoding="utf-8"?>
<svg xmlns="http://www.w3.org/2000/svg" xmlns:xlink="http://www.w3.org/1999/xlink" width="1200" height="300" viewBox="0 0 4800 1200">
<defs>
  <clipPath id="clip440">
    <rect x="0" y="0" width="4800" height="1200"/>
  </clipPath>
</defs>
<path clip-path="url(#clip440)" d="M0 1200 L4800 1200 L4800 0 L0 0  Z" fill="#ffffff" fill-rule="evenodd" fill-opacity="1"/>
<defs>
  <clipPath id="clip441">
    <rect x="960" y="0" width="3361" height="1200"/>
  </clipPath>
</defs>
<path clip-path="url(#clip440)" d="M404.977 880.951 L4752.76 880.951 L4752.76 47.2441 L404.977 47.2441  Z" fill="#ffffff" fill-rule="evenodd" fill-opacity="1"/>
<defs>
  <clipPath id="clip442">
    <rect x="404" y="47" width="4349" height="835"/>
  </clipPath>
</defs>
<polyline clip-path="url(#clip442)" style="stroke:#000000; stroke-linecap:round; stroke-linejoin:round; stroke-width:2; stroke-opacity:0.1; fill:none" points="528.028,880.951 528.028,47.2441 "/>
<polyline clip-path="url(#clip442)" style="stroke:#000000; stroke-linecap:round; stroke-linejoin:round; stroke-width:2; stroke-opacity:0.1; fill:none" points="1348.36,880.951 1348.36,47.2441 "/>
<polyline clip-path="url(#clip442)" style="stroke:#000000; stroke-linecap:round; stroke-linejoin:round; stroke-width:2; stroke-opacity:0.1; fill:none" points="2168.7,880.951 2168.7,47.2441 "/>
<polyline clip-path="url(#clip442)" style="stroke:#000000; stroke-linecap:round; stroke-linejoin:round; stroke-width:2; stroke-opacity:0.1; fill:none" points="2989.03,880.951 2989.03,47.2441 "/>
<polyline clip-path="url(#clip442)" style="stroke:#000000; stroke-linecap:round; stroke-linejoin:round; stroke-width:2; stroke-opacity:0.1; fill:none" points="3809.37,880.951 3809.37,47.2441 "/>
<polyline clip-path="url(#clip442)" style="stroke:#000000; stroke-linecap:round; stroke-linejoin:round; stroke-width:2; stroke-opacity:0.1; fill:none" points="4629.71,880.951 4629.71,47.2441 "/>
<polyline clip-path="url(#clip442)" style="stroke:#000000; stroke-linecap:round; stroke-linejoin:round; stroke-width:2; stroke-opacity:0.1; fill:none" points="404.977,755.811 4752.76,755.811 "/>
<polyline clip-path="url(#clip442)" style="stroke:#000000; stroke-linecap:round; stroke-linejoin:round; stroke-width:2; stroke-opacity:0.1; fill:none" points="404.977,612.025 4752.76,612.025 "/>
<polyline clip-path="url(#clip442)" style="stroke:#000000; stroke-linecap:round; stroke-linejoin:round; stroke-width:2; stroke-opacity:0.1; fill:none" points="404.977,468.24 4752.76,468.24 "/>
<polyline clip-path="url(#clip442)" style="stroke:#000000; stroke-linecap:round; stroke-linejoin:round; stroke-width:2; stroke-opacity:0.1; fill:none" points="404.977,324.455 4752.76,324.455 "/>
<polyline clip-path="url(#clip442)" style="stroke:#000000; stroke-linecap:round; stroke-linejoin:round; stroke-width:2; stroke-opacity:0.1; fill:none" points="404.977,180.67 4752.76,180.67 "/>
<polyline clip-path="url(#clip440)" style="stroke:#000000; stroke-linecap:round; stroke-linejoin:round; stroke-width:4; stroke-opacity:1; fill:none" points="404.977,880.951 4752.76,880.951 "/>
<polyline clip-path="url(#clip440)" style="stroke:#000000; stroke-linecap:round; stroke-linejoin:round; stroke-width:4; stroke-opacity:1; fill:none" points="528.028,880.951 528.028,862.054 "/>
<polyline clip-path="url(#clip440)" style="stroke:#000000; stroke-linecap:round; stroke-linejoin:round; stroke-width:4; stroke-opacity:1; fill:none" points="1348.36,880.951 1348.36,862.054 "/>
<polyline clip-path="url(#clip440)" style="stroke:#000000; stroke-linecap:round; stroke-linejoin:round; stroke-width:4; stroke-opacity:1; fill:none" points="2168.7,880.951 2168.7,862.054 "/>
<polyline clip-path="url(#clip440)" style="stroke:#000000; stroke-linecap:round; stroke-linejoin:round; stroke-width:4; stroke-opacity:1; fill:none" points="2989.03,880.951 2989.03,862.054 "/>
<polyline clip-path="url(#clip440)" style="stroke:#000000; stroke-linecap:round; stroke-linejoin:round; stroke-width:4; stroke-opacity:1; fill:none" points="3809.37,880.951 3809.37,862.054 "/>
<polyline clip-path="url(#clip440)" style="stroke:#000000; stroke-linecap:round; stroke-linejoin:round; stroke-width:4; stroke-opacity:1; fill:none" points="4629.71,880.951 4629.71,862.054 "/>
<path clip-path="url(#clip440)" d="M528.028 942.789 Q520.806 942.789 517.148 949.918 Q513.537 957.002 513.537 971.261 Q513.537 985.474 517.148 992.603 Q520.806 999.687 528.028 999.687 Q535.296 999.687 538.907 992.603 Q542.565 985.474 542.565 971.261 Q542.565 957.002 538.907 949.918 Q535.296 942.789 528.028 942.789 M528.028 935.382 Q539.648 935.382 545.759 944.594 Q551.916 953.761 551.916 971.261 Q551.916 988.715 545.759 997.927 Q539.648 1007.09 528.028 1007.09 Q516.407 1007.09 510.25 997.927 Q504.139 988.715 504.139 971.261 Q504.139 953.761 510.25 944.594 Q516.407 935.382 528.028 935.382 Z" fill="#000000" fill-rule="nonzero" fill-opacity="1" /><path clip-path="url(#clip440)" d="M1337.67 997.881 L1370.31 997.881 L1370.31 1005.75 L1326.42 1005.75 L1326.42 997.881 Q1331.74 992.372 1340.91 983.113 Q1350.12 973.807 1352.48 971.122 Q1356.97 966.076 1358.73 962.604 Q1360.54 959.085 1360.54 955.705 Q1360.54 950.196 1356.65 946.724 Q1352.81 943.252 1346.6 943.252 Q1342.21 943.252 1337.3 944.78 Q1332.44 946.307 1326.88 949.409 L1326.88 939.965 Q1332.53 937.696 1337.44 936.539 Q1342.34 935.382 1346.42 935.382 Q1357.16 935.382 1363.55 940.752 Q1369.94 946.122 1369.94 955.104 Q1369.94 959.363 1368.32 963.205 Q1366.74 967.002 1362.53 972.187 Q1361.37 973.529 1355.17 979.965 Q1348.97 986.353 1337.67 997.881 Z" fill="#000000" fill-rule="nonzero" fill-opacity="1" /><path clip-path="url(#clip440)" d="M2174.72 944.78 L2151.11 981.678 L2174.72 981.678 L2174.72 944.78 M2172.26 936.631 L2184.02 936.631 L2184.02 981.678 L2193.88 981.678 L2193.88 989.455 L2184.02 989.455 L2184.02 1005.75 L2174.72 1005.75 L2174.72 989.455 L2143.51 989.455 L2143.51 980.428 L2172.26 936.631 Z" fill="#000000" fill-rule="nonzero" fill-opacity="1" /><path clip-path="url(#clip440)" d="M2989.84 967.465 Q2983.55 967.465 2979.84 971.77 Q2976.19 976.076 2976.19 983.576 Q2976.19 991.029 2979.84 995.381 Q2983.55 999.687 2989.84 999.687 Q2996.14 999.687 2999.8 995.381 Q3003.5 991.029 3003.5 983.576 Q3003.5 976.076 2999.8 971.77 Q2996.14 967.465 2989.84 967.465 M3008.41 938.159 L3008.41 946.678 Q3004.89 945.011 3001.28 944.131 Q2997.71 943.252 2994.2 943.252 Q2984.94 943.252 2980.03 949.502 Q2975.17 955.752 2974.47 968.391 Q2977.21 964.363 2981.33 962.233 Q2985.45 960.057 2990.4 960.057 Q3000.82 960.057 3006.84 966.4 Q3012.9 972.696 3012.9 983.576 Q3012.9 994.224 3006.6 1000.66 Q3000.31 1007.09 2989.84 1007.09 Q2977.85 1007.09 2971.51 997.927 Q2965.17 988.715 2965.17 971.261 Q2965.17 954.872 2972.95 945.15 Q2980.72 935.382 2993.83 935.382 Q2997.34 935.382 3000.91 936.076 Q3004.52 936.77 3008.41 938.159 Z" fill="#000000" fill-rule="nonzero" fill-opacity="1" /><path clip-path="url(#clip440)" d="M3809.37 972.928 Q3802.7 972.928 3798.86 976.492 Q3795.06 980.057 3795.06 986.307 Q3795.06 992.557 3798.86 996.122 Q3802.7 999.687 3809.37 999.687 Q3816.04 999.687 3819.88 996.122 Q3823.72 992.511 3823.72 986.307 Q3823.72 980.057 3819.88 976.492 Q3816.08 972.928 3809.37 972.928 M3800.02 968.946 Q3794 967.465 3790.62 963.344 Q3787.29 959.224 3787.29 953.298 Q3787.29 945.011 3793.17 940.196 Q3799.09 935.382 3809.37 935.382 Q3819.69 935.382 3825.57 940.196 Q3831.45 945.011 3831.45 953.298 Q3831.45 959.224 3828.07 963.344 Q3824.74 967.465 3818.77 968.946 Q3825.53 970.52 3829.28 975.104 Q3833.07 979.687 3833.07 986.307 Q3833.07 996.353 3826.92 1001.72 Q3820.81 1007.09 3809.37 1007.09 Q3797.93 1007.09 3791.78 1001.72 Q3785.67 996.353 3785.67 986.307 Q3785.67 979.687 3789.46 975.104 Q3793.26 970.52 3800.02 968.946 M3796.59 954.178 Q3796.59 959.548 3799.93 962.557 Q3803.31 965.567 3809.37 965.567 Q3815.39 965.567 3818.77 962.557 Q3822.19 959.548 3822.19 954.178 Q3822.19 948.807 3818.77 945.798 Q3815.39 942.789 3809.37 942.789 Q3803.31 942.789 3799.93 945.798 Q3796.59 948.807 3796.59 954.178 Z" fill="#000000" fill-rule="nonzero" fill-opacity="1" /><path clip-path="url(#clip440)" d="M4579.08 997.881 L4594.36 997.881 L4594.36 945.15 L4577.74 948.483 L4577.74 939.965 L4594.27 936.631 L4603.62 936.631 L4603.62 997.881 L4618.9 997.881 L4618.9 1005.75 L4579.08 1005.75 L4579.08 997.881 Z" fill="#000000" fill-rule="nonzero" fill-opacity="1" /><path clip-path="url(#clip440)" d="M4657.78 942.789 Q4650.56 942.789 4646.9 949.918 Q4643.29 957.002 4643.29 971.261 Q4643.29 985.474 4646.9 992.603 Q4650.56 999.687 4657.78 999.687 Q4665.05 999.687 4668.66 992.603 Q4672.32 985.474 4672.32 971.261 Q4672.32 957.002 4668.66 949.918 Q4665.05 942.789 4657.78 942.789 M4657.78 935.382 Q4669.4 935.382 4675.52 944.594 Q4681.67 953.761 4681.67 971.261 Q4681.67 988.715 4675.52 997.927 Q4669.4 1007.09 4657.78 1007.09 Q4646.16 1007.09 4640.01 997.927 Q4633.9 988.715 4633.9 971.261 Q4633.9 953.761 4640.01 944.594 Q4646.16 935.382 4657.78 935.382 Z" fill="#000000" fill-rule="nonzero" fill-opacity="1" /><path clip-path="url(#clip440)" d="M2296.11 1072.18 L2361.89 1072.18 L2361.89 1081.04 L2334.28 1081.04 L2334.28 1149.94 L2323.71 1149.94 L2323.71 1081.04 L2296.11 1081.04 L2296.11 1072.18 Z" fill="#000000" fill-rule="nonzero" fill-opacity="1" /><path clip-path="url(#clip440)" d="M2368.35 1091.61 L2377.93 1091.61 L2377.93 1149.94 L2368.35 1149.94 L2368.35 1091.61 M2368.35 1068.9 L2377.93 1068.9 L2377.93 1081.04 L2368.35 1081.04 L2368.35 1068.9 Z" fill="#000000" fill-rule="nonzero" fill-opacity="1" /><path clip-path="url(#clip440)" d="M2443.4 1102.81 Q2446.99 1096.35 2451.99 1093.28 Q2456.99 1090.2 2463.76 1090.2 Q2472.88 1090.2 2477.83 1096.61 Q2482.77 1102.96 2482.77 1114.74 L2482.77 1149.94 L2473.14 1149.94 L2473.14 1115.05 Q2473.14 1106.66 2470.17 1102.6 Q2467.2 1098.54 2461.11 1098.54 Q2453.66 1098.54 2449.34 1103.49 Q2445.01 1108.43 2445.01 1116.97 L2445.01 1149.94 L2435.38 1149.94 L2435.38 1115.05 Q2435.38 1106.61 2432.41 1102.6 Q2429.44 1098.54 2423.24 1098.54 Q2415.9 1098.54 2411.58 1103.54 Q2407.25 1108.49 2407.25 1116.97 L2407.25 1149.94 L2397.62 1149.94 L2397.62 1091.61 L2407.25 1091.61 L2407.25 1100.67 Q2410.53 1095.31 2415.12 1092.76 Q2419.7 1090.2 2426 1090.2 Q2432.36 1090.2 2436.78 1093.43 Q2441.26 1096.66 2443.4 1102.81 Z" fill="#000000" fill-rule="nonzero" fill-opacity="1" /><path clip-path="url(#clip440)" d="M2551.78 1118.38 L2551.78 1123.07 L2507.72 1123.07 Q2508.35 1132.96 2513.66 1138.17 Q2519.02 1143.33 2528.55 1143.33 Q2534.08 1143.33 2539.23 1141.97 Q2544.44 1140.62 2549.54 1137.91 L2549.54 1146.97 Q2544.39 1149.16 2538.97 1150.31 Q2533.55 1151.45 2527.98 1151.45 Q2514.02 1151.45 2505.85 1143.33 Q2497.72 1135.2 2497.72 1121.35 Q2497.72 1107.03 2505.43 1098.64 Q2513.19 1090.2 2526.31 1090.2 Q2538.09 1090.2 2544.91 1097.81 Q2551.78 1105.36 2551.78 1118.38 M2542.2 1115.57 Q2542.1 1107.7 2537.77 1103.02 Q2533.5 1098.33 2526.42 1098.33 Q2518.4 1098.33 2513.55 1102.86 Q2508.76 1107.39 2508.03 1115.62 L2542.2 1115.57 Z" fill="#000000" fill-rule="nonzero" fill-opacity="1" /><path clip-path="url(#clip440)" d="M2624.44 1069.01 Q2617.46 1080.99 2614.07 1092.7 Q2610.69 1104.42 2610.69 1116.45 Q2610.69 1128.49 2614.07 1140.31 Q2617.51 1152.08 2624.44 1164.01 L2616.11 1164.01 Q2608.29 1151.77 2604.39 1139.94 Q2600.53 1128.12 2600.53 1116.45 Q2600.53 1104.84 2604.39 1093.07 Q2608.24 1081.3 2616.11 1069.01 L2624.44 1069.01 Z" fill="#000000" fill-rule="nonzero" fill-opacity="1" /><path clip-path="url(#clip440)" d="M2681.42 1100.46 L2681.42 1068.9 L2691 1068.9 L2691 1149.94 L2681.42 1149.94 L2681.42 1141.19 Q2678.4 1146.4 2673.76 1148.95 Q2669.18 1151.45 2662.72 1151.45 Q2652.15 1151.45 2645.48 1143.02 Q2638.87 1134.58 2638.87 1120.83 Q2638.87 1107.08 2645.48 1098.64 Q2652.15 1090.2 2662.72 1090.2 Q2669.18 1090.2 2673.76 1092.76 Q2678.4 1095.26 2681.42 1100.46 M2648.76 1120.83 Q2648.76 1131.4 2653.08 1137.44 Q2657.46 1143.43 2665.06 1143.43 Q2672.67 1143.43 2677.04 1137.44 Q2681.42 1131.4 2681.42 1120.83 Q2681.42 1110.26 2677.04 1104.27 Q2672.67 1098.23 2665.06 1098.23 Q2657.46 1098.23 2653.08 1104.27 Q2648.76 1110.26 2648.76 1120.83 Z" fill="#000000" fill-rule="nonzero" fill-opacity="1" /><path clip-path="url(#clip440)" d="M2737.25 1120.62 Q2725.64 1120.62 2721.16 1123.28 Q2716.68 1125.93 2716.68 1132.34 Q2716.68 1137.44 2720.01 1140.46 Q2723.4 1143.43 2729.18 1143.43 Q2737.15 1143.43 2741.94 1137.81 Q2746.78 1132.13 2746.78 1122.76 L2746.78 1120.62 L2737.25 1120.62 M2756.37 1116.66 L2756.37 1149.94 L2746.78 1149.94 L2746.78 1141.09 Q2743.5 1146.4 2738.61 1148.95 Q2733.71 1151.45 2726.63 1151.45 Q2717.67 1151.45 2712.36 1146.45 Q2707.1 1141.4 2707.1 1132.96 Q2707.1 1123.12 2713.66 1118.12 Q2720.27 1113.12 2733.34 1113.12 L2746.78 1113.12 L2746.78 1112.18 Q2746.78 1105.57 2742.41 1101.98 Q2738.08 1098.33 2730.22 1098.33 Q2725.22 1098.33 2720.48 1099.53 Q2715.74 1100.73 2711.37 1103.12 L2711.37 1094.27 Q2716.63 1092.24 2721.57 1091.25 Q2726.52 1090.2 2731.21 1090.2 Q2743.87 1090.2 2750.12 1096.77 Q2756.37 1103.33 2756.37 1116.66 Z" fill="#000000" fill-rule="nonzero" fill-opacity="1" /><path clip-path="url(#clip440)" d="M2800.38 1155.36 Q2796.31 1165.78 2792.46 1168.95 Q2788.61 1172.13 2782.15 1172.13 L2774.49 1172.13 L2774.49 1164.11 L2780.12 1164.11 Q2784.07 1164.11 2786.26 1162.24 Q2788.45 1160.36 2791.11 1153.38 L2792.82 1149.01 L2769.23 1091.61 L2779.39 1091.61 L2797.62 1137.24 L2815.84 1091.61 L2826 1091.61 L2800.38 1155.36 Z" fill="#000000" fill-rule="nonzero" fill-opacity="1" /><path clip-path="url(#clip440)" d="M2837.72 1069.01 L2846.05 1069.01 Q2853.87 1081.3 2857.72 1093.07 Q2861.63 1104.84 2861.63 1116.45 Q2861.63 1128.12 2857.72 1139.94 Q2853.87 1151.77 2846.05 1164.01 L2837.72 1164.01 Q2844.65 1152.08 2848.03 1140.31 Q2851.47 1128.49 2851.47 1116.45 Q2851.47 1104.42 2848.03 1092.7 Q2844.65 1080.99 2837.72 1069.01 Z" fill="#000000" fill-rule="nonzero" fill-opacity="1" /><polyline clip-path="url(#clip440)" style="stroke:#000000; stroke-linecap:round; stroke-linejoin:round; stroke-width:4; stroke-opacity:1; fill:none" points="404.977,880.951 404.977,47.2441 "/>
<polyline clip-path="url(#clip440)" style="stroke:#000000; stroke-linecap:round; stroke-linejoin:round; stroke-width:4; stroke-opacity:1; fill:none" points="404.977,755.811 423.875,755.811 "/>
<polyline clip-path="url(#clip440)" style="stroke:#000000; stroke-linecap:round; stroke-linejoin:round; stroke-width:4; stroke-opacity:1; fill:none" points="404.977,612.025 423.875,612.025 "/>
<polyline clip-path="url(#clip440)" style="stroke:#000000; stroke-linecap:round; stroke-linejoin:round; stroke-width:4; stroke-opacity:1; fill:none" points="404.977,468.24 423.875,468.24 "/>
<polyline clip-path="url(#clip440)" style="stroke:#000000; stroke-linecap:round; stroke-linejoin:round; stroke-width:4; stroke-opacity:1; fill:none" points="404.977,324.455 423.875,324.455 "/>
<polyline clip-path="url(#clip440)" style="stroke:#000000; stroke-linecap:round; stroke-linejoin:round; stroke-width:4; stroke-opacity:1; fill:none" points="404.977,180.67 423.875,180.67 "/>
<path clip-path="url(#clip440)" d="M149.228 756.713 L208.58 756.713 L208.58 764.584 L149.228 764.584 L149.228 756.713 Z" fill="#000000" fill-rule="nonzero" fill-opacity="1" /><path clip-path="url(#clip440)" d="M248.765 757.547 Q242.098 757.547 238.256 761.111 Q234.459 764.676 234.459 770.926 Q234.459 777.176 238.256 780.741 Q242.098 784.306 248.765 784.306 Q255.431 784.306 259.274 780.741 Q263.117 777.13 263.117 770.926 Q263.117 764.676 259.274 761.111 Q255.478 757.547 248.765 757.547 M239.413 753.565 Q233.395 752.084 230.015 747.963 Q226.682 743.843 226.682 737.917 Q226.682 729.63 232.561 724.815 Q238.487 720.001 248.765 720.001 Q259.089 720.001 264.968 724.815 Q270.848 729.63 270.848 737.917 Q270.848 743.843 267.468 747.963 Q264.135 752.084 258.163 753.565 Q264.922 755.139 268.672 759.723 Q272.468 764.306 272.468 770.926 Q272.468 780.973 266.311 786.343 Q260.2 791.713 248.765 791.713 Q237.33 791.713 231.172 786.343 Q225.061 780.973 225.061 770.926 Q225.061 764.306 228.858 759.723 Q232.654 755.139 239.413 753.565 M235.987 738.797 Q235.987 744.167 239.32 747.176 Q242.7 750.186 248.765 750.186 Q254.783 750.186 258.163 747.176 Q261.589 744.167 261.589 738.797 Q261.589 733.426 258.163 730.417 Q254.783 727.408 248.765 727.408 Q242.7 727.408 239.32 730.417 Q235.987 733.426 235.987 738.797 Z" fill="#000000" fill-rule="nonzero" fill-opacity="1" /><path clip-path="url(#clip440)" d="M309.089 727.408 Q301.866 727.408 298.209 734.538 Q294.598 741.621 294.598 755.88 Q294.598 770.093 298.209 777.223 Q301.866 784.306 309.089 784.306 Q316.357 784.306 319.968 777.223 Q323.626 770.093 323.626 755.88 Q323.626 741.621 319.968 734.538 Q316.357 727.408 309.089 727.408 M309.089 720.001 Q320.709 720.001 326.82 729.214 Q332.977 738.38 332.977 755.88 Q332.977 773.334 326.82 782.547 Q320.709 791.713 309.089 791.713 Q297.468 791.713 291.311 782.547 Q285.2 773.334 285.2 755.88 Q285.2 738.38 291.311 729.214 Q297.468 720.001 309.089 720.001 Z" fill="#000000" fill-rule="nonzero" fill-opacity="1" /><path clip-path="url(#clip440)" d="M149.228 612.928 L208.58 612.928 L208.58 620.798 L149.228 620.798 L149.228 612.928 Z" fill="#000000" fill-rule="nonzero" fill-opacity="1" /><path clip-path="url(#clip440)" d="M249.922 608.299 Q243.626 608.299 239.922 612.604 Q236.265 616.91 236.265 624.41 Q236.265 631.863 239.922 636.215 Q243.626 640.521 249.922 640.521 Q256.219 640.521 259.876 636.215 Q263.58 631.863 263.58 624.41 Q263.58 616.91 259.876 612.604 Q256.219 608.299 249.922 608.299 M268.487 578.993 L268.487 587.512 Q264.968 585.845 261.357 584.965 Q257.793 584.086 254.274 584.086 Q245.015 584.086 240.107 590.336 Q235.246 596.586 234.552 609.224 Q237.283 605.197 241.404 603.067 Q245.524 600.891 250.478 600.891 Q260.894 600.891 266.913 607.234 Q272.978 613.53 272.978 624.41 Q272.978 635.058 266.681 641.493 Q260.385 647.928 249.922 647.928 Q237.932 647.928 231.589 638.761 Q225.246 629.548 225.246 612.095 Q225.246 595.706 233.024 585.984 Q240.802 576.215 253.904 576.215 Q257.422 576.215 260.987 576.91 Q264.598 577.604 268.487 578.993 Z" fill="#000000" fill-rule="nonzero" fill-opacity="1" /><path clip-path="url(#clip440)" d="M309.089 583.623 Q301.866 583.623 298.209 590.752 Q294.598 597.836 294.598 612.095 Q294.598 626.308 298.209 633.437 Q301.866 640.521 309.089 640.521 Q316.357 640.521 319.968 633.437 Q323.626 626.308 323.626 612.095 Q323.626 597.836 319.968 590.752 Q316.357 583.623 309.089 583.623 M309.089 576.215 Q320.709 576.215 326.82 585.428 Q332.977 594.595 332.977 612.095 Q332.977 629.548 326.82 638.761 Q320.709 647.928 309.089 647.928 Q297.468 647.928 291.311 638.761 Q285.2 629.548 285.2 612.095 Q285.2 594.595 291.311 585.428 Q297.468 576.215 309.089 576.215 Z" fill="#000000" fill-rule="nonzero" fill-opacity="1" /><path clip-path="url(#clip440)" d="M149.228 469.143 L208.58 469.143 L208.58 477.013 L149.228 477.013 L149.228 469.143 Z" fill="#000000" fill-rule="nonzero" fill-opacity="1" /><path clip-path="url(#clip440)" d="M254.459 441.828 L230.848 478.726 L254.459 478.726 L254.459 441.828 M252.006 433.68 L263.765 433.68 L263.765 478.726 L273.626 478.726 L273.626 486.504 L263.765 486.504 L263.765 502.8 L254.459 502.8 L254.459 486.504 L223.256 486.504 L223.256 477.476 L252.006 433.68 Z" fill="#000000" fill-rule="nonzero" fill-opacity="1" /><path clip-path="url(#clip440)" d="M309.089 439.837 Q301.866 439.837 298.209 446.967 Q294.598 454.05 294.598 468.31 Q294.598 482.522 298.209 489.652 Q301.866 496.735 309.089 496.735 Q316.357 496.735 319.968 489.652 Q323.626 482.522 323.626 468.31 Q323.626 454.05 319.968 446.967 Q316.357 439.837 309.089 439.837 M309.089 432.43 Q320.709 432.43 326.82 441.643 Q332.977 450.81 332.977 468.31 Q332.977 485.763 326.82 494.976 Q320.709 504.143 309.089 504.143 Q297.468 504.143 291.311 494.976 Q285.2 485.763 285.2 468.31 Q285.2 450.81 291.311 441.643 Q297.468 432.43 309.089 432.43 Z" fill="#000000" fill-rule="nonzero" fill-opacity="1" /><path clip-path="url(#clip440)" d="M149.228 325.358 L208.58 325.358 L208.58 333.228 L149.228 333.228 L149.228 325.358 Z" fill="#000000" fill-rule="nonzero" fill-opacity="1" /><path clip-path="url(#clip440)" d="M236.82 351.144 L269.459 351.144 L269.459 359.015 L225.571 359.015 L225.571 351.144 Q230.895 345.635 240.061 336.376 Q249.274 327.071 251.635 324.385 Q256.126 319.339 257.885 315.867 Q259.691 312.348 259.691 308.969 Q259.691 303.46 255.802 299.987 Q251.959 296.515 245.756 296.515 Q241.357 296.515 236.45 298.043 Q231.589 299.571 226.033 302.673 L226.033 293.228 Q231.682 290.96 236.589 289.802 Q241.496 288.645 245.57 288.645 Q256.311 288.645 262.7 294.015 Q269.089 299.385 269.089 308.367 Q269.089 312.626 267.468 316.469 Q265.894 320.265 261.681 325.45 Q260.524 326.793 254.32 333.228 Q248.117 339.617 236.82 351.144 Z" fill="#000000" fill-rule="nonzero" fill-opacity="1" /><path clip-path="url(#clip440)" d="M309.089 296.052 Q301.866 296.052 298.209 303.182 Q294.598 310.265 294.598 324.524 Q294.598 338.737 298.209 345.867 Q301.866 352.95 309.089 352.95 Q316.357 352.95 319.968 345.867 Q323.626 338.737 323.626 324.524 Q323.626 310.265 319.968 303.182 Q316.357 296.052 309.089 296.052 M309.089 288.645 Q320.709 288.645 326.82 297.858 Q332.977 307.024 332.977 324.524 Q332.977 341.978 326.82 351.191 Q320.709 360.357 309.089 360.357 Q297.468 360.357 291.311 351.191 Q285.2 341.978 285.2 324.524 Q285.2 307.024 291.311 297.858 Q297.468 288.645 309.089 288.645 Z" fill="#000000" fill-rule="nonzero" fill-opacity="1" /><path clip-path="url(#clip440)" d="M309.089 152.267 Q301.866 152.267 298.209 159.397 Q294.598 166.48 294.598 180.739 Q294.598 194.952 298.209 202.081 Q301.866 209.165 309.089 209.165 Q316.357 209.165 319.968 202.081 Q323.626 194.952 323.626 180.739 Q323.626 166.48 319.968 159.397 Q316.357 152.267 309.089 152.267 M309.089 144.86 Q320.709 144.86 326.82 154.072 Q332.977 163.239 332.977 180.739 Q332.977 198.193 326.82 207.406 Q320.709 216.572 309.089 216.572 Q297.468 216.572 291.311 207.406 Q285.2 198.193 285.2 180.739 Q285.2 163.239 291.311 154.072 Q297.468 144.86 309.089 144.86 Z" fill="#000000" fill-rule="nonzero" fill-opacity="1" /><path clip-path="url(#clip442)" d="M528.028 200.862 L545.118 223.899 L562.208 250.061 L579.299 278.201 L596.389 306.642 L613.479 337.204 L630.57 353.772 L647.66 364.037 L664.75 353.31 L681.841 335.088 L698.931 326.156 L716.021 318.891 L733.112 313.682 L750.202 315.275 L767.292 322.777 L784.383 334.188 L801.473 345.003 L818.563 357.46 L835.654 366.056 L852.744 377.249 L869.834 389.287 L886.925 398.126 L904.015 395.772 L921.105 385.975 L938.195 378.316 L955.286 399.649 L972.376 428.95 L989.466 459.982 L1006.56 489.744 L1023.65 516.359 L1040.74 529.981 L1057.83 534.097 L1074.92 523.499 L1092.01 500.469 L1109.1 481.123 L1126.19 462.932 L1143.28 446.373 L1160.37 436.768 L1177.46 433.57 L1194.55 434.897 L1211.64 436.529 L1228.73 441.655 L1245.82 448.089 L1262.91 459.51 L1280 471.226 L1297.09 479.873 L1314.18 477.154 L1331.27 466.736 L1348.36 461.971 L1365.45 488.91 L1382.54 518.552 L1399.63 549.995 L1416.72 580.253 L1433.81 607.066 L1450.91 620.032 L1468 620.399 L1485.09 599.815 L1502.18 571.154 L1519.27 546.102 L1536.36 521.764 L1553.45 499.805 L1570.54 485.339 L1587.63 477.677 L1604.72 474.974 L1621.81 473.255 L1638.9 475.099 L1655.99 479.497 L1673.08 490.4 L1690.17 502.679 L1707.26 511.859 L1724.35 509.353 L1741.44 498.814 L1758.53 494.234 L1775.62 521.446 L1792.71 551.38 L1809.8 583.149 L1826.89 613.759 L1843.98 641.074 L1861.07 654.736 L1878.16 654.23 L1895.25 637.685 L1912.34 604.783 L1929.43 578.642 L1946.52 552.533 L1963.61 528.727 L1980.71 512.469 L1997.8 502.993 L2014.89 498.735 L2031.98 495.491 L2049.07 496.709 L2066.16 501.184 L2083.25 512.512 L2100.34 525.226 L2117.43 534.858 L2134.52 532.59 L2151.61 522.639 L2168.7 525.207 L2185.79 542.764 L2202.88 568.88 L2219.97 600.725 L2237.06 631.443 L2254.15 659.143 L2271.24 679.714 L2288.33 689.347 L2305.42 673.593 L2322.51 640.222 L2339.6 609.044 L2356.69 578.996 L2373.78 551.6 L2390.87 533.458 L2407.96 522.867 L2425.05 517.651 L2442.14 512.841 L2459.23 514.017 L2476.32 518.569 L2493.42 530.337 L2510.51 543.35 L2527.6 553.27 L2544.69 551.071 L2561.78 548.984 L2578.87 551.766 L2595.96 569.635 L2613.05 592.797 L2630.14 621.408 L2647.23 653.291 L2664.32 686.808 L2681.41 709.257 L2698.5 720.432 L2715.59 705.289 L2732.68 671.604 L2749.77 640.011 L2766.86 609.224 L2783.95 580.868 L2801.04 559.402 L2818.13 544.131 L2835.22 533.851 L2852.31 527.708 L2869.4 528.978 L2886.49 533.633 L2903.58 546.038 L2920.67 562.817 L2937.76 575.492 L2954.85 574.159 L2971.94 574.321 L2989.03 577.309 L3006.12 595.391 L3023.22 618.724 L3040.31 647.608 L3057.4 679.934 L3074.49 714.11 L3091.58 737.475 L3108.67 748.918 L3125.76 735.145 L3142.85 701.417 L3159.94 669.489 L3177.03 638.013 L3194.12 608.62 L3211.21 586.015 L3228.3 569.658 L3245.39 558.383 L3262.48 549.884 L3279.57 552.265 L3296.66 558.823 L3313.75 574.89 L3330.84 592.946 L3347.93 606.909 L3365.02 606.519 L3382.11 600.503 L3399.2 603.655 L3416.29 621.832 L3433.38 645.24 L3450.47 674.314 L3467.56 707.048 L3484.65 741.865 L3501.74 765.676 L3518.83 778.184 L3535.92 764.127 L3553.02 731.774 L3570.11 702.562 L3587.2 670.563 L3604.29 638.987 L3621.38 614.696 L3638.47 597.831 L3655.56 588.182 L3672.65 581.985 L3689.74 582.43 L3706.83 589.73 L3723.92 607.017 L3741.01 626.496 L3758.1 642.038 L3775.19 642.771 L3792.28 632.244 L3809.37 629.05 L3826.46 647.42 L3843.55 670.998 L3860.64 700.361 L3877.73 733.581 L3894.82 769.12 L3911.91 793.725 L3929 806.539 L3946.09 803.117 L3963.18 776.51 L3980.27 747.707 L3997.36 715.274 L4014.45 682.419 L4031.54 656.336 L4048.63 637.868 L4065.72 626.587 L4082.82 618.686 L4099.91 620.011 L4117 627.622 L4134.09 646.208 L4151.18 667.556 L4168.27 684.875 L4185.36 686.913 L4202.45 677.033 L4219.54 666.224 L4236.63 674.637 L4253.72 696.982 L4270.81 726.713 L4287.9 760.504 L4304.99 796.75 L4322.08 831.494 L4339.17 857.356 L4356.26 857.02 L4373.35 831.035 L4390.44 802.282 L4407.53 769.342 L4424.62 734.939 L4441.71 707.216 L4458.8 686.941 L4475.89 673.996 L4492.98 665.373 L4510.07 666.439 L4527.16 673.877 L4544.25 694.151 L4561.34 717.648 L4578.43 737.214 L4595.52 740.831 L4612.62 731.666 L4629.71 720.801 L4629.71 86.4849 L4612.62 87.1074 L4595.52 90.5437 L4578.43 93.3683 L4561.34 93.7755 L4544.25 94.3606 L4527.16 95.5347 L4510.07 99.0885 L4492.98 101.739 L4475.89 103.499 L4458.8 101.327 L4441.71 97.7987 L4424.62 95.3147 L4407.53 97.0998 L4390.44 102.569 L4373.35 114.264 L4356.26 132.545 L4339.17 146.164 L4322.08 148.624 L4304.99 144.644 L4287.9 133.276 L4270.81 120.178 L4253.72 106.732 L4236.63 95.248 L4219.54 87.1218 L4202.45 87.7034 L4185.36 91.0566 L4168.27 93.7565 L4151.18 94.0327 L4134.09 94.5612 L4117 95.7131 L4099.91 99.2324 L4082.82 101.84 L4065.72 103.557 L4048.63 101.729 L4031.54 98.2451 L4014.45 95.578 L3997.36 96.7187 L3980.27 102.487 L3963.18 114 L3946.09 132.2 L3929 145.754 L3911.91 148.27 L3894.82 144.321 L3877.73 132.933 L3860.64 119.796 L3843.55 106.291 L3826.46 94.7268 L3809.37 86.4818 L3792.28 87.0667 L3775.19 90.4194 L3758.1 93.1362 L3741.01 93.4234 L3723.92 93.8147 L3706.83 94.8917 L3689.74 98.3168 L3672.65 100.161 L3655.56 101.806 L3638.47 100.109 L3621.38 96.8735 L3604.29 94.0973 L3587.2 95.0017 L3570.11 100.381 L3553.02 111.552 L3535.92 129.548 L3518.83 142.967 L3501.74 145.366 L3484.65 141.32 L3467.56 129.925 L3450.47 116.789 L3433.38 103.281 L3416.29 91.6791 L3399.2 83.3929 L3382.11 83.9347 L3365.02 87.2441 L3347.93 89.9147 L3330.84 90.1567 L3313.75 90.4934 L3296.66 91.5123 L3279.57 94.8535 L3262.48 97.2504 L3245.39 98.7445 L3228.3 96.418 L3211.21 93.1883 L3194.12 90.2844 L3177.03 91.0552 L3159.94 96.2999 L3142.85 107.449 L3125.76 125.449 L3108.67 138.873 L3091.58 141.298 L3074.49 137.279 L3057.4 125.89 L3040.31 112.761 L3023.22 99.2566 L3006.12 87.6658 L2989.03 79.4463 L2971.94 79.8933 L2954.85 83.0897 L2937.76 85.5934 L2920.67 85.6551 L2903.58 85.815 L2886.49 86.6676 L2869.4 89.8719 L2852.31 92.1484 L2835.22 93.6751 L2818.13 91.5176 L2801.04 87.9002 L2783.95 84.9001 L2766.86 85.6421 L2749.77 91.0635 L2732.68 102.654 L2715.59 120.899 L2698.5 134.576 L2681.41 137.136 L2664.32 133.259 L2647.23 121.96 L2630.14 108.916 L2613.05 95.5089 L2595.96 84.0251 L2578.87 75.8696 L2561.78 76.4138 L2544.69 79.7261 L2527.6 82.3845 L2510.51 82.6291 L2493.42 83.0734 L2476.32 82.4708 L2459.23 85.008 L2442.14 87.5228 L2425.05 89.7279 L2407.96 88.5544 L2390.87 84.3851 L2373.78 81.1597 L2356.69 81.4626 L2339.6 86.9162 L2322.51 98.4621 L2305.42 116.633 L2288.33 130.336 L2271.24 132.961 L2254.15 129.149 L2237.06 117.901 L2219.97 104.898 L2202.88 91.5027 L2185.79 80.0298 L2168.7 71.8481 L2151.61 72.44 L2134.52 75.7815 L2117.43 78.4592 L2100.34 78.7322 L2083.25 79.2169 L2066.16 78.102 L2049.07 80.6786 L2031.98 83.2553 L2014.89 85.4943 L1997.8 84.9964 L1980.71 81.1935 L1963.61 78.0004 L1946.52 78.5274 L1929.43 83.6688 L1912.34 95.2852 L1895.25 113.62 L1878.16 127.478 L1861.07 130.299 L1843.98 126.666 L1826.89 115.686 L1809.8 102.965 L1792.71 89.8719 L1775.62 78.696 L1758.53 70.8396 L1741.44 71.6295 L1724.35 75.1227 L1707.26 77.9587 L1690.17 78.2901 L1673.08 78.4537 L1655.99 77.3945 L1638.9 80.2271 L1621.81 83.0354 L1604.72 85.3442 L1587.63 84.9526 L1570.54 81.7279 L1553.45 78.7253 L1536.36 79.5622 L1519.27 85.0366 L1502.18 96.539 L1485.09 115 L1468 129.069 L1450.91 132.246 L1433.81 129.023 L1416.72 118.412 L1399.63 106.05 L1382.54 93.305 L1365.45 82.4887 L1348.36 74.972 L1331.27 76.1956 L1314.18 80.2711 L1297.09 83.8209 L1280 85.0146 L1262.91 86.379 L1245.82 86.5957 L1228.73 88.8172 L1211.64 91.3677 L1194.55 93.9349 L1177.46 94.1596 L1160.37 94.0032 L1143.28 92.0048 L1126.19 93.7433 L1109.1 100.082 L1092.01 112.619 L1074.92 131.896 L1057.83 146.784 L1040.74 150.782 L1023.65 148.401 L1006.56 138.726 L989.466 125.738 L972.376 110.752 L955.286 98.8802 L938.195 93.0152 L921.105 99.0429 L904.015 107.967 L886.925 113.054 L869.834 114.491 L852.744 111.893 L835.654 111.567 L818.563 114.945 L801.473 118.636 L784.383 122.4 L767.292 123.836 L750.202 117.133 L733.112 115.43 L716.021 122.665 L698.931 136.515 L681.841 152.264 L664.75 176.133 L647.66 196.223 L630.57 204.575 L613.479 206.156 L596.389 200.105 L579.299 192.011 L562.208 179.461 L545.118 169.669 L528.028 165.458  Z" fill="#aeaeae" fill-rule="evenodd" fill-opacity="0.5"/>
<polyline clip-path="url(#clip442)" style="stroke:#aeaeae; stroke-linecap:round; stroke-linejoin:round; stroke-width:0; stroke-opacity:1; fill:none" points="528.028,178.148 545.118,182.194 562.208,188.311 579.299,195.536 596.389,202.48 613.479,208.335 630.57,209.701 647.66,207.095 664.75,198.009 681.841,186.344 698.931,178.692 716.021,173.963 733.112,171.84 750.202,172.625 767.292,174.96 784.383,177.614 801.473,178.875 818.563,179.45 835.654,178.944 852.744,179.167 869.834,179.369 886.925,179.302 904.015,177.352 921.105,174.676 938.195,173.609 955.286,178.001 972.376,184.52 989.466,192.181 1006.56,199.55 1023.65,205.839 1040.74,207.583 1057.83,205.333 1074.92,196.497 1092.01,185.012 1109.1,177.57 1126.19,173.167 1143.28,171.366 1160.37,172.405 1177.46,174.927 1194.55,177.694 1211.64,179.015 1228.73,179.655 1245.82,179.275 1262.91,179.73 1280,180.194 1297.09,180.392 1314.18,178.693 1331.27,176.249 1348.36,175.398 1365.45,180.002 1382.54,186.728 1399.63,194.591 1416.72,202.165 1433.81,208.654 1450.91,210.559 1468,208.403 1485.09,199.534 1502.18,187.916 1519.27,180.333 1536.36,175.776 1553.45,173.839 1570.54,174.764 1587.63,177.191 1604.72,179.876 1621.81,181.127 1638.9,181.725 1655.99,181.342 1673.08,181.854 1690.17,182.413 1707.26,182.714 1724.35,181.11 1741.44,178.755 1758.53,177.988 1775.62,182.681 1792.71,189.497 1809.8,197.453 1826.89,205.119 1843.98,211.699 1861.07,213.69 1878.16,211.583 1895.25,202.729 1912.34,191.061 1929.43,183.355 1946.52,178.668 1963.61,176.594 1980.71,177.395 1997.8,179.716 2014.89,182.295 2031.98,183.473 2049.07,184.011 2066.16,183.601 2083.25,184.119 2100.34,184.698 2117.43,185.026 2134.52,183.453 2151.61,181.125 2168.7,180.384 2185.79,185.109 2202.88,191.957 2219.97,199.949 2237.06,207.649 2254.15,214.274 2271.24,216.319 2288.33,214.27 2305.42,205.398 2322.51,193.678 2339.6,185.915 2356.69,181.132 2373.78,178.964 2390.87,179.67 2407.96,181.917 2425.05,184.425 2442.14,185.535 2459.23,186.026 2476.32,185.579 2493.42,186.07 2510.51,186.638 2527.6,186.964 2544.69,185.387 2561.78,183.06 2578.87,182.318 2595.96,187.048 2613.05,193.905 2630.14,201.905 2647.23,209.621 2664.32,216.261 2681.41,218.311 2698.5,216.307 2715.59,207.438 2732.68,195.674 2749.77,187.861 2766.86,183.01 2783.95,180.773 2801.04,181.412 2818.13,183.579 2835.22,186.032 2852.31,187.087 2869.4,187.541 2886.49,187.069 2903.58,187.544 2920.67,188.104 2937.76,188.424 2954.85,186.847 2971.94,184.516 2989.03,183.768 3006.12,188.492 3023.22,195.344 3040.31,203.343 3057.4,211.063 3074.49,217.71 3091.58,219.775 3108.67,217.733 3125.76,208.874 3142.85,197.097 3159.94,189.22 3177.03,184.331 3194.12,182.052 3211.21,182.648 3228.3,184.776 3245.39,187.184 3262.48,188.205 3279.57,188.632 3296.66,188.137 3313.75,188.601 3330.84,189.157 3347.93,189.478 3365.02,187.9 3382.11,185.563 3399.2,184.807 3416.29,189.525 3433.38,196.374 3450.47,204.369 3467.56,212.089 3484.65,218.739 3501.74,220.808 3518.83,218.764 3535.92,209.871 3553.02,198.07 3570.11,190.189 3587.2,185.262 3604.29,182.947 3621.38,183.512 3638.47,185.616 3655.56,187.998 3672.65,189.006 3689.74,189.411 3706.83,188.916 3723.92,189.384 3741.01,189.938 3758.1,190.255 3775.19,188.671 3792.28,186.329 3809.37,185.566 3826.46,190.279 3843.55,197.12 3860.64,205.112 3877.73,212.832 3894.82,219.482 3911.91,221.543 3929,219.496 3946.09,210.636 3963.18,198.849 3980.27,190.938 3997.36,185.995 4014.45,183.661 4031.54,184.201 4048.63,186.271 4065.72,188.635 4082.82,189.618 4099.91,190.005 4117,189.49 4134.09,189.947 4151.18,190.493 4168.27,190.815 4185.36,189.235 4202.45,186.89 4219.54,186.122 4236.63,190.829 4253.72,197.663 4270.81,205.651 4287.9,213.368 4304.99,220.019 4322.08,222.085 4339.17,220.045 4356.26,211.171 4373.35,199.378 4390.44,191.484 4407.53,186.527 4424.62,184.171 4441.71,184.691 4458.8,186.742 4475.89,189.085 4492.98,190.062 4510.07,190.446 4527.16,189.925 4544.25,190.377 4561.34,190.925 4578.43,191.246 4595.52,189.659 4612.62,187.314 4629.71,186.544 "/>
<path clip-path="url(#clip442)" d="M528.028 188.088 L545.118 199.17 L562.208 216.367 L579.299 237.767 L596.389 261.269 L613.479 283.362 L630.57 295.896 L647.66 297.671 L664.75 279.983 L681.841 257.775 L698.931 242.264 L716.021 227.865 L733.112 222.278 L750.202 223.477 L767.292 228.721 L784.383 235.798 L801.473 241.479 L818.563 248.137 L835.654 250.409 L852.744 255.204 L869.834 259.124 L886.925 259.668 L904.015 258.622 L921.105 254.685 L938.195 255.064 L955.286 268.637 L972.376 287.56 L989.466 310.319 L1006.56 332.841 L1023.65 353.765 L1040.74 367.076 L1057.83 364.722 L1074.92 345.33 L1092.01 318.187 L1109.1 300.514 L1126.19 283.983 L1143.28 275.208 L1160.37 269.669 L1177.46 269.428 L1194.55 273.045 L1211.64 272.524 L1228.73 275.002 L1245.82 276.089 L1262.91 281.556 L1280 285.769 L1297.09 290.49 L1314.18 289.796 L1331.27 287.608 L1348.36 287.992 L1365.45 297.841 L1382.54 317.49 L1399.63 342.09 L1416.72 366.223 L1433.81 385.22 L1450.91 396.551 L1468 399.614 L1485.09 380.096 L1502.18 349.923 L1519.27 325.47 L1536.36 305.339 L1553.45 295.15 L1570.54 290.139 L1587.63 288.763 L1604.72 289.717 L1621.81 288.571 L1638.9 289.745 L1655.99 288.28 L1673.08 290.951 L1690.17 296.453 L1707.26 303.534 L1724.35 303.813 L1741.44 302.063 L1758.53 300.638 L1775.62 310.689 L1792.71 329.6 L1809.8 353.195 L1826.89 377.934 L1843.98 399.533 L1861.07 410.938 L1878.16 411.303 L1895.25 394.843 L1912.34 363.752 L1929.43 336.983 L1946.52 317.422 L1963.61 303.874 L1980.71 299.355 L1997.8 297.142 L2014.89 297.937 L2031.98 296.781 L2049.07 295.032 L2066.16 294.534 L2083.25 298.938 L2100.34 305.162 L2117.43 312.639 L2134.52 311.938 L2151.61 309.788 L2168.7 314.072 L2185.79 325.534 L2202.88 338.498 L2219.97 359.69 L2237.06 385.557 L2254.15 406.886 L2271.24 416.953 L2288.33 417.109 L2305.42 400.857 L2322.51 372.067 L2339.6 344.827 L2356.69 324.947 L2373.78 307.332 L2390.87 304.155 L2407.96 303.982 L2425.05 303.355 L2442.14 302.001 L2459.23 300.659 L2476.32 299.042 L2493.42 303.111 L2510.51 309.131 L2527.6 315.041 L2544.69 315.947 L2561.78 315.327 L2578.87 317.883 L2595.96 330.94 L2613.05 347.17 L2630.14 367.194 L2647.23 389.953 L2664.32 411.128 L2681.41 419.985 L2698.5 421.414 L2715.59 405.92 L2732.68 375.939 L2749.77 348.494 L2766.86 326.654 L2783.95 311.832 L2801.04 305.745 L2818.13 306.76 L2835.22 305.25 L2852.31 304.735 L2869.4 302.853 L2886.49 300.955 L2903.58 304.977 L2920.67 310.758 L2937.76 316.186 L2954.85 318.537 L2971.94 317.355 L2989.03 320.694 L3006.12 334.159 L3023.22 350.457 L3040.31 372.78 L3057.4 393.416 L3074.49 413.294 L3091.58 421.742 L3108.67 424.955 L3125.76 409.727 L3142.85 377.942 L3159.94 350.165 L3177.03 329.434 L3194.12 313.109 L3211.21 307.561 L3228.3 307.869 L3245.39 307.067 L3262.48 306.842 L3279.57 305.042 L3296.66 302.254 L3313.75 306.877 L3330.84 313.399 L3347.93 317.264 L3365.02 319.79 L3382.11 318.499 L3399.2 321.802 L3416.29 337.106 L3433.38 353.58 L3450.47 375.105 L3467.56 395.868 L3484.65 415.427 L3501.74 423.027 L3518.83 427.281 L3535.92 413.173 L3553.02 379.277 L3570.11 352.334 L3587.2 330.901 L3604.29 313.777 L3621.38 308.87 L3638.47 308.946 L3655.56 307.818 L3672.65 307.59 L3689.74 306.104 L3706.83 304.388 L3723.92 308.377 L3741.01 315.198 L3758.1 318.643 L3775.19 321.924 L3792.28 321.068 L3809.37 324.086 L3826.46 336.756 L3843.55 354.913 L3860.64 376.703 L3877.73 398.978 L3894.82 416.284 L3911.91 425.68 L3929 428.734 L3946.09 412.102 L3963.18 379.751 L3980.27 354.554 L3997.36 333.362 L4014.45 315.182 L4031.54 311.302 L4048.63 310.099 L4065.72 310.875 L4082.82 309.363 L4099.91 307.775 L4117 306.78 L4134.09 311.536 L4151.18 317.76 L4168.27 321.324 L4185.36 322.962 L4202.45 322.148 L4219.54 327.261 L4236.63 339.363 L4253.72 354.654 L4270.81 376.87 L4287.9 399.72 L4304.99 417.858 L4322.08 428.567 L4339.17 429.02 L4356.26 411.596 L4373.35 379.736 L4390.44 356.534 L4407.53 333.209 L4424.62 315.124 L4441.71 313.451 L4458.8 310.534 L4475.89 311.579 L4492.98 309.431 L4510.07 308.142 L4527.16 307.092 L4544.25 313.373 L4561.34 319.054 L4578.43 322.424 L4595.52 322.88 L4612.62 322.553 L4629.71 326.117 L4629.71 116.615 L4612.62 118.6 L4595.52 126.365 L4578.43 130.38 L4561.34 131.23 L4544.25 130.978 L4527.16 130.533 L4510.07 133.554 L4492.98 136.157 L4475.89 135.924 L4458.8 128.954 L4441.71 124.289 L4424.62 121.928 L4407.53 124.012 L4390.44 131.482 L4373.35 143.583 L4356.26 163.504 L4339.17 179.425 L4322.08 183.714 L4304.99 180.002 L4287.9 167.261 L4270.81 151.674 L4253.72 136.535 L4236.63 124.175 L4219.54 115.274 L4202.45 118.113 L4185.36 125.925 L4168.27 129.373 L4151.18 130.062 L4134.09 129.934 L4117 129.245 L4099.91 132.303 L4082.82 134.206 L4065.72 134.892 L4048.63 127.888 L4031.54 123.365 L4014.45 120.62 L3997.36 123.525 L3980.27 130.64 L3963.18 142.479 L3946.09 162.515 L3929 178.526 L3911.91 182.031 L3894.82 178.653 L3877.73 166.097 L3860.64 150.725 L3843.55 135.208 L3826.46 122.501 L3809.37 114.554 L3792.28 117.325 L3775.19 124.308 L3758.1 128.637 L3741.01 128.786 L3723.92 127.698 L3706.83 127.343 L3689.74 131.143 L3672.65 132.756 L3655.56 132.895 L3638.47 126.989 L3621.38 121.9 L3604.29 119.038 L3587.2 121.371 L3570.11 128.996 L3553.02 140.815 L3535.92 160.931 L3518.83 176.788 L3501.74 180.406 L3484.65 176.656 L3467.56 164.922 L3450.47 149.099 L3433.38 133.476 L3416.29 120.404 L3399.2 112.169 L3382.11 115.548 L3365.02 122.848 L3347.93 126.406 L3330.84 126.489 L3313.75 123.851 L3296.66 125.717 L3279.57 129.273 L3262.48 130.995 L3245.39 130.101 L3228.3 124.254 L3211.21 119.546 L3194.12 117.241 L3177.03 119.533 L3159.94 126.428 L3142.85 139.251 L3125.76 159.013 L3108.67 174.441 L3091.58 177.845 L3074.49 174.012 L3057.4 162.028 L3040.31 146.849 L3023.22 131.388 L3006.12 118.513 L2989.03 110.513 L2971.94 113.322 L2954.85 120.574 L2937.76 122.933 L2920.67 121.446 L2903.58 121.06 L2886.49 122.624 L2869.4 125.99 L2852.31 127.747 L2835.22 128.109 L2818.13 122.642 L2801.04 116.104 L2783.95 114.177 L2766.86 116.693 L2749.77 123.678 L2732.68 136.272 L2715.59 156.076 L2698.5 171.49 L2681.41 174.784 L2664.32 170.688 L2647.23 158.481 L2630.14 143.95 L2613.05 128.459 L2595.96 115.845 L2578.87 108.172 L2561.78 110.24 L2544.69 116.68 L2527.6 118.286 L2510.51 116.49 L2493.42 117.182 L2476.32 117.795 L2459.23 119.856 L2442.14 121.663 L2425.05 123.172 L2407.96 118.356 L2390.87 112.58 L2373.78 109.845 L2356.69 112.66 L2339.6 118.547 L2322.51 130.927 L2305.42 151.04 L2288.33 166.696 L2271.24 169.705 L2254.15 166.723 L2237.06 154.341 L2219.97 140.158 L2202.88 125.159 L2185.79 112.009 L2168.7 104.353 L2151.61 106.004 L2134.52 112.413 L2117.43 113.891 L2100.34 110.953 L2083.25 111.17 L2066.16 110.917 L2049.07 113.167 L2031.98 115.347 L2014.89 116.943 L1997.8 113.764 L1980.71 108.212 L1963.61 105.694 L1946.52 107.678 L1929.43 113.471 L1912.34 125.744 L1895.25 145.925 L1878.16 161.432 L1861.07 164.641 L1843.98 161.452 L1826.89 150.021 L1809.8 136.204 L1792.71 121.588 L1775.62 108.37 L1758.53 100.938 L1741.44 102.48 L1724.35 107.755 L1707.26 111.177 L1690.17 108.571 L1673.08 107.289 L1655.99 107.509 L1638.9 109.826 L1621.81 111.828 L1604.72 113.574 L1587.63 111.375 L1570.54 105.013 L1553.45 102.512 L1536.36 105.089 L1519.27 111.081 L1502.18 123.443 L1485.09 143.508 L1468 159.329 L1450.91 162.625 L1433.81 160.082 L1416.72 148.802 L1399.63 135.184 L1382.54 120.253 L1365.45 108.336 L1348.36 100.155 L1331.27 103.833 L1314.18 108.938 L1297.09 112.929 L1280 111.226 L1262.91 110.774 L1245.82 110.182 L1228.73 112.486 L1211.64 115.126 L1194.55 117.581 L1177.46 114.346 L1160.37 109.675 L1143.28 108.287 L1126.19 110.586 L1109.1 117.97 L1092.01 130.848 L1074.92 151.052 L1057.83 168.031 L1040.74 172.598 L1023.65 170.673 L1006.56 159.795 L989.466 146.477 L972.376 132.321 L955.286 119.503 L938.195 112.747 L921.105 117.819 L904.015 124.706 L886.925 129.393 L869.834 129.413 L852.744 129.099 L835.654 129.679 L818.563 133.662 L801.473 137.068 L784.383 138.443 L767.292 135.533 L750.202 132.431 L733.112 132.32 L716.021 138.642 L698.931 149.255 L681.841 164.291 L664.75 186.473 L647.66 204.804 L630.57 212.028 L613.479 213.103 L596.389 206.04 L579.299 196.419 L562.208 184.313 L545.118 173.678 L528.028 168.355  Z" fill="#757575" fill-rule="evenodd" fill-opacity="0.5"/>
<polyline clip-path="url(#clip442)" style="stroke:#757575; stroke-linecap:round; stroke-linejoin:round; stroke-width:0; stroke-opacity:1; fill:none" points="528.028,178.148 545.118,182.194 562.208,188.311 579.299,195.536 596.389,202.48 613.479,208.335 630.57,209.701 647.66,207.095 664.75,198.009 681.841,186.344 698.931,178.692 716.021,173.963 733.112,171.84 750.202,172.625 767.292,174.96 784.383,177.614 801.473,178.875 818.563,179.45 835.654,178.944 852.744,179.167 869.834,179.369 886.925,179.302 904.015,177.352 921.105,174.676 938.195,173.609 955.286,178.001 972.376,184.52 989.466,192.181 1006.56,199.55 1023.65,205.839 1040.74,207.583 1057.83,205.333 1074.92,196.497 1092.01,185.012 1109.1,177.57 1126.19,173.167 1143.28,171.366 1160.37,172.405 1177.46,174.927 1194.55,177.694 1211.64,179.015 1228.73,179.655 1245.82,179.275 1262.91,179.73 1280,180.194 1297.09,180.392 1314.18,178.693 1331.27,176.249 1348.36,175.398 1365.45,180.002 1382.54,186.728 1399.63,194.591 1416.72,202.165 1433.81,208.654 1450.91,210.559 1468,208.403 1485.09,199.534 1502.18,187.916 1519.27,180.333 1536.36,175.776 1553.45,173.839 1570.54,174.764 1587.63,177.191 1604.72,179.876 1621.81,181.127 1638.9,181.725 1655.99,181.342 1673.08,181.854 1690.17,182.413 1707.26,182.714 1724.35,181.11 1741.44,178.755 1758.53,177.988 1775.62,182.681 1792.71,189.497 1809.8,197.453 1826.89,205.119 1843.98,211.699 1861.07,213.69 1878.16,211.583 1895.25,202.729 1912.34,191.061 1929.43,183.355 1946.52,178.668 1963.61,176.594 1980.71,177.395 1997.8,179.716 2014.89,182.295 2031.98,183.473 2049.07,184.011 2066.16,183.601 2083.25,184.119 2100.34,184.698 2117.43,185.026 2134.52,183.453 2151.61,181.125 2168.7,180.384 2185.79,185.109 2202.88,191.957 2219.97,199.949 2237.06,207.649 2254.15,214.274 2271.24,216.319 2288.33,214.27 2305.42,205.398 2322.51,193.678 2339.6,185.915 2356.69,181.132 2373.78,178.964 2390.87,179.67 2407.96,181.917 2425.05,184.425 2442.14,185.535 2459.23,186.026 2476.32,185.579 2493.42,186.07 2510.51,186.638 2527.6,186.964 2544.69,185.387 2561.78,183.06 2578.87,182.318 2595.96,187.048 2613.05,193.905 2630.14,201.905 2647.23,209.621 2664.32,216.261 2681.41,218.311 2698.5,216.307 2715.59,207.438 2732.68,195.674 2749.77,187.861 2766.86,183.01 2783.95,180.773 2801.04,181.412 2818.13,183.579 2835.22,186.032 2852.31,187.087 2869.4,187.541 2886.49,187.069 2903.58,187.544 2920.67,188.104 2937.76,188.424 2954.85,186.847 2971.94,184.516 2989.03,183.768 3006.12,188.492 3023.22,195.344 3040.31,203.343 3057.4,211.063 3074.49,217.71 3091.58,219.775 3108.67,217.733 3125.76,208.874 3142.85,197.097 3159.94,189.22 3177.03,184.331 3194.12,182.052 3211.21,182.648 3228.3,184.776 3245.39,187.184 3262.48,188.205 3279.57,188.632 3296.66,188.137 3313.75,188.601 3330.84,189.157 3347.93,189.478 3365.02,187.9 3382.11,185.563 3399.2,184.807 3416.29,189.525 3433.38,196.374 3450.47,204.369 3467.56,212.089 3484.65,218.739 3501.74,220.808 3518.83,218.764 3535.92,209.871 3553.02,198.07 3570.11,190.189 3587.2,185.262 3604.29,182.947 3621.38,183.512 3638.47,185.616 3655.56,187.998 3672.65,189.006 3689.74,189.411 3706.83,188.916 3723.92,189.384 3741.01,189.938 3758.1,190.255 3775.19,188.671 3792.28,186.329 3809.37,185.566 3826.46,190.279 3843.55,197.12 3860.64,205.112 3877.73,212.832 3894.82,219.482 3911.91,221.543 3929,219.496 3946.09,210.636 3963.18,198.849 3980.27,190.938 3997.36,185.995 4014.45,183.661 4031.54,184.201 4048.63,186.271 4065.72,188.635 4082.82,189.618 4099.91,190.005 4117,189.49 4134.09,189.947 4151.18,190.493 4168.27,190.815 4185.36,189.235 4202.45,186.89 4219.54,186.122 4236.63,190.829 4253.72,197.663 4270.81,205.651 4287.9,213.368 4304.99,220.019 4322.08,222.085 4339.17,220.045 4356.26,211.171 4373.35,199.378 4390.44,191.484 4407.53,186.527 4424.62,184.171 4441.71,184.691 4458.8,186.742 4475.89,189.085 4492.98,190.062 4510.07,190.446 4527.16,189.925 4544.25,190.377 4561.34,190.925 4578.43,191.246 4595.52,189.659 4612.62,187.314 4629.71,186.544 "/>
<path clip-path="url(#clip442)" d="M528.028 183.257 L545.118 192.66 L562.208 207.708 L579.299 227.842 L596.389 248.532 L613.479 267.687 L630.57 276.409 L647.66 274.403 L664.75 256.046 L681.841 229.796 L698.931 213.648 L716.021 201.037 L733.112 196.664 L750.202 199.73 L767.292 206.672 L784.383 213.949 L801.473 218.085 L818.563 222.368 L835.654 222.786 L852.744 224.185 L869.834 226.563 L886.925 230.638 L904.015 222.9 L921.105 218.495 L938.195 216.489 L955.286 228.161 L972.376 242.652 L989.466 260.073 L1006.56 281.01 L1023.65 297.224 L1040.74 307.213 L1057.83 306.025 L1074.92 287.051 L1092.01 257.161 L1109.1 238.083 L1126.19 226.915 L1143.28 221.473 L1160.37 220.929 L1177.46 225.644 L1194.55 232.114 L1211.64 234.897 L1228.73 238.72 L1245.82 240.614 L1262.91 241.26 L1280 244.881 L1297.09 245.497 L1314.18 238.677 L1331.27 233.638 L1348.36 232.793 L1365.45 243.264 L1382.54 257.974 L1399.63 275.079 L1416.72 295.168 L1433.81 313.803 L1450.91 321.266 L1468 323.29 L1485.09 301.382 L1502.18 272.201 L1519.27 253.676 L1536.36 240.79 L1553.45 234.202 L1570.54 232.516 L1587.63 235.963 L1604.72 241.151 L1621.81 244.15 L1638.9 246.073 L1655.99 247.22 L1673.08 248.131 L1690.17 251.507 L1707.26 251.863 L1724.35 245.464 L1741.44 242.77 L1758.53 242.787 L1775.62 252.486 L1792.71 266.311 L1809.8 282.387 L1826.89 302.149 L1843.98 321.043 L1861.07 329.084 L1878.16 328.528 L1895.25 309.911 L1912.34 279.957 L1929.43 260.769 L1946.52 248.3 L1963.61 239.471 L1980.71 238.704 L1997.8 242.379 L2014.89 246.418 L2031.98 250.005 L2049.07 250.476 L2066.16 250.808 L2083.25 253.211 L2100.34 255.203 L2117.43 255.794 L2134.52 252.606 L2151.61 249.431 L2168.7 248.582 L2185.79 259.873 L2202.88 272.52 L2219.97 287.37 L2237.06 306.835 L2254.15 324.878 L2271.24 333.574 L2288.33 331.017 L2305.42 312.04 L2322.51 284.79 L2339.6 265.232 L2356.69 253.666 L2373.78 246.092 L2390.87 245.215 L2407.96 247.475 L2425.05 250.601 L2442.14 253.254 L2459.23 255.505 L2476.32 255.352 L2493.42 256.826 L2510.51 260.662 L2527.6 261.702 L2544.69 256.547 L2561.78 251.839 L2578.87 252.795 L2595.96 263.1 L2613.05 276.756 L2630.14 292.56 L2647.23 310.384 L2664.32 328.126 L2681.41 336.518 L2698.5 334.119 L2715.59 316.145 L2732.68 288.312 L2749.77 269.093 L2766.86 256.967 L2783.95 250.09 L2801.04 248.167 L2818.13 250.028 L2835.22 254.3 L2852.31 256.641 L2869.4 258.131 L2886.49 259.846 L2903.58 259.532 L2920.67 263.108 L2937.76 264.872 L2954.85 259.162 L2971.94 256.28 L2989.03 255.913 L3006.12 265.507 L3023.22 281.212 L3040.31 295.61 L3057.4 312.382 L3074.49 332 L3091.58 338.033 L3108.67 336.696 L3125.76 319.147 L3142.85 290.505 L3159.94 271.781 L3177.03 259.326 L3194.12 251.63 L3211.21 249.569 L3228.3 251.64 L3245.39 256.113 L3262.48 258.199 L3279.57 259.469 L3296.66 260.644 L3313.75 260.497 L3330.84 265.041 L3347.93 266.045 L3365.02 261.381 L3382.11 259.787 L3399.2 258.723 L3416.29 268.323 L3433.38 282.354 L3450.47 298.369 L3467.56 313.589 L3484.65 331.688 L3501.74 340.696 L3518.83 338.992 L3535.92 319.778 L3553.02 292.034 L3570.11 272.626 L3587.2 261.109 L3604.29 252.83 L3621.38 251.296 L3638.47 253.709 L3655.56 257.227 L3672.65 259.022 L3689.74 261.303 L3706.83 261.236 L3723.92 262.894 L3741.01 266.432 L3758.1 267.938 L3775.19 262.618 L3792.28 262.651 L3809.37 259.799 L3826.46 269.889 L3843.55 285.17 L3860.64 302.042 L3877.73 314.807 L3894.82 332.581 L3911.91 341.049 L3929 339.995 L3946.09 320.603 L3963.18 291.967 L3980.27 273.246 L3997.36 262.358 L4014.45 254.516 L4031.54 253.102 L4048.63 255.737 L4065.72 260.286 L4082.82 261.124 L4099.91 262.002 L4117 262.411 L4134.09 263.401 L4151.18 266.974 L4168.27 268.659 L4185.36 264.003 L4202.45 263.474 L4219.54 261.665 L4236.63 271.064 L4253.72 285.971 L4270.81 303.546 L4287.9 315.845 L4304.99 333.563 L4322.08 341.296 L4339.17 339.782 L4356.26 320.575 L4373.35 293.283 L4390.44 274.53 L4407.53 263.314 L4424.62 256.356 L4441.71 255.552 L4458.8 257.493 L4475.89 261.219 L4492.98 261.901 L4510.07 262.293 L4527.16 263.166 L4544.25 264.217 L4561.34 268.187 L4578.43 269.149 L4595.52 265.091 L4612.62 264.176 L4629.71 262.821 L4629.71 126.558 L4612.62 130.599 L4595.52 136.06 L4578.43 140.714 L4561.34 142.971 L4544.25 143.757 L4527.16 145.418 L4510.07 147.94 L4492.98 148.16 L4475.89 145.887 L4458.8 140.159 L4441.71 133.042 L4424.62 130.169 L4407.53 132.171 L4390.44 139.318 L4373.35 152.31 L4356.26 173.678 L4339.17 189.257 L4322.08 193.687 L4304.99 190.297 L4287.9 178.086 L4270.81 163.298 L4253.72 147.723 L4236.63 134.005 L4219.54 125.933 L4202.45 129.52 L4185.36 135.207 L4168.27 140.13 L4151.18 142.564 L4134.09 143.249 L4117 144.85 L4099.91 147.229 L4082.82 146.61 L4065.72 145.024 L4048.63 139.701 L4031.54 132.985 L4014.45 129.294 L3997.36 130.76 L3980.27 138.227 L3963.18 151.113 L3946.09 171.681 L3929 187.801 L3911.91 192.527 L3894.82 188.913 L3877.73 177.145 L3860.64 162.095 L3843.55 147.207 L3826.46 132.994 L3809.37 125.076 L3792.28 128.141 L3775.19 133.585 L3758.1 139.029 L3741.01 141.289 L3723.92 142.02 L3706.83 143.365 L3689.74 146.124 L3672.65 145.909 L3655.56 143.688 L3638.47 138.871 L3621.38 131.651 L3604.29 128.462 L3587.2 129.722 L3570.11 136.774 L3553.02 149.626 L3535.92 170.285 L3518.83 186.221 L3501.74 189.886 L3484.65 186.757 L3467.56 175.471 L3450.47 161.226 L3433.38 145.631 L3416.29 131.578 L3399.2 123.506 L3382.11 127.325 L3365.02 131.474 L3347.93 137.294 L3330.84 139.197 L3313.75 139.224 L3296.66 140.847 L3279.57 144.015 L3262.48 143.589 L3245.39 142.038 L3228.3 137.353 L3211.21 130.102 L3194.12 125.893 L3177.03 127.722 L3159.94 134.17 L3142.85 147.073 L3125.76 167.444 L3108.67 183.505 L3091.58 187.242 L3074.49 185.074 L3057.4 173.607 L3040.31 159.545 L3023.22 143.287 L3006.12 130.029 L2989.03 121.698 L2971.94 124.218 L2954.85 129.517 L2937.76 134.466 L2920.67 136.421 L2903.58 136.932 L2886.49 138.035 L2869.4 141.927 L2852.31 141.786 L2835.22 139.676 L2818.13 133.847 L2801.04 128.318 L2783.95 124.183 L2766.86 125.426 L2749.77 131.543 L2732.68 143.738 L2715.59 164.636 L2698.5 180.171 L2681.41 183.871 L2664.32 180.696 L2647.23 170.31 L2630.14 156.02 L2613.05 140.065 L2595.96 127.025 L2578.87 119.108 L2561.78 120.986 L2544.69 125.198 L2527.6 131.409 L2510.51 132.08 L2493.42 133.111 L2476.32 134.079 L2459.23 136.971 L2442.14 138.222 L2425.05 136.069 L2407.96 130.377 L2390.87 124.716 L2373.78 120.794 L2356.69 122.325 L2339.6 127.366 L2322.51 139.268 L2305.42 159.319 L2288.33 175.64 L2271.24 179.195 L2254.15 176.475 L2237.06 165.88 L2219.97 151.266 L2202.88 136.319 L2185.79 122.847 L2168.7 114.596 L2151.61 116.626 L2134.52 121.492 L2117.43 127.15 L2100.34 127.523 L2083.25 128.239 L2066.16 128.991 L2049.07 132.7 L2031.98 134.12 L2014.89 131.399 L1997.8 125.863 L1980.71 120.478 L1963.61 116.027 L1946.52 118.103 L1929.43 123.322 L1912.34 135.494 L1895.25 155.399 L1878.16 171.434 L1861.07 175.05 L1843.98 171.673 L1826.89 160.112 L1809.8 147.479 L1792.71 131.986 L1775.62 118.75 L1758.53 110.935 L1741.44 112.924 L1724.35 117.983 L1707.26 123.065 L1690.17 124.077 L1673.08 123.937 L1655.99 125.195 L1638.9 129.136 L1621.81 129.902 L1604.72 127.942 L1587.63 122.549 L1570.54 117.027 L1553.45 112.622 L1536.36 114.377 L1519.27 120.305 L1502.18 132.008 L1485.09 151.946 L1468 168.732 L1450.91 172.847 L1433.81 169.523 L1416.72 158.813 L1399.63 144.915 L1382.54 130.325 L1365.45 118.092 L1348.36 110.075 L1331.27 112.826 L1314.18 117.937 L1297.09 123.05 L1280 123.924 L1262.91 124.771 L1245.82 125.637 L1228.73 128.191 L1211.64 130.337 L1194.55 129.375 L1177.46 123.736 L1160.37 118.867 L1143.28 115.453 L1126.19 118.175 L1109.1 124.939 L1092.01 137.265 L1074.92 158.172 L1057.83 174.884 L1040.74 179.693 L1023.65 177.551 L1006.56 167.097 L989.466 153.488 L972.376 139.489 L955.286 127.155 L938.195 119.727 L921.105 123.737 L904.015 130.895 L886.925 135.509 L869.834 138.281 L852.744 139.287 L835.654 140.83 L818.563 143.729 L801.473 144.715 L784.383 143.978 L767.292 141.002 L750.202 137.565 L733.112 137.446 L716.021 142.987 L698.931 152.626 L681.841 167.15 L664.75 189.293 L647.66 207.431 L630.57 214.715 L613.479 215.496 L596.389 208.083 L579.299 198.231 L562.208 186.087 L545.118 175.271 L528.028 169.456  Z" fill="#414141" fill-rule="evenodd" fill-opacity="0.5"/>
<polyline clip-path="url(#clip442)" style="stroke:#414141; stroke-linecap:round; stroke-linejoin:round; stroke-width:0; stroke-opacity:1; fill:none" points="528.028,178.148 545.118,182.194 562.208,188.311 579.299,195.536 596.389,202.48 613.479,208.335 630.57,209.701 647.66,207.095 664.75,198.009 681.841,186.344 698.931,178.692 716.021,173.963 733.112,171.84 750.202,172.625 767.292,174.96 784.383,177.614 801.473,178.875 818.563,179.45 835.654,178.944 852.744,179.167 869.834,179.369 886.925,179.302 904.015,177.352 921.105,174.676 938.195,173.609 955.286,178.001 972.376,184.52 989.466,192.181 1006.56,199.55 1023.65,205.839 1040.74,207.583 1057.83,205.333 1074.92,196.497 1092.01,185.012 1109.1,177.57 1126.19,173.167 1143.28,171.366 1160.37,172.405 1177.46,174.927 1194.55,177.694 1211.64,179.015 1228.73,179.655 1245.82,179.275 1262.91,179.73 1280,180.194 1297.09,180.392 1314.18,178.693 1331.27,176.249 1348.36,175.398 1365.45,180.002 1382.54,186.728 1399.63,194.591 1416.72,202.165 1433.81,208.654 1450.91,210.559 1468,208.403 1485.09,199.534 1502.18,187.916 1519.27,180.333 1536.36,175.776 1553.45,173.839 1570.54,174.764 1587.63,177.191 1604.72,179.876 1621.81,181.127 1638.9,181.725 1655.99,181.342 1673.08,181.854 1690.17,182.413 1707.26,182.714 1724.35,181.11 1741.44,178.755 1758.53,177.988 1775.62,182.681 1792.71,189.497 1809.8,197.453 1826.89,205.119 1843.98,211.699 1861.07,213.69 1878.16,211.583 1895.25,202.729 1912.34,191.061 1929.43,183.355 1946.52,178.668 1963.61,176.594 1980.71,177.395 1997.8,179.716 2014.89,182.295 2031.98,183.473 2049.07,184.011 2066.16,183.601 2083.25,184.119 2100.34,184.698 2117.43,185.026 2134.52,183.453 2151.61,181.125 2168.7,180.384 2185.79,185.109 2202.88,191.957 2219.97,199.949 2237.06,207.649 2254.15,214.274 2271.24,216.319 2288.33,214.27 2305.42,205.398 2322.51,193.678 2339.6,185.915 2356.69,181.132 2373.78,178.964 2390.87,179.67 2407.96,181.917 2425.05,184.425 2442.14,185.535 2459.23,186.026 2476.32,185.579 2493.42,186.07 2510.51,186.638 2527.6,186.964 2544.69,185.387 2561.78,183.06 2578.87,182.318 2595.96,187.048 2613.05,193.905 2630.14,201.905 2647.23,209.621 2664.32,216.261 2681.41,218.311 2698.5,216.307 2715.59,207.438 2732.68,195.674 2749.77,187.861 2766.86,183.01 2783.95,180.773 2801.04,181.412 2818.13,183.579 2835.22,186.032 2852.31,187.087 2869.4,187.541 2886.49,187.069 2903.58,187.544 2920.67,188.104 2937.76,188.424 2954.85,186.847 2971.94,184.516 2989.03,183.768 3006.12,188.492 3023.22,195.344 3040.31,203.343 3057.4,211.063 3074.49,217.71 3091.58,219.775 3108.67,217.733 3125.76,208.874 3142.85,197.097 3159.94,189.22 3177.03,184.331 3194.12,182.052 3211.21,182.648 3228.3,184.776 3245.39,187.184 3262.48,188.205 3279.57,188.632 3296.66,188.137 3313.75,188.601 3330.84,189.157 3347.93,189.478 3365.02,187.9 3382.11,185.563 3399.2,184.807 3416.29,189.525 3433.38,196.374 3450.47,204.369 3467.56,212.089 3484.65,218.739 3501.74,220.808 3518.83,218.764 3535.92,209.871 3553.02,198.07 3570.11,190.189 3587.2,185.262 3604.29,182.947 3621.38,183.512 3638.47,185.616 3655.56,187.998 3672.65,189.006 3689.74,189.411 3706.83,188.916 3723.92,189.384 3741.01,189.938 3758.1,190.255 3775.19,188.671 3792.28,186.329 3809.37,185.566 3826.46,190.279 3843.55,197.12 3860.64,205.112 3877.73,212.832 3894.82,219.482 3911.91,221.543 3929,219.496 3946.09,210.636 3963.18,198.849 3980.27,190.938 3997.36,185.995 4014.45,183.661 4031.54,184.201 4048.63,186.271 4065.72,188.635 4082.82,189.618 4099.91,190.005 4117,189.49 4134.09,189.947 4151.18,190.493 4168.27,190.815 4185.36,189.235 4202.45,186.89 4219.54,186.122 4236.63,190.829 4253.72,197.663 4270.81,205.651 4287.9,213.368 4304.99,220.019 4322.08,222.085 4339.17,220.045 4356.26,211.171 4373.35,199.378 4390.44,191.484 4407.53,186.527 4424.62,184.171 4441.71,184.691 4458.8,186.742 4475.89,189.085 4492.98,190.062 4510.07,190.446 4527.16,189.925 4544.25,190.377 4561.34,190.925 4578.43,191.246 4595.52,189.659 4612.62,187.314 4629.71,186.544 "/>
<path clip-path="url(#clip440)" d="M3853.78 853.161 L4607.83 853.161 L4607.83 334.761 L3853.78 334.761  Z" fill="#ffffff" fill-rule="evenodd" fill-opacity="1"/>
<polyline clip-path="url(#clip440)" style="stroke:#000000; stroke-linecap:round; stroke-linejoin:round; stroke-width:4; stroke-opacity:1; fill:none" points="3853.78,853.161 4607.83,853.161 4607.83,334.761 3853.78,334.761 3853.78,853.161 "/>
<polyline clip-path="url(#clip440)" style="stroke:#aeaeae; stroke-linecap:round; stroke-linejoin:round; stroke-width:2; stroke-opacity:1; fill:none" points="3902.09,464.361 4191.94,464.361 "/>
<path clip-path="url(#clip440)" d="M4241.93 497.723 L4261.03 497.723 L4261.03 431.809 L4240.25 435.976 L4240.25 425.328 L4260.91 421.161 L4272.6 421.161 L4272.6 497.723 L4291.7 497.723 L4291.7 507.561 L4241.93 507.561 L4241.93 497.723 Z" fill="#000000" fill-rule="nonzero" fill-opacity="1" /><path clip-path="url(#clip440)" d="M4340.31 428.858 Q4331.28 428.858 4326.71 437.77 Q4322.2 446.624 4322.2 464.448 Q4322.2 482.214 4326.71 491.126 Q4331.28 499.98 4340.31 499.98 Q4349.4 499.98 4353.91 491.126 Q4358.48 482.214 4358.48 464.448 Q4358.48 446.624 4353.91 437.77 Q4349.4 428.858 4340.31 428.858 M4340.31 419.599 Q4354.83 419.599 4362.47 431.115 Q4370.17 442.573 4370.17 464.448 Q4370.17 486.265 4362.47 497.781 Q4354.83 509.239 4340.31 509.239 Q4325.78 509.239 4318.09 497.781 Q4310.45 486.265 4310.45 464.448 Q4310.45 442.573 4318.09 431.115 Q4325.78 419.599 4340.31 419.599 Z" fill="#000000" fill-rule="nonzero" fill-opacity="1" /><path clip-path="url(#clip440)" d="M4415.71 428.858 Q4406.69 428.858 4402.11 437.77 Q4397.6 446.624 4397.6 464.448 Q4397.6 482.214 4402.11 491.126 Q4406.69 499.98 4415.71 499.98 Q4424.8 499.98 4429.31 491.126 Q4433.89 482.214 4433.89 464.448 Q4433.89 446.624 4429.31 437.77 Q4424.8 428.858 4415.71 428.858 M4415.71 419.599 Q4430.24 419.599 4437.88 431.115 Q4445.58 442.573 4445.58 464.448 Q4445.58 486.265 4437.88 497.781 Q4430.24 509.239 4415.71 509.239 Q4401.19 509.239 4393.49 497.781 Q4385.85 486.265 4385.85 464.448 Q4385.85 442.573 4393.49 431.115 Q4401.19 419.599 4415.71 419.599 Z" fill="#000000" fill-rule="nonzero" fill-opacity="1" /><path clip-path="url(#clip440)" d="M4539.61 469.541 Q4534.58 469.541 4531.69 473.823 Q4528.85 478.105 4528.85 485.744 Q4528.85 493.267 4531.69 497.608 Q4534.58 501.89 4539.61 501.89 Q4544.53 501.89 4547.37 497.608 Q4550.26 493.267 4550.26 485.744 Q4550.26 478.163 4547.37 473.881 Q4544.53 469.541 4539.61 469.541 M4539.61 462.191 Q4548.76 462.191 4554.14 468.557 Q4559.52 474.923 4559.52 485.744 Q4559.52 496.566 4554.08 502.932 Q4548.7 509.239 4539.61 509.239 Q4530.35 509.239 4524.97 502.932 Q4519.59 496.566 4519.59 485.744 Q4519.59 474.865 4524.97 468.557 Q4530.41 462.191 4539.61 462.191 M4479.89 426.948 Q4474.92 426.948 4472.02 431.289 Q4469.19 435.571 4469.19 443.094 Q4469.19 450.733 4472.02 455.015 Q4474.86 459.298 4479.89 459.298 Q4484.93 459.298 4487.76 455.015 Q4490.66 450.733 4490.66 443.094 Q4490.66 435.629 4487.76 431.289 Q4484.87 426.948 4479.89 426.948 M4532.15 419.599 L4541.41 419.599 L4487.36 509.239 L4478.1 509.239 L4532.15 419.599 M4479.89 419.599 Q4489.04 419.599 4494.48 425.964 Q4499.92 432.272 4499.92 443.094 Q4499.92 454.031 4494.48 460.339 Q4489.09 466.647 4479.89 466.647 Q4470.69 466.647 4465.31 460.339 Q4459.98 453.974 4459.98 443.094 Q4459.98 432.33 4465.37 425.964 Q4470.75 419.599 4479.89 419.599 Z" fill="#000000" fill-rule="nonzero" fill-opacity="1" /><polyline clip-path="url(#clip440)" style="stroke:#757575; stroke-linecap:round; stroke-linejoin:round; stroke-width:2; stroke-opacity:1; fill:none" points="3902.09,593.961 4191.94,593.961 "/>
<path clip-path="url(#clip440)" d="M4245.81 635.367 L4245.81 624.719 Q4250.21 626.803 4254.72 627.902 Q4259.23 629.002 4263.57 629.002 Q4275.15 629.002 4281.22 621.247 Q4287.36 613.435 4288.23 597.578 Q4284.87 602.555 4279.72 605.217 Q4274.57 607.879 4268.32 607.879 Q4255.36 607.879 4247.78 600.067 Q4240.25 592.196 4240.25 578.597 Q4240.25 565.287 4248.12 557.243 Q4255.99 549.199 4269.07 549.199 Q4284.06 549.199 4291.93 560.715 Q4299.86 572.173 4299.86 594.048 Q4299.86 614.476 4290.14 626.687 Q4280.47 638.839 4264.09 638.839 Q4259.7 638.839 4255.18 637.971 Q4250.67 637.103 4245.81 635.367 M4269.07 598.736 Q4276.94 598.736 4281.51 593.354 Q4286.14 587.972 4286.14 578.597 Q4286.14 569.28 4281.51 563.898 Q4276.94 558.458 4269.07 558.458 Q4261.2 558.458 4256.57 563.898 Q4252 569.28 4252 578.597 Q4252 587.972 4256.57 593.354 Q4261.2 598.736 4269.07 598.736 Z" fill="#000000" fill-rule="nonzero" fill-opacity="1" /><path clip-path="url(#clip440)" d="M4345.87 558.458 Q4336.84 558.458 4332.27 567.37 Q4327.75 576.224 4327.75 594.048 Q4327.75 611.814 4332.27 620.726 Q4336.84 629.58 4345.87 629.58 Q4354.95 629.58 4359.46 620.726 Q4364.04 611.814 4364.04 594.048 Q4364.04 576.224 4359.46 567.37 Q4354.95 558.458 4345.87 558.458 M4345.87 549.199 Q4360.39 549.199 4368.03 560.715 Q4375.73 572.173 4375.73 594.048 Q4375.73 615.865 4368.03 627.381 Q4360.39 638.839 4345.87 638.839 Q4331.34 638.839 4323.64 627.381 Q4316 615.865 4316 594.048 Q4316 572.173 4323.64 560.715 Q4331.34 549.199 4345.87 549.199 Z" fill="#000000" fill-rule="nonzero" fill-opacity="1" /><path clip-path="url(#clip440)" d="M4469.76 599.141 Q4464.73 599.141 4461.84 603.423 Q4459 607.705 4459 615.344 Q4459 622.867 4461.84 627.208 Q4464.73 631.49 4469.76 631.49 Q4474.68 631.49 4477.52 627.208 Q4480.41 622.867 4480.41 615.344 Q4480.41 607.763 4477.52 603.481 Q4474.68 599.141 4469.76 599.141 M4469.76 591.791 Q4478.91 591.791 4484.29 598.157 Q4489.67 604.523 4489.67 615.344 Q4489.67 626.166 4484.23 632.532 Q4478.85 638.839 4469.76 638.839 Q4460.51 638.839 4455.12 632.532 Q4449.74 626.166 4449.74 615.344 Q4449.74 604.465 4455.12 598.157 Q4460.56 591.791 4469.76 591.791 M4410.04 556.548 Q4405.07 556.548 4402.17 560.889 Q4399.34 565.171 4399.34 572.694 Q4399.34 580.333 4402.17 584.615 Q4405.01 588.898 4410.04 588.898 Q4415.08 588.898 4417.91 584.615 Q4420.81 580.333 4420.81 572.694 Q4420.81 565.229 4417.91 560.889 Q4415.02 556.548 4410.04 556.548 M4462.3 549.199 L4471.56 549.199 L4417.51 638.839 L4408.25 638.839 L4462.3 549.199 M4410.04 549.199 Q4419.19 549.199 4424.63 555.564 Q4430.07 561.872 4430.07 572.694 Q4430.07 583.631 4424.63 589.939 Q4419.24 596.247 4410.04 596.247 Q4400.84 596.247 4395.46 589.939 Q4390.14 583.574 4390.14 572.694 Q4390.14 561.93 4395.52 555.564 Q4400.9 549.199 4410.04 549.199 Z" fill="#000000" fill-rule="nonzero" fill-opacity="1" /><polyline clip-path="url(#clip440)" style="stroke:#414141; stroke-linecap:round; stroke-linejoin:round; stroke-width:2; stroke-opacity:1; fill:none" points="3902.09,723.561 4191.94,723.561 "/>
<path clip-path="url(#clip440)" d="M4269.88 725.731 Q4261.55 725.731 4256.75 730.187 Q4252 734.643 4252 742.456 Q4252 750.268 4256.75 754.724 Q4261.55 759.18 4269.88 759.18 Q4278.21 759.18 4283.02 754.724 Q4287.82 750.21 4287.82 742.456 Q4287.82 734.643 4283.02 730.187 Q4278.27 725.731 4269.88 725.731 M4258.19 720.755 Q4250.67 718.903 4246.44 713.752 Q4242.28 708.602 4242.28 701.194 Q4242.28 690.836 4249.63 684.817 Q4257.03 678.799 4269.88 678.799 Q4282.79 678.799 4290.14 684.817 Q4297.49 690.836 4297.49 701.194 Q4297.49 708.602 4293.26 713.752 Q4289.09 718.903 4281.63 720.755 Q4290.08 722.722 4294.77 728.451 Q4299.51 734.18 4299.51 742.456 Q4299.51 755.014 4291.81 761.727 Q4284.18 768.439 4269.88 768.439 Q4255.59 768.439 4247.89 761.727 Q4240.25 755.014 4240.25 742.456 Q4240.25 734.18 4245 728.451 Q4249.74 722.722 4258.19 720.755 M4253.91 702.294 Q4253.91 709.007 4258.08 712.768 Q4262.3 716.53 4269.88 716.53 Q4277.4 716.53 4281.63 712.768 Q4285.91 709.007 4285.91 702.294 Q4285.91 695.581 4281.63 691.82 Q4277.4 688.058 4269.88 688.058 Q4262.3 688.058 4258.08 691.82 Q4253.91 695.581 4253.91 702.294 Z" fill="#000000" fill-rule="nonzero" fill-opacity="1" /><path clip-path="url(#clip440)" d="M4345.29 688.058 Q4336.26 688.058 4331.69 696.97 Q4327.17 705.824 4327.17 723.648 Q4327.17 741.414 4331.69 750.326 Q4336.26 759.18 4345.29 759.18 Q4354.37 759.18 4358.89 750.326 Q4363.46 741.414 4363.46 723.648 Q4363.46 705.824 4358.89 696.97 Q4354.37 688.058 4345.29 688.058 M4345.29 678.799 Q4359.81 678.799 4367.45 690.315 Q4375.15 701.773 4375.15 723.648 Q4375.15 745.465 4367.45 756.981 Q4359.81 768.439 4345.29 768.439 Q4330.76 768.439 4323.06 756.981 Q4315.43 745.465 4315.43 723.648 Q4315.43 701.773 4323.06 690.315 Q4330.76 678.799 4345.29 678.799 Z" fill="#000000" fill-rule="nonzero" fill-opacity="1" /><path clip-path="url(#clip440)" d="M4469.19 728.741 Q4464.15 728.741 4461.26 733.023 Q4458.42 737.305 4458.42 744.944 Q4458.42 752.467 4461.26 756.808 Q4464.15 761.09 4469.19 761.09 Q4474.11 761.09 4476.94 756.808 Q4479.83 752.467 4479.83 744.944 Q4479.83 737.363 4476.94 733.081 Q4474.11 728.741 4469.19 728.741 M4469.19 721.391 Q4478.33 721.391 4483.71 727.757 Q4489.09 734.123 4489.09 744.944 Q4489.09 755.766 4483.65 762.132 Q4478.27 768.439 4469.19 768.439 Q4459.93 768.439 4454.55 762.132 Q4449.16 755.766 4449.16 744.944 Q4449.16 734.065 4454.55 727.757 Q4459.98 721.391 4469.19 721.391 M4409.46 686.148 Q4404.49 686.148 4401.59 690.489 Q4398.76 694.771 4398.76 702.294 Q4398.76 709.933 4401.59 714.215 Q4404.43 718.498 4409.46 718.498 Q4414.5 718.498 4417.33 714.215 Q4420.23 709.933 4420.23 702.294 Q4420.23 694.829 4417.33 690.489 Q4414.44 686.148 4409.46 686.148 M4461.72 678.799 L4470.98 678.799 L4416.93 768.439 L4407.67 768.439 L4461.72 678.799 M4409.46 678.799 Q4418.61 678.799 4424.05 685.164 Q4429.49 691.472 4429.49 702.294 Q4429.49 713.231 4424.05 719.539 Q4418.67 725.847 4409.46 725.847 Q4400.26 725.847 4394.88 719.539 Q4389.56 713.174 4389.56 702.294 Q4389.56 691.53 4394.94 685.164 Q4400.32 678.799 4409.46 678.799 Z" fill="#000000" fill-rule="nonzero" fill-opacity="1" /></svg>
