<?xml version="1.0" encoding="utf-8"?>
<svg xmlns="http://www.w3.org/2000/svg" xmlns:xlink="http://www.w3.org/1999/xlink" width="1200" height="300" viewBox="0 0 4800 1200">
<defs>
  <clipPath id="clip350">
    <rect x="0" y="0" width="4800" height="1200"/>
  </clipPath>
</defs>
<path clip-path="url(#clip350)" d="M0 1200 L4800 1200 L4800 0 L0 0  Z" fill="#ffffff" fill-rule="evenodd" fill-opacity="1"/>
<defs>
  <clipPath id="clip351">
    <rect x="960" y="0" width="3361" height="1200"/>
  </clipPath>
</defs>
<path clip-path="url(#clip350)" d="M404.977 880.951 L4752.76 880.951 L4752.76 47.2441 L404.977 47.2441  Z" fill="#ffffff" fill-rule="evenodd" fill-opacity="1"/>
<defs>
  <clipPath id="clip352">
    <rect x="404" y="47" width="4349" height="835"/>
  </clipPath>
</defs>
<polyline clip-path="url(#clip352)" style="stroke:#000000; stroke-linecap:round; stroke-linejoin:round; stroke-width:2; stroke-opacity:0.1; fill:none" points="528.028,880.951 528.028,47.2441 "/>
<polyline clip-path="url(#clip352)" style="stroke:#000000; stroke-linecap:round; stroke-linejoin:round; stroke-width:2; stroke-opacity:0.1; fill:none" points="1348.36,880.951 1348.36,47.2441 "/>
<polyline clip-path="url(#clip352)" style="stroke:#000000; stroke-linecap:round; stroke-linejoin:round; stroke-width:2; stroke-opacity:0.1; fill:none" points="2168.7,880.951 2168.7,47.2441 "/>
<polyline clip-path="url(#clip352)" style="stroke:#000000; stroke-linecap:round; stroke-linejoin:round; stroke-width:2; stroke-opacity:0.1; fill:none" points="2989.03,880.951 2989.03,47.2441 "/>
<polyline clip-path="url(#clip352)" style="stroke:#000000; stroke-linecap:round; stroke-linejoin:round; stroke-width:2; stroke-opacity:0.1; fill:none" points="3809.37,880.951 3809.37,47.2441 "/>
<polyline clip-path="url(#clip352)" style="stroke:#000000; stroke-linecap:round; stroke-linejoin:round; stroke-width:2; stroke-opacity:0.1; fill:none" points="4629.71,880.951 4629.71,47.2441 "/>
<polyline clip-path="url(#clip352)" style="stroke:#000000; stroke-linecap:round; stroke-linejoin:round; stroke-width:2; stroke-opacity:0.1; fill:none" points="404.977,757.712 4752.76,757.712 "/>
<polyline clip-path="url(#clip352)" style="stroke:#000000; stroke-linecap:round; stroke-linejoin:round; stroke-width:2; stroke-opacity:0.1; fill:none" points="404.977,614.116 4752.76,614.116 "/>
<polyline clip-path="url(#clip352)" style="stroke:#000000; stroke-linecap:round; stroke-linejoin:round; stroke-width:2; stroke-opacity:0.1; fill:none" points="404.977,470.521 4752.76,470.521 "/>
<polyline clip-path="url(#clip352)" style="stroke:#000000; stroke-linecap:round; stroke-linejoin:round; stroke-width:2; stroke-opacity:0.1; fill:none" points="404.977,326.926 4752.76,326.926 "/>
<polyline clip-path="url(#clip352)" style="stroke:#000000; stroke-linecap:round; stroke-linejoin:round; stroke-width:2; stroke-opacity:0.1; fill:none" points="404.977,183.33 4752.76,183.33 "/>
<polyline clip-path="url(#clip350)" style="stroke:#000000; stroke-linecap:round; stroke-linejoin:round; stroke-width:4; stroke-opacity:1; fill:none" points="404.977,880.951 4752.76,880.951 "/>
<polyline clip-path="url(#clip350)" style="stroke:#000000; stroke-linecap:round; stroke-linejoin:round; stroke-width:4; stroke-opacity:1; fill:none" points="528.028,880.951 528.028,862.054 "/>
<polyline clip-path="url(#clip350)" style="stroke:#000000; stroke-linecap:round; stroke-linejoin:round; stroke-width:4; stroke-opacity:1; fill:none" points="1348.36,880.951 1348.36,862.054 "/>
<polyline clip-path="url(#clip350)" style="stroke:#000000; stroke-linecap:round; stroke-linejoin:round; stroke-width:4; stroke-opacity:1; fill:none" points="2168.7,880.951 2168.7,862.054 "/>
<polyline clip-path="url(#clip350)" style="stroke:#000000; stroke-linecap:round; stroke-linejoin:round; stroke-width:4; stroke-opacity:1; fill:none" points="2989.03,880.951 2989.03,862.054 "/>
<polyline clip-path="url(#clip350)" style="stroke:#000000; stroke-linecap:round; stroke-linejoin:round; stroke-width:4; stroke-opacity:1; fill:none" points="3809.37,880.951 3809.37,862.054 "/>
<polyline clip-path="url(#clip350)" style="stroke:#000000; stroke-linecap:round; stroke-linejoin:round; stroke-width:4; stroke-opacity:1; fill:none" points="4629.71,880.951 4629.71,862.054 "/>
<path clip-path="url(#clip350)" d="M528.028 942.789 Q520.806 942.789 517.148 949.918 Q513.537 957.002 513.537 971.261 Q513.537 985.474 517.148 992.603 Q520.806 999.687 528.028 999.687 Q535.296 999.687 538.907 992.603 Q542.565 985.474 542.565 971.261 Q542.565 957.002 538.907 949.918 Q535.296 942.789 528.028 942.789 M528.028 935.382 Q539.648 935.382 545.759 944.594 Q551.916 953.761 551.916 971.261 Q551.916 988.715 545.759 997.927 Q539.648 1007.09 528.028 1007.09 Q516.407 1007.09 510.25 997.927 Q504.139 988.715 504.139 971.261 Q504.139 953.761 510.25 944.594 Q516.407 935.382 528.028 935.382 Z" fill="#000000" fill-rule="nonzero" fill-opacity="1" /><path clip-path="url(#clip350)" d="M1337.67 997.881 L1370.31 997.881 L1370.31 1005.75 L1326.42 1005.75 L1326.42 997.881 Q1331.74 992.372 1340.91 983.113 Q1350.12 973.807 1352.48 971.122 Q1356.97 966.076 1358.73 962.604 Q1360.54 959.085 1360.54 955.705 Q1360.54 950.196 1356.65 946.724 Q1352.81 943.252 1346.6 943.252 Q1342.21 943.252 1337.3 944.78 Q1332.44 946.307 1326.88 949.409 L1326.88 939.965 Q1332.53 937.696 1337.44 936.539 Q1342.34 935.382 1346.42 935.382 Q1357.16 935.382 1363.55 940.752 Q1369.94 946.122 1369.94 955.104 Q1369.94 959.363 1368.32 963.205 Q1366.74 967.002 1362.53 972.187 Q1361.37 973.529 1355.17 979.965 Q1348.97 986.353 1337.67 997.881 Z" fill="#000000" fill-rule="nonzero" fill-opacity="1" /><path clip-path="url(#clip350)" d="M2174.72 944.78 L2151.11 981.678 L2174.72 981.678 L2174.72 944.78 M2172.26 936.631 L2184.02 936.631 L2184.02 981.678 L2193.88 981.678 L2193.88 989.455 L2184.02 989.455 L2184.02 1005.75 L2174.72 1005.75 L2174.72 989.455 L2143.51 989.455 L2143.51 980.428 L2172.26 936.631 Z" fill="#000000" fill-rule="nonzero" fill-opacity="1" /><path clip-path="url(#clip350)" d="M2989.84 967.465 Q2983.55 967.465 2979.84 971.77 Q2976.19 976.076 2976.19 983.576 Q2976.19 991.029 2979.84 995.381 Q2983.55 999.687 2989.84 999.687 Q2996.14 999.687 2999.8 995.381 Q3003.5 991.029 3003.5 983.576 Q3003.5 976.076 2999.8 971.77 Q2996.14 967.465 2989.84 967.465 M3008.41 938.159 L3008.41 946.678 Q3004.89 945.011 3001.28 944.131 Q2997.71 943.252 2994.2 943.252 Q2984.94 943.252 2980.03 949.502 Q2975.17 955.752 2974.47 968.391 Q2977.21 964.363 2981.33 962.233 Q2985.45 960.057 2990.4 960.057 Q3000.82 960.057 3006.84 966.4 Q3012.9 972.696 3012.9 983.576 Q3012.9 994.224 3006.6 1000.66 Q3000.31 1007.09 2989.84 1007.09 Q2977.85 1007.09 2971.51 997.927 Q2965.17 988.715 2965.17 971.261 Q2965.17 954.872 2972.95 945.15 Q2980.72 935.382 2993.83 935.382 Q2997.34 935.382 3000.91 936.076 Q3004.52 936.77 3008.41 938.159 Z" fill="#000000" fill-rule="nonzero" fill-opacity="1" /><path clip-path="url(#clip350)" d="M3809.37 972.928 Q3802.7 972.928 3798.86 976.492 Q3795.06 980.057 3795.06 986.307 Q3795.06 992.557 3798.86 996.122 Q3802.7 999.687 3809.37 999.687 Q3816.04 999.687 3819.88 996.122 Q3823.72 992.511 3823.72 986.307 Q3823.72 980.057 3819.88 976.492 Q3816.08 972.928 3809.37 972.928 M3800.02 968.946 Q3794 967.465 3790.62 963.344 Q3787.29 959.224 3787.29 953.298 Q3787.29 945.011 3793.17 940.196 Q3799.09 935.382 3809.37 935.382 Q3819.69 935.382 3825.57 940.196 Q3831.45 945.011 3831.45 953.298 Q3831.45 959.224 3828.07 963.344 Q3824.74 967.465 3818.77 968.946 Q3825.53 970.52 3829.28 975.104 Q3833.07 979.687 3833.07 986.307 Q3833.07 996.353 3826.92 1001.72 Q3820.81 1007.09 3809.37 1007.09 Q3797.93 1007.09 3791.78 1001.72 Q3785.67 996.353 3785.67 986.307 Q3785.67 979.687 3789.46 975.104 Q3793.26 970.52 3800.02 968.946 M3796.59 954.178 Q3796.59 959.548 3799.93 962.557 Q3803.31 965.567 3809.37 965.567 Q3815.39 965.567 3818.77 962.557 Q3822.19 959.548 3822.19 954.178 Q3822.19 948.807 3818.77 945.798 Q3815.39 942.789 3809.37 942.789 Q3803.31 942.789 3799.93 945.798 Q3796.59 948.807 3796.59 954.178 Z" fill="#000000" fill-rule="nonzero" fill-opacity="1" /><path clip-path="url(#clip350)" d="M4579.08 997.881 L4594.36 997.881 L4594.36 945.15 L4577.74 948.483 L4577.74 939.965 L4594.27 936.631 L4603.62 936.631 L4603.62 997.881 L4618.9 997.881 L4618.9 1005.75 L4579.08 1005.75 L4579.08 997.881 Z" fill="#000000" fill-rule="nonzero" fill-opacity="1" /><path clip-path="url(#clip350)" d="M4657.78 942.789 Q4650.56 942.789 4646.9 949.918 Q4643.29 957.002 4643.29 971.261 Q4643.29 985.474 4646.9 992.603 Q4650.56 999.687 4657.78 999.687 Q4665.05 999.687 4668.66 992.603 Q4672.32 985.474 4672.32 971.261 Q4672.32 957.002 4668.66 949.918 Q4665.05 942.789 4657.78 942.789 M4657.78 935.382 Q4669.4 935.382 4675.52 944.594 Q4681.67 953.761 4681.67 971.261 Q4681.67 988.715 4675.52 997.927 Q4669.4 1007.09 4657.78 1007.09 Q4646.16 1007.09 4640.01 997.927 Q4633.9 988.715 4633.9 971.261 Q4633.9 953.761 4640.01 944.594 Q4646.16 935.382 4657.78 935.382 Z" fill="#000000" fill-rule="nonzero" fill-opacity="1" /><path clip-path="url(#clip350)" d="M2296.11 1072.18 L2361.89 1072.18 L2361.89 1081.04 L2334.28 1081.04 L2334.28 1149.94 L2323.71 1149.94 L2323.71 1081.04 L2296.11 1081.04 L2296.11 1072.18 Z" fill="#000000" fill-rule="nonzero" fill-opacity="1" /><path clip-path="url(#clip350)" d="M2368.35 1091.61 L2377.93 1091.61 L2377.93 1149.94 L2368.35 1149.94 L2368.35 1091.61 M2368.35 1068.9 L2377.93 1068.9 L2377.93 1081.04 L2368.35 1081.04 L2368.35 1068.9 Z" fill="#000000" fill-rule="nonzero" fill-opacity="1" /><path clip-path="url(#clip350)" d="M2443.4 1102.81 Q2446.99 1096.35 2451.99 1093.28 Q2456.99 1090.2 2463.76 1090.2 Q2472.88 1090.2 2477.83 1096.61 Q2482.77 1102.96 2482.77 1114.74 L2482.77 1149.94 L2473.14 1149.94 L2473.14 1115.05 Q2473.14 1106.66 2470.17 1102.6 Q2467.2 1098.54 2461.11 1098.54 Q2453.66 1098.54 2449.34 1103.49 Q2445.01 1108.43 2445.01 1116.97 L2445.01 1149.94 L2435.38 1149.94 L2435.38 1115.05 Q2435.38 1106.61 2432.41 1102.6 Q2429.44 1098.54 2423.24 1098.54 Q2415.9 1098.54 2411.58 1103.54 Q2407.25 1108.49 2407.25 1116.97 L2407.25 1149.94 L2397.62 1149.94 L2397.62 1091.61 L2407.25 1091.61 L2407.25 1100.67 Q2410.53 1095.31 2415.12 1092.76 Q2419.7 1090.2 2426 1090.2 Q2432.36 1090.2 2436.78 1093.43 Q2441.26 1096.66 2443.4 1102.81 Z" fill="#000000" fill-rule="nonzero" fill-opacity="1" /><path clip-path="url(#clip350)" d="M2551.78 1118.38 L2551.78 1123.07 L2507.72 1123.07 Q2508.35 1132.96 2513.66 1138.17 Q2519.02 1143.33 2528.55 1143.33 Q2534.08 1143.33 2539.23 1141.97 Q2544.44 1140.62 2549.54 1137.91 L2549.54 1146.97 Q2544.39 1149.16 2538.97 1150.31 Q2533.55 1151.45 2527.98 1151.45 Q2514.02 1151.45 2505.85 1143.33 Q2497.72 1135.2 2497.72 1121.35 Q2497.72 1107.03 2505.43 1098.64 Q2513.19 1090.2 2526.31 1090.2 Q2538.09 1090.2 2544.91 1097.81 Q2551.78 1105.36 2551.78 1118.38 M2542.2 1115.57 Q2542.1 1107.7 2537.77 1103.02 Q2533.5 1098.33 2526.42 1098.33 Q2518.4 1098.33 2513.55 1102.86 Q2508.76 1107.39 2508.03 1115.62 L2542.2 1115.57 Z" fill="#000000" fill-rule="nonzero" fill-opacity="1" /><path clip-path="url(#clip350)" d="M2624.44 1069.01 Q2617.46 1080.99 2614.07 1092.7 Q2610.69 1104.42 2610.69 1116.45 Q2610.69 1128.49 2614.07 1140.31 Q2617.51 1152.08 2624.44 1164.01 L2616.11 1164.01 Q2608.29 1151.77 2604.39 1139.94 Q2600.53 1128.12 2600.53 1116.45 Q2600.53 1104.84 2604.39 1093.07 Q2608.24 1081.3 2616.11 1069.01 L2624.44 1069.01 Z" fill="#000000" fill-rule="nonzero" fill-opacity="1" /><path clip-path="url(#clip350)" d="M2681.42 1100.46 L2681.42 1068.9 L2691 1068.9 L2691 1149.94 L2681.42 1149.94 L2681.42 1141.19 Q2678.4 1146.4 2673.76 1148.95 Q2669.18 1151.45 2662.72 1151.45 Q2652.15 1151.45 2645.48 1143.02 Q2638.87 1134.58 2638.87 1120.83 Q2638.87 1107.08 2645.48 1098.64 Q2652.15 1090.2 2662.72 1090.2 Q2669.18 1090.2 2673.76 1092.76 Q2678.4 1095.26 2681.42 1100.46 M2648.76 1120.83 Q2648.76 1131.4 2653.08 1137.44 Q2657.46 1143.43 2665.06 1143.43 Q2672.67 1143.43 2677.04 1137.44 Q2681.42 1131.4 2681.42 1120.83 Q2681.42 1110.26 2677.04 1104.27 Q2672.67 1098.23 2665.06 1098.23 Q2657.46 1098.23 2653.08 1104.27 Q2648.76 1110.26 2648.76 1120.83 Z" fill="#000000" fill-rule="nonzero" fill-opacity="1" /><path clip-path="url(#clip350)" d="M2737.25 1120.62 Q2725.64 1120.62 2721.16 1123.28 Q2716.68 1125.93 2716.68 1132.34 Q2716.68 1137.44 2720.01 1140.46 Q2723.4 1143.43 2729.18 1143.43 Q2737.15 1143.43 2741.94 1137.81 Q2746.78 1132.13 2746.78 1122.76 L2746.78 1120.62 L2737.25 1120.62 M2756.37 1116.66 L2756.37 1149.94 L2746.78 1149.94 L2746.78 1141.09 Q2743.5 1146.4 2738.61 1148.95 Q2733.71 1151.45 2726.63 1151.45 Q2717.67 1151.45 2712.36 1146.45 Q2707.1 1141.4 2707.1 1132.96 Q2707.1 1123.12 2713.66 1118.12 Q2720.27 1113.12 2733.34 1113.12 L2746.78 1113.12 L2746.78 1112.18 Q2746.78 1105.57 2742.41 1101.98 Q2738.08 1098.33 2730.22 1098.33 Q2725.22 1098.33 2720.48 1099.53 Q2715.74 1100.73 2711.37 1103.12 L2711.37 1094.27 Q2716.63 1092.24 2721.57 1091.25 Q2726.52 1090.2 2731.21 1090.2 Q2743.87 1090.2 2750.12 1096.77 Q2756.37 1103.33 2756.37 1116.66 Z" fill="#000000" fill-rule="nonzero" fill-opacity="1" /><path clip-path="url(#clip350)" d="M2800.38 1155.36 Q2796.31 1165.78 2792.46 1168.95 Q2788.61 1172.13 2782.15 1172.13 L2774.49 1172.13 L2774.49 1164.11 L2780.12 1164.11 Q2784.07 1164.11 2786.26 1162.24 Q2788.45 1160.36 2791.11 1153.38 L2792.82 1149.01 L2769.23 1091.61 L2779.39 1091.61 L2797.62 1137.24 L2815.84 1091.61 L2826 1091.61 L2800.38 1155.36 Z" fill="#000000" fill-rule="nonzero" fill-opacity="1" /><path clip-path="url(#clip350)" d="M2837.72 1069.01 L2846.05 1069.01 Q2853.87 1081.3 2857.72 1093.07 Q2861.63 1104.84 2861.63 1116.45 Q2861.63 1128.12 2857.72 1139.94 Q2853.87 1151.77 2846.05 1164.01 L2837.72 1164.01 Q2844.65 1152.08 2848.03 1140.31 Q2851.47 1128.49 2851.47 1116.45 Q2851.47 1104.42 2848.03 1092.7 Q2844.65 1080.99 2837.72 1069.01 Z" fill="#000000" fill-rule="nonzero" fill-opacity="1" /><polyline clip-path="url(#clip350)" style="stroke:#000000; stroke-linecap:round; stroke-linejoin:round; stroke-width:4; stroke-opacity:1; fill:none" points="404.977,880.951 404.977,47.2441 "/>
<polyline clip-path="url(#clip350)" style="stroke:#000000; stroke-linecap:round; stroke-linejoin:round; stroke-width:4; stroke-opacity:1; fill:none" points="404.977,757.712 423.875,757.712 "/>
<polyline clip-path="url(#clip350)" style="stroke:#000000; stroke-linecap:round; stroke-linejoin:round; stroke-width:4; stroke-opacity:1; fill:none" points="404.977,614.116 423.875,614.116 "/>
<polyline clip-path="url(#clip350)" style="stroke:#000000; stroke-linecap:round; stroke-linejoin:round; stroke-width:4; stroke-opacity:1; fill:none" points="404.977,470.521 423.875,470.521 "/>
<polyline clip-path="url(#clip350)" style="stroke:#000000; stroke-linecap:round; stroke-linejoin:round; stroke-width:4; stroke-opacity:1; fill:none" points="404.977,326.926 423.875,326.926 "/>
<polyline clip-path="url(#clip350)" style="stroke:#000000; stroke-linecap:round; stroke-linejoin:round; stroke-width:4; stroke-opacity:1; fill:none" points="404.977,183.33 423.875,183.33 "/>
<path clip-path="url(#clip350)" d="M149.228 758.614 L208.58 758.614 L208.58 766.485 L149.228 766.485 L149.228 758.614 Z" fill="#000000" fill-rule="nonzero" fill-opacity="1" /><path clip-path="url(#clip350)" d="M248.765 759.448 Q242.098 759.448 238.256 763.013 Q234.459 766.577 234.459 772.827 Q234.459 779.077 238.256 782.642 Q242.098 786.207 248.765 786.207 Q255.431 786.207 259.274 782.642 Q263.117 779.031 263.117 772.827 Q263.117 766.577 259.274 763.013 Q255.478 759.448 248.765 759.448 M239.413 755.466 Q233.395 753.985 230.015 749.864 Q226.682 745.744 226.682 739.818 Q226.682 731.531 232.561 726.716 Q238.487 721.902 248.765 721.902 Q259.089 721.902 264.968 726.716 Q270.848 731.531 270.848 739.818 Q270.848 745.744 267.468 749.864 Q264.135 753.985 258.163 755.466 Q264.922 757.04 268.672 761.624 Q272.468 766.207 272.468 772.827 Q272.468 782.874 266.311 788.244 Q260.2 793.614 248.765 793.614 Q237.33 793.614 231.172 788.244 Q225.061 782.874 225.061 772.827 Q225.061 766.207 228.858 761.624 Q232.654 757.04 239.413 755.466 M235.987 740.698 Q235.987 746.068 239.32 749.077 Q242.7 752.087 248.765 752.087 Q254.783 752.087 258.163 749.077 Q261.589 746.068 261.589 740.698 Q261.589 735.327 258.163 732.318 Q254.783 729.309 248.765 729.309 Q242.7 729.309 239.32 732.318 Q235.987 735.327 235.987 740.698 Z" fill="#000000" fill-rule="nonzero" fill-opacity="1" /><path clip-path="url(#clip350)" d="M309.089 729.309 Q301.866 729.309 298.209 736.439 Q294.598 743.522 294.598 757.781 Q294.598 771.994 298.209 779.124 Q301.866 786.207 309.089 786.207 Q316.357 786.207 319.968 779.124 Q323.626 771.994 323.626 757.781 Q323.626 743.522 319.968 736.439 Q316.357 729.309 309.089 729.309 M309.089 721.902 Q320.709 721.902 326.82 731.115 Q332.977 740.281 332.977 757.781 Q332.977 775.235 326.82 784.448 Q320.709 793.614 309.089 793.614 Q297.468 793.614 291.311 784.448 Q285.2 775.235 285.2 757.781 Q285.2 740.281 291.311 731.115 Q297.468 721.902 309.089 721.902 Z" fill="#000000" fill-rule="nonzero" fill-opacity="1" /><path clip-path="url(#clip350)" d="M149.228 615.019 L208.58 615.019 L208.58 622.889 L149.228 622.889 L149.228 615.019 Z" fill="#000000" fill-rule="nonzero" fill-opacity="1" /><path clip-path="url(#clip350)" d="M249.922 610.389 Q243.626 610.389 239.922 614.695 Q236.265 619.001 236.265 626.5 Q236.265 633.954 239.922 638.306 Q243.626 642.612 249.922 642.612 Q256.219 642.612 259.876 638.306 Q263.58 633.954 263.58 626.5 Q263.58 619.001 259.876 614.695 Q256.219 610.389 249.922 610.389 M268.487 581.084 L268.487 589.603 Q264.968 587.936 261.357 587.056 Q257.793 586.177 254.274 586.177 Q245.015 586.177 240.107 592.427 Q235.246 598.677 234.552 611.315 Q237.283 607.288 241.404 605.158 Q245.524 602.982 250.478 602.982 Q260.894 602.982 266.913 609.325 Q272.978 615.621 272.978 626.5 Q272.978 637.149 266.681 643.584 Q260.385 650.019 249.922 650.019 Q237.932 650.019 231.589 640.852 Q225.246 631.639 225.246 614.186 Q225.246 597.797 233.024 588.075 Q240.802 578.306 253.904 578.306 Q257.422 578.306 260.987 579.001 Q264.598 579.695 268.487 581.084 Z" fill="#000000" fill-rule="nonzero" fill-opacity="1" /><path clip-path="url(#clip350)" d="M309.089 585.714 Q301.866 585.714 298.209 592.843 Q294.598 599.927 294.598 614.186 Q294.598 628.399 298.209 635.528 Q301.866 642.612 309.089 642.612 Q316.357 642.612 319.968 635.528 Q323.626 628.399 323.626 614.186 Q323.626 599.927 319.968 592.843 Q316.357 585.714 309.089 585.714 M309.089 578.306 Q320.709 578.306 326.82 587.519 Q332.977 596.686 332.977 614.186 Q332.977 631.639 326.82 640.852 Q320.709 650.019 309.089 650.019 Q297.468 650.019 291.311 640.852 Q285.2 631.639 285.2 614.186 Q285.2 596.686 291.311 587.519 Q297.468 578.306 309.089 578.306 Z" fill="#000000" fill-rule="nonzero" fill-opacity="1" /><path clip-path="url(#clip350)" d="M149.228 471.424 L208.58 471.424 L208.58 479.294 L149.228 479.294 L149.228 471.424 Z" fill="#000000" fill-rule="nonzero" fill-opacity="1" /><path clip-path="url(#clip350)" d="M254.459 444.109 L230.848 481.007 L254.459 481.007 L254.459 444.109 M252.006 435.961 L263.765 435.961 L263.765 481.007 L273.626 481.007 L273.626 488.785 L263.765 488.785 L263.765 505.081 L254.459 505.081 L254.459 488.785 L223.256 488.785 L223.256 479.757 L252.006 435.961 Z" fill="#000000" fill-rule="nonzero" fill-opacity="1" /><path clip-path="url(#clip350)" d="M309.089 442.118 Q301.866 442.118 298.209 449.248 Q294.598 456.331 294.598 470.59 Q294.598 484.803 298.209 491.933 Q301.866 499.016 309.089 499.016 Q316.357 499.016 319.968 491.933 Q323.626 484.803 323.626 470.59 Q323.626 456.331 319.968 449.248 Q316.357 442.118 309.089 442.118 M309.089 434.711 Q320.709 434.711 326.82 443.924 Q332.977 453.091 332.977 470.59 Q332.977 488.044 326.82 497.257 Q320.709 506.424 309.089 506.424 Q297.468 506.424 291.311 497.257 Q285.2 488.044 285.2 470.59 Q285.2 453.091 291.311 443.924 Q297.468 434.711 309.089 434.711 Z" fill="#000000" fill-rule="nonzero" fill-opacity="1" /><path clip-path="url(#clip350)" d="M149.228 327.828 L208.58 327.828 L208.58 335.699 L149.228 335.699 L149.228 327.828 Z" fill="#000000" fill-rule="nonzero" fill-opacity="1" /><path clip-path="url(#clip350)" d="M236.82 353.615 L269.459 353.615 L269.459 361.486 L225.571 361.486 L225.571 353.615 Q230.895 348.106 240.061 338.847 Q249.274 329.541 251.635 326.856 Q256.126 321.81 257.885 318.338 Q259.691 314.819 259.691 311.44 Q259.691 305.93 255.802 302.458 Q251.959 298.986 245.756 298.986 Q241.357 298.986 236.45 300.514 Q231.589 302.042 226.033 305.143 L226.033 295.699 Q231.682 293.43 236.589 292.273 Q241.496 291.116 245.57 291.116 Q256.311 291.116 262.7 296.486 Q269.089 301.856 269.089 310.838 Q269.089 315.097 267.468 318.94 Q265.894 322.736 261.681 327.921 Q260.524 329.264 254.32 335.699 Q248.117 342.088 236.82 353.615 Z" fill="#000000" fill-rule="nonzero" fill-opacity="1" /><path clip-path="url(#clip350)" d="M309.089 298.523 Q301.866 298.523 298.209 305.653 Q294.598 312.736 294.598 326.995 Q294.598 341.208 298.209 348.338 Q301.866 355.421 309.089 355.421 Q316.357 355.421 319.968 348.338 Q323.626 341.208 323.626 326.995 Q323.626 312.736 319.968 305.653 Q316.357 298.523 309.089 298.523 M309.089 291.116 Q320.709 291.116 326.82 300.329 Q332.977 309.495 332.977 326.995 Q332.977 344.449 326.82 353.662 Q320.709 362.828 309.089 362.828 Q297.468 362.828 291.311 353.662 Q285.2 344.449 285.2 326.995 Q285.2 309.495 291.311 300.329 Q297.468 291.116 309.089 291.116 Z" fill="#000000" fill-rule="nonzero" fill-opacity="1" /><path clip-path="url(#clip350)" d="M309.089 154.928 Q301.866 154.928 298.209 162.057 Q294.598 169.141 294.598 183.4 Q294.598 197.613 298.209 204.742 Q301.866 211.826 309.089 211.826 Q316.357 211.826 319.968 204.742 Q323.626 197.613 323.626 183.4 Q323.626 169.141 319.968 162.057 Q316.357 154.928 309.089 154.928 M309.089 147.52 Q320.709 147.52 326.82 156.733 Q332.977 165.9 332.977 183.4 Q332.977 200.853 326.82 210.066 Q320.709 219.233 309.089 219.233 Q297.468 219.233 291.311 210.066 Q285.2 200.853 285.2 183.4 Q285.2 165.9 291.311 156.733 Q297.468 147.52 309.089 147.52 Z" fill="#000000" fill-rule="nonzero" fill-opacity="1" /><path clip-path="url(#clip352)" d="M528.028 203.496 L545.118 226.98 L562.208 253.597 L579.299 282.17 L596.389 310.202 L613.479 340.933 L630.57 360.049 L647.66 370.196 L664.75 357.697 L681.841 338.638 L698.931 328.387 L716.021 322.123 L733.112 317.249 L750.202 319.08 L767.292 326.909 L784.383 338.754 L801.473 349.513 L818.563 360.308 L835.654 370.484 L852.744 382.327 L869.834 393.943 L886.925 402.453 L904.015 399.889 L921.105 389.938 L938.195 382.171 L955.286 406.068 L972.376 435.338 L989.466 466.374 L1006.56 496.137 L1023.65 522.982 L1040.74 537.287 L1057.83 539.304 L1074.92 529.181 L1092.01 505.908 L1109.1 486.237 L1126.19 467.723 L1143.28 451.103 L1160.37 441.581 L1177.46 438.571 L1194.55 439.598 L1211.64 441.134 L1228.73 445.445 L1245.82 449.902 L1262.91 460.223 L1280 471.688 L1297.09 480.104 L1314.18 477.2 L1331.27 466.634 L1348.36 464.073 L1365.45 490.843 L1382.54 520.377 L1399.63 551.756 L1416.72 581.986 L1433.81 609.082 L1450.91 623.442 L1468 623.463 L1485.09 602.57 L1502.18 574.577 L1519.27 549.267 L1536.36 525.141 L1553.45 503.68 L1570.54 489.609 L1587.63 481.747 L1604.72 479.286 L1621.81 477.736 L1638.9 480.456 L1655.99 484.503 L1673.08 494.832 L1690.17 506.582 L1707.26 515.301 L1724.35 512.437 L1741.44 501.618 L1758.53 498.559 L1775.62 525.534 L1792.71 555.29 L1809.8 586.928 L1826.89 617.453 L1843.98 644.321 L1861.07 657.868 L1878.16 658.008 L1895.25 642.581 L1912.34 609.396 L1929.43 581.411 L1946.52 555.847 L1963.61 531.936 L1980.71 515.994 L1997.8 506.554 L2014.89 502.667 L2031.98 499.996 L2049.07 501.343 L2066.16 504.905 L2083.25 515.501 L2100.34 527.688 L2117.43 536.911 L2134.52 534.308 L2151.61 526.491 L2168.7 528.965 L2185.79 546.488 L2202.88 570.269 L2219.97 602.125 L2237.06 632.826 L2254.15 661.826 L2271.24 684.124 L2288.33 693.823 L2305.42 677.391 L2322.51 643.687 L2339.6 612.44 L2356.69 582.38 L2373.78 555.418 L2390.87 537.021 L2407.96 526.701 L2425.05 521.779 L2442.14 517.929 L2459.23 518.834 L2476.32 522.595 L2493.42 533.44 L2510.51 545.969 L2527.6 555.509 L2544.69 553.026 L2561.78 552.853 L2578.87 555.518 L2595.96 573.232 L2613.05 596.289 L2630.14 624.838 L2647.23 656.693 L2664.32 690.179 L2681.41 712.652 L2698.5 723.528 L2715.59 709.848 L2732.68 675.96 L2749.77 644.575 L2766.86 613.962 L2783.95 585.82 L2801.04 564.493 L2818.13 549.399 L2835.22 539.287 L2852.31 532.156 L2869.4 532.763 L2886.49 536.415 L2903.58 549.438 L2920.67 565.813 L2937.76 578.176 L2954.85 576.627 L2971.94 577.972 L2989.03 580.783 L3006.12 598.659 L3023.22 621.849 L3040.31 650.64 L3057.4 682.916 L3074.49 717.064 L3091.58 740.123 L3108.67 752.31 L3125.76 737.718 L3142.85 703.642 L3159.94 671.78 L3177.03 640.877 L3194.12 611.994 L3211.21 589.717 L3228.3 573.57 L3245.39 562.517 L3262.48 553.973 L3279.57 555.673 L3296.66 562.525 L3313.75 578.478 L3330.84 596.055 L3347.93 609.658 L3365.02 608.994 L3382.11 602.882 L3399.2 605.935 L3416.29 624.114 L3433.38 647.56 L3450.47 676.697 L3467.56 709.495 L3484.65 744.382 L3501.74 768.179 L3518.83 780.25 L3535.92 766.347 L3553.02 732.925 L3570.11 704.155 L3587.2 672.672 L3604.29 641.403 L3621.38 617.445 L3638.47 601.082 L3655.56 591.565 L3672.65 585.039 L3689.74 585.922 L3706.83 593.009 L3723.92 609.905 L3741.01 629.049 L3758.1 644.248 L3775.19 644.746 L3792.28 634.028 L3809.37 631.55 L3826.46 649.901 L3843.55 673.497 L3860.64 702.915 L3877.73 736.197 L3894.82 771.792 L3911.91 796.627 L3929 810.085 L3946.09 804.051 L3963.18 777.249 L3980.27 748.684 L3997.36 716.588 L4014.45 684.274 L4031.54 658.901 L4048.63 640.557 L4065.72 629.67 L4082.82 622.528 L4099.91 623.95 L4117 631.002 L4134.09 649.075 L4151.18 669.916 L4168.27 686.835 L4185.36 688.53 L4202.45 678.342 L4219.54 667.278 L4236.63 676.604 L4253.72 700.347 L4270.81 730.044 L4287.9 763.827 L4304.99 800.204 L4322.08 831.687 L4339.17 857.356 L4356.26 855.185 L4373.35 830.199 L4390.44 802.15 L4407.53 769.521 L4424.62 736.04 L4441.71 708.859 L4458.8 688.836 L4475.89 676.458 L4492.98 668.172 L4510.07 669.013 L4527.16 677.359 L4544.25 697.467 L4561.34 720.523 L4578.43 739.67 L4595.52 742.983 L4612.62 733.578 L4629.71 722.537 L4629.71 88.4773 L4612.62 89.1007 L4595.52 92.5636 L4578.43 95.4446 L4561.34 95.9651 L4544.25 96.704 L4527.16 98.0888 L4510.07 101.799 L4492.98 104.528 L4475.89 106.007 L4458.8 103.795 L4441.71 100.182 L4424.62 97.5695 L4407.53 98.5024 L4390.44 104.084 L4373.35 115.708 L4356.26 133.86 L4339.17 147.306 L4322.08 149.642 L4304.99 145.488 L4287.9 133.949 L4270.81 120.698 L4253.72 107.115 L4236.63 95.5003 L4219.54 87.2559 L4202.45 87.8195 L4185.36 91.1972 L4168.27 93.9871 L4151.18 94.3793 L4134.09 95.0416 L4117 96.2869 L4099.91 99.8686 L4082.82 102.451 L4065.72 104.151 L4048.63 102.253 L4031.54 98.6568 L4014.45 95.9858 L3997.36 98.3804 L3980.27 103.874 L3963.18 114.96 L3946.09 133.207 L3929 146.71 L3911.91 149.138 L3894.82 145.046 L3877.73 133.557 L3860.64 120.351 L3843.55 106.807 L3826.46 95.2501 L3809.37 87.0761 L3792.28 87.6714 L3775.19 91.0928 L3758.1 93.9082 L3741.01 94.3851 L3723.92 95.0602 L3706.83 96.342 L3689.74 99.8946 L3672.65 102.446 L3655.56 104.063 L3638.47 101.887 L3621.38 98.5899 L3604.29 95.6871 L3587.2 96.4511 L3570.11 101.951 L3553.02 113.402 L3535.92 131.489 L3518.83 144.945 L3501.74 147.279 L3484.65 143.12 L3467.56 131.619 L3450.47 118.408 L3433.38 104.864 L3416.29 93.2839 L3399.2 85.0922 L3382.11 85.6451 L3365.02 89.0091 L3347.93 91.797 L3330.84 92.1905 L3313.75 92.8754 L3296.66 94.1478 L3279.57 97.7497 L3262.48 100.362 L3245.39 102.096 L3228.3 99.7648 L3211.21 95.9097 L3194.12 92.9672 L3177.03 93.7267 L3159.94 99.2113 L3142.85 110.784 L3125.76 128.91 L3108.67 142.405 L3091.58 144.756 L3074.49 140.622 L3057.4 129.072 L3040.31 115.776 L3023.22 102.112 L3006.12 90.3852 L2989.03 81.9593 L2971.94 82.3255 L2954.85 85.5343 L2937.76 88.1967 L2920.67 88.4758 L2903.58 89.0763 L2886.49 90.364 L2869.4 93.9213 L2852.31 96.4764 L2835.22 97.8661 L2818.13 95.3109 L2801.04 91.2979 L2783.95 88.2697 L2766.86 89.1202 L2749.77 94.5816 L2732.68 105.895 L2715.59 123.985 L2698.5 137.447 L2681.41 139.825 L2664.32 135.763 L2647.23 124.266 L2630.14 111.022 L2613.05 97.4179 L2595.96 85.7509 L2578.87 77.4021 L2561.78 77.8507 L2544.69 81.0627 L2527.6 83.6456 L2510.51 83.8254 L2493.42 84.2463 L2476.32 85.3669 L2459.23 88.8362 L2442.14 91.3276 L2425.05 92.9261 L2407.96 90.3926 L2390.87 86.3176 L2373.78 83.1542 L2356.69 83.7004 L2339.6 88.7553 L2322.51 100.038 L2305.42 118.238 L2288.33 131.844 L2271.24 134.373 L2254.15 130.435 L2237.06 119.06 L2219.97 105.942 L2202.88 92.4714 L2185.79 80.9309 L2168.7 72.7298 L2151.61 73.2457 L2134.52 76.5385 L2117.43 79.1892 L2100.34 79.4589 L2083.25 80.0423 L2066.16 81.2074 L2049.07 83.9181 L2031.98 86.4972 L2014.89 88.4822 L1997.8 86.2057 L1980.71 82.4836 L1963.61 79.3542 L1946.52 79.9486 L1929.43 85.1495 L1912.34 96.1593 L1895.25 114.391 L1878.16 128.041 L1861.07 130.707 L1843.98 126.972 L1826.89 115.876 L1809.8 103.06 L1792.71 89.8832 L1775.62 78.6729 L1758.53 70.8396 L1741.44 71.7383 L1724.35 75.4483 L1707.26 78.5822 L1690.17 79.3939 L1673.08 80.3551 L1655.99 81.251 L1638.9 83.5352 L1621.81 85.5418 L1604.72 87.5209 L1587.63 87.1907 L1570.54 84.1835 L1553.45 81.0572 L1536.36 81.7682 L1519.27 87.1282 L1502.18 98.4536 L1485.09 116.823 L1468 130.772 L1450.91 133.915 L1433.81 130.62 L1416.72 119.926 L1399.63 107.49 L1382.54 94.7024 L1365.45 83.8496 L1348.36 76.3625 L1331.27 77.7566 L1314.18 81.9736 L1297.09 85.6049 L1280 86.9373 L1262.91 88.4679 L1245.82 88.5206 L1228.73 91.0844 L1211.64 93.639 L1194.55 96.1344 L1177.46 96.2499 L1160.37 96.0316 L1143.28 93.9706 L1126.19 95.6028 L1109.1 102.047 L1092.01 114.514 L1074.92 133.687 L1057.83 148.529 L1040.74 152.507 L1023.65 150.121 L1006.56 140.419 L989.466 126.769 L972.376 111.83 L955.286 100.054 L938.195 94.3127 L921.105 100.489 L904.015 110.033 L886.925 115.276 L869.834 115.8 L852.744 114.217 L835.654 114.006 L818.563 117.584 L801.473 121.445 L784.383 125.292 L767.292 126.781 L750.202 121.744 L733.112 119.85 L716.021 125.904 L698.931 139.173 L681.841 156.45 L664.75 179.732 L647.66 199.106 L630.57 207.214 L613.479 208.77 L596.389 202.793 L579.299 194.654 L562.208 182.117 L545.118 172.35 L528.028 168.139  Z" fill="#aeaeae" fill-rule="evenodd" fill-opacity="0.5"/>
<polyline clip-path="url(#clip352)" style="stroke:#aeaeae; stroke-linecap:round; stroke-linejoin:round; stroke-width:0; stroke-opacity:1; fill:none" points="528.028,180.813 545.118,184.878 562.208,191.014 579.299,198.262 596.389,205.231 613.479,211.118 630.57,212.5 647.66,209.917 664.75,200.843 681.841,189.215 698.931,181.617 716.021,176.957 733.112,174.921 750.202,175.794 767.292,178.204 784.383,180.897 801.473,182.154 818.563,182.644 835.654,182.019 852.744,182.074 869.834,182.101 886.925,181.891 904.015,179.836 921.105,177.078 938.195,175.947 955.286,180.298 972.376,186.803 989.466,194.469 1006.56,201.854 1023.65,208.169 1040.74,209.93 1057.83,207.686 1074.92,198.88 1092.01,187.462 1109.1,180.108 1126.19,175.796 1143.28,174.082 1160.37,175.227 1177.46,177.842 1194.55,180.667 1211.64,182.013 1228.73,182.597 1245.82,182.09 1262.91,182.379 1280,182.699 1297.09,182.779 1314.18,180.992 1331.27,178.48 1348.36,177.579 1365.45,182.155 1382.54,188.876 1399.63,196.747 1416.72,204.345 1433.81,210.862 1450.91,212.821 1468,210.692 1485.09,201.909 1502.18,190.402 1519.27,182.915 1536.36,178.445 1553.45,176.609 1570.54,177.637 1587.63,180.161 1604.72,182.901 1621.81,184.176 1638.9,184.721 1655.99,184.233 1673.08,184.587 1690.17,184.999 1707.26,185.177 1724.35,183.485 1741.44,181.068 1758.53,180.254 1775.62,184.92 1792.71,191.733 1809.8,199.695 1826.89,207.388 1843.98,213.999 1861.07,216.044 1878.16,213.988 1895.25,205.209 1912.34,193.646 1929.43,186.042 1946.52,181.448 1963.61,179.482 1980.71,180.393 1997.8,182.805 2014.89,185.451 2031.98,186.643 2049.07,187.15 2066.16,186.627 2083.25,186.991 2100.34,187.423 2117.43,187.634 2134.52,185.972 2151.61,183.583 2168.7,182.797 2185.79,187.494 2202.88,194.338 2219.97,202.338 2237.06,210.071 2254.15,216.734 2271.24,218.82 2288.33,216.809 2305.42,208.034 2322.51,196.402 2339.6,188.717 2356.69,184.03 2373.78,181.965 2390.87,182.777 2407.96,185.105 2425.05,187.667 2442.14,188.781 2459.23,189.224 2476.32,188.666 2493.42,189.009 2510.51,189.436 2527.6,189.647 2544.69,187.987 2561.78,185.598 2578.87,184.812 2595.96,189.513 2613.05,196.362 2630.14,204.371 2647.23,212.113 2664.32,218.786 2681.41,220.883 2698.5,218.882 2715.59,210.094 2732.68,198.435 2749.77,190.705 2766.86,185.943 2783.95,183.795 2801.04,184.543 2818.13,186.807 2835.22,189.317 2852.31,190.386 2869.4,190.796 2886.49,190.211 2903.58,190.547 2920.67,190.969 2937.76,191.178 2954.85,189.519 2971.94,187.123 2989.03,186.327 3006.12,191.02 3023.22,197.864 3040.31,205.87 3057.4,213.612 3074.49,220.289 3091.58,222.397 3108.67,220.394 3125.76,211.591 3142.85,199.908 3159.94,192.129 3177.03,187.333 3194.12,185.147 3211.21,185.844 3228.3,188.057 3245.39,190.53 3262.48,191.575 3279.57,191.945 3296.66,191.331 3313.75,191.652 3330.84,192.06 3347.93,192.257 3365.02,190.583 3382.11,188.179 3399.2,187.372 3416.29,192.058 3433.38,198.893 3450.47,206.894 3467.56,214.636 3484.65,221.314 3501.74,223.42 3518.83,221.426 3535.92,212.624 3553.02,200.925 3570.11,193.133 3587.2,188.308 3604.29,186.094 3621.38,186.759 3638.47,188.945 3655.56,191.399 3672.65,192.404 3689.74,192.749 3706.83,192.127 3723.92,192.432 3741.01,192.84 3758.1,193.037 3775.19,191.364 3792.28,188.954 3809.37,188.141 3826.46,192.821 3843.55,199.65 3860.64,207.651 3877.73,215.386 3894.82,222.063 3911.91,224.172 3929,222.169 3946.09,213.37 3963.18,201.656 3980.27,193.842 3997.36,188.991 4014.45,186.759 4031.54,187.402 4048.63,189.563 4065.72,191.982 4082.82,192.988 4099.91,193.335 4117,192.697 4134.09,192.994 4151.18,193.398 4168.27,193.598 4185.36,191.921 4202.45,189.507 4219.54,188.69 4236.63,193.365 4253.72,200.19 4270.81,208.185 4287.9,215.922 4304.99,222.607 4322.08,224.718 4339.17,222.724 4356.26,213.928 4373.35,202.201 4390.44,194.376 4407.53,189.51 4424.62,187.254 4441.71,187.876 4458.8,190.022 4475.89,192.432 4492.98,193.405 4510.07,193.719 4527.16,193.07 4544.25,193.379 4561.34,193.788 4578.43,193.99 4595.52,192.317 4612.62,189.902 4629.71,189.079 "/>
<path clip-path="url(#clip352)" d="M528.028 190.739 L545.118 202.142 L562.208 219.296 L579.299 241.254 L596.389 264.63 L613.479 286.845 L630.57 299.245 L647.66 300.87 L664.75 283.34 L681.841 260.781 L698.931 244.661 L716.021 232.021 L733.112 226.18 L750.202 228.11 L767.292 233.687 L784.383 240.643 L801.473 247.037 L818.563 251.822 L835.654 254.266 L852.744 258.219 L869.834 261.906 L886.925 263.217 L904.015 261.726 L921.105 256.967 L938.195 257.168 L955.286 271.319 L972.376 288.862 L989.466 311.09 L1006.56 335.142 L1023.65 355.851 L1040.74 367.283 L1057.83 366.805 L1074.92 348.883 L1092.01 319.393 L1109.1 302.431 L1126.19 286.128 L1143.28 277.945 L1160.37 273.761 L1177.46 274.333 L1194.55 277.358 L1211.64 276.416 L1228.73 278.679 L1245.82 280.196 L1262.91 283.598 L1280 288.435 L1297.09 291.308 L1314.18 291.869 L1331.27 290.374 L1348.36 289.327 L1365.45 300.717 L1382.54 319.698 L1399.63 343.155 L1416.72 367.259 L1433.81 387.536 L1450.91 398.673 L1468 400.317 L1485.09 383.88 L1502.18 353.003 L1519.27 328.503 L1536.36 308.216 L1553.45 296.797 L1570.54 293.593 L1587.63 292.942 L1604.72 293.868 L1621.81 293.441 L1638.9 293.259 L1655.99 291.608 L1673.08 294.049 L1690.17 299.828 L1707.26 305.746 L1724.35 306.5 L1741.44 303.041 L1758.53 300.995 L1775.62 311.071 L1792.71 329.914 L1809.8 353.466 L1826.89 379.105 L1843.98 401.945 L1861.07 412.455 L1878.16 411.245 L1895.25 396.386 L1912.34 365.694 L1929.43 338.796 L1946.52 319.534 L1963.61 305.885 L1980.71 301.387 L1997.8 300.615 L2014.89 301.395 L2031.98 300.728 L2049.07 298.963 L2066.16 297.233 L2083.25 301.463 L2100.34 307.763 L2117.43 313.613 L2134.52 313.866 L2151.61 311.894 L2168.7 315.913 L2185.79 326.201 L2202.88 339.338 L2219.97 361.125 L2237.06 386.567 L2254.15 409.455 L2271.24 418.275 L2288.33 418.784 L2305.42 402.351 L2322.51 374.418 L2339.6 346.438 L2356.69 327.227 L2373.78 311.521 L2390.87 307.333 L2407.96 308.211 L2425.05 307.285 L2442.14 306.605 L2459.23 304.518 L2476.32 303.044 L2493.42 306.628 L2510.51 312.17 L2527.6 317.353 L2544.69 318.803 L2561.78 316.35 L2578.87 320.326 L2595.96 332.202 L2613.05 348.308 L2630.14 369.62 L2647.23 391.072 L2664.32 412.992 L2681.41 422.014 L2698.5 423.288 L2715.59 408.849 L2732.68 379.733 L2749.77 351.488 L2766.86 329.925 L2783.95 315.5 L2801.04 310.007 L2818.13 311.187 L2835.22 309.381 L2852.31 309.144 L2869.4 306.908 L2886.49 304.53 L2903.58 308.169 L2920.67 314.378 L2937.76 319.141 L2954.85 321.065 L2971.94 319.09 L2989.03 322.79 L3006.12 335.465 L3023.22 352.496 L3040.31 374.764 L3057.4 394.887 L3074.49 417.178 L3091.58 424 L3108.67 425.761 L3125.76 411.829 L3142.85 380.421 L3159.94 352.389 L3177.03 332.573 L3194.12 316.596 L3211.21 312.497 L3228.3 313.208 L3245.39 310.459 L3262.48 311.398 L3279.57 308.961 L3296.66 307.355 L3313.75 310.523 L3330.84 316.723 L3347.93 320.644 L3365.02 322.497 L3382.11 322.874 L3399.2 326.025 L3416.29 338.336 L3433.38 354.795 L3450.47 376.396 L3467.56 397.497 L3484.65 419.117 L3501.74 426.339 L3518.83 428.855 L3535.92 414.434 L3553.02 381.717 L3570.11 354.802 L3587.2 334.43 L3604.29 317.73 L3621.38 313.373 L3638.47 314.043 L3655.56 313.715 L3672.65 312.95 L3689.74 310.662 L3706.83 309.871 L3723.92 314.775 L3741.01 320.545 L3758.1 324.833 L3775.19 324.649 L3792.28 323.519 L3809.37 327.814 L3826.46 340.678 L3843.55 356.976 L3860.64 378.482 L3877.73 400.394 L3894.82 418.959 L3911.91 429.521 L3929 429.827 L3946.09 413.349 L3963.18 381.262 L3980.27 357.334 L3997.36 335.405 L4014.45 318.796 L4031.54 317.2 L4048.63 315.508 L4065.72 314.711 L4082.82 314.05 L4099.91 311.81 L4117 310.399 L4134.09 315.566 L4151.18 320.967 L4168.27 324.918 L4185.36 325.154 L4202.45 324.3 L4219.54 330.11 L4236.63 341.842 L4253.72 358.676 L4270.81 379.334 L4287.9 401.831 L4304.99 420.551 L4322.08 430.949 L4339.17 430.211 L4356.26 412.822 L4373.35 379.998 L4390.44 358.19 L4407.53 336.142 L4424.62 321.27 L4441.71 316.283 L4458.8 315.079 L4475.89 315.175 L4492.98 314.297 L4510.07 313.03 L4527.16 311.789 L4544.25 317.186 L4561.34 321.271 L4578.43 325.736 L4595.52 326.002 L4612.62 327.238 L4629.71 329.986 L4629.71 119.13 L4612.62 120.863 L4595.52 129.236 L4578.43 132.577 L4561.34 133.62 L4544.25 134.963 L4527.16 134.588 L4510.07 137.409 L4492.98 140.359 L4475.89 140.553 L4458.8 132.807 L4441.71 128.286 L4424.62 124.944 L4407.53 126.988 L4390.44 134.408 L4373.35 146.531 L4356.26 167.329 L4339.17 182.523 L4322.08 186.576 L4304.99 182.449 L4287.9 169.239 L4270.81 153.784 L4253.72 138.963 L4236.63 126.22 L4219.54 118.061 L4202.45 120.448 L4185.36 128.541 L4168.27 131.948 L4151.18 133.034 L4134.09 133.513 L4117 133.471 L4099.91 136.399 L4082.82 138.618 L4065.72 139.14 L4048.63 131.962 L4031.54 127.587 L4014.45 124.101 L3997.36 125.304 L3980.27 133.033 L3963.18 145.468 L3946.09 166.248 L3929 181.542 L3911.91 185.015 L3894.82 180.982 L3877.73 168.305 L3860.64 152.925 L3843.55 138.119 L3826.46 125.193 L3809.37 117.065 L3792.28 119.132 L3775.19 126.912 L3758.1 131.036 L3741.01 131.65 L3723.92 131.529 L3706.83 132.155 L3689.74 134.863 L3672.65 136.574 L3655.56 137.228 L3638.47 131.015 L3621.38 125.819 L3604.29 122.614 L3587.2 124.08 L3570.11 132.218 L3553.02 144.112 L3535.92 164.058 L3518.83 179.362 L3501.74 183 L3484.65 179.42 L3467.56 166.931 L3450.47 151.198 L3433.38 136.266 L3416.29 123.021 L3399.2 115.214 L3382.11 117.499 L3365.02 125.162 L3347.93 129.587 L3330.84 130.448 L3313.75 128.984 L3296.66 129.73 L3279.57 132.845 L3262.48 135.054 L3245.39 134.059 L3228.3 128.908 L3211.21 123.745 L3194.12 120.684 L3177.03 122.267 L3159.94 129.393 L3142.85 142.239 L3125.76 161.879 L3108.67 177.013 L3091.58 180.338 L3074.49 176.557 L3057.4 164.44 L3040.31 148.665 L3023.22 133.462 L3006.12 120.518 L2989.03 112.456 L2971.94 115.708 L2954.85 123.065 L2937.76 126.132 L2920.67 126.205 L2903.58 124.54 L2886.49 125.536 L2869.4 129.638 L2852.31 131.817 L2835.22 131.32 L2818.13 126.243 L2801.04 120.116 L2783.95 117.849 L2766.86 119.699 L2749.77 126.148 L2732.68 138.547 L2715.59 158.094 L2698.5 173.222 L2681.41 176.736 L2664.32 172.874 L2647.23 160.836 L2630.14 146.072 L2613.05 130.46 L2595.96 117.491 L2578.87 110.118 L2561.78 112.802 L2544.69 119.29 L2527.6 121.652 L2510.51 120.717 L2493.42 120.46 L2476.32 121.769 L2459.23 124.505 L2442.14 126.457 L2425.05 127.399 L2407.96 123.033 L2390.87 116.802 L2373.78 113.773 L2356.69 115.636 L2339.6 121.238 L2322.51 133.915 L2305.42 153.628 L2288.33 168.707 L2271.24 172.02 L2254.15 168.24 L2237.06 156.546 L2219.97 142.05 L2202.88 126.357 L2185.79 113.724 L2168.7 105.447 L2151.61 108.303 L2134.52 113.942 L2117.43 116.189 L2100.34 114.518 L2083.25 115.243 L2066.16 115.045 L2049.07 117.189 L2031.98 118.82 L2014.89 120.16 L1997.8 117.464 L1980.71 111.381 L1963.61 108.284 L1946.52 109.975 L1929.43 115.571 L1912.34 128.001 L1895.25 147.287 L1878.16 162.688 L1861.07 166.834 L1843.98 163.194 L1826.89 151.967 L1809.8 137.193 L1792.71 122.478 L1775.62 109.179 L1758.53 101.592 L1741.44 104.066 L1724.35 110.051 L1707.26 112.29 L1690.17 109.996 L1673.08 109.734 L1655.99 109.37 L1638.9 111.845 L1621.81 113.943 L1604.72 115.381 L1587.63 113.865 L1570.54 108.153 L1553.45 105.135 L1536.36 107.03 L1519.27 112.863 L1502.18 125.238 L1485.09 144.941 L1468 160.406 L1450.91 164.124 L1433.81 161.454 L1416.72 150.197 L1399.63 136.862 L1382.54 121.698 L1365.45 109.353 L1348.36 101.543 L1331.27 104.085 L1314.18 110.423 L1297.09 113.959 L1280 113.261 L1262.91 112.986 L1245.82 111.696 L1228.73 114.645 L1211.64 117.249 L1194.55 119.464 L1177.46 117.003 L1160.37 112.634 L1143.28 110.551 L1126.19 112.335 L1109.1 119.821 L1092.01 132.287 L1074.92 152.595 L1057.83 169.322 L1040.74 174.031 L1023.65 171.996 L1006.56 160.686 L989.466 147.65 L972.376 133.165 L955.286 120.956 L938.195 114.28 L921.105 119.582 L904.015 126.682 L886.925 130.989 L869.834 131.655 L852.744 131.071 L835.654 131.971 L818.563 135.946 L801.473 139.733 L784.383 141.791 L767.292 138.769 L750.202 135.945 L733.112 135.585 L716.021 141.556 L698.931 152.24 L681.841 167.403 L664.75 189.467 L647.66 207.754 L630.57 214.677 L613.479 215.928 L596.389 208.741 L579.299 199.102 L562.208 186.935 L545.118 176.365 L528.028 171.032  Z" fill="#757575" fill-rule="evenodd" fill-opacity="0.5"/>
<polyline clip-path="url(#clip352)" style="stroke:#757575; stroke-linecap:round; stroke-linejoin:round; stroke-width:0; stroke-opacity:1; fill:none" points="528.028,180.813 545.118,184.878 562.208,191.014 579.299,198.262 596.389,205.231 613.479,211.118 630.57,212.5 647.66,209.917 664.75,200.843 681.841,189.215 698.931,181.617 716.021,176.957 733.112,174.921 750.202,175.794 767.292,178.204 784.383,180.897 801.473,182.154 818.563,182.644 835.654,182.019 852.744,182.074 869.834,182.101 886.925,181.891 904.015,179.836 921.105,177.078 938.195,175.947 955.286,180.298 972.376,186.803 989.466,194.469 1006.56,201.854 1023.65,208.169 1040.74,209.93 1057.83,207.686 1074.92,198.88 1092.01,187.462 1109.1,180.108 1126.19,175.796 1143.28,174.082 1160.37,175.227 1177.46,177.842 1194.55,180.667 1211.64,182.013 1228.73,182.597 1245.82,182.09 1262.91,182.379 1280,182.699 1297.09,182.779 1314.18,180.992 1331.27,178.48 1348.36,177.579 1365.45,182.155 1382.54,188.876 1399.63,196.747 1416.72,204.345 1433.81,210.862 1450.91,212.821 1468,210.692 1485.09,201.909 1502.18,190.402 1519.27,182.915 1536.36,178.445 1553.45,176.609 1570.54,177.637 1587.63,180.161 1604.72,182.901 1621.81,184.176 1638.9,184.721 1655.99,184.233 1673.08,184.587 1690.17,184.999 1707.26,185.177 1724.35,183.485 1741.44,181.068 1758.53,180.254 1775.62,184.92 1792.71,191.733 1809.8,199.695 1826.89,207.388 1843.98,213.999 1861.07,216.044 1878.16,213.988 1895.25,205.209 1912.34,193.646 1929.43,186.042 1946.52,181.448 1963.61,179.482 1980.71,180.393 1997.8,182.805 2014.89,185.451 2031.98,186.643 2049.07,187.15 2066.16,186.627 2083.25,186.991 2100.34,187.423 2117.43,187.634 2134.52,185.972 2151.61,183.583 2168.7,182.797 2185.79,187.494 2202.88,194.338 2219.97,202.338 2237.06,210.071 2254.15,216.734 2271.24,218.82 2288.33,216.809 2305.42,208.034 2322.51,196.402 2339.6,188.717 2356.69,184.03 2373.78,181.965 2390.87,182.777 2407.96,185.105 2425.05,187.667 2442.14,188.781 2459.23,189.224 2476.32,188.666 2493.42,189.009 2510.51,189.436 2527.6,189.647 2544.69,187.987 2561.78,185.598 2578.87,184.812 2595.96,189.513 2613.05,196.362 2630.14,204.371 2647.23,212.113 2664.32,218.786 2681.41,220.883 2698.5,218.882 2715.59,210.094 2732.68,198.435 2749.77,190.705 2766.86,185.943 2783.95,183.795 2801.04,184.543 2818.13,186.807 2835.22,189.317 2852.31,190.386 2869.4,190.796 2886.49,190.211 2903.58,190.547 2920.67,190.969 2937.76,191.178 2954.85,189.519 2971.94,187.123 2989.03,186.327 3006.12,191.02 3023.22,197.864 3040.31,205.87 3057.4,213.612 3074.49,220.289 3091.58,222.397 3108.67,220.394 3125.76,211.591 3142.85,199.908 3159.94,192.129 3177.03,187.333 3194.12,185.147 3211.21,185.844 3228.3,188.057 3245.39,190.53 3262.48,191.575 3279.57,191.945 3296.66,191.331 3313.75,191.652 3330.84,192.06 3347.93,192.257 3365.02,190.583 3382.11,188.179 3399.2,187.372 3416.29,192.058 3433.38,198.893 3450.47,206.894 3467.56,214.636 3484.65,221.314 3501.74,223.42 3518.83,221.426 3535.92,212.624 3553.02,200.925 3570.11,193.133 3587.2,188.308 3604.29,186.094 3621.38,186.759 3638.47,188.945 3655.56,191.399 3672.65,192.404 3689.74,192.749 3706.83,192.127 3723.92,192.432 3741.01,192.84 3758.1,193.037 3775.19,191.364 3792.28,188.954 3809.37,188.141 3826.46,192.821 3843.55,199.65 3860.64,207.651 3877.73,215.386 3894.82,222.063 3911.91,224.172 3929,222.169 3946.09,213.37 3963.18,201.656 3980.27,193.842 3997.36,188.991 4014.45,186.759 4031.54,187.402 4048.63,189.563 4065.72,191.982 4082.82,192.988 4099.91,193.335 4117,192.697 4134.09,192.994 4151.18,193.398 4168.27,193.598 4185.36,191.921 4202.45,189.507 4219.54,188.69 4236.63,193.365 4253.72,200.19 4270.81,208.185 4287.9,215.922 4304.99,222.607 4322.08,224.718 4339.17,222.724 4356.26,213.928 4373.35,202.201 4390.44,194.376 4407.53,189.51 4424.62,187.254 4441.71,187.876 4458.8,190.022 4475.89,192.432 4492.98,193.405 4510.07,193.719 4527.16,193.07 4544.25,193.379 4561.34,193.788 4578.43,193.99 4595.52,192.317 4612.62,189.902 4629.71,189.079 "/>
<path clip-path="url(#clip352)" d="M528.028 185.914 L545.118 195.321 L562.208 210.681 L579.299 230.989 L596.389 251.544 L613.479 270.8 L630.57 279.562 L647.66 277.236 L664.75 258.782 L681.841 232.224 L698.931 215.736 L716.021 203.959 L733.112 200.211 L750.202 203.433 L767.292 210.758 L784.383 218.54 L801.473 223.609 L818.563 226.622 L835.654 227.482 L852.744 227.854 L869.834 230.26 L886.925 233.367 L904.015 225.8 L921.105 220.706 L938.195 219.075 L955.286 230.436 L972.376 245.102 L989.466 261.746 L1006.56 282.17 L1023.65 298.644 L1040.74 307.688 L1057.83 309.284 L1074.92 287.414 L1092.01 259.254 L1109.1 241.393 L1126.19 230.315 L1143.28 223.989 L1160.37 224.528 L1177.46 228.476 L1194.55 234.717 L1211.64 239.73 L1228.73 241.757 L1245.82 243.49 L1262.91 244.246 L1280 247.568 L1297.09 246.967 L1314.18 240.63 L1331.27 236.935 L1348.36 236.02 L1365.45 245.994 L1382.54 260.127 L1399.63 277.893 L1416.72 296.905 L1433.81 315.739 L1450.91 321.86 L1468 323.466 L1485.09 301.73 L1502.18 274.374 L1519.27 256.507 L1536.36 243.933 L1553.45 236.674 L1570.54 236.1 L1587.63 240.211 L1604.72 245.637 L1621.81 247.579 L1638.9 249.969 L1655.99 250.509 L1673.08 251.095 L1690.17 255.078 L1707.26 253.928 L1724.35 248.189 L1741.44 245.889 L1758.53 245.966 L1775.62 256.467 L1792.71 268.567 L1809.8 284.109 L1826.89 304.381 L1843.98 323.048 L1861.07 330.607 L1878.16 329.113 L1895.25 310.478 L1912.34 283.425 L1929.43 263.502 L1946.52 250.207 L1963.61 242.539 L1980.71 242.271 L1997.8 246.657 L2014.89 251.324 L2031.98 254.466 L2049.07 256.047 L2066.16 255.65 L2083.25 256.878 L2100.34 259.051 L2117.43 259.247 L2134.52 256.245 L2151.61 252.084 L2168.7 251.854 L2185.79 263.198 L2202.88 275.385 L2219.97 292.449 L2237.06 308.358 L2254.15 327.94 L2271.24 334.549 L2288.33 334.174 L2305.42 315.06 L2322.51 287.873 L2339.6 267.746 L2356.69 255.16 L2373.78 249.388 L2390.87 249.002 L2407.96 251.047 L2425.05 255.57 L2442.14 257.921 L2459.23 259.297 L2476.32 258.56 L2493.42 260.261 L2510.51 263.998 L2527.6 263.898 L2544.69 259.015 L2561.78 255.257 L2578.87 255.996 L2595.96 265.879 L2613.05 279.467 L2630.14 295.731 L2647.23 312.076 L2664.32 331.221 L2681.41 338.419 L2698.5 336.434 L2715.59 318.788 L2732.68 290.128 L2749.77 270.977 L2766.86 259.48 L2783.95 253.16 L2801.04 251.124 L2818.13 253.464 L2835.22 257.954 L2852.31 260.311 L2869.4 262.346 L2886.49 262.633 L2903.58 262.029 L2920.67 266.191 L2937.76 268.125 L2954.85 261.165 L2971.94 259.801 L2989.03 259.298 L3006.12 268.633 L3023.22 284.632 L3040.31 298.912 L3057.4 313.489 L3074.49 333.341 L3091.58 341.634 L3108.67 337.454 L3125.76 321.168 L3142.85 292.663 L3159.94 273.802 L3177.03 263.521 L3194.12 255.471 L3211.21 253.711 L3228.3 256.12 L3245.39 261.239 L3262.48 262.822 L3279.57 264.028 L3296.66 263.069 L3313.75 264.906 L3330.84 268.468 L3347.93 268.852 L3365.02 264.993 L3382.11 263.023 L3399.2 261.062 L3416.29 271.43 L3433.38 286.423 L3450.47 302.011 L3467.56 314.923 L3484.65 333.621 L3501.74 342.756 L3518.83 340.276 L3535.92 321.917 L3553.02 294.103 L3570.11 275.185 L3587.2 263.537 L3604.29 256.574 L3621.38 255.688 L3638.47 257.852 L3655.56 262.298 L3672.65 263.566 L3689.74 265.145 L3706.83 264.545 L3723.92 266.141 L3741.01 269.915 L3758.1 270.595 L3775.19 266.969 L3792.28 264.359 L3809.37 263.675 L3826.46 272.848 L3843.55 287.845 L3860.64 305.108 L3877.73 317.437 L3894.82 334.594 L3911.91 342.71 L3929 341.7 L3946.09 323.38 L3963.18 295.361 L3980.27 276.776 L3997.36 264.945 L4014.45 258.651 L4031.54 257.446 L4048.63 260.412 L4065.72 264.564 L4082.82 265.227 L4099.91 265.85 L4117 265.8 L4134.09 267.489 L4151.18 270.579 L4168.27 272.039 L4185.36 269.018 L4202.45 266.605 L4219.54 264.796 L4236.63 275.551 L4253.72 288.71 L4270.81 305.862 L4287.9 320.082 L4304.99 335.58 L4322.08 343.487 L4339.17 342.061 L4356.26 324.05 L4373.35 295.555 L4390.44 277.063 L4407.53 267.578 L4424.62 259.774 L4441.71 258.395 L4458.8 260.665 L4475.89 265.771 L4492.98 266.55 L4510.07 266.632 L4527.16 266.672 L4544.25 268.578 L4561.34 271.595 L4578.43 271.657 L4595.52 268.973 L4612.62 267.519 L4629.71 265.671 L4629.71 128.864 L4612.62 131.98 L4595.52 138.372 L4578.43 143.677 L4561.34 145.282 L4544.25 146.357 L4527.16 148.078 L4510.07 151.622 L4492.98 151.089 L4475.89 150.086 L4458.8 143.772 L4441.71 137.098 L4424.62 132.997 L4407.53 135.146 L4390.44 141.893 L4373.35 155.383 L4356.26 176.299 L4339.17 192.275 L4322.08 195.967 L4304.99 193.01 L4287.9 180.554 L4270.81 165.534 L4253.72 149.708 L4236.63 135.888 L4219.54 127.759 L4202.45 131.65 L4185.36 138.01 L4168.27 142.603 L4151.18 144.516 L4134.09 145.83 L4117 147.422 L4099.91 151.019 L4082.82 150.335 L4065.72 148.591 L4048.63 143.386 L4031.54 136.681 L4014.45 132.266 L3997.36 134.655 L3980.27 140.778 L3963.18 153.844 L3946.09 175.082 L3929 191.07 L3911.91 194.582 L3894.82 191.626 L3877.73 179.746 L3860.64 164.62 L3843.55 148.844 L3826.46 135.11 L3809.37 127.466 L3792.28 130.62 L3775.19 137.095 L3758.1 142.193 L3741.01 143.288 L3723.92 144.598 L3706.83 146.769 L3689.74 149.745 L3672.65 149.506 L3655.56 147.431 L3638.47 142.054 L3621.38 135.404 L3604.29 130.899 L3587.2 133.447 L3570.11 139.63 L3553.02 152.545 L3535.92 173.196 L3518.83 189.095 L3501.74 193.436 L3484.65 189.95 L3467.56 178.06 L3450.47 163.169 L3433.38 147.527 L3416.29 133.925 L3399.2 125.511 L3382.11 129.394 L3365.02 134.837 L3347.93 139.736 L3330.84 141.875 L3313.75 142.886 L3296.66 144.715 L3279.57 147.678 L3262.48 147.64 L3245.39 145.775 L3228.3 140.64 L3211.21 133.224 L3194.12 129.514 L3177.03 131.813 L3159.94 138.064 L3142.85 150.551 L3125.76 170.807 L3108.67 186.091 L3091.58 190.103 L3074.49 187.347 L3057.4 175.482 L3040.31 161.591 L3023.22 145.419 L3006.12 132.116 L2989.03 123.896 L2971.94 127.465 L2954.85 131.509 L2937.76 137.231 L2920.67 139.211 L2903.58 139.344 L2886.49 140.991 L2869.4 144.893 L2852.31 145.308 L2835.22 143.458 L2818.13 137.439 L2801.04 131.533 L2783.95 127.263 L2766.86 128.653 L2749.77 134.419 L2732.68 146.634 L2715.59 166.717 L2698.5 182.181 L2681.41 186.838 L2664.32 183.722 L2647.23 171.899 L2630.14 157.617 L2613.05 142.977 L2595.96 129.338 L2578.87 120.906 L2561.78 123.091 L2544.69 127.815 L2527.6 133.594 L2510.51 134.543 L2493.42 135.498 L2476.32 136.945 L2459.23 140.769 L2442.14 141.99 L2425.05 139.813 L2407.96 133.37 L2390.87 128.026 L2373.78 124.178 L2356.69 124.781 L2339.6 130.413 L2322.51 142.126 L2305.42 161.999 L2288.33 177.923 L2271.24 181.824 L2254.15 178.598 L2237.06 167.641 L2219.97 153.291 L2202.88 137.999 L2185.79 125.139 L2168.7 116.959 L2151.61 118.771 L2134.52 123.601 L2117.43 128.918 L2100.34 130.048 L2083.25 130.508 L2066.16 131.448 L2049.07 135.773 L2031.98 137.061 L2014.89 134.693 L1997.8 129.074 L1980.71 123.341 L1963.61 119.279 L1946.52 120.324 L1929.43 126.355 L1912.34 137.473 L1895.25 157.263 L1878.16 172.77 L1861.07 177.363 L1843.98 174.028 L1826.89 162.132 L1809.8 148.318 L1792.71 133.365 L1775.62 120.508 L1758.53 112.558 L1741.44 114.318 L1724.35 120.218 L1707.26 124.453 L1690.17 125.195 L1673.08 125.324 L1655.99 127.308 L1638.9 131.433 L1621.81 133.211 L1604.72 130.766 L1587.63 125.205 L1570.54 119.354 L1553.45 115.317 L1536.36 116.517 L1519.27 122.556 L1502.18 134.161 L1485.09 154.247 L1468 169.839 L1450.91 174.825 L1433.81 170.883 L1416.72 160.378 L1399.63 146.579 L1382.54 131.558 L1365.45 119.275 L1348.36 111.104 L1331.27 113.697 L1314.18 119.274 L1297.09 124.101 L1280 125.131 L1262.91 126.436 L1245.82 127.525 L1228.73 130.571 L1211.64 132.678 L1194.55 131.765 L1177.46 126.594 L1160.37 121.388 L1143.28 118.05 L1126.19 120.287 L1109.1 126.696 L1092.01 139.43 L1074.92 160.223 L1057.83 176.798 L1040.74 181.262 L1023.65 179.351 L1006.56 168.533 L989.466 155.022 L972.376 140.996 L955.286 128.141 L938.195 121.156 L921.105 125.106 L904.015 132.92 L886.925 137.519 L869.834 139.841 L852.744 141.932 L835.654 144.059 L818.563 146.599 L801.473 148.303 L784.383 147.893 L767.292 144.416 L750.202 141.262 L733.112 140.694 L716.021 146.016 L698.931 155.628 L681.841 170.155 L664.75 192.336 L647.66 210.435 L630.57 217.577 L613.479 218.174 L596.389 210.902 L579.299 200.871 L562.208 188.669 L545.118 177.94 L528.028 172.131  Z" fill="#414141" fill-rule="evenodd" fill-opacity="0.5"/>
<polyline clip-path="url(#clip352)" style="stroke:#414141; stroke-linecap:round; stroke-linejoin:round; stroke-width:0; stroke-opacity:1; fill:none" points="528.028,180.813 545.118,184.878 562.208,191.014 579.299,198.262 596.389,205.231 613.479,211.118 630.57,212.5 647.66,209.917 664.75,200.843 681.841,189.215 698.931,181.617 716.021,176.957 733.112,174.921 750.202,175.794 767.292,178.204 784.383,180.897 801.473,182.154 818.563,182.644 835.654,182.019 852.744,182.074 869.834,182.101 886.925,181.891 904.015,179.836 921.105,177.078 938.195,175.947 955.286,180.298 972.376,186.803 989.466,194.469 1006.56,201.854 1023.65,208.169 1040.74,209.93 1057.83,207.686 1074.92,198.88 1092.01,187.462 1109.1,180.108 1126.19,175.796 1143.28,174.082 1160.37,175.227 1177.46,177.842 1194.55,180.667 1211.64,182.013 1228.73,182.597 1245.82,182.09 1262.91,182.379 1280,182.699 1297.09,182.779 1314.18,180.992 1331.27,178.48 1348.36,177.579 1365.45,182.155 1382.54,188.876 1399.63,196.747 1416.72,204.345 1433.81,210.862 1450.91,212.821 1468,210.692 1485.09,201.909 1502.18,190.402 1519.27,182.915 1536.36,178.445 1553.45,176.609 1570.54,177.637 1587.63,180.161 1604.72,182.901 1621.81,184.176 1638.9,184.721 1655.99,184.233 1673.08,184.587 1690.17,184.999 1707.26,185.177 1724.35,183.485 1741.44,181.068 1758.53,180.254 1775.62,184.92 1792.71,191.733 1809.8,199.695 1826.89,207.388 1843.98,213.999 1861.07,216.044 1878.16,213.988 1895.25,205.209 1912.34,193.646 1929.43,186.042 1946.52,181.448 1963.61,179.482 1980.71,180.393 1997.8,182.805 2014.89,185.451 2031.98,186.643 2049.07,187.15 2066.16,186.627 2083.25,186.991 2100.34,187.423 2117.43,187.634 2134.52,185.972 2151.61,183.583 2168.7,182.797 2185.79,187.494 2202.88,194.338 2219.97,202.338 2237.06,210.071 2254.15,216.734 2271.24,218.82 2288.33,216.809 2305.42,208.034 2322.51,196.402 2339.6,188.717 2356.69,184.03 2373.78,181.965 2390.87,182.777 2407.96,185.105 2425.05,187.667 2442.14,188.781 2459.23,189.224 2476.32,188.666 2493.42,189.009 2510.51,189.436 2527.6,189.647 2544.69,187.987 2561.78,185.598 2578.87,184.812 2595.96,189.513 2613.05,196.362 2630.14,204.371 2647.23,212.113 2664.32,218.786 2681.41,220.883 2698.5,218.882 2715.59,210.094 2732.68,198.435 2749.77,190.705 2766.86,185.943 2783.95,183.795 2801.04,184.543 2818.13,186.807 2835.22,189.317 2852.31,190.386 2869.4,190.796 2886.49,190.211 2903.58,190.547 2920.67,190.969 2937.76,191.178 2954.85,189.519 2971.94,187.123 2989.03,186.327 3006.12,191.02 3023.22,197.864 3040.31,205.87 3057.4,213.612 3074.49,220.289 3091.58,222.397 3108.67,220.394 3125.76,211.591 3142.85,199.908 3159.94,192.129 3177.03,187.333 3194.12,185.147 3211.21,185.844 3228.3,188.057 3245.39,190.53 3262.48,191.575 3279.57,191.945 3296.66,191.331 3313.75,191.652 3330.84,192.06 3347.93,192.257 3365.02,190.583 3382.11,188.179 3399.2,187.372 3416.29,192.058 3433.38,198.893 3450.47,206.894 3467.56,214.636 3484.65,221.314 3501.74,223.42 3518.83,221.426 3535.92,212.624 3553.02,200.925 3570.11,193.133 3587.2,188.308 3604.29,186.094 3621.38,186.759 3638.47,188.945 3655.56,191.399 3672.65,192.404 3689.74,192.749 3706.83,192.127 3723.92,192.432 3741.01,192.84 3758.1,193.037 3775.19,191.364 3792.28,188.954 3809.37,188.141 3826.46,192.821 3843.55,199.65 3860.64,207.651 3877.73,215.386 3894.82,222.063 3911.91,224.172 3929,222.169 3946.09,213.37 3963.18,201.656 3980.27,193.842 3997.36,188.991 4014.45,186.759 4031.54,187.402 4048.63,189.563 4065.72,191.982 4082.82,192.988 4099.91,193.335 4117,192.697 4134.09,192.994 4151.18,193.398 4168.27,193.598 4185.36,191.921 4202.45,189.507 4219.54,188.69 4236.63,193.365 4253.72,200.19 4270.81,208.185 4287.9,215.922 4304.99,222.607 4322.08,224.718 4339.17,222.724 4356.26,213.928 4373.35,202.201 4390.44,194.376 4407.53,189.51 4424.62,187.254 4441.71,187.876 4458.8,190.022 4475.89,192.432 4492.98,193.405 4510.07,193.719 4527.16,193.07 4544.25,193.379 4561.34,193.788 4578.43,193.99 4595.52,192.317 4612.62,189.902 4629.71,189.079 "/>
<path clip-path="url(#clip350)" d="M3853.78 853.161 L4607.83 853.161 L4607.83 334.761 L3853.78 334.761  Z" fill="#ffffff" fill-rule="evenodd" fill-opacity="1"/>
<polyline clip-path="url(#clip350)" style="stroke:#000000; stroke-linecap:round; stroke-linejoin:round; stroke-width:4; stroke-opacity:1; fill:none" points="3853.78,853.161 4607.83,853.161 4607.83,334.761 3853.78,334.761 3853.78,853.161 "/>
<polyline clip-path="url(#clip350)" style="stroke:#aeaeae; stroke-linecap:round; stroke-linejoin:round; stroke-width:2; stroke-opacity:1; fill:none" points="3902.09,464.361 4191.94,464.361 "/>
<path clip-path="url(#clip350)" d="M4241.93 497.723 L4261.03 497.723 L4261.03 431.809 L4240.25 435.976 L4240.25 425.328 L4260.91 421.161 L4272.6 421.161 L4272.6 497.723 L4291.7 497.723 L4291.7 507.561 L4241.93 507.561 L4241.93 497.723 Z" fill="#000000" fill-rule="nonzero" fill-opacity="1" /><path clip-path="url(#clip350)" d="M4340.31 428.858 Q4331.28 428.858 4326.71 437.77 Q4322.2 446.624 4322.2 464.448 Q4322.2 482.214 4326.71 491.126 Q4331.28 499.98 4340.31 499.98 Q4349.4 499.98 4353.91 491.126 Q4358.48 482.214 4358.48 464.448 Q4358.48 446.624 4353.91 437.77 Q4349.4 428.858 4340.31 428.858 M4340.31 419.599 Q4354.83 419.599 4362.47 431.115 Q4370.17 442.573 4370.17 464.448 Q4370.17 486.265 4362.47 497.781 Q4354.83 509.239 4340.31 509.239 Q4325.78 509.239 4318.09 497.781 Q4310.45 486.265 4310.45 464.448 Q4310.45 442.573 4318.09 431.115 Q4325.78 419.599 4340.31 419.599 Z" fill="#000000" fill-rule="nonzero" fill-opacity="1" /><path clip-path="url(#clip350)" d="M4415.71 428.858 Q4406.69 428.858 4402.11 437.77 Q4397.6 446.624 4397.6 464.448 Q4397.6 482.214 4402.11 491.126 Q4406.69 499.98 4415.71 499.98 Q4424.8 499.98 4429.31 491.126 Q4433.89 482.214 4433.89 464.448 Q4433.89 446.624 4429.31 437.77 Q4424.8 428.858 4415.71 428.858 M4415.71 419.599 Q4430.24 419.599 4437.88 431.115 Q4445.58 442.573 4445.58 464.448 Q4445.58 486.265 4437.88 497.781 Q4430.24 509.239 4415.71 509.239 Q4401.19 509.239 4393.49 497.781 Q4385.85 486.265 4385.85 464.448 Q4385.85 442.573 4393.49 431.115 Q4401.19 419.599 4415.71 419.599 Z" fill="#000000" fill-rule="nonzero" fill-opacity="1" /><path clip-path="url(#clip350)" d="M4539.61 469.541 Q4534.58 469.541 4531.69 473.823 Q4528.85 478.105 4528.85 485.744 Q4528.85 493.267 4531.69 497.608 Q4534.58 501.89 4539.61 501.89 Q4544.53 501.89 4547.37 497.608 Q4550.26 493.267 4550.26 485.744 Q4550.26 478.163 4547.37 473.881 Q4544.53 469.541 4539.61 469.541 M4539.61 462.191 Q4548.76 462.191 4554.14 468.557 Q4559.52 474.923 4559.52 485.744 Q4559.52 496.566 4554.08 502.932 Q4548.7 509.239 4539.61 509.239 Q4530.35 509.239 4524.97 502.932 Q4519.59 496.566 4519.59 485.744 Q4519.59 474.865 4524.97 468.557 Q4530.41 462.191 4539.61 462.191 M4479.89 426.948 Q4474.92 426.948 4472.02 431.289 Q4469.19 435.571 4469.19 443.094 Q4469.19 450.733 4472.02 455.015 Q4474.86 459.298 4479.89 459.298 Q4484.93 459.298 4487.76 455.015 Q4490.66 450.733 4490.66 443.094 Q4490.66 435.629 4487.76 431.289 Q4484.87 426.948 4479.89 426.948 M4532.15 419.599 L4541.41 419.599 L4487.36 509.239 L4478.1 509.239 L4532.15 419.599 M4479.89 419.599 Q4489.04 419.599 4494.48 425.964 Q4499.92 432.272 4499.92 443.094 Q4499.92 454.031 4494.48 460.339 Q4489.09 466.647 4479.89 466.647 Q4470.69 466.647 4465.31 460.339 Q4459.98 453.974 4459.98 443.094 Q4459.98 432.33 4465.37 425.964 Q4470.75 419.599 4479.89 419.599 Z" fill="#000000" fill-rule="nonzero" fill-opacity="1" /><polyline clip-path="url(#clip350)" style="stroke:#757575; stroke-linecap:round; stroke-linejoin:round; stroke-width:2; stroke-opacity:1; fill:none" points="3902.09,593.961 4191.94,593.961 "/>
<path clip-path="url(#clip350)" d="M4245.81 635.367 L4245.81 624.719 Q4250.21 626.803 4254.72 627.902 Q4259.23 629.002 4263.57 629.002 Q4275.15 629.002 4281.22 621.247 Q4287.36 613.435 4288.23 597.578 Q4284.87 602.555 4279.72 605.217 Q4274.57 607.879 4268.32 607.879 Q4255.36 607.879 4247.78 600.067 Q4240.25 592.196 4240.25 578.597 Q4240.25 565.287 4248.12 557.243 Q4255.99 549.199 4269.07 549.199 Q4284.06 549.199 4291.93 560.715 Q4299.86 572.173 4299.86 594.048 Q4299.86 614.476 4290.14 626.687 Q4280.47 638.839 4264.09 638.839 Q4259.7 638.839 4255.18 637.971 Q4250.67 637.103 4245.81 635.367 M4269.07 598.736 Q4276.94 598.736 4281.51 593.354 Q4286.14 587.972 4286.14 578.597 Q4286.14 569.28 4281.51 563.898 Q4276.94 558.458 4269.07 558.458 Q4261.2 558.458 4256.57 563.898 Q4252 569.28 4252 578.597 Q4252 587.972 4256.57 593.354 Q4261.2 598.736 4269.07 598.736 Z" fill="#000000" fill-rule="nonzero" fill-opacity="1" /><path clip-path="url(#clip350)" d="M4345.87 558.458 Q4336.84 558.458 4332.27 567.37 Q4327.75 576.224 4327.75 594.048 Q4327.75 611.814 4332.27 620.726 Q4336.84 629.58 4345.87 629.58 Q4354.95 629.58 4359.46 620.726 Q4364.04 611.814 4364.04 594.048 Q4364.04 576.224 4359.46 567.37 Q4354.95 558.458 4345.87 558.458 M4345.87 549.199 Q4360.39 549.199 4368.03 560.715 Q4375.73 572.173 4375.73 594.048 Q4375.73 615.865 4368.03 627.381 Q4360.39 638.839 4345.87 638.839 Q4331.34 638.839 4323.64 627.381 Q4316 615.865 4316 594.048 Q4316 572.173 4323.64 560.715 Q4331.34 549.199 4345.87 549.199 Z" fill="#000000" fill-rule="nonzero" fill-opacity="1" /><path clip-path="url(#clip350)" d="M4469.76 599.141 Q4464.73 599.141 4461.84 603.423 Q4459 607.705 4459 615.344 Q4459 622.867 4461.84 627.208 Q4464.73 631.49 4469.76 631.49 Q4474.68 631.49 4477.52 627.208 Q4480.41 622.867 4480.41 615.344 Q4480.41 607.763 4477.52 603.481 Q4474.68 599.141 4469.76 599.141 M4469.76 591.791 Q4478.91 591.791 4484.29 598.157 Q4489.67 604.523 4489.67 615.344 Q4489.67 626.166 4484.23 632.532 Q4478.85 638.839 4469.76 638.839 Q4460.51 638.839 4455.12 632.532 Q4449.74 626.166 4449.74 615.344 Q4449.74 604.465 4455.12 598.157 Q4460.56 591.791 4469.76 591.791 M4410.04 556.548 Q4405.07 556.548 4402.17 560.889 Q4399.34 565.171 4399.34 572.694 Q4399.34 580.333 4402.17 584.615 Q4405.01 588.898 4410.04 588.898 Q4415.08 588.898 4417.91 584.615 Q4420.81 580.333 4420.81 572.694 Q4420.81 565.229 4417.91 560.889 Q4415.02 556.548 4410.04 556.548 M4462.3 549.199 L4471.56 549.199 L4417.51 638.839 L4408.25 638.839 L4462.3 549.199 M4410.04 549.199 Q4419.19 549.199 4424.63 555.564 Q4430.07 561.872 4430.07 572.694 Q4430.07 583.631 4424.63 589.939 Q4419.24 596.247 4410.04 596.247 Q4400.84 596.247 4395.46 589.939 Q4390.14 583.574 4390.14 572.694 Q4390.14 561.93 4395.52 555.564 Q4400.9 549.199 4410.04 549.199 Z" fill="#000000" fill-rule="nonzero" fill-opacity="1" /><polyline clip-path="url(#clip350)" style="stroke:#414141; stroke-linecap:round; stroke-linejoin:round; stroke-width:2; stroke-opacity:1; fill:none" points="3902.09,723.561 4191.94,723.561 "/>
<path clip-path="url(#clip350)" d="M4269.88 725.731 Q4261.55 725.731 4256.75 730.187 Q4252 734.643 4252 742.456 Q4252 750.268 4256.75 754.724 Q4261.55 759.18 4269.88 759.18 Q4278.21 759.18 4283.02 754.724 Q4287.82 750.21 4287.82 742.456 Q4287.82 734.643 4283.02 730.187 Q4278.27 725.731 4269.88 725.731 M4258.19 720.755 Q4250.67 718.903 4246.44 713.752 Q4242.28 708.602 4242.28 701.194 Q4242.28 690.836 4249.63 684.817 Q4257.03 678.799 4269.88 678.799 Q4282.79 678.799 4290.14 684.817 Q4297.49 690.836 4297.49 701.194 Q4297.49 708.602 4293.26 713.752 Q4289.09 718.903 4281.63 720.755 Q4290.08 722.722 4294.77 728.451 Q4299.51 734.18 4299.51 742.456 Q4299.51 755.014 4291.81 761.727 Q4284.18 768.439 4269.88 768.439 Q4255.59 768.439 4247.89 761.727 Q4240.25 755.014 4240.25 742.456 Q4240.25 734.18 4245 728.451 Q4249.74 722.722 4258.19 720.755 M4253.91 702.294 Q4253.91 709.007 4258.08 712.768 Q4262.3 716.53 4269.88 716.53 Q4277.4 716.53 4281.63 712.768 Q4285.91 709.007 4285.91 702.294 Q4285.91 695.581 4281.63 691.82 Q4277.4 688.058 4269.88 688.058 Q4262.3 688.058 4258.08 691.82 Q4253.91 695.581 4253.91 702.294 Z" fill="#000000" fill-rule="nonzero" fill-opacity="1" /><path clip-path="url(#clip350)" d="M4345.29 688.058 Q4336.26 688.058 4331.69 696.97 Q4327.17 705.824 4327.17 723.648 Q4327.17 741.414 4331.69 750.326 Q4336.26 759.18 4345.29 759.18 Q4354.37 759.18 4358.89 750.326 Q4363.46 741.414 4363.46 723.648 Q4363.46 705.824 4358.89 696.97 Q4354.37 688.058 4345.29 688.058 M4345.29 678.799 Q4359.81 678.799 4367.45 690.315 Q4375.15 701.773 4375.15 723.648 Q4375.15 745.465 4367.45 756.981 Q4359.81 768.439 4345.29 768.439 Q4330.76 768.439 4323.06 756.981 Q4315.43 745.465 4315.43 723.648 Q4315.43 701.773 4323.06 690.315 Q4330.76 678.799 4345.29 678.799 Z" fill="#000000" fill-rule="nonzero" fill-opacity="1" /><path clip-path="url(#clip350)" d="M4469.19 728.741 Q4464.15 728.741 4461.26 733.023 Q4458.42 737.305 4458.42 744.944 Q4458.42 752.467 4461.26 756.808 Q4464.15 761.09 4469.19 761.09 Q4474.11 761.09 4476.94 756.808 Q4479.83 752.467 4479.83 744.944 Q4479.83 737.363 4476.94 733.081 Q4474.11 728.741 4469.19 728.741 M4469.19 721.391 Q4478.33 721.391 4483.71 727.757 Q4489.09 734.123 4489.09 744.944 Q4489.09 755.766 4483.65 762.132 Q4478.27 768.439 4469.19 768.439 Q4459.93 768.439 4454.55 762.132 Q4449.16 755.766 4449.16 744.944 Q4449.16 734.065 4454.55 727.757 Q4459.98 721.391 4469.19 721.391 M4409.46 686.148 Q4404.49 686.148 4401.59 690.489 Q4398.76 694.771 4398.76 702.294 Q4398.76 709.933 4401.59 714.215 Q4404.43 718.498 4409.46 718.498 Q4414.5 718.498 4417.33 714.215 Q4420.23 709.933 4420.23 702.294 Q4420.23 694.829 4417.33 690.489 Q4414.44 686.148 4409.46 686.148 M4461.72 678.799 L4470.98 678.799 L4416.93 768.439 L4407.67 768.439 L4461.72 678.799 M4409.46 678.799 Q4418.61 678.799 4424.05 685.164 Q4429.49 691.472 4429.49 702.294 Q4429.49 713.231 4424.05 719.539 Q4418.67 725.847 4409.46 725.847 Q4400.26 725.847 4394.88 719.539 Q4389.56 713.174 4389.56 702.294 Q4389.56 691.53 4394.94 685.164 Q4400.32 678.799 4409.46 678.799 Z" fill="#000000" fill-rule="nonzero" fill-opacity="1" /></svg>
