<?xml version="1.0" encoding="utf-8"?>
<svg xmlns="http://www.w3.org/2000/svg" xmlns:xlink="http://www.w3.org/1999/xlink" width="1200" height="300" viewBox="0 0 4800 1200">
<defs>
  <clipPath id="clip360">
    <rect x="0" y="0" width="4800" height="1200"/>
  </clipPath>
</defs>
<path clip-path="url(#clip360)" d="M0 1200 L4800 1200 L4800 0 L0 0  Z" fill="#ffffff" fill-rule="evenodd" fill-opacity="1"/>
<defs>
  <clipPath id="clip361">
    <rect x="960" y="0" width="3361" height="1200"/>
  </clipPath>
</defs>
<path clip-path="url(#clip360)" d="M660.509 849.455 L4752.76 849.455 L4752.76 47.2441 L660.509 47.2441  Z" fill="#ffffff" fill-rule="evenodd" fill-opacity="1"/>
<defs>
  <clipPath id="clip362">
    <rect x="660" y="47" width="4093" height="803"/>
  </clipPath>
</defs>
<polyline clip-path="url(#clip362)" style="stroke:#000000; stroke-linecap:round; stroke-linejoin:round; stroke-width:2; stroke-opacity:0.1; fill:none" points="776.327,849.455 776.327,47.2441 "/>
<polyline clip-path="url(#clip362)" style="stroke:#000000; stroke-linecap:round; stroke-linejoin:round; stroke-width:2; stroke-opacity:0.1; fill:none" points="1548.45,849.455 1548.45,47.2441 "/>
<polyline clip-path="url(#clip362)" style="stroke:#000000; stroke-linecap:round; stroke-linejoin:round; stroke-width:2; stroke-opacity:0.1; fill:none" points="2320.57,849.455 2320.57,47.2441 "/>
<polyline clip-path="url(#clip362)" style="stroke:#000000; stroke-linecap:round; stroke-linejoin:round; stroke-width:2; stroke-opacity:0.1; fill:none" points="3092.69,849.455 3092.69,47.2441 "/>
<polyline clip-path="url(#clip362)" style="stroke:#000000; stroke-linecap:round; stroke-linejoin:round; stroke-width:2; stroke-opacity:0.1; fill:none" points="3864.82,849.455 3864.82,47.2441 "/>
<polyline clip-path="url(#clip362)" style="stroke:#000000; stroke-linecap:round; stroke-linejoin:round; stroke-width:2; stroke-opacity:0.1; fill:none" points="4636.94,849.455 4636.94,47.2441 "/>
<polyline clip-path="url(#clip362)" style="stroke:#000000; stroke-linecap:round; stroke-linejoin:round; stroke-width:2; stroke-opacity:0.1; fill:none" points="660.509,826.884 4752.76,826.884 "/>
<polyline clip-path="url(#clip362)" style="stroke:#000000; stroke-linecap:round; stroke-linejoin:round; stroke-width:2; stroke-opacity:0.1; fill:none" points="660.509,604.439 4752.76,604.439 "/>
<polyline clip-path="url(#clip362)" style="stroke:#000000; stroke-linecap:round; stroke-linejoin:round; stroke-width:2; stroke-opacity:0.1; fill:none" points="660.509,381.994 4752.76,381.994 "/>
<polyline clip-path="url(#clip362)" style="stroke:#000000; stroke-linecap:round; stroke-linejoin:round; stroke-width:2; stroke-opacity:0.1; fill:none" points="660.509,159.55 4752.76,159.55 "/>
<polyline clip-path="url(#clip360)" style="stroke:#000000; stroke-linecap:round; stroke-linejoin:round; stroke-width:4; stroke-opacity:1; fill:none" points="660.509,849.455 4752.76,849.455 "/>
<polyline clip-path="url(#clip360)" style="stroke:#000000; stroke-linecap:round; stroke-linejoin:round; stroke-width:4; stroke-opacity:1; fill:none" points="776.327,849.455 776.327,830.558 "/>
<polyline clip-path="url(#clip360)" style="stroke:#000000; stroke-linecap:round; stroke-linejoin:round; stroke-width:4; stroke-opacity:1; fill:none" points="1548.45,849.455 1548.45,830.558 "/>
<polyline clip-path="url(#clip360)" style="stroke:#000000; stroke-linecap:round; stroke-linejoin:round; stroke-width:4; stroke-opacity:1; fill:none" points="2320.57,849.455 2320.57,830.558 "/>
<polyline clip-path="url(#clip360)" style="stroke:#000000; stroke-linecap:round; stroke-linejoin:round; stroke-width:4; stroke-opacity:1; fill:none" points="3092.69,849.455 3092.69,830.558 "/>
<polyline clip-path="url(#clip360)" style="stroke:#000000; stroke-linecap:round; stroke-linejoin:round; stroke-width:4; stroke-opacity:1; fill:none" points="3864.82,849.455 3864.82,830.558 "/>
<polyline clip-path="url(#clip360)" style="stroke:#000000; stroke-linecap:round; stroke-linejoin:round; stroke-width:4; stroke-opacity:1; fill:none" points="4636.94,849.455 4636.94,830.558 "/>
<path clip-path="url(#clip360)" d="M776.327 911.293 Q769.105 911.293 765.448 918.422 Q761.837 925.506 761.837 939.765 Q761.837 953.978 765.448 961.107 Q769.105 968.191 776.327 968.191 Q783.596 968.191 787.207 961.107 Q790.864 953.978 790.864 939.765 Q790.864 925.506 787.207 918.422 Q783.596 911.293 776.327 911.293 M776.327 903.885 Q787.948 903.885 794.059 913.098 Q800.216 922.265 800.216 939.765 Q800.216 957.218 794.059 966.431 Q787.948 975.598 776.327 975.598 Q764.707 975.598 758.55 966.431 Q752.439 957.218 752.439 939.765 Q752.439 922.265 758.55 913.098 Q764.707 903.885 776.327 903.885 Z" fill="#000000" fill-rule="nonzero" fill-opacity="1" /><path clip-path="url(#clip360)" d="M1537.75 966.385 L1570.39 966.385 L1570.39 974.255 L1526.51 974.255 L1526.51 966.385 Q1531.83 960.876 1541 951.617 Q1550.21 942.311 1552.57 939.626 Q1557.06 934.58 1558.82 931.108 Q1560.63 927.589 1560.63 924.209 Q1560.63 918.7 1556.74 915.228 Q1552.89 911.756 1546.69 911.756 Q1542.29 911.756 1537.38 913.284 Q1532.52 914.811 1526.97 917.913 L1526.97 908.469 Q1532.62 906.2 1537.52 905.043 Q1542.43 903.885 1546.5 903.885 Q1557.25 903.885 1563.63 909.256 Q1570.02 914.626 1570.02 923.608 Q1570.02 927.867 1568.4 931.709 Q1566.83 935.506 1562.62 940.691 Q1561.46 942.033 1555.25 948.469 Q1549.05 954.857 1537.75 966.385 Z" fill="#000000" fill-rule="nonzero" fill-opacity="1" /><path clip-path="url(#clip360)" d="M2326.59 913.284 L2302.98 950.181 L2326.59 950.181 L2326.59 913.284 M2324.14 905.135 L2335.9 905.135 L2335.9 950.181 L2345.76 950.181 L2345.76 957.959 L2335.9 957.959 L2335.9 974.255 L2326.59 974.255 L2326.59 957.959 L2295.39 957.959 L2295.39 948.931 L2324.14 905.135 Z" fill="#000000" fill-rule="nonzero" fill-opacity="1" /><path clip-path="url(#clip360)" d="M3093.5 935.969 Q3087.21 935.969 3083.5 940.274 Q3079.85 944.58 3079.85 952.08 Q3079.85 959.533 3083.5 963.885 Q3087.21 968.191 3093.5 968.191 Q3099.8 968.191 3103.46 963.885 Q3107.16 959.533 3107.16 952.08 Q3107.16 944.58 3103.46 940.274 Q3099.8 935.969 3093.5 935.969 M3112.07 906.663 L3112.07 915.182 Q3108.55 913.515 3104.94 912.635 Q3101.37 911.756 3097.86 911.756 Q3088.6 911.756 3083.69 918.006 Q3078.83 924.256 3078.13 936.895 Q3080.86 932.867 3084.99 930.737 Q3089.11 928.561 3094.06 928.561 Q3104.48 928.561 3110.49 934.904 Q3116.56 941.2 3116.56 952.08 Q3116.56 962.728 3110.26 969.163 Q3103.97 975.598 3093.5 975.598 Q3081.51 975.598 3075.17 966.431 Q3068.83 957.218 3068.83 939.765 Q3068.83 923.376 3076.61 913.654 Q3084.38 903.885 3097.49 903.885 Q3101 903.885 3104.57 904.58 Q3108.18 905.274 3112.07 906.663 Z" fill="#000000" fill-rule="nonzero" fill-opacity="1" /><path clip-path="url(#clip360)" d="M3864.82 941.432 Q3858.15 941.432 3854.31 944.996 Q3850.51 948.561 3850.51 954.811 Q3850.51 961.061 3854.31 964.626 Q3858.15 968.191 3864.82 968.191 Q3871.48 968.191 3875.32 964.626 Q3879.17 961.015 3879.17 954.811 Q3879.17 948.561 3875.32 944.996 Q3871.53 941.432 3864.82 941.432 M3855.46 937.45 Q3849.45 935.969 3846.07 931.848 Q3842.73 927.728 3842.73 921.802 Q3842.73 913.515 3848.61 908.7 Q3854.54 903.885 3864.82 903.885 Q3875.14 903.885 3881.02 908.7 Q3886.9 913.515 3886.9 921.802 Q3886.9 927.728 3883.52 931.848 Q3880.19 935.969 3874.21 937.45 Q3880.97 939.024 3884.72 943.607 Q3888.52 948.191 3888.52 954.811 Q3888.52 964.857 3882.36 970.228 Q3876.25 975.598 3864.82 975.598 Q3853.38 975.598 3847.22 970.228 Q3841.11 964.857 3841.11 954.811 Q3841.11 948.191 3844.91 943.607 Q3848.7 939.024 3855.46 937.45 M3852.04 922.682 Q3852.04 928.052 3855.37 931.061 Q3858.75 934.07 3864.82 934.07 Q3870.83 934.07 3874.21 931.061 Q3877.64 928.052 3877.64 922.682 Q3877.64 917.311 3874.21 914.302 Q3870.83 911.293 3864.82 911.293 Q3858.75 911.293 3855.37 914.302 Q3852.04 917.311 3852.04 922.682 Z" fill="#000000" fill-rule="nonzero" fill-opacity="1" /><path clip-path="url(#clip360)" d="M4586.31 966.385 L4601.59 966.385 L4601.59 913.654 L4584.97 916.987 L4584.97 908.469 L4601.5 905.135 L4610.85 905.135 L4610.85 966.385 L4626.13 966.385 L4626.13 974.255 L4586.31 974.255 L4586.31 966.385 Z" fill="#000000" fill-rule="nonzero" fill-opacity="1" /><path clip-path="url(#clip360)" d="M4665.02 911.293 Q4657.79 911.293 4654.14 918.422 Q4650.53 925.506 4650.53 939.765 Q4650.53 953.978 4654.14 961.107 Q4657.79 968.191 4665.02 968.191 Q4672.28 968.191 4675.9 961.107 Q4679.55 953.978 4679.55 939.765 Q4679.55 925.506 4675.9 918.422 Q4672.28 911.293 4665.02 911.293 M4665.02 903.885 Q4676.64 903.885 4682.75 913.098 Q4688.9 922.265 4688.9 939.765 Q4688.9 957.218 4682.75 966.431 Q4676.64 975.598 4665.02 975.598 Q4653.4 975.598 4647.24 966.431 Q4641.13 957.218 4641.13 939.765 Q4641.13 922.265 4647.24 913.098 Q4653.4 903.885 4665.02 903.885 Z" fill="#000000" fill-rule="nonzero" fill-opacity="1" /><path clip-path="url(#clip360)" d="M2423.87 1040.69 L2489.65 1040.69 L2489.65 1049.54 L2462.05 1049.54 L2462.05 1118.45 L2451.48 1118.45 L2451.48 1049.54 L2423.87 1049.54 L2423.87 1040.69 Z" fill="#000000" fill-rule="nonzero" fill-opacity="1" /><path clip-path="url(#clip360)" d="M2496.11 1060.11 L2505.7 1060.11 L2505.7 1118.45 L2496.11 1118.45 L2496.11 1060.11 M2496.11 1037.41 L2505.7 1037.41 L2505.7 1049.54 L2496.11 1049.54 L2496.11 1037.41 Z" fill="#000000" fill-rule="nonzero" fill-opacity="1" /><path clip-path="url(#clip360)" d="M2571.16 1071.31 Q2574.76 1064.85 2579.76 1061.78 Q2584.76 1058.71 2591.53 1058.71 Q2600.64 1058.71 2605.59 1065.11 Q2610.54 1071.47 2610.54 1083.24 L2610.54 1118.45 L2600.9 1118.45 L2600.9 1083.55 Q2600.9 1075.17 2597.94 1071.1 Q2594.97 1067.04 2588.87 1067.04 Q2581.42 1067.04 2577.1 1071.99 Q2572.78 1076.94 2572.78 1085.48 L2572.78 1118.45 L2563.14 1118.45 L2563.14 1083.55 Q2563.14 1075.11 2560.17 1071.1 Q2557.21 1067.04 2551.01 1067.04 Q2543.66 1067.04 2539.34 1072.04 Q2535.02 1076.99 2535.02 1085.48 L2535.02 1118.45 L2525.38 1118.45 L2525.38 1060.11 L2535.02 1060.11 L2535.02 1069.18 Q2538.3 1063.81 2542.88 1061.26 Q2547.47 1058.71 2553.77 1058.71 Q2560.12 1058.71 2564.55 1061.94 Q2569.03 1065.17 2571.16 1071.31 Z" fill="#000000" fill-rule="nonzero" fill-opacity="1" /><path clip-path="url(#clip360)" d="M2679.55 1086.89 L2679.55 1091.57 L2635.49 1091.57 Q2636.11 1101.47 2641.42 1106.68 Q2646.79 1111.83 2656.32 1111.83 Q2661.84 1111.83 2667 1110.48 Q2672.21 1109.12 2677.31 1106.42 L2677.31 1115.48 Q2672.15 1117.67 2666.74 1118.81 Q2661.32 1119.96 2655.75 1119.96 Q2641.79 1119.96 2633.61 1111.83 Q2625.49 1103.71 2625.49 1089.85 Q2625.49 1075.53 2633.2 1067.15 Q2640.96 1058.71 2654.08 1058.71 Q2665.85 1058.71 2672.67 1066.31 Q2679.55 1073.86 2679.55 1086.89 M2669.97 1084.07 Q2669.86 1076.21 2665.54 1071.52 Q2661.27 1066.83 2654.18 1066.83 Q2646.16 1066.83 2641.32 1071.36 Q2636.53 1075.9 2635.8 1084.12 L2669.97 1084.07 Z" fill="#000000" fill-rule="nonzero" fill-opacity="1" /><path clip-path="url(#clip360)" d="M2752.21 1037.51 Q2745.23 1049.49 2741.84 1061.21 Q2738.46 1072.93 2738.46 1084.96 Q2738.46 1096.99 2741.84 1108.81 Q2745.28 1120.58 2752.21 1132.51 L2743.87 1132.51 Q2736.06 1120.27 2732.15 1108.45 Q2728.3 1096.62 2728.3 1084.96 Q2728.3 1073.34 2732.15 1061.57 Q2736.01 1049.8 2743.87 1037.51 L2752.21 1037.51 Z" fill="#000000" fill-rule="nonzero" fill-opacity="1" /><path clip-path="url(#clip360)" d="M2809.18 1068.97 L2809.18 1037.41 L2818.77 1037.41 L2818.77 1118.45 L2809.18 1118.45 L2809.18 1109.7 Q2806.16 1114.91 2801.53 1117.46 Q2796.94 1119.96 2790.49 1119.96 Q2779.91 1119.96 2773.25 1111.52 Q2766.63 1103.08 2766.63 1089.33 Q2766.63 1075.58 2773.25 1067.15 Q2779.91 1058.71 2790.49 1058.71 Q2796.94 1058.71 2801.53 1061.26 Q2806.16 1063.76 2809.18 1068.97 M2776.53 1089.33 Q2776.53 1099.91 2780.85 1105.95 Q2785.23 1111.94 2792.83 1111.94 Q2800.43 1111.94 2804.81 1105.95 Q2809.18 1099.91 2809.18 1089.33 Q2809.18 1078.76 2804.81 1072.77 Q2800.43 1066.73 2792.83 1066.73 Q2785.23 1066.73 2780.85 1072.77 Q2776.53 1078.76 2776.53 1089.33 Z" fill="#000000" fill-rule="nonzero" fill-opacity="1" /><path clip-path="url(#clip360)" d="M2865.02 1089.12 Q2853.4 1089.12 2848.92 1091.78 Q2844.44 1094.44 2844.44 1100.84 Q2844.44 1105.95 2847.78 1108.97 Q2851.16 1111.94 2856.94 1111.94 Q2864.91 1111.94 2869.7 1106.31 Q2874.55 1100.64 2874.55 1091.26 L2874.55 1089.12 L2865.02 1089.12 M2884.13 1085.17 L2884.13 1118.45 L2874.55 1118.45 L2874.55 1109.59 Q2871.27 1114.91 2866.37 1117.46 Q2861.48 1119.96 2854.39 1119.96 Q2845.43 1119.96 2840.12 1114.96 Q2834.86 1109.91 2834.86 1101.47 Q2834.86 1091.62 2841.42 1086.62 Q2848.04 1081.62 2861.11 1081.62 L2874.55 1081.62 L2874.55 1080.69 Q2874.55 1074.07 2870.17 1070.48 Q2865.85 1066.83 2857.99 1066.83 Q2852.99 1066.83 2848.25 1068.03 Q2843.51 1069.23 2839.13 1071.62 L2839.13 1062.77 Q2844.39 1060.74 2849.34 1059.75 Q2854.29 1058.71 2858.98 1058.71 Q2871.63 1058.71 2877.88 1065.27 Q2884.13 1071.83 2884.13 1085.17 Z" fill="#000000" fill-rule="nonzero" fill-opacity="1" /><path clip-path="url(#clip360)" d="M2928.14 1123.86 Q2924.08 1134.28 2920.23 1137.46 Q2916.37 1140.63 2909.91 1140.63 L2902.26 1140.63 L2902.26 1132.61 L2907.88 1132.61 Q2911.84 1132.61 2914.03 1130.74 Q2916.21 1128.86 2918.87 1121.88 L2920.59 1117.51 L2897 1060.11 L2907.15 1060.11 L2925.38 1105.74 L2943.61 1060.11 L2953.77 1060.11 L2928.14 1123.86 Z" fill="#000000" fill-rule="nonzero" fill-opacity="1" /><path clip-path="url(#clip360)" d="M2965.49 1037.51 L2973.82 1037.51 Q2981.63 1049.8 2985.49 1061.57 Q2989.39 1073.34 2989.39 1084.96 Q2989.39 1096.62 2985.49 1108.45 Q2981.63 1120.27 2973.82 1132.51 L2965.49 1132.51 Q2972.41 1120.58 2975.8 1108.81 Q2979.24 1096.99 2979.24 1084.96 Q2979.24 1072.93 2975.8 1061.21 Q2972.41 1049.49 2965.49 1037.51 Z" fill="#000000" fill-rule="nonzero" fill-opacity="1" /><polyline clip-path="url(#clip360)" style="stroke:#000000; stroke-linecap:round; stroke-linejoin:round; stroke-width:4; stroke-opacity:1; fill:none" points="660.509,849.455 660.509,47.2441 "/>
<polyline clip-path="url(#clip360)" style="stroke:#000000; stroke-linecap:round; stroke-linejoin:round; stroke-width:4; stroke-opacity:1; fill:none" points="660.509,826.884 679.407,826.884 "/>
<polyline clip-path="url(#clip360)" style="stroke:#000000; stroke-linecap:round; stroke-linejoin:round; stroke-width:4; stroke-opacity:1; fill:none" points="660.509,604.439 679.407,604.439 "/>
<polyline clip-path="url(#clip360)" style="stroke:#000000; stroke-linecap:round; stroke-linejoin:round; stroke-width:4; stroke-opacity:1; fill:none" points="660.509,381.994 679.407,381.994 "/>
<polyline clip-path="url(#clip360)" style="stroke:#000000; stroke-linecap:round; stroke-linejoin:round; stroke-width:4; stroke-opacity:1; fill:none" points="660.509,159.55 679.407,159.55 "/>
<path clip-path="url(#clip360)" d="M564.62 798.481 Q557.398 798.481 553.741 805.611 Q550.13 812.694 550.13 826.953 Q550.13 841.166 553.741 848.296 Q557.398 855.379 564.62 855.379 Q571.889 855.379 575.5 848.296 Q579.157 841.166 579.157 826.953 Q579.157 812.694 575.5 805.611 Q571.889 798.481 564.62 798.481 M564.62 791.074 Q576.241 791.074 582.352 800.287 Q588.509 809.453 588.509 826.953 Q588.509 844.407 582.352 853.62 Q576.241 862.786 564.62 862.786 Q553 862.786 546.843 853.62 Q540.731 844.407 540.731 826.953 Q540.731 809.453 546.843 800.287 Q553 791.074 564.62 791.074 Z" fill="#000000" fill-rule="nonzero" fill-opacity="1" /><path clip-path="url(#clip360)" d="M225.785 644.024 L258.424 644.024 L258.424 651.894 L214.535 651.894 L214.535 644.024 Q219.859 638.515 229.026 629.255 Q238.239 619.95 240.6 617.265 Q245.091 612.218 246.85 608.746 Q248.655 605.228 248.655 601.848 Q248.655 596.339 244.767 592.867 Q240.924 589.394 234.72 589.394 Q230.322 589.394 225.415 590.922 Q220.554 592.45 214.998 595.552 L214.998 586.107 Q220.646 583.839 225.554 582.682 Q230.461 581.524 234.535 581.524 Q245.276 581.524 251.665 586.895 Q258.054 592.265 258.054 601.246 Q258.054 605.506 256.433 609.348 Q254.859 613.144 250.646 618.33 Q249.489 619.672 243.285 626.107 Q237.081 632.496 225.785 644.024 Z" fill="#000000" fill-rule="nonzero" fill-opacity="1" /><path clip-path="url(#clip360)" d="M278.053 640.135 L287.822 640.135 L287.822 651.894 L278.053 651.894 L278.053 640.135 Z" fill="#000000" fill-rule="nonzero" fill-opacity="1" /><path clip-path="url(#clip360)" d="M328.192 588.932 Q320.97 588.932 317.313 596.061 Q313.701 603.144 313.701 617.404 Q313.701 631.616 317.313 638.746 Q320.97 645.829 328.192 645.829 Q335.461 645.829 339.072 638.746 Q342.729 631.616 342.729 617.404 Q342.729 603.144 339.072 596.061 Q335.461 588.932 328.192 588.932 M328.192 581.524 Q339.812 581.524 345.923 590.737 Q352.081 599.904 352.081 617.404 Q352.081 634.857 345.923 644.07 Q339.812 653.237 328.192 653.237 Q316.572 653.237 310.414 644.07 Q304.303 634.857 304.303 617.404 Q304.303 599.904 310.414 590.737 Q316.572 581.524 328.192 581.524 Z" fill="#000000" fill-rule="nonzero" fill-opacity="1" /><path clip-path="url(#clip360)" d="M424.858 600.969 L403.701 622.218 L424.858 643.376 L419.349 648.978 L398.099 627.728 L376.849 648.978 L371.386 643.376 L392.497 622.218 L371.386 600.969 L376.849 595.367 L398.099 616.617 L419.349 595.367 L424.858 600.969 Z" fill="#000000" fill-rule="nonzero" fill-opacity="1" /><path clip-path="url(#clip360)" d="M449.58 644.024 L464.858 644.024 L464.858 591.293 L448.238 594.626 L448.238 586.107 L464.765 582.774 L474.117 582.774 L474.117 644.024 L489.395 644.024 L489.395 651.894 L449.58 651.894 L449.58 644.024 Z" fill="#000000" fill-rule="nonzero" fill-opacity="1" /><path clip-path="url(#clip360)" d="M528.284 588.932 Q521.061 588.932 517.404 596.061 Q513.793 603.144 513.793 617.404 Q513.793 631.616 517.404 638.746 Q521.061 645.829 528.284 645.829 Q535.552 645.829 539.163 638.746 Q542.821 631.616 542.821 617.404 Q542.821 603.144 539.163 596.061 Q535.552 588.932 528.284 588.932 M528.284 581.524 Q539.904 581.524 546.015 590.737 Q552.172 599.904 552.172 617.404 Q552.172 634.857 546.015 644.07 Q539.904 653.237 528.284 653.237 Q516.663 653.237 510.506 644.07 Q504.395 634.857 504.395 617.404 Q504.395 599.904 510.506 590.737 Q516.663 581.524 528.284 581.524 Z" fill="#000000" fill-rule="nonzero" fill-opacity="1" /><path clip-path="url(#clip360)" d="M554.542 540.913 L584.371 540.913 L584.371 547.308 L561.501 547.308 L561.501 561.075 Q563.156 560.511 564.811 560.248 Q566.466 559.947 568.121 559.947 Q577.525 559.947 583.017 565.1 Q588.509 570.253 588.509 579.056 Q588.509 588.121 582.867 593.161 Q577.224 598.164 566.955 598.164 Q563.419 598.164 559.733 597.562 Q556.084 596.961 552.172 595.757 L552.172 588.121 Q555.558 589.964 559.169 590.867 Q562.78 591.77 566.805 591.77 Q573.312 591.77 577.111 588.347 Q580.911 584.924 580.911 579.056 Q580.911 573.187 577.111 569.764 Q573.312 566.341 566.805 566.341 Q563.758 566.341 560.711 567.019 Q557.702 567.696 554.542 569.125 L554.542 540.913 Z" fill="#000000" fill-rule="nonzero" fill-opacity="1" /><path clip-path="url(#clip360)" d="M243.424 368.478 L219.813 405.376 L243.424 405.376 L243.424 368.478 M240.97 360.33 L252.73 360.33 L252.73 405.376 L262.591 405.376 L262.591 413.153 L252.73 413.153 L252.73 429.45 L243.424 429.45 L243.424 413.153 L212.22 413.153 L212.22 404.126 L240.97 360.33 Z" fill="#000000" fill-rule="nonzero" fill-opacity="1" /><path clip-path="url(#clip360)" d="M278.053 417.69 L287.822 417.69 L287.822 429.45 L278.053 429.45 L278.053 417.69 Z" fill="#000000" fill-rule="nonzero" fill-opacity="1" /><path clip-path="url(#clip360)" d="M328.192 366.487 Q320.97 366.487 317.313 373.616 Q313.701 380.7 313.701 394.959 Q313.701 409.172 317.313 416.301 Q320.97 423.385 328.192 423.385 Q335.461 423.385 339.072 416.301 Q342.729 409.172 342.729 394.959 Q342.729 380.7 339.072 373.616 Q335.461 366.487 328.192 366.487 M328.192 359.08 Q339.812 359.08 345.923 368.292 Q352.081 377.459 352.081 394.959 Q352.081 412.413 345.923 421.625 Q339.812 430.792 328.192 430.792 Q316.572 430.792 310.414 421.625 Q304.303 412.413 304.303 394.959 Q304.303 377.459 310.414 368.292 Q316.572 359.08 328.192 359.08 Z" fill="#000000" fill-rule="nonzero" fill-opacity="1" /><path clip-path="url(#clip360)" d="M424.858 378.524 L403.701 399.774 L424.858 420.931 L419.349 426.533 L398.099 405.283 L376.849 426.533 L371.386 420.931 L392.497 399.774 L371.386 378.524 L376.849 372.922 L398.099 394.172 L419.349 372.922 L424.858 378.524 Z" fill="#000000" fill-rule="nonzero" fill-opacity="1" /><path clip-path="url(#clip360)" d="M449.58 421.579 L464.858 421.579 L464.858 368.848 L448.238 372.181 L448.238 363.663 L464.765 360.33 L474.117 360.33 L474.117 421.579 L489.395 421.579 L489.395 429.45 L449.58 429.45 L449.58 421.579 Z" fill="#000000" fill-rule="nonzero" fill-opacity="1" /><path clip-path="url(#clip360)" d="M528.284 366.487 Q521.061 366.487 517.404 373.616 Q513.793 380.7 513.793 394.959 Q513.793 409.172 517.404 416.301 Q521.061 423.385 528.284 423.385 Q535.552 423.385 539.163 416.301 Q542.821 409.172 542.821 394.959 Q542.821 380.7 539.163 373.616 Q535.552 366.487 528.284 366.487 M528.284 359.08 Q539.904 359.08 546.015 368.292 Q552.172 377.459 552.172 394.959 Q552.172 412.413 546.015 421.625 Q539.904 430.792 528.284 430.792 Q516.663 430.792 510.506 421.625 Q504.395 412.413 504.395 394.959 Q504.395 377.459 510.506 368.292 Q516.663 359.08 528.284 359.08 Z" fill="#000000" fill-rule="nonzero" fill-opacity="1" /><path clip-path="url(#clip360)" d="M554.542 318.469 L584.371 318.469 L584.371 324.863 L561.501 324.863 L561.501 338.631 Q563.156 338.066 564.811 337.803 Q566.466 337.502 568.121 337.502 Q577.525 337.502 583.017 342.656 Q588.509 347.809 588.509 356.611 Q588.509 365.676 582.867 370.717 Q577.224 375.72 566.955 375.72 Q563.419 375.72 559.733 375.118 Q556.084 374.516 552.172 373.312 L552.172 365.676 Q555.558 367.519 559.169 368.422 Q562.78 369.325 566.805 369.325 Q573.312 369.325 577.111 365.902 Q580.911 362.479 580.911 356.611 Q580.911 350.743 577.111 347.32 Q573.312 343.897 566.805 343.897 Q563.758 343.897 560.711 344.574 Q557.702 345.251 554.542 346.68 L554.542 318.469 Z" fill="#000000" fill-rule="nonzero" fill-opacity="1" /><path clip-path="url(#clip360)" d="M238.887 168.718 Q232.591 168.718 228.887 173.024 Q225.23 177.329 225.23 184.829 Q225.23 192.283 228.887 196.635 Q232.591 200.94 238.887 200.94 Q245.183 200.94 248.841 196.635 Q252.544 192.283 252.544 184.829 Q252.544 177.329 248.841 173.024 Q245.183 168.718 238.887 168.718 M257.452 139.413 L257.452 147.931 Q253.933 146.264 250.322 145.385 Q246.757 144.505 243.239 144.505 Q233.98 144.505 229.072 150.755 Q224.211 157.005 223.517 169.644 Q226.248 165.616 230.369 163.487 Q234.489 161.311 239.443 161.311 Q249.859 161.311 255.878 167.653 Q261.942 173.95 261.942 184.829 Q261.942 195.477 255.646 201.912 Q249.35 208.347 238.887 208.347 Q226.896 208.347 220.554 199.181 Q214.211 189.968 214.211 172.514 Q214.211 156.126 221.989 146.403 Q229.767 136.635 242.868 136.635 Q246.387 136.635 249.952 137.329 Q253.563 138.024 257.452 139.413 Z" fill="#000000" fill-rule="nonzero" fill-opacity="1" /><path clip-path="url(#clip360)" d="M278.053 195.246 L287.822 195.246 L287.822 207.005 L278.053 207.005 L278.053 195.246 Z" fill="#000000" fill-rule="nonzero" fill-opacity="1" /><path clip-path="url(#clip360)" d="M328.192 144.042 Q320.97 144.042 317.313 151.172 Q313.701 158.255 313.701 172.514 Q313.701 186.727 317.313 193.857 Q320.97 200.94 328.192 200.94 Q335.461 200.94 339.072 193.857 Q342.729 186.727 342.729 172.514 Q342.729 158.255 339.072 151.172 Q335.461 144.042 328.192 144.042 M328.192 136.635 Q339.812 136.635 345.923 145.848 Q352.081 155.014 352.081 172.514 Q352.081 189.968 345.923 199.181 Q339.812 208.347 328.192 208.347 Q316.572 208.347 310.414 199.181 Q304.303 189.968 304.303 172.514 Q304.303 155.014 310.414 145.848 Q316.572 136.635 328.192 136.635 Z" fill="#000000" fill-rule="nonzero" fill-opacity="1" /><path clip-path="url(#clip360)" d="M424.858 156.079 L403.701 177.329 L424.858 198.486 L419.349 204.088 L398.099 182.838 L376.849 204.088 L371.386 198.486 L392.497 177.329 L371.386 156.079 L376.849 150.477 L398.099 171.727 L419.349 150.477 L424.858 156.079 Z" fill="#000000" fill-rule="nonzero" fill-opacity="1" /><path clip-path="url(#clip360)" d="M449.58 199.135 L464.858 199.135 L464.858 146.403 L448.238 149.737 L448.238 141.218 L464.765 137.885 L474.117 137.885 L474.117 199.135 L489.395 199.135 L489.395 207.005 L449.58 207.005 L449.58 199.135 Z" fill="#000000" fill-rule="nonzero" fill-opacity="1" /><path clip-path="url(#clip360)" d="M528.284 144.042 Q521.061 144.042 517.404 151.172 Q513.793 158.255 513.793 172.514 Q513.793 186.727 517.404 193.857 Q521.061 200.94 528.284 200.94 Q535.552 200.94 539.163 193.857 Q542.821 186.727 542.821 172.514 Q542.821 158.255 539.163 151.172 Q535.552 144.042 528.284 144.042 M528.284 136.635 Q539.904 136.635 546.015 145.848 Q552.172 155.014 552.172 172.514 Q552.172 189.968 546.015 199.181 Q539.904 208.347 528.284 208.347 Q516.663 208.347 510.506 199.181 Q504.395 189.968 504.395 172.514 Q504.395 155.014 510.506 145.848 Q516.663 136.635 528.284 136.635 Z" fill="#000000" fill-rule="nonzero" fill-opacity="1" /><path clip-path="url(#clip360)" d="M554.542 96.0241 L584.371 96.0241 L584.371 102.419 L561.501 102.419 L561.501 116.186 Q563.156 115.622 564.811 115.358 Q566.466 115.058 568.121 115.058 Q577.525 115.058 583.017 120.211 Q588.509 125.364 588.509 134.166 Q588.509 143.232 582.867 148.272 Q577.224 153.275 566.955 153.275 Q563.419 153.275 559.733 152.673 Q556.084 152.071 552.172 150.868 L552.172 143.232 Q555.558 145.075 559.169 145.978 Q562.78 146.88 566.805 146.88 Q573.312 146.88 577.111 143.457 Q580.911 140.034 580.911 134.166 Q580.911 128.298 577.111 124.875 Q573.312 121.452 566.805 121.452 Q563.758 121.452 560.711 122.129 Q557.702 122.806 554.542 124.236 L554.542 96.0241 Z" fill="#000000" fill-rule="nonzero" fill-opacity="1" /><path clip-path="url(#clip362)" d="M776.327 826.751 L792.413 825.995 L808.499 825.622 L824.585 825.266 L840.671 824.921 L856.757 824.577 L872.843 823.689 L888.928 821.289 L905.014 820.325 L921.1 820.054 L937.186 819.815 L953.272 819.601 L969.358 819.41 L985.444 819.238 L1001.53 819.083 L1017.62 818.936 L1033.7 818.79 L1049.79 818.638 L1065.87 818.473 L1081.96 818.294 L1098.04 818.114 L1114.13 817.939 L1130.22 817.766 L1146.3 817.596 L1162.39 817.433 L1178.47 817.277 L1194.56 817.126 L1210.65 816.982 L1226.73 816.843 L1242.82 816.71 L1258.9 816.582 L1274.99 816.468 L1291.08 816.387 L1307.16 816.34 L1323.25 816.325 L1339.33 816.333 L1355.42 816.358 L1371.5 816.393 L1387.59 816.43 L1403.68 816.46 L1419.76 816.477 L1435.85 816.473 L1451.93 816.444 L1468.02 816.386 L1484.11 816.32 L1500.19 816.253 L1516.28 816.183 L1532.36 816.112 L1548.45 816.041 L1564.54 815.972 L1580.62 815.908 L1596.71 815.847 L1612.79 815.792 L1628.88 815.742 L1644.96 815.695 L1661.05 815.658 L1677.14 815.655 L1693.22 815.688 L1709.31 815.751 L1725.39 815.835 L1741.48 815.934 L1757.57 816.039 L1773.65 816.141 L1789.74 816.233 L1805.82 816.308 L1821.91 816.359 L1838 816.381 L1854.08 816.372 L1870.17 816.352 L1886.25 816.329 L1902.34 816.302 L1918.42 816.271 L1934.51 816.238 L1950.6 816.208 L1966.68 816.179 L1982.77 816.154 L1998.85 816.134 L2014.94 816.117 L2031.03 816.1 L2047.11 816.092 L2063.2 816.116 L2079.28 816.171 L2095.37 816.254 L2111.46 816.356 L2127.54 816.471 L2143.63 816.589 L2159.71 816.704 L2175.8 816.808 L2191.88 816.896 L2207.97 816.965 L2224.06 817.007 L2240.14 817.023 L2256.23 817.026 L2272.31 817.025 L2288.4 817.017 L2304.49 817.004 L2320.57 816.988 L2336.66 816.975 L2352.74 816.962 L2368.83 816.953 L2384.91 816.947 L2401 816.944 L2417.09 816.941 L2433.17 816.945 L2449.26 816.975 L2465.34 817.033 L2481.43 817.113 L2497.52 817.204 L2513.6 817.298 L2529.69 817.39 L2545.77 817.476 L2561.86 817.555 L2577.95 817.625 L2594.03 817.68 L2610.12 817.718 L2626.2 817.744 L2642.29 817.766 L2658.37 817.784 L2674.46 817.796 L2690.55 817.801 L2706.63 817.803 L2722.72 817.804 L2738.8 817.804 L2754.89 817.805 L2770.98 817.808 L2787.06 817.814 L2803.15 817.818 L2819.23 817.812 L2835.32 817.834 L2851.41 817.885 L2867.49 817.949 L2883.58 818.018 L2899.66 818.089 L2915.75 818.159 L2931.83 818.227 L2947.92 818.29 L2964.01 818.345 L2980.09 818.389 L2996.18 818.419 L3012.26 818.438 L3028.35 818.456 L3044.44 818.47 L3060.52 818.479 L3076.61 818.484 L3092.69 818.486 L3108.78 818.49 L3124.87 818.494 L3140.95 818.501 L3157.04 818.511 L3173.12 818.524 L3189.21 818.535 L3205.29 818.528 L3221.38 818.535 L3237.47 818.569 L3253.55 818.616 L3269.64 818.67 L3285.72 818.728 L3301.81 818.788 L3317.9 818.846 L3333.98 818.901 L3350.07 818.95 L3366.15 818.988 L3382.24 819.014 L3398.33 819.031 L3414.41 819.046 L3430.5 819.058 L3446.58 819.066 L3462.67 819.069 L3478.75 819.07 L3494.84 819.072 L3510.93 819.076 L3527.01 819.083 L3543.1 819.092 L3559.18 819.105 L3575.27 819.116 L3591.36 819.111 L3607.44 819.114 L3623.53 819.143 L3639.61 819.184 L3655.7 819.232 L3671.79 819.285 L3687.87 819.339 L3703.96 819.391 L3720.04 819.441 L3736.13 819.486 L3752.21 819.522 L3768.3 819.545 L3784.39 819.562 L3800.47 819.576 L3816.56 819.588 L3832.64 819.595 L3848.73 819.598 L3864.82 819.598 L3880.9 819.6 L3896.99 819.604 L3913.07 819.61 L3929.16 819.619 L3945.24 819.631 L3961.33 819.642 L3977.42 819.637 L3993.5 819.64 L4009.59 819.666 L4025.67 819.704 L4041.76 819.748 L4057.85 819.796 L4073.93 819.846 L4090.02 819.895 L4106.1 819.94 L4122.19 819.982 L4138.28 820.015 L4154.36 820.038 L4170.45 820.055 L4186.53 820.069 L4202.62 820.08 L4218.7 820.087 L4234.79 820.089 L4250.88 820.089 L4266.96 820.091 L4283.05 820.094 L4299.13 820.1 L4315.22 820.108 L4331.31 820.12 L4347.39 820.131 L4363.48 820.127 L4379.56 820.13 L4395.65 820.153 L4411.74 820.188 L4427.82 820.229 L4443.91 820.274 L4459.99 820.32 L4476.08 820.365 L4492.16 820.407 L4508.25 820.445 L4524.34 820.476 L4540.42 820.499 L4556.51 820.515 L4572.59 820.529 L4588.68 820.54 L4604.77 820.546 L4620.85 820.548 L4636.94 820.548 L4636.94 403.126 L4620.85 402.797 L4604.77 402.466 L4588.68 402.131 L4572.59 401.793 L4556.51 401.452 L4540.42 400.9 L4524.34 399.635 L4508.25 397.657 L4492.16 395.049 L4476.08 391.942 L4459.99 388.505 L4443.91 384.932 L4427.82 381.429 L4411.74 378.203 L4395.65 375.446 L4379.56 373.335 L4363.48 372.083 L4347.39 373.801 L4331.31 373.475 L4315.22 373.143 L4299.13 372.805 L4283.05 372.461 L4266.96 372.114 L4250.88 371.763 L4234.79 371.41 L4218.7 371.054 L4202.62 370.696 L4186.53 370.335 L4170.45 369.971 L4154.36 369.383 L4138.28 368.028 L4122.19 365.906 L4106.1 363.107 L4090.02 359.772 L4073.93 356.082 L4057.85 352.245 L4041.76 348.485 L4025.67 345.022 L4009.59 342.062 L3993.5 339.791 L3977.42 338.434 L3961.33 340.274 L3945.24 339.925 L3929.16 339.568 L3913.07 339.205 L3896.99 338.837 L3880.9 338.463 L3864.82 338.087 L3848.73 337.708 L3832.64 337.326 L3816.56 336.942 L3800.47 336.555 L3784.39 336.165 L3768.3 335.537 L3752.21 334.084 L3736.13 331.806 L3720.04 328.799 L3703.96 325.216 L3687.87 321.25 L3671.79 317.127 L3655.7 313.084 L3639.61 309.359 L3623.53 306.173 L3607.44 303.727 L3591.36 302.252 L3575.27 304.198 L3559.18 303.817 L3543.1 303.428 L3527.01 303.031 L3510.93 302.628 L3494.84 302.218 L3478.75 301.805 L3462.67 301.387 L3446.58 300.967 L3430.5 300.542 L3414.41 300.114 L3398.33 299.682 L3382.24 298.994 L3366.15 297.415 L3350.07 294.946 L3333.98 291.691 L3317.9 287.812 L3301.81 283.519 L3285.72 279.052 L3269.64 274.669 L3253.55 270.622 L3237.47 267.151 L3221.38 264.465 L3205.29 262.819 L3189.21 264.899 L3173.12 264.44 L3157.04 263.967 L3140.95 263.481 L3124.87 262.983 L3108.78 262.475 L3092.69 261.957 L3076.61 261.431 L3060.52 260.895 L3044.44 260.35 L3028.35 259.795 L3012.26 259.231 L2996.18 258.393 L2980.09 256.58 L2964.01 253.794 L2947.92 250.144 L2931.83 245.805 L2915.75 241.002 L2899.66 235.995 L2883.58 231.06 L2867.49 226.476 L2851.41 222.518 L2835.32 218.663 L2819.23 216.184 L2803.15 218.208 L2787.06 218.411 L2770.98 218.548 L2754.89 218.627 L2738.8 218.53 L2722.72 217.75 L2706.63 216.893 L2690.55 216.004 L2674.46 215.086 L2658.37 214.138 L2642.29 213.161 L2626.2 212.155 L2610.12 210.898 L2594.03 208.541 L2577.95 205.075 L2561.86 200.616 L2545.77 195.351 L2529.69 189.528 L2513.6 183.437 L2497.52 177.389 L2481.43 171.692 L2465.34 165.933 L2449.26 161.407 L2433.17 158.854 L2417.09 158.447 L2401 159.124 L2384.91 159.822 L2368.83 160.54 L2352.74 161.278 L2336.66 162.037 L2320.57 162.818 L2304.49 163.621 L2288.4 164.443 L2272.31 165.271 L2256.23 166.054 L2240.14 166.599 L2224.06 165.84 L2207.97 162.877 L2191.88 157.991 L2175.8 151.812 L2159.71 144.53 L2143.63 136.257 L2127.54 127.516 L2111.46 118.983 L2095.37 111.293 L2079.28 105.036 L2063.2 100.71 L2047.11 98.6763 L2031.03 99.0799 L2014.94 100.729 L1998.85 102.428 L1982.77 104.178 L1966.68 105.981 L1950.6 107.838 L1934.51 109.751 L1918.42 111.721 L1902.34 113.748 L1886.25 115.833 L1870.17 117.973 L1854.08 120.136 L1838 121.17 L1821.91 119.945 L1805.82 116.631 L1789.74 111.53 L1773.65 105.06 L1757.57 97.7447 L1741.48 90.18 L1725.39 83.0086 L1709.31 76.8703 L1693.22 72.3538 L1677.14 69.9482 L1661.05 69.9982 L1644.96 72.6551 L1628.88 76.6808 L1612.79 80.8312 L1596.71 85.1081 L1580.62 89.5158 L1564.54 94.0585 L1548.45 98.7403 L1532.36 103.565 L1516.28 108.536 L1500.19 113.656 L1484.11 118.928 L1468.02 124.358 L1451.93 128.869 L1435.85 131.392 L1419.76 132.136 L1403.68 131.435 L1387.59 129.725 L1371.5 127.527 L1355.42 125.419 L1339.33 123.994 L1323.25 123.818 L1307.16 125.389 L1291.08 129.086 L1274.99 135.147 L1258.9 143.663 L1242.82 153.547 L1226.73 163.737 L1210.65 174.241 L1194.56 185.069 L1178.47 196.231 L1162.39 207.738 L1146.3 219.6 L1130.22 231.827 L1114.13 244.428 L1098.04 257.413 L1081.96 270.829 L1065.87 284.01 L1049.79 296.35 L1033.7 308.15 L1017.62 319.777 L1001.53 331.643 L985.444 344.17 L969.358 357.759 L953.272 372.747 L937.186 389.379 L921.1 407.782 L905.014 427.959 L888.928 450.472 L872.843 598.123 L856.757 677.305 L840.671 702.42 L824.585 728.3 L808.499 754.983 L792.413 782.495 L776.327 818.146  Z" fill="#aeaeae" fill-rule="evenodd" fill-opacity="0.5"/>
<polyline clip-path="url(#clip362)" style="stroke:#aeaeae; stroke-linecap:round; stroke-linejoin:round; stroke-width:0; stroke-opacity:1; fill:none" points="776.327,826.743 792.413,825.988 808.499,825.613 824.585,825.252 840.671,824.903 856.757,824.553 872.843,823.664 888.928,821.259 905.014,820.292 921.1,820.019 937.186,819.78 953.272,819.568 969.358,819.378 985.444,819.207 1001.53,819.05 1017.62,818.899 1033.7,818.749 1049.79,818.593 1065.87,818.425 1081.96,818.243 1098.04,818.06 1114.13,817.883 1130.22,817.711 1146.3,817.543 1162.39,817.38 1178.47,817.223 1194.56,817.07 1210.65,816.922 1226.73,816.779 1242.82,816.64 1258.9,816.505 1274.99,816.383 1291.08,816.298 1307.16,816.248 1323.25,816.23 1339.33,816.238 1355.42,816.264 1371.5,816.301 1387.59,816.338 1403.68,816.367 1419.76,816.38 1435.85,816.371 1451.93,816.335 1468.02,816.269 1484.11,816.196 1500.19,816.123 1516.28,816.052 1532.36,815.982 1548.45,815.914 1564.54,815.849 1580.62,815.786 1596.71,815.724 1612.79,815.665 1628.88,815.608 1644.96,815.552 1661.05,815.508 1677.14,815.501 1693.22,815.53 1709.31,815.591 1725.39,815.677 1741.48,815.778 1757.57,815.887 1773.65,815.992 1789.74,816.085 1805.82,816.158 1821.91,816.205 1838,816.221 1854.08,816.205 1870.17,816.177 1886.25,816.149 1902.34,816.12 1918.42,816.091 1934.51,816.062 1950.6,816.035 1966.68,816.009 1982.77,815.984 1998.85,815.959 2014.94,815.936 2031.03,815.913 2047.11,815.9 2063.2,815.92 2079.28,815.974 2095.37,816.057 2111.46,816.163 2127.54,816.281 2143.63,816.404 2159.71,816.523 2175.8,816.629 2191.88,816.717 2207.97,816.783 2224.06,816.821 2240.14,816.829 2256.23,816.825 2272.31,816.818 2288.4,816.809 2304.49,816.799 2320.57,816.788 2336.66,816.778 2352.74,816.767 2368.83,816.758 2384.91,816.749 2401,816.739 2417.09,816.73 2433.17,816.73 2449.26,816.758 2465.34,816.815 2481.43,816.897 2497.52,816.992 2513.6,817.091 2529.69,817.189 2545.77,817.28 2561.86,817.361 2577.95,817.43 2594.03,817.482 2610.12,817.518 2626.2,817.538 2642.29,817.553 2658.37,817.565 2674.46,817.576 2690.55,817.584 2706.63,817.59 2722.72,817.595 2738.8,817.598 2754.89,817.599 2770.98,817.599 2787.06,817.598 2803.15,817.596 2819.23,817.586 2835.32,817.606 2851.41,817.657 2867.49,817.724 2883.58,817.798 2899.66,817.874 2915.75,817.95 2931.83,818.023 2947.92,818.088 2964.01,818.143 2980.09,818.185 2996.18,818.212 3012.26,818.226 3028.35,818.236 3044.44,818.246 3060.52,818.254 3076.61,818.262 3092.69,818.268 3108.78,818.276 3124.87,818.283 3140.95,818.29 3157.04,818.297 3173.12,818.303 3189.21,818.308 3205.29,818.298 3221.38,818.303 3237.47,818.338 3253.55,818.387 3269.64,818.446 3285.72,818.51 3301.81,818.576 3317.9,818.639 3333.98,818.696 3350.07,818.744 3366.15,818.781 3382.24,818.804 3398.33,818.816 3414.41,818.824 3430.5,818.832 3446.58,818.838 3462.67,818.844 3478.75,818.85 3494.84,818.856 3510.93,818.862 3527.01,818.869 3543.1,818.875 3559.18,818.882 3575.27,818.887 3591.36,818.878 3607.44,818.88 3623.53,818.909 3639.61,818.953 3655.7,819.006 3671.79,819.064 3687.87,819.125 3703.96,819.183 3720.04,819.236 3736.13,819.28 3752.21,819.314 3768.3,819.335 3784.39,819.346 3800.47,819.353 3816.56,819.36 3832.64,819.366 3848.73,819.372 3864.82,819.377 3880.9,819.383 3896.99,819.388 3913.07,819.394 3929.16,819.401 3945.24,819.407 3961.33,819.412 3977.42,819.403 3993.5,819.405 4009.59,819.432 4025.67,819.472 4041.76,819.521 4057.85,819.575 4073.93,819.631 4090.02,819.686 4106.1,819.735 4122.19,819.776 4138.28,819.807 4154.36,819.828 4170.45,819.837 4186.53,819.844 4202.62,819.851 4218.7,819.857 4234.79,819.862 4250.88,819.867 4266.96,819.872 4283.05,819.878 4299.13,819.883 4315.22,819.889 4331.31,819.895 4347.39,819.9 4363.48,819.892 4379.56,819.893 4395.65,819.918 4411.74,819.956 4427.82,820.001 4443.91,820.052 4459.99,820.104 4476.08,820.155 4492.16,820.201 4508.25,820.239 4524.34,820.269 4540.42,820.288 4556.51,820.297 4572.59,820.304 4588.68,820.31 4604.77,820.316 4620.85,820.32 4636.94,820.325 "/>
<path clip-path="url(#clip362)" d="M776.327 826.749 L792.413 825.992 L808.499 825.618 L824.585 825.258 L840.671 824.911 L856.757 824.563 L872.843 823.676 L888.928 821.272 L905.014 820.306 L921.1 820.033 L937.186 819.795 L953.272 819.582 L969.358 819.393 L985.444 819.222 L1001.53 819.065 L1017.62 818.916 L1033.7 818.767 L1049.79 818.612 L1065.87 818.446 L1081.96 818.265 L1098.04 818.084 L1114.13 817.908 L1130.22 817.736 L1146.3 817.568 L1162.39 817.404 L1178.47 817.246 L1194.56 817.094 L1210.65 816.948 L1226.73 816.807 L1242.82 816.67 L1258.9 816.537 L1274.99 816.418 L1291.08 816.333 L1307.16 816.283 L1323.25 816.265 L1339.33 816.272 L1355.42 816.299 L1371.5 816.335 L1387.59 816.373 L1403.68 816.403 L1419.76 816.417 L1435.85 816.409 L1451.93 816.374 L1468.02 816.309 L1484.11 816.236 L1500.19 816.166 L1516.28 816.095 L1532.36 816.026 L1548.45 815.956 L1564.54 815.891 L1580.62 815.829 L1596.71 815.769 L1612.79 815.712 L1628.88 815.657 L1644.96 815.603 L1661.05 815.561 L1677.14 815.554 L1693.22 815.585 L1709.31 815.646 L1725.39 815.731 L1741.48 815.831 L1757.57 815.937 L1773.65 816.041 L1789.74 816.134 L1805.82 816.208 L1821.91 816.256 L1838 816.274 L1854.08 816.259 L1870.17 816.232 L1886.25 816.205 L1902.34 816.177 L1918.42 816.148 L1934.51 816.119 L1950.6 816.092 L1966.68 816.067 L1982.77 816.043 L1998.85 816.021 L2014.94 816 L2031.03 815.98 L2047.11 815.968 L2063.2 815.989 L2079.28 816.041 L2095.37 816.124 L2111.46 816.228 L2127.54 816.345 L2143.63 816.467 L2159.71 816.584 L2175.8 816.69 L2191.88 816.778 L2207.97 816.844 L2224.06 816.883 L2240.14 816.893 L2256.23 816.89 L2272.31 816.885 L2288.4 816.876 L2304.49 816.865 L2320.57 816.854 L2336.66 816.844 L2352.74 816.834 L2368.83 816.826 L2384.91 816.819 L2401 816.812 L2417.09 816.806 L2433.17 816.807 L2449.26 816.836 L2465.34 816.893 L2481.43 816.973 L2497.52 817.066 L2513.6 817.163 L2529.69 817.259 L2545.77 817.349 L2561.86 817.43 L2577.95 817.499 L2594.03 817.552 L2610.12 817.587 L2626.2 817.608 L2642.29 817.624 L2658.37 817.638 L2674.46 817.649 L2690.55 817.658 L2706.63 817.663 L2722.72 817.668 L2738.8 817.673 L2754.89 817.676 L2770.98 817.677 L2787.06 817.679 L2803.15 817.68 L2819.23 817.671 L2835.32 817.691 L2851.41 817.741 L2867.49 817.806 L2883.58 817.878 L2899.66 817.953 L2915.75 818.027 L2931.83 818.098 L2947.92 818.165 L2964.01 818.22 L2980.09 818.262 L2996.18 818.29 L3012.26 818.305 L3028.35 818.318 L3044.44 818.33 L3060.52 818.339 L3076.61 818.345 L3092.69 818.348 L3108.78 818.355 L3124.87 818.364 L3140.95 818.372 L3157.04 818.381 L3173.12 818.39 L3189.21 818.397 L3205.29 818.388 L3221.38 818.394 L3237.47 818.427 L3253.55 818.475 L3269.64 818.533 L3285.72 818.597 L3301.81 818.661 L3317.9 818.723 L3333.98 818.78 L3350.07 818.829 L3366.15 818.866 L3382.24 818.89 L3398.33 818.903 L3414.41 818.912 L3430.5 818.921 L3446.58 818.927 L3462.67 818.932 L3478.75 818.936 L3494.84 818.941 L3510.93 818.947 L3527.01 818.955 L3543.1 818.963 L3559.18 818.972 L3575.27 818.979 L3591.36 818.972 L3607.44 818.974 L3623.53 819.003 L3639.61 819.047 L3655.7 819.099 L3671.79 819.156 L3687.87 819.215 L3703.96 819.273 L3720.04 819.326 L3736.13 819.371 L3752.21 819.405 L3768.3 819.427 L3784.39 819.438 L3800.47 819.447 L3816.56 819.456 L3832.64 819.461 L3848.73 819.464 L3864.82 819.466 L3880.9 819.471 L3896.99 819.477 L3913.07 819.485 L3929.16 819.493 L3945.24 819.502 L3961.33 819.51 L3977.42 819.505 L3993.5 819.507 L4009.59 819.533 L4025.67 819.571 L4041.76 819.619 L4057.85 819.671 L4073.93 819.726 L4090.02 819.78 L4106.1 819.829 L4122.19 819.871 L4138.28 819.903 L4154.36 819.924 L4170.45 819.935 L4186.53 819.943 L4202.62 819.95 L4218.7 819.954 L4234.79 819.959 L4250.88 819.962 L4266.96 819.967 L4283.05 819.971 L4299.13 819.978 L4315.22 819.986 L4331.31 819.996 L4347.39 820.004 L4363.48 820 L4379.56 820.003 L4395.65 820.028 L4411.74 820.065 L4427.82 820.108 L4443.91 820.156 L4459.99 820.207 L4476.08 820.257 L4492.16 820.302 L4508.25 820.34 L4524.34 820.369 L4540.42 820.388 L4556.51 820.399 L4572.59 820.407 L4588.68 820.414 L4604.77 820.42 L4620.85 820.425 L4636.94 820.43 L4636.94 782.116 L4620.85 782.085 L4604.77 782.052 L4588.68 782.014 L4572.59 781.972 L4556.51 781.924 L4540.42 781.868 L4524.34 781.738 L4508.25 781.534 L4492.16 781.265 L4476.08 780.945 L4459.99 780.591 L4443.91 780.226 L4427.82 779.873 L4411.74 779.555 L4395.65 779.3 L4379.56 779.151 L4363.48 779.186 L4347.39 779.19 L4331.31 779.16 L4315.22 779.127 L4299.13 779.093 L4283.05 779.058 L4266.96 779.025 L4250.88 778.993 L4234.79 778.96 L4218.7 778.924 L4202.62 778.885 L4186.53 778.84 L4170.45 778.79 L4154.36 778.731 L4138.28 778.594 L4122.19 778.378 L4106.1 778.092 L4090.02 777.749 L4073.93 777.372 L4057.85 776.983 L4041.76 776.605 L4025.67 776.265 L4009.59 775.992 L3993.5 775.83 L3977.42 775.868 L3961.33 775.874 L3945.24 775.842 L3929.16 775.807 L3913.07 775.77 L3896.99 775.734 L3880.9 775.699 L3864.82 775.664 L3848.73 775.628 L3832.64 775.591 L3816.56 775.549 L3800.47 775.502 L3784.39 775.45 L3768.3 775.389 L3752.21 775.244 L3736.13 775.013 L3720.04 774.708 L3703.96 774.342 L3687.87 773.984 L3671.79 773.641 L3655.7 773.299 L3639.61 772.987 L3623.53 772.732 L3607.44 772.566 L3591.36 772.589 L3575.27 772.589 L3559.18 772.561 L3543.1 772.529 L3527.01 772.495 L3510.93 772.46 L3494.84 772.422 L3478.75 772.384 L3462.67 772.345 L3446.58 772.304 L3430.5 772.258 L3414.41 772.207 L3398.33 772.151 L3382.24 772.084 L3366.15 771.927 L3350.07 771.676 L3333.98 771.343 L3317.9 770.945 L3301.81 770.504 L3285.72 770.047 L3269.64 769.603 L3253.55 769.192 L3237.47 768.842 L3221.38 768.617 L3205.29 768.633 L3189.21 768.65 L3173.12 768.625 L3157.04 768.59 L3140.95 768.55 L3124.87 768.506 L3108.78 768.462 L3092.69 768.415 L3076.61 768.366 L3060.52 768.313 L3044.44 768.254 L3028.35 768.189 L3012.26 768.116 L2996.18 768.032 L2980.09 767.847 L2964.01 767.559 L2947.92 767.18 L2931.83 766.728 L2915.75 766.224 L2899.66 765.673 L2883.58 765.082 L2867.49 764.501 L2851.41 764.003 L2835.32 763.659 L2819.23 763.537 L2803.15 763.554 L2787.06 763.565 L2770.98 763.573 L2754.89 763.578 L2738.8 763.583 L2722.72 763.587 L2706.63 763.589 L2690.55 763.587 L2674.46 763.573 L2658.37 763.536 L2642.29 763.471 L2626.2 763.377 L2610.12 763.248 L2594.03 762.999 L2577.95 762.624 L2561.86 762.125 L2545.77 761.507 L2529.69 760.795 L2513.6 760.031 L2497.52 759.276 L2481.43 758.585 L2465.34 758.02 L2449.26 757.636 L2433.17 757.471 L2417.09 757.517 L2401 757.585 L2384.91 757.652 L2368.83 757.719 L2352.74 757.788 L2336.66 757.858 L2320.57 757.928 L2304.49 757.996 L2288.4 758.058 L2272.31 758.11 L2256.23 758.15 L2240.14 758.175 L2224.06 758.153 L2207.97 757.909 L2191.88 757.465 L2175.8 756.852 L2159.71 756.109 L2143.63 755.284 L2127.54 754.427 L2111.46 753.604 L2095.37 752.881 L2079.28 752.315 L2063.2 751.959 L2047.11 751.851 L2031.03 751.989 L2014.94 752.153 L1998.85 752.32 L1982.77 752.492 L1966.68 752.671 L1950.6 752.855 L1934.51 753.045 L1918.42 753.241 L1902.34 753.438 L1886.25 753.634 L1870.17 753.827 L1854.08 754.011 L1838 754.156 L1821.91 754.055 L1805.82 753.73 L1789.74 753.218 L1773.65 752.564 L1757.57 751.825 L1741.48 751.062 L1725.39 750.349 L1709.31 749.821 L1693.22 749.466 L1677.14 749.33 L1661.05 749.46 L1644.96 749.83 L1628.88 750.225 L1612.79 750.631 L1596.71 751.049 L1580.62 751.482 L1564.54 751.93 L1548.45 752.392 L1532.36 752.868 L1516.28 753.357 L1500.19 753.856 L1484.11 754.364 L1468.02 754.883 L1451.93 755.4 L1435.85 755.719 L1419.76 755.841 L1403.68 755.803 L1387.59 755.661 L1371.5 755.512 L1355.42 755.322 L1339.33 755.195 L1323.25 755.17 L1307.16 755.27 L1291.08 755.547 L1274.99 756.079 L1258.9 756.873 L1242.82 757.733 L1226.73 758.64 L1210.65 759.598 L1194.56 760.587 L1178.47 761.608 L1162.39 762.661 L1146.3 763.747 L1130.22 764.864 L1114.13 766.01 L1098.04 767.169 L1081.96 768.075 L1065.87 768.945 L1049.79 769.916 L1033.7 770.791 L1017.62 771.605 L1001.53 772.429 L985.444 773.3 L969.358 774.315 L953.272 775.5 L937.186 776.837 L921.1 778.351 L905.014 780.089 L888.928 789.031 L872.843 806.594 L856.757 810.565 L840.671 812.913 L824.585 815.138 L808.499 817.419 L792.413 819.839 L776.327 825.896  Z" fill="#757575" fill-rule="evenodd" fill-opacity="0.5"/>
<polyline clip-path="url(#clip362)" style="stroke:#757575; stroke-linecap:round; stroke-linejoin:round; stroke-width:0; stroke-opacity:1; fill:none" points="776.327,826.743 792.413,825.988 808.499,825.613 824.585,825.252 840.671,824.903 856.757,824.553 872.843,823.664 888.928,821.259 905.014,820.292 921.1,820.019 937.186,819.78 953.272,819.568 969.358,819.378 985.444,819.207 1001.53,819.05 1017.62,818.899 1033.7,818.749 1049.79,818.593 1065.87,818.425 1081.96,818.243 1098.04,818.06 1114.13,817.883 1130.22,817.711 1146.3,817.543 1162.39,817.38 1178.47,817.223 1194.56,817.07 1210.65,816.922 1226.73,816.779 1242.82,816.64 1258.9,816.505 1274.99,816.383 1291.08,816.298 1307.16,816.248 1323.25,816.23 1339.33,816.238 1355.42,816.264 1371.5,816.301 1387.59,816.338 1403.68,816.367 1419.76,816.38 1435.85,816.371 1451.93,816.335 1468.02,816.269 1484.11,816.196 1500.19,816.123 1516.28,816.052 1532.36,815.982 1548.45,815.914 1564.54,815.849 1580.62,815.786 1596.71,815.724 1612.79,815.665 1628.88,815.608 1644.96,815.552 1661.05,815.508 1677.14,815.501 1693.22,815.53 1709.31,815.591 1725.39,815.677 1741.48,815.778 1757.57,815.887 1773.65,815.992 1789.74,816.085 1805.82,816.158 1821.91,816.205 1838,816.221 1854.08,816.205 1870.17,816.177 1886.25,816.149 1902.34,816.12 1918.42,816.091 1934.51,816.062 1950.6,816.035 1966.68,816.009 1982.77,815.984 1998.85,815.959 2014.94,815.936 2031.03,815.913 2047.11,815.9 2063.2,815.92 2079.28,815.974 2095.37,816.057 2111.46,816.163 2127.54,816.281 2143.63,816.404 2159.71,816.523 2175.8,816.629 2191.88,816.717 2207.97,816.783 2224.06,816.821 2240.14,816.829 2256.23,816.825 2272.31,816.818 2288.4,816.809 2304.49,816.799 2320.57,816.788 2336.66,816.778 2352.74,816.767 2368.83,816.758 2384.91,816.749 2401,816.739 2417.09,816.73 2433.17,816.73 2449.26,816.758 2465.34,816.815 2481.43,816.897 2497.52,816.992 2513.6,817.091 2529.69,817.189 2545.77,817.28 2561.86,817.361 2577.95,817.43 2594.03,817.482 2610.12,817.518 2626.2,817.538 2642.29,817.553 2658.37,817.565 2674.46,817.576 2690.55,817.584 2706.63,817.59 2722.72,817.595 2738.8,817.598 2754.89,817.599 2770.98,817.599 2787.06,817.598 2803.15,817.596 2819.23,817.586 2835.32,817.606 2851.41,817.657 2867.49,817.724 2883.58,817.798 2899.66,817.874 2915.75,817.95 2931.83,818.023 2947.92,818.088 2964.01,818.143 2980.09,818.185 2996.18,818.212 3012.26,818.226 3028.35,818.236 3044.44,818.246 3060.52,818.254 3076.61,818.262 3092.69,818.268 3108.78,818.276 3124.87,818.283 3140.95,818.29 3157.04,818.297 3173.12,818.303 3189.21,818.308 3205.29,818.298 3221.38,818.303 3237.47,818.338 3253.55,818.387 3269.64,818.446 3285.72,818.51 3301.81,818.576 3317.9,818.639 3333.98,818.696 3350.07,818.744 3366.15,818.781 3382.24,818.804 3398.33,818.816 3414.41,818.824 3430.5,818.832 3446.58,818.838 3462.67,818.844 3478.75,818.85 3494.84,818.856 3510.93,818.862 3527.01,818.869 3543.1,818.875 3559.18,818.882 3575.27,818.887 3591.36,818.878 3607.44,818.88 3623.53,818.909 3639.61,818.953 3655.7,819.006 3671.79,819.064 3687.87,819.125 3703.96,819.183 3720.04,819.236 3736.13,819.28 3752.21,819.314 3768.3,819.335 3784.39,819.346 3800.47,819.353 3816.56,819.36 3832.64,819.366 3848.73,819.372 3864.82,819.377 3880.9,819.383 3896.99,819.388 3913.07,819.394 3929.16,819.401 3945.24,819.407 3961.33,819.412 3977.42,819.403 3993.5,819.405 4009.59,819.432 4025.67,819.472 4041.76,819.521 4057.85,819.575 4073.93,819.631 4090.02,819.686 4106.1,819.735 4122.19,819.776 4138.28,819.807 4154.36,819.828 4170.45,819.837 4186.53,819.844 4202.62,819.851 4218.7,819.857 4234.79,819.862 4250.88,819.867 4266.96,819.872 4283.05,819.878 4299.13,819.883 4315.22,819.889 4331.31,819.895 4347.39,819.9 4363.48,819.892 4379.56,819.893 4395.65,819.918 4411.74,819.956 4427.82,820.001 4443.91,820.052 4459.99,820.104 4476.08,820.155 4492.16,820.201 4508.25,820.239 4524.34,820.269 4540.42,820.288 4556.51,820.297 4572.59,820.304 4588.68,820.31 4604.77,820.316 4620.85,820.32 4636.94,820.325 "/>
<path clip-path="url(#clip362)" d="M776.327 826.747 L792.413 825.991 L808.499 825.617 L824.585 825.257 L840.671 824.91 L856.757 824.562 L872.843 823.674 L888.928 821.269 L905.014 820.302 L921.1 820.028 L937.186 819.789 L953.272 819.576 L969.358 819.387 L985.444 819.217 L1001.53 819.06 L1017.62 818.91 L1033.7 818.76 L1049.79 818.605 L1065.87 818.438 L1081.96 818.257 L1098.04 818.075 L1114.13 817.898 L1130.22 817.726 L1146.3 817.558 L1162.39 817.394 L1178.47 817.238 L1194.56 817.086 L1210.65 816.94 L1226.73 816.798 L1242.82 816.661 L1258.9 816.528 L1274.99 816.407 L1291.08 816.321 L1307.16 816.27 L1323.25 816.251 L1339.33 816.259 L1355.42 816.286 L1371.5 816.321 L1387.59 816.358 L1403.68 816.388 L1419.76 816.402 L1435.85 816.393 L1451.93 816.358 L1468.02 816.293 L1484.11 816.219 L1500.19 816.148 L1516.28 816.078 L1532.36 816.008 L1548.45 815.94 L1564.54 815.875 L1580.62 815.812 L1596.71 815.752 L1612.79 815.695 L1628.88 815.64 L1644.96 815.585 L1661.05 815.542 L1677.14 815.534 L1693.22 815.562 L1709.31 815.622 L1725.39 815.707 L1741.48 815.808 L1757.57 815.917 L1773.65 816.022 L1789.74 816.115 L1805.82 816.188 L1821.91 816.235 L1838 816.251 L1854.08 816.236 L1870.17 816.21 L1886.25 816.182 L1902.34 816.152 L1918.42 816.123 L1934.51 816.094 L1950.6 816.067 L1966.68 816.042 L1982.77 816.018 L1998.85 815.995 L2014.94 815.973 L2031.03 815.952 L2047.11 815.939 L2063.2 815.959 L2079.28 816.011 L2095.37 816.094 L2111.46 816.198 L2127.54 816.317 L2143.63 816.439 L2159.71 816.557 L2175.8 816.664 L2191.88 816.752 L2207.97 816.818 L2224.06 816.856 L2240.14 816.865 L2256.23 816.862 L2272.31 816.856 L2288.4 816.846 L2304.49 816.834 L2320.57 816.823 L2336.66 816.813 L2352.74 816.804 L2368.83 816.796 L2384.91 816.788 L2401 816.781 L2417.09 816.772 L2433.17 816.772 L2449.26 816.799 L2465.34 816.856 L2481.43 816.937 L2497.52 817.031 L2513.6 817.129 L2529.69 817.226 L2545.77 817.317 L2561.86 817.398 L2577.95 817.466 L2594.03 817.519 L2610.12 817.555 L2626.2 817.575 L2642.29 817.591 L2658.37 817.604 L2674.46 817.615 L2690.55 817.622 L2706.63 817.628 L2722.72 817.633 L2738.8 817.636 L2754.89 817.639 L2770.98 817.64 L2787.06 817.641 L2803.15 817.641 L2819.23 817.631 L2835.32 817.651 L2851.41 817.701 L2867.49 817.766 L2883.58 817.838 L2899.66 817.914 L2915.75 817.989 L2931.83 818.061 L2947.92 818.127 L2964.01 818.181 L2980.09 818.223 L2996.18 818.25 L3012.26 818.265 L3028.35 818.276 L3044.44 818.286 L3060.52 818.294 L3076.61 818.301 L3092.69 818.307 L3108.78 818.315 L3124.87 818.322 L3140.95 818.331 L3157.04 818.339 L3173.12 818.347 L3189.21 818.353 L3205.29 818.344 L3221.38 818.349 L3237.47 818.382 L3253.55 818.43 L3269.64 818.488 L3285.72 818.551 L3301.81 818.616 L3317.9 818.679 L3333.98 818.736 L3350.07 818.784 L3366.15 818.821 L3382.24 818.844 L3398.33 818.856 L3414.41 818.866 L3430.5 818.873 L3446.58 818.879 L3462.67 818.885 L3478.75 818.89 L3494.84 818.896 L3510.93 818.903 L3527.01 818.91 L3543.1 818.918 L3559.18 818.926 L3575.27 818.933 L3591.36 818.925 L3607.44 818.927 L3623.53 818.954 L3639.61 818.997 L3655.7 819.049 L3671.79 819.106 L3687.87 819.166 L3703.96 819.223 L3720.04 819.276 L3736.13 819.32 L3752.21 819.354 L3768.3 819.376 L3784.39 819.387 L3800.47 819.395 L3816.56 819.402 L3832.64 819.408 L3848.73 819.413 L3864.82 819.417 L3880.9 819.423 L3896.99 819.43 L3913.07 819.437 L3929.16 819.445 L3945.24 819.452 L3961.33 819.458 L3977.42 819.452 L3993.5 819.453 L4009.59 819.478 L4025.67 819.517 L4041.76 819.564 L4057.85 819.618 L4073.93 819.674 L4090.02 819.727 L4106.1 819.776 L4122.19 819.817 L4138.28 819.848 L4154.36 819.869 L4170.45 819.879 L4186.53 819.887 L4202.62 819.894 L4218.7 819.899 L4234.79 819.904 L4250.88 819.908 L4266.96 819.913 L4283.05 819.92 L4299.13 819.927 L4315.22 819.934 L4331.31 819.942 L4347.39 819.948 L4363.48 819.942 L4379.56 819.942 L4395.65 819.965 L4411.74 820.001 L4427.82 820.046 L4443.91 820.095 L4459.99 820.147 L4476.08 820.197 L4492.16 820.243 L4508.25 820.281 L4524.34 820.311 L4540.42 820.33 L4556.51 820.339 L4572.59 820.347 L4588.68 820.353 L4604.77 820.358 L4620.85 820.363 L4636.94 820.367 L4636.94 811.64 L4620.85 811.636 L4604.77 811.629 L4588.68 811.618 L4572.59 811.602 L4556.51 811.581 L4540.42 811.553 L4524.34 811.51 L4508.25 811.443 L4492.16 811.357 L4476.08 811.257 L4459.99 811.149 L4443.91 811.042 L4427.82 810.941 L4411.74 810.855 L4395.65 810.79 L4379.56 810.749 L4363.48 810.741 L4347.39 810.744 L4331.31 810.734 L4315.22 810.723 L4299.13 810.714 L4283.05 810.707 L4266.96 810.702 L4250.88 810.697 L4234.79 810.692 L4218.7 810.684 L4202.62 810.673 L4186.53 810.656 L4170.45 810.633 L4154.36 810.603 L4138.28 810.556 L4122.19 810.483 L4106.1 810.389 L4090.02 810.279 L4073.93 810.162 L4057.85 810.043 L4041.76 809.933 L4025.67 809.838 L4009.59 809.767 L3993.5 809.723 L3977.42 809.715 L3961.33 809.719 L3945.24 809.71 L3929.16 809.699 L3913.07 809.691 L3896.99 809.684 L3880.9 809.679 L3864.82 809.674 L3848.73 809.67 L3832.64 809.663 L3816.56 809.651 L3800.47 809.634 L3784.39 809.61 L3768.3 809.577 L3752.21 809.524 L3736.13 809.444 L3720.04 809.34 L3703.96 809.219 L3687.87 809.088 L3671.79 808.956 L3655.7 808.833 L3639.61 808.727 L3623.53 808.647 L3607.44 808.595 L3591.36 808.583 L3575.27 808.589 L3559.18 808.579 L3543.1 808.567 L3527.01 808.556 L3510.93 808.547 L3494.84 808.539 L3478.75 808.531 L3462.67 808.523 L3446.58 808.511 L3430.5 808.493 L3414.41 808.468 L3398.33 808.435 L3382.24 808.392 L3366.15 808.319 L3350.07 808.216 L3333.98 808.086 L3317.9 807.936 L3301.81 807.772 L3285.72 807.606 L3269.64 807.447 L3253.55 807.306 L3237.47 807.196 L3221.38 807.126 L3205.29 807.108 L3189.21 807.117 L3173.12 807.11 L3157.04 807.1 L3140.95 807.09 L3124.87 807.083 L3108.78 807.077 L3092.69 807.071 L3076.61 807.065 L3060.52 807.055 L3044.44 807.04 L3028.35 807.015 L3012.26 806.982 L2996.18 806.934 L2980.09 806.85 L2964.01 806.731 L2947.92 806.581 L2931.83 806.406 L2915.75 806.216 L2899.66 806.021 L2883.58 805.831 L2867.49 805.659 L2851.41 805.518 L2835.32 805.422 L2819.23 805.387 L2803.15 805.398 L2787.06 805.401 L2770.98 805.401 L2754.89 805.402 L2738.8 805.404 L2722.72 805.406 L2706.63 805.407 L2690.55 805.406 L2674.46 805.401 L2658.37 805.389 L2642.29 805.368 L2626.2 805.337 L2610.12 805.287 L2594.03 805.194 L2577.95 805.057 L2561.86 804.883 L2545.77 804.679 L2529.69 804.456 L2513.6 804.225 L2497.52 803.999 L2481.43 803.794 L2465.34 803.628 L2449.26 803.521 L2433.17 803.48 L2417.09 803.49 L2401 803.508 L2384.91 803.525 L2368.83 803.543 L2352.74 803.564 L2336.66 803.588 L2320.57 803.612 L2304.49 803.637 L2288.4 803.659 L2272.31 803.677 L2256.23 803.686 L2240.14 803.686 L2224.06 803.66 L2207.97 803.57 L2191.88 803.42 L2175.8 803.223 L2159.71 802.988 L2143.63 802.731 L2127.54 802.467 L2111.46 802.216 L2095.37 801.998 L2079.28 801.83 L2063.2 801.731 L2047.11 801.708 L2031.03 801.747 L2014.94 801.797 L1998.85 801.847 L1982.77 801.899 L1966.68 801.955 L1950.6 802.014 L1934.51 802.075 L1918.42 802.139 L1902.34 802.201 L1886.25 802.259 L1870.17 802.313 L1854.08 802.361 L1838 802.386 L1821.91 802.339 L1805.82 802.226 L1789.74 802.057 L1773.65 801.848 L1757.57 801.615 L1741.48 801.378 L1725.39 801.158 L1709.31 800.975 L1693.22 800.849 L1677.14 800.799 L1661.05 800.833 L1644.96 800.938 L1628.88 801.056 L1612.79 801.177 L1596.71 801.302 L1580.62 801.434 L1564.54 801.572 L1548.45 801.715 L1532.36 801.862 L1516.28 802.011 L1500.19 802.16 L1484.11 802.309 L1468.02 802.456 L1451.93 802.588 L1435.85 802.652 L1419.76 802.653 L1403.68 802.603 L1387.59 802.519 L1371.5 802.416 L1355.42 802.315 L1339.33 802.237 L1323.25 802.201 L1307.16 802.225 L1291.08 802.325 L1274.99 802.513 L1258.9 802.774 L1242.82 803.053 L1226.73 803.338 L1210.65 803.634 L1194.56 803.941 L1178.47 804.259 L1162.39 804.578 L1146.3 804.865 L1130.22 805.159 L1114.13 805.458 L1098.04 805.762 L1081.96 806.072 L1065.87 806.366 L1049.79 806.617 L1033.7 806.927 L1017.62 807.226 L1001.53 807.519 L985.444 807.82 L969.358 808.146 L953.272 808.446 L937.186 808.799 L921.1 809.26 L905.014 809.736 L888.928 812.635 L872.843 818.809 L856.757 820.563 L840.671 821.209 L824.585 821.869 L808.499 822.618 L792.413 823.471 L776.327 826.555  Z" fill="#414141" fill-rule="evenodd" fill-opacity="0.5"/>
<polyline clip-path="url(#clip362)" style="stroke:#414141; stroke-linecap:round; stroke-linejoin:round; stroke-width:0; stroke-opacity:1; fill:none" points="776.327,826.743 792.413,825.988 808.499,825.613 824.585,825.252 840.671,824.903 856.757,824.553 872.843,823.664 888.928,821.259 905.014,820.292 921.1,820.019 937.186,819.78 953.272,819.568 969.358,819.378 985.444,819.207 1001.53,819.05 1017.62,818.899 1033.7,818.749 1049.79,818.593 1065.87,818.425 1081.96,818.243 1098.04,818.06 1114.13,817.883 1130.22,817.711 1146.3,817.543 1162.39,817.38 1178.47,817.223 1194.56,817.07 1210.65,816.922 1226.73,816.779 1242.82,816.64 1258.9,816.505 1274.99,816.383 1291.08,816.298 1307.16,816.248 1323.25,816.23 1339.33,816.238 1355.42,816.264 1371.5,816.301 1387.59,816.338 1403.68,816.367 1419.76,816.38 1435.85,816.371 1451.93,816.335 1468.02,816.269 1484.11,816.196 1500.19,816.123 1516.28,816.052 1532.36,815.982 1548.45,815.914 1564.54,815.849 1580.62,815.786 1596.71,815.724 1612.79,815.665 1628.88,815.608 1644.96,815.552 1661.05,815.508 1677.14,815.501 1693.22,815.53 1709.31,815.591 1725.39,815.677 1741.48,815.778 1757.57,815.887 1773.65,815.992 1789.74,816.085 1805.82,816.158 1821.91,816.205 1838,816.221 1854.08,816.205 1870.17,816.177 1886.25,816.149 1902.34,816.12 1918.42,816.091 1934.51,816.062 1950.6,816.035 1966.68,816.009 1982.77,815.984 1998.85,815.959 2014.94,815.936 2031.03,815.913 2047.11,815.9 2063.2,815.92 2079.28,815.974 2095.37,816.057 2111.46,816.163 2127.54,816.281 2143.63,816.404 2159.71,816.523 2175.8,816.629 2191.88,816.717 2207.97,816.783 2224.06,816.821 2240.14,816.829 2256.23,816.825 2272.31,816.818 2288.4,816.809 2304.49,816.799 2320.57,816.788 2336.66,816.778 2352.74,816.767 2368.83,816.758 2384.91,816.749 2401,816.739 2417.09,816.73 2433.17,816.73 2449.26,816.758 2465.34,816.815 2481.43,816.897 2497.52,816.992 2513.6,817.091 2529.69,817.189 2545.77,817.28 2561.86,817.361 2577.95,817.43 2594.03,817.482 2610.12,817.518 2626.2,817.538 2642.29,817.553 2658.37,817.565 2674.46,817.576 2690.55,817.584 2706.63,817.59 2722.72,817.595 2738.8,817.598 2754.89,817.599 2770.98,817.599 2787.06,817.598 2803.15,817.596 2819.23,817.586 2835.32,817.606 2851.41,817.657 2867.49,817.724 2883.58,817.798 2899.66,817.874 2915.75,817.95 2931.83,818.023 2947.92,818.088 2964.01,818.143 2980.09,818.185 2996.18,818.212 3012.26,818.226 3028.35,818.236 3044.44,818.246 3060.52,818.254 3076.61,818.262 3092.69,818.268 3108.78,818.276 3124.87,818.283 3140.95,818.29 3157.04,818.297 3173.12,818.303 3189.21,818.308 3205.29,818.298 3221.38,818.303 3237.47,818.338 3253.55,818.387 3269.64,818.446 3285.72,818.51 3301.81,818.576 3317.9,818.639 3333.98,818.696 3350.07,818.744 3366.15,818.781 3382.24,818.804 3398.33,818.816 3414.41,818.824 3430.5,818.832 3446.58,818.838 3462.67,818.844 3478.75,818.85 3494.84,818.856 3510.93,818.862 3527.01,818.869 3543.1,818.875 3559.18,818.882 3575.27,818.887 3591.36,818.878 3607.44,818.88 3623.53,818.909 3639.61,818.953 3655.7,819.006 3671.79,819.064 3687.87,819.125 3703.96,819.183 3720.04,819.236 3736.13,819.28 3752.21,819.314 3768.3,819.335 3784.39,819.346 3800.47,819.353 3816.56,819.36 3832.64,819.366 3848.73,819.372 3864.82,819.377 3880.9,819.383 3896.99,819.388 3913.07,819.394 3929.16,819.401 3945.24,819.407 3961.33,819.412 3977.42,819.403 3993.5,819.405 4009.59,819.432 4025.67,819.472 4041.76,819.521 4057.85,819.575 4073.93,819.631 4090.02,819.686 4106.1,819.735 4122.19,819.776 4138.28,819.807 4154.36,819.828 4170.45,819.837 4186.53,819.844 4202.62,819.851 4218.7,819.857 4234.79,819.862 4250.88,819.867 4266.96,819.872 4283.05,819.878 4299.13,819.883 4315.22,819.889 4331.31,819.895 4347.39,819.9 4363.48,819.892 4379.56,819.893 4395.65,819.918 4411.74,819.956 4427.82,820.001 4443.91,820.052 4459.99,820.104 4476.08,820.155 4492.16,820.201 4508.25,820.239 4524.34,820.269 4540.42,820.288 4556.51,820.297 4572.59,820.304 4588.68,820.31 4604.77,820.316 4620.85,820.32 4636.94,820.325 "/>
<path clip-path="url(#clip360)" d="M3887.85 592.384 L4616.35 592.384 L4616.35 73.9845 L3887.85 73.9845  Z" fill="#ffffff" fill-rule="evenodd" fill-opacity="1"/>
<polyline clip-path="url(#clip360)" style="stroke:#000000; stroke-linecap:round; stroke-linejoin:round; stroke-width:4; stroke-opacity:1; fill:none" points="3887.85,592.384 4616.35,592.384 4616.35,73.9845 3887.85,73.9845 3887.85,592.384 "/>
<polyline clip-path="url(#clip360)" style="stroke:#aeaeae; stroke-linecap:round; stroke-linejoin:round; stroke-width:2; stroke-opacity:1; fill:none" points="3933.32,203.584 4206.14,203.584 "/>
<path clip-path="url(#clip360)" d="M4253.29 236.947 L4272.38 236.947 L4272.38 171.033 L4251.61 175.199 L4251.61 164.551 L4272.27 160.384 L4283.96 160.384 L4283.96 236.947 L4303.06 236.947 L4303.06 246.784 L4253.29 246.784 L4253.29 236.947 Z" fill="#000000" fill-rule="nonzero" fill-opacity="1" /><path clip-path="url(#clip360)" d="M4351.67 168.081 Q4342.64 168.081 4338.07 176.993 Q4333.55 185.847 4333.55 203.671 Q4333.55 221.437 4338.07 230.349 Q4342.64 239.203 4351.67 239.203 Q4360.75 239.203 4365.27 230.349 Q4369.84 221.437 4369.84 203.671 Q4369.84 185.847 4365.27 176.993 Q4360.75 168.081 4351.67 168.081 M4351.67 158.822 Q4366.19 158.822 4373.83 170.338 Q4381.53 181.796 4381.53 203.671 Q4381.53 225.488 4373.83 237.004 Q4366.19 248.463 4351.67 248.463 Q4337.14 248.463 4329.44 237.004 Q4321.81 225.488 4321.81 203.671 Q4321.81 181.796 4329.44 170.338 Q4337.14 158.822 4351.67 158.822 Z" fill="#000000" fill-rule="nonzero" fill-opacity="1" /><path clip-path="url(#clip360)" d="M4427.07 168.081 Q4418.04 168.081 4413.47 176.993 Q4408.96 185.847 4408.96 203.671 Q4408.96 221.437 4413.47 230.349 Q4418.04 239.203 4427.07 239.203 Q4436.16 239.203 4440.67 230.349 Q4445.24 221.437 4445.24 203.671 Q4445.24 185.847 4440.67 176.993 Q4436.16 168.081 4427.07 168.081 M4427.07 158.822 Q4441.6 158.822 4449.24 170.338 Q4456.93 181.796 4456.93 203.671 Q4456.93 225.488 4449.24 237.004 Q4441.6 248.463 4427.07 248.463 Q4412.55 248.463 4404.85 237.004 Q4397.21 225.488 4397.21 203.671 Q4397.21 181.796 4404.85 170.338 Q4412.55 158.822 4427.07 158.822 Z" fill="#000000" fill-rule="nonzero" fill-opacity="1" /><path clip-path="url(#clip360)" d="M4550.97 208.764 Q4545.94 208.764 4543.04 213.046 Q4540.21 217.329 4540.21 224.967 Q4540.21 232.491 4543.04 236.831 Q4545.94 241.113 4550.97 241.113 Q4555.89 241.113 4558.73 236.831 Q4561.62 232.491 4561.62 224.967 Q4561.62 217.386 4558.73 213.104 Q4555.89 208.764 4550.97 208.764 M4550.97 201.414 Q4560.11 201.414 4565.5 207.78 Q4570.88 214.146 4570.88 224.967 Q4570.88 235.789 4565.44 242.155 Q4560.06 248.463 4550.97 248.463 Q4541.71 248.463 4536.33 242.155 Q4530.95 235.789 4530.95 224.967 Q4530.95 214.088 4536.33 207.78 Q4541.77 201.414 4550.97 201.414 M4491.25 166.171 Q4486.27 166.171 4483.38 170.512 Q4480.54 174.794 4480.54 182.317 Q4480.54 189.956 4483.38 194.238 Q4486.21 198.521 4491.25 198.521 Q4496.28 198.521 4499.12 194.238 Q4502.01 189.956 4502.01 182.317 Q4502.01 174.852 4499.12 170.512 Q4496.23 166.171 4491.25 166.171 M4543.51 158.822 L4552.76 158.822 L4498.71 248.463 L4489.46 248.463 L4543.51 158.822 M4491.25 158.822 Q4500.39 158.822 4505.83 165.188 Q4511.27 171.496 4511.27 182.317 Q4511.27 193.255 4505.83 199.563 Q4500.45 205.87 4491.25 205.87 Q4482.05 205.87 4476.67 199.563 Q4471.34 193.197 4471.34 182.317 Q4471.34 171.553 4476.72 165.188 Q4482.11 158.822 4491.25 158.822 Z" fill="#000000" fill-rule="nonzero" fill-opacity="1" /><polyline clip-path="url(#clip360)" style="stroke:#757575; stroke-linecap:round; stroke-linejoin:round; stroke-width:2; stroke-opacity:1; fill:none" points="3933.32,333.184 4206.14,333.184 "/>
<path clip-path="url(#clip360)" d="M4257.16 374.591 L4257.16 363.942 Q4261.56 366.026 4266.08 367.125 Q4270.59 368.225 4274.93 368.225 Q4286.5 368.225 4292.58 360.47 Q4298.72 352.658 4299.58 336.801 Q4296.23 341.778 4291.08 344.44 Q4285.93 347.102 4279.68 347.102 Q4266.71 347.102 4259.13 339.29 Q4251.61 331.419 4251.61 317.82 Q4251.61 304.51 4259.48 296.466 Q4267.35 288.422 4280.43 288.422 Q4295.42 288.422 4303.29 299.938 Q4311.22 311.396 4311.22 333.271 Q4311.22 353.699 4301.49 365.91 Q4291.83 378.063 4275.45 378.063 Q4271.05 378.063 4266.54 377.195 Q4262.03 376.327 4257.16 374.591 M4280.43 337.959 Q4288.3 337.959 4292.87 332.577 Q4297.5 327.195 4297.5 317.82 Q4297.5 308.503 4292.87 303.121 Q4288.3 297.681 4280.43 297.681 Q4272.56 297.681 4267.93 303.121 Q4263.36 308.503 4263.36 317.82 Q4263.36 327.195 4267.93 332.577 Q4272.56 337.959 4280.43 337.959 Z" fill="#000000" fill-rule="nonzero" fill-opacity="1" /><path clip-path="url(#clip360)" d="M4357.22 297.681 Q4348.19 297.681 4343.62 306.593 Q4339.11 315.447 4339.11 333.271 Q4339.11 351.037 4343.62 359.949 Q4348.19 368.803 4357.22 368.803 Q4366.31 368.803 4370.82 359.949 Q4375.39 351.037 4375.39 333.271 Q4375.39 315.447 4370.82 306.593 Q4366.31 297.681 4357.22 297.681 M4357.22 288.422 Q4371.75 288.422 4379.39 299.938 Q4387.08 311.396 4387.08 333.271 Q4387.08 355.088 4379.39 366.604 Q4371.75 378.063 4357.22 378.063 Q4342.7 378.063 4335 366.604 Q4327.36 355.088 4327.36 333.271 Q4327.36 311.396 4335 299.938 Q4342.7 288.422 4357.22 288.422 Z" fill="#000000" fill-rule="nonzero" fill-opacity="1" /><path clip-path="url(#clip360)" d="M4481.12 338.364 Q4476.09 338.364 4473.19 342.646 Q4470.36 346.929 4470.36 354.567 Q4470.36 362.091 4473.19 366.431 Q4476.09 370.713 4481.12 370.713 Q4486.04 370.713 4488.88 366.431 Q4491.77 362.091 4491.77 354.567 Q4491.77 346.986 4488.88 342.704 Q4486.04 338.364 4481.12 338.364 M4481.12 331.014 Q4490.27 331.014 4495.65 337.38 Q4501.03 343.746 4501.03 354.567 Q4501.03 365.389 4495.59 371.755 Q4490.21 378.063 4481.12 378.063 Q4471.86 378.063 4466.48 371.755 Q4461.1 365.389 4461.1 354.567 Q4461.1 343.688 4466.48 337.38 Q4471.92 331.014 4481.12 331.014 M4421.4 295.771 Q4416.42 295.771 4413.53 300.112 Q4410.69 304.394 4410.69 311.917 Q4410.69 319.556 4413.53 323.838 Q4416.37 328.121 4421.4 328.121 Q4426.43 328.121 4429.27 323.838 Q4432.16 319.556 4432.16 311.917 Q4432.16 304.452 4429.27 300.112 Q4426.38 295.771 4421.4 295.771 M4473.66 288.422 L4482.92 288.422 L4428.87 378.063 L4419.61 378.063 L4473.66 288.422 M4421.4 288.422 Q4430.54 288.422 4435.98 294.788 Q4441.42 301.096 4441.42 311.917 Q4441.42 322.855 4435.98 329.163 Q4430.6 335.47 4421.4 335.47 Q4412.2 335.47 4406.82 329.163 Q4401.49 322.797 4401.49 311.917 Q4401.49 301.153 4406.87 294.788 Q4412.26 288.422 4421.4 288.422 Z" fill="#000000" fill-rule="nonzero" fill-opacity="1" /><polyline clip-path="url(#clip360)" style="stroke:#414141; stroke-linecap:round; stroke-linejoin:round; stroke-width:2; stroke-opacity:1; fill:none" points="3933.32,462.784 4206.14,462.784 "/>
<path clip-path="url(#clip360)" d="M4281.24 464.955 Q4272.91 464.955 4268.1 469.411 Q4263.36 473.867 4263.36 481.679 Q4263.36 489.492 4268.1 493.947 Q4272.91 498.403 4281.24 498.403 Q4289.57 498.403 4294.38 493.947 Q4299.18 489.434 4299.18 481.679 Q4299.18 473.867 4294.38 469.411 Q4289.63 464.955 4281.24 464.955 M4269.55 459.978 Q4262.03 458.126 4257.8 452.975 Q4253.63 447.825 4253.63 440.418 Q4253.63 430.059 4260.98 424.04 Q4268.39 418.022 4281.24 418.022 Q4294.14 418.022 4301.49 424.04 Q4308.84 430.059 4308.84 440.418 Q4308.84 447.825 4304.62 452.975 Q4300.45 458.126 4292.99 459.978 Q4301.44 461.945 4306.12 467.674 Q4310.87 473.404 4310.87 481.679 Q4310.87 494.237 4303.17 500.95 Q4295.53 507.663 4281.24 507.663 Q4266.94 507.663 4259.25 500.95 Q4251.61 494.237 4251.61 481.679 Q4251.61 473.404 4256.35 467.674 Q4261.1 461.945 4269.55 459.978 M4265.27 441.517 Q4265.27 448.23 4269.43 451.992 Q4273.66 455.753 4281.24 455.753 Q4288.76 455.753 4292.99 451.992 Q4297.27 448.23 4297.27 441.517 Q4297.27 434.804 4292.99 431.043 Q4288.76 427.281 4281.24 427.281 Q4273.66 427.281 4269.43 431.043 Q4265.27 434.804 4265.27 441.517 Z" fill="#000000" fill-rule="nonzero" fill-opacity="1" /><path clip-path="url(#clip360)" d="M4356.64 427.281 Q4347.62 427.281 4343.04 436.193 Q4338.53 445.047 4338.53 462.871 Q4338.53 480.637 4343.04 489.549 Q4347.62 498.403 4356.64 498.403 Q4365.73 498.403 4370.24 489.549 Q4374.81 480.637 4374.81 462.871 Q4374.81 445.047 4370.24 436.193 Q4365.73 427.281 4356.64 427.281 M4356.64 418.022 Q4371.17 418.022 4378.81 429.538 Q4386.5 440.996 4386.5 462.871 Q4386.5 484.688 4378.81 496.204 Q4371.17 507.663 4356.64 507.663 Q4342.12 507.663 4334.42 496.204 Q4326.78 484.688 4326.78 462.871 Q4326.78 440.996 4334.42 429.538 Q4342.12 418.022 4356.64 418.022 Z" fill="#000000" fill-rule="nonzero" fill-opacity="1" /><path clip-path="url(#clip360)" d="M4480.54 467.964 Q4475.51 467.964 4472.61 472.246 Q4469.78 476.529 4469.78 484.167 Q4469.78 491.691 4472.61 496.031 Q4475.51 500.313 4480.54 500.313 Q4485.46 500.313 4488.3 496.031 Q4491.19 491.691 4491.19 484.167 Q4491.19 476.586 4488.3 472.304 Q4485.46 467.964 4480.54 467.964 M4480.54 460.614 Q4489.69 460.614 4495.07 466.98 Q4500.45 473.346 4500.45 484.167 Q4500.45 494.989 4495.01 501.355 Q4489.63 507.663 4480.54 507.663 Q4471.28 507.663 4465.9 501.355 Q4460.52 494.989 4460.52 484.167 Q4460.52 473.288 4465.9 466.98 Q4471.34 460.614 4480.54 460.614 M4420.82 425.371 Q4415.84 425.371 4412.95 429.712 Q4410.12 433.994 4410.12 441.517 Q4410.12 449.156 4412.95 453.438 Q4415.79 457.721 4420.82 457.721 Q4425.86 457.721 4428.69 453.438 Q4431.59 449.156 4431.59 441.517 Q4431.59 434.052 4428.69 429.712 Q4425.8 425.371 4420.82 425.371 M4473.08 418.022 L4482.34 418.022 L4428.29 507.663 L4419.03 507.663 L4473.08 418.022 M4420.82 418.022 Q4429.96 418.022 4435.4 424.388 Q4440.84 430.696 4440.84 441.517 Q4440.84 452.455 4435.4 458.763 Q4430.02 465.07 4420.82 465.07 Q4411.62 465.07 4406.24 458.763 Q4400.91 452.397 4400.91 441.517 Q4400.91 430.753 4406.3 424.388 Q4411.68 418.022 4420.82 418.022 Z" fill="#000000" fill-rule="nonzero" fill-opacity="1" /></svg>
