<?xml version="1.0" encoding="utf-8"?>
<svg xmlns="http://www.w3.org/2000/svg" xmlns:xlink="http://www.w3.org/1999/xlink" width="1200" height="300" viewBox="0 0 4800 1200">
<defs>
  <clipPath id="clip140">
    <rect x="0" y="0" width="4800" height="1200"/>
  </clipPath>
</defs>
<path clip-path="url(#clip140)" d="M0 1200 L4800 1200 L4800 0 L0 0  Z" fill="#ffffff" fill-rule="evenodd" fill-opacity="1"/>
<defs>
  <clipPath id="clip141">
    <rect x="960" y="0" width="3361" height="1200"/>
  </clipPath>
</defs>
<path clip-path="url(#clip140)" d="M467.969 849.455 L4752.76 849.455 L4752.76 47.2441 L467.969 47.2441  Z" fill="#ffffff" fill-rule="evenodd" fill-opacity="1"/>
<defs>
  <clipPath id="clip142">
    <rect x="467" y="47" width="4286" height="803"/>
  </clipPath>
</defs>
<polyline clip-path="url(#clip142)" style="stroke:#000000; stroke-linecap:round; stroke-linejoin:round; stroke-width:2; stroke-opacity:0.1; fill:none" points="589.237,849.455 589.237,47.2441 "/>
<polyline clip-path="url(#clip142)" style="stroke:#000000; stroke-linecap:round; stroke-linejoin:round; stroke-width:2; stroke-opacity:0.1; fill:none" points="1397.69,849.455 1397.69,47.2441 "/>
<polyline clip-path="url(#clip142)" style="stroke:#000000; stroke-linecap:round; stroke-linejoin:round; stroke-width:2; stroke-opacity:0.1; fill:none" points="2206.14,849.455 2206.14,47.2441 "/>
<polyline clip-path="url(#clip142)" style="stroke:#000000; stroke-linecap:round; stroke-linejoin:round; stroke-width:2; stroke-opacity:0.1; fill:none" points="3014.59,849.455 3014.59,47.2441 "/>
<polyline clip-path="url(#clip142)" style="stroke:#000000; stroke-linecap:round; stroke-linejoin:round; stroke-width:2; stroke-opacity:0.1; fill:none" points="3823.04,849.455 3823.04,47.2441 "/>
<polyline clip-path="url(#clip142)" style="stroke:#000000; stroke-linecap:round; stroke-linejoin:round; stroke-width:2; stroke-opacity:0.1; fill:none" points="4631.49,849.455 4631.49,47.2441 "/>
<polyline clip-path="url(#clip142)" style="stroke:#000000; stroke-linecap:round; stroke-linejoin:round; stroke-width:2; stroke-opacity:0.1; fill:none" points="467.969,844.447 4752.76,844.447 "/>
<polyline clip-path="url(#clip142)" style="stroke:#000000; stroke-linecap:round; stroke-linejoin:round; stroke-width:2; stroke-opacity:0.1; fill:none" points="467.969,729.132 4752.76,729.132 "/>
<polyline clip-path="url(#clip142)" style="stroke:#000000; stroke-linecap:round; stroke-linejoin:round; stroke-width:2; stroke-opacity:0.1; fill:none" points="467.969,613.817 4752.76,613.817 "/>
<polyline clip-path="url(#clip142)" style="stroke:#000000; stroke-linecap:round; stroke-linejoin:round; stroke-width:2; stroke-opacity:0.1; fill:none" points="467.969,498.501 4752.76,498.501 "/>
<polyline clip-path="url(#clip142)" style="stroke:#000000; stroke-linecap:round; stroke-linejoin:round; stroke-width:2; stroke-opacity:0.1; fill:none" points="467.969,383.186 4752.76,383.186 "/>
<polyline clip-path="url(#clip142)" style="stroke:#000000; stroke-linecap:round; stroke-linejoin:round; stroke-width:2; stroke-opacity:0.1; fill:none" points="467.969,267.871 4752.76,267.871 "/>
<polyline clip-path="url(#clip142)" style="stroke:#000000; stroke-linecap:round; stroke-linejoin:round; stroke-width:2; stroke-opacity:0.1; fill:none" points="467.969,152.556 4752.76,152.556 "/>
<polyline clip-path="url(#clip140)" style="stroke:#000000; stroke-linecap:round; stroke-linejoin:round; stroke-width:4; stroke-opacity:1; fill:none" points="467.969,849.455 4752.76,849.455 "/>
<polyline clip-path="url(#clip140)" style="stroke:#000000; stroke-linecap:round; stroke-linejoin:round; stroke-width:4; stroke-opacity:1; fill:none" points="589.237,849.455 589.237,830.558 "/>
<polyline clip-path="url(#clip140)" style="stroke:#000000; stroke-linecap:round; stroke-linejoin:round; stroke-width:4; stroke-opacity:1; fill:none" points="1397.69,849.455 1397.69,830.558 "/>
<polyline clip-path="url(#clip140)" style="stroke:#000000; stroke-linecap:round; stroke-linejoin:round; stroke-width:4; stroke-opacity:1; fill:none" points="2206.14,849.455 2206.14,830.558 "/>
<polyline clip-path="url(#clip140)" style="stroke:#000000; stroke-linecap:round; stroke-linejoin:round; stroke-width:4; stroke-opacity:1; fill:none" points="3014.59,849.455 3014.59,830.558 "/>
<polyline clip-path="url(#clip140)" style="stroke:#000000; stroke-linecap:round; stroke-linejoin:round; stroke-width:4; stroke-opacity:1; fill:none" points="3823.04,849.455 3823.04,830.558 "/>
<polyline clip-path="url(#clip140)" style="stroke:#000000; stroke-linecap:round; stroke-linejoin:round; stroke-width:4; stroke-opacity:1; fill:none" points="4631.49,849.455 4631.49,830.558 "/>
<path clip-path="url(#clip140)" d="M589.237 911.293 Q582.015 911.293 578.357 918.422 Q574.746 925.506 574.746 939.765 Q574.746 953.978 578.357 961.107 Q582.015 968.191 589.237 968.191 Q596.506 968.191 600.117 961.107 Q603.774 953.978 603.774 939.765 Q603.774 925.506 600.117 918.422 Q596.506 911.293 589.237 911.293 M589.237 903.885 Q600.857 903.885 606.968 913.098 Q613.126 922.265 613.126 939.765 Q613.126 957.218 606.968 966.431 Q600.857 975.598 589.237 975.598 Q577.617 975.598 571.459 966.431 Q565.348 957.218 565.348 939.765 Q565.348 922.265 571.459 913.098 Q577.617 903.885 589.237 903.885 Z" fill="#000000" fill-rule="nonzero" fill-opacity="1" /><path clip-path="url(#clip140)" d="M1386.99 966.385 L1419.63 966.385 L1419.63 974.255 L1375.74 974.255 L1375.74 966.385 Q1381.07 960.876 1390.23 951.617 Q1399.45 942.311 1401.81 939.626 Q1406.3 934.58 1408.06 931.108 Q1409.86 927.589 1409.86 924.209 Q1409.86 918.7 1405.97 915.228 Q1402.13 911.756 1395.93 911.756 Q1391.53 911.756 1386.62 913.284 Q1381.76 914.811 1376.21 917.913 L1376.21 908.469 Q1381.85 906.2 1386.76 905.043 Q1391.67 903.885 1395.74 903.885 Q1406.48 903.885 1412.87 909.256 Q1419.26 914.626 1419.26 923.608 Q1419.26 927.867 1417.64 931.709 Q1416.07 935.506 1411.85 940.691 Q1410.7 942.033 1404.49 948.469 Q1398.29 954.857 1386.99 966.385 Z" fill="#000000" fill-rule="nonzero" fill-opacity="1" /><path clip-path="url(#clip140)" d="M2212.16 913.284 L2188.55 950.181 L2212.16 950.181 L2212.16 913.284 M2209.7 905.135 L2221.46 905.135 L2221.46 950.181 L2231.32 950.181 L2231.32 957.959 L2221.46 957.959 L2221.46 974.255 L2212.16 974.255 L2212.16 957.959 L2180.95 957.959 L2180.95 948.931 L2209.7 905.135 Z" fill="#000000" fill-rule="nonzero" fill-opacity="1" /><path clip-path="url(#clip140)" d="M3015.4 935.969 Q3009.1 935.969 3005.4 940.274 Q3001.74 944.58 3001.74 952.08 Q3001.74 959.533 3005.4 963.885 Q3009.1 968.191 3015.4 968.191 Q3021.69 968.191 3025.35 963.885 Q3029.06 959.533 3029.06 952.08 Q3029.06 944.58 3025.35 940.274 Q3021.69 935.969 3015.4 935.969 M3033.96 906.663 L3033.96 915.182 Q3030.44 913.515 3026.83 912.635 Q3023.27 911.756 3019.75 911.756 Q3010.49 911.756 3005.58 918.006 Q3000.72 924.256 3000.03 936.895 Q3002.76 932.867 3006.88 930.737 Q3011 928.561 3015.95 928.561 Q3026.37 928.561 3032.39 934.904 Q3038.45 941.2 3038.45 952.08 Q3038.45 962.728 3032.16 969.163 Q3025.86 975.598 3015.4 975.598 Q3003.41 975.598 2997.06 966.431 Q2990.72 957.218 2990.72 939.765 Q2990.72 923.376 2998.5 913.654 Q3006.28 903.885 3019.38 903.885 Q3022.9 903.885 3026.46 904.58 Q3030.07 905.274 3033.96 906.663 Z" fill="#000000" fill-rule="nonzero" fill-opacity="1" /><path clip-path="url(#clip140)" d="M3823.04 941.432 Q3816.37 941.432 3812.53 944.996 Q3808.73 948.561 3808.73 954.811 Q3808.73 961.061 3812.53 964.626 Q3816.37 968.191 3823.04 968.191 Q3829.7 968.191 3833.55 964.626 Q3837.39 961.015 3837.39 954.811 Q3837.39 948.561 3833.55 944.996 Q3829.75 941.432 3823.04 941.432 M3813.69 937.45 Q3807.67 935.969 3804.29 931.848 Q3800.95 927.728 3800.95 921.802 Q3800.95 913.515 3806.83 908.7 Q3812.76 903.885 3823.04 903.885 Q3833.36 903.885 3839.24 908.7 Q3845.12 913.515 3845.12 921.802 Q3845.12 927.728 3841.74 931.848 Q3838.41 935.969 3832.44 937.45 Q3839.2 939.024 3842.95 943.607 Q3846.74 948.191 3846.74 954.811 Q3846.74 964.857 3840.58 970.228 Q3834.47 975.598 3823.04 975.598 Q3811.6 975.598 3805.45 970.228 Q3799.33 964.857 3799.33 954.811 Q3799.33 948.191 3803.13 943.607 Q3806.93 939.024 3813.69 937.45 M3810.26 922.682 Q3810.26 928.052 3813.59 931.061 Q3816.97 934.07 3823.04 934.07 Q3829.06 934.07 3832.44 931.061 Q3835.86 928.052 3835.86 922.682 Q3835.86 917.311 3832.44 914.302 Q3829.06 911.293 3823.04 911.293 Q3816.97 911.293 3813.59 914.302 Q3810.26 917.311 3810.26 922.682 Z" fill="#000000" fill-rule="nonzero" fill-opacity="1" /><path clip-path="url(#clip140)" d="M4580.86 966.385 L4596.14 966.385 L4596.14 913.654 L4579.52 916.987 L4579.52 908.469 L4596.05 905.135 L4605.4 905.135 L4605.4 966.385 L4620.68 966.385 L4620.68 974.255 L4580.86 974.255 L4580.86 966.385 Z" fill="#000000" fill-rule="nonzero" fill-opacity="1" /><path clip-path="url(#clip140)" d="M4659.57 911.293 Q4652.34 911.293 4648.69 918.422 Q4645.08 925.506 4645.08 939.765 Q4645.08 953.978 4648.69 961.107 Q4652.34 968.191 4659.57 968.191 Q4666.84 968.191 4670.45 961.107 Q4674.1 953.978 4674.1 939.765 Q4674.1 925.506 4670.45 918.422 Q4666.84 911.293 4659.57 911.293 M4659.57 903.885 Q4671.19 903.885 4677.3 913.098 Q4683.46 922.265 4683.46 939.765 Q4683.46 957.218 4677.3 966.431 Q4671.19 975.598 4659.57 975.598 Q4647.95 975.598 4641.79 966.431 Q4635.68 957.218 4635.68 939.765 Q4635.68 922.265 4641.79 913.098 Q4647.95 903.885 4659.57 903.885 Z" fill="#000000" fill-rule="nonzero" fill-opacity="1" /><path clip-path="url(#clip140)" d="M2327.6 1040.69 L2393.38 1040.69 L2393.38 1049.54 L2365.78 1049.54 L2365.78 1118.45 L2355.21 1118.45 L2355.21 1049.54 L2327.6 1049.54 L2327.6 1040.69 Z" fill="#000000" fill-rule="nonzero" fill-opacity="1" /><path clip-path="url(#clip140)" d="M2399.84 1060.11 L2409.43 1060.11 L2409.43 1118.45 L2399.84 1118.45 L2399.84 1060.11 M2399.84 1037.41 L2409.43 1037.41 L2409.43 1049.54 L2399.84 1049.54 L2399.84 1037.41 Z" fill="#000000" fill-rule="nonzero" fill-opacity="1" /><path clip-path="url(#clip140)" d="M2474.89 1071.31 Q2478.49 1064.85 2483.49 1061.78 Q2488.49 1058.71 2495.26 1058.71 Q2504.37 1058.71 2509.32 1065.11 Q2514.27 1071.47 2514.27 1083.24 L2514.27 1118.45 L2504.63 1118.45 L2504.63 1083.55 Q2504.63 1075.17 2501.67 1071.1 Q2498.7 1067.04 2492.6 1067.04 Q2485.16 1067.04 2480.83 1071.99 Q2476.51 1076.94 2476.51 1085.48 L2476.51 1118.45 L2466.87 1118.45 L2466.87 1083.55 Q2466.87 1075.11 2463.91 1071.1 Q2460.94 1067.04 2454.74 1067.04 Q2447.39 1067.04 2443.07 1072.04 Q2438.75 1076.99 2438.75 1085.48 L2438.75 1118.45 L2429.11 1118.45 L2429.11 1060.11 L2438.75 1060.11 L2438.75 1069.18 Q2442.03 1063.81 2446.61 1061.26 Q2451.2 1058.71 2457.5 1058.71 Q2463.85 1058.71 2468.28 1061.94 Q2472.76 1065.17 2474.89 1071.31 Z" fill="#000000" fill-rule="nonzero" fill-opacity="1" /><path clip-path="url(#clip140)" d="M2583.28 1086.89 L2583.28 1091.57 L2539.22 1091.57 Q2539.84 1101.47 2545.15 1106.68 Q2550.52 1111.83 2560.05 1111.83 Q2565.57 1111.83 2570.73 1110.48 Q2575.94 1109.12 2581.04 1106.42 L2581.04 1115.48 Q2575.88 1117.67 2570.47 1118.81 Q2565.05 1119.96 2559.48 1119.96 Q2545.52 1119.96 2537.34 1111.83 Q2529.22 1103.71 2529.22 1089.85 Q2529.22 1075.53 2536.93 1067.15 Q2544.69 1058.71 2557.81 1058.71 Q2569.58 1058.71 2576.4 1066.31 Q2583.28 1073.86 2583.28 1086.89 M2573.7 1084.07 Q2573.59 1076.21 2569.27 1071.52 Q2565 1066.83 2557.92 1066.83 Q2549.89 1066.83 2545.05 1071.36 Q2540.26 1075.9 2539.53 1084.12 L2573.7 1084.07 Z" fill="#000000" fill-rule="nonzero" fill-opacity="1" /><path clip-path="url(#clip140)" d="M2655.94 1037.51 Q2648.96 1049.49 2645.57 1061.21 Q2642.19 1072.93 2642.19 1084.96 Q2642.19 1096.99 2645.57 1108.81 Q2649.01 1120.58 2655.94 1132.51 L2647.6 1132.51 Q2639.79 1120.27 2635.88 1108.45 Q2632.03 1096.62 2632.03 1084.96 Q2632.03 1073.34 2635.88 1061.57 Q2639.74 1049.8 2647.6 1037.51 L2655.94 1037.51 Z" fill="#000000" fill-rule="nonzero" fill-opacity="1" /><path clip-path="url(#clip140)" d="M2712.91 1068.97 L2712.91 1037.41 L2722.5 1037.41 L2722.5 1118.45 L2712.91 1118.45 L2712.91 1109.7 Q2709.89 1114.91 2705.26 1117.46 Q2700.67 1119.96 2694.22 1119.96 Q2683.64 1119.96 2676.98 1111.52 Q2670.36 1103.08 2670.36 1089.33 Q2670.36 1075.58 2676.98 1067.15 Q2683.64 1058.71 2694.22 1058.71 Q2700.67 1058.71 2705.26 1061.26 Q2709.89 1063.76 2712.91 1068.97 M2680.26 1089.33 Q2680.26 1099.91 2684.58 1105.95 Q2688.96 1111.94 2696.56 1111.94 Q2704.16 1111.94 2708.54 1105.95 Q2712.91 1099.91 2712.91 1089.33 Q2712.91 1078.76 2708.54 1072.77 Q2704.16 1066.73 2696.56 1066.73 Q2688.96 1066.73 2684.58 1072.77 Q2680.26 1078.76 2680.26 1089.33 Z" fill="#000000" fill-rule="nonzero" fill-opacity="1" /><path clip-path="url(#clip140)" d="M2768.75 1089.12 Q2757.13 1089.12 2752.65 1091.78 Q2748.17 1094.44 2748.17 1100.84 Q2748.17 1105.95 2751.51 1108.97 Q2754.89 1111.94 2760.67 1111.94 Q2768.64 1111.94 2773.43 1106.31 Q2778.28 1100.64 2778.28 1091.26 L2778.28 1089.12 L2768.75 1089.12 M2787.86 1085.17 L2787.86 1118.45 L2778.28 1118.45 L2778.28 1109.59 Q2775 1114.91 2770.1 1117.46 Q2765.21 1119.96 2758.12 1119.96 Q2749.16 1119.96 2743.85 1114.96 Q2738.59 1109.91 2738.59 1101.47 Q2738.59 1091.62 2745.15 1086.62 Q2751.77 1081.62 2764.84 1081.62 L2778.28 1081.62 L2778.28 1080.69 Q2778.28 1074.07 2773.9 1070.48 Q2769.58 1066.83 2761.72 1066.83 Q2756.72 1066.83 2751.98 1068.03 Q2747.24 1069.23 2742.86 1071.62 L2742.86 1062.77 Q2748.12 1060.74 2753.07 1059.75 Q2758.02 1058.71 2762.71 1058.71 Q2775.36 1058.71 2781.61 1065.27 Q2787.86 1071.83 2787.86 1085.17 Z" fill="#000000" fill-rule="nonzero" fill-opacity="1" /><path clip-path="url(#clip140)" d="M2831.87 1123.86 Q2827.81 1134.28 2823.96 1137.46 Q2820.1 1140.63 2813.64 1140.63 L2805.99 1140.63 L2805.99 1132.61 L2811.61 1132.61 Q2815.57 1132.61 2817.76 1130.74 Q2819.94 1128.86 2822.6 1121.88 L2824.32 1117.51 L2800.73 1060.11 L2810.88 1060.11 L2829.11 1105.74 L2847.34 1060.11 L2857.5 1060.11 L2831.87 1123.86 Z" fill="#000000" fill-rule="nonzero" fill-opacity="1" /><path clip-path="url(#clip140)" d="M2869.22 1037.51 L2877.55 1037.51 Q2885.36 1049.8 2889.22 1061.57 Q2893.12 1073.34 2893.12 1084.96 Q2893.12 1096.62 2889.22 1108.45 Q2885.36 1120.27 2877.55 1132.51 L2869.22 1132.51 Q2876.14 1120.58 2879.53 1108.81 Q2882.97 1096.99 2882.97 1084.96 Q2882.97 1072.93 2879.53 1061.21 Q2876.14 1049.49 2869.22 1037.51 Z" fill="#000000" fill-rule="nonzero" fill-opacity="1" /><polyline clip-path="url(#clip140)" style="stroke:#000000; stroke-linecap:round; stroke-linejoin:round; stroke-width:4; stroke-opacity:1; fill:none" points="467.969,849.455 467.969,47.2441 "/>
<polyline clip-path="url(#clip140)" style="stroke:#000000; stroke-linecap:round; stroke-linejoin:round; stroke-width:4; stroke-opacity:1; fill:none" points="467.969,844.447 486.867,844.447 "/>
<polyline clip-path="url(#clip140)" style="stroke:#000000; stroke-linecap:round; stroke-linejoin:round; stroke-width:4; stroke-opacity:1; fill:none" points="467.969,729.132 486.867,729.132 "/>
<polyline clip-path="url(#clip140)" style="stroke:#000000; stroke-linecap:round; stroke-linejoin:round; stroke-width:4; stroke-opacity:1; fill:none" points="467.969,613.817 486.867,613.817 "/>
<polyline clip-path="url(#clip140)" style="stroke:#000000; stroke-linecap:round; stroke-linejoin:round; stroke-width:4; stroke-opacity:1; fill:none" points="467.969,498.501 486.867,498.501 "/>
<polyline clip-path="url(#clip140)" style="stroke:#000000; stroke-linecap:round; stroke-linejoin:round; stroke-width:4; stroke-opacity:1; fill:none" points="467.969,383.186 486.867,383.186 "/>
<polyline clip-path="url(#clip140)" style="stroke:#000000; stroke-linecap:round; stroke-linejoin:round; stroke-width:4; stroke-opacity:1; fill:none" points="467.969,267.871 486.867,267.871 "/>
<polyline clip-path="url(#clip140)" style="stroke:#000000; stroke-linecap:round; stroke-linejoin:round; stroke-width:4; stroke-opacity:1; fill:none" points="467.969,152.556 486.867,152.556 "/>
<path clip-path="url(#clip140)" d="M212.22 845.35 L271.572 845.35 L271.572 853.22 L212.22 853.22 L212.22 845.35 Z" fill="#000000" fill-rule="nonzero" fill-opacity="1" /><path clip-path="url(#clip140)" d="M291.85 809.887 L328.562 809.887 L328.562 817.757 L300.414 817.757 L300.414 834.701 Q302.451 834.007 304.488 833.683 Q306.526 833.313 308.563 833.313 Q320.137 833.313 326.896 839.655 Q333.655 845.998 333.655 856.831 Q333.655 867.988 326.711 874.192 Q319.766 880.349 307.127 880.349 Q302.776 880.349 298.239 879.609 Q293.748 878.868 288.933 877.386 L288.933 867.988 Q293.1 870.257 297.544 871.368 Q301.989 872.479 306.942 872.479 Q314.951 872.479 319.627 868.266 Q324.303 864.053 324.303 856.831 Q324.303 849.609 319.627 845.396 Q314.951 841.183 306.942 841.183 Q303.192 841.183 299.442 842.016 Q295.739 842.85 291.85 844.609 L291.85 809.887 Z" fill="#000000" fill-rule="nonzero" fill-opacity="1" /><path clip-path="url(#clip140)" d="M372.081 816.044 Q364.859 816.044 361.201 823.174 Q357.59 830.257 357.59 844.516 Q357.59 858.729 361.201 865.859 Q364.859 872.942 372.081 872.942 Q379.349 872.942 382.96 865.859 Q386.618 858.729 386.618 844.516 Q386.618 830.257 382.96 823.174 Q379.349 816.044 372.081 816.044 M372.081 808.637 Q383.701 808.637 389.812 817.85 Q395.969 827.016 395.969 844.516 Q395.969 861.97 389.812 871.183 Q383.701 880.349 372.081 880.349 Q360.46 880.349 354.303 871.183 Q348.192 861.97 348.192 844.516 Q348.192 827.016 354.303 817.85 Q360.46 808.637 372.081 808.637 Z" fill="#000000" fill-rule="nonzero" fill-opacity="1" /><path clip-path="url(#clip140)" d="M212.22 730.034 L271.572 730.034 L271.572 737.905 L212.22 737.905 L212.22 730.034 Z" fill="#000000" fill-rule="nonzero" fill-opacity="1" /><path clip-path="url(#clip140)" d="M317.451 702.72 L293.84 739.618 L317.451 739.618 L317.451 702.72 M314.998 694.572 L326.757 694.572 L326.757 739.618 L336.618 739.618 L336.618 747.395 L326.757 747.395 L326.757 763.692 L317.451 763.692 L317.451 747.395 L286.248 747.395 L286.248 738.368 L314.998 694.572 Z" fill="#000000" fill-rule="nonzero" fill-opacity="1" /><path clip-path="url(#clip140)" d="M372.081 700.729 Q364.859 700.729 361.201 707.859 Q357.59 714.942 357.59 729.201 Q357.59 743.414 361.201 750.544 Q364.859 757.627 372.081 757.627 Q379.349 757.627 382.96 750.544 Q386.618 743.414 386.618 729.201 Q386.618 714.942 382.96 707.859 Q379.349 700.729 372.081 700.729 M372.081 693.322 Q383.701 693.322 389.812 702.535 Q395.969 711.701 395.969 729.201 Q395.969 746.655 389.812 755.868 Q383.701 765.034 372.081 765.034 Q360.46 765.034 354.303 755.868 Q348.192 746.655 348.192 729.201 Q348.192 711.701 354.303 702.535 Q360.46 693.322 372.081 693.322 Z" fill="#000000" fill-rule="nonzero" fill-opacity="1" /><path clip-path="url(#clip140)" d="M212.22 614.719 L271.572 614.719 L271.572 622.59 L212.22 622.59 L212.22 614.719 Z" fill="#000000" fill-rule="nonzero" fill-opacity="1" /><path clip-path="url(#clip140)" d="M320.09 611.108 Q326.803 612.543 330.553 617.08 Q334.349 621.617 334.349 628.284 Q334.349 638.515 327.312 644.117 Q320.275 649.719 307.313 649.719 Q302.961 649.719 298.331 648.839 Q293.748 648.006 288.84 646.293 L288.84 637.265 Q292.729 639.534 297.359 640.691 Q301.989 641.849 307.035 641.849 Q315.831 641.849 320.414 638.377 Q325.044 634.904 325.044 628.284 Q325.044 622.173 320.738 618.747 Q316.479 615.275 308.84 615.275 L300.785 615.275 L300.785 607.59 L309.211 607.59 Q316.109 607.59 319.766 604.858 Q323.424 602.08 323.424 596.895 Q323.424 591.571 319.627 588.747 Q315.877 585.877 308.84 585.877 Q304.998 585.877 300.6 586.71 Q296.202 587.543 290.924 589.303 L290.924 580.969 Q296.248 579.488 300.877 578.747 Q305.553 578.007 309.674 578.007 Q320.322 578.007 326.525 582.868 Q332.729 587.682 332.729 595.923 Q332.729 601.664 329.442 605.645 Q326.155 609.58 320.09 611.108 Z" fill="#000000" fill-rule="nonzero" fill-opacity="1" /><path clip-path="url(#clip140)" d="M372.081 585.414 Q364.859 585.414 361.201 592.543 Q357.59 599.627 357.59 613.886 Q357.59 628.099 361.201 635.228 Q364.859 642.312 372.081 642.312 Q379.349 642.312 382.96 635.228 Q386.618 628.099 386.618 613.886 Q386.618 599.627 382.96 592.543 Q379.349 585.414 372.081 585.414 M372.081 578.007 Q383.701 578.007 389.812 587.219 Q395.969 596.386 395.969 613.886 Q395.969 631.34 389.812 640.552 Q383.701 649.719 372.081 649.719 Q360.46 649.719 354.303 640.552 Q348.192 631.34 348.192 613.886 Q348.192 596.386 354.303 587.219 Q360.46 578.007 372.081 578.007 Z" fill="#000000" fill-rule="nonzero" fill-opacity="1" /><path clip-path="url(#clip140)" d="M212.22 499.404 L271.572 499.404 L271.572 507.274 L212.22 507.274 L212.22 499.404 Z" fill="#000000" fill-rule="nonzero" fill-opacity="1" /><path clip-path="url(#clip140)" d="M299.813 525.191 L332.451 525.191 L332.451 533.061 L288.563 533.061 L288.563 525.191 Q293.887 519.682 303.053 510.423 Q312.266 501.117 314.627 498.432 Q319.118 493.386 320.877 489.913 Q322.683 486.395 322.683 483.015 Q322.683 477.506 318.794 474.034 Q314.951 470.562 308.748 470.562 Q304.35 470.562 299.442 472.089 Q294.581 473.617 289.026 476.719 L289.026 467.275 Q294.674 465.006 299.581 463.849 Q304.488 462.691 308.563 462.691 Q319.303 462.691 325.692 468.062 Q332.081 473.432 332.081 482.414 Q332.081 486.673 330.461 490.515 Q328.887 494.312 324.674 499.497 Q323.516 500.839 317.313 507.274 Q311.109 513.663 299.813 525.191 Z" fill="#000000" fill-rule="nonzero" fill-opacity="1" /><path clip-path="url(#clip140)" d="M372.081 470.099 Q364.859 470.099 361.201 477.228 Q357.59 484.312 357.59 498.571 Q357.59 512.784 361.201 519.913 Q364.859 526.997 372.081 526.997 Q379.349 526.997 382.96 519.913 Q386.618 512.784 386.618 498.571 Q386.618 484.312 382.96 477.228 Q379.349 470.099 372.081 470.099 M372.081 462.691 Q383.701 462.691 389.812 471.904 Q395.969 481.071 395.969 498.571 Q395.969 516.024 389.812 525.237 Q383.701 534.404 372.081 534.404 Q360.46 534.404 354.303 525.237 Q348.192 516.024 348.192 498.571 Q348.192 481.071 354.303 471.904 Q360.46 462.691 372.081 462.691 Z" fill="#000000" fill-rule="nonzero" fill-opacity="1" /><path clip-path="url(#clip140)" d="M212.22 384.089 L271.572 384.089 L271.572 391.959 L212.22 391.959 L212.22 384.089 Z" fill="#000000" fill-rule="nonzero" fill-opacity="1" /><path clip-path="url(#clip140)" d="M293.377 409.876 L308.655 409.876 L308.655 357.145 L292.035 360.478 L292.035 351.96 L308.563 348.626 L317.914 348.626 L317.914 409.876 L333.192 409.876 L333.192 417.746 L293.377 417.746 L293.377 409.876 Z" fill="#000000" fill-rule="nonzero" fill-opacity="1" /><path clip-path="url(#clip140)" d="M372.081 354.784 Q364.859 354.784 361.201 361.913 Q357.59 368.997 357.59 383.256 Q357.59 397.469 361.201 404.598 Q364.859 411.681 372.081 411.681 Q379.349 411.681 382.96 404.598 Q386.618 397.469 386.618 383.256 Q386.618 368.997 382.96 361.913 Q379.349 354.784 372.081 354.784 M372.081 347.376 Q383.701 347.376 389.812 356.589 Q395.969 365.756 395.969 383.256 Q395.969 400.709 389.812 409.922 Q383.701 419.089 372.081 419.089 Q360.46 419.089 354.303 409.922 Q348.192 400.709 348.192 383.256 Q348.192 365.756 354.303 356.589 Q360.46 347.376 372.081 347.376 Z" fill="#000000" fill-rule="nonzero" fill-opacity="1" /><path clip-path="url(#clip140)" d="M372.081 239.469 Q364.859 239.469 361.201 246.598 Q357.59 253.681 357.59 267.941 Q357.59 282.153 361.201 289.283 Q364.859 296.366 372.081 296.366 Q379.349 296.366 382.96 289.283 Q386.618 282.153 386.618 267.941 Q386.618 253.681 382.96 246.598 Q379.349 239.469 372.081 239.469 M372.081 232.061 Q383.701 232.061 389.812 241.274 Q395.969 250.441 395.969 267.941 Q395.969 285.394 389.812 294.607 Q383.701 303.774 372.081 303.774 Q360.46 303.774 354.303 294.607 Q348.192 285.394 348.192 267.941 Q348.192 250.441 354.303 241.274 Q360.46 232.061 372.081 232.061 Z" fill="#000000" fill-rule="nonzero" fill-opacity="1" /><path clip-path="url(#clip140)" d="M293.377 179.246 L308.655 179.246 L308.655 126.515 L292.035 129.848 L292.035 121.329 L308.563 117.996 L317.914 117.996 L317.914 179.246 L333.192 179.246 L333.192 187.116 L293.377 187.116 L293.377 179.246 Z" fill="#000000" fill-rule="nonzero" fill-opacity="1" /><path clip-path="url(#clip140)" d="M372.081 124.153 Q364.859 124.153 361.201 131.283 Q357.59 138.366 357.59 152.625 Q357.59 166.838 361.201 173.968 Q364.859 181.051 372.081 181.051 Q379.349 181.051 382.96 173.968 Q386.618 166.838 386.618 152.625 Q386.618 138.366 382.96 131.283 Q379.349 124.153 372.081 124.153 M372.081 116.746 Q383.701 116.746 389.812 125.959 Q395.969 135.126 395.969 152.625 Q395.969 170.079 389.812 179.292 Q383.701 188.459 372.081 188.459 Q360.46 188.459 354.303 179.292 Q348.192 170.079 348.192 152.625 Q348.192 135.126 354.303 125.959 Q360.46 116.746 372.081 116.746 Z" fill="#000000" fill-rule="nonzero" fill-opacity="1" /><path clip-path="url(#clip142)" d="M589.237 222.743 L606.08 306.723 L622.922 364.887 L639.765 406.24 L656.608 434.858 L673.451 453.281 L690.293 456.056 L707.136 448.746 L723.979 427.976 L740.821 408.104 L757.664 406.067 L774.507 413.827 L791.35 427.44 L808.192 444.328 L825.035 461.583 L841.878 477.336 L858.72 489.293 L875.563 500.617 L892.406 512.378 L909.249 530.137 L926.091 549.882 L942.934 570.309 L959.777 585.583 L976.619 596.764 L993.462 607.678 L1010.3 627.121 L1027.15 645.304 L1043.99 661.302 L1060.83 672.83 L1077.68 678.916 L1094.52 671.822 L1111.36 655.339 L1128.2 625.229 L1145.05 595.437 L1161.89 583.117 L1178.73 581.185 L1195.57 585.045 L1212.42 593.25 L1229.26 601.889 L1246.1 609.111 L1262.95 612.451 L1279.79 615.416 L1296.63 619.269 L1313.47 629.525 L1330.32 643.67 L1347.16 659.181 L1364 670.4 L1380.84 678.212 L1397.69 686.269 L1414.53 703.388 L1431.37 719.789 L1448.22 734.354 L1465.06 744.682 L1481.9 750.101 L1498.74 741.969 L1515.59 724.293 L1532.43 692.255 L1549.27 659.612 L1566.11 643.768 L1582.96 638.083 L1599.8 638.187 L1616.64 642.907 L1633.49 648.251 L1650.33 652.323 L1667.17 652.612 L1684.01 652.551 L1700.86 653.844 L1717.7 662.08 L1734.54 674.32 L1751.38 688.591 L1768.23 698.564 L1785.07 705.298 L1801.91 712.583 L1818.76 729.34 L1835.6 746.027 L1852.44 761.488 L1869.28 773.224 L1886.13 780.052 L1902.97 773.451 L1919.81 756.989 L1936.65 725.845 L1953.5 693.367 L1970.34 676.782 L1987.18 669.792 L2004.02 668.568 L2020.87 671.789 L2037.71 676.002 L2054.55 678.978 L2071.4 678.158 L2088.24 677.354 L2105.08 677.532 L2121.92 684.822 L2138.77 696.081 L2155.61 709.358 L2172.45 718.552 L2189.29 724.691 L2206.14 731.504 L2222.98 747.968 L2239.82 764.46 L2256.67 779.788 L2273.51 791.455 L2290.35 798.24 L2307.19 791.551 L2324.04 774.943 L2340.88 743.535 L2357.72 710.652 L2374.56 693.503 L2391.41 685.957 L2408.25 684.184 L2425.09 686.855 L2441.94 690.538 L2458.78 692.979 L2475.62 691.584 L2492.46 690.219 L2509.31 689.836 L2526.15 696.619 L2542.99 707.457 L2559.83 720.409 L2576.68 729.367 L2593.52 735.338 L2610.36 742.043 L2627.21 758.441 L2644.05 774.905 L2660.89 790.241 L2677.73 801.939 L2694.58 808.763 L2711.42 802.114 L2728.26 785.501 L2745.1 754.003 L2761.95 720.912 L2778.79 703.462 L2795.63 695.568 L2812.48 693.447 L2829.32 695.797 L2846.16 699.198 L2863 701.404 L2879.85 699.792 L2896.69 698.208 L2913.53 697.605 L2930.37 704.209 L2947.22 714.929 L2964.06 727.787 L2980.9 736.664 L2997.75 742.55 L3014.59 749.183 L3031.43 765.49 L3048.27 781.916 L3065.12 797.242 L3081.96 808.92 L3098.8 815.748 L3115.64 809.108 L3132.49 792.474 L3149.33 760.862 L3166.17 727.526 L3183.01 709.792 L3199.86 701.62 L3216.7 699.237 L3233.54 701.375 L3250.39 704.571 L3267.23 706.557 L3284.07 704.719 L3300.91 702.917 L3317.76 702.147 L3334.6 708.595 L3351.44 719.171 L3368.28 731.953 L3385.13 740.81 L3401.97 746.726 L3418.81 753.413 L3435.66 769.835 L3452.5 786.358 L3469.34 801.77 L3486.18 813.529 L3503.03 820.415 L3519.87 813.789 L3536.71 797.139 L3553.55 765.477 L3570.4 732.081 L3587.24 714.21 L3604.08 705.89 L3620.93 703.422 L3637.77 705.517 L3654.61 708.649 L3671.45 710.615 L3688.3 708.642 L3705.14 706.758 L3721.98 705.904 L3738.82 712.27 L3755.67 722.766 L3772.51 735.52 L3789.35 744.221 L3806.2 750.046 L3823.04 756.687 L3839.88 773.079 L3856.72 789.589 L3873.57 805 L3890.41 816.766 L3907.25 823.659 L3924.09 817.039 L3940.94 800.403 L3957.78 768.714 L3974.62 735.194 L3991.47 717.202 L4008.31 708.766 L4025.15 706.149 L4041.99 708.069 L4058.84 711.087 L4075.68 712.934 L4092.52 710.871 L4109.36 708.932 L4126.21 708.126 L4143.05 714.563 L4159.89 725.195 L4176.74 738.089 L4193.58 746.913 L4210.42 752.843 L4227.26 759.568 L4244.11 776.025 L4260.95 792.587 L4277.79 808.032 L4294.63 819.833 L4311.48 826.751 L4328.32 820.137 L4345.16 803.497 L4362 771.768 L4378.85 738.166 L4395.69 720.036 L4412.53 711.46 L4429.38 708.741 L4446.22 710.594 L4463.06 713.522 L4479.9 715.294 L4496.75 713.19 L4513.59 711.228 L4530.43 710.413 L4547.27 716.857 L4564.12 727.526 L4580.96 740.403 L4597.8 749.357 L4614.65 755.352 L4631.49 762.1 L4631.49 91.446 L4614.65 100.248 L4597.8 116.856 L4580.96 132.721 L4564.12 141.121 L4547.27 144.87 L4530.43 147.795 L4513.59 145.43 L4496.75 138.573 L4479.9 128.958 L4463.06 116.674 L4446.22 104.133 L4429.38 96.9418 L4412.53 98.0432 L4395.69 105.173 L4378.85 118.418 L4362 143.271 L4345.16 166.192 L4328.32 177.463 L4311.48 175.094 L4294.63 158.71 L4277.79 137.782 L4260.95 116.049 L4244.11 98.9195 L4227.26 90.9554 L4210.42 99.7857 L4193.58 116.417 L4176.74 132.333 L4159.89 140.557 L4143.05 144.395 L4126.21 147.105 L4109.36 145.046 L4092.52 138.127 L4075.68 128.679 L4058.84 116.414 L4041.99 104.136 L4025.15 96.6803 L4008.31 97.3543 L3991.47 105.337 L3974.62 118.374 L3957.78 142.396 L3940.94 165.678 L3924.09 176.921 L3907.25 174.608 L3890.41 158.258 L3873.57 137.354 L3856.72 115.627 L3839.88 98.4989 L3823.04 90.5148 L3806.2 99.3032 L3789.35 115.858 L3772.51 131.652 L3755.67 139.964 L3738.82 143.89 L3721.98 146.632 L3705.14 144.597 L3688.3 137.634 L3671.45 128.215 L3654.61 115.27 L3637.77 102.607 L3620.93 95.2646 L3604.08 96.24 L3587.24 103.221 L3570.4 116.167 L3553.55 141.298 L3536.71 164.855 L3519.87 176.141 L3503.03 173.897 L3486.18 157.592 L3469.34 136.724 L3452.5 115.03 L3435.66 97.921 L3418.81 89.9376 L3401.97 98.6956 L3385.13 115.209 L3368.28 130.928 L3351.44 138.941 L3334.6 142.897 L3317.76 145.893 L3300.91 143.988 L3284.07 137.203 L3267.23 127.523 L3250.39 114.63 L3233.54 102.096 L3216.7 94.3671 L3199.86 95.4492 L3183.01 102.599 L3166.17 115.564 L3149.33 139.506 L3132.49 162.57 L3115.64 174.153 L3098.8 172.045 L3081.96 155.849 L3065.12 135.084 L3048.27 113.475 L3031.43 96.4592 L3014.59 88.5796 L2997.75 97.4004 L2980.9 113.907 L2964.06 129.643 L2947.22 137.63 L2930.37 141.582 L2913.53 144.643 L2896.69 143.247 L2879.85 136.278 L2863 126.797 L2846.16 113.087 L2829.32 100.29 L2812.48 92.7951 L2795.63 93.5201 L2778.79 100.364 L2761.95 113.52 L2745.1 137.02 L2728.26 160.735 L2711.42 172.373 L2694.58 170.357 L2677.73 154.232 L2660.89 133.525 L2644.05 111.97 L2627.21 94.9919 L2610.36 87.1291 L2593.52 95.9623 L2576.68 112.474 L2559.83 127.98 L2542.99 136.164 L2526.15 140.346 L2509.31 143.104 L2492.46 141.803 L2475.62 134.996 L2458.78 125.042 L2441.94 111.234 L2425.09 98.2654 L2408.25 90.5998 L2391.41 91.1504 L2374.56 97.7381 L2357.72 110.266 L2340.88 134.695 L2324.04 157.947 L2307.19 169.775 L2290.35 167.838 L2273.51 151.799 L2256.67 131.162 L2239.82 109.682 L2222.98 92.7722 L2206.14 84.9325 L2189.29 93.7789 L2172.45 110.135 L2155.61 125.316 L2138.77 133.573 L2121.92 137.751 L2105.08 140.967 L2088.24 139.989 L2071.4 133.053 L2054.55 122.759 L2037.71 108.725 L2020.87 95.5268 L2004.02 87.514 L1987.18 87.6596 L1970.34 93.8495 L1953.5 106.35 L1936.65 129.408 L1919.81 153.514 L1902.97 165.638 L1886.13 163.854 L1869.28 147.969 L1852.44 127.493 L1835.6 106.093 L1818.76 89.2181 L1801.91 81.4688 L1785.07 90.4402 L1768.23 106.854 L1751.38 122.08 L1734.54 130.379 L1717.7 134.649 L1700.86 137.945 L1684.01 136.741 L1667.17 129.892 L1650.33 119.259 L1633.49 105.016 L1616.64 91.4424 L1599.8 82.9587 L1582.96 82.5343 L1566.11 88.2206 L1549.27 99.5611 L1532.43 123.396 L1515.59 147.127 L1498.74 159.658 L1481.9 158.117 L1465.06 142.272 L1448.22 121.675 L1431.37 100.317 L1414.53 83.5981 L1397.69 75.9859 L1380.84 85.1064 L1364 101.73 L1347.16 117.145 L1330.32 125.607 L1313.47 129.969 L1296.63 133.508 L1279.79 132.34 L1262.95 125.527 L1246.1 114.824 L1229.26 100.367 L1212.42 86.6632 L1195.57 77.4747 L1178.73 76.6923 L1161.89 81.6637 L1145.05 92.8015 L1128.2 114.685 L1111.36 137.965 L1094.52 151.065 L1077.68 150.058 L1060.83 134.551 L1043.99 114.433 L1027.15 93.5244 L1010.3 77.192 L993.462 69.9482 L976.619 79.4638 L959.777 96.4814 L942.934 112.364 L926.091 121.266 L909.249 126.128 L892.406 130.53 L875.563 130.085 L858.72 123.906 L841.878 115.125 L825.035 103.438 L808.192 93.1735 L791.35 89.525 L774.507 95.9698 L757.664 110.585 L740.821 132.289 L723.979 163.181 L707.136 191.461 L690.293 206.905 L673.451 208.785 L656.608 196.854 L639.765 181.047 L622.922 161.834 L606.08 149.055 L589.237 149.547  Z" fill="#aeaeae" fill-rule="evenodd" fill-opacity="0.5"/>
<polyline clip-path="url(#clip142)" style="stroke:#aeaeae; stroke-linecap:round; stroke-linejoin:round; stroke-width:0; stroke-opacity:1; fill:none" points="589.237,222.982 606.08,234.011 622.922,245.302 639.765,256.525 656.608,266.043 673.451,272.691 690.293,271.812 707.136,264.938 723.979,250.579 740.821,235.726 757.664,227.978 774.507,224.299 791.35,223.879 808.192,226.68 825.035,231.086 841.878,235.517 858.72,238.037 875.563,239.25 892.406,238.736 909.249,238.665 926.091,238.559 942.934,237.836 959.777,234.564 976.619,230.549 993.462,228.923 1010.3,234.256 1027.15,242.336 1043.99,251.668 1060.83,260.11 1077.68,266.158 1094.52,265 1111.36,258.019 1128.2,244.159 1145.05,230.588 1161.89,224.641 1178.73,222.818 1195.57,223.967 1212.42,227.963 1229.26,233.242 1246.1,238.285 1262.95,241.206 1279.79,242.709 1296.63,242.401 1313.47,242.507 1330.32,242.551 1347.16,241.95 1364,238.819 1380.84,234.967 1397.69,233.515 1414.53,239.044 1431.37,247.347 1448.22,256.92 1465.06,265.607 1481.9,271.896 1498.74,270.952 1515.59,264.141 1532.43,250.224 1549.27,236.357 1566.11,229.958 1582.96,227.708 1599.8,228.436 1616.64,232.114 1633.49,237.145 1650.33,241.989 1667.17,244.746 1684.01,246.129 1700.86,245.757 1717.7,245.838 1734.54,245.861 1751.38,245.253 1768.23,242.139 1785.07,238.314 1801.91,236.907 1818.76,242.497 1835.6,250.88 1852.44,260.547 1869.28,269.33 1886.13,275.724 1902.97,274.87 1919.81,268.1 1936.65,254.137 1953.5,240.085 1970.34,233.41 1987.18,230.829 2004.02,231.318 2020.87,234.794 2037.71,239.651 2054.55,244.36 2071.4,247.018 2088.24,248.323 2105.08,247.917 2121.92,247.99 2138.77,248.009 2155.61,247.408 2172.45,244.314 2189.29,240.524 2206.14,239.149 2222.98,244.784 2239.82,253.22 2256.67,262.947 2273.51,271.798 2290.35,278.251 2307.19,277.457 2324.04,270.733 2340.88,256.736 2357.72,242.556 2374.56,235.677 2391.41,232.919 2408.25,233.244 2425.09,236.568 2441.94,241.314 2458.78,245.941 2475.62,248.53 2492.46,249.802 2509.31,249.372 2526.15,249.444 2542.99,249.472 2559.83,248.882 2576.68,245.807 2593.52,242.031 2610.36,240.687 2627.21,246.351 2644.05,254.825 2660.89,264.592 2677.73,273.487 2694.58,279.991 2711.42,279.242 2728.26,272.539 2745.1,258.518 2761.95,244.257 2778.79,237.251 2795.63,234.36 2812.48,234.567 2829.32,237.787 2846.16,242.463 2863,247.04 2879.85,249.588 2896.69,250.839 2913.53,250.406 2930.37,250.489 2947.22,250.519 2964.06,249.941 2980.9,246.884 2997.75,243.133 3014.59,241.808 3031.43,247.497 3048.27,255.998 3065.12,265.798 3081.96,274.723 3098.8,281.261 3115.64,280.54 3132.49,273.855 3149.33,259.827 3166.17,245.498 3183.01,238.399 3199.86,235.411 3216.7,235.519 3233.54,238.68 3250.39,243.301 3267.23,247.832 3284.07,250.354 3300.91,251.576 3317.76,251.144 3334.6,251.228 3351.44,251.271 3368.28,250.702 3385.13,247.658 3401.97,243.913 3418.81,242.606 3435.66,248.315 3452.5,256.838 3469.34,266.66 3486.18,275.61 3503.03,282.169 3519.87,281.471 3536.71,274.809 3553.55,260.756 3570.4,246.385 3587.24,239.212 3604.08,236.161 3620.93,236.199 3637.77,239.314 3654.61,243.899 3671.45,248.402 3688.3,250.9 3705.14,252.115 3721.98,251.662 3738.82,251.759 3755.67,251.808 3772.51,251.254 3789.35,248.222 3806.2,244.503 3823.04,243.203 3839.88,248.925 3856.72,257.461 3873.57,267.302 3890.41,276.268 3907.25,282.842 3924.09,282.161 3940.94,275.491 3957.78,261.432 3974.62,247.029 3991.47,239.808 4008.31,236.696 4025.15,236.696 4041.99,239.753 4058.84,244.317 4075.68,248.805 4092.52,251.294 4109.36,252.498 4126.21,252.048 4143.05,252.15 4159.89,252.212 4176.74,251.659 4193.58,248.632 4210.42,244.924 4227.26,243.635 4244.11,249.363 4260.95,257.908 4277.79,267.752 4294.63,276.733 4311.48,283.319 4328.32,282.642 4345.16,275.979 4362,261.911 4378.85,247.48 4395.69,240.229 4412.53,237.081 4429.38,237.047 4446.22,240.09 4463.06,244.631 4479.9,249.105 4496.75,251.582 4513.59,252.784 4530.43,252.338 4547.27,252.443 4564.12,252.511 4580.96,251.962 4597.8,248.944 4614.65,245.235 4631.49,243.953 "/>
<path clip-path="url(#clip142)" d="M589.237 198.182 L606.08 250.628 L622.922 288.741 L639.765 319.043 L656.608 340.155 L673.451 354.43 L690.293 355.716 L707.136 345.819 L723.979 322.057 L740.821 297.052 L757.664 285.808 L774.507 284.726 L791.35 290.375 L808.192 299.037 L825.035 307.78 L841.878 314.976 L858.72 315.976 L875.563 317.616 L892.406 318.808 L909.249 324.569 L926.091 330.974 L942.934 338.171 L959.777 343.074 L976.619 345.491 L993.462 348.239 L1010.3 363.045 L1027.15 378.579 L1043.99 393.03 L1060.83 406.15 L1077.68 414.112 L1094.52 407.742 L1111.36 393.702 L1128.2 364.3 L1145.05 334.812 L1161.89 322.892 L1178.73 318.92 L1195.57 322.576 L1212.42 328.96 L1229.26 337.045 L1246.1 343.729 L1262.95 344.268 L1279.79 343.806 L1296.63 341.828 L1313.47 343.751 L1330.32 350.395 L1347.16 358.026 L1364 360.521 L1380.84 363.748 L1397.69 368.221 L1414.53 382.407 L1431.37 397.237 L1448.22 411.037 L1465.06 423.793 L1481.9 432.983 L1498.74 428.476 L1515.59 414.608 L1532.43 386.523 L1549.27 357.273 L1566.11 343.198 L1582.96 338.85 L1599.8 340.727 L1616.64 345.071 L1633.49 350.593 L1650.33 354.33 L1667.17 355.056 L1684.01 354.85 L1700.86 351.935 L1717.7 356.217 L1734.54 361.003 L1751.38 366.86 L1768.23 371.502 L1785.07 373.698 L1801.91 376.914 L1818.76 390.504 L1835.6 406.078 L1852.44 421.138 L1869.28 434.161 L1886.13 442.292 L1902.97 438.799 L1919.81 424.328 L1936.65 395.487 L1953.5 366.014 L1970.34 352.082 L1987.18 346.76 L2004.02 347.761 L2020.87 352.838 L2037.71 358.383 L2054.55 362.58 L2071.4 362.148 L2088.24 360.894 L2105.08 358.513 L2121.92 362.423 L2138.77 367.703 L2155.61 374.333 L2172.45 376.384 L2189.29 378.623 L2206.14 383.326 L2222.98 397.556 L2239.82 412.613 L2256.67 428.613 L2273.51 440.924 L2290.35 448.887 L2307.19 445.285 L2324.04 430.771 L2340.88 401.788 L2357.72 372.244 L2374.56 357.138 L2391.41 350.926 L2408.25 351.972 L2425.09 356.286 L2441.94 362.32 L2458.78 366.591 L2475.62 366.302 L2492.46 364.73 L2509.31 362.701 L2526.15 365.643 L2542.99 371.689 L2559.83 378.596 L2576.68 381.729 L2593.52 383.304 L2610.36 387.112 L2627.21 401.382 L2644.05 417.485 L2660.89 433.576 L2677.73 445.925 L2694.58 453.711 L2711.42 448.852 L2728.26 434.319 L2745.1 405.744 L2761.95 376.81 L2778.79 361.722 L2795.63 355.193 L2812.48 355.169 L2829.32 358.579 L2846.16 364.126 L2863 369.163 L2879.85 368.785 L2896.69 366.545 L2913.53 364.865 L2930.37 367.341 L2947.22 373.365 L2964.06 381.823 L2980.9 385.98 L2997.75 387.595 L3014.59 391.225 L3031.43 405.08 L3048.27 420.868 L3065.12 437.221 L3081.96 449.212 L3098.8 456.706 L3115.64 451.215 L3132.49 436.226 L3149.33 408.741 L3166.17 380.358 L3183.01 365.524 L3199.86 359.114 L3216.7 358.43 L3233.54 361.595 L3250.39 365.791 L3267.23 370.795 L3284.07 370.437 L3300.91 368.564 L3317.76 366.413 L3334.6 368.722 L3351.44 375 L3368.28 384.562 L3385.13 389.318 L3401.97 390.837 L3418.81 394.011 L3435.66 407.869 L3452.5 423.662 L3469.34 440.119 L3486.18 451.054 L3503.03 458.075 L3519.87 452.792 L3536.71 438.566 L3553.55 411.112 L3570.4 381.879 L3587.24 367.464 L3604.08 361.471 L3620.93 360.91 L3637.77 364.482 L3654.61 367.753 L3671.45 371.995 L3688.3 371.395 L3705.14 369.572 L3721.98 367.202 L3738.82 369.437 L3755.67 376.342 L3772.51 385.789 L3789.35 390.789 L3806.2 392.543 L3823.04 395.746 L3839.88 409.658 L3856.72 425.691 L3873.57 441.545 L3890.41 452.286 L3907.25 459.868 L3924.09 453.714 L3940.94 439.779 L3957.78 412.43 L3974.62 383.732 L3991.47 369.184 L4008.31 363.513 L4025.15 362.436 L4041.99 366.211 L4058.84 369.377 L4075.68 372.119 L4092.52 372.216 L4109.36 370.346 L4126.21 367.856 L4143.05 370.42 L4159.89 377.596 L4176.74 387.018 L4193.58 392.739 L4210.42 395.102 L4227.26 398.218 L4244.11 412.134 L4260.95 428.135 L4277.79 442.591 L4294.63 453.247 L4311.48 460.18 L4328.32 454.669 L4345.16 441.176 L4362 413.696 L4378.85 384.631 L4395.69 370.128 L4412.53 364.597 L4429.38 363.138 L4446.22 367.038 L4463.06 370.316 L4479.9 372.916 L4496.75 372.738 L4513.59 370.885 L4530.43 368.3 L4547.27 371.318 L4564.12 378.323 L4580.96 387.741 L4597.8 393.093 L4614.65 395.864 L4631.49 398.96 L4631.49 113.693 L4614.65 122.448 L4597.8 138.693 L4580.96 155.637 L4564.12 163.995 L4547.27 168.191 L4530.43 169.228 L4513.59 167.915 L4496.75 161.568 L4479.9 151.617 L4463.06 137.827 L4446.22 124.56 L4429.38 118.231 L4412.53 121.014 L4395.69 129.857 L4378.85 144.166 L4362 169.056 L4345.16 194.194 L4328.32 206.287 L4311.48 203.993 L4294.63 186.422 L4277.79 163.477 L4260.95 140.593 L4244.11 122.073 L4227.26 113.019 L4210.42 121.734 L4193.58 138.382 L4176.74 155.041 L4159.89 163.689 L4143.05 167.949 L4126.21 168.998 L4109.36 167.553 L4092.52 161.366 L4075.68 151.069 L4058.84 137.383 L4041.99 124.229 L4025.15 117.649 L4008.31 120.507 L3991.47 129.203 L3974.62 143.51 L3957.78 168.38 L3940.94 193.44 L3924.09 205.453 L3907.25 203.115 L3890.41 185.656 L3873.57 163.039 L3856.72 139.874 L3839.88 121.335 L3823.04 112.369 L3806.2 121.068 L3789.35 137.653 L3772.51 154.323 L3755.67 163.165 L3738.82 167.383 L3721.98 168.499 L3705.14 167.069 L3688.3 160.826 L3671.45 150.397 L3654.61 136.874 L3637.77 123.504 L3620.93 116.807 L3604.08 119.8 L3587.24 128.474 L3570.4 142.487 L3553.55 167.659 L3536.71 192.409 L3519.87 204.426 L3503.03 201.952 L3486.18 184.602 L3469.34 161.948 L3452.5 138.486 L3435.66 120.325 L3418.81 111.29 L3401.97 119.993 L3385.13 136.59 L3368.28 153.397 L3351.44 162.266 L3334.6 166.467 L3317.76 167.776 L3300.91 166.476 L3284.07 160.013 L3267.23 149.685 L3250.39 135.888 L3233.54 122.631 L3216.7 115.548 L3199.86 118.725 L3183.01 127.005 L3166.17 140.769 L3149.33 165.593 L3132.49 190.859 L3115.64 202.829 L3098.8 200.432 L3081.96 183.014 L3065.12 160.513 L3048.27 137.31 L3031.43 118.674 L3014.59 109.689 L2997.75 118.485 L2980.9 135.406 L2964.06 152.108 L2947.22 161.23 L2930.37 165.204 L2913.53 166.743 L2896.69 165.447 L2879.85 158.68 L2863 148.685 L2846.16 134.579 L2829.32 121.279 L2812.48 114.296 L2795.63 117.209 L2778.79 125.101 L2761.95 138.766 L2745.1 163.692 L2728.26 188.716 L2711.42 200.568 L2694.58 198.088 L2677.73 180.88 L2660.89 158.508 L2644.05 135.317 L2627.21 116.524 L2610.36 107.613 L2593.52 116.6 L2576.68 133.844 L2559.83 150.324 L2542.99 159.471 L2526.15 163.569 L2509.31 165.561 L2492.46 164.041 L2475.62 157.153 L2458.78 147.407 L2441.94 133.022 L2425.09 119.761 L2408.25 112.407 L2391.41 114.674 L2374.56 123.177 L2357.72 136.202 L2340.88 160.541 L2324.04 185.522 L2307.19 196.743 L2290.35 195.53 L2273.51 177.943 L2256.67 156.025 L2239.82 132.391 L2222.98 114.063 L2206.14 104.989 L2189.29 114.007 L2172.45 131.376 L2155.61 147.722 L2138.77 157.356 L2121.92 161.527 L2105.08 163.634 L2088.24 162.008 L2071.4 155.076 L2054.55 145.53 L2037.71 130.872 L2020.87 117.497 L2004.02 109.873 L1987.18 111.801 L1970.34 119.438 L1953.5 132.244 L1936.65 156.465 L1919.81 180.887 L1902.97 192.858 L1886.13 191.499 L1869.28 174.172 L1852.44 152.57 L1835.6 128.703 L1818.76 110.345 L1801.91 101.321 L1785.07 110.767 L1768.23 128.039 L1751.38 144.704 L1734.54 154.139 L1717.7 157.925 L1700.86 160.318 L1684.01 159.06 L1667.17 152.306 L1650.33 142.347 L1633.49 127.548 L1616.64 113.851 L1599.8 106.414 L1582.96 107.799 L1566.11 113.971 L1549.27 126.653 L1532.43 149.706 L1515.59 174.158 L1498.74 186.916 L1481.9 185.335 L1465.06 168.264 L1448.22 146.479 L1431.37 123.522 L1414.53 104.717 L1397.69 96.1716 L1380.84 106.075 L1364 122.982 L1347.16 139.888 L1330.32 149.095 L1313.47 153.196 L1296.63 155.398 L1279.79 154.148 L1262.95 147.843 L1246.1 137.601 L1229.26 122.341 L1212.42 108.532 L1195.57 99.6133 L1178.73 101.684 L1161.89 106.841 L1145.05 118.667 L1128.2 140.992 L1111.36 165.59 L1094.52 178.591 L1077.68 176.822 L1060.83 160.534 L1043.99 139.78 L1027.15 117.026 L1010.3 99.3737 L993.462 91.252 L976.619 101.127 L959.777 118.404 L942.934 135.695 L926.091 145.114 L909.249 149.782 L892.406 152.994 L875.563 151.837 L858.72 146.329 L841.878 137.809 L825.035 124.819 L808.192 113.968 L791.35 110.131 L774.507 116.802 L757.664 132.106 L740.821 152.676 L723.979 183.406 L707.136 212.615 L690.293 227.903 L673.451 229.392 L656.608 215.135 L639.765 196.127 L622.922 177.191 L606.08 163.513 L589.237 160.238  Z" fill="#757575" fill-rule="evenodd" fill-opacity="0.5"/>
<polyline clip-path="url(#clip142)" style="stroke:#757575; stroke-linecap:round; stroke-linejoin:round; stroke-width:0; stroke-opacity:1; fill:none" points="589.237,222.982 606.08,234.011 622.922,245.302 639.765,256.525 656.608,266.043 673.451,272.691 690.293,271.812 707.136,264.938 723.979,250.579 740.821,235.726 757.664,227.978 774.507,224.299 791.35,223.879 808.192,226.68 825.035,231.086 841.878,235.517 858.72,238.037 875.563,239.25 892.406,238.736 909.249,238.665 926.091,238.559 942.934,237.836 959.777,234.564 976.619,230.549 993.462,228.923 1010.3,234.256 1027.15,242.336 1043.99,251.668 1060.83,260.11 1077.68,266.158 1094.52,265 1111.36,258.019 1128.2,244.159 1145.05,230.588 1161.89,224.641 1178.73,222.818 1195.57,223.967 1212.42,227.963 1229.26,233.242 1246.1,238.285 1262.95,241.206 1279.79,242.709 1296.63,242.401 1313.47,242.507 1330.32,242.551 1347.16,241.95 1364,238.819 1380.84,234.967 1397.69,233.515 1414.53,239.044 1431.37,247.347 1448.22,256.92 1465.06,265.607 1481.9,271.896 1498.74,270.952 1515.59,264.141 1532.43,250.224 1549.27,236.357 1566.11,229.958 1582.96,227.708 1599.8,228.436 1616.64,232.114 1633.49,237.145 1650.33,241.989 1667.17,244.746 1684.01,246.129 1700.86,245.757 1717.7,245.838 1734.54,245.861 1751.38,245.253 1768.23,242.139 1785.07,238.314 1801.91,236.907 1818.76,242.497 1835.6,250.88 1852.44,260.547 1869.28,269.33 1886.13,275.724 1902.97,274.87 1919.81,268.1 1936.65,254.137 1953.5,240.085 1970.34,233.41 1987.18,230.829 2004.02,231.318 2020.87,234.794 2037.71,239.651 2054.55,244.36 2071.4,247.018 2088.24,248.323 2105.08,247.917 2121.92,247.99 2138.77,248.009 2155.61,247.408 2172.45,244.314 2189.29,240.524 2206.14,239.149 2222.98,244.784 2239.82,253.22 2256.67,262.947 2273.51,271.798 2290.35,278.251 2307.19,277.457 2324.04,270.733 2340.88,256.736 2357.72,242.556 2374.56,235.677 2391.41,232.919 2408.25,233.244 2425.09,236.568 2441.94,241.314 2458.78,245.941 2475.62,248.53 2492.46,249.802 2509.31,249.372 2526.15,249.444 2542.99,249.472 2559.83,248.882 2576.68,245.807 2593.52,242.031 2610.36,240.687 2627.21,246.351 2644.05,254.825 2660.89,264.592 2677.73,273.487 2694.58,279.991 2711.42,279.242 2728.26,272.539 2745.1,258.518 2761.95,244.257 2778.79,237.251 2795.63,234.36 2812.48,234.567 2829.32,237.787 2846.16,242.463 2863,247.04 2879.85,249.588 2896.69,250.839 2913.53,250.406 2930.37,250.489 2947.22,250.519 2964.06,249.941 2980.9,246.884 2997.75,243.133 3014.59,241.808 3031.43,247.497 3048.27,255.998 3065.12,265.798 3081.96,274.723 3098.8,281.261 3115.64,280.54 3132.49,273.855 3149.33,259.827 3166.17,245.498 3183.01,238.399 3199.86,235.411 3216.7,235.519 3233.54,238.68 3250.39,243.301 3267.23,247.832 3284.07,250.354 3300.91,251.576 3317.76,251.144 3334.6,251.228 3351.44,251.271 3368.28,250.702 3385.13,247.658 3401.97,243.913 3418.81,242.606 3435.66,248.315 3452.5,256.838 3469.34,266.66 3486.18,275.61 3503.03,282.169 3519.87,281.471 3536.71,274.809 3553.55,260.756 3570.4,246.385 3587.24,239.212 3604.08,236.161 3620.93,236.199 3637.77,239.314 3654.61,243.899 3671.45,248.402 3688.3,250.9 3705.14,252.115 3721.98,251.662 3738.82,251.759 3755.67,251.808 3772.51,251.254 3789.35,248.222 3806.2,244.503 3823.04,243.203 3839.88,248.925 3856.72,257.461 3873.57,267.302 3890.41,276.268 3907.25,282.842 3924.09,282.161 3940.94,275.491 3957.78,261.432 3974.62,247.029 3991.47,239.808 4008.31,236.696 4025.15,236.696 4041.99,239.753 4058.84,244.317 4075.68,248.805 4092.52,251.294 4109.36,252.498 4126.21,252.048 4143.05,252.15 4159.89,252.212 4176.74,251.659 4193.58,248.632 4210.42,244.924 4227.26,243.635 4244.11,249.363 4260.95,257.908 4277.79,267.752 4294.63,276.733 4311.48,283.319 4328.32,282.642 4345.16,275.979 4362,261.911 4378.85,247.48 4395.69,240.229 4412.53,237.081 4429.38,237.047 4446.22,240.09 4463.06,244.631 4479.9,249.105 4496.75,251.582 4513.59,252.784 4530.43,252.338 4547.27,252.443 4564.12,252.511 4580.96,251.962 4597.8,248.944 4614.65,245.235 4631.49,243.953 "/>
<path clip-path="url(#clip142)" d="M589.237 193.036 L606.08 234.875 L622.922 268.856 L639.765 296.184 L656.608 315.59 L673.451 329.693 L690.293 330.612 L707.136 318.869 L723.979 293.237 L740.821 265.527 L757.664 255.802 L774.507 252.825 L791.35 256.694 L808.192 263.114 L825.035 270.281 L841.878 276.571 L858.72 277.93 L875.563 279.293 L892.406 279.297 L909.249 283.134 L926.091 288.228 L942.934 293.705 L959.777 296.062 L976.619 298.031 L993.462 300.487 L1010.3 313.743 L1027.15 326.822 L1043.99 341.76 L1060.83 355.426 L1077.68 364.782 L1094.52 357.726 L1111.36 342.312 L1128.2 313.684 L1145.05 285.856 L1161.89 274.432 L1178.73 271.014 L1195.57 273.594 L1212.42 278.714 L1229.26 286.761 L1246.1 292.243 L1262.95 292.657 L1279.79 293.536 L1296.63 293.322 L1313.47 295.661 L1330.32 301.484 L1347.16 306.899 L1364 309.694 L1380.84 308.497 L1397.69 310.796 L1414.53 323.832 L1431.37 339.249 L1448.22 355.556 L1465.06 370.217 L1481.9 379.162 L1498.74 374.004 L1515.59 359.735 L1532.43 329.513 L1549.27 299.772 L1566.11 286.994 L1582.96 283.181 L1599.8 283.559 L1616.64 289.703 L1633.49 297.917 L1650.33 303.494 L1667.17 302.754 L1684.01 301.199 L1700.86 300.701 L1717.7 305.52 L1734.54 308.751 L1751.38 316.234 L1768.23 318.307 L1785.07 318.536 L1801.91 321.836 L1818.76 335.057 L1835.6 350.61 L1852.44 366.754 L1869.28 379.756 L1886.13 388.639 L1902.97 382.091 L1919.81 367.766 L1936.65 337.155 L1953.5 308.368 L1970.34 294.27 L1987.18 291.017 L2004.02 292.696 L2020.87 298.027 L2037.71 304.864 L2054.55 309.123 L2071.4 309.557 L2088.24 308.779 L2105.08 306.839 L2121.92 310.103 L2138.77 315.07 L2155.61 322.488 L2172.45 325.004 L2189.29 324.104 L2206.14 326.791 L2222.98 340.802 L2239.82 355.752 L2256.67 372.19 L2273.51 385.534 L2290.35 392.855 L2307.19 387.965 L2324.04 373.342 L2340.88 342.229 L2357.72 313.666 L2374.56 301.439 L2391.41 295.686 L2408.25 297.673 L2425.09 303.107 L2441.94 307.889 L2458.78 312.237 L2475.62 313.907 L2492.46 312.485 L2509.31 309.896 L2526.15 313.727 L2542.99 319.495 L2559.83 325.561 L2576.68 328.178 L2593.52 328.496 L2610.36 331.15 L2627.21 344.159 L2644.05 359.959 L2660.89 376.086 L2677.73 388.869 L2694.58 396.585 L2711.42 393.653 L2728.26 377.44 L2745.1 347.573 L2761.95 319.523 L2778.79 305.252 L2795.63 299.367 L2812.48 300.88 L2829.32 305.087 L2846.16 311.281 L2863 316.472 L2879.85 316.336 L2896.69 315.632 L2913.53 314.67 L2930.37 317.304 L2947.22 322.164 L2964.06 327.435 L2980.9 330.935 L2997.75 331.914 L3014.59 334.393 L3031.43 347.48 L3048.27 362.187 L3065.12 378.004 L3081.96 391.911 L3098.8 399.54 L3115.64 395.099 L3132.49 380.241 L3149.33 351.705 L3166.17 322.646 L3183.01 308.612 L3199.86 302.49 L3216.7 301.754 L3233.54 305.695 L3250.39 311.874 L3267.23 317.894 L3284.07 317.383 L3300.91 317.948 L3317.76 317.229 L3334.6 319.563 L3351.44 324.441 L3368.28 328.8 L3385.13 332.222 L3401.97 333.54 L3418.81 336.197 L3435.66 349.271 L3452.5 363.992 L3469.34 379.937 L3486.18 393.231 L3503.03 401.502 L3519.87 398.159 L3536.71 382.543 L3553.55 353.312 L3570.4 324.532 L3587.24 309.583 L3604.08 303.263 L3620.93 302.898 L3637.77 306.251 L3654.61 312.508 L3671.45 317.934 L3688.3 318.851 L3705.14 319.021 L3721.98 318.076 L3738.82 321.104 L3755.67 325.487 L3772.51 329.57 L3789.35 333.532 L3806.2 335.18 L3823.04 338.154 L3839.88 351.136 L3856.72 365.721 L3873.57 382.296 L3890.41 394.916 L3907.25 403.442 L3924.09 400.898 L3940.94 384.683 L3957.78 356.005 L3974.62 325.673 L3991.47 311.133 L4008.31 304.809 L4025.15 303.951 L4041.99 308.012 L4058.84 313.179 L4075.68 318.574 L4092.52 319.456 L4109.36 319.258 L4126.21 318.082 L4143.05 320.513 L4159.89 325.957 L4176.74 330.27 L4193.58 334.76 L4210.42 335.8 L4227.26 338.883 L4244.11 352.147 L4260.95 366.664 L4277.79 383.67 L4294.63 395.674 L4311.48 404.93 L4328.32 403.149 L4345.16 385.681 L4362 356.642 L4378.85 327.015 L4395.69 311.525 L4412.53 305.79 L4429.38 305.023 L4446.22 309.458 L4463.06 313.97 L4479.9 319.527 L4496.75 320.137 L4513.59 319.357 L4530.43 318.662 L4547.27 321.61 L4564.12 326.791 L4580.96 331.404 L4597.8 335.136 L4614.65 336.454 L4631.49 339.903 L4631.49 122.11 L4614.65 130.383 L4597.8 147.494 L4580.96 163.003 L4564.12 171.211 L4547.27 174.97 L4530.43 176.838 L4513.59 176.486 L4496.75 169.759 L4479.9 159.67 L4463.06 146.193 L4446.22 133.828 L4429.38 127.434 L4412.53 129.461 L4395.69 138.668 L4378.85 152.9 L4362 177.574 L4345.16 203.241 L4328.32 215.571 L4311.48 213.556 L4294.63 196.526 L4277.79 173.488 L4260.95 149.567 L4244.11 130.533 L4227.26 121.516 L4210.42 129.774 L4193.58 147.256 L4176.74 162.443 L4159.89 170.695 L4143.05 174.509 L4126.21 176.514 L4109.36 176.128 L4092.52 169.292 L4075.68 159.15 L4058.84 145.646 L4041.99 133.502 L4025.15 126.875 L4008.31 128.519 L3991.47 137.891 L3974.62 151.831 L3957.78 176.767 L3940.94 202.61 L3924.09 214.923 L3907.25 212.749 L3890.41 195.73 L3873.57 172.698 L3856.72 148.949 L3839.88 129.758 L3823.04 120.62 L3806.2 129.201 L3789.35 146.775 L3772.51 161.819 L3755.67 170.15 L3738.82 173.997 L3721.98 175.939 L3705.14 175.7 L3688.3 169.116 L3671.45 158.674 L3654.61 145.319 L3637.77 133.25 L3620.93 126.333 L3604.08 127.877 L3587.24 136.925 L3570.4 150.661 L3553.55 175.701 L3536.71 201.546 L3519.87 213.857 L3503.03 211.588 L3486.18 194.378 L3469.34 171.527 L3452.5 147.867 L3435.66 128.739 L3418.81 119.661 L3401.97 128.151 L3385.13 145.816 L3368.28 161.126 L3351.44 169.336 L3334.6 173.119 L3317.76 175.074 L3300.91 174.623 L3284.07 168.113 L3267.23 158.159 L3250.39 144.682 L3233.54 132.644 L3216.7 125.569 L3199.86 127.186 L3183.01 136.064 L3166.17 149.637 L3149.33 174.202 L3132.49 199.976 L3115.64 212.295 L3098.8 210.381 L3081.96 192.989 L3065.12 170.433 L3048.27 146.611 L3031.43 127.56 L3014.59 118.125 L2997.75 126.865 L2980.9 144.447 L2964.06 159.768 L2947.22 168.209 L2930.37 171.944 L2913.53 174.162 L2896.69 173.491 L2879.85 166.906 L2863 157.139 L2846.16 143.599 L2829.32 131.626 L2812.48 124.131 L2795.63 125.302 L2778.79 134.006 L2761.95 147.182 L2745.1 171.734 L2728.26 197.779 L2711.42 210.371 L2694.58 208.385 L2677.73 190.894 L2660.89 168.667 L2644.05 144.697 L2627.21 125.311 L2610.36 116.261 L2593.52 125.35 L2576.68 142.696 L2559.83 158.131 L2542.99 166.513 L2526.15 170.367 L2509.31 172.76 L2492.46 172.047 L2475.62 165.797 L2458.78 156.045 L2441.94 142.585 L2425.09 129.925 L2408.25 122.579 L2391.41 123.255 L2374.56 131.928 L2357.72 144.456 L2340.88 169.08 L2324.04 194.947 L2307.19 207.225 L2290.35 205.24 L2273.51 188.464 L2256.67 165.976 L2239.82 142.111 L2222.98 122.977 L2206.14 113.978 L2189.29 123.321 L2172.45 140.364 L2155.61 156.131 L2138.77 164.157 L2121.92 168.05 L2105.08 170.47 L2088.24 169.886 L2071.4 164.023 L2054.55 153.942 L2037.71 140.461 L2020.87 127.472 L2004.02 119.454 L1987.18 120.603 L1970.34 128.531 L1953.5 140.927 L1936.65 165.103 L1919.81 190.562 L1902.97 203.279 L1886.13 201.055 L1869.28 184.606 L1852.44 162.311 L1835.6 138.663 L1818.76 119.914 L1801.91 110.897 L1785.07 120.072 L1768.23 136.923 L1751.38 152.775 L1734.54 160.862 L1717.7 164.844 L1700.86 167.235 L1684.01 166.179 L1667.17 161.028 L1650.33 151.065 L1633.49 137.126 L1616.64 123.356 L1599.8 115.521 L1582.96 115.983 L1566.11 123.344 L1549.27 134.614 L1532.43 158.485 L1515.59 184.627 L1498.74 196.859 L1481.9 195.253 L1465.06 178.71 L1448.22 156.679 L1431.37 133.382 L1414.53 114.568 L1397.69 105.688 L1380.84 115.076 L1364 131.885 L1347.16 148.222 L1330.32 155.681 L1313.47 159.724 L1296.63 162.826 L1279.79 162.216 L1262.95 156.106 L1246.1 146.784 L1229.26 132.069 L1212.42 117.978 L1195.57 109.835 L1178.73 109.679 L1161.89 116.079 L1145.05 126.452 L1128.2 149.87 L1111.36 176.002 L1094.52 188.607 L1077.68 187.323 L1060.83 171.226 L1043.99 149.59 L1027.15 126.878 L1010.3 108.151 L993.462 99.7759 L976.619 110.044 L959.777 127.772 L942.934 144.23 L926.091 152.449 L909.249 156.816 L892.406 160.207 L875.563 160.089 L858.72 155.239 L841.878 146.512 L825.035 134.568 L808.192 123.979 L791.35 120.189 L774.507 126.136 L757.664 139.969 L740.821 159 L723.979 189.566 L707.136 218.11 L690.293 232.925 L673.451 235.072 L656.608 222.011 L639.765 203.688 L622.922 183.088 L606.08 168.38 L589.237 163.464  Z" fill="#414141" fill-rule="evenodd" fill-opacity="0.5"/>
<polyline clip-path="url(#clip142)" style="stroke:#414141; stroke-linecap:round; stroke-linejoin:round; stroke-width:0; stroke-opacity:1; fill:none" points="589.237,222.982 606.08,234.011 622.922,245.302 639.765,256.525 656.608,266.043 673.451,272.691 690.293,271.812 707.136,264.938 723.979,250.579 740.821,235.726 757.664,227.978 774.507,224.299 791.35,223.879 808.192,226.68 825.035,231.086 841.878,235.517 858.72,238.037 875.563,239.25 892.406,238.736 909.249,238.665 926.091,238.559 942.934,237.836 959.777,234.564 976.619,230.549 993.462,228.923 1010.3,234.256 1027.15,242.336 1043.99,251.668 1060.83,260.11 1077.68,266.158 1094.52,265 1111.36,258.019 1128.2,244.159 1145.05,230.588 1161.89,224.641 1178.73,222.818 1195.57,223.967 1212.42,227.963 1229.26,233.242 1246.1,238.285 1262.95,241.206 1279.79,242.709 1296.63,242.401 1313.47,242.507 1330.32,242.551 1347.16,241.95 1364,238.819 1380.84,234.967 1397.69,233.515 1414.53,239.044 1431.37,247.347 1448.22,256.92 1465.06,265.607 1481.9,271.896 1498.74,270.952 1515.59,264.141 1532.43,250.224 1549.27,236.357 1566.11,229.958 1582.96,227.708 1599.8,228.436 1616.64,232.114 1633.49,237.145 1650.33,241.989 1667.17,244.746 1684.01,246.129 1700.86,245.757 1717.7,245.838 1734.54,245.861 1751.38,245.253 1768.23,242.139 1785.07,238.314 1801.91,236.907 1818.76,242.497 1835.6,250.88 1852.44,260.547 1869.28,269.33 1886.13,275.724 1902.97,274.87 1919.81,268.1 1936.65,254.137 1953.5,240.085 1970.34,233.41 1987.18,230.829 2004.02,231.318 2020.87,234.794 2037.71,239.651 2054.55,244.36 2071.4,247.018 2088.24,248.323 2105.08,247.917 2121.92,247.99 2138.77,248.009 2155.61,247.408 2172.45,244.314 2189.29,240.524 2206.14,239.149 2222.98,244.784 2239.82,253.22 2256.67,262.947 2273.51,271.798 2290.35,278.251 2307.19,277.457 2324.04,270.733 2340.88,256.736 2357.72,242.556 2374.56,235.677 2391.41,232.919 2408.25,233.244 2425.09,236.568 2441.94,241.314 2458.78,245.941 2475.62,248.53 2492.46,249.802 2509.31,249.372 2526.15,249.444 2542.99,249.472 2559.83,248.882 2576.68,245.807 2593.52,242.031 2610.36,240.687 2627.21,246.351 2644.05,254.825 2660.89,264.592 2677.73,273.487 2694.58,279.991 2711.42,279.242 2728.26,272.539 2745.1,258.518 2761.95,244.257 2778.79,237.251 2795.63,234.36 2812.48,234.567 2829.32,237.787 2846.16,242.463 2863,247.04 2879.85,249.588 2896.69,250.839 2913.53,250.406 2930.37,250.489 2947.22,250.519 2964.06,249.941 2980.9,246.884 2997.75,243.133 3014.59,241.808 3031.43,247.497 3048.27,255.998 3065.12,265.798 3081.96,274.723 3098.8,281.261 3115.64,280.54 3132.49,273.855 3149.33,259.827 3166.17,245.498 3183.01,238.399 3199.86,235.411 3216.7,235.519 3233.54,238.68 3250.39,243.301 3267.23,247.832 3284.07,250.354 3300.91,251.576 3317.76,251.144 3334.6,251.228 3351.44,251.271 3368.28,250.702 3385.13,247.658 3401.97,243.913 3418.81,242.606 3435.66,248.315 3452.5,256.838 3469.34,266.66 3486.18,275.61 3503.03,282.169 3519.87,281.471 3536.71,274.809 3553.55,260.756 3570.4,246.385 3587.24,239.212 3604.08,236.161 3620.93,236.199 3637.77,239.314 3654.61,243.899 3671.45,248.402 3688.3,250.9 3705.14,252.115 3721.98,251.662 3738.82,251.759 3755.67,251.808 3772.51,251.254 3789.35,248.222 3806.2,244.503 3823.04,243.203 3839.88,248.925 3856.72,257.461 3873.57,267.302 3890.41,276.268 3907.25,282.842 3924.09,282.161 3940.94,275.491 3957.78,261.432 3974.62,247.029 3991.47,239.808 4008.31,236.696 4025.15,236.696 4041.99,239.753 4058.84,244.317 4075.68,248.805 4092.52,251.294 4109.36,252.498 4126.21,252.048 4143.05,252.15 4159.89,252.212 4176.74,251.659 4193.58,248.632 4210.42,244.924 4227.26,243.635 4244.11,249.363 4260.95,257.908 4277.79,267.752 4294.63,276.733 4311.48,283.319 4328.32,282.642 4345.16,275.979 4362,261.911 4378.85,247.48 4395.69,240.229 4412.53,237.081 4429.38,237.047 4446.22,240.09 4463.06,244.631 4479.9,249.105 4496.75,251.582 4513.59,252.784 4530.43,252.338 4547.27,252.443 4564.12,252.511 4580.96,251.962 4597.8,248.944 4614.65,245.235 4631.49,243.953 "/>
<path clip-path="url(#clip140)" d="M3862.18 822.715 L4609.93 822.715 L4609.93 304.315 L3862.18 304.315  Z" fill="#ffffff" fill-rule="evenodd" fill-opacity="1"/>
<polyline clip-path="url(#clip140)" style="stroke:#000000; stroke-linecap:round; stroke-linejoin:round; stroke-width:4; stroke-opacity:1; fill:none" points="3862.18,822.715 4609.93,822.715 4609.93,304.315 3862.18,304.315 3862.18,822.715 "/>
<polyline clip-path="url(#clip140)" style="stroke:#aeaeae; stroke-linecap:round; stroke-linejoin:round; stroke-width:2; stroke-opacity:1; fill:none" points="3909.79,433.915 4195.44,433.915 "/>
<path clip-path="url(#clip140)" d="M4244.73 467.277 L4263.83 467.277 L4263.83 401.363 L4243.05 405.53 L4243.05 394.882 L4263.71 390.715 L4275.4 390.715 L4275.4 467.277 L4294.5 467.277 L4294.5 477.115 L4244.73 477.115 L4244.73 467.277 Z" fill="#000000" fill-rule="nonzero" fill-opacity="1" /><path clip-path="url(#clip140)" d="M4343.11 398.412 Q4334.08 398.412 4329.51 407.324 Q4325 416.178 4325 434.002 Q4325 451.768 4329.51 460.68 Q4334.08 469.534 4343.11 469.534 Q4352.19 469.534 4356.71 460.68 Q4361.28 451.768 4361.28 434.002 Q4361.28 416.178 4356.71 407.324 Q4352.19 398.412 4343.11 398.412 M4343.11 389.153 Q4357.63 389.153 4365.27 400.669 Q4372.97 412.127 4372.97 434.002 Q4372.97 455.819 4365.27 467.335 Q4357.63 478.793 4343.11 478.793 Q4328.58 478.793 4320.89 467.335 Q4313.25 455.819 4313.25 434.002 Q4313.25 412.127 4320.89 400.669 Q4328.58 389.153 4343.11 389.153 Z" fill="#000000" fill-rule="nonzero" fill-opacity="1" /><path clip-path="url(#clip140)" d="M4418.51 398.412 Q4409.49 398.412 4404.91 407.324 Q4400.4 416.178 4400.4 434.002 Q4400.4 451.768 4404.91 460.68 Q4409.49 469.534 4418.51 469.534 Q4427.6 469.534 4432.11 460.68 Q4436.69 451.768 4436.69 434.002 Q4436.69 416.178 4432.11 407.324 Q4427.6 398.412 4418.51 398.412 M4418.51 389.153 Q4433.04 389.153 4440.68 400.669 Q4448.37 412.127 4448.37 434.002 Q4448.37 455.819 4440.68 467.335 Q4433.04 478.793 4418.51 478.793 Q4403.99 478.793 4396.29 467.335 Q4388.65 455.819 4388.65 434.002 Q4388.65 412.127 4396.29 400.669 Q4403.99 389.153 4418.51 389.153 Z" fill="#000000" fill-rule="nonzero" fill-opacity="1" /><path clip-path="url(#clip140)" d="M4542.41 439.094 Q4537.38 439.094 4534.49 443.377 Q4531.65 447.659 4531.65 455.298 Q4531.65 462.821 4534.49 467.161 Q4537.38 471.444 4542.41 471.444 Q4547.33 471.444 4550.17 467.161 Q4553.06 462.821 4553.06 455.298 Q4553.06 447.717 4550.17 443.435 Q4547.33 439.094 4542.41 439.094 M4542.41 431.745 Q4551.56 431.745 4556.94 438.111 Q4562.32 444.476 4562.32 455.298 Q4562.32 466.12 4556.88 472.485 Q4551.5 478.793 4542.41 478.793 Q4533.15 478.793 4527.77 472.485 Q4522.39 466.12 4522.39 455.298 Q4522.39 444.418 4527.77 438.111 Q4533.21 431.745 4542.41 431.745 M4482.69 396.502 Q4477.71 396.502 4474.82 400.842 Q4471.99 405.125 4471.99 412.648 Q4471.99 420.287 4474.82 424.569 Q4477.66 428.851 4482.69 428.851 Q4487.73 428.851 4490.56 424.569 Q4493.46 420.287 4493.46 412.648 Q4493.46 405.183 4490.56 400.842 Q4487.67 396.502 4482.69 396.502 M4534.95 389.153 L4544.21 389.153 L4490.16 478.793 L4480.9 478.793 L4534.95 389.153 M4482.69 389.153 Q4491.84 389.153 4497.28 395.518 Q4502.71 401.826 4502.71 412.648 Q4502.71 423.585 4497.28 429.893 Q4491.89 436.201 4482.69 436.201 Q4473.49 436.201 4468.11 429.893 Q4462.78 423.527 4462.78 412.648 Q4462.78 401.884 4468.17 395.518 Q4473.55 389.153 4482.69 389.153 Z" fill="#000000" fill-rule="nonzero" fill-opacity="1" /><polyline clip-path="url(#clip140)" style="stroke:#757575; stroke-linecap:round; stroke-linejoin:round; stroke-width:2; stroke-opacity:1; fill:none" points="3909.79,563.515 4195.44,563.515 "/>
<path clip-path="url(#clip140)" d="M4248.61 604.921 L4248.61 594.273 Q4253.01 596.356 4257.52 597.456 Q4262.03 598.555 4266.37 598.555 Q4277.95 598.555 4284.02 590.801 Q4290.16 582.988 4291.03 567.132 Q4287.67 572.109 4282.52 574.771 Q4277.37 577.433 4271.12 577.433 Q4258.16 577.433 4250.57 569.62 Q4243.05 561.75 4243.05 548.151 Q4243.05 534.84 4250.92 526.797 Q4258.79 518.753 4271.87 518.753 Q4286.86 518.753 4294.73 530.269 Q4302.66 541.727 4302.66 563.602 Q4302.66 584.03 4292.94 596.241 Q4283.27 608.393 4266.89 608.393 Q4262.5 608.393 4257.98 607.525 Q4253.47 606.657 4248.61 604.921 M4271.87 568.289 Q4279.74 568.289 4284.31 562.907 Q4288.94 557.526 4288.94 548.151 Q4288.94 538.833 4284.31 533.452 Q4279.74 528.012 4271.87 528.012 Q4264 528.012 4259.37 533.452 Q4254.8 538.833 4254.8 548.151 Q4254.8 557.526 4259.37 562.907 Q4264 568.289 4271.87 568.289 Z" fill="#000000" fill-rule="nonzero" fill-opacity="1" /><path clip-path="url(#clip140)" d="M4348.66 528.012 Q4339.64 528.012 4335.07 536.924 Q4330.55 545.778 4330.55 563.602 Q4330.55 581.368 4335.07 590.28 Q4339.64 599.134 4348.66 599.134 Q4357.75 599.134 4362.26 590.28 Q4366.84 581.368 4366.84 563.602 Q4366.84 545.778 4362.26 536.924 Q4357.75 528.012 4348.66 528.012 M4348.66 518.753 Q4363.19 518.753 4370.83 530.269 Q4378.53 541.727 4378.53 563.602 Q4378.53 585.419 4370.83 596.935 Q4363.19 608.393 4348.66 608.393 Q4334.14 608.393 4326.44 596.935 Q4318.8 585.419 4318.8 563.602 Q4318.8 541.727 4326.44 530.269 Q4334.14 518.753 4348.66 518.753 Z" fill="#000000" fill-rule="nonzero" fill-opacity="1" /><path clip-path="url(#clip140)" d="M4472.56 568.694 Q4467.53 568.694 4464.64 572.977 Q4461.8 577.259 4461.8 584.898 Q4461.8 592.421 4464.64 596.761 Q4467.53 601.044 4472.56 601.044 Q4477.48 601.044 4480.32 596.761 Q4483.21 592.421 4483.21 584.898 Q4483.21 577.317 4480.32 573.035 Q4477.48 568.694 4472.56 568.694 M4472.56 561.345 Q4481.71 561.345 4487.09 567.711 Q4492.47 574.076 4492.47 584.898 Q4492.47 595.72 4487.03 602.085 Q4481.65 608.393 4472.56 608.393 Q4463.31 608.393 4457.92 602.085 Q4452.54 595.72 4452.54 584.898 Q4452.54 574.018 4457.92 567.711 Q4463.36 561.345 4472.56 561.345 M4412.84 526.102 Q4407.87 526.102 4404.97 530.442 Q4402.14 534.725 4402.14 542.248 Q4402.14 549.887 4404.97 554.169 Q4407.81 558.451 4412.84 558.451 Q4417.88 558.451 4420.71 554.169 Q4423.61 549.887 4423.61 542.248 Q4423.61 534.783 4420.71 530.442 Q4417.82 526.102 4412.84 526.102 M4465.1 518.753 L4474.36 518.753 L4420.31 608.393 L4411.05 608.393 L4465.1 518.753 M4412.84 518.753 Q4421.99 518.753 4427.43 525.118 Q4432.87 531.426 4432.87 542.248 Q4432.87 553.185 4427.43 559.493 Q4422.04 565.801 4412.84 565.801 Q4403.64 565.801 4398.26 559.493 Q4392.94 553.127 4392.94 542.248 Q4392.94 531.484 4398.32 525.118 Q4403.7 518.753 4412.84 518.753 Z" fill="#000000" fill-rule="nonzero" fill-opacity="1" /><polyline clip-path="url(#clip140)" style="stroke:#414141; stroke-linecap:round; stroke-linejoin:round; stroke-width:2; stroke-opacity:1; fill:none" points="3909.79,693.115 4195.44,693.115 "/>
<path clip-path="url(#clip140)" d="M4272.68 695.285 Q4264.35 695.285 4259.54 699.741 Q4254.8 704.197 4254.8 712.01 Q4254.8 719.822 4259.54 724.278 Q4264.35 728.734 4272.68 728.734 Q4281.01 728.734 4285.82 724.278 Q4290.62 719.764 4290.62 712.01 Q4290.62 704.197 4285.82 699.741 Q4281.07 695.285 4272.68 695.285 M4260.99 690.308 Q4253.47 688.457 4249.24 683.306 Q4245.08 678.156 4245.08 670.748 Q4245.08 660.39 4252.43 654.371 Q4259.83 648.353 4272.68 648.353 Q4285.59 648.353 4292.94 654.371 Q4300.29 660.39 4300.29 670.748 Q4300.29 678.156 4296.06 683.306 Q4291.89 688.457 4284.43 690.308 Q4292.88 692.276 4297.57 698.005 Q4302.31 703.734 4302.31 712.01 Q4302.31 724.567 4294.61 731.28 Q4286.98 737.993 4272.68 737.993 Q4258.39 737.993 4250.69 731.28 Q4243.05 724.567 4243.05 712.01 Q4243.05 703.734 4247.8 698.005 Q4252.54 692.276 4260.99 690.308 M4256.71 671.848 Q4256.71 678.561 4260.88 682.322 Q4265.1 686.084 4272.68 686.084 Q4280.2 686.084 4284.43 682.322 Q4288.71 678.561 4288.71 671.848 Q4288.71 665.135 4284.43 661.373 Q4280.2 657.612 4272.68 657.612 Q4265.1 657.612 4260.88 661.373 Q4256.71 665.135 4256.71 671.848 Z" fill="#000000" fill-rule="nonzero" fill-opacity="1" /><path clip-path="url(#clip140)" d="M4348.09 657.612 Q4339.06 657.612 4334.49 666.524 Q4329.97 675.378 4329.97 693.202 Q4329.97 710.968 4334.49 719.88 Q4339.06 728.734 4348.09 728.734 Q4357.17 728.734 4361.69 719.88 Q4366.26 710.968 4366.26 693.202 Q4366.26 675.378 4361.69 666.524 Q4357.17 657.612 4348.09 657.612 M4348.09 648.353 Q4362.61 648.353 4370.25 659.869 Q4377.95 671.327 4377.95 693.202 Q4377.95 715.019 4370.25 726.535 Q4362.61 737.993 4348.09 737.993 Q4333.56 737.993 4325.86 726.535 Q4318.23 715.019 4318.23 693.202 Q4318.23 671.327 4325.86 659.869 Q4333.56 648.353 4348.09 648.353 Z" fill="#000000" fill-rule="nonzero" fill-opacity="1" /><path clip-path="url(#clip140)" d="M4471.99 698.294 Q4466.95 698.294 4464.06 702.577 Q4461.22 706.859 4461.22 714.498 Q4461.22 722.021 4464.06 726.361 Q4466.95 730.644 4471.99 730.644 Q4476.9 730.644 4479.74 726.361 Q4482.63 722.021 4482.63 714.498 Q4482.63 706.917 4479.74 702.635 Q4476.9 698.294 4471.99 698.294 M4471.99 690.945 Q4481.13 690.945 4486.51 697.311 Q4491.89 703.676 4491.89 714.498 Q4491.89 725.32 4486.45 731.685 Q4481.07 737.993 4471.99 737.993 Q4462.73 737.993 4457.34 731.685 Q4451.96 725.32 4451.96 714.498 Q4451.96 703.618 4457.34 697.311 Q4462.78 690.945 4471.99 690.945 M4412.26 655.702 Q4407.29 655.702 4404.39 660.042 Q4401.56 664.325 4401.56 671.848 Q4401.56 679.487 4404.39 683.769 Q4407.23 688.051 4412.26 688.051 Q4417.3 688.051 4420.13 683.769 Q4423.03 679.487 4423.03 671.848 Q4423.03 664.383 4420.13 660.042 Q4417.24 655.702 4412.26 655.702 M4464.52 648.353 L4473.78 648.353 L4419.73 737.993 L4410.47 737.993 L4464.52 648.353 M4412.26 648.353 Q4421.41 648.353 4426.85 654.718 Q4432.29 661.026 4432.29 671.848 Q4432.29 682.785 4426.85 689.093 Q4421.47 695.401 4412.26 695.401 Q4403.06 695.401 4397.68 689.093 Q4392.36 682.727 4392.36 671.848 Q4392.36 661.084 4397.74 654.718 Q4403.12 648.353 4412.26 648.353 Z" fill="#000000" fill-rule="nonzero" fill-opacity="1" /></svg>
