<?xml version="1.0" encoding="utf-8"?>
<svg xmlns="http://www.w3.org/2000/svg" xmlns:xlink="http://www.w3.org/1999/xlink" width="1200" height="300" viewBox="0 0 4800 1200">
<defs>
  <clipPath id="clip840">
    <rect x="0" y="0" width="4800" height="1200"/>
  </clipPath>
</defs>
<path clip-path="url(#clip840)" d="M0 1200 L4800 1200 L4800 0 L0 0  Z" fill="#ffffff" fill-rule="evenodd" fill-opacity="1"/>
<defs>
  <clipPath id="clip841">
    <rect x="960" y="0" width="3361" height="1200"/>
  </clipPath>
</defs>
<path clip-path="url(#clip840)" d="M467.969 849.455 L4752.76 849.455 L4752.76 47.2441 L467.969 47.2441  Z" fill="#ffffff" fill-rule="evenodd" fill-opacity="1"/>
<defs>
  <clipPath id="clip842">
    <rect x="467" y="47" width="4286" height="803"/>
  </clipPath>
</defs>
<polyline clip-path="url(#clip842)" style="stroke:#000000; stroke-linecap:round; stroke-linejoin:round; stroke-width:2; stroke-opacity:0.1; fill:none" points="589.237,849.455 589.237,47.2441 "/>
<polyline clip-path="url(#clip842)" style="stroke:#000000; stroke-linecap:round; stroke-linejoin:round; stroke-width:2; stroke-opacity:0.1; fill:none" points="1397.69,849.455 1397.69,47.2441 "/>
<polyline clip-path="url(#clip842)" style="stroke:#000000; stroke-linecap:round; stroke-linejoin:round; stroke-width:2; stroke-opacity:0.1; fill:none" points="2206.14,849.455 2206.14,47.2441 "/>
<polyline clip-path="url(#clip842)" style="stroke:#000000; stroke-linecap:round; stroke-linejoin:round; stroke-width:2; stroke-opacity:0.1; fill:none" points="3014.59,849.455 3014.59,47.2441 "/>
<polyline clip-path="url(#clip842)" style="stroke:#000000; stroke-linecap:round; stroke-linejoin:round; stroke-width:2; stroke-opacity:0.1; fill:none" points="3823.04,849.455 3823.04,47.2441 "/>
<polyline clip-path="url(#clip842)" style="stroke:#000000; stroke-linecap:round; stroke-linejoin:round; stroke-width:2; stroke-opacity:0.1; fill:none" points="4631.49,849.455 4631.49,47.2441 "/>
<polyline clip-path="url(#clip842)" style="stroke:#000000; stroke-linecap:round; stroke-linejoin:round; stroke-width:2; stroke-opacity:0.1; fill:none" points="467.969,819.646 4752.76,819.646 "/>
<polyline clip-path="url(#clip842)" style="stroke:#000000; stroke-linecap:round; stroke-linejoin:round; stroke-width:2; stroke-opacity:0.1; fill:none" points="467.969,686.899 4752.76,686.899 "/>
<polyline clip-path="url(#clip842)" style="stroke:#000000; stroke-linecap:round; stroke-linejoin:round; stroke-width:2; stroke-opacity:0.1; fill:none" points="467.969,554.152 4752.76,554.152 "/>
<polyline clip-path="url(#clip842)" style="stroke:#000000; stroke-linecap:round; stroke-linejoin:round; stroke-width:2; stroke-opacity:0.1; fill:none" points="467.969,421.406 4752.76,421.406 "/>
<polyline clip-path="url(#clip842)" style="stroke:#000000; stroke-linecap:round; stroke-linejoin:round; stroke-width:2; stroke-opacity:0.1; fill:none" points="467.969,288.659 4752.76,288.659 "/>
<polyline clip-path="url(#clip842)" style="stroke:#000000; stroke-linecap:round; stroke-linejoin:round; stroke-width:2; stroke-opacity:0.1; fill:none" points="467.969,155.912 4752.76,155.912 "/>
<polyline clip-path="url(#clip840)" style="stroke:#000000; stroke-linecap:round; stroke-linejoin:round; stroke-width:4; stroke-opacity:1; fill:none" points="467.969,849.455 4752.76,849.455 "/>
<polyline clip-path="url(#clip840)" style="stroke:#000000; stroke-linecap:round; stroke-linejoin:round; stroke-width:4; stroke-opacity:1; fill:none" points="589.237,849.455 589.237,830.558 "/>
<polyline clip-path="url(#clip840)" style="stroke:#000000; stroke-linecap:round; stroke-linejoin:round; stroke-width:4; stroke-opacity:1; fill:none" points="1397.69,849.455 1397.69,830.558 "/>
<polyline clip-path="url(#clip840)" style="stroke:#000000; stroke-linecap:round; stroke-linejoin:round; stroke-width:4; stroke-opacity:1; fill:none" points="2206.14,849.455 2206.14,830.558 "/>
<polyline clip-path="url(#clip840)" style="stroke:#000000; stroke-linecap:round; stroke-linejoin:round; stroke-width:4; stroke-opacity:1; fill:none" points="3014.59,849.455 3014.59,830.558 "/>
<polyline clip-path="url(#clip840)" style="stroke:#000000; stroke-linecap:round; stroke-linejoin:round; stroke-width:4; stroke-opacity:1; fill:none" points="3823.04,849.455 3823.04,830.558 "/>
<polyline clip-path="url(#clip840)" style="stroke:#000000; stroke-linecap:round; stroke-linejoin:round; stroke-width:4; stroke-opacity:1; fill:none" points="4631.49,849.455 4631.49,830.558 "/>
<path clip-path="url(#clip840)" d="M589.237 911.293 Q582.015 911.293 578.357 918.422 Q574.746 925.506 574.746 939.765 Q574.746 953.978 578.357 961.107 Q582.015 968.191 589.237 968.191 Q596.506 968.191 600.117 961.107 Q603.774 953.978 603.774 939.765 Q603.774 925.506 600.117 918.422 Q596.506 911.293 589.237 911.293 M589.237 903.885 Q600.857 903.885 606.968 913.098 Q613.126 922.265 613.126 939.765 Q613.126 957.218 606.968 966.431 Q600.857 975.598 589.237 975.598 Q577.617 975.598 571.459 966.431 Q565.348 957.218 565.348 939.765 Q565.348 922.265 571.459 913.098 Q577.617 903.885 589.237 903.885 Z" fill="#000000" fill-rule="nonzero" fill-opacity="1" /><path clip-path="url(#clip840)" d="M1386.99 966.385 L1419.63 966.385 L1419.63 974.255 L1375.74 974.255 L1375.74 966.385 Q1381.07 960.876 1390.23 951.617 Q1399.45 942.311 1401.81 939.626 Q1406.3 934.58 1408.06 931.108 Q1409.86 927.589 1409.86 924.209 Q1409.86 918.7 1405.97 915.228 Q1402.13 911.756 1395.93 911.756 Q1391.53 911.756 1386.62 913.284 Q1381.76 914.811 1376.21 917.913 L1376.21 908.469 Q1381.85 906.2 1386.76 905.043 Q1391.67 903.885 1395.74 903.885 Q1406.48 903.885 1412.87 909.256 Q1419.26 914.626 1419.26 923.608 Q1419.26 927.867 1417.64 931.709 Q1416.07 935.506 1411.85 940.691 Q1410.7 942.033 1404.49 948.469 Q1398.29 954.857 1386.99 966.385 Z" fill="#000000" fill-rule="nonzero" fill-opacity="1" /><path clip-path="url(#clip840)" d="M2212.16 913.284 L2188.55 950.181 L2212.16 950.181 L2212.16 913.284 M2209.7 905.135 L2221.46 905.135 L2221.46 950.181 L2231.32 950.181 L2231.32 957.959 L2221.46 957.959 L2221.46 974.255 L2212.16 974.255 L2212.16 957.959 L2180.95 957.959 L2180.95 948.931 L2209.7 905.135 Z" fill="#000000" fill-rule="nonzero" fill-opacity="1" /><path clip-path="url(#clip840)" d="M3015.4 935.969 Q3009.1 935.969 3005.4 940.274 Q3001.74 944.58 3001.74 952.08 Q3001.74 959.533 3005.4 963.885 Q3009.1 968.191 3015.4 968.191 Q3021.69 968.191 3025.35 963.885 Q3029.06 959.533 3029.06 952.08 Q3029.06 944.58 3025.35 940.274 Q3021.69 935.969 3015.4 935.969 M3033.96 906.663 L3033.96 915.182 Q3030.44 913.515 3026.83 912.635 Q3023.27 911.756 3019.75 911.756 Q3010.49 911.756 3005.58 918.006 Q3000.72 924.256 3000.03 936.895 Q3002.76 932.867 3006.88 930.737 Q3011 928.561 3015.95 928.561 Q3026.37 928.561 3032.39 934.904 Q3038.45 941.2 3038.45 952.08 Q3038.45 962.728 3032.16 969.163 Q3025.86 975.598 3015.4 975.598 Q3003.41 975.598 2997.06 966.431 Q2990.72 957.218 2990.72 939.765 Q2990.72 923.376 2998.5 913.654 Q3006.28 903.885 3019.38 903.885 Q3022.9 903.885 3026.46 904.58 Q3030.07 905.274 3033.96 906.663 Z" fill="#000000" fill-rule="nonzero" fill-opacity="1" /><path clip-path="url(#clip840)" d="M3823.04 941.432 Q3816.37 941.432 3812.53 944.996 Q3808.73 948.561 3808.73 954.811 Q3808.73 961.061 3812.53 964.626 Q3816.37 968.191 3823.04 968.191 Q3829.7 968.191 3833.55 964.626 Q3837.39 961.015 3837.39 954.811 Q3837.39 948.561 3833.55 944.996 Q3829.75 941.432 3823.04 941.432 M3813.69 937.45 Q3807.67 935.969 3804.29 931.848 Q3800.95 927.728 3800.95 921.802 Q3800.95 913.515 3806.83 908.7 Q3812.76 903.885 3823.04 903.885 Q3833.36 903.885 3839.24 908.7 Q3845.12 913.515 3845.12 921.802 Q3845.12 927.728 3841.74 931.848 Q3838.41 935.969 3832.44 937.45 Q3839.2 939.024 3842.95 943.607 Q3846.74 948.191 3846.74 954.811 Q3846.74 964.857 3840.58 970.228 Q3834.47 975.598 3823.04 975.598 Q3811.6 975.598 3805.45 970.228 Q3799.33 964.857 3799.33 954.811 Q3799.33 948.191 3803.13 943.607 Q3806.93 939.024 3813.69 937.45 M3810.26 922.682 Q3810.26 928.052 3813.59 931.061 Q3816.97 934.07 3823.04 934.07 Q3829.06 934.07 3832.44 931.061 Q3835.86 928.052 3835.86 922.682 Q3835.86 917.311 3832.44 914.302 Q3829.06 911.293 3823.04 911.293 Q3816.97 911.293 3813.59 914.302 Q3810.26 917.311 3810.26 922.682 Z" fill="#000000" fill-rule="nonzero" fill-opacity="1" /><path clip-path="url(#clip840)" d="M4580.86 966.385 L4596.14 966.385 L4596.14 913.654 L4579.52 916.987 L4579.52 908.469 L4596.05 905.135 L4605.4 905.135 L4605.4 966.385 L4620.68 966.385 L4620.68 974.255 L4580.86 974.255 L4580.86 966.385 Z" fill="#000000" fill-rule="nonzero" fill-opacity="1" /><path clip-path="url(#clip840)" d="M4659.57 911.293 Q4652.34 911.293 4648.69 918.422 Q4645.08 925.506 4645.08 939.765 Q4645.08 953.978 4648.69 961.107 Q4652.34 968.191 4659.57 968.191 Q4666.84 968.191 4670.45 961.107 Q4674.1 953.978 4674.1 939.765 Q4674.1 925.506 4670.45 918.422 Q4666.84 911.293 4659.57 911.293 M4659.57 903.885 Q4671.19 903.885 4677.3 913.098 Q4683.46 922.265 4683.46 939.765 Q4683.46 957.218 4677.3 966.431 Q4671.19 975.598 4659.57 975.598 Q4647.95 975.598 4641.79 966.431 Q4635.68 957.218 4635.68 939.765 Q4635.68 922.265 4641.79 913.098 Q4647.95 903.885 4659.57 903.885 Z" fill="#000000" fill-rule="nonzero" fill-opacity="1" /><path clip-path="url(#clip840)" d="M2327.6 1040.69 L2393.38 1040.69 L2393.38 1049.54 L2365.78 1049.54 L2365.78 1118.45 L2355.21 1118.45 L2355.21 1049.54 L2327.6 1049.54 L2327.6 1040.69 Z" fill="#000000" fill-rule="nonzero" fill-opacity="1" /><path clip-path="url(#clip840)" d="M2399.84 1060.11 L2409.43 1060.11 L2409.43 1118.45 L2399.84 1118.45 L2399.84 1060.11 M2399.84 1037.41 L2409.43 1037.41 L2409.43 1049.54 L2399.84 1049.54 L2399.84 1037.41 Z" fill="#000000" fill-rule="nonzero" fill-opacity="1" /><path clip-path="url(#clip840)" d="M2474.89 1071.31 Q2478.49 1064.85 2483.49 1061.78 Q2488.49 1058.71 2495.26 1058.71 Q2504.37 1058.71 2509.32 1065.11 Q2514.27 1071.47 2514.27 1083.24 L2514.27 1118.45 L2504.63 1118.45 L2504.63 1083.55 Q2504.63 1075.17 2501.67 1071.1 Q2498.7 1067.04 2492.6 1067.04 Q2485.16 1067.04 2480.83 1071.99 Q2476.51 1076.94 2476.51 1085.48 L2476.51 1118.45 L2466.87 1118.45 L2466.87 1083.55 Q2466.87 1075.11 2463.91 1071.1 Q2460.94 1067.04 2454.74 1067.04 Q2447.39 1067.04 2443.07 1072.04 Q2438.75 1076.99 2438.75 1085.48 L2438.75 1118.45 L2429.11 1118.45 L2429.11 1060.11 L2438.75 1060.11 L2438.75 1069.18 Q2442.03 1063.81 2446.61 1061.26 Q2451.2 1058.71 2457.5 1058.71 Q2463.85 1058.71 2468.28 1061.94 Q2472.76 1065.17 2474.89 1071.31 Z" fill="#000000" fill-rule="nonzero" fill-opacity="1" /><path clip-path="url(#clip840)" d="M2583.28 1086.89 L2583.28 1091.57 L2539.22 1091.57 Q2539.84 1101.47 2545.15 1106.68 Q2550.52 1111.83 2560.05 1111.83 Q2565.57 1111.83 2570.73 1110.48 Q2575.94 1109.12 2581.04 1106.42 L2581.04 1115.48 Q2575.88 1117.67 2570.47 1118.81 Q2565.05 1119.96 2559.48 1119.96 Q2545.52 1119.96 2537.34 1111.83 Q2529.22 1103.71 2529.22 1089.85 Q2529.22 1075.53 2536.93 1067.15 Q2544.69 1058.71 2557.81 1058.71 Q2569.58 1058.71 2576.4 1066.31 Q2583.28 1073.86 2583.28 1086.89 M2573.7 1084.07 Q2573.59 1076.21 2569.27 1071.52 Q2565 1066.83 2557.92 1066.83 Q2549.89 1066.83 2545.05 1071.36 Q2540.26 1075.9 2539.53 1084.12 L2573.7 1084.07 Z" fill="#000000" fill-rule="nonzero" fill-opacity="1" /><path clip-path="url(#clip840)" d="M2655.94 1037.51 Q2648.96 1049.49 2645.57 1061.21 Q2642.19 1072.93 2642.19 1084.96 Q2642.19 1096.99 2645.57 1108.81 Q2649.01 1120.58 2655.94 1132.51 L2647.6 1132.51 Q2639.79 1120.27 2635.88 1108.45 Q2632.03 1096.62 2632.03 1084.96 Q2632.03 1073.34 2635.88 1061.57 Q2639.74 1049.8 2647.6 1037.51 L2655.94 1037.51 Z" fill="#000000" fill-rule="nonzero" fill-opacity="1" /><path clip-path="url(#clip840)" d="M2712.91 1068.97 L2712.91 1037.41 L2722.5 1037.41 L2722.5 1118.45 L2712.91 1118.45 L2712.91 1109.7 Q2709.89 1114.91 2705.26 1117.46 Q2700.67 1119.96 2694.22 1119.96 Q2683.64 1119.96 2676.98 1111.52 Q2670.36 1103.08 2670.36 1089.33 Q2670.36 1075.58 2676.98 1067.15 Q2683.64 1058.71 2694.22 1058.71 Q2700.67 1058.71 2705.26 1061.26 Q2709.89 1063.76 2712.91 1068.97 M2680.26 1089.33 Q2680.26 1099.91 2684.58 1105.95 Q2688.96 1111.94 2696.56 1111.94 Q2704.16 1111.94 2708.54 1105.95 Q2712.91 1099.91 2712.91 1089.33 Q2712.91 1078.76 2708.54 1072.77 Q2704.16 1066.73 2696.56 1066.73 Q2688.96 1066.73 2684.58 1072.77 Q2680.26 1078.76 2680.26 1089.33 Z" fill="#000000" fill-rule="nonzero" fill-opacity="1" /><path clip-path="url(#clip840)" d="M2768.75 1089.12 Q2757.13 1089.12 2752.65 1091.78 Q2748.17 1094.44 2748.17 1100.84 Q2748.17 1105.95 2751.51 1108.97 Q2754.89 1111.94 2760.67 1111.94 Q2768.64 1111.94 2773.43 1106.31 Q2778.28 1100.64 2778.28 1091.26 L2778.28 1089.12 L2768.75 1089.12 M2787.86 1085.17 L2787.86 1118.45 L2778.28 1118.45 L2778.28 1109.59 Q2775 1114.91 2770.1 1117.46 Q2765.21 1119.96 2758.12 1119.96 Q2749.16 1119.96 2743.85 1114.96 Q2738.59 1109.91 2738.59 1101.47 Q2738.59 1091.62 2745.15 1086.62 Q2751.77 1081.62 2764.84 1081.62 L2778.28 1081.62 L2778.28 1080.69 Q2778.28 1074.07 2773.9 1070.48 Q2769.58 1066.83 2761.72 1066.83 Q2756.72 1066.83 2751.98 1068.03 Q2747.24 1069.23 2742.86 1071.62 L2742.86 1062.77 Q2748.12 1060.74 2753.07 1059.75 Q2758.02 1058.71 2762.71 1058.71 Q2775.36 1058.71 2781.61 1065.27 Q2787.86 1071.83 2787.86 1085.17 Z" fill="#000000" fill-rule="nonzero" fill-opacity="1" /><path clip-path="url(#clip840)" d="M2831.87 1123.86 Q2827.81 1134.28 2823.96 1137.46 Q2820.1 1140.63 2813.64 1140.63 L2805.99 1140.63 L2805.99 1132.61 L2811.61 1132.61 Q2815.57 1132.61 2817.76 1130.74 Q2819.94 1128.86 2822.6 1121.88 L2824.32 1117.51 L2800.73 1060.11 L2810.88 1060.11 L2829.11 1105.74 L2847.34 1060.11 L2857.5 1060.11 L2831.87 1123.86 Z" fill="#000000" fill-rule="nonzero" fill-opacity="1" /><path clip-path="url(#clip840)" d="M2869.22 1037.51 L2877.55 1037.51 Q2885.36 1049.8 2889.22 1061.57 Q2893.12 1073.34 2893.12 1084.96 Q2893.12 1096.62 2889.22 1108.45 Q2885.36 1120.27 2877.55 1132.51 L2869.22 1132.51 Q2876.14 1120.58 2879.53 1108.81 Q2882.97 1096.99 2882.97 1084.96 Q2882.97 1072.93 2879.53 1061.21 Q2876.14 1049.49 2869.22 1037.51 Z" fill="#000000" fill-rule="nonzero" fill-opacity="1" /><polyline clip-path="url(#clip840)" style="stroke:#000000; stroke-linecap:round; stroke-linejoin:round; stroke-width:4; stroke-opacity:1; fill:none" points="467.969,849.455 467.969,47.2441 "/>
<polyline clip-path="url(#clip840)" style="stroke:#000000; stroke-linecap:round; stroke-linejoin:round; stroke-width:4; stroke-opacity:1; fill:none" points="467.969,819.646 486.867,819.646 "/>
<polyline clip-path="url(#clip840)" style="stroke:#000000; stroke-linecap:round; stroke-linejoin:round; stroke-width:4; stroke-opacity:1; fill:none" points="467.969,686.899 486.867,686.899 "/>
<polyline clip-path="url(#clip840)" style="stroke:#000000; stroke-linecap:round; stroke-linejoin:round; stroke-width:4; stroke-opacity:1; fill:none" points="467.969,554.152 486.867,554.152 "/>
<polyline clip-path="url(#clip840)" style="stroke:#000000; stroke-linecap:round; stroke-linejoin:round; stroke-width:4; stroke-opacity:1; fill:none" points="467.969,421.406 486.867,421.406 "/>
<polyline clip-path="url(#clip840)" style="stroke:#000000; stroke-linecap:round; stroke-linejoin:round; stroke-width:4; stroke-opacity:1; fill:none" points="467.969,288.659 486.867,288.659 "/>
<polyline clip-path="url(#clip840)" style="stroke:#000000; stroke-linecap:round; stroke-linejoin:round; stroke-width:4; stroke-opacity:1; fill:none" points="467.969,155.912 486.867,155.912 "/>
<path clip-path="url(#clip840)" d="M212.22 820.548 L271.572 820.548 L271.572 828.419 L212.22 828.419 L212.22 820.548 Z" fill="#000000" fill-rule="nonzero" fill-opacity="1" /><path clip-path="url(#clip840)" d="M317.451 793.234 L293.84 830.132 L317.451 830.132 L317.451 793.234 M314.998 785.086 L326.757 785.086 L326.757 830.132 L336.618 830.132 L336.618 837.91 L326.757 837.91 L326.757 854.206 L317.451 854.206 L317.451 837.91 L286.248 837.91 L286.248 828.882 L314.998 785.086 Z" fill="#000000" fill-rule="nonzero" fill-opacity="1" /><path clip-path="url(#clip840)" d="M372.081 791.243 Q364.859 791.243 361.201 798.373 Q357.59 805.456 357.59 819.715 Q357.59 833.928 361.201 841.058 Q364.859 848.141 372.081 848.141 Q379.349 848.141 382.96 841.058 Q386.618 833.928 386.618 819.715 Q386.618 805.456 382.96 798.373 Q379.349 791.243 372.081 791.243 M372.081 783.836 Q383.701 783.836 389.812 793.049 Q395.969 802.215 395.969 819.715 Q395.969 837.169 389.812 846.382 Q383.701 855.548 372.081 855.548 Q360.46 855.548 354.303 846.382 Q348.192 837.169 348.192 819.715 Q348.192 802.215 354.303 793.049 Q360.46 783.836 372.081 783.836 Z" fill="#000000" fill-rule="nonzero" fill-opacity="1" /><path clip-path="url(#clip840)" d="M212.22 687.802 L271.572 687.802 L271.572 695.672 L212.22 695.672 L212.22 687.802 Z" fill="#000000" fill-rule="nonzero" fill-opacity="1" /><path clip-path="url(#clip840)" d="M320.09 684.191 Q326.803 685.626 330.553 690.163 Q334.349 694.7 334.349 701.367 Q334.349 711.598 327.312 717.2 Q320.275 722.802 307.313 722.802 Q302.961 722.802 298.331 721.922 Q293.748 721.089 288.84 719.376 L288.84 710.348 Q292.729 712.617 297.359 713.774 Q301.989 714.931 307.035 714.931 Q315.831 714.931 320.414 711.459 Q325.044 707.987 325.044 701.367 Q325.044 695.256 320.738 691.83 Q316.479 688.357 308.84 688.357 L300.785 688.357 L300.785 680.672 L309.211 680.672 Q316.109 680.672 319.766 677.941 Q323.424 675.163 323.424 669.978 Q323.424 664.654 319.627 661.83 Q315.877 658.959 308.84 658.959 Q304.998 658.959 300.6 659.793 Q296.202 660.626 290.924 662.385 L290.924 654.052 Q296.248 652.571 300.877 651.83 Q305.553 651.089 309.674 651.089 Q320.322 651.089 326.525 655.95 Q332.729 660.765 332.729 669.006 Q332.729 674.746 329.442 678.728 Q326.155 682.663 320.09 684.191 Z" fill="#000000" fill-rule="nonzero" fill-opacity="1" /><path clip-path="url(#clip840)" d="M372.081 658.496 Q364.859 658.496 361.201 665.626 Q357.59 672.709 357.59 686.969 Q357.59 701.181 361.201 708.311 Q364.859 715.394 372.081 715.394 Q379.349 715.394 382.96 708.311 Q386.618 701.181 386.618 686.969 Q386.618 672.709 382.96 665.626 Q379.349 658.496 372.081 658.496 M372.081 651.089 Q383.701 651.089 389.812 660.302 Q395.969 669.469 395.969 686.969 Q395.969 704.422 389.812 713.635 Q383.701 722.802 372.081 722.802 Q360.46 722.802 354.303 713.635 Q348.192 704.422 348.192 686.969 Q348.192 669.469 354.303 660.302 Q360.46 651.089 372.081 651.089 Z" fill="#000000" fill-rule="nonzero" fill-opacity="1" /><path clip-path="url(#clip840)" d="M212.22 555.055 L271.572 555.055 L271.572 562.926 L212.22 562.926 L212.22 555.055 Z" fill="#000000" fill-rule="nonzero" fill-opacity="1" /><path clip-path="url(#clip840)" d="M299.813 580.842 L332.451 580.842 L332.451 588.712 L288.563 588.712 L288.563 580.842 Q293.887 575.333 303.053 566.074 Q312.266 556.768 314.627 554.083 Q319.118 549.037 320.877 545.565 Q322.683 542.046 322.683 538.666 Q322.683 533.157 318.794 529.685 Q314.951 526.213 308.748 526.213 Q304.35 526.213 299.442 527.741 Q294.581 529.268 289.026 532.37 L289.026 522.926 Q294.674 520.657 299.581 519.5 Q304.488 518.342 308.563 518.342 Q319.303 518.342 325.692 523.713 Q332.081 529.083 332.081 538.065 Q332.081 542.324 330.461 546.166 Q328.887 549.963 324.674 555.148 Q323.516 556.49 317.313 562.926 Q311.109 569.314 299.813 580.842 Z" fill="#000000" fill-rule="nonzero" fill-opacity="1" /><path clip-path="url(#clip840)" d="M372.081 525.75 Q364.859 525.75 361.201 532.879 Q357.59 539.963 357.59 554.222 Q357.59 568.435 361.201 575.564 Q364.859 582.648 372.081 582.648 Q379.349 582.648 382.96 575.564 Q386.618 568.435 386.618 554.222 Q386.618 539.963 382.96 532.879 Q379.349 525.75 372.081 525.75 M372.081 518.342 Q383.701 518.342 389.812 527.555 Q395.969 536.722 395.969 554.222 Q395.969 571.675 389.812 580.888 Q383.701 590.055 372.081 590.055 Q360.46 590.055 354.303 580.888 Q348.192 571.675 348.192 554.222 Q348.192 536.722 354.303 527.555 Q360.46 518.342 372.081 518.342 Z" fill="#000000" fill-rule="nonzero" fill-opacity="1" /><path clip-path="url(#clip840)" d="M212.22 422.309 L271.572 422.309 L271.572 430.179 L212.22 430.179 L212.22 422.309 Z" fill="#000000" fill-rule="nonzero" fill-opacity="1" /><path clip-path="url(#clip840)" d="M293.377 448.095 L308.655 448.095 L308.655 395.364 L292.035 398.698 L292.035 390.179 L308.563 386.846 L317.914 386.846 L317.914 448.095 L333.192 448.095 L333.192 455.966 L293.377 455.966 L293.377 448.095 Z" fill="#000000" fill-rule="nonzero" fill-opacity="1" /><path clip-path="url(#clip840)" d="M372.081 393.003 Q364.859 393.003 361.201 400.133 Q357.59 407.216 357.59 421.475 Q357.59 435.688 361.201 442.818 Q364.859 449.901 372.081 449.901 Q379.349 449.901 382.96 442.818 Q386.618 435.688 386.618 421.475 Q386.618 407.216 382.96 400.133 Q379.349 393.003 372.081 393.003 M372.081 385.596 Q383.701 385.596 389.812 394.809 Q395.969 403.975 395.969 421.475 Q395.969 438.929 389.812 448.142 Q383.701 457.308 372.081 457.308 Q360.46 457.308 354.303 448.142 Q348.192 438.929 348.192 421.475 Q348.192 403.975 354.303 394.809 Q360.46 385.596 372.081 385.596 Z" fill="#000000" fill-rule="nonzero" fill-opacity="1" /><path clip-path="url(#clip840)" d="M372.081 260.257 Q364.859 260.257 361.201 267.386 Q357.59 274.469 357.59 288.729 Q357.59 302.941 361.201 310.071 Q364.859 317.154 372.081 317.154 Q379.349 317.154 382.96 310.071 Q386.618 302.941 386.618 288.729 Q386.618 274.469 382.96 267.386 Q379.349 260.257 372.081 260.257 M372.081 252.849 Q383.701 252.849 389.812 262.062 Q395.969 271.229 395.969 288.729 Q395.969 306.182 389.812 315.395 Q383.701 324.562 372.081 324.562 Q360.46 324.562 354.303 315.395 Q348.192 306.182 348.192 288.729 Q348.192 271.229 354.303 262.062 Q360.46 252.849 372.081 252.849 Z" fill="#000000" fill-rule="nonzero" fill-opacity="1" /><path clip-path="url(#clip840)" d="M293.377 182.602 L308.655 182.602 L308.655 129.871 L292.035 133.204 L292.035 124.686 L308.563 121.352 L317.914 121.352 L317.914 182.602 L333.192 182.602 L333.192 190.472 L293.377 190.472 L293.377 182.602 Z" fill="#000000" fill-rule="nonzero" fill-opacity="1" /><path clip-path="url(#clip840)" d="M372.081 127.51 Q364.859 127.51 361.201 134.639 Q357.59 141.723 357.59 155.982 Q357.59 170.195 361.201 177.324 Q364.859 184.408 372.081 184.408 Q379.349 184.408 382.96 177.324 Q386.618 170.195 386.618 155.982 Q386.618 141.723 382.96 134.639 Q379.349 127.51 372.081 127.51 M372.081 120.103 Q383.701 120.103 389.812 129.315 Q395.969 138.482 395.969 155.982 Q395.969 173.436 389.812 182.648 Q383.701 191.815 372.081 191.815 Q360.46 191.815 354.303 182.648 Q348.192 173.436 348.192 155.982 Q348.192 138.482 354.303 129.315 Q360.46 120.103 372.081 120.103 Z" fill="#000000" fill-rule="nonzero" fill-opacity="1" /><path clip-path="url(#clip842)" d="M589.237 265.918 L606.08 315.082 L622.922 357.16 L639.765 390.654 L656.608 416.38 L673.451 444.496 L690.293 449.189 L707.136 438.08 L723.979 396.55 L740.821 369.334 L757.664 359.829 L774.507 361.856 L791.35 370.907 L808.192 386.326 L825.035 402.588 L841.878 417.567 L858.72 428.039 L875.563 438.061 L892.406 447.779 L909.249 462.589 L926.091 479.8 L942.934 497.309 L959.777 510.047 L976.619 518.874 L993.462 528.33 L1010.3 548.132 L1027.15 567.833 L1043.99 586.012 L1060.83 599.914 L1077.68 608.338 L1094.52 602.693 L1111.36 586.895 L1128.2 555.067 L1145.05 522.179 L1161.89 507.629 L1178.73 504.593 L1195.57 509.262 L1212.42 519.742 L1229.26 531.535 L1246.1 542.066 L1262.95 548.096 L1279.79 552.642 L1296.63 557.699 L1313.47 568.774 L1330.32 582.636 L1347.16 597.614 L1364 607.966 L1380.84 614.787 L1397.69 622.521 L1414.53 640.919 L1431.37 659.55 L1448.22 676.931 L1465.06 690.139 L1481.9 698.448 L1498.74 692.324 L1515.59 675.7 L1532.43 642.642 L1549.27 607.649 L1566.11 590.266 L1582.96 584.303 L1599.8 585.651 L1616.64 593.334 L1633.49 602.102 L1650.33 609.564 L1667.17 612.415 L1684.01 614.673 L1700.86 615.885 L1717.7 624.644 L1734.54 636.463 L1751.38 649.861 L1768.23 658.786 L1785.07 664.23 L1801.91 670.859 L1818.76 688.425 L1835.6 706.432 L1852.44 723.317 L1869.28 736.214 L1886.13 744.321 L1902.97 737.956 L1919.81 720.947 L1936.65 687.219 L1953.5 651.064 L1970.34 632.286 L1987.18 624.727 L2004.02 624.647 L2020.87 630.599 L2037.71 638.008 L2054.55 644.132 L2071.4 645.575 L2088.24 646.377 L2105.08 647.34 L2121.92 654.331 L2138.77 664.954 L2155.61 677.444 L2172.45 685.802 L2189.29 690.314 L2206.14 696.16 L2222.98 713.232 L2239.82 730.868 L2256.67 747.555 L2273.51 760.472 L2290.35 768.552 L2307.19 762.226 L2324.04 745.106 L2340.88 711.115 L2357.72 674.462 L2374.56 654.898 L2391.41 646.59 L2408.25 645.936 L2425.09 650.957 L2441.94 657.536 L2458.78 662.846 L2475.62 663.689 L2492.46 663.541 L2509.31 663.68 L2526.15 670.458 L2542.99 680.962 L2559.83 693.525 L2576.68 701.094 L2593.52 706.024 L2610.36 711.578 L2627.21 728.435 L2644.05 745.961 L2660.89 762.792 L2677.73 776.774 L2694.58 786.431 L2711.42 781.544 L2728.26 765.618 L2745.1 732.466 L2761.95 696.19 L2778.79 676.186 L2795.63 666.858 L2812.48 664.781 L2829.32 668.504 L2846.16 673.76 L2863 677.782 L2879.85 677.181 L2896.69 675.969 L2913.53 675.055 L2930.37 681.227 L2947.22 691.408 L2964.06 703.737 L2980.9 711.862 L2997.75 716.958 L3014.59 723.461 L3031.43 741.334 L3048.27 760.201 L3065.12 778.458 L3081.96 793.116 L3098.8 802.75 L3115.64 797.876 L3132.49 781.839 L3149.33 748.52 L3166.17 711.957 L3183.01 691.549 L3199.86 681.772 L3216.7 679.284 L3233.54 682.644 L3250.39 687.626 L3267.23 691.335 L3284.07 690.419 L3300.91 688.879 L3317.76 687.675 L3334.6 693.648 L3351.44 703.751 L3368.28 716.145 L3385.13 724.296 L3401.97 729.382 L3418.81 735.856 L3435.66 753.668 L3452.5 772.478 L3469.34 790.694 L3486.18 805.308 L3503.03 814.914 L3519.87 810.014 L3536.71 793.991 L3553.55 760.637 L3570.4 723.923 L3587.24 703.353 L3604.08 693.393 L3620.93 690.682 L3637.77 693.779 L3654.61 698.427 L3671.45 701.846 L3688.3 700.624 L3705.14 698.781 L3721.98 697.198 L3738.82 702.77 L3755.67 712.438 L3772.51 724.395 L3789.35 732.06 L3806.2 736.796 L3823.04 743.061 L3839.88 760.75 L3856.72 779.49 L3873.57 797.609 L3890.41 812.16 L3907.25 821.7 L3924.09 816.729 L3940.94 800.592 L3957.78 767.122 L3974.62 730.295 L3991.47 709.505 L4008.31 699.361 L4025.15 696.45 L4041.99 699.361 L4058.84 703.888 L4075.68 707.251 L4092.52 705.99 L4109.36 704.147 L4126.21 702.627 L4143.05 708.106 L4159.89 717.692 L4176.74 729.594 L4193.58 737.216 L4210.42 741.923 L4227.26 748.165 L4244.11 765.844 L4260.95 784.58 L4277.79 802.701 L4294.63 817.236 L4311.48 826.751 L4328.32 821.767 L4345.16 805.598 L4362 772.038 L4378.85 735.011 L4395.69 714.118 L4412.53 703.844 L4429.38 700.804 L4446.22 703.635 L4463.06 708.039 L4479.9 711.23 L4496.75 709.766 L4513.59 707.691 L4530.43 705.893 L4547.27 711.246 L4564.12 720.814 L4580.96 732.665 L4597.8 740.412 L4614.65 745.204 L4631.49 751.458 L4631.49 91.6311 L4614.65 103.16 L4597.8 125.496 L4580.96 144.713 L4564.12 156.374 L4547.27 158.174 L4530.43 157.801 L4513.59 161.095 L4496.75 162.892 L4479.9 153.24 L4463.06 133.179 L4446.22 113.389 L4429.38 100.454 L4412.53 98.9584 L4395.69 107.974 L4378.85 127.33 L4362 161.48 L4345.16 194.375 L4328.32 209.81 L4311.48 205.36 L4294.63 183.021 L4277.79 154.937 L4260.95 125.983 L4244.11 102.009 L4227.26 90.6631 L4210.42 102.125 L4193.58 124.419 L4176.74 143.852 L4159.89 154.783 L4143.05 156.674 L4126.21 157.375 L4109.36 160.666 L4092.52 162.514 L4075.68 153.009 L4058.84 133.027 L4041.99 113.356 L4025.15 100.096 L4008.31 98.261 L3991.47 108.018 L3974.62 127.077 L3957.78 161.772 L3940.94 193.405 L3924.09 209.057 L3907.25 203.907 L3890.41 182.538 L3873.57 154.467 L3856.72 125.429 L3839.88 101.553 L3823.04 90.3119 L3806.2 101.847 L3789.35 124.169 L3772.51 142.666 L3755.67 152.944 L3738.82 154.601 L3721.98 156.788 L3705.14 160.052 L3688.3 161.858 L3671.45 151.883 L3654.61 132.361 L3637.77 112.58 L3620.93 99.5937 L3604.08 97.9121 L3587.24 107.104 L3570.4 126.845 L3553.55 160.386 L3536.71 192.482 L3519.87 207.47 L3503.03 202.388 L3486.18 181.54 L3469.34 153.574 L3452.5 124.453 L3435.66 100.622 L3418.81 89.4322 L3401.97 101.033 L3385.13 122.712 L3368.28 141.169 L3351.44 149.975 L3334.6 151.642 L3317.76 153.893 L3300.91 157.762 L3284.07 159.585 L3267.23 150.276 L3250.39 131.39 L3233.54 111.833 L3216.7 98.492 L3199.86 96.5292 L3183.01 106.121 L3166.17 125.017 L3149.33 159.729 L3132.49 191.346 L3115.64 204.296 L3098.8 199.273 L3081.96 178.52 L3065.12 152.309 L3048.27 122.725 L3031.43 98.8594 L3014.59 87.6191 L2997.75 99.2314 L2980.9 120.431 L2964.06 138.931 L2947.22 145.683 L2930.37 147.364 L2913.53 149.429 L2896.69 154.498 L2879.85 157.361 L2863 148.254 L2846.16 129.195 L2829.32 110.125 L2812.48 97.0281 L2795.63 95.1876 L2778.79 103.975 L2761.95 123.155 L2745.1 157.514 L2728.26 189.592 L2711.42 200.476 L2694.58 195.595 L2677.73 174.933 L2660.89 149.182 L2644.05 119.951 L2627.21 96.2327 L2610.36 85.1349 L2593.52 96.8565 L2576.68 117.35 L2559.83 135.896 L2542.99 139.871 L2526.15 141.329 L2509.31 143.293 L2492.46 148.122 L2475.62 150.777 L2458.78 145.921 L2441.94 126.747 L2425.09 108.202 L2408.25 94.6511 L2391.41 92.3783 L2374.56 101.623 L2357.72 120.21 L2340.88 154.831 L2324.04 186.951 L2307.19 196.23 L2290.35 191.424 L2273.51 170.853 L2256.67 145.149 L2239.82 116.804 L2222.98 93.0825 L2206.14 81.9539 L2189.29 93.5025 L2172.45 112.924 L2155.61 130.017 L2138.77 131.793 L2121.92 133.207 L2105.08 135.02 L2088.24 139.768 L2071.4 142.338 L2054.55 142.085 L2037.71 122.596 L2020.87 103.723 L2004.02 92.0574 L1987.18 90.4692 L1970.34 98.926 L1953.5 117.56 L1936.65 149.067 L1919.81 178.91 L1902.97 188.388 L1886.13 183.738 L1869.28 163.348 L1852.44 137.821 L1835.6 110.994 L1818.76 87.9942 L1801.91 76.9665 L1785.07 87.7874 L1768.23 106.23 L1751.38 121.615 L1734.54 123.337 L1717.7 124.603 L1700.86 126.314 L1684.01 130.948 L1667.17 132.753 L1650.33 133.266 L1633.49 117.216 L1616.64 97.9217 L1599.8 85.7229 L1582.96 83.0061 L1566.11 91.4951 L1549.27 109.238 L1532.43 139.457 L1515.59 169.202 L1498.74 178.95 L1481.9 174.662 L1465.06 154.638 L1448.22 129.478 L1431.37 103.148 L1414.53 80.7055 L1397.69 69.9482 L1380.84 80.7118 L1364 100.038 L1347.16 117.089 L1330.32 119.298 L1313.47 121.173 L1296.63 122.946 L1279.79 125.721 L1262.95 127.069 L1246.1 126.766 L1229.26 111.953 L1212.42 92.6197 L1195.57 79.8235 L1178.73 78.8173 L1161.89 87.7377 L1145.05 105.664 L1128.2 137.623 L1111.36 169.206 L1094.52 181.134 L1077.68 177.743 L1060.83 158.068 L1043.99 131.21 L1027.15 102.671 L1010.3 80.1564 L993.462 70.2273 L976.619 83.0798 L959.777 106.747 L942.934 129.477 L926.091 143.184 L909.249 144.102 L892.406 142.984 L875.563 146.998 L858.72 150.635 L841.878 145.827 L825.035 130.981 L808.192 118.263 L791.35 113.828 L774.507 124.231 L757.664 145.035 L740.821 176.558 L723.979 222.013 L707.136 259.616 L690.293 274.965 L673.451 278.647 L656.608 264.585 L639.765 243.483 L622.922 221.233 L606.08 206.263 L589.237 206.138  Z" fill="#aeaeae" fill-rule="evenodd" fill-opacity="0.5"/>
<polyline clip-path="url(#clip842)" style="stroke:#aeaeae; stroke-linecap:round; stroke-linejoin:round; stroke-width:0; stroke-opacity:1; fill:none" points="589.237,259.467 606.08,267.962 622.922,279.124 639.765,291.567 656.608,302.8 673.451,311.256 690.293,310.928 707.136,303.268 723.979,285.127 740.821,264.802 757.664,252.803 774.507,246.514 791.35,245.071 808.192,248.256 825.035,253.627 841.878,258.947 858.72,261.565 875.563,262.325 892.406,260.693 909.249,259.611 926.091,258.481 942.934,256.853 959.777,252.4 976.619,247.105 993.462,244.918 1010.3,251.692 1027.15,262.14 1043.99,274.361 1060.83,285.685 1077.68,294.389 1094.52,294.428 1111.36,287.172 1128.2,270.02 1145.05,251.448 1161.89,241.806 1178.73,237.925 1195.57,238.692 1212.42,243.75 1229.26,250.634 1246.1,257.165 1262.95,260.741 1279.79,262.235 1296.63,261.261 1313.47,260.721 1330.32,260.104 1347.16,258.93 1364,254.896 1380.84,249.979 1397.69,248.157 1414.53,255.279 1431.37,266.066 1448.22,278.623 1465.06,290.27 1481.9,299.289 1498.74,299.608 1515.59,292.596 1532.43,275.505 1549.27,256.866 1566.11,247.024 1582.96,242.898 1599.8,243.479 1616.64,248.373 1633.49,255.103 1650.33,261.51 1667.17,264.987 1684.01,266.433 1700.86,265.401 1717.7,264.908 1734.54,264.334 1751.38,263.197 1768.23,259.217 1785.07,254.372 1801.91,252.625 1818.76,259.834 1835.6,270.72 1852.44,283.388 1869.28,295.137 1886.13,304.264 1902.97,304.696 1919.81,297.763 1936.65,280.69 1953.5,261.906 1970.34,251.816 1987.18,247.44 2004.02,247.766 2020.87,252.425 2037.71,258.964 2054.55,265.208 2071.4,268.551 2088.24,269.898 2105.08,268.819 2121.92,268.284 2138.77,267.684 2155.61,266.542 2172.45,262.565 2189.29,257.738 2206.14,256.013 2222.98,263.258 2239.82,274.192 2256.67,286.91 2273.51,298.731 2290.35,307.924 2307.19,308.396 2324.04,301.508 2340.88,284.415 2357.72,265.523 2374.56,255.283 2391.41,250.726 2408.25,250.881 2425.09,255.389 2441.94,261.792 2458.78,267.922 2475.62,271.17 2492.46,272.43 2509.31,271.302 2526.15,270.742 2542.99,270.116 2559.83,268.959 2576.68,264.975 2593.52,260.155 2610.36,258.443 2627.21,265.708 2644.05,276.669 2660.89,289.425 2677.73,301.274 2694.58,310.515 2711.42,311.025 2728.26,304.171 2745.1,287.065 2761.95,268.114 2778.79,257.756 2795.63,253.074 2812.48,253.106 2829.32,257.499 2846.16,263.809 2863,269.856 2879.85,273.031 2896.69,274.238 2913.53,273.088 2930.37,272.518 2947.22,271.871 2964.06,270.701 2980.9,266.716 2997.75,261.905 3014.59,260.201 3031.43,267.479 3048.27,278.458 3065.12,291.233 3081.96,303.115 3098.8,312.372 3115.64,312.913 3132.49,306.054 3149.33,288.945 3166.17,269.94 3183.01,259.505 3199.86,254.726 3216.7,254.652 3233.54,258.975 3250.39,265.219 3267.23,271.211 3284.07,274.338 3300.91,275.519 3317.76,274.315 3334.6,273.728 3351.44,273.063 3368.28,271.887 3385.13,267.903 3401.97,263.096 3418.81,261.399 3435.66,268.684 3452.5,279.673 3469.34,292.463 3486.18,304.349 3503.03,313.624 3519.87,314.169 3536.71,307.347 3553.55,290.22 3570.4,271.168 3587.24,260.674 3604.08,255.837 3620.93,255.728 3637.77,259.992 3654.61,266.191 3671.45,272.143 3688.3,275.24 3705.14,276.401 3721.98,275.193 3738.82,274.579 3755.67,273.915 3772.51,272.74 3789.35,268.763 3806.2,263.958 3823.04,262.265 3839.88,269.555 3856.72,280.552 3873.57,293.344 3890.41,305.248 3907.25,314.532 3924.09,315.103 3940.94,308.261 3957.78,291.145 3974.62,272.092 3991.47,261.541 4008.31,256.666 4025.15,256.492 4041.99,260.713 4058.84,266.883 4075.68,272.813 4092.52,275.878 4109.36,277.019 4126.21,275.811 4143.05,275.187 4159.89,274.531 4176.74,273.36 4193.58,269.38 4210.42,264.581 4227.26,262.892 4244.11,270.188 4260.95,281.19 4277.79,293.997 4294.63,305.904 4311.48,315.187 4328.32,315.76 4345.16,308.932 4362,291.809 4378.85,272.691 4395.69,262.134 4412.53,257.232 4429.38,257.025 4446.22,261.234 4463.06,267.384 4479.9,273.295 4496.75,276.344 4513.59,277.475 4530.43,276.25 4547.27,275.63 4564.12,274.971 4580.96,273.795 4597.8,269.819 4614.65,265.023 4631.49,263.338 "/>
<path clip-path="url(#clip842)" d="M589.237 247.356 L606.08 281.44 L622.922 314.565 L639.765 342.951 L656.608 368.862 L673.451 390.224 L690.293 391.325 L707.136 378.846 L723.979 344.6 L740.821 306.429 L757.664 287.141 L774.507 281.105 L791.35 285.294 L808.192 295.973 L825.035 307.325 L841.878 316.624 L858.72 320.936 L875.563 321.323 L892.406 319.499 L909.249 322.362 L926.091 326.358 L942.934 330.447 L959.777 334.103 L976.619 335.396 L993.462 339.116 L1010.3 357.877 L1027.15 377.617 L1043.99 398.884 L1060.83 417.064 L1077.68 431.646 L1094.52 430.577 L1111.36 414.749 L1128.2 377.648 L1145.05 334.687 L1161.89 315.544 L1178.73 310.243 L1195.57 312.482 L1212.42 320.456 L1229.26 329.984 L1246.1 337.348 L1262.95 338.086 L1279.79 339.256 L1296.63 335.555 L1313.47 340.676 L1330.32 344.782 L1347.16 354.425 L1364 356.833 L1380.84 357.838 L1397.69 361.798 L1414.53 378.337 L1431.37 399.1 L1448.22 419.698 L1465.06 437.072 L1481.9 453.113 L1498.74 450.621 L1515.59 434.16 L1532.43 396.224 L1549.27 355.59 L1566.11 334.161 L1582.96 328.396 L1599.8 326.36 L1616.64 333.023 L1633.49 341.066 L1650.33 351.036 L1667.17 353.389 L1684.01 353.879 L1700.86 350.365 L1717.7 351.766 L1734.54 357.947 L1751.38 365.133 L1768.23 370.103 L1785.07 372.013 L1801.91 376.466 L1818.76 392.582 L1835.6 411.041 L1852.44 429.907 L1869.28 451.113 L1886.13 464.019 L1902.97 463.145 L1919.81 446.857 L1936.65 409.093 L1953.5 367.868 L1970.34 348.737 L1987.18 341.6 L2004.02 339.363 L2020.87 344.25 L2037.71 351.866 L2054.55 360.606 L2071.4 362.321 L2088.24 361.755 L2105.08 358.89 L2121.92 360.959 L2138.77 366.699 L2155.61 376.564 L2172.45 382.496 L2189.29 382.089 L2206.14 383.267 L2222.98 398.913 L2239.82 420.106 L2256.67 441.251 L2273.51 460.747 L2290.35 473.685 L2307.19 471.899 L2324.04 457.345 L2340.88 416.127 L2357.72 378.804 L2374.56 356.685 L2391.41 352.223 L2408.25 350.981 L2425.09 355.207 L2441.94 361.009 L2458.78 366.181 L2475.62 368.531 L2492.46 367.959 L2509.31 364.315 L2526.15 366.684 L2542.99 375.274 L2559.83 382.205 L2576.68 385.506 L2593.52 388.072 L2610.36 391.85 L2627.21 408.66 L2644.05 427.37 L2660.89 448.084 L2677.73 466.393 L2694.58 478.094 L2711.42 478.131 L2728.26 462.143 L2745.1 423.954 L2761.95 386.92 L2778.79 365.768 L2795.63 357.728 L2812.48 355.996 L2829.32 361.325 L2846.16 368.72 L2863 375.142 L2879.85 374.87 L2896.69 373.206 L2913.53 370.529 L2930.37 374.442 L2947.22 378.873 L2964.06 385.721 L2980.9 388.909 L2997.75 394.548 L3014.59 399.36 L3031.43 414.72 L3048.27 432.713 L3065.12 454.576 L3081.96 471.689 L3098.8 483.724 L3115.64 482.115 L3132.49 466.522 L3149.33 429.309 L3166.17 392.936 L3183.01 372.298 L3199.86 363.481 L3216.7 361.639 L3233.54 365.504 L3250.39 372.317 L3267.23 378.828 L3284.07 378.575 L3300.91 376.376 L3317.76 372.963 L3334.6 376.405 L3351.44 381.861 L3368.28 388.619 L3385.13 393.475 L3401.97 399.779 L3418.81 402.16 L3435.66 418.274 L3452.5 437.564 L3469.34 458.272 L3486.18 474.085 L3503.03 486.865 L3519.87 484.627 L3536.71 469.25 L3553.55 432.871 L3570.4 396.716 L3587.24 377.665 L3604.08 367.943 L3620.93 366.553 L3637.77 370.483 L3654.61 376.831 L3671.45 381.539 L3688.3 380.821 L3705.14 378.415 L3721.98 376.072 L3738.82 378.98 L3755.67 384.122 L3772.51 391.85 L3789.35 397.342 L3806.2 402.568 L3823.04 405.032 L3839.88 420.639 L3856.72 439.787 L3873.57 460.29 L3890.41 476.921 L3907.25 490.152 L3924.09 486.94 L3940.94 471.025 L3957.78 436.692 L3974.62 399.958 L3991.47 379.637 L4008.31 369.472 L4025.15 368.784 L4041.99 372.93 L4058.84 380.038 L4075.68 384.111 L4092.52 383.553 L4109.36 379.633 L4126.21 376.936 L4143.05 380.915 L4159.89 386.767 L4176.74 393.596 L4193.58 399.953 L4210.42 404.522 L4227.26 407.424 L4244.11 422.895 L4260.95 441.944 L4277.79 461.583 L4294.63 479.446 L4311.48 492.385 L4328.32 488.172 L4345.16 473.273 L4362 438.127 L4378.85 401.201 L4395.69 381.439 L4412.53 371.369 L4429.38 369.886 L4446.22 374.2 L4463.06 380.85 L4479.9 386.991 L4496.75 386.283 L4513.59 382.611 L4530.43 377.969 L4547.27 381.534 L4564.12 388.096 L4580.96 395.258 L4597.8 401.226 L4614.65 405.443 L4631.49 408.568 L4631.49 119.946 L4614.65 132.098 L4597.8 151.244 L4580.96 170.334 L4564.12 180.689 L4547.27 186.896 L4530.43 190.637 L4513.59 192.556 L4496.75 187.272 L4479.9 177.407 L4463.06 161.286 L4446.22 143.188 L4429.38 131.821 L4412.53 131.605 L4395.69 141.679 L4378.85 160.311 L4362 194.421 L4345.16 225.267 L4328.32 237.794 L4311.48 233.383 L4294.63 212.133 L4277.79 183.358 L4260.95 154.767 L4244.11 130.177 L4227.26 119.188 L4210.42 131.349 L4193.58 150.381 L4176.74 169.857 L4159.89 180.22 L4143.05 186.313 L4126.21 190.028 L4109.36 192.155 L4092.52 186.965 L4075.68 176.598 L4058.84 160.418 L4041.99 142.037 L4025.15 130.98 L4008.31 130.947 L3991.47 140.906 L3974.62 160.143 L3957.78 193.562 L3940.94 224.211 L3924.09 236.749 L3907.25 232.455 L3890.41 210.753 L3873.57 182.726 L3856.72 153.981 L3839.88 129.23 L3823.04 118.326 L3806.2 130.556 L3789.35 149.508 L3772.51 169.187 L3755.67 179.014 L3738.82 185.095 L3721.98 188.955 L3705.14 191.236 L3688.3 185.905 L3671.45 175.329 L3654.61 159.237 L3637.77 141.206 L3620.93 129.855 L3604.08 129.771 L3587.24 139.834 L3570.4 158.219 L3553.55 192.114 L3536.71 223.199 L3519.87 235.467 L3503.03 230.93 L3486.18 209.217 L3469.34 181.46 L3452.5 152.711 L3435.66 127.807 L3418.81 116.693 L3401.97 128.92 L3385.13 148.257 L3368.28 167.245 L3351.44 177.767 L3334.6 184.141 L3317.76 187.857 L3300.91 190.086 L3284.07 184.824 L3267.23 174.42 L3250.39 157.264 L3233.54 140.119 L3216.7 128.713 L3199.86 128.712 L3183.01 137.86 L3166.17 156.493 L3149.33 189.742 L3132.49 221.083 L3115.64 233.188 L3098.8 228.786 L3081.96 207.116 L3065.12 179.307 L3048.27 150.671 L3031.43 126.054 L3014.59 114.676 L2997.75 127.057 L2980.9 145.982 L2964.06 165.662 L2947.22 175.982 L2930.37 182.414 L2913.53 185.841 L2896.69 188.054 L2879.85 182.71 L2863 172.327 L2846.16 155.365 L2829.32 137.546 L2812.48 126.43 L2795.63 126.615 L2778.79 134.7 L2761.95 153.268 L2745.1 186.434 L2728.26 217.929 L2711.42 230.227 L2694.58 225.982 L2677.73 204.186 L2660.89 176.067 L2644.05 147.664 L2627.21 123.552 L2610.36 112.277 L2593.52 123.662 L2576.68 143.596 L2559.83 163.594 L2542.99 173.668 L2526.15 179.477 L2509.31 182.937 L2492.46 185.099 L2475.62 180.239 L2458.78 169.649 L2441.94 152.584 L2425.09 134.775 L2408.25 122.995 L2391.41 123.041 L2374.56 131.129 L2357.72 149.406 L2340.88 182.316 L2324.04 214.199 L2307.19 226.406 L2290.35 222.483 L2273.51 200.454 L2256.67 171.88 L2239.82 143.585 L2222.98 119.438 L2206.14 108.431 L2189.29 119.165 L2172.45 139.999 L2155.61 159.404 L2138.77 169.57 L2121.92 174.477 L2105.08 179.321 L2088.24 180.58 L2071.4 175.825 L2054.55 165.606 L2037.71 147.369 L2020.87 130.763 L2004.02 119.037 L1987.18 118.617 L1970.34 125.329 L1953.5 143.783 L1936.65 176.827 L1919.81 208.064 L1902.97 220.544 L1886.13 217.183 L1869.28 194.554 L1852.44 166.554 L1835.6 137.216 L1818.76 114.01 L1801.91 103.326 L1785.07 113.722 L1768.23 135.246 L1751.38 153.538 L1734.54 163.789 L1717.7 168.349 L1700.86 172.538 L1684.01 174.349 L1667.17 170.112 L1650.33 160.295 L1633.49 142.447 L1616.64 124.783 L1599.8 113.005 L1582.96 111.862 L1566.11 118.519 L1549.27 136.438 L1532.43 169.096 L1515.59 200.108 L1498.74 213.195 L1481.9 209.12 L1465.06 188.097 L1448.22 159.619 L1431.37 130.372 L1414.53 107.158 L1397.69 96.6232 L1380.84 108.163 L1364 129.538 L1347.16 147.012 L1330.32 157.095 L1313.47 161.835 L1296.63 166.298 L1279.79 168.818 L1262.95 164.456 L1246.1 154.191 L1229.26 136.693 L1212.42 119.616 L1195.57 107.716 L1178.73 105.861 L1161.89 114.033 L1145.05 130.74 L1128.2 163.564 L1111.36 195.147 L1094.52 208.979 L1077.68 206.234 L1060.83 184.368 L1043.99 157.357 L1027.15 128.605 L1010.3 106.598 L993.462 96.7894 L976.619 108.496 L959.777 131.24 L942.934 151.764 L926.091 163.371 L909.249 169.624 L892.406 174.948 L875.563 177.842 L858.72 175.796 L841.878 168.063 L825.035 154.449 L808.192 141.349 L791.35 136.336 L774.507 145.355 L757.664 165.293 L740.821 193.971 L723.979 235.935 L707.136 273.516 L690.293 289.771 L673.451 292.666 L656.608 277.364 L639.765 256.479 L622.922 233.778 L606.08 218.216 L589.237 214.405  Z" fill="#757575" fill-rule="evenodd" fill-opacity="0.5"/>
<polyline clip-path="url(#clip842)" style="stroke:#757575; stroke-linecap:round; stroke-linejoin:round; stroke-width:0; stroke-opacity:1; fill:none" points="589.237,259.467 606.08,267.962 622.922,279.124 639.765,291.567 656.608,302.8 673.451,311.256 690.293,310.928 707.136,303.268 723.979,285.127 740.821,264.802 757.664,252.803 774.507,246.514 791.35,245.071 808.192,248.256 825.035,253.627 841.878,258.947 858.72,261.565 875.563,262.325 892.406,260.693 909.249,259.611 926.091,258.481 942.934,256.853 959.777,252.4 976.619,247.105 993.462,244.918 1010.3,251.692 1027.15,262.14 1043.99,274.361 1060.83,285.685 1077.68,294.389 1094.52,294.428 1111.36,287.172 1128.2,270.02 1145.05,251.448 1161.89,241.806 1178.73,237.925 1195.57,238.692 1212.42,243.75 1229.26,250.634 1246.1,257.165 1262.95,260.741 1279.79,262.235 1296.63,261.261 1313.47,260.721 1330.32,260.104 1347.16,258.93 1364,254.896 1380.84,249.979 1397.69,248.157 1414.53,255.279 1431.37,266.066 1448.22,278.623 1465.06,290.27 1481.9,299.289 1498.74,299.608 1515.59,292.596 1532.43,275.505 1549.27,256.866 1566.11,247.024 1582.96,242.898 1599.8,243.479 1616.64,248.373 1633.49,255.103 1650.33,261.51 1667.17,264.987 1684.01,266.433 1700.86,265.401 1717.7,264.908 1734.54,264.334 1751.38,263.197 1768.23,259.217 1785.07,254.372 1801.91,252.625 1818.76,259.834 1835.6,270.72 1852.44,283.388 1869.28,295.137 1886.13,304.264 1902.97,304.696 1919.81,297.763 1936.65,280.69 1953.5,261.906 1970.34,251.816 1987.18,247.44 2004.02,247.766 2020.87,252.425 2037.71,258.964 2054.55,265.208 2071.4,268.551 2088.24,269.898 2105.08,268.819 2121.92,268.284 2138.77,267.684 2155.61,266.542 2172.45,262.565 2189.29,257.738 2206.14,256.013 2222.98,263.258 2239.82,274.192 2256.67,286.91 2273.51,298.731 2290.35,307.924 2307.19,308.396 2324.04,301.508 2340.88,284.415 2357.72,265.523 2374.56,255.283 2391.41,250.726 2408.25,250.881 2425.09,255.389 2441.94,261.792 2458.78,267.922 2475.62,271.17 2492.46,272.43 2509.31,271.302 2526.15,270.742 2542.99,270.116 2559.83,268.959 2576.68,264.975 2593.52,260.155 2610.36,258.443 2627.21,265.708 2644.05,276.669 2660.89,289.425 2677.73,301.274 2694.58,310.515 2711.42,311.025 2728.26,304.171 2745.1,287.065 2761.95,268.114 2778.79,257.756 2795.63,253.074 2812.48,253.106 2829.32,257.499 2846.16,263.809 2863,269.856 2879.85,273.031 2896.69,274.238 2913.53,273.088 2930.37,272.518 2947.22,271.871 2964.06,270.701 2980.9,266.716 2997.75,261.905 3014.59,260.201 3031.43,267.479 3048.27,278.458 3065.12,291.233 3081.96,303.115 3098.8,312.372 3115.64,312.913 3132.49,306.054 3149.33,288.945 3166.17,269.94 3183.01,259.505 3199.86,254.726 3216.7,254.652 3233.54,258.975 3250.39,265.219 3267.23,271.211 3284.07,274.338 3300.91,275.519 3317.76,274.315 3334.6,273.728 3351.44,273.063 3368.28,271.887 3385.13,267.903 3401.97,263.096 3418.81,261.399 3435.66,268.684 3452.5,279.673 3469.34,292.463 3486.18,304.349 3503.03,313.624 3519.87,314.169 3536.71,307.347 3553.55,290.22 3570.4,271.168 3587.24,260.674 3604.08,255.837 3620.93,255.728 3637.77,259.992 3654.61,266.191 3671.45,272.143 3688.3,275.24 3705.14,276.401 3721.98,275.193 3738.82,274.579 3755.67,273.915 3772.51,272.74 3789.35,268.763 3806.2,263.958 3823.04,262.265 3839.88,269.555 3856.72,280.552 3873.57,293.344 3890.41,305.248 3907.25,314.532 3924.09,315.103 3940.94,308.261 3957.78,291.145 3974.62,272.092 3991.47,261.541 4008.31,256.666 4025.15,256.492 4041.99,260.713 4058.84,266.883 4075.68,272.813 4092.52,275.878 4109.36,277.019 4126.21,275.811 4143.05,275.187 4159.89,274.531 4176.74,273.36 4193.58,269.38 4210.42,264.581 4227.26,262.892 4244.11,270.188 4260.95,281.19 4277.79,293.997 4294.63,305.904 4311.48,315.187 4328.32,315.76 4345.16,308.932 4362,291.809 4378.85,272.691 4395.69,262.134 4412.53,257.232 4429.38,257.025 4446.22,261.234 4463.06,267.384 4479.9,273.295 4496.75,276.344 4513.59,277.475 4530.43,276.25 4547.27,275.63 4564.12,274.971 4580.96,273.795 4597.8,269.819 4614.65,265.023 4631.49,263.338 "/>
<path clip-path="url(#clip842)" d="M589.237 243.117 L606.08 272.157 L622.922 301.502 L639.765 328.989 L656.608 353.583 L673.451 374.174 L690.293 376.328 L707.136 364.471 L723.979 330.13 L740.821 288.479 L757.664 267.755 L774.507 259.082 L791.35 260.277 L808.192 269.148 L825.035 277.8 L841.878 288.206 L858.72 292.737 L875.563 293.647 L892.406 290.071 L909.249 291.35 L926.091 293.28 L942.934 296.361 L959.777 298.804 L976.619 300.357 L993.462 304.498 L1010.3 323.412 L1027.15 343.237 L1043.99 363.2 L1060.83 380.129 L1077.68 395.797 L1094.52 393.544 L1111.36 377.509 L1128.2 341.399 L1145.05 301.603 L1161.89 278.519 L1178.73 271.302 L1195.57 272.529 L1212.42 281.173 L1229.26 291.175 L1246.1 298.393 L1262.95 301.217 L1279.79 302.229 L1296.63 300.449 L1313.47 302.434 L1330.32 305.84 L1347.16 309.927 L1364 313.98 L1380.84 314.475 L1397.69 318.885 L1414.53 339.322 L1431.37 359.065 L1448.22 379.208 L1465.06 397.912 L1481.9 414.217 L1498.74 411.404 L1515.59 396.143 L1532.43 359.511 L1549.27 319.176 L1566.11 295.868 L1582.96 285.702 L1599.8 287.192 L1616.64 294.559 L1633.49 303.366 L1650.33 309.581 L1667.17 312.916 L1684.01 312.503 L1700.86 310.941 L1717.7 313.058 L1734.54 317.427 L1751.38 323.162 L1768.23 323.87 L1785.07 325.788 L1801.91 330.925 L1818.76 350.44 L1835.6 369.809 L1852.44 391.53 L1869.28 411.724 L1886.13 425.232 L1902.97 422.961 L1919.81 407.419 L1936.65 369.897 L1953.5 331.857 L1970.34 306.408 L1987.18 294.082 L2004.02 297.682 L2020.87 304.456 L2037.71 312.805 L2054.55 319.776 L2071.4 322.704 L2088.24 321.444 L2105.08 318.591 L2121.92 319.456 L2138.77 325.366 L2155.61 330.932 L2172.45 332.5 L2189.29 335.417 L2206.14 338.588 L2222.98 357.338 L2239.82 377.818 L2256.67 400.262 L2273.51 419.888 L2290.35 432.847 L2307.19 431.594 L2324.04 414.972 L2340.88 380.043 L2357.72 338.323 L2374.56 314.762 L2391.41 303.889 L2408.25 305.938 L2425.09 312.613 L2441.94 320.361 L2458.78 327.261 L2475.62 328.634 L2492.46 326.814 L2509.31 325.124 L2526.15 327.474 L2542.99 332.232 L2559.83 336.288 L2576.68 337.998 L2593.52 339.244 L2610.36 343.596 L2627.21 361.155 L2644.05 384.916 L2660.89 408.122 L2677.73 425.766 L2694.58 440.266 L2711.42 437.055 L2728.26 422.48 L2745.1 385.257 L2761.95 346.076 L2778.79 320.824 L2795.63 310.845 L2812.48 311.394 L2829.32 317.702 L2846.16 326.633 L2863 331.898 L2879.85 332.824 L2896.69 332.802 L2913.53 329.878 L2930.37 332.161 L2947.22 337.064 L2964.06 341.065 L2980.9 343.197 L2997.75 343.48 L3014.59 347.13 L3031.43 364.348 L3048.27 387.581 L3065.12 411.436 L3081.96 430.64 L3098.8 444.418 L3115.64 443.34 L3132.49 428.196 L3149.33 390.296 L3166.17 349.689 L3183.01 325.459 L3199.86 315.543 L3216.7 315.26 L3233.54 320.286 L3250.39 329.211 L3267.23 336.162 L3284.07 337.867 L3300.91 336.326 L3317.76 332.174 L3334.6 334.62 L3351.44 339.744 L3368.28 343.443 L3385.13 346.381 L3401.97 346.645 L3418.81 350.258 L3435.66 366.968 L3452.5 389.688 L3469.34 413.011 L3486.18 433.173 L3503.03 447.619 L3519.87 446.617 L3536.71 431.276 L3553.55 394.102 L3570.4 352.505 L3587.24 328.32 L3604.08 319.173 L3620.93 317.786 L3637.77 323.406 L3654.61 331.045 L3671.45 338.167 L3688.3 339.604 L3705.14 338.889 L3721.98 334.756 L3738.82 336.357 L3755.67 340.705 L3772.51 345.783 L3789.35 348.459 L3806.2 347.964 L3823.04 351.456 L3839.88 370.24 L3856.72 391.256 L3873.57 414.405 L3890.41 435.679 L3907.25 449.84 L3924.09 449.503 L3940.94 432.967 L3957.78 396.503 L3974.62 353.914 L3991.47 329.839 L4008.31 321.595 L4025.15 320.246 L4041.99 326.245 L4058.84 333.647 L4075.68 340.128 L4092.52 341.691 L4109.36 339.669 L4126.21 335.8 L4143.05 336.78 L4159.89 342.436 L4176.74 347.206 L4193.58 349.607 L4210.42 348.823 L4227.26 352.135 L4244.11 371.312 L4260.95 392.569 L4277.79 415.85 L4294.63 437.042 L4311.48 452.319 L4328.32 450.008 L4345.16 434.491 L4362 397.836 L4378.85 354.957 L4395.69 332.197 L4412.53 323.851 L4429.38 322.562 L4446.22 328.137 L4463.06 336.013 L4479.9 341.518 L4496.75 343.62 L4513.59 340.441 L4530.43 337.476 L4547.27 338.213 L4564.12 343.018 L4580.96 349.664 L4597.8 350.142 L4614.65 349.998 L4631.49 353.839 L4631.49 131.425 L4614.65 142.936 L4597.8 162.076 L4580.96 181.293 L4564.12 189.968 L4547.27 196.215 L4530.43 200.451 L4513.59 201.498 L4496.75 197.576 L4479.9 187.499 L4463.06 170.367 L4446.22 153.945 L4429.38 144.342 L4412.53 144.229 L4395.69 152.48 L4378.85 172.007 L4362 207.662 L4345.16 239.49 L4328.32 252.011 L4311.48 247.345 L4294.63 226.256 L4277.79 197.143 L4260.95 166.924 L4244.11 142.763 L4227.26 130.864 L4210.42 142.448 L4193.58 161.565 L4176.74 180.742 L4159.89 189.49 L4143.05 195.356 L4126.21 199.829 L4109.36 201.211 L4092.52 196.761 L4075.68 186.89 L4058.84 170.193 L4041.99 153.077 L4025.15 143.793 L4008.31 143.119 L3991.47 152.244 L3974.62 170.58 L3957.78 206.408 L3940.94 238.129 L3924.09 251.432 L3907.25 246.443 L3890.41 224.681 L3873.57 196.033 L3856.72 166.185 L3839.88 141.528 L3823.04 130.128 L3806.2 141.774 L3789.35 160.971 L3772.51 179.814 L3755.67 188.706 L3738.82 194.573 L3721.98 198.839 L3705.14 200.544 L3688.3 195.794 L3671.45 186.399 L3654.61 169.309 L3637.77 152.489 L3620.93 142.379 L3604.08 142.396 L3587.24 151.113 L3570.4 169.384 L3553.55 204.699 L3536.71 236.612 L3519.87 249.774 L3503.03 245.703 L3486.18 223.366 L3469.34 194.635 L3452.5 164.626 L3435.66 140.427 L3418.81 128.807 L3401.97 140.611 L3385.13 159.765 L3368.28 178.322 L3351.44 187.112 L3334.6 193.555 L3317.76 197.838 L3300.91 199.381 L3284.07 194.213 L3267.23 184.676 L3250.39 168.071 L3233.54 151.329 L3216.7 141.194 L3199.86 140.566 L3183.01 149.406 L3166.17 167.557 L3149.33 203.306 L3132.49 235.352 L3115.64 247.835 L3098.8 243.517 L3081.96 221.995 L3065.12 192.96 L3048.27 162.491 L3031.43 138.866 L3014.59 126.869 L2997.75 138.467 L2980.9 157.801 L2964.06 176.139 L2947.22 185.015 L2930.37 191.802 L2913.53 195.612 L2896.69 197.034 L2879.85 192.184 L2863 183.097 L2846.16 165.976 L2829.32 149.467 L2812.48 139.158 L2795.63 138.509 L2778.79 147.209 L2761.95 164.211 L2745.1 200.261 L2728.26 232.044 L2711.42 244.54 L2694.58 240.706 L2677.73 218.637 L2660.89 189.957 L2644.05 160.328 L2627.21 135.95 L2610.36 124.266 L2593.52 136.076 L2576.68 155.712 L2559.83 173.766 L2542.99 182.32 L2526.15 188.714 L2509.31 192.707 L2492.46 194.54 L2475.62 189.407 L2458.78 180.567 L2441.94 163.209 L2425.09 146.722 L2408.25 136.473 L2391.41 135.049 L2374.56 143.319 L2357.72 160.68 L2340.88 194.969 L2324.04 227.564 L2307.19 240.306 L2290.35 236.806 L2273.51 214.174 L2256.67 186.126 L2239.82 156.391 L2222.98 132.397 L2206.14 121.104 L2189.29 132.202 L2172.45 152.505 L2155.61 169.443 L2138.77 178.46 L2121.92 184.506 L2105.08 188.418 L2088.24 190.151 L2071.4 185.593 L2054.55 176.343 L2037.71 159.476 L2020.87 142.309 L2004.02 131.458 L1987.18 130.091 L1970.34 137.443 L1953.5 154.761 L1936.65 189.663 L1919.81 222.205 L1902.97 235.048 L1886.13 231.867 L1869.28 208.806 L1852.44 180.865 L1835.6 152.019 L1818.76 127.597 L1801.91 115.785 L1785.07 127.156 L1768.23 147.531 L1751.38 164.929 L1734.54 173.054 L1717.7 178.954 L1700.86 182.783 L1684.01 184.722 L1667.17 179.911 L1650.33 171.047 L1633.49 154.31 L1616.64 137.477 L1599.8 125.308 L1582.96 123.302 L1566.11 129.364 L1549.27 147.356 L1532.43 181.132 L1515.59 212.967 L1498.74 227.524 L1481.9 224.105 L1465.06 201.976 L1448.22 174.31 L1431.37 144.828 L1414.53 121.155 L1397.69 109.574 L1380.84 120.612 L1364 140.926 L1347.16 158.151 L1330.32 167.036 L1313.47 172.97 L1296.63 176.363 L1279.79 178.174 L1262.95 174.215 L1246.1 165.707 L1229.26 148.346 L1212.42 131.641 L1195.57 120.242 L1178.73 117.325 L1161.89 124.186 L1145.05 141.326 L1128.2 175.696 L1111.36 208.518 L1094.52 222.649 L1077.68 219.869 L1060.83 198.451 L1043.99 170.705 L1027.15 142.355 L1010.3 119.801 L993.462 108.79 L976.619 120.916 L959.777 142.767 L942.934 161.151 L926.091 171.584 L909.249 178.618 L892.406 183.869 L875.563 187.294 L858.72 185.07 L841.878 177.825 L825.035 164.122 L808.192 152.317 L791.35 147.1 L774.507 153.975 L757.664 172.869 L740.821 201.188 L723.979 242.171 L707.136 278.561 L690.293 295.693 L673.451 298.48 L656.608 282.879 L639.765 260.922 L622.922 239.107 L606.08 223.041 L589.237 217.536  Z" fill="#414141" fill-rule="evenodd" fill-opacity="0.5"/>
<polyline clip-path="url(#clip842)" style="stroke:#414141; stroke-linecap:round; stroke-linejoin:round; stroke-width:0; stroke-opacity:1; fill:none" points="589.237,259.467 606.08,267.962 622.922,279.124 639.765,291.567 656.608,302.8 673.451,311.256 690.293,310.928 707.136,303.268 723.979,285.127 740.821,264.802 757.664,252.803 774.507,246.514 791.35,245.071 808.192,248.256 825.035,253.627 841.878,258.947 858.72,261.565 875.563,262.325 892.406,260.693 909.249,259.611 926.091,258.481 942.934,256.853 959.777,252.4 976.619,247.105 993.462,244.918 1010.3,251.692 1027.15,262.14 1043.99,274.361 1060.83,285.685 1077.68,294.389 1094.52,294.428 1111.36,287.172 1128.2,270.02 1145.05,251.448 1161.89,241.806 1178.73,237.925 1195.57,238.692 1212.42,243.75 1229.26,250.634 1246.1,257.165 1262.95,260.741 1279.79,262.235 1296.63,261.261 1313.47,260.721 1330.32,260.104 1347.16,258.93 1364,254.896 1380.84,249.979 1397.69,248.157 1414.53,255.279 1431.37,266.066 1448.22,278.623 1465.06,290.27 1481.9,299.289 1498.74,299.608 1515.59,292.596 1532.43,275.505 1549.27,256.866 1566.11,247.024 1582.96,242.898 1599.8,243.479 1616.64,248.373 1633.49,255.103 1650.33,261.51 1667.17,264.987 1684.01,266.433 1700.86,265.401 1717.7,264.908 1734.54,264.334 1751.38,263.197 1768.23,259.217 1785.07,254.372 1801.91,252.625 1818.76,259.834 1835.6,270.72 1852.44,283.388 1869.28,295.137 1886.13,304.264 1902.97,304.696 1919.81,297.763 1936.65,280.69 1953.5,261.906 1970.34,251.816 1987.18,247.44 2004.02,247.766 2020.87,252.425 2037.71,258.964 2054.55,265.208 2071.4,268.551 2088.24,269.898 2105.08,268.819 2121.92,268.284 2138.77,267.684 2155.61,266.542 2172.45,262.565 2189.29,257.738 2206.14,256.013 2222.98,263.258 2239.82,274.192 2256.67,286.91 2273.51,298.731 2290.35,307.924 2307.19,308.396 2324.04,301.508 2340.88,284.415 2357.72,265.523 2374.56,255.283 2391.41,250.726 2408.25,250.881 2425.09,255.389 2441.94,261.792 2458.78,267.922 2475.62,271.17 2492.46,272.43 2509.31,271.302 2526.15,270.742 2542.99,270.116 2559.83,268.959 2576.68,264.975 2593.52,260.155 2610.36,258.443 2627.21,265.708 2644.05,276.669 2660.89,289.425 2677.73,301.274 2694.58,310.515 2711.42,311.025 2728.26,304.171 2745.1,287.065 2761.95,268.114 2778.79,257.756 2795.63,253.074 2812.48,253.106 2829.32,257.499 2846.16,263.809 2863,269.856 2879.85,273.031 2896.69,274.238 2913.53,273.088 2930.37,272.518 2947.22,271.871 2964.06,270.701 2980.9,266.716 2997.75,261.905 3014.59,260.201 3031.43,267.479 3048.27,278.458 3065.12,291.233 3081.96,303.115 3098.8,312.372 3115.64,312.913 3132.49,306.054 3149.33,288.945 3166.17,269.94 3183.01,259.505 3199.86,254.726 3216.7,254.652 3233.54,258.975 3250.39,265.219 3267.23,271.211 3284.07,274.338 3300.91,275.519 3317.76,274.315 3334.6,273.728 3351.44,273.063 3368.28,271.887 3385.13,267.903 3401.97,263.096 3418.81,261.399 3435.66,268.684 3452.5,279.673 3469.34,292.463 3486.18,304.349 3503.03,313.624 3519.87,314.169 3536.71,307.347 3553.55,290.22 3570.4,271.168 3587.24,260.674 3604.08,255.837 3620.93,255.728 3637.77,259.992 3654.61,266.191 3671.45,272.143 3688.3,275.24 3705.14,276.401 3721.98,275.193 3738.82,274.579 3755.67,273.915 3772.51,272.74 3789.35,268.763 3806.2,263.958 3823.04,262.265 3839.88,269.555 3856.72,280.552 3873.57,293.344 3890.41,305.248 3907.25,314.532 3924.09,315.103 3940.94,308.261 3957.78,291.145 3974.62,272.092 3991.47,261.541 4008.31,256.666 4025.15,256.492 4041.99,260.713 4058.84,266.883 4075.68,272.813 4092.52,275.878 4109.36,277.019 4126.21,275.811 4143.05,275.187 4159.89,274.531 4176.74,273.36 4193.58,269.38 4210.42,264.581 4227.26,262.892 4244.11,270.188 4260.95,281.19 4277.79,293.997 4294.63,305.904 4311.48,315.187 4328.32,315.76 4345.16,308.932 4362,291.809 4378.85,272.691 4395.69,262.134 4412.53,257.232 4429.38,257.025 4446.22,261.234 4463.06,267.384 4479.9,273.295 4496.75,276.344 4513.59,277.475 4530.43,276.25 4547.27,275.63 4564.12,274.971 4580.96,273.795 4597.8,269.819 4614.65,265.023 4631.49,263.338 "/>
<path clip-path="url(#clip840)" d="M3862.18 592.384 L4609.93 592.384 L4609.93 73.9845 L3862.18 73.9845  Z" fill="#ffffff" fill-rule="evenodd" fill-opacity="1"/>
<polyline clip-path="url(#clip840)" style="stroke:#000000; stroke-linecap:round; stroke-linejoin:round; stroke-width:4; stroke-opacity:1; fill:none" points="3862.18,592.384 4609.93,592.384 4609.93,73.9845 3862.18,73.9845 3862.18,592.384 "/>
<polyline clip-path="url(#clip840)" style="stroke:#aeaeae; stroke-linecap:round; stroke-linejoin:round; stroke-width:2; stroke-opacity:1; fill:none" points="3909.79,203.584 4195.44,203.584 "/>
<path clip-path="url(#clip840)" d="M4244.73 236.947 L4263.83 236.947 L4263.83 171.033 L4243.05 175.199 L4243.05 164.551 L4263.71 160.384 L4275.4 160.384 L4275.4 236.947 L4294.5 236.947 L4294.5 246.784 L4244.73 246.784 L4244.73 236.947 Z" fill="#000000" fill-rule="nonzero" fill-opacity="1" /><path clip-path="url(#clip840)" d="M4343.11 168.081 Q4334.08 168.081 4329.51 176.993 Q4325 185.847 4325 203.671 Q4325 221.437 4329.51 230.349 Q4334.08 239.203 4343.11 239.203 Q4352.19 239.203 4356.71 230.349 Q4361.28 221.437 4361.28 203.671 Q4361.28 185.847 4356.71 176.993 Q4352.19 168.081 4343.11 168.081 M4343.11 158.822 Q4357.63 158.822 4365.27 170.338 Q4372.97 181.796 4372.97 203.671 Q4372.97 225.488 4365.27 237.004 Q4357.63 248.463 4343.11 248.463 Q4328.58 248.463 4320.89 237.004 Q4313.25 225.488 4313.25 203.671 Q4313.25 181.796 4320.89 170.338 Q4328.58 158.822 4343.11 158.822 Z" fill="#000000" fill-rule="nonzero" fill-opacity="1" /><path clip-path="url(#clip840)" d="M4418.51 168.081 Q4409.49 168.081 4404.91 176.993 Q4400.4 185.847 4400.4 203.671 Q4400.4 221.437 4404.91 230.349 Q4409.49 239.203 4418.51 239.203 Q4427.6 239.203 4432.11 230.349 Q4436.69 221.437 4436.69 203.671 Q4436.69 185.847 4432.11 176.993 Q4427.6 168.081 4418.51 168.081 M4418.51 158.822 Q4433.04 158.822 4440.68 170.338 Q4448.37 181.796 4448.37 203.671 Q4448.37 225.488 4440.68 237.004 Q4433.04 248.463 4418.51 248.463 Q4403.99 248.463 4396.29 237.004 Q4388.65 225.488 4388.65 203.671 Q4388.65 181.796 4396.29 170.338 Q4403.99 158.822 4418.51 158.822 Z" fill="#000000" fill-rule="nonzero" fill-opacity="1" /><path clip-path="url(#clip840)" d="M4542.41 208.764 Q4537.38 208.764 4534.49 213.046 Q4531.65 217.329 4531.65 224.967 Q4531.65 232.491 4534.49 236.831 Q4537.38 241.113 4542.41 241.113 Q4547.33 241.113 4550.17 236.831 Q4553.06 232.491 4553.06 224.967 Q4553.06 217.386 4550.17 213.104 Q4547.33 208.764 4542.41 208.764 M4542.41 201.414 Q4551.56 201.414 4556.94 207.78 Q4562.32 214.146 4562.32 224.967 Q4562.32 235.789 4556.88 242.155 Q4551.5 248.463 4542.41 248.463 Q4533.15 248.463 4527.77 242.155 Q4522.39 235.789 4522.39 224.967 Q4522.39 214.088 4527.77 207.78 Q4533.21 201.414 4542.41 201.414 M4482.69 166.171 Q4477.71 166.171 4474.82 170.512 Q4471.99 174.794 4471.99 182.317 Q4471.99 189.956 4474.82 194.238 Q4477.66 198.521 4482.69 198.521 Q4487.73 198.521 4490.56 194.238 Q4493.46 189.956 4493.46 182.317 Q4493.46 174.852 4490.56 170.512 Q4487.67 166.171 4482.69 166.171 M4534.95 158.822 L4544.21 158.822 L4490.16 248.463 L4480.9 248.463 L4534.95 158.822 M4482.69 158.822 Q4491.84 158.822 4497.28 165.188 Q4502.71 171.496 4502.71 182.317 Q4502.71 193.255 4497.28 199.563 Q4491.89 205.87 4482.69 205.87 Q4473.49 205.87 4468.11 199.563 Q4462.78 193.197 4462.78 182.317 Q4462.78 171.553 4468.17 165.188 Q4473.55 158.822 4482.69 158.822 Z" fill="#000000" fill-rule="nonzero" fill-opacity="1" /><polyline clip-path="url(#clip840)" style="stroke:#757575; stroke-linecap:round; stroke-linejoin:round; stroke-width:2; stroke-opacity:1; fill:none" points="3909.79,333.184 4195.44,333.184 "/>
<path clip-path="url(#clip840)" d="M4248.61 374.591 L4248.61 363.942 Q4253.01 366.026 4257.52 367.125 Q4262.03 368.225 4266.37 368.225 Q4277.95 368.225 4284.02 360.47 Q4290.16 352.658 4291.03 336.801 Q4287.67 341.778 4282.52 344.44 Q4277.37 347.102 4271.12 347.102 Q4258.16 347.102 4250.57 339.29 Q4243.05 331.419 4243.05 317.82 Q4243.05 304.51 4250.92 296.466 Q4258.79 288.422 4271.87 288.422 Q4286.86 288.422 4294.73 299.938 Q4302.66 311.396 4302.66 333.271 Q4302.66 353.699 4292.94 365.91 Q4283.27 378.063 4266.89 378.063 Q4262.5 378.063 4257.98 377.195 Q4253.47 376.327 4248.61 374.591 M4271.87 337.959 Q4279.74 337.959 4284.31 332.577 Q4288.94 327.195 4288.94 317.82 Q4288.94 308.503 4284.31 303.121 Q4279.74 297.681 4271.87 297.681 Q4264 297.681 4259.37 303.121 Q4254.8 308.503 4254.8 317.82 Q4254.8 327.195 4259.37 332.577 Q4264 337.959 4271.87 337.959 Z" fill="#000000" fill-rule="nonzero" fill-opacity="1" /><path clip-path="url(#clip840)" d="M4348.66 297.681 Q4339.64 297.681 4335.07 306.593 Q4330.55 315.447 4330.55 333.271 Q4330.55 351.037 4335.07 359.949 Q4339.64 368.803 4348.66 368.803 Q4357.75 368.803 4362.26 359.949 Q4366.84 351.037 4366.84 333.271 Q4366.84 315.447 4362.26 306.593 Q4357.75 297.681 4348.66 297.681 M4348.66 288.422 Q4363.19 288.422 4370.83 299.938 Q4378.53 311.396 4378.53 333.271 Q4378.53 355.088 4370.83 366.604 Q4363.19 378.063 4348.66 378.063 Q4334.14 378.063 4326.44 366.604 Q4318.8 355.088 4318.8 333.271 Q4318.8 311.396 4326.44 299.938 Q4334.14 288.422 4348.66 288.422 Z" fill="#000000" fill-rule="nonzero" fill-opacity="1" /><path clip-path="url(#clip840)" d="M4472.56 338.364 Q4467.53 338.364 4464.64 342.646 Q4461.8 346.929 4461.8 354.567 Q4461.8 362.091 4464.64 366.431 Q4467.53 370.713 4472.56 370.713 Q4477.48 370.713 4480.32 366.431 Q4483.21 362.091 4483.21 354.567 Q4483.21 346.986 4480.32 342.704 Q4477.48 338.364 4472.56 338.364 M4472.56 331.014 Q4481.71 331.014 4487.09 337.38 Q4492.47 343.746 4492.47 354.567 Q4492.47 365.389 4487.03 371.755 Q4481.65 378.063 4472.56 378.063 Q4463.31 378.063 4457.92 371.755 Q4452.54 365.389 4452.54 354.567 Q4452.54 343.688 4457.92 337.38 Q4463.36 331.014 4472.56 331.014 M4412.84 295.771 Q4407.87 295.771 4404.97 300.112 Q4402.14 304.394 4402.14 311.917 Q4402.14 319.556 4404.97 323.838 Q4407.81 328.121 4412.84 328.121 Q4417.88 328.121 4420.71 323.838 Q4423.61 319.556 4423.61 311.917 Q4423.61 304.452 4420.71 300.112 Q4417.82 295.771 4412.84 295.771 M4465.1 288.422 L4474.36 288.422 L4420.31 378.063 L4411.05 378.063 L4465.1 288.422 M4412.84 288.422 Q4421.99 288.422 4427.43 294.788 Q4432.87 301.096 4432.87 311.917 Q4432.87 322.855 4427.43 329.163 Q4422.04 335.47 4412.84 335.47 Q4403.64 335.47 4398.26 329.163 Q4392.94 322.797 4392.94 311.917 Q4392.94 301.153 4398.32 294.788 Q4403.7 288.422 4412.84 288.422 Z" fill="#000000" fill-rule="nonzero" fill-opacity="1" /><polyline clip-path="url(#clip840)" style="stroke:#414141; stroke-linecap:round; stroke-linejoin:round; stroke-width:2; stroke-opacity:1; fill:none" points="3909.79,462.784 4195.44,462.784 "/>
<path clip-path="url(#clip840)" d="M4272.68 464.955 Q4264.35 464.955 4259.54 469.411 Q4254.8 473.867 4254.8 481.679 Q4254.8 489.492 4259.54 493.947 Q4264.35 498.403 4272.68 498.403 Q4281.01 498.403 4285.82 493.947 Q4290.62 489.434 4290.62 481.679 Q4290.62 473.867 4285.82 469.411 Q4281.07 464.955 4272.68 464.955 M4260.99 459.978 Q4253.47 458.126 4249.24 452.975 Q4245.08 447.825 4245.08 440.418 Q4245.08 430.059 4252.43 424.04 Q4259.83 418.022 4272.68 418.022 Q4285.59 418.022 4292.94 424.04 Q4300.29 430.059 4300.29 440.418 Q4300.29 447.825 4296.06 452.975 Q4291.89 458.126 4284.43 459.978 Q4292.88 461.945 4297.57 467.674 Q4302.31 473.404 4302.31 481.679 Q4302.31 494.237 4294.61 500.95 Q4286.98 507.663 4272.68 507.663 Q4258.39 507.663 4250.69 500.95 Q4243.05 494.237 4243.05 481.679 Q4243.05 473.404 4247.8 467.674 Q4252.54 461.945 4260.99 459.978 M4256.71 441.517 Q4256.71 448.23 4260.88 451.992 Q4265.1 455.753 4272.68 455.753 Q4280.2 455.753 4284.43 451.992 Q4288.71 448.23 4288.71 441.517 Q4288.71 434.804 4284.43 431.043 Q4280.2 427.281 4272.68 427.281 Q4265.1 427.281 4260.88 431.043 Q4256.71 434.804 4256.71 441.517 Z" fill="#000000" fill-rule="nonzero" fill-opacity="1" /><path clip-path="url(#clip840)" d="M4348.09 427.281 Q4339.06 427.281 4334.49 436.193 Q4329.97 445.047 4329.97 462.871 Q4329.97 480.637 4334.49 489.549 Q4339.06 498.403 4348.09 498.403 Q4357.17 498.403 4361.69 489.549 Q4366.26 480.637 4366.26 462.871 Q4366.26 445.047 4361.69 436.193 Q4357.17 427.281 4348.09 427.281 M4348.09 418.022 Q4362.61 418.022 4370.25 429.538 Q4377.95 440.996 4377.95 462.871 Q4377.95 484.688 4370.25 496.204 Q4362.61 507.663 4348.09 507.663 Q4333.56 507.663 4325.86 496.204 Q4318.23 484.688 4318.23 462.871 Q4318.23 440.996 4325.86 429.538 Q4333.56 418.022 4348.09 418.022 Z" fill="#000000" fill-rule="nonzero" fill-opacity="1" /><path clip-path="url(#clip840)" d="M4471.99 467.964 Q4466.95 467.964 4464.06 472.246 Q4461.22 476.529 4461.22 484.167 Q4461.22 491.691 4464.06 496.031 Q4466.95 500.313 4471.99 500.313 Q4476.9 500.313 4479.74 496.031 Q4482.63 491.691 4482.63 484.167 Q4482.63 476.586 4479.74 472.304 Q4476.9 467.964 4471.99 467.964 M4471.99 460.614 Q4481.13 460.614 4486.51 466.98 Q4491.89 473.346 4491.89 484.167 Q4491.89 494.989 4486.45 501.355 Q4481.07 507.663 4471.99 507.663 Q4462.73 507.663 4457.34 501.355 Q4451.96 494.989 4451.96 484.167 Q4451.96 473.288 4457.34 466.98 Q4462.78 460.614 4471.99 460.614 M4412.26 425.371 Q4407.29 425.371 4404.39 429.712 Q4401.56 433.994 4401.56 441.517 Q4401.56 449.156 4404.39 453.438 Q4407.23 457.721 4412.26 457.721 Q4417.3 457.721 4420.13 453.438 Q4423.03 449.156 4423.03 441.517 Q4423.03 434.052 4420.13 429.712 Q4417.24 425.371 4412.26 425.371 M4464.52 418.022 L4473.78 418.022 L4419.73 507.663 L4410.47 507.663 L4464.52 418.022 M4412.26 418.022 Q4421.41 418.022 4426.85 424.388 Q4432.29 430.696 4432.29 441.517 Q4432.29 452.455 4426.85 458.763 Q4421.47 465.07 4412.26 465.07 Q4403.06 465.07 4397.68 458.763 Q4392.36 452.397 4392.36 441.517 Q4392.36 430.753 4397.74 424.388 Q4403.12 418.022 4412.26 418.022 Z" fill="#000000" fill-rule="nonzero" fill-opacity="1" /></svg>
