<?xml version="1.0" encoding="utf-8"?>
<svg xmlns="http://www.w3.org/2000/svg" xmlns:xlink="http://www.w3.org/1999/xlink" width="1200" height="300" viewBox="0 0 4800 1200">
<defs>
  <clipPath id="clip860">
    <rect x="0" y="0" width="4800" height="1200"/>
  </clipPath>
</defs>
<path clip-path="url(#clip860)" d="M0 1200 L4800 1200 L4800 0 L0 0  Z" fill="#ffffff" fill-rule="evenodd" fill-opacity="1"/>
<defs>
  <clipPath id="clip861">
    <rect x="960" y="0" width="3361" height="1200"/>
  </clipPath>
</defs>
<path clip-path="url(#clip860)" d="M467.969 849.455 L4752.76 849.455 L4752.76 47.2441 L467.969 47.2441  Z" fill="#ffffff" fill-rule="evenodd" fill-opacity="1"/>
<defs>
  <clipPath id="clip862">
    <rect x="467" y="47" width="4286" height="803"/>
  </clipPath>
</defs>
<polyline clip-path="url(#clip862)" style="stroke:#000000; stroke-linecap:round; stroke-linejoin:round; stroke-width:2; stroke-opacity:0.1; fill:none" points="589.237,849.455 589.237,47.2441 "/>
<polyline clip-path="url(#clip862)" style="stroke:#000000; stroke-linecap:round; stroke-linejoin:round; stroke-width:2; stroke-opacity:0.1; fill:none" points="1397.69,849.455 1397.69,47.2441 "/>
<polyline clip-path="url(#clip862)" style="stroke:#000000; stroke-linecap:round; stroke-linejoin:round; stroke-width:2; stroke-opacity:0.1; fill:none" points="2206.14,849.455 2206.14,47.2441 "/>
<polyline clip-path="url(#clip862)" style="stroke:#000000; stroke-linecap:round; stroke-linejoin:round; stroke-width:2; stroke-opacity:0.1; fill:none" points="3014.59,849.455 3014.59,47.2441 "/>
<polyline clip-path="url(#clip862)" style="stroke:#000000; stroke-linecap:round; stroke-linejoin:round; stroke-width:2; stroke-opacity:0.1; fill:none" points="3823.04,849.455 3823.04,47.2441 "/>
<polyline clip-path="url(#clip862)" style="stroke:#000000; stroke-linecap:round; stroke-linejoin:round; stroke-width:2; stroke-opacity:0.1; fill:none" points="4631.49,849.455 4631.49,47.2441 "/>
<polyline clip-path="url(#clip862)" style="stroke:#000000; stroke-linecap:round; stroke-linejoin:round; stroke-width:2; stroke-opacity:0.1; fill:none" points="467.969,736.564 4752.76,736.564 "/>
<polyline clip-path="url(#clip862)" style="stroke:#000000; stroke-linecap:round; stroke-linejoin:round; stroke-width:2; stroke-opacity:0.1; fill:none" points="467.969,621.473 4752.76,621.473 "/>
<polyline clip-path="url(#clip862)" style="stroke:#000000; stroke-linecap:round; stroke-linejoin:round; stroke-width:2; stroke-opacity:0.1; fill:none" points="467.969,506.382 4752.76,506.382 "/>
<polyline clip-path="url(#clip862)" style="stroke:#000000; stroke-linecap:round; stroke-linejoin:round; stroke-width:2; stroke-opacity:0.1; fill:none" points="467.969,391.291 4752.76,391.291 "/>
<polyline clip-path="url(#clip862)" style="stroke:#000000; stroke-linecap:round; stroke-linejoin:round; stroke-width:2; stroke-opacity:0.1; fill:none" points="467.969,276.2 4752.76,276.2 "/>
<polyline clip-path="url(#clip862)" style="stroke:#000000; stroke-linecap:round; stroke-linejoin:round; stroke-width:2; stroke-opacity:0.1; fill:none" points="467.969,161.109 4752.76,161.109 "/>
<polyline clip-path="url(#clip860)" style="stroke:#000000; stroke-linecap:round; stroke-linejoin:round; stroke-width:4; stroke-opacity:1; fill:none" points="467.969,849.455 4752.76,849.455 "/>
<polyline clip-path="url(#clip860)" style="stroke:#000000; stroke-linecap:round; stroke-linejoin:round; stroke-width:4; stroke-opacity:1; fill:none" points="589.237,849.455 589.237,830.558 "/>
<polyline clip-path="url(#clip860)" style="stroke:#000000; stroke-linecap:round; stroke-linejoin:round; stroke-width:4; stroke-opacity:1; fill:none" points="1397.69,849.455 1397.69,830.558 "/>
<polyline clip-path="url(#clip860)" style="stroke:#000000; stroke-linecap:round; stroke-linejoin:round; stroke-width:4; stroke-opacity:1; fill:none" points="2206.14,849.455 2206.14,830.558 "/>
<polyline clip-path="url(#clip860)" style="stroke:#000000; stroke-linecap:round; stroke-linejoin:round; stroke-width:4; stroke-opacity:1; fill:none" points="3014.59,849.455 3014.59,830.558 "/>
<polyline clip-path="url(#clip860)" style="stroke:#000000; stroke-linecap:round; stroke-linejoin:round; stroke-width:4; stroke-opacity:1; fill:none" points="3823.04,849.455 3823.04,830.558 "/>
<polyline clip-path="url(#clip860)" style="stroke:#000000; stroke-linecap:round; stroke-linejoin:round; stroke-width:4; stroke-opacity:1; fill:none" points="4631.49,849.455 4631.49,830.558 "/>
<path clip-path="url(#clip860)" d="M589.237 911.293 Q582.015 911.293 578.357 918.422 Q574.746 925.506 574.746 939.765 Q574.746 953.978 578.357 961.107 Q582.015 968.191 589.237 968.191 Q596.506 968.191 600.117 961.107 Q603.774 953.978 603.774 939.765 Q603.774 925.506 600.117 918.422 Q596.506 911.293 589.237 911.293 M589.237 903.885 Q600.857 903.885 606.968 913.098 Q613.126 922.265 613.126 939.765 Q613.126 957.218 606.968 966.431 Q600.857 975.598 589.237 975.598 Q577.617 975.598 571.459 966.431 Q565.348 957.218 565.348 939.765 Q565.348 922.265 571.459 913.098 Q577.617 903.885 589.237 903.885 Z" fill="#000000" fill-rule="nonzero" fill-opacity="1" /><path clip-path="url(#clip860)" d="M1386.99 966.385 L1419.63 966.385 L1419.63 974.255 L1375.74 974.255 L1375.74 966.385 Q1381.07 960.876 1390.23 951.617 Q1399.45 942.311 1401.81 939.626 Q1406.3 934.58 1408.06 931.108 Q1409.86 927.589 1409.86 924.209 Q1409.86 918.7 1405.97 915.228 Q1402.13 911.756 1395.93 911.756 Q1391.53 911.756 1386.62 913.284 Q1381.76 914.811 1376.21 917.913 L1376.21 908.469 Q1381.85 906.2 1386.76 905.043 Q1391.67 903.885 1395.74 903.885 Q1406.48 903.885 1412.87 909.256 Q1419.26 914.626 1419.26 923.608 Q1419.26 927.867 1417.64 931.709 Q1416.07 935.506 1411.85 940.691 Q1410.7 942.033 1404.49 948.469 Q1398.29 954.857 1386.99 966.385 Z" fill="#000000" fill-rule="nonzero" fill-opacity="1" /><path clip-path="url(#clip860)" d="M2212.16 913.284 L2188.55 950.181 L2212.16 950.181 L2212.16 913.284 M2209.7 905.135 L2221.46 905.135 L2221.46 950.181 L2231.32 950.181 L2231.32 957.959 L2221.46 957.959 L2221.46 974.255 L2212.16 974.255 L2212.16 957.959 L2180.95 957.959 L2180.95 948.931 L2209.7 905.135 Z" fill="#000000" fill-rule="nonzero" fill-opacity="1" /><path clip-path="url(#clip860)" d="M3015.4 935.969 Q3009.1 935.969 3005.4 940.274 Q3001.74 944.58 3001.74 952.08 Q3001.74 959.533 3005.4 963.885 Q3009.1 968.191 3015.4 968.191 Q3021.69 968.191 3025.35 963.885 Q3029.06 959.533 3029.06 952.08 Q3029.06 944.58 3025.35 940.274 Q3021.69 935.969 3015.4 935.969 M3033.96 906.663 L3033.96 915.182 Q3030.44 913.515 3026.83 912.635 Q3023.27 911.756 3019.75 911.756 Q3010.49 911.756 3005.58 918.006 Q3000.72 924.256 3000.03 936.895 Q3002.76 932.867 3006.88 930.737 Q3011 928.561 3015.95 928.561 Q3026.37 928.561 3032.39 934.904 Q3038.45 941.2 3038.45 952.08 Q3038.45 962.728 3032.16 969.163 Q3025.86 975.598 3015.4 975.598 Q3003.41 975.598 2997.06 966.431 Q2990.72 957.218 2990.72 939.765 Q2990.72 923.376 2998.5 913.654 Q3006.28 903.885 3019.38 903.885 Q3022.9 903.885 3026.46 904.58 Q3030.07 905.274 3033.96 906.663 Z" fill="#000000" fill-rule="nonzero" fill-opacity="1" /><path clip-path="url(#clip860)" d="M3823.04 941.432 Q3816.37 941.432 3812.53 944.996 Q3808.73 948.561 3808.73 954.811 Q3808.73 961.061 3812.53 964.626 Q3816.37 968.191 3823.04 968.191 Q3829.7 968.191 3833.55 964.626 Q3837.39 961.015 3837.39 954.811 Q3837.39 948.561 3833.55 944.996 Q3829.75 941.432 3823.04 941.432 M3813.69 937.45 Q3807.67 935.969 3804.29 931.848 Q3800.95 927.728 3800.95 921.802 Q3800.95 913.515 3806.83 908.7 Q3812.76 903.885 3823.04 903.885 Q3833.36 903.885 3839.24 908.7 Q3845.12 913.515 3845.12 921.802 Q3845.12 927.728 3841.74 931.848 Q3838.41 935.969 3832.44 937.45 Q3839.2 939.024 3842.95 943.607 Q3846.74 948.191 3846.74 954.811 Q3846.74 964.857 3840.58 970.228 Q3834.47 975.598 3823.04 975.598 Q3811.6 975.598 3805.45 970.228 Q3799.33 964.857 3799.33 954.811 Q3799.33 948.191 3803.13 943.607 Q3806.93 939.024 3813.69 937.45 M3810.26 922.682 Q3810.26 928.052 3813.59 931.061 Q3816.97 934.07 3823.04 934.07 Q3829.06 934.07 3832.44 931.061 Q3835.86 928.052 3835.86 922.682 Q3835.86 917.311 3832.44 914.302 Q3829.06 911.293 3823.04 911.293 Q3816.97 911.293 3813.59 914.302 Q3810.26 917.311 3810.26 922.682 Z" fill="#000000" fill-rule="nonzero" fill-opacity="1" /><path clip-path="url(#clip860)" d="M4580.86 966.385 L4596.14 966.385 L4596.14 913.654 L4579.52 916.987 L4579.52 908.469 L4596.05 905.135 L4605.4 905.135 L4605.4 966.385 L4620.68 966.385 L4620.68 974.255 L4580.86 974.255 L4580.86 966.385 Z" fill="#000000" fill-rule="nonzero" fill-opacity="1" /><path clip-path="url(#clip860)" d="M4659.57 911.293 Q4652.34 911.293 4648.69 918.422 Q4645.08 925.506 4645.08 939.765 Q4645.08 953.978 4648.69 961.107 Q4652.34 968.191 4659.57 968.191 Q4666.84 968.191 4670.45 961.107 Q4674.1 953.978 4674.1 939.765 Q4674.1 925.506 4670.45 918.422 Q4666.84 911.293 4659.57 911.293 M4659.57 903.885 Q4671.19 903.885 4677.3 913.098 Q4683.46 922.265 4683.46 939.765 Q4683.46 957.218 4677.3 966.431 Q4671.19 975.598 4659.57 975.598 Q4647.95 975.598 4641.79 966.431 Q4635.68 957.218 4635.68 939.765 Q4635.68 922.265 4641.79 913.098 Q4647.95 903.885 4659.57 903.885 Z" fill="#000000" fill-rule="nonzero" fill-opacity="1" /><path clip-path="url(#clip860)" d="M2327.6 1040.69 L2393.38 1040.69 L2393.38 1049.54 L2365.78 1049.54 L2365.78 1118.45 L2355.21 1118.45 L2355.21 1049.54 L2327.6 1049.54 L2327.6 1040.69 Z" fill="#000000" fill-rule="nonzero" fill-opacity="1" /><path clip-path="url(#clip860)" d="M2399.84 1060.11 L2409.43 1060.11 L2409.43 1118.45 L2399.84 1118.45 L2399.84 1060.11 M2399.84 1037.41 L2409.43 1037.41 L2409.43 1049.54 L2399.84 1049.54 L2399.84 1037.41 Z" fill="#000000" fill-rule="nonzero" fill-opacity="1" /><path clip-path="url(#clip860)" d="M2474.89 1071.31 Q2478.49 1064.85 2483.49 1061.78 Q2488.49 1058.71 2495.26 1058.71 Q2504.37 1058.71 2509.32 1065.11 Q2514.27 1071.47 2514.27 1083.24 L2514.27 1118.45 L2504.63 1118.45 L2504.63 1083.55 Q2504.63 1075.17 2501.67 1071.1 Q2498.7 1067.04 2492.6 1067.04 Q2485.16 1067.04 2480.83 1071.99 Q2476.51 1076.94 2476.51 1085.48 L2476.51 1118.45 L2466.87 1118.45 L2466.87 1083.55 Q2466.87 1075.11 2463.91 1071.1 Q2460.94 1067.04 2454.74 1067.04 Q2447.39 1067.04 2443.07 1072.04 Q2438.75 1076.99 2438.75 1085.48 L2438.75 1118.45 L2429.11 1118.45 L2429.11 1060.11 L2438.75 1060.11 L2438.75 1069.18 Q2442.03 1063.81 2446.61 1061.26 Q2451.2 1058.71 2457.5 1058.71 Q2463.85 1058.71 2468.28 1061.94 Q2472.76 1065.17 2474.89 1071.31 Z" fill="#000000" fill-rule="nonzero" fill-opacity="1" /><path clip-path="url(#clip860)" d="M2583.28 1086.89 L2583.28 1091.57 L2539.22 1091.57 Q2539.84 1101.47 2545.15 1106.68 Q2550.52 1111.83 2560.05 1111.83 Q2565.57 1111.83 2570.73 1110.48 Q2575.94 1109.12 2581.04 1106.42 L2581.04 1115.48 Q2575.88 1117.67 2570.47 1118.81 Q2565.05 1119.96 2559.48 1119.96 Q2545.52 1119.96 2537.34 1111.83 Q2529.22 1103.71 2529.22 1089.85 Q2529.22 1075.53 2536.93 1067.15 Q2544.69 1058.71 2557.81 1058.71 Q2569.58 1058.71 2576.4 1066.31 Q2583.28 1073.86 2583.28 1086.89 M2573.7 1084.07 Q2573.59 1076.21 2569.27 1071.52 Q2565 1066.83 2557.92 1066.83 Q2549.89 1066.83 2545.05 1071.36 Q2540.26 1075.9 2539.53 1084.12 L2573.7 1084.07 Z" fill="#000000" fill-rule="nonzero" fill-opacity="1" /><path clip-path="url(#clip860)" d="M2655.94 1037.51 Q2648.96 1049.49 2645.57 1061.21 Q2642.19 1072.93 2642.19 1084.96 Q2642.19 1096.99 2645.57 1108.81 Q2649.01 1120.58 2655.94 1132.51 L2647.6 1132.51 Q2639.79 1120.27 2635.88 1108.45 Q2632.03 1096.62 2632.03 1084.96 Q2632.03 1073.34 2635.88 1061.57 Q2639.74 1049.8 2647.6 1037.51 L2655.94 1037.51 Z" fill="#000000" fill-rule="nonzero" fill-opacity="1" /><path clip-path="url(#clip860)" d="M2712.91 1068.97 L2712.91 1037.41 L2722.5 1037.41 L2722.5 1118.45 L2712.91 1118.45 L2712.91 1109.7 Q2709.89 1114.91 2705.26 1117.46 Q2700.67 1119.96 2694.22 1119.96 Q2683.64 1119.96 2676.98 1111.52 Q2670.36 1103.08 2670.36 1089.33 Q2670.36 1075.58 2676.98 1067.15 Q2683.64 1058.71 2694.22 1058.71 Q2700.67 1058.71 2705.26 1061.26 Q2709.89 1063.76 2712.91 1068.97 M2680.26 1089.33 Q2680.26 1099.91 2684.58 1105.95 Q2688.96 1111.94 2696.56 1111.94 Q2704.16 1111.94 2708.54 1105.95 Q2712.91 1099.91 2712.91 1089.33 Q2712.91 1078.76 2708.54 1072.77 Q2704.16 1066.73 2696.56 1066.73 Q2688.96 1066.73 2684.58 1072.77 Q2680.26 1078.76 2680.26 1089.33 Z" fill="#000000" fill-rule="nonzero" fill-opacity="1" /><path clip-path="url(#clip860)" d="M2768.75 1089.12 Q2757.13 1089.12 2752.65 1091.78 Q2748.17 1094.44 2748.17 1100.84 Q2748.17 1105.95 2751.51 1108.97 Q2754.89 1111.94 2760.67 1111.94 Q2768.64 1111.94 2773.43 1106.31 Q2778.28 1100.64 2778.28 1091.26 L2778.28 1089.12 L2768.75 1089.12 M2787.86 1085.17 L2787.86 1118.45 L2778.28 1118.45 L2778.28 1109.59 Q2775 1114.91 2770.1 1117.46 Q2765.21 1119.96 2758.12 1119.96 Q2749.16 1119.96 2743.85 1114.96 Q2738.59 1109.91 2738.59 1101.47 Q2738.59 1091.62 2745.15 1086.62 Q2751.77 1081.62 2764.84 1081.62 L2778.28 1081.62 L2778.28 1080.69 Q2778.28 1074.07 2773.9 1070.48 Q2769.58 1066.83 2761.72 1066.83 Q2756.72 1066.83 2751.98 1068.03 Q2747.24 1069.23 2742.86 1071.62 L2742.86 1062.77 Q2748.12 1060.74 2753.07 1059.75 Q2758.02 1058.71 2762.71 1058.71 Q2775.36 1058.71 2781.61 1065.27 Q2787.86 1071.83 2787.86 1085.17 Z" fill="#000000" fill-rule="nonzero" fill-opacity="1" /><path clip-path="url(#clip860)" d="M2831.87 1123.86 Q2827.81 1134.28 2823.96 1137.46 Q2820.1 1140.63 2813.64 1140.63 L2805.99 1140.63 L2805.99 1132.61 L2811.61 1132.61 Q2815.57 1132.61 2817.76 1130.74 Q2819.94 1128.86 2822.6 1121.88 L2824.32 1117.51 L2800.73 1060.11 L2810.88 1060.11 L2829.11 1105.74 L2847.34 1060.11 L2857.5 1060.11 L2831.87 1123.86 Z" fill="#000000" fill-rule="nonzero" fill-opacity="1" /><path clip-path="url(#clip860)" d="M2869.22 1037.51 L2877.55 1037.51 Q2885.36 1049.8 2889.22 1061.57 Q2893.12 1073.34 2893.12 1084.96 Q2893.12 1096.62 2889.22 1108.45 Q2885.36 1120.27 2877.55 1132.51 L2869.22 1132.51 Q2876.14 1120.58 2879.53 1108.81 Q2882.97 1096.99 2882.97 1084.96 Q2882.97 1072.93 2879.53 1061.21 Q2876.14 1049.49 2869.22 1037.51 Z" fill="#000000" fill-rule="nonzero" fill-opacity="1" /><polyline clip-path="url(#clip860)" style="stroke:#000000; stroke-linecap:round; stroke-linejoin:round; stroke-width:4; stroke-opacity:1; fill:none" points="467.969,849.455 467.969,47.2441 "/>
<polyline clip-path="url(#clip860)" style="stroke:#000000; stroke-linecap:round; stroke-linejoin:round; stroke-width:4; stroke-opacity:1; fill:none" points="467.969,736.564 486.867,736.564 "/>
<polyline clip-path="url(#clip860)" style="stroke:#000000; stroke-linecap:round; stroke-linejoin:round; stroke-width:4; stroke-opacity:1; fill:none" points="467.969,621.473 486.867,621.473 "/>
<polyline clip-path="url(#clip860)" style="stroke:#000000; stroke-linecap:round; stroke-linejoin:round; stroke-width:4; stroke-opacity:1; fill:none" points="467.969,506.382 486.867,506.382 "/>
<polyline clip-path="url(#clip860)" style="stroke:#000000; stroke-linecap:round; stroke-linejoin:round; stroke-width:4; stroke-opacity:1; fill:none" points="467.969,391.291 486.867,391.291 "/>
<polyline clip-path="url(#clip860)" style="stroke:#000000; stroke-linecap:round; stroke-linejoin:round; stroke-width:4; stroke-opacity:1; fill:none" points="467.969,276.2 486.867,276.2 "/>
<polyline clip-path="url(#clip860)" style="stroke:#000000; stroke-linecap:round; stroke-linejoin:round; stroke-width:4; stroke-opacity:1; fill:none" points="467.969,161.109 486.867,161.109 "/>
<path clip-path="url(#clip860)" d="M212.22 737.467 L271.572 737.467 L271.572 745.337 L212.22 745.337 L212.22 737.467 Z" fill="#000000" fill-rule="nonzero" fill-opacity="1" /><path clip-path="url(#clip860)" d="M317.451 710.152 L293.84 747.05 L317.451 747.05 L317.451 710.152 M314.998 702.004 L326.757 702.004 L326.757 747.05 L336.618 747.05 L336.618 754.828 L326.757 754.828 L326.757 771.124 L317.451 771.124 L317.451 754.828 L286.248 754.828 L286.248 745.8 L314.998 702.004 Z" fill="#000000" fill-rule="nonzero" fill-opacity="1" /><path clip-path="url(#clip860)" d="M372.081 708.161 Q364.859 708.161 361.201 715.291 Q357.59 722.374 357.59 736.633 Q357.59 750.846 361.201 757.976 Q364.859 765.059 372.081 765.059 Q379.349 765.059 382.96 757.976 Q386.618 750.846 386.618 736.633 Q386.618 722.374 382.96 715.291 Q379.349 708.161 372.081 708.161 M372.081 700.754 Q383.701 700.754 389.812 709.967 Q395.969 719.134 395.969 736.633 Q395.969 754.087 389.812 763.3 Q383.701 772.467 372.081 772.467 Q360.46 772.467 354.303 763.3 Q348.192 754.087 348.192 736.633 Q348.192 719.134 354.303 709.967 Q360.46 700.754 372.081 700.754 Z" fill="#000000" fill-rule="nonzero" fill-opacity="1" /><path clip-path="url(#clip860)" d="M212.22 622.376 L271.572 622.376 L271.572 630.246 L212.22 630.246 L212.22 622.376 Z" fill="#000000" fill-rule="nonzero" fill-opacity="1" /><path clip-path="url(#clip860)" d="M320.09 618.765 Q326.803 620.2 330.553 624.737 Q334.349 629.274 334.349 635.941 Q334.349 646.172 327.312 651.774 Q320.275 657.376 307.313 657.376 Q302.961 657.376 298.331 656.496 Q293.748 655.663 288.84 653.95 L288.84 644.922 Q292.729 647.191 297.359 648.348 Q301.989 649.505 307.035 649.505 Q315.831 649.505 320.414 646.033 Q325.044 642.561 325.044 635.941 Q325.044 629.83 320.738 626.404 Q316.479 622.931 308.84 622.931 L300.785 622.931 L300.785 615.246 L309.211 615.246 Q316.109 615.246 319.766 612.515 Q323.424 609.737 323.424 604.552 Q323.424 599.228 319.627 596.404 Q315.877 593.533 308.84 593.533 Q304.998 593.533 300.6 594.367 Q296.202 595.2 290.924 596.959 L290.924 588.626 Q296.248 587.145 300.877 586.404 Q305.553 585.663 309.674 585.663 Q320.322 585.663 326.525 590.524 Q332.729 595.339 332.729 603.58 Q332.729 609.32 329.442 613.302 Q326.155 617.237 320.09 618.765 Z" fill="#000000" fill-rule="nonzero" fill-opacity="1" /><path clip-path="url(#clip860)" d="M372.081 593.07 Q364.859 593.07 361.201 600.2 Q357.59 607.283 357.59 621.543 Q357.59 635.755 361.201 642.885 Q364.859 649.968 372.081 649.968 Q379.349 649.968 382.96 642.885 Q386.618 635.755 386.618 621.543 Q386.618 607.283 382.96 600.2 Q379.349 593.07 372.081 593.07 M372.081 585.663 Q383.701 585.663 389.812 594.876 Q395.969 604.043 395.969 621.543 Q395.969 638.996 389.812 648.209 Q383.701 657.376 372.081 657.376 Q360.46 657.376 354.303 648.209 Q348.192 638.996 348.192 621.543 Q348.192 604.043 354.303 594.876 Q360.46 585.663 372.081 585.663 Z" fill="#000000" fill-rule="nonzero" fill-opacity="1" /><path clip-path="url(#clip860)" d="M212.22 507.285 L271.572 507.285 L271.572 515.155 L212.22 515.155 L212.22 507.285 Z" fill="#000000" fill-rule="nonzero" fill-opacity="1" /><path clip-path="url(#clip860)" d="M299.813 533.072 L332.451 533.072 L332.451 540.942 L288.563 540.942 L288.563 533.072 Q293.887 527.563 303.053 518.303 Q312.266 508.998 314.627 506.313 Q319.118 501.266 320.877 497.794 Q322.683 494.276 322.683 490.896 Q322.683 485.387 318.794 481.915 Q314.951 478.443 308.748 478.443 Q304.35 478.443 299.442 479.97 Q294.581 481.498 289.026 484.6 L289.026 475.156 Q294.674 472.887 299.581 471.73 Q304.488 470.572 308.563 470.572 Q319.303 470.572 325.692 475.943 Q332.081 481.313 332.081 490.294 Q332.081 494.554 330.461 498.396 Q328.887 502.192 324.674 507.378 Q323.516 508.72 317.313 515.155 Q311.109 521.544 299.813 533.072 Z" fill="#000000" fill-rule="nonzero" fill-opacity="1" /><path clip-path="url(#clip860)" d="M372.081 477.98 Q364.859 477.98 361.201 485.109 Q357.59 492.192 357.59 506.452 Q357.59 520.665 361.201 527.794 Q364.859 534.877 372.081 534.877 Q379.349 534.877 382.96 527.794 Q386.618 520.665 386.618 506.452 Q386.618 492.192 382.96 485.109 Q379.349 477.98 372.081 477.98 M372.081 470.572 Q383.701 470.572 389.812 479.785 Q395.969 488.952 395.969 506.452 Q395.969 523.905 389.812 533.118 Q383.701 542.285 372.081 542.285 Q360.46 542.285 354.303 533.118 Q348.192 523.905 348.192 506.452 Q348.192 488.952 354.303 479.785 Q360.46 470.572 372.081 470.572 Z" fill="#000000" fill-rule="nonzero" fill-opacity="1" /><path clip-path="url(#clip860)" d="M212.22 392.194 L271.572 392.194 L271.572 400.064 L212.22 400.064 L212.22 392.194 Z" fill="#000000" fill-rule="nonzero" fill-opacity="1" /><path clip-path="url(#clip860)" d="M293.377 417.981 L308.655 417.981 L308.655 365.25 L292.035 368.583 L292.035 360.065 L308.563 356.731 L317.914 356.731 L317.914 417.981 L333.192 417.981 L333.192 425.851 L293.377 425.851 L293.377 417.981 Z" fill="#000000" fill-rule="nonzero" fill-opacity="1" /><path clip-path="url(#clip860)" d="M372.081 362.889 Q364.859 362.889 361.201 370.018 Q357.59 377.102 357.59 391.361 Q357.59 405.574 361.201 412.703 Q364.859 419.786 372.081 419.786 Q379.349 419.786 382.96 412.703 Q386.618 405.574 386.618 391.361 Q386.618 377.102 382.96 370.018 Q379.349 362.889 372.081 362.889 M372.081 355.481 Q383.701 355.481 389.812 364.694 Q395.969 373.861 395.969 391.361 Q395.969 408.814 389.812 418.027 Q383.701 427.194 372.081 427.194 Q360.46 427.194 354.303 418.027 Q348.192 408.814 348.192 391.361 Q348.192 373.861 354.303 364.694 Q360.46 355.481 372.081 355.481 Z" fill="#000000" fill-rule="nonzero" fill-opacity="1" /><path clip-path="url(#clip860)" d="M372.081 247.798 Q364.859 247.798 361.201 254.927 Q357.59 262.011 357.59 276.27 Q357.59 290.483 361.201 297.612 Q364.859 304.696 372.081 304.696 Q379.349 304.696 382.96 297.612 Q386.618 290.483 386.618 276.27 Q386.618 262.011 382.96 254.927 Q379.349 247.798 372.081 247.798 M372.081 240.39 Q383.701 240.39 389.812 249.603 Q395.969 258.77 395.969 276.27 Q395.969 293.723 389.812 302.936 Q383.701 312.103 372.081 312.103 Q360.46 312.103 354.303 302.936 Q348.192 293.723 348.192 276.27 Q348.192 258.77 354.303 249.603 Q360.46 240.39 372.081 240.39 Z" fill="#000000" fill-rule="nonzero" fill-opacity="1" /><path clip-path="url(#clip860)" d="M293.377 187.799 L308.655 187.799 L308.655 135.068 L292.035 138.401 L292.035 129.883 L308.563 126.549 L317.914 126.549 L317.914 187.799 L333.192 187.799 L333.192 195.669 L293.377 195.669 L293.377 187.799 Z" fill="#000000" fill-rule="nonzero" fill-opacity="1" /><path clip-path="url(#clip860)" d="M372.081 132.707 Q364.859 132.707 361.201 139.836 Q357.59 146.92 357.59 161.179 Q357.59 175.392 361.201 182.521 Q364.859 189.605 372.081 189.605 Q379.349 189.605 382.96 182.521 Q386.618 175.392 386.618 161.179 Q386.618 146.92 382.96 139.836 Q379.349 132.707 372.081 132.707 M372.081 125.299 Q383.701 125.299 389.812 134.512 Q395.969 143.679 395.969 161.179 Q395.969 178.632 389.812 187.845 Q383.701 197.012 372.081 197.012 Q360.46 197.012 354.303 187.845 Q348.192 178.632 348.192 161.179 Q348.192 143.679 354.303 134.512 Q360.46 125.299 372.081 125.299 Z" fill="#000000" fill-rule="nonzero" fill-opacity="1" /><path clip-path="url(#clip862)" d="M589.237 231.16 L606.08 315.39 L622.922 372.007 L639.765 411.616 L656.608 438.616 L673.451 455.639 L690.293 456.798 L707.136 448.429 L723.979 426.8 L740.821 406.262 L757.664 403.772 L774.507 411.146 L791.35 424.303 L808.192 441.169 L825.035 458.202 L841.878 473.617 L858.72 485.149 L875.563 495.596 L892.406 507.129 L909.249 524.111 L926.091 543.74 L942.934 563.665 L959.777 578.705 L976.619 589.853 L993.462 600.723 L1010.3 620.129 L1027.15 638.243 L1043.99 654.116 L1060.83 665.514 L1077.68 671.492 L1094.52 664.333 L1111.36 647.897 L1128.2 618.092 L1145.05 588.857 L1161.89 577.33 L1178.73 576.239 L1195.57 580.864 L1212.42 589.845 L1229.26 599.1 L1246.1 606.743 L1262.95 610.318 L1279.79 613.628 L1296.63 617.603 L1313.47 627.893 L1330.32 641.909 L1347.16 657.466 L1364 668.704 L1380.84 676.524 L1397.69 684.561 L1414.53 701.68 L1431.37 718.07 L1448.22 732.634 L1465.06 742.943 L1481.9 748.356 L1498.74 740.353 L1515.59 722.9 L1532.43 691.282 L1549.27 659.243 L1566.11 644.04 L1582.96 639.019 L1599.8 639.759 L1616.64 645.031 L1633.49 650.771 L1650.33 655.103 L1667.17 655.523 L1684.01 655.429 L1700.86 656.68 L1717.7 664.829 L1734.54 676.75 L1751.38 690.731 L1768.23 700.005 L1785.07 706.774 L1801.91 714.067 L1818.76 730.869 L1835.6 747.577 L1852.44 763.028 L1869.28 774.76 L1886.13 781.602 L1902.97 775.034 L1919.81 758.621 L1936.65 727.66 L1953.5 695.554 L1970.34 679.367 L1987.18 672.834 L2004.02 672.012 L2020.87 675.597 L2037.71 679.995 L2054.55 683.101 L2071.4 682.186 L2088.24 681.25 L2105.08 681.279 L2121.92 688.546 L2138.77 699.838 L2155.61 713.225 L2172.45 722.338 L2189.29 728.422 L2206.14 735.207 L2222.98 751.592 L2239.82 767.993 L2256.67 783.233 L2273.51 794.792 L2290.35 801.499 L2307.19 794.755 L2324.04 778.149 L2340.88 746.802 L2357.72 714.006 L2374.56 697.023 L2391.41 689.62 L2408.25 688.013 L2425.09 690.844 L2441.94 694.584 L2458.78 697.004 L2475.62 695.441 L2492.46 693.897 L2509.31 693.438 L2526.15 700.212 L2542.99 711.091 L2559.83 724.083 L2576.68 733.049 L2593.52 738.987 L2610.36 745.621 L2627.21 761.894 L2644.05 778.215 L2660.89 793.392 L2677.73 804.941 L2694.58 811.626 L2711.42 804.837 L2728.26 788.093 L2745.1 756.558 L2761.95 723.519 L2778.79 706.178 L2795.63 698.456 L2812.48 696.52 L2829.32 699.045 L2846.16 702.551 L2863 704.747 L2879.85 703.017 L2896.69 701.266 L2913.53 700.472 L2930.37 706.925 L2947.22 717.552 L2964.06 730.356 L2980.9 739.187 L2997.75 745.03 L3014.59 751.586 L3031.43 767.82 L3048.27 784.125 L3065.12 799.306 L3081.96 810.828 L3098.8 817.508 L3115.64 810.711 L3132.49 793.962 L3149.33 762.341 L3166.17 729.094 L3183.01 711.55 L3199.86 703.552 L3216.7 701.373 L3233.54 703.708 L3250.39 706.993 L3267.23 708.989 L3284.07 707.015 L3300.91 705.073 L3317.76 704.236 L3334.6 710.682 L3351.44 721.307 L3368.28 734.114 L3385.13 742.954 L3401.97 748.813 L3418.81 755.384 L3435.66 771.633 L3452.5 787.954 L3469.34 803.149 L3486.18 814.677 L3503.03 821.357 L3519.87 814.58 L3536.71 797.837 L3553.55 766.194 L3570.4 732.941 L3587.24 715.306 L3604.08 707.308 L3620.93 705.091 L3637.77 707.376 L3654.61 710.666 L3671.45 712.666 L3688.3 710.763 L3705.14 708.823 L3721.98 707.86 L3738.82 714.178 L3755.67 724.696 L3772.51 737.449 L3789.35 746.253 L3806.2 752.085 L3823.04 758.637 L3839.88 774.893 L3856.72 791.219 L3873.57 806.414 L3890.41 817.936 L3907.25 824.6 L3924.09 817.772 L3940.94 800.945 L3957.78 769.192 L3974.62 735.779 L3991.47 717.966 L4008.31 709.766 L4025.15 707.463 L4041.99 709.693 L4058.84 712.941 L4075.68 715.013 L4092.52 713.08 L4109.36 711.185 L4126.21 710.334 L4143.05 716.698 L4159.89 727.279 L4176.74 740.029 L4193.58 748.821 L4210.42 754.605 L4227.26 761.107 L4244.11 777.294 L4260.95 793.554 L4277.79 808.673 L4294.63 820.147 L4311.48 826.751 L4328.32 819.862 L4345.16 802.993 L4362 771.224 L4378.85 737.776 L4395.69 719.973 L4412.53 711.756 L4429.38 709.36 L4446.22 711.511 L4463.06 714.686 L4479.9 716.604 L4496.75 714.623 L4513.59 712.623 L4530.43 711.644 L4547.27 717.941 L4564.12 728.458 L4580.96 741.201 L4597.8 750.013 L4614.65 755.849 L4631.49 762.392 L4631.49 96.8219 L4614.65 105.741 L4597.8 122.397 L4580.96 138.261 L4564.12 146.527 L4547.27 150.616 L4530.43 154.363 L4513.59 153.193 L4496.75 146.646 L4479.9 137.33 L4463.06 124.458 L4446.22 111.6 L4429.38 103.845 L4412.53 104.237 L4395.69 110.84 L4378.85 123.149 L4362 147.484 L4345.16 170.157 L4328.32 181.617 L4311.48 179.551 L4294.63 163.447 L4277.79 142.791 L4260.95 121.307 L4244.11 104.378 L4227.26 96.5552 L4210.42 105.467 L4193.58 122.113 L4176.74 137.956 L4159.89 146.086 L4143.05 150.182 L4126.21 153.606 L4109.36 152.994 L4092.52 146.634 L4075.68 137.368 L4058.84 123.733 L4041.99 110.69 L4025.15 102.743 L4008.31 102.917 L3991.47 109.055 L3974.62 121.145 L3957.78 145.49 L3940.94 169.133 L3924.09 180.704 L3907.25 178.691 L3890.41 162.644 L3873.57 142.038 L3856.72 120.595 L3839.88 103.728 L3823.04 95.9625 L3806.2 104.886 L3789.35 121.529 L3772.51 137.358 L3755.67 145.518 L3738.82 149.729 L3721.98 153.373 L3705.14 152.637 L3688.3 146.262 L3671.45 136.842 L3654.61 123.382 L3637.77 110.41 L3620.93 102.537 L3604.08 102.799 L3587.24 108.928 L3570.4 121.6 L3553.55 144.694 L3536.71 168.943 L3519.87 180.629 L3503.03 178.662 L3486.18 162.612 L3469.34 141.998 L3452.5 120.534 L3435.66 103.618 L3418.81 95.7766 L3401.97 104.637 L3385.13 121.192 L3368.28 136.785 L3351.44 144.872 L3334.6 149.181 L3317.76 152.769 L3300.91 152.103 L3284.07 145.83 L3267.23 136.457 L3250.39 122.792 L3233.54 109.932 L3216.7 101.613 L3199.86 101.642 L3183.01 108.296 L3166.17 120.226 L3149.33 143.922 L3132.49 167.482 L3115.64 179.671 L3098.8 177.77 L3081.96 161.782 L3065.12 141.208 L3048.27 119.766 L3031.43 102.872 L3014.59 95.0384 L2997.75 103.921 L2980.9 120.433 L2964.06 135.521 L2947.22 143.751 L2930.37 148.146 L2913.53 151.412 L2896.69 151.217 L2879.85 145.036 L2863 135.272 L2846.16 121.47 L2829.32 108.445 L2812.48 99.9392 L2795.63 99.7163 L2778.79 106.088 L2761.95 117.748 L2745.1 141.271 L2728.26 165.055 L2711.42 177.551 L2694.58 175.73 L2677.73 159.806 L2660.89 139.303 L2644.05 117.909 L2627.21 101.136 L2610.36 93.3747 L2593.52 102.265 L2576.68 118.768 L2559.83 133.928 L2542.99 142.234 L2526.15 146.579 L2509.31 150.379 L2492.46 149.664 L2475.62 143.615 L2458.78 133.612 L2441.94 119.538 L2425.09 106.196 L2408.25 97.9501 L2391.41 97.4745 L2374.56 103.49 L2357.72 114.935 L2340.88 138.014 L2324.04 162.234 L2307.19 174.827 L2290.35 173.125 L2273.51 157.3 L2256.67 136.716 L2239.82 115.341 L2222.98 98.6044 L2206.14 90.9307 L2189.29 99.8697 L2172.45 116.243 L2155.61 131.506 L2138.77 139.91 L2121.92 144.448 L2105.08 148.172 L2088.24 147.747 L2071.4 141.341 L2054.55 131.298 L2037.71 117.229 L2020.87 103.793 L2004.02 94.779 L1987.18 94.2152 L1970.34 99.9268 L1953.5 110.984 L1936.65 133.547 L1919.81 156.82 L1902.97 169.66 L1886.13 168.31 L1869.28 152.419 L1852.44 131.924 L1835.6 110.677 L1818.76 94.0601 L1801.91 86.5362 L1785.07 95.6609 L1768.23 112.223 L1751.38 127.549 L1734.54 135.97 L1717.7 140.495 L1700.86 144.527 L1684.01 143.976 L1667.17 137.697 L1650.33 127.233 L1633.49 112.723 L1616.64 98.8013 L1599.8 89.7937 L1582.96 88.5458 L1566.11 93.2323 L1549.27 103.769 L1532.43 126.22 L1515.59 148.949 L1498.74 161.967 L1481.9 160.799 L1465.06 145.09 L1448.22 124.78 L1431.37 103.7 L1414.53 87.2224 L1397.69 79.8107 L1380.84 89.0748 L1364 105.742 L1347.16 121.259 L1330.32 129.846 L1313.47 134.511 L1296.63 138.487 L1279.79 138.217 L1262.95 131.542 L1246.1 120.697 L1229.26 105.803 L1212.42 91.1164 L1195.57 81.0647 L1178.73 78.6072 L1161.89 81.6053 L1145.05 90.4267 L1128.2 111.939 L1111.36 135.219 L1094.52 148.463 L1077.68 147.912 L1060.83 132.855 L1043.99 113.181 L1027.15 92.7117 L1010.3 76.8048 L993.462 69.9482 L976.619 79.8017 L959.777 97.1495 L942.934 113.386 L926.091 122.758 L909.249 128.418 L892.406 133.938 L875.563 134.813 L858.72 129.325 L841.878 120.762 L825.035 108.65 L808.192 97.9136 L791.35 93.6017 L774.507 98.8549 L757.664 112.325 L740.821 132.947 L723.979 163.414 L707.136 191.483 L690.293 207.683 L673.451 210.409 L656.608 199.378 L639.765 184.541 L622.922 166.164 L606.08 154.808 L589.237 158.106  Z" fill="#aeaeae" fill-rule="evenodd" fill-opacity="0.5"/>
<polyline clip-path="url(#clip862)" style="stroke:#aeaeae; stroke-linecap:round; stroke-linejoin:round; stroke-width:0; stroke-opacity:1; fill:none" points="589.237,231.398 606.08,241.573 622.922,252.125 639.765,262.703 656.608,271.643 673.451,277.775 690.293,276.434 707.136,269.168 723.979,254.67 740.821,239.935 757.664,232.485 774.507,229.185 791.35,229.107 808.192,232.181 825.035,236.778 841.878,241.275 858.72,243.72 875.563,244.719 892.406,243.903 909.249,243.51 926.091,243.191 942.934,242.343 959.777,238.97 976.619,234.846 993.462,233.102 1010.3,238.295 1027.15,246.223 1043.99,255.393 1060.83,263.67 1077.68,269.568 1094.52,268.283 1111.36,261.25 1128.2,247.553 1145.05,234.386 1161.89,229.013 1178.73,227.78 1195.57,229.455 1212.42,233.89 1229.26,239.491 1246.1,244.718 1262.95,247.687 1279.79,249.1 1296.63,248.633 1313.47,248.587 1330.32,248.558 1347.16,247.946 1364,244.811 1380.84,240.941 1397.69,239.448 1414.53,244.91 1431.37,253.131 1448.22,262.611 1465.06,271.205 1481.9,277.411 1498.74,276.394 1515.59,269.542 1532.43,255.736 1549.27,242.095 1566.11,236.03 1582.96,234.133 1599.8,235.217 1616.64,239.192 1633.49,244.417 1650.33,249.353 1667.17,252.088 1684.01,253.336 1700.86,252.78 1717.7,252.703 1734.54,252.66 1751.38,252.041 1768.23,248.926 1785.07,245.089 1801.91,243.65 1818.76,249.183 1835.6,257.496 1852.44,267.079 1869.28,275.781 1886.13,282.099 1902.97,281.18 1919.81,274.378 1936.65,260.48 1953.5,246.616 1970.34,240.169 1987.18,237.884 2004.02,238.625 2020.87,242.309 2037.71,247.316 2054.55,252.075 2071.4,254.678 2088.24,255.835 2105.08,255.222 2121.92,255.141 2138.77,255.092 2155.61,254.474 2172.45,251.371 2189.29,247.557 2206.14,246.146 2222.98,251.72 2239.82,260.084 2256.67,269.735 2273.51,278.489 2290.35,284.874 2307.19,284.014 2324.04,277.25 2340.88,263.315 2357.72,249.267 2374.56,242.598 2391.41,240.091 2408.25,240.65 2425.09,244.172 2441.94,249.05 2458.78,253.714 2475.62,256.237 2492.46,257.345 2509.31,256.712 2526.15,256.626 2542.99,256.579 2559.83,255.971 2576.68,252.885 2593.52,249.082 2610.36,247.695 2627.21,253.297 2644.05,261.695 2660.89,271.38 2677.73,280.184 2694.58,286.605 2711.42,285.784 2728.26,279.017 2745.1,265.032 2761.95,250.91 2778.79,244.125 2795.63,241.477 2812.48,241.906 2829.32,245.322 2846.16,250.128 2863,254.738 2879.85,257.214 2896.69,258.308 2913.53,257.663 2930.37,257.563 2947.22,257.521 2964.06,256.917 2980.9,253.844 2997.75,250.06 3014.59,248.686 3031.43,254.306 3048.27,262.725 3065.12,272.435 3081.96,281.264 3098.8,287.708 3115.64,286.91 3132.49,280.182 3149.33,266.198 3166.17,251.992 3183.01,245.112 3199.86,242.37 3216.7,242.715 3233.54,246.082 3250.39,250.835 3267.23,255.402 3284.07,257.852 3300.91,258.912 3317.76,258.257 3334.6,258.171 3351.44,258.14 3368.28,257.543 3385.13,254.478 3401.97,250.711 3418.81,249.353 3435.66,254.985 3452.5,263.418 3469.34,273.143 3486.18,281.988 3503.03,288.447 3519.87,287.664 3536.71,280.929 3553.55,266.915 3570.4,252.696 3587.24,245.741 3604.08,242.951 3620.93,243.238 3637.77,246.554 3654.61,251.278 3671.45,255.818 3688.3,258.252 3705.14,259.304 3721.98,258.643 3738.82,258.564 3755.67,258.534 3772.51,257.948 3789.35,254.895 3806.2,251.131 3823.04,249.779 3839.88,255.421 3856.72,263.862 3873.57,273.596 3890.41,282.451 3907.25,288.919 3924.09,288.143 3940.94,281.41 3957.78,267.391 3974.62,253.142 3991.47,246.153 4008.31,243.314 4025.15,243.583 4041.99,246.87 4058.84,251.568 4075.68,256.1 4092.52,258.521 4109.36,259.557 4126.21,258.904 4143.05,258.825 4159.89,258.804 4176.74,258.218 4193.58,255.172 4210.42,251.413 4227.26,250.069 4244.11,255.716 4260.95,264.163 4277.79,273.895 4294.63,282.759 4311.48,289.236 4328.32,288.461 4345.16,281.739 4362,267.724 4378.85,253.452 4395.69,246.452 4412.53,243.574 4429.38,243.805 4446.22,247.086 4463.06,251.772 4479.9,256.291 4496.75,258.703 4513.59,259.742 4530.43,259.102 4547.27,259.02 4564.12,259.001 4580.96,258.419 4597.8,255.377 4614.65,251.626 4631.49,250.28 "/>
<path clip-path="url(#clip862)" d="M589.237 206.647 L606.08 258.599 L622.922 295.281 L639.765 323.762 L656.608 345.077 L673.451 358.214 L690.293 358.328 L707.136 347.705 L723.979 323.6 L740.821 298.371 L757.664 286.719 L774.507 285.521 L791.35 291.502 L808.192 300.168 L825.035 309.427 L841.878 316.497 L858.72 317.918 L875.563 318.216 L892.406 320.134 L909.249 324.988 L926.091 330.855 L942.934 337.892 L959.777 341.136 L976.619 344.84 L993.462 347.35 L1010.3 360.766 L1027.15 376.333 L1043.99 391.528 L1060.83 403.385 L1077.68 410.753 L1094.52 404.164 L1111.36 390.349 L1128.2 363.982 L1145.05 334.789 L1161.89 322.8 L1178.73 320.345 L1195.57 322.727 L1212.42 331.452 L1229.26 339.945 L1246.1 345.033 L1262.95 346.096 L1279.79 344.612 L1296.63 343.788 L1313.47 345.87 L1330.32 351.622 L1347.16 359.629 L1364 363.898 L1380.84 365.726 L1397.69 369.71 L1414.53 384.007 L1431.37 399.131 L1448.22 413.77 L1465.06 425.294 L1481.9 433.537 L1498.74 430.409 L1515.59 416.273 L1532.43 387.142 L1549.27 357.225 L1566.11 343.583 L1582.96 340.038 L1599.8 342.557 L1616.64 346.843 L1633.49 351.556 L1650.33 358.572 L1667.17 358.964 L1684.01 357.507 L1700.86 355.755 L1717.7 359.005 L1734.54 364.15 L1751.38 371.103 L1768.23 375.609 L1785.07 377.182 L1801.91 380.841 L1818.76 394.172 L1835.6 408.811 L1852.44 423.946 L1869.28 437.057 L1886.13 444.701 L1902.97 441.003 L1919.81 427.816 L1936.65 399.342 L1953.5 370.564 L1970.34 357.024 L1987.18 352.096 L2004.02 352.859 L2020.87 358.098 L2037.71 363.692 L2054.55 367.479 L2071.4 367.007 L2088.24 365.614 L2105.08 363.945 L2121.92 367.025 L2138.77 371.727 L2155.61 377.348 L2172.45 380.445 L2189.29 383.424 L2206.14 387.136 L2222.98 400.696 L2239.82 415.793 L2256.67 430.243 L2273.51 442.786 L2290.35 450.598 L2307.19 447.735 L2324.04 433.893 L2340.88 404.744 L2357.72 375.173 L2374.56 361.264 L2391.41 356.145 L2408.25 357.069 L2425.09 362.581 L2441.94 368.046 L2458.78 371.792 L2475.62 370.375 L2492.46 368.959 L2509.31 366.915 L2526.15 371.127 L2542.99 376.085 L2559.83 381.634 L2576.68 384.081 L2593.52 385.828 L2610.36 390.48 L2627.21 404.636 L2644.05 419.628 L2660.89 435.638 L2677.73 447.321 L2694.58 455.798 L2711.42 451.369 L2728.26 437.058 L2745.1 409.05 L2761.95 379.37 L2778.79 364.55 L2795.63 359.161 L2812.48 359.221 L2829.32 364.038 L2846.16 370.681 L2863 374.547 L2879.85 373.38 L2896.69 372.256 L2913.53 369.402 L2930.37 373.082 L2947.22 378.258 L2964.06 384.635 L2980.9 387.58 L2997.75 388.942 L3014.59 393.013 L3031.43 407.235 L3048.27 422.913 L3065.12 438.572 L3081.96 450.336 L3098.8 458.786 L3115.64 454.216 L3132.49 439.845 L3149.33 411.985 L3166.17 382.306 L3183.01 366.986 L3199.86 360.662 L3216.7 361.081 L3233.54 365.405 L3250.39 371.867 L3267.23 375.998 L3284.07 374.827 L3300.91 373.678 L3317.76 371.145 L3334.6 374.634 L3351.44 379.804 L3368.28 386.289 L3385.13 390.428 L3401.97 391.806 L3418.81 395.519 L3435.66 409.7 L3452.5 425.647 L3469.34 440.736 L3486.18 452.466 L3503.03 460.205 L3519.87 455.069 L3536.71 441.08 L3553.55 413.149 L3570.4 383.586 L3587.24 368.637 L3604.08 362.18 L3620.93 362.285 L3637.77 365.836 L3654.61 372.302 L3671.45 376.838 L3688.3 375.688 L3705.14 374.641 L3721.98 371.518 L3738.82 375.102 L3755.67 380.673 L3772.51 387.973 L3789.35 392.345 L3806.2 394.12 L3823.04 397.88 L3839.88 411.556 L3856.72 427.217 L3873.57 442.408 L3890.41 454.117 L3907.25 461.076 L3924.09 455.341 L3940.94 441.888 L3957.78 414.241 L3974.62 384.696 L3991.47 369.718 L4008.31 363.585 L4025.15 363.129 L4041.99 366.316 L4058.84 372.85 L4075.68 377.262 L4092.52 375.85 L4109.36 375.17 L4126.21 372.055 L4143.05 375.52 L4159.89 381.028 L4176.74 389.001 L4193.58 393.376 L4210.42 395.091 L4227.26 398.759 L4244.11 412.398 L4260.95 427.99 L4277.79 443.457 L4294.63 454.94 L4311.48 461.859 L4328.32 456.684 L4345.16 442.328 L4362 414.807 L4378.85 385.83 L4395.69 371.089 L4412.53 364.304 L4429.38 363.989 L4446.22 367.24 L4463.06 373.212 L4479.9 377.563 L4496.75 376.239 L4513.59 375.419 L4530.43 372.482 L4547.27 375.588 L4564.12 381.272 L4580.96 389.314 L4597.8 394.199 L4614.65 396.138 L4631.49 399.908 L4631.49 118.505 L4614.65 127.792 L4597.8 144.316 L4580.96 160.182 L4564.12 169.854 L4547.27 173.601 L4530.43 176.01 L4513.59 175.169 L4496.75 169.324 L4479.9 160.146 L4463.06 146.084 L4446.22 132.742 L4429.38 125.092 L4412.53 127.508 L4395.69 135.099 L4378.85 147.987 L4362 173.074 L4345.16 197.98 L4328.32 209.987 L4311.48 208.033 L4294.63 190.727 L4277.79 168.265 L4260.95 145.718 L4244.11 126.855 L4227.26 118.121 L4210.42 127.222 L4193.58 143.796 L4176.74 160.027 L4159.89 169.666 L4143.05 173.295 L4126.21 175.84 L4109.36 174.914 L4092.52 169.235 L4075.68 159.834 L4058.84 145.725 L4041.99 132.472 L4025.15 124.761 L4008.31 127.118 L3991.47 134.737 L3974.62 148.023 L3957.78 172.036 L3940.94 197.179 L3924.09 209.58 L3907.25 207.534 L3890.41 190.134 L3873.57 168.077 L3856.72 145.128 L3839.88 126.165 L3823.04 117.355 L3806.2 126.695 L3789.35 143.283 L3772.51 159.668 L3755.67 169.147 L3738.82 173.091 L3721.98 175.419 L3705.14 174.598 L3688.3 168.617 L3671.45 159.306 L3654.61 145.275 L3637.77 131.931 L3620.93 124.222 L3604.08 126.839 L3587.24 134.125 L3570.4 146.702 L3553.55 171.275 L3536.71 196.242 L3519.87 208.774 L3503.03 206.56 L3486.18 189.173 L3469.34 167.076 L3452.5 144.297 L3435.66 125.386 L3418.81 116.65 L3401.97 125.968 L3385.13 142.71 L3368.28 159.164 L3351.44 168.498 L3334.6 172.485 L3317.76 174.784 L3300.91 174.09 L3284.07 168.207 L3267.23 158.716 L3250.39 144.386 L3233.54 131.065 L3216.7 123.492 L3199.86 125.51 L3183.01 133.073 L3166.17 145.768 L3149.33 169.694 L3132.49 194.735 L3115.64 207.372 L3098.8 205.255 L3081.96 187.863 L3065.12 165.843 L3048.27 142.992 L3031.43 124.241 L3014.59 115.548 L2997.75 124.906 L2980.9 141.714 L2964.06 158.226 L2947.22 167.248 L2930.37 171.515 L2913.53 174.075 L2896.69 173.336 L2879.85 167.022 L2863 157.707 L2846.16 143.335 L2829.32 129.843 L2812.48 122.3 L2795.63 124.253 L2778.79 131.576 L2761.95 144.472 L2745.1 167.802 L2728.26 192.717 L2711.42 205.272 L2694.58 203.414 L2677.73 186.084 L2660.89 164.106 L2644.05 141.342 L2627.21 122.612 L2610.36 113.81 L2593.52 123.259 L2576.68 140.098 L2559.83 156.716 L2542.99 165.799 L2526.15 170.209 L2509.31 172.738 L2492.46 171.948 L2475.62 165.59 L2458.78 156.301 L2441.94 141.95 L2425.09 128.28 L2408.25 120.649 L2391.41 122.541 L2374.56 129.156 L2357.72 141.385 L2340.88 164.539 L2324.04 189.428 L2307.19 201.746 L2290.35 200.664 L2273.51 183.228 L2256.67 161.156 L2239.82 138.795 L2222.98 119.968 L2206.14 111.484 L2189.29 120.698 L2172.45 137.47 L2155.61 154.391 L2138.77 163.494 L2121.92 167.904 L2105.08 170.397 L2088.24 169.901 L2071.4 163.737 L2054.55 154.133 L2037.71 139.614 L2020.87 125.67 L2004.02 118.132 L1987.18 118.957 L1970.34 125.357 L1953.5 136.966 L1936.65 160.605 L1919.81 184.777 L1902.97 197.371 L1886.13 195.919 L1869.28 178.858 L1852.44 157.07 L1835.6 134.11 L1818.76 116.09 L1801.91 107.609 L1785.07 116.748 L1768.23 133.831 L1751.38 150.715 L1734.54 160.023 L1717.7 163.955 L1700.86 166.49 L1684.01 165.927 L1667.17 159.848 L1650.33 150.275 L1633.49 135.919 L1616.64 121.421 L1599.8 112.779 L1582.96 113.014 L1566.11 118.602 L1549.27 129.295 L1532.43 152.529 L1515.59 176.966 L1498.74 189.53 L1481.9 188.244 L1465.06 171.605 L1448.22 149.82 L1431.37 127.37 L1414.53 109.937 L1397.69 101.269 L1380.84 110.152 L1364 127.578 L1347.16 144.406 L1330.32 153.592 L1313.47 157.76 L1296.63 160.825 L1279.79 160.171 L1262.95 153.433 L1246.1 143.822 L1229.26 129.117 L1212.42 114.752 L1195.57 104.002 L1178.73 103.913 L1161.89 107.956 L1145.05 118.205 L1128.2 139.836 L1111.36 164.073 L1094.52 177.239 L1077.68 175.852 L1060.83 160.09 L1043.99 139.183 L1027.15 117.465 L1010.3 100.107 L993.462 92.3302 L976.619 101.921 L959.777 119.644 L942.934 137.113 L926.091 147.081 L909.249 152.347 L892.406 155.88 L875.563 155.908 L858.72 151.875 L841.878 142.926 L825.035 130.034 L808.192 118.929 L791.35 114.268 L774.507 119.948 L757.664 133.836 L740.821 153.254 L723.979 183.579 L707.136 212.203 L690.293 228.53 L673.451 230.85 L656.608 217.766 L639.765 199.519 L622.922 181.755 L606.08 169.638 L589.237 168.777  Z" fill="#757575" fill-rule="evenodd" fill-opacity="0.5"/>
<polyline clip-path="url(#clip862)" style="stroke:#757575; stroke-linecap:round; stroke-linejoin:round; stroke-width:0; stroke-opacity:1; fill:none" points="589.237,231.398 606.08,241.573 622.922,252.125 639.765,262.703 656.608,271.643 673.451,277.775 690.293,276.434 707.136,269.168 723.979,254.67 740.821,239.935 757.664,232.485 774.507,229.185 791.35,229.107 808.192,232.181 825.035,236.778 841.878,241.275 858.72,243.72 875.563,244.719 892.406,243.903 909.249,243.51 926.091,243.191 942.934,242.343 959.777,238.97 976.619,234.846 993.462,233.102 1010.3,238.295 1027.15,246.223 1043.99,255.393 1060.83,263.67 1077.68,269.568 1094.52,268.283 1111.36,261.25 1128.2,247.553 1145.05,234.386 1161.89,229.013 1178.73,227.78 1195.57,229.455 1212.42,233.89 1229.26,239.491 1246.1,244.718 1262.95,247.687 1279.79,249.1 1296.63,248.633 1313.47,248.587 1330.32,248.558 1347.16,247.946 1364,244.811 1380.84,240.941 1397.69,239.448 1414.53,244.91 1431.37,253.131 1448.22,262.611 1465.06,271.205 1481.9,277.411 1498.74,276.394 1515.59,269.542 1532.43,255.736 1549.27,242.095 1566.11,236.03 1582.96,234.133 1599.8,235.217 1616.64,239.192 1633.49,244.417 1650.33,249.353 1667.17,252.088 1684.01,253.336 1700.86,252.78 1717.7,252.703 1734.54,252.66 1751.38,252.041 1768.23,248.926 1785.07,245.089 1801.91,243.65 1818.76,249.183 1835.6,257.496 1852.44,267.079 1869.28,275.781 1886.13,282.099 1902.97,281.18 1919.81,274.378 1936.65,260.48 1953.5,246.616 1970.34,240.169 1987.18,237.884 2004.02,238.625 2020.87,242.309 2037.71,247.316 2054.55,252.075 2071.4,254.678 2088.24,255.835 2105.08,255.222 2121.92,255.141 2138.77,255.092 2155.61,254.474 2172.45,251.371 2189.29,247.557 2206.14,246.146 2222.98,251.72 2239.82,260.084 2256.67,269.735 2273.51,278.489 2290.35,284.874 2307.19,284.014 2324.04,277.25 2340.88,263.315 2357.72,249.267 2374.56,242.598 2391.41,240.091 2408.25,240.65 2425.09,244.172 2441.94,249.05 2458.78,253.714 2475.62,256.237 2492.46,257.345 2509.31,256.712 2526.15,256.626 2542.99,256.579 2559.83,255.971 2576.68,252.885 2593.52,249.082 2610.36,247.695 2627.21,253.297 2644.05,261.695 2660.89,271.38 2677.73,280.184 2694.58,286.605 2711.42,285.784 2728.26,279.017 2745.1,265.032 2761.95,250.91 2778.79,244.125 2795.63,241.477 2812.48,241.906 2829.32,245.322 2846.16,250.128 2863,254.738 2879.85,257.214 2896.69,258.308 2913.53,257.663 2930.37,257.563 2947.22,257.521 2964.06,256.917 2980.9,253.844 2997.75,250.06 3014.59,248.686 3031.43,254.306 3048.27,262.725 3065.12,272.435 3081.96,281.264 3098.8,287.708 3115.64,286.91 3132.49,280.182 3149.33,266.198 3166.17,251.992 3183.01,245.112 3199.86,242.37 3216.7,242.715 3233.54,246.082 3250.39,250.835 3267.23,255.402 3284.07,257.852 3300.91,258.912 3317.76,258.257 3334.6,258.171 3351.44,258.14 3368.28,257.543 3385.13,254.478 3401.97,250.711 3418.81,249.353 3435.66,254.985 3452.5,263.418 3469.34,273.143 3486.18,281.988 3503.03,288.447 3519.87,287.664 3536.71,280.929 3553.55,266.915 3570.4,252.696 3587.24,245.741 3604.08,242.951 3620.93,243.238 3637.77,246.554 3654.61,251.278 3671.45,255.818 3688.3,258.252 3705.14,259.304 3721.98,258.643 3738.82,258.564 3755.67,258.534 3772.51,257.948 3789.35,254.895 3806.2,251.131 3823.04,249.779 3839.88,255.421 3856.72,263.862 3873.57,273.596 3890.41,282.451 3907.25,288.919 3924.09,288.143 3940.94,281.41 3957.78,267.391 3974.62,253.142 3991.47,246.153 4008.31,243.314 4025.15,243.583 4041.99,246.87 4058.84,251.568 4075.68,256.1 4092.52,258.521 4109.36,259.557 4126.21,258.904 4143.05,258.825 4159.89,258.804 4176.74,258.218 4193.58,255.172 4210.42,251.413 4227.26,250.069 4244.11,255.716 4260.95,264.163 4277.79,273.895 4294.63,282.759 4311.48,289.236 4328.32,288.461 4345.16,281.739 4362,267.724 4378.85,253.452 4395.69,246.452 4412.53,243.574 4429.38,243.805 4446.22,247.086 4463.06,251.772 4479.9,256.291 4496.75,258.703 4513.59,259.742 4530.43,259.102 4547.27,259.02 4564.12,259.001 4580.96,258.419 4597.8,255.377 4614.65,251.626 4631.49,250.28 "/>
<path clip-path="url(#clip862)" d="M589.237 201.511 L606.08 242.486 L622.922 275.656 L639.765 301.525 L656.608 320.227 L673.451 333.158 L690.293 333.121 L707.136 320.793 L723.979 294.06 L740.821 266.741 L757.664 255.598 L774.507 253.331 L791.35 256.917 L808.192 264.272 L825.035 271.509 L841.878 278.112 L858.72 278.776 L875.563 279.135 L892.406 278.67 L909.249 282.478 L926.091 288.277 L942.934 293.895 L959.777 297.505 L976.619 297.464 L993.462 300.456 L1010.3 313.625 L1027.15 327.469 L1043.99 340.756 L1060.83 353.277 L1077.68 360.696 L1094.52 355.183 L1111.36 339.943 L1128.2 311.205 L1145.05 284.282 L1161.89 271.807 L1178.73 268.923 L1195.57 272.273 L1212.42 280.639 L1229.26 288.325 L1246.1 294.335 L1262.95 296.381 L1279.79 297.586 L1296.63 296.304 L1313.47 299.006 L1330.32 303.732 L1347.16 308.452 L1364 310.888 L1380.84 311.391 L1397.69 314.783 L1414.53 327.728 L1431.37 341.942 L1448.22 357.618 L1465.06 372.004 L1481.9 381.37 L1498.74 376.902 L1515.59 361.393 L1532.43 332.074 L1549.27 302.259 L1566.11 289.465 L1582.96 285.79 L1599.8 286.649 L1616.64 295.272 L1633.49 302.179 L1650.33 307.783 L1667.17 306.942 L1684.01 307.216 L1700.86 306.309 L1717.7 309.832 L1734.54 312.778 L1751.38 319.874 L1768.23 322.824 L1785.07 323.586 L1801.91 326.346 L1818.76 338.415 L1835.6 353.857 L1852.44 369.454 L1869.28 383.038 L1886.13 393.495 L1902.97 386.88 L1919.81 370.935 L1936.65 341.696 L1953.5 312.817 L1970.34 299.937 L1987.18 295.584 L2004.02 298.345 L2020.87 305.307 L2037.71 311.251 L2054.55 315.526 L2071.4 315.84 L2088.24 313.701 L2105.08 312.509 L2121.92 315.079 L2138.77 319.544 L2155.61 326.845 L2172.45 330.124 L2189.29 330.4 L2206.14 331.355 L2222.98 344.75 L2239.82 359.081 L2256.67 375.299 L2273.51 388.844 L2290.35 397.932 L2307.19 392.388 L2324.04 376.681 L2340.88 348.295 L2357.72 318.921 L2374.56 304.467 L2391.41 300.147 L2408.25 301.595 L2425.09 307.265 L2441.94 313.339 L2458.78 319.865 L2475.62 320.259 L2492.46 319.309 L2509.31 316.282 L2526.15 318.753 L2542.99 324.77 L2559.83 330.674 L2576.68 332.821 L2593.52 334.242 L2610.36 335.757 L2627.21 347.973 L2644.05 363.306 L2660.89 380.251 L2677.73 393.244 L2694.58 400.374 L2711.42 396.019 L2728.26 380.429 L2745.1 351.689 L2761.95 322.395 L2778.79 307.854 L2795.63 303.629 L2812.48 304.835 L2829.32 310.248 L2846.16 315.375 L2863 321.059 L2879.85 324.027 L2896.69 321.581 L2913.53 318.954 L2930.37 320.514 L2947.22 326.652 L2964.06 333.332 L2980.9 335.338 L2997.75 335.5 L3014.59 337.89 L3031.43 351.287 L3048.27 367.428 L3065.12 381.966 L3081.96 395.785 L3098.8 403.808 L3115.64 398.781 L3132.49 383.447 L3149.33 353.877 L3166.17 324.478 L3183.01 309.904 L3199.86 305.996 L3216.7 306.578 L3233.54 312.454 L3250.39 318.042 L3267.23 322.398 L3284.07 324.658 L3300.91 324.238 L3317.76 320.074 L3334.6 322.343 L3351.44 328.201 L3368.28 333.954 L3385.13 336.123 L3401.97 337.033 L3418.81 339.799 L3435.66 353.608 L3452.5 368.633 L3469.34 383.417 L3486.18 397.25 L3503.03 406.491 L3519.87 401.334 L3536.71 386.389 L3553.55 355.925 L3570.4 325.601 L3587.24 311.084 L3604.08 306.551 L3620.93 307.904 L3637.77 313.871 L3654.61 320.594 L3671.45 324.318 L3688.3 325.211 L3705.14 324.555 L3721.98 321.664 L3738.82 323.073 L3755.67 328.971 L3772.51 334.696 L3789.35 337.819 L3806.2 338.095 L3823.04 340.579 L3839.88 354.187 L3856.72 369.071 L3873.57 384.603 L3890.41 398.175 L3907.25 407.081 L3924.09 401.629 L3940.94 386.979 L3957.78 357.265 L3974.62 327.402 L3991.47 312.776 L4008.31 307.938 L4025.15 309.248 L4041.99 314.254 L4058.84 320.618 L4075.68 325.29 L4092.52 325.352 L4109.36 324.545 L4126.21 323.249 L4143.05 323.678 L4159.89 329.913 L4176.74 335.125 L4193.58 337.765 L4210.42 338.681 L4227.26 341.402 L4244.11 355.012 L4260.95 370.371 L4277.79 385.22 L4294.63 398.948 L4311.48 407.037 L4328.32 402.21 L4345.16 387.403 L4362 357.63 L4378.85 328.578 L4395.69 313.539 L4412.53 308.662 L4429.38 309.275 L4446.22 314.147 L4463.06 320.535 L4479.9 326.704 L4496.75 326.066 L4513.59 325.556 L4530.43 323.633 L4547.27 324.225 L4564.12 330.616 L4580.96 335.439 L4597.8 338.471 L4614.65 338.829 L4631.49 341.89 L4631.49 127.497 L4614.65 136.07 L4597.8 153.262 L4580.96 168.564 L4564.12 176.214 L4547.27 180.362 L4530.43 183.143 L4513.59 183.031 L4496.75 177.71 L4479.9 168.238 L4463.06 154.794 L4446.22 141.757 L4429.38 134.83 L4412.53 136.596 L4395.69 144.983 L4378.85 156.609 L4362 182.073 L4345.16 206.983 L4328.32 219.434 L4311.48 217.741 L4294.63 201.36 L4277.79 179.097 L4260.95 154.933 L4244.11 136.083 L4227.26 127.177 L4210.42 135.825 L4193.58 152.776 L4176.74 168.358 L4159.89 175.902 L4143.05 180.001 L4126.21 182.905 L4109.36 182.806 L4092.52 177.508 L4075.68 167.818 L4058.84 154.534 L4041.99 141.69 L4025.15 134.249 L4008.31 135.925 L3991.47 144.138 L3974.62 155.748 L3957.78 180.807 L3940.94 206.452 L3924.09 219.169 L3907.25 217.275 L3890.41 200.873 L3873.57 178.285 L3856.72 154.335 L3839.88 135.262 L3823.04 126.585 L3806.2 135.367 L3789.35 152.133 L3772.51 168.073 L3755.67 175.575 L3738.82 179.494 L3721.98 182.28 L3705.14 182.449 L3688.3 177.226 L3671.45 167.525 L3654.61 154.081 L3637.77 141.519 L3620.93 133.851 L3604.08 135.146 L3587.24 143.263 L3570.4 155.279 L3553.55 180.373 L3536.71 205.753 L3519.87 218.243 L3503.03 216.289 L3486.18 199.831 L3469.34 177.613 L3452.5 153.757 L3435.66 134.672 L3418.81 125.733 L3401.97 134.768 L3385.13 151.393 L3368.28 167.156 L3351.44 175.091 L3334.6 178.846 L3317.76 181.611 L3300.91 182.051 L3284.07 176.843 L3267.23 166.876 L3250.39 153.467 L3233.54 140.957 L3216.7 133.192 L3199.86 134.176 L3183.01 142.359 L3166.17 154.506 L3149.33 178.898 L3132.49 204.561 L3115.64 216.883 L3098.8 215.216 L3081.96 198.706 L3065.12 176.61 L3048.27 152.492 L3031.43 133.422 L3014.59 124.424 L2997.75 133.841 L2980.9 150.637 L2964.06 166.458 L2947.22 173.989 L2930.37 177.993 L2913.53 180.863 L2896.69 181.041 L2879.85 176.125 L2863 165.949 L2846.16 152.576 L2829.32 140.026 L2812.48 131.903 L2795.63 132.893 L2778.79 140.409 L2761.95 152.661 L2745.1 177.163 L2728.26 202.405 L2711.42 215.02 L2694.58 213.499 L2677.73 196.664 L2660.89 174.688 L2644.05 151.178 L2627.21 131.98 L2610.36 122.548 L2593.52 132.235 L2576.68 149.45 L2559.83 165.042 L2542.99 172.481 L2526.15 176.495 L2509.31 179.515 L2492.46 179.61 L2475.62 174.805 L2458.78 164.713 L2441.94 151.228 L2425.09 138.22 L2408.25 130.087 L2391.41 130.869 L2374.56 138.559 L2357.72 149.449 L2340.88 173.853 L2324.04 199.345 L2307.19 211.963 L2290.35 210.435 L2273.51 193.267 L2256.67 172.025 L2239.82 148.595 L2222.98 129.39 L2206.14 120.451 L2189.29 129.794 L2172.45 146.884 L2155.61 162.79 L2138.77 169.933 L2121.92 174.114 L2105.08 177.238 L2088.24 177.104 L2071.4 172.433 L2054.55 162.679 L2037.71 148.879 L2020.87 135.362 L2004.02 127.061 L1987.18 127.681 L1970.34 134.57 L1953.5 144.867 L1936.65 169.14 L1919.81 194.711 L1902.97 207.157 L1886.13 205.931 L1869.28 189.149 L1852.44 167.505 L1835.6 144.522 L1818.76 125.513 L1801.91 116.504 L1785.07 125.865 L1768.23 142.938 L1751.38 158.842 L1734.54 166.249 L1717.7 170.438 L1700.86 173.776 L1684.01 173.787 L1667.17 168.24 L1650.33 158.958 L1633.49 144.881 L1616.64 130.841 L1599.8 122.075 L1582.96 122.096 L1566.11 128.32 L1549.27 138.037 L1532.43 161.391 L1515.59 186.491 L1498.74 198.807 L1481.9 198.581 L1465.06 181.937 L1448.22 160.289 L1431.37 137.079 L1414.53 118.878 L1397.69 110.17 L1380.84 119.346 L1364 136.459 L1347.16 152.169 L1330.32 160.149 L1313.47 164.401 L1296.63 167.893 L1279.79 168.027 L1262.95 162.331 L1246.1 152.479 L1229.26 138.08 L1212.42 123.644 L1195.57 114.141 L1178.73 112.847 L1161.89 117.387 L1145.05 126.109 L1128.2 148.671 L1111.36 173.521 L1094.52 186.65 L1077.68 186.334 L1060.83 170.515 L1043.99 149.258 L1027.15 126.757 L1010.3 108.847 L993.462 100.842 L976.619 110.875 L959.777 128.86 L942.934 145.545 L926.091 153.907 L909.249 158.788 L892.406 163.182 L875.563 164.474 L858.72 160.17 L841.878 151.855 L825.035 139.584 L808.192 128.873 L791.35 124.055 L774.507 128.885 L757.664 141.326 L740.821 159.88 L723.979 189.657 L707.136 218.629 L690.293 233.886 L673.451 236.858 L656.608 224.895 L639.765 207.387 L622.922 187.731 L606.08 174.731 L589.237 171.996  Z" fill="#414141" fill-rule="evenodd" fill-opacity="0.5"/>
<polyline clip-path="url(#clip862)" style="stroke:#414141; stroke-linecap:round; stroke-linejoin:round; stroke-width:0; stroke-opacity:1; fill:none" points="589.237,231.398 606.08,241.573 622.922,252.125 639.765,262.703 656.608,271.643 673.451,277.775 690.293,276.434 707.136,269.168 723.979,254.67 740.821,239.935 757.664,232.485 774.507,229.185 791.35,229.107 808.192,232.181 825.035,236.778 841.878,241.275 858.72,243.72 875.563,244.719 892.406,243.903 909.249,243.51 926.091,243.191 942.934,242.343 959.777,238.97 976.619,234.846 993.462,233.102 1010.3,238.295 1027.15,246.223 1043.99,255.393 1060.83,263.67 1077.68,269.568 1094.52,268.283 1111.36,261.25 1128.2,247.553 1145.05,234.386 1161.89,229.013 1178.73,227.78 1195.57,229.455 1212.42,233.89 1229.26,239.491 1246.1,244.718 1262.95,247.687 1279.79,249.1 1296.63,248.633 1313.47,248.587 1330.32,248.558 1347.16,247.946 1364,244.811 1380.84,240.941 1397.69,239.448 1414.53,244.91 1431.37,253.131 1448.22,262.611 1465.06,271.205 1481.9,277.411 1498.74,276.394 1515.59,269.542 1532.43,255.736 1549.27,242.095 1566.11,236.03 1582.96,234.133 1599.8,235.217 1616.64,239.192 1633.49,244.417 1650.33,249.353 1667.17,252.088 1684.01,253.336 1700.86,252.78 1717.7,252.703 1734.54,252.66 1751.38,252.041 1768.23,248.926 1785.07,245.089 1801.91,243.65 1818.76,249.183 1835.6,257.496 1852.44,267.079 1869.28,275.781 1886.13,282.099 1902.97,281.18 1919.81,274.378 1936.65,260.48 1953.5,246.616 1970.34,240.169 1987.18,237.884 2004.02,238.625 2020.87,242.309 2037.71,247.316 2054.55,252.075 2071.4,254.678 2088.24,255.835 2105.08,255.222 2121.92,255.141 2138.77,255.092 2155.61,254.474 2172.45,251.371 2189.29,247.557 2206.14,246.146 2222.98,251.72 2239.82,260.084 2256.67,269.735 2273.51,278.489 2290.35,284.874 2307.19,284.014 2324.04,277.25 2340.88,263.315 2357.72,249.267 2374.56,242.598 2391.41,240.091 2408.25,240.65 2425.09,244.172 2441.94,249.05 2458.78,253.714 2475.62,256.237 2492.46,257.345 2509.31,256.712 2526.15,256.626 2542.99,256.579 2559.83,255.971 2576.68,252.885 2593.52,249.082 2610.36,247.695 2627.21,253.297 2644.05,261.695 2660.89,271.38 2677.73,280.184 2694.58,286.605 2711.42,285.784 2728.26,279.017 2745.1,265.032 2761.95,250.91 2778.79,244.125 2795.63,241.477 2812.48,241.906 2829.32,245.322 2846.16,250.128 2863,254.738 2879.85,257.214 2896.69,258.308 2913.53,257.663 2930.37,257.563 2947.22,257.521 2964.06,256.917 2980.9,253.844 2997.75,250.06 3014.59,248.686 3031.43,254.306 3048.27,262.725 3065.12,272.435 3081.96,281.264 3098.8,287.708 3115.64,286.91 3132.49,280.182 3149.33,266.198 3166.17,251.992 3183.01,245.112 3199.86,242.37 3216.7,242.715 3233.54,246.082 3250.39,250.835 3267.23,255.402 3284.07,257.852 3300.91,258.912 3317.76,258.257 3334.6,258.171 3351.44,258.14 3368.28,257.543 3385.13,254.478 3401.97,250.711 3418.81,249.353 3435.66,254.985 3452.5,263.418 3469.34,273.143 3486.18,281.988 3503.03,288.447 3519.87,287.664 3536.71,280.929 3553.55,266.915 3570.4,252.696 3587.24,245.741 3604.08,242.951 3620.93,243.238 3637.77,246.554 3654.61,251.278 3671.45,255.818 3688.3,258.252 3705.14,259.304 3721.98,258.643 3738.82,258.564 3755.67,258.534 3772.51,257.948 3789.35,254.895 3806.2,251.131 3823.04,249.779 3839.88,255.421 3856.72,263.862 3873.57,273.596 3890.41,282.451 3907.25,288.919 3924.09,288.143 3940.94,281.41 3957.78,267.391 3974.62,253.142 3991.47,246.153 4008.31,243.314 4025.15,243.583 4041.99,246.87 4058.84,251.568 4075.68,256.1 4092.52,258.521 4109.36,259.557 4126.21,258.904 4143.05,258.825 4159.89,258.804 4176.74,258.218 4193.58,255.172 4210.42,251.413 4227.26,250.069 4244.11,255.716 4260.95,264.163 4277.79,273.895 4294.63,282.759 4311.48,289.236 4328.32,288.461 4345.16,281.739 4362,267.724 4378.85,253.452 4395.69,246.452 4412.53,243.574 4429.38,243.805 4446.22,247.086 4463.06,251.772 4479.9,256.291 4496.75,258.703 4513.59,259.742 4530.43,259.102 4547.27,259.02 4564.12,259.001 4580.96,258.419 4597.8,255.377 4614.65,251.626 4631.49,250.28 "/>
<path clip-path="url(#clip860)" d="M3862.18 822.715 L4609.93 822.715 L4609.93 304.315 L3862.18 304.315  Z" fill="#ffffff" fill-rule="evenodd" fill-opacity="1"/>
<polyline clip-path="url(#clip860)" style="stroke:#000000; stroke-linecap:round; stroke-linejoin:round; stroke-width:4; stroke-opacity:1; fill:none" points="3862.18,822.715 4609.93,822.715 4609.93,304.315 3862.18,304.315 3862.18,822.715 "/>
<polyline clip-path="url(#clip860)" style="stroke:#aeaeae; stroke-linecap:round; stroke-linejoin:round; stroke-width:2; stroke-opacity:1; fill:none" points="3909.79,433.915 4195.44,433.915 "/>
<path clip-path="url(#clip860)" d="M4244.73 467.277 L4263.83 467.277 L4263.83 401.363 L4243.05 405.53 L4243.05 394.882 L4263.71 390.715 L4275.4 390.715 L4275.4 467.277 L4294.5 467.277 L4294.5 477.115 L4244.73 477.115 L4244.73 467.277 Z" fill="#000000" fill-rule="nonzero" fill-opacity="1" /><path clip-path="url(#clip860)" d="M4343.11 398.412 Q4334.08 398.412 4329.51 407.324 Q4325 416.178 4325 434.002 Q4325 451.768 4329.51 460.68 Q4334.08 469.534 4343.11 469.534 Q4352.19 469.534 4356.71 460.68 Q4361.28 451.768 4361.28 434.002 Q4361.28 416.178 4356.71 407.324 Q4352.19 398.412 4343.11 398.412 M4343.11 389.153 Q4357.63 389.153 4365.27 400.669 Q4372.97 412.127 4372.97 434.002 Q4372.97 455.819 4365.27 467.335 Q4357.63 478.793 4343.11 478.793 Q4328.58 478.793 4320.89 467.335 Q4313.25 455.819 4313.25 434.002 Q4313.25 412.127 4320.89 400.669 Q4328.58 389.153 4343.11 389.153 Z" fill="#000000" fill-rule="nonzero" fill-opacity="1" /><path clip-path="url(#clip860)" d="M4418.51 398.412 Q4409.49 398.412 4404.91 407.324 Q4400.4 416.178 4400.4 434.002 Q4400.4 451.768 4404.91 460.68 Q4409.49 469.534 4418.51 469.534 Q4427.6 469.534 4432.11 460.68 Q4436.69 451.768 4436.69 434.002 Q4436.69 416.178 4432.11 407.324 Q4427.6 398.412 4418.51 398.412 M4418.51 389.153 Q4433.04 389.153 4440.68 400.669 Q4448.37 412.127 4448.37 434.002 Q4448.37 455.819 4440.68 467.335 Q4433.04 478.793 4418.51 478.793 Q4403.99 478.793 4396.29 467.335 Q4388.65 455.819 4388.65 434.002 Q4388.65 412.127 4396.29 400.669 Q4403.99 389.153 4418.51 389.153 Z" fill="#000000" fill-rule="nonzero" fill-opacity="1" /><path clip-path="url(#clip860)" d="M4542.41 439.094 Q4537.38 439.094 4534.49 443.377 Q4531.65 447.659 4531.65 455.298 Q4531.65 462.821 4534.49 467.161 Q4537.38 471.444 4542.41 471.444 Q4547.33 471.444 4550.17 467.161 Q4553.06 462.821 4553.06 455.298 Q4553.06 447.717 4550.17 443.435 Q4547.33 439.094 4542.41 439.094 M4542.41 431.745 Q4551.56 431.745 4556.94 438.111 Q4562.32 444.476 4562.32 455.298 Q4562.32 466.12 4556.88 472.485 Q4551.5 478.793 4542.41 478.793 Q4533.15 478.793 4527.77 472.485 Q4522.39 466.12 4522.39 455.298 Q4522.39 444.418 4527.77 438.111 Q4533.21 431.745 4542.41 431.745 M4482.69 396.502 Q4477.71 396.502 4474.82 400.842 Q4471.99 405.125 4471.99 412.648 Q4471.99 420.287 4474.82 424.569 Q4477.66 428.851 4482.69 428.851 Q4487.73 428.851 4490.56 424.569 Q4493.46 420.287 4493.46 412.648 Q4493.46 405.183 4490.56 400.842 Q4487.67 396.502 4482.69 396.502 M4534.95 389.153 L4544.21 389.153 L4490.16 478.793 L4480.9 478.793 L4534.95 389.153 M4482.69 389.153 Q4491.84 389.153 4497.28 395.518 Q4502.71 401.826 4502.71 412.648 Q4502.71 423.585 4497.28 429.893 Q4491.89 436.201 4482.69 436.201 Q4473.49 436.201 4468.11 429.893 Q4462.78 423.527 4462.78 412.648 Q4462.78 401.884 4468.17 395.518 Q4473.55 389.153 4482.69 389.153 Z" fill="#000000" fill-rule="nonzero" fill-opacity="1" /><polyline clip-path="url(#clip860)" style="stroke:#757575; stroke-linecap:round; stroke-linejoin:round; stroke-width:2; stroke-opacity:1; fill:none" points="3909.79,563.515 4195.44,563.515 "/>
<path clip-path="url(#clip860)" d="M4248.61 604.921 L4248.61 594.273 Q4253.01 596.356 4257.52 597.456 Q4262.03 598.555 4266.37 598.555 Q4277.95 598.555 4284.02 590.801 Q4290.16 582.988 4291.03 567.132 Q4287.67 572.109 4282.52 574.771 Q4277.37 577.433 4271.12 577.433 Q4258.16 577.433 4250.57 569.62 Q4243.05 561.75 4243.05 548.151 Q4243.05 534.84 4250.92 526.797 Q4258.79 518.753 4271.87 518.753 Q4286.86 518.753 4294.73 530.269 Q4302.66 541.727 4302.66 563.602 Q4302.66 584.03 4292.94 596.241 Q4283.27 608.393 4266.89 608.393 Q4262.5 608.393 4257.98 607.525 Q4253.47 606.657 4248.61 604.921 M4271.87 568.289 Q4279.74 568.289 4284.31 562.907 Q4288.94 557.526 4288.94 548.151 Q4288.94 538.833 4284.31 533.452 Q4279.74 528.012 4271.87 528.012 Q4264 528.012 4259.37 533.452 Q4254.8 538.833 4254.8 548.151 Q4254.8 557.526 4259.37 562.907 Q4264 568.289 4271.87 568.289 Z" fill="#000000" fill-rule="nonzero" fill-opacity="1" /><path clip-path="url(#clip860)" d="M4348.66 528.012 Q4339.64 528.012 4335.07 536.924 Q4330.55 545.778 4330.55 563.602 Q4330.55 581.368 4335.07 590.28 Q4339.64 599.134 4348.66 599.134 Q4357.75 599.134 4362.26 590.28 Q4366.84 581.368 4366.84 563.602 Q4366.84 545.778 4362.26 536.924 Q4357.75 528.012 4348.66 528.012 M4348.66 518.753 Q4363.19 518.753 4370.83 530.269 Q4378.53 541.727 4378.53 563.602 Q4378.53 585.419 4370.83 596.935 Q4363.19 608.393 4348.66 608.393 Q4334.14 608.393 4326.44 596.935 Q4318.8 585.419 4318.8 563.602 Q4318.8 541.727 4326.44 530.269 Q4334.14 518.753 4348.66 518.753 Z" fill="#000000" fill-rule="nonzero" fill-opacity="1" /><path clip-path="url(#clip860)" d="M4472.56 568.694 Q4467.53 568.694 4464.64 572.977 Q4461.8 577.259 4461.8 584.898 Q4461.8 592.421 4464.64 596.761 Q4467.53 601.044 4472.56 601.044 Q4477.48 601.044 4480.32 596.761 Q4483.21 592.421 4483.21 584.898 Q4483.21 577.317 4480.32 573.035 Q4477.48 568.694 4472.56 568.694 M4472.56 561.345 Q4481.71 561.345 4487.09 567.711 Q4492.47 574.076 4492.47 584.898 Q4492.47 595.72 4487.03 602.085 Q4481.65 608.393 4472.56 608.393 Q4463.31 608.393 4457.92 602.085 Q4452.54 595.72 4452.54 584.898 Q4452.54 574.018 4457.92 567.711 Q4463.36 561.345 4472.56 561.345 M4412.84 526.102 Q4407.87 526.102 4404.97 530.442 Q4402.14 534.725 4402.14 542.248 Q4402.14 549.887 4404.97 554.169 Q4407.81 558.451 4412.84 558.451 Q4417.88 558.451 4420.71 554.169 Q4423.61 549.887 4423.61 542.248 Q4423.61 534.783 4420.71 530.442 Q4417.82 526.102 4412.84 526.102 M4465.1 518.753 L4474.36 518.753 L4420.31 608.393 L4411.05 608.393 L4465.1 518.753 M4412.84 518.753 Q4421.99 518.753 4427.43 525.118 Q4432.87 531.426 4432.87 542.248 Q4432.87 553.185 4427.43 559.493 Q4422.04 565.801 4412.84 565.801 Q4403.64 565.801 4398.26 559.493 Q4392.94 553.127 4392.94 542.248 Q4392.94 531.484 4398.32 525.118 Q4403.7 518.753 4412.84 518.753 Z" fill="#000000" fill-rule="nonzero" fill-opacity="1" /><polyline clip-path="url(#clip860)" style="stroke:#414141; stroke-linecap:round; stroke-linejoin:round; stroke-width:2; stroke-opacity:1; fill:none" points="3909.79,693.115 4195.44,693.115 "/>
<path clip-path="url(#clip860)" d="M4272.68 695.285 Q4264.35 695.285 4259.54 699.741 Q4254.8 704.197 4254.8 712.01 Q4254.8 719.822 4259.54 724.278 Q4264.35 728.734 4272.68 728.734 Q4281.01 728.734 4285.82 724.278 Q4290.62 719.764 4290.62 712.01 Q4290.62 704.197 4285.82 699.741 Q4281.07 695.285 4272.68 695.285 M4260.99 690.308 Q4253.47 688.457 4249.24 683.306 Q4245.08 678.156 4245.08 670.748 Q4245.08 660.39 4252.43 654.371 Q4259.83 648.353 4272.68 648.353 Q4285.59 648.353 4292.94 654.371 Q4300.29 660.39 4300.29 670.748 Q4300.29 678.156 4296.06 683.306 Q4291.89 688.457 4284.43 690.308 Q4292.88 692.276 4297.57 698.005 Q4302.31 703.734 4302.31 712.01 Q4302.31 724.567 4294.61 731.28 Q4286.98 737.993 4272.68 737.993 Q4258.39 737.993 4250.69 731.28 Q4243.05 724.567 4243.05 712.01 Q4243.05 703.734 4247.8 698.005 Q4252.54 692.276 4260.99 690.308 M4256.71 671.848 Q4256.71 678.561 4260.88 682.322 Q4265.1 686.084 4272.68 686.084 Q4280.2 686.084 4284.43 682.322 Q4288.71 678.561 4288.71 671.848 Q4288.71 665.135 4284.43 661.373 Q4280.2 657.612 4272.68 657.612 Q4265.1 657.612 4260.88 661.373 Q4256.71 665.135 4256.71 671.848 Z" fill="#000000" fill-rule="nonzero" fill-opacity="1" /><path clip-path="url(#clip860)" d="M4348.09 657.612 Q4339.06 657.612 4334.49 666.524 Q4329.97 675.378 4329.97 693.202 Q4329.97 710.968 4334.49 719.88 Q4339.06 728.734 4348.09 728.734 Q4357.17 728.734 4361.69 719.88 Q4366.26 710.968 4366.26 693.202 Q4366.26 675.378 4361.69 666.524 Q4357.17 657.612 4348.09 657.612 M4348.09 648.353 Q4362.61 648.353 4370.25 659.869 Q4377.95 671.327 4377.95 693.202 Q4377.95 715.019 4370.25 726.535 Q4362.61 737.993 4348.09 737.993 Q4333.56 737.993 4325.86 726.535 Q4318.23 715.019 4318.23 693.202 Q4318.23 671.327 4325.86 659.869 Q4333.56 648.353 4348.09 648.353 Z" fill="#000000" fill-rule="nonzero" fill-opacity="1" /><path clip-path="url(#clip860)" d="M4471.99 698.294 Q4466.95 698.294 4464.06 702.577 Q4461.22 706.859 4461.22 714.498 Q4461.22 722.021 4464.06 726.361 Q4466.95 730.644 4471.99 730.644 Q4476.9 730.644 4479.74 726.361 Q4482.63 722.021 4482.63 714.498 Q4482.63 706.917 4479.74 702.635 Q4476.9 698.294 4471.99 698.294 M4471.99 690.945 Q4481.13 690.945 4486.51 697.311 Q4491.89 703.676 4491.89 714.498 Q4491.89 725.32 4486.45 731.685 Q4481.07 737.993 4471.99 737.993 Q4462.73 737.993 4457.34 731.685 Q4451.96 725.32 4451.96 714.498 Q4451.96 703.618 4457.34 697.311 Q4462.78 690.945 4471.99 690.945 M4412.26 655.702 Q4407.29 655.702 4404.39 660.042 Q4401.56 664.325 4401.56 671.848 Q4401.56 679.487 4404.39 683.769 Q4407.23 688.051 4412.26 688.051 Q4417.3 688.051 4420.13 683.769 Q4423.03 679.487 4423.03 671.848 Q4423.03 664.383 4420.13 660.042 Q4417.24 655.702 4412.26 655.702 M4464.52 648.353 L4473.78 648.353 L4419.73 737.993 L4410.47 737.993 L4464.52 648.353 M4412.26 648.353 Q4421.41 648.353 4426.85 654.718 Q4432.29 661.026 4432.29 671.848 Q4432.29 682.785 4426.85 689.093 Q4421.47 695.401 4412.26 695.401 Q4403.06 695.401 4397.68 689.093 Q4392.36 682.727 4392.36 671.848 Q4392.36 661.084 4397.74 654.718 Q4403.12 648.353 4412.26 648.353 Z" fill="#000000" fill-rule="nonzero" fill-opacity="1" /></svg>
