<?xml version="1.0" encoding="utf-8"?>
<svg xmlns="http://www.w3.org/2000/svg" xmlns:xlink="http://www.w3.org/1999/xlink" width="1200" height="300" viewBox="0 0 4800 1200">
<defs>
  <clipPath id="clip190">
    <rect x="0" y="0" width="4800" height="1200"/>
  </clipPath>
</defs>
<path clip-path="url(#clip190)" d="M0 1200 L4800 1200 L4800 0 L0 0  Z" fill="#ffffff" fill-rule="evenodd" fill-opacity="1"/>
<defs>
  <clipPath id="clip191">
    <rect x="960" y="0" width="3361" height="1200"/>
  </clipPath>
</defs>
<path clip-path="url(#clip190)" d="M284.22 904.535 L4752.76 904.535 L4752.76 47.2441 L284.22 47.2441  Z" fill="#ffffff" fill-rule="evenodd" fill-opacity="1"/>
<defs>
  <clipPath id="clip192">
    <rect x="284" y="47" width="4470" height="858"/>
  </clipPath>
</defs>
<polyline clip-path="url(#clip192)" style="stroke:#000000; stroke-linecap:round; stroke-linejoin:round; stroke-width:2; stroke-opacity:0.1; fill:none" points="410.688,904.535 410.688,47.2441 "/>
<polyline clip-path="url(#clip192)" style="stroke:#000000; stroke-linecap:round; stroke-linejoin:round; stroke-width:2; stroke-opacity:0.1; fill:none" points="1253.81,904.535 1253.81,47.2441 "/>
<polyline clip-path="url(#clip192)" style="stroke:#000000; stroke-linecap:round; stroke-linejoin:round; stroke-width:2; stroke-opacity:0.1; fill:none" points="2096.93,904.535 2096.93,47.2441 "/>
<polyline clip-path="url(#clip192)" style="stroke:#000000; stroke-linecap:round; stroke-linejoin:round; stroke-width:2; stroke-opacity:0.1; fill:none" points="2940.05,904.535 2940.05,47.2441 "/>
<polyline clip-path="url(#clip192)" style="stroke:#000000; stroke-linecap:round; stroke-linejoin:round; stroke-width:2; stroke-opacity:0.1; fill:none" points="3783.17,904.535 3783.17,47.2441 "/>
<polyline clip-path="url(#clip192)" style="stroke:#000000; stroke-linecap:round; stroke-linejoin:round; stroke-width:2; stroke-opacity:0.1; fill:none" points="4626.29,904.535 4626.29,47.2441 "/>
<polyline clip-path="url(#clip192)" style="stroke:#000000; stroke-linecap:round; stroke-linejoin:round; stroke-width:2; stroke-opacity:0.1; fill:none" points="284.22,824.129 4752.76,824.129 "/>
<polyline clip-path="url(#clip192)" style="stroke:#000000; stroke-linecap:round; stroke-linejoin:round; stroke-width:2; stroke-opacity:0.1; fill:none" points="284.22,604.37 4752.76,604.37 "/>
<polyline clip-path="url(#clip192)" style="stroke:#000000; stroke-linecap:round; stroke-linejoin:round; stroke-width:2; stroke-opacity:0.1; fill:none" points="284.22,384.612 4752.76,384.612 "/>
<polyline clip-path="url(#clip192)" style="stroke:#000000; stroke-linecap:round; stroke-linejoin:round; stroke-width:2; stroke-opacity:0.1; fill:none" points="284.22,164.854 4752.76,164.854 "/>
<polyline clip-path="url(#clip190)" style="stroke:#000000; stroke-linecap:round; stroke-linejoin:round; stroke-width:4; stroke-opacity:1; fill:none" points="284.22,904.535 4752.76,904.535 "/>
<polyline clip-path="url(#clip190)" style="stroke:#000000; stroke-linecap:round; stroke-linejoin:round; stroke-width:4; stroke-opacity:1; fill:none" points="410.688,904.535 410.688,885.638 "/>
<polyline clip-path="url(#clip190)" style="stroke:#000000; stroke-linecap:round; stroke-linejoin:round; stroke-width:4; stroke-opacity:1; fill:none" points="1253.81,904.535 1253.81,885.638 "/>
<polyline clip-path="url(#clip190)" style="stroke:#000000; stroke-linecap:round; stroke-linejoin:round; stroke-width:4; stroke-opacity:1; fill:none" points="2096.93,904.535 2096.93,885.638 "/>
<polyline clip-path="url(#clip190)" style="stroke:#000000; stroke-linecap:round; stroke-linejoin:round; stroke-width:4; stroke-opacity:1; fill:none" points="2940.05,904.535 2940.05,885.638 "/>
<polyline clip-path="url(#clip190)" style="stroke:#000000; stroke-linecap:round; stroke-linejoin:round; stroke-width:4; stroke-opacity:1; fill:none" points="3783.17,904.535 3783.17,885.638 "/>
<polyline clip-path="url(#clip190)" style="stroke:#000000; stroke-linecap:round; stroke-linejoin:round; stroke-width:4; stroke-opacity:1; fill:none" points="4626.29,904.535 4626.29,885.638 "/>
<path clip-path="url(#clip190)" d="M410.688 966.373 Q403.466 966.373 399.809 973.502 Q396.198 980.586 396.198 994.845 Q396.198 1009.06 399.809 1016.19 Q403.466 1023.27 410.688 1023.27 Q417.957 1023.27 421.568 1016.19 Q425.225 1009.06 425.225 994.845 Q425.225 980.586 421.568 973.502 Q417.957 966.373 410.688 966.373 M410.688 958.965 Q422.309 958.965 428.42 968.178 Q434.577 977.345 434.577 994.845 Q434.577 1012.3 428.42 1021.51 Q422.309 1030.68 410.688 1030.68 Q399.068 1030.68 392.911 1021.51 Q386.8 1012.3 386.8 994.845 Q386.8 977.345 392.911 968.178 Q399.068 958.965 410.688 958.965 Z" fill="#000000" fill-rule="nonzero" fill-opacity="1" /><path clip-path="url(#clip190)" d="M1243.11 1021.47 L1275.75 1021.47 L1275.75 1029.34 L1231.86 1029.34 L1231.86 1021.47 Q1237.19 1015.96 1246.35 1006.7 Q1255.57 997.391 1257.93 994.706 Q1262.42 989.66 1264.18 986.188 Q1265.98 982.669 1265.98 979.289 Q1265.98 973.78 1262.1 970.308 Q1258.25 966.836 1252.05 966.836 Q1247.65 966.836 1242.74 968.364 Q1237.88 969.891 1232.33 972.993 L1232.33 963.549 Q1237.98 961.28 1242.88 960.123 Q1247.79 958.965 1251.86 958.965 Q1262.6 958.965 1268.99 964.336 Q1275.38 969.706 1275.38 978.688 Q1275.38 982.947 1273.76 986.789 Q1272.19 990.586 1267.97 995.771 Q1266.82 997.113 1260.61 1003.55 Q1254.41 1009.94 1243.11 1021.47 Z" fill="#000000" fill-rule="nonzero" fill-opacity="1" /><path clip-path="url(#clip190)" d="M2102.95 968.364 L2079.34 1005.26 L2102.95 1005.26 L2102.95 968.364 M2100.49 960.215 L2112.25 960.215 L2112.25 1005.26 L2122.11 1005.26 L2122.11 1013.04 L2112.25 1013.04 L2112.25 1029.34 L2102.95 1029.34 L2102.95 1013.04 L2071.74 1013.04 L2071.74 1004.01 L2100.49 960.215 Z" fill="#000000" fill-rule="nonzero" fill-opacity="1" /><path clip-path="url(#clip190)" d="M2940.86 991.049 Q2934.56 991.049 2930.86 995.354 Q2927.2 999.66 2927.2 1007.16 Q2927.2 1014.61 2930.86 1018.97 Q2934.56 1023.27 2940.86 1023.27 Q2947.15 1023.27 2950.81 1018.97 Q2954.52 1014.61 2954.52 1007.16 Q2954.52 999.66 2950.81 995.354 Q2947.15 991.049 2940.86 991.049 M2959.42 961.743 L2959.42 970.262 Q2955.9 968.595 2952.29 967.715 Q2948.73 966.836 2945.21 966.836 Q2935.95 966.836 2931.04 973.086 Q2926.18 979.336 2925.49 991.975 Q2928.22 987.947 2932.34 985.817 Q2936.46 983.641 2941.41 983.641 Q2951.83 983.641 2957.85 989.984 Q2963.91 996.28 2963.91 1007.16 Q2963.91 1017.81 2957.62 1024.24 Q2951.32 1030.68 2940.86 1030.68 Q2928.87 1030.68 2922.53 1021.51 Q2916.18 1012.3 2916.18 994.845 Q2916.18 978.456 2923.96 968.734 Q2931.74 958.965 2944.84 958.965 Q2948.36 958.965 2951.92 959.66 Q2955.53 960.354 2959.42 961.743 Z" fill="#000000" fill-rule="nonzero" fill-opacity="1" /><path clip-path="url(#clip190)" d="M3783.17 996.512 Q3776.5 996.512 3772.66 1000.08 Q3768.86 1003.64 3768.86 1009.89 Q3768.86 1016.14 3772.66 1019.71 Q3776.5 1023.27 3783.17 1023.27 Q3789.83 1023.27 3793.68 1019.71 Q3797.52 1016.09 3797.52 1009.89 Q3797.52 1003.64 3793.68 1000.08 Q3789.88 996.512 3783.17 996.512 M3773.82 992.53 Q3767.8 991.049 3764.42 986.928 Q3761.08 982.808 3761.08 976.882 Q3761.08 968.595 3766.96 963.78 Q3772.89 958.965 3783.17 958.965 Q3793.49 958.965 3799.37 963.78 Q3805.25 968.595 3805.25 976.882 Q3805.25 982.808 3801.87 986.928 Q3798.54 991.049 3792.57 992.53 Q3799.33 994.104 3803.08 998.687 Q3806.87 1003.27 3806.87 1009.89 Q3806.87 1019.94 3800.71 1025.31 Q3794.6 1030.68 3783.17 1030.68 Q3771.73 1030.68 3765.58 1025.31 Q3759.46 1019.94 3759.46 1009.89 Q3759.46 1003.27 3763.26 998.687 Q3767.06 994.104 3773.82 992.53 M3770.39 977.762 Q3770.39 983.132 3773.72 986.141 Q3777.1 989.15 3783.17 989.15 Q3789.19 989.15 3792.57 986.141 Q3795.99 983.132 3795.99 977.762 Q3795.99 972.391 3792.57 969.382 Q3789.19 966.373 3783.17 966.373 Q3777.1 966.373 3773.72 969.382 Q3770.39 972.391 3770.39 977.762 Z" fill="#000000" fill-rule="nonzero" fill-opacity="1" /><path clip-path="url(#clip190)" d="M4575.66 1021.47 L4590.94 1021.47 L4590.94 968.734 L4574.32 972.067 L4574.32 963.549 L4590.85 960.215 L4600.2 960.215 L4600.2 1021.47 L4615.48 1021.47 L4615.48 1029.34 L4575.66 1029.34 L4575.66 1021.47 Z" fill="#000000" fill-rule="nonzero" fill-opacity="1" /><path clip-path="url(#clip190)" d="M4654.37 966.373 Q4647.14 966.373 4643.49 973.502 Q4639.88 980.586 4639.88 994.845 Q4639.88 1009.06 4643.49 1016.19 Q4647.14 1023.27 4654.37 1023.27 Q4661.63 1023.27 4665.25 1016.19 Q4668.9 1009.06 4668.9 994.845 Q4668.9 980.586 4665.25 973.502 Q4661.63 966.373 4654.37 966.373 M4654.37 958.965 Q4665.99 958.965 4672.1 968.178 Q4678.26 977.345 4678.26 994.845 Q4678.26 1012.3 4672.1 1021.51 Q4665.99 1030.68 4654.37 1030.68 Q4642.75 1030.68 4636.59 1021.51 Q4630.48 1012.3 4630.48 994.845 Q4630.48 977.345 4636.59 968.178 Q4642.75 958.965 4654.37 958.965 Z" fill="#000000" fill-rule="nonzero" fill-opacity="1" /><path clip-path="url(#clip190)" d="M2235.73 1095.77 L2301.51 1095.77 L2301.51 1104.62 L2273.91 1104.62 L2273.91 1173.53 L2263.33 1173.53 L2263.33 1104.62 L2235.73 1104.62 L2235.73 1095.77 Z" fill="#000000" fill-rule="nonzero" fill-opacity="1" /><path clip-path="url(#clip190)" d="M2307.97 1115.19 L2317.55 1115.19 L2317.55 1173.53 L2307.97 1173.53 L2307.97 1115.19 M2307.97 1092.49 L2317.55 1092.49 L2317.55 1104.62 L2307.97 1104.62 L2307.97 1092.49 Z" fill="#000000" fill-rule="nonzero" fill-opacity="1" /><path clip-path="url(#clip190)" d="M2383.02 1126.39 Q2386.61 1119.93 2391.61 1116.86 Q2396.61 1113.79 2403.38 1113.79 Q2412.5 1113.79 2417.45 1120.19 Q2422.39 1126.55 2422.39 1138.32 L2422.39 1173.53 L2412.76 1173.53 L2412.76 1138.63 Q2412.76 1130.25 2409.79 1126.18 Q2406.82 1122.12 2400.73 1122.12 Q2393.28 1122.12 2388.96 1127.07 Q2384.63 1132.02 2384.63 1140.56 L2384.63 1173.53 L2375 1173.53 L2375 1138.63 Q2375 1130.19 2372.03 1126.18 Q2369.06 1122.12 2362.86 1122.12 Q2355.52 1122.12 2351.2 1127.12 Q2346.87 1132.07 2346.87 1140.56 L2346.87 1173.53 L2337.24 1173.53 L2337.24 1115.19 L2346.87 1115.19 L2346.87 1124.26 Q2350.16 1118.89 2354.74 1116.34 Q2359.32 1113.79 2365.62 1113.79 Q2371.98 1113.79 2376.41 1117.02 Q2380.88 1120.25 2383.02 1126.39 Z" fill="#000000" fill-rule="nonzero" fill-opacity="1" /><path clip-path="url(#clip190)" d="M2491.41 1141.97 L2491.41 1146.65 L2447.34 1146.65 Q2447.97 1156.55 2453.28 1161.76 Q2458.64 1166.91 2468.18 1166.91 Q2473.7 1166.91 2478.85 1165.56 Q2484.06 1164.2 2489.17 1161.5 L2489.17 1170.56 Q2484.01 1172.75 2478.59 1173.89 Q2473.18 1175.04 2467.6 1175.04 Q2453.64 1175.04 2445.47 1166.91 Q2437.34 1158.79 2437.34 1144.93 Q2437.34 1130.61 2445.05 1122.23 Q2452.81 1113.79 2465.94 1113.79 Q2477.71 1113.79 2484.53 1121.39 Q2491.41 1128.94 2491.41 1141.97 M2481.82 1139.15 Q2481.72 1131.29 2477.39 1126.6 Q2473.12 1121.91 2466.04 1121.91 Q2458.02 1121.91 2453.18 1126.44 Q2448.38 1130.98 2447.66 1139.2 L2481.82 1139.15 Z" fill="#000000" fill-rule="nonzero" fill-opacity="1" /><path clip-path="url(#clip190)" d="M2564.06 1092.59 Q2557.08 1104.57 2553.7 1116.29 Q2550.31 1128.01 2550.31 1140.04 Q2550.31 1152.07 2553.7 1163.89 Q2557.13 1175.66 2564.06 1187.59 L2555.73 1187.59 Q2547.92 1175.35 2544.01 1163.53 Q2540.15 1151.7 2540.15 1140.04 Q2540.15 1128.42 2544.01 1116.65 Q2547.86 1104.88 2555.73 1092.59 L2564.06 1092.59 Z" fill="#000000" fill-rule="nonzero" fill-opacity="1" /><path clip-path="url(#clip190)" d="M2621.04 1124.05 L2621.04 1092.49 L2630.62 1092.49 L2630.62 1173.53 L2621.04 1173.53 L2621.04 1164.78 Q2618.02 1169.99 2613.38 1172.54 Q2608.8 1175.04 2602.34 1175.04 Q2591.77 1175.04 2585.1 1166.6 Q2578.49 1158.16 2578.49 1144.41 Q2578.49 1130.66 2585.1 1122.23 Q2591.77 1113.79 2602.34 1113.79 Q2608.8 1113.79 2613.38 1116.34 Q2618.02 1118.84 2621.04 1124.05 M2588.38 1144.41 Q2588.38 1154.99 2592.71 1161.03 Q2597.08 1167.02 2604.69 1167.02 Q2612.29 1167.02 2616.66 1161.03 Q2621.04 1154.99 2621.04 1144.41 Q2621.04 1133.84 2616.66 1127.85 Q2612.29 1121.81 2604.69 1121.81 Q2597.08 1121.81 2592.71 1127.85 Q2588.38 1133.84 2588.38 1144.41 Z" fill="#000000" fill-rule="nonzero" fill-opacity="1" /><path clip-path="url(#clip190)" d="M2676.87 1144.2 Q2665.26 1144.2 2660.78 1146.86 Q2656.3 1149.52 2656.3 1155.92 Q2656.3 1161.03 2659.63 1164.05 Q2663.02 1167.02 2668.8 1167.02 Q2676.77 1167.02 2681.56 1161.39 Q2686.4 1155.72 2686.4 1146.34 L2686.4 1144.2 L2676.87 1144.2 M2695.99 1140.25 L2695.99 1173.53 L2686.4 1173.53 L2686.4 1164.67 Q2683.12 1169.99 2678.23 1172.54 Q2673.33 1175.04 2666.25 1175.04 Q2657.29 1175.04 2651.98 1170.04 Q2646.72 1164.99 2646.72 1156.55 Q2646.72 1146.7 2653.28 1141.7 Q2659.89 1136.7 2672.97 1136.7 L2686.4 1136.7 L2686.4 1135.77 Q2686.4 1129.15 2682.03 1125.56 Q2677.71 1121.91 2669.84 1121.91 Q2664.84 1121.91 2660.1 1123.11 Q2655.36 1124.31 2650.99 1126.7 L2650.99 1117.85 Q2656.25 1115.82 2661.2 1114.83 Q2666.14 1113.79 2670.83 1113.79 Q2683.49 1113.79 2689.74 1120.35 Q2695.99 1126.91 2695.99 1140.25 Z" fill="#000000" fill-rule="nonzero" fill-opacity="1" /><path clip-path="url(#clip190)" d="M2740 1178.94 Q2735.93 1189.36 2732.08 1192.54 Q2728.23 1195.71 2721.77 1195.71 L2714.11 1195.71 L2714.11 1187.69 L2719.74 1187.69 Q2723.7 1187.69 2725.88 1185.82 Q2728.07 1183.94 2730.73 1176.96 L2732.45 1172.59 L2708.85 1115.19 L2719.01 1115.19 L2737.24 1160.82 L2755.47 1115.19 L2765.62 1115.19 L2740 1178.94 Z" fill="#000000" fill-rule="nonzero" fill-opacity="1" /><path clip-path="url(#clip190)" d="M2777.34 1092.59 L2785.67 1092.59 Q2793.49 1104.88 2797.34 1116.65 Q2801.25 1128.42 2801.25 1140.04 Q2801.25 1151.7 2797.34 1163.53 Q2793.49 1175.35 2785.67 1187.59 L2777.34 1187.59 Q2784.27 1175.66 2787.65 1163.89 Q2791.09 1152.07 2791.09 1140.04 Q2791.09 1128.01 2787.65 1116.29 Q2784.27 1104.57 2777.34 1092.59 Z" fill="#000000" fill-rule="nonzero" fill-opacity="1" /><polyline clip-path="url(#clip190)" style="stroke:#000000; stroke-linecap:round; stroke-linejoin:round; stroke-width:4; stroke-opacity:1; fill:none" points="284.22,904.535 284.22,47.2441 "/>
<polyline clip-path="url(#clip190)" style="stroke:#000000; stroke-linecap:round; stroke-linejoin:round; stroke-width:4; stroke-opacity:1; fill:none" points="284.22,824.129 303.118,824.129 "/>
<polyline clip-path="url(#clip190)" style="stroke:#000000; stroke-linecap:round; stroke-linejoin:round; stroke-width:4; stroke-opacity:1; fill:none" points="284.22,604.37 303.118,604.37 "/>
<polyline clip-path="url(#clip190)" style="stroke:#000000; stroke-linecap:round; stroke-linejoin:round; stroke-width:4; stroke-opacity:1; fill:none" points="284.22,384.612 303.118,384.612 "/>
<polyline clip-path="url(#clip190)" style="stroke:#000000; stroke-linecap:round; stroke-linejoin:round; stroke-width:4; stroke-opacity:1; fill:none" points="284.22,164.854 303.118,164.854 "/>
<path clip-path="url(#clip190)" d="M-31.8523 825.032 L27.4992 825.032 L27.4992 832.902 L-31.8523 832.902 L-31.8523 825.032 Z" fill="#000000" fill-rule="nonzero" fill-opacity="1" /><path clip-path="url(#clip190)" d="M49.3047 850.818 L64.5824 850.818 L64.5824 798.087 L47.9621 801.421 L47.9621 792.902 L64.4898 789.569 L73.8416 789.569 L73.8416 850.818 L89.1193 850.818 L89.1193 858.689 L49.3047 858.689 L49.3047 850.818 Z" fill="#000000" fill-rule="nonzero" fill-opacity="1" /><path clip-path="url(#clip190)" d="M108.101 789.569 L144.813 789.569 L144.813 797.439 L116.665 797.439 L116.665 814.383 Q118.702 813.689 120.739 813.365 Q122.777 812.995 124.814 812.995 Q136.388 812.995 143.147 819.337 Q149.906 825.68 149.906 836.513 Q149.906 847.67 142.962 853.874 Q136.017 860.031 123.378 860.031 Q119.027 860.031 114.49 859.291 Q109.999 858.55 105.184 857.068 L105.184 847.67 Q109.351 849.939 113.795 851.05 Q118.239 852.161 123.193 852.161 Q131.202 852.161 135.878 847.948 Q140.554 843.735 140.554 836.513 Q140.554 829.291 135.878 825.078 Q131.202 820.865 123.193 820.865 Q119.443 820.865 115.693 821.698 Q111.99 822.532 108.101 824.291 L108.101 789.569 Z" fill="#000000" fill-rule="nonzero" fill-opacity="1" /><path clip-path="url(#clip190)" d="M188.332 795.726 Q181.11 795.726 177.452 802.856 Q173.841 809.939 173.841 824.198 Q173.841 838.411 177.452 845.541 Q181.11 852.624 188.332 852.624 Q195.6 852.624 199.211 845.541 Q202.869 838.411 202.869 824.198 Q202.869 809.939 199.211 802.856 Q195.6 795.726 188.332 795.726 M188.332 788.319 Q199.952 788.319 206.063 797.532 Q212.22 806.698 212.22 824.198 Q212.22 841.652 206.063 850.865 Q199.952 860.031 188.332 860.031 Q176.711 860.031 170.554 850.865 Q164.443 841.652 164.443 824.198 Q164.443 806.698 170.554 797.532 Q176.711 788.319 188.332 788.319 Z" fill="#000000" fill-rule="nonzero" fill-opacity="1" /><path clip-path="url(#clip190)" d="M-31.8523 605.273 L27.4992 605.273 L27.4992 613.143 L-31.8523 613.143 L-31.8523 605.273 Z" fill="#000000" fill-rule="nonzero" fill-opacity="1" /><path clip-path="url(#clip190)" d="M49.3047 631.06 L64.5824 631.06 L64.5824 578.329 L47.9621 581.662 L47.9621 573.144 L64.4898 569.81 L73.8416 569.81 L73.8416 631.06 L89.1193 631.06 L89.1193 638.93 L49.3047 638.93 L49.3047 631.06 Z" fill="#000000" fill-rule="nonzero" fill-opacity="1" /><path clip-path="url(#clip190)" d="M128.008 575.968 Q120.786 575.968 117.128 583.097 Q113.517 590.181 113.517 604.44 Q113.517 618.653 117.128 625.782 Q120.786 632.866 128.008 632.866 Q135.276 632.866 138.888 625.782 Q142.545 618.653 142.545 604.44 Q142.545 590.181 138.888 583.097 Q135.276 575.968 128.008 575.968 M128.008 568.56 Q139.628 568.56 145.739 577.773 Q151.897 586.94 151.897 604.44 Q151.897 621.893 145.739 631.106 Q139.628 640.273 128.008 640.273 Q116.388 640.273 110.23 631.106 Q104.119 621.893 104.119 604.44 Q104.119 586.94 110.23 577.773 Q116.388 568.56 128.008 568.56 Z" fill="#000000" fill-rule="nonzero" fill-opacity="1" /><path clip-path="url(#clip190)" d="M188.332 575.968 Q181.11 575.968 177.452 583.097 Q173.841 590.181 173.841 604.44 Q173.841 618.653 177.452 625.782 Q181.11 632.866 188.332 632.866 Q195.6 632.866 199.211 625.782 Q202.869 618.653 202.869 604.44 Q202.869 590.181 199.211 583.097 Q195.6 575.968 188.332 575.968 M188.332 568.56 Q199.952 568.56 206.063 577.773 Q212.22 586.94 212.22 604.44 Q212.22 621.893 206.063 631.106 Q199.952 640.273 188.332 640.273 Q176.711 640.273 170.554 631.106 Q164.443 621.893 164.443 604.44 Q164.443 586.94 170.554 577.773 Q176.711 568.56 188.332 568.56 Z" fill="#000000" fill-rule="nonzero" fill-opacity="1" /><path clip-path="url(#clip190)" d="M28.4715 385.515 L87.823 385.515 L87.823 393.385 L28.4715 393.385 L28.4715 385.515 Z" fill="#000000" fill-rule="nonzero" fill-opacity="1" /><path clip-path="url(#clip190)" d="M108.101 350.052 L144.813 350.052 L144.813 357.922 L116.665 357.922 L116.665 374.867 Q118.702 374.172 120.739 373.848 Q122.777 373.478 124.814 373.478 Q136.388 373.478 143.147 379.82 Q149.906 386.163 149.906 396.996 Q149.906 408.153 142.962 414.357 Q136.017 420.515 123.378 420.515 Q119.027 420.515 114.49 419.774 Q109.999 419.033 105.184 417.552 L105.184 408.153 Q109.351 410.422 113.795 411.533 Q118.239 412.644 123.193 412.644 Q131.202 412.644 135.878 408.431 Q140.554 404.218 140.554 396.996 Q140.554 389.774 135.878 385.561 Q131.202 381.348 123.193 381.348 Q119.443 381.348 115.693 382.181 Q111.99 383.015 108.101 384.774 L108.101 350.052 Z" fill="#000000" fill-rule="nonzero" fill-opacity="1" /><path clip-path="url(#clip190)" d="M188.332 356.209 Q181.11 356.209 177.452 363.339 Q173.841 370.422 173.841 384.681 Q173.841 398.894 177.452 406.024 Q181.11 413.107 188.332 413.107 Q195.6 413.107 199.211 406.024 Q202.869 398.894 202.869 384.681 Q202.869 370.422 199.211 363.339 Q195.6 356.209 188.332 356.209 M188.332 348.802 Q199.952 348.802 206.063 358.015 Q212.22 367.181 212.22 384.681 Q212.22 402.135 206.063 411.348 Q199.952 420.515 188.332 420.515 Q176.711 420.515 170.554 411.348 Q164.443 402.135 164.443 384.681 Q164.443 367.181 170.554 358.015 Q176.711 348.802 188.332 348.802 Z" fill="#000000" fill-rule="nonzero" fill-opacity="1" /><path clip-path="url(#clip190)" d="M188.332 136.451 Q181.11 136.451 177.452 143.58 Q173.841 150.664 173.841 164.923 Q173.841 179.136 177.452 186.265 Q181.11 193.349 188.332 193.349 Q195.6 193.349 199.211 186.265 Q202.869 179.136 202.869 164.923 Q202.869 150.664 199.211 143.58 Q195.6 136.451 188.332 136.451 M188.332 129.044 Q199.952 129.044 206.063 138.256 Q212.22 147.423 212.22 164.923 Q212.22 182.377 206.063 191.589 Q199.952 200.756 188.332 200.756 Q176.711 200.756 170.554 191.589 Q164.443 182.377 164.443 164.923 Q164.443 147.423 170.554 138.256 Q176.711 129.044 188.332 129.044 Z" fill="#000000" fill-rule="nonzero" fill-opacity="1" /><path clip-path="url(#clip192)" d="M410.688 187.093 L428.253 200.184 L445.818 216.54 L463.383 234.138 L480.948 251.387 L498.513 267.016 L516.078 277.21 L533.643 285.362 L551.208 284.282 L568.773 278.01 L586.338 273.15 L603.903 269.13 L621.468 266.576 L639.033 267.225 L656.598 271.656 L674.163 279.245 L691.728 287.67 L709.293 297.808 L726.858 307.946 L744.423 317.657 L761.988 328.291 L779.553 336.698 L797.118 337.714 L814.683 334.581 L832.248 339.767 L849.813 353.004 L867.378 368.661 L884.943 386.863 L902.508 406.347 L920.073 426.044 L937.638 438.602 L955.203 445.56 L972.768 440.298 L990.333 425.589 L1007.9 413.142 L1025.46 400.734 L1043.03 389.387 L1060.59 384.043 L1078.16 381.85 L1095.72 382.733 L1113.29 384.815 L1130.85 389.635 L1148.42 396.17 L1165.98 405.943 L1183.55 416.335 L1201.11 424.56 L1218.68 425.213 L1236.24 420.083 L1253.81 418.257 L1271.37 430.964 L1288.94 446.2 L1306.5 464.147 L1324.07 483.565 L1341.63 503.381 L1359.2 515.949 L1376.76 522.521 L1394.33 514.35 L1411.89 495.398 L1429.46 481.149 L1447.02 468.31 L1464.59 455.459 L1482.15 447.171 L1499.72 444.946 L1517.28 441.788 L1534.85 435.67 L1552.41 438.198 L1569.98 443.099 L1587.54 452.934 L1605.11 463.6 L1622.67 472.093 L1640.24 472.788 L1657.8 467.391 L1675.37 462.915 L1692.93 478.283 L1710.5 494.363 L1728.06 510.883 L1745.63 526.562 L1763.19 540.855 L1780.76 550.469 L1798.32 556.347 L1815.89 551.63 L1833.45 538.501 L1851.02 525.454 L1868.58 510.567 L1886.15 496.443 L1903.71 492.942 L1921.28 489.291 L1938.84 484.614 L1956.41 477.018 L1973.97 470.5 L1991.54 475.381 L2009.1 485.139 L2026.67 496.418 L2044.23 505.52 L2061.8 506.557 L2079.36 501.167 L2096.93 500.482 L2114.49 515.883 L2132.06 532.038 L2149.62 548.716 L2167.19 564.654 L2184.75 579.335 L2202.32 586.47 L2219.88 587.954 L2237.45 586.763 L2255.01 574.333 L2272.58 560.839 L2290.14 545.246 L2307.71 532.891 L2325.27 528.75 L2342.84 524.459 L2360.4 519.111 L2377.97 510.872 L2395.53 502.828 L2413.1 504.082 L2430.66 514.449 L2448.23 526.458 L2465.79 536.241 L2483.36 537.677 L2500.92 532.334 L2518.49 532.556 L2536.05 548.029 L2553.62 564.295 L2571.18 581.17 L2588.75 597.414 L2606.31 612.531 L2623.88 620.105 L2641.44 624.918 L2659.01 621.716 L2676.57 608.331 L2694.14 594.715 L2711.7 578.672 L2729.27 566.709 L2746.83 562.075 L2764.4 557.347 L2781.96 551.56 L2799.53 542.786 L2817.09 534.153 L2834.66 533.298 L2852.22 544.28 L2869.79 557.049 L2887.35 567.525 L2904.92 569.364 L2922.48 564.076 L2940.05 563.603 L2957.61 579.147 L2975.18 595.528 L2992.74 612.604 L3010.31 629.174 L3027.87 644.766 L3045.44 652.833 L3063 665.273 L3080.57 663.147 L3098.13 648.084 L3115.7 631.416 L3133.26 612.987 L3150.83 599.761 L3168.39 595.027 L3185.96 590.096 L3203.52 584.004 L3221.09 574.873 L3238.65 565.929 L3256.22 563.741 L3273.78 575.397 L3291.35 588.94 L3308.91 600.116 L3326.48 602.351 L3344.04 597.1 L3361.61 594.926 L3379.17 610.518 L3396.74 626.999 L3414.3 644.283 L3431.87 661.199 L3449.43 677.304 L3467 693.545 L3484.56 708.783 L3502.13 708.047 L3519.69 693.596 L3537.26 676.827 L3554.82 657.533 L3572.39 637.281 L3589.95 629.267 L3607.52 623.993 L3625.08 617.698 L3642.65 608.154 L3660.21 598.822 L3677.78 596.317 L3695.34 608.573 L3712.91 622.908 L3730.47 634.769 L3748.04 637.367 L3765.6 632.112 L3783.17 627.555 L3800.73 642.913 L3818.3 659.491 L3835.86 676.984 L3853.43 694.268 L3870.99 716.817 L3888.56 739.676 L3906.12 756.842 L3923.69 757.5 L3941.25 743.239 L3958.82 726.327 L3976.38 706.215 L3993.95 684.743 L4011.51 665.194 L4029.08 659.028 L4046.64 652.32 L4064.21 642.504 L4081.77 632.845 L4099.34 630.648 L4116.9 649.992 L4134.47 671.504 L4152.03 688.492 L4169.6 693.2 L4187.16 687.195 L4204.73 677.127 L4222.29 683.614 L4239.86 695.278 L4257.42 713.352 L4274.99 736.671 L4292.55 769.981 L4310.12 804.065 L4327.68 835.453 L4345.25 850.374 L4362.81 847.844 L4380.38 838.302 L4397.94 821.784 L4415.51 804.695 L4433.07 789.353 L4450.64 776.946 L4468.2 770.003 L4485.77 768.692 L4503.33 777.379 L4520.9 794.475 L4538.46 821.399 L4556.03 850.294 L4573.59 872.884 L4591.16 880.272 L4608.72 874.077 L4626.29 861.854 L4626.29 89.4158 L4608.72 88.6473 L4591.16 89.113 L4573.59 89.1097 L4556.03 88.0045 L4538.46 87.5603 L4520.9 88.0437 L4503.33 90.2914 L4485.77 92.1086 L4468.2 93.4886 L4450.64 93.3157 L4433.07 92.8128 L4415.51 92.5978 L4397.94 94.1894 L4380.38 97.5789 L4362.81 103.452 L4345.25 112.832 L4327.68 119.531 L4310.12 120.235 L4292.55 117.627 L4274.99 111.069 L4257.42 103.633 L4239.86 95.9169 L4222.29 89.007 L4204.73 83.531 L4187.16 82.7831 L4169.6 83.2759 L4152.03 83.3091 L4134.47 82.217 L4116.9 81.7903 L4099.34 82.2865 L4081.77 84.5205 L4064.21 86.3287 L4046.64 87.7096 L4029.08 87.5384 L4011.51 87.0198 L3993.95 86.9675 L3976.38 88.5624 L3958.82 91.9622 L3941.25 97.8679 L3923.69 107.334 L3906.12 114.132 L3888.56 114.947 L3870.99 112.423 L3853.43 105.958 L3835.86 98.6037 L3818.3 90.9515 L3800.73 84.0943 L3783.17 78.6597 L3765.6 77.9408 L3748.04 78.4589 L3730.47 78.5136 L3712.91 77.4357 L3695.34 77.0064 L3677.78 77.4992 L3660.21 79.7402 L3642.65 81.5198 L3625.08 82.9273 L3607.52 82.7622 L3589.95 82.2218 L3572.39 82.0454 L3554.82 83.6593 L3537.26 87.0816 L3519.69 92.9958 L3502.13 102.48 L3484.56 109.348 L3467 110.263 L3449.43 107.848 L3431.87 101.484 L3414.3 94.2191 L3396.74 86.6474 L3379.17 79.8518 L3361.61 74.4687 L3344.04 73.8018 L3326.48 74.3938 L3308.91 74.5521 L3291.35 73.5923 L3273.78 73.2689 L3256.22 73.8466 L3238.65 76.1612 L3221.09 77.8641 L3203.52 79.4157 L3185.96 79.2406 L3168.39 78.711 L3150.83 78.6026 L3133.26 80.2307 L3115.7 83.681 L3098.13 89.6632 L3080.57 99.2404 L3063 106.227 L3045.44 107.272 L3027.87 104.989 L3010.31 98.7588 L2992.74 91.6192 L2975.18 84.1671 L2957.61 77.4984 L2940.05 72.2448 L2922.48 71.7112 L2904.92 72.4157 L2887.35 72.6481 L2869.79 71.7617 L2852.22 71.5071 L2834.66 72.1663 L2817.09 74.5188 L2799.53 76.3785 L2781.96 77.8804 L2764.4 77.8099 L2746.83 77.376 L2729.27 77.4285 L2711.7 79.1344 L2694.14 82.6739 L2676.57 88.7506 L2659.01 98.4394 L2641.44 105.562 L2623.88 106.76 L2606.31 104.624 L2588.75 98.5414 L2571.18 91.5439 L2553.62 84.2247 L2536.05 77.6892 L2518.49 72.5673 L2500.92 72.1476 L2483.36 72.9677 L2465.79 73.3265 L2448.23 72.5551 L2430.66 72.4169 L2413.1 73.175 L2395.53 75.648 L2377.97 77.5019 L2360.4 79.2134 L2342.84 79.255 L2325.27 78.9155 L2307.71 79.0694 L2290.14 80.872 L2272.58 84.5002 L2255.01 90.698 L2237.45 100.529 L2219.88 107.825 L2202.32 109.207 L2184.75 107.269 L2167.19 101.373 L2149.62 94.563 L2132.06 87.4286 L2114.49 81.0762 L2096.93 76.1388 L2079.36 75.9294 L2061.8 76.9723 L2044.23 77.5687 L2026.67 77.0432 L2009.1 77.1561 L1991.54 77.8638 L1973.97 80.4327 L1956.41 82.4234 L1938.84 84.2746 L1921.28 84.8272 L1903.71 84.8476 L1886.15 85.178 L1868.58 87.1587 L1851.02 90.976 L1833.45 97.3615 L1815.89 107.39 L1798.32 114.913 L1780.76 116.531 L1763.19 114.839 L1745.63 109.141 L1728.06 101.825 L1710.5 94.2851 L1692.93 87.7903 L1675.37 83.0983 L1657.8 83.5952 L1640.24 85.6407 L1622.67 87.3107 L1605.11 86.9291 L1587.54 86.4967 L1569.98 86.9883 L1552.41 89.9217 L1534.85 92.765 L1517.28 95.1203 L1499.72 95.839 L1482.15 96.0675 L1464.59 96.0714 L1447.02 96.4376 L1429.46 100.064 L1411.89 107.062 L1394.33 117.803 L1376.76 125.811 L1359.2 127.499 L1341.63 125.617 L1324.07 119.542 L1306.5 112.528 L1288.94 105.302 L1271.37 99.1329 L1253.81 94.7913 L1236.24 95.6777 L1218.68 98.1496 L1201.11 100.303 L1183.55 101.319 L1165.98 101.161 L1148.42 101.224 L1130.85 103.835 L1113.29 106.559 L1095.72 109.212 L1078.16 110.369 L1060.59 111.189 L1043.03 112.494 L1025.46 114.622 L1007.9 118.725 L990.333 126.026 L972.768 137.083 L955.203 145.414 L937.638 147.48 L920.073 146.02 L902.508 140.372 L884.943 133.806 L867.378 127.044 L849.813 121.223 L832.248 117.589 L814.683 119.09 L797.118 122.245 L779.553 125.176 L761.988 123.706 L744.423 122.907 L726.858 123.522 L709.293 126.687 L691.728 129.975 L674.163 133.209 L656.598 134.965 L639.033 136.237 L621.468 135.035 L603.903 138.828 L586.338 146.065 L568.773 155.304 L551.208 168.85 L533.643 179.018 L516.078 183.183 L498.513 183.871 L480.948 180.626 L463.383 176.555 L445.818 171.806 L428.253 166.122 L410.688 163.752  Z" fill="#414141" fill-rule="evenodd" fill-opacity="0.5"/>
<polyline clip-path="url(#clip192)" style="stroke:#414141; stroke-linecap:round; stroke-linejoin:round; stroke-width:0; stroke-opacity:1; fill:none" points="410.688,167.315 428.253,169.323 445.818,172.51 463.383,176.356 480.948,180.093 498.513,183.32 516.078,184.078 533.643,182.789 551.208,177.955 568.773,171.683 586.338,167.69 603.903,165.3 621.468,164.316 639.033,164.784 656.598,166.003 674.163,167.326 691.728,167.826 709.293,167.917 726.858,167.355 744.423,167.33 761.988,167.465 779.553,167.668 797.118,166.89 814.683,165.64 832.248,165.194 849.813,167.872 867.378,171.627 884.943,175.96 902.508,180.124 920.073,183.737 937.638,184.82 955.203,183.758 972.768,179.008 990.333,172.702 1007.9,168.684 1025.46,166.294 1043.03,165.3 1060.59,165.739 1078.16,166.877 1095.72,168.079 1113.29,168.429 1130.85,168.394 1148.42,167.746 1165.98,167.731 1183.55,167.939 1201.11,168.219 1218.68,167.512 1236.24,166.32 1253.81,165.927 1271.37,168.658 1288.94,172.466 1306.5,176.854 1324.07,181.083 1341.63,184.76 1359.2,185.907 1376.76,184.87 1394.33,180.068 1411.89,173.655 1429.46,169.509 1447.02,167.004 1464.59,165.921 1482.15,166.257 1499.72,167.313 1517.28,168.435 1534.85,168.714 1552.41,168.626 1569.98,167.957 1587.54,167.961 1605.11,168.224 1622.67,168.558 1640.24,167.907 1657.8,166.766 1675.37,166.414 1692.93,169.19 1710.5,173.043 1728.06,177.479 1745.63,181.758 1763.19,185.494 1780.76,186.706 1798.32,185.723 1815.89,180.935 1833.45,174.508 1851.02,170.332 1868.58,167.796 1886.15,166.674 1903.71,166.993 1921.28,168.02 1938.84,169.115 1956.41,169.37 1973.97,169.277 1991.54,168.619 2009.1,168.648 2026.67,168.955 2044.23,169.337 2061.8,168.725 2079.36,167.624 2096.93,167.306 2114.49,170.118 2132.06,174.008 2149.62,178.484 2167.19,182.809 2184.75,186.599 2202.32,187.858 2219.88,186.919 2237.45,182.167 2255.01,175.745 2272.58,171.558 2290.14,169.013 2307.71,167.871 2325.27,168.171 2342.84,169.181 2360.4,170.261 2377.97,170.505 2395.53,170.395 2413.1,169.746 2430.66,169.806 2448.23,170.141 2465.79,170.554 2483.36,169.976 2500.92,168.902 2518.49,168.609 2536.05,171.447 2553.62,175.363 2571.18,179.874 2588.75,184.236 2606.31,188.067 2623.88,189.375 2641.44,188.481 2659.01,183.762 2676.57,177.353 2694.14,173.157 2711.7,170.594 2729.27,169.438 2746.83,169.723 2764.4,170.711 2781.96,171.771 2799.53,171.997 2817.09,171.885 2834.66,171.236 2852.22,171.302 2869.79,171.658 2887.35,172.094 2904.92,171.537 2922.48,170.483 2940.05,170.206 2957.61,173.062 2975.18,176.998 2992.74,181.532 3010.31,185.926 3027.87,189.794 3045.44,191.14 3063,190.281 3080.57,185.597 3098.13,179.193 3115.7,174.999 3133.26,172.414 3150.83,171.229 3168.39,171.489 3185.96,172.45 3203.52,173.486 3221.09,173.691 3238.65,173.566 3256.22,172.913 3273.78,172.982 3291.35,173.348 3308.91,173.801 3326.48,173.256 3344.04,172.212 3361.61,171.946 3379.17,174.813 3396.74,178.762 3414.3,183.312 3431.87,187.729 3449.43,191.628 3467,193.007 3484.56,192.184 3502.13,187.527 3519.69,181.14 3537.26,176.933 3554.82,174.33 3572.39,173.126 3589.95,173.35 3607.52,174.283 3625.08,175.295 3642.65,175.477 3660.21,175.34 3677.78,174.692 3695.34,174.772 3712.91,175.15 3730.47,175.619 3748.04,175.086 3765.6,174.052 3783.17,173.792 3800.73,176.666 3818.3,180.624 3835.86,185.189 3853.43,189.628 3870.99,193.557 3888.56,194.979 3906.12,194.204 3923.69,189.577 3941.25,183.188 3958.82,178.979 3976.38,176.356 3993.95,175.122 4011.51,175.322 4029.08,176.225 4046.64,177.207 4064.21,177.37 4081.77,177.218 4099.34,176.563 4116.9,176.648 4134.47,177.044 4152.03,177.528 4169.6,177.005 4187.16,175.976 4204.73,175.718 4222.29,178.593 4239.86,182.555 4257.42,187.132 4274.99,191.592 4292.55,195.555 4310.12,197.022 4327.68,196.299 4345.25,191.713 4362.81,185.351 4380.38,181.135 4397.94,178.494 4415.51,177.235 4433.07,177.394 4450.64,178.265 4468.2,179.222 4485.77,179.364 4503.33,179.209 4520.9,178.563 4538.46,178.663 4556.03,179.081 4573.59,179.584 4591.16,179.081 4608.72,178.058 4626.29,177.795 "/>
<path clip-path="url(#clip192)" d="M410.688 177.621 L428.253 182.941 L445.818 192.155 L463.383 203.598 L480.948 216.45 L498.513 230.011 L516.078 237.531 L533.643 239.35 L551.208 232.237 L568.773 220.37 L586.338 212.54 L603.903 209.14 L621.468 208.551 L639.033 209.35 L656.598 214.72 L674.163 219.456 L691.728 223.046 L709.293 226.409 L726.858 228.977 L744.423 232.084 L761.988 235.165 L779.553 237.18 L797.118 235.321 L814.683 233.564 L832.248 231.125 L849.813 238.136 L867.378 249.14 L884.943 263.238 L902.508 275.305 L920.073 289.043 L937.638 295.613 L955.203 297.824 L972.768 289.969 L990.333 274.705 L1007.9 263.485 L1025.46 258.42 L1043.03 253.229 L1060.59 252.372 L1078.16 254.494 L1095.72 257.152 L1113.29 259.905 L1130.85 262.884 L1148.42 264.471 L1165.98 267.105 L1183.55 269.038 L1201.11 269.346 L1218.68 265.621 L1236.24 263.325 L1253.81 261.829 L1271.37 268.577 L1288.94 276.758 L1306.5 288.781 L1324.07 302.039 L1341.63 315.748 L1359.2 321.579 L1376.76 323.319 L1394.33 312.905 L1411.89 298.376 L1429.46 288.217 L1447.02 279.25 L1464.59 272.557 L1482.15 270.599 L1499.72 270.234 L1517.28 271.578 L1534.85 273.986 L1552.41 275.642 L1569.98 276.738 L1587.54 278.766 L1605.11 279.898 L1622.67 280.968 L1640.24 276.46 L1657.8 277.318 L1675.37 273.616 L1692.93 280.142 L1710.5 289.562 L1728.06 302.146 L1745.63 317.107 L1763.19 330.279 L1780.76 336.609 L1798.32 335.82 L1815.89 328.134 L1833.45 312.38 L1851.02 299.601 L1868.58 286.295 L1886.15 281.59 L1903.71 279.606 L1921.28 278.116 L1938.84 279.462 L1956.41 281.494 L1973.97 282.928 L1991.54 282.479 L2009.1 283.086 L2026.67 285.583 L2044.23 285.878 L2061.8 282.912 L2079.36 284.062 L2096.93 281.314 L2114.49 287.889 L2132.06 297.286 L2149.62 309.678 L2167.19 323.008 L2184.75 337.613 L2202.32 343.713 L2219.88 344.208 L2237.45 336.353 L2255.01 317.843 L2272.58 305.719 L2290.14 292.189 L2307.71 287.074 L2325.27 285.408 L2342.84 284.619 L2360.4 285.543 L2377.97 286.124 L2395.53 286.904 L2413.1 286.503 L2430.66 288.092 L2448.23 290.413 L2465.79 289.253 L2483.36 287.03 L2500.92 287.503 L2518.49 287.717 L2536.05 292.94 L2553.62 303.011 L2571.18 314.974 L2588.75 328.354 L2606.31 340.697 L2623.88 346.307 L2641.44 348.997 L2659.01 338.913 L2676.57 321.753 L2694.14 308.502 L2711.7 297.727 L2729.27 293.291 L2746.83 289.29 L2764.4 288.728 L2781.96 290.292 L2799.53 290.707 L2817.09 291.01 L2834.66 290.983 L2852.22 292.933 L2869.79 294.389 L2887.35 293.833 L2904.92 290.144 L2922.48 289.82 L2940.05 291.595 L2957.61 295.895 L2975.18 306.814 L2992.74 319.603 L3010.31 332.598 L3027.87 343.861 L3045.44 351.268 L3063 351.469 L3080.57 341.238 L3098.13 325.408 L3115.7 311.242 L3133.26 301.306 L3150.83 298.725 L3168.39 294.52 L3185.96 291.758 L3203.52 293.24 L3221.09 294.396 L3238.65 294.385 L3256.22 294.628 L3273.78 296.359 L3291.35 298.307 L3308.91 299.568 L3326.48 294.891 L3344.04 292.774 L3361.61 294.285 L3379.17 299.379 L3396.74 309.425 L3414.3 322.009 L3431.87 335.534 L3449.43 349.696 L3467 355.069 L3484.56 353.973 L3502.13 344.602 L3519.69 328.315 L3537.26 313.971 L3554.82 304.033 L3572.39 302.211 L3589.95 299.269 L3607.52 295.748 L3625.08 296.505 L3642.65 297.6 L3660.21 297.56 L3677.78 296.668 L3695.34 299.176 L3712.91 303.831 L3730.47 303.773 L3748.04 298.775 L3765.6 296.731 L3783.17 296.461 L3800.73 302.28 L3818.3 312.016 L3835.86 325.473 L3853.43 341.018 L3870.99 354.155 L3888.56 357.466 L3906.12 356.862 L3923.69 347.585 L3941.25 330.764 L3958.82 316.736 L3976.38 306.639 L3993.95 304.276 L4011.51 301.822 L4029.08 300.556 L4046.64 301.349 L4064.21 301.256 L4081.77 301.704 L4099.34 301.279 L4116.9 303.253 L4134.47 305.868 L4152.03 305.972 L4169.6 301.108 L4187.16 298.524 L4204.73 298.888 L4222.29 305.229 L4239.86 314.268 L4257.42 328.456 L4274.99 343.632 L4292.55 356.483 L4310.12 359.795 L4327.68 359.887 L4345.25 350.633 L4362.81 334.155 L4380.38 320.308 L4397.94 309.814 L4415.51 305.955 L4433.07 303.069 L4450.64 304.637 L4468.2 306.68 L4485.77 306.702 L4503.33 306.869 L4520.9 305.705 L4538.46 305.996 L4556.03 307.17 L4573.59 307.547 L4591.16 302.662 L4608.72 299.993 L4626.29 301.305 L4626.29 122.013 L4608.72 121.319 L4591.16 121.284 L4573.59 121.337 L4556.03 119.18 L4538.46 117.784 L4520.9 117.472 L4503.33 119.043 L4485.77 121.013 L4468.2 122.854 L4450.64 123.132 L4433.07 122.914 L4415.51 122.539 L4397.94 123.163 L4380.38 126.984 L4362.81 133.393 L4345.25 143.918 L4327.68 151.729 L4310.12 152.961 L4292.55 151.118 L4274.99 144.793 L4257.42 137.298 L4239.86 129.431 L4222.29 122.283 L4204.73 117.064 L4187.16 115.66 L4169.6 116.292 L4152.03 115.121 L4134.47 113.283 L4116.9 112.173 L4099.34 111.216 L4081.77 113.058 L4064.21 115.059 L4046.64 116.878 L4029.08 117.185 L4011.51 116.65 L3993.95 116.18 L3976.38 116.787 L3958.82 120.458 L3941.25 127.31 L3923.69 137.642 L3906.12 145.341 L3888.56 147.127 L3870.99 144.929 L3853.43 138.716 L3835.86 131.381 L3818.3 123.69 L3800.73 116.69 L3783.17 111.203 L3765.6 110.175 L3748.04 110.8 L3730.47 110.254 L3712.91 107.758 L3695.34 106.372 L3677.78 106.065 L3660.21 107.889 L3642.65 109.837 L3625.08 111.406 L3607.52 111.593 L3589.95 110.753 L3572.39 110.701 L3554.82 111.48 L3537.26 115.035 L3519.69 121.474 L3502.13 131.883 L3484.56 139.679 L3467 141.432 L3449.43 139.74 L3431.87 133.369 L3414.3 125.84 L3396.74 118.187 L3379.17 110.965 L3361.61 105.704 L3344.04 105.146 L3326.48 105.293 L3308.91 105.198 L3291.35 103.23 L3273.78 101.649 L3256.22 100.992 L3238.65 102.936 L3221.09 104.848 L3203.52 106.555 L3185.96 106.509 L3168.39 105.947 L3150.83 105.262 L3133.26 106.171 L3115.7 109.81 L3098.13 116.273 L3080.57 126.746 L3063 134.621 L3045.44 136.503 L3027.87 134.639 L3010.31 128.91 L2992.74 121.755 L2975.18 113.998 L2957.61 107.141 L2940.05 101.688 L2922.48 101.375 L2904.92 100.856 L2887.35 100.432 L2869.79 98.866 L2852.22 97.2988 L2834.66 96.7576 L2817.09 98.549 L2799.53 100.428 L2781.96 102.233 L2764.4 102.283 L2746.83 101.17 L2729.27 101.085 L2711.7 102.295 L2694.14 105.672 L2676.57 112.529 L2659.01 123.059 L2641.44 131.037 L2623.88 132.926 L2606.31 131.251 L2588.75 125.981 L2571.18 118.98 L2553.62 111.166 L2536.05 104.192 L2518.49 99.1558 L2500.92 98.5216 L2483.36 98.0414 L2465.79 97.5285 L2448.23 95.9668 L2430.66 94.4231 L2413.1 94.1804 L2395.53 96.1537 L2377.97 98.2185 L2360.4 100.095 L2342.84 99.8804 L2325.27 99.5691 L2307.71 99.2736 L2290.14 101.057 L2272.58 104.625 L2255.01 111.271 L2237.45 122.285 L2219.88 130.101 L2202.32 131.911 L2184.75 129.997 L2167.19 124.891 L2149.62 118.128 L2132.06 110.141 L2114.49 103.749 L2096.93 98.3633 L2079.36 98.2274 L2061.8 98.2821 L2044.23 98.171 L2026.67 95.7532 L2009.1 95.0701 L1991.54 95.2889 L1973.97 97.3697 L1956.41 99.5162 L1938.84 101.555 L1921.28 101.819 L1903.71 101.286 L1886.15 101.066 L1868.58 102.47 L1851.02 106.652 L1833.45 113.366 L1815.89 123.774 L1798.32 132.545 L1780.76 134.347 L1763.19 133.001 L1745.63 127.109 L1728.06 120.414 L1710.5 114.399 L1692.93 107.567 L1675.37 102.659 L1657.8 102.089 L1640.24 102.931 L1622.67 102.043 L1605.11 100.58 L1587.54 100.055 L1569.98 100.614 L1552.41 103.059 L1534.85 105.305 L1517.28 107.39 L1499.72 107.915 L1482.15 107.986 L1464.59 108.005 L1447.02 109.504 L1429.46 113.088 L1411.89 119.957 L1394.33 131.397 L1376.76 139.963 L1359.2 142.49 L1341.63 141.188 L1324.07 136.455 L1306.5 129.462 L1288.94 121.563 L1271.37 114.966 L1253.81 110.226 L1236.24 111.4 L1218.68 112.93 L1201.11 113.521 L1183.55 112.451 L1165.98 111.47 L1148.42 111.942 L1130.85 114.724 L1113.29 117.307 L1095.72 119.579 L1078.16 120.266 L1060.59 120.641 L1043.03 121.19 L1025.46 122.971 L1007.9 127.313 L990.333 134.74 L972.768 146.268 L955.203 155.239 L937.638 157.973 L920.073 157.072 L902.508 151.787 L884.943 145.28 L867.378 138.771 L849.813 132.217 L832.248 127.942 L814.683 129.204 L797.118 131.568 L779.553 132.283 L761.988 131.576 L744.423 131.596 L726.858 132.439 L709.293 135.592 L691.728 138.752 L674.163 141.474 L656.598 142.069 L639.033 142.384 L621.468 143.265 L603.903 146.389 L586.338 151.597 L568.773 159.818 L551.208 172.218 L533.643 182.053 L516.078 186.079 L498.513 187.094 L480.948 184.004 L463.383 179.416 L445.818 173.636 L428.253 168.421 L410.688 165.628  Z" fill="#757575" fill-rule="evenodd" fill-opacity="0.5"/>
<polyline clip-path="url(#clip192)" style="stroke:#757575; stroke-linecap:round; stroke-linejoin:round; stroke-width:0; stroke-opacity:1; fill:none" points="410.688,167.315 428.253,169.323 445.818,172.51 463.383,176.356 480.948,180.093 498.513,183.32 516.078,184.078 533.643,182.789 551.208,177.955 568.773,171.683 586.338,167.69 603.903,165.3 621.468,164.316 639.033,164.784 656.598,166.003 674.163,167.326 691.728,167.826 709.293,167.917 726.858,167.355 744.423,167.33 761.988,167.465 779.553,167.668 797.118,166.89 814.683,165.64 832.248,165.194 849.813,167.872 867.378,171.627 884.943,175.96 902.508,180.124 920.073,183.737 937.638,184.82 955.203,183.758 972.768,179.008 990.333,172.702 1007.9,168.684 1025.46,166.294 1043.03,165.3 1060.59,165.739 1078.16,166.877 1095.72,168.079 1113.29,168.429 1130.85,168.394 1148.42,167.746 1165.98,167.731 1183.55,167.939 1201.11,168.219 1218.68,167.512 1236.24,166.32 1253.81,165.927 1271.37,168.658 1288.94,172.466 1306.5,176.854 1324.07,181.083 1341.63,184.76 1359.2,185.907 1376.76,184.87 1394.33,180.068 1411.89,173.655 1429.46,169.509 1447.02,167.004 1464.59,165.921 1482.15,166.257 1499.72,167.313 1517.28,168.435 1534.85,168.714 1552.41,168.626 1569.98,167.957 1587.54,167.961 1605.11,168.224 1622.67,168.558 1640.24,167.907 1657.8,166.766 1675.37,166.414 1692.93,169.19 1710.5,173.043 1728.06,177.479 1745.63,181.758 1763.19,185.494 1780.76,186.706 1798.32,185.723 1815.89,180.935 1833.45,174.508 1851.02,170.332 1868.58,167.796 1886.15,166.674 1903.71,166.993 1921.28,168.02 1938.84,169.115 1956.41,169.37 1973.97,169.277 1991.54,168.619 2009.1,168.648 2026.67,168.955 2044.23,169.337 2061.8,168.725 2079.36,167.624 2096.93,167.306 2114.49,170.118 2132.06,174.008 2149.62,178.484 2167.19,182.809 2184.75,186.599 2202.32,187.858 2219.88,186.919 2237.45,182.167 2255.01,175.745 2272.58,171.558 2290.14,169.013 2307.71,167.871 2325.27,168.171 2342.84,169.181 2360.4,170.261 2377.97,170.505 2395.53,170.395 2413.1,169.746 2430.66,169.806 2448.23,170.141 2465.79,170.554 2483.36,169.976 2500.92,168.902 2518.49,168.609 2536.05,171.447 2553.62,175.363 2571.18,179.874 2588.75,184.236 2606.31,188.067 2623.88,189.375 2641.44,188.481 2659.01,183.762 2676.57,177.353 2694.14,173.157 2711.7,170.594 2729.27,169.438 2746.83,169.723 2764.4,170.711 2781.96,171.771 2799.53,171.997 2817.09,171.885 2834.66,171.236 2852.22,171.302 2869.79,171.658 2887.35,172.094 2904.92,171.537 2922.48,170.483 2940.05,170.206 2957.61,173.062 2975.18,176.998 2992.74,181.532 3010.31,185.926 3027.87,189.794 3045.44,191.14 3063,190.281 3080.57,185.597 3098.13,179.193 3115.7,174.999 3133.26,172.414 3150.83,171.229 3168.39,171.489 3185.96,172.45 3203.52,173.486 3221.09,173.691 3238.65,173.566 3256.22,172.913 3273.78,172.982 3291.35,173.348 3308.91,173.801 3326.48,173.256 3344.04,172.212 3361.61,171.946 3379.17,174.813 3396.74,178.762 3414.3,183.312 3431.87,187.729 3449.43,191.628 3467,193.007 3484.56,192.184 3502.13,187.527 3519.69,181.14 3537.26,176.933 3554.82,174.33 3572.39,173.126 3589.95,173.35 3607.52,174.283 3625.08,175.295 3642.65,175.477 3660.21,175.34 3677.78,174.692 3695.34,174.772 3712.91,175.15 3730.47,175.619 3748.04,175.086 3765.6,174.052 3783.17,173.792 3800.73,176.666 3818.3,180.624 3835.86,185.189 3853.43,189.628 3870.99,193.557 3888.56,194.979 3906.12,194.204 3923.69,189.577 3941.25,183.188 3958.82,178.979 3976.38,176.356 3993.95,175.122 4011.51,175.322 4029.08,176.225 4046.64,177.207 4064.21,177.37 4081.77,177.218 4099.34,176.563 4116.9,176.648 4134.47,177.044 4152.03,177.528 4169.6,177.005 4187.16,175.976 4204.73,175.718 4222.29,178.593 4239.86,182.555 4257.42,187.132 4274.99,191.592 4292.55,195.555 4310.12,197.022 4327.68,196.299 4345.25,191.713 4362.81,185.351 4380.38,181.135 4397.94,178.494 4415.51,177.235 4433.07,177.394 4450.64,178.265 4468.2,179.222 4485.77,179.364 4503.33,179.209 4520.9,178.563 4538.46,178.663 4556.03,179.081 4573.59,179.584 4591.16,179.081 4608.72,178.058 4626.29,177.795 "/>
<path clip-path="url(#clip192)" d="M410.688 174.408 L428.253 179.657 L445.818 188.048 L463.383 199.047 L480.948 210.948 L498.513 222.297 L516.078 228.055 L533.643 228.08 L551.208 219.202 L568.773 206.002 L586.338 198.388 L603.903 193.935 L621.468 192.593 L639.033 193.84 L656.598 198.078 L674.163 204.037 L691.728 207.573 L709.293 210.628 L726.858 211.189 L744.423 212.639 L761.988 213.816 L779.553 214.963 L797.118 212.755 L814.683 208.602 L832.248 205.953 L849.813 212.669 L867.378 222.038 L884.943 233.661 L902.508 245.117 L920.073 257.567 L937.638 264.754 L955.203 264.397 L972.768 254.348 L990.333 239.875 L1007.9 229.89 L1025.46 223.243 L1043.03 218.764 L1060.59 219.173 L1078.16 222.24 L1095.72 224.674 L1113.29 225.93 L1130.85 227.053 L1148.42 227.975 L1165.98 229.647 L1183.55 230.418 L1201.11 231.404 L1218.68 228.371 L1236.24 223.46 L1253.81 219.906 L1271.37 227.319 L1288.94 238.165 L1306.5 250.103 L1324.07 263.445 L1341.63 275.029 L1359.2 280.35 L1376.76 280.261 L1394.33 271.453 L1411.89 254.7 L1429.46 243.413 L1447.02 233.751 L1464.59 229.361 L1482.15 227.362 L1499.72 230.122 L1517.28 232.628 L1534.85 233.794 L1552.41 233.691 L1569.98 233.578 L1587.54 235.212 L1605.11 237.637 L1622.67 237.352 L1640.24 233.68 L1657.8 228.062 L1675.37 225.154 L1692.93 230.924 L1710.5 241.695 L1728.06 254.055 L1745.63 267.809 L1763.19 281.2 L1780.76 286.838 L1798.32 286.844 L1815.89 277.199 L1833.45 260.699 L1851.02 247.601 L1868.58 239.432 L1886.15 233.143 L1903.71 231.643 L1921.28 233.229 L1938.84 235.753 L1956.41 236.862 L1973.97 236.558 L1991.54 236.47 L2009.1 236.866 L2026.67 240.5 L2044.23 241.262 L2061.8 237.032 L2079.36 231.363 L2096.93 227.87 L2114.49 234.195 L2132.06 244.147 L2149.62 256.647 L2167.19 269.326 L2184.75 282.862 L2202.32 288.866 L2219.88 289.681 L2237.45 278.962 L2255.01 262.497 L2272.58 249.51 L2290.14 242.208 L2307.71 235.942 L2325.27 233.665 L2342.84 235.697 L2360.4 237.539 L2377.97 238.526 L2395.53 238.872 L2413.1 238.342 L2430.66 239.429 L2448.23 242.208 L2465.79 243.46 L2483.36 238.762 L2500.92 233.73 L2518.49 230.061 L2536.05 236.14 L2553.62 246.438 L2571.18 257.897 L2588.75 270.617 L2606.31 284.049 L2623.88 289.258 L2641.44 292.02 L2659.01 280.96 L2676.57 264.101 L2694.14 251.976 L2711.7 244.4 L2729.27 238.591 L2746.83 236.106 L2764.4 237.166 L2781.96 239.523 L2799.53 240.42 L2817.09 241.143 L2834.66 240.715 L2852.22 242.276 L2869.79 244.631 L2887.35 245.153 L2904.92 240.534 L2922.48 235.677 L2940.05 232.408 L2957.61 238.716 L2975.18 248.83 L2992.74 260.182 L3010.31 272.345 L3027.87 285.356 L3045.44 291.853 L3063 294.077 L3080.57 282.169 L3098.13 266.115 L3115.7 254.078 L3133.26 246.591 L3150.83 240.014 L3168.39 238.797 L3185.96 239.295 L3203.52 241.671 L3221.09 242.738 L3238.65 243.06 L3256.22 243.428 L3273.78 244.38 L3291.35 247.07 L3308.91 247.311 L3326.48 243.169 L3344.04 236.69 L3361.61 234.758 L3379.17 241.132 L3396.74 251.073 L3414.3 263.292 L3431.87 273.713 L3449.43 286.53 L3467 293.923 L3484.56 295.165 L3502.13 284.528 L3519.69 268.611 L3537.26 256.352 L3554.82 248.997 L3572.39 242.367 L3589.95 239.91 L3607.52 241.619 L3625.08 243.907 L3642.65 244.946 L3660.21 245.961 L3677.78 244.912 L3695.34 246.63 L3712.91 249.13 L3730.47 248.996 L3748.04 244.737 L3765.6 238.554 L3783.17 237.075 L3800.73 243.641 L3818.3 253.711 L3835.86 265.06 L3853.43 275.923 L3870.99 287.967 L3888.56 295.305 L3906.12 296.617 L3923.69 286.834 L3941.25 270.93 L3958.82 258.621 L3976.38 250.925 L3993.95 244.809 L4011.51 242.085 L4029.08 243.686 L4046.64 245.968 L4064.21 247.916 L4081.77 248.237 L4099.34 247.119 L4116.9 248.564 L4134.47 250.884 L4152.03 250.859 L4169.6 245.88 L4187.16 240.871 L4204.73 239.447 L4222.29 246.051 L4239.86 255.953 L4257.42 267.412 L4274.99 278.515 L4292.55 289.204 L4310.12 296.628 L4327.68 298.369 L4345.25 288.85 L4362.81 273.003 L4380.38 261.004 L4397.94 253.518 L4415.51 247.128 L4433.07 244.836 L4450.64 246.211 L4468.2 248.201 L4485.77 249.699 L4503.33 250.352 L4520.9 249.373 L4538.46 250.748 L4556.03 253.105 L4573.59 252.769 L4591.16 248.262 L4608.72 242.873 L4626.29 241.753 L4626.29 131.707 L4608.72 132.233 L4591.16 133.627 L4573.59 134.261 L4556.03 133.046 L4538.46 132.529 L4520.9 132.374 L4503.33 135.101 L4485.77 137.002 L4468.2 138.47 L4450.64 137.736 L4433.07 136.225 L4415.51 134.817 L4397.94 135.16 L4380.38 138.66 L4362.81 144.768 L4345.25 155.329 L4327.68 163.692 L4310.12 164.891 L4292.55 162.85 L4274.99 155.948 L4257.42 148.182 L4239.86 140.281 L4222.29 132.58 L4204.73 127.256 L4187.16 127.201 L4169.6 128.39 L4152.03 128.781 L4134.47 127.568 L4116.9 126.925 L4099.34 127.949 L4081.77 130.484 L4064.21 132.259 L4046.64 133.936 L4029.08 133.072 L4011.51 131.09 L3993.95 130.058 L3976.38 130.043 L3958.82 133.067 L3941.25 139.358 L3923.69 150.133 L3906.12 158.045 L3888.56 159.8 L3870.99 157.534 L3853.43 150.65 L3835.86 143.06 L3818.3 134.748 L3800.73 127.462 L3783.17 121.939 L3765.6 122.552 L3748.04 123.744 L3730.47 123.265 L3712.91 122.448 L3695.34 122.168 L3677.78 122.582 L3660.21 124.265 L3642.65 125.971 L3625.08 127.226 L3607.52 126.778 L3589.95 125.231 L3572.39 123.756 L3554.82 124.383 L3537.26 127.307 L3519.69 133.642 L3502.13 144.292 L3484.56 152.324 L3467 154.1 L3449.43 152.286 L3431.87 145.77 L3414.3 137.604 L3396.74 129.691 L3379.17 123.104 L3361.61 117.001 L3344.04 117.524 L3326.48 118.265 L3308.91 118.456 L3291.35 116.815 L3273.78 116.033 L3256.22 116.503 L3238.65 119.052 L3221.09 120.836 L3203.52 122.365 L3185.96 121.178 L3168.39 119.962 L3150.83 118.177 L3133.26 119.339 L3115.7 121.846 L3098.13 128.115 L3080.57 138.855 L3063 147.121 L3045.44 148.755 L3027.87 147.391 L3010.31 141.074 L2992.74 132.957 L2975.18 125.493 L2957.61 118.382 L2940.05 112.66 L2922.48 112.809 L2904.92 113.652 L2887.35 113.301 L2869.79 111.988 L2852.22 111.293 L2834.66 112.238 L2817.09 114.62 L2799.53 116.2 L2781.96 117.799 L2764.4 117.3 L2746.83 115.037 L2729.27 113.654 L2711.7 115.085 L2694.14 117.708 L2676.57 124.045 L2659.01 134.671 L2641.44 142.723 L2623.88 144.865 L2606.31 143.383 L2588.75 136.915 L2571.18 129.079 L2553.62 121.923 L2536.05 115.105 L2518.49 109.471 L2500.92 109.122 L2483.36 110.238 L2465.79 110.148 L2448.23 108.898 L2430.66 108.978 L2413.1 109.432 L2395.53 111.789 L2377.97 113.003 L2360.4 114.054 L2342.84 114.024 L2325.27 112.15 L2307.71 111.427 L2290.14 112.14 L2272.58 115.321 L2255.01 121.413 L2237.45 132.229 L2219.88 140.652 L2202.32 142.834 L2184.75 141.327 L2167.19 134.446 L2149.62 127.672 L2132.06 120.61 L2114.49 113.981 L2096.93 108.666 L2079.36 107.81 L2061.8 109.008 L2044.23 109.498 L2026.67 108.23 L2009.1 108.866 L1991.54 109.524 L1973.97 111.816 L1956.41 113.499 L1938.84 114.769 L1921.28 114.453 L1903.71 112.257 L1886.15 111.493 L1868.58 111.854 L1851.02 115.132 L1833.45 121.594 L1815.89 132.842 L1798.32 141.458 L1780.76 143.5 L1763.19 141.508 L1745.63 135.724 L1728.06 129.562 L1710.5 122.289 L1692.93 115.895 L1675.37 110.786 L1657.8 110.33 L1640.24 111.219 L1622.67 112.222 L1605.11 112.337 L1587.54 111.703 L1569.98 112.132 L1552.41 114.415 L1534.85 116.55 L1517.28 118.515 L1499.72 118.399 L1482.15 117.805 L1464.59 116.006 L1447.02 117.254 L1429.46 120.103 L1411.89 126.764 L1394.33 137.552 L1376.76 146.449 L1359.2 148.793 L1341.63 147.818 L1324.07 142.576 L1306.5 135.957 L1288.94 128.696 L1271.37 121.979 L1253.81 117.502 L1236.24 117.648 L1218.68 119.385 L1201.11 120.662 L1183.55 120.835 L1165.98 120.469 L1148.42 121.217 L1130.85 123.831 L1113.29 126.259 L1095.72 128.225 L1078.16 128.397 L1060.59 127.583 L1043.03 126.981 L1025.46 128.344 L1007.9 131.722 L990.333 138.846 L972.768 150.245 L955.203 159.325 L937.638 161.968 L920.073 161.03 L902.508 156.079 L884.943 149.358 L867.378 141.602 L849.813 135.859 L832.248 131.283 L814.683 132.455 L797.118 135.16 L779.553 137.087 L761.988 136.761 L744.423 137.199 L726.858 138.072 L709.293 141.076 L691.728 143.731 L674.163 145.871 L656.598 146.083 L639.033 145.514 L621.468 145.527 L603.903 148.375 L586.338 153.294 L568.773 161.152 L551.208 173.096 L533.643 182.988 L516.078 187.08 L498.513 187.918 L480.948 184.635 L463.383 180.173 L445.818 174.528 L428.253 169.175 L410.688 166.176  Z" fill="#aeaeae" fill-rule="evenodd" fill-opacity="0.5"/>
<polyline clip-path="url(#clip192)" style="stroke:#aeaeae; stroke-linecap:round; stroke-linejoin:round; stroke-width:0; stroke-opacity:1; fill:none" points="410.688,167.315 428.253,169.323 445.818,172.51 463.383,176.356 480.948,180.093 498.513,183.32 516.078,184.078 533.643,182.789 551.208,177.955 568.773,171.683 586.338,167.69 603.903,165.3 621.468,164.316 639.033,164.784 656.598,166.003 674.163,167.326 691.728,167.826 709.293,167.917 726.858,167.355 744.423,167.33 761.988,167.465 779.553,167.668 797.118,166.89 814.683,165.64 832.248,165.194 849.813,167.872 867.378,171.627 884.943,175.96 902.508,180.124 920.073,183.737 937.638,184.82 955.203,183.758 972.768,179.008 990.333,172.702 1007.9,168.684 1025.46,166.294 1043.03,165.3 1060.59,165.739 1078.16,166.877 1095.72,168.079 1113.29,168.429 1130.85,168.394 1148.42,167.746 1165.98,167.731 1183.55,167.939 1201.11,168.219 1218.68,167.512 1236.24,166.32 1253.81,165.927 1271.37,168.658 1288.94,172.466 1306.5,176.854 1324.07,181.083 1341.63,184.76 1359.2,185.907 1376.76,184.87 1394.33,180.068 1411.89,173.655 1429.46,169.509 1447.02,167.004 1464.59,165.921 1482.15,166.257 1499.72,167.313 1517.28,168.435 1534.85,168.714 1552.41,168.626 1569.98,167.957 1587.54,167.961 1605.11,168.224 1622.67,168.558 1640.24,167.907 1657.8,166.766 1675.37,166.414 1692.93,169.19 1710.5,173.043 1728.06,177.479 1745.63,181.758 1763.19,185.494 1780.76,186.706 1798.32,185.723 1815.89,180.935 1833.45,174.508 1851.02,170.332 1868.58,167.796 1886.15,166.674 1903.71,166.993 1921.28,168.02 1938.84,169.115 1956.41,169.37 1973.97,169.277 1991.54,168.619 2009.1,168.648 2026.67,168.955 2044.23,169.337 2061.8,168.725 2079.36,167.624 2096.93,167.306 2114.49,170.118 2132.06,174.008 2149.62,178.484 2167.19,182.809 2184.75,186.599 2202.32,187.858 2219.88,186.919 2237.45,182.167 2255.01,175.745 2272.58,171.558 2290.14,169.013 2307.71,167.871 2325.27,168.171 2342.84,169.181 2360.4,170.261 2377.97,170.505 2395.53,170.395 2413.1,169.746 2430.66,169.806 2448.23,170.141 2465.79,170.554 2483.36,169.976 2500.92,168.902 2518.49,168.609 2536.05,171.447 2553.62,175.363 2571.18,179.874 2588.75,184.236 2606.31,188.067 2623.88,189.375 2641.44,188.481 2659.01,183.762 2676.57,177.353 2694.14,173.157 2711.7,170.594 2729.27,169.438 2746.83,169.723 2764.4,170.711 2781.96,171.771 2799.53,171.997 2817.09,171.885 2834.66,171.236 2852.22,171.302 2869.79,171.658 2887.35,172.094 2904.92,171.537 2922.48,170.483 2940.05,170.206 2957.61,173.062 2975.18,176.998 2992.74,181.532 3010.31,185.926 3027.87,189.794 3045.44,191.14 3063,190.281 3080.57,185.597 3098.13,179.193 3115.7,174.999 3133.26,172.414 3150.83,171.229 3168.39,171.489 3185.96,172.45 3203.52,173.486 3221.09,173.691 3238.65,173.566 3256.22,172.913 3273.78,172.982 3291.35,173.348 3308.91,173.801 3326.48,173.256 3344.04,172.212 3361.61,171.946 3379.17,174.813 3396.74,178.762 3414.3,183.312 3431.87,187.729 3449.43,191.628 3467,193.007 3484.56,192.184 3502.13,187.527 3519.69,181.14 3537.26,176.933 3554.82,174.33 3572.39,173.126 3589.95,173.35 3607.52,174.283 3625.08,175.295 3642.65,175.477 3660.21,175.34 3677.78,174.692 3695.34,174.772 3712.91,175.15 3730.47,175.619 3748.04,175.086 3765.6,174.052 3783.17,173.792 3800.73,176.666 3818.3,180.624 3835.86,185.189 3853.43,189.628 3870.99,193.557 3888.56,194.979 3906.12,194.204 3923.69,189.577 3941.25,183.188 3958.82,178.979 3976.38,176.356 3993.95,175.122 4011.51,175.322 4029.08,176.225 4046.64,177.207 4064.21,177.37 4081.77,177.218 4099.34,176.563 4116.9,176.648 4134.47,177.044 4152.03,177.528 4169.6,177.005 4187.16,175.976 4204.73,175.718 4222.29,178.593 4239.86,182.555 4257.42,187.132 4274.99,191.592 4292.55,195.555 4310.12,197.022 4327.68,196.299 4345.25,191.713 4362.81,185.351 4380.38,181.135 4397.94,178.494 4415.51,177.235 4433.07,177.394 4450.64,178.265 4468.2,179.222 4485.77,179.364 4503.33,179.209 4520.9,178.563 4538.46,178.663 4556.03,179.081 4573.59,179.584 4591.16,179.081 4608.72,178.058 4626.29,177.795 "/>
<path clip-path="url(#clip190)" d="M3837.68 875.959 L4603.8 875.959 L4603.8 357.559 L3837.68 357.559  Z" fill="#ffffff" fill-rule="evenodd" fill-opacity="1"/>
<polyline clip-path="url(#clip190)" style="stroke:#000000; stroke-linecap:round; stroke-linejoin:round; stroke-width:4; stroke-opacity:1; fill:none" points="3837.68,875.959 4603.8,875.959 4603.8,357.559 3837.68,357.559 3837.68,875.959 "/>
<polyline clip-path="url(#clip190)" style="stroke:#414141; stroke-linecap:round; stroke-linejoin:round; stroke-width:2; stroke-opacity:1; fill:none" points="3887.33,487.159 4185.23,487.159 "/>
<path clip-path="url(#clip190)" d="M4236.56 520.521 L4255.66 520.521 L4255.66 454.607 L4234.89 458.774 L4234.89 448.126 L4255.54 443.959 L4267.23 443.959 L4267.23 520.521 L4286.33 520.521 L4286.33 530.359 L4236.56 530.359 L4236.56 520.521 Z" fill="#000000" fill-rule="nonzero" fill-opacity="1" /><path clip-path="url(#clip190)" d="M4334.94 451.656 Q4325.91 451.656 4321.34 460.568 Q4316.83 469.422 4316.83 487.246 Q4316.83 505.012 4321.34 513.924 Q4325.91 522.778 4334.94 522.778 Q4344.03 522.778 4348.54 513.924 Q4353.11 505.012 4353.11 487.246 Q4353.11 469.422 4348.54 460.568 Q4344.03 451.656 4334.94 451.656 M4334.94 442.397 Q4349.47 442.397 4357.11 453.913 Q4364.8 465.371 4364.8 487.246 Q4364.8 509.063 4357.11 520.579 Q4349.47 532.037 4334.94 532.037 Q4320.42 532.037 4312.72 520.579 Q4305.08 509.063 4305.08 487.246 Q4305.08 465.371 4312.72 453.913 Q4320.42 442.397 4334.94 442.397 Z" fill="#000000" fill-rule="nonzero" fill-opacity="1" /><path clip-path="url(#clip190)" d="M4410.35 451.656 Q4401.32 451.656 4396.75 460.568 Q4392.23 469.422 4392.23 487.246 Q4392.23 505.012 4396.75 513.924 Q4401.32 522.778 4410.35 522.778 Q4419.43 522.778 4423.95 513.924 Q4428.52 505.012 4428.52 487.246 Q4428.52 469.422 4423.95 460.568 Q4419.43 451.656 4410.35 451.656 M4410.35 442.397 Q4424.87 442.397 4432.51 453.913 Q4440.21 465.371 4440.21 487.246 Q4440.21 509.063 4432.51 520.579 Q4424.87 532.037 4410.35 532.037 Q4395.82 532.037 4388.13 520.579 Q4380.49 509.063 4380.49 487.246 Q4380.49 465.371 4388.13 453.913 Q4395.82 442.397 4410.35 442.397 Z" fill="#000000" fill-rule="nonzero" fill-opacity="1" /><path clip-path="url(#clip190)" d="M4534.25 492.338 Q4529.21 492.338 4526.32 496.621 Q4523.48 500.903 4523.48 508.542 Q4523.48 516.065 4526.32 520.405 Q4529.21 524.688 4534.25 524.688 Q4539.17 524.688 4542 520.405 Q4544.9 516.065 4544.9 508.542 Q4544.9 500.961 4542 496.679 Q4539.17 492.338 4534.25 492.338 M4534.25 484.989 Q4543.39 484.989 4548.77 491.355 Q4554.15 497.72 4554.15 508.542 Q4554.15 519.364 4548.71 525.729 Q4543.33 532.037 4534.25 532.037 Q4524.99 532.037 4519.61 525.729 Q4514.22 519.364 4514.22 508.542 Q4514.22 497.662 4519.61 491.355 Q4525.05 484.989 4534.25 484.989 M4474.53 449.746 Q4469.55 449.746 4466.65 454.086 Q4463.82 458.369 4463.82 465.892 Q4463.82 473.531 4466.65 477.813 Q4469.49 482.095 4474.53 482.095 Q4479.56 482.095 4482.4 477.813 Q4485.29 473.531 4485.29 465.892 Q4485.29 458.427 4482.4 454.086 Q4479.5 449.746 4474.53 449.746 M4526.78 442.397 L4536.04 442.397 L4481.99 532.037 L4472.73 532.037 L4526.78 442.397 M4474.53 442.397 Q4483.67 442.397 4489.11 448.762 Q4494.55 455.07 4494.55 465.892 Q4494.55 476.829 4489.11 483.137 Q4483.73 489.445 4474.53 489.445 Q4465.32 489.445 4459.94 483.137 Q4454.62 476.771 4454.62 465.892 Q4454.62 455.128 4460 448.762 Q4465.38 442.397 4474.53 442.397 Z" fill="#000000" fill-rule="nonzero" fill-opacity="1" /><polyline clip-path="url(#clip190)" style="stroke:#757575; stroke-linecap:round; stroke-linejoin:round; stroke-width:2; stroke-opacity:1; fill:none" points="3887.33,616.759 4185.23,616.759 "/>
<path clip-path="url(#clip190)" d="M4240.44 658.165 L4240.44 647.517 Q4244.84 649.6 4249.35 650.7 Q4253.87 651.799 4258.21 651.799 Q4269.78 651.799 4275.86 644.045 Q4281.99 636.232 4282.86 620.376 Q4279.5 625.353 4274.35 628.015 Q4269.2 630.677 4262.95 630.677 Q4249.99 630.677 4242.41 622.864 Q4234.89 614.994 4234.89 601.395 Q4234.89 588.084 4242.76 580.041 Q4250.63 571.997 4263.7 571.997 Q4278.69 571.997 4286.56 583.513 Q4294.49 594.971 4294.49 616.846 Q4294.49 637.274 4284.77 649.485 Q4275.1 661.637 4258.73 661.637 Q4254.33 661.637 4249.82 660.769 Q4245.3 659.901 4240.44 658.165 M4263.7 621.533 Q4271.57 621.533 4276.15 616.151 Q4280.78 610.77 4280.78 601.395 Q4280.78 592.077 4276.15 586.696 Q4271.57 581.256 4263.7 581.256 Q4255.83 581.256 4251.2 586.696 Q4246.63 592.077 4246.63 601.395 Q4246.63 610.77 4251.2 616.151 Q4255.83 621.533 4263.7 621.533 Z" fill="#000000" fill-rule="nonzero" fill-opacity="1" /><path clip-path="url(#clip190)" d="M4340.5 581.256 Q4331.47 581.256 4326.9 590.168 Q4322.38 599.022 4322.38 616.846 Q4322.38 634.612 4326.9 643.524 Q4331.47 652.378 4340.5 652.378 Q4349.58 652.378 4354.1 643.524 Q4358.67 634.612 4358.67 616.846 Q4358.67 599.022 4354.1 590.168 Q4349.58 581.256 4340.5 581.256 M4340.5 571.997 Q4355.02 571.997 4362.66 583.513 Q4370.36 594.971 4370.36 616.846 Q4370.36 638.663 4362.66 650.179 Q4355.02 661.637 4340.5 661.637 Q4325.97 661.637 4318.28 650.179 Q4310.64 638.663 4310.64 616.846 Q4310.64 594.971 4318.28 583.513 Q4325.97 571.997 4340.5 571.997 Z" fill="#000000" fill-rule="nonzero" fill-opacity="1" /><path clip-path="url(#clip190)" d="M4464.4 621.938 Q4459.36 621.938 4456.47 626.221 Q4453.63 630.503 4453.63 638.142 Q4453.63 645.665 4456.47 650.005 Q4459.36 654.288 4464.4 654.288 Q4469.32 654.288 4472.15 650.005 Q4475.05 645.665 4475.05 638.142 Q4475.05 630.561 4472.15 626.279 Q4469.32 621.938 4464.4 621.938 M4464.4 614.589 Q4473.54 614.589 4478.92 620.955 Q4484.31 627.32 4484.31 638.142 Q4484.31 648.964 4478.87 655.329 Q4473.48 661.637 4464.4 661.637 Q4455.14 661.637 4449.76 655.329 Q4444.37 648.964 4444.37 638.142 Q4444.37 627.262 4449.76 620.955 Q4455.2 614.589 4464.4 614.589 M4404.68 579.346 Q4399.7 579.346 4396.81 583.686 Q4393.97 587.969 4393.97 595.492 Q4393.97 603.131 4396.81 607.413 Q4399.64 611.695 4404.68 611.695 Q4409.71 611.695 4412.55 607.413 Q4415.44 603.131 4415.44 595.492 Q4415.44 588.027 4412.55 583.686 Q4409.65 579.346 4404.68 579.346 M4456.93 571.997 L4466.19 571.997 L4412.14 661.637 L4402.88 661.637 L4456.93 571.997 M4404.68 571.997 Q4413.82 571.997 4419.26 578.362 Q4424.7 584.67 4424.7 595.492 Q4424.7 606.429 4419.26 612.737 Q4413.88 619.045 4404.68 619.045 Q4395.47 619.045 4390.09 612.737 Q4384.77 606.371 4384.77 595.492 Q4384.77 584.728 4390.15 578.362 Q4395.53 571.997 4404.68 571.997 Z" fill="#000000" fill-rule="nonzero" fill-opacity="1" /><polyline clip-path="url(#clip190)" style="stroke:#aeaeae; stroke-linecap:round; stroke-linejoin:round; stroke-width:2; stroke-opacity:1; fill:none" points="3887.33,746.359 4185.23,746.359 "/>
<path clip-path="url(#clip190)" d="M4264.51 748.529 Q4256.18 748.529 4251.38 752.985 Q4246.63 757.441 4246.63 765.254 Q4246.63 773.066 4251.38 777.522 Q4256.18 781.978 4264.51 781.978 Q4272.85 781.978 4277.65 777.522 Q4282.45 773.008 4282.45 765.254 Q4282.45 757.441 4277.65 752.985 Q4272.91 748.529 4264.51 748.529 M4252.82 743.552 Q4245.3 741.701 4241.08 736.55 Q4236.91 731.4 4236.91 723.992 Q4236.91 713.634 4244.26 707.615 Q4251.67 701.597 4264.51 701.597 Q4277.42 701.597 4284.77 707.615 Q4292.12 713.634 4292.12 723.992 Q4292.12 731.4 4287.89 736.55 Q4283.73 741.701 4276.26 743.552 Q4284.71 745.52 4289.4 751.249 Q4294.14 756.978 4294.14 765.254 Q4294.14 777.811 4286.45 784.524 Q4278.81 791.237 4264.51 791.237 Q4250.22 791.237 4242.52 784.524 Q4234.89 777.811 4234.89 765.254 Q4234.89 756.978 4239.63 751.249 Q4244.38 745.52 4252.82 743.552 M4248.54 725.092 Q4248.54 731.805 4252.71 735.566 Q4256.93 739.328 4264.51 739.328 Q4272.04 739.328 4276.26 735.566 Q4280.54 731.805 4280.54 725.092 Q4280.54 718.379 4276.26 714.617 Q4272.04 710.856 4264.51 710.856 Q4256.93 710.856 4252.71 714.617 Q4248.54 718.379 4248.54 725.092 Z" fill="#000000" fill-rule="nonzero" fill-opacity="1" /><path clip-path="url(#clip190)" d="M4339.92 710.856 Q4330.89 710.856 4326.32 719.768 Q4321.81 728.622 4321.81 746.446 Q4321.81 764.212 4326.32 773.124 Q4330.89 781.978 4339.92 781.978 Q4349 781.978 4353.52 773.124 Q4358.09 764.212 4358.09 746.446 Q4358.09 728.622 4353.52 719.768 Q4349 710.856 4339.92 710.856 M4339.92 701.597 Q4354.44 701.597 4362.08 713.113 Q4369.78 724.571 4369.78 746.446 Q4369.78 768.263 4362.08 779.779 Q4354.44 791.237 4339.92 791.237 Q4325.39 791.237 4317.7 779.779 Q4310.06 768.263 4310.06 746.446 Q4310.06 724.571 4317.7 713.113 Q4325.39 701.597 4339.92 701.597 Z" fill="#000000" fill-rule="nonzero" fill-opacity="1" /><path clip-path="url(#clip190)" d="M4463.82 751.538 Q4458.78 751.538 4455.89 755.821 Q4453.06 760.103 4453.06 767.742 Q4453.06 775.265 4455.89 779.605 Q4458.78 783.888 4463.82 783.888 Q4468.74 783.888 4471.57 779.605 Q4474.47 775.265 4474.47 767.742 Q4474.47 760.161 4471.57 755.879 Q4468.74 751.538 4463.82 751.538 M4463.82 744.189 Q4472.96 744.189 4478.34 750.555 Q4483.73 756.92 4483.73 767.742 Q4483.73 778.564 4478.29 784.929 Q4472.9 791.237 4463.82 791.237 Q4454.56 791.237 4449.18 784.929 Q4443.8 778.564 4443.8 767.742 Q4443.8 756.862 4449.18 750.555 Q4454.62 744.189 4463.82 744.189 M4404.1 708.946 Q4399.12 708.946 4396.23 713.286 Q4393.39 717.569 4393.39 725.092 Q4393.39 732.731 4396.23 737.013 Q4399.06 741.295 4404.1 741.295 Q4409.13 741.295 4411.97 737.013 Q4414.86 732.731 4414.86 725.092 Q4414.86 717.627 4411.97 713.286 Q4409.07 708.946 4404.1 708.946 M4456.35 701.597 L4465.61 701.597 L4411.56 791.237 L4402.3 791.237 L4456.35 701.597 M4404.1 701.597 Q4413.24 701.597 4418.68 707.962 Q4424.12 714.27 4424.12 725.092 Q4424.12 736.029 4418.68 742.337 Q4413.3 748.645 4404.1 748.645 Q4394.9 748.645 4389.51 742.337 Q4384.19 735.971 4384.19 725.092 Q4384.19 714.328 4389.57 707.962 Q4394.95 701.597 4404.1 701.597 Z" fill="#000000" fill-rule="nonzero" fill-opacity="1" /></svg>
