<?xml version="1.0" encoding="utf-8"?>
<svg xmlns="http://www.w3.org/2000/svg" xmlns:xlink="http://www.w3.org/1999/xlink" width="1200" height="300" viewBox="0 0 4800 1200">
<defs>
  <clipPath id="clip130">
    <rect x="0" y="0" width="4800" height="1200"/>
  </clipPath>
</defs>
<path clip-path="url(#clip130)" d="M0 1200 L4800 1200 L4800 0 L0 0  Z" fill="#ffffff" fill-rule="evenodd" fill-opacity="1"/>
<defs>
  <clipPath id="clip131">
    <rect x="960" y="0" width="3361" height="1200"/>
  </clipPath>
</defs>
<path clip-path="url(#clip130)" d="M404.977 880.951 L4752.76 880.951 L4752.76 47.2441 L404.977 47.2441  Z" fill="#ffffff" fill-rule="evenodd" fill-opacity="1"/>
<defs>
  <clipPath id="clip132">
    <rect x="404" y="47" width="4349" height="835"/>
  </clipPath>
</defs>
<polyline clip-path="url(#clip132)" style="stroke:#000000; stroke-linecap:round; stroke-linejoin:round; stroke-width:2; stroke-opacity:0.1; fill:none" points="528.028,880.951 528.028,47.2441 "/>
<polyline clip-path="url(#clip132)" style="stroke:#000000; stroke-linecap:round; stroke-linejoin:round; stroke-width:2; stroke-opacity:0.1; fill:none" points="1348.36,880.951 1348.36,47.2441 "/>
<polyline clip-path="url(#clip132)" style="stroke:#000000; stroke-linecap:round; stroke-linejoin:round; stroke-width:2; stroke-opacity:0.1; fill:none" points="2168.7,880.951 2168.7,47.2441 "/>
<polyline clip-path="url(#clip132)" style="stroke:#000000; stroke-linecap:round; stroke-linejoin:round; stroke-width:2; stroke-opacity:0.1; fill:none" points="2989.03,880.951 2989.03,47.2441 "/>
<polyline clip-path="url(#clip132)" style="stroke:#000000; stroke-linecap:round; stroke-linejoin:round; stroke-width:2; stroke-opacity:0.1; fill:none" points="3809.37,880.951 3809.37,47.2441 "/>
<polyline clip-path="url(#clip132)" style="stroke:#000000; stroke-linecap:round; stroke-linejoin:round; stroke-width:2; stroke-opacity:0.1; fill:none" points="4629.71,880.951 4629.71,47.2441 "/>
<polyline clip-path="url(#clip132)" style="stroke:#000000; stroke-linecap:round; stroke-linejoin:round; stroke-width:2; stroke-opacity:0.1; fill:none" points="404.977,728.508 4752.76,728.508 "/>
<polyline clip-path="url(#clip132)" style="stroke:#000000; stroke-linecap:round; stroke-linejoin:round; stroke-width:2; stroke-opacity:0.1; fill:none" points="404.977,553.771 4752.76,553.771 "/>
<polyline clip-path="url(#clip132)" style="stroke:#000000; stroke-linecap:round; stroke-linejoin:round; stroke-width:2; stroke-opacity:0.1; fill:none" points="404.977,379.035 4752.76,379.035 "/>
<polyline clip-path="url(#clip132)" style="stroke:#000000; stroke-linecap:round; stroke-linejoin:round; stroke-width:2; stroke-opacity:0.1; fill:none" points="404.977,204.299 4752.76,204.299 "/>
<polyline clip-path="url(#clip130)" style="stroke:#000000; stroke-linecap:round; stroke-linejoin:round; stroke-width:4; stroke-opacity:1; fill:none" points="404.977,880.951 4752.76,880.951 "/>
<polyline clip-path="url(#clip130)" style="stroke:#000000; stroke-linecap:round; stroke-linejoin:round; stroke-width:4; stroke-opacity:1; fill:none" points="528.028,880.951 528.028,862.054 "/>
<polyline clip-path="url(#clip130)" style="stroke:#000000; stroke-linecap:round; stroke-linejoin:round; stroke-width:4; stroke-opacity:1; fill:none" points="1348.36,880.951 1348.36,862.054 "/>
<polyline clip-path="url(#clip130)" style="stroke:#000000; stroke-linecap:round; stroke-linejoin:round; stroke-width:4; stroke-opacity:1; fill:none" points="2168.7,880.951 2168.7,862.054 "/>
<polyline clip-path="url(#clip130)" style="stroke:#000000; stroke-linecap:round; stroke-linejoin:round; stroke-width:4; stroke-opacity:1; fill:none" points="2989.03,880.951 2989.03,862.054 "/>
<polyline clip-path="url(#clip130)" style="stroke:#000000; stroke-linecap:round; stroke-linejoin:round; stroke-width:4; stroke-opacity:1; fill:none" points="3809.37,880.951 3809.37,862.054 "/>
<polyline clip-path="url(#clip130)" style="stroke:#000000; stroke-linecap:round; stroke-linejoin:round; stroke-width:4; stroke-opacity:1; fill:none" points="4629.71,880.951 4629.71,862.054 "/>
<path clip-path="url(#clip130)" d="M528.028 942.789 Q520.806 942.789 517.148 949.918 Q513.537 957.002 513.537 971.261 Q513.537 985.474 517.148 992.603 Q520.806 999.687 528.028 999.687 Q535.296 999.687 538.907 992.603 Q542.565 985.474 542.565 971.261 Q542.565 957.002 538.907 949.918 Q535.296 942.789 528.028 942.789 M528.028 935.382 Q539.648 935.382 545.759 944.594 Q551.916 953.761 551.916 971.261 Q551.916 988.715 545.759 997.927 Q539.648 1007.09 528.028 1007.09 Q516.407 1007.09 510.25 997.927 Q504.139 988.715 504.139 971.261 Q504.139 953.761 510.25 944.594 Q516.407 935.382 528.028 935.382 Z" fill="#000000" fill-rule="nonzero" fill-opacity="1" /><path clip-path="url(#clip130)" d="M1337.67 997.881 L1370.31 997.881 L1370.31 1005.75 L1326.42 1005.75 L1326.42 997.881 Q1331.74 992.372 1340.91 983.113 Q1350.12 973.807 1352.48 971.122 Q1356.97 966.076 1358.73 962.604 Q1360.54 959.085 1360.54 955.705 Q1360.54 950.196 1356.65 946.724 Q1352.81 943.252 1346.6 943.252 Q1342.21 943.252 1337.3 944.78 Q1332.44 946.307 1326.88 949.409 L1326.88 939.965 Q1332.53 937.696 1337.44 936.539 Q1342.34 935.382 1346.42 935.382 Q1357.16 935.382 1363.55 940.752 Q1369.94 946.122 1369.94 955.104 Q1369.94 959.363 1368.32 963.205 Q1366.74 967.002 1362.53 972.187 Q1361.37 973.529 1355.17 979.965 Q1348.97 986.353 1337.67 997.881 Z" fill="#000000" fill-rule="nonzero" fill-opacity="1" /><path clip-path="url(#clip130)" d="M2174.72 944.78 L2151.11 981.678 L2174.72 981.678 L2174.72 944.78 M2172.26 936.631 L2184.02 936.631 L2184.02 981.678 L2193.88 981.678 L2193.88 989.455 L2184.02 989.455 L2184.02 1005.75 L2174.72 1005.75 L2174.72 989.455 L2143.51 989.455 L2143.51 980.428 L2172.26 936.631 Z" fill="#000000" fill-rule="nonzero" fill-opacity="1" /><path clip-path="url(#clip130)" d="M2989.84 967.465 Q2983.55 967.465 2979.84 971.77 Q2976.19 976.076 2976.19 983.576 Q2976.19 991.029 2979.84 995.381 Q2983.55 999.687 2989.84 999.687 Q2996.14 999.687 2999.8 995.381 Q3003.5 991.029 3003.5 983.576 Q3003.5 976.076 2999.8 971.77 Q2996.14 967.465 2989.84 967.465 M3008.41 938.159 L3008.41 946.678 Q3004.89 945.011 3001.28 944.131 Q2997.71 943.252 2994.2 943.252 Q2984.94 943.252 2980.03 949.502 Q2975.17 955.752 2974.47 968.391 Q2977.21 964.363 2981.33 962.233 Q2985.45 960.057 2990.4 960.057 Q3000.82 960.057 3006.84 966.4 Q3012.9 972.696 3012.9 983.576 Q3012.9 994.224 3006.6 1000.66 Q3000.31 1007.09 2989.84 1007.09 Q2977.85 1007.09 2971.51 997.927 Q2965.17 988.715 2965.17 971.261 Q2965.17 954.872 2972.95 945.15 Q2980.72 935.382 2993.83 935.382 Q2997.34 935.382 3000.91 936.076 Q3004.52 936.77 3008.41 938.159 Z" fill="#000000" fill-rule="nonzero" fill-opacity="1" /><path clip-path="url(#clip130)" d="M3809.37 972.928 Q3802.7 972.928 3798.86 976.492 Q3795.06 980.057 3795.06 986.307 Q3795.06 992.557 3798.86 996.122 Q3802.7 999.687 3809.37 999.687 Q3816.04 999.687 3819.88 996.122 Q3823.72 992.511 3823.72 986.307 Q3823.72 980.057 3819.88 976.492 Q3816.08 972.928 3809.37 972.928 M3800.02 968.946 Q3794 967.465 3790.62 963.344 Q3787.29 959.224 3787.29 953.298 Q3787.29 945.011 3793.17 940.196 Q3799.09 935.382 3809.37 935.382 Q3819.69 935.382 3825.57 940.196 Q3831.45 945.011 3831.45 953.298 Q3831.45 959.224 3828.07 963.344 Q3824.74 967.465 3818.77 968.946 Q3825.53 970.52 3829.28 975.104 Q3833.07 979.687 3833.07 986.307 Q3833.07 996.353 3826.92 1001.72 Q3820.81 1007.09 3809.37 1007.09 Q3797.93 1007.09 3791.78 1001.72 Q3785.67 996.353 3785.67 986.307 Q3785.67 979.687 3789.46 975.104 Q3793.26 970.52 3800.02 968.946 M3796.59 954.178 Q3796.59 959.548 3799.93 962.557 Q3803.31 965.567 3809.37 965.567 Q3815.39 965.567 3818.77 962.557 Q3822.19 959.548 3822.19 954.178 Q3822.19 948.807 3818.77 945.798 Q3815.39 942.789 3809.37 942.789 Q3803.31 942.789 3799.93 945.798 Q3796.59 948.807 3796.59 954.178 Z" fill="#000000" fill-rule="nonzero" fill-opacity="1" /><path clip-path="url(#clip130)" d="M4579.08 997.881 L4594.36 997.881 L4594.36 945.15 L4577.74 948.483 L4577.74 939.965 L4594.27 936.631 L4603.62 936.631 L4603.62 997.881 L4618.9 997.881 L4618.9 1005.75 L4579.08 1005.75 L4579.08 997.881 Z" fill="#000000" fill-rule="nonzero" fill-opacity="1" /><path clip-path="url(#clip130)" d="M4657.78 942.789 Q4650.56 942.789 4646.9 949.918 Q4643.29 957.002 4643.29 971.261 Q4643.29 985.474 4646.9 992.603 Q4650.56 999.687 4657.78 999.687 Q4665.05 999.687 4668.66 992.603 Q4672.32 985.474 4672.32 971.261 Q4672.32 957.002 4668.66 949.918 Q4665.05 942.789 4657.78 942.789 M4657.78 935.382 Q4669.4 935.382 4675.52 944.594 Q4681.67 953.761 4681.67 971.261 Q4681.67 988.715 4675.52 997.927 Q4669.4 1007.09 4657.78 1007.09 Q4646.16 1007.09 4640.01 997.927 Q4633.9 988.715 4633.9 971.261 Q4633.9 953.761 4640.01 944.594 Q4646.16 935.382 4657.78 935.382 Z" fill="#000000" fill-rule="nonzero" fill-opacity="1" /><path clip-path="url(#clip130)" d="M2296.11 1072.18 L2361.89 1072.18 L2361.89 1081.04 L2334.28 1081.04 L2334.28 1149.94 L2323.71 1149.94 L2323.71 1081.04 L2296.11 1081.04 L2296.11 1072.18 Z" fill="#000000" fill-rule="nonzero" fill-opacity="1" /><path clip-path="url(#clip130)" d="M2368.35 1091.61 L2377.93 1091.61 L2377.93 1149.94 L2368.35 1149.94 L2368.35 1091.61 M2368.35 1068.9 L2377.93 1068.9 L2377.93 1081.04 L2368.35 1081.04 L2368.35 1068.9 Z" fill="#000000" fill-rule="nonzero" fill-opacity="1" /><path clip-path="url(#clip130)" d="M2443.4 1102.81 Q2446.99 1096.35 2451.99 1093.28 Q2456.99 1090.2 2463.76 1090.2 Q2472.88 1090.2 2477.83 1096.61 Q2482.77 1102.96 2482.77 1114.74 L2482.77 1149.94 L2473.14 1149.94 L2473.14 1115.05 Q2473.14 1106.66 2470.17 1102.6 Q2467.2 1098.54 2461.11 1098.54 Q2453.66 1098.54 2449.34 1103.49 Q2445.01 1108.43 2445.01 1116.97 L2445.01 1149.94 L2435.38 1149.94 L2435.38 1115.05 Q2435.38 1106.61 2432.41 1102.6 Q2429.44 1098.54 2423.24 1098.54 Q2415.9 1098.54 2411.58 1103.54 Q2407.25 1108.49 2407.25 1116.97 L2407.25 1149.94 L2397.62 1149.94 L2397.62 1091.61 L2407.25 1091.61 L2407.25 1100.67 Q2410.53 1095.31 2415.12 1092.76 Q2419.7 1090.2 2426 1090.2 Q2432.36 1090.2 2436.78 1093.43 Q2441.26 1096.66 2443.4 1102.81 Z" fill="#000000" fill-rule="nonzero" fill-opacity="1" /><path clip-path="url(#clip130)" d="M2551.78 1118.38 L2551.78 1123.07 L2507.72 1123.07 Q2508.35 1132.96 2513.66 1138.17 Q2519.02 1143.33 2528.55 1143.33 Q2534.08 1143.33 2539.23 1141.97 Q2544.44 1140.62 2549.54 1137.91 L2549.54 1146.97 Q2544.39 1149.16 2538.97 1150.31 Q2533.55 1151.45 2527.98 1151.45 Q2514.02 1151.45 2505.85 1143.33 Q2497.72 1135.2 2497.72 1121.35 Q2497.72 1107.03 2505.43 1098.64 Q2513.19 1090.2 2526.31 1090.2 Q2538.09 1090.2 2544.91 1097.81 Q2551.78 1105.36 2551.78 1118.38 M2542.2 1115.57 Q2542.1 1107.7 2537.77 1103.02 Q2533.5 1098.33 2526.42 1098.33 Q2518.4 1098.33 2513.55 1102.86 Q2508.76 1107.39 2508.03 1115.62 L2542.2 1115.57 Z" fill="#000000" fill-rule="nonzero" fill-opacity="1" /><path clip-path="url(#clip130)" d="M2624.44 1069.01 Q2617.46 1080.99 2614.07 1092.7 Q2610.69 1104.42 2610.69 1116.45 Q2610.69 1128.49 2614.07 1140.31 Q2617.51 1152.08 2624.44 1164.01 L2616.11 1164.01 Q2608.29 1151.77 2604.39 1139.94 Q2600.53 1128.12 2600.53 1116.45 Q2600.53 1104.84 2604.39 1093.07 Q2608.24 1081.3 2616.11 1069.01 L2624.44 1069.01 Z" fill="#000000" fill-rule="nonzero" fill-opacity="1" /><path clip-path="url(#clip130)" d="M2681.42 1100.46 L2681.42 1068.9 L2691 1068.9 L2691 1149.94 L2681.42 1149.94 L2681.42 1141.19 Q2678.4 1146.4 2673.76 1148.95 Q2669.18 1151.45 2662.72 1151.45 Q2652.15 1151.45 2645.48 1143.02 Q2638.87 1134.58 2638.87 1120.83 Q2638.87 1107.08 2645.48 1098.64 Q2652.15 1090.2 2662.72 1090.2 Q2669.18 1090.2 2673.76 1092.76 Q2678.4 1095.26 2681.42 1100.46 M2648.76 1120.83 Q2648.76 1131.4 2653.08 1137.44 Q2657.46 1143.43 2665.06 1143.43 Q2672.67 1143.43 2677.04 1137.44 Q2681.42 1131.4 2681.42 1120.83 Q2681.42 1110.26 2677.04 1104.27 Q2672.67 1098.23 2665.06 1098.23 Q2657.46 1098.23 2653.08 1104.27 Q2648.76 1110.26 2648.76 1120.83 Z" fill="#000000" fill-rule="nonzero" fill-opacity="1" /><path clip-path="url(#clip130)" d="M2737.25 1120.62 Q2725.64 1120.62 2721.16 1123.28 Q2716.68 1125.93 2716.68 1132.34 Q2716.68 1137.44 2720.01 1140.46 Q2723.4 1143.43 2729.18 1143.43 Q2737.15 1143.43 2741.94 1137.81 Q2746.78 1132.13 2746.78 1122.76 L2746.78 1120.62 L2737.25 1120.62 M2756.37 1116.66 L2756.37 1149.94 L2746.78 1149.94 L2746.78 1141.09 Q2743.5 1146.4 2738.61 1148.95 Q2733.71 1151.45 2726.63 1151.45 Q2717.67 1151.45 2712.36 1146.45 Q2707.1 1141.4 2707.1 1132.96 Q2707.1 1123.12 2713.66 1118.12 Q2720.27 1113.12 2733.34 1113.12 L2746.78 1113.12 L2746.78 1112.18 Q2746.78 1105.57 2742.41 1101.98 Q2738.08 1098.33 2730.22 1098.33 Q2725.22 1098.33 2720.48 1099.53 Q2715.74 1100.73 2711.37 1103.12 L2711.37 1094.27 Q2716.63 1092.24 2721.57 1091.25 Q2726.52 1090.2 2731.21 1090.2 Q2743.87 1090.2 2750.12 1096.77 Q2756.37 1103.33 2756.37 1116.66 Z" fill="#000000" fill-rule="nonzero" fill-opacity="1" /><path clip-path="url(#clip130)" d="M2800.38 1155.36 Q2796.31 1165.78 2792.46 1168.95 Q2788.61 1172.13 2782.15 1172.13 L2774.49 1172.13 L2774.49 1164.11 L2780.12 1164.11 Q2784.07 1164.11 2786.26 1162.24 Q2788.45 1160.36 2791.11 1153.38 L2792.82 1149.01 L2769.23 1091.61 L2779.39 1091.61 L2797.62 1137.24 L2815.84 1091.61 L2826 1091.61 L2800.38 1155.36 Z" fill="#000000" fill-rule="nonzero" fill-opacity="1" /><path clip-path="url(#clip130)" d="M2837.72 1069.01 L2846.05 1069.01 Q2853.87 1081.3 2857.72 1093.07 Q2861.63 1104.84 2861.63 1116.45 Q2861.63 1128.12 2857.72 1139.94 Q2853.87 1151.77 2846.05 1164.01 L2837.72 1164.01 Q2844.65 1152.08 2848.03 1140.31 Q2851.47 1128.49 2851.47 1116.45 Q2851.47 1104.42 2848.03 1092.7 Q2844.65 1080.99 2837.72 1069.01 Z" fill="#000000" fill-rule="nonzero" fill-opacity="1" /><polyline clip-path="url(#clip130)" style="stroke:#000000; stroke-linecap:round; stroke-linejoin:round; stroke-width:4; stroke-opacity:1; fill:none" points="404.977,880.951 404.977,47.2441 "/>
<polyline clip-path="url(#clip130)" style="stroke:#000000; stroke-linecap:round; stroke-linejoin:round; stroke-width:4; stroke-opacity:1; fill:none" points="404.977,728.508 423.875,728.508 "/>
<polyline clip-path="url(#clip130)" style="stroke:#000000; stroke-linecap:round; stroke-linejoin:round; stroke-width:4; stroke-opacity:1; fill:none" points="404.977,553.771 423.875,553.771 "/>
<polyline clip-path="url(#clip130)" style="stroke:#000000; stroke-linecap:round; stroke-linejoin:round; stroke-width:4; stroke-opacity:1; fill:none" points="404.977,379.035 423.875,379.035 "/>
<polyline clip-path="url(#clip130)" style="stroke:#000000; stroke-linecap:round; stroke-linejoin:round; stroke-width:4; stroke-opacity:1; fill:none" points="404.977,204.299 423.875,204.299 "/>
<path clip-path="url(#clip130)" d="M151.219 729.411 L210.571 729.411 L210.571 737.281 L151.219 737.281 L151.219 729.411 Z" fill="#000000" fill-rule="nonzero" fill-opacity="1" /><path clip-path="url(#clip130)" d="M228.395 693.948 L272.839 693.948 L272.839 697.929 L247.746 763.068 L237.978 763.068 L261.589 701.818 L228.395 701.818 L228.395 693.948 Z" fill="#000000" fill-rule="nonzero" fill-opacity="1" /><path clip-path="url(#clip130)" d="M291.172 693.948 L327.885 693.948 L327.885 701.818 L299.737 701.818 L299.737 718.763 Q301.774 718.068 303.811 717.744 Q305.848 717.374 307.885 717.374 Q319.459 717.374 326.218 723.716 Q332.977 730.059 332.977 740.892 Q332.977 752.049 326.033 758.253 Q319.089 764.41 306.45 764.41 Q302.098 764.41 297.561 763.67 Q293.07 762.929 288.255 761.448 L288.255 752.049 Q292.422 754.318 296.866 755.429 Q301.311 756.54 306.265 756.54 Q314.274 756.54 318.95 752.327 Q323.626 748.114 323.626 740.892 Q323.626 733.67 318.95 729.457 Q314.274 725.244 306.265 725.244 Q302.515 725.244 298.765 726.077 Q295.061 726.911 291.172 728.67 L291.172 693.948 Z" fill="#000000" fill-rule="nonzero" fill-opacity="1" /><path clip-path="url(#clip130)" d="M149.228 554.674 L208.58 554.674 L208.58 562.545 L149.228 562.545 L149.228 554.674 Z" fill="#000000" fill-rule="nonzero" fill-opacity="1" /><path clip-path="url(#clip130)" d="M228.858 519.211 L265.57 519.211 L265.57 527.082 L237.422 527.082 L237.422 544.026 Q239.459 543.332 241.496 543.008 Q243.533 542.637 245.57 542.637 Q257.144 542.637 263.904 548.98 Q270.663 555.322 270.663 566.156 Q270.663 577.313 263.718 583.517 Q256.774 589.674 244.135 589.674 Q239.783 589.674 235.246 588.933 Q230.756 588.193 225.941 586.711 L225.941 577.313 Q230.108 579.582 234.552 580.693 Q238.996 581.804 243.95 581.804 Q251.959 581.804 256.635 577.591 Q261.311 573.378 261.311 566.156 Q261.311 558.933 256.635 554.721 Q251.959 550.508 243.95 550.508 Q240.2 550.508 236.45 551.341 Q232.746 552.174 228.858 553.934 L228.858 519.211 Z" fill="#000000" fill-rule="nonzero" fill-opacity="1" /><path clip-path="url(#clip130)" d="M309.089 525.369 Q301.866 525.369 298.209 532.498 Q294.598 539.582 294.598 553.841 Q294.598 568.054 298.209 575.183 Q301.866 582.267 309.089 582.267 Q316.357 582.267 319.968 575.183 Q323.626 568.054 323.626 553.841 Q323.626 539.582 319.968 532.498 Q316.357 525.369 309.089 525.369 M309.089 517.961 Q320.709 517.961 326.82 527.174 Q332.977 536.341 332.977 553.841 Q332.977 571.295 326.82 580.507 Q320.709 589.674 309.089 589.674 Q297.468 589.674 291.311 580.507 Q285.2 571.295 285.2 553.841 Q285.2 536.341 291.311 527.174 Q297.468 517.961 309.089 517.961 Z" fill="#000000" fill-rule="nonzero" fill-opacity="1" /><path clip-path="url(#clip130)" d="M151.219 379.938 L210.571 379.938 L210.571 387.808 L151.219 387.808 L151.219 379.938 Z" fill="#000000" fill-rule="nonzero" fill-opacity="1" /><path clip-path="url(#clip130)" d="M238.811 405.725 L271.45 405.725 L271.45 413.595 L227.561 413.595 L227.561 405.725 Q232.885 400.216 242.052 390.956 Q251.265 381.651 253.626 378.966 Q258.117 373.919 259.876 370.447 Q261.681 366.929 261.681 363.549 Q261.681 358.04 257.793 354.568 Q253.95 351.095 247.746 351.095 Q243.348 351.095 238.441 352.623 Q233.58 354.151 228.024 357.253 L228.024 347.808 Q233.672 345.54 238.58 344.383 Q243.487 343.225 247.561 343.225 Q258.302 343.225 264.691 348.595 Q271.08 353.966 271.08 362.947 Q271.08 367.206 269.459 371.049 Q267.885 374.845 263.672 380.03 Q262.515 381.373 256.311 387.808 Q250.107 394.197 238.811 405.725 Z" fill="#000000" fill-rule="nonzero" fill-opacity="1" /><path clip-path="url(#clip130)" d="M291.172 344.475 L327.885 344.475 L327.885 352.345 L299.737 352.345 L299.737 369.29 Q301.774 368.595 303.811 368.271 Q305.848 367.901 307.885 367.901 Q319.459 367.901 326.218 374.243 Q332.977 380.586 332.977 391.419 Q332.977 402.577 326.033 408.78 Q319.089 414.938 306.45 414.938 Q302.098 414.938 297.561 414.197 Q293.07 413.456 288.255 411.975 L288.255 402.577 Q292.422 404.845 296.866 405.956 Q301.311 407.067 306.265 407.067 Q314.274 407.067 318.95 402.854 Q323.626 398.641 323.626 391.419 Q323.626 384.197 318.95 379.984 Q314.274 375.771 306.265 375.771 Q302.515 375.771 298.765 376.605 Q295.061 377.438 291.172 379.197 L291.172 344.475 Z" fill="#000000" fill-rule="nonzero" fill-opacity="1" /><path clip-path="url(#clip130)" d="M309.089 175.896 Q301.866 175.896 298.209 183.026 Q294.598 190.109 294.598 204.368 Q294.598 218.581 298.209 225.711 Q301.866 232.794 309.089 232.794 Q316.357 232.794 319.968 225.711 Q323.626 218.581 323.626 204.368 Q323.626 190.109 319.968 183.026 Q316.357 175.896 309.089 175.896 M309.089 168.489 Q320.709 168.489 326.82 177.702 Q332.977 186.868 332.977 204.368 Q332.977 221.822 326.82 231.035 Q320.709 240.201 309.089 240.201 Q297.468 240.201 291.311 231.035 Q285.2 221.822 285.2 204.368 Q285.2 186.868 291.311 177.702 Q297.468 168.489 309.089 168.489 Z" fill="#000000" fill-rule="nonzero" fill-opacity="1" /><path clip-path="url(#clip132)" d="M528.028 339.036 L545.118 367.844 L562.208 394.11 L579.299 418.093 L596.389 438.665 L613.479 455.275 L630.57 462.042 L647.66 461.331 L664.75 446.869 L681.841 427.832 L698.931 421.651 L716.021 413.458 L733.112 410.453 L750.202 409.928 L767.292 409.13 L784.383 406.72 L801.473 400.215 L818.563 393.03 L835.654 386.086 L852.744 386.174 L869.834 391.053 L886.925 400.346 L904.015 408.058 L921.105 414.42 L938.195 422.428 L955.286 449.182 L972.376 486.788 L989.466 525.866 L1006.56 563.033 L1023.65 596.572 L1040.74 614.541 L1057.83 619.548 L1074.92 597.575 L1092.01 560.692 L1109.1 530.546 L1126.19 502.684 L1143.28 478.264 L1160.37 458.095 L1177.46 442.405 L1194.55 431.585 L1211.64 421.062 L1228.73 414.82 L1245.82 409.075 L1262.91 409.958 L1280 417.518 L1297.09 427.389 L1314.18 431.063 L1331.27 436.934 L1348.36 455.95 L1365.45 491.103 L1382.54 528.831 L1399.63 568.021 L1416.72 605.405 L1433.81 638.741 L1450.91 656.885 L1468 660.542 L1485.09 636.46 L1502.18 601.168 L1519.27 573.148 L1536.36 544.44 L1553.45 515.196 L1570.54 490.811 L1587.63 472.247 L1604.72 459.528 L1621.81 447.424 L1638.9 438.648 L1655.99 433.004 L1673.08 435.004 L1690.17 443.287 L1707.26 453.874 L1724.35 464.969 L1741.44 471.203 L1758.53 479.694 L1775.62 513.346 L1792.71 551.239 L1809.8 590.604 L1826.89 628.232 L1843.98 661.855 L1861.07 679.179 L1878.16 685.19 L1895.25 670.459 L1912.34 637.262 L1929.43 608.333 L1946.52 578.381 L1963.61 547.861 L1980.71 522.004 L1997.8 501.419 L2014.89 484.168 L2031.98 467.846 L2049.07 457.208 L2066.16 451.605 L2083.25 454.096 L2100.34 463.562 L2117.43 480.864 L2134.52 492.683 L2151.61 499.518 L2168.7 508.32 L2185.79 534.677 L2202.88 565.767 L2219.97 603.792 L2237.06 641.693 L2254.15 679.231 L2271.24 705.256 L2288.33 717.328 L2305.42 702.65 L2322.51 668.726 L2339.6 638.661 L2356.69 607.687 L2373.78 576.503 L2390.87 549.653 L2407.96 527.598 L2425.05 509.905 L2442.14 492.068 L2459.23 479.782 L2476.32 471.885 L2493.42 476.215 L2510.51 487.928 L2527.6 505.851 L2544.69 518.252 L2561.78 525.393 L2578.87 533.9 L2595.96 560.333 L2613.05 591.779 L2630.14 628.077 L2647.23 666.95 L2664.32 706.471 L2681.41 732.339 L2698.5 745.528 L2715.59 730.422 L2732.68 696.758 L2749.77 666.438 L2766.86 634.665 L2783.95 602.29 L2801.04 574.598 L2818.13 550.888 L2835.22 531.928 L2852.31 513.546 L2869.4 500.934 L2886.49 493.105 L2903.58 497.885 L2920.67 510.728 L2937.76 529.516 L2954.85 542.436 L2971.94 549.903 L2989.03 559.004 L3006.12 585.674 L3023.22 617.094 L3040.31 653.557 L3057.4 692.724 L3074.49 732.962 L3091.58 759.64 L3108.67 773.304 L3125.76 758.34 L3142.85 723.712 L3159.94 693.299 L3177.03 661.584 L3194.12 628.535 L3211.21 599.901 L3228.3 575.604 L3245.39 554.61 L3262.48 535.293 L3279.57 522.25 L3296.66 514.367 L3313.75 519.54 L3330.84 532.805 L3347.93 552.234 L3365.02 565.633 L3382.11 573.463 L3399.2 582.659 L3416.29 609.651 L3433.38 641.182 L3450.47 677.976 L3467.56 717.719 L3484.65 758.294 L3501.74 786.034 L3518.83 800.832 L3535.92 786.781 L3553.02 753.063 L3570.11 721.626 L3587.2 688.844 L3604.29 654.709 L3621.38 624.743 L3638.47 599.501 L3655.56 578.399 L3672.65 558.331 L3689.74 544.816 L3706.83 541.118 L3723.92 549.698 L3741.01 565.165 L3758.1 582.839 L3775.19 589.449 L3792.28 597.832 L3809.37 607.007 L3826.46 634.071 L3843.55 665.887 L3860.64 702.956 L3877.73 743.225 L3894.82 784.24 L3911.91 812.347 L3929 827.796 L3946.09 814.153 L3963.18 780.796 L3980.27 754.912 L3997.36 722.466 L4014.45 685.721 L4031.54 653.436 L4048.63 626.882 L4065.72 606.462 L4082.82 589.255 L4099.91 578.533 L4117 576.188 L4134.09 586.699 L4151.18 604.472 L4168.27 623.394 L4185.36 629.563 L4202.45 624.927 L4219.54 632.785 L4236.63 660.15 L4253.72 692.162 L4270.81 729.546 L4287.9 770.265 L4304.99 812.08 L4322.08 841.067 L4339.17 857.356 L4356.26 855.421 L4373.35 831.02 L4390.44 805.745 L4407.53 773.245 L4424.62 735.867 L4441.71 702.376 L4458.8 674.365 L4475.89 652.519 L4492.98 633.163 L4510.07 624.541 L4527.16 622.477 L4544.25 634.02 L4561.34 653.685 L4578.43 675.045 L4595.52 682.862 L4612.62 678.946 L4629.71 674.488 L4629.71 71.2417 L4612.62 72.2256 L4595.52 80.3658 L4578.43 88.6782 L4561.34 90.5129 L4544.25 90.2218 L4527.16 95.6108 L4510.07 108.155 L4492.98 120.584 L4475.89 129.538 L4458.8 128.182 L4441.71 126.963 L4424.62 128.87 L4407.53 137.044 L4390.44 148.859 L4373.35 160.287 L4356.26 178.879 L4339.17 194.777 L4322.08 195.886 L4304.99 185.995 L4287.9 164.537 L4270.81 138.495 L4253.72 111.465 L4236.63 87.5823 L4219.54 71.3251 L4202.45 72.5393 L4185.36 80.6577 L4168.27 89.0425 L4151.18 91.4324 L4134.09 91.0079 L4117 96.3425 L4099.91 107.796 L4082.82 119.607 L4065.72 129.36 L4048.63 127.541 L4031.54 126.986 L4014.45 129.032 L3997.36 137.011 L3980.27 148.39 L3963.18 158.969 L3946.09 179.489 L3929 195.192 L3911.91 196.508 L3894.82 186.584 L3877.73 165.334 L3860.64 139.522 L3843.55 112.868 L3826.46 89.4772 L3809.37 72.8195 L3792.28 72.4528 L3775.19 81.2493 L3758.1 89.8219 L3741.01 91.8062 L3723.92 91.2413 L3706.83 96.0816 L3689.74 108.087 L3672.65 120.084 L3655.56 129.085 L3638.47 127.545 L3621.38 127.069 L3604.29 129.124 L3587.2 136.799 L3570.11 147.878 L3553.02 160.289 L3535.92 178.914 L3518.83 194.718 L3501.74 196.183 L3484.65 186.869 L3467.56 164.811 L3450.47 138.984 L3433.38 112.076 L3416.29 88.4079 L3399.2 71.597 L3382.11 72.5321 L3365.02 80.5399 L3347.93 88.9349 L3330.84 91.8339 L3313.75 91.4731 L3296.66 96.3888 L3279.57 107.896 L3262.48 119.795 L3245.39 129.325 L3228.3 127.884 L3211.21 127 L3194.12 129.166 L3177.03 137.497 L3159.94 147.457 L3142.85 157.762 L3125.76 178.524 L3108.67 195.219 L3091.58 197.194 L3074.49 187.644 L3057.4 165.217 L3040.31 139.388 L3023.22 112.622 L3006.12 89.0392 L2989.03 72.1916 L2971.94 72.6398 L2954.85 80.7924 L2937.76 89.3389 L2920.67 92.5563 L2903.58 91.8159 L2886.49 97.1749 L2869.4 108.504 L2852.31 120.484 L2835.22 128.565 L2818.13 127.426 L2801.04 126.9 L2783.95 129.043 L2766.86 136.869 L2749.77 147.981 L2732.68 158.88 L2715.59 179.013 L2698.5 195.593 L2681.41 196.834 L2664.32 187.437 L2647.23 165.054 L2630.14 139.212 L2613.05 112.418 L2595.96 88.8125 L2578.87 71.9458 L2561.78 72.4706 L2544.69 80.4808 L2527.6 88.7653 L2510.51 92.3308 L2493.42 91.9344 L2476.32 97.1951 L2459.23 109.236 L2442.14 120.96 L2425.05 129.635 L2407.96 128.011 L2390.87 127.264 L2373.78 129.225 L2356.69 136.92 L2339.6 147.27 L2322.51 157.625 L2305.42 178.024 L2288.33 194.685 L2271.24 197.332 L2254.15 187.651 L2237.06 165.593 L2219.97 139.253 L2202.88 112.642 L2185.79 89.1243 L2168.7 72.4165 L2151.61 72.8595 L2134.52 81.1437 L2117.43 89.7575 L2100.34 94.2212 L2083.25 94.0639 L2066.16 97.8969 L2049.07 109.961 L2031.98 121.943 L2014.89 129.616 L1997.8 128.803 L1980.71 127.605 L1963.61 129.399 L1946.52 136.817 L1929.43 147.844 L1912.34 162.614 L1895.25 177.775 L1878.16 194.69 L1861.07 196.06 L1843.98 186.739 L1826.89 164.408 L1809.8 138.603 L1792.71 111.868 L1775.62 88.3161 L1758.53 71.4994 L1741.44 72.0301 L1724.35 80.1233 L1707.26 88.5152 L1690.17 94.1412 L1673.08 94.7281 L1655.99 99.1305 L1638.9 111.096 L1621.81 123.124 L1604.72 129.525 L1587.63 129.583 L1570.54 128.439 L1553.45 130.313 L1536.36 137.824 L1519.27 148.399 L1502.18 159.5 L1485.09 177.248 L1468 194.323 L1450.91 195.492 L1433.81 185.663 L1416.72 163.983 L1399.63 138.065 L1382.54 111.233 L1365.45 87.6581 L1348.36 70.8396 L1331.27 71.3141 L1314.18 79.4835 L1297.09 87.8662 L1280 93.6755 L1262.91 96.0811 L1245.82 101.283 L1228.73 113.25 L1211.64 125.298 L1194.55 131.461 L1177.46 130.545 L1160.37 129.445 L1143.28 131.441 L1126.19 139.185 L1109.1 150.643 L1092.01 160.923 L1074.92 178.396 L1057.83 194.666 L1040.74 195.953 L1023.65 186.342 L1006.56 164.468 L989.466 138.104 L972.376 111.428 L955.286 87.847 L938.195 71.5636 L921.105 71.9487 L904.015 80.2182 L886.925 88.5812 L869.834 94.1939 L852.744 98.8403 L835.654 105.327 L818.563 119.517 L801.473 130.249 L784.383 133.319 L767.292 131.451 L750.202 131.49 L733.112 135.144 L716.021 146.578 L698.931 161.573 L681.841 180.724 L664.75 207.369 L647.66 230.014 L630.57 235.073 L613.479 229.524 L596.389 212.565 L579.299 192.049 L562.208 170.657 L545.118 154.087 L528.028 146.376  Z" fill="#aeaeae" fill-rule="evenodd" fill-opacity="0.5"/>
<polyline clip-path="url(#clip132)" style="stroke:#aeaeae; stroke-linecap:round; stroke-linejoin:round; stroke-width:0; stroke-opacity:1; fill:none" points="528.028,204.972 545.118,212.511 562.208,222.211 579.299,233.099 596.389,243.564 613.479,252.599 630.57,255.792 647.66,254.171 664.75,244.203 681.841,230.906 698.931,222.636 716.021,216.917 733.112,212.701 750.202,210.469 767.292,208.827 784.383,206.948 801.473,202.995 818.563,198.356 835.654,192.934 852.744,190.083 869.834,189.536 886.925,191.025 904.015,191.407 921.105,191.43 938.195,193.668 955.286,202.79 972.376,213.856 989.466,225.833 1006.56,237.191 1023.65,246.898 1040.74,250.71 1057.83,249.669 1074.92,240.697 1092.01,228.63 1109.1,221.465 1126.19,216.582 1143.28,212.869 1160.37,210.884 1177.46,209.368 1194.55,207.494 1211.64,203.441 1228.73,198.71 1245.82,193.227 1262.91,190.401 1280,189.885 1297.09,191.406 1314.18,191.795 1331.27,191.814 1348.36,194.057 1365.45,203.166 1382.54,214.213 1399.63,226.187 1416.72,237.547 1433.81,247.252 1450.91,251.068 1468,250.015 1485.09,240.942 1502.18,228.781 1519.27,221.573 1536.36,216.678 1553.45,212.97 1570.54,210.992 1587.63,209.453 1604.72,207.544 1621.81,203.456 1638.9,198.708 1655.99,193.248 1673.08,190.446 1690.17,189.949 1707.26,191.492 1724.35,191.908 1741.44,191.936 1758.53,194.183 1775.62,203.306 1792.71,214.353 1809.8,226.312 1826.89,237.684 1843.98,247.384 1861.07,251.224 1878.16,250.165 1895.25,241.1 1912.34,228.96 1929.43,221.684 1946.52,216.733 1963.61,212.996 1980.71,211.008 1997.8,209.49 2014.89,207.58 2031.98,203.481 2049.07,198.742 2066.16,193.273 2083.25,190.486 2100.34,190.012 2117.43,191.575 2134.52,192.001 2151.61,192.038 2168.7,194.259 2185.79,203.371 2202.88,214.424 2219.97,226.39 2237.06,237.761 2254.15,247.483 2271.24,251.335 2288.33,250.284 2305.42,241.178 2322.51,228.954 2339.6,221.689 2356.69,216.777 2373.78,213.063 2390.87,211.081 2407.96,209.553 2425.05,207.631 2442.14,203.528 2459.23,198.788 2476.32,193.323 2493.42,190.562 2510.51,190.113 2527.6,191.687 2544.69,192.119 2561.78,192.158 2578.87,194.381 2595.96,203.492 2613.05,214.541 2630.14,226.511 2647.23,237.883 2664.32,247.595 2681.41,251.457 2698.5,250.434 2715.59,241.339 2732.68,229.091 2749.77,221.812 2766.86,216.88 2783.95,213.167 2801.04,211.179 2818.13,209.657 2835.22,207.736 2852.31,203.631 2869.4,198.872 2886.49,193.394 2903.58,190.647 2920.67,190.209 2937.76,191.8 2954.85,192.238 2971.94,192.278 2989.03,194.509 3006.12,203.617 3023.22,214.662 3040.31,226.616 3057.4,237.99 3074.49,247.721 3091.58,251.58 3108.67,250.528 3125.76,241.44 3142.85,229.247 3159.94,221.95 3177.03,217.001 3194.12,213.274 3211.21,211.282 3228.3,209.739 3245.39,207.836 3262.48,203.721 3279.57,198.963 3296.66,193.495 3313.75,190.743 3330.84,190.33 3347.93,191.938 3365.02,192.383 3382.11,192.423 3399.2,194.659 3416.29,203.768 3433.38,214.807 3450.47,226.767 3467.56,238.136 3484.65,247.868 3501.74,251.75 3518.83,250.705 3535.92,241.569 3553.02,229.336 3570.11,222.044 3587.2,217.114 3604.29,213.408 3621.38,211.412 3638.47,209.871 3655.56,207.957 3672.65,203.832 3689.74,199.093 3706.83,193.63 3723.92,190.889 3741.01,190.471 3758.1,192.088 3775.19,192.542 3792.28,192.582 3809.37,194.795 3826.46,203.911 3843.55,214.95 3860.64,226.91 3877.73,238.282 3894.82,248.021 3911.91,251.889 3929,250.862 3946.09,241.776 3963.18,229.56 3980.27,222.288 3997.36,217.333 4014.45,213.581 4031.54,211.58 4048.63,210.028 4065.72,208.084 4082.82,203.975 4099.91,199.209 4117,193.764 4134.09,191.035 4151.18,190.64 4168.27,192.262 4185.36,192.72 4202.45,192.759 4219.54,194.976 4236.63,204.077 4253.72,215.109 4270.81,227.073 4287.9,238.437 4304.99,248.175 4322.08,252.055 4339.17,251.05 4356.26,241.95 4373.35,229.783 4390.44,222.478 4407.53,217.514 4424.62,213.766 4441.71,211.754 4458.8,210.194 4475.89,208.266 4492.98,204.126 4510.07,199.358 4527.16,193.892 4544.25,191.182 4561.34,190.781 4578.43,192.41 4595.52,192.883 4612.62,192.946 4629.71,195.038 "/>
<path clip-path="url(#clip132)" d="M528.028 256.918 L545.118 277.879 L562.208 300.014 L579.299 322.284 L596.389 344.06 L613.479 369.004 L630.57 379.768 L647.66 384.939 L664.75 374.711 L681.841 352.469 L698.931 336.663 L716.021 324.852 L733.112 316.263 L750.202 306.111 L767.292 302.217 L784.383 297.967 L801.473 289.41 L818.563 279.788 L835.654 270.446 L852.744 268.595 L869.834 271.915 L886.925 280.538 L904.015 284.453 L921.105 288.304 L938.195 295.925 L955.286 316.253 L972.376 340.051 L989.466 367.297 L1006.56 394.816 L1023.65 424.881 L1040.74 433.331 L1057.83 435.616 L1074.92 415.999 L1092.01 388.199 L1109.1 371.815 L1126.19 355.433 L1143.28 336.856 L1160.37 326.481 L1177.46 317.641 L1194.55 311.59 L1211.64 301.912 L1228.73 291.565 L1245.82 280.321 L1262.91 277.733 L1280 281.541 L1297.09 289.384 L1314.18 293.716 L1331.27 297.608 L1348.36 305.964 L1365.45 327.128 L1382.54 351.632 L1399.63 380.431 L1416.72 408.191 L1433.81 433.211 L1450.91 446.75 L1468 445.674 L1485.09 425.98 L1502.18 397.931 L1519.27 378.374 L1536.36 361.137 L1553.45 346.182 L1570.54 332.804 L1587.63 322.599 L1604.72 314.071 L1621.81 303.534 L1638.9 293.201 L1655.99 285.482 L1673.08 285.373 L1690.17 288.727 L1707.26 296.952 L1724.35 301.682 L1741.44 303.71 L1758.53 312.067 L1775.62 332.366 L1792.71 358.224 L1809.8 387.062 L1826.89 413.193 L1843.98 441.001 L1861.07 452.209 L1878.16 450.546 L1895.25 435.346 L1912.34 402.824 L1929.43 381.787 L1946.52 364.959 L1963.61 350.179 L1980.71 337.29 L1997.8 327.628 L2014.89 319.698 L2031.98 306.409 L2049.07 295.557 L2066.16 285.979 L2083.25 284.163 L2100.34 288.407 L2117.43 298.775 L2134.52 301.954 L2151.61 306.547 L2168.7 314.922 L2185.79 335.077 L2202.88 362.964 L2219.97 390.938 L2237.06 415.397 L2254.15 445.636 L2271.24 453.247 L2288.33 453.177 L2305.42 434.655 L2322.51 405.871 L2339.6 385.505 L2356.69 369.04 L2373.78 350.891 L2390.87 339.059 L2407.96 331.455 L2425.05 323.379 L2442.14 311.184 L2459.23 296.405 L2476.32 285.58 L2493.42 284.054 L2510.51 289.13 L2527.6 300.261 L2544.69 304.265 L2561.78 307.775 L2578.87 316.854 L2595.96 340.879 L2613.05 365.139 L2630.14 392.582 L2647.23 417.806 L2664.32 446.829 L2681.41 453.777 L2698.5 453.963 L2715.59 434.588 L2732.68 408.281 L2749.77 386.751 L2766.86 370.551 L2783.95 352.345 L2801.04 340.107 L2818.13 332.247 L2835.22 325.087 L2852.31 313.09 L2869.4 299.705 L2886.49 286.282 L2903.58 285.585 L2920.67 289.529 L2937.76 300.413 L2954.85 306.712 L2971.94 308.893 L2989.03 318.452 L3006.12 341.413 L3023.22 366.327 L3040.31 392.027 L3057.4 418.974 L3074.49 447.497 L3091.58 455.119 L3108.67 453.358 L3125.76 436.356 L3142.85 409.75 L3159.94 388.066 L3177.03 370.961 L3194.12 353.199 L3211.21 341.33 L3228.3 332.318 L3245.39 325.11 L3262.48 314.332 L3279.57 302.318 L3296.66 288.69 L3313.75 286.323 L3330.84 289.736 L3347.93 301.469 L3365.02 309.436 L3382.11 308.573 L3399.2 318.336 L3416.29 342.409 L3433.38 368.484 L3450.47 392.096 L3467.56 419.705 L3484.65 447.487 L3501.74 455.111 L3518.83 454.144 L3535.92 435.765 L3553.02 410.207 L3570.11 388.793 L3587.2 370.835 L3604.29 353.96 L3621.38 343.025 L3638.47 333.295 L3655.56 325.668 L3672.65 314.538 L3689.74 303.65 L3706.83 291.294 L3723.92 288.232 L3741.01 290.332 L3758.1 302.158 L3775.19 312.101 L3792.28 310.562 L3809.37 319.393 L3826.46 342.601 L3843.55 369.714 L3860.64 391.657 L3877.73 420.194 L3894.82 447.141 L3911.91 455.296 L3929 455.877 L3946.09 436.236 L3963.18 410.061 L3980.27 390.004 L3997.36 371.989 L4014.45 354.1 L4031.54 343.377 L4048.63 333.873 L4065.72 325.945 L4082.82 314.688 L4099.91 303.728 L4117 293.242 L4134.09 289.772 L4151.18 292.849 L4168.27 302.994 L4185.36 311.948 L4202.45 312.587 L4219.54 320.672 L4236.63 342.911 L4253.72 370.212 L4270.81 391.161 L4287.9 420.407 L4304.99 446.141 L4322.08 456.306 L4339.17 456.693 L4356.26 438.2 L4373.35 411.385 L4390.44 391.225 L4407.53 371.61 L4424.62 353.751 L4441.71 343.257 L4458.8 334.729 L4475.89 325.912 L4492.98 314.93 L4510.07 303.828 L4527.16 293.207 L4544.25 289.581 L4561.34 293.586 L4578.43 303.911 L4595.52 311.367 L4612.62 313.585 L4629.71 319.898 L4629.71 98.7319 L4612.62 98.303 L4595.52 103.609 L4578.43 107.783 L4561.34 109.921 L4544.25 114.813 L4527.16 123.116 L4510.07 134.876 L4492.98 142.987 L4475.89 148.572 L4458.8 149.005 L4441.71 149.384 L4424.62 151.238 L4407.53 158.183 L4390.44 166.087 L4373.35 176.924 L4356.26 198.312 L4339.17 215.581 L4322.08 217.671 L4304.99 209.922 L4287.9 189.376 L4270.81 164.67 L4253.72 139.059 L4236.63 116.077 L4219.54 99.0298 L4202.45 98.1343 L4185.36 103.677 L4168.27 107.56 L4151.18 110.126 L4134.09 114.87 L4117 122.577 L4099.91 134.357 L4082.82 142.691 L4065.72 148.19 L4048.63 149.008 L4031.54 149.227 L4014.45 151.015 L3997.36 158.139 L3980.27 165.562 L3963.18 177.574 L3946.09 198.126 L3929 215.46 L3911.91 217.256 L3894.82 209.721 L3877.73 189.398 L3860.64 164.521 L3843.55 138.832 L3826.46 115.997 L3809.37 98.7854 L3792.28 97.7123 L3775.19 103.094 L3758.1 107.377 L3741.01 109.706 L3723.92 114.69 L3706.83 122.826 L3689.74 134.571 L3672.65 142.578 L3655.56 148.378 L3638.47 149.297 L3621.38 148.832 L3604.29 150.766 L3587.2 157.655 L3570.11 165.544 L3553.02 176.803 L3535.92 197.97 L3518.83 215.235 L3501.74 217.306 L3484.65 209.612 L3467.56 189.335 L3450.47 164.716 L3433.38 138.467 L3416.29 115.276 L3399.2 98.1723 L3382.11 97.6289 L3365.02 103.228 L3347.93 107.337 L3330.84 109.481 L3313.75 113.894 L3296.66 122.464 L3279.57 134.404 L3262.48 142.619 L3245.39 148.673 L3228.3 148.844 L3211.21 148.873 L3194.12 150.799 L3177.03 157.588 L3159.94 165.234 L3142.85 177.008 L3125.76 198.003 L3108.67 215.178 L3091.58 217.32 L3074.49 209.428 L3057.4 189.102 L3040.31 164.288 L3023.22 138.462 L3006.12 114.701 L2989.03 97.9347 L2971.94 97.5318 L2954.85 103.121 L2937.76 107.48 L2920.67 109.529 L2903.58 114.569 L2886.49 122.523 L2869.4 134.295 L2852.31 142.531 L2835.22 148.228 L2818.13 148.799 L2801.04 148.835 L2783.95 150.966 L2766.86 157.649 L2749.77 165.164 L2732.68 176.342 L2715.59 197.608 L2698.5 215 L2681.41 217.041 L2664.32 209.094 L2647.23 188.933 L2630.14 164.34 L2613.05 138.691 L2595.96 115.008 L2578.87 97.8144 L2561.78 97.6324 L2544.69 102.84 L2527.6 107.379 L2510.51 109.676 L2493.42 114.401 L2476.32 122.325 L2459.23 134.352 L2442.14 142.818 L2425.05 148.014 L2407.96 148.993 L2390.87 148.867 L2373.78 151.149 L2356.69 157.763 L2339.6 165.082 L2322.51 176.73 L2305.42 198.224 L2288.33 215.335 L2271.24 217.434 L2254.15 209.192 L2237.06 189.068 L2219.97 164.225 L2202.88 139.148 L2185.79 115 L2168.7 98.165 L2151.61 97.7004 L2134.52 102.993 L2117.43 107.855 L2100.34 109.743 L2083.25 114.613 L2066.16 122.893 L2049.07 134.689 L2031.98 142.775 L2014.89 148.362 L1997.8 149.11 L1980.71 148.907 L1963.61 151.462 L1946.52 158.128 L1929.43 166.066 L1912.34 177.606 L1895.25 198.784 L1878.16 215.766 L1861.07 217.781 L1843.98 209.534 L1826.89 189.372 L1809.8 165.159 L1792.71 138.908 L1775.62 115.199 L1758.53 98.0006 L1741.44 97.7265 L1724.35 104.013 L1707.26 108.062 L1690.17 110.332 L1673.08 115.123 L1655.99 123.31 L1638.9 134.999 L1621.81 142.846 L1604.72 148.189 L1587.63 148.612 L1570.54 149.513 L1553.45 152.219 L1536.36 158.771 L1519.27 166.457 L1502.18 177.931 L1485.09 199.248 L1468 216.609 L1450.91 218.318 L1433.81 210.482 L1416.72 189.741 L1399.63 165.686 L1382.54 138.964 L1365.45 115.545 L1348.36 98.2218 L1331.27 97.7707 L1314.18 104.533 L1297.09 108.831 L1280 111.129 L1262.91 115.721 L1245.82 123.652 L1228.73 135.545 L1211.64 143.069 L1194.55 147.906 L1177.46 148.794 L1160.37 149.196 L1143.28 152.072 L1126.19 159.178 L1109.1 167.437 L1092.01 179.495 L1074.92 201.278 L1057.83 217.946 L1040.74 219.778 L1023.65 211.482 L1006.56 190.836 L989.466 165.949 L972.376 139.514 L955.286 115.668 L938.195 98.5126 L921.105 97.8116 L904.015 103.458 L886.925 109.066 L869.834 111.38 L852.744 115.91 L835.654 124.75 L818.563 135.828 L801.473 142.935 L784.383 147.895 L767.292 148.295 L750.202 150.198 L733.112 154.95 L716.021 166.031 L698.931 179.607 L681.841 198.027 L664.75 226.766 L647.66 248.737 L630.57 254.264 L613.479 249.516 L596.389 231.314 L579.299 210.709 L562.208 189.982 L545.118 172.36 L528.028 162.775  Z" fill="#757575" fill-rule="evenodd" fill-opacity="0.5"/>
<polyline clip-path="url(#clip132)" style="stroke:#757575; stroke-linecap:round; stroke-linejoin:round; stroke-width:0; stroke-opacity:1; fill:none" points="528.028,204.972 545.118,212.511 562.208,222.211 579.299,233.099 596.389,243.564 613.479,252.599 630.57,255.792 647.66,254.171 664.75,244.203 681.841,230.906 698.931,222.636 716.021,216.917 733.112,212.701 750.202,210.469 767.292,208.827 784.383,206.948 801.473,202.995 818.563,198.356 835.654,192.934 852.744,190.083 869.834,189.536 886.925,191.025 904.015,191.407 921.105,191.43 938.195,193.668 955.286,202.79 972.376,213.856 989.466,225.833 1006.56,237.191 1023.65,246.898 1040.74,250.71 1057.83,249.669 1074.92,240.697 1092.01,228.63 1109.1,221.465 1126.19,216.582 1143.28,212.869 1160.37,210.884 1177.46,209.368 1194.55,207.494 1211.64,203.441 1228.73,198.71 1245.82,193.227 1262.91,190.401 1280,189.885 1297.09,191.406 1314.18,191.795 1331.27,191.814 1348.36,194.057 1365.45,203.166 1382.54,214.213 1399.63,226.187 1416.72,237.547 1433.81,247.252 1450.91,251.068 1468,250.015 1485.09,240.942 1502.18,228.781 1519.27,221.573 1536.36,216.678 1553.45,212.97 1570.54,210.992 1587.63,209.453 1604.72,207.544 1621.81,203.456 1638.9,198.708 1655.99,193.248 1673.08,190.446 1690.17,189.949 1707.26,191.492 1724.35,191.908 1741.44,191.936 1758.53,194.183 1775.62,203.306 1792.71,214.353 1809.8,226.312 1826.89,237.684 1843.98,247.384 1861.07,251.224 1878.16,250.165 1895.25,241.1 1912.34,228.96 1929.43,221.684 1946.52,216.733 1963.61,212.996 1980.71,211.008 1997.8,209.49 2014.89,207.58 2031.98,203.481 2049.07,198.742 2066.16,193.273 2083.25,190.486 2100.34,190.012 2117.43,191.575 2134.52,192.001 2151.61,192.038 2168.7,194.259 2185.79,203.371 2202.88,214.424 2219.97,226.39 2237.06,237.761 2254.15,247.483 2271.24,251.335 2288.33,250.284 2305.42,241.178 2322.51,228.954 2339.6,221.689 2356.69,216.777 2373.78,213.063 2390.87,211.081 2407.96,209.553 2425.05,207.631 2442.14,203.528 2459.23,198.788 2476.32,193.323 2493.42,190.562 2510.51,190.113 2527.6,191.687 2544.69,192.119 2561.78,192.158 2578.87,194.381 2595.96,203.492 2613.05,214.541 2630.14,226.511 2647.23,237.883 2664.32,247.595 2681.41,251.457 2698.5,250.434 2715.59,241.339 2732.68,229.091 2749.77,221.812 2766.86,216.88 2783.95,213.167 2801.04,211.179 2818.13,209.657 2835.22,207.736 2852.31,203.631 2869.4,198.872 2886.49,193.394 2903.58,190.647 2920.67,190.209 2937.76,191.8 2954.85,192.238 2971.94,192.278 2989.03,194.509 3006.12,203.617 3023.22,214.662 3040.31,226.616 3057.4,237.99 3074.49,247.721 3091.58,251.58 3108.67,250.528 3125.76,241.44 3142.85,229.247 3159.94,221.95 3177.03,217.001 3194.12,213.274 3211.21,211.282 3228.3,209.739 3245.39,207.836 3262.48,203.721 3279.57,198.963 3296.66,193.495 3313.75,190.743 3330.84,190.33 3347.93,191.938 3365.02,192.383 3382.11,192.423 3399.2,194.659 3416.29,203.768 3433.38,214.807 3450.47,226.767 3467.56,238.136 3484.65,247.868 3501.74,251.75 3518.83,250.705 3535.92,241.569 3553.02,229.336 3570.11,222.044 3587.2,217.114 3604.29,213.408 3621.38,211.412 3638.47,209.871 3655.56,207.957 3672.65,203.832 3689.74,199.093 3706.83,193.63 3723.92,190.889 3741.01,190.471 3758.1,192.088 3775.19,192.542 3792.28,192.582 3809.37,194.795 3826.46,203.911 3843.55,214.95 3860.64,226.91 3877.73,238.282 3894.82,248.021 3911.91,251.889 3929,250.862 3946.09,241.776 3963.18,229.56 3980.27,222.288 3997.36,217.333 4014.45,213.581 4031.54,211.58 4048.63,210.028 4065.72,208.084 4082.82,203.975 4099.91,199.209 4117,193.764 4134.09,191.035 4151.18,190.64 4168.27,192.262 4185.36,192.72 4202.45,192.759 4219.54,194.976 4236.63,204.077 4253.72,215.109 4270.81,227.073 4287.9,238.437 4304.99,248.175 4322.08,252.055 4339.17,251.05 4356.26,241.95 4373.35,229.783 4390.44,222.478 4407.53,217.514 4424.62,213.766 4441.71,211.754 4458.8,210.194 4475.89,208.266 4492.98,204.126 4510.07,199.358 4527.16,193.892 4544.25,191.182 4561.34,190.781 4578.43,192.41 4595.52,192.883 4612.62,192.946 4629.71,195.038 "/>
<path clip-path="url(#clip132)" d="M528.028 243.296 L545.118 261.183 L562.208 284.326 L579.299 308.474 L596.389 330.791 L613.479 351.427 L630.57 361.123 L647.66 362.892 L664.75 347.397 L681.841 323.772 L698.931 309.611 L716.021 300.726 L733.112 291.206 L750.202 285.97 L767.292 280.383 L784.383 275.238 L801.473 266.734 L818.563 257.412 L835.654 248.822 L852.744 244.171 L869.834 245.752 L886.925 251.577 L904.015 255.771 L921.105 260.512 L938.195 268.771 L955.286 285.972 L972.376 307.582 L989.466 330.016 L1006.56 350.419 L1023.65 369.25 L1040.74 378.434 L1057.83 378.985 L1074.92 363.358 L1092.01 334.304 L1109.1 316.212 L1126.19 304.155 L1143.28 295.808 L1160.37 291.588 L1177.46 286.274 L1194.55 282.396 L1211.64 271.88 L1228.73 260.336 L1245.82 250.425 L1262.91 246.285 L1280 247.172 L1297.09 255.023 L1314.18 259.116 L1331.27 261.536 L1348.36 267.7 L1365.45 286.72 L1382.54 306.775 L1399.63 329.13 L1416.72 351.279 L1433.81 372.728 L1450.91 383.169 L1468 382.775 L1485.09 366.22 L1502.18 338.375 L1519.27 319.636 L1536.36 305.508 L1553.45 294.892 L1570.54 290.916 L1587.63 288.769 L1604.72 281.956 L1621.81 272.126 L1638.9 261.875 L1655.99 251.751 L1673.08 247.879 L1690.17 248.749 L1707.26 253.517 L1724.35 258.637 L1741.44 262.16 L1758.53 268.147 L1775.62 285.949 L1792.71 306.757 L1809.8 329.884 L1826.89 352.927 L1843.98 374.376 L1861.07 382.45 L1878.16 380.694 L1895.25 362.927 L1912.34 338.946 L1929.43 320.726 L1946.52 305.721 L1963.61 296.045 L1980.71 289.658 L1997.8 286.356 L2014.89 280.987 L2031.98 270.915 L2049.07 260.169 L2066.16 252.771 L2083.25 246.605 L2100.34 249.284 L2117.43 252.25 L2134.52 256.97 L2151.61 260.15 L2168.7 267.917 L2185.79 285.056 L2202.88 305.12 L2219.97 330.391 L2237.06 353.349 L2254.15 373.641 L2271.24 384.873 L2288.33 380.422 L2305.42 362.932 L2322.51 339.015 L2339.6 321.607 L2356.69 306.787 L2373.78 296.304 L2390.87 289.633 L2407.96 285.032 L2425.05 279.343 L2442.14 269.494 L2459.23 261.925 L2476.32 251.62 L2493.42 246.346 L2510.51 248.139 L2527.6 252.251 L2544.69 256.516 L2561.78 260.314 L2578.87 267.388 L2595.96 284.713 L2613.05 305.335 L2630.14 329.965 L2647.23 354.015 L2664.32 373.795 L2681.41 383.923 L2698.5 379.696 L2715.59 362.073 L2732.68 339.259 L2749.77 321.286 L2766.86 307.039 L2783.95 296.415 L2801.04 289.825 L2818.13 284.761 L2835.22 279.94 L2852.31 269.049 L2869.4 261.607 L2886.49 251.656 L2903.58 246.57 L2920.67 247.679 L2937.76 252.661 L2954.85 256.721 L2971.94 259.989 L2989.03 266.673 L3006.12 283.678 L3023.22 307.9 L3040.31 330.257 L3057.4 354.202 L3074.49 374.284 L3091.58 383.107 L3108.67 380.061 L3125.76 361.77 L3142.85 338.097 L3159.94 320.979 L3177.03 307.73 L3194.12 296.164 L3211.21 289.294 L3228.3 284.367 L3245.39 279.552 L3262.48 269.79 L3279.57 261.251 L3296.66 250.682 L3313.75 246.643 L3330.84 247.793 L3347.93 253.225 L3365.02 256.879 L3382.11 260.179 L3399.2 266.331 L3416.29 284.183 L3433.38 307.775 L3450.47 329.978 L3467.56 354.039 L3484.65 374.885 L3501.74 382.766 L3518.83 380.905 L3535.92 361.934 L3553.02 338.55 L3570.11 320.731 L3587.2 307.988 L3604.29 296.169 L3621.38 290.042 L3638.47 284.543 L3655.56 279.006 L3672.65 269.737 L3689.74 261.012 L3706.83 251.317 L3723.92 246.162 L3741.01 248.033 L3758.1 254.227 L3775.19 257.12 L3792.28 260.735 L3809.37 266.134 L3826.46 284.115 L3843.55 308.691 L3860.64 330.327 L3877.73 354.365 L3894.82 374.991 L3911.91 383.129 L3929 380.979 L3946.09 363.036 L3963.18 338.005 L3980.27 320.812 L3997.36 308.496 L4014.45 296.953 L4031.54 291.053 L4048.63 284.875 L4065.72 279.12 L4082.82 270.151 L4099.91 260.917 L4117 251.107 L4134.09 246.204 L4151.18 247.987 L4168.27 253.996 L4185.36 257.636 L4202.45 260.687 L4219.54 266.362 L4236.63 284.814 L4253.72 309.158 L4270.81 330.975 L4287.9 354.758 L4304.99 375.381 L4322.08 383.323 L4339.17 381.904 L4356.26 363.589 L4373.35 338.31 L4390.44 320.738 L4407.53 307.393 L4424.62 297.915 L4441.71 291.263 L4458.8 284.791 L4475.89 279.03 L4492.98 270.263 L4510.07 261.155 L4527.16 251.041 L4544.25 246.809 L4561.34 248.456 L4578.43 254.333 L4595.52 258.533 L4612.62 261.468 L4629.71 265.893 L4629.71 109.781 L4612.62 108.38 L4595.52 113.06 L4578.43 116.827 L4561.34 117.757 L4544.25 122.17 L4527.16 129.714 L4510.07 141.375 L4492.98 149.54 L4475.89 155.913 L4458.8 157.867 L4441.71 159.144 L4424.62 161.484 L4407.53 166.915 L4390.44 174.186 L4373.35 186.836 L4356.26 208.49 L4339.17 225.64 L4322.08 227.877 L4304.99 219.898 L4287.9 200.263 L4270.81 175.452 L4253.72 150.408 L4236.63 126.903 L4219.54 109.639 L4202.45 108.292 L4185.36 112.644 L4168.27 116.714 L4151.18 117.606 L4134.09 122.24 L4117 130.017 L4099.91 141.339 L4082.82 149.692 L4065.72 155.849 L4048.63 157.714 L4031.54 158.878 L4014.45 161.111 L3997.36 166.872 L3980.27 173.971 L3963.18 186.274 L3946.09 208.281 L3929 225.491 L3911.91 227.873 L3894.82 219.582 L3877.73 199.761 L3860.64 175.105 L3843.55 149.425 L3826.46 126.72 L3809.37 109.617 L3792.28 108.239 L3775.19 113.006 L3758.1 116.254 L3741.01 117.783 L3723.92 122.661 L3706.83 130.059 L3689.74 141.734 L3672.65 149.335 L3655.56 155.798 L3638.47 157.345 L3621.38 158.975 L3604.29 161.127 L3587.2 166.763 L3570.11 173.816 L3553.02 186.384 L3535.92 208.26 L3518.83 225.505 L3501.74 227.79 L3484.65 219.662 L3467.56 199.76 L3450.47 174.483 L3433.38 149.625 L3416.29 126.367 L3399.2 108.788 L3382.11 107.574 L3365.02 112.88 L3347.93 116.575 L3330.84 117.254 L3313.75 122.008 L3296.66 129.478 L3279.57 141.654 L3262.48 149.299 L3245.39 155.544 L3228.3 157.553 L3211.21 158.706 L3194.12 160.897 L3177.03 166.522 L3159.94 174.1 L3142.85 186.591 L3125.76 208.463 L3108.67 225.28 L3091.58 227.912 L3074.49 219.323 L3057.4 199.386 L3040.31 174.671 L3023.22 149.606 L3006.12 126.13 L2989.03 108.934 L2971.94 107.998 L2954.85 112.215 L2937.76 116.127 L2920.67 117.307 L2903.58 121.602 L2886.49 129.34 L2869.4 141.527 L2852.31 149.225 L2835.22 155.718 L2818.13 157.532 L2801.04 158.697 L2783.95 160.684 L2766.86 166.355 L2749.77 173.882 L2732.68 186.872 L2715.59 208.295 L2698.5 225.434 L2681.41 227.877 L2664.32 219.4 L2647.23 199.532 L2630.14 174.802 L2613.05 149.238 L2595.96 126.028 L2578.87 108.911 L2561.78 107.764 L2544.69 112.545 L2527.6 116.305 L2510.51 117.356 L2493.42 121.851 L2476.32 129.575 L2459.23 141.511 L2442.14 149.359 L2425.05 155.775 L2407.96 157.855 L2390.87 158.762 L2373.78 160.953 L2356.69 166.805 L2339.6 174.58 L2322.51 186.666 L2305.42 208.405 L2288.33 225.112 L2271.24 227.804 L2254.15 219.562 L2237.06 199.046 L2219.97 174.63 L2202.88 149.2 L2185.79 126.153 L2168.7 109.241 L2151.61 107.442 L2134.52 112.323 L2117.43 116.582 L2100.34 117.463 L2083.25 121.868 L2066.16 130.04 L2049.07 141.683 L2031.98 149.32 L2014.89 156.229 L1997.8 157.544 L1980.71 159.015 L1963.61 161.093 L1946.52 166.519 L1929.43 174.007 L1912.34 186.407 L1895.25 208.697 L1878.16 225.767 L1861.07 227.959 L1843.98 219.541 L1826.89 199.363 L1809.8 174.528 L1792.71 149.155 L1775.62 126.05 L1758.53 109.008 L1741.44 107.488 L1724.35 112.454 L1707.26 116.301 L1690.17 117.692 L1673.08 121.798 L1655.99 130.367 L1638.9 141.345 L1621.81 150.034 L1604.72 156.284 L1587.63 157.76 L1570.54 158.617 L1553.45 161.376 L1536.36 167.293 L1519.27 174.86 L1502.18 187.18 L1485.09 209.492 L1468 226.068 L1450.91 228.503 L1433.81 220.531 L1416.72 199.819 L1399.63 175.028 L1382.54 149.423 L1365.45 126.45 L1348.36 109.365 L1331.27 107.49 L1314.18 112.923 L1297.09 117.172 L1280 117.735 L1262.91 122.237 L1245.82 130.494 L1228.73 141.395 L1211.64 150.545 L1194.55 156.123 L1177.46 157.783 L1160.37 158.786 L1143.28 162.115 L1126.19 167.935 L1109.1 175.706 L1092.01 187.896 L1074.92 209 L1057.83 226.559 L1040.74 228.768 L1023.65 220.994 L1006.56 199.961 L989.466 175.175 L972.376 149.197 L955.286 125.833 L938.195 108.99 L921.105 107.48 L904.015 112.117 L886.925 116.839 L869.834 117.656 L852.744 122.508 L835.654 130.888 L818.563 141.888 L801.473 150.544 L784.383 156.865 L767.292 158.334 L750.202 159.984 L733.112 164.449 L716.021 173.934 L698.931 186.648 L681.841 204.579 L664.75 232.68 L647.66 254.877 L630.57 260.083 L613.479 255.373 L596.389 238.549 L579.299 218.238 L562.208 196.744 L545.118 180.114 L528.028 169.075  Z" fill="#414141" fill-rule="evenodd" fill-opacity="0.5"/>
<polyline clip-path="url(#clip132)" style="stroke:#414141; stroke-linecap:round; stroke-linejoin:round; stroke-width:0; stroke-opacity:1; fill:none" points="528.028,204.972 545.118,212.511 562.208,222.211 579.299,233.099 596.389,243.564 613.479,252.599 630.57,255.792 647.66,254.171 664.75,244.203 681.841,230.906 698.931,222.636 716.021,216.917 733.112,212.701 750.202,210.469 767.292,208.827 784.383,206.948 801.473,202.995 818.563,198.356 835.654,192.934 852.744,190.083 869.834,189.536 886.925,191.025 904.015,191.407 921.105,191.43 938.195,193.668 955.286,202.79 972.376,213.856 989.466,225.833 1006.56,237.191 1023.65,246.898 1040.74,250.71 1057.83,249.669 1074.92,240.697 1092.01,228.63 1109.1,221.465 1126.19,216.582 1143.28,212.869 1160.37,210.884 1177.46,209.368 1194.55,207.494 1211.64,203.441 1228.73,198.71 1245.82,193.227 1262.91,190.401 1280,189.885 1297.09,191.406 1314.18,191.795 1331.27,191.814 1348.36,194.057 1365.45,203.166 1382.54,214.213 1399.63,226.187 1416.72,237.547 1433.81,247.252 1450.91,251.068 1468,250.015 1485.09,240.942 1502.18,228.781 1519.27,221.573 1536.36,216.678 1553.45,212.97 1570.54,210.992 1587.63,209.453 1604.72,207.544 1621.81,203.456 1638.9,198.708 1655.99,193.248 1673.08,190.446 1690.17,189.949 1707.26,191.492 1724.35,191.908 1741.44,191.936 1758.53,194.183 1775.62,203.306 1792.71,214.353 1809.8,226.312 1826.89,237.684 1843.98,247.384 1861.07,251.224 1878.16,250.165 1895.25,241.1 1912.34,228.96 1929.43,221.684 1946.52,216.733 1963.61,212.996 1980.71,211.008 1997.8,209.49 2014.89,207.58 2031.98,203.481 2049.07,198.742 2066.16,193.273 2083.25,190.486 2100.34,190.012 2117.43,191.575 2134.52,192.001 2151.61,192.038 2168.7,194.259 2185.79,203.371 2202.88,214.424 2219.97,226.39 2237.06,237.761 2254.15,247.483 2271.24,251.335 2288.33,250.284 2305.42,241.178 2322.51,228.954 2339.6,221.689 2356.69,216.777 2373.78,213.063 2390.87,211.081 2407.96,209.553 2425.05,207.631 2442.14,203.528 2459.23,198.788 2476.32,193.323 2493.42,190.562 2510.51,190.113 2527.6,191.687 2544.69,192.119 2561.78,192.158 2578.87,194.381 2595.96,203.492 2613.05,214.541 2630.14,226.511 2647.23,237.883 2664.32,247.595 2681.41,251.457 2698.5,250.434 2715.59,241.339 2732.68,229.091 2749.77,221.812 2766.86,216.88 2783.95,213.167 2801.04,211.179 2818.13,209.657 2835.22,207.736 2852.31,203.631 2869.4,198.872 2886.49,193.394 2903.58,190.647 2920.67,190.209 2937.76,191.8 2954.85,192.238 2971.94,192.278 2989.03,194.509 3006.12,203.617 3023.22,214.662 3040.31,226.616 3057.4,237.99 3074.49,247.721 3091.58,251.58 3108.67,250.528 3125.76,241.44 3142.85,229.247 3159.94,221.95 3177.03,217.001 3194.12,213.274 3211.21,211.282 3228.3,209.739 3245.39,207.836 3262.48,203.721 3279.57,198.963 3296.66,193.495 3313.75,190.743 3330.84,190.33 3347.93,191.938 3365.02,192.383 3382.11,192.423 3399.2,194.659 3416.29,203.768 3433.38,214.807 3450.47,226.767 3467.56,238.136 3484.65,247.868 3501.74,251.75 3518.83,250.705 3535.92,241.569 3553.02,229.336 3570.11,222.044 3587.2,217.114 3604.29,213.408 3621.38,211.412 3638.47,209.871 3655.56,207.957 3672.65,203.832 3689.74,199.093 3706.83,193.63 3723.92,190.889 3741.01,190.471 3758.1,192.088 3775.19,192.542 3792.28,192.582 3809.37,194.795 3826.46,203.911 3843.55,214.95 3860.64,226.91 3877.73,238.282 3894.82,248.021 3911.91,251.889 3929,250.862 3946.09,241.776 3963.18,229.56 3980.27,222.288 3997.36,217.333 4014.45,213.581 4031.54,211.58 4048.63,210.028 4065.72,208.084 4082.82,203.975 4099.91,199.209 4117,193.764 4134.09,191.035 4151.18,190.64 4168.27,192.262 4185.36,192.72 4202.45,192.759 4219.54,194.976 4236.63,204.077 4253.72,215.109 4270.81,227.073 4287.9,238.437 4304.99,248.175 4322.08,252.055 4339.17,251.05 4356.26,241.95 4373.35,229.783 4390.44,222.478 4407.53,217.514 4424.62,213.766 4441.71,211.754 4458.8,210.194 4475.89,208.266 4492.98,204.126 4510.07,199.358 4527.16,193.892 4544.25,191.182 4561.34,190.781 4578.43,192.41 4595.52,192.883 4612.62,192.946 4629.71,195.038 "/>
<path clip-path="url(#clip130)" d="M3853.78 853.161 L4607.83 853.161 L4607.83 334.761 L3853.78 334.761  Z" fill="#ffffff" fill-rule="evenodd" fill-opacity="1"/>
<polyline clip-path="url(#clip130)" style="stroke:#000000; stroke-linecap:round; stroke-linejoin:round; stroke-width:4; stroke-opacity:1; fill:none" points="3853.78,853.161 4607.83,853.161 4607.83,334.761 3853.78,334.761 3853.78,853.161 "/>
<polyline clip-path="url(#clip130)" style="stroke:#aeaeae; stroke-linecap:round; stroke-linejoin:round; stroke-width:2; stroke-opacity:1; fill:none" points="3902.09,464.361 4191.94,464.361 "/>
<path clip-path="url(#clip130)" d="M4241.93 497.723 L4261.03 497.723 L4261.03 431.809 L4240.25 435.976 L4240.25 425.328 L4260.91 421.161 L4272.6 421.161 L4272.6 497.723 L4291.7 497.723 L4291.7 507.561 L4241.93 507.561 L4241.93 497.723 Z" fill="#000000" fill-rule="nonzero" fill-opacity="1" /><path clip-path="url(#clip130)" d="M4340.31 428.858 Q4331.28 428.858 4326.71 437.77 Q4322.2 446.624 4322.2 464.448 Q4322.2 482.214 4326.71 491.126 Q4331.28 499.98 4340.31 499.98 Q4349.4 499.98 4353.91 491.126 Q4358.48 482.214 4358.48 464.448 Q4358.48 446.624 4353.91 437.77 Q4349.4 428.858 4340.31 428.858 M4340.31 419.599 Q4354.83 419.599 4362.47 431.115 Q4370.17 442.573 4370.17 464.448 Q4370.17 486.265 4362.47 497.781 Q4354.83 509.239 4340.31 509.239 Q4325.78 509.239 4318.09 497.781 Q4310.45 486.265 4310.45 464.448 Q4310.45 442.573 4318.09 431.115 Q4325.78 419.599 4340.31 419.599 Z" fill="#000000" fill-rule="nonzero" fill-opacity="1" /><path clip-path="url(#clip130)" d="M4415.71 428.858 Q4406.69 428.858 4402.11 437.77 Q4397.6 446.624 4397.6 464.448 Q4397.6 482.214 4402.11 491.126 Q4406.69 499.98 4415.71 499.98 Q4424.8 499.98 4429.31 491.126 Q4433.89 482.214 4433.89 464.448 Q4433.89 446.624 4429.31 437.77 Q4424.8 428.858 4415.71 428.858 M4415.71 419.599 Q4430.24 419.599 4437.88 431.115 Q4445.58 442.573 4445.58 464.448 Q4445.58 486.265 4437.88 497.781 Q4430.24 509.239 4415.71 509.239 Q4401.19 509.239 4393.49 497.781 Q4385.85 486.265 4385.85 464.448 Q4385.85 442.573 4393.49 431.115 Q4401.19 419.599 4415.71 419.599 Z" fill="#000000" fill-rule="nonzero" fill-opacity="1" /><path clip-path="url(#clip130)" d="M4539.61 469.541 Q4534.58 469.541 4531.69 473.823 Q4528.85 478.105 4528.85 485.744 Q4528.85 493.267 4531.69 497.608 Q4534.58 501.89 4539.61 501.89 Q4544.53 501.89 4547.37 497.608 Q4550.26 493.267 4550.26 485.744 Q4550.26 478.163 4547.37 473.881 Q4544.53 469.541 4539.61 469.541 M4539.61 462.191 Q4548.76 462.191 4554.14 468.557 Q4559.52 474.923 4559.52 485.744 Q4559.52 496.566 4554.08 502.932 Q4548.7 509.239 4539.61 509.239 Q4530.35 509.239 4524.97 502.932 Q4519.59 496.566 4519.59 485.744 Q4519.59 474.865 4524.97 468.557 Q4530.41 462.191 4539.61 462.191 M4479.89 426.948 Q4474.92 426.948 4472.02 431.289 Q4469.19 435.571 4469.19 443.094 Q4469.19 450.733 4472.02 455.015 Q4474.86 459.298 4479.89 459.298 Q4484.93 459.298 4487.76 455.015 Q4490.66 450.733 4490.66 443.094 Q4490.66 435.629 4487.76 431.289 Q4484.87 426.948 4479.89 426.948 M4532.15 419.599 L4541.41 419.599 L4487.36 509.239 L4478.1 509.239 L4532.15 419.599 M4479.89 419.599 Q4489.04 419.599 4494.48 425.964 Q4499.92 432.272 4499.92 443.094 Q4499.92 454.031 4494.48 460.339 Q4489.09 466.647 4479.89 466.647 Q4470.69 466.647 4465.31 460.339 Q4459.98 453.974 4459.98 443.094 Q4459.98 432.33 4465.37 425.964 Q4470.75 419.599 4479.89 419.599 Z" fill="#000000" fill-rule="nonzero" fill-opacity="1" /><polyline clip-path="url(#clip130)" style="stroke:#757575; stroke-linecap:round; stroke-linejoin:round; stroke-width:2; stroke-opacity:1; fill:none" points="3902.09,593.961 4191.94,593.961 "/>
<path clip-path="url(#clip130)" d="M4245.81 635.367 L4245.81 624.719 Q4250.21 626.803 4254.72 627.902 Q4259.23 629.002 4263.57 629.002 Q4275.15 629.002 4281.22 621.247 Q4287.36 613.435 4288.23 597.578 Q4284.87 602.555 4279.72 605.217 Q4274.57 607.879 4268.32 607.879 Q4255.36 607.879 4247.78 600.067 Q4240.25 592.196 4240.25 578.597 Q4240.25 565.287 4248.12 557.243 Q4255.99 549.199 4269.07 549.199 Q4284.06 549.199 4291.93 560.715 Q4299.86 572.173 4299.86 594.048 Q4299.86 614.476 4290.14 626.687 Q4280.47 638.839 4264.09 638.839 Q4259.7 638.839 4255.18 637.971 Q4250.67 637.103 4245.81 635.367 M4269.07 598.736 Q4276.94 598.736 4281.51 593.354 Q4286.14 587.972 4286.14 578.597 Q4286.14 569.28 4281.51 563.898 Q4276.94 558.458 4269.07 558.458 Q4261.2 558.458 4256.57 563.898 Q4252 569.28 4252 578.597 Q4252 587.972 4256.57 593.354 Q4261.2 598.736 4269.07 598.736 Z" fill="#000000" fill-rule="nonzero" fill-opacity="1" /><path clip-path="url(#clip130)" d="M4345.87 558.458 Q4336.84 558.458 4332.27 567.37 Q4327.75 576.224 4327.75 594.048 Q4327.75 611.814 4332.27 620.726 Q4336.84 629.58 4345.87 629.58 Q4354.95 629.58 4359.46 620.726 Q4364.04 611.814 4364.04 594.048 Q4364.04 576.224 4359.46 567.37 Q4354.95 558.458 4345.87 558.458 M4345.87 549.199 Q4360.39 549.199 4368.03 560.715 Q4375.73 572.173 4375.73 594.048 Q4375.73 615.865 4368.03 627.381 Q4360.39 638.839 4345.87 638.839 Q4331.34 638.839 4323.64 627.381 Q4316 615.865 4316 594.048 Q4316 572.173 4323.64 560.715 Q4331.34 549.199 4345.87 549.199 Z" fill="#000000" fill-rule="nonzero" fill-opacity="1" /><path clip-path="url(#clip130)" d="M4469.76 599.141 Q4464.73 599.141 4461.84 603.423 Q4459 607.705 4459 615.344 Q4459 622.867 4461.84 627.208 Q4464.73 631.49 4469.76 631.49 Q4474.68 631.49 4477.52 627.208 Q4480.41 622.867 4480.41 615.344 Q4480.41 607.763 4477.52 603.481 Q4474.68 599.141 4469.76 599.141 M4469.76 591.791 Q4478.91 591.791 4484.29 598.157 Q4489.67 604.523 4489.67 615.344 Q4489.67 626.166 4484.23 632.532 Q4478.85 638.839 4469.76 638.839 Q4460.51 638.839 4455.12 632.532 Q4449.74 626.166 4449.74 615.344 Q4449.74 604.465 4455.12 598.157 Q4460.56 591.791 4469.76 591.791 M4410.04 556.548 Q4405.07 556.548 4402.17 560.889 Q4399.34 565.171 4399.34 572.694 Q4399.34 580.333 4402.17 584.615 Q4405.01 588.898 4410.04 588.898 Q4415.08 588.898 4417.91 584.615 Q4420.81 580.333 4420.81 572.694 Q4420.81 565.229 4417.91 560.889 Q4415.02 556.548 4410.04 556.548 M4462.3 549.199 L4471.56 549.199 L4417.51 638.839 L4408.25 638.839 L4462.3 549.199 M4410.04 549.199 Q4419.19 549.199 4424.63 555.564 Q4430.07 561.872 4430.07 572.694 Q4430.07 583.631 4424.63 589.939 Q4419.24 596.247 4410.04 596.247 Q4400.84 596.247 4395.46 589.939 Q4390.14 583.574 4390.14 572.694 Q4390.14 561.93 4395.52 555.564 Q4400.9 549.199 4410.04 549.199 Z" fill="#000000" fill-rule="nonzero" fill-opacity="1" /><polyline clip-path="url(#clip130)" style="stroke:#414141; stroke-linecap:round; stroke-linejoin:round; stroke-width:2; stroke-opacity:1; fill:none" points="3902.09,723.561 4191.94,723.561 "/>
<path clip-path="url(#clip130)" d="M4269.88 725.731 Q4261.55 725.731 4256.75 730.187 Q4252 734.643 4252 742.456 Q4252 750.268 4256.75 754.724 Q4261.55 759.18 4269.88 759.18 Q4278.21 759.18 4283.02 754.724 Q4287.82 750.21 4287.82 742.456 Q4287.82 734.643 4283.02 730.187 Q4278.27 725.731 4269.88 725.731 M4258.19 720.755 Q4250.67 718.903 4246.44 713.752 Q4242.28 708.602 4242.28 701.194 Q4242.28 690.836 4249.63 684.817 Q4257.03 678.799 4269.88 678.799 Q4282.79 678.799 4290.14 684.817 Q4297.49 690.836 4297.49 701.194 Q4297.49 708.602 4293.26 713.752 Q4289.09 718.903 4281.63 720.755 Q4290.08 722.722 4294.77 728.451 Q4299.51 734.18 4299.51 742.456 Q4299.51 755.014 4291.81 761.727 Q4284.18 768.439 4269.88 768.439 Q4255.59 768.439 4247.89 761.727 Q4240.25 755.014 4240.25 742.456 Q4240.25 734.18 4245 728.451 Q4249.74 722.722 4258.19 720.755 M4253.91 702.294 Q4253.91 709.007 4258.08 712.768 Q4262.3 716.53 4269.88 716.53 Q4277.4 716.53 4281.63 712.768 Q4285.91 709.007 4285.91 702.294 Q4285.91 695.581 4281.63 691.82 Q4277.4 688.058 4269.88 688.058 Q4262.3 688.058 4258.08 691.82 Q4253.91 695.581 4253.91 702.294 Z" fill="#000000" fill-rule="nonzero" fill-opacity="1" /><path clip-path="url(#clip130)" d="M4345.29 688.058 Q4336.26 688.058 4331.69 696.97 Q4327.17 705.824 4327.17 723.648 Q4327.17 741.414 4331.69 750.326 Q4336.26 759.18 4345.29 759.18 Q4354.37 759.18 4358.89 750.326 Q4363.46 741.414 4363.46 723.648 Q4363.46 705.824 4358.89 696.97 Q4354.37 688.058 4345.29 688.058 M4345.29 678.799 Q4359.81 678.799 4367.45 690.315 Q4375.15 701.773 4375.15 723.648 Q4375.15 745.465 4367.45 756.981 Q4359.81 768.439 4345.29 768.439 Q4330.76 768.439 4323.06 756.981 Q4315.43 745.465 4315.43 723.648 Q4315.43 701.773 4323.06 690.315 Q4330.76 678.799 4345.29 678.799 Z" fill="#000000" fill-rule="nonzero" fill-opacity="1" /><path clip-path="url(#clip130)" d="M4469.19 728.741 Q4464.15 728.741 4461.26 733.023 Q4458.42 737.305 4458.42 744.944 Q4458.42 752.467 4461.26 756.808 Q4464.15 761.09 4469.19 761.09 Q4474.11 761.09 4476.94 756.808 Q4479.83 752.467 4479.83 744.944 Q4479.83 737.363 4476.94 733.081 Q4474.11 728.741 4469.19 728.741 M4469.19 721.391 Q4478.33 721.391 4483.71 727.757 Q4489.09 734.123 4489.09 744.944 Q4489.09 755.766 4483.65 762.132 Q4478.27 768.439 4469.19 768.439 Q4459.93 768.439 4454.55 762.132 Q4449.16 755.766 4449.16 744.944 Q4449.16 734.065 4454.55 727.757 Q4459.98 721.391 4469.19 721.391 M4409.46 686.148 Q4404.49 686.148 4401.59 690.489 Q4398.76 694.771 4398.76 702.294 Q4398.76 709.933 4401.59 714.215 Q4404.43 718.498 4409.46 718.498 Q4414.5 718.498 4417.33 714.215 Q4420.23 709.933 4420.23 702.294 Q4420.23 694.829 4417.33 690.489 Q4414.44 686.148 4409.46 686.148 M4461.72 678.799 L4470.98 678.799 L4416.93 768.439 L4407.67 768.439 L4461.72 678.799 M4409.46 678.799 Q4418.61 678.799 4424.05 685.164 Q4429.49 691.472 4429.49 702.294 Q4429.49 713.231 4424.05 719.539 Q4418.67 725.847 4409.46 725.847 Q4400.26 725.847 4394.88 719.539 Q4389.56 713.174 4389.56 702.294 Q4389.56 691.53 4394.94 685.164 Q4400.32 678.799 4409.46 678.799 Z" fill="#000000" fill-rule="nonzero" fill-opacity="1" /></svg>
