<?xml version="1.0" encoding="utf-8"?>
<svg xmlns="http://www.w3.org/2000/svg" xmlns:xlink="http://www.w3.org/1999/xlink" width="1200" height="300" viewBox="0 0 4800 1200">
<defs>
  <clipPath id="clip390">
    <rect x="0" y="0" width="4800" height="1200"/>
  </clipPath>
</defs>
<path clip-path="url(#clip390)" d="M0 1200 L4800 1200 L4800 0 L0 0  Z" fill="#ffffff" fill-rule="evenodd" fill-opacity="1"/>
<defs>
  <clipPath id="clip391">
    <rect x="960" y="0" width="3361" height="1200"/>
  </clipPath>
</defs>
<path clip-path="url(#clip390)" d="M404.977 880.951 L4752.76 880.951 L4752.76 47.2441 L404.977 47.2441  Z" fill="#ffffff" fill-rule="evenodd" fill-opacity="1"/>
<defs>
  <clipPath id="clip392">
    <rect x="404" y="47" width="4349" height="835"/>
  </clipPath>
</defs>
<polyline clip-path="url(#clip392)" style="stroke:#000000; stroke-linecap:round; stroke-linejoin:round; stroke-width:2; stroke-opacity:0.1; fill:none" points="528.028,880.951 528.028,47.2441 "/>
<polyline clip-path="url(#clip392)" style="stroke:#000000; stroke-linecap:round; stroke-linejoin:round; stroke-width:2; stroke-opacity:0.1; fill:none" points="1348.36,880.951 1348.36,47.2441 "/>
<polyline clip-path="url(#clip392)" style="stroke:#000000; stroke-linecap:round; stroke-linejoin:round; stroke-width:2; stroke-opacity:0.1; fill:none" points="2168.7,880.951 2168.7,47.2441 "/>
<polyline clip-path="url(#clip392)" style="stroke:#000000; stroke-linecap:round; stroke-linejoin:round; stroke-width:2; stroke-opacity:0.1; fill:none" points="2989.03,880.951 2989.03,47.2441 "/>
<polyline clip-path="url(#clip392)" style="stroke:#000000; stroke-linecap:round; stroke-linejoin:round; stroke-width:2; stroke-opacity:0.1; fill:none" points="3809.37,880.951 3809.37,47.2441 "/>
<polyline clip-path="url(#clip392)" style="stroke:#000000; stroke-linecap:round; stroke-linejoin:round; stroke-width:2; stroke-opacity:0.1; fill:none" points="4629.71,880.951 4629.71,47.2441 "/>
<polyline clip-path="url(#clip392)" style="stroke:#000000; stroke-linecap:round; stroke-linejoin:round; stroke-width:2; stroke-opacity:0.1; fill:none" points="404.977,727.762 4752.76,727.762 "/>
<polyline clip-path="url(#clip392)" style="stroke:#000000; stroke-linecap:round; stroke-linejoin:round; stroke-width:2; stroke-opacity:0.1; fill:none" points="404.977,552.965 4752.76,552.965 "/>
<polyline clip-path="url(#clip392)" style="stroke:#000000; stroke-linecap:round; stroke-linejoin:round; stroke-width:2; stroke-opacity:0.1; fill:none" points="404.977,378.169 4752.76,378.169 "/>
<polyline clip-path="url(#clip392)" style="stroke:#000000; stroke-linecap:round; stroke-linejoin:round; stroke-width:2; stroke-opacity:0.1; fill:none" points="404.977,203.372 4752.76,203.372 "/>
<polyline clip-path="url(#clip390)" style="stroke:#000000; stroke-linecap:round; stroke-linejoin:round; stroke-width:4; stroke-opacity:1; fill:none" points="404.977,880.951 4752.76,880.951 "/>
<polyline clip-path="url(#clip390)" style="stroke:#000000; stroke-linecap:round; stroke-linejoin:round; stroke-width:4; stroke-opacity:1; fill:none" points="528.028,880.951 528.028,862.054 "/>
<polyline clip-path="url(#clip390)" style="stroke:#000000; stroke-linecap:round; stroke-linejoin:round; stroke-width:4; stroke-opacity:1; fill:none" points="1348.36,880.951 1348.36,862.054 "/>
<polyline clip-path="url(#clip390)" style="stroke:#000000; stroke-linecap:round; stroke-linejoin:round; stroke-width:4; stroke-opacity:1; fill:none" points="2168.7,880.951 2168.7,862.054 "/>
<polyline clip-path="url(#clip390)" style="stroke:#000000; stroke-linecap:round; stroke-linejoin:round; stroke-width:4; stroke-opacity:1; fill:none" points="2989.03,880.951 2989.03,862.054 "/>
<polyline clip-path="url(#clip390)" style="stroke:#000000; stroke-linecap:round; stroke-linejoin:round; stroke-width:4; stroke-opacity:1; fill:none" points="3809.37,880.951 3809.37,862.054 "/>
<polyline clip-path="url(#clip390)" style="stroke:#000000; stroke-linecap:round; stroke-linejoin:round; stroke-width:4; stroke-opacity:1; fill:none" points="4629.71,880.951 4629.71,862.054 "/>
<path clip-path="url(#clip390)" d="M528.028 942.789 Q520.806 942.789 517.148 949.918 Q513.537 957.002 513.537 971.261 Q513.537 985.474 517.148 992.603 Q520.806 999.687 528.028 999.687 Q535.296 999.687 538.907 992.603 Q542.565 985.474 542.565 971.261 Q542.565 957.002 538.907 949.918 Q535.296 942.789 528.028 942.789 M528.028 935.382 Q539.648 935.382 545.759 944.594 Q551.916 953.761 551.916 971.261 Q551.916 988.715 545.759 997.927 Q539.648 1007.09 528.028 1007.09 Q516.407 1007.09 510.25 997.927 Q504.139 988.715 504.139 971.261 Q504.139 953.761 510.25 944.594 Q516.407 935.382 528.028 935.382 Z" fill="#000000" fill-rule="nonzero" fill-opacity="1" /><path clip-path="url(#clip390)" d="M1337.67 997.881 L1370.31 997.881 L1370.31 1005.75 L1326.42 1005.75 L1326.42 997.881 Q1331.74 992.372 1340.91 983.113 Q1350.12 973.807 1352.48 971.122 Q1356.97 966.076 1358.73 962.604 Q1360.54 959.085 1360.54 955.705 Q1360.54 950.196 1356.65 946.724 Q1352.81 943.252 1346.6 943.252 Q1342.21 943.252 1337.3 944.78 Q1332.44 946.307 1326.88 949.409 L1326.88 939.965 Q1332.53 937.696 1337.44 936.539 Q1342.34 935.382 1346.42 935.382 Q1357.16 935.382 1363.55 940.752 Q1369.94 946.122 1369.94 955.104 Q1369.94 959.363 1368.32 963.205 Q1366.74 967.002 1362.53 972.187 Q1361.37 973.529 1355.17 979.965 Q1348.97 986.353 1337.67 997.881 Z" fill="#000000" fill-rule="nonzero" fill-opacity="1" /><path clip-path="url(#clip390)" d="M2174.72 944.78 L2151.11 981.678 L2174.72 981.678 L2174.72 944.78 M2172.26 936.631 L2184.02 936.631 L2184.02 981.678 L2193.88 981.678 L2193.88 989.455 L2184.02 989.455 L2184.02 1005.75 L2174.72 1005.75 L2174.72 989.455 L2143.51 989.455 L2143.51 980.428 L2172.26 936.631 Z" fill="#000000" fill-rule="nonzero" fill-opacity="1" /><path clip-path="url(#clip390)" d="M2989.84 967.465 Q2983.55 967.465 2979.84 971.77 Q2976.19 976.076 2976.19 983.576 Q2976.19 991.029 2979.84 995.381 Q2983.55 999.687 2989.84 999.687 Q2996.14 999.687 2999.8 995.381 Q3003.5 991.029 3003.5 983.576 Q3003.5 976.076 2999.8 971.77 Q2996.14 967.465 2989.84 967.465 M3008.41 938.159 L3008.41 946.678 Q3004.89 945.011 3001.28 944.131 Q2997.71 943.252 2994.2 943.252 Q2984.94 943.252 2980.03 949.502 Q2975.17 955.752 2974.47 968.391 Q2977.21 964.363 2981.33 962.233 Q2985.45 960.057 2990.4 960.057 Q3000.82 960.057 3006.84 966.4 Q3012.9 972.696 3012.9 983.576 Q3012.9 994.224 3006.6 1000.66 Q3000.31 1007.09 2989.84 1007.09 Q2977.85 1007.09 2971.51 997.927 Q2965.17 988.715 2965.17 971.261 Q2965.17 954.872 2972.95 945.15 Q2980.72 935.382 2993.83 935.382 Q2997.34 935.382 3000.91 936.076 Q3004.52 936.77 3008.41 938.159 Z" fill="#000000" fill-rule="nonzero" fill-opacity="1" /><path clip-path="url(#clip390)" d="M3809.37 972.928 Q3802.7 972.928 3798.86 976.492 Q3795.06 980.057 3795.06 986.307 Q3795.06 992.557 3798.86 996.122 Q3802.7 999.687 3809.37 999.687 Q3816.04 999.687 3819.88 996.122 Q3823.72 992.511 3823.72 986.307 Q3823.72 980.057 3819.88 976.492 Q3816.08 972.928 3809.37 972.928 M3800.02 968.946 Q3794 967.465 3790.62 963.344 Q3787.29 959.224 3787.29 953.298 Q3787.29 945.011 3793.17 940.196 Q3799.09 935.382 3809.37 935.382 Q3819.69 935.382 3825.57 940.196 Q3831.45 945.011 3831.45 953.298 Q3831.45 959.224 3828.07 963.344 Q3824.74 967.465 3818.77 968.946 Q3825.53 970.52 3829.28 975.104 Q3833.07 979.687 3833.07 986.307 Q3833.07 996.353 3826.92 1001.72 Q3820.81 1007.09 3809.37 1007.09 Q3797.93 1007.09 3791.78 1001.72 Q3785.67 996.353 3785.67 986.307 Q3785.67 979.687 3789.46 975.104 Q3793.26 970.52 3800.02 968.946 M3796.59 954.178 Q3796.59 959.548 3799.93 962.557 Q3803.31 965.567 3809.37 965.567 Q3815.39 965.567 3818.77 962.557 Q3822.19 959.548 3822.19 954.178 Q3822.19 948.807 3818.77 945.798 Q3815.39 942.789 3809.37 942.789 Q3803.31 942.789 3799.93 945.798 Q3796.59 948.807 3796.59 954.178 Z" fill="#000000" fill-rule="nonzero" fill-opacity="1" /><path clip-path="url(#clip390)" d="M4579.08 997.881 L4594.36 997.881 L4594.36 945.15 L4577.74 948.483 L4577.74 939.965 L4594.27 936.631 L4603.62 936.631 L4603.62 997.881 L4618.9 997.881 L4618.9 1005.75 L4579.08 1005.75 L4579.08 997.881 Z" fill="#000000" fill-rule="nonzero" fill-opacity="1" /><path clip-path="url(#clip390)" d="M4657.78 942.789 Q4650.56 942.789 4646.9 949.918 Q4643.29 957.002 4643.29 971.261 Q4643.29 985.474 4646.9 992.603 Q4650.56 999.687 4657.78 999.687 Q4665.05 999.687 4668.66 992.603 Q4672.32 985.474 4672.32 971.261 Q4672.32 957.002 4668.66 949.918 Q4665.05 942.789 4657.78 942.789 M4657.78 935.382 Q4669.4 935.382 4675.52 944.594 Q4681.67 953.761 4681.67 971.261 Q4681.67 988.715 4675.52 997.927 Q4669.4 1007.09 4657.78 1007.09 Q4646.16 1007.09 4640.01 997.927 Q4633.9 988.715 4633.9 971.261 Q4633.9 953.761 4640.01 944.594 Q4646.16 935.382 4657.78 935.382 Z" fill="#000000" fill-rule="nonzero" fill-opacity="1" /><path clip-path="url(#clip390)" d="M2296.11 1072.18 L2361.89 1072.18 L2361.89 1081.04 L2334.28 1081.04 L2334.28 1149.94 L2323.71 1149.94 L2323.71 1081.04 L2296.11 1081.04 L2296.11 1072.18 Z" fill="#000000" fill-rule="nonzero" fill-opacity="1" /><path clip-path="url(#clip390)" d="M2368.35 1091.61 L2377.93 1091.61 L2377.93 1149.94 L2368.35 1149.94 L2368.35 1091.61 M2368.35 1068.9 L2377.93 1068.9 L2377.93 1081.04 L2368.35 1081.04 L2368.35 1068.9 Z" fill="#000000" fill-rule="nonzero" fill-opacity="1" /><path clip-path="url(#clip390)" d="M2443.4 1102.81 Q2446.99 1096.35 2451.99 1093.28 Q2456.99 1090.2 2463.76 1090.2 Q2472.88 1090.2 2477.83 1096.61 Q2482.77 1102.96 2482.77 1114.74 L2482.77 1149.94 L2473.14 1149.94 L2473.14 1115.05 Q2473.14 1106.66 2470.17 1102.6 Q2467.2 1098.54 2461.11 1098.54 Q2453.66 1098.54 2449.34 1103.49 Q2445.01 1108.43 2445.01 1116.97 L2445.01 1149.94 L2435.38 1149.94 L2435.38 1115.05 Q2435.38 1106.61 2432.41 1102.6 Q2429.44 1098.54 2423.24 1098.54 Q2415.9 1098.54 2411.58 1103.54 Q2407.25 1108.49 2407.25 1116.97 L2407.25 1149.94 L2397.62 1149.94 L2397.62 1091.61 L2407.25 1091.61 L2407.25 1100.67 Q2410.53 1095.31 2415.12 1092.76 Q2419.7 1090.2 2426 1090.2 Q2432.36 1090.2 2436.78 1093.43 Q2441.26 1096.66 2443.4 1102.81 Z" fill="#000000" fill-rule="nonzero" fill-opacity="1" /><path clip-path="url(#clip390)" d="M2551.78 1118.38 L2551.78 1123.07 L2507.72 1123.07 Q2508.35 1132.96 2513.66 1138.17 Q2519.02 1143.33 2528.55 1143.33 Q2534.08 1143.33 2539.23 1141.97 Q2544.44 1140.62 2549.54 1137.91 L2549.54 1146.97 Q2544.39 1149.16 2538.97 1150.31 Q2533.55 1151.45 2527.98 1151.45 Q2514.02 1151.45 2505.85 1143.33 Q2497.72 1135.2 2497.72 1121.35 Q2497.72 1107.03 2505.43 1098.64 Q2513.19 1090.2 2526.31 1090.2 Q2538.09 1090.2 2544.91 1097.81 Q2551.78 1105.36 2551.78 1118.38 M2542.2 1115.57 Q2542.1 1107.7 2537.77 1103.02 Q2533.5 1098.33 2526.42 1098.33 Q2518.4 1098.33 2513.55 1102.86 Q2508.76 1107.39 2508.03 1115.62 L2542.2 1115.57 Z" fill="#000000" fill-rule="nonzero" fill-opacity="1" /><path clip-path="url(#clip390)" d="M2624.44 1069.01 Q2617.46 1080.99 2614.07 1092.7 Q2610.69 1104.42 2610.69 1116.45 Q2610.69 1128.49 2614.07 1140.31 Q2617.51 1152.08 2624.44 1164.01 L2616.11 1164.01 Q2608.29 1151.77 2604.39 1139.94 Q2600.53 1128.12 2600.53 1116.45 Q2600.53 1104.84 2604.39 1093.07 Q2608.24 1081.3 2616.11 1069.01 L2624.44 1069.01 Z" fill="#000000" fill-rule="nonzero" fill-opacity="1" /><path clip-path="url(#clip390)" d="M2681.42 1100.46 L2681.42 1068.9 L2691 1068.9 L2691 1149.94 L2681.42 1149.94 L2681.42 1141.19 Q2678.4 1146.4 2673.76 1148.95 Q2669.18 1151.45 2662.72 1151.45 Q2652.15 1151.45 2645.48 1143.02 Q2638.87 1134.58 2638.87 1120.83 Q2638.87 1107.08 2645.48 1098.64 Q2652.15 1090.2 2662.72 1090.2 Q2669.18 1090.2 2673.76 1092.76 Q2678.4 1095.26 2681.42 1100.46 M2648.76 1120.83 Q2648.76 1131.4 2653.08 1137.44 Q2657.46 1143.43 2665.06 1143.43 Q2672.67 1143.43 2677.04 1137.44 Q2681.42 1131.4 2681.42 1120.83 Q2681.42 1110.26 2677.04 1104.27 Q2672.67 1098.23 2665.06 1098.23 Q2657.46 1098.23 2653.08 1104.27 Q2648.76 1110.26 2648.76 1120.83 Z" fill="#000000" fill-rule="nonzero" fill-opacity="1" /><path clip-path="url(#clip390)" d="M2737.25 1120.62 Q2725.64 1120.62 2721.16 1123.28 Q2716.68 1125.93 2716.68 1132.34 Q2716.68 1137.44 2720.01 1140.46 Q2723.4 1143.43 2729.18 1143.43 Q2737.15 1143.43 2741.94 1137.81 Q2746.78 1132.13 2746.78 1122.76 L2746.78 1120.62 L2737.25 1120.62 M2756.37 1116.66 L2756.37 1149.94 L2746.78 1149.94 L2746.78 1141.09 Q2743.5 1146.4 2738.61 1148.95 Q2733.71 1151.45 2726.63 1151.45 Q2717.67 1151.45 2712.36 1146.45 Q2707.1 1141.4 2707.1 1132.96 Q2707.1 1123.12 2713.66 1118.12 Q2720.27 1113.12 2733.34 1113.12 L2746.78 1113.12 L2746.78 1112.18 Q2746.78 1105.57 2742.41 1101.98 Q2738.08 1098.33 2730.22 1098.33 Q2725.22 1098.33 2720.48 1099.53 Q2715.74 1100.73 2711.37 1103.12 L2711.37 1094.27 Q2716.63 1092.24 2721.57 1091.25 Q2726.52 1090.2 2731.21 1090.2 Q2743.87 1090.2 2750.12 1096.77 Q2756.37 1103.33 2756.37 1116.66 Z" fill="#000000" fill-rule="nonzero" fill-opacity="1" /><path clip-path="url(#clip390)" d="M2800.38 1155.36 Q2796.31 1165.78 2792.46 1168.95 Q2788.61 1172.13 2782.15 1172.13 L2774.49 1172.13 L2774.49 1164.11 L2780.12 1164.11 Q2784.07 1164.11 2786.26 1162.24 Q2788.45 1160.36 2791.11 1153.38 L2792.82 1149.01 L2769.23 1091.61 L2779.39 1091.61 L2797.62 1137.24 L2815.84 1091.61 L2826 1091.61 L2800.38 1155.36 Z" fill="#000000" fill-rule="nonzero" fill-opacity="1" /><path clip-path="url(#clip390)" d="M2837.72 1069.01 L2846.05 1069.01 Q2853.87 1081.3 2857.72 1093.07 Q2861.63 1104.84 2861.63 1116.45 Q2861.63 1128.12 2857.72 1139.94 Q2853.87 1151.77 2846.05 1164.01 L2837.72 1164.01 Q2844.65 1152.08 2848.03 1140.31 Q2851.47 1128.49 2851.47 1116.45 Q2851.47 1104.42 2848.03 1092.7 Q2844.65 1080.99 2837.72 1069.01 Z" fill="#000000" fill-rule="nonzero" fill-opacity="1" /><polyline clip-path="url(#clip390)" style="stroke:#000000; stroke-linecap:round; stroke-linejoin:round; stroke-width:4; stroke-opacity:1; fill:none" points="404.977,880.951 404.977,47.2441 "/>
<polyline clip-path="url(#clip390)" style="stroke:#000000; stroke-linecap:round; stroke-linejoin:round; stroke-width:4; stroke-opacity:1; fill:none" points="404.977,727.762 423.875,727.762 "/>
<polyline clip-path="url(#clip390)" style="stroke:#000000; stroke-linecap:round; stroke-linejoin:round; stroke-width:4; stroke-opacity:1; fill:none" points="404.977,552.965 423.875,552.965 "/>
<polyline clip-path="url(#clip390)" style="stroke:#000000; stroke-linecap:round; stroke-linejoin:round; stroke-width:4; stroke-opacity:1; fill:none" points="404.977,378.169 423.875,378.169 "/>
<polyline clip-path="url(#clip390)" style="stroke:#000000; stroke-linecap:round; stroke-linejoin:round; stroke-width:4; stroke-opacity:1; fill:none" points="404.977,203.372 423.875,203.372 "/>
<path clip-path="url(#clip390)" d="M151.219 728.665 L210.571 728.665 L210.571 736.535 L151.219 736.535 L151.219 728.665 Z" fill="#000000" fill-rule="nonzero" fill-opacity="1" /><path clip-path="url(#clip390)" d="M228.395 693.202 L272.839 693.202 L272.839 697.183 L247.746 762.322 L237.978 762.322 L261.589 701.072 L228.395 701.072 L228.395 693.202 Z" fill="#000000" fill-rule="nonzero" fill-opacity="1" /><path clip-path="url(#clip390)" d="M291.172 693.202 L327.885 693.202 L327.885 701.072 L299.737 701.072 L299.737 718.017 Q301.774 717.322 303.811 716.998 Q305.848 716.628 307.885 716.628 Q319.459 716.628 326.218 722.97 Q332.977 729.313 332.977 740.146 Q332.977 751.304 326.033 757.507 Q319.089 763.665 306.45 763.665 Q302.098 763.665 297.561 762.924 Q293.07 762.183 288.255 760.702 L288.255 751.304 Q292.422 753.572 296.866 754.683 Q301.311 755.794 306.265 755.794 Q314.274 755.794 318.95 751.581 Q323.626 747.368 323.626 740.146 Q323.626 732.924 318.95 728.711 Q314.274 724.498 306.265 724.498 Q302.515 724.498 298.765 725.331 Q295.061 726.165 291.172 727.924 L291.172 693.202 Z" fill="#000000" fill-rule="nonzero" fill-opacity="1" /><path clip-path="url(#clip390)" d="M149.228 553.868 L208.58 553.868 L208.58 561.739 L149.228 561.739 L149.228 553.868 Z" fill="#000000" fill-rule="nonzero" fill-opacity="1" /><path clip-path="url(#clip390)" d="M228.858 518.405 L265.57 518.405 L265.57 526.276 L237.422 526.276 L237.422 543.22 Q239.459 542.526 241.496 542.202 Q243.533 541.831 245.57 541.831 Q257.144 541.831 263.904 548.174 Q270.663 554.516 270.663 565.35 Q270.663 576.507 263.718 582.711 Q256.774 588.868 244.135 588.868 Q239.783 588.868 235.246 588.127 Q230.756 587.387 225.941 585.905 L225.941 576.507 Q230.108 578.775 234.552 579.887 Q238.996 580.998 243.95 580.998 Q251.959 580.998 256.635 576.785 Q261.311 572.572 261.311 565.35 Q261.311 558.127 256.635 553.914 Q251.959 549.702 243.95 549.702 Q240.2 549.702 236.45 550.535 Q232.746 551.368 228.858 553.127 L228.858 518.405 Z" fill="#000000" fill-rule="nonzero" fill-opacity="1" /><path clip-path="url(#clip390)" d="M309.089 524.563 Q301.866 524.563 298.209 531.692 Q294.598 538.776 294.598 553.035 Q294.598 567.248 298.209 574.377 Q301.866 581.461 309.089 581.461 Q316.357 581.461 319.968 574.377 Q323.626 567.248 323.626 553.035 Q323.626 538.776 319.968 531.692 Q316.357 524.563 309.089 524.563 M309.089 517.155 Q320.709 517.155 326.82 526.368 Q332.977 535.535 332.977 553.035 Q332.977 570.488 326.82 579.701 Q320.709 588.868 309.089 588.868 Q297.468 588.868 291.311 579.701 Q285.2 570.488 285.2 553.035 Q285.2 535.535 291.311 526.368 Q297.468 517.155 309.089 517.155 Z" fill="#000000" fill-rule="nonzero" fill-opacity="1" /><path clip-path="url(#clip390)" d="M151.219 379.072 L210.571 379.072 L210.571 386.942 L151.219 386.942 L151.219 379.072 Z" fill="#000000" fill-rule="nonzero" fill-opacity="1" /><path clip-path="url(#clip390)" d="M238.811 404.859 L271.45 404.859 L271.45 412.729 L227.561 412.729 L227.561 404.859 Q232.885 399.349 242.052 390.09 Q251.265 380.785 253.626 378.099 Q258.117 373.053 259.876 369.581 Q261.681 366.062 261.681 362.683 Q261.681 357.174 257.793 353.701 Q253.95 350.229 247.746 350.229 Q243.348 350.229 238.441 351.757 Q233.58 353.285 228.024 356.387 L228.024 346.942 Q233.672 344.674 238.58 343.516 Q243.487 342.359 247.561 342.359 Q258.302 342.359 264.691 347.729 Q271.08 353.1 271.08 362.081 Q271.08 366.34 269.459 370.183 Q267.885 373.979 263.672 379.164 Q262.515 380.507 256.311 386.942 Q250.107 393.331 238.811 404.859 Z" fill="#000000" fill-rule="nonzero" fill-opacity="1" /><path clip-path="url(#clip390)" d="M291.172 343.609 L327.885 343.609 L327.885 351.479 L299.737 351.479 L299.737 368.424 Q301.774 367.729 303.811 367.405 Q305.848 367.035 307.885 367.035 Q319.459 367.035 326.218 373.377 Q332.977 379.72 332.977 390.553 Q332.977 401.71 326.033 407.914 Q319.089 414.071 306.45 414.071 Q302.098 414.071 297.561 413.331 Q293.07 412.59 288.255 411.109 L288.255 401.71 Q292.422 403.979 296.866 405.09 Q301.311 406.201 306.265 406.201 Q314.274 406.201 318.95 401.988 Q323.626 397.775 323.626 390.553 Q323.626 383.331 318.95 379.118 Q314.274 374.905 306.265 374.905 Q302.515 374.905 298.765 375.738 Q295.061 376.572 291.172 378.331 L291.172 343.609 Z" fill="#000000" fill-rule="nonzero" fill-opacity="1" /><path clip-path="url(#clip390)" d="M309.089 174.97 Q301.866 174.97 298.209 182.099 Q294.598 189.183 294.598 203.442 Q294.598 217.655 298.209 224.784 Q301.866 231.868 309.089 231.868 Q316.357 231.868 319.968 224.784 Q323.626 217.655 323.626 203.442 Q323.626 189.183 319.968 182.099 Q316.357 174.97 309.089 174.97 M309.089 167.562 Q320.709 167.562 326.82 176.775 Q332.977 185.942 332.977 203.442 Q332.977 220.895 326.82 230.108 Q320.709 239.275 309.089 239.275 Q297.468 239.275 291.311 230.108 Q285.2 220.895 285.2 203.442 Q285.2 185.942 291.311 176.775 Q297.468 167.562 309.089 167.562 Z" fill="#000000" fill-rule="nonzero" fill-opacity="1" /><path clip-path="url(#clip392)" d="M528.028 338.156 L545.118 366.512 L562.208 392.15 L579.299 415.273 L596.389 435.399 L613.479 451.205 L630.57 457.551 L647.66 456.121 L664.75 442.805 L681.841 426.236 L698.931 424.015 L716.021 414.31 L733.112 405.455 L750.202 404.982 L767.292 403.806 L784.383 401.693 L801.473 395.57 L818.563 388.733 L835.654 382.607 L852.744 383.115 L869.834 388.216 L886.925 397.711 L904.015 405.196 L921.105 411.554 L938.195 419.245 L955.286 449.485 L972.376 486.694 L989.466 525.363 L1006.56 562.253 L1023.65 595.127 L1040.74 613.206 L1057.83 618.033 L1074.92 596.868 L1092.01 559.699 L1109.1 529.623 L1126.19 501.282 L1143.28 475.197 L1160.37 455.214 L1177.46 439.718 L1194.55 428.788 L1211.64 418.604 L1228.73 411.878 L1245.82 405.333 L1262.91 406.505 L1280 413.773 L1297.09 423.791 L1314.18 431.222 L1331.27 437.804 L1348.36 457.096 L1365.45 492.031 L1382.54 529.375 L1399.63 568.181 L1416.72 605.226 L1433.81 638.677 L1450.91 655.824 L1468 659.117 L1485.09 635.249 L1502.18 600.662 L1519.27 573.093 L1536.36 544.074 L1553.45 514.456 L1570.54 489.965 L1587.63 470.704 L1604.72 457.859 L1621.81 445.779 L1638.9 435.695 L1655.99 430.652 L1673.08 433.015 L1690.17 441.474 L1707.26 454.5 L1724.35 465.681 L1741.44 471.891 L1758.53 480.165 L1775.62 512.186 L1792.71 549.865 L1809.8 589.163 L1826.89 626.776 L1843.98 660.294 L1861.07 677.937 L1878.16 684.691 L1895.25 669.846 L1912.34 637.344 L1929.43 607.88 L1946.52 577.686 L1963.61 546.784 L1980.71 520.934 L1997.8 499.452 L2014.89 482.998 L2031.98 466.926 L2049.07 456.154 L2066.16 450.195 L2083.25 453.418 L2100.34 465.532 L2117.43 482.998 L2134.52 494.609 L2151.61 501.078 L2168.7 509.825 L2185.79 535.857 L2202.88 566.739 L2219.97 603.058 L2237.06 640.769 L2254.15 678.649 L2271.24 703.668 L2288.33 716.218 L2305.42 702.811 L2322.51 669.551 L2339.6 639.408 L2356.69 607.946 L2373.78 575.937 L2390.87 548.622 L2407.96 526.473 L2425.05 508.69 L2442.14 491.321 L2459.23 478.685 L2476.32 470.711 L2493.42 475.325 L2510.51 487.696 L2527.6 506.001 L2544.69 518.387 L2561.78 525.486 L2578.87 533.851 L2595.96 560.074 L2613.05 591.404 L2630.14 627.583 L2647.23 666.379 L2664.32 705.704 L2681.41 731.57 L2698.5 744.768 L2715.59 729.801 L2732.68 697.08 L2749.77 666.471 L2766.86 634.783 L2783.95 601.896 L2801.04 573.635 L2818.13 550.464 L2835.22 531.437 L2852.31 511.673 L2869.4 499.365 L2886.49 492.176 L2903.58 497.35 L2920.67 510.133 L2937.76 529.255 L2954.85 542.344 L2971.94 549.841 L2989.03 559.527 L3006.12 585.994 L3023.22 617.245 L3040.31 653.521 L3057.4 692.684 L3074.49 732.113 L3091.58 758.633 L3108.67 772.667 L3125.76 758.711 L3142.85 725.27 L3159.94 694.882 L3177.03 662.304 L3194.12 628.387 L3211.21 599.171 L3228.3 574.479 L3245.39 553.791 L3262.48 534.961 L3279.57 521.517 L3296.66 513.787 L3313.75 519.35 L3330.84 533.284 L3347.93 552.835 L3365.02 566.413 L3382.11 574.378 L3399.2 583.2 L3416.29 609.895 L3433.38 641.421 L3450.47 678.079 L3467.56 717.747 L3484.65 758.27 L3501.74 785.518 L3518.83 800.545 L3535.92 786.711 L3553.02 752.991 L3570.11 721.575 L3587.2 688.525 L3604.29 654.287 L3621.38 624.301 L3638.47 598.677 L3655.56 577.19 L3672.65 557.319 L3689.74 543.878 L3706.83 541.138 L3723.92 550.048 L3741.01 565.875 L3758.1 583.107 L3775.19 589.484 L3792.28 597.886 L3809.37 606.917 L3826.46 633.667 L3843.55 665.513 L3860.64 702.596 L3877.73 742.74 L3894.82 784.306 L3911.91 812.416 L3929 827.896 L3946.09 814.894 L3963.18 782.137 L3980.27 754.781 L3997.36 721.619 L4014.45 684.078 L4031.54 652.084 L4048.63 625.31 L4065.72 605.49 L4082.82 588.145 L4099.91 579.47 L4117 577.214 L4134.09 587.498 L4151.18 605.042 L4168.27 624.031 L4185.36 630.076 L4202.45 625.246 L4219.54 633.143 L4236.63 660.336 L4253.72 692.138 L4270.81 729.331 L4287.9 769.848 L4304.99 811.579 L4322.08 840.965 L4339.17 857.356 L4356.26 855.253 L4373.35 830.961 L4390.44 806.435 L4407.53 772.99 L4424.62 734.428 L4441.71 700.868 L4458.8 672.389 L4475.89 651.081 L4492.98 632.743 L4510.07 623.925 L4527.16 622.422 L4544.25 634.493 L4561.34 654.184 L4578.43 675.295 L4595.52 682.87 L4612.62 678.807 L4629.71 674.117 L4629.71 71.9323 L4612.62 73.1311 L4595.52 81.3726 L4578.43 89.5985 L4561.34 93.3898 L4544.25 92.9506 L4527.16 96.6981 L4510.07 107.709 L4492.98 118.97 L4475.89 128.555 L4458.8 126.753 L4441.71 126.114 L4424.62 128.284 L4407.53 136.232 L4390.44 147.59 L4373.35 159.153 L4356.26 176.926 L4339.17 193.731 L4322.08 195.993 L4304.99 186.369 L4287.9 163.701 L4270.81 138.205 L4253.72 111.493 L4236.63 88.411 L4219.54 71.9247 L4202.45 73.4163 L4185.36 81.8487 L4168.27 90.109 L4151.18 93.2721 L4134.09 92.6013 L4117 96.7335 L4099.91 108.555 L4082.82 120.136 L4065.72 128.3 L4048.63 127.375 L4031.54 126.241 L4014.45 128.28 L3997.36 136.098 L3980.27 147.518 L3963.18 158.226 L3946.09 175.9 L3929 192.872 L3911.91 194.517 L3894.82 185.456 L3877.73 163.392 L3860.64 137.915 L3843.55 111.53 L3826.46 88.3271 L3809.37 72.012 L3792.28 73.3919 L3775.19 81.6853 L3758.1 89.9405 L3741.01 94.0097 L3723.92 93.1963 L3706.83 97.0857 L3689.74 107.95 L3672.65 119.254 L3655.56 128.092 L3638.47 126.882 L3621.38 126.067 L3604.29 128.239 L3587.2 136.314 L3570.11 147.274 L3553.02 158.785 L3535.92 177.189 L3518.83 193.265 L3501.74 194.672 L3484.65 185.285 L3467.56 163.792 L3450.47 137.765 L3433.38 111.488 L3416.29 88.2854 L3399.2 72.5428 L3382.11 72.9955 L3365.02 81.2706 L3347.93 89.3634 L3330.84 93.4491 L3313.75 92.2265 L3296.66 97.2338 L3279.57 108.172 L3262.48 119.52 L3245.39 128.714 L3228.3 127.024 L3211.21 125.605 L3194.12 128.064 L3177.03 136.006 L3159.94 147.446 L3142.85 159.482 L3125.76 176.116 L3108.67 192.947 L3091.58 194.537 L3074.49 185.064 L3057.4 163.065 L3040.31 137.651 L3023.22 111.317 L3006.12 88.1245 L2989.03 71.6789 L2971.94 72.1481 L2954.85 80.3072 L2937.76 88.4764 L2920.67 93.7849 L2903.58 93.6092 L2886.49 97.9503 L2869.4 109.066 L2852.31 120.61 L2835.22 127.974 L2818.13 126.726 L2801.04 126.142 L2783.95 128.304 L2766.86 136.098 L2749.77 146.846 L2732.68 159.124 L2715.59 176.652 L2698.5 193.504 L2681.41 195.272 L2664.32 185.642 L2647.23 163.546 L2630.14 138.265 L2613.05 111.542 L2595.96 88.6312 L2578.87 72.314 L2561.78 72.4357 L2544.69 80.8399 L2527.6 89.3037 L2510.51 94.6181 L2493.42 94.4922 L2476.32 99.3013 L2459.23 108.984 L2442.14 120.587 L2425.05 128.718 L2407.96 127.45 L2390.87 126.092 L2373.78 128.421 L2356.69 136.201 L2339.6 147.176 L2322.51 159.164 L2305.42 175.895 L2288.33 192.212 L2271.24 193.643 L2254.15 184.085 L2237.06 162.956 L2219.97 137.343 L2202.88 110.798 L2185.79 87.3902 L2168.7 71.3557 L2151.61 72.8848 L2134.52 81.2082 L2117.43 89.6732 L2100.34 94.5105 L2083.25 95.9145 L2066.16 99.4439 L2049.07 110.383 L2031.98 121.942 L2014.89 128.42 L1997.8 127.187 L1980.71 126.587 L1963.61 128.73 L1946.52 136.476 L1929.43 147.236 L1912.34 157.583 L1895.25 175.275 L1878.16 192.275 L1861.07 193.752 L1843.98 184.309 L1826.89 162.792 L1809.8 137.249 L1792.71 110.744 L1775.62 87.4488 L1758.53 71.2993 L1741.44 72.7723 L1724.35 80.8392 L1707.26 89.8385 L1690.17 95.2176 L1673.08 96.5207 L1655.99 100.033 L1638.9 111.461 L1621.81 123.037 L1604.72 129.347 L1587.63 128.27 L1570.54 127.016 L1553.45 129.567 L1536.36 137.653 L1519.27 148.874 L1502.18 160.185 L1485.09 177.43 L1468 192.216 L1450.91 193.951 L1433.81 184.828 L1416.72 162.358 L1399.63 136.972 L1382.54 110.503 L1365.45 87.2667 L1348.36 70.8396 L1331.27 72.2617 L1314.18 80.7215 L1297.09 89.1902 L1280 94.3179 L1262.91 97.8037 L1245.82 102.431 L1228.73 113.575 L1211.64 125.23 L1194.55 129.875 L1177.46 128.76 L1160.37 128.448 L1143.28 130.632 L1126.19 138.34 L1109.1 149.357 L1092.01 159.688 L1074.92 175.382 L1057.83 191.855 L1040.74 193.33 L1023.65 184.068 L1006.56 162.45 L989.466 136.881 L972.376 110.404 L955.286 87.1796 L938.195 70.8853 L921.105 72.2805 L904.015 80.245 L886.925 89.1299 L869.834 93.3331 L852.744 98.5569 L835.654 105.611 L818.563 119.316 L801.473 128.43 L784.383 132.105 L767.292 131.024 L750.202 130.296 L733.112 134.008 L716.021 145.446 L698.931 161.928 L681.841 181.156 L664.75 207.279 L647.66 229.507 L630.57 235.112 L613.479 229.632 L596.389 211.835 L579.299 190.858 L562.208 169.425 L545.118 152.986 L528.028 145.429  Z" fill="#aeaeae" fill-rule="evenodd" fill-opacity="0.5"/>
<polyline clip-path="url(#clip392)" style="stroke:#aeaeae; stroke-linecap:round; stroke-linejoin:round; stroke-width:0; stroke-opacity:1; fill:none" points="528.028,204.046 545.118,211.629 562.208,221.34 579.299,232.231 596.389,242.685 613.479,251.725 630.57,254.913 647.66,253.282 664.75,243.348 681.841,230.107 698.931,221.808 716.021,216.017 733.112,211.717 750.202,209.422 767.292,207.733 784.383,205.876 801.473,201.961 818.563,197.419 835.654,192.109 852.744,189.423 869.834,189.036 886.925,190.632 904.015,191.018 921.105,190.996 938.195,193.093 955.286,202.077 972.376,213.016 989.466,224.871 1006.56,236.136 1023.65,245.75 1040.74,249.487 1057.83,248.383 1074.92,239.442 1092.01,227.507 1109.1,220.46 1126.19,215.592 1143.28,211.838 1160.37,209.821 1177.46,208.274 1194.55,206.409 1211.64,202.412 1228.73,197.784 1245.82,192.444 1262.91,189.781 1280,189.422 1297.09,191.031 1314.18,191.434 1331.27,191.402 1348.36,193.508 1365.45,202.481 1382.54,213.402 1399.63,225.249 1416.72,236.509 1433.81,246.139 1450.91,249.894 1468,248.769 1485.09,239.765 1502.18,227.733 1519.27,220.601 1536.36,215.712 1553.45,211.961 1570.54,209.939 1587.63,208.397 1604.72,206.506 1621.81,202.469 1638.9,197.798 1655.99,192.468 1673.08,189.859 1690.17,189.529 1707.26,191.163 1724.35,191.57 1741.44,191.548 1758.53,193.645 1775.62,202.607 1792.71,213.524 1809.8,225.371 1826.89,236.632 1843.98,246.266 1861.07,250.038 1878.16,248.946 1895.25,239.892 1912.34,227.839 1929.43,220.66 1946.52,215.743 1963.61,211.991 1980.71,209.97 1997.8,208.412 2014.89,206.494 2031.98,202.465 2049.07,197.816 2066.16,192.499 2083.25,189.888 2100.34,189.565 2117.43,191.219 2134.52,191.647 2151.61,191.631 2168.7,193.733 2185.79,202.707 2202.88,213.626 2219.97,225.47 2237.06,236.739 2254.15,246.373 2271.24,250.136 2288.33,249.033 2305.42,239.981 2322.51,227.915 2339.6,220.726 2356.69,215.803 2373.78,212.049 2390.87,210.019 2407.96,208.472 2425.05,206.564 2442.14,202.507 2459.23,197.823 2476.32,192.498 2493.42,189.916 2510.51,189.622 2527.6,191.289 2544.69,191.731 2561.78,191.719 2578.87,193.814 2595.96,202.781 2613.05,213.7 2630.14,225.545 2647.23,236.822 2664.32,246.444 2681.41,250.219 2698.5,249.127 2715.59,240.069 2732.68,227.973 2749.77,220.781 2766.86,215.885 2783.95,212.14 2801.04,210.116 2818.13,208.554 2835.22,206.635 2852.31,202.567 2869.4,197.901 2886.49,192.579 2903.58,189.992 2920.67,189.711 2937.76,191.396 2954.85,191.847 2971.94,191.839 2989.03,193.933 3006.12,202.903 3023.22,213.819 3040.31,225.659 3057.4,236.93 3074.49,246.572 3091.58,250.351 3108.67,249.256 3125.76,240.218 3142.85,228.109 3159.94,220.931 3177.03,216.023 3194.12,212.263 3211.21,210.225 3228.3,208.665 3245.39,206.73 3262.48,202.653 3279.57,198.008 3296.66,192.665 3313.75,190.079 3330.84,189.808 3347.93,191.504 3365.02,191.966 3382.11,191.964 3399.2,194.083 3416.29,203.046 3433.38,213.958 3450.47,225.799 3467.56,237.074 3484.65,246.708 3501.74,250.506 3518.83,249.416 3535.92,240.376 3553.02,228.261 3570.11,221.082 3587.2,216.159 3604.29,212.394 3621.38,210.354 3638.47,208.79 3655.56,206.847 3672.65,202.779 3689.74,198.12 3706.83,192.8 3723.92,190.228 3741.01,189.982 3758.1,191.683 3775.19,192.145 3792.28,192.141 3809.37,194.23 3826.46,203.197 3843.55,214.102 3860.64,225.949 3877.73,237.215 3894.82,246.875 3911.91,250.679 3929,249.585 3946.09,240.518 3963.18,228.454 3980.27,221.255 3997.36,216.315 4014.45,212.54 4031.54,210.497 4048.63,208.937 4065.72,207.016 4082.82,202.927 4099.91,198.249 4117,192.937 4134.09,190.379 4151.18,190.126 4168.27,191.837 4185.36,192.304 4202.45,192.302 4219.54,194.42 4236.63,203.396 4253.72,214.295 4270.81,226.128 4287.9,237.392 4304.99,247.06 4322.08,250.866 4339.17,249.781 4356.26,240.72 4373.35,228.645 4390.44,221.446 4407.53,216.508 4424.62,212.73 4441.71,210.676 4458.8,209.104 4475.89,207.181 4492.98,203.099 4510.07,198.437 4527.16,193.133 4544.25,190.595 4561.34,190.357 4578.43,192.076 4595.52,192.551 4612.62,192.551 4629.71,194.547 "/>
<path clip-path="url(#clip392)" d="M528.028 256.01 L545.118 277 L562.208 299.14 L579.299 320.732 L596.389 341.765 L613.479 367.02 L630.57 377.682 L647.66 382.765 L664.75 372.802 L681.841 349.912 L698.931 336.747 L716.021 322.115 L733.112 314.041 L750.202 304.961 L767.292 301.028 L784.383 296.751 L801.473 287.838 L818.563 278.402 L835.654 269.814 L852.744 268.661 L869.834 271.78 L886.925 280.707 L904.015 284.302 L921.105 288.33 L938.195 296.155 L955.286 314.681 L972.376 338.416 L989.466 366.444 L1006.56 392.589 L1023.65 421.392 L1040.74 432.408 L1057.83 434.08 L1074.92 414.428 L1092.01 385.7 L1109.1 369.378 L1126.19 354.416 L1143.28 335.691 L1160.37 325.301 L1177.46 315.694 L1194.55 309.064 L1211.64 300.117 L1228.73 289.845 L1245.82 279.216 L1262.91 278.186 L1280 282.666 L1297.09 290.726 L1314.18 295.203 L1331.27 297.564 L1348.36 305.183 L1365.45 326.225 L1382.54 350.929 L1399.63 379.873 L1416.72 406.862 L1433.81 431.037 L1450.91 446.517 L1468 444.785 L1485.09 427.656 L1502.18 396.343 L1519.27 377.409 L1536.36 360.306 L1553.45 345.612 L1570.54 331.648 L1587.63 320.93 L1604.72 312.529 L1621.81 302.2 L1638.9 292.428 L1655.99 284.587 L1673.08 284.424 L1690.17 287.433 L1707.26 296.626 L1724.35 301.739 L1741.44 303.749 L1758.53 311.695 L1775.62 332.617 L1792.71 357.445 L1809.8 384.669 L1826.89 411.583 L1843.98 439.903 L1861.07 450.643 L1878.16 447.552 L1895.25 432.379 L1912.34 402.518 L1929.43 381.092 L1946.52 364.041 L1963.61 347.889 L1980.71 336.509 L1997.8 326.209 L2014.89 317.943 L2031.98 306.126 L2049.07 295.07 L2066.16 285.719 L2083.25 284.634 L2100.34 287.851 L2117.43 298.501 L2134.52 302.515 L2151.61 306.617 L2168.7 314.914 L2185.79 335.934 L2202.88 362.45 L2219.97 390.617 L2237.06 414.453 L2254.15 443.906 L2271.24 451.918 L2288.33 451.43 L2305.42 433.655 L2322.51 403.692 L2339.6 383.438 L2356.69 368.477 L2373.78 349.638 L2390.87 338.104 L2407.96 329.433 L2425.05 322.148 L2442.14 310.449 L2459.23 296.131 L2476.32 285.825 L2493.42 284.57 L2510.51 288.944 L2527.6 300.308 L2544.69 305.528 L2561.78 308.278 L2578.87 317.522 L2595.96 340.763 L2613.05 364.741 L2630.14 390.713 L2647.23 415.447 L2664.32 445.201 L2681.41 452.067 L2698.5 451.303 L2715.59 433.886 L2732.68 407.575 L2749.77 386.104 L2766.86 369.489 L2783.95 350.738 L2801.04 339.444 L2818.13 330.247 L2835.22 323.16 L2852.31 312.528 L2869.4 299.46 L2886.49 286.322 L2903.58 285.317 L2920.67 289.796 L2937.76 300.994 L2954.85 307.02 L2971.94 308.887 L2989.03 318.253 L3006.12 341.353 L3023.22 366.965 L3040.31 391.085 L3057.4 417.942 L3074.49 445.636 L3091.58 453.661 L3108.67 451.345 L3125.76 434.43 L3142.85 408.379 L3159.94 387.397 L3177.03 370.103 L3194.12 351.396 L3211.21 339.815 L3228.3 330.918 L3245.39 323.382 L3262.48 312.667 L3279.57 301.828 L3296.66 288.269 L3313.75 285.655 L3330.84 289.648 L3347.93 301.202 L3365.02 309.809 L3382.11 309.389 L3399.2 318.143 L3416.29 341.691 L3433.38 367.536 L3450.47 390.564 L3467.56 418.583 L3484.65 445.864 L3501.74 453.551 L3518.83 453.024 L3535.92 433.282 L3553.02 408.642 L3570.11 389.312 L3587.2 371.24 L3604.29 351.727 L3621.38 340.801 L3638.47 331.943 L3655.56 323.626 L3672.65 312.726 L3689.74 301.904 L3706.83 290.815 L3723.92 287.69 L3741.01 290.337 L3758.1 302.045 L3775.19 311.566 L3792.28 311.216 L3809.37 318.985 L3826.46 342.524 L3843.55 369.26 L3860.64 389.709 L3877.73 419.451 L3894.82 445.954 L3911.91 453.563 L3929 454.965 L3946.09 435.283 L3963.18 409.62 L3980.27 389.221 L3997.36 371.156 L4014.45 351.795 L4031.54 341.072 L4048.63 332.827 L4065.72 324.345 L4082.82 312.864 L4099.91 302.1 L4117 291.567 L4134.09 288.564 L4151.18 292.741 L4168.27 301.971 L4185.36 311.233 L4202.45 312.144 L4219.54 319.352 L4236.63 342.809 L4253.72 369.625 L4270.81 389.117 L4287.9 419.805 L4304.99 445.236 L4322.08 454.037 L4339.17 456.694 L4356.26 436.847 L4373.35 408.713 L4390.44 389.62 L4407.53 370.969 L4424.62 352.099 L4441.71 341.901 L4458.8 333.138 L4475.89 325.227 L4492.98 313.19 L4510.07 302.273 L4527.16 292.21 L4544.25 289.151 L4561.34 292.957 L4578.43 302.884 L4595.52 311.08 L4612.62 313.628 L4629.71 319.828 L4629.71 99.3367 L4612.62 98.9876 L4595.52 104.74 L4578.43 108.64 L4561.34 110.747 L4544.25 115.157 L4527.16 122.259 L4510.07 134.151 L4492.98 142.031 L4475.89 147.614 L4458.8 147.838 L4441.71 148.013 L4424.62 149.996 L4407.53 156.982 L4390.44 165.034 L4373.35 176.195 L4356.26 196.87 L4339.17 214.304 L4322.08 216.199 L4304.99 208.357 L4287.9 188.206 L4270.81 164.132 L4253.72 138.804 L4236.63 116.32 L4219.54 99.6699 L4202.45 99.0939 L4185.36 104.407 L4168.27 108.282 L4151.18 109.868 L4134.09 114.814 L4117 122.137 L4099.91 133.91 L4082.82 141.717 L4065.72 147.237 L4048.63 147.778 L4031.54 148.019 L4014.45 150.027 L3997.36 156.924 L3980.27 164.926 L3963.18 175.849 L3946.09 196.974 L3929 213.664 L3911.91 216.442 L3894.82 208.477 L3877.73 188.056 L3860.64 164.033 L3843.55 138.644 L3826.46 115.541 L3809.37 99.1045 L3792.28 98.4604 L3775.19 103.797 L3758.1 108.366 L3741.01 109.927 L3723.92 114.702 L3706.83 122.059 L3689.74 133.453 L3672.65 141.651 L3655.56 147.114 L3638.47 147.827 L3621.38 148 L3604.29 149.719 L3587.2 156.86 L3570.11 164.484 L3553.02 175.236 L3535.92 196.456 L3518.83 213.614 L3501.74 215.912 L3484.65 208.117 L3467.56 187.857 L3450.47 163.846 L3433.38 138.616 L3416.29 115.502 L3399.2 99.0959 L3382.11 98.2562 L3365.02 103.6 L3347.93 107.892 L3330.84 109.954 L3313.75 114.441 L3296.66 122.269 L3279.57 133.591 L3262.48 141.418 L3245.39 147.296 L3228.3 147.707 L3211.21 147.96 L3194.12 149.698 L3177.03 156.621 L3159.94 164.604 L3142.85 175.351 L3125.76 196.647 L3108.67 213.548 L3091.58 216.264 L3074.49 208.242 L3057.4 187.844 L3040.31 164.17 L3023.22 138.658 L3006.12 115.277 L2989.03 98.9532 L2971.94 98.4011 L2954.85 104.166 L2937.76 108.479 L2920.67 109.913 L2903.58 114.828 L2886.49 122.595 L2869.4 133.406 L2852.31 141.327 L2835.22 147.023 L2818.13 147.556 L2801.04 148.038 L2783.95 149.669 L2766.86 156.173 L2749.77 164.79 L2732.68 175.741 L2715.59 196.559 L2698.5 213.311 L2681.41 215.656 L2664.32 207.885 L2647.23 187.737 L2630.14 163.898 L2613.05 138.481 L2595.96 115.014 L2578.87 98.8467 L2561.78 97.9267 L2544.69 104.289 L2527.6 108.185 L2510.51 110.018 L2493.42 114.932 L2476.32 122.346 L2459.23 133.728 L2442.14 141.569 L2425.05 147.191 L2407.96 147.86 L2390.87 147.779 L2373.78 149.646 L2356.69 156.673 L2339.6 164.899 L2322.51 176.023 L2305.42 196.543 L2288.33 213.436 L2271.24 216.408 L2254.15 208.392 L2237.06 187.655 L2219.97 164.03 L2202.88 138.264 L2185.79 114.813 L2168.7 97.8359 L2151.61 98.2214 L2134.52 104.202 L2117.43 107.888 L2100.34 110.527 L2083.25 115.461 L2066.16 122.672 L2049.07 134.249 L2031.98 141.434 L2014.89 147.081 L1997.8 147.946 L1980.71 147.962 L1963.61 150.26 L1946.52 156.889 L1929.43 165.553 L1912.34 176.061 L1895.25 197.476 L1878.16 214.483 L1861.07 216.517 L1843.98 208.616 L1826.89 188.058 L1809.8 164.814 L1792.71 138.305 L1775.62 114.933 L1758.53 98.1741 L1741.44 98.3109 L1724.35 104.99 L1707.26 108.69 L1690.17 111.169 L1673.08 115.03 L1655.99 122.632 L1638.9 134.398 L1621.81 141.714 L1604.72 147.083 L1587.63 147.696 L1570.54 148.289 L1553.45 151.138 L1536.36 157.548 L1519.27 166.467 L1502.18 176.716 L1485.09 198.036 L1468 214.754 L1450.91 217.535 L1433.81 209.224 L1416.72 188.824 L1399.63 164.666 L1382.54 138.715 L1365.45 114.726 L1348.36 98.1461 L1331.27 98.2198 L1314.18 105.17 L1297.09 109.422 L1280 110.819 L1262.91 115.701 L1245.82 123.419 L1228.73 134.854 L1211.64 141.413 L1194.55 146.441 L1177.46 147.43 L1160.37 147.929 L1143.28 150.823 L1126.19 158.216 L1109.1 166.557 L1092.01 178.319 L1074.92 199.767 L1057.83 216.473 L1040.74 218.159 L1023.65 210.965 L1006.56 189.66 L989.466 164.769 L972.376 138.616 L955.286 115.13 L938.195 98.2409 L921.105 97.9777 L904.015 104.777 L886.925 109.693 L869.834 111.526 L852.744 115.702 L835.654 124.674 L818.563 135.097 L801.473 141.458 L784.383 146.713 L767.292 146.938 L750.202 148.778 L733.112 153.737 L716.021 165.048 L698.931 179.514 L681.841 197.619 L664.75 226.275 L647.66 248.18 L630.57 253.783 L613.479 248.921 L596.389 230.898 L579.299 209.969 L562.208 188.954 L545.118 171.773 L528.028 161.835  Z" fill="#757575" fill-rule="evenodd" fill-opacity="0.5"/>
<polyline clip-path="url(#clip392)" style="stroke:#757575; stroke-linecap:round; stroke-linejoin:round; stroke-width:0; stroke-opacity:1; fill:none" points="528.028,204.046 545.118,211.629 562.208,221.34 579.299,232.231 596.389,242.685 613.479,251.725 630.57,254.913 647.66,253.282 664.75,243.348 681.841,230.107 698.931,221.808 716.021,216.017 733.112,211.717 750.202,209.422 767.292,207.733 784.383,205.876 801.473,201.961 818.563,197.419 835.654,192.109 852.744,189.423 869.834,189.036 886.925,190.632 904.015,191.018 921.105,190.996 938.195,193.093 955.286,202.077 972.376,213.016 989.466,224.871 1006.56,236.136 1023.65,245.75 1040.74,249.487 1057.83,248.383 1074.92,239.442 1092.01,227.507 1109.1,220.46 1126.19,215.592 1143.28,211.838 1160.37,209.821 1177.46,208.274 1194.55,206.409 1211.64,202.412 1228.73,197.784 1245.82,192.444 1262.91,189.781 1280,189.422 1297.09,191.031 1314.18,191.434 1331.27,191.402 1348.36,193.508 1365.45,202.481 1382.54,213.402 1399.63,225.249 1416.72,236.509 1433.81,246.139 1450.91,249.894 1468,248.769 1485.09,239.765 1502.18,227.733 1519.27,220.601 1536.36,215.712 1553.45,211.961 1570.54,209.939 1587.63,208.397 1604.72,206.506 1621.81,202.469 1638.9,197.798 1655.99,192.468 1673.08,189.859 1690.17,189.529 1707.26,191.163 1724.35,191.57 1741.44,191.548 1758.53,193.645 1775.62,202.607 1792.71,213.524 1809.8,225.371 1826.89,236.632 1843.98,246.266 1861.07,250.038 1878.16,248.946 1895.25,239.892 1912.34,227.839 1929.43,220.66 1946.52,215.743 1963.61,211.991 1980.71,209.97 1997.8,208.412 2014.89,206.494 2031.98,202.465 2049.07,197.816 2066.16,192.499 2083.25,189.888 2100.34,189.565 2117.43,191.219 2134.52,191.647 2151.61,191.631 2168.7,193.733 2185.79,202.707 2202.88,213.626 2219.97,225.47 2237.06,236.739 2254.15,246.373 2271.24,250.136 2288.33,249.033 2305.42,239.981 2322.51,227.915 2339.6,220.726 2356.69,215.803 2373.78,212.049 2390.87,210.019 2407.96,208.472 2425.05,206.564 2442.14,202.507 2459.23,197.823 2476.32,192.498 2493.42,189.916 2510.51,189.622 2527.6,191.289 2544.69,191.731 2561.78,191.719 2578.87,193.814 2595.96,202.781 2613.05,213.7 2630.14,225.545 2647.23,236.822 2664.32,246.444 2681.41,250.219 2698.5,249.127 2715.59,240.069 2732.68,227.973 2749.77,220.781 2766.86,215.885 2783.95,212.14 2801.04,210.116 2818.13,208.554 2835.22,206.635 2852.31,202.567 2869.4,197.901 2886.49,192.579 2903.58,189.992 2920.67,189.711 2937.76,191.396 2954.85,191.847 2971.94,191.839 2989.03,193.933 3006.12,202.903 3023.22,213.819 3040.31,225.659 3057.4,236.93 3074.49,246.572 3091.58,250.351 3108.67,249.256 3125.76,240.218 3142.85,228.109 3159.94,220.931 3177.03,216.023 3194.12,212.263 3211.21,210.225 3228.3,208.665 3245.39,206.73 3262.48,202.653 3279.57,198.008 3296.66,192.665 3313.75,190.079 3330.84,189.808 3347.93,191.504 3365.02,191.966 3382.11,191.964 3399.2,194.083 3416.29,203.046 3433.38,213.958 3450.47,225.799 3467.56,237.074 3484.65,246.708 3501.74,250.506 3518.83,249.416 3535.92,240.376 3553.02,228.261 3570.11,221.082 3587.2,216.159 3604.29,212.394 3621.38,210.354 3638.47,208.79 3655.56,206.847 3672.65,202.779 3689.74,198.12 3706.83,192.8 3723.92,190.228 3741.01,189.982 3758.1,191.683 3775.19,192.145 3792.28,192.141 3809.37,194.23 3826.46,203.197 3843.55,214.102 3860.64,225.949 3877.73,237.215 3894.82,246.875 3911.91,250.679 3929,249.585 3946.09,240.518 3963.18,228.454 3980.27,221.255 3997.36,216.315 4014.45,212.54 4031.54,210.497 4048.63,208.937 4065.72,207.016 4082.82,202.927 4099.91,198.249 4117,192.937 4134.09,190.379 4151.18,190.126 4168.27,191.837 4185.36,192.304 4202.45,192.302 4219.54,194.42 4236.63,203.396 4253.72,214.295 4270.81,226.128 4287.9,237.392 4304.99,247.06 4322.08,250.866 4339.17,249.781 4356.26,240.72 4373.35,228.645 4390.44,221.446 4407.53,216.508 4424.62,212.73 4441.71,210.676 4458.8,209.104 4475.89,207.181 4492.98,203.099 4510.07,198.437 4527.16,193.133 4544.25,190.595 4561.34,190.357 4578.43,192.076 4595.52,192.551 4612.62,192.551 4629.71,194.547 "/>
<path clip-path="url(#clip392)" d="M528.028 242.383 L545.118 260.257 L562.208 282.806 L579.299 306.681 L596.389 329.056 L613.479 349.417 L630.57 359.178 L647.66 361.004 L664.75 345.104 L681.841 321.442 L698.931 307.631 L716.021 299.273 L733.112 290.193 L750.202 284.556 L767.292 279.181 L784.383 274.236 L801.473 265.073 L818.563 255.625 L835.654 248.171 L852.744 244.034 L869.834 245.201 L886.925 251.379 L904.015 255.207 L921.105 259.338 L938.195 268.147 L955.286 284.957 L972.376 306.62 L989.466 328.981 L1006.56 348.142 L1023.65 367.605 L1040.74 377.943 L1057.83 377.899 L1074.92 361.168 L1092.01 333.092 L1109.1 314.73 L1126.19 303.072 L1143.28 294.819 L1160.37 289.678 L1177.46 285.793 L1194.55 280.77 L1211.64 271.009 L1228.73 260.412 L1245.82 250.522 L1262.91 246.001 L1280 247.038 L1297.09 254.69 L1314.18 258.713 L1331.27 261.707 L1348.36 267.673 L1365.45 285.856 L1382.54 305.867 L1399.63 327.486 L1416.72 350.241 L1433.81 371.661 L1450.91 380.927 L1468 380.106 L1485.09 363.648 L1502.18 336.857 L1519.27 318.57 L1536.36 304.727 L1553.45 293.884 L1570.54 289.837 L1587.63 286.089 L1604.72 279.512 L1621.81 270.487 L1638.9 261.502 L1655.99 250.683 L1673.08 247.7 L1690.17 248.902 L1707.26 254.262 L1724.35 257.943 L1741.44 261.128 L1758.53 267.968 L1775.62 285.618 L1792.71 304.57 L1809.8 328.321 L1826.89 350.897 L1843.98 372.289 L1861.07 380.99 L1878.16 379.892 L1895.25 360.147 L1912.34 336.513 L1929.43 320.591 L1946.52 304.68 L1963.61 295.21 L1980.71 288.607 L1997.8 285.219 L2014.89 280.052 L2031.98 270.706 L2049.07 260.589 L2066.16 252.283 L2083.25 247.018 L2100.34 247.879 L2117.43 253.274 L2134.52 256.684 L2151.61 260.036 L2168.7 267.328 L2185.79 284.631 L2202.88 304.143 L2219.97 329.546 L2237.06 352.011 L2254.15 371.718 L2271.24 381.971 L2288.33 377.777 L2305.42 359.685 L2322.51 337.677 L2339.6 320.971 L2356.69 305.491 L2373.78 295.363 L2390.87 288.617 L2407.96 284.269 L2425.05 278.625 L2442.14 269.149 L2459.23 261.444 L2476.32 251.145 L2493.42 245.592 L2510.51 247.507 L2527.6 252.017 L2544.69 256.438 L2561.78 260.004 L2578.87 266.607 L2595.96 283.941 L2613.05 304.721 L2630.14 329.079 L2647.23 352.585 L2664.32 372.65 L2681.41 381.096 L2698.5 377.827 L2715.59 359.489 L2732.68 336.54 L2749.77 319.946 L2766.86 306.408 L2783.95 295.403 L2801.04 288.953 L2818.13 284.327 L2835.22 278.765 L2852.31 268.976 L2869.4 260.851 L2886.49 249.945 L2903.58 245.265 L2920.67 246.74 L2937.76 252.747 L2954.85 256.193 L2971.94 259.538 L2989.03 266.127 L3006.12 282.762 L3023.22 306.323 L3040.31 329.367 L3057.4 352.78 L3074.49 373.137 L3091.58 380.868 L3108.67 378.78 L3125.76 360.149 L3142.85 336.303 L3159.94 320.144 L3177.03 306.858 L3194.12 295.643 L3211.21 288.929 L3228.3 283.952 L3245.39 279.174 L3262.48 269.089 L3279.57 260.329 L3296.66 249.455 L3313.75 245.723 L3330.84 248.089 L3347.93 253.614 L3365.02 256.934 L3382.11 260.249 L3399.2 264.896 L3416.29 283.609 L3433.38 307.31 L3450.47 329.745 L3467.56 353.454 L3484.65 374.335 L3501.74 381.398 L3518.83 378.913 L3535.92 359.974 L3553.02 336.01 L3570.11 320.096 L3587.2 306.807 L3604.29 295.202 L3621.38 288.722 L3638.47 284.305 L3655.56 279.201 L3672.65 269.074 L3689.74 260.187 L3706.83 249.466 L3723.92 245.745 L3741.01 248.226 L3758.1 253.374 L3775.19 256.897 L3792.28 260.449 L3809.37 264.866 L3826.46 284.207 L3843.55 308.331 L3860.64 329.943 L3877.73 354.116 L3894.82 374.004 L3911.91 381.217 L3929 378.826 L3946.09 362.067 L3963.18 336.773 L3980.27 319.686 L3997.36 305.939 L4014.45 296.121 L4031.54 289.261 L4048.63 283.929 L4065.72 278.129 L4082.82 269.413 L4099.91 260.038 L4117 251.056 L4134.09 246.517 L4151.18 248.457 L4168.27 254.234 L4185.36 257.386 L4202.45 260.963 L4219.54 265.827 L4236.63 284.674 L4253.72 308.846 L4270.81 330.757 L4287.9 353.881 L4304.99 373.883 L4322.08 381.616 L4339.17 380.05 L4356.26 361.822 L4373.35 336.902 L4390.44 319.593 L4407.53 306.597 L4424.62 296.832 L4441.71 289.655 L4458.8 283.667 L4475.89 278.035 L4492.98 269.165 L4510.07 259.907 L4527.16 249.819 L4544.25 246.285 L4561.34 248.245 L4578.43 254.654 L4595.52 258.449 L4612.62 261.565 L4629.71 266.335 L4629.71 110.068 L4612.62 108.95 L4595.52 114.266 L4578.43 117.769 L4561.34 118.312 L4544.25 122.156 L4527.16 129.072 L4510.07 140.835 L4492.98 148.399 L4475.89 154.676 L4458.8 156.379 L4441.71 157.699 L4424.62 160.127 L4407.53 166.187 L4390.44 173.655 L4373.35 185.43 L4356.26 206.724 L4339.17 223.838 L4322.08 226.063 L4304.99 218.4 L4287.9 199.115 L4270.81 174.858 L4253.72 149.207 L4236.63 126.65 L4219.54 109.441 L4202.45 108.936 L4185.36 113.629 L4168.27 117.317 L4151.18 118.304 L4134.09 121.737 L4117 129.012 L4099.91 140.59 L4082.82 148.593 L4065.72 154.483 L4048.63 156.605 L4031.54 157.754 L4014.45 159.861 L3997.36 166.013 L3980.27 173.284 L3963.18 185.818 L3946.09 206.094 L3929 223.406 L3911.91 225.964 L3894.82 217.915 L3877.73 198.776 L3860.64 174.25 L3843.55 149.245 L3826.46 126.433 L3809.37 109.559 L3792.28 109.034 L3775.19 113.27 L3758.1 116.977 L3741.01 117.786 L3723.92 121.381 L3706.83 128.82 L3689.74 140.642 L3672.65 148.103 L3655.56 154.198 L3638.47 156.588 L3621.38 157.527 L3604.29 159.84 L3587.2 165.576 L3570.11 173.15 L3553.02 185.368 L3535.92 206.495 L3518.83 223.619 L3501.74 225.642 L3484.65 217.876 L3467.56 198.975 L3450.47 174.13 L3433.38 148.915 L3416.29 125.991 L3399.2 109.113 L3382.11 108.701 L3365.02 112.773 L3347.93 117.036 L3330.84 117.891 L3313.75 121.774 L3296.66 128.856 L3279.57 140.271 L3262.48 148.301 L3245.39 154.266 L3228.3 156.596 L3211.21 157.71 L3194.12 159.825 L3177.03 165.94 L3159.94 173.089 L3142.85 185.025 L3125.76 206.384 L3108.67 223.605 L3091.58 225.692 L3074.49 217.86 L3057.4 198.678 L3040.31 173.998 L3023.22 149.003 L3006.12 125.528 L2989.03 109.1 L2971.94 108.481 L2954.85 112.809 L2937.76 116.95 L2920.67 117.947 L2903.58 121.364 L2886.49 128.784 L2869.4 140.147 L2852.31 147.812 L2835.22 154.389 L2818.13 156.734 L2801.04 157.78 L2783.95 159.664 L2766.86 165.424 L2749.77 173.317 L2732.68 185.322 L2715.59 206.425 L2698.5 223.262 L2681.41 225.557 L2664.32 217.842 L2647.23 197.935 L2630.14 173.775 L2613.05 148.973 L2595.96 125.81 L2578.87 108.983 L2561.78 108.162 L2544.69 112.59 L2527.6 116.893 L2510.51 117.839 L2493.42 121.447 L2476.32 128.731 L2459.23 140.206 L2442.14 147.97 L2425.05 154.165 L2407.96 156.605 L2390.87 157.519 L2373.78 159.926 L2356.69 165.746 L2339.6 173.054 L2322.51 185.152 L2305.42 206.313 L2288.33 223.687 L2271.24 225.935 L2254.15 218.136 L2237.06 198.077 L2219.97 173.614 L2202.88 148.8 L2185.79 125.898 L2168.7 109.01 L2151.61 107.876 L2134.52 112.571 L2117.43 117.26 L2100.34 117.9 L2083.25 121.282 L2066.16 129.011 L2049.07 140.185 L2031.98 148.267 L2014.89 154.665 L1997.8 156.398 L1980.71 157.507 L1963.61 159.789 L1946.52 165.999 L1929.43 173.331 L1912.34 185.224 L1895.25 207.163 L1878.16 223.625 L1861.07 226.151 L1843.98 218.275 L1826.89 198.63 L1809.8 173.745 L1792.71 148.46 L1775.62 125.871 L1758.53 109.189 L1741.44 107.909 L1724.35 113.181 L1707.26 117.1 L1690.17 118.28 L1673.08 121.796 L1655.99 129.731 L1638.9 140.6 L1621.81 149.005 L1604.72 154.699 L1587.63 156.787 L1570.54 157.522 L1553.45 160.53 L1536.36 166.458 L1519.27 173.822 L1502.18 185.704 L1485.09 207.466 L1468 224.759 L1450.91 227.166 L1433.81 219.027 L1416.72 198.168 L1399.63 174.561 L1382.54 148.532 L1365.45 126.419 L1348.36 109.412 L1331.27 107.755 L1314.18 112.793 L1297.09 117.223 L1280 118.127 L1262.91 122.2 L1245.82 130.055 L1228.73 140.926 L1211.64 149.154 L1194.55 155.323 L1177.46 156.602 L1160.37 157.561 L1143.28 161.24 L1126.19 166.77 L1109.1 174.707 L1092.01 186.139 L1074.92 207.742 L1057.83 225.308 L1040.74 227.488 L1023.65 218.904 L1006.56 198.705 L989.466 174.602 L972.376 148.736 L955.286 125.774 L938.195 109.129 L921.105 108.332 L904.015 113.039 L886.925 117.39 L869.834 117.954 L852.744 122.629 L835.654 130.447 L818.563 141.013 L801.473 149.384 L784.383 155.534 L767.292 156.864 L750.202 158.874 L733.112 163.471 L716.021 173.156 L698.931 185.937 L681.841 204.412 L664.75 232.454 L647.66 254.445 L630.57 259.941 L613.479 255.147 L596.389 238.438 L579.299 217.953 L562.208 196.398 L545.118 179.157 L528.028 168.137  Z" fill="#414141" fill-rule="evenodd" fill-opacity="0.5"/>
<polyline clip-path="url(#clip392)" style="stroke:#414141; stroke-linecap:round; stroke-linejoin:round; stroke-width:0; stroke-opacity:1; fill:none" points="528.028,204.046 545.118,211.629 562.208,221.34 579.299,232.231 596.389,242.685 613.479,251.725 630.57,254.913 647.66,253.282 664.75,243.348 681.841,230.107 698.931,221.808 716.021,216.017 733.112,211.717 750.202,209.422 767.292,207.733 784.383,205.876 801.473,201.961 818.563,197.419 835.654,192.109 852.744,189.423 869.834,189.036 886.925,190.632 904.015,191.018 921.105,190.996 938.195,193.093 955.286,202.077 972.376,213.016 989.466,224.871 1006.56,236.136 1023.65,245.75 1040.74,249.487 1057.83,248.383 1074.92,239.442 1092.01,227.507 1109.1,220.46 1126.19,215.592 1143.28,211.838 1160.37,209.821 1177.46,208.274 1194.55,206.409 1211.64,202.412 1228.73,197.784 1245.82,192.444 1262.91,189.781 1280,189.422 1297.09,191.031 1314.18,191.434 1331.27,191.402 1348.36,193.508 1365.45,202.481 1382.54,213.402 1399.63,225.249 1416.72,236.509 1433.81,246.139 1450.91,249.894 1468,248.769 1485.09,239.765 1502.18,227.733 1519.27,220.601 1536.36,215.712 1553.45,211.961 1570.54,209.939 1587.63,208.397 1604.72,206.506 1621.81,202.469 1638.9,197.798 1655.99,192.468 1673.08,189.859 1690.17,189.529 1707.26,191.163 1724.35,191.57 1741.44,191.548 1758.53,193.645 1775.62,202.607 1792.71,213.524 1809.8,225.371 1826.89,236.632 1843.98,246.266 1861.07,250.038 1878.16,248.946 1895.25,239.892 1912.34,227.839 1929.43,220.66 1946.52,215.743 1963.61,211.991 1980.71,209.97 1997.8,208.412 2014.89,206.494 2031.98,202.465 2049.07,197.816 2066.16,192.499 2083.25,189.888 2100.34,189.565 2117.43,191.219 2134.52,191.647 2151.61,191.631 2168.7,193.733 2185.79,202.707 2202.88,213.626 2219.97,225.47 2237.06,236.739 2254.15,246.373 2271.24,250.136 2288.33,249.033 2305.42,239.981 2322.51,227.915 2339.6,220.726 2356.69,215.803 2373.78,212.049 2390.87,210.019 2407.96,208.472 2425.05,206.564 2442.14,202.507 2459.23,197.823 2476.32,192.498 2493.42,189.916 2510.51,189.622 2527.6,191.289 2544.69,191.731 2561.78,191.719 2578.87,193.814 2595.96,202.781 2613.05,213.7 2630.14,225.545 2647.23,236.822 2664.32,246.444 2681.41,250.219 2698.5,249.127 2715.59,240.069 2732.68,227.973 2749.77,220.781 2766.86,215.885 2783.95,212.14 2801.04,210.116 2818.13,208.554 2835.22,206.635 2852.31,202.567 2869.4,197.901 2886.49,192.579 2903.58,189.992 2920.67,189.711 2937.76,191.396 2954.85,191.847 2971.94,191.839 2989.03,193.933 3006.12,202.903 3023.22,213.819 3040.31,225.659 3057.4,236.93 3074.49,246.572 3091.58,250.351 3108.67,249.256 3125.76,240.218 3142.85,228.109 3159.94,220.931 3177.03,216.023 3194.12,212.263 3211.21,210.225 3228.3,208.665 3245.39,206.73 3262.48,202.653 3279.57,198.008 3296.66,192.665 3313.75,190.079 3330.84,189.808 3347.93,191.504 3365.02,191.966 3382.11,191.964 3399.2,194.083 3416.29,203.046 3433.38,213.958 3450.47,225.799 3467.56,237.074 3484.65,246.708 3501.74,250.506 3518.83,249.416 3535.92,240.376 3553.02,228.261 3570.11,221.082 3587.2,216.159 3604.29,212.394 3621.38,210.354 3638.47,208.79 3655.56,206.847 3672.65,202.779 3689.74,198.12 3706.83,192.8 3723.92,190.228 3741.01,189.982 3758.1,191.683 3775.19,192.145 3792.28,192.141 3809.37,194.23 3826.46,203.197 3843.55,214.102 3860.64,225.949 3877.73,237.215 3894.82,246.875 3911.91,250.679 3929,249.585 3946.09,240.518 3963.18,228.454 3980.27,221.255 3997.36,216.315 4014.45,212.54 4031.54,210.497 4048.63,208.937 4065.72,207.016 4082.82,202.927 4099.91,198.249 4117,192.937 4134.09,190.379 4151.18,190.126 4168.27,191.837 4185.36,192.304 4202.45,192.302 4219.54,194.42 4236.63,203.396 4253.72,214.295 4270.81,226.128 4287.9,237.392 4304.99,247.06 4322.08,250.866 4339.17,249.781 4356.26,240.72 4373.35,228.645 4390.44,221.446 4407.53,216.508 4424.62,212.73 4441.71,210.676 4458.8,209.104 4475.89,207.181 4492.98,203.099 4510.07,198.437 4527.16,193.133 4544.25,190.595 4561.34,190.357 4578.43,192.076 4595.52,192.551 4612.62,192.551 4629.71,194.547 "/>
<path clip-path="url(#clip390)" d="M3853.78 853.161 L4607.83 853.161 L4607.83 334.761 L3853.78 334.761  Z" fill="#ffffff" fill-rule="evenodd" fill-opacity="1"/>
<polyline clip-path="url(#clip390)" style="stroke:#000000; stroke-linecap:round; stroke-linejoin:round; stroke-width:4; stroke-opacity:1; fill:none" points="3853.78,853.161 4607.83,853.161 4607.83,334.761 3853.78,334.761 3853.78,853.161 "/>
<polyline clip-path="url(#clip390)" style="stroke:#aeaeae; stroke-linecap:round; stroke-linejoin:round; stroke-width:2; stroke-opacity:1; fill:none" points="3902.09,464.361 4191.94,464.361 "/>
<path clip-path="url(#clip390)" d="M4241.93 497.723 L4261.03 497.723 L4261.03 431.809 L4240.25 435.976 L4240.25 425.328 L4260.91 421.161 L4272.6 421.161 L4272.6 497.723 L4291.7 497.723 L4291.7 507.561 L4241.93 507.561 L4241.93 497.723 Z" fill="#000000" fill-rule="nonzero" fill-opacity="1" /><path clip-path="url(#clip390)" d="M4340.31 428.858 Q4331.28 428.858 4326.71 437.77 Q4322.2 446.624 4322.2 464.448 Q4322.2 482.214 4326.71 491.126 Q4331.28 499.98 4340.31 499.98 Q4349.4 499.98 4353.91 491.126 Q4358.48 482.214 4358.48 464.448 Q4358.48 446.624 4353.91 437.77 Q4349.4 428.858 4340.31 428.858 M4340.31 419.599 Q4354.83 419.599 4362.47 431.115 Q4370.17 442.573 4370.17 464.448 Q4370.17 486.265 4362.47 497.781 Q4354.83 509.239 4340.31 509.239 Q4325.78 509.239 4318.09 497.781 Q4310.45 486.265 4310.45 464.448 Q4310.45 442.573 4318.09 431.115 Q4325.78 419.599 4340.31 419.599 Z" fill="#000000" fill-rule="nonzero" fill-opacity="1" /><path clip-path="url(#clip390)" d="M4415.71 428.858 Q4406.69 428.858 4402.11 437.77 Q4397.6 446.624 4397.6 464.448 Q4397.6 482.214 4402.11 491.126 Q4406.69 499.98 4415.71 499.98 Q4424.8 499.98 4429.31 491.126 Q4433.89 482.214 4433.89 464.448 Q4433.89 446.624 4429.31 437.77 Q4424.8 428.858 4415.71 428.858 M4415.71 419.599 Q4430.24 419.599 4437.88 431.115 Q4445.58 442.573 4445.58 464.448 Q4445.58 486.265 4437.88 497.781 Q4430.24 509.239 4415.71 509.239 Q4401.19 509.239 4393.49 497.781 Q4385.85 486.265 4385.85 464.448 Q4385.85 442.573 4393.49 431.115 Q4401.19 419.599 4415.71 419.599 Z" fill="#000000" fill-rule="nonzero" fill-opacity="1" /><path clip-path="url(#clip390)" d="M4539.61 469.541 Q4534.58 469.541 4531.69 473.823 Q4528.85 478.105 4528.85 485.744 Q4528.85 493.267 4531.69 497.608 Q4534.58 501.89 4539.61 501.89 Q4544.53 501.89 4547.37 497.608 Q4550.26 493.267 4550.26 485.744 Q4550.26 478.163 4547.37 473.881 Q4544.53 469.541 4539.61 469.541 M4539.61 462.191 Q4548.76 462.191 4554.14 468.557 Q4559.52 474.923 4559.52 485.744 Q4559.52 496.566 4554.08 502.932 Q4548.7 509.239 4539.61 509.239 Q4530.35 509.239 4524.97 502.932 Q4519.59 496.566 4519.59 485.744 Q4519.59 474.865 4524.97 468.557 Q4530.41 462.191 4539.61 462.191 M4479.89 426.948 Q4474.92 426.948 4472.02 431.289 Q4469.19 435.571 4469.19 443.094 Q4469.19 450.733 4472.02 455.015 Q4474.86 459.298 4479.89 459.298 Q4484.93 459.298 4487.76 455.015 Q4490.66 450.733 4490.66 443.094 Q4490.66 435.629 4487.76 431.289 Q4484.87 426.948 4479.89 426.948 M4532.15 419.599 L4541.41 419.599 L4487.36 509.239 L4478.1 509.239 L4532.15 419.599 M4479.89 419.599 Q4489.04 419.599 4494.48 425.964 Q4499.92 432.272 4499.92 443.094 Q4499.92 454.031 4494.48 460.339 Q4489.09 466.647 4479.89 466.647 Q4470.69 466.647 4465.31 460.339 Q4459.98 453.974 4459.98 443.094 Q4459.98 432.33 4465.37 425.964 Q4470.75 419.599 4479.89 419.599 Z" fill="#000000" fill-rule="nonzero" fill-opacity="1" /><polyline clip-path="url(#clip390)" style="stroke:#757575; stroke-linecap:round; stroke-linejoin:round; stroke-width:2; stroke-opacity:1; fill:none" points="3902.09,593.961 4191.94,593.961 "/>
<path clip-path="url(#clip390)" d="M4245.81 635.367 L4245.81 624.719 Q4250.21 626.803 4254.72 627.902 Q4259.23 629.002 4263.57 629.002 Q4275.15 629.002 4281.22 621.247 Q4287.36 613.435 4288.23 597.578 Q4284.87 602.555 4279.72 605.217 Q4274.57 607.879 4268.32 607.879 Q4255.36 607.879 4247.78 600.067 Q4240.25 592.196 4240.25 578.597 Q4240.25 565.287 4248.12 557.243 Q4255.99 549.199 4269.07 549.199 Q4284.06 549.199 4291.93 560.715 Q4299.86 572.173 4299.86 594.048 Q4299.86 614.476 4290.14 626.687 Q4280.47 638.839 4264.09 638.839 Q4259.7 638.839 4255.18 637.971 Q4250.67 637.103 4245.81 635.367 M4269.07 598.736 Q4276.94 598.736 4281.51 593.354 Q4286.14 587.972 4286.14 578.597 Q4286.14 569.28 4281.51 563.898 Q4276.94 558.458 4269.07 558.458 Q4261.2 558.458 4256.57 563.898 Q4252 569.28 4252 578.597 Q4252 587.972 4256.57 593.354 Q4261.2 598.736 4269.07 598.736 Z" fill="#000000" fill-rule="nonzero" fill-opacity="1" /><path clip-path="url(#clip390)" d="M4345.87 558.458 Q4336.84 558.458 4332.27 567.37 Q4327.75 576.224 4327.75 594.048 Q4327.75 611.814 4332.27 620.726 Q4336.84 629.58 4345.87 629.58 Q4354.95 629.58 4359.46 620.726 Q4364.04 611.814 4364.04 594.048 Q4364.04 576.224 4359.46 567.37 Q4354.95 558.458 4345.87 558.458 M4345.87 549.199 Q4360.39 549.199 4368.03 560.715 Q4375.73 572.173 4375.73 594.048 Q4375.73 615.865 4368.03 627.381 Q4360.39 638.839 4345.87 638.839 Q4331.34 638.839 4323.64 627.381 Q4316 615.865 4316 594.048 Q4316 572.173 4323.64 560.715 Q4331.34 549.199 4345.87 549.199 Z" fill="#000000" fill-rule="nonzero" fill-opacity="1" /><path clip-path="url(#clip390)" d="M4469.76 599.141 Q4464.73 599.141 4461.84 603.423 Q4459 607.705 4459 615.344 Q4459 622.867 4461.84 627.208 Q4464.73 631.49 4469.76 631.49 Q4474.68 631.49 4477.52 627.208 Q4480.41 622.867 4480.41 615.344 Q4480.41 607.763 4477.52 603.481 Q4474.68 599.141 4469.76 599.141 M4469.76 591.791 Q4478.91 591.791 4484.29 598.157 Q4489.67 604.523 4489.67 615.344 Q4489.67 626.166 4484.23 632.532 Q4478.85 638.839 4469.76 638.839 Q4460.51 638.839 4455.12 632.532 Q4449.74 626.166 4449.74 615.344 Q4449.74 604.465 4455.12 598.157 Q4460.56 591.791 4469.76 591.791 M4410.04 556.548 Q4405.07 556.548 4402.17 560.889 Q4399.34 565.171 4399.34 572.694 Q4399.34 580.333 4402.17 584.615 Q4405.01 588.898 4410.04 588.898 Q4415.08 588.898 4417.91 584.615 Q4420.81 580.333 4420.81 572.694 Q4420.81 565.229 4417.91 560.889 Q4415.02 556.548 4410.04 556.548 M4462.3 549.199 L4471.56 549.199 L4417.51 638.839 L4408.25 638.839 L4462.3 549.199 M4410.04 549.199 Q4419.19 549.199 4424.63 555.564 Q4430.07 561.872 4430.07 572.694 Q4430.07 583.631 4424.63 589.939 Q4419.24 596.247 4410.04 596.247 Q4400.84 596.247 4395.46 589.939 Q4390.14 583.574 4390.14 572.694 Q4390.14 561.93 4395.52 555.564 Q4400.9 549.199 4410.04 549.199 Z" fill="#000000" fill-rule="nonzero" fill-opacity="1" /><polyline clip-path="url(#clip390)" style="stroke:#414141; stroke-linecap:round; stroke-linejoin:round; stroke-width:2; stroke-opacity:1; fill:none" points="3902.09,723.561 4191.94,723.561 "/>
<path clip-path="url(#clip390)" d="M4269.88 725.731 Q4261.55 725.731 4256.75 730.187 Q4252 734.643 4252 742.456 Q4252 750.268 4256.75 754.724 Q4261.55 759.18 4269.88 759.18 Q4278.21 759.18 4283.02 754.724 Q4287.82 750.21 4287.82 742.456 Q4287.82 734.643 4283.02 730.187 Q4278.27 725.731 4269.88 725.731 M4258.19 720.755 Q4250.67 718.903 4246.44 713.752 Q4242.28 708.602 4242.28 701.194 Q4242.28 690.836 4249.63 684.817 Q4257.03 678.799 4269.88 678.799 Q4282.79 678.799 4290.14 684.817 Q4297.49 690.836 4297.49 701.194 Q4297.49 708.602 4293.26 713.752 Q4289.09 718.903 4281.63 720.755 Q4290.08 722.722 4294.77 728.451 Q4299.51 734.18 4299.51 742.456 Q4299.51 755.014 4291.81 761.727 Q4284.18 768.439 4269.88 768.439 Q4255.59 768.439 4247.89 761.727 Q4240.25 755.014 4240.25 742.456 Q4240.25 734.18 4245 728.451 Q4249.74 722.722 4258.19 720.755 M4253.91 702.294 Q4253.91 709.007 4258.08 712.768 Q4262.3 716.53 4269.88 716.53 Q4277.4 716.53 4281.63 712.768 Q4285.91 709.007 4285.91 702.294 Q4285.91 695.581 4281.63 691.82 Q4277.4 688.058 4269.88 688.058 Q4262.3 688.058 4258.08 691.82 Q4253.91 695.581 4253.91 702.294 Z" fill="#000000" fill-rule="nonzero" fill-opacity="1" /><path clip-path="url(#clip390)" d="M4345.29 688.058 Q4336.26 688.058 4331.69 696.97 Q4327.17 705.824 4327.17 723.648 Q4327.17 741.414 4331.69 750.326 Q4336.26 759.18 4345.29 759.18 Q4354.37 759.18 4358.89 750.326 Q4363.46 741.414 4363.46 723.648 Q4363.46 705.824 4358.89 696.97 Q4354.37 688.058 4345.29 688.058 M4345.29 678.799 Q4359.81 678.799 4367.45 690.315 Q4375.15 701.773 4375.15 723.648 Q4375.15 745.465 4367.45 756.981 Q4359.81 768.439 4345.29 768.439 Q4330.76 768.439 4323.06 756.981 Q4315.43 745.465 4315.43 723.648 Q4315.43 701.773 4323.06 690.315 Q4330.76 678.799 4345.29 678.799 Z" fill="#000000" fill-rule="nonzero" fill-opacity="1" /><path clip-path="url(#clip390)" d="M4469.19 728.741 Q4464.15 728.741 4461.26 733.023 Q4458.42 737.305 4458.42 744.944 Q4458.42 752.467 4461.26 756.808 Q4464.15 761.09 4469.19 761.09 Q4474.11 761.09 4476.94 756.808 Q4479.83 752.467 4479.83 744.944 Q4479.83 737.363 4476.94 733.081 Q4474.11 728.741 4469.19 728.741 M4469.19 721.391 Q4478.33 721.391 4483.71 727.757 Q4489.09 734.123 4489.09 744.944 Q4489.09 755.766 4483.65 762.132 Q4478.27 768.439 4469.19 768.439 Q4459.93 768.439 4454.55 762.132 Q4449.16 755.766 4449.16 744.944 Q4449.16 734.065 4454.55 727.757 Q4459.98 721.391 4469.19 721.391 M4409.46 686.148 Q4404.49 686.148 4401.59 690.489 Q4398.76 694.771 4398.76 702.294 Q4398.76 709.933 4401.59 714.215 Q4404.43 718.498 4409.46 718.498 Q4414.5 718.498 4417.33 714.215 Q4420.23 709.933 4420.23 702.294 Q4420.23 694.829 4417.33 690.489 Q4414.44 686.148 4409.46 686.148 M4461.72 678.799 L4470.98 678.799 L4416.93 768.439 L4407.67 768.439 L4461.72 678.799 M4409.46 678.799 Q4418.61 678.799 4424.05 685.164 Q4429.49 691.472 4429.49 702.294 Q4429.49 713.231 4424.05 719.539 Q4418.67 725.847 4409.46 725.847 Q4400.26 725.847 4394.88 719.539 Q4389.56 713.174 4389.56 702.294 Q4389.56 691.53 4394.94 685.164 Q4400.32 678.799 4409.46 678.799 Z" fill="#000000" fill-rule="nonzero" fill-opacity="1" /></svg>
