<?xml version="1.0" encoding="utf-8"?>
<svg xmlns="http://www.w3.org/2000/svg" xmlns:xlink="http://www.w3.org/1999/xlink" width="1200" height="300" viewBox="0 0 4800 1200">
<defs>
  <clipPath id="clip780">
    <rect x="0" y="0" width="4800" height="1200"/>
  </clipPath>
</defs>
<path clip-path="url(#clip780)" d="M0 1200 L4800 1200 L4800 0 L0 0  Z" fill="#ffffff" fill-rule="evenodd" fill-opacity="1"/>
<defs>
  <clipPath id="clip781">
    <rect x="960" y="0" width="3361" height="1200"/>
  </clipPath>
</defs>
<path clip-path="url(#clip780)" d="M467.969 849.455 L4752.76 849.455 L4752.76 47.2441 L467.969 47.2441  Z" fill="#ffffff" fill-rule="evenodd" fill-opacity="1"/>
<defs>
  <clipPath id="clip782">
    <rect x="467" y="47" width="4286" height="803"/>
  </clipPath>
</defs>
<polyline clip-path="url(#clip782)" style="stroke:#000000; stroke-linecap:round; stroke-linejoin:round; stroke-width:2; stroke-opacity:0.1; fill:none" points="589.237,849.455 589.237,47.2441 "/>
<polyline clip-path="url(#clip782)" style="stroke:#000000; stroke-linecap:round; stroke-linejoin:round; stroke-width:2; stroke-opacity:0.1; fill:none" points="1397.69,849.455 1397.69,47.2441 "/>
<polyline clip-path="url(#clip782)" style="stroke:#000000; stroke-linecap:round; stroke-linejoin:round; stroke-width:2; stroke-opacity:0.1; fill:none" points="2206.14,849.455 2206.14,47.2441 "/>
<polyline clip-path="url(#clip782)" style="stroke:#000000; stroke-linecap:round; stroke-linejoin:round; stroke-width:2; stroke-opacity:0.1; fill:none" points="3014.59,849.455 3014.59,47.2441 "/>
<polyline clip-path="url(#clip782)" style="stroke:#000000; stroke-linecap:round; stroke-linejoin:round; stroke-width:2; stroke-opacity:0.1; fill:none" points="3823.04,849.455 3823.04,47.2441 "/>
<polyline clip-path="url(#clip782)" style="stroke:#000000; stroke-linecap:round; stroke-linejoin:round; stroke-width:2; stroke-opacity:0.1; fill:none" points="4631.49,849.455 4631.49,47.2441 "/>
<polyline clip-path="url(#clip782)" style="stroke:#000000; stroke-linecap:round; stroke-linejoin:round; stroke-width:2; stroke-opacity:0.1; fill:none" points="467.969,762.2 4752.76,762.2 "/>
<polyline clip-path="url(#clip782)" style="stroke:#000000; stroke-linecap:round; stroke-linejoin:round; stroke-width:2; stroke-opacity:0.1; fill:none" points="467.969,639.858 4752.76,639.858 "/>
<polyline clip-path="url(#clip782)" style="stroke:#000000; stroke-linecap:round; stroke-linejoin:round; stroke-width:2; stroke-opacity:0.1; fill:none" points="467.969,517.516 4752.76,517.516 "/>
<polyline clip-path="url(#clip782)" style="stroke:#000000; stroke-linecap:round; stroke-linejoin:round; stroke-width:2; stroke-opacity:0.1; fill:none" points="467.969,395.174 4752.76,395.174 "/>
<polyline clip-path="url(#clip782)" style="stroke:#000000; stroke-linecap:round; stroke-linejoin:round; stroke-width:2; stroke-opacity:0.1; fill:none" points="467.969,272.832 4752.76,272.832 "/>
<polyline clip-path="url(#clip782)" style="stroke:#000000; stroke-linecap:round; stroke-linejoin:round; stroke-width:2; stroke-opacity:0.1; fill:none" points="467.969,150.49 4752.76,150.49 "/>
<polyline clip-path="url(#clip780)" style="stroke:#000000; stroke-linecap:round; stroke-linejoin:round; stroke-width:4; stroke-opacity:1; fill:none" points="467.969,849.455 4752.76,849.455 "/>
<polyline clip-path="url(#clip780)" style="stroke:#000000; stroke-linecap:round; stroke-linejoin:round; stroke-width:4; stroke-opacity:1; fill:none" points="589.237,849.455 589.237,830.558 "/>
<polyline clip-path="url(#clip780)" style="stroke:#000000; stroke-linecap:round; stroke-linejoin:round; stroke-width:4; stroke-opacity:1; fill:none" points="1397.69,849.455 1397.69,830.558 "/>
<polyline clip-path="url(#clip780)" style="stroke:#000000; stroke-linecap:round; stroke-linejoin:round; stroke-width:4; stroke-opacity:1; fill:none" points="2206.14,849.455 2206.14,830.558 "/>
<polyline clip-path="url(#clip780)" style="stroke:#000000; stroke-linecap:round; stroke-linejoin:round; stroke-width:4; stroke-opacity:1; fill:none" points="3014.59,849.455 3014.59,830.558 "/>
<polyline clip-path="url(#clip780)" style="stroke:#000000; stroke-linecap:round; stroke-linejoin:round; stroke-width:4; stroke-opacity:1; fill:none" points="3823.04,849.455 3823.04,830.558 "/>
<polyline clip-path="url(#clip780)" style="stroke:#000000; stroke-linecap:round; stroke-linejoin:round; stroke-width:4; stroke-opacity:1; fill:none" points="4631.49,849.455 4631.49,830.558 "/>
<path clip-path="url(#clip780)" d="M589.237 911.293 Q582.015 911.293 578.357 918.422 Q574.746 925.506 574.746 939.765 Q574.746 953.978 578.357 961.107 Q582.015 968.191 589.237 968.191 Q596.506 968.191 600.117 961.107 Q603.774 953.978 603.774 939.765 Q603.774 925.506 600.117 918.422 Q596.506 911.293 589.237 911.293 M589.237 903.885 Q600.857 903.885 606.968 913.098 Q613.126 922.265 613.126 939.765 Q613.126 957.218 606.968 966.431 Q600.857 975.598 589.237 975.598 Q577.617 975.598 571.459 966.431 Q565.348 957.218 565.348 939.765 Q565.348 922.265 571.459 913.098 Q577.617 903.885 589.237 903.885 Z" fill="#000000" fill-rule="nonzero" fill-opacity="1" /><path clip-path="url(#clip780)" d="M1386.99 966.385 L1419.63 966.385 L1419.63 974.255 L1375.74 974.255 L1375.74 966.385 Q1381.07 960.876 1390.23 951.617 Q1399.45 942.311 1401.81 939.626 Q1406.3 934.58 1408.06 931.108 Q1409.86 927.589 1409.86 924.209 Q1409.86 918.7 1405.97 915.228 Q1402.13 911.756 1395.93 911.756 Q1391.53 911.756 1386.62 913.284 Q1381.76 914.811 1376.21 917.913 L1376.21 908.469 Q1381.85 906.2 1386.76 905.043 Q1391.67 903.885 1395.74 903.885 Q1406.48 903.885 1412.87 909.256 Q1419.26 914.626 1419.26 923.608 Q1419.26 927.867 1417.64 931.709 Q1416.07 935.506 1411.85 940.691 Q1410.7 942.033 1404.49 948.469 Q1398.29 954.857 1386.99 966.385 Z" fill="#000000" fill-rule="nonzero" fill-opacity="1" /><path clip-path="url(#clip780)" d="M2212.16 913.284 L2188.55 950.181 L2212.16 950.181 L2212.16 913.284 M2209.7 905.135 L2221.46 905.135 L2221.46 950.181 L2231.32 950.181 L2231.32 957.959 L2221.46 957.959 L2221.46 974.255 L2212.16 974.255 L2212.16 957.959 L2180.95 957.959 L2180.95 948.931 L2209.7 905.135 Z" fill="#000000" fill-rule="nonzero" fill-opacity="1" /><path clip-path="url(#clip780)" d="M3015.4 935.969 Q3009.1 935.969 3005.4 940.274 Q3001.74 944.58 3001.74 952.08 Q3001.74 959.533 3005.4 963.885 Q3009.1 968.191 3015.4 968.191 Q3021.69 968.191 3025.35 963.885 Q3029.06 959.533 3029.06 952.08 Q3029.06 944.58 3025.35 940.274 Q3021.69 935.969 3015.4 935.969 M3033.96 906.663 L3033.96 915.182 Q3030.44 913.515 3026.83 912.635 Q3023.27 911.756 3019.75 911.756 Q3010.49 911.756 3005.58 918.006 Q3000.72 924.256 3000.03 936.895 Q3002.76 932.867 3006.88 930.737 Q3011 928.561 3015.95 928.561 Q3026.37 928.561 3032.39 934.904 Q3038.45 941.2 3038.45 952.08 Q3038.45 962.728 3032.16 969.163 Q3025.86 975.598 3015.4 975.598 Q3003.41 975.598 2997.06 966.431 Q2990.72 957.218 2990.72 939.765 Q2990.72 923.376 2998.5 913.654 Q3006.28 903.885 3019.38 903.885 Q3022.9 903.885 3026.46 904.58 Q3030.07 905.274 3033.96 906.663 Z" fill="#000000" fill-rule="nonzero" fill-opacity="1" /><path clip-path="url(#clip780)" d="M3823.04 941.432 Q3816.37 941.432 3812.53 944.996 Q3808.73 948.561 3808.73 954.811 Q3808.73 961.061 3812.53 964.626 Q3816.37 968.191 3823.04 968.191 Q3829.7 968.191 3833.55 964.626 Q3837.39 961.015 3837.39 954.811 Q3837.39 948.561 3833.55 944.996 Q3829.75 941.432 3823.04 941.432 M3813.69 937.45 Q3807.67 935.969 3804.29 931.848 Q3800.95 927.728 3800.95 921.802 Q3800.95 913.515 3806.83 908.7 Q3812.76 903.885 3823.04 903.885 Q3833.36 903.885 3839.24 908.7 Q3845.12 913.515 3845.12 921.802 Q3845.12 927.728 3841.74 931.848 Q3838.41 935.969 3832.44 937.45 Q3839.2 939.024 3842.95 943.607 Q3846.74 948.191 3846.74 954.811 Q3846.74 964.857 3840.58 970.228 Q3834.47 975.598 3823.04 975.598 Q3811.6 975.598 3805.45 970.228 Q3799.33 964.857 3799.33 954.811 Q3799.33 948.191 3803.13 943.607 Q3806.93 939.024 3813.69 937.45 M3810.26 922.682 Q3810.26 928.052 3813.59 931.061 Q3816.97 934.07 3823.04 934.07 Q3829.06 934.07 3832.44 931.061 Q3835.86 928.052 3835.86 922.682 Q3835.86 917.311 3832.44 914.302 Q3829.06 911.293 3823.04 911.293 Q3816.97 911.293 3813.59 914.302 Q3810.26 917.311 3810.26 922.682 Z" fill="#000000" fill-rule="nonzero" fill-opacity="1" /><path clip-path="url(#clip780)" d="M4580.86 966.385 L4596.14 966.385 L4596.14 913.654 L4579.52 916.987 L4579.52 908.469 L4596.05 905.135 L4605.4 905.135 L4605.4 966.385 L4620.68 966.385 L4620.68 974.255 L4580.86 974.255 L4580.86 966.385 Z" fill="#000000" fill-rule="nonzero" fill-opacity="1" /><path clip-path="url(#clip780)" d="M4659.57 911.293 Q4652.34 911.293 4648.69 918.422 Q4645.08 925.506 4645.08 939.765 Q4645.08 953.978 4648.69 961.107 Q4652.34 968.191 4659.57 968.191 Q4666.84 968.191 4670.45 961.107 Q4674.1 953.978 4674.1 939.765 Q4674.1 925.506 4670.45 918.422 Q4666.84 911.293 4659.57 911.293 M4659.57 903.885 Q4671.19 903.885 4677.3 913.098 Q4683.46 922.265 4683.46 939.765 Q4683.46 957.218 4677.3 966.431 Q4671.19 975.598 4659.57 975.598 Q4647.95 975.598 4641.79 966.431 Q4635.68 957.218 4635.68 939.765 Q4635.68 922.265 4641.79 913.098 Q4647.95 903.885 4659.57 903.885 Z" fill="#000000" fill-rule="nonzero" fill-opacity="1" /><path clip-path="url(#clip780)" d="M2327.6 1040.69 L2393.38 1040.69 L2393.38 1049.54 L2365.78 1049.54 L2365.78 1118.45 L2355.21 1118.45 L2355.21 1049.54 L2327.6 1049.54 L2327.6 1040.69 Z" fill="#000000" fill-rule="nonzero" fill-opacity="1" /><path clip-path="url(#clip780)" d="M2399.84 1060.11 L2409.43 1060.11 L2409.43 1118.45 L2399.84 1118.45 L2399.84 1060.11 M2399.84 1037.41 L2409.43 1037.41 L2409.43 1049.54 L2399.84 1049.54 L2399.84 1037.41 Z" fill="#000000" fill-rule="nonzero" fill-opacity="1" /><path clip-path="url(#clip780)" d="M2474.89 1071.31 Q2478.49 1064.85 2483.49 1061.78 Q2488.49 1058.71 2495.26 1058.71 Q2504.37 1058.71 2509.32 1065.11 Q2514.27 1071.47 2514.27 1083.24 L2514.27 1118.45 L2504.63 1118.45 L2504.63 1083.55 Q2504.63 1075.17 2501.67 1071.1 Q2498.7 1067.04 2492.6 1067.04 Q2485.16 1067.04 2480.83 1071.99 Q2476.51 1076.94 2476.51 1085.48 L2476.51 1118.45 L2466.87 1118.45 L2466.87 1083.55 Q2466.87 1075.11 2463.91 1071.1 Q2460.94 1067.04 2454.74 1067.04 Q2447.39 1067.04 2443.07 1072.04 Q2438.75 1076.99 2438.75 1085.48 L2438.75 1118.45 L2429.11 1118.45 L2429.11 1060.11 L2438.75 1060.11 L2438.75 1069.18 Q2442.03 1063.81 2446.61 1061.26 Q2451.2 1058.71 2457.5 1058.71 Q2463.85 1058.71 2468.28 1061.94 Q2472.76 1065.17 2474.89 1071.31 Z" fill="#000000" fill-rule="nonzero" fill-opacity="1" /><path clip-path="url(#clip780)" d="M2583.28 1086.89 L2583.28 1091.57 L2539.22 1091.57 Q2539.84 1101.47 2545.15 1106.68 Q2550.52 1111.83 2560.05 1111.83 Q2565.57 1111.83 2570.73 1110.48 Q2575.94 1109.12 2581.04 1106.42 L2581.04 1115.48 Q2575.88 1117.67 2570.47 1118.81 Q2565.05 1119.96 2559.48 1119.96 Q2545.52 1119.96 2537.34 1111.83 Q2529.22 1103.71 2529.22 1089.85 Q2529.22 1075.53 2536.93 1067.15 Q2544.69 1058.71 2557.81 1058.71 Q2569.58 1058.71 2576.4 1066.31 Q2583.28 1073.86 2583.28 1086.89 M2573.7 1084.07 Q2573.59 1076.21 2569.27 1071.52 Q2565 1066.83 2557.92 1066.83 Q2549.89 1066.83 2545.05 1071.36 Q2540.26 1075.9 2539.53 1084.12 L2573.7 1084.07 Z" fill="#000000" fill-rule="nonzero" fill-opacity="1" /><path clip-path="url(#clip780)" d="M2655.94 1037.51 Q2648.96 1049.49 2645.57 1061.21 Q2642.19 1072.93 2642.19 1084.96 Q2642.19 1096.99 2645.57 1108.81 Q2649.01 1120.58 2655.94 1132.51 L2647.6 1132.51 Q2639.79 1120.27 2635.88 1108.45 Q2632.03 1096.62 2632.03 1084.96 Q2632.03 1073.34 2635.88 1061.57 Q2639.74 1049.8 2647.6 1037.51 L2655.94 1037.51 Z" fill="#000000" fill-rule="nonzero" fill-opacity="1" /><path clip-path="url(#clip780)" d="M2712.91 1068.97 L2712.91 1037.41 L2722.5 1037.41 L2722.5 1118.45 L2712.91 1118.45 L2712.91 1109.7 Q2709.89 1114.91 2705.26 1117.46 Q2700.67 1119.96 2694.22 1119.96 Q2683.64 1119.96 2676.98 1111.52 Q2670.36 1103.08 2670.36 1089.33 Q2670.36 1075.58 2676.98 1067.15 Q2683.64 1058.71 2694.22 1058.71 Q2700.67 1058.71 2705.26 1061.26 Q2709.89 1063.76 2712.91 1068.97 M2680.26 1089.33 Q2680.26 1099.91 2684.58 1105.95 Q2688.96 1111.94 2696.56 1111.94 Q2704.16 1111.94 2708.54 1105.95 Q2712.91 1099.91 2712.91 1089.33 Q2712.91 1078.76 2708.54 1072.77 Q2704.16 1066.73 2696.56 1066.73 Q2688.96 1066.73 2684.58 1072.77 Q2680.26 1078.76 2680.26 1089.33 Z" fill="#000000" fill-rule="nonzero" fill-opacity="1" /><path clip-path="url(#clip780)" d="M2768.75 1089.12 Q2757.13 1089.12 2752.65 1091.78 Q2748.17 1094.44 2748.17 1100.84 Q2748.17 1105.95 2751.51 1108.97 Q2754.89 1111.94 2760.67 1111.94 Q2768.64 1111.94 2773.43 1106.31 Q2778.28 1100.64 2778.28 1091.26 L2778.28 1089.12 L2768.75 1089.12 M2787.86 1085.17 L2787.86 1118.45 L2778.28 1118.45 L2778.28 1109.59 Q2775 1114.91 2770.1 1117.46 Q2765.21 1119.96 2758.12 1119.96 Q2749.16 1119.96 2743.85 1114.96 Q2738.59 1109.91 2738.59 1101.47 Q2738.59 1091.62 2745.15 1086.62 Q2751.77 1081.62 2764.84 1081.62 L2778.28 1081.62 L2778.28 1080.69 Q2778.28 1074.07 2773.9 1070.48 Q2769.58 1066.83 2761.72 1066.83 Q2756.72 1066.83 2751.98 1068.03 Q2747.24 1069.23 2742.86 1071.62 L2742.86 1062.77 Q2748.12 1060.74 2753.07 1059.75 Q2758.02 1058.71 2762.71 1058.71 Q2775.36 1058.71 2781.61 1065.27 Q2787.86 1071.83 2787.86 1085.17 Z" fill="#000000" fill-rule="nonzero" fill-opacity="1" /><path clip-path="url(#clip780)" d="M2831.87 1123.86 Q2827.81 1134.28 2823.96 1137.46 Q2820.1 1140.63 2813.64 1140.63 L2805.99 1140.63 L2805.99 1132.61 L2811.61 1132.61 Q2815.57 1132.61 2817.76 1130.74 Q2819.94 1128.86 2822.6 1121.88 L2824.32 1117.51 L2800.73 1060.11 L2810.88 1060.11 L2829.11 1105.74 L2847.34 1060.11 L2857.5 1060.11 L2831.87 1123.86 Z" fill="#000000" fill-rule="nonzero" fill-opacity="1" /><path clip-path="url(#clip780)" d="M2869.22 1037.51 L2877.55 1037.51 Q2885.36 1049.8 2889.22 1061.57 Q2893.12 1073.34 2893.12 1084.96 Q2893.12 1096.62 2889.22 1108.45 Q2885.36 1120.27 2877.55 1132.51 L2869.22 1132.51 Q2876.14 1120.58 2879.53 1108.81 Q2882.97 1096.99 2882.97 1084.96 Q2882.97 1072.93 2879.53 1061.21 Q2876.14 1049.49 2869.22 1037.51 Z" fill="#000000" fill-rule="nonzero" fill-opacity="1" /><polyline clip-path="url(#clip780)" style="stroke:#000000; stroke-linecap:round; stroke-linejoin:round; stroke-width:4; stroke-opacity:1; fill:none" points="467.969,849.455 467.969,47.2441 "/>
<polyline clip-path="url(#clip780)" style="stroke:#000000; stroke-linecap:round; stroke-linejoin:round; stroke-width:4; stroke-opacity:1; fill:none" points="467.969,762.2 486.867,762.2 "/>
<polyline clip-path="url(#clip780)" style="stroke:#000000; stroke-linecap:round; stroke-linejoin:round; stroke-width:4; stroke-opacity:1; fill:none" points="467.969,639.858 486.867,639.858 "/>
<polyline clip-path="url(#clip780)" style="stroke:#000000; stroke-linecap:round; stroke-linejoin:round; stroke-width:4; stroke-opacity:1; fill:none" points="467.969,517.516 486.867,517.516 "/>
<polyline clip-path="url(#clip780)" style="stroke:#000000; stroke-linecap:round; stroke-linejoin:round; stroke-width:4; stroke-opacity:1; fill:none" points="467.969,395.174 486.867,395.174 "/>
<polyline clip-path="url(#clip780)" style="stroke:#000000; stroke-linecap:round; stroke-linejoin:round; stroke-width:4; stroke-opacity:1; fill:none" points="467.969,272.832 486.867,272.832 "/>
<polyline clip-path="url(#clip780)" style="stroke:#000000; stroke-linecap:round; stroke-linejoin:round; stroke-width:4; stroke-opacity:1; fill:none" points="467.969,150.49 486.867,150.49 "/>
<path clip-path="url(#clip780)" d="M212.22 763.103 L271.572 763.103 L271.572 770.973 L212.22 770.973 L212.22 763.103 Z" fill="#000000" fill-rule="nonzero" fill-opacity="1" /><path clip-path="url(#clip780)" d="M317.451 735.788 L293.84 772.686 L317.451 772.686 L317.451 735.788 M314.998 727.64 L326.757 727.64 L326.757 772.686 L336.618 772.686 L336.618 780.464 L326.757 780.464 L326.757 796.76 L317.451 796.76 L317.451 780.464 L286.248 780.464 L286.248 771.436 L314.998 727.64 Z" fill="#000000" fill-rule="nonzero" fill-opacity="1" /><path clip-path="url(#clip780)" d="M372.081 733.797 Q364.859 733.797 361.201 740.927 Q357.59 748.01 357.59 762.27 Q357.59 776.482 361.201 783.612 Q364.859 790.695 372.081 790.695 Q379.349 790.695 382.96 783.612 Q386.618 776.482 386.618 762.27 Q386.618 748.01 382.96 740.927 Q379.349 733.797 372.081 733.797 M372.081 726.39 Q383.701 726.39 389.812 735.603 Q395.969 744.77 395.969 762.27 Q395.969 779.723 389.812 788.936 Q383.701 798.103 372.081 798.103 Q360.46 798.103 354.303 788.936 Q348.192 779.723 348.192 762.27 Q348.192 744.77 354.303 735.603 Q360.46 726.39 372.081 726.39 Z" fill="#000000" fill-rule="nonzero" fill-opacity="1" /><path clip-path="url(#clip780)" d="M212.22 640.761 L271.572 640.761 L271.572 648.631 L212.22 648.631 L212.22 640.761 Z" fill="#000000" fill-rule="nonzero" fill-opacity="1" /><path clip-path="url(#clip780)" d="M320.09 637.15 Q326.803 638.585 330.553 643.122 Q334.349 647.659 334.349 654.325 Q334.349 664.557 327.312 670.159 Q320.275 675.761 307.313 675.761 Q302.961 675.761 298.331 674.881 Q293.748 674.048 288.84 672.335 L288.84 663.307 Q292.729 665.575 297.359 666.733 Q301.989 667.89 307.035 667.89 Q315.831 667.89 320.414 664.418 Q325.044 660.946 325.044 654.325 Q325.044 648.214 320.738 644.789 Q316.479 641.316 308.84 641.316 L300.785 641.316 L300.785 633.631 L309.211 633.631 Q316.109 633.631 319.766 630.9 Q323.424 628.122 323.424 622.937 Q323.424 617.613 319.627 614.789 Q315.877 611.918 308.84 611.918 Q304.998 611.918 300.6 612.752 Q296.202 613.585 290.924 615.344 L290.924 607.011 Q296.248 605.529 300.877 604.789 Q305.553 604.048 309.674 604.048 Q320.322 604.048 326.525 608.909 Q332.729 613.724 332.729 621.965 Q332.729 627.705 329.442 631.687 Q326.155 635.622 320.09 637.15 Z" fill="#000000" fill-rule="nonzero" fill-opacity="1" /><path clip-path="url(#clip780)" d="M372.081 611.455 Q364.859 611.455 361.201 618.585 Q357.59 625.668 357.59 639.927 Q357.59 654.14 361.201 661.27 Q364.859 668.353 372.081 668.353 Q379.349 668.353 382.96 661.27 Q386.618 654.14 386.618 639.927 Q386.618 625.668 382.96 618.585 Q379.349 611.455 372.081 611.455 M372.081 604.048 Q383.701 604.048 389.812 613.261 Q395.969 622.428 395.969 639.927 Q395.969 657.381 389.812 666.594 Q383.701 675.761 372.081 675.761 Q360.46 675.761 354.303 666.594 Q348.192 657.381 348.192 639.927 Q348.192 622.428 354.303 613.261 Q360.46 604.048 372.081 604.048 Z" fill="#000000" fill-rule="nonzero" fill-opacity="1" /><path clip-path="url(#clip780)" d="M212.22 518.419 L271.572 518.419 L271.572 526.289 L212.22 526.289 L212.22 518.419 Z" fill="#000000" fill-rule="nonzero" fill-opacity="1" /><path clip-path="url(#clip780)" d="M299.813 544.206 L332.451 544.206 L332.451 552.076 L288.563 552.076 L288.563 544.206 Q293.887 538.696 303.053 529.437 Q312.266 520.132 314.627 517.446 Q319.118 512.4 320.877 508.928 Q322.683 505.409 322.683 502.03 Q322.683 496.521 318.794 493.048 Q314.951 489.576 308.748 489.576 Q304.35 489.576 299.442 491.104 Q294.581 492.632 289.026 495.734 L289.026 486.289 Q294.674 484.021 299.581 482.863 Q304.488 481.706 308.563 481.706 Q319.303 481.706 325.692 487.076 Q332.081 492.447 332.081 501.428 Q332.081 505.687 330.461 509.53 Q328.887 513.326 324.674 518.511 Q323.516 519.854 317.313 526.289 Q311.109 532.678 299.813 544.206 Z" fill="#000000" fill-rule="nonzero" fill-opacity="1" /><path clip-path="url(#clip780)" d="M372.081 489.113 Q364.859 489.113 361.201 496.243 Q357.59 503.326 357.59 517.585 Q357.59 531.798 361.201 538.928 Q364.859 546.011 372.081 546.011 Q379.349 546.011 382.96 538.928 Q386.618 531.798 386.618 517.585 Q386.618 503.326 382.96 496.243 Q379.349 489.113 372.081 489.113 M372.081 481.706 Q383.701 481.706 389.812 490.919 Q395.969 500.085 395.969 517.585 Q395.969 535.039 389.812 544.252 Q383.701 553.418 372.081 553.418 Q360.46 553.418 354.303 544.252 Q348.192 535.039 348.192 517.585 Q348.192 500.085 354.303 490.919 Q360.46 481.706 372.081 481.706 Z" fill="#000000" fill-rule="nonzero" fill-opacity="1" /><path clip-path="url(#clip780)" d="M212.22 396.077 L271.572 396.077 L271.572 403.947 L212.22 403.947 L212.22 396.077 Z" fill="#000000" fill-rule="nonzero" fill-opacity="1" /><path clip-path="url(#clip780)" d="M293.377 421.863 L308.655 421.863 L308.655 369.132 L292.035 372.466 L292.035 363.947 L308.563 360.614 L317.914 360.614 L317.914 421.863 L333.192 421.863 L333.192 429.734 L293.377 429.734 L293.377 421.863 Z" fill="#000000" fill-rule="nonzero" fill-opacity="1" /><path clip-path="url(#clip780)" d="M372.081 366.771 Q364.859 366.771 361.201 373.901 Q357.59 380.984 357.59 395.243 Q357.59 409.456 361.201 416.586 Q364.859 423.669 372.081 423.669 Q379.349 423.669 382.96 416.586 Q386.618 409.456 386.618 395.243 Q386.618 380.984 382.96 373.901 Q379.349 366.771 372.081 366.771 M372.081 359.364 Q383.701 359.364 389.812 368.577 Q395.969 377.743 395.969 395.243 Q395.969 412.697 389.812 421.91 Q383.701 431.076 372.081 431.076 Q360.46 431.076 354.303 421.91 Q348.192 412.697 348.192 395.243 Q348.192 377.743 354.303 368.577 Q360.46 359.364 372.081 359.364 Z" fill="#000000" fill-rule="nonzero" fill-opacity="1" /><path clip-path="url(#clip780)" d="M372.081 244.429 Q364.859 244.429 361.201 251.559 Q357.59 258.642 357.59 272.901 Q357.59 287.114 361.201 294.244 Q364.859 301.327 372.081 301.327 Q379.349 301.327 382.96 294.244 Q386.618 287.114 386.618 272.901 Q386.618 258.642 382.96 251.559 Q379.349 244.429 372.081 244.429 M372.081 237.022 Q383.701 237.022 389.812 246.235 Q395.969 255.401 395.969 272.901 Q395.969 290.355 389.812 299.568 Q383.701 308.734 372.081 308.734 Q360.46 308.734 354.303 299.568 Q348.192 290.355 348.192 272.901 Q348.192 255.401 354.303 246.235 Q360.46 237.022 372.081 237.022 Z" fill="#000000" fill-rule="nonzero" fill-opacity="1" /><path clip-path="url(#clip780)" d="M293.377 177.179 L308.655 177.179 L308.655 124.448 L292.035 127.781 L292.035 119.263 L308.563 115.93 L317.914 115.93 L317.914 177.179 L333.192 177.179 L333.192 185.05 L293.377 185.05 L293.377 177.179 Z" fill="#000000" fill-rule="nonzero" fill-opacity="1" /><path clip-path="url(#clip780)" d="M372.081 122.087 Q364.859 122.087 361.201 129.217 Q357.59 136.3 357.59 150.559 Q357.59 164.772 361.201 171.901 Q364.859 178.985 372.081 178.985 Q379.349 178.985 382.96 171.901 Q386.618 164.772 386.618 150.559 Q386.618 136.3 382.96 129.217 Q379.349 122.087 372.081 122.087 M372.081 114.68 Q383.701 114.68 389.812 123.892 Q395.969 133.059 395.969 150.559 Q395.969 168.013 389.812 177.226 Q383.701 186.392 372.081 186.392 Q360.46 186.392 354.303 177.226 Q348.192 168.013 348.192 150.559 Q348.192 133.059 354.303 123.892 Q360.46 114.68 372.081 114.68 Z" fill="#000000" fill-rule="nonzero" fill-opacity="1" /><path clip-path="url(#clip782)" d="M589.237 238.25 L606.08 303.368 L622.922 353.526 L639.765 391.301 L656.608 418.382 L673.451 436.262 L690.293 438.185 L707.136 430.235 L723.979 407.4 L740.821 384.724 L757.664 379.754 L774.507 385.313 L791.35 397.059 L808.192 413.296 L825.035 430.508 L841.878 446.422 L858.72 458.445 L875.563 469.096 L892.406 480.581 L909.249 497.314 L926.091 516.118 L942.934 535.684 L959.777 550.114 L976.619 560.557 L993.462 571.026 L1010.3 590.684 L1027.15 609.593 L1043.99 626.562 L1060.83 639.175 L1077.68 646.391 L1094.52 640.008 L1111.36 623.936 L1128.2 593.293 L1145.05 562.431 L1161.89 549.232 L1178.73 547.006 L1195.57 551.242 L1212.42 560.661 L1229.26 570.708 L1246.1 579.383 L1262.95 583.976 L1279.79 587.599 L1296.63 592.171 L1313.47 603.043 L1330.32 617.134 L1347.16 632.318 L1364 643.106 L1380.84 650.481 L1397.69 658.39 L1414.53 676.009 L1431.37 693.332 L1448.22 709.069 L1465.06 720.659 L1481.9 727.119 L1498.74 719.954 L1515.59 702.688 L1532.43 670.194 L1549.27 636.688 L1566.11 620.235 L1582.96 614.436 L1599.8 615.02 L1616.64 621.016 L1633.49 627.831 L1650.33 633.364 L1667.17 634.769 L1684.01 636.052 L1700.86 637.035 L1717.7 645.544 L1734.54 657.495 L1751.38 671.093 L1768.23 680.485 L1785.07 686.529 L1801.91 693.418 L1818.76 710.204 L1835.6 726.903 L1852.44 742.178 L1869.28 753.462 L1886.13 759.98 L1902.97 752.545 L1919.81 735.034 L1936.65 702.046 L1953.5 668.209 L1970.34 650.733 L1987.18 643.41 L2004.02 642.467 L2020.87 646.692 L2037.71 652.232 L2054.55 656.52 L2071.4 656.882 L2088.24 656.605 L2105.08 657.213 L2121.92 664.871 L2138.77 676.107 L2155.61 689.196 L2172.45 698.327 L2189.29 704.332 L2206.14 711.297 L2222.98 728.454 L2239.82 746.004 L2256.67 762.601 L2273.51 775.56 L2290.35 783.565 L2307.19 777.703 L2324.04 761.426 L2340.88 729.391 L2357.72 695.256 L2374.56 677.063 L2391.41 668.932 L2408.25 667.186 L2425.09 670.465 L2441.94 675.051 L2458.78 678.49 L2475.62 677.745 L2492.46 676.828 L2509.31 676.641 L2526.15 683.529 L2542.99 694.371 L2559.83 707.24 L2576.68 715.977 L2593.52 721.69 L2610.36 728.393 L2627.21 745.401 L2644.05 762.863 L2660.89 779.41 L2677.73 792.336 L2694.58 800.325 L2711.42 794.483 L2728.26 778.159 L2745.1 745.991 L2761.95 711.632 L2778.79 693.04 L2795.63 684.455 L2812.48 682.261 L2829.32 685.065 L2846.16 689.151 L2863 692.044 L2879.85 690.74 L2896.69 689.245 L2913.53 688.541 L2930.37 694.931 L2947.22 705.32 L2964.06 717.807 L2980.9 726.266 L2997.75 731.772 L3014.59 738.333 L3031.43 755.235 L3048.27 772.639 L3065.12 789.175 L3081.96 802.111 L3098.8 810.131 L3115.64 804.27 L3132.49 787.933 L3149.33 755.685 L3166.17 721.118 L3183.01 702.285 L3199.86 693.432 L3216.7 690.978 L3233.54 693.588 L3250.39 697.404 L3267.23 700.033 L3284.07 698.48 L3300.91 696.711 L3317.76 695.673 L3334.6 701.896 L3351.44 712.175 L3368.28 724.599 L3385.13 733.026 L3401.97 738.516 L3418.81 745.083 L3435.66 762.016 L3452.5 779.461 L3469.34 796.042 L3486.18 809.03 L3503.03 817.095 L3519.87 811.306 L3536.71 795.032 L3553.55 762.798 L3570.4 728.206 L3587.24 709.263 L3604.08 700.27 L3620.93 697.724 L3637.77 700.223 L3654.61 703.994 L3671.45 706.623 L3688.3 705.065 L3705.14 703.297 L3721.98 702.228 L3738.82 708.315 L3755.67 718.465 L3772.51 730.899 L3789.35 739.229 L3806.2 744.616 L3823.04 751.106 L3839.88 767.944 L3856.72 785.342 L3873.57 801.846 L3890.41 814.795 L3907.25 822.819 L3924.09 816.968 L3940.94 800.588 L3957.78 768.205 L3974.62 733.423 L3991.47 714.262 L4008.31 705.078 L4025.15 702.333 L4041.99 704.676 L4058.84 708.295 L4075.68 710.757 L4092.52 708.995 L4109.36 707.043 L4126.21 705.803 L4143.05 711.836 L4159.89 721.957 L4176.74 734.273 L4193.58 742.643 L4210.42 748.103 L4227.26 754.653 L4244.11 771.602 L4260.95 789.076 L4277.79 805.672 L4294.63 818.675 L4311.48 826.751 L4328.32 820.927 L4345.16 804.576 L4362 772.176 L4378.85 737.337 L4395.69 718.125 L4412.53 708.884 L4429.38 706.049 L4446.22 708.292 L4463.06 711.832 L4479.9 714.195 L4496.75 712.405 L4513.59 710.455 L4530.43 709.305 L4547.27 715.271 L4564.12 725.359 L4580.96 737.757 L4597.8 746.055 L4614.65 751.509 L4631.49 758.09 L4631.49 90.0698 L4614.65 99.9698 L4597.8 118.597 L4580.96 136.527 L4564.12 147.383 L4547.27 152.385 L4530.43 155.626 L4513.59 154.455 L4496.75 147.396 L4479.9 136.069 L4463.06 120.421 L4446.22 105.522 L4429.38 96.6714 L4412.53 97.6386 L4395.69 105.474 L4378.85 121.421 L4362 149.674 L4345.16 177.488 L4328.32 188.976 L4311.48 185.257 L4294.63 166.147 L4277.79 142.244 L4260.95 117.593 L4244.11 98.2098 L4227.26 89.2012 L4210.42 99.1157 L4193.58 117.761 L4176.74 135.693 L4159.89 146.571 L4143.05 151.752 L4126.21 154.81 L4109.36 154.245 L4092.52 146.824 L4075.68 135.432 L4058.84 119.868 L4041.99 104.984 L4025.15 96.1738 L4008.31 97.2014 L3991.47 105.286 L3974.62 120.925 L3957.78 149.039 L3940.94 176.362 L3924.09 187.782 L3907.25 184.143 L3890.41 165.064 L3873.57 141.211 L3856.72 116.59 L3839.88 97.2529 L3823.04 88.3042 L3806.2 98.3299 L3789.35 117.012 L3772.51 134.909 L3755.67 145.728 L3738.82 150.998 L3721.98 154.086 L3705.14 153.163 L3688.3 145.816 L3671.45 134.316 L3654.61 118.621 L3637.77 103.59 L3620.93 94.6175 L3604.08 95.4625 L3587.24 104.234 L3570.4 120.512 L3553.55 148.606 L3536.71 175.345 L3519.87 186.789 L3503.03 183.183 L3486.18 164.152 L3469.34 140.331 L3452.5 115.741 L3435.66 96.4224 L3418.81 87.4776 L3401.97 97.4972 L3385.13 116.166 L3368.28 134.025 L3351.44 144.781 L3334.6 149.835 L3317.76 153.01 L3300.91 152.378 L3284.07 144.805 L3267.23 133.473 L3250.39 117.577 L3233.54 102.622 L3216.7 93.7421 L3199.86 94.0883 L3183.01 103.267 L3166.17 118.421 L3149.33 147.199 L3132.49 173.756 L3115.64 185.519 L3098.8 182.035 L3081.96 163.062 L3065.12 139.293 L3048.27 114.763 L3031.43 95.4825 L3014.59 86.5388 L2997.75 96.4783 L2980.9 115.031 L2964.06 132.818 L2947.22 143.286 L2930.37 148.361 L2913.53 151.667 L2896.69 150.839 L2879.85 143.337 L2863 131.732 L2846.16 115.878 L2829.32 100.681 L2812.48 91.5465 L2795.63 92.2269 L2778.79 100.936 L2761.95 117.277 L2745.1 144.862 L2728.26 171.379 L2711.42 183.093 L2694.58 179.708 L2677.73 160.872 L2660.89 137.226 L2644.05 112.809 L2627.21 93.63 L2610.36 84.7739 L2593.52 94.7397 L2576.68 113.322 L2559.83 131.151 L2542.99 141.51 L2526.15 146.64 L2509.31 150.139 L2492.46 148.913 L2475.62 141.762 L2458.78 130.049 L2441.94 114.11 L2425.09 99.0189 L2408.25 89.2131 L2391.41 89.205 L2374.56 98.3401 L2357.72 114.279 L2340.88 141.986 L2324.04 168.607 L2307.19 180.409 L2290.35 177.108 L2273.51 158.306 L2256.67 134.674 L2239.82 110.271 L2222.98 91.09 L2206.14 82.2023 L2189.29 92.1973 L2172.45 110.786 L2155.61 128.601 L2138.77 138.679 L2121.92 143.84 L2105.08 147.548 L2088.24 146.357 L2071.4 139.036 L2054.55 127.23 L2037.71 111.08 L2020.87 95.5873 L2004.02 85.4445 L1987.18 85.5441 L1970.34 93.831 L1953.5 109.673 L1936.65 138.318 L1919.81 164.45 L1902.97 176.37 L1886.13 173.208 L1869.28 154.555 L1852.44 131.059 L1835.6 106.784 L1818.76 87.7183 L1801.91 78.8999 L1785.07 88.8352 L1768.23 107.335 L1751.38 125.02 L1734.54 135.183 L1717.7 140.405 L1700.86 144.087 L1684.01 142.998 L1667.17 135.374 L1650.33 123.387 L1633.49 106.879 L1616.64 91.05 L1599.8 80.6421 L1582.96 79.8458 L1566.11 87.7535 L1549.27 103.138 L1532.43 131.761 L1515.59 157.665 L1498.74 169.895 L1481.9 166.992 L1465.06 148.571 L1448.22 125.311 L1431.37 101.277 L1414.53 82.4392 L1397.69 73.6578 L1380.84 83.8208 L1364 102.723 L1347.16 120.318 L1330.32 130.078 L1313.47 135.392 L1296.63 139.054 L1279.79 138.199 L1262.95 130.429 L1246.1 118.282 L1229.26 101.536 L1212.42 85.3529 L1195.57 75.0533 L1178.73 74.4118 L1161.89 81.3634 L1145.05 96.3261 L1128.2 124.251 L1111.36 151.155 L1094.52 163.825 L1077.68 161.398 L1060.83 143.477 L1043.99 120.584 L1027.15 96.6511 L1010.3 78.0875 L993.462 69.9482 L976.619 80.8156 L959.777 100.149 L942.934 118.181 L926.091 128.673 L909.249 134.857 L892.406 139.539 L875.563 139.346 L858.72 133.721 L841.878 124.012 L825.035 110.773 L808.192 99.4522 L791.35 95.7566 L774.507 103.935 L757.664 122.202 L740.821 149.31 L723.979 185.872 L707.136 218.792 L690.293 235.072 L673.451 236.425 L656.608 222.708 L639.765 205.132 L622.922 184.668 L606.08 171.677 L589.237 171.893  Z" fill="#aeaeae" fill-rule="evenodd" fill-opacity="0.5"/>
<polyline clip-path="url(#clip782)" style="stroke:#aeaeae; stroke-linecap:round; stroke-linejoin:round; stroke-width:0; stroke-opacity:1; fill:none" points="589.237,235.497 606.08,245.049 622.922,256.142 639.765,267.856 656.608,278.122 673.451,285.594 690.293,285.011 707.136,277.836 723.979,261.848 740.821,244.607 757.664,235.005 774.507,230.222 791.35,229.351 808.192,232.312 825.035,237.131 841.878,241.952 858.72,244.565 875.563,245.678 892.406,244.866 909.249,244.503 926.091,244.063 942.934,243.026 959.777,239.324 976.619,234.853 993.462,233.076 1010.3,239.065 1027.15,248.189 1043.99,258.778 1060.83,268.476 1077.68,275.657 1094.52,275.011 1111.36,267.882 1128.2,252.505 1145.05,236.713 1161.89,229.071 1178.73,226.296 1195.57,227.244 1212.42,231.64 1229.26,237.558 1246.1,243.202 1262.95,246.407 1279.79,247.955 1296.63,247.433 1313.47,247.353 1330.32,247.144 1347.16,246.314 1364,242.824 1380.84,238.565 1397.69,236.998 1414.53,243.208 1431.37,252.565 1448.22,263.394 1465.06,273.325 1481.9,280.75 1498.74,280.318 1515.59,273.369 1532.43,258.021 1549.27,242.06 1566.11,234.121 1582.96,231.045 1599.8,231.717 1616.64,235.891 1633.49,241.614 1650.33,247.094 1667.17,250.158 1684.01,251.599 1700.86,251.017 1717.7,250.914 1734.54,250.696 1751.38,249.863 1768.23,246.382 1785.07,242.154 1801.91,240.631 1818.76,246.9 1835.6,256.333 1852.44,267.253 1869.28,277.281 1886.13,284.797 1902.97,284.457 1919.81,277.564 1936.65,262.171 1953.5,246.063 1970.34,237.888 1987.18,234.572 2004.02,235.002 2020.87,238.977 2037.71,244.539 2054.55,249.876 2071.4,252.836 2088.24,254.199 2105.08,253.565 2121.92,253.432 2138.77,253.191 2155.61,252.351 2172.45,248.878 2189.29,244.665 2206.14,243.168 2222.98,249.473 2239.82,258.953 2256.67,269.924 2273.51,280.014 2290.35,287.598 2307.19,287.315 2324.04,280.453 2340.88,265.064 2357.72,248.849 2374.56,240.528 2391.41,237.034 2408.25,237.304 2425.09,241.146 2441.94,246.592 2458.78,251.842 2475.62,254.725 2492.46,256.033 2509.31,255.372 2526.15,255.226 2542.99,254.979 2559.83,254.14 2576.68,250.678 2593.52,246.488 2610.36,245.01 2627.21,251.342 2644.05,260.856 2660.89,271.871 2677.73,281.999 2694.58,289.622 2711.42,289.377 2728.26,282.535 2745.1,267.129 2761.95,250.868 2778.79,242.439 2795.63,238.818 2812.48,238.982 2829.32,242.704 2846.16,248.07 2863,253.263 2879.85,256.089 2896.69,257.362 2913.53,256.676 2930.37,256.517 2947.22,256.273 2964.06,255.431 2980.9,251.981 2997.75,247.803 3014.59,246.343 3031.43,252.698 3048.27,262.239 3065.12,273.287 3081.96,283.448 3098.8,291.106 3115.64,290.894 3132.49,284.084 3149.33,268.681 3166.17,252.373 3183.01,243.851 3199.86,240.136 3216.7,240.208 3233.54,243.881 3250.39,249.179 3267.23,254.319 3284.07,257.112 3300.91,258.34 3317.76,257.641 3334.6,257.48 3351.44,257.24 3368.28,256.405 3385.13,252.964 3401.97,248.788 3418.81,247.342 3435.66,253.711 3452.5,263.27 3469.34,274.333 3486.18,284.519 3503.03,292.2 3519.87,292.01 3536.71,285.21 3553.55,269.79 3570.4,253.448 3587.24,244.868 3604.08,241.086 3620.93,241.105 3637.77,244.717 3654.61,249.98 3671.45,255.089 3688.3,257.853 3705.14,259.074 3721.98,258.361 3738.82,258.206 3755.67,257.959 3772.51,257.131 3789.35,253.691 3806.2,249.533 3823.04,248.094 3839.88,254.475 3856.72,264.046 3873.57,275.129 3890.41,285.327 3907.25,293.026 3924.09,292.854 3940.94,286.063 3957.78,270.627 3974.62,254.247 3991.47,245.613 4008.31,241.794 4025.15,241.752 4041.99,245.33 4058.84,250.563 4075.68,255.652 4092.52,258.385 4109.36,259.61 4126.21,258.897 4143.05,258.733 4159.89,258.491 4176.74,257.659 4193.58,254.234 4210.42,250.076 4227.26,248.645 4244.11,255.035 4260.95,264.616 4277.79,275.707 4294.63,285.921 4311.48,293.628 4328.32,293.463 4345.16,286.686 4362,271.255 4378.85,254.854 4395.69,246.191 4412.53,242.325 4429.38,242.253 4446.22,245.802 4463.06,251.012 4479.9,256.079 4496.75,258.806 4513.59,260.014 4530.43,259.299 4547.27,259.122 4564.12,258.885 4580.96,258.066 4597.8,254.642 4614.65,250.502 4631.49,249.078 "/>
<path clip-path="url(#clip782)" d="M589.237 217.12 L606.08 258.791 L622.922 294.222 L639.765 321.788 L656.608 344.333 L673.451 359.292 L690.293 360.646 L707.136 350.718 L723.979 323.107 L740.821 294.483 L757.664 281.372 L774.507 280.24 L791.35 284.022 L808.192 294.051 L825.035 304.741 L841.878 312.788 L858.72 315.104 L875.563 316.202 L892.406 315.403 L909.249 320.333 L926.091 326.541 L942.934 334.644 L959.777 336.59 L976.619 339.55 L993.462 343.705 L1010.3 358.36 L1027.15 374.067 L1043.99 390.226 L1060.83 406.993 L1077.68 414.418 L1094.52 408.949 L1111.36 393.596 L1128.2 361.692 L1145.05 330.143 L1161.89 317.672 L1178.73 313.272 L1195.57 315.934 L1212.42 323.733 L1229.26 330.399 L1246.1 335.831 L1262.95 338.032 L1279.79 338.606 L1296.63 337.006 L1313.47 339.988 L1330.32 346.629 L1347.16 352.363 L1364 354.84 L1380.84 357.262 L1397.69 363.075 L1414.53 378.554 L1431.37 394.442 L1448.22 410.373 L1465.06 427.004 L1481.9 435.026 L1498.74 430.5 L1515.59 415.627 L1532.43 384.447 L1549.27 352.281 L1566.11 335.975 L1582.96 331.303 L1599.8 332.481 L1616.64 338.867 L1633.49 347.39 L1650.33 351.46 L1667.17 351.648 L1684.01 349.848 L1700.86 348.384 L1717.7 350.874 L1734.54 355.848 L1751.38 362.881 L1768.23 368.547 L1785.07 369.619 L1801.91 373.082 L1818.76 388.387 L1835.6 405.747 L1852.44 423.649 L1869.28 438.425 L1886.13 446.864 L1902.97 443.751 L1919.81 430.251 L1936.65 399.712 L1953.5 367.096 L1970.34 350.113 L1987.18 344.479 L2004.02 344.41 L2020.87 347.441 L2037.71 354.834 L2054.55 360.322 L2071.4 359.454 L2088.24 356.692 L2105.08 354.23 L2121.92 357.614 L2138.77 364.533 L2155.61 372.571 L2172.45 376.65 L2189.29 378.791 L2206.14 382.996 L2222.98 397.856 L2239.82 414.24 L2256.67 430.465 L2273.51 443.562 L2290.35 454.782 L2307.19 452.249 L2324.04 438.187 L2340.88 406.942 L2357.72 374.118 L2374.56 357.411 L2391.41 352.025 L2408.25 353.248 L2425.09 358.249 L2441.94 362.255 L2458.78 365.749 L2475.62 365.928 L2492.46 363.677 L2509.31 361.535 L2526.15 364.479 L2542.99 369.262 L2559.83 377.41 L2576.68 381.9 L2593.52 383.476 L2610.36 387.564 L2627.21 402.388 L2644.05 417.909 L2660.89 432.856 L2677.73 449.063 L2694.58 461.556 L2711.42 457.936 L2728.26 442.92 L2745.1 411.835 L2761.95 379.252 L2778.79 362.35 L2795.63 355.69 L2812.48 357.242 L2829.32 363.159 L2846.16 368.457 L2863 371.101 L2879.85 370.584 L2896.69 369.157 L2913.53 368.132 L2930.37 369.127 L2947.22 373.548 L2964.06 381.27 L2980.9 384.405 L2997.75 385.709 L3014.59 390.023 L3031.43 404.636 L3048.27 420.227 L3065.12 437.562 L3081.96 453.818 L3098.8 465.642 L3115.64 461.197 L3132.49 446.282 L3149.33 414.538 L3166.17 383.285 L3183.01 366.172 L3199.86 358.476 L3216.7 358.723 L3233.54 365.471 L3250.39 371.492 L3267.23 374.541 L3284.07 373.869 L3300.91 372.739 L3317.76 371.363 L3334.6 373.544 L3351.44 378.622 L3368.28 384.381 L3385.13 386.659 L3401.97 388.136 L3418.81 391.577 L3435.66 406.387 L3452.5 423.395 L3469.34 442.215 L3486.18 457.523 L3503.03 468.013 L3519.87 464.408 L3536.71 449.303 L3553.55 418.232 L3570.4 385.978 L3587.24 370.215 L3604.08 362.466 L3620.93 361.491 L3637.77 367.766 L3654.61 372.424 L3671.45 376.017 L3688.3 375.928 L3705.14 374.202 L3721.98 373.299 L3738.82 376.515 L3755.67 381.607 L3772.51 387.302 L3789.35 388.703 L3806.2 390.552 L3823.04 394.294 L3839.88 409.554 L3856.72 426.889 L3873.57 444.727 L3890.41 459.402 L3907.25 469.699 L3924.09 466.918 L3940.94 451.614 L3957.78 421.26 L3974.62 388.978 L3991.47 372.455 L4008.31 365.485 L4025.15 363.771 L4041.99 368.044 L4058.84 373.483 L4075.68 376.626 L4092.52 376.681 L4109.36 375.506 L4126.21 374.215 L4143.05 377.773 L4159.89 382.683 L4176.74 388.997 L4193.58 390.766 L4210.42 392.334 L4227.26 396.737 L4244.11 412.194 L4260.95 429.365 L4277.79 446.698 L4294.63 461.487 L4311.48 471.05 L4328.32 468.44 L4345.16 453.75 L4362 423.401 L4378.85 391.625 L4395.69 374.514 L4412.53 367.164 L4429.38 365.599 L4446.22 369.208 L4463.06 374.33 L4479.9 377.834 L4496.75 377.398 L4513.59 376.278 L4530.43 374.58 L4547.27 378.596 L4564.12 384.16 L4580.96 390.393 L4597.8 392.714 L4614.65 394.294 L4631.49 398.526 L4631.49 113.696 L4614.65 123.545 L4597.8 141.716 L4580.96 159.399 L4564.12 169.031 L4547.27 173.804 L4530.43 176.952 L4513.59 177.398 L4496.75 170.634 L4479.9 159.932 L4463.06 144.152 L4446.22 128.773 L4429.38 120.828 L4412.53 122.785 L4395.69 132.24 L4378.85 147.758 L4362 177.142 L4345.16 205.242 L4328.32 217.403 L4311.48 214.39 L4294.63 194.644 L4277.79 169.695 L4260.95 143.932 L4244.11 122.924 L4227.26 113.072 L4210.42 123.069 L4193.58 141.203 L4176.74 158.773 L4159.89 168.751 L4143.05 173.241 L4126.21 176.709 L4109.36 176.685 L4092.52 170.204 L4075.68 159.378 L4058.84 143.662 L4041.99 128.08 L4025.15 120.192 L4008.31 121.97 L3991.47 131.189 L3974.62 147.203 L3957.78 175.666 L3940.94 204.594 L3924.09 216.502 L3907.25 213.349 L3890.41 193.815 L3873.57 168.929 L3856.72 143.385 L3839.88 122.157 L3823.04 112.314 L3806.2 122.393 L3789.35 140.652 L3772.51 158.048 L3755.67 168.112 L3738.82 172.554 L3721.98 175.946 L3705.14 176.076 L3688.3 169.883 L3671.45 158.888 L3654.61 142.783 L3637.77 127.042 L3620.93 119.165 L3604.08 120.718 L3587.24 130.392 L3570.4 145.689 L3553.55 174.351 L3536.71 203.294 L3519.87 215.246 L3503.03 211.949 L3486.18 192.306 L3469.34 167.777 L3452.5 141.808 L3435.66 121.076 L3418.81 111.259 L3401.97 120.636 L3385.13 139.515 L3368.28 156.607 L3351.44 166.641 L3334.6 171.533 L3317.76 175.046 L3300.91 174.887 L3284.07 168.888 L3267.23 157.951 L3250.39 141.793 L3233.54 126.083 L3216.7 117.996 L3199.86 119.181 L3183.01 129.045 L3166.17 144.334 L3149.33 172.939 L3132.49 201.939 L3115.64 213.457 L3098.8 210.526 L3081.96 190.444 L3065.12 165.666 L3048.27 140.168 L3031.43 119.926 L3014.59 109.779 L2997.75 119.333 L2980.9 137.707 L2964.06 155.28 L2947.22 165.184 L2930.37 170.438 L2913.53 173.552 L2896.69 173.706 L2879.85 167.571 L2863 156.502 L2846.16 140.292 L2829.32 124.592 L2812.48 116.371 L2795.63 117.408 L2778.79 127.202 L2761.95 142.11 L2745.1 170.712 L2728.26 198.953 L2711.42 210.723 L2694.58 208.053 L2677.73 188.583 L2660.89 163.281 L2644.05 138.16 L2627.21 117.856 L2610.36 107.655 L2593.52 117.57 L2576.68 135.657 L2559.83 153.358 L2542.99 163.213 L2526.15 168.512 L2509.31 171.269 L2492.46 171.318 L2475.62 165.814 L2458.78 154.79 L2441.94 138.281 L2425.09 122.676 L2408.25 114.424 L2391.41 114.957 L2374.56 124.094 L2357.72 139.096 L2340.88 167.88 L2324.04 196.174 L2307.19 207.717 L2290.35 205.079 L2273.51 185.871 L2256.67 160.381 L2239.82 135.565 L2222.98 114.735 L2206.14 104.956 L2189.29 114.873 L2172.45 133.16 L2155.61 150.971 L2138.77 160.794 L2121.92 165.835 L2105.08 168.605 L2088.24 168.598 L2071.4 162.833 L2054.55 152.237 L2037.71 135.611 L2020.87 120.575 L2004.02 111.438 L1987.18 111.235 L1970.34 120.579 L1953.5 135.593 L1936.65 163.722 L1919.81 192.026 L1902.97 203.286 L1886.13 201.001 L1869.28 182.034 L1852.44 157.028 L1835.6 131.593 L1818.76 110.704 L1801.91 100.878 L1785.07 111.3 L1768.23 129.948 L1751.38 146.951 L1734.54 157.229 L1717.7 161.918 L1700.86 163.98 L1684.01 164.395 L1667.17 159.064 L1650.33 148.704 L1633.49 132.194 L1616.64 116.834 L1599.8 107.147 L1582.96 107.257 L1566.11 115.032 L1549.27 129.527 L1532.43 157.387 L1515.59 185.452 L1498.74 197.044 L1481.9 194.715 L1465.06 176.161 L1448.22 151.44 L1431.37 125.937 L1414.53 105.252 L1397.69 95.7448 L1380.84 105.918 L1364 125.232 L1347.16 141.75 L1330.32 151.778 L1313.47 155.668 L1296.63 158.478 L1279.79 159.978 L1262.95 154.031 L1246.1 143.624 L1229.26 127.246 L1212.42 111.55 L1195.57 101.515 L1178.73 101.547 L1161.89 109.223 L1145.05 123.264 L1128.2 150.398 L1111.36 178.79 L1094.52 191.151 L1077.68 189.053 L1060.83 170.944 L1043.99 146.692 L1027.15 121.608 L1010.3 101.477 L993.462 92.2756 L976.619 103.634 L959.777 122.912 L942.934 141.265 L926.091 151.897 L909.249 156.77 L892.406 160.918 L875.563 161.238 L858.72 156.387 L841.878 147.892 L825.035 133.917 L808.192 122.037 L791.35 117.122 L774.507 124.804 L757.664 142.32 L740.821 167.757 L723.979 204.143 L707.136 236.788 L690.293 253.128 L673.451 254.422 L656.608 240.172 L639.765 219.507 L622.922 198.54 L606.08 184.852 L589.237 181.425  Z" fill="#757575" fill-rule="evenodd" fill-opacity="0.5"/>
<polyline clip-path="url(#clip782)" style="stroke:#757575; stroke-linecap:round; stroke-linejoin:round; stroke-width:0; stroke-opacity:1; fill:none" points="589.237,235.497 606.08,245.049 622.922,256.142 639.765,267.856 656.608,278.122 673.451,285.594 690.293,285.011 707.136,277.836 723.979,261.848 740.821,244.607 757.664,235.005 774.507,230.222 791.35,229.351 808.192,232.312 825.035,237.131 841.878,241.952 858.72,244.565 875.563,245.678 892.406,244.866 909.249,244.503 926.091,244.063 942.934,243.026 959.777,239.324 976.619,234.853 993.462,233.076 1010.3,239.065 1027.15,248.189 1043.99,258.778 1060.83,268.476 1077.68,275.657 1094.52,275.011 1111.36,267.882 1128.2,252.505 1145.05,236.713 1161.89,229.071 1178.73,226.296 1195.57,227.244 1212.42,231.64 1229.26,237.558 1246.1,243.202 1262.95,246.407 1279.79,247.955 1296.63,247.433 1313.47,247.353 1330.32,247.144 1347.16,246.314 1364,242.824 1380.84,238.565 1397.69,236.998 1414.53,243.208 1431.37,252.565 1448.22,263.394 1465.06,273.325 1481.9,280.75 1498.74,280.318 1515.59,273.369 1532.43,258.021 1549.27,242.06 1566.11,234.121 1582.96,231.045 1599.8,231.717 1616.64,235.891 1633.49,241.614 1650.33,247.094 1667.17,250.158 1684.01,251.599 1700.86,251.017 1717.7,250.914 1734.54,250.696 1751.38,249.863 1768.23,246.382 1785.07,242.154 1801.91,240.631 1818.76,246.9 1835.6,256.333 1852.44,267.253 1869.28,277.281 1886.13,284.797 1902.97,284.457 1919.81,277.564 1936.65,262.171 1953.5,246.063 1970.34,237.888 1987.18,234.572 2004.02,235.002 2020.87,238.977 2037.71,244.539 2054.55,249.876 2071.4,252.836 2088.24,254.199 2105.08,253.565 2121.92,253.432 2138.77,253.191 2155.61,252.351 2172.45,248.878 2189.29,244.665 2206.14,243.168 2222.98,249.473 2239.82,258.953 2256.67,269.924 2273.51,280.014 2290.35,287.598 2307.19,287.315 2324.04,280.453 2340.88,265.064 2357.72,248.849 2374.56,240.528 2391.41,237.034 2408.25,237.304 2425.09,241.146 2441.94,246.592 2458.78,251.842 2475.62,254.725 2492.46,256.033 2509.31,255.372 2526.15,255.226 2542.99,254.979 2559.83,254.14 2576.68,250.678 2593.52,246.488 2610.36,245.01 2627.21,251.342 2644.05,260.856 2660.89,271.871 2677.73,281.999 2694.58,289.622 2711.42,289.377 2728.26,282.535 2745.1,267.129 2761.95,250.868 2778.79,242.439 2795.63,238.818 2812.48,238.982 2829.32,242.704 2846.16,248.07 2863,253.263 2879.85,256.089 2896.69,257.362 2913.53,256.676 2930.37,256.517 2947.22,256.273 2964.06,255.431 2980.9,251.981 2997.75,247.803 3014.59,246.343 3031.43,252.698 3048.27,262.239 3065.12,273.287 3081.96,283.448 3098.8,291.106 3115.64,290.894 3132.49,284.084 3149.33,268.681 3166.17,252.373 3183.01,243.851 3199.86,240.136 3216.7,240.208 3233.54,243.881 3250.39,249.179 3267.23,254.319 3284.07,257.112 3300.91,258.34 3317.76,257.641 3334.6,257.48 3351.44,257.24 3368.28,256.405 3385.13,252.964 3401.97,248.788 3418.81,247.342 3435.66,253.711 3452.5,263.27 3469.34,274.333 3486.18,284.519 3503.03,292.2 3519.87,292.01 3536.71,285.21 3553.55,269.79 3570.4,253.448 3587.24,244.868 3604.08,241.086 3620.93,241.105 3637.77,244.717 3654.61,249.98 3671.45,255.089 3688.3,257.853 3705.14,259.074 3721.98,258.361 3738.82,258.206 3755.67,257.959 3772.51,257.131 3789.35,253.691 3806.2,249.533 3823.04,248.094 3839.88,254.475 3856.72,264.046 3873.57,275.129 3890.41,285.327 3907.25,293.026 3924.09,292.854 3940.94,286.063 3957.78,270.627 3974.62,254.247 3991.47,245.613 4008.31,241.794 4025.15,241.752 4041.99,245.33 4058.84,250.563 4075.68,255.652 4092.52,258.385 4109.36,259.61 4126.21,258.897 4143.05,258.733 4159.89,258.491 4176.74,257.659 4193.58,254.234 4210.42,250.076 4227.26,248.645 4244.11,255.035 4260.95,264.616 4277.79,275.707 4294.63,285.921 4311.48,293.628 4328.32,293.463 4345.16,286.686 4362,271.255 4378.85,254.854 4395.69,246.191 4412.53,242.325 4429.38,242.253 4446.22,245.802 4463.06,251.012 4479.9,256.079 4496.75,258.806 4513.59,260.014 4530.43,259.299 4547.27,259.122 4564.12,258.885 4580.96,258.066 4597.8,254.642 4614.65,250.502 4631.49,249.078 "/>
<path clip-path="url(#clip782)" d="M589.237 211.558 L606.08 246.884 L622.922 277.589 L639.765 304.918 L656.608 326.523 L673.451 342.816 L690.293 342.871 L707.136 330.979 L723.979 300.662 L740.821 269.839 L757.664 253.782 L774.507 249.665 L791.35 252.873 L808.192 261.09 L825.035 269.519 L841.878 275.454 L858.72 276.65 L875.563 276.779 L892.406 275.017 L909.249 280.012 L926.091 285.773 L942.934 291.7 L959.777 295.729 L976.619 297.739 L993.462 302.446 L1010.3 315.942 L1027.15 331.672 L1043.99 348.513 L1060.83 362.052 L1077.68 372.43 L1094.52 367.376 L1111.36 351.022 L1128.2 319.682 L1145.05 286.314 L1161.89 273.514 L1178.73 269.445 L1195.57 270.356 L1212.42 275.397 L1229.26 281.889 L1246.1 289.486 L1262.95 292.525 L1279.79 291.818 L1296.63 290.019 L1313.47 292.514 L1330.32 297.924 L1347.16 304.58 L1364 307.884 L1380.84 309.869 L1397.69 315.336 L1414.53 330.002 L1431.37 346.245 L1448.22 362.96 L1465.06 375.188 L1481.9 386.06 L1498.74 382.355 L1515.59 366.74 L1532.43 334.875 L1549.27 300.28 L1566.11 284.377 L1582.96 280.424 L1599.8 282.469 L1616.64 289.072 L1633.49 295.82 L1650.33 301.001 L1667.17 302.077 L1684.01 301.575 L1700.86 299.687 L1717.7 303.04 L1734.54 306.531 L1751.38 313.015 L1768.23 317.411 L1785.07 319.194 L1801.91 323.215 L1818.76 337.972 L1835.6 354.217 L1852.44 371.845 L1869.28 385.636 L1886.13 398.093 L1902.97 393.465 L1919.81 377.575 L1936.65 345.722 L1953.5 312.766 L1970.34 296.029 L1987.18 290.997 L2004.02 293.001 L2020.87 299.602 L2037.71 306.505 L2054.55 310.731 L2071.4 310.568 L2088.24 308.567 L2105.08 307.02 L2121.92 309.568 L2138.77 313.968 L2155.61 321.05 L2172.45 324.076 L2189.29 325.526 L2206.14 329.684 L2222.98 344.251 L2239.82 360.781 L2256.67 378.473 L2273.51 392.616 L2290.35 404.692 L2307.19 400.288 L2324.04 384.468 L2340.88 351.655 L2357.72 318.772 L2374.56 302.74 L2391.41 296.535 L2408.25 297.174 L2425.09 305.424 L2441.94 311.451 L2458.78 317.732 L2475.62 316.779 L2492.46 314.421 L2509.31 312.651 L2526.15 315.55 L2542.99 320.106 L2559.83 326.199 L2576.68 328.805 L2593.52 329.613 L2610.36 333.791 L2627.21 348.759 L2644.05 365.491 L2660.89 382.35 L2677.73 397.69 L2694.58 408.489 L2711.42 405.372 L2728.26 391.699 L2745.1 356.489 L2761.95 323.972 L2778.79 307.155 L2795.63 301.467 L2812.48 301.338 L2829.32 308.857 L2846.16 316.459 L2863 321.922 L2879.85 323.203 L2896.69 319.037 L2913.53 315.354 L2930.37 318.378 L2947.22 323.178 L2964.06 329.601 L2980.9 331.02 L2997.75 332.859 L3014.59 336.204 L3031.43 351.007 L3048.27 368.232 L3065.12 385.834 L3081.96 400.935 L3098.8 412.083 L3115.64 408.589 L3132.49 397.871 L3149.33 359.884 L3166.17 327.73 L3183.01 310.012 L3199.86 302.886 L3216.7 304.943 L3233.54 311.064 L3250.39 318.441 L3267.23 325.618 L3284.07 327.127 L3300.91 323.6 L3317.76 319.297 L3334.6 321.046 L3351.44 325.366 L3368.28 331.822 L3385.13 334.333 L3401.97 334.635 L3418.81 338.177 L3435.66 353.213 L3452.5 370.046 L3469.34 388.116 L3486.18 402.931 L3503.03 414.619 L3519.87 411.506 L3536.71 400.328 L3553.55 363.123 L3570.4 330.533 L3587.24 313.184 L3604.08 306.166 L3620.93 307.513 L3637.77 312.651 L3654.61 320.481 L3671.45 326.355 L3688.3 328.378 L3705.14 324.927 L3721.98 321.282 L3738.82 323.72 L3755.67 327.191 L3772.51 333.816 L3789.35 336.107 L3806.2 336.599 L3823.04 339.681 L3839.88 355.456 L3856.72 372.965 L3873.57 390.539 L3890.41 404.984 L3907.25 416.178 L3924.09 414.582 L3940.94 401.567 L3957.78 365.326 L3974.62 332.812 L3991.47 314.962 L4008.31 307.482 L4025.15 308.129 L4041.99 313.951 L4058.84 321.764 L4075.68 327.605 L4092.52 329.193 L4109.36 325.442 L4126.21 323.833 L4143.05 325.274 L4159.89 328.837 L4176.74 335.758 L4193.58 337.329 L4210.42 337.998 L4227.26 341.593 L4244.11 356.635 L4260.95 374.113 L4277.79 392.137 L4294.63 406.134 L4311.48 418.638 L4328.32 416.471 L4345.16 401.989 L4362 367.165 L4378.85 334.596 L4395.69 315.755 L4412.53 308.884 L4429.38 309.121 L4446.22 315.745 L4463.06 322.692 L4479.9 329.345 L4496.75 329.424 L4513.59 327.249 L4530.43 325.472 L4547.27 325.669 L4564.12 329.129 L4580.96 336.908 L4597.8 337.89 L4614.65 338.965 L4631.49 342.429 L4631.49 123.423 L4614.65 133.218 L4597.8 151.88 L4580.96 167.827 L4564.12 177.533 L4547.27 181.861 L4530.43 184.57 L4513.59 184.876 L4496.75 179.705 L4479.9 168.736 L4463.06 153.779 L4446.22 138.822 L4429.38 131.286 L4412.53 132.858 L4395.69 142.282 L4378.85 157.544 L4362 188.134 L4345.16 216.427 L4328.32 228.937 L4311.48 225.594 L4294.63 206.223 L4277.79 180.979 L4260.95 154.602 L4244.11 133.212 L4227.26 123.044 L4210.42 132.832 L4193.58 151.054 L4176.74 167.263 L4159.89 176.943 L4143.05 181.448 L4126.21 184.009 L4109.36 184.628 L4092.52 178.792 L4075.68 168.175 L4058.84 153.075 L4041.99 138.276 L4025.15 130.584 L4008.31 132.378 L3991.47 141.337 L3974.62 157.201 L3957.78 187.268 L3940.94 215.371 L3924.09 227.907 L3907.25 224.607 L3890.41 205.322 L3873.57 179.937 L3856.72 153.761 L3839.88 132.273 L3823.04 122.074 L3806.2 131.817 L3789.35 150.417 L3772.51 166.701 L3755.67 175.685 L3738.82 180.81 L3721.98 183.344 L3705.14 183.878 L3688.3 178.339 L3671.45 167.398 L3654.61 152.461 L3637.77 137.515 L3620.93 129.94 L3604.08 131.259 L3587.24 140.067 L3570.4 156.134 L3553.55 185.652 L3536.71 214.187 L3519.87 226.769 L3503.03 223.42 L3486.18 204.068 L3469.34 179.061 L3452.5 152.459 L3435.66 131.489 L3418.81 121.172 L3401.97 131.138 L3385.13 149.285 L3368.28 165.273 L3351.44 174.556 L3334.6 179.764 L3317.76 182.376 L3300.91 182.767 L3284.07 177.656 L3267.23 166.729 L3250.39 151.632 L3233.54 136.704 L3216.7 128.526 L3199.86 130.247 L3183.01 138.682 L3166.17 153.892 L3149.33 184.115 L3132.49 212.632 L3115.64 224.82 L3098.8 221.722 L3081.96 202.438 L3065.12 177.439 L3048.27 151.137 L3031.43 130.003 L3014.59 119.38 L2997.75 129.5 L2980.9 148.084 L2964.06 164.037 L2947.22 173.135 L2930.37 178.189 L2913.53 181.01 L2896.69 181.341 L2879.85 175.725 L2863 165.344 L2846.16 150.025 L2829.32 135.021 L2812.48 127.203 L2795.63 128.046 L2778.79 136.928 L2761.95 151.731 L2745.1 181.561 L2728.26 209.937 L2711.42 222.239 L2694.58 218.951 L2677.73 200.402 L2660.89 175.384 L2644.05 148.637 L2627.21 127.851 L2610.36 117.792 L2593.52 127.495 L2576.68 145.819 L2559.83 162.195 L2542.99 171.306 L2526.15 176.498 L2509.31 179.32 L2492.46 179.279 L2475.62 174.09 L2458.78 163.695 L2441.94 148.333 L2425.09 133.234 L2408.25 125.113 L2391.41 125.528 L2374.56 133.9 L2357.72 148.914 L2340.88 178.466 L2324.04 206.467 L2307.19 218.84 L2290.35 215.689 L2273.51 197.54 L2256.67 172.618 L2239.82 145.759 L2222.98 125.464 L2206.14 115.476 L2189.29 124.394 L2172.45 143.698 L2155.61 159.358 L2138.77 169.008 L2121.92 174.118 L2105.08 176.378 L2088.24 176.555 L2071.4 171.579 L2054.55 161.574 L2037.71 145.51 L2020.87 130.283 L2004.02 122.044 L1987.18 122.132 L1970.34 130.01 L1953.5 144.86 L1936.65 173.749 L1919.81 202.375 L1902.97 214.434 L1886.13 211.592 L1869.28 193.19 L1852.44 168.687 L1835.6 142.25 L1818.76 121.402 L1801.91 111.579 L1785.07 121.155 L1768.23 140.061 L1751.38 155.956 L1734.54 164.879 L1717.7 169.821 L1700.86 172.951 L1684.01 172.392 L1667.17 167.669 L1650.33 157.666 L1633.49 141.772 L1616.64 126.106 L1599.8 117.623 L1582.96 118.093 L1566.11 124.151 L1549.27 138.801 L1532.43 167.514 L1515.59 195.909 L1498.74 208.081 L1481.9 205.844 L1465.06 187.034 L1448.22 162.79 L1431.37 137.116 L1414.53 115.989 L1397.69 106.024 L1380.84 116.341 L1364 134.45 L1347.16 151.191 L1330.32 160.278 L1313.47 165.32 L1296.63 167.71 L1279.79 168.032 L1262.95 162.947 L1246.1 152.787 L1229.26 137.03 L1212.42 121.044 L1195.57 111.702 L1178.73 112.104 L1161.89 118.415 L1145.05 131.643 L1128.2 160.209 L1111.36 189.117 L1094.52 201.651 L1077.68 199.632 L1060.83 181.662 L1043.99 157.94 L1027.15 131.937 L1010.3 112.277 L993.462 103.352 L976.619 113.284 L959.777 132.728 L942.934 149.21 L926.091 159.308 L909.249 164.571 L892.406 168.078 L875.563 169.144 L858.72 165.472 L841.878 157.22 L825.035 143.603 L808.192 132.183 L791.35 127.976 L774.507 135.643 L757.664 150.628 L740.821 174.334 L723.979 210.342 L707.136 242.911 L690.293 257.89 L673.451 259.458 L656.608 244.996 L639.765 225.536 L622.922 204.453 L606.08 189.34 L589.237 184.545  Z" fill="#414141" fill-rule="evenodd" fill-opacity="0.5"/>
<polyline clip-path="url(#clip782)" style="stroke:#414141; stroke-linecap:round; stroke-linejoin:round; stroke-width:0; stroke-opacity:1; fill:none" points="589.237,235.497 606.08,245.049 622.922,256.142 639.765,267.856 656.608,278.122 673.451,285.594 690.293,285.011 707.136,277.836 723.979,261.848 740.821,244.607 757.664,235.005 774.507,230.222 791.35,229.351 808.192,232.312 825.035,237.131 841.878,241.952 858.72,244.565 875.563,245.678 892.406,244.866 909.249,244.503 926.091,244.063 942.934,243.026 959.777,239.324 976.619,234.853 993.462,233.076 1010.3,239.065 1027.15,248.189 1043.99,258.778 1060.83,268.476 1077.68,275.657 1094.52,275.011 1111.36,267.882 1128.2,252.505 1145.05,236.713 1161.89,229.071 1178.73,226.296 1195.57,227.244 1212.42,231.64 1229.26,237.558 1246.1,243.202 1262.95,246.407 1279.79,247.955 1296.63,247.433 1313.47,247.353 1330.32,247.144 1347.16,246.314 1364,242.824 1380.84,238.565 1397.69,236.998 1414.53,243.208 1431.37,252.565 1448.22,263.394 1465.06,273.325 1481.9,280.75 1498.74,280.318 1515.59,273.369 1532.43,258.021 1549.27,242.06 1566.11,234.121 1582.96,231.045 1599.8,231.717 1616.64,235.891 1633.49,241.614 1650.33,247.094 1667.17,250.158 1684.01,251.599 1700.86,251.017 1717.7,250.914 1734.54,250.696 1751.38,249.863 1768.23,246.382 1785.07,242.154 1801.91,240.631 1818.76,246.9 1835.6,256.333 1852.44,267.253 1869.28,277.281 1886.13,284.797 1902.97,284.457 1919.81,277.564 1936.65,262.171 1953.5,246.063 1970.34,237.888 1987.18,234.572 2004.02,235.002 2020.87,238.977 2037.71,244.539 2054.55,249.876 2071.4,252.836 2088.24,254.199 2105.08,253.565 2121.92,253.432 2138.77,253.191 2155.61,252.351 2172.45,248.878 2189.29,244.665 2206.14,243.168 2222.98,249.473 2239.82,258.953 2256.67,269.924 2273.51,280.014 2290.35,287.598 2307.19,287.315 2324.04,280.453 2340.88,265.064 2357.72,248.849 2374.56,240.528 2391.41,237.034 2408.25,237.304 2425.09,241.146 2441.94,246.592 2458.78,251.842 2475.62,254.725 2492.46,256.033 2509.31,255.372 2526.15,255.226 2542.99,254.979 2559.83,254.14 2576.68,250.678 2593.52,246.488 2610.36,245.01 2627.21,251.342 2644.05,260.856 2660.89,271.871 2677.73,281.999 2694.58,289.622 2711.42,289.377 2728.26,282.535 2745.1,267.129 2761.95,250.868 2778.79,242.439 2795.63,238.818 2812.48,238.982 2829.32,242.704 2846.16,248.07 2863,253.263 2879.85,256.089 2896.69,257.362 2913.53,256.676 2930.37,256.517 2947.22,256.273 2964.06,255.431 2980.9,251.981 2997.75,247.803 3014.59,246.343 3031.43,252.698 3048.27,262.239 3065.12,273.287 3081.96,283.448 3098.8,291.106 3115.64,290.894 3132.49,284.084 3149.33,268.681 3166.17,252.373 3183.01,243.851 3199.86,240.136 3216.7,240.208 3233.54,243.881 3250.39,249.179 3267.23,254.319 3284.07,257.112 3300.91,258.34 3317.76,257.641 3334.6,257.48 3351.44,257.24 3368.28,256.405 3385.13,252.964 3401.97,248.788 3418.81,247.342 3435.66,253.711 3452.5,263.27 3469.34,274.333 3486.18,284.519 3503.03,292.2 3519.87,292.01 3536.71,285.21 3553.55,269.79 3570.4,253.448 3587.24,244.868 3604.08,241.086 3620.93,241.105 3637.77,244.717 3654.61,249.98 3671.45,255.089 3688.3,257.853 3705.14,259.074 3721.98,258.361 3738.82,258.206 3755.67,257.959 3772.51,257.131 3789.35,253.691 3806.2,249.533 3823.04,248.094 3839.88,254.475 3856.72,264.046 3873.57,275.129 3890.41,285.327 3907.25,293.026 3924.09,292.854 3940.94,286.063 3957.78,270.627 3974.62,254.247 3991.47,245.613 4008.31,241.794 4025.15,241.752 4041.99,245.33 4058.84,250.563 4075.68,255.652 4092.52,258.385 4109.36,259.61 4126.21,258.897 4143.05,258.733 4159.89,258.491 4176.74,257.659 4193.58,254.234 4210.42,250.076 4227.26,248.645 4244.11,255.035 4260.95,264.616 4277.79,275.707 4294.63,285.921 4311.48,293.628 4328.32,293.463 4345.16,286.686 4362,271.255 4378.85,254.854 4395.69,246.191 4412.53,242.325 4429.38,242.253 4446.22,245.802 4463.06,251.012 4479.9,256.079 4496.75,258.806 4513.59,260.014 4530.43,259.299 4547.27,259.122 4564.12,258.885 4580.96,258.066 4597.8,254.642 4614.65,250.502 4631.49,249.078 "/>
<path clip-path="url(#clip780)" d="M3862.18 822.715 L4609.93 822.715 L4609.93 304.315 L3862.18 304.315  Z" fill="#ffffff" fill-rule="evenodd" fill-opacity="1"/>
<polyline clip-path="url(#clip780)" style="stroke:#000000; stroke-linecap:round; stroke-linejoin:round; stroke-width:4; stroke-opacity:1; fill:none" points="3862.18,822.715 4609.93,822.715 4609.93,304.315 3862.18,304.315 3862.18,822.715 "/>
<polyline clip-path="url(#clip780)" style="stroke:#aeaeae; stroke-linecap:round; stroke-linejoin:round; stroke-width:2; stroke-opacity:1; fill:none" points="3909.79,433.915 4195.44,433.915 "/>
<path clip-path="url(#clip780)" d="M4244.73 467.277 L4263.83 467.277 L4263.83 401.363 L4243.05 405.53 L4243.05 394.882 L4263.71 390.715 L4275.4 390.715 L4275.4 467.277 L4294.5 467.277 L4294.5 477.115 L4244.73 477.115 L4244.73 467.277 Z" fill="#000000" fill-rule="nonzero" fill-opacity="1" /><path clip-path="url(#clip780)" d="M4343.11 398.412 Q4334.08 398.412 4329.51 407.324 Q4325 416.178 4325 434.002 Q4325 451.768 4329.51 460.68 Q4334.08 469.534 4343.11 469.534 Q4352.19 469.534 4356.71 460.68 Q4361.28 451.768 4361.28 434.002 Q4361.28 416.178 4356.71 407.324 Q4352.19 398.412 4343.11 398.412 M4343.11 389.153 Q4357.63 389.153 4365.27 400.669 Q4372.97 412.127 4372.97 434.002 Q4372.97 455.819 4365.27 467.335 Q4357.63 478.793 4343.11 478.793 Q4328.58 478.793 4320.89 467.335 Q4313.25 455.819 4313.25 434.002 Q4313.25 412.127 4320.89 400.669 Q4328.58 389.153 4343.11 389.153 Z" fill="#000000" fill-rule="nonzero" fill-opacity="1" /><path clip-path="url(#clip780)" d="M4418.51 398.412 Q4409.49 398.412 4404.91 407.324 Q4400.4 416.178 4400.4 434.002 Q4400.4 451.768 4404.91 460.68 Q4409.49 469.534 4418.51 469.534 Q4427.6 469.534 4432.11 460.68 Q4436.69 451.768 4436.69 434.002 Q4436.69 416.178 4432.11 407.324 Q4427.6 398.412 4418.51 398.412 M4418.51 389.153 Q4433.04 389.153 4440.68 400.669 Q4448.37 412.127 4448.37 434.002 Q4448.37 455.819 4440.68 467.335 Q4433.04 478.793 4418.51 478.793 Q4403.99 478.793 4396.29 467.335 Q4388.65 455.819 4388.65 434.002 Q4388.65 412.127 4396.29 400.669 Q4403.99 389.153 4418.51 389.153 Z" fill="#000000" fill-rule="nonzero" fill-opacity="1" /><path clip-path="url(#clip780)" d="M4542.41 439.094 Q4537.38 439.094 4534.49 443.377 Q4531.65 447.659 4531.65 455.298 Q4531.65 462.821 4534.49 467.161 Q4537.38 471.444 4542.41 471.444 Q4547.33 471.444 4550.17 467.161 Q4553.06 462.821 4553.06 455.298 Q4553.06 447.717 4550.17 443.435 Q4547.33 439.094 4542.41 439.094 M4542.41 431.745 Q4551.56 431.745 4556.94 438.111 Q4562.32 444.476 4562.32 455.298 Q4562.32 466.12 4556.88 472.485 Q4551.5 478.793 4542.41 478.793 Q4533.15 478.793 4527.77 472.485 Q4522.39 466.12 4522.39 455.298 Q4522.39 444.418 4527.77 438.111 Q4533.21 431.745 4542.41 431.745 M4482.69 396.502 Q4477.71 396.502 4474.82 400.842 Q4471.99 405.125 4471.99 412.648 Q4471.99 420.287 4474.82 424.569 Q4477.66 428.851 4482.69 428.851 Q4487.73 428.851 4490.56 424.569 Q4493.46 420.287 4493.46 412.648 Q4493.46 405.183 4490.56 400.842 Q4487.67 396.502 4482.69 396.502 M4534.95 389.153 L4544.21 389.153 L4490.16 478.793 L4480.9 478.793 L4534.95 389.153 M4482.69 389.153 Q4491.84 389.153 4497.28 395.518 Q4502.71 401.826 4502.71 412.648 Q4502.71 423.585 4497.28 429.893 Q4491.89 436.201 4482.69 436.201 Q4473.49 436.201 4468.11 429.893 Q4462.78 423.527 4462.78 412.648 Q4462.78 401.884 4468.17 395.518 Q4473.55 389.153 4482.69 389.153 Z" fill="#000000" fill-rule="nonzero" fill-opacity="1" /><polyline clip-path="url(#clip780)" style="stroke:#757575; stroke-linecap:round; stroke-linejoin:round; stroke-width:2; stroke-opacity:1; fill:none" points="3909.79,563.515 4195.44,563.515 "/>
<path clip-path="url(#clip780)" d="M4248.61 604.921 L4248.61 594.273 Q4253.01 596.356 4257.52 597.456 Q4262.03 598.555 4266.37 598.555 Q4277.95 598.555 4284.02 590.801 Q4290.16 582.988 4291.03 567.132 Q4287.67 572.109 4282.52 574.771 Q4277.37 577.433 4271.12 577.433 Q4258.16 577.433 4250.57 569.62 Q4243.05 561.75 4243.05 548.151 Q4243.05 534.84 4250.92 526.797 Q4258.79 518.753 4271.87 518.753 Q4286.86 518.753 4294.73 530.269 Q4302.66 541.727 4302.66 563.602 Q4302.66 584.03 4292.94 596.241 Q4283.27 608.393 4266.89 608.393 Q4262.5 608.393 4257.98 607.525 Q4253.47 606.657 4248.61 604.921 M4271.87 568.289 Q4279.74 568.289 4284.31 562.907 Q4288.94 557.526 4288.94 548.151 Q4288.94 538.833 4284.31 533.452 Q4279.74 528.012 4271.87 528.012 Q4264 528.012 4259.37 533.452 Q4254.8 538.833 4254.8 548.151 Q4254.8 557.526 4259.37 562.907 Q4264 568.289 4271.87 568.289 Z" fill="#000000" fill-rule="nonzero" fill-opacity="1" /><path clip-path="url(#clip780)" d="M4348.66 528.012 Q4339.64 528.012 4335.07 536.924 Q4330.55 545.778 4330.55 563.602 Q4330.55 581.368 4335.07 590.28 Q4339.64 599.134 4348.66 599.134 Q4357.75 599.134 4362.26 590.28 Q4366.84 581.368 4366.84 563.602 Q4366.84 545.778 4362.26 536.924 Q4357.75 528.012 4348.66 528.012 M4348.66 518.753 Q4363.19 518.753 4370.83 530.269 Q4378.53 541.727 4378.53 563.602 Q4378.53 585.419 4370.83 596.935 Q4363.19 608.393 4348.66 608.393 Q4334.14 608.393 4326.44 596.935 Q4318.8 585.419 4318.8 563.602 Q4318.8 541.727 4326.44 530.269 Q4334.14 518.753 4348.66 518.753 Z" fill="#000000" fill-rule="nonzero" fill-opacity="1" /><path clip-path="url(#clip780)" d="M4472.56 568.694 Q4467.53 568.694 4464.64 572.977 Q4461.8 577.259 4461.8 584.898 Q4461.8 592.421 4464.64 596.761 Q4467.53 601.044 4472.56 601.044 Q4477.48 601.044 4480.32 596.761 Q4483.21 592.421 4483.21 584.898 Q4483.21 577.317 4480.32 573.035 Q4477.48 568.694 4472.56 568.694 M4472.56 561.345 Q4481.71 561.345 4487.09 567.711 Q4492.47 574.076 4492.47 584.898 Q4492.47 595.72 4487.03 602.085 Q4481.65 608.393 4472.56 608.393 Q4463.31 608.393 4457.92 602.085 Q4452.54 595.72 4452.54 584.898 Q4452.54 574.018 4457.92 567.711 Q4463.36 561.345 4472.56 561.345 M4412.84 526.102 Q4407.87 526.102 4404.97 530.442 Q4402.14 534.725 4402.14 542.248 Q4402.14 549.887 4404.97 554.169 Q4407.81 558.451 4412.84 558.451 Q4417.88 558.451 4420.71 554.169 Q4423.61 549.887 4423.61 542.248 Q4423.61 534.783 4420.71 530.442 Q4417.82 526.102 4412.84 526.102 M4465.1 518.753 L4474.36 518.753 L4420.31 608.393 L4411.05 608.393 L4465.1 518.753 M4412.84 518.753 Q4421.99 518.753 4427.43 525.118 Q4432.87 531.426 4432.87 542.248 Q4432.87 553.185 4427.43 559.493 Q4422.04 565.801 4412.84 565.801 Q4403.64 565.801 4398.26 559.493 Q4392.94 553.127 4392.94 542.248 Q4392.94 531.484 4398.32 525.118 Q4403.7 518.753 4412.84 518.753 Z" fill="#000000" fill-rule="nonzero" fill-opacity="1" /><polyline clip-path="url(#clip780)" style="stroke:#414141; stroke-linecap:round; stroke-linejoin:round; stroke-width:2; stroke-opacity:1; fill:none" points="3909.79,693.115 4195.44,693.115 "/>
<path clip-path="url(#clip780)" d="M4272.68 695.285 Q4264.35 695.285 4259.54 699.741 Q4254.8 704.197 4254.8 712.01 Q4254.8 719.822 4259.54 724.278 Q4264.35 728.734 4272.68 728.734 Q4281.01 728.734 4285.82 724.278 Q4290.62 719.764 4290.62 712.01 Q4290.62 704.197 4285.82 699.741 Q4281.07 695.285 4272.68 695.285 M4260.99 690.308 Q4253.47 688.457 4249.24 683.306 Q4245.08 678.156 4245.08 670.748 Q4245.08 660.39 4252.43 654.371 Q4259.83 648.353 4272.68 648.353 Q4285.59 648.353 4292.94 654.371 Q4300.29 660.39 4300.29 670.748 Q4300.29 678.156 4296.06 683.306 Q4291.89 688.457 4284.43 690.308 Q4292.88 692.276 4297.57 698.005 Q4302.31 703.734 4302.31 712.01 Q4302.31 724.567 4294.61 731.28 Q4286.98 737.993 4272.68 737.993 Q4258.39 737.993 4250.69 731.28 Q4243.05 724.567 4243.05 712.01 Q4243.05 703.734 4247.8 698.005 Q4252.54 692.276 4260.99 690.308 M4256.71 671.848 Q4256.71 678.561 4260.88 682.322 Q4265.1 686.084 4272.68 686.084 Q4280.2 686.084 4284.43 682.322 Q4288.71 678.561 4288.71 671.848 Q4288.71 665.135 4284.43 661.373 Q4280.2 657.612 4272.68 657.612 Q4265.1 657.612 4260.88 661.373 Q4256.71 665.135 4256.71 671.848 Z" fill="#000000" fill-rule="nonzero" fill-opacity="1" /><path clip-path="url(#clip780)" d="M4348.09 657.612 Q4339.06 657.612 4334.49 666.524 Q4329.97 675.378 4329.97 693.202 Q4329.97 710.968 4334.49 719.88 Q4339.06 728.734 4348.09 728.734 Q4357.17 728.734 4361.69 719.88 Q4366.26 710.968 4366.26 693.202 Q4366.26 675.378 4361.69 666.524 Q4357.17 657.612 4348.09 657.612 M4348.09 648.353 Q4362.61 648.353 4370.25 659.869 Q4377.95 671.327 4377.95 693.202 Q4377.95 715.019 4370.25 726.535 Q4362.61 737.993 4348.09 737.993 Q4333.56 737.993 4325.86 726.535 Q4318.23 715.019 4318.23 693.202 Q4318.23 671.327 4325.86 659.869 Q4333.56 648.353 4348.09 648.353 Z" fill="#000000" fill-rule="nonzero" fill-opacity="1" /><path clip-path="url(#clip780)" d="M4471.99 698.294 Q4466.95 698.294 4464.06 702.577 Q4461.22 706.859 4461.22 714.498 Q4461.22 722.021 4464.06 726.361 Q4466.95 730.644 4471.99 730.644 Q4476.9 730.644 4479.74 726.361 Q4482.63 722.021 4482.63 714.498 Q4482.63 706.917 4479.74 702.635 Q4476.9 698.294 4471.99 698.294 M4471.99 690.945 Q4481.13 690.945 4486.51 697.311 Q4491.89 703.676 4491.89 714.498 Q4491.89 725.32 4486.45 731.685 Q4481.07 737.993 4471.99 737.993 Q4462.73 737.993 4457.34 731.685 Q4451.96 725.32 4451.96 714.498 Q4451.96 703.618 4457.34 697.311 Q4462.78 690.945 4471.99 690.945 M4412.26 655.702 Q4407.29 655.702 4404.39 660.042 Q4401.56 664.325 4401.56 671.848 Q4401.56 679.487 4404.39 683.769 Q4407.23 688.051 4412.26 688.051 Q4417.3 688.051 4420.13 683.769 Q4423.03 679.487 4423.03 671.848 Q4423.03 664.383 4420.13 660.042 Q4417.24 655.702 4412.26 655.702 M4464.52 648.353 L4473.78 648.353 L4419.73 737.993 L4410.47 737.993 L4464.52 648.353 M4412.26 648.353 Q4421.41 648.353 4426.85 654.718 Q4432.29 661.026 4432.29 671.848 Q4432.29 682.785 4426.85 689.093 Q4421.47 695.401 4412.26 695.401 Q4403.06 695.401 4397.68 689.093 Q4392.36 682.727 4392.36 671.848 Q4392.36 661.084 4397.74 654.718 Q4403.12 648.353 4412.26 648.353 Z" fill="#000000" fill-rule="nonzero" fill-opacity="1" /></svg>
