<?xml version="1.0" encoding="utf-8"?>
<svg xmlns="http://www.w3.org/2000/svg" xmlns:xlink="http://www.w3.org/1999/xlink" width="1200" height="300" viewBox="0 0 4800 1200">
<defs>
  <clipPath id="clip570">
    <rect x="0" y="0" width="4800" height="1200"/>
  </clipPath>
</defs>
<path clip-path="url(#clip570)" d="M0 1200 L4800 1200 L4800 0 L0 0  Z" fill="#ffffff" fill-rule="evenodd" fill-opacity="1"/>
<defs>
  <clipPath id="clip571">
    <rect x="960" y="0" width="3361" height="1200"/>
  </clipPath>
</defs>
<path clip-path="url(#clip570)" d="M284.22 904.535 L4752.76 904.535 L4752.76 47.2441 L284.22 47.2441  Z" fill="#ffffff" fill-rule="evenodd" fill-opacity="1"/>
<defs>
  <clipPath id="clip572">
    <rect x="284" y="47" width="4470" height="858"/>
  </clipPath>
</defs>
<polyline clip-path="url(#clip572)" style="stroke:#000000; stroke-linecap:round; stroke-linejoin:round; stroke-width:2; stroke-opacity:0.1; fill:none" points="410.688,904.535 410.688,47.2441 "/>
<polyline clip-path="url(#clip572)" style="stroke:#000000; stroke-linecap:round; stroke-linejoin:round; stroke-width:2; stroke-opacity:0.1; fill:none" points="1253.81,904.535 1253.81,47.2441 "/>
<polyline clip-path="url(#clip572)" style="stroke:#000000; stroke-linecap:round; stroke-linejoin:round; stroke-width:2; stroke-opacity:0.1; fill:none" points="2096.93,904.535 2096.93,47.2441 "/>
<polyline clip-path="url(#clip572)" style="stroke:#000000; stroke-linecap:round; stroke-linejoin:round; stroke-width:2; stroke-opacity:0.1; fill:none" points="2940.05,904.535 2940.05,47.2441 "/>
<polyline clip-path="url(#clip572)" style="stroke:#000000; stroke-linecap:round; stroke-linejoin:round; stroke-width:2; stroke-opacity:0.1; fill:none" points="3783.17,904.535 3783.17,47.2441 "/>
<polyline clip-path="url(#clip572)" style="stroke:#000000; stroke-linecap:round; stroke-linejoin:round; stroke-width:2; stroke-opacity:0.1; fill:none" points="4626.29,904.535 4626.29,47.2441 "/>
<polyline clip-path="url(#clip572)" style="stroke:#000000; stroke-linecap:round; stroke-linejoin:round; stroke-width:2; stroke-opacity:0.1; fill:none" points="284.22,781.08 4752.76,781.08 "/>
<polyline clip-path="url(#clip572)" style="stroke:#000000; stroke-linecap:round; stroke-linejoin:round; stroke-width:2; stroke-opacity:0.1; fill:none" points="284.22,626.139 4752.76,626.139 "/>
<polyline clip-path="url(#clip572)" style="stroke:#000000; stroke-linecap:round; stroke-linejoin:round; stroke-width:2; stroke-opacity:0.1; fill:none" points="284.22,471.199 4752.76,471.199 "/>
<polyline clip-path="url(#clip572)" style="stroke:#000000; stroke-linecap:round; stroke-linejoin:round; stroke-width:2; stroke-opacity:0.1; fill:none" points="284.22,316.258 4752.76,316.258 "/>
<polyline clip-path="url(#clip572)" style="stroke:#000000; stroke-linecap:round; stroke-linejoin:round; stroke-width:2; stroke-opacity:0.1; fill:none" points="284.22,161.318 4752.76,161.318 "/>
<polyline clip-path="url(#clip570)" style="stroke:#000000; stroke-linecap:round; stroke-linejoin:round; stroke-width:4; stroke-opacity:1; fill:none" points="284.22,904.535 4752.76,904.535 "/>
<polyline clip-path="url(#clip570)" style="stroke:#000000; stroke-linecap:round; stroke-linejoin:round; stroke-width:4; stroke-opacity:1; fill:none" points="410.688,904.535 410.688,885.638 "/>
<polyline clip-path="url(#clip570)" style="stroke:#000000; stroke-linecap:round; stroke-linejoin:round; stroke-width:4; stroke-opacity:1; fill:none" points="1253.81,904.535 1253.81,885.638 "/>
<polyline clip-path="url(#clip570)" style="stroke:#000000; stroke-linecap:round; stroke-linejoin:round; stroke-width:4; stroke-opacity:1; fill:none" points="2096.93,904.535 2096.93,885.638 "/>
<polyline clip-path="url(#clip570)" style="stroke:#000000; stroke-linecap:round; stroke-linejoin:round; stroke-width:4; stroke-opacity:1; fill:none" points="2940.05,904.535 2940.05,885.638 "/>
<polyline clip-path="url(#clip570)" style="stroke:#000000; stroke-linecap:round; stroke-linejoin:round; stroke-width:4; stroke-opacity:1; fill:none" points="3783.17,904.535 3783.17,885.638 "/>
<polyline clip-path="url(#clip570)" style="stroke:#000000; stroke-linecap:round; stroke-linejoin:round; stroke-width:4; stroke-opacity:1; fill:none" points="4626.29,904.535 4626.29,885.638 "/>
<path clip-path="url(#clip570)" d="M410.688 966.373 Q403.466 966.373 399.809 973.502 Q396.198 980.586 396.198 994.845 Q396.198 1009.06 399.809 1016.19 Q403.466 1023.27 410.688 1023.27 Q417.957 1023.27 421.568 1016.19 Q425.225 1009.06 425.225 994.845 Q425.225 980.586 421.568 973.502 Q417.957 966.373 410.688 966.373 M410.688 958.965 Q422.309 958.965 428.42 968.178 Q434.577 977.345 434.577 994.845 Q434.577 1012.3 428.42 1021.51 Q422.309 1030.68 410.688 1030.68 Q399.068 1030.68 392.911 1021.51 Q386.8 1012.3 386.8 994.845 Q386.8 977.345 392.911 968.178 Q399.068 958.965 410.688 958.965 Z" fill="#000000" fill-rule="nonzero" fill-opacity="1" /><path clip-path="url(#clip570)" d="M1243.11 1021.47 L1275.75 1021.47 L1275.75 1029.34 L1231.86 1029.34 L1231.86 1021.47 Q1237.19 1015.96 1246.35 1006.7 Q1255.57 997.391 1257.93 994.706 Q1262.42 989.66 1264.18 986.188 Q1265.98 982.669 1265.98 979.289 Q1265.98 973.78 1262.1 970.308 Q1258.25 966.836 1252.05 966.836 Q1247.65 966.836 1242.74 968.364 Q1237.88 969.891 1232.33 972.993 L1232.33 963.549 Q1237.98 961.28 1242.88 960.123 Q1247.79 958.965 1251.86 958.965 Q1262.6 958.965 1268.99 964.336 Q1275.38 969.706 1275.38 978.688 Q1275.38 982.947 1273.76 986.789 Q1272.19 990.586 1267.97 995.771 Q1266.82 997.113 1260.61 1003.55 Q1254.41 1009.94 1243.11 1021.47 Z" fill="#000000" fill-rule="nonzero" fill-opacity="1" /><path clip-path="url(#clip570)" d="M2102.95 968.364 L2079.34 1005.26 L2102.95 1005.26 L2102.95 968.364 M2100.49 960.215 L2112.25 960.215 L2112.25 1005.26 L2122.11 1005.26 L2122.11 1013.04 L2112.25 1013.04 L2112.25 1029.34 L2102.95 1029.34 L2102.95 1013.04 L2071.74 1013.04 L2071.74 1004.01 L2100.49 960.215 Z" fill="#000000" fill-rule="nonzero" fill-opacity="1" /><path clip-path="url(#clip570)" d="M2940.86 991.049 Q2934.56 991.049 2930.86 995.354 Q2927.2 999.66 2927.2 1007.16 Q2927.2 1014.61 2930.86 1018.97 Q2934.56 1023.27 2940.86 1023.27 Q2947.15 1023.27 2950.81 1018.97 Q2954.52 1014.61 2954.52 1007.16 Q2954.52 999.66 2950.81 995.354 Q2947.15 991.049 2940.86 991.049 M2959.42 961.743 L2959.42 970.262 Q2955.9 968.595 2952.29 967.715 Q2948.73 966.836 2945.21 966.836 Q2935.95 966.836 2931.04 973.086 Q2926.18 979.336 2925.49 991.975 Q2928.22 987.947 2932.34 985.817 Q2936.46 983.641 2941.41 983.641 Q2951.83 983.641 2957.85 989.984 Q2963.91 996.28 2963.91 1007.16 Q2963.91 1017.81 2957.62 1024.24 Q2951.32 1030.68 2940.86 1030.68 Q2928.87 1030.68 2922.53 1021.51 Q2916.18 1012.3 2916.18 994.845 Q2916.18 978.456 2923.96 968.734 Q2931.74 958.965 2944.84 958.965 Q2948.36 958.965 2951.92 959.66 Q2955.53 960.354 2959.42 961.743 Z" fill="#000000" fill-rule="nonzero" fill-opacity="1" /><path clip-path="url(#clip570)" d="M3783.17 996.512 Q3776.5 996.512 3772.66 1000.08 Q3768.86 1003.64 3768.86 1009.89 Q3768.86 1016.14 3772.66 1019.71 Q3776.5 1023.27 3783.17 1023.27 Q3789.83 1023.27 3793.68 1019.71 Q3797.52 1016.09 3797.52 1009.89 Q3797.52 1003.64 3793.68 1000.08 Q3789.88 996.512 3783.17 996.512 M3773.82 992.53 Q3767.8 991.049 3764.42 986.928 Q3761.08 982.808 3761.08 976.882 Q3761.08 968.595 3766.96 963.78 Q3772.89 958.965 3783.17 958.965 Q3793.49 958.965 3799.37 963.78 Q3805.25 968.595 3805.25 976.882 Q3805.25 982.808 3801.87 986.928 Q3798.54 991.049 3792.57 992.53 Q3799.33 994.104 3803.08 998.687 Q3806.87 1003.27 3806.87 1009.89 Q3806.87 1019.94 3800.71 1025.31 Q3794.6 1030.68 3783.17 1030.68 Q3771.73 1030.68 3765.58 1025.31 Q3759.46 1019.94 3759.46 1009.89 Q3759.46 1003.27 3763.26 998.687 Q3767.06 994.104 3773.82 992.53 M3770.39 977.762 Q3770.39 983.132 3773.72 986.141 Q3777.1 989.15 3783.17 989.15 Q3789.19 989.15 3792.57 986.141 Q3795.99 983.132 3795.99 977.762 Q3795.99 972.391 3792.57 969.382 Q3789.19 966.373 3783.17 966.373 Q3777.1 966.373 3773.72 969.382 Q3770.39 972.391 3770.39 977.762 Z" fill="#000000" fill-rule="nonzero" fill-opacity="1" /><path clip-path="url(#clip570)" d="M4575.66 1021.47 L4590.94 1021.47 L4590.94 968.734 L4574.32 972.067 L4574.32 963.549 L4590.85 960.215 L4600.2 960.215 L4600.2 1021.47 L4615.48 1021.47 L4615.48 1029.34 L4575.66 1029.34 L4575.66 1021.47 Z" fill="#000000" fill-rule="nonzero" fill-opacity="1" /><path clip-path="url(#clip570)" d="M4654.37 966.373 Q4647.14 966.373 4643.49 973.502 Q4639.88 980.586 4639.88 994.845 Q4639.88 1009.06 4643.49 1016.19 Q4647.14 1023.27 4654.37 1023.27 Q4661.63 1023.27 4665.25 1016.19 Q4668.9 1009.06 4668.9 994.845 Q4668.9 980.586 4665.25 973.502 Q4661.63 966.373 4654.37 966.373 M4654.37 958.965 Q4665.99 958.965 4672.1 968.178 Q4678.26 977.345 4678.26 994.845 Q4678.26 1012.3 4672.1 1021.51 Q4665.99 1030.68 4654.37 1030.68 Q4642.75 1030.68 4636.59 1021.51 Q4630.48 1012.3 4630.48 994.845 Q4630.48 977.345 4636.59 968.178 Q4642.75 958.965 4654.37 958.965 Z" fill="#000000" fill-rule="nonzero" fill-opacity="1" /><path clip-path="url(#clip570)" d="M2235.73 1095.77 L2301.51 1095.77 L2301.51 1104.62 L2273.91 1104.62 L2273.91 1173.53 L2263.33 1173.53 L2263.33 1104.62 L2235.73 1104.62 L2235.73 1095.77 Z" fill="#000000" fill-rule="nonzero" fill-opacity="1" /><path clip-path="url(#clip570)" d="M2307.97 1115.19 L2317.55 1115.19 L2317.55 1173.53 L2307.97 1173.53 L2307.97 1115.19 M2307.97 1092.49 L2317.55 1092.49 L2317.55 1104.62 L2307.97 1104.62 L2307.97 1092.49 Z" fill="#000000" fill-rule="nonzero" fill-opacity="1" /><path clip-path="url(#clip570)" d="M2383.02 1126.39 Q2386.61 1119.93 2391.61 1116.86 Q2396.61 1113.79 2403.38 1113.79 Q2412.5 1113.79 2417.45 1120.19 Q2422.39 1126.55 2422.39 1138.32 L2422.39 1173.53 L2412.76 1173.53 L2412.76 1138.63 Q2412.76 1130.25 2409.79 1126.18 Q2406.82 1122.12 2400.73 1122.12 Q2393.28 1122.12 2388.96 1127.07 Q2384.63 1132.02 2384.63 1140.56 L2384.63 1173.53 L2375 1173.53 L2375 1138.63 Q2375 1130.19 2372.03 1126.18 Q2369.06 1122.12 2362.86 1122.12 Q2355.52 1122.12 2351.2 1127.12 Q2346.87 1132.07 2346.87 1140.56 L2346.87 1173.53 L2337.24 1173.53 L2337.24 1115.19 L2346.87 1115.19 L2346.87 1124.26 Q2350.16 1118.89 2354.74 1116.34 Q2359.32 1113.79 2365.62 1113.79 Q2371.98 1113.79 2376.41 1117.02 Q2380.88 1120.25 2383.02 1126.39 Z" fill="#000000" fill-rule="nonzero" fill-opacity="1" /><path clip-path="url(#clip570)" d="M2491.41 1141.97 L2491.41 1146.65 L2447.34 1146.65 Q2447.97 1156.55 2453.28 1161.76 Q2458.64 1166.91 2468.18 1166.91 Q2473.7 1166.91 2478.85 1165.56 Q2484.06 1164.2 2489.17 1161.5 L2489.17 1170.56 Q2484.01 1172.75 2478.59 1173.89 Q2473.18 1175.04 2467.6 1175.04 Q2453.64 1175.04 2445.47 1166.91 Q2437.34 1158.79 2437.34 1144.93 Q2437.34 1130.61 2445.05 1122.23 Q2452.81 1113.79 2465.94 1113.79 Q2477.71 1113.79 2484.53 1121.39 Q2491.41 1128.94 2491.41 1141.97 M2481.82 1139.15 Q2481.72 1131.29 2477.39 1126.6 Q2473.12 1121.91 2466.04 1121.91 Q2458.02 1121.91 2453.18 1126.44 Q2448.38 1130.98 2447.66 1139.2 L2481.82 1139.15 Z" fill="#000000" fill-rule="nonzero" fill-opacity="1" /><path clip-path="url(#clip570)" d="M2564.06 1092.59 Q2557.08 1104.57 2553.7 1116.29 Q2550.31 1128.01 2550.31 1140.04 Q2550.31 1152.07 2553.7 1163.89 Q2557.13 1175.66 2564.06 1187.59 L2555.73 1187.59 Q2547.92 1175.35 2544.01 1163.53 Q2540.15 1151.7 2540.15 1140.04 Q2540.15 1128.42 2544.01 1116.65 Q2547.86 1104.88 2555.73 1092.59 L2564.06 1092.59 Z" fill="#000000" fill-rule="nonzero" fill-opacity="1" /><path clip-path="url(#clip570)" d="M2621.04 1124.05 L2621.04 1092.49 L2630.62 1092.49 L2630.62 1173.53 L2621.04 1173.53 L2621.04 1164.78 Q2618.02 1169.99 2613.38 1172.54 Q2608.8 1175.04 2602.34 1175.04 Q2591.77 1175.04 2585.1 1166.6 Q2578.49 1158.16 2578.49 1144.41 Q2578.49 1130.66 2585.1 1122.23 Q2591.77 1113.79 2602.34 1113.79 Q2608.8 1113.79 2613.38 1116.34 Q2618.02 1118.84 2621.04 1124.05 M2588.38 1144.41 Q2588.38 1154.99 2592.71 1161.03 Q2597.08 1167.02 2604.69 1167.02 Q2612.29 1167.02 2616.66 1161.03 Q2621.04 1154.99 2621.04 1144.41 Q2621.04 1133.84 2616.66 1127.85 Q2612.29 1121.81 2604.69 1121.81 Q2597.08 1121.81 2592.71 1127.85 Q2588.38 1133.84 2588.38 1144.41 Z" fill="#000000" fill-rule="nonzero" fill-opacity="1" /><path clip-path="url(#clip570)" d="M2676.87 1144.2 Q2665.26 1144.2 2660.78 1146.86 Q2656.3 1149.52 2656.3 1155.92 Q2656.3 1161.03 2659.63 1164.05 Q2663.02 1167.02 2668.8 1167.02 Q2676.77 1167.02 2681.56 1161.39 Q2686.4 1155.72 2686.4 1146.34 L2686.4 1144.2 L2676.87 1144.2 M2695.99 1140.25 L2695.99 1173.53 L2686.4 1173.53 L2686.4 1164.67 Q2683.12 1169.99 2678.23 1172.54 Q2673.33 1175.04 2666.25 1175.04 Q2657.29 1175.04 2651.98 1170.04 Q2646.72 1164.99 2646.72 1156.55 Q2646.72 1146.7 2653.28 1141.7 Q2659.89 1136.7 2672.97 1136.7 L2686.4 1136.7 L2686.4 1135.77 Q2686.4 1129.15 2682.03 1125.56 Q2677.71 1121.91 2669.84 1121.91 Q2664.84 1121.91 2660.1 1123.11 Q2655.36 1124.31 2650.99 1126.7 L2650.99 1117.85 Q2656.25 1115.82 2661.2 1114.83 Q2666.14 1113.79 2670.83 1113.79 Q2683.49 1113.79 2689.74 1120.35 Q2695.99 1126.91 2695.99 1140.25 Z" fill="#000000" fill-rule="nonzero" fill-opacity="1" /><path clip-path="url(#clip570)" d="M2740 1178.94 Q2735.93 1189.36 2732.08 1192.54 Q2728.23 1195.71 2721.77 1195.71 L2714.11 1195.71 L2714.11 1187.69 L2719.74 1187.69 Q2723.7 1187.69 2725.88 1185.82 Q2728.07 1183.94 2730.73 1176.96 L2732.45 1172.59 L2708.85 1115.19 L2719.01 1115.19 L2737.24 1160.82 L2755.47 1115.19 L2765.62 1115.19 L2740 1178.94 Z" fill="#000000" fill-rule="nonzero" fill-opacity="1" /><path clip-path="url(#clip570)" d="M2777.34 1092.59 L2785.67 1092.59 Q2793.49 1104.88 2797.34 1116.65 Q2801.25 1128.42 2801.25 1140.04 Q2801.25 1151.7 2797.34 1163.53 Q2793.49 1175.35 2785.67 1187.59 L2777.34 1187.59 Q2784.27 1175.66 2787.65 1163.89 Q2791.09 1152.07 2791.09 1140.04 Q2791.09 1128.01 2787.65 1116.29 Q2784.27 1104.57 2777.34 1092.59 Z" fill="#000000" fill-rule="nonzero" fill-opacity="1" /><polyline clip-path="url(#clip570)" style="stroke:#000000; stroke-linecap:round; stroke-linejoin:round; stroke-width:4; stroke-opacity:1; fill:none" points="284.22,904.535 284.22,47.2441 "/>
<polyline clip-path="url(#clip570)" style="stroke:#000000; stroke-linecap:round; stroke-linejoin:round; stroke-width:4; stroke-opacity:1; fill:none" points="284.22,781.08 303.118,781.08 "/>
<polyline clip-path="url(#clip570)" style="stroke:#000000; stroke-linecap:round; stroke-linejoin:round; stroke-width:4; stroke-opacity:1; fill:none" points="284.22,626.139 303.118,626.139 "/>
<polyline clip-path="url(#clip570)" style="stroke:#000000; stroke-linecap:round; stroke-linejoin:round; stroke-width:4; stroke-opacity:1; fill:none" points="284.22,471.199 303.118,471.199 "/>
<polyline clip-path="url(#clip570)" style="stroke:#000000; stroke-linecap:round; stroke-linejoin:round; stroke-width:4; stroke-opacity:1; fill:none" points="284.22,316.258 303.118,316.258 "/>
<polyline clip-path="url(#clip570)" style="stroke:#000000; stroke-linecap:round; stroke-linejoin:round; stroke-width:4; stroke-opacity:1; fill:none" points="284.22,161.318 303.118,161.318 "/>
<path clip-path="url(#clip570)" d="M28.4715 781.983 L87.823 781.983 L87.823 789.853 L28.4715 789.853 L28.4715 781.983 Z" fill="#000000" fill-rule="nonzero" fill-opacity="1" /><path clip-path="url(#clip570)" d="M136.341 778.372 Q143.054 779.807 146.804 784.344 Q150.6 788.881 150.6 795.547 Q150.6 805.779 143.563 811.381 Q136.526 816.983 123.564 816.983 Q119.212 816.983 114.582 816.103 Q109.999 815.27 105.091 813.557 L105.091 804.529 Q108.98 806.797 113.61 807.955 Q118.239 809.112 123.286 809.112 Q132.082 809.112 136.665 805.64 Q141.295 802.168 141.295 795.547 Q141.295 789.436 136.989 786.01 Q132.73 782.538 125.091 782.538 L117.036 782.538 L117.036 774.853 L125.462 774.853 Q132.36 774.853 136.017 772.122 Q139.675 769.344 139.675 764.159 Q139.675 758.835 135.878 756.011 Q132.128 753.14 125.091 753.14 Q121.249 753.14 116.851 753.974 Q112.452 754.807 107.175 756.566 L107.175 748.233 Q112.499 746.751 117.128 746.011 Q121.804 745.27 125.925 745.27 Q136.573 745.27 142.776 750.131 Q148.98 754.946 148.98 763.187 Q148.98 768.927 145.693 772.909 Q142.406 776.844 136.341 778.372 Z" fill="#000000" fill-rule="nonzero" fill-opacity="1" /><path clip-path="url(#clip570)" d="M188.332 752.677 Q181.11 752.677 177.452 759.807 Q173.841 766.89 173.841 781.149 Q173.841 795.362 177.452 802.492 Q181.11 809.575 188.332 809.575 Q195.6 809.575 199.211 802.492 Q202.869 795.362 202.869 781.149 Q202.869 766.89 199.211 759.807 Q195.6 752.677 188.332 752.677 M188.332 745.27 Q199.952 745.27 206.063 754.483 Q212.22 763.649 212.22 781.149 Q212.22 798.603 206.063 807.816 Q199.952 816.983 188.332 816.983 Q176.711 816.983 170.554 807.816 Q164.443 798.603 164.443 781.149 Q164.443 763.649 170.554 754.483 Q176.711 745.27 188.332 745.27 Z" fill="#000000" fill-rule="nonzero" fill-opacity="1" /><path clip-path="url(#clip570)" d="M28.4715 627.042 L87.823 627.042 L87.823 634.912 L28.4715 634.912 L28.4715 627.042 Z" fill="#000000" fill-rule="nonzero" fill-opacity="1" /><path clip-path="url(#clip570)" d="M116.064 652.829 L148.702 652.829 L148.702 660.699 L104.814 660.699 L104.814 652.829 Q110.138 647.32 119.304 638.061 Q128.517 628.755 130.878 626.07 Q135.369 621.024 137.128 617.551 Q138.934 614.033 138.934 610.653 Q138.934 605.144 135.045 601.672 Q131.202 598.2 124.999 598.2 Q120.601 598.2 115.693 599.727 Q110.832 601.255 105.277 604.357 L105.277 594.913 Q110.925 592.644 115.832 591.487 Q120.739 590.329 124.814 590.329 Q135.554 590.329 141.943 595.7 Q148.332 601.07 148.332 610.051 Q148.332 614.311 146.712 618.153 Q145.137 621.95 140.925 627.135 Q139.767 628.477 133.563 634.912 Q127.36 641.301 116.064 652.829 Z" fill="#000000" fill-rule="nonzero" fill-opacity="1" /><path clip-path="url(#clip570)" d="M188.332 597.737 Q181.11 597.737 177.452 604.866 Q173.841 611.95 173.841 626.209 Q173.841 640.422 177.452 647.551 Q181.11 654.635 188.332 654.635 Q195.6 654.635 199.211 647.551 Q202.869 640.422 202.869 626.209 Q202.869 611.95 199.211 604.866 Q195.6 597.737 188.332 597.737 M188.332 590.329 Q199.952 590.329 206.063 599.542 Q212.22 608.709 212.22 626.209 Q212.22 643.662 206.063 652.875 Q199.952 662.042 188.332 662.042 Q176.711 662.042 170.554 652.875 Q164.443 643.662 164.443 626.209 Q164.443 608.709 170.554 599.542 Q176.711 590.329 188.332 590.329 Z" fill="#000000" fill-rule="nonzero" fill-opacity="1" /><path clip-path="url(#clip570)" d="M28.4715 472.102 L87.823 472.102 L87.823 479.972 L28.4715 479.972 L28.4715 472.102 Z" fill="#000000" fill-rule="nonzero" fill-opacity="1" /><path clip-path="url(#clip570)" d="M109.628 497.888 L124.906 497.888 L124.906 445.157 L108.286 448.491 L108.286 439.972 L124.814 436.639 L134.165 436.639 L134.165 497.888 L149.443 497.888 L149.443 505.759 L109.628 505.759 L109.628 497.888 Z" fill="#000000" fill-rule="nonzero" fill-opacity="1" /><path clip-path="url(#clip570)" d="M188.332 442.796 Q181.11 442.796 177.452 449.926 Q173.841 457.009 173.841 471.268 Q173.841 485.481 177.452 492.611 Q181.11 499.694 188.332 499.694 Q195.6 499.694 199.211 492.611 Q202.869 485.481 202.869 471.268 Q202.869 457.009 199.211 449.926 Q195.6 442.796 188.332 442.796 M188.332 435.389 Q199.952 435.389 206.063 444.602 Q212.22 453.768 212.22 471.268 Q212.22 488.722 206.063 497.935 Q199.952 507.101 188.332 507.101 Q176.711 507.101 170.554 497.935 Q164.443 488.722 164.443 471.268 Q164.443 453.768 170.554 444.602 Q176.711 435.389 188.332 435.389 Z" fill="#000000" fill-rule="nonzero" fill-opacity="1" /><path clip-path="url(#clip570)" d="M188.332 287.856 Q181.11 287.856 177.452 294.985 Q173.841 302.068 173.841 316.328 Q173.841 330.541 177.452 337.67 Q181.11 344.753 188.332 344.753 Q195.6 344.753 199.211 337.67 Q202.869 330.541 202.869 316.328 Q202.869 302.068 199.211 294.985 Q195.6 287.856 188.332 287.856 M188.332 280.448 Q199.952 280.448 206.063 289.661 Q212.22 298.828 212.22 316.328 Q212.22 333.781 206.063 342.994 Q199.952 352.161 188.332 352.161 Q176.711 352.161 170.554 342.994 Q164.443 333.781 164.443 316.328 Q164.443 298.828 170.554 289.661 Q176.711 280.448 188.332 280.448 Z" fill="#000000" fill-rule="nonzero" fill-opacity="1" /><path clip-path="url(#clip570)" d="M109.628 188.007 L124.906 188.007 L124.906 135.276 L108.286 138.609 L108.286 130.091 L124.814 126.758 L134.165 126.758 L134.165 188.007 L149.443 188.007 L149.443 195.878 L109.628 195.878 L109.628 188.007 Z" fill="#000000" fill-rule="nonzero" fill-opacity="1" /><path clip-path="url(#clip570)" d="M188.332 132.915 Q181.11 132.915 177.452 140.045 Q173.841 147.128 173.841 161.387 Q173.841 175.6 177.452 182.73 Q181.11 189.813 188.332 189.813 Q195.6 189.813 199.211 182.73 Q202.869 175.6 202.869 161.387 Q202.869 147.128 199.211 140.045 Q195.6 132.915 188.332 132.915 M188.332 125.508 Q199.952 125.508 206.063 134.721 Q212.22 143.887 212.22 161.387 Q212.22 178.841 206.063 188.054 Q199.952 197.22 188.332 197.22 Q176.711 197.22 170.554 188.054 Q164.443 178.841 164.443 161.387 Q164.443 143.887 170.554 134.721 Q176.711 125.508 188.332 125.508 Z" fill="#000000" fill-rule="nonzero" fill-opacity="1" /><path clip-path="url(#clip572)" d="M410.688 317.055 L428.253 365.709 L445.818 417.793 L463.383 473.997 L480.948 525.723 L498.513 567.991 L516.078 582.547 L533.643 579.074 L551.208 530.976 L568.773 464.651 L586.338 421.17 L603.903 393.569 L621.468 384.784 L639.033 396.11 L656.598 417.766 L674.163 436.513 L691.728 452.152 L709.293 464.681 L726.858 468.872 L744.423 471.319 L761.988 474.409 L779.553 490.733 L797.118 502.835 L814.683 512.397 L832.248 531.405 L849.813 576.098 L867.378 627.222 L884.943 681.676 L902.508 732.355 L920.073 773.935 L937.638 785.307 L955.203 770.733 L972.768 708.8 L990.333 625.448 L1007.9 563.49 L1025.46 517.23 L1043.03 495.022 L1060.59 505.753 L1078.16 518.407 L1095.72 530.009 L1113.29 536.609 L1130.85 542.901 L1148.42 547.227 L1165.98 558.88 L1183.55 573.148 L1201.11 588.658 L1218.68 598.745 L1236.24 604.888 L1253.81 612.468 L1271.37 632.847 L1288.94 671.016 L1306.5 725.732 L1324.07 776.726 L1341.63 818.581 L1359.2 829.874 L1376.76 814.878 L1394.33 750.858 L1411.89 663.722 L1429.46 597.689 L1447.02 573.518 L1464.59 574.573 L1482.15 582.689 L1499.72 593.171 L1517.28 602.575 L1534.85 607.03 L1552.41 610.31 L1569.98 612.873 L1587.54 623.091 L1605.11 635.992 L1622.67 650.712 L1640.24 659.829 L1657.8 664.932 L1675.37 671.668 L1692.93 691.449 L1710.5 712.33 L1728.06 740.398 L1745.63 791.667 L1763.19 833.733 L1780.76 845.205 L1798.32 830.683 L1815.89 766.359 L1833.45 678.086 L1851.02 637.35 L1868.58 627.762 L1886.15 627.094 L1903.71 633.959 L1921.28 643.065 L1938.84 651.057 L1956.41 654.032 L1973.97 656.303 L1991.54 657.079 L2009.1 665.466 L2026.67 677.416 L2044.23 690.957 L2061.8 699.622 L2079.36 703.936 L2096.93 709.705 L2114.49 728.965 L2132.06 749.479 L2149.62 769.374 L2167.19 799.509 L2184.75 841.759 L2202.32 853.86 L2219.88 838.682 L2237.45 774.156 L2255.01 695.639 L2272.58 672.8 L2290.14 662.279 L2307.71 660.72 L2325.27 666.691 L2342.84 674.823 L2360.4 682.019 L2377.97 684.119 L2395.53 685.625 L2413.1 685.881 L2430.66 693.715 L2448.23 705.054 L2465.79 718.101 L2483.36 726.358 L2500.92 730.303 L2518.49 735.88 L2536.05 754.833 L2553.62 775.202 L2571.18 795.386 L2588.75 811.546 L2606.31 847.575 L2623.88 859.148 L2641.44 844.801 L2659.01 780.538 L2676.57 721.378 L2694.14 698.007 L2711.7 687.015 L2729.27 684.836 L2746.83 690.199 L2764.4 697.911 L2781.96 704.56 L2799.53 706.184 L2817.09 706.768 L2834.66 707.329 L2852.22 714.793 L2869.79 725.814 L2887.35 738.667 L2904.92 746.785 L2922.48 750.691 L2940.05 756.27 L2957.61 775.257 L2975.18 795.681 L2992.74 815.933 L3010.31 832.156 L3027.87 854.208 L3045.44 865.808 L3063 851.36 L3080.57 786.95 L3098.13 741.978 L3115.7 718.251 L3133.26 706.832 L3150.83 704.14 L3168.39 709.13 L3185.96 716.284 L3203.52 722.445 L3221.09 723.638 L3238.65 723.744 L3256.22 723.509 L3273.78 730.813 L3291.35 741.841 L3308.91 754.658 L3326.48 762.796 L3344.04 766.85 L3361.61 772.456 L3379.17 791.451 L3396.74 811.879 L3414.3 832.134 L3431.87 848.482 L3449.43 859.331 L3467 869.485 L3484.56 855.328 L3502.13 799.92 L3519.69 757.925 L3537.26 733.833 L3554.82 722.112 L3572.39 719.415 L3589.95 723.792 L3607.52 730.558 L3625.08 736.405 L3642.65 737.213 L3660.21 736.741 L3677.78 736.536 L3695.34 743.585 L3712.91 754.243 L3730.47 766.967 L3748.04 775.032 L3765.6 779.141 L3783.17 784.722 L3800.73 803.807 L3818.3 824.346 L3835.86 844.634 L3853.43 861.135 L3870.99 872.158 L3888.56 873.437 L3906.12 858.425 L3923.69 812.521 L3941.25 770.309 L3958.82 746.009 L3976.38 733.918 L3993.95 730.514 L4011.51 734.808 L4029.08 741.286 L4046.64 746.77 L4064.21 747.26 L4081.77 747.1 L4099.34 745.824 L4116.9 752.789 L4134.47 763.331 L4152.03 776.076 L4169.6 783.329 L4187.16 787.598 L4204.73 793.122 L4222.29 812.155 L4239.86 832.784 L4257.42 852.982 L4274.99 869.202 L4292.55 880.272 L4310.12 875.407 L4327.68 860.699 L4345.25 820.72 L4362.81 778.514 L4380.38 754.093 L4397.94 741.952 L4415.51 738.521 L4433.07 742.498 L4450.64 748.845 L4468.2 754.254 L4485.77 754.729 L4503.33 754.121 L4520.9 753.433 L4538.46 759.966 L4556.03 770.51 L4573.59 783.038 L4591.16 790.979 L4608.72 794.986 L4626.29 800.599 L4626.29 109.102 L4608.72 119.511 L4591.16 140.727 L4573.59 161.419 L4556.03 163.846 L4538.46 166.47 L4520.9 170.088 L4503.33 177.572 L4485.77 182.289 L4468.2 178.188 L4450.64 153.733 L4433.07 130.115 L4415.51 115.516 L4397.94 116.065 L4380.38 132.2 L4362.81 160.375 L4345.25 205.558 L4327.68 241.861 L4310.12 250.427 L4292.55 242.182 L4274.99 215.328 L4257.42 182.672 L4239.86 148.935 L4222.29 121.75 L4204.73 107.258 L4187.16 117.278 L4169.6 138.45 L4152.03 156.856 L4134.47 159.213 L4116.9 161.73 L4099.34 165.164 L4081.77 172.371 L4064.21 176.769 L4046.64 177.078 L4029.08 152.645 L4011.51 129.028 L3993.95 114.393 L3976.38 114.848 L3958.82 130.82 L3941.25 159.134 L3923.69 203.393 L3906.12 237.466 L3888.56 246.082 L3870.99 237.893 L3853.43 211.135 L3835.86 178.554 L3818.3 144.892 L3800.73 117.786 L3783.17 103.377 L3765.6 113.491 L3748.04 134.772 L3730.47 151.614 L3712.91 153.84 L3695.34 156.132 L3677.78 159.388 L3660.21 166.532 L3642.65 170.905 L3625.08 172.836 L3607.52 150.837 L3589.95 127.151 L3572.39 112.729 L3554.82 113.48 L3537.26 128.89 L3519.69 157.278 L3502.13 199.115 L3484.56 233.2 L3467 241.931 L3449.43 233.865 L3431.87 207.213 L3414.3 174.742 L3396.74 141.197 L3379.17 114.192 L3361.61 99.8716 L3344.04 110.012 L3326.48 131.291 L3308.91 144.02 L3291.35 146.198 L3273.78 148.498 L3256.22 151.592 L3238.65 158.54 L3221.09 162.721 L3203.52 164.709 L3185.96 148.723 L3168.39 125.008 L3150.83 110.223 L3133.26 110.351 L3115.7 125.922 L3098.13 153.922 L3080.57 193.707 L3063 228.055 L3045.44 236.904 L3027.87 228.927 L3010.31 202.329 L2992.74 169.903 L2975.18 136.353 L2957.61 109.308 L2940.05 94.9355 L2922.48 105.018 L2904.92 126.296 L2887.35 136.435 L2869.79 138.509 L2852.22 140.74 L2834.66 143.783 L2817.09 150.671 L2799.53 154.876 L2781.96 156.428 L2764.4 146.589 L2746.83 122.924 L2729.27 108.118 L2711.7 108.587 L2694.14 124.19 L2676.57 148.002 L2659.01 185.866 L2641.44 220.14 L2623.88 229.121 L2606.31 221.331 L2588.75 194.929 L2571.18 162.68 L2553.62 129.342 L2536.05 102.511 L2518.49 88.3229 L2500.92 98.5661 L2483.36 119.786 L2465.79 126.34 L2448.23 128.118 L2430.66 129.861 L2413.1 132.511 L2395.53 139.093 L2377.97 142.956 L2360.4 144.712 L2342.84 137.817 L2325.27 120.033 L2307.71 105.144 L2290.14 105.462 L2272.58 120.473 L2255.01 141.167 L2237.45 178.12 L2219.88 211.601 L2202.32 220.109 L2184.75 214.247 L2167.19 188.005 L2149.62 155.904 L2132.06 122.663 L2114.49 95.9031 L2096.93 81.7369 L2079.36 91.9388 L2061.8 108.835 L2044.23 115.541 L2026.67 117.442 L2009.1 119.301 L1991.54 121.97 L1973.97 128.431 L1956.41 132.242 L1938.84 133.95 L1921.28 126.813 L1903.71 115.248 L1886.15 100.509 L1868.58 100.482 L1851.02 108.979 L1833.45 131.416 L1815.89 168.449 L1798.32 200.754 L1780.76 209.604 L1763.19 204.449 L1745.63 179.585 L1728.06 147.826 L1710.5 114.933 L1692.93 88.4989 L1675.37 74.6582 L1657.8 85.1854 L1640.24 100.968 L1622.67 107.901 L1605.11 110.024 L1587.54 112.114 L1569.98 114.924 L1552.41 121.658 L1534.85 125.699 L1517.28 127.702 L1499.72 120.567 L1482.15 109.373 L1464.59 94.8901 L1447.02 94.7953 L1429.46 103.093 L1411.89 124.933 L1394.33 161.845 L1376.76 196.224 L1359.2 205.752 L1341.63 200.086 L1324.07 174.621 L1306.5 143.294 L1288.94 110.843 L1271.37 84.8767 L1253.81 71.5071 L1236.24 82.4902 L1218.68 103.301 L1201.11 111.191 L1183.55 114.269 L1165.98 117.452 L1148.42 121.446 L1130.85 127.088 L1113.29 129.886 L1095.72 131.635 L1078.16 128.141 L1060.59 113.265 L1043.03 98.2206 L1025.46 99.523 L1007.9 113.217 L990.333 137.131 L972.768 176.393 L955.203 212.328 L937.638 223.173 L920.073 217.32 L902.508 192.895 L884.943 162.685 L867.378 131.424 L849.813 106.269 L832.248 93.3744 L814.683 107.46 L797.118 131.504 L779.553 152.838 L761.988 159.262 L744.423 158.122 L726.858 158.494 L709.293 165.435 L691.728 171.899 L674.163 177.385 L656.598 167.033 L639.033 151.121 L621.468 145.467 L603.903 156.897 L586.338 184.872 L568.773 225.248 L551.208 273.158 L533.643 316.622 L516.078 336.963 L498.513 341.251 L480.948 326.503 L463.383 305.907 L445.818 279.565 L428.253 258.03 L410.688 251.398  Z" fill="#414141" fill-rule="evenodd" fill-opacity="0.5"/>
<polyline clip-path="url(#clip572)" style="stroke:#414141; stroke-linecap:round; stroke-linejoin:round; stroke-width:0; stroke-opacity:1; fill:none" points="410.688,295.829 428.253,305.349 445.818,318.804 463.383,334.233 480.948,348.55 498.513,359.899 516.078,360.957 533.643,353.329 551.208,332.267 568.773,307.117 586.338,291.303 603.903,282.277 621.468,279.322 639.033,282.333 656.598,288.326 674.163,294.496 691.728,297.536 709.293,298.513 726.858,296.795 744.423,295.96 761.988,294.929 779.553,293.33 797.118,288.296 814.683,282.1 832.248,279.661 849.813,288.37 867.378,301.625 884.943,317.141 902.508,331.726 920.073,343.438 937.638,344.899 955.203,337.591 972.768,317.219 990.333,293.302 1007.9,279.281 1025.46,272.131 1043.03,271.01 1060.59,275.612 1078.16,282.916 1095.72,290.137 1113.29,294.011 1130.85,295.669 1148.42,294.448 1165.98,294.074 1183.55,293.532 1201.11,292.394 1218.68,287.772 1236.24,281.97 1253.81,279.891 1271.37,288.942 1288.94,302.524 1306.5,318.352 1324.07,333.242 1341.63,345.236 1359.2,346.979 1376.76,339.891 1394.33,319.688 1411.89,295.85 1429.46,281.864 1447.02,274.76 1464.59,273.709 1482.15,278.382 1499.72,285.721 1517.28,292.979 1534.85,296.877 1552.41,298.574 1569.98,297.382 1587.54,297.103 1605.11,296.669 1622.67,295.622 1640.24,291.108 1657.8,285.408 1675.37,283.446 1692.93,292.618 1710.5,306.326 1728.06,322.284 1745.63,337.304 1763.19,349.436 1780.76,351.312 1798.32,344.34 1815.89,324.18 1833.45,300.316 1851.02,286.227 1868.58,279.02 1886.15,277.849 1903.71,282.403 1921.28,289.646 1938.84,296.807 1956.41,300.641 1973.97,302.258 1991.54,301.069 2009.1,300.752 2026.67,300.308 2044.23,299.27 2061.8,294.766 2079.36,289.113 2096.93,287.195 2114.49,296.425 2132.06,310.201 2149.62,326.236 2167.19,341.341 2184.75,353.553 2202.32,355.514 2219.88,348.59 2237.45,328.463 2255.01,304.542 2272.58,290.361 2290.14,283.027 2307.71,281.738 2325.27,286.155 2342.84,293.291 2360.4,300.368 2377.97,304.109 2395.53,305.671 2413.1,304.416 2430.66,304.088 2448.23,303.621 2465.79,302.567 2483.36,298.066 2500.92,292.433 2518.49,290.533 2536.05,299.792 2553.62,313.609 2571.18,329.696 2588.75,344.86 2606.31,357.137 2623.88,359.139 2641.44,352.273 2659.01,332.157 2676.57,308.212 2694.14,293.937 2711.7,286.504 2729.27,285.068 2746.83,289.376 2764.4,296.428 2781.96,303.422 2799.53,307.086 2817.09,308.594 2834.66,307.314 2852.22,306.925 2869.79,306.42 2887.35,305.362 2904.92,300.861 2922.48,295.232 2940.05,293.349 2957.61,302.63 2975.18,316.477 2992.74,332.604 3010.31,347.797 3027.87,360.117 3045.44,362.173 3063,355.327 3080.57,335.224 3098.13,311.243 3115.7,296.892 3133.26,289.353 3150.83,287.861 3168.39,292.092 3185.96,299.052 3203.52,305.973 3221.09,309.566 3238.65,311.03 3256.22,309.677 3273.78,309.258 3291.35,308.738 3308.91,307.656 3326.48,303.148 3344.04,297.518 3361.61,295.64 3379.17,304.936 3396.74,318.804 3414.3,334.954 3431.87,350.183 3449.43,362.539 3467,364.628 3484.56,357.815 3502.13,337.708 3519.69,313.691 3537.26,299.269 3554.82,291.671 3572.39,290.111 3589.95,294.268 3607.52,301.167 3625.08,308.032 3642.65,311.571 3660.21,312.986 3677.78,311.618 3695.34,311.174 3712.91,310.635 3730.47,309.54 3748.04,305.027 3765.6,299.403 3783.17,297.531 3800.73,306.835 3818.3,320.716 3835.86,336.886 3853.43,352.14 3870.99,364.514 3888.56,366.625 3906.12,359.823 3923.69,339.733 3941.25,315.694 3958.82,301.234 3976.38,293.556 3993.95,291.909 4011.51,296.025 4029.08,302.875 4046.64,309.688 4064.21,313.182 4081.77,314.588 4099.34,313.177 4116.9,312.729 4134.47,312.182 4152.03,311.08 4169.6,306.567 4187.16,300.94 4204.73,299.071 4222.29,308.382 4239.86,322.272 4257.42,338.449 4274.99,353.715 4292.55,366.109 4310.12,368.23 4327.68,361.461 4345.25,341.356 4362.81,317.307 4380.38,302.804 4397.94,295.073 4415.51,293.38 4433.07,297.452 4450.64,304.256 4468.2,311.035 4485.77,314.497 4503.33,315.852 4520.9,314.437 4538.46,313.951 4556.03,313.382 4573.59,312.263 4591.16,307.751 4608.72,302.124 4626.29,300.257 "/>
<path clip-path="url(#clip572)" d="M410.688 295.086 L428.253 325.695 L445.818 361.092 L463.383 398.676 L480.948 436.251 L498.513 473.846 L516.078 484.182 L533.643 474.567 L551.208 430.843 L568.773 374.637 L586.338 343.709 L603.903 324.476 L621.468 321.235 L639.033 329.322 L656.598 343.481 L674.163 356.83 L691.728 365.823 L709.293 372.902 L726.858 373.35 L744.423 374.062 L761.988 378.437 L779.553 384.776 L797.118 389.221 L814.683 387.952 L832.248 394.072 L849.813 417.201 L867.378 444.647 L884.943 466.829 L902.508 499.996 L920.073 525.792 L937.638 530.544 L955.203 515.443 L972.768 467.926 L990.333 415.743 L1007.9 383.411 L1025.46 367.921 L1043.03 361.162 L1060.59 363.049 L1078.16 373.495 L1095.72 383.441 L1113.29 387.281 L1130.85 391.88 L1148.42 388.749 L1165.98 394.288 L1183.55 401.345 L1201.11 407.39 L1218.68 409.239 L1236.24 408.601 L1253.81 412.193 L1271.37 436.975 L1288.94 465.602 L1306.5 487.762 L1324.07 522.353 L1341.63 549.149 L1359.2 551.536 L1376.76 537.801 L1394.33 496.572 L1411.89 437.126 L1429.46 404.825 L1447.02 384.042 L1464.59 376.606 L1482.15 379.28 L1499.72 388.657 L1517.28 398.826 L1534.85 402.618 L1552.41 403.73 L1569.98 402.284 L1587.54 407.219 L1605.11 415.487 L1622.67 421.091 L1640.24 423.241 L1657.8 423.625 L1675.37 426.874 L1692.93 446.894 L1710.5 477.294 L1728.06 506.089 L1745.63 535.724 L1763.19 560.759 L1780.76 562.969 L1798.32 551.449 L1815.89 505.57 L1833.45 452.64 L1851.02 415.083 L1868.58 399.044 L1886.15 389.986 L1903.71 390.382 L1921.28 402.839 L1938.84 411.41 L1956.41 414.347 L1973.97 413.221 L1991.54 411.482 L2009.1 417.173 L2026.67 423.814 L2044.23 433.893 L2061.8 432.26 L2079.36 432.293 L2096.93 436.376 L2114.49 457.803 L2132.06 484.272 L2149.62 514.031 L2167.19 546.931 L2184.75 570.58 L2202.32 572.236 L2219.88 560.979 L2237.45 514.781 L2255.01 461.668 L2272.58 426.359 L2290.14 408.008 L2307.71 399.09 L2325.27 403.714 L2342.84 412.027 L2360.4 421.366 L2377.97 424.201 L2395.53 423.363 L2413.1 423.156 L2430.66 427.933 L2448.23 432.119 L2465.79 440.843 L2483.36 441.466 L2500.92 442.071 L2518.49 444.578 L2536.05 470.137 L2553.62 497.258 L2571.18 523.996 L2588.75 553.509 L2606.31 577.888 L2623.88 578.833 L2641.44 566.24 L2659.01 522.955 L2676.57 469.656 L2694.14 441.162 L2711.7 418.439 L2729.27 405.982 L2746.83 411.361 L2764.4 419.244 L2781.96 429.058 L2799.53 431.938 L2817.09 431.302 L2834.66 429.39 L2852.22 432.295 L2869.79 439.243 L2887.35 445.844 L2904.92 447.271 L2922.48 446.246 L2940.05 449.703 L2957.61 475.257 L2975.18 501.797 L2992.74 533.855 L3010.31 561.432 L3027.87 582.999 L3045.44 588.803 L3063 573.279 L3080.57 530.98 L3098.13 478.742 L3115.7 448.041 L3133.26 421.912 L3150.83 412.93 L3168.39 416.972 L3185.96 425.666 L3203.52 435.103 L3221.09 438.939 L3238.65 440.22 L3256.22 436.636 L3273.78 439.275 L3291.35 442.449 L3308.91 448.654 L3326.48 450.247 L3344.04 449.224 L3361.61 452.532 L3379.17 480.812 L3396.74 506.516 L3414.3 540.789 L3431.87 569.077 L3449.43 591.407 L3467 594.134 L3484.56 579.364 L3502.13 540.733 L3519.69 484.896 L3537.26 453.579 L3554.82 429.093 L3572.39 421.302 L3589.95 423.464 L3607.52 431.343 L3625.08 438.953 L3642.65 444.008 L3660.21 444.371 L3677.78 441.186 L3695.34 442.497 L3712.91 445.935 L3730.47 452.354 L3748.04 453.066 L3765.6 452.357 L3783.17 456.538 L3800.73 483.103 L3818.3 511.183 L3835.86 544.147 L3853.43 576.183 L3870.99 600.38 L3888.56 600.789 L3906.12 587.874 L3923.69 547.116 L3941.25 489.06 L3958.82 458.015 L3976.38 433.054 L3993.95 424.978 L4011.51 427.858 L4029.08 436.231 L4046.64 442.321 L4064.21 447.063 L4081.77 447.437 L4099.34 445.572 L4116.9 446.041 L4134.47 448.793 L4152.03 454.973 L4169.6 455.983 L4187.16 456.612 L4204.73 462.404 L4222.29 486.258 L4239.86 513.953 L4257.42 545.349 L4274.99 580.204 L4292.55 607.181 L4310.12 607.576 L4327.68 592.393 L4345.25 550.099 L4362.81 494.17 L4380.38 464.995 L4397.94 435.208 L4415.51 427.763 L4433.07 430.623 L4450.64 438.94 L4468.2 445.322 L4485.77 448.242 L4503.33 449.802 L4520.9 447.873 L4538.46 447.062 L4556.03 450.559 L4573.59 457.522 L4591.16 459.397 L4608.72 460.296 L4626.29 466.122 L4626.29 146.646 L4608.72 159.647 L4591.16 182.459 L4573.59 202.411 L4556.03 213.429 L4538.46 220.277 L4520.9 223.699 L4503.33 227.132 L4485.77 222.982 L4468.2 211.827 L4450.64 193.882 L4433.07 172.461 L4415.51 160.032 L4397.94 161.909 L4380.38 174.833 L4362.81 201.375 L4345.25 244.125 L4327.68 281.89 L4310.12 294.305 L4292.55 287.339 L4274.99 259.799 L4257.42 225.985 L4239.86 189.891 L4222.29 160.246 L4204.73 145.103 L4187.16 158.133 L4169.6 180.254 L4152.03 200.391 L4134.47 210.925 L4116.9 216.719 L4099.34 220.761 L4081.77 223.39 L4064.21 220.734 L4046.64 209.75 L4029.08 191.908 L4011.51 170.795 L3993.95 158.516 L3976.38 159.922 L3958.82 173.156 L3941.25 198.523 L3923.69 241.619 L3906.12 278.995 L3888.56 291.702 L3870.99 284.733 L3853.43 257.808 L3835.86 224.164 L3818.3 187.312 L3800.73 157.992 L3783.17 142.894 L3765.6 156.18 L3748.04 178.449 L3730.47 197.649 L3712.91 208.577 L3695.34 213.9 L3677.78 218.29 L3660.21 220.098 L3642.65 218.288 L3625.08 206.998 L3607.52 188.856 L3589.95 168.74 L3572.39 155.969 L3554.82 157.441 L3537.26 170.998 L3519.69 196.634 L3502.13 238.436 L3484.56 276.219 L3467 288.297 L3449.43 281.802 L3431.87 253.954 L3414.3 221.818 L3396.74 184.804 L3379.17 155.365 L3361.61 140.521 L3344.04 153.202 L3326.48 175.682 L3308.91 194.658 L3291.35 204.447 L3273.78 209.684 L3256.22 213.877 L3238.65 215.862 L3221.09 212.87 L3203.52 204.33 L3185.96 185.866 L3168.39 166.386 L3150.83 154.08 L3133.26 154.183 L3115.7 167.156 L3098.13 192.437 L3080.57 235.072 L3063 271.923 L3045.44 284.213 L3027.87 278.091 L3010.31 250.676 L2992.74 218.327 L2975.18 181.606 L2957.61 151.8 L2940.05 137.114 L2922.48 150.118 L2904.92 172.079 L2887.35 190.683 L2869.79 198.351 L2852.22 204.174 L2834.66 207.639 L2817.09 211.69 L2799.53 205.897 L2781.96 199.513 L2764.4 181.706 L2746.83 161.008 L2729.27 150.346 L2711.7 149.687 L2694.14 161.73 L2676.57 186.878 L2659.01 229.656 L2641.44 267.42 L2623.88 279.46 L2606.31 273.603 L2588.75 246.797 L2571.18 212.814 L2553.62 178.112 L2536.05 147.567 L2518.49 133.204 L2500.92 146.538 L2483.36 166.319 L2465.79 184.784 L2448.23 192.081 L2430.66 195.978 L2413.1 199.178 L2395.53 206.615 L2377.97 199.91 L2360.4 192.815 L2342.84 176.523 L2325.27 156.602 L2307.71 144.46 L2290.14 143.587 L2272.58 155.97 L2255.01 179.759 L2237.45 223.96 L2219.88 261.183 L2202.32 272.666 L2184.75 267.787 L2167.19 240.328 L2149.62 207.313 L2132.06 171.974 L2114.49 142.791 L2096.93 127.458 L2079.36 140.878 L2061.8 159.238 L2044.23 176.304 L2026.67 184.055 L2009.1 187.038 L1991.54 190.849 L1973.97 198.336 L1956.41 192.886 L1938.84 183.905 L1921.28 169.434 L1903.71 151.761 L1886.15 137.885 L1868.58 137.323 L1851.02 147.721 L1833.45 173.246 L1815.89 215.591 L1798.32 252.801 L1780.76 266.369 L1763.19 258.986 L1745.63 233.375 L1728.06 200.178 L1710.5 165.778 L1692.93 136.361 L1675.37 122.296 L1657.8 135.295 L1640.24 153.283 L1622.67 170.034 L1605.11 175.777 L1587.54 176.881 L1569.98 181.2 L1552.41 188.846 L1534.85 187.336 L1517.28 176.907 L1499.72 163.211 L1482.15 146.719 L1464.59 133.359 L1447.02 132.367 L1429.46 141.563 L1411.89 166.319 L1394.33 209.952 L1376.76 246.774 L1359.2 259.736 L1341.63 253.603 L1324.07 227.452 L1306.5 194.304 L1288.94 161.88 L1271.37 133.071 L1253.81 118.307 L1236.24 131.484 L1218.68 149.677 L1201.11 167.694 L1183.55 172.685 L1165.98 176.38 L1148.42 180.865 L1130.85 186.371 L1113.29 185.325 L1095.72 177.202 L1078.16 163.392 L1060.59 145.755 L1043.03 134.735 L1025.46 134.085 L1007.9 146.23 L990.333 171.099 L972.768 216.067 L955.203 254.275 L937.638 267.044 L920.073 260.926 L902.508 235.627 L884.943 205.394 L867.378 170.723 L849.813 142.836 L832.248 128.687 L814.683 143.178 L797.118 166.246 L779.553 185.035 L761.988 195.299 L744.423 201.546 L726.858 206.642 L709.293 211.554 L691.728 212.498 L674.163 206.926 L656.598 192.768 L639.033 179.581 L621.468 176.503 L603.903 188.917 L586.338 212.491 L568.773 245.391 L551.208 296.88 L533.643 337.546 L516.078 355.747 L498.513 359.266 L480.948 342.549 L463.383 317.267 L445.818 289.717 L428.253 267.687 L410.688 259.326  Z" fill="#757575" fill-rule="evenodd" fill-opacity="0.5"/>
<polyline clip-path="url(#clip572)" style="stroke:#757575; stroke-linecap:round; stroke-linejoin:round; stroke-width:0; stroke-opacity:1; fill:none" points="410.688,295.829 428.253,305.349 445.818,318.804 463.383,334.233 480.948,348.55 498.513,359.899 516.078,360.957 533.643,353.329 551.208,332.267 568.773,307.117 586.338,291.303 603.903,282.277 621.468,279.322 639.033,282.333 656.598,288.326 674.163,294.496 691.728,297.536 709.293,298.513 726.858,296.795 744.423,295.96 761.988,294.929 779.553,293.33 797.118,288.296 814.683,282.1 832.248,279.661 849.813,288.37 867.378,301.625 884.943,317.141 902.508,331.726 920.073,343.438 937.638,344.899 955.203,337.591 972.768,317.219 990.333,293.302 1007.9,279.281 1025.46,272.131 1043.03,271.01 1060.59,275.612 1078.16,282.916 1095.72,290.137 1113.29,294.011 1130.85,295.669 1148.42,294.448 1165.98,294.074 1183.55,293.532 1201.11,292.394 1218.68,287.772 1236.24,281.97 1253.81,279.891 1271.37,288.942 1288.94,302.524 1306.5,318.352 1324.07,333.242 1341.63,345.236 1359.2,346.979 1376.76,339.891 1394.33,319.688 1411.89,295.85 1429.46,281.864 1447.02,274.76 1464.59,273.709 1482.15,278.382 1499.72,285.721 1517.28,292.979 1534.85,296.877 1552.41,298.574 1569.98,297.382 1587.54,297.103 1605.11,296.669 1622.67,295.622 1640.24,291.108 1657.8,285.408 1675.37,283.446 1692.93,292.618 1710.5,306.326 1728.06,322.284 1745.63,337.304 1763.19,349.436 1780.76,351.312 1798.32,344.34 1815.89,324.18 1833.45,300.316 1851.02,286.227 1868.58,279.02 1886.15,277.849 1903.71,282.403 1921.28,289.646 1938.84,296.807 1956.41,300.641 1973.97,302.258 1991.54,301.069 2009.1,300.752 2026.67,300.308 2044.23,299.27 2061.8,294.766 2079.36,289.113 2096.93,287.195 2114.49,296.425 2132.06,310.201 2149.62,326.236 2167.19,341.341 2184.75,353.553 2202.32,355.514 2219.88,348.59 2237.45,328.463 2255.01,304.542 2272.58,290.361 2290.14,283.027 2307.71,281.738 2325.27,286.155 2342.84,293.291 2360.4,300.368 2377.97,304.109 2395.53,305.671 2413.1,304.416 2430.66,304.088 2448.23,303.621 2465.79,302.567 2483.36,298.066 2500.92,292.433 2518.49,290.533 2536.05,299.792 2553.62,313.609 2571.18,329.696 2588.75,344.86 2606.31,357.137 2623.88,359.139 2641.44,352.273 2659.01,332.157 2676.57,308.212 2694.14,293.937 2711.7,286.504 2729.27,285.068 2746.83,289.376 2764.4,296.428 2781.96,303.422 2799.53,307.086 2817.09,308.594 2834.66,307.314 2852.22,306.925 2869.79,306.42 2887.35,305.362 2904.92,300.861 2922.48,295.232 2940.05,293.349 2957.61,302.63 2975.18,316.477 2992.74,332.604 3010.31,347.797 3027.87,360.117 3045.44,362.173 3063,355.327 3080.57,335.224 3098.13,311.243 3115.7,296.892 3133.26,289.353 3150.83,287.861 3168.39,292.092 3185.96,299.052 3203.52,305.973 3221.09,309.566 3238.65,311.03 3256.22,309.677 3273.78,309.258 3291.35,308.738 3308.91,307.656 3326.48,303.148 3344.04,297.518 3361.61,295.64 3379.17,304.936 3396.74,318.804 3414.3,334.954 3431.87,350.183 3449.43,362.539 3467,364.628 3484.56,357.815 3502.13,337.708 3519.69,313.691 3537.26,299.269 3554.82,291.671 3572.39,290.111 3589.95,294.268 3607.52,301.167 3625.08,308.032 3642.65,311.571 3660.21,312.986 3677.78,311.618 3695.34,311.174 3712.91,310.635 3730.47,309.54 3748.04,305.027 3765.6,299.403 3783.17,297.531 3800.73,306.835 3818.3,320.716 3835.86,336.886 3853.43,352.14 3870.99,364.514 3888.56,366.625 3906.12,359.823 3923.69,339.733 3941.25,315.694 3958.82,301.234 3976.38,293.556 3993.95,291.909 4011.51,296.025 4029.08,302.875 4046.64,309.688 4064.21,313.182 4081.77,314.588 4099.34,313.177 4116.9,312.729 4134.47,312.182 4152.03,311.08 4169.6,306.567 4187.16,300.94 4204.73,299.071 4222.29,308.382 4239.86,322.272 4257.42,338.449 4274.99,353.715 4292.55,366.109 4310.12,368.23 4327.68,361.461 4345.25,341.356 4362.81,317.307 4380.38,302.804 4397.94,295.073 4415.51,293.38 4433.07,297.452 4450.64,304.256 4468.2,311.035 4485.77,314.497 4503.33,315.852 4520.9,314.437 4538.46,313.951 4556.03,313.382 4573.59,312.263 4591.16,307.751 4608.72,302.124 4626.29,300.257 "/>
<path clip-path="url(#clip572)" d="M410.688 289.442 L428.253 316.161 L445.818 349.118 L463.383 385.944 L480.948 422.247 L498.513 453.118 L516.078 462.894 L533.643 451.415 L551.208 405.225 L568.773 354.151 L586.338 322.732 L603.903 306.836 L621.468 304.414 L639.033 310.914 L656.598 323.931 L674.163 336.506 L691.728 346.512 L709.293 349.843 L726.858 350.006 L744.423 351.516 L761.988 353.86 L779.553 357.327 L797.118 355.309 L814.683 353.581 L832.248 354.675 L849.813 376.949 L867.378 402.275 L884.943 428.047 L902.508 451.033 L920.073 477.617 L937.638 479.966 L955.203 463.671 L972.768 422.757 L990.333 371.818 L1007.9 341.919 L1025.46 323.636 L1043.03 322.355 L1060.59 331.652 L1078.16 340.694 L1095.72 352.966 L1113.29 360.582 L1130.85 363.458 L1148.42 363.259 L1165.98 365.277 L1183.55 365.684 L1201.11 369.308 L1218.68 370.809 L1236.24 369.081 L1253.81 369.503 L1271.37 390.494 L1288.94 417.847 L1306.5 444.45 L1324.07 467.324 L1341.63 489.676 L1359.2 495.822 L1376.76 480.646 L1394.33 439.194 L1411.89 387.406 L1429.46 356.788 L1447.02 338.309 L1464.59 336.902 L1482.15 342.635 L1499.72 351.192 L1517.28 363.423 L1534.85 373.313 L1552.41 374.593 L1569.98 374.119 L1587.54 376.803 L1605.11 375.822 L1622.67 379.423 L1640.24 379.613 L1657.8 378.149 L1675.37 379.374 L1692.93 402.106 L1710.5 429.453 L1728.06 454.699 L1745.63 481.678 L1763.19 502.563 L1780.76 508.549 L1798.32 495.189 L1815.89 452.771 L1833.45 401.144 L1851.02 367 L1868.58 347.323 L1886.15 345.681 L1903.71 351.254 L1921.28 363.727 L1938.84 372.646 L1956.41 381.345 L1973.97 383.442 L1991.54 381.581 L2009.1 383.208 L2026.67 383.623 L2044.23 388.504 L2061.8 387.001 L2079.36 385.291 L2096.93 387.496 L2114.49 409.769 L2132.06 436.749 L2149.62 464.724 L2167.19 490.651 L2184.75 511.352 L2202.32 517.362 L2219.88 504.45 L2237.45 466.306 L2255.01 410.285 L2272.58 374.065 L2290.14 355.334 L2307.71 354.112 L2325.27 361.37 L2342.84 370.664 L2360.4 384.071 L2377.97 388.375 L2395.53 390.437 L2413.1 388.26 L2430.66 388.995 L2448.23 390.818 L2465.79 395.244 L2483.36 393.14 L2500.92 390.617 L2518.49 393.239 L2536.05 415.085 L2553.62 442.217 L2571.18 472.524 L2588.75 498.637 L2606.31 520.571 L2623.88 525.624 L2641.44 513.219 L2659.01 472.545 L2676.57 416.921 L2694.14 382.302 L2711.7 362.23 L2729.27 360.68 L2746.83 368.24 L2764.4 376.932 L2781.96 388.829 L2799.53 392.881 L2817.09 396.547 L2834.66 393.979 L2852.22 394.499 L2869.79 394.248 L2887.35 400.404 L2904.92 399.074 L2922.48 397.261 L2940.05 398.877 L2957.61 420.284 L2975.18 449.029 L2992.74 477.998 L3010.31 505.768 L3027.87 528.609 L3045.44 530.561 L3063 519.785 L3080.57 476.989 L3098.13 424.885 L3115.7 388.555 L3133.26 370.781 L3150.83 368.87 L3168.39 374.631 L3185.96 382.258 L3203.52 392.875 L3221.09 397.292 L3238.65 400.302 L3256.22 397.622 L3273.78 398.309 L3291.35 398.52 L3308.91 405.004 L3326.48 403.438 L3344.04 402.333 L3361.61 405.853 L3379.17 425.827 L3396.74 454.507 L3414.3 482.864 L3431.87 513.821 L3449.43 534.772 L3467 535.513 L3484.56 522.599 L3502.13 480.431 L3519.69 431.135 L3537.26 396.677 L3554.82 378.385 L3572.39 374.635 L3589.95 379.686 L3607.52 388.866 L3625.08 396.62 L3642.65 400.319 L3660.21 403.218 L3677.78 400.413 L3695.34 401.814 L3712.91 403.448 L3730.47 409.484 L3748.04 409.025 L3765.6 407.653 L3783.17 410.868 L3800.73 429.851 L3818.3 458.644 L3835.86 487.083 L3853.43 515.714 L3870.99 539.951 L3888.56 539.695 L3906.12 526.455 L3923.69 486.568 L3941.25 435.306 L3958.82 402.183 L3976.38 383.346 L3993.95 378.759 L4011.51 385.969 L4029.08 392.715 L4046.64 401.669 L4064.21 404.978 L4081.77 406.235 L4099.34 403.774 L4116.9 405.13 L4134.47 407.914 L4152.03 412.253 L4169.6 412.202 L4187.16 411.482 L4204.73 413.798 L4222.29 435.193 L4239.86 462.1 L4257.42 491.049 L4274.99 518.764 L4292.55 542.851 L4310.12 543.738 L4327.68 530.875 L4345.25 490.981 L4362.81 440.197 L4380.38 405.628 L4397.94 386.309 L4415.51 382.115 L4433.07 390.372 L4450.64 396.388 L4468.2 404.812 L4485.77 408.124 L4503.33 408.964 L4520.9 406.704 L4538.46 407.551 L4556.03 409.68 L4573.59 414.731 L4591.16 415.334 L4608.72 415.835 L4626.29 417.61 L4626.29 163.37 L4608.72 175.696 L4591.16 198.449 L4573.59 218.814 L4556.03 227.107 L4538.46 233.467 L4520.9 237.037 L4503.33 239.845 L4485.77 234.583 L4468.2 223.725 L4450.64 205.523 L4433.07 186.76 L4415.51 174.33 L4397.94 176.691 L4380.38 190.838 L4362.81 216.972 L4345.25 262.57 L4327.68 300.888 L4310.12 312.626 L4292.55 306.314 L4274.99 279.025 L4257.42 243.099 L4239.86 206.932 L4222.29 176.773 L4204.73 161.886 L4187.16 172.703 L4169.6 195.218 L4152.03 216.429 L4134.47 223.793 L4116.9 230.277 L4099.34 234.859 L4081.77 237.233 L4064.21 232.241 L4046.64 222.12 L4029.08 203.678 L4011.51 185.431 L3993.95 172.215 L3976.38 174.582 L3958.82 188.309 L3941.25 214.641 L3923.69 260.142 L3906.12 298.884 L3888.56 310.114 L3870.99 304.646 L3853.43 276.768 L3835.86 240.271 L3818.3 204.362 L3800.73 174.524 L3783.17 158.637 L3765.6 170.499 L3748.04 193.929 L3730.47 213.428 L3712.91 220.575 L3695.34 227.075 L3677.78 232.011 L3660.21 234.602 L3642.65 229.072 L3625.08 219.901 L3607.52 200.906 L3589.95 181.91 L3572.39 169.634 L3554.82 172.29 L3537.26 185.579 L3519.69 211.488 L3502.13 258.161 L3484.56 295.75 L3467 307.381 L3449.43 301.64 L3431.87 273.817 L3414.3 238.701 L3396.74 201.634 L3379.17 171.837 L3361.61 156.629 L3344.04 167.967 L3326.48 190.524 L3308.91 209.562 L3291.35 218.118 L3273.78 224.01 L3256.22 227.371 L3238.65 231.165 L3221.09 226.102 L3203.52 216.508 L3185.96 196.906 L3168.39 178.502 L3150.83 166.723 L3133.26 168.195 L3115.7 181.673 L3098.13 208.085 L3080.57 253.763 L3063 291.574 L3045.44 302.958 L3027.87 296.948 L3010.31 269.723 L2992.74 234.778 L2975.18 197.74 L2957.61 168.607 L2940.05 153.028 L2922.48 164.837 L2904.92 186.802 L2887.35 204.751 L2869.79 212.572 L2852.22 218.98 L2834.66 222.565 L2817.09 226.924 L2799.53 222.314 L2781.96 211.642 L2764.4 193.486 L2746.83 174.304 L2729.27 162.661 L2711.7 164.234 L2694.14 177.012 L2676.57 203.672 L2659.01 248.898 L2641.44 284.959 L2623.88 297.781 L2606.31 290.648 L2588.75 263.919 L2571.18 230.326 L2553.62 193.248 L2536.05 163.798 L2518.49 148.514 L2500.92 161.371 L2483.36 181.129 L2465.79 200.009 L2448.23 206.02 L2430.66 213.363 L2413.1 216.651 L2395.53 220.495 L2377.97 217.413 L2360.4 205.198 L2342.84 187.941 L2325.27 170.071 L2307.71 158.598 L2290.14 158.917 L2272.58 171.449 L2255.01 197.198 L2237.45 241.892 L2219.88 277.319 L2202.32 290.575 L2184.75 285.102 L2167.19 257.742 L2149.62 223.428 L2132.06 187.454 L2114.49 158.525 L2096.93 142.993 L2079.36 154.854 L2061.8 174.703 L2044.23 193.279 L2026.67 198.439 L2009.1 205.726 L1991.54 210.095 L1973.97 214.348 L1956.41 211.06 L1938.84 200.076 L1921.28 181.513 L1903.71 163.574 L1886.15 153.595 L1868.58 152.887 L1851.02 164.687 L1833.45 190.007 L1815.89 231.988 L1798.32 268.231 L1780.76 281.342 L1763.19 278.094 L1745.63 249.575 L1728.06 217.835 L1710.5 182.36 L1692.93 152.699 L1675.37 137.41 L1657.8 148.989 L1640.24 168.409 L1622.67 184.616 L1605.11 192.125 L1587.54 198.475 L1569.98 202.352 L1552.41 207.142 L1534.85 205.112 L1517.28 194.787 L1499.72 176.455 L1482.15 158.414 L1464.59 147.168 L1447.02 147.337 L1429.46 159.051 L1411.89 182.4 L1394.33 224.347 L1376.76 262.089 L1359.2 275.84 L1341.63 271.322 L1324.07 244.964 L1306.5 212.281 L1288.94 177.354 L1271.37 148.097 L1253.81 132.786 L1236.24 144.592 L1218.68 165.359 L1201.11 180.283 L1183.55 188.461 L1165.98 194.949 L1148.42 198.997 L1130.85 203.747 L1113.29 201.864 L1095.72 192.671 L1078.16 175.767 L1060.59 158.004 L1043.03 146.906 L1025.46 148.118 L1007.9 160.316 L990.333 187.249 L972.768 230.192 L955.203 267.688 L937.638 281.961 L920.073 277.651 L902.508 252.403 L884.943 219.917 L867.378 185.413 L849.813 156.361 L832.248 142.881 L814.683 156.407 L797.118 179.79 L779.553 199.383 L761.988 207.415 L744.423 213.587 L726.858 218.403 L709.293 224.244 L691.728 223.476 L674.163 217.812 L656.598 205.047 L639.033 191.433 L621.468 187.672 L603.903 198.459 L586.338 221.419 L568.773 253.709 L551.208 303.867 L533.643 346.294 L516.078 364.018 L498.513 364.85 L480.948 347.961 L463.383 322.63 L445.818 294.193 L428.253 271.886 L410.688 262.095  Z" fill="#aeaeae" fill-rule="evenodd" fill-opacity="0.5"/>
<polyline clip-path="url(#clip572)" style="stroke:#aeaeae; stroke-linecap:round; stroke-linejoin:round; stroke-width:0; stroke-opacity:1; fill:none" points="410.688,295.829 428.253,305.349 445.818,318.804 463.383,334.233 480.948,348.55 498.513,359.899 516.078,360.957 533.643,353.329 551.208,332.267 568.773,307.117 586.338,291.303 603.903,282.277 621.468,279.322 639.033,282.333 656.598,288.326 674.163,294.496 691.728,297.536 709.293,298.513 726.858,296.795 744.423,295.96 761.988,294.929 779.553,293.33 797.118,288.296 814.683,282.1 832.248,279.661 849.813,288.37 867.378,301.625 884.943,317.141 902.508,331.726 920.073,343.438 937.638,344.899 955.203,337.591 972.768,317.219 990.333,293.302 1007.9,279.281 1025.46,272.131 1043.03,271.01 1060.59,275.612 1078.16,282.916 1095.72,290.137 1113.29,294.011 1130.85,295.669 1148.42,294.448 1165.98,294.074 1183.55,293.532 1201.11,292.394 1218.68,287.772 1236.24,281.97 1253.81,279.891 1271.37,288.942 1288.94,302.524 1306.5,318.352 1324.07,333.242 1341.63,345.236 1359.2,346.979 1376.76,339.891 1394.33,319.688 1411.89,295.85 1429.46,281.864 1447.02,274.76 1464.59,273.709 1482.15,278.382 1499.72,285.721 1517.28,292.979 1534.85,296.877 1552.41,298.574 1569.98,297.382 1587.54,297.103 1605.11,296.669 1622.67,295.622 1640.24,291.108 1657.8,285.408 1675.37,283.446 1692.93,292.618 1710.5,306.326 1728.06,322.284 1745.63,337.304 1763.19,349.436 1780.76,351.312 1798.32,344.34 1815.89,324.18 1833.45,300.316 1851.02,286.227 1868.58,279.02 1886.15,277.849 1903.71,282.403 1921.28,289.646 1938.84,296.807 1956.41,300.641 1973.97,302.258 1991.54,301.069 2009.1,300.752 2026.67,300.308 2044.23,299.27 2061.8,294.766 2079.36,289.113 2096.93,287.195 2114.49,296.425 2132.06,310.201 2149.62,326.236 2167.19,341.341 2184.75,353.553 2202.32,355.514 2219.88,348.59 2237.45,328.463 2255.01,304.542 2272.58,290.361 2290.14,283.027 2307.71,281.738 2325.27,286.155 2342.84,293.291 2360.4,300.368 2377.97,304.109 2395.53,305.671 2413.1,304.416 2430.66,304.088 2448.23,303.621 2465.79,302.567 2483.36,298.066 2500.92,292.433 2518.49,290.533 2536.05,299.792 2553.62,313.609 2571.18,329.696 2588.75,344.86 2606.31,357.137 2623.88,359.139 2641.44,352.273 2659.01,332.157 2676.57,308.212 2694.14,293.937 2711.7,286.504 2729.27,285.068 2746.83,289.376 2764.4,296.428 2781.96,303.422 2799.53,307.086 2817.09,308.594 2834.66,307.314 2852.22,306.925 2869.79,306.42 2887.35,305.362 2904.92,300.861 2922.48,295.232 2940.05,293.349 2957.61,302.63 2975.18,316.477 2992.74,332.604 3010.31,347.797 3027.87,360.117 3045.44,362.173 3063,355.327 3080.57,335.224 3098.13,311.243 3115.7,296.892 3133.26,289.353 3150.83,287.861 3168.39,292.092 3185.96,299.052 3203.52,305.973 3221.09,309.566 3238.65,311.03 3256.22,309.677 3273.78,309.258 3291.35,308.738 3308.91,307.656 3326.48,303.148 3344.04,297.518 3361.61,295.64 3379.17,304.936 3396.74,318.804 3414.3,334.954 3431.87,350.183 3449.43,362.539 3467,364.628 3484.56,357.815 3502.13,337.708 3519.69,313.691 3537.26,299.269 3554.82,291.671 3572.39,290.111 3589.95,294.268 3607.52,301.167 3625.08,308.032 3642.65,311.571 3660.21,312.986 3677.78,311.618 3695.34,311.174 3712.91,310.635 3730.47,309.54 3748.04,305.027 3765.6,299.403 3783.17,297.531 3800.73,306.835 3818.3,320.716 3835.86,336.886 3853.43,352.14 3870.99,364.514 3888.56,366.625 3906.12,359.823 3923.69,339.733 3941.25,315.694 3958.82,301.234 3976.38,293.556 3993.95,291.909 4011.51,296.025 4029.08,302.875 4046.64,309.688 4064.21,313.182 4081.77,314.588 4099.34,313.177 4116.9,312.729 4134.47,312.182 4152.03,311.08 4169.6,306.567 4187.16,300.94 4204.73,299.071 4222.29,308.382 4239.86,322.272 4257.42,338.449 4274.99,353.715 4292.55,366.109 4310.12,368.23 4327.68,361.461 4345.25,341.356 4362.81,317.307 4380.38,302.804 4397.94,295.073 4415.51,293.38 4433.07,297.452 4450.64,304.256 4468.2,311.035 4485.77,314.497 4503.33,315.852 4520.9,314.437 4538.46,313.951 4556.03,313.382 4573.59,312.263 4591.16,307.751 4608.72,302.124 4626.29,300.257 "/>
<path clip-path="url(#clip570)" d="M3837.68 594.22 L4603.8 594.22 L4603.8 75.8205 L3837.68 75.8205  Z" fill="#ffffff" fill-rule="evenodd" fill-opacity="1"/>
<polyline clip-path="url(#clip570)" style="stroke:#000000; stroke-linecap:round; stroke-linejoin:round; stroke-width:4; stroke-opacity:1; fill:none" points="3837.68,594.22 4603.8,594.22 4603.8,75.8205 3837.68,75.8205 3837.68,594.22 "/>
<polyline clip-path="url(#clip570)" style="stroke:#414141; stroke-linecap:round; stroke-linejoin:round; stroke-width:2; stroke-opacity:1; fill:none" points="3887.33,205.42 4185.23,205.42 "/>
<path clip-path="url(#clip570)" d="M4236.56 238.783 L4255.66 238.783 L4255.66 172.869 L4234.89 177.035 L4234.89 166.387 L4255.54 162.22 L4267.23 162.22 L4267.23 238.783 L4286.33 238.783 L4286.33 248.62 L4236.56 248.62 L4236.56 238.783 Z" fill="#000000" fill-rule="nonzero" fill-opacity="1" /><path clip-path="url(#clip570)" d="M4334.94 169.917 Q4325.91 169.917 4321.34 178.829 Q4316.83 187.683 4316.83 205.507 Q4316.83 223.273 4321.34 232.185 Q4325.91 241.039 4334.94 241.039 Q4344.03 241.039 4348.54 232.185 Q4353.11 223.273 4353.11 205.507 Q4353.11 187.683 4348.54 178.829 Q4344.03 169.917 4334.94 169.917 M4334.94 160.658 Q4349.47 160.658 4357.11 172.174 Q4364.8 183.632 4364.8 205.507 Q4364.8 227.324 4357.11 238.84 Q4349.47 250.299 4334.94 250.299 Q4320.42 250.299 4312.72 238.84 Q4305.08 227.324 4305.08 205.507 Q4305.08 183.632 4312.72 172.174 Q4320.42 160.658 4334.94 160.658 Z" fill="#000000" fill-rule="nonzero" fill-opacity="1" /><path clip-path="url(#clip570)" d="M4410.35 169.917 Q4401.32 169.917 4396.75 178.829 Q4392.23 187.683 4392.23 205.507 Q4392.23 223.273 4396.75 232.185 Q4401.32 241.039 4410.35 241.039 Q4419.43 241.039 4423.95 232.185 Q4428.52 223.273 4428.52 205.507 Q4428.52 187.683 4423.95 178.829 Q4419.43 169.917 4410.35 169.917 M4410.35 160.658 Q4424.87 160.658 4432.51 172.174 Q4440.21 183.632 4440.21 205.507 Q4440.21 227.324 4432.51 238.84 Q4424.87 250.299 4410.35 250.299 Q4395.82 250.299 4388.13 238.84 Q4380.49 227.324 4380.49 205.507 Q4380.49 183.632 4388.13 172.174 Q4395.82 160.658 4410.35 160.658 Z" fill="#000000" fill-rule="nonzero" fill-opacity="1" /><path clip-path="url(#clip570)" d="M4534.25 210.6 Q4529.21 210.6 4526.32 214.882 Q4523.48 219.165 4523.48 226.803 Q4523.48 234.327 4526.32 238.667 Q4529.21 242.949 4534.25 242.949 Q4539.17 242.949 4542 238.667 Q4544.9 234.327 4544.9 226.803 Q4544.9 219.222 4542 214.94 Q4539.17 210.6 4534.25 210.6 M4534.25 203.25 Q4543.39 203.25 4548.77 209.616 Q4554.15 215.982 4554.15 226.803 Q4554.15 237.625 4548.71 243.991 Q4543.33 250.299 4534.25 250.299 Q4524.99 250.299 4519.61 243.991 Q4514.22 237.625 4514.22 226.803 Q4514.22 215.924 4519.61 209.616 Q4525.05 203.25 4534.25 203.25 M4474.53 168.007 Q4469.55 168.007 4466.65 172.348 Q4463.82 176.63 4463.82 184.153 Q4463.82 191.792 4466.65 196.074 Q4469.49 200.357 4474.53 200.357 Q4479.56 200.357 4482.4 196.074 Q4485.29 191.792 4485.29 184.153 Q4485.29 176.688 4482.4 172.348 Q4479.5 168.007 4474.53 168.007 M4526.78 160.658 L4536.04 160.658 L4481.99 250.299 L4472.73 250.299 L4526.78 160.658 M4474.53 160.658 Q4483.67 160.658 4489.11 167.024 Q4494.55 173.332 4494.55 184.153 Q4494.55 195.091 4489.11 201.399 Q4483.73 207.706 4474.53 207.706 Q4465.32 207.706 4459.94 201.399 Q4454.62 195.033 4454.62 184.153 Q4454.62 173.389 4460 167.024 Q4465.38 160.658 4474.53 160.658 Z" fill="#000000" fill-rule="nonzero" fill-opacity="1" /><polyline clip-path="url(#clip570)" style="stroke:#757575; stroke-linecap:round; stroke-linejoin:round; stroke-width:2; stroke-opacity:1; fill:none" points="3887.33,335.02 4185.23,335.02 "/>
<path clip-path="url(#clip570)" d="M4240.44 376.427 L4240.44 365.778 Q4244.84 367.862 4249.35 368.961 Q4253.87 370.061 4258.21 370.061 Q4269.78 370.061 4275.86 362.306 Q4281.99 354.494 4282.86 338.637 Q4279.5 343.614 4274.35 346.276 Q4269.2 348.938 4262.95 348.938 Q4249.99 348.938 4242.41 341.126 Q4234.89 333.255 4234.89 319.656 Q4234.89 306.346 4242.76 298.302 Q4250.63 290.258 4263.7 290.258 Q4278.69 290.258 4286.56 301.774 Q4294.49 313.232 4294.49 335.107 Q4294.49 355.535 4284.77 367.746 Q4275.1 379.899 4258.73 379.899 Q4254.33 379.899 4249.82 379.031 Q4245.3 378.163 4240.44 376.427 M4263.7 339.795 Q4271.57 339.795 4276.15 334.413 Q4280.78 329.031 4280.78 319.656 Q4280.78 310.339 4276.15 304.957 Q4271.57 299.517 4263.7 299.517 Q4255.83 299.517 4251.2 304.957 Q4246.63 310.339 4246.63 319.656 Q4246.63 329.031 4251.2 334.413 Q4255.83 339.795 4263.7 339.795 Z" fill="#000000" fill-rule="nonzero" fill-opacity="1" /><path clip-path="url(#clip570)" d="M4340.5 299.517 Q4331.47 299.517 4326.9 308.429 Q4322.38 317.283 4322.38 335.107 Q4322.38 352.873 4326.9 361.785 Q4331.47 370.639 4340.5 370.639 Q4349.58 370.639 4354.1 361.785 Q4358.67 352.873 4358.67 335.107 Q4358.67 317.283 4354.1 308.429 Q4349.58 299.517 4340.5 299.517 M4340.5 290.258 Q4355.02 290.258 4362.66 301.774 Q4370.36 313.232 4370.36 335.107 Q4370.36 356.924 4362.66 368.44 Q4355.02 379.899 4340.5 379.899 Q4325.97 379.899 4318.28 368.44 Q4310.64 356.924 4310.64 335.107 Q4310.64 313.232 4318.28 301.774 Q4325.97 290.258 4340.5 290.258 Z" fill="#000000" fill-rule="nonzero" fill-opacity="1" /><path clip-path="url(#clip570)" d="M4464.4 340.2 Q4459.36 340.2 4456.47 344.482 Q4453.63 348.765 4453.63 356.403 Q4453.63 363.927 4456.47 368.267 Q4459.36 372.549 4464.4 372.549 Q4469.32 372.549 4472.15 368.267 Q4475.05 363.927 4475.05 356.403 Q4475.05 348.822 4472.15 344.54 Q4469.32 340.2 4464.4 340.2 M4464.4 332.85 Q4473.54 332.85 4478.92 339.216 Q4484.31 345.582 4484.31 356.403 Q4484.31 367.225 4478.87 373.591 Q4473.48 379.899 4464.4 379.899 Q4455.14 379.899 4449.76 373.591 Q4444.37 367.225 4444.37 356.403 Q4444.37 345.524 4449.76 339.216 Q4455.2 332.85 4464.4 332.85 M4404.68 297.607 Q4399.7 297.607 4396.81 301.948 Q4393.97 306.23 4393.97 313.753 Q4393.97 321.392 4396.81 325.674 Q4399.64 329.957 4404.68 329.957 Q4409.71 329.957 4412.55 325.674 Q4415.44 321.392 4415.44 313.753 Q4415.44 306.288 4412.55 301.948 Q4409.65 297.607 4404.68 297.607 M4456.93 290.258 L4466.19 290.258 L4412.14 379.899 L4402.88 379.899 L4456.93 290.258 M4404.68 290.258 Q4413.82 290.258 4419.26 296.624 Q4424.7 302.932 4424.7 313.753 Q4424.7 324.691 4419.26 330.999 Q4413.88 337.306 4404.68 337.306 Q4395.47 337.306 4390.09 330.999 Q4384.77 324.633 4384.77 313.753 Q4384.77 302.989 4390.15 296.624 Q4395.53 290.258 4404.68 290.258 Z" fill="#000000" fill-rule="nonzero" fill-opacity="1" /><polyline clip-path="url(#clip570)" style="stroke:#aeaeae; stroke-linecap:round; stroke-linejoin:round; stroke-width:2; stroke-opacity:1; fill:none" points="3887.33,464.62 4185.23,464.62 "/>
<path clip-path="url(#clip570)" d="M4264.51 466.791 Q4256.18 466.791 4251.38 471.247 Q4246.63 475.703 4246.63 483.515 Q4246.63 491.328 4251.38 495.783 Q4256.18 500.239 4264.51 500.239 Q4272.85 500.239 4277.65 495.783 Q4282.45 491.27 4282.45 483.515 Q4282.45 475.703 4277.65 471.247 Q4272.91 466.791 4264.51 466.791 M4252.82 461.814 Q4245.3 459.962 4241.08 454.811 Q4236.91 449.661 4236.91 442.254 Q4236.91 431.895 4244.26 425.876 Q4251.67 419.858 4264.51 419.858 Q4277.42 419.858 4284.77 425.876 Q4292.12 431.895 4292.12 442.254 Q4292.12 449.661 4287.89 454.811 Q4283.73 459.962 4276.26 461.814 Q4284.71 463.781 4289.4 469.51 Q4294.14 475.24 4294.14 483.515 Q4294.14 496.073 4286.45 502.786 Q4278.81 509.499 4264.51 509.499 Q4250.22 509.499 4242.52 502.786 Q4234.89 496.073 4234.89 483.515 Q4234.89 475.24 4239.63 469.51 Q4244.38 463.781 4252.82 461.814 M4248.54 443.353 Q4248.54 450.066 4252.71 453.828 Q4256.93 457.589 4264.51 457.589 Q4272.04 457.589 4276.26 453.828 Q4280.54 450.066 4280.54 443.353 Q4280.54 436.64 4276.26 432.879 Q4272.04 429.117 4264.51 429.117 Q4256.93 429.117 4252.71 432.879 Q4248.54 436.64 4248.54 443.353 Z" fill="#000000" fill-rule="nonzero" fill-opacity="1" /><path clip-path="url(#clip570)" d="M4339.92 429.117 Q4330.89 429.117 4326.32 438.029 Q4321.81 446.883 4321.81 464.707 Q4321.81 482.473 4326.32 491.385 Q4330.89 500.239 4339.92 500.239 Q4349 500.239 4353.52 491.385 Q4358.09 482.473 4358.09 464.707 Q4358.09 446.883 4353.52 438.029 Q4349 429.117 4339.92 429.117 M4339.92 419.858 Q4354.44 419.858 4362.08 431.374 Q4369.78 442.832 4369.78 464.707 Q4369.78 486.524 4362.08 498.04 Q4354.44 509.499 4339.92 509.499 Q4325.39 509.499 4317.7 498.04 Q4310.06 486.524 4310.06 464.707 Q4310.06 442.832 4317.7 431.374 Q4325.39 419.858 4339.92 419.858 Z" fill="#000000" fill-rule="nonzero" fill-opacity="1" /><path clip-path="url(#clip570)" d="M4463.82 469.8 Q4458.78 469.8 4455.89 474.082 Q4453.06 478.365 4453.06 486.003 Q4453.06 493.527 4455.89 497.867 Q4458.78 502.149 4463.82 502.149 Q4468.74 502.149 4471.57 497.867 Q4474.47 493.527 4474.47 486.003 Q4474.47 478.422 4471.57 474.14 Q4468.74 469.8 4463.82 469.8 M4463.82 462.45 Q4472.96 462.45 4478.34 468.816 Q4483.73 475.182 4483.73 486.003 Q4483.73 496.825 4478.29 503.191 Q4472.9 509.499 4463.82 509.499 Q4454.56 509.499 4449.18 503.191 Q4443.8 496.825 4443.8 486.003 Q4443.8 475.124 4449.18 468.816 Q4454.62 462.45 4463.82 462.45 M4404.1 427.207 Q4399.12 427.207 4396.23 431.548 Q4393.39 435.83 4393.39 443.353 Q4393.39 450.992 4396.23 455.274 Q4399.06 459.557 4404.1 459.557 Q4409.13 459.557 4411.97 455.274 Q4414.86 450.992 4414.86 443.353 Q4414.86 435.888 4411.97 431.548 Q4409.07 427.207 4404.1 427.207 M4456.35 419.858 L4465.61 419.858 L4411.56 509.499 L4402.3 509.499 L4456.35 419.858 M4404.1 419.858 Q4413.24 419.858 4418.68 426.224 Q4424.12 432.532 4424.12 443.353 Q4424.12 454.291 4418.68 460.599 Q4413.3 466.906 4404.1 466.906 Q4394.9 466.906 4389.51 460.599 Q4384.19 454.233 4384.19 443.353 Q4384.19 432.589 4389.57 426.224 Q4394.95 419.858 4404.1 419.858 Z" fill="#000000" fill-rule="nonzero" fill-opacity="1" /></svg>
