<?xml version="1.0" encoding="utf-8"?>
<svg xmlns="http://www.w3.org/2000/svg" xmlns:xlink="http://www.w3.org/1999/xlink" width="1200" height="300" viewBox="0 0 4800 1200">
<defs>
  <clipPath id="clip680">
    <rect x="0" y="0" width="4800" height="1200"/>
  </clipPath>
</defs>
<path clip-path="url(#clip680)" d="M0 1200 L4800 1200 L4800 0 L0 0  Z" fill="#ffffff" fill-rule="evenodd" fill-opacity="1"/>
<defs>
  <clipPath id="clip681">
    <rect x="960" y="0" width="3361" height="1200"/>
  </clipPath>
</defs>
<path clip-path="url(#clip680)" d="M404.977 880.951 L4752.76 880.951 L4752.76 47.2441 L404.977 47.2441  Z" fill="#ffffff" fill-rule="evenodd" fill-opacity="1"/>
<defs>
  <clipPath id="clip682">
    <rect x="404" y="47" width="4349" height="835"/>
  </clipPath>
</defs>
<polyline clip-path="url(#clip682)" style="stroke:#000000; stroke-linecap:round; stroke-linejoin:round; stroke-width:2; stroke-opacity:0.1; fill:none" points="528.028,880.951 528.028,47.2441 "/>
<polyline clip-path="url(#clip682)" style="stroke:#000000; stroke-linecap:round; stroke-linejoin:round; stroke-width:2; stroke-opacity:0.1; fill:none" points="1348.36,880.951 1348.36,47.2441 "/>
<polyline clip-path="url(#clip682)" style="stroke:#000000; stroke-linecap:round; stroke-linejoin:round; stroke-width:2; stroke-opacity:0.1; fill:none" points="2168.7,880.951 2168.7,47.2441 "/>
<polyline clip-path="url(#clip682)" style="stroke:#000000; stroke-linecap:round; stroke-linejoin:round; stroke-width:2; stroke-opacity:0.1; fill:none" points="2989.03,880.951 2989.03,47.2441 "/>
<polyline clip-path="url(#clip682)" style="stroke:#000000; stroke-linecap:round; stroke-linejoin:round; stroke-width:2; stroke-opacity:0.1; fill:none" points="3809.37,880.951 3809.37,47.2441 "/>
<polyline clip-path="url(#clip682)" style="stroke:#000000; stroke-linecap:round; stroke-linejoin:round; stroke-width:2; stroke-opacity:0.1; fill:none" points="4629.71,880.951 4629.71,47.2441 "/>
<polyline clip-path="url(#clip682)" style="stroke:#000000; stroke-linecap:round; stroke-linejoin:round; stroke-width:2; stroke-opacity:0.1; fill:none" points="404.977,748.638 4752.76,748.638 "/>
<polyline clip-path="url(#clip682)" style="stroke:#000000; stroke-linecap:round; stroke-linejoin:round; stroke-width:2; stroke-opacity:0.1; fill:none" points="404.977,578.968 4752.76,578.968 "/>
<polyline clip-path="url(#clip682)" style="stroke:#000000; stroke-linecap:round; stroke-linejoin:round; stroke-width:2; stroke-opacity:0.1; fill:none" points="404.977,409.297 4752.76,409.297 "/>
<polyline clip-path="url(#clip682)" style="stroke:#000000; stroke-linecap:round; stroke-linejoin:round; stroke-width:2; stroke-opacity:0.1; fill:none" points="404.977,239.627 4752.76,239.627 "/>
<polyline clip-path="url(#clip682)" style="stroke:#000000; stroke-linecap:round; stroke-linejoin:round; stroke-width:2; stroke-opacity:0.1; fill:none" points="404.977,69.9567 4752.76,69.9567 "/>
<polyline clip-path="url(#clip680)" style="stroke:#000000; stroke-linecap:round; stroke-linejoin:round; stroke-width:4; stroke-opacity:1; fill:none" points="404.977,880.951 4752.76,880.951 "/>
<polyline clip-path="url(#clip680)" style="stroke:#000000; stroke-linecap:round; stroke-linejoin:round; stroke-width:4; stroke-opacity:1; fill:none" points="528.028,880.951 528.028,862.054 "/>
<polyline clip-path="url(#clip680)" style="stroke:#000000; stroke-linecap:round; stroke-linejoin:round; stroke-width:4; stroke-opacity:1; fill:none" points="1348.36,880.951 1348.36,862.054 "/>
<polyline clip-path="url(#clip680)" style="stroke:#000000; stroke-linecap:round; stroke-linejoin:round; stroke-width:4; stroke-opacity:1; fill:none" points="2168.7,880.951 2168.7,862.054 "/>
<polyline clip-path="url(#clip680)" style="stroke:#000000; stroke-linecap:round; stroke-linejoin:round; stroke-width:4; stroke-opacity:1; fill:none" points="2989.03,880.951 2989.03,862.054 "/>
<polyline clip-path="url(#clip680)" style="stroke:#000000; stroke-linecap:round; stroke-linejoin:round; stroke-width:4; stroke-opacity:1; fill:none" points="3809.37,880.951 3809.37,862.054 "/>
<polyline clip-path="url(#clip680)" style="stroke:#000000; stroke-linecap:round; stroke-linejoin:round; stroke-width:4; stroke-opacity:1; fill:none" points="4629.71,880.951 4629.71,862.054 "/>
<path clip-path="url(#clip680)" d="M528.028 942.789 Q520.806 942.789 517.148 949.918 Q513.537 957.002 513.537 971.261 Q513.537 985.474 517.148 992.603 Q520.806 999.687 528.028 999.687 Q535.296 999.687 538.907 992.603 Q542.565 985.474 542.565 971.261 Q542.565 957.002 538.907 949.918 Q535.296 942.789 528.028 942.789 M528.028 935.382 Q539.648 935.382 545.759 944.594 Q551.916 953.761 551.916 971.261 Q551.916 988.715 545.759 997.927 Q539.648 1007.09 528.028 1007.09 Q516.407 1007.09 510.25 997.927 Q504.139 988.715 504.139 971.261 Q504.139 953.761 510.25 944.594 Q516.407 935.382 528.028 935.382 Z" fill="#000000" fill-rule="nonzero" fill-opacity="1" /><path clip-path="url(#clip680)" d="M1337.67 997.881 L1370.31 997.881 L1370.31 1005.75 L1326.42 1005.75 L1326.42 997.881 Q1331.74 992.372 1340.91 983.113 Q1350.12 973.807 1352.48 971.122 Q1356.97 966.076 1358.73 962.604 Q1360.54 959.085 1360.54 955.705 Q1360.54 950.196 1356.65 946.724 Q1352.81 943.252 1346.6 943.252 Q1342.21 943.252 1337.3 944.78 Q1332.44 946.307 1326.88 949.409 L1326.88 939.965 Q1332.53 937.696 1337.44 936.539 Q1342.34 935.382 1346.42 935.382 Q1357.16 935.382 1363.55 940.752 Q1369.94 946.122 1369.94 955.104 Q1369.94 959.363 1368.32 963.205 Q1366.74 967.002 1362.53 972.187 Q1361.37 973.529 1355.17 979.965 Q1348.97 986.353 1337.67 997.881 Z" fill="#000000" fill-rule="nonzero" fill-opacity="1" /><path clip-path="url(#clip680)" d="M2174.72 944.78 L2151.11 981.678 L2174.72 981.678 L2174.72 944.78 M2172.26 936.631 L2184.02 936.631 L2184.02 981.678 L2193.88 981.678 L2193.88 989.455 L2184.02 989.455 L2184.02 1005.75 L2174.72 1005.75 L2174.72 989.455 L2143.51 989.455 L2143.51 980.428 L2172.26 936.631 Z" fill="#000000" fill-rule="nonzero" fill-opacity="1" /><path clip-path="url(#clip680)" d="M2989.84 967.465 Q2983.55 967.465 2979.84 971.77 Q2976.19 976.076 2976.19 983.576 Q2976.19 991.029 2979.84 995.381 Q2983.55 999.687 2989.84 999.687 Q2996.14 999.687 2999.8 995.381 Q3003.5 991.029 3003.5 983.576 Q3003.5 976.076 2999.8 971.77 Q2996.14 967.465 2989.84 967.465 M3008.41 938.159 L3008.41 946.678 Q3004.89 945.011 3001.28 944.131 Q2997.71 943.252 2994.2 943.252 Q2984.94 943.252 2980.03 949.502 Q2975.17 955.752 2974.47 968.391 Q2977.21 964.363 2981.33 962.233 Q2985.45 960.057 2990.4 960.057 Q3000.82 960.057 3006.84 966.4 Q3012.9 972.696 3012.9 983.576 Q3012.9 994.224 3006.6 1000.66 Q3000.31 1007.09 2989.84 1007.09 Q2977.85 1007.09 2971.51 997.927 Q2965.17 988.715 2965.17 971.261 Q2965.17 954.872 2972.95 945.15 Q2980.72 935.382 2993.83 935.382 Q2997.34 935.382 3000.91 936.076 Q3004.52 936.77 3008.41 938.159 Z" fill="#000000" fill-rule="nonzero" fill-opacity="1" /><path clip-path="url(#clip680)" d="M3809.37 972.928 Q3802.7 972.928 3798.86 976.492 Q3795.06 980.057 3795.06 986.307 Q3795.06 992.557 3798.86 996.122 Q3802.7 999.687 3809.37 999.687 Q3816.04 999.687 3819.88 996.122 Q3823.72 992.511 3823.72 986.307 Q3823.72 980.057 3819.88 976.492 Q3816.08 972.928 3809.37 972.928 M3800.02 968.946 Q3794 967.465 3790.62 963.344 Q3787.29 959.224 3787.29 953.298 Q3787.29 945.011 3793.17 940.196 Q3799.09 935.382 3809.37 935.382 Q3819.69 935.382 3825.57 940.196 Q3831.45 945.011 3831.45 953.298 Q3831.45 959.224 3828.07 963.344 Q3824.74 967.465 3818.77 968.946 Q3825.53 970.52 3829.28 975.104 Q3833.07 979.687 3833.07 986.307 Q3833.07 996.353 3826.92 1001.72 Q3820.81 1007.09 3809.37 1007.09 Q3797.93 1007.09 3791.78 1001.72 Q3785.67 996.353 3785.67 986.307 Q3785.67 979.687 3789.46 975.104 Q3793.26 970.52 3800.02 968.946 M3796.59 954.178 Q3796.59 959.548 3799.93 962.557 Q3803.31 965.567 3809.37 965.567 Q3815.39 965.567 3818.77 962.557 Q3822.19 959.548 3822.19 954.178 Q3822.19 948.807 3818.77 945.798 Q3815.39 942.789 3809.37 942.789 Q3803.31 942.789 3799.93 945.798 Q3796.59 948.807 3796.59 954.178 Z" fill="#000000" fill-rule="nonzero" fill-opacity="1" /><path clip-path="url(#clip680)" d="M4579.08 997.881 L4594.36 997.881 L4594.36 945.15 L4577.74 948.483 L4577.74 939.965 L4594.27 936.631 L4603.62 936.631 L4603.62 997.881 L4618.9 997.881 L4618.9 1005.75 L4579.08 1005.75 L4579.08 997.881 Z" fill="#000000" fill-rule="nonzero" fill-opacity="1" /><path clip-path="url(#clip680)" d="M4657.78 942.789 Q4650.56 942.789 4646.9 949.918 Q4643.29 957.002 4643.29 971.261 Q4643.29 985.474 4646.9 992.603 Q4650.56 999.687 4657.78 999.687 Q4665.05 999.687 4668.66 992.603 Q4672.32 985.474 4672.32 971.261 Q4672.32 957.002 4668.66 949.918 Q4665.05 942.789 4657.78 942.789 M4657.78 935.382 Q4669.4 935.382 4675.52 944.594 Q4681.67 953.761 4681.67 971.261 Q4681.67 988.715 4675.52 997.927 Q4669.4 1007.09 4657.78 1007.09 Q4646.16 1007.09 4640.01 997.927 Q4633.9 988.715 4633.9 971.261 Q4633.9 953.761 4640.01 944.594 Q4646.16 935.382 4657.78 935.382 Z" fill="#000000" fill-rule="nonzero" fill-opacity="1" /><path clip-path="url(#clip680)" d="M2296.11 1072.18 L2361.89 1072.18 L2361.89 1081.04 L2334.28 1081.04 L2334.28 1149.94 L2323.71 1149.94 L2323.71 1081.04 L2296.11 1081.04 L2296.11 1072.18 Z" fill="#000000" fill-rule="nonzero" fill-opacity="1" /><path clip-path="url(#clip680)" d="M2368.35 1091.61 L2377.93 1091.61 L2377.93 1149.94 L2368.35 1149.94 L2368.35 1091.61 M2368.35 1068.9 L2377.93 1068.9 L2377.93 1081.04 L2368.35 1081.04 L2368.35 1068.9 Z" fill="#000000" fill-rule="nonzero" fill-opacity="1" /><path clip-path="url(#clip680)" d="M2443.4 1102.81 Q2446.99 1096.35 2451.99 1093.28 Q2456.99 1090.2 2463.76 1090.2 Q2472.88 1090.2 2477.83 1096.61 Q2482.77 1102.96 2482.77 1114.74 L2482.77 1149.94 L2473.14 1149.94 L2473.14 1115.05 Q2473.14 1106.66 2470.17 1102.6 Q2467.2 1098.54 2461.11 1098.54 Q2453.66 1098.54 2449.34 1103.49 Q2445.01 1108.43 2445.01 1116.97 L2445.01 1149.94 L2435.38 1149.94 L2435.38 1115.05 Q2435.38 1106.61 2432.41 1102.6 Q2429.44 1098.54 2423.24 1098.54 Q2415.9 1098.54 2411.58 1103.54 Q2407.25 1108.49 2407.25 1116.97 L2407.25 1149.94 L2397.62 1149.94 L2397.62 1091.61 L2407.25 1091.61 L2407.25 1100.67 Q2410.53 1095.31 2415.12 1092.76 Q2419.7 1090.2 2426 1090.2 Q2432.36 1090.2 2436.78 1093.43 Q2441.26 1096.66 2443.4 1102.81 Z" fill="#000000" fill-rule="nonzero" fill-opacity="1" /><path clip-path="url(#clip680)" d="M2551.78 1118.38 L2551.78 1123.07 L2507.72 1123.07 Q2508.35 1132.96 2513.66 1138.17 Q2519.02 1143.33 2528.55 1143.33 Q2534.08 1143.33 2539.23 1141.97 Q2544.44 1140.62 2549.54 1137.91 L2549.54 1146.97 Q2544.39 1149.16 2538.97 1150.31 Q2533.55 1151.45 2527.98 1151.45 Q2514.02 1151.45 2505.85 1143.33 Q2497.72 1135.2 2497.72 1121.35 Q2497.72 1107.03 2505.43 1098.64 Q2513.19 1090.2 2526.31 1090.2 Q2538.09 1090.2 2544.91 1097.81 Q2551.78 1105.36 2551.78 1118.38 M2542.2 1115.57 Q2542.1 1107.7 2537.77 1103.02 Q2533.5 1098.33 2526.42 1098.33 Q2518.4 1098.33 2513.55 1102.86 Q2508.76 1107.39 2508.03 1115.62 L2542.2 1115.57 Z" fill="#000000" fill-rule="nonzero" fill-opacity="1" /><path clip-path="url(#clip680)" d="M2624.44 1069.01 Q2617.46 1080.99 2614.07 1092.7 Q2610.69 1104.42 2610.69 1116.45 Q2610.69 1128.49 2614.07 1140.31 Q2617.51 1152.08 2624.44 1164.01 L2616.11 1164.01 Q2608.29 1151.77 2604.39 1139.94 Q2600.53 1128.12 2600.53 1116.45 Q2600.53 1104.84 2604.39 1093.07 Q2608.24 1081.3 2616.11 1069.01 L2624.44 1069.01 Z" fill="#000000" fill-rule="nonzero" fill-opacity="1" /><path clip-path="url(#clip680)" d="M2681.42 1100.46 L2681.42 1068.9 L2691 1068.9 L2691 1149.94 L2681.42 1149.94 L2681.42 1141.19 Q2678.4 1146.4 2673.76 1148.95 Q2669.18 1151.45 2662.72 1151.45 Q2652.15 1151.45 2645.48 1143.02 Q2638.87 1134.58 2638.87 1120.83 Q2638.87 1107.08 2645.48 1098.64 Q2652.15 1090.2 2662.72 1090.2 Q2669.18 1090.2 2673.76 1092.76 Q2678.4 1095.26 2681.42 1100.46 M2648.76 1120.83 Q2648.76 1131.4 2653.08 1137.44 Q2657.46 1143.43 2665.06 1143.43 Q2672.67 1143.43 2677.04 1137.44 Q2681.42 1131.4 2681.42 1120.83 Q2681.42 1110.26 2677.04 1104.27 Q2672.67 1098.23 2665.06 1098.23 Q2657.46 1098.23 2653.08 1104.27 Q2648.76 1110.26 2648.76 1120.83 Z" fill="#000000" fill-rule="nonzero" fill-opacity="1" /><path clip-path="url(#clip680)" d="M2737.25 1120.62 Q2725.64 1120.62 2721.16 1123.28 Q2716.68 1125.93 2716.68 1132.34 Q2716.68 1137.44 2720.01 1140.46 Q2723.4 1143.43 2729.18 1143.43 Q2737.15 1143.43 2741.94 1137.81 Q2746.78 1132.13 2746.78 1122.76 L2746.78 1120.62 L2737.25 1120.62 M2756.37 1116.66 L2756.37 1149.94 L2746.78 1149.94 L2746.78 1141.09 Q2743.5 1146.4 2738.61 1148.95 Q2733.71 1151.45 2726.63 1151.45 Q2717.67 1151.45 2712.36 1146.45 Q2707.1 1141.4 2707.1 1132.96 Q2707.1 1123.12 2713.66 1118.12 Q2720.27 1113.12 2733.34 1113.12 L2746.78 1113.12 L2746.78 1112.18 Q2746.78 1105.57 2742.41 1101.98 Q2738.08 1098.33 2730.22 1098.33 Q2725.22 1098.33 2720.48 1099.53 Q2715.74 1100.73 2711.37 1103.12 L2711.37 1094.27 Q2716.63 1092.24 2721.57 1091.25 Q2726.52 1090.2 2731.21 1090.2 Q2743.87 1090.2 2750.12 1096.77 Q2756.37 1103.33 2756.37 1116.66 Z" fill="#000000" fill-rule="nonzero" fill-opacity="1" /><path clip-path="url(#clip680)" d="M2800.38 1155.36 Q2796.31 1165.78 2792.46 1168.95 Q2788.61 1172.13 2782.15 1172.13 L2774.49 1172.13 L2774.49 1164.11 L2780.12 1164.11 Q2784.07 1164.11 2786.26 1162.24 Q2788.45 1160.36 2791.11 1153.38 L2792.82 1149.01 L2769.23 1091.61 L2779.39 1091.61 L2797.62 1137.24 L2815.84 1091.61 L2826 1091.61 L2800.38 1155.36 Z" fill="#000000" fill-rule="nonzero" fill-opacity="1" /><path clip-path="url(#clip680)" d="M2837.72 1069.01 L2846.05 1069.01 Q2853.87 1081.3 2857.72 1093.07 Q2861.63 1104.84 2861.63 1116.45 Q2861.63 1128.12 2857.72 1139.94 Q2853.87 1151.77 2846.05 1164.01 L2837.72 1164.01 Q2844.65 1152.08 2848.03 1140.31 Q2851.47 1128.49 2851.47 1116.45 Q2851.47 1104.42 2848.03 1092.7 Q2844.65 1080.99 2837.72 1069.01 Z" fill="#000000" fill-rule="nonzero" fill-opacity="1" /><polyline clip-path="url(#clip680)" style="stroke:#000000; stroke-linecap:round; stroke-linejoin:round; stroke-width:4; stroke-opacity:1; fill:none" points="404.977,880.951 404.977,47.2441 "/>
<polyline clip-path="url(#clip680)" style="stroke:#000000; stroke-linecap:round; stroke-linejoin:round; stroke-width:4; stroke-opacity:1; fill:none" points="404.977,748.638 423.875,748.638 "/>
<polyline clip-path="url(#clip680)" style="stroke:#000000; stroke-linecap:round; stroke-linejoin:round; stroke-width:4; stroke-opacity:1; fill:none" points="404.977,578.968 423.875,578.968 "/>
<polyline clip-path="url(#clip680)" style="stroke:#000000; stroke-linecap:round; stroke-linejoin:round; stroke-width:4; stroke-opacity:1; fill:none" points="404.977,409.297 423.875,409.297 "/>
<polyline clip-path="url(#clip680)" style="stroke:#000000; stroke-linecap:round; stroke-linejoin:round; stroke-width:4; stroke-opacity:1; fill:none" points="404.977,239.627 423.875,239.627 "/>
<polyline clip-path="url(#clip680)" style="stroke:#000000; stroke-linecap:round; stroke-linejoin:round; stroke-width:4; stroke-opacity:1; fill:none" points="404.977,69.9567 423.875,69.9567 "/>
<path clip-path="url(#clip680)" d="M151.219 749.541 L210.571 749.541 L210.571 757.411 L151.219 757.411 L151.219 749.541 Z" fill="#000000" fill-rule="nonzero" fill-opacity="1" /><path clip-path="url(#clip680)" d="M228.395 714.078 L272.839 714.078 L272.839 718.06 L247.746 783.198 L237.978 783.198 L261.589 721.949 L228.395 721.949 L228.395 714.078 Z" fill="#000000" fill-rule="nonzero" fill-opacity="1" /><path clip-path="url(#clip680)" d="M291.172 714.078 L327.885 714.078 L327.885 721.949 L299.737 721.949 L299.737 738.893 Q301.774 738.198 303.811 737.874 Q305.848 737.504 307.885 737.504 Q319.459 737.504 326.218 743.847 Q332.977 750.189 332.977 761.022 Q332.977 772.18 326.033 778.383 Q319.089 784.541 306.45 784.541 Q302.098 784.541 297.561 783.8 Q293.07 783.059 288.255 781.578 L288.255 772.18 Q292.422 774.448 296.866 775.559 Q301.311 776.671 306.265 776.671 Q314.274 776.671 318.95 772.458 Q323.626 768.245 323.626 761.022 Q323.626 753.8 318.95 749.587 Q314.274 745.374 306.265 745.374 Q302.515 745.374 298.765 746.208 Q295.061 747.041 291.172 748.8 L291.172 714.078 Z" fill="#000000" fill-rule="nonzero" fill-opacity="1" /><path clip-path="url(#clip680)" d="M149.228 579.871 L208.58 579.871 L208.58 587.741 L149.228 587.741 L149.228 579.871 Z" fill="#000000" fill-rule="nonzero" fill-opacity="1" /><path clip-path="url(#clip680)" d="M228.858 544.408 L265.57 544.408 L265.57 552.278 L237.422 552.278 L237.422 569.223 Q239.459 568.528 241.496 568.204 Q243.533 567.834 245.57 567.834 Q257.144 567.834 263.904 574.176 Q270.663 580.519 270.663 591.352 Q270.663 602.509 263.718 608.713 Q256.774 614.87 244.135 614.87 Q239.783 614.87 235.246 614.13 Q230.756 613.389 225.941 611.907 L225.941 602.509 Q230.108 604.778 234.552 605.889 Q238.996 607 243.95 607 Q251.959 607 256.635 602.787 Q261.311 598.574 261.311 591.352 Q261.311 584.13 256.635 579.917 Q251.959 575.704 243.95 575.704 Q240.2 575.704 236.45 576.537 Q232.746 577.371 228.858 579.13 L228.858 544.408 Z" fill="#000000" fill-rule="nonzero" fill-opacity="1" /><path clip-path="url(#clip680)" d="M309.089 550.565 Q301.866 550.565 298.209 557.695 Q294.598 564.778 294.598 579.037 Q294.598 593.25 298.209 600.38 Q301.866 607.463 309.089 607.463 Q316.357 607.463 319.968 600.38 Q323.626 593.25 323.626 579.037 Q323.626 564.778 319.968 557.695 Q316.357 550.565 309.089 550.565 M309.089 543.158 Q320.709 543.158 326.82 552.371 Q332.977 561.537 332.977 579.037 Q332.977 596.491 326.82 605.704 Q320.709 614.87 309.089 614.87 Q297.468 614.87 291.311 605.704 Q285.2 596.491 285.2 579.037 Q285.2 561.537 291.311 552.371 Q297.468 543.158 309.089 543.158 Z" fill="#000000" fill-rule="nonzero" fill-opacity="1" /><path clip-path="url(#clip680)" d="M151.219 410.2 L210.571 410.2 L210.571 418.071 L151.219 418.071 L151.219 410.2 Z" fill="#000000" fill-rule="nonzero" fill-opacity="1" /><path clip-path="url(#clip680)" d="M238.811 435.987 L271.45 435.987 L271.45 443.857 L227.561 443.857 L227.561 435.987 Q232.885 430.478 242.052 421.219 Q251.265 411.913 253.626 409.228 Q258.117 404.182 259.876 400.71 Q261.681 397.191 261.681 393.811 Q261.681 388.302 257.793 384.83 Q253.95 381.358 247.746 381.358 Q243.348 381.358 238.441 382.886 Q233.58 384.413 228.024 387.515 L228.024 378.071 Q233.672 375.802 238.58 374.645 Q243.487 373.487 247.561 373.487 Q258.302 373.487 264.691 378.858 Q271.08 384.228 271.08 393.21 Q271.08 397.469 269.459 401.311 Q267.885 405.108 263.672 410.293 Q262.515 411.635 256.311 418.071 Q250.107 424.459 238.811 435.987 Z" fill="#000000" fill-rule="nonzero" fill-opacity="1" /><path clip-path="url(#clip680)" d="M291.172 374.737 L327.885 374.737 L327.885 382.608 L299.737 382.608 L299.737 399.552 Q301.774 398.858 303.811 398.534 Q305.848 398.163 307.885 398.163 Q319.459 398.163 326.218 404.506 Q332.977 410.848 332.977 421.682 Q332.977 432.839 326.033 439.043 Q319.089 445.2 306.45 445.2 Q302.098 445.2 297.561 444.459 Q293.07 443.719 288.255 442.237 L288.255 432.839 Q292.422 435.107 296.866 436.219 Q301.311 437.33 306.265 437.33 Q314.274 437.33 318.95 433.117 Q323.626 428.904 323.626 421.682 Q323.626 414.459 318.95 410.247 Q314.274 406.034 306.265 406.034 Q302.515 406.034 298.765 406.867 Q295.061 407.7 291.172 409.459 L291.172 374.737 Z" fill="#000000" fill-rule="nonzero" fill-opacity="1" /><path clip-path="url(#clip680)" d="M309.089 211.224 Q301.866 211.224 298.209 218.354 Q294.598 225.437 294.598 239.696 Q294.598 253.909 298.209 261.039 Q301.866 268.122 309.089 268.122 Q316.357 268.122 319.968 261.039 Q323.626 253.909 323.626 239.696 Q323.626 225.437 319.968 218.354 Q316.357 211.224 309.089 211.224 M309.089 203.817 Q320.709 203.817 326.82 213.03 Q332.977 222.197 332.977 239.696 Q332.977 257.15 326.82 266.363 Q320.709 275.53 309.089 275.53 Q297.468 275.53 291.311 266.363 Q285.2 257.15 285.2 239.696 Q285.2 222.197 291.311 213.03 Q297.468 203.817 309.089 203.817 Z" fill="#000000" fill-rule="nonzero" fill-opacity="1" /><path clip-path="url(#clip680)" d="M238.811 96.6463 L271.45 96.6463 L271.45 104.517 L227.561 104.517 L227.561 96.6463 Q232.885 91.1371 242.052 81.8779 Q251.265 72.5724 253.626 69.8872 Q258.117 64.8409 259.876 61.3687 Q261.681 57.8502 261.681 54.4706 Q261.681 48.9614 257.793 45.4892 Q253.95 42.017 247.746 42.017 Q243.348 42.017 238.441 43.5448 Q233.58 45.0725 228.024 48.1744 L228.024 38.73 Q233.672 36.4615 238.58 35.3041 Q243.487 34.1467 247.561 34.1467 Q258.302 34.1467 264.691 39.517 Q271.08 44.8873 271.08 53.8688 Q271.08 58.128 269.459 61.9706 Q267.885 65.7669 263.672 70.952 Q262.515 72.2946 256.311 78.7298 Q250.107 85.1186 238.811 96.6463 Z" fill="#000000" fill-rule="nonzero" fill-opacity="1" /><path clip-path="url(#clip680)" d="M291.172 35.3967 L327.885 35.3967 L327.885 43.267 L299.737 43.267 L299.737 60.2113 Q301.774 59.5169 303.811 59.1928 Q305.848 58.8225 307.885 58.8225 Q319.459 58.8225 326.218 65.165 Q332.977 71.5076 332.977 82.3408 Q332.977 93.4982 326.033 99.7019 Q319.089 105.859 306.45 105.859 Q302.098 105.859 297.561 105.118 Q293.07 104.378 288.255 102.896 L288.255 93.4982 Q292.422 95.7667 296.866 96.8778 Q301.311 97.9889 306.265 97.9889 Q314.274 97.9889 318.95 93.776 Q323.626 89.563 323.626 82.3408 Q323.626 75.1187 318.95 70.9057 Q314.274 66.6928 306.265 66.6928 Q302.515 66.6928 298.765 67.5261 Q295.061 68.3594 291.172 70.1187 L291.172 35.3967 Z" fill="#000000" fill-rule="nonzero" fill-opacity="1" /><path clip-path="url(#clip682)" d="M528.028 258.611 L545.118 285.467 L562.208 315.272 L579.299 346.931 L596.389 377.55 L613.479 405.272 L630.57 424.068 L647.66 435.8 L664.75 425.49 L681.841 410.015 L698.931 399.573 L716.021 391.96 L733.112 386.243 L750.202 386.859 L767.292 392.813 L784.383 402.377 L801.473 410.952 L818.563 420.164 L835.654 427.569 L852.744 435.941 L869.834 444.57 L886.925 450.568 L904.015 446.519 L921.105 435.912 L938.195 447.633 L955.286 473.292 L972.376 502.022 L989.466 532.824 L1006.56 562.678 L1023.65 590.366 L1040.74 604.544 L1057.83 607.22 L1074.92 588.734 L1092.01 554.939 L1109.1 527.846 L1126.19 509.881 L1143.28 493.503 L1160.37 483.699 L1177.46 479.864 L1194.55 480.227 L1211.64 480.637 L1228.73 483.866 L1245.82 487.658 L1262.91 495.617 L1280 504.409 L1297.09 510.589 L1314.18 506.432 L1331.27 496.314 L1348.36 508.975 L1365.45 534.467 L1382.54 563.042 L1399.63 593.731 L1416.72 623.615 L1433.81 650.441 L1450.91 663.588 L1468 664.799 L1485.09 641.559 L1502.18 603.14 L1519.27 579.401 L1536.36 556.509 L1553.45 535.811 L1570.54 522.02 L1587.63 514.076 L1604.72 511.093 L1621.81 508.794 L1638.9 510.328 L1655.99 513.729 L1673.08 522.734 L1690.17 532.044 L1707.26 538.729 L1724.35 534.794 L1741.44 523.652 L1758.53 526.289 L1775.62 551.987 L1792.71 580.757 L1809.8 611.66 L1826.89 641.778 L1843.98 668.964 L1861.07 682.499 L1878.16 683.721 L1895.25 667.086 L1912.34 635.703 L1929.43 607.029 L1946.52 579.489 L1963.61 557.232 L1980.71 541.907 L1997.8 533.002 L2014.89 528.59 L2031.98 525.263 L2049.07 526.25 L2066.16 529.047 L2083.25 537.699 L2100.34 547.595 L2117.43 554.843 L2134.52 551.225 L2151.61 544.512 L2168.7 546.516 L2185.79 563.172 L2202.88 590.936 L2219.97 621.977 L2237.06 652.254 L2254.15 679.599 L2271.24 698.05 L2288.33 708.789 L2305.42 696.346 L2322.51 664.56 L2339.6 635.156 L2356.69 606.549 L2373.78 579.999 L2390.87 560.576 L2407.96 547.133 L2425.05 542.259 L2442.14 538.505 L2459.23 539.256 L2476.32 541.747 L2493.42 550.609 L2510.51 560.977 L2527.6 568.666 L2544.69 565.256 L2561.78 566.682 L2578.87 568.898 L2595.96 585.773 L2613.05 608.136 L2630.14 636.045 L2647.23 667.348 L2664.32 700.4 L2681.41 722.942 L2698.5 735.162 L2715.59 721.409 L2732.68 689.016 L2749.77 659.318 L2766.86 630.195 L2783.95 603.297 L2801.04 582.982 L2818.13 568.362 L2835.22 558.462 L2852.31 550.542 L2869.4 550.235 L2886.49 554.779 L2903.58 568.104 L2920.67 582.273 L2937.76 592.761 L2954.85 590.353 L2971.94 587.59 L2989.03 590.051 L3006.12 607.16 L3023.22 629.717 L3040.31 657.916 L3057.4 689.683 L3074.49 723.402 L3091.58 746.581 L3108.67 758.119 L3125.76 744.331 L3142.85 712.035 L3159.94 681.943 L3177.03 652.59 L3194.12 625.279 L3211.21 604.272 L3228.3 588.712 L3245.39 578.029 L3262.48 572.102 L3279.57 573.002 L3296.66 578.474 L3313.75 592.316 L3330.84 607.785 L3347.93 619.625 L3365.02 618.223 L3382.11 610.676 L3399.2 613.343 L3416.29 630.65 L3433.38 653.368 L3450.47 681.826 L3467.56 714.033 L3484.65 748.41 L3501.74 772.433 L3518.83 784.829 L3535.92 771.539 L3553.02 744.447 L3570.11 716.599 L3587.2 686.358 L3604.29 656.464 L3621.38 633.353 L3638.47 617.203 L3655.56 607.802 L3672.65 601.451 L3689.74 601.957 L3706.83 607.526 L3723.92 622.349 L3741.01 639.166 L3758.1 652.386 L3775.19 651.971 L3792.28 641.217 L3809.37 635.809 L3826.46 653.344 L3843.55 676.249 L3860.64 705.007 L3877.73 737.695 L3894.82 772.785 L3911.91 797.651 L3929 812.123 L3946.09 809.393 L3963.18 784.56 L3980.27 757.244 L3997.36 726.574 L4014.45 695.835 L4031.54 671.365 L4048.63 653.94 L4065.72 643.219 L4082.82 635.665 L4099.91 635.666 L4117 641.188 L4134.09 657.196 L4151.18 675.748 L4168.27 690.737 L4185.36 691.605 L4202.45 681.495 L4219.54 670.803 L4236.63 679.281 L4253.72 702.349 L4270.81 731.376 L4287.9 764.54 L4304.99 800.344 L4322.08 831.742 L4339.17 857.151 L4356.26 857.356 L4373.35 833.296 L4390.44 806.49 L4407.53 775.796 L4424.62 743.965 L4441.71 717.992 L4458.8 699.006 L4475.89 686.779 L4492.98 678.228 L4510.07 678.609 L4527.16 686.119 L4544.25 704.338 L4561.34 725.004 L4578.43 742.067 L4595.52 744.419 L4612.62 735.008 L4629.71 724.306 L4629.71 78.1098 L4612.62 76.9071 L4595.52 76.417 L4578.43 75.1096 L4561.34 72.1734 L4544.25 70.8396 L4527.16 71.591 L4510.07 75.9244 L4492.98 79.79 L4475.89 82.784 L4458.8 83.2797 L4441.71 83.2627 L4424.62 83.9779 L4407.53 87.5932 L4390.44 94.5798 L4373.35 106.41 L4356.26 124.964 L4339.17 138.721 L4322.08 141.411 L4304.99 137.96 L4287.9 127.382 L4270.81 114.399 L4253.72 100.642 L4236.63 89.1098 L4219.54 80.9522 L4202.45 78.7952 L4185.36 78.3518 L4168.27 77.0878 L4151.18 74.2162 L4134.09 73.011 L4117 73.8983 L4099.91 78.2646 L4082.82 82.0231 L4065.72 85.0196 L4048.63 85.5128 L4031.54 85.5297 L4014.45 86.3252 L3997.36 89.9155 L3980.27 96.8786 L3963.18 108.687 L3946.09 127.176 L3929 140.888 L3911.91 143.607 L3894.82 140.243 L3877.73 129.718 L3860.64 116.096 L3843.55 102.356 L3826.46 90.8286 L3809.37 82.9655 L3792.28 81.6955 L3775.19 81.3468 L3758.1 80.1934 L3741.01 77.4422 L3723.92 76.2992 L3706.83 77.2055 L3689.74 81.4902 L3672.65 84.8344 L3655.56 87.8247 L3638.47 88.3105 L3621.38 88.3185 L3604.29 89.3433 L3587.2 93.5519 L3570.11 100.791 L3553.02 112.627 L3535.92 131.19 L3518.83 144.979 L3501.74 147.718 L3484.65 144.196 L3467.56 131.962 L3450.47 118.299 L3433.38 104.6 L3416.29 93.1112 L3399.2 85.2604 L3382.11 85.7518 L3365.02 85.4797 L3347.93 84.4111 L3330.84 81.757 L3313.75 80.7874 L3296.66 81.4317 L3279.57 84.8134 L3262.48 88.2297 L3245.39 91.2992 L3228.3 91.8689 L3211.21 91.9251 L3194.12 93.0206 L3177.03 97.3167 L3159.94 105.063 L3142.85 117.711 L3125.76 136.785 L3108.67 150.576 L3091.58 152.955 L3074.49 147.741 L3057.4 135.556 L3040.31 121.923 L3023.22 108.241 L3006.12 96.7706 L2989.03 88.9585 L2971.94 89.8707 L2954.85 91.716 L2937.76 90.3121 L2920.67 87.3164 L2903.58 86.0068 L2886.49 86.7047 L2869.4 90.2592 L2852.31 93.842 L2835.22 97.0628 L2818.13 97.7532 L2801.04 97.9303 L2783.95 99.1148 L2766.86 103.494 L2749.77 110.794 L2732.68 122.735 L2715.59 141.238 L2698.5 155.1 L2681.41 157.589 L2664.32 152.443 L2647.23 140.312 L2630.14 126.739 L2613.05 113.116 L2595.96 101.702 L2578.87 93.9286 L2561.78 94.9434 L2544.69 98.9517 L2527.6 97.6125 L2510.51 94.6966 L2493.42 93.5673 L2476.32 94.6682 L2459.23 98.3279 L2442.14 102.004 L2425.05 105.354 L2407.96 105.863 L2390.87 105.703 L2373.78 106.505 L2356.69 110.419 L2339.6 117.705 L2322.51 129.739 L2305.42 148.293 L2288.33 162.267 L2271.24 165.521 L2254.15 160.587 L2237.06 148.585 L2219.97 135.131 L2202.88 121.638 L2185.79 110.366 L2168.7 102.751 L2151.61 103.94 L2134.52 108.161 L2117.43 107.389 L2100.34 104.92 L2083.25 103.942 L2066.16 104.854 L2049.07 108.97 L2031.98 112.806 L2014.89 116.047 L1997.8 116.632 L1980.71 116.64 L1963.61 117.591 L1946.52 121.658 L1929.43 129.094 L1912.34 141.244 L1895.25 159.929 L1878.16 174.024 L1861.07 177.432 L1843.98 172.858 L1826.89 161.011 L1809.8 147.73 L1792.71 134.415 L1775.62 123.337 L1758.53 115.933 L1741.44 117.334 L1724.35 121.593 L1707.26 121.02 L1690.17 118.859 L1673.08 118.117 L1655.99 119.325 L1638.9 123.806 L1621.81 128.016 L1604.72 131.616 L1587.63 132.557 L1570.54 132.915 L1553.45 134.221 L1536.36 138.632 L1519.27 146.371 L1502.18 158.782 L1485.09 177.654 L1468 191.93 L1450.91 195.569 L1433.81 192.696 L1416.72 181.885 L1399.63 168.915 L1382.54 155.368 L1365.45 144.289 L1348.36 137.665 L1331.27 138.913 L1314.18 141.675 L1297.09 142.259 L1280 140.619 L1262.91 140.533 L1245.82 142.407 L1228.73 147.506 L1211.64 152.29 L1194.55 156.461 L1177.46 157.978 L1160.37 158.905 L1143.28 160.782 L1126.19 165.751 L1109.1 173.278 L1092.01 186.394 L1074.92 205.779 L1057.83 220.153 L1040.74 223.379 L1023.65 220.254 L1006.56 209.961 L989.466 197.019 L972.376 179.47 L955.286 165.414 L938.195 158.843 L921.105 165.82 L904.015 174.003 L886.925 177.248 L869.834 176.926 L852.744 177.278 L835.654 179 L818.563 184.365 L801.473 189.695 L784.383 194.659 L767.292 195.306 L750.202 189.36 L733.112 188.92 L716.021 197.214 L698.931 212.32 L681.841 230.588 L664.75 253.066 L647.66 269.08 L630.57 274.039 L613.479 272.63 L596.389 264.36 L579.299 254.631 L562.208 242.197 L545.118 230.725 L528.028 225.323  Z" fill="#aeaeae" fill-rule="evenodd" fill-opacity="0.5"/>
<polyline clip-path="url(#clip682)" style="stroke:#aeaeae; stroke-linecap:round; stroke-linejoin:round; stroke-width:0; stroke-opacity:1; fill:none" points="528.028,237.259 545.118,241.897 562.208,248.658 579.299,256.618 596.389,264.411 613.479,271.25 630.57,273.79 647.66,272.408 664.75,264.494 681.841,253.569 698.931,246.008 716.021,241.061 733.112,238.56 750.202,238.832 767.292,240.58 784.383,242.572 801.473,243.166 818.563,242.976 835.654,241.671 852.744,241.003 869.834,240.359 886.925,239.632 904.015,237.338 921.105,234.56 938.195,233.483 955.286,237.811 972.376,244.408 989.466,252.285 1006.56,260.047 1023.65,266.879 1040.74,269.398 1057.83,267.942 1074.92,259.987 1092.01,249.087 1109.1,241.707 1126.19,237.065 1143.28,234.869 1160.37,235.382 1177.46,237.291 1194.55,239.364 1211.64,239.953 1228.73,239.75 1245.82,238.447 1262.91,237.835 1280,237.282 1297.09,236.652 1314.18,234.447 1331.27,231.739 1348.36,230.722 1365.45,235.105 1382.54,241.752 1399.63,249.674 1416.72,257.479 1433.81,264.363 1450.91,266.918 1468,265.477 1485.09,257.475 1502.18,246.479 1519.27,239.063 1536.36,234.434 1553.45,232.269 1570.54,232.822 1587.63,234.764 1604.72,236.867 1621.81,237.465 1638.9,237.252 1655.99,235.966 1673.08,235.42 1690.17,234.948 1707.26,234.397 1724.35,232.26 1741.44,229.605 1758.53,228.628 1775.62,233.05 1792.71,239.728 1809.8,247.682 1826.89,255.518 1843.98,262.434 1861.07,265.013 1878.16,263.607 1895.25,255.608 1912.34,244.588 1929.43,237.161 1946.52,232.545 1963.61,230.409 1980.71,230.995 1997.8,232.962 2014.89,235.092 2031.98,235.729 2049.07,235.568 2066.16,234.318 2083.25,233.821 2100.34,233.394 2117.43,232.886 2134.52,230.787 2151.61,228.16 2168.7,227.207 2185.79,231.651 2202.88,238.347 2219.97,246.32 2237.06,254.18 2254.15,261.117 2271.24,263.718 2288.33,262.337 2305.42,254.335 2322.51,243.328 2339.6,235.906 2356.69,231.31 2373.78,229.202 2390.87,229.809 2407.96,231.802 2425.05,233.949 2442.14,234.613 2459.23,234.473 2476.32,233.259 2493.42,232.791 2510.51,232.405 2527.6,231.93 2544.69,229.858 2561.78,227.253 2578.87,226.317 2595.96,230.777 2613.05,237.487 2630.14,245.474 2647.23,253.343 2664.32,260.3 2681.41,262.927 2698.5,261.557 2715.59,253.589 2732.68,242.584 2749.77,235.181 2766.86,230.596 2783.95,228.492 2801.04,229.107 2818.13,231.11 2835.22,233.263 2852.31,233.928 2869.4,233.785 2886.49,232.571 2903.58,232.131 2920.67,231.772 2937.76,231.325 2954.85,229.274 2971.94,226.686 2989.03,225.762 3006.12,230.232 3023.22,236.95 3040.31,244.945 3057.4,252.828 3074.49,259.796 3091.58,262.442 3108.67,261.079 3125.76,253.101 3142.85,242.107 3159.94,234.711 3177.03,230.14 3194.12,228.044 3211.21,228.667 3228.3,230.68 3245.39,232.844 3262.48,233.515 3279.57,233.376 3296.66,232.176 3313.75,231.752 3330.84,231.412 3347.93,230.987 3365.02,228.953 3382.11,226.376 3399.2,225.46 3416.29,229.936 3433.38,236.661 3450.47,244.657 3467.56,252.547 3484.65,259.526 3501.74,262.17 3518.83,260.815 3535.92,252.82 3553.02,241.815 3570.11,234.436 3587.2,229.876 3604.29,227.792 3621.38,228.421 3638.47,230.435 3655.56,232.608 3672.65,233.285 3689.74,233.163 3706.83,231.966 3723.92,231.558 3741.01,231.231 3758.1,230.814 3775.19,228.79 3792.28,226.221 3809.37,225.309 3826.46,229.788 3843.55,236.513 3860.64,244.515 3877.73,252.406 3894.82,259.395 3911.91,262.048 3929,260.706 3946.09,252.756 3963.18,241.784 3980.27,234.39 3997.36,229.816 4014.45,227.728 4031.54,228.353 4048.63,230.36 4065.72,232.522 4082.82,233.204 4099.91,233.081 4117,231.885 4134.09,231.473 4151.18,231.16 4168.27,230.759 4185.36,228.746 4202.45,226.184 4219.54,225.275 4236.63,229.757 4253.72,236.483 4270.81,244.485 4287.9,252.382 4304.99,259.375 4322.08,262.05 4339.17,260.73 4356.26,252.766 4373.35,241.78 4390.44,234.391 4407.53,229.824 4424.62,227.728 4441.71,228.348 4458.8,230.351 4475.89,232.512 4492.98,233.19 4510.07,233.063 4527.16,231.885 4544.25,231.483 4561.34,231.183 4578.43,230.795 4595.52,228.793 4612.62,226.237 4629.71,225.329 "/>
<path clip-path="url(#clip682)" d="M528.028 246.604 L545.118 259.567 L562.208 278.522 L579.299 301.772 L596.389 326.01 L613.479 348.969 L630.57 363.238 L647.66 366.937 L664.75 352.299 L681.841 329.203 L698.931 313.018 L716.021 299.807 L733.112 293.9 L750.202 293.677 L767.292 298.75 L784.383 304.394 L801.473 309.259 L818.563 311.006 L835.654 309.443 L852.744 312.589 L869.834 314.807 L886.925 318.034 L904.015 314.669 L921.105 313.254 L938.195 311.738 L955.286 325.585 L972.376 344.684 L989.466 364.409 L1006.56 386.178 L1023.65 407.724 L1040.74 419.222 L1057.83 419.137 L1074.92 401.454 L1092.01 377.949 L1109.1 356.14 L1126.19 339.51 L1143.28 332.06 L1160.37 331.132 L1177.46 331.165 L1194.55 333.65 L1211.64 331.066 L1228.73 329.632 L1245.82 328.116 L1262.91 330.869 L1280 335.065 L1297.09 334.742 L1314.18 336.996 L1331.27 333.613 L1348.36 331.539 L1365.45 342.025 L1382.54 360.278 L1399.63 381.153 L1416.72 405.581 L1433.81 427.649 L1450.91 439.97 L1468 437.248 L1485.09 420.841 L1502.18 395.331 L1519.27 371.841 L1536.36 355.12 L1553.45 345.442 L1570.54 340.083 L1587.63 338.805 L1604.72 340.708 L1621.81 339.037 L1638.9 336.305 L1655.99 333.845 L1673.08 335.9 L1690.17 338.436 L1707.26 341.432 L1724.35 341.2 L1741.44 339.72 L1758.53 335.4 L1775.62 346.459 L1792.71 364.17 L1809.8 385.201 L1826.89 408.829 L1843.98 434.174 L1861.07 444.901 L1878.16 444.664 L1895.25 427.214 L1912.34 401.031 L1929.43 378.452 L1946.52 358.113 L1963.61 347.986 L1980.71 341.489 L1997.8 340.762 L2014.89 341.773 L2031.98 340.372 L2049.07 337.391 L2066.16 335.384 L2083.25 337.532 L2100.34 340.703 L2117.43 343.513 L2134.52 341.696 L2151.61 342.388 L2168.7 341.906 L2185.79 349.486 L2202.88 366.316 L2219.97 387.695 L2237.06 410.366 L2254.15 437.711 L2271.24 445.775 L2288.33 447.375 L2305.42 429.981 L2322.51 404.821 L2339.6 381.728 L2356.69 358.99 L2373.78 348.043 L2390.87 340.668 L2407.96 340.794 L2425.05 341.008 L2442.14 340.6 L2459.23 337.385 L2476.32 335.206 L2493.42 337.96 L2510.51 341.904 L2527.6 343.225 L2544.69 343.265 L2561.78 343.83 L2578.87 346.386 L2595.96 353.609 L2613.05 366.54 L2630.14 387.814 L2647.23 412.242 L2664.32 438.641 L2681.41 445.551 L2698.5 448.478 L2715.59 432.078 L2732.68 408.284 L2749.77 382.18 L2766.86 358.969 L2783.95 348.729 L2801.04 340.138 L2818.13 340.819 L2835.22 341.689 L2852.31 341.72 L2869.4 339.107 L2886.49 336.083 L2903.58 338.462 L2920.67 343.185 L2937.76 344.168 L2954.85 345.225 L2971.94 344.639 L2989.03 346.852 L3006.12 355.623 L3023.22 370.061 L3040.31 387.978 L3057.4 413.084 L3074.49 439.407 L3091.58 446.806 L3108.67 448.772 L3125.76 434.137 L3142.85 408.958 L3159.94 381.714 L3177.03 360.407 L3194.12 347.626 L3211.21 342.709 L3228.3 343.628 L3245.39 343.439 L3262.48 341.842 L3279.57 339.889 L3296.66 337.057 L3313.75 338.809 L3330.84 343.003 L3347.93 344.232 L3365.02 345.878 L3382.11 344.608 L3399.2 347.019 L3416.29 357.624 L3433.38 373.252 L3450.47 388.631 L3467.56 414.272 L3484.65 439.409 L3501.74 446.344 L3518.83 449.499 L3535.92 433.753 L3553.02 407.745 L3570.11 382.03 L3587.2 361.879 L3604.29 348.327 L3621.38 343.377 L3638.47 342.889 L3655.56 343.167 L3672.65 341.85 L3689.74 339.398 L3706.83 336.426 L3723.92 338.54 L3741.01 343.077 L3758.1 343.831 L3775.19 344.642 L3792.28 344.131 L3809.37 346.916 L3826.46 357.625 L3843.55 373.957 L3860.64 393.201 L3877.73 415.564 L3894.82 437.907 L3911.91 447.432 L3929 448.924 L3946.09 433.515 L3963.18 406.921 L3980.27 381.254 L3997.36 361.89 L4014.45 347.79 L4031.54 343.309 L4048.63 342.923 L4065.72 343.174 L4082.82 341.991 L4099.91 339.706 L4117 336.851 L4134.09 340.34 L4151.18 343.847 L4168.27 344.662 L4185.36 344.823 L4202.45 344.268 L4219.54 347.843 L4236.63 356.506 L4253.72 372.684 L4270.81 396.751 L4287.9 415.08 L4304.99 437.314 L4322.08 448.864 L4339.17 448.712 L4356.26 433.48 L4373.35 405.88 L4390.44 382.027 L4407.53 363.192 L4424.62 347.778 L4441.71 343.287 L4458.8 342.811 L4475.89 342.568 L4492.98 342.092 L4510.07 340.045 L4527.16 337.794 L4544.25 341.19 L4561.34 342.826 L4578.43 344.948 L4595.52 344.319 L4612.62 344.608 L4629.71 348.545 L4629.71 118.758 L4612.62 118.471 L4595.52 119.433 L4578.43 119.99 L4561.34 118.094 L4544.25 116.113 L4527.16 116.884 L4510.07 120.423 L4492.98 123.867 L4475.89 126.644 L4458.8 126.52 L4441.71 126.252 L4424.62 126.351 L4407.53 129.203 L4390.44 136.248 L4373.35 147.918 L4356.26 165.992 L4339.17 179.336 L4322.08 182.574 L4304.99 178.696 L4287.9 167.551 L4270.81 154.088 L4253.72 140.554 L4236.63 129.04 L4219.54 120.203 L4202.45 119.786 L4185.36 120.103 L4168.27 120.77 L4151.18 119.082 L4134.09 118.347 L4117 118.163 L4099.91 121.486 L4082.82 124.516 L4065.72 127.164 L4048.63 127.566 L4031.54 127.401 L4014.45 127.649 L3997.36 130.646 L3980.27 137.922 L3963.18 149.68 L3946.09 167.785 L3929 180.758 L3911.91 183.696 L3894.82 179.904 L3877.73 168.13 L3860.64 154.891 L3843.55 142.001 L3826.46 130.66 L3809.37 121.544 L3792.28 121.277 L3775.19 122.13 L3758.1 122.163 L3741.01 120.572 L3723.92 119.134 L3706.83 119.384 L3689.74 123.096 L3672.65 126.703 L3655.56 129.521 L3638.47 129.801 L3621.38 129.47 L3604.29 129.701 L3587.2 132.396 L3570.11 138.958 L3553.02 150.542 L3535.92 168.888 L3518.83 182.403 L3501.74 184.783 L3484.65 180.498 L3467.56 169.474 L3450.47 156.395 L3433.38 143.857 L3416.29 132.339 L3399.2 123.582 L3382.11 122.608 L3365.02 126.133 L3347.93 124.55 L3330.84 122.443 L3313.75 120.711 L3296.66 121.018 L3279.57 125.422 L3262.48 129.351 L3245.39 132.337 L3228.3 132.616 L3211.21 131.994 L3194.12 131.947 L3177.03 135.059 L3159.94 141.125 L3142.85 153.266 L3125.76 171.425 L3108.67 184.91 L3091.58 187.084 L3074.49 183.169 L3057.4 171.928 L3040.31 159.861 L3023.22 146.059 L3006.12 133.871 L2989.03 125.847 L2971.94 125.169 L2954.85 127.792 L2937.76 127.977 L2920.67 126.484 L2903.58 124.77 L2886.49 125.402 L2869.4 129.478 L2852.31 133.114 L2835.22 136.036 L2818.13 136.527 L2801.04 136.245 L2783.95 136.061 L2766.86 138.367 L2749.77 145.459 L2732.68 157.194 L2715.59 175.69 L2698.5 189.173 L2681.41 192.351 L2664.32 188.564 L2647.23 177.515 L2630.14 162.794 L2613.05 148.823 L2595.96 137.138 L2578.87 129.1 L2561.78 130.531 L2544.69 133.118 L2527.6 133.33 L2510.51 131.526 L2493.42 131.131 L2476.32 131.863 L2459.23 136.005 L2442.14 139.912 L2425.05 143.306 L2407.96 143.864 L2390.87 141.92 L2373.78 140.763 L2356.69 144.508 L2339.6 151.488 L2322.51 163.148 L2305.42 181.508 L2288.33 195.197 L2271.24 198.245 L2254.15 193.959 L2237.06 181.806 L2219.97 167.765 L2202.88 153.978 L2185.79 142.143 L2168.7 133.715 L2151.61 135.838 L2134.52 140.181 L2117.43 140.744 L2100.34 138.465 L2083.25 138.384 L2066.16 140.146 L2049.07 144.961 L2031.98 148.962 L2014.89 152.158 L1997.8 152.623 L1980.71 151.306 L1963.61 152.308 L1946.52 155.507 L1929.43 160.783 L1912.34 172.096 L1895.25 190.397 L1878.16 204.221 L1861.07 207.416 L1843.98 203.356 L1826.89 190.942 L1809.8 177.094 L1792.71 162.221 L1775.62 150.188 L1758.53 142.876 L1741.44 144.552 L1724.35 150.403 L1707.26 153.717 L1690.17 152.416 L1673.08 152.367 L1655.99 153.572 L1638.9 159.21 L1621.81 164.098 L1604.72 166.797 L1587.63 167.843 L1570.54 166.101 L1553.45 164.303 L1536.36 166.711 L1519.27 173.025 L1502.18 184.68 L1485.09 203.627 L1468 218.489 L1450.91 220.733 L1433.81 216.863 L1416.72 203.998 L1399.63 189.436 L1382.54 174.559 L1365.45 162.285 L1348.36 154.595 L1331.27 158.185 L1314.18 165.018 L1297.09 170.062 L1280 170.954 L1262.91 171.27 L1245.82 173 L1228.73 178.162 L1211.64 183.496 L1194.55 186.554 L1177.46 184.684 L1160.37 181.547 L1143.28 179.321 L1126.19 182.464 L1109.1 190.374 L1092.01 202.981 L1074.92 222.891 L1057.83 237.822 L1040.74 241.205 L1023.65 236.47 L1006.56 224.701 L989.466 210.006 L972.376 193.563 L955.286 180.598 L938.195 173.763 L921.105 179.316 L904.015 187.696 L886.925 195.011 L869.834 197.858 L852.744 199.108 L835.654 202.492 L818.563 208.662 L801.473 212.488 L784.383 211.588 L767.292 207.951 L750.202 204.111 L733.112 204.336 L716.021 211.798 L698.931 223.868 L681.841 239.739 L664.75 261.38 L647.66 277.226 L630.57 282.069 L613.479 280.554 L596.389 271.082 L579.299 259.651 L562.208 246.088 L545.118 234.415 L528.028 228.04  Z" fill="#757575" fill-rule="evenodd" fill-opacity="0.5"/>
<polyline clip-path="url(#clip682)" style="stroke:#757575; stroke-linecap:round; stroke-linejoin:round; stroke-width:0; stroke-opacity:1; fill:none" points="528.028,237.259 545.118,241.897 562.208,248.658 579.299,256.618 596.389,264.411 613.479,271.25 630.57,273.79 647.66,272.408 664.75,264.494 681.841,253.569 698.931,246.008 716.021,241.061 733.112,238.56 750.202,238.832 767.292,240.58 784.383,242.572 801.473,243.166 818.563,242.976 835.654,241.671 852.744,241.003 869.834,240.359 886.925,239.632 904.015,237.338 921.105,234.56 938.195,233.483 955.286,237.811 972.376,244.408 989.466,252.285 1006.56,260.047 1023.65,266.879 1040.74,269.398 1057.83,267.942 1074.92,259.987 1092.01,249.087 1109.1,241.707 1126.19,237.065 1143.28,234.869 1160.37,235.382 1177.46,237.291 1194.55,239.364 1211.64,239.953 1228.73,239.75 1245.82,238.447 1262.91,237.835 1280,237.282 1297.09,236.652 1314.18,234.447 1331.27,231.739 1348.36,230.722 1365.45,235.105 1382.54,241.752 1399.63,249.674 1416.72,257.479 1433.81,264.363 1450.91,266.918 1468,265.477 1485.09,257.475 1502.18,246.479 1519.27,239.063 1536.36,234.434 1553.45,232.269 1570.54,232.822 1587.63,234.764 1604.72,236.867 1621.81,237.465 1638.9,237.252 1655.99,235.966 1673.08,235.42 1690.17,234.948 1707.26,234.397 1724.35,232.26 1741.44,229.605 1758.53,228.628 1775.62,233.05 1792.71,239.728 1809.8,247.682 1826.89,255.518 1843.98,262.434 1861.07,265.013 1878.16,263.607 1895.25,255.608 1912.34,244.588 1929.43,237.161 1946.52,232.545 1963.61,230.409 1980.71,230.995 1997.8,232.962 2014.89,235.092 2031.98,235.729 2049.07,235.568 2066.16,234.318 2083.25,233.821 2100.34,233.394 2117.43,232.886 2134.52,230.787 2151.61,228.16 2168.7,227.207 2185.79,231.651 2202.88,238.347 2219.97,246.32 2237.06,254.18 2254.15,261.117 2271.24,263.718 2288.33,262.337 2305.42,254.335 2322.51,243.328 2339.6,235.906 2356.69,231.31 2373.78,229.202 2390.87,229.809 2407.96,231.802 2425.05,233.949 2442.14,234.613 2459.23,234.473 2476.32,233.259 2493.42,232.791 2510.51,232.405 2527.6,231.93 2544.69,229.858 2561.78,227.253 2578.87,226.317 2595.96,230.777 2613.05,237.487 2630.14,245.474 2647.23,253.343 2664.32,260.3 2681.41,262.927 2698.5,261.557 2715.59,253.589 2732.68,242.584 2749.77,235.181 2766.86,230.596 2783.95,228.492 2801.04,229.107 2818.13,231.11 2835.22,233.263 2852.31,233.928 2869.4,233.785 2886.49,232.571 2903.58,232.131 2920.67,231.772 2937.76,231.325 2954.85,229.274 2971.94,226.686 2989.03,225.762 3006.12,230.232 3023.22,236.95 3040.31,244.945 3057.4,252.828 3074.49,259.796 3091.58,262.442 3108.67,261.079 3125.76,253.101 3142.85,242.107 3159.94,234.711 3177.03,230.14 3194.12,228.044 3211.21,228.667 3228.3,230.68 3245.39,232.844 3262.48,233.515 3279.57,233.376 3296.66,232.176 3313.75,231.752 3330.84,231.412 3347.93,230.987 3365.02,228.953 3382.11,226.376 3399.2,225.46 3416.29,229.936 3433.38,236.661 3450.47,244.657 3467.56,252.547 3484.65,259.526 3501.74,262.17 3518.83,260.815 3535.92,252.82 3553.02,241.815 3570.11,234.436 3587.2,229.876 3604.29,227.792 3621.38,228.421 3638.47,230.435 3655.56,232.608 3672.65,233.285 3689.74,233.163 3706.83,231.966 3723.92,231.558 3741.01,231.231 3758.1,230.814 3775.19,228.79 3792.28,226.221 3809.37,225.309 3826.46,229.788 3843.55,236.513 3860.64,244.515 3877.73,252.406 3894.82,259.395 3911.91,262.048 3929,260.706 3946.09,252.756 3963.18,241.784 3980.27,234.39 3997.36,229.816 4014.45,227.728 4031.54,228.353 4048.63,230.36 4065.72,232.522 4082.82,233.204 4099.91,233.081 4117,231.885 4134.09,231.473 4151.18,231.16 4168.27,230.759 4185.36,228.746 4202.45,226.184 4219.54,225.275 4236.63,229.757 4253.72,236.483 4270.81,244.485 4287.9,252.382 4304.99,259.375 4322.08,262.05 4339.17,260.73 4356.26,252.766 4373.35,241.78 4390.44,234.391 4407.53,229.824 4424.62,227.728 4441.71,228.348 4458.8,230.351 4475.89,232.512 4492.98,233.19 4510.07,233.063 4527.16,231.885 4544.25,231.483 4561.34,231.183 4578.43,230.795 4595.52,228.793 4612.62,226.237 4629.71,225.329 "/>
<path clip-path="url(#clip682)" d="M528.028 242.074 L545.118 252.743 L562.208 269.119 L579.299 289.603 L596.389 312.009 L613.479 332.426 L630.57 342.799 L647.66 343.628 L664.75 327.321 L681.841 302.467 L698.931 284.397 L716.021 273.087 L733.112 268.695 L750.202 270.097 L767.292 274.616 L784.383 280.296 L801.473 283.601 L818.563 285.154 L835.654 283.601 L852.744 284.69 L869.834 286.362 L886.925 287.438 L904.015 282.608 L921.105 278.831 L938.195 279.219 L955.286 289.94 L972.376 303.757 L989.466 319.96 L1006.56 336.152 L1023.65 350.769 L1040.74 361.233 L1057.83 361.295 L1074.92 343.696 L1092.01 318.841 L1109.1 300.845 L1126.19 290.101 L1143.28 282.697 L1160.37 284.429 L1177.46 287.82 L1194.55 290.567 L1211.64 293.364 L1228.73 294.552 L1245.82 292.613 L1262.91 293.738 L1280 293.949 L1297.09 293.789 L1314.18 289.666 L1331.27 286.191 L1348.36 285.433 L1365.45 296.047 L1382.54 311.336 L1399.63 325.227 L1416.72 342.811 L1433.81 358.519 L1450.91 367.55 L1468 367.846 L1485.09 348.999 L1502.18 322.605 L1519.27 305.67 L1536.36 293.654 L1553.45 288.196 L1570.54 287.337 L1587.63 289.931 L1604.72 293.433 L1621.81 295.347 L1638.9 296.568 L1655.99 293.688 L1673.08 294.851 L1690.17 294.745 L1707.26 293.723 L1724.35 288.675 L1741.44 287.152 L1758.53 286.084 L1775.62 297.595 L1792.71 311.069 L1809.8 325.54 L1826.89 341.606 L1843.98 359.777 L1861.07 369.389 L1878.16 368.213 L1895.25 350.041 L1912.34 323.8 L1929.43 305.479 L1946.52 293.195 L1963.61 287.628 L1980.71 287.286 L1997.8 289.4 L2014.89 294.036 L2031.98 295.286 L2049.07 295.991 L2066.16 293.558 L2083.25 293.477 L2100.34 294.462 L2117.43 292.354 L2134.52 288.366 L2151.61 286.247 L2168.7 286.055 L2185.79 296.562 L2202.88 310.07 L2219.97 323.734 L2237.06 341.188 L2254.15 360.14 L2271.24 368.683 L2288.33 367.589 L2305.42 348.754 L2322.51 323.657 L2339.6 305.185 L2356.69 293.934 L2373.78 286.375 L2390.87 286.548 L2407.96 289.327 L2425.05 293.079 L2442.14 294.511 L2459.23 295.823 L2476.32 294.033 L2493.42 294.57 L2510.51 294.313 L2527.6 293.129 L2544.69 287.263 L2561.78 284.757 L2578.87 284.712 L2595.96 296.158 L2613.05 308.918 L2630.14 324.54 L2647.23 341.129 L2664.32 358.824 L2681.41 368.413 L2698.5 367.339 L2715.59 349.042 L2732.68 323.32 L2749.77 305.294 L2766.86 292.965 L2783.95 285.968 L2801.04 286.845 L2818.13 289.221 L2835.22 292.698 L2852.31 294.924 L2869.4 295.309 L2886.49 293.347 L2903.58 293.5 L2920.67 293.881 L2937.76 291.4 L2954.85 286.777 L2971.94 284.153 L2989.03 284.501 L3006.12 294.857 L3023.22 308.814 L3040.31 323.786 L3057.4 339.842 L3074.49 358.109 L3091.58 368.66 L3108.67 367.085 L3125.76 348.843 L3142.85 322.558 L3159.94 304.394 L3177.03 292.686 L3194.12 286.451 L3211.21 286.001 L3228.3 288.832 L3245.39 291.955 L3262.48 294.602 L3279.57 295.438 L3296.66 292.855 L3313.75 293.413 L3330.84 293.324 L3347.93 292.185 L3365.02 286.572 L3382.11 283.648 L3399.2 284.027 L3416.29 294.691 L3433.38 308.032 L3450.47 323.29 L3467.56 339.359 L3484.65 358.214 L3501.74 368.671 L3518.83 366.102 L3535.92 348.968 L3553.02 321.684 L3570.11 303.184 L3587.2 292.679 L3604.29 285.938 L3621.38 286.599 L3638.47 289.445 L3655.56 292.136 L3672.65 294.428 L3689.74 295.398 L3706.83 293.315 L3723.92 292.844 L3741.01 293.149 L3758.1 292.116 L3775.19 286.889 L3792.28 284.009 L3809.37 283.723 L3826.46 294.239 L3843.55 307.658 L3860.64 322.085 L3877.73 339.744 L3894.82 357.826 L3911.91 367.324 L3929 367.033 L3946.09 349.419 L3963.18 322.104 L3980.27 304.739 L3997.36 292.832 L4014.45 286.165 L4031.54 287.111 L4048.63 289.621 L4065.72 293.655 L4082.82 294.659 L4099.91 294.531 L4117 293.123 L4134.09 293.014 L4151.18 293.453 L4168.27 292.771 L4185.36 286.903 L4202.45 283.866 L4219.54 283.523 L4236.63 294.385 L4253.72 307.659 L4270.81 322.97 L4287.9 339.149 L4304.99 357.756 L4322.08 368.341 L4339.17 366.845 L4356.26 349.718 L4373.35 322.504 L4390.44 304.679 L4407.53 293.356 L4424.62 286.607 L4441.71 287.291 L4458.8 290.398 L4475.89 293.978 L4492.98 294.953 L4510.07 295.153 L4527.16 293.197 L4544.25 292.871 L4561.34 293.585 L4578.43 293.223 L4595.52 287.57 L4612.62 283.626 L4629.71 284.286 L4629.71 134.3 L4612.62 135.649 L4595.52 138.973 L4578.43 141.378 L4561.34 142.498 L4544.25 144.713 L4527.16 146.577 L4510.07 150.524 L4492.98 153.846 L4475.89 156.588 L4458.8 155.475 L4441.71 151.83 L4424.62 148.247 L4407.53 149.259 L4390.44 155.058 L4373.35 165.838 L4356.26 183.63 L4339.17 196.824 L4322.08 199.446 L4304.99 195.319 L4287.9 183.773 L4270.81 169.58 L4253.72 155.876 L4236.63 143.886 L4219.54 135.538 L4202.45 136.066 L4185.36 140.466 L4168.27 142.572 L4151.18 143.436 L4134.09 145.423 L4117 147.432 L4099.91 151.272 L4082.82 154.749 L4065.72 157.353 L4048.63 155.534 L4031.54 151.912 L4014.45 149.22 L3997.36 150.722 L3980.27 156.041 L3963.18 167.09 L3946.09 184.897 L3929 198.606 L3911.91 200.815 L3894.82 197.189 L3877.73 184.344 L3860.64 170.465 L3843.55 156.524 L3826.46 144.06 L3809.37 135.922 L3792.28 137.244 L3775.19 141.711 L3758.1 144.157 L3741.01 144.034 L3723.92 146.226 L3706.83 147.894 L3689.74 151.776 L3672.65 155.354 L3655.56 158.472 L3638.47 157.124 L3621.38 153.608 L3604.29 150.675 L3587.2 152.158 L3570.11 158.208 L3553.02 168.538 L3535.92 186.189 L3518.83 200.122 L3501.74 202.306 L3484.65 197.855 L3467.56 185.168 L3450.47 171.691 L3433.38 157.292 L3416.29 144.99 L3399.2 137.03 L3382.11 138.699 L3365.02 142.612 L3347.93 145.51 L3330.84 147.391 L3313.75 148.472 L3296.66 150.487 L3279.57 154.556 L3262.48 158.931 L3245.39 161.855 L3228.3 159.589 L3211.21 155.959 L3194.12 153.809 L3177.03 155.258 L3159.94 160.194 L3142.85 170.585 L3125.76 188.945 L3108.67 202.721 L3091.58 204.744 L3074.49 199.859 L3057.4 187.832 L3040.31 173.433 L3023.22 159.015 L3006.12 146.396 L2989.03 138.654 L2971.94 140.763 L2954.85 145.311 L2937.76 148.475 L2920.67 150.341 L2903.58 151.742 L2886.49 153.471 L2869.4 158.642 L2852.31 163.182 L2835.22 164.958 L2818.13 162.867 L2801.04 159.977 L2783.95 155.729 L2766.86 156.829 L2749.77 162.382 L2732.68 173.244 L2715.59 191.748 L2698.5 205.598 L2681.41 207.508 L2664.32 202.654 L2647.23 190.549 L2630.14 175.894 L2613.05 161.609 L2595.96 148.315 L2578.87 141.051 L2561.78 143.595 L2544.69 148.418 L2527.6 152.709 L2510.51 154.154 L2493.42 155.764 L2476.32 158.373 L2459.23 164.398 L2442.14 168.225 L2425.05 169.554 L2407.96 167.487 L2390.87 162.632 L2373.78 158.705 L2356.69 160.288 L2339.6 166.278 L2322.51 176.844 L2305.42 195.088 L2288.33 208.913 L2271.24 211.395 L2254.15 207.438 L2237.06 194.741 L2219.97 180.772 L2202.88 166.339 L2185.79 153.67 L2168.7 145.688 L2151.61 147.88 L2134.52 152.507 L2117.43 157.331 L2100.34 160.325 L2083.25 162.866 L2066.16 164.333 L2049.07 169.959 L2031.98 174.352 L2014.89 175.553 L1997.8 173.468 L1980.71 167.534 L1963.61 163.906 L1946.52 166.183 L1929.43 171.548 L1912.34 182.829 L1895.25 201.965 L1878.16 216.281 L1861.07 219.059 L1843.98 214.239 L1826.89 201.818 L1809.8 187.382 L1792.71 172.59 L1775.62 160.684 L1758.53 152.78 L1741.44 154.971 L1724.35 161.067 L1707.26 165.714 L1690.17 167.978 L1673.08 169.707 L1655.99 172.506 L1638.9 178.451 L1621.81 183.018 L1604.72 184.347 L1587.63 180.245 L1570.54 175.13 L1553.45 172.685 L1536.36 174.268 L1519.27 180.712 L1502.18 193.373 L1485.09 212.92 L1468 227.318 L1450.91 230.02 L1433.81 225.336 L1416.72 213.199 L1399.63 199.82 L1382.54 184.308 L1365.45 171.408 L1348.36 164.125 L1331.27 167.963 L1314.18 173.138 L1297.09 179.304 L1280 182.082 L1262.91 184.026 L1245.82 187.803 L1228.73 194.053 L1211.64 197.349 L1194.55 196.11 L1177.46 192.317 L1160.37 188.182 L1143.28 185.702 L1126.19 189.173 L1109.1 196.981 L1092.01 209.877 L1074.92 231.153 L1057.83 246.334 L1040.74 249.543 L1023.65 244.822 L1006.56 231.641 L989.466 216.399 L972.376 200.861 L955.286 187.459 L938.195 180.388 L921.105 185.413 L904.015 193.92 L886.925 201.116 L869.834 204.851 L852.744 208.127 L835.654 211.819 L818.563 215.45 L801.473 216.455 L784.383 216.564 L767.292 213.838 L750.202 210.568 L733.112 210.481 L716.021 217.275 L698.931 227.725 L681.841 243.181 L664.75 265.108 L647.66 280.91 L630.57 285.757 L613.479 283.907 L596.389 274.21 L579.299 261.672 L562.208 247.637 L545.118 235.895 L528.028 229.078  Z" fill="#414141" fill-rule="evenodd" fill-opacity="0.5"/>
<polyline clip-path="url(#clip682)" style="stroke:#414141; stroke-linecap:round; stroke-linejoin:round; stroke-width:0; stroke-opacity:1; fill:none" points="528.028,237.259 545.118,241.897 562.208,248.658 579.299,256.618 596.389,264.411 613.479,271.25 630.57,273.79 647.66,272.408 664.75,264.494 681.841,253.569 698.931,246.008 716.021,241.061 733.112,238.56 750.202,238.832 767.292,240.58 784.383,242.572 801.473,243.166 818.563,242.976 835.654,241.671 852.744,241.003 869.834,240.359 886.925,239.632 904.015,237.338 921.105,234.56 938.195,233.483 955.286,237.811 972.376,244.408 989.466,252.285 1006.56,260.047 1023.65,266.879 1040.74,269.398 1057.83,267.942 1074.92,259.987 1092.01,249.087 1109.1,241.707 1126.19,237.065 1143.28,234.869 1160.37,235.382 1177.46,237.291 1194.55,239.364 1211.64,239.953 1228.73,239.75 1245.82,238.447 1262.91,237.835 1280,237.282 1297.09,236.652 1314.18,234.447 1331.27,231.739 1348.36,230.722 1365.45,235.105 1382.54,241.752 1399.63,249.674 1416.72,257.479 1433.81,264.363 1450.91,266.918 1468,265.477 1485.09,257.475 1502.18,246.479 1519.27,239.063 1536.36,234.434 1553.45,232.269 1570.54,232.822 1587.63,234.764 1604.72,236.867 1621.81,237.465 1638.9,237.252 1655.99,235.966 1673.08,235.42 1690.17,234.948 1707.26,234.397 1724.35,232.26 1741.44,229.605 1758.53,228.628 1775.62,233.05 1792.71,239.728 1809.8,247.682 1826.89,255.518 1843.98,262.434 1861.07,265.013 1878.16,263.607 1895.25,255.608 1912.34,244.588 1929.43,237.161 1946.52,232.545 1963.61,230.409 1980.71,230.995 1997.8,232.962 2014.89,235.092 2031.98,235.729 2049.07,235.568 2066.16,234.318 2083.25,233.821 2100.34,233.394 2117.43,232.886 2134.52,230.787 2151.61,228.16 2168.7,227.207 2185.79,231.651 2202.88,238.347 2219.97,246.32 2237.06,254.18 2254.15,261.117 2271.24,263.718 2288.33,262.337 2305.42,254.335 2322.51,243.328 2339.6,235.906 2356.69,231.31 2373.78,229.202 2390.87,229.809 2407.96,231.802 2425.05,233.949 2442.14,234.613 2459.23,234.473 2476.32,233.259 2493.42,232.791 2510.51,232.405 2527.6,231.93 2544.69,229.858 2561.78,227.253 2578.87,226.317 2595.96,230.777 2613.05,237.487 2630.14,245.474 2647.23,253.343 2664.32,260.3 2681.41,262.927 2698.5,261.557 2715.59,253.589 2732.68,242.584 2749.77,235.181 2766.86,230.596 2783.95,228.492 2801.04,229.107 2818.13,231.11 2835.22,233.263 2852.31,233.928 2869.4,233.785 2886.49,232.571 2903.58,232.131 2920.67,231.772 2937.76,231.325 2954.85,229.274 2971.94,226.686 2989.03,225.762 3006.12,230.232 3023.22,236.95 3040.31,244.945 3057.4,252.828 3074.49,259.796 3091.58,262.442 3108.67,261.079 3125.76,253.101 3142.85,242.107 3159.94,234.711 3177.03,230.14 3194.12,228.044 3211.21,228.667 3228.3,230.68 3245.39,232.844 3262.48,233.515 3279.57,233.376 3296.66,232.176 3313.75,231.752 3330.84,231.412 3347.93,230.987 3365.02,228.953 3382.11,226.376 3399.2,225.46 3416.29,229.936 3433.38,236.661 3450.47,244.657 3467.56,252.547 3484.65,259.526 3501.74,262.17 3518.83,260.815 3535.92,252.82 3553.02,241.815 3570.11,234.436 3587.2,229.876 3604.29,227.792 3621.38,228.421 3638.47,230.435 3655.56,232.608 3672.65,233.285 3689.74,233.163 3706.83,231.966 3723.92,231.558 3741.01,231.231 3758.1,230.814 3775.19,228.79 3792.28,226.221 3809.37,225.309 3826.46,229.788 3843.55,236.513 3860.64,244.515 3877.73,252.406 3894.82,259.395 3911.91,262.048 3929,260.706 3946.09,252.756 3963.18,241.784 3980.27,234.39 3997.36,229.816 4014.45,227.728 4031.54,228.353 4048.63,230.36 4065.72,232.522 4082.82,233.204 4099.91,233.081 4117,231.885 4134.09,231.473 4151.18,231.16 4168.27,230.759 4185.36,228.746 4202.45,226.184 4219.54,225.275 4236.63,229.757 4253.72,236.483 4270.81,244.485 4287.9,252.382 4304.99,259.375 4322.08,262.05 4339.17,260.73 4356.26,252.766 4373.35,241.78 4390.44,234.391 4407.53,229.824 4424.62,227.728 4441.71,228.348 4458.8,230.351 4475.89,232.512 4492.98,233.19 4510.07,233.063 4527.16,231.885 4544.25,231.483 4561.34,231.183 4578.43,230.795 4595.52,228.793 4612.62,226.237 4629.71,225.329 "/>
<path clip-path="url(#clip680)" d="M3853.78 853.161 L4607.83 853.161 L4607.83 334.761 L3853.78 334.761  Z" fill="#ffffff" fill-rule="evenodd" fill-opacity="1"/>
<polyline clip-path="url(#clip680)" style="stroke:#000000; stroke-linecap:round; stroke-linejoin:round; stroke-width:4; stroke-opacity:1; fill:none" points="3853.78,853.161 4607.83,853.161 4607.83,334.761 3853.78,334.761 3853.78,853.161 "/>
<polyline clip-path="url(#clip680)" style="stroke:#aeaeae; stroke-linecap:round; stroke-linejoin:round; stroke-width:2; stroke-opacity:1; fill:none" points="3902.09,464.361 4191.94,464.361 "/>
<path clip-path="url(#clip680)" d="M4241.93 497.723 L4261.03 497.723 L4261.03 431.809 L4240.25 435.976 L4240.25 425.328 L4260.91 421.161 L4272.6 421.161 L4272.6 497.723 L4291.7 497.723 L4291.7 507.561 L4241.93 507.561 L4241.93 497.723 Z" fill="#000000" fill-rule="nonzero" fill-opacity="1" /><path clip-path="url(#clip680)" d="M4340.31 428.858 Q4331.28 428.858 4326.71 437.77 Q4322.2 446.624 4322.2 464.448 Q4322.2 482.214 4326.71 491.126 Q4331.28 499.98 4340.31 499.98 Q4349.4 499.98 4353.91 491.126 Q4358.48 482.214 4358.48 464.448 Q4358.48 446.624 4353.91 437.77 Q4349.4 428.858 4340.31 428.858 M4340.31 419.599 Q4354.83 419.599 4362.47 431.115 Q4370.17 442.573 4370.17 464.448 Q4370.17 486.265 4362.47 497.781 Q4354.83 509.239 4340.31 509.239 Q4325.78 509.239 4318.09 497.781 Q4310.45 486.265 4310.45 464.448 Q4310.45 442.573 4318.09 431.115 Q4325.78 419.599 4340.31 419.599 Z" fill="#000000" fill-rule="nonzero" fill-opacity="1" /><path clip-path="url(#clip680)" d="M4415.71 428.858 Q4406.69 428.858 4402.11 437.77 Q4397.6 446.624 4397.6 464.448 Q4397.6 482.214 4402.11 491.126 Q4406.69 499.98 4415.71 499.98 Q4424.8 499.98 4429.31 491.126 Q4433.89 482.214 4433.89 464.448 Q4433.89 446.624 4429.31 437.77 Q4424.8 428.858 4415.71 428.858 M4415.71 419.599 Q4430.24 419.599 4437.88 431.115 Q4445.58 442.573 4445.58 464.448 Q4445.58 486.265 4437.88 497.781 Q4430.24 509.239 4415.71 509.239 Q4401.19 509.239 4393.49 497.781 Q4385.85 486.265 4385.85 464.448 Q4385.85 442.573 4393.49 431.115 Q4401.19 419.599 4415.71 419.599 Z" fill="#000000" fill-rule="nonzero" fill-opacity="1" /><path clip-path="url(#clip680)" d="M4539.61 469.541 Q4534.58 469.541 4531.69 473.823 Q4528.85 478.105 4528.85 485.744 Q4528.85 493.267 4531.69 497.608 Q4534.58 501.89 4539.61 501.89 Q4544.53 501.89 4547.37 497.608 Q4550.26 493.267 4550.26 485.744 Q4550.26 478.163 4547.37 473.881 Q4544.53 469.541 4539.61 469.541 M4539.61 462.191 Q4548.76 462.191 4554.14 468.557 Q4559.52 474.923 4559.52 485.744 Q4559.52 496.566 4554.08 502.932 Q4548.7 509.239 4539.61 509.239 Q4530.35 509.239 4524.97 502.932 Q4519.59 496.566 4519.59 485.744 Q4519.59 474.865 4524.97 468.557 Q4530.41 462.191 4539.61 462.191 M4479.89 426.948 Q4474.92 426.948 4472.02 431.289 Q4469.19 435.571 4469.19 443.094 Q4469.19 450.733 4472.02 455.015 Q4474.86 459.298 4479.89 459.298 Q4484.93 459.298 4487.76 455.015 Q4490.66 450.733 4490.66 443.094 Q4490.66 435.629 4487.76 431.289 Q4484.87 426.948 4479.89 426.948 M4532.15 419.599 L4541.41 419.599 L4487.36 509.239 L4478.1 509.239 L4532.15 419.599 M4479.89 419.599 Q4489.04 419.599 4494.48 425.964 Q4499.92 432.272 4499.92 443.094 Q4499.92 454.031 4494.48 460.339 Q4489.09 466.647 4479.89 466.647 Q4470.69 466.647 4465.31 460.339 Q4459.98 453.974 4459.98 443.094 Q4459.98 432.33 4465.37 425.964 Q4470.75 419.599 4479.89 419.599 Z" fill="#000000" fill-rule="nonzero" fill-opacity="1" /><polyline clip-path="url(#clip680)" style="stroke:#757575; stroke-linecap:round; stroke-linejoin:round; stroke-width:2; stroke-opacity:1; fill:none" points="3902.09,593.961 4191.94,593.961 "/>
<path clip-path="url(#clip680)" d="M4245.81 635.367 L4245.81 624.719 Q4250.21 626.803 4254.72 627.902 Q4259.23 629.002 4263.57 629.002 Q4275.15 629.002 4281.22 621.247 Q4287.36 613.435 4288.23 597.578 Q4284.87 602.555 4279.72 605.217 Q4274.57 607.879 4268.32 607.879 Q4255.36 607.879 4247.78 600.067 Q4240.25 592.196 4240.25 578.597 Q4240.25 565.287 4248.12 557.243 Q4255.99 549.199 4269.07 549.199 Q4284.06 549.199 4291.93 560.715 Q4299.86 572.173 4299.86 594.048 Q4299.86 614.476 4290.14 626.687 Q4280.47 638.839 4264.09 638.839 Q4259.7 638.839 4255.18 637.971 Q4250.67 637.103 4245.81 635.367 M4269.07 598.736 Q4276.94 598.736 4281.51 593.354 Q4286.14 587.972 4286.14 578.597 Q4286.14 569.28 4281.51 563.898 Q4276.94 558.458 4269.07 558.458 Q4261.2 558.458 4256.57 563.898 Q4252 569.28 4252 578.597 Q4252 587.972 4256.57 593.354 Q4261.2 598.736 4269.07 598.736 Z" fill="#000000" fill-rule="nonzero" fill-opacity="1" /><path clip-path="url(#clip680)" d="M4345.87 558.458 Q4336.84 558.458 4332.27 567.37 Q4327.75 576.224 4327.75 594.048 Q4327.75 611.814 4332.27 620.726 Q4336.84 629.58 4345.87 629.58 Q4354.95 629.58 4359.46 620.726 Q4364.04 611.814 4364.04 594.048 Q4364.04 576.224 4359.46 567.37 Q4354.95 558.458 4345.87 558.458 M4345.87 549.199 Q4360.39 549.199 4368.03 560.715 Q4375.73 572.173 4375.73 594.048 Q4375.73 615.865 4368.03 627.381 Q4360.39 638.839 4345.87 638.839 Q4331.34 638.839 4323.64 627.381 Q4316 615.865 4316 594.048 Q4316 572.173 4323.64 560.715 Q4331.34 549.199 4345.87 549.199 Z" fill="#000000" fill-rule="nonzero" fill-opacity="1" /><path clip-path="url(#clip680)" d="M4469.76 599.141 Q4464.73 599.141 4461.84 603.423 Q4459 607.705 4459 615.344 Q4459 622.867 4461.84 627.208 Q4464.73 631.49 4469.76 631.49 Q4474.68 631.49 4477.52 627.208 Q4480.41 622.867 4480.41 615.344 Q4480.41 607.763 4477.52 603.481 Q4474.68 599.141 4469.76 599.141 M4469.76 591.791 Q4478.91 591.791 4484.29 598.157 Q4489.67 604.523 4489.67 615.344 Q4489.67 626.166 4484.23 632.532 Q4478.85 638.839 4469.76 638.839 Q4460.51 638.839 4455.12 632.532 Q4449.74 626.166 4449.74 615.344 Q4449.74 604.465 4455.12 598.157 Q4460.56 591.791 4469.76 591.791 M4410.04 556.548 Q4405.07 556.548 4402.17 560.889 Q4399.34 565.171 4399.34 572.694 Q4399.34 580.333 4402.17 584.615 Q4405.01 588.898 4410.04 588.898 Q4415.08 588.898 4417.91 584.615 Q4420.81 580.333 4420.81 572.694 Q4420.81 565.229 4417.91 560.889 Q4415.02 556.548 4410.04 556.548 M4462.3 549.199 L4471.56 549.199 L4417.51 638.839 L4408.25 638.839 L4462.3 549.199 M4410.04 549.199 Q4419.19 549.199 4424.63 555.564 Q4430.07 561.872 4430.07 572.694 Q4430.07 583.631 4424.63 589.939 Q4419.24 596.247 4410.04 596.247 Q4400.84 596.247 4395.46 589.939 Q4390.14 583.574 4390.14 572.694 Q4390.14 561.93 4395.52 555.564 Q4400.9 549.199 4410.04 549.199 Z" fill="#000000" fill-rule="nonzero" fill-opacity="1" /><polyline clip-path="url(#clip680)" style="stroke:#414141; stroke-linecap:round; stroke-linejoin:round; stroke-width:2; stroke-opacity:1; fill:none" points="3902.09,723.561 4191.94,723.561 "/>
<path clip-path="url(#clip680)" d="M4269.88 725.731 Q4261.55 725.731 4256.75 730.187 Q4252 734.643 4252 742.456 Q4252 750.268 4256.75 754.724 Q4261.55 759.18 4269.88 759.18 Q4278.21 759.18 4283.02 754.724 Q4287.82 750.21 4287.82 742.456 Q4287.82 734.643 4283.02 730.187 Q4278.27 725.731 4269.88 725.731 M4258.19 720.755 Q4250.67 718.903 4246.44 713.752 Q4242.28 708.602 4242.28 701.194 Q4242.28 690.836 4249.63 684.817 Q4257.03 678.799 4269.88 678.799 Q4282.79 678.799 4290.14 684.817 Q4297.49 690.836 4297.49 701.194 Q4297.49 708.602 4293.26 713.752 Q4289.09 718.903 4281.63 720.755 Q4290.08 722.722 4294.77 728.451 Q4299.51 734.18 4299.51 742.456 Q4299.51 755.014 4291.81 761.727 Q4284.18 768.439 4269.88 768.439 Q4255.59 768.439 4247.89 761.727 Q4240.25 755.014 4240.25 742.456 Q4240.25 734.18 4245 728.451 Q4249.74 722.722 4258.19 720.755 M4253.91 702.294 Q4253.91 709.007 4258.08 712.768 Q4262.3 716.53 4269.88 716.53 Q4277.4 716.53 4281.63 712.768 Q4285.91 709.007 4285.91 702.294 Q4285.91 695.581 4281.63 691.82 Q4277.4 688.058 4269.88 688.058 Q4262.3 688.058 4258.08 691.82 Q4253.91 695.581 4253.91 702.294 Z" fill="#000000" fill-rule="nonzero" fill-opacity="1" /><path clip-path="url(#clip680)" d="M4345.29 688.058 Q4336.26 688.058 4331.69 696.97 Q4327.17 705.824 4327.17 723.648 Q4327.17 741.414 4331.69 750.326 Q4336.26 759.18 4345.29 759.18 Q4354.37 759.18 4358.89 750.326 Q4363.46 741.414 4363.46 723.648 Q4363.46 705.824 4358.89 696.97 Q4354.37 688.058 4345.29 688.058 M4345.29 678.799 Q4359.81 678.799 4367.45 690.315 Q4375.15 701.773 4375.15 723.648 Q4375.15 745.465 4367.45 756.981 Q4359.81 768.439 4345.29 768.439 Q4330.76 768.439 4323.06 756.981 Q4315.43 745.465 4315.43 723.648 Q4315.43 701.773 4323.06 690.315 Q4330.76 678.799 4345.29 678.799 Z" fill="#000000" fill-rule="nonzero" fill-opacity="1" /><path clip-path="url(#clip680)" d="M4469.19 728.741 Q4464.15 728.741 4461.26 733.023 Q4458.42 737.305 4458.42 744.944 Q4458.42 752.467 4461.26 756.808 Q4464.15 761.09 4469.19 761.09 Q4474.11 761.09 4476.94 756.808 Q4479.83 752.467 4479.83 744.944 Q4479.83 737.363 4476.94 733.081 Q4474.11 728.741 4469.19 728.741 M4469.19 721.391 Q4478.33 721.391 4483.71 727.757 Q4489.09 734.123 4489.09 744.944 Q4489.09 755.766 4483.65 762.132 Q4478.27 768.439 4469.19 768.439 Q4459.93 768.439 4454.55 762.132 Q4449.16 755.766 4449.16 744.944 Q4449.16 734.065 4454.55 727.757 Q4459.98 721.391 4469.19 721.391 M4409.46 686.148 Q4404.49 686.148 4401.59 690.489 Q4398.76 694.771 4398.76 702.294 Q4398.76 709.933 4401.59 714.215 Q4404.43 718.498 4409.46 718.498 Q4414.5 718.498 4417.33 714.215 Q4420.23 709.933 4420.23 702.294 Q4420.23 694.829 4417.33 690.489 Q4414.44 686.148 4409.46 686.148 M4461.72 678.799 L4470.98 678.799 L4416.93 768.439 L4407.67 768.439 L4461.72 678.799 M4409.46 678.799 Q4418.61 678.799 4424.05 685.164 Q4429.49 691.472 4429.49 702.294 Q4429.49 713.231 4424.05 719.539 Q4418.67 725.847 4409.46 725.847 Q4400.26 725.847 4394.88 719.539 Q4389.56 713.174 4389.56 702.294 Q4389.56 691.53 4394.94 685.164 Q4400.32 678.799 4409.46 678.799 Z" fill="#000000" fill-rule="nonzero" fill-opacity="1" /></svg>
