<?xml version="1.0" encoding="utf-8"?>
<svg xmlns="http://www.w3.org/2000/svg" xmlns:xlink="http://www.w3.org/1999/xlink" width="1200" height="300" viewBox="0 0 4800 1200">
<defs>
  <clipPath id="clip690">
    <rect x="0" y="0" width="4800" height="1200"/>
  </clipPath>
</defs>
<path clip-path="url(#clip690)" d="M0 1200 L4800 1200 L4800 0 L0 0  Z" fill="#ffffff" fill-rule="evenodd" fill-opacity="1"/>
<defs>
  <clipPath id="clip691">
    <rect x="960" y="0" width="3361" height="1200"/>
  </clipPath>
</defs>
<path clip-path="url(#clip690)" d="M404.977 880.951 L4752.76 880.951 L4752.76 47.2441 L404.977 47.2441  Z" fill="#ffffff" fill-rule="evenodd" fill-opacity="1"/>
<defs>
  <clipPath id="clip692">
    <rect x="404" y="47" width="4349" height="835"/>
  </clipPath>
</defs>
<polyline clip-path="url(#clip692)" style="stroke:#000000; stroke-linecap:round; stroke-linejoin:round; stroke-width:2; stroke-opacity:0.1; fill:none" points="528.028,880.951 528.028,47.2441 "/>
<polyline clip-path="url(#clip692)" style="stroke:#000000; stroke-linecap:round; stroke-linejoin:round; stroke-width:2; stroke-opacity:0.1; fill:none" points="1348.36,880.951 1348.36,47.2441 "/>
<polyline clip-path="url(#clip692)" style="stroke:#000000; stroke-linecap:round; stroke-linejoin:round; stroke-width:2; stroke-opacity:0.1; fill:none" points="2168.7,880.951 2168.7,47.2441 "/>
<polyline clip-path="url(#clip692)" style="stroke:#000000; stroke-linecap:round; stroke-linejoin:round; stroke-width:2; stroke-opacity:0.1; fill:none" points="2989.03,880.951 2989.03,47.2441 "/>
<polyline clip-path="url(#clip692)" style="stroke:#000000; stroke-linecap:round; stroke-linejoin:round; stroke-width:2; stroke-opacity:0.1; fill:none" points="3809.37,880.951 3809.37,47.2441 "/>
<polyline clip-path="url(#clip692)" style="stroke:#000000; stroke-linecap:round; stroke-linejoin:round; stroke-width:2; stroke-opacity:0.1; fill:none" points="4629.71,880.951 4629.71,47.2441 "/>
<polyline clip-path="url(#clip692)" style="stroke:#000000; stroke-linecap:round; stroke-linejoin:round; stroke-width:2; stroke-opacity:0.1; fill:none" points="404.977,748.158 4752.76,748.158 "/>
<polyline clip-path="url(#clip692)" style="stroke:#000000; stroke-linecap:round; stroke-linejoin:round; stroke-width:2; stroke-opacity:0.1; fill:none" points="404.977,579.049 4752.76,579.049 "/>
<polyline clip-path="url(#clip692)" style="stroke:#000000; stroke-linecap:round; stroke-linejoin:round; stroke-width:2; stroke-opacity:0.1; fill:none" points="404.977,409.94 4752.76,409.94 "/>
<polyline clip-path="url(#clip692)" style="stroke:#000000; stroke-linecap:round; stroke-linejoin:round; stroke-width:2; stroke-opacity:0.1; fill:none" points="404.977,240.831 4752.76,240.831 "/>
<polyline clip-path="url(#clip692)" style="stroke:#000000; stroke-linecap:round; stroke-linejoin:round; stroke-width:2; stroke-opacity:0.1; fill:none" points="404.977,71.722 4752.76,71.722 "/>
<polyline clip-path="url(#clip690)" style="stroke:#000000; stroke-linecap:round; stroke-linejoin:round; stroke-width:4; stroke-opacity:1; fill:none" points="404.977,880.951 4752.76,880.951 "/>
<polyline clip-path="url(#clip690)" style="stroke:#000000; stroke-linecap:round; stroke-linejoin:round; stroke-width:4; stroke-opacity:1; fill:none" points="528.028,880.951 528.028,862.054 "/>
<polyline clip-path="url(#clip690)" style="stroke:#000000; stroke-linecap:round; stroke-linejoin:round; stroke-width:4; stroke-opacity:1; fill:none" points="1348.36,880.951 1348.36,862.054 "/>
<polyline clip-path="url(#clip690)" style="stroke:#000000; stroke-linecap:round; stroke-linejoin:round; stroke-width:4; stroke-opacity:1; fill:none" points="2168.7,880.951 2168.7,862.054 "/>
<polyline clip-path="url(#clip690)" style="stroke:#000000; stroke-linecap:round; stroke-linejoin:round; stroke-width:4; stroke-opacity:1; fill:none" points="2989.03,880.951 2989.03,862.054 "/>
<polyline clip-path="url(#clip690)" style="stroke:#000000; stroke-linecap:round; stroke-linejoin:round; stroke-width:4; stroke-opacity:1; fill:none" points="3809.37,880.951 3809.37,862.054 "/>
<polyline clip-path="url(#clip690)" style="stroke:#000000; stroke-linecap:round; stroke-linejoin:round; stroke-width:4; stroke-opacity:1; fill:none" points="4629.71,880.951 4629.71,862.054 "/>
<path clip-path="url(#clip690)" d="M528.028 942.789 Q520.806 942.789 517.148 949.918 Q513.537 957.002 513.537 971.261 Q513.537 985.474 517.148 992.603 Q520.806 999.687 528.028 999.687 Q535.296 999.687 538.907 992.603 Q542.565 985.474 542.565 971.261 Q542.565 957.002 538.907 949.918 Q535.296 942.789 528.028 942.789 M528.028 935.382 Q539.648 935.382 545.759 944.594 Q551.916 953.761 551.916 971.261 Q551.916 988.715 545.759 997.927 Q539.648 1007.09 528.028 1007.09 Q516.407 1007.09 510.25 997.927 Q504.139 988.715 504.139 971.261 Q504.139 953.761 510.25 944.594 Q516.407 935.382 528.028 935.382 Z" fill="#000000" fill-rule="nonzero" fill-opacity="1" /><path clip-path="url(#clip690)" d="M1337.67 997.881 L1370.31 997.881 L1370.31 1005.75 L1326.42 1005.75 L1326.42 997.881 Q1331.74 992.372 1340.91 983.113 Q1350.12 973.807 1352.48 971.122 Q1356.97 966.076 1358.73 962.604 Q1360.54 959.085 1360.54 955.705 Q1360.54 950.196 1356.65 946.724 Q1352.81 943.252 1346.6 943.252 Q1342.21 943.252 1337.3 944.78 Q1332.44 946.307 1326.88 949.409 L1326.88 939.965 Q1332.53 937.696 1337.44 936.539 Q1342.34 935.382 1346.42 935.382 Q1357.16 935.382 1363.55 940.752 Q1369.94 946.122 1369.94 955.104 Q1369.94 959.363 1368.32 963.205 Q1366.74 967.002 1362.53 972.187 Q1361.37 973.529 1355.17 979.965 Q1348.97 986.353 1337.67 997.881 Z" fill="#000000" fill-rule="nonzero" fill-opacity="1" /><path clip-path="url(#clip690)" d="M2174.72 944.78 L2151.11 981.678 L2174.72 981.678 L2174.72 944.78 M2172.26 936.631 L2184.02 936.631 L2184.02 981.678 L2193.88 981.678 L2193.88 989.455 L2184.02 989.455 L2184.02 1005.75 L2174.72 1005.75 L2174.72 989.455 L2143.51 989.455 L2143.51 980.428 L2172.26 936.631 Z" fill="#000000" fill-rule="nonzero" fill-opacity="1" /><path clip-path="url(#clip690)" d="M2989.84 967.465 Q2983.55 967.465 2979.84 971.77 Q2976.19 976.076 2976.19 983.576 Q2976.19 991.029 2979.84 995.381 Q2983.55 999.687 2989.84 999.687 Q2996.14 999.687 2999.8 995.381 Q3003.5 991.029 3003.5 983.576 Q3003.5 976.076 2999.8 971.77 Q2996.14 967.465 2989.84 967.465 M3008.41 938.159 L3008.41 946.678 Q3004.89 945.011 3001.28 944.131 Q2997.71 943.252 2994.2 943.252 Q2984.94 943.252 2980.03 949.502 Q2975.17 955.752 2974.47 968.391 Q2977.21 964.363 2981.33 962.233 Q2985.45 960.057 2990.4 960.057 Q3000.82 960.057 3006.84 966.4 Q3012.9 972.696 3012.9 983.576 Q3012.9 994.224 3006.6 1000.66 Q3000.31 1007.09 2989.84 1007.09 Q2977.85 1007.09 2971.51 997.927 Q2965.17 988.715 2965.17 971.261 Q2965.17 954.872 2972.95 945.15 Q2980.72 935.382 2993.83 935.382 Q2997.34 935.382 3000.91 936.076 Q3004.52 936.77 3008.41 938.159 Z" fill="#000000" fill-rule="nonzero" fill-opacity="1" /><path clip-path="url(#clip690)" d="M3809.37 972.928 Q3802.7 972.928 3798.86 976.492 Q3795.06 980.057 3795.06 986.307 Q3795.06 992.557 3798.86 996.122 Q3802.7 999.687 3809.37 999.687 Q3816.04 999.687 3819.88 996.122 Q3823.72 992.511 3823.72 986.307 Q3823.72 980.057 3819.88 976.492 Q3816.08 972.928 3809.37 972.928 M3800.02 968.946 Q3794 967.465 3790.62 963.344 Q3787.29 959.224 3787.29 953.298 Q3787.29 945.011 3793.17 940.196 Q3799.09 935.382 3809.37 935.382 Q3819.69 935.382 3825.57 940.196 Q3831.45 945.011 3831.45 953.298 Q3831.45 959.224 3828.07 963.344 Q3824.74 967.465 3818.77 968.946 Q3825.53 970.52 3829.28 975.104 Q3833.07 979.687 3833.07 986.307 Q3833.07 996.353 3826.92 1001.72 Q3820.81 1007.09 3809.37 1007.09 Q3797.93 1007.09 3791.78 1001.72 Q3785.67 996.353 3785.67 986.307 Q3785.67 979.687 3789.46 975.104 Q3793.26 970.52 3800.02 968.946 M3796.59 954.178 Q3796.59 959.548 3799.93 962.557 Q3803.31 965.567 3809.37 965.567 Q3815.39 965.567 3818.77 962.557 Q3822.19 959.548 3822.19 954.178 Q3822.19 948.807 3818.77 945.798 Q3815.39 942.789 3809.37 942.789 Q3803.31 942.789 3799.93 945.798 Q3796.59 948.807 3796.59 954.178 Z" fill="#000000" fill-rule="nonzero" fill-opacity="1" /><path clip-path="url(#clip690)" d="M4579.08 997.881 L4594.36 997.881 L4594.36 945.15 L4577.74 948.483 L4577.74 939.965 L4594.27 936.631 L4603.62 936.631 L4603.62 997.881 L4618.9 997.881 L4618.9 1005.75 L4579.08 1005.75 L4579.08 997.881 Z" fill="#000000" fill-rule="nonzero" fill-opacity="1" /><path clip-path="url(#clip690)" d="M4657.78 942.789 Q4650.56 942.789 4646.9 949.918 Q4643.29 957.002 4643.29 971.261 Q4643.29 985.474 4646.9 992.603 Q4650.56 999.687 4657.78 999.687 Q4665.05 999.687 4668.66 992.603 Q4672.32 985.474 4672.32 971.261 Q4672.32 957.002 4668.66 949.918 Q4665.05 942.789 4657.78 942.789 M4657.78 935.382 Q4669.4 935.382 4675.52 944.594 Q4681.67 953.761 4681.67 971.261 Q4681.67 988.715 4675.52 997.927 Q4669.4 1007.09 4657.78 1007.09 Q4646.16 1007.09 4640.01 997.927 Q4633.9 988.715 4633.9 971.261 Q4633.9 953.761 4640.01 944.594 Q4646.16 935.382 4657.78 935.382 Z" fill="#000000" fill-rule="nonzero" fill-opacity="1" /><path clip-path="url(#clip690)" d="M2296.11 1072.18 L2361.89 1072.18 L2361.89 1081.04 L2334.28 1081.04 L2334.28 1149.94 L2323.71 1149.94 L2323.71 1081.04 L2296.11 1081.04 L2296.11 1072.18 Z" fill="#000000" fill-rule="nonzero" fill-opacity="1" /><path clip-path="url(#clip690)" d="M2368.35 1091.61 L2377.93 1091.61 L2377.93 1149.94 L2368.35 1149.94 L2368.35 1091.61 M2368.35 1068.9 L2377.93 1068.9 L2377.93 1081.04 L2368.35 1081.04 L2368.35 1068.9 Z" fill="#000000" fill-rule="nonzero" fill-opacity="1" /><path clip-path="url(#clip690)" d="M2443.4 1102.81 Q2446.99 1096.35 2451.99 1093.28 Q2456.99 1090.2 2463.76 1090.2 Q2472.88 1090.2 2477.83 1096.61 Q2482.77 1102.96 2482.77 1114.74 L2482.77 1149.94 L2473.14 1149.94 L2473.14 1115.05 Q2473.14 1106.66 2470.17 1102.6 Q2467.2 1098.54 2461.11 1098.54 Q2453.66 1098.54 2449.34 1103.49 Q2445.01 1108.43 2445.01 1116.97 L2445.01 1149.94 L2435.38 1149.94 L2435.38 1115.05 Q2435.38 1106.61 2432.41 1102.6 Q2429.44 1098.54 2423.24 1098.54 Q2415.9 1098.54 2411.58 1103.54 Q2407.25 1108.49 2407.25 1116.97 L2407.25 1149.94 L2397.62 1149.94 L2397.62 1091.61 L2407.25 1091.61 L2407.25 1100.67 Q2410.53 1095.31 2415.12 1092.76 Q2419.7 1090.2 2426 1090.2 Q2432.36 1090.2 2436.78 1093.43 Q2441.26 1096.66 2443.4 1102.81 Z" fill="#000000" fill-rule="nonzero" fill-opacity="1" /><path clip-path="url(#clip690)" d="M2551.78 1118.38 L2551.78 1123.07 L2507.72 1123.07 Q2508.35 1132.96 2513.66 1138.17 Q2519.02 1143.33 2528.55 1143.33 Q2534.08 1143.33 2539.23 1141.97 Q2544.44 1140.62 2549.54 1137.91 L2549.54 1146.97 Q2544.39 1149.16 2538.97 1150.31 Q2533.55 1151.45 2527.98 1151.45 Q2514.02 1151.45 2505.85 1143.33 Q2497.72 1135.2 2497.72 1121.35 Q2497.72 1107.03 2505.43 1098.64 Q2513.19 1090.2 2526.31 1090.2 Q2538.09 1090.2 2544.91 1097.81 Q2551.78 1105.36 2551.78 1118.38 M2542.2 1115.57 Q2542.1 1107.7 2537.77 1103.02 Q2533.5 1098.33 2526.42 1098.33 Q2518.4 1098.33 2513.55 1102.86 Q2508.76 1107.39 2508.03 1115.62 L2542.2 1115.57 Z" fill="#000000" fill-rule="nonzero" fill-opacity="1" /><path clip-path="url(#clip690)" d="M2624.44 1069.01 Q2617.46 1080.99 2614.07 1092.7 Q2610.69 1104.42 2610.69 1116.45 Q2610.69 1128.49 2614.07 1140.31 Q2617.51 1152.08 2624.44 1164.01 L2616.11 1164.01 Q2608.29 1151.77 2604.39 1139.94 Q2600.53 1128.12 2600.53 1116.45 Q2600.53 1104.84 2604.39 1093.07 Q2608.24 1081.3 2616.11 1069.01 L2624.44 1069.01 Z" fill="#000000" fill-rule="nonzero" fill-opacity="1" /><path clip-path="url(#clip690)" d="M2681.42 1100.46 L2681.42 1068.9 L2691 1068.9 L2691 1149.94 L2681.42 1149.94 L2681.42 1141.19 Q2678.4 1146.4 2673.76 1148.95 Q2669.18 1151.45 2662.72 1151.45 Q2652.15 1151.45 2645.48 1143.02 Q2638.87 1134.58 2638.87 1120.83 Q2638.87 1107.08 2645.48 1098.64 Q2652.15 1090.2 2662.72 1090.2 Q2669.18 1090.2 2673.76 1092.76 Q2678.4 1095.26 2681.42 1100.46 M2648.76 1120.83 Q2648.76 1131.4 2653.08 1137.44 Q2657.46 1143.43 2665.06 1143.43 Q2672.67 1143.43 2677.04 1137.44 Q2681.42 1131.4 2681.42 1120.83 Q2681.42 1110.26 2677.04 1104.27 Q2672.67 1098.23 2665.06 1098.23 Q2657.46 1098.23 2653.08 1104.27 Q2648.76 1110.26 2648.76 1120.83 Z" fill="#000000" fill-rule="nonzero" fill-opacity="1" /><path clip-path="url(#clip690)" d="M2737.25 1120.62 Q2725.64 1120.62 2721.16 1123.28 Q2716.68 1125.93 2716.68 1132.34 Q2716.68 1137.44 2720.01 1140.46 Q2723.4 1143.43 2729.18 1143.43 Q2737.15 1143.43 2741.94 1137.81 Q2746.78 1132.13 2746.78 1122.76 L2746.78 1120.62 L2737.25 1120.62 M2756.37 1116.66 L2756.37 1149.94 L2746.78 1149.94 L2746.78 1141.09 Q2743.5 1146.4 2738.61 1148.95 Q2733.71 1151.45 2726.63 1151.45 Q2717.67 1151.45 2712.36 1146.45 Q2707.1 1141.4 2707.1 1132.96 Q2707.1 1123.12 2713.66 1118.12 Q2720.27 1113.12 2733.34 1113.12 L2746.78 1113.12 L2746.78 1112.18 Q2746.78 1105.57 2742.41 1101.98 Q2738.08 1098.33 2730.22 1098.33 Q2725.22 1098.33 2720.48 1099.53 Q2715.74 1100.73 2711.37 1103.12 L2711.37 1094.27 Q2716.63 1092.24 2721.57 1091.25 Q2726.52 1090.2 2731.21 1090.2 Q2743.87 1090.2 2750.12 1096.77 Q2756.37 1103.33 2756.37 1116.66 Z" fill="#000000" fill-rule="nonzero" fill-opacity="1" /><path clip-path="url(#clip690)" d="M2800.38 1155.36 Q2796.31 1165.78 2792.46 1168.95 Q2788.61 1172.13 2782.15 1172.13 L2774.49 1172.13 L2774.49 1164.11 L2780.12 1164.11 Q2784.07 1164.11 2786.26 1162.24 Q2788.45 1160.36 2791.11 1153.38 L2792.82 1149.01 L2769.23 1091.61 L2779.39 1091.61 L2797.62 1137.24 L2815.84 1091.61 L2826 1091.61 L2800.38 1155.36 Z" fill="#000000" fill-rule="nonzero" fill-opacity="1" /><path clip-path="url(#clip690)" d="M2837.72 1069.01 L2846.05 1069.01 Q2853.87 1081.3 2857.72 1093.07 Q2861.63 1104.84 2861.63 1116.45 Q2861.63 1128.12 2857.72 1139.94 Q2853.87 1151.77 2846.05 1164.01 L2837.72 1164.01 Q2844.65 1152.08 2848.03 1140.31 Q2851.47 1128.49 2851.47 1116.45 Q2851.47 1104.42 2848.03 1092.7 Q2844.65 1080.99 2837.72 1069.01 Z" fill="#000000" fill-rule="nonzero" fill-opacity="1" /><polyline clip-path="url(#clip690)" style="stroke:#000000; stroke-linecap:round; stroke-linejoin:round; stroke-width:4; stroke-opacity:1; fill:none" points="404.977,880.951 404.977,47.2441 "/>
<polyline clip-path="url(#clip690)" style="stroke:#000000; stroke-linecap:round; stroke-linejoin:round; stroke-width:4; stroke-opacity:1; fill:none" points="404.977,748.158 423.875,748.158 "/>
<polyline clip-path="url(#clip690)" style="stroke:#000000; stroke-linecap:round; stroke-linejoin:round; stroke-width:4; stroke-opacity:1; fill:none" points="404.977,579.049 423.875,579.049 "/>
<polyline clip-path="url(#clip690)" style="stroke:#000000; stroke-linecap:round; stroke-linejoin:round; stroke-width:4; stroke-opacity:1; fill:none" points="404.977,409.94 423.875,409.94 "/>
<polyline clip-path="url(#clip690)" style="stroke:#000000; stroke-linecap:round; stroke-linejoin:round; stroke-width:4; stroke-opacity:1; fill:none" points="404.977,240.831 423.875,240.831 "/>
<polyline clip-path="url(#clip690)" style="stroke:#000000; stroke-linecap:round; stroke-linejoin:round; stroke-width:4; stroke-opacity:1; fill:none" points="404.977,71.722 423.875,71.722 "/>
<path clip-path="url(#clip690)" d="M151.219 749.061 L210.571 749.061 L210.571 756.931 L151.219 756.931 L151.219 749.061 Z" fill="#000000" fill-rule="nonzero" fill-opacity="1" /><path clip-path="url(#clip690)" d="M228.395 713.598 L272.839 713.598 L272.839 717.58 L247.746 782.718 L237.978 782.718 L261.589 721.469 L228.395 721.469 L228.395 713.598 Z" fill="#000000" fill-rule="nonzero" fill-opacity="1" /><path clip-path="url(#clip690)" d="M291.172 713.598 L327.885 713.598 L327.885 721.469 L299.737 721.469 L299.737 738.413 Q301.774 737.718 303.811 737.394 Q305.848 737.024 307.885 737.024 Q319.459 737.024 326.218 743.367 Q332.977 749.709 332.977 760.542 Q332.977 771.7 326.033 777.903 Q319.089 784.061 306.45 784.061 Q302.098 784.061 297.561 783.32 Q293.07 782.579 288.255 781.098 L288.255 771.7 Q292.422 773.968 296.866 775.079 Q301.311 776.19 306.265 776.19 Q314.274 776.19 318.95 771.978 Q323.626 767.765 323.626 760.542 Q323.626 753.32 318.95 749.107 Q314.274 744.894 306.265 744.894 Q302.515 744.894 298.765 745.728 Q295.061 746.561 291.172 748.32 L291.172 713.598 Z" fill="#000000" fill-rule="nonzero" fill-opacity="1" /><path clip-path="url(#clip690)" d="M149.228 579.952 L208.58 579.952 L208.58 587.822 L149.228 587.822 L149.228 579.952 Z" fill="#000000" fill-rule="nonzero" fill-opacity="1" /><path clip-path="url(#clip690)" d="M228.858 544.489 L265.57 544.489 L265.57 552.359 L237.422 552.359 L237.422 569.304 Q239.459 568.609 241.496 568.285 Q243.533 567.915 245.57 567.915 Q257.144 567.915 263.904 574.258 Q270.663 580.6 270.663 591.433 Q270.663 602.591 263.718 608.794 Q256.774 614.952 244.135 614.952 Q239.783 614.952 235.246 614.211 Q230.756 613.47 225.941 611.989 L225.941 602.591 Q230.108 604.859 234.552 605.97 Q238.996 607.081 243.95 607.081 Q251.959 607.081 256.635 602.868 Q261.311 598.656 261.311 591.433 Q261.311 584.211 256.635 579.998 Q251.959 575.785 243.95 575.785 Q240.2 575.785 236.45 576.619 Q232.746 577.452 228.858 579.211 L228.858 544.489 Z" fill="#000000" fill-rule="nonzero" fill-opacity="1" /><path clip-path="url(#clip690)" d="M309.089 550.647 Q301.866 550.647 298.209 557.776 Q294.598 564.859 294.598 579.119 Q294.598 593.331 298.209 600.461 Q301.866 607.544 309.089 607.544 Q316.357 607.544 319.968 600.461 Q323.626 593.331 323.626 579.119 Q323.626 564.859 319.968 557.776 Q316.357 550.647 309.089 550.647 M309.089 543.239 Q320.709 543.239 326.82 552.452 Q332.977 561.619 332.977 579.119 Q332.977 596.572 326.82 605.785 Q320.709 614.952 309.089 614.952 Q297.468 614.952 291.311 605.785 Q285.2 596.572 285.2 579.119 Q285.2 561.619 291.311 552.452 Q297.468 543.239 309.089 543.239 Z" fill="#000000" fill-rule="nonzero" fill-opacity="1" /><path clip-path="url(#clip690)" d="M151.219 410.843 L210.571 410.843 L210.571 418.713 L151.219 418.713 L151.219 410.843 Z" fill="#000000" fill-rule="nonzero" fill-opacity="1" /><path clip-path="url(#clip690)" d="M238.811 436.63 L271.45 436.63 L271.45 444.5 L227.561 444.5 L227.561 436.63 Q232.885 431.121 242.052 421.861 Q251.265 412.556 253.626 409.871 Q258.117 404.824 259.876 401.352 Q261.681 397.834 261.681 394.454 Q261.681 388.945 257.793 385.473 Q253.95 382 247.746 382 Q243.348 382 238.441 383.528 Q233.58 385.056 228.024 388.158 L228.024 378.713 Q233.672 376.445 238.58 375.288 Q243.487 374.13 247.561 374.13 Q258.302 374.13 264.691 379.5 Q271.08 384.871 271.08 393.852 Q271.08 398.111 269.459 401.954 Q267.885 405.75 263.672 410.935 Q262.515 412.278 256.311 418.713 Q250.107 425.102 238.811 436.63 Z" fill="#000000" fill-rule="nonzero" fill-opacity="1" /><path clip-path="url(#clip690)" d="M291.172 375.38 L327.885 375.38 L327.885 383.25 L299.737 383.25 L299.737 400.195 Q301.774 399.5 303.811 399.176 Q305.848 398.806 307.885 398.806 Q319.459 398.806 326.218 405.148 Q332.977 411.491 332.977 422.324 Q332.977 433.482 326.033 439.685 Q319.089 445.843 306.45 445.843 Q302.098 445.843 297.561 445.102 Q293.07 444.361 288.255 442.88 L288.255 433.482 Q292.422 435.75 296.866 436.861 Q301.311 437.972 306.265 437.972 Q314.274 437.972 318.95 433.759 Q323.626 429.546 323.626 422.324 Q323.626 415.102 318.95 410.889 Q314.274 406.676 306.265 406.676 Q302.515 406.676 298.765 407.51 Q295.061 408.343 291.172 410.102 L291.172 375.38 Z" fill="#000000" fill-rule="nonzero" fill-opacity="1" /><path clip-path="url(#clip690)" d="M309.089 212.428 Q301.866 212.428 298.209 219.558 Q294.598 226.641 294.598 240.901 Q294.598 255.113 298.209 262.243 Q301.866 269.326 309.089 269.326 Q316.357 269.326 319.968 262.243 Q323.626 255.113 323.626 240.901 Q323.626 226.641 319.968 219.558 Q316.357 212.428 309.089 212.428 M309.089 205.021 Q320.709 205.021 326.82 214.234 Q332.977 223.401 332.977 240.901 Q332.977 258.354 326.82 267.567 Q320.709 276.734 309.089 276.734 Q297.468 276.734 291.311 267.567 Q285.2 258.354 285.2 240.901 Q285.2 223.401 291.311 214.234 Q297.468 205.021 309.089 205.021 Z" fill="#000000" fill-rule="nonzero" fill-opacity="1" /><path clip-path="url(#clip690)" d="M238.811 98.4117 L271.45 98.4117 L271.45 106.282 L227.561 106.282 L227.561 98.4117 Q232.885 92.9025 242.052 83.6433 Q251.265 74.3378 253.626 71.6526 Q258.117 66.6063 259.876 63.1341 Q261.681 59.6156 261.681 56.236 Q261.681 50.7268 257.793 47.2546 Q253.95 43.7824 247.746 43.7824 Q243.348 43.7824 238.441 45.3101 Q233.58 46.8379 228.024 49.9397 L228.024 40.4953 Q233.672 38.2268 238.58 37.0694 Q243.487 35.912 247.561 35.912 Q258.302 35.912 264.691 41.2824 Q271.08 46.6527 271.08 55.6342 Q271.08 59.8934 269.459 63.736 Q267.885 67.5322 263.672 72.7174 Q262.515 74.06 256.311 80.4951 Q250.107 86.884 238.811 98.4117 Z" fill="#000000" fill-rule="nonzero" fill-opacity="1" /><path clip-path="url(#clip690)" d="M291.172 37.162 L327.885 37.162 L327.885 45.0324 L299.737 45.0324 L299.737 61.9767 Q301.774 61.2823 303.811 60.9582 Q305.848 60.5878 307.885 60.5878 Q319.459 60.5878 326.218 66.9304 Q332.977 73.2729 332.977 84.1062 Q332.977 95.2636 326.033 101.467 Q319.089 107.625 306.45 107.625 Q302.098 107.625 297.561 106.884 Q293.07 106.143 288.255 104.662 L288.255 95.2636 Q292.422 97.5321 296.866 98.6432 Q301.311 99.7543 306.265 99.7543 Q314.274 99.7543 318.95 95.5413 Q323.626 91.3284 323.626 84.1062 Q323.626 76.884 318.95 72.6711 Q314.274 68.4582 306.265 68.4582 Q302.515 68.4582 298.765 69.2915 Q295.061 70.1248 291.172 71.8841 L291.172 37.162 Z" fill="#000000" fill-rule="nonzero" fill-opacity="1" /><path clip-path="url(#clip692)" d="M528.028 259.752 L545.118 286.375 L562.208 315.939 L579.299 347.347 L596.389 377.722 L613.479 404.923 L630.57 421.672 L647.66 431.212 L664.75 419.945 L681.841 404.141 L698.931 396.197 L716.021 390.068 L733.112 384.755 L750.202 385.636 L767.292 392.166 L784.383 402.083 L801.473 410.581 L818.563 419.138 L835.654 426.466 L852.744 434.224 L869.834 442.657 L886.925 448.42 L904.015 444.208 L921.105 433.436 L938.195 443.838 L955.286 469.284 L972.376 497.823 L989.466 528.438 L1006.56 558.17 L1023.65 585.165 L1040.74 599.157 L1057.83 601.478 L1074.92 581.157 L1092.01 547.685 L1109.1 528.437 L1126.19 510.812 L1143.28 494.917 L1160.37 485.896 L1177.46 482.624 L1194.55 483.218 L1211.64 483.312 L1228.73 486.505 L1245.82 488.578 L1262.91 496.059 L1280 504.566 L1297.09 510.525 L1314.18 506.203 L1331.27 495.006 L1348.36 506.838 L1365.45 532.137 L1382.54 560.511 L1399.63 591.029 L1416.72 620.745 L1433.81 647.867 L1450.91 661.568 L1468 662.456 L1485.09 639.087 L1502.18 601.41 L1519.27 576.437 L1536.36 554.414 L1553.45 534.576 L1570.54 521.741 L1587.63 514.846 L1604.72 512.601 L1621.81 510.147 L1638.9 511.457 L1655.99 513.697 L1673.08 521.571 L1690.17 530.721 L1707.26 537.278 L1724.35 533.26 L1741.44 522.065 L1758.53 527.36 L1775.62 552.828 L1792.71 581.375 L1809.8 612.062 L1826.89 641.972 L1843.98 669.008 L1861.07 683.266 L1878.16 683.924 L1895.25 667.269 L1912.34 636.152 L1929.43 607.95 L1946.52 580.806 L1963.61 558.686 L1980.71 543.977 L1997.8 535.19 L2014.89 531.448 L2031.98 528.548 L2049.07 529.129 L2066.16 531.523 L2083.25 539.818 L2100.34 549.44 L2117.43 556.451 L2134.52 552.659 L2151.61 546.616 L2168.7 548.425 L2185.79 564.87 L2202.88 592.29 L2219.97 623.121 L2237.06 653.198 L2254.15 680.352 L2271.24 698.768 L2288.33 709.118 L2305.42 695.716 L2322.51 664.327 L2339.6 635.141 L2356.69 606.936 L2373.78 581.338 L2390.87 562.43 L2407.96 550.79 L2425.05 546.143 L2442.14 542.566 L2459.23 542.918 L2476.32 544.952 L2493.42 553.469 L2510.51 563.523 L2527.6 570.935 L2544.69 567.982 L2561.78 569.241 L2578.87 571.272 L2595.96 587.933 L2613.05 610.086 L2630.14 637.774 L2647.23 668.858 L2664.32 701.687 L2681.41 724.136 L2698.5 735.652 L2715.59 722.083 L2732.68 690.713 L2749.77 661.134 L2766.86 632.383 L2783.95 605.882 L2801.04 585.877 L2818.13 571.584 L2835.22 561.392 L2852.31 554.398 L2869.4 554.184 L2886.49 557.094 L2903.58 569.708 L2920.67 583.646 L2937.76 593.954 L2954.85 591.429 L2971.94 590.737 L2989.03 592.995 L3006.12 609.881 L3023.22 632.209 L3040.31 660.176 L3057.4 691.708 L3074.49 725.192 L3091.58 748.456 L3108.67 760.235 L3125.76 747.034 L3142.85 715.295 L3159.94 685.582 L3177.03 656.374 L3194.12 629.242 L3211.21 608.374 L3228.3 593.198 L3245.39 582.421 L3262.48 575.944 L3279.57 576.762 L3296.66 581.716 L3313.75 595.098 L3330.84 610.228 L3347.93 621.78 L3365.02 620.159 L3382.11 613.392 L3399.2 615.82 L3416.29 632.881 L3433.38 655.361 L3450.47 683.572 L3467.56 715.526 L3484.65 749.654 L3501.74 773.519 L3518.83 786.111 L3535.92 773.125 L3553.02 744.278 L3570.11 717.201 L3587.2 687.546 L3604.29 658.139 L3621.38 635.465 L3638.47 619.863 L3655.56 610.576 L3672.65 603.912 L3689.74 604.57 L3706.83 609.525 L3723.92 624.016 L3741.01 640.59 L3758.1 653.632 L3775.19 653.099 L3792.28 642.276 L3809.37 637.139 L3826.46 654.471 L3843.55 677.176 L3860.64 705.727 L3877.73 738.205 L3894.82 773.075 L3911.91 797.833 L3929 811.056 L3946.09 807.422 L3963.18 783.465 L3980.27 756.536 L3997.36 726.316 L4014.45 696.166 L4031.54 672.302 L4048.63 655.368 L4065.72 645.01 L4082.82 637.774 L4099.91 638.047 L4117 643.839 L4134.09 659.636 L4151.18 677.909 L4168.27 692.675 L4185.36 693.384 L4202.45 683.167 L4219.54 672.386 L4236.63 680.148 L4253.72 703.011 L4270.81 731.819 L4287.9 764.759 L4304.99 800.32 L4322.08 832.326 L4339.17 857.356 L4356.26 855.832 L4373.35 831.95 L4390.44 805.621 L4407.53 775.496 L4424.62 744.314 L4441.71 719.07 L4458.8 700.493 L4475.89 688.638 L4492.98 680.535 L4510.07 680.681 L4527.16 687.494 L4544.25 705.133 L4561.34 725.535 L4578.43 742.407 L4595.52 744.631 L4612.62 735.148 L4629.71 724.39 L4629.71 78.4718 L4612.62 76.8487 L4595.52 76.3768 L4578.43 75.0661 L4561.34 72.1556 L4544.25 70.8396 L4527.16 71.6515 L4510.07 76.0134 L4492.98 80.0195 L4475.89 83.2699 L4458.8 83.6441 L4441.71 83.1979 L4424.62 83.5728 L4407.53 87.0146 L4390.44 93.8327 L4373.35 105.509 L4356.26 123.966 L4339.17 137.644 L4322.08 140.382 L4304.99 137.002 L4287.9 126.5 L4270.81 113.02 L4253.72 99.3418 L4236.63 87.8734 L4219.54 80.0379 L4202.45 78.3349 L4185.36 77.9515 L4168.27 76.7568 L4151.18 73.9677 L4134.09 72.8577 L4117 73.8339 L4099.91 78.2531 L4082.82 82.3161 L4065.72 85.5299 L4048.63 85.9421 L4031.54 85.6968 L4014.45 86.1164 L3997.36 89.6029 L3980.27 96.4481 L3963.18 108.153 L3946.09 126.568 L3929 140.232 L3911.91 142.972 L3894.82 139.614 L3877.73 129.103 L3860.64 115.653 L3843.55 101.989 L3826.46 90.5464 L3809.37 82.7365 L3792.28 80.9283 L3775.19 80.5724 L3758.1 79.4528 L3741.01 76.7501 L3723.92 75.6801 L3706.83 76.6863 L3689.74 81.2205 L3672.65 84.8537 L3655.56 87.8396 L3638.47 88.2726 L3621.38 88.1728 L3604.29 89.0534 L3587.2 92.9089 L3570.11 99.8023 L3553.02 111.53 L3535.92 130.017 L3518.83 143.777 L3501.74 146.559 L3484.65 142.979 L3467.56 130.815 L3450.47 117.229 L3433.38 103.605 L3416.29 92.1894 L3399.2 84.4118 L3382.11 85.1096 L3365.02 84.8925 L3347.93 83.8757 L3330.84 81.2908 L3313.75 80.3297 L3296.66 81.0023 L3279.57 84.4675 L3262.48 87.9137 L3245.39 90.9545 L3228.3 91.4727 L3211.21 91.4931 L3194.12 92.5351 L3177.03 96.7549 L3159.94 104.431 L3142.85 116.895 L3125.76 135.432 L3108.67 149.24 L3091.58 152.029 L3074.49 146.867 L3057.4 134.758 L3040.31 121.215 L3023.22 107.632 L3006.12 96.2587 L2989.03 88.5395 L2971.94 89.5019 L2954.85 90.9746 L2937.76 90.0614 L2920.67 87.3631 L2903.58 86.2121 L2886.49 86.7303 L2869.4 90.3352 L2852.31 93.8871 L2835.22 97.0498 L2818.13 97.6772 L2801.04 97.7581 L2783.95 98.8194 L2766.86 103.056 L2749.77 110.463 L2732.68 122.227 L2715.59 140.568 L2698.5 154.406 L2681.41 157.014 L2664.32 151.925 L2647.23 139.871 L2630.14 126.379 L2613.05 112.846 L2595.96 101.527 L2578.87 93.835 L2561.78 94.8823 L2544.69 98.941 L2527.6 98.2502 L2510.51 95.5434 L2493.42 94.3235 L2476.32 94.9492 L2459.23 98.8377 L2442.14 102.432 L2425.05 105.414 L2407.96 105.77 L2390.87 105.533 L2373.78 106.236 L2356.69 110.042 L2339.6 117.211 L2322.51 129.138 L2305.42 147.607 L2288.33 161.533 L2271.24 164.798 L2254.15 159.962 L2237.06 148.03 L2219.97 134.656 L2202.88 121.25 L2185.79 110.061 L2168.7 102.534 L2151.61 103.731 L2134.52 107.951 L2117.43 107.138 L2100.34 104.715 L2083.25 103.699 L2066.16 104.545 L2049.07 108.684 L2031.98 112.53 L2014.89 115.755 L1997.8 116.323 L1980.71 116.295 L1963.61 117.216 L1946.52 121.245 L1929.43 128.63 L1912.34 140.758 L1895.25 159.437 L1878.16 173.507 L1861.07 176.942 L1843.98 173.142 L1826.89 161.392 L1809.8 148.212 L1792.71 135.001 L1775.62 124.026 L1758.53 116.757 L1741.44 118.225 L1724.35 121.979 L1707.26 121.523 L1690.17 119.513 L1673.08 118.948 L1655.99 120.25 L1638.9 124.783 L1621.81 128.991 L1604.72 132.57 L1587.63 133.488 L1570.54 133.75 L1553.45 134.927 L1536.36 139.184 L1519.27 146.774 L1502.18 159.073 L1485.09 177.88 L1468 192.139 L1450.91 195.791 L1433.81 192.889 L1416.72 182.175 L1399.63 170.031 L1382.54 157.22 L1365.45 146.243 L1348.36 139.307 L1331.27 139.789 L1314.18 142.651 L1297.09 143.071 L1280 141.585 L1262.91 141.703 L1245.82 143.739 L1228.73 148.955 L1211.64 153.823 L1194.55 158.036 L1177.46 159.558 L1160.37 160.401 L1143.28 162.172 L1126.19 167.014 L1109.1 174.439 L1092.01 187.456 L1074.92 206.862 L1057.83 221.226 L1040.74 224.532 L1023.65 221.419 L1006.56 211.196 L989.466 198.939 L972.376 181.788 L955.286 168.201 L938.195 161.71 L921.105 168.3 L904.015 175.607 L886.925 178.917 L869.834 178.908 L852.744 179.4 L835.654 181.211 L818.563 186.595 L801.473 191.88 L784.383 196.765 L767.292 198.465 L750.202 192.411 L733.112 191.661 L716.021 199.583 L698.931 213.43 L681.841 231.823 L664.75 254.122 L647.66 270.191 L630.57 275.161 L613.479 273.797 L596.389 265.576 L579.299 255.883 L562.208 243.494 L545.118 231.993 L528.028 226.574  Z" fill="#aeaeae" fill-rule="evenodd" fill-opacity="0.5"/>
<polyline clip-path="url(#clip692)" style="stroke:#aeaeae; stroke-linecap:round; stroke-linejoin:round; stroke-width:0; stroke-opacity:1; fill:none" points="528.028,238.471 545.118,243.12 562.208,249.871 579.299,257.802 596.389,265.567 613.479,272.371 630.57,274.883 647.66,273.491 664.75,265.617 681.841,254.808 698.931,247.42 716.021,242.661 733.112,240.337 750.202,240.761 767.292,242.637 784.383,244.723 801.473,245.373 818.563,245.212 835.654,243.878 852.744,243.13 869.834,242.4 886.925,241.595 904.015,239.249 921.105,236.419 938.195,235.294 955.286,239.56 972.376,246.097 989.466,253.914 1006.56,261.615 1023.65,268.397 1040.74,270.868 1057.83,269.369 1074.92,261.45 1092.01,250.641 1109.1,243.39 1126.19,238.905 1143.28,236.858 1160.37,237.498 1177.46,239.515 1194.55,241.653 1211.64,242.265 1228.73,242.031 1245.82,240.653 1262.91,239.951 1280,239.307 1297.09,238.599 1314.18,236.337 1331.27,233.577 1348.36,232.505 1365.45,236.823 1382.54,243.403 1399.63,251.263 1416.72,259.004 1433.81,265.831 1450.91,268.336 1468,266.879 1485.09,258.902 1502.18,247.987 1519.27,240.691 1536.36,236.201 1553.45,234.174 1570.54,234.843 1587.63,236.879 1604.72,239.042 1621.81,239.683 1638.9,239.479 1655.99,238.139 1673.08,237.491 1690.17,236.923 1707.26,236.288 1724.35,234.082 1741.44,231.371 1758.53,230.338 1775.62,234.693 1792.71,241.303 1809.8,249.193 1826.89,256.963 1843.98,263.822 1861.07,266.369 1878.16,264.926 1895.25,256.934 1912.34,246.006 1929.43,238.712 1946.52,234.247 1963.61,232.248 1980.71,232.943 1997.8,235.005 2014.89,237.19 2031.98,237.85 2049.07,237.66 2066.16,236.35 2083.25,235.759 2100.34,235.246 2117.43,234.661 2134.52,232.5 2151.61,229.822 2168.7,228.817 2185.79,233.198 2202.88,239.833 2219.97,247.742 2237.06,255.545 2254.15,262.429 2271.24,264.996 2288.33,263.591 2305.42,255.626 2322.51,244.708 2339.6,237.413 2356.69,232.958 2373.78,230.979 2390.87,231.698 2407.96,233.776 2425.05,235.978 2442.14,236.675 2459.23,236.514 2476.32,235.223 2493.42,234.658 2510.51,234.184 2527.6,233.635 2544.69,231.502 2561.78,228.847 2578.87,227.86 2595.96,232.259 2613.05,238.907 2630.14,246.828 2647.23,254.643 2664.32,261.547 2681.41,264.138 2698.5,262.736 2715.59,254.767 2732.68,243.87 2749.77,236.596 2766.86,232.157 2783.95,230.189 2801.04,230.923 2818.13,233.014 2835.22,235.237 2852.31,235.943 2869.4,235.803 2886.49,234.527 2903.58,233.99 2920.67,233.54 2937.76,233.016 2954.85,230.904 2971.94,228.266 2989.03,227.289 3006.12,231.696 3023.22,238.351 3040.31,246.28 3057.4,254.102 3074.49,261.016 3091.58,263.623 3108.67,262.261 3125.76,254.308 3142.85,243.398 3159.94,236.123 3177.03,231.687 3194.12,229.729 3211.21,230.461 3228.3,232.562 3245.39,234.785 3262.48,235.487 3279.57,235.339 3296.66,234.074 3313.75,233.557 3330.84,233.132 3347.93,232.627 3365.02,230.535 3382.11,227.907 3399.2,226.94 3416.29,231.354 3433.38,238.016 3450.47,245.951 3467.56,253.778 3484.65,260.707 3501.74,263.322 3518.83,261.958 3535.92,254.01 3553.02,243.125 3570.11,235.863 3587.2,231.43 3604.29,229.473 3621.38,230.211 3638.47,232.308 3655.56,234.53 3672.65,235.234 3689.74,235.101 3706.83,233.861 3723.92,233.363 3741.01,232.951 3758.1,232.464 3775.19,230.381 3792.28,227.762 3809.37,226.799 3826.46,231.218 3843.55,237.882 3860.64,245.823 3877.73,253.658 3894.82,260.593 3911.91,263.212 3929,261.836 3946.09,253.92 3963.18,243.028 3980.27,235.76 3997.36,231.332 4014.45,229.374 4031.54,230.115 4048.63,232.213 4065.72,234.439 4082.82,235.151 4099.91,235.018 4117,233.776 4134.09,233.284 4151.18,232.886 4168.27,232.413 4185.36,230.34 4202.45,227.728 4219.54,226.767 4236.63,231.188 4253.72,237.853 4270.81,245.792 4287.9,253.63 4304.99,260.569 4322.08,263.197 4339.17,261.851 4356.26,253.961 4373.35,243.081 4390.44,235.805 4407.53,231.369 4424.62,229.409 4441.71,230.144 4458.8,232.247 4475.89,234.465 4492.98,235.171 4510.07,235.041 4527.16,233.802 4544.25,233.314 4561.34,232.929 4578.43,232.464 4595.52,230.399 4612.62,227.791 4629.71,226.831 "/>
<path clip-path="url(#clip692)" d="M528.028 247.785 L545.118 260.676 L562.208 279.55 L579.299 302.558 L596.389 326.622 L613.479 349.548 L630.57 363.641 L647.66 367.423 L664.75 353.51 L681.841 329.607 L698.931 315.446 L716.021 300.483 L733.112 294.641 L750.202 296.858 L767.292 301.259 L784.383 308.16 L801.473 312.361 L818.563 315.468 L835.654 313.679 L852.744 315.363 L869.834 317.481 L886.925 319.45 L904.015 316.472 L921.105 314.666 L938.195 313.793 L955.286 327.627 L972.376 345.32 L989.466 365.086 L1006.56 387.426 L1023.65 408.374 L1040.74 419.482 L1057.83 420.782 L1074.92 401.062 L1092.01 375.771 L1109.1 357.606 L1126.19 341.368 L1143.28 333.567 L1160.37 333.165 L1177.46 334.982 L1194.55 336.195 L1211.64 333.205 L1228.73 332.764 L1245.82 331.377 L1262.91 333.106 L1280 336.671 L1297.09 337.08 L1314.18 338.407 L1331.27 336.209 L1348.36 333.319 L1365.45 343.937 L1382.54 362.613 L1399.63 384.499 L1416.72 407.45 L1433.81 430.074 L1450.91 440.315 L1468 438.802 L1485.09 421.577 L1502.18 395.926 L1519.27 371.556 L1536.36 355.452 L1553.45 344.911 L1570.54 342.265 L1587.63 341.802 L1604.72 344.062 L1621.81 341.345 L1638.9 338.963 L1655.99 337.947 L1673.08 339.833 L1690.17 342.515 L1707.26 343.614 L1724.35 344.319 L1741.44 342.105 L1758.53 337.581 L1775.62 349.03 L1792.71 366.12 L1809.8 386.567 L1826.89 410.89 L1843.98 435.734 L1861.07 445.892 L1878.16 446.041 L1895.25 428.194 L1912.34 402.9 L1929.43 380.2 L1946.52 359.903 L1963.61 350.617 L1980.71 344.949 L1997.8 343.349 L2014.89 344.517 L2031.98 344.468 L2049.07 341.471 L2066.16 338.978 L2083.25 341.698 L2100.34 344.026 L2117.43 345.09 L2134.52 344.791 L2151.61 344.29 L2168.7 341.364 L2185.79 350.265 L2202.88 367.269 L2219.97 388.326 L2237.06 412.07 L2254.15 439.433 L2271.24 446.516 L2288.33 448.306 L2305.42 430.069 L2322.51 407.139 L2339.6 382.704 L2356.69 361.346 L2373.78 351.237 L2390.87 344.633 L2407.96 343.704 L2425.05 344.434 L2442.14 344.889 L2459.23 341.866 L2476.32 338.555 L2493.42 340.725 L2510.51 343.726 L2527.6 345.467 L2544.69 344.523 L2561.78 345.369 L2578.87 346.891 L2595.96 353.887 L2613.05 368.409 L2630.14 389.667 L2647.23 413.314 L2664.32 440.281 L2681.41 446.778 L2698.5 449.924 L2715.59 432.354 L2732.68 409.59 L2749.77 384.566 L2766.86 362.353 L2783.95 350.931 L2801.04 343.698 L2818.13 343.504 L2835.22 344.968 L2852.31 344.758 L2869.4 341.75 L2886.49 338.836 L2903.58 341.745 L2920.67 344.79 L2937.76 345.483 L2954.85 346.845 L2971.94 346.855 L2989.03 348.204 L3006.12 357.043 L3023.22 369.516 L3040.31 389.519 L3057.4 414.728 L3074.49 439.892 L3091.58 447.856 L3108.67 448.561 L3125.76 433.643 L3142.85 409.656 L3159.94 383.727 L3177.03 364.005 L3194.12 349.872 L3211.21 344.102 L3228.3 345.509 L3245.39 346.661 L3262.48 345.492 L3279.57 342.265 L3296.66 338.987 L3313.75 341.319 L3330.84 345.716 L3347.93 346.478 L3365.02 347.174 L3382.11 346.669 L3399.2 348.032 L3416.29 358.881 L3433.38 373.889 L3450.47 390.766 L3467.56 417.098 L3484.65 439.823 L3501.74 447.507 L3518.83 450.314 L3535.92 434.121 L3553.02 409.386 L3570.11 382.87 L3587.2 363.818 L3604.29 350.172 L3621.38 346.589 L3638.47 346.213 L3655.56 346.899 L3672.65 345.055 L3689.74 343.134 L3706.83 339.666 L3723.92 342.167 L3741.01 346.262 L3758.1 346.337 L3775.19 347.05 L3792.28 346.449 L3809.37 348.811 L3826.46 359.451 L3843.55 375.548 L3860.64 393.714 L3877.73 417.788 L3894.82 439.227 L3911.91 448.653 L3929 449.621 L3946.09 433.606 L3963.18 407.721 L3980.27 382.924 L3997.36 364.351 L4014.45 350.65 L4031.54 346.394 L4048.63 346.206 L4065.72 346.807 L4082.82 346.21 L4099.91 343.476 L4117 340.589 L4134.09 342.518 L4151.18 346.042 L4168.27 347.48 L4185.36 347.709 L4202.45 345.995 L4219.54 349.711 L4236.63 358.261 L4253.72 374.424 L4270.81 397.871 L4287.9 416.92 L4304.99 438.415 L4322.08 449.414 L4339.17 448.913 L4356.26 432.88 L4373.35 405.794 L4390.44 383.729 L4407.53 366.032 L4424.62 350.573 L4441.71 345.693 L4458.8 345.448 L4475.89 345.855 L4492.98 345.381 L4510.07 343.541 L4527.16 340.204 L4544.25 342.857 L4561.34 345.509 L4578.43 346.973 L4595.52 346.656 L4612.62 346.699 L4629.71 350.729 L4629.71 118.181 L4612.62 117.316 L4595.52 117.945 L4578.43 120.379 L4561.34 117.655 L4544.25 115.238 L4527.16 116.125 L4510.07 120.432 L4492.98 124.242 L4475.89 126.87 L4458.8 126.495 L4441.71 125.269 L4424.62 125.266 L4407.53 127.989 L4390.44 135.077 L4373.35 146.236 L4356.26 164.606 L4339.17 177.833 L4322.08 180.906 L4304.99 177.156 L4287.9 166.857 L4270.81 153.737 L4253.72 140.346 L4236.63 129.222 L4219.54 119.788 L4202.45 119.386 L4185.36 119.369 L4168.27 120.254 L4151.18 118.843 L4134.09 118.184 L4117 118.237 L4099.91 121.666 L4082.82 124.72 L4065.72 127.271 L4048.63 127.223 L4031.54 126.892 L4014.45 127.013 L3997.36 130.095 L3980.27 137.36 L3963.18 148.83 L3946.09 166.87 L3929 179.817 L3911.91 182.724 L3894.82 179.874 L3877.73 167.229 L3860.64 154.655 L3843.55 141.695 L3826.46 130.13 L3809.37 122.074 L3792.28 120.599 L3775.19 121.504 L3758.1 122.026 L3741.01 120.531 L3723.92 119.424 L3706.83 119.856 L3689.74 123.393 L3672.65 126.845 L3655.56 129.579 L3638.47 129.728 L3621.38 129.083 L3604.29 128.722 L3587.2 131.957 L3570.11 139.172 L3553.02 150.458 L3535.92 168.41 L3518.83 182.516 L3501.74 184.708 L3484.65 180.827 L3467.56 169.681 L3450.47 156.161 L3433.38 143.536 L3416.29 132.17 L3399.2 122.713 L3382.11 122.702 L3365.02 126.062 L3347.93 124.541 L3330.84 122.68 L3313.75 121.427 L3296.66 121.993 L3279.57 125.959 L3262.48 129.589 L3245.39 132.52 L3228.3 132.694 L3211.21 132.642 L3194.12 131.881 L3177.03 134.764 L3159.94 140.786 L3142.85 152.556 L3125.76 170.463 L3108.67 183.866 L3091.58 187.015 L3074.49 182.699 L3057.4 171.708 L3040.31 159.095 L3023.22 146.373 L3006.12 134.216 L2989.03 125.495 L2971.94 124.991 L2954.85 127.605 L2937.76 128.385 L2920.67 126.449 L2903.58 125.057 L2886.49 125.758 L2869.4 129.874 L2852.31 133.691 L2835.22 136.8 L2818.13 136.733 L2801.04 136.179 L2783.95 135.921 L2766.86 138.546 L2749.77 145.544 L2732.68 157.265 L2715.59 175.545 L2698.5 189.031 L2681.41 191.826 L2664.32 188.159 L2647.23 177.028 L2630.14 163.762 L2613.05 149.315 L2595.96 137.244 L2578.87 129.402 L2561.78 131.262 L2544.69 133.43 L2527.6 133.351 L2510.51 131.399 L2493.42 130.276 L2476.32 130.963 L2459.23 135.264 L2442.14 139.248 L2425.05 142.523 L2407.96 143.212 L2390.87 142.521 L2373.78 141.47 L2356.69 145.119 L2339.6 151.952 L2322.51 163.455 L2305.42 181.853 L2288.33 195.16 L2271.24 198.091 L2254.15 194.37 L2237.06 181.874 L2219.97 167.879 L2202.88 154.295 L2185.79 142.644 L2168.7 134.126 L2151.61 136.473 L2134.52 140.82 L2117.43 140.428 L2100.34 139.46 L2083.25 138.942 L2066.16 141.337 L2049.07 145.928 L2031.98 150.2 L2014.89 153.681 L1997.8 153.269 L1980.71 152.166 L1963.61 153.292 L1946.52 156.504 L1929.43 161.42 L1912.34 173.035 L1895.25 190.909 L1878.16 204.815 L1861.07 207.927 L1843.98 203.766 L1826.89 191.264 L1809.8 177.875 L1792.71 163.285 L1775.62 151.58 L1758.53 144.029 L1741.44 145.728 L1724.35 151.462 L1707.26 154.402 L1690.17 153.267 L1673.08 152.707 L1655.99 154.499 L1638.9 160.172 L1621.81 165.159 L1604.72 168.383 L1587.63 168.545 L1570.54 167.989 L1553.45 166.127 L1536.36 168.391 L1519.27 174.858 L1502.18 186.446 L1485.09 204.934 L1468 219.412 L1450.91 222.607 L1433.81 217.692 L1416.72 205.373 L1399.63 190.619 L1382.54 176.077 L1365.45 164.162 L1348.36 156.826 L1331.27 159.866 L1314.18 166.644 L1297.09 172.059 L1280 172.893 L1262.91 172.811 L1245.82 174.53 L1228.73 180.266 L1211.64 185.643 L1194.55 188.815 L1177.46 187.722 L1160.37 184.377 L1143.28 181.643 L1126.19 185.054 L1109.1 192.764 L1092.01 204.823 L1074.92 224.321 L1057.83 239.251 L1040.74 242.759 L1023.65 238.341 L1006.56 226.588 L989.466 212.152 L972.376 196.19 L955.286 183.047 L938.195 176.229 L921.105 181.821 L904.015 190.21 L886.925 197.296 L869.834 199.83 L852.744 201.354 L835.654 204.645 L818.563 210.875 L801.473 214.908 L784.383 214.802 L767.292 211.15 L750.202 207.439 L733.112 207.471 L716.021 214.204 L698.931 225.598 L681.841 241.115 L664.75 262.504 L647.66 278.468 L630.57 283.21 L613.479 281.68 L596.389 272.296 L579.299 260.913 L562.208 247.378 L545.118 235.712 L528.028 229.283  Z" fill="#757575" fill-rule="evenodd" fill-opacity="0.5"/>
<polyline clip-path="url(#clip692)" style="stroke:#757575; stroke-linecap:round; stroke-linejoin:round; stroke-width:0; stroke-opacity:1; fill:none" points="528.028,238.471 545.118,243.12 562.208,249.871 579.299,257.802 596.389,265.567 613.479,272.371 630.57,274.883 647.66,273.491 664.75,265.617 681.841,254.808 698.931,247.42 716.021,242.661 733.112,240.337 750.202,240.761 767.292,242.637 784.383,244.723 801.473,245.373 818.563,245.212 835.654,243.878 852.744,243.13 869.834,242.4 886.925,241.595 904.015,239.249 921.105,236.419 938.195,235.294 955.286,239.56 972.376,246.097 989.466,253.914 1006.56,261.615 1023.65,268.397 1040.74,270.868 1057.83,269.369 1074.92,261.45 1092.01,250.641 1109.1,243.39 1126.19,238.905 1143.28,236.858 1160.37,237.498 1177.46,239.515 1194.55,241.653 1211.64,242.265 1228.73,242.031 1245.82,240.653 1262.91,239.951 1280,239.307 1297.09,238.599 1314.18,236.337 1331.27,233.577 1348.36,232.505 1365.45,236.823 1382.54,243.403 1399.63,251.263 1416.72,259.004 1433.81,265.831 1450.91,268.336 1468,266.879 1485.09,258.902 1502.18,247.987 1519.27,240.691 1536.36,236.201 1553.45,234.174 1570.54,234.843 1587.63,236.879 1604.72,239.042 1621.81,239.683 1638.9,239.479 1655.99,238.139 1673.08,237.491 1690.17,236.923 1707.26,236.288 1724.35,234.082 1741.44,231.371 1758.53,230.338 1775.62,234.693 1792.71,241.303 1809.8,249.193 1826.89,256.963 1843.98,263.822 1861.07,266.369 1878.16,264.926 1895.25,256.934 1912.34,246.006 1929.43,238.712 1946.52,234.247 1963.61,232.248 1980.71,232.943 1997.8,235.005 2014.89,237.19 2031.98,237.85 2049.07,237.66 2066.16,236.35 2083.25,235.759 2100.34,235.246 2117.43,234.661 2134.52,232.5 2151.61,229.822 2168.7,228.817 2185.79,233.198 2202.88,239.833 2219.97,247.742 2237.06,255.545 2254.15,262.429 2271.24,264.996 2288.33,263.591 2305.42,255.626 2322.51,244.708 2339.6,237.413 2356.69,232.958 2373.78,230.979 2390.87,231.698 2407.96,233.776 2425.05,235.978 2442.14,236.675 2459.23,236.514 2476.32,235.223 2493.42,234.658 2510.51,234.184 2527.6,233.635 2544.69,231.502 2561.78,228.847 2578.87,227.86 2595.96,232.259 2613.05,238.907 2630.14,246.828 2647.23,254.643 2664.32,261.547 2681.41,264.138 2698.5,262.736 2715.59,254.767 2732.68,243.87 2749.77,236.596 2766.86,232.157 2783.95,230.189 2801.04,230.923 2818.13,233.014 2835.22,235.237 2852.31,235.943 2869.4,235.803 2886.49,234.527 2903.58,233.99 2920.67,233.54 2937.76,233.016 2954.85,230.904 2971.94,228.266 2989.03,227.289 3006.12,231.696 3023.22,238.351 3040.31,246.28 3057.4,254.102 3074.49,261.016 3091.58,263.623 3108.67,262.261 3125.76,254.308 3142.85,243.398 3159.94,236.123 3177.03,231.687 3194.12,229.729 3211.21,230.461 3228.3,232.562 3245.39,234.785 3262.48,235.487 3279.57,235.339 3296.66,234.074 3313.75,233.557 3330.84,233.132 3347.93,232.627 3365.02,230.535 3382.11,227.907 3399.2,226.94 3416.29,231.354 3433.38,238.016 3450.47,245.951 3467.56,253.778 3484.65,260.707 3501.74,263.322 3518.83,261.958 3535.92,254.01 3553.02,243.125 3570.11,235.863 3587.2,231.43 3604.29,229.473 3621.38,230.211 3638.47,232.308 3655.56,234.53 3672.65,235.234 3689.74,235.101 3706.83,233.861 3723.92,233.363 3741.01,232.951 3758.1,232.464 3775.19,230.381 3792.28,227.762 3809.37,226.799 3826.46,231.218 3843.55,237.882 3860.64,245.823 3877.73,253.658 3894.82,260.593 3911.91,263.212 3929,261.836 3946.09,253.92 3963.18,243.028 3980.27,235.76 3997.36,231.332 4014.45,229.374 4031.54,230.115 4048.63,232.213 4065.72,234.439 4082.82,235.151 4099.91,235.018 4117,233.776 4134.09,233.284 4151.18,232.886 4168.27,232.413 4185.36,230.34 4202.45,227.728 4219.54,226.767 4236.63,231.188 4253.72,237.853 4270.81,245.792 4287.9,253.63 4304.99,260.569 4322.08,263.197 4339.17,261.851 4356.26,253.961 4373.35,243.081 4390.44,235.805 4407.53,231.369 4424.62,229.409 4441.71,230.144 4458.8,232.247 4475.89,234.465 4492.98,235.171 4510.07,235.041 4527.16,233.802 4544.25,233.314 4561.34,232.929 4578.43,232.464 4595.52,230.399 4612.62,227.791 4629.71,226.831 "/>
<path clip-path="url(#clip692)" d="M528.028 243.27 L545.118 253.978 L562.208 270.241 L579.299 290.563 L596.389 313.028 L613.479 333.22 L630.57 343.576 L647.66 344.116 L664.75 328.919 L681.841 303.434 L698.931 286.836 L716.021 274.995 L733.112 271.071 L750.202 272.695 L767.292 277.378 L784.383 284.436 L801.473 287.567 L818.563 289.199 L835.654 287.739 L852.744 288.767 L869.834 290.019 L886.925 290.601 L904.015 285.055 L921.105 282.228 L938.195 281.041 L955.286 291.828 L972.376 305.557 L989.466 322.384 L1006.56 338.115 L1023.65 353.064 L1040.74 362.719 L1057.83 362.372 L1074.92 345.882 L1092.01 320.171 L1109.1 302.972 L1126.19 292.535 L1143.28 286.02 L1160.37 286.885 L1177.46 290.507 L1194.55 294.568 L1211.64 297.35 L1228.73 298.108 L1245.82 295.758 L1262.91 297.067 L1280 297.513 L1297.09 296.785 L1314.18 292.555 L1331.27 289.663 L1348.36 288.599 L1365.45 298.692 L1382.54 313.988 L1399.63 327.838 L1416.72 343.943 L1433.81 359.505 L1450.91 368.793 L1468 369.499 L1485.09 350.859 L1502.18 325.869 L1519.27 308.332 L1536.36 295.857 L1553.45 289.755 L1570.54 290.053 L1587.63 292.716 L1604.72 296.533 L1621.81 299.387 L1638.9 300.026 L1655.99 297.837 L1673.08 298.668 L1690.17 298.684 L1707.26 296.674 L1724.35 292.105 L1741.44 289.787 L1758.53 289.006 L1775.62 300.179 L1792.71 314.033 L1809.8 327.415 L1826.89 344.27 L1843.98 361.369 L1861.07 370.045 L1878.16 369.944 L1895.25 350.319 L1912.34 326.007 L1929.43 308.967 L1946.52 295.975 L1963.61 289.626 L1980.71 289.78 L1997.8 292.885 L2014.89 296.527 L2031.98 298.415 L2049.07 299.371 L2066.16 296.919 L2083.25 298.055 L2100.34 297.606 L2117.43 295.472 L2134.52 290.716 L2151.61 288.772 L2168.7 288.708 L2185.79 298.954 L2202.88 312.633 L2219.97 325.966 L2237.06 343.671 L2254.15 360.835 L2271.24 370.348 L2288.33 369.911 L2305.42 351.446 L2322.51 326.903 L2339.6 307.406 L2356.69 295.38 L2373.78 289.698 L2390.87 289.323 L2407.96 291.953 L2425.05 296.037 L2442.14 297.7 L2459.23 298.626 L2476.32 296.834 L2493.42 296.714 L2510.51 297.818 L2527.6 295.173 L2544.69 289.978 L2561.78 287.863 L2578.87 287.948 L2595.96 298.14 L2613.05 311.875 L2630.14 326.246 L2647.23 343.144 L2664.32 360.794 L2681.41 370.867 L2698.5 369.598 L2715.59 351.329 L2732.68 326.014 L2749.77 306.636 L2766.86 295.35 L2783.95 289.655 L2801.04 289.209 L2818.13 292.404 L2835.22 296.2 L2852.31 297.735 L2869.4 298.74 L2886.49 296.839 L2903.58 297.458 L2920.67 297.086 L2937.76 294.241 L2954.85 289.358 L2971.94 287.631 L2989.03 287.715 L3006.12 297.429 L3023.22 311.696 L3040.31 325.178 L3057.4 342.312 L3074.49 360.061 L3091.58 370.26 L3108.67 370.097 L3125.76 350.982 L3142.85 325.167 L3159.94 307.252 L3177.03 295.248 L3194.12 289.3 L3211.21 289.336 L3228.3 292.627 L3245.39 295.952 L3262.48 297.729 L3279.57 298.848 L3296.66 296.487 L3313.75 296.288 L3330.84 297.104 L3347.93 294.136 L3365.02 289.254 L3382.11 286.65 L3399.2 286.339 L3416.29 296.916 L3433.38 310.517 L3450.47 324.479 L3467.56 341.597 L3484.65 360.086 L3501.74 369.949 L3518.83 368.914 L3535.92 350.918 L3553.02 324.275 L3570.11 306.612 L3587.2 295.617 L3604.29 289.383 L3621.38 289.335 L3638.47 292.401 L3655.56 295.343 L3672.65 297.861 L3689.74 298.429 L3706.83 296.443 L3723.92 296.349 L3741.01 296.651 L3758.1 296.009 L3775.19 289.545 L3792.28 286.435 L3809.37 285.919 L3826.46 297.244 L3843.55 310.458 L3860.64 325.041 L3877.73 341.837 L3894.82 360.093 L3911.91 369.495 L3929 368.071 L3946.09 350.635 L3963.18 324.012 L3980.27 306.319 L3997.36 296.397 L4014.45 288.57 L4031.54 288.77 L4048.63 293.139 L4065.72 296.974 L4082.82 297.943 L4099.91 298.645 L4117 296.12 L4134.09 295.919 L4151.18 296.982 L4168.27 296.209 L4185.36 289.744 L4202.45 286.412 L4219.54 285.388 L4236.63 296.852 L4253.72 310.126 L4270.81 325.265 L4287.9 341.31 L4304.99 359.253 L4322.08 369.449 L4339.17 368.256 L4356.26 350.897 L4373.35 326.399 L4390.44 306.49 L4407.53 296.42 L4424.62 289.094 L4441.71 289.271 L4458.8 293.189 L4475.89 297.187 L4492.98 298.659 L4510.07 298.888 L4527.16 297.229 L4544.25 296.425 L4561.34 297.132 L4578.43 296.433 L4595.52 289.6 L4612.62 286.995 L4629.71 286.136 L4629.71 134.78 L4612.62 135.796 L4595.52 139.986 L4578.43 141.219 L4561.34 143.748 L4544.25 145.442 L4527.16 146.288 L4510.07 150.942 L4492.98 154.582 L4475.89 157.422 L4458.8 156.132 L4441.71 152.626 L4424.62 148.083 L4407.53 149.112 L4390.44 155.188 L4373.35 166.124 L4356.26 183.659 L4339.17 197.083 L4322.08 199.073 L4304.99 194.547 L4287.9 183.317 L4270.81 169.607 L4253.72 155.315 L4236.63 143.692 L4219.54 135.711 L4202.45 137.473 L4185.36 140.948 L4168.27 141.883 L4151.18 143.955 L4134.09 145.873 L4117 147.489 L4099.91 152.039 L4082.82 155.503 L4065.72 158.328 L4048.63 156.825 L4031.54 153.035 L4014.45 149.51 L3997.36 150.343 L3980.27 155.775 L3963.18 166.843 L3946.09 184.702 L3929 198.322 L3911.91 200.795 L3894.82 196.023 L3877.73 184.807 L3860.64 169.997 L3843.55 156.092 L3826.46 144.192 L3809.37 136.253 L3792.28 137.627 L3775.19 142.356 L3758.1 143.893 L3741.01 144.585 L3723.92 145.961 L3706.83 148.333 L3689.74 152.661 L3672.65 156.766 L3655.56 159.509 L3638.47 157.727 L3621.38 154.308 L3604.29 150.868 L3587.2 152.919 L3570.11 158.102 L3553.02 168.446 L3535.92 186.088 L3518.83 199.396 L3501.74 201.517 L3484.65 197.826 L3467.56 185.68 L3450.47 172.245 L3433.38 157.511 L3416.29 145.457 L3399.2 137.543 L3382.11 139.314 L3365.02 143.909 L3347.93 146.05 L3330.84 147.668 L3313.75 149.111 L3296.66 150.227 L3279.57 155.469 L3262.48 159.879 L3245.39 162.617 L3228.3 160.421 L3211.21 156.841 L3194.12 154.788 L3177.03 155.42 L3159.94 160.541 L3142.85 170.887 L3125.76 188.964 L3108.67 202.603 L3091.58 204.838 L3074.49 200.165 L3057.4 188.189 L3040.31 174.123 L3023.22 159.411 L3006.12 147.314 L2989.03 139.964 L2971.94 141.724 L2954.85 146.869 L2937.76 149.11 L2920.67 150.273 L2903.58 152.296 L2886.49 153.852 L2869.4 158.93 L2852.31 163.138 L2835.22 166.026 L2818.13 163.785 L2801.04 161.17 L2783.95 157.405 L2766.86 158.224 L2749.77 162.918 L2732.68 173.738 L2715.59 192.24 L2698.5 206.67 L2681.41 208.186 L2664.32 202.906 L2647.23 191.457 L2630.14 177.25 L2613.05 162.334 L2595.96 149.815 L2578.87 142.226 L2561.78 144.694 L2544.69 149.705 L2527.6 153.542 L2510.51 155.185 L2493.42 157.051 L2476.32 159.717 L2459.23 165.364 L2442.14 168.995 L2425.05 170.634 L2407.96 168.482 L2390.87 164.028 L2373.78 160.623 L2356.69 160.969 L2339.6 166.802 L2322.51 177.414 L2305.42 195.58 L2288.33 209.569 L2271.24 211.975 L2254.15 207.735 L2237.06 195.737 L2219.97 181.588 L2202.88 166.876 L2185.79 154.657 L2168.7 146.702 L2151.61 149.502 L2134.52 153.752 L2117.43 158.97 L2100.34 162.406 L2083.25 163.713 L2066.16 165.504 L2049.07 171.601 L2031.98 175.018 L2014.89 176.368 L1997.8 174.938 L1980.71 169.49 L1963.61 166.465 L1946.52 167.519 L1929.43 172.976 L1912.34 183.967 L1895.25 202.461 L1878.16 216.919 L1861.07 219.466 L1843.98 215.384 L1826.89 202.769 L1809.8 188.85 L1792.71 174.125 L1775.62 162.204 L1758.53 154.06 L1741.44 156.507 L1724.35 162.639 L1707.26 167.26 L1690.17 169.356 L1673.08 171.769 L1655.99 175.155 L1638.9 180.462 L1621.81 184.964 L1604.72 186.807 L1587.63 182.999 L1570.54 177.648 L1553.45 174.473 L1536.36 176.358 L1519.27 182.336 L1502.18 195.068 L1485.09 214.085 L1468 228.315 L1450.91 231.137 L1433.81 226.992 L1416.72 214.786 L1399.63 201.311 L1382.54 186.529 L1365.45 173.693 L1348.36 166.466 L1331.27 169.745 L1314.18 175.083 L1297.09 180.754 L1280 184.157 L1262.91 186.017 L1245.82 189.607 L1228.73 195.761 L1211.64 200.387 L1194.55 199.447 L1177.46 195.746 L1160.37 190.597 L1143.28 188.379 L1126.19 191.439 L1109.1 198.921 L1092.01 211.944 L1074.92 232.965 L1057.83 248.072 L1040.74 251.279 L1023.65 246.647 L1006.56 233.694 L989.466 218.59 L972.376 202.932 L955.286 190.003 L938.195 183.119 L921.105 188.133 L904.015 196.042 L886.925 203.622 L869.834 207.011 L852.744 210.946 L835.654 214.613 L818.563 218.459 L801.473 219.721 L784.383 219.498 L767.292 216.766 L750.202 213.681 L733.112 213.154 L716.021 219.448 L698.931 229.43 L681.841 244.472 L664.75 265.966 L647.66 282.076 L630.57 286.812 L613.479 284.987 L596.389 275.34 L579.299 262.925 L562.208 248.864 L545.118 237.145 L528.028 230.317  Z" fill="#414141" fill-rule="evenodd" fill-opacity="0.5"/>
<polyline clip-path="url(#clip692)" style="stroke:#414141; stroke-linecap:round; stroke-linejoin:round; stroke-width:0; stroke-opacity:1; fill:none" points="528.028,238.471 545.118,243.12 562.208,249.871 579.299,257.802 596.389,265.567 613.479,272.371 630.57,274.883 647.66,273.491 664.75,265.617 681.841,254.808 698.931,247.42 716.021,242.661 733.112,240.337 750.202,240.761 767.292,242.637 784.383,244.723 801.473,245.373 818.563,245.212 835.654,243.878 852.744,243.13 869.834,242.4 886.925,241.595 904.015,239.249 921.105,236.419 938.195,235.294 955.286,239.56 972.376,246.097 989.466,253.914 1006.56,261.615 1023.65,268.397 1040.74,270.868 1057.83,269.369 1074.92,261.45 1092.01,250.641 1109.1,243.39 1126.19,238.905 1143.28,236.858 1160.37,237.498 1177.46,239.515 1194.55,241.653 1211.64,242.265 1228.73,242.031 1245.82,240.653 1262.91,239.951 1280,239.307 1297.09,238.599 1314.18,236.337 1331.27,233.577 1348.36,232.505 1365.45,236.823 1382.54,243.403 1399.63,251.263 1416.72,259.004 1433.81,265.831 1450.91,268.336 1468,266.879 1485.09,258.902 1502.18,247.987 1519.27,240.691 1536.36,236.201 1553.45,234.174 1570.54,234.843 1587.63,236.879 1604.72,239.042 1621.81,239.683 1638.9,239.479 1655.99,238.139 1673.08,237.491 1690.17,236.923 1707.26,236.288 1724.35,234.082 1741.44,231.371 1758.53,230.338 1775.62,234.693 1792.71,241.303 1809.8,249.193 1826.89,256.963 1843.98,263.822 1861.07,266.369 1878.16,264.926 1895.25,256.934 1912.34,246.006 1929.43,238.712 1946.52,234.247 1963.61,232.248 1980.71,232.943 1997.8,235.005 2014.89,237.19 2031.98,237.85 2049.07,237.66 2066.16,236.35 2083.25,235.759 2100.34,235.246 2117.43,234.661 2134.52,232.5 2151.61,229.822 2168.7,228.817 2185.79,233.198 2202.88,239.833 2219.97,247.742 2237.06,255.545 2254.15,262.429 2271.24,264.996 2288.33,263.591 2305.42,255.626 2322.51,244.708 2339.6,237.413 2356.69,232.958 2373.78,230.979 2390.87,231.698 2407.96,233.776 2425.05,235.978 2442.14,236.675 2459.23,236.514 2476.32,235.223 2493.42,234.658 2510.51,234.184 2527.6,233.635 2544.69,231.502 2561.78,228.847 2578.87,227.86 2595.96,232.259 2613.05,238.907 2630.14,246.828 2647.23,254.643 2664.32,261.547 2681.41,264.138 2698.5,262.736 2715.59,254.767 2732.68,243.87 2749.77,236.596 2766.86,232.157 2783.95,230.189 2801.04,230.923 2818.13,233.014 2835.22,235.237 2852.31,235.943 2869.4,235.803 2886.49,234.527 2903.58,233.99 2920.67,233.54 2937.76,233.016 2954.85,230.904 2971.94,228.266 2989.03,227.289 3006.12,231.696 3023.22,238.351 3040.31,246.28 3057.4,254.102 3074.49,261.016 3091.58,263.623 3108.67,262.261 3125.76,254.308 3142.85,243.398 3159.94,236.123 3177.03,231.687 3194.12,229.729 3211.21,230.461 3228.3,232.562 3245.39,234.785 3262.48,235.487 3279.57,235.339 3296.66,234.074 3313.75,233.557 3330.84,233.132 3347.93,232.627 3365.02,230.535 3382.11,227.907 3399.2,226.94 3416.29,231.354 3433.38,238.016 3450.47,245.951 3467.56,253.778 3484.65,260.707 3501.74,263.322 3518.83,261.958 3535.92,254.01 3553.02,243.125 3570.11,235.863 3587.2,231.43 3604.29,229.473 3621.38,230.211 3638.47,232.308 3655.56,234.53 3672.65,235.234 3689.74,235.101 3706.83,233.861 3723.92,233.363 3741.01,232.951 3758.1,232.464 3775.19,230.381 3792.28,227.762 3809.37,226.799 3826.46,231.218 3843.55,237.882 3860.64,245.823 3877.73,253.658 3894.82,260.593 3911.91,263.212 3929,261.836 3946.09,253.92 3963.18,243.028 3980.27,235.76 3997.36,231.332 4014.45,229.374 4031.54,230.115 4048.63,232.213 4065.72,234.439 4082.82,235.151 4099.91,235.018 4117,233.776 4134.09,233.284 4151.18,232.886 4168.27,232.413 4185.36,230.34 4202.45,227.728 4219.54,226.767 4236.63,231.188 4253.72,237.853 4270.81,245.792 4287.9,253.63 4304.99,260.569 4322.08,263.197 4339.17,261.851 4356.26,253.961 4373.35,243.081 4390.44,235.805 4407.53,231.369 4424.62,229.409 4441.71,230.144 4458.8,232.247 4475.89,234.465 4492.98,235.171 4510.07,235.041 4527.16,233.802 4544.25,233.314 4561.34,232.929 4578.43,232.464 4595.52,230.399 4612.62,227.791 4629.71,226.831 "/>
<path clip-path="url(#clip690)" d="M3853.78 853.161 L4607.83 853.161 L4607.83 334.761 L3853.78 334.761  Z" fill="#ffffff" fill-rule="evenodd" fill-opacity="1"/>
<polyline clip-path="url(#clip690)" style="stroke:#000000; stroke-linecap:round; stroke-linejoin:round; stroke-width:4; stroke-opacity:1; fill:none" points="3853.78,853.161 4607.83,853.161 4607.83,334.761 3853.78,334.761 3853.78,853.161 "/>
<polyline clip-path="url(#clip690)" style="stroke:#aeaeae; stroke-linecap:round; stroke-linejoin:round; stroke-width:2; stroke-opacity:1; fill:none" points="3902.09,464.361 4191.94,464.361 "/>
<path clip-path="url(#clip690)" d="M4241.93 497.723 L4261.03 497.723 L4261.03 431.809 L4240.25 435.976 L4240.25 425.328 L4260.91 421.161 L4272.6 421.161 L4272.6 497.723 L4291.7 497.723 L4291.7 507.561 L4241.93 507.561 L4241.93 497.723 Z" fill="#000000" fill-rule="nonzero" fill-opacity="1" /><path clip-path="url(#clip690)" d="M4340.31 428.858 Q4331.28 428.858 4326.71 437.77 Q4322.2 446.624 4322.2 464.448 Q4322.2 482.214 4326.71 491.126 Q4331.28 499.98 4340.31 499.98 Q4349.4 499.98 4353.91 491.126 Q4358.48 482.214 4358.48 464.448 Q4358.48 446.624 4353.91 437.77 Q4349.4 428.858 4340.31 428.858 M4340.31 419.599 Q4354.83 419.599 4362.47 431.115 Q4370.17 442.573 4370.17 464.448 Q4370.17 486.265 4362.47 497.781 Q4354.83 509.239 4340.31 509.239 Q4325.78 509.239 4318.09 497.781 Q4310.45 486.265 4310.45 464.448 Q4310.45 442.573 4318.09 431.115 Q4325.78 419.599 4340.31 419.599 Z" fill="#000000" fill-rule="nonzero" fill-opacity="1" /><path clip-path="url(#clip690)" d="M4415.71 428.858 Q4406.69 428.858 4402.11 437.77 Q4397.6 446.624 4397.6 464.448 Q4397.6 482.214 4402.11 491.126 Q4406.69 499.98 4415.71 499.98 Q4424.8 499.98 4429.31 491.126 Q4433.89 482.214 4433.89 464.448 Q4433.89 446.624 4429.31 437.77 Q4424.8 428.858 4415.71 428.858 M4415.71 419.599 Q4430.24 419.599 4437.88 431.115 Q4445.58 442.573 4445.58 464.448 Q4445.58 486.265 4437.88 497.781 Q4430.24 509.239 4415.71 509.239 Q4401.19 509.239 4393.49 497.781 Q4385.85 486.265 4385.85 464.448 Q4385.85 442.573 4393.49 431.115 Q4401.19 419.599 4415.71 419.599 Z" fill="#000000" fill-rule="nonzero" fill-opacity="1" /><path clip-path="url(#clip690)" d="M4539.61 469.541 Q4534.58 469.541 4531.69 473.823 Q4528.85 478.105 4528.85 485.744 Q4528.85 493.267 4531.69 497.608 Q4534.58 501.89 4539.61 501.89 Q4544.53 501.89 4547.37 497.608 Q4550.26 493.267 4550.26 485.744 Q4550.26 478.163 4547.37 473.881 Q4544.53 469.541 4539.61 469.541 M4539.61 462.191 Q4548.76 462.191 4554.14 468.557 Q4559.52 474.923 4559.52 485.744 Q4559.52 496.566 4554.08 502.932 Q4548.7 509.239 4539.61 509.239 Q4530.35 509.239 4524.97 502.932 Q4519.59 496.566 4519.59 485.744 Q4519.59 474.865 4524.97 468.557 Q4530.41 462.191 4539.61 462.191 M4479.89 426.948 Q4474.92 426.948 4472.02 431.289 Q4469.19 435.571 4469.19 443.094 Q4469.19 450.733 4472.02 455.015 Q4474.86 459.298 4479.89 459.298 Q4484.93 459.298 4487.76 455.015 Q4490.66 450.733 4490.66 443.094 Q4490.66 435.629 4487.76 431.289 Q4484.87 426.948 4479.89 426.948 M4532.15 419.599 L4541.41 419.599 L4487.36 509.239 L4478.1 509.239 L4532.15 419.599 M4479.89 419.599 Q4489.04 419.599 4494.48 425.964 Q4499.92 432.272 4499.92 443.094 Q4499.92 454.031 4494.48 460.339 Q4489.09 466.647 4479.89 466.647 Q4470.69 466.647 4465.31 460.339 Q4459.98 453.974 4459.98 443.094 Q4459.98 432.33 4465.37 425.964 Q4470.75 419.599 4479.89 419.599 Z" fill="#000000" fill-rule="nonzero" fill-opacity="1" /><polyline clip-path="url(#clip690)" style="stroke:#757575; stroke-linecap:round; stroke-linejoin:round; stroke-width:2; stroke-opacity:1; fill:none" points="3902.09,593.961 4191.94,593.961 "/>
<path clip-path="url(#clip690)" d="M4245.81 635.367 L4245.81 624.719 Q4250.21 626.803 4254.72 627.902 Q4259.23 629.002 4263.57 629.002 Q4275.15 629.002 4281.22 621.247 Q4287.36 613.435 4288.23 597.578 Q4284.87 602.555 4279.72 605.217 Q4274.57 607.879 4268.32 607.879 Q4255.36 607.879 4247.78 600.067 Q4240.25 592.196 4240.25 578.597 Q4240.25 565.287 4248.12 557.243 Q4255.99 549.199 4269.07 549.199 Q4284.06 549.199 4291.93 560.715 Q4299.86 572.173 4299.86 594.048 Q4299.86 614.476 4290.14 626.687 Q4280.47 638.839 4264.09 638.839 Q4259.7 638.839 4255.18 637.971 Q4250.67 637.103 4245.81 635.367 M4269.07 598.736 Q4276.94 598.736 4281.51 593.354 Q4286.14 587.972 4286.14 578.597 Q4286.14 569.28 4281.51 563.898 Q4276.94 558.458 4269.07 558.458 Q4261.2 558.458 4256.57 563.898 Q4252 569.28 4252 578.597 Q4252 587.972 4256.57 593.354 Q4261.2 598.736 4269.07 598.736 Z" fill="#000000" fill-rule="nonzero" fill-opacity="1" /><path clip-path="url(#clip690)" d="M4345.87 558.458 Q4336.84 558.458 4332.27 567.37 Q4327.75 576.224 4327.75 594.048 Q4327.75 611.814 4332.27 620.726 Q4336.84 629.58 4345.87 629.58 Q4354.95 629.58 4359.46 620.726 Q4364.04 611.814 4364.04 594.048 Q4364.04 576.224 4359.46 567.37 Q4354.95 558.458 4345.87 558.458 M4345.87 549.199 Q4360.39 549.199 4368.03 560.715 Q4375.73 572.173 4375.73 594.048 Q4375.73 615.865 4368.03 627.381 Q4360.39 638.839 4345.87 638.839 Q4331.34 638.839 4323.64 627.381 Q4316 615.865 4316 594.048 Q4316 572.173 4323.64 560.715 Q4331.34 549.199 4345.87 549.199 Z" fill="#000000" fill-rule="nonzero" fill-opacity="1" /><path clip-path="url(#clip690)" d="M4469.76 599.141 Q4464.73 599.141 4461.84 603.423 Q4459 607.705 4459 615.344 Q4459 622.867 4461.84 627.208 Q4464.73 631.49 4469.76 631.49 Q4474.68 631.49 4477.52 627.208 Q4480.41 622.867 4480.41 615.344 Q4480.41 607.763 4477.52 603.481 Q4474.68 599.141 4469.76 599.141 M4469.76 591.791 Q4478.91 591.791 4484.29 598.157 Q4489.67 604.523 4489.67 615.344 Q4489.67 626.166 4484.23 632.532 Q4478.85 638.839 4469.76 638.839 Q4460.51 638.839 4455.12 632.532 Q4449.74 626.166 4449.74 615.344 Q4449.74 604.465 4455.12 598.157 Q4460.56 591.791 4469.76 591.791 M4410.04 556.548 Q4405.07 556.548 4402.17 560.889 Q4399.34 565.171 4399.34 572.694 Q4399.34 580.333 4402.17 584.615 Q4405.01 588.898 4410.04 588.898 Q4415.08 588.898 4417.91 584.615 Q4420.81 580.333 4420.81 572.694 Q4420.81 565.229 4417.91 560.889 Q4415.02 556.548 4410.04 556.548 M4462.3 549.199 L4471.56 549.199 L4417.51 638.839 L4408.25 638.839 L4462.3 549.199 M4410.04 549.199 Q4419.19 549.199 4424.63 555.564 Q4430.07 561.872 4430.07 572.694 Q4430.07 583.631 4424.63 589.939 Q4419.24 596.247 4410.04 596.247 Q4400.84 596.247 4395.46 589.939 Q4390.14 583.574 4390.14 572.694 Q4390.14 561.93 4395.52 555.564 Q4400.9 549.199 4410.04 549.199 Z" fill="#000000" fill-rule="nonzero" fill-opacity="1" /><polyline clip-path="url(#clip690)" style="stroke:#414141; stroke-linecap:round; stroke-linejoin:round; stroke-width:2; stroke-opacity:1; fill:none" points="3902.09,723.561 4191.94,723.561 "/>
<path clip-path="url(#clip690)" d="M4269.88 725.731 Q4261.55 725.731 4256.75 730.187 Q4252 734.643 4252 742.456 Q4252 750.268 4256.75 754.724 Q4261.55 759.18 4269.88 759.18 Q4278.21 759.18 4283.02 754.724 Q4287.82 750.21 4287.82 742.456 Q4287.82 734.643 4283.02 730.187 Q4278.27 725.731 4269.88 725.731 M4258.19 720.755 Q4250.67 718.903 4246.44 713.752 Q4242.28 708.602 4242.28 701.194 Q4242.28 690.836 4249.63 684.817 Q4257.03 678.799 4269.88 678.799 Q4282.79 678.799 4290.14 684.817 Q4297.49 690.836 4297.49 701.194 Q4297.49 708.602 4293.26 713.752 Q4289.09 718.903 4281.63 720.755 Q4290.08 722.722 4294.77 728.451 Q4299.51 734.18 4299.51 742.456 Q4299.51 755.014 4291.81 761.727 Q4284.18 768.439 4269.88 768.439 Q4255.59 768.439 4247.89 761.727 Q4240.25 755.014 4240.25 742.456 Q4240.25 734.18 4245 728.451 Q4249.74 722.722 4258.19 720.755 M4253.91 702.294 Q4253.91 709.007 4258.08 712.768 Q4262.3 716.53 4269.88 716.53 Q4277.4 716.53 4281.63 712.768 Q4285.91 709.007 4285.91 702.294 Q4285.91 695.581 4281.63 691.82 Q4277.4 688.058 4269.88 688.058 Q4262.3 688.058 4258.08 691.82 Q4253.91 695.581 4253.91 702.294 Z" fill="#000000" fill-rule="nonzero" fill-opacity="1" /><path clip-path="url(#clip690)" d="M4345.29 688.058 Q4336.26 688.058 4331.69 696.97 Q4327.17 705.824 4327.17 723.648 Q4327.17 741.414 4331.69 750.326 Q4336.26 759.18 4345.29 759.18 Q4354.37 759.18 4358.89 750.326 Q4363.46 741.414 4363.46 723.648 Q4363.46 705.824 4358.89 696.97 Q4354.37 688.058 4345.29 688.058 M4345.29 678.799 Q4359.81 678.799 4367.45 690.315 Q4375.15 701.773 4375.15 723.648 Q4375.15 745.465 4367.45 756.981 Q4359.81 768.439 4345.29 768.439 Q4330.76 768.439 4323.06 756.981 Q4315.43 745.465 4315.43 723.648 Q4315.43 701.773 4323.06 690.315 Q4330.76 678.799 4345.29 678.799 Z" fill="#000000" fill-rule="nonzero" fill-opacity="1" /><path clip-path="url(#clip690)" d="M4469.19 728.741 Q4464.15 728.741 4461.26 733.023 Q4458.42 737.305 4458.42 744.944 Q4458.42 752.467 4461.26 756.808 Q4464.15 761.09 4469.19 761.09 Q4474.11 761.09 4476.94 756.808 Q4479.83 752.467 4479.83 744.944 Q4479.83 737.363 4476.94 733.081 Q4474.11 728.741 4469.19 728.741 M4469.19 721.391 Q4478.33 721.391 4483.71 727.757 Q4489.09 734.123 4489.09 744.944 Q4489.09 755.766 4483.65 762.132 Q4478.27 768.439 4469.19 768.439 Q4459.93 768.439 4454.55 762.132 Q4449.16 755.766 4449.16 744.944 Q4449.16 734.065 4454.55 727.757 Q4459.98 721.391 4469.19 721.391 M4409.46 686.148 Q4404.49 686.148 4401.59 690.489 Q4398.76 694.771 4398.76 702.294 Q4398.76 709.933 4401.59 714.215 Q4404.43 718.498 4409.46 718.498 Q4414.5 718.498 4417.33 714.215 Q4420.23 709.933 4420.23 702.294 Q4420.23 694.829 4417.33 690.489 Q4414.44 686.148 4409.46 686.148 M4461.72 678.799 L4470.98 678.799 L4416.93 768.439 L4407.67 768.439 L4461.72 678.799 M4409.46 678.799 Q4418.61 678.799 4424.05 685.164 Q4429.49 691.472 4429.49 702.294 Q4429.49 713.231 4424.05 719.539 Q4418.67 725.847 4409.46 725.847 Q4400.26 725.847 4394.88 719.539 Q4389.56 713.174 4389.56 702.294 Q4389.56 691.53 4394.94 685.164 Q4400.32 678.799 4409.46 678.799 Z" fill="#000000" fill-rule="nonzero" fill-opacity="1" /></svg>
