<?xml version="1.0" encoding="utf-8"?>
<svg xmlns="http://www.w3.org/2000/svg" xmlns:xlink="http://www.w3.org/1999/xlink" width="1200" height="300" viewBox="0 0 4800 1200">
<defs>
  <clipPath id="clip450">
    <rect x="0" y="0" width="4800" height="1200"/>
  </clipPath>
</defs>
<path clip-path="url(#clip450)" d="M0 1200 L4800 1200 L4800 0 L0 0  Z" fill="#ffffff" fill-rule="evenodd" fill-opacity="1"/>
<defs>
  <clipPath id="clip451">
    <rect x="960" y="0" width="3361" height="1200"/>
  </clipPath>
</defs>
<path clip-path="url(#clip450)" d="M467.969 849.455 L4752.76 849.455 L4752.76 47.2441 L467.969 47.2441  Z" fill="#ffffff" fill-rule="evenodd" fill-opacity="1"/>
<defs>
  <clipPath id="clip452">
    <rect x="467" y="47" width="4286" height="803"/>
  </clipPath>
</defs>
<polyline clip-path="url(#clip452)" style="stroke:#000000; stroke-linecap:round; stroke-linejoin:round; stroke-width:2; stroke-opacity:0.1; fill:none" points="589.237,849.455 589.237,47.2441 "/>
<polyline clip-path="url(#clip452)" style="stroke:#000000; stroke-linecap:round; stroke-linejoin:round; stroke-width:2; stroke-opacity:0.1; fill:none" points="1397.69,849.455 1397.69,47.2441 "/>
<polyline clip-path="url(#clip452)" style="stroke:#000000; stroke-linecap:round; stroke-linejoin:round; stroke-width:2; stroke-opacity:0.1; fill:none" points="2206.14,849.455 2206.14,47.2441 "/>
<polyline clip-path="url(#clip452)" style="stroke:#000000; stroke-linecap:round; stroke-linejoin:round; stroke-width:2; stroke-opacity:0.1; fill:none" points="3014.59,849.455 3014.59,47.2441 "/>
<polyline clip-path="url(#clip452)" style="stroke:#000000; stroke-linecap:round; stroke-linejoin:round; stroke-width:2; stroke-opacity:0.1; fill:none" points="3823.04,849.455 3823.04,47.2441 "/>
<polyline clip-path="url(#clip452)" style="stroke:#000000; stroke-linecap:round; stroke-linejoin:round; stroke-width:2; stroke-opacity:0.1; fill:none" points="4631.49,849.455 4631.49,47.2441 "/>
<polyline clip-path="url(#clip452)" style="stroke:#000000; stroke-linecap:round; stroke-linejoin:round; stroke-width:2; stroke-opacity:0.1; fill:none" points="467.969,771.142 4752.76,771.142 "/>
<polyline clip-path="url(#clip452)" style="stroke:#000000; stroke-linecap:round; stroke-linejoin:round; stroke-width:2; stroke-opacity:0.1; fill:none" points="467.969,648.744 4752.76,648.744 "/>
<polyline clip-path="url(#clip452)" style="stroke:#000000; stroke-linecap:round; stroke-linejoin:round; stroke-width:2; stroke-opacity:0.1; fill:none" points="467.969,526.346 4752.76,526.346 "/>
<polyline clip-path="url(#clip452)" style="stroke:#000000; stroke-linecap:round; stroke-linejoin:round; stroke-width:2; stroke-opacity:0.1; fill:none" points="467.969,403.948 4752.76,403.948 "/>
<polyline clip-path="url(#clip452)" style="stroke:#000000; stroke-linecap:round; stroke-linejoin:round; stroke-width:2; stroke-opacity:0.1; fill:none" points="467.969,281.55 4752.76,281.55 "/>
<polyline clip-path="url(#clip452)" style="stroke:#000000; stroke-linecap:round; stroke-linejoin:round; stroke-width:2; stroke-opacity:0.1; fill:none" points="467.969,159.152 4752.76,159.152 "/>
<polyline clip-path="url(#clip450)" style="stroke:#000000; stroke-linecap:round; stroke-linejoin:round; stroke-width:4; stroke-opacity:1; fill:none" points="467.969,849.455 4752.76,849.455 "/>
<polyline clip-path="url(#clip450)" style="stroke:#000000; stroke-linecap:round; stroke-linejoin:round; stroke-width:4; stroke-opacity:1; fill:none" points="589.237,849.455 589.237,830.558 "/>
<polyline clip-path="url(#clip450)" style="stroke:#000000; stroke-linecap:round; stroke-linejoin:round; stroke-width:4; stroke-opacity:1; fill:none" points="1397.69,849.455 1397.69,830.558 "/>
<polyline clip-path="url(#clip450)" style="stroke:#000000; stroke-linecap:round; stroke-linejoin:round; stroke-width:4; stroke-opacity:1; fill:none" points="2206.14,849.455 2206.14,830.558 "/>
<polyline clip-path="url(#clip450)" style="stroke:#000000; stroke-linecap:round; stroke-linejoin:round; stroke-width:4; stroke-opacity:1; fill:none" points="3014.59,849.455 3014.59,830.558 "/>
<polyline clip-path="url(#clip450)" style="stroke:#000000; stroke-linecap:round; stroke-linejoin:round; stroke-width:4; stroke-opacity:1; fill:none" points="3823.04,849.455 3823.04,830.558 "/>
<polyline clip-path="url(#clip450)" style="stroke:#000000; stroke-linecap:round; stroke-linejoin:round; stroke-width:4; stroke-opacity:1; fill:none" points="4631.49,849.455 4631.49,830.558 "/>
<path clip-path="url(#clip450)" d="M589.237 911.293 Q582.015 911.293 578.357 918.422 Q574.746 925.506 574.746 939.765 Q574.746 953.978 578.357 961.107 Q582.015 968.191 589.237 968.191 Q596.506 968.191 600.117 961.107 Q603.774 953.978 603.774 939.765 Q603.774 925.506 600.117 918.422 Q596.506 911.293 589.237 911.293 M589.237 903.885 Q600.857 903.885 606.968 913.098 Q613.126 922.265 613.126 939.765 Q613.126 957.218 606.968 966.431 Q600.857 975.598 589.237 975.598 Q577.617 975.598 571.459 966.431 Q565.348 957.218 565.348 939.765 Q565.348 922.265 571.459 913.098 Q577.617 903.885 589.237 903.885 Z" fill="#000000" fill-rule="nonzero" fill-opacity="1" /><path clip-path="url(#clip450)" d="M1386.99 966.385 L1419.63 966.385 L1419.63 974.255 L1375.74 974.255 L1375.74 966.385 Q1381.07 960.876 1390.23 951.617 Q1399.45 942.311 1401.81 939.626 Q1406.3 934.58 1408.06 931.108 Q1409.86 927.589 1409.86 924.209 Q1409.86 918.7 1405.97 915.228 Q1402.13 911.756 1395.93 911.756 Q1391.53 911.756 1386.62 913.284 Q1381.76 914.811 1376.21 917.913 L1376.21 908.469 Q1381.85 906.2 1386.76 905.043 Q1391.67 903.885 1395.74 903.885 Q1406.48 903.885 1412.87 909.256 Q1419.26 914.626 1419.26 923.608 Q1419.26 927.867 1417.64 931.709 Q1416.07 935.506 1411.85 940.691 Q1410.7 942.033 1404.49 948.469 Q1398.29 954.857 1386.99 966.385 Z" fill="#000000" fill-rule="nonzero" fill-opacity="1" /><path clip-path="url(#clip450)" d="M2212.16 913.284 L2188.55 950.181 L2212.16 950.181 L2212.16 913.284 M2209.7 905.135 L2221.46 905.135 L2221.46 950.181 L2231.32 950.181 L2231.32 957.959 L2221.46 957.959 L2221.46 974.255 L2212.16 974.255 L2212.16 957.959 L2180.95 957.959 L2180.95 948.931 L2209.7 905.135 Z" fill="#000000" fill-rule="nonzero" fill-opacity="1" /><path clip-path="url(#clip450)" d="M3015.4 935.969 Q3009.1 935.969 3005.4 940.274 Q3001.74 944.58 3001.74 952.08 Q3001.74 959.533 3005.4 963.885 Q3009.1 968.191 3015.4 968.191 Q3021.69 968.191 3025.35 963.885 Q3029.06 959.533 3029.06 952.08 Q3029.06 944.58 3025.35 940.274 Q3021.69 935.969 3015.4 935.969 M3033.96 906.663 L3033.96 915.182 Q3030.44 913.515 3026.83 912.635 Q3023.27 911.756 3019.75 911.756 Q3010.49 911.756 3005.58 918.006 Q3000.72 924.256 3000.03 936.895 Q3002.76 932.867 3006.88 930.737 Q3011 928.561 3015.95 928.561 Q3026.37 928.561 3032.39 934.904 Q3038.45 941.2 3038.45 952.08 Q3038.45 962.728 3032.16 969.163 Q3025.86 975.598 3015.4 975.598 Q3003.41 975.598 2997.06 966.431 Q2990.72 957.218 2990.72 939.765 Q2990.72 923.376 2998.5 913.654 Q3006.28 903.885 3019.38 903.885 Q3022.9 903.885 3026.46 904.58 Q3030.07 905.274 3033.96 906.663 Z" fill="#000000" fill-rule="nonzero" fill-opacity="1" /><path clip-path="url(#clip450)" d="M3823.04 941.432 Q3816.37 941.432 3812.53 944.996 Q3808.73 948.561 3808.73 954.811 Q3808.73 961.061 3812.53 964.626 Q3816.37 968.191 3823.04 968.191 Q3829.7 968.191 3833.55 964.626 Q3837.39 961.015 3837.39 954.811 Q3837.39 948.561 3833.55 944.996 Q3829.75 941.432 3823.04 941.432 M3813.69 937.45 Q3807.67 935.969 3804.29 931.848 Q3800.95 927.728 3800.95 921.802 Q3800.95 913.515 3806.83 908.7 Q3812.76 903.885 3823.04 903.885 Q3833.36 903.885 3839.24 908.7 Q3845.12 913.515 3845.12 921.802 Q3845.12 927.728 3841.74 931.848 Q3838.41 935.969 3832.44 937.45 Q3839.2 939.024 3842.95 943.607 Q3846.74 948.191 3846.74 954.811 Q3846.74 964.857 3840.58 970.228 Q3834.47 975.598 3823.04 975.598 Q3811.6 975.598 3805.45 970.228 Q3799.33 964.857 3799.33 954.811 Q3799.33 948.191 3803.13 943.607 Q3806.93 939.024 3813.69 937.45 M3810.26 922.682 Q3810.26 928.052 3813.59 931.061 Q3816.97 934.07 3823.04 934.07 Q3829.06 934.07 3832.44 931.061 Q3835.86 928.052 3835.86 922.682 Q3835.86 917.311 3832.44 914.302 Q3829.06 911.293 3823.04 911.293 Q3816.97 911.293 3813.59 914.302 Q3810.26 917.311 3810.26 922.682 Z" fill="#000000" fill-rule="nonzero" fill-opacity="1" /><path clip-path="url(#clip450)" d="M4580.86 966.385 L4596.14 966.385 L4596.14 913.654 L4579.52 916.987 L4579.52 908.469 L4596.05 905.135 L4605.4 905.135 L4605.4 966.385 L4620.68 966.385 L4620.68 974.255 L4580.86 974.255 L4580.86 966.385 Z" fill="#000000" fill-rule="nonzero" fill-opacity="1" /><path clip-path="url(#clip450)" d="M4659.57 911.293 Q4652.34 911.293 4648.69 918.422 Q4645.08 925.506 4645.08 939.765 Q4645.08 953.978 4648.69 961.107 Q4652.34 968.191 4659.57 968.191 Q4666.84 968.191 4670.45 961.107 Q4674.1 953.978 4674.1 939.765 Q4674.1 925.506 4670.45 918.422 Q4666.84 911.293 4659.57 911.293 M4659.57 903.885 Q4671.19 903.885 4677.3 913.098 Q4683.46 922.265 4683.46 939.765 Q4683.46 957.218 4677.3 966.431 Q4671.19 975.598 4659.57 975.598 Q4647.95 975.598 4641.79 966.431 Q4635.68 957.218 4635.68 939.765 Q4635.68 922.265 4641.79 913.098 Q4647.95 903.885 4659.57 903.885 Z" fill="#000000" fill-rule="nonzero" fill-opacity="1" /><path clip-path="url(#clip450)" d="M2327.6 1040.69 L2393.38 1040.69 L2393.38 1049.54 L2365.78 1049.54 L2365.78 1118.45 L2355.21 1118.45 L2355.21 1049.54 L2327.6 1049.54 L2327.6 1040.69 Z" fill="#000000" fill-rule="nonzero" fill-opacity="1" /><path clip-path="url(#clip450)" d="M2399.84 1060.11 L2409.43 1060.11 L2409.43 1118.45 L2399.84 1118.45 L2399.84 1060.11 M2399.84 1037.41 L2409.43 1037.41 L2409.43 1049.54 L2399.84 1049.54 L2399.84 1037.41 Z" fill="#000000" fill-rule="nonzero" fill-opacity="1" /><path clip-path="url(#clip450)" d="M2474.89 1071.31 Q2478.49 1064.85 2483.49 1061.78 Q2488.49 1058.71 2495.26 1058.71 Q2504.37 1058.71 2509.32 1065.11 Q2514.27 1071.47 2514.27 1083.24 L2514.27 1118.45 L2504.63 1118.45 L2504.63 1083.55 Q2504.63 1075.17 2501.67 1071.1 Q2498.7 1067.04 2492.6 1067.04 Q2485.16 1067.04 2480.83 1071.99 Q2476.51 1076.94 2476.51 1085.48 L2476.51 1118.45 L2466.87 1118.45 L2466.87 1083.55 Q2466.87 1075.11 2463.91 1071.1 Q2460.94 1067.04 2454.74 1067.04 Q2447.39 1067.04 2443.07 1072.04 Q2438.75 1076.99 2438.75 1085.48 L2438.75 1118.45 L2429.11 1118.45 L2429.11 1060.11 L2438.75 1060.11 L2438.75 1069.18 Q2442.03 1063.81 2446.61 1061.26 Q2451.2 1058.71 2457.5 1058.71 Q2463.85 1058.71 2468.28 1061.94 Q2472.76 1065.17 2474.89 1071.31 Z" fill="#000000" fill-rule="nonzero" fill-opacity="1" /><path clip-path="url(#clip450)" d="M2583.28 1086.89 L2583.28 1091.57 L2539.22 1091.57 Q2539.84 1101.47 2545.15 1106.68 Q2550.52 1111.83 2560.05 1111.83 Q2565.57 1111.83 2570.73 1110.48 Q2575.94 1109.12 2581.04 1106.42 L2581.04 1115.48 Q2575.88 1117.67 2570.47 1118.81 Q2565.05 1119.96 2559.48 1119.96 Q2545.52 1119.96 2537.34 1111.83 Q2529.22 1103.71 2529.22 1089.85 Q2529.22 1075.53 2536.93 1067.15 Q2544.69 1058.71 2557.81 1058.71 Q2569.58 1058.71 2576.4 1066.31 Q2583.28 1073.86 2583.28 1086.89 M2573.7 1084.07 Q2573.59 1076.21 2569.27 1071.52 Q2565 1066.83 2557.92 1066.83 Q2549.89 1066.83 2545.05 1071.36 Q2540.26 1075.9 2539.53 1084.12 L2573.7 1084.07 Z" fill="#000000" fill-rule="nonzero" fill-opacity="1" /><path clip-path="url(#clip450)" d="M2655.94 1037.51 Q2648.96 1049.49 2645.57 1061.21 Q2642.19 1072.93 2642.19 1084.96 Q2642.19 1096.99 2645.57 1108.81 Q2649.01 1120.58 2655.94 1132.51 L2647.6 1132.51 Q2639.79 1120.27 2635.88 1108.45 Q2632.03 1096.62 2632.03 1084.96 Q2632.03 1073.34 2635.88 1061.57 Q2639.74 1049.8 2647.6 1037.51 L2655.94 1037.51 Z" fill="#000000" fill-rule="nonzero" fill-opacity="1" /><path clip-path="url(#clip450)" d="M2712.91 1068.97 L2712.91 1037.41 L2722.5 1037.41 L2722.5 1118.45 L2712.91 1118.45 L2712.91 1109.7 Q2709.89 1114.91 2705.26 1117.46 Q2700.67 1119.96 2694.22 1119.96 Q2683.64 1119.96 2676.98 1111.52 Q2670.36 1103.08 2670.36 1089.33 Q2670.36 1075.58 2676.98 1067.15 Q2683.64 1058.71 2694.22 1058.71 Q2700.67 1058.71 2705.26 1061.26 Q2709.89 1063.76 2712.91 1068.97 M2680.26 1089.33 Q2680.26 1099.91 2684.58 1105.95 Q2688.96 1111.94 2696.56 1111.94 Q2704.16 1111.94 2708.54 1105.95 Q2712.91 1099.91 2712.91 1089.33 Q2712.91 1078.76 2708.54 1072.77 Q2704.16 1066.73 2696.56 1066.73 Q2688.96 1066.73 2684.58 1072.77 Q2680.26 1078.76 2680.26 1089.33 Z" fill="#000000" fill-rule="nonzero" fill-opacity="1" /><path clip-path="url(#clip450)" d="M2768.75 1089.12 Q2757.13 1089.12 2752.65 1091.78 Q2748.17 1094.44 2748.17 1100.84 Q2748.17 1105.95 2751.51 1108.97 Q2754.89 1111.94 2760.67 1111.94 Q2768.64 1111.94 2773.43 1106.31 Q2778.28 1100.64 2778.28 1091.26 L2778.28 1089.12 L2768.75 1089.12 M2787.86 1085.17 L2787.86 1118.45 L2778.28 1118.45 L2778.28 1109.59 Q2775 1114.91 2770.1 1117.46 Q2765.21 1119.96 2758.12 1119.96 Q2749.16 1119.96 2743.85 1114.96 Q2738.59 1109.91 2738.59 1101.47 Q2738.59 1091.62 2745.15 1086.62 Q2751.77 1081.62 2764.84 1081.62 L2778.28 1081.62 L2778.28 1080.69 Q2778.28 1074.07 2773.9 1070.48 Q2769.58 1066.83 2761.72 1066.83 Q2756.72 1066.83 2751.98 1068.03 Q2747.24 1069.23 2742.86 1071.62 L2742.86 1062.77 Q2748.12 1060.74 2753.07 1059.75 Q2758.02 1058.71 2762.71 1058.71 Q2775.36 1058.71 2781.61 1065.27 Q2787.86 1071.83 2787.86 1085.17 Z" fill="#000000" fill-rule="nonzero" fill-opacity="1" /><path clip-path="url(#clip450)" d="M2831.87 1123.86 Q2827.81 1134.28 2823.96 1137.46 Q2820.1 1140.63 2813.64 1140.63 L2805.99 1140.63 L2805.99 1132.61 L2811.61 1132.61 Q2815.57 1132.61 2817.76 1130.74 Q2819.94 1128.86 2822.6 1121.88 L2824.32 1117.51 L2800.73 1060.11 L2810.88 1060.11 L2829.11 1105.74 L2847.34 1060.11 L2857.5 1060.11 L2831.87 1123.86 Z" fill="#000000" fill-rule="nonzero" fill-opacity="1" /><path clip-path="url(#clip450)" d="M2869.22 1037.51 L2877.55 1037.51 Q2885.36 1049.8 2889.22 1061.57 Q2893.12 1073.34 2893.12 1084.96 Q2893.12 1096.62 2889.22 1108.45 Q2885.36 1120.27 2877.55 1132.51 L2869.22 1132.51 Q2876.14 1120.58 2879.53 1108.81 Q2882.97 1096.99 2882.97 1084.96 Q2882.97 1072.93 2879.53 1061.21 Q2876.14 1049.49 2869.22 1037.51 Z" fill="#000000" fill-rule="nonzero" fill-opacity="1" /><polyline clip-path="url(#clip450)" style="stroke:#000000; stroke-linecap:round; stroke-linejoin:round; stroke-width:4; stroke-opacity:1; fill:none" points="467.969,849.455 467.969,47.2441 "/>
<polyline clip-path="url(#clip450)" style="stroke:#000000; stroke-linecap:round; stroke-linejoin:round; stroke-width:4; stroke-opacity:1; fill:none" points="467.969,771.142 486.867,771.142 "/>
<polyline clip-path="url(#clip450)" style="stroke:#000000; stroke-linecap:round; stroke-linejoin:round; stroke-width:4; stroke-opacity:1; fill:none" points="467.969,648.744 486.867,648.744 "/>
<polyline clip-path="url(#clip450)" style="stroke:#000000; stroke-linecap:round; stroke-linejoin:round; stroke-width:4; stroke-opacity:1; fill:none" points="467.969,526.346 486.867,526.346 "/>
<polyline clip-path="url(#clip450)" style="stroke:#000000; stroke-linecap:round; stroke-linejoin:round; stroke-width:4; stroke-opacity:1; fill:none" points="467.969,403.948 486.867,403.948 "/>
<polyline clip-path="url(#clip450)" style="stroke:#000000; stroke-linecap:round; stroke-linejoin:round; stroke-width:4; stroke-opacity:1; fill:none" points="467.969,281.55 486.867,281.55 "/>
<polyline clip-path="url(#clip450)" style="stroke:#000000; stroke-linecap:round; stroke-linejoin:round; stroke-width:4; stroke-opacity:1; fill:none" points="467.969,159.152 486.867,159.152 "/>
<path clip-path="url(#clip450)" d="M212.22 772.045 L271.572 772.045 L271.572 779.915 L212.22 779.915 L212.22 772.045 Z" fill="#000000" fill-rule="nonzero" fill-opacity="1" /><path clip-path="url(#clip450)" d="M317.451 744.73 L293.84 781.628 L317.451 781.628 L317.451 744.73 M314.998 736.582 L326.757 736.582 L326.757 781.628 L336.618 781.628 L336.618 789.406 L326.757 789.406 L326.757 805.702 L317.451 805.702 L317.451 789.406 L286.248 789.406 L286.248 780.378 L314.998 736.582 Z" fill="#000000" fill-rule="nonzero" fill-opacity="1" /><path clip-path="url(#clip450)" d="M372.081 742.74 Q364.859 742.74 361.201 749.869 Q357.59 756.952 357.59 771.212 Q357.59 785.425 361.201 792.554 Q364.859 799.637 372.081 799.637 Q379.349 799.637 382.96 792.554 Q386.618 785.425 386.618 771.212 Q386.618 756.952 382.96 749.869 Q379.349 742.74 372.081 742.74 M372.081 735.332 Q383.701 735.332 389.812 744.545 Q395.969 753.712 395.969 771.212 Q395.969 788.665 389.812 797.878 Q383.701 807.045 372.081 807.045 Q360.46 807.045 354.303 797.878 Q348.192 788.665 348.192 771.212 Q348.192 753.712 354.303 744.545 Q360.46 735.332 372.081 735.332 Z" fill="#000000" fill-rule="nonzero" fill-opacity="1" /><path clip-path="url(#clip450)" d="M212.22 649.647 L271.572 649.647 L271.572 657.517 L212.22 657.517 L212.22 649.647 Z" fill="#000000" fill-rule="nonzero" fill-opacity="1" /><path clip-path="url(#clip450)" d="M320.09 646.036 Q326.803 647.471 330.553 652.008 Q334.349 656.545 334.349 663.212 Q334.349 673.443 327.312 679.045 Q320.275 684.647 307.313 684.647 Q302.961 684.647 298.331 683.767 Q293.748 682.934 288.84 681.221 L288.84 672.193 Q292.729 674.462 297.359 675.619 Q301.989 676.776 307.035 676.776 Q315.831 676.776 320.414 673.304 Q325.044 669.832 325.044 663.212 Q325.044 657.101 320.738 653.675 Q316.479 650.203 308.84 650.203 L300.785 650.203 L300.785 642.517 L309.211 642.517 Q316.109 642.517 319.766 639.786 Q323.424 637.008 323.424 631.823 Q323.424 626.499 319.627 623.675 Q315.877 620.805 308.84 620.805 Q304.998 620.805 300.6 621.638 Q296.202 622.471 290.924 624.23 L290.924 615.897 Q296.248 614.416 300.877 613.675 Q305.553 612.934 309.674 612.934 Q320.322 612.934 326.525 617.795 Q332.729 622.61 332.729 630.851 Q332.729 636.591 329.442 640.573 Q326.155 644.508 320.09 646.036 Z" fill="#000000" fill-rule="nonzero" fill-opacity="1" /><path clip-path="url(#clip450)" d="M372.081 620.342 Q364.859 620.342 361.201 627.471 Q357.59 634.554 357.59 648.814 Q357.59 663.027 361.201 670.156 Q364.859 677.239 372.081 677.239 Q379.349 677.239 382.96 670.156 Q386.618 663.027 386.618 648.814 Q386.618 634.554 382.96 627.471 Q379.349 620.342 372.081 620.342 M372.081 612.934 Q383.701 612.934 389.812 622.147 Q395.969 631.314 395.969 648.814 Q395.969 666.267 389.812 675.48 Q383.701 684.647 372.081 684.647 Q360.46 684.647 354.303 675.48 Q348.192 666.267 348.192 648.814 Q348.192 631.314 354.303 622.147 Q360.46 612.934 372.081 612.934 Z" fill="#000000" fill-rule="nonzero" fill-opacity="1" /><path clip-path="url(#clip450)" d="M212.22 527.249 L271.572 527.249 L271.572 535.119 L212.22 535.119 L212.22 527.249 Z" fill="#000000" fill-rule="nonzero" fill-opacity="1" /><path clip-path="url(#clip450)" d="M299.813 553.036 L332.451 553.036 L332.451 560.906 L288.563 560.906 L288.563 553.036 Q293.887 547.527 303.053 538.267 Q312.266 528.962 314.627 526.277 Q319.118 521.23 320.877 517.758 Q322.683 514.24 322.683 510.86 Q322.683 505.351 318.794 501.879 Q314.951 498.407 308.748 498.407 Q304.35 498.407 299.442 499.934 Q294.581 501.462 289.026 504.564 L289.026 495.119 Q294.674 492.851 299.581 491.694 Q304.488 490.536 308.563 490.536 Q319.303 490.536 325.692 495.907 Q332.081 501.277 332.081 510.258 Q332.081 514.518 330.461 518.36 Q328.887 522.156 324.674 527.342 Q323.516 528.684 317.313 535.119 Q311.109 541.508 299.813 553.036 Z" fill="#000000" fill-rule="nonzero" fill-opacity="1" /><path clip-path="url(#clip450)" d="M372.081 497.944 Q364.859 497.944 361.201 505.073 Q357.59 512.156 357.59 526.416 Q357.59 540.629 361.201 547.758 Q364.859 554.841 372.081 554.841 Q379.349 554.841 382.96 547.758 Q386.618 540.629 386.618 526.416 Q386.618 512.156 382.96 505.073 Q379.349 497.944 372.081 497.944 M372.081 490.536 Q383.701 490.536 389.812 499.749 Q395.969 508.916 395.969 526.416 Q395.969 543.869 389.812 553.082 Q383.701 562.249 372.081 562.249 Q360.46 562.249 354.303 553.082 Q348.192 543.869 348.192 526.416 Q348.192 508.916 354.303 499.749 Q360.46 490.536 372.081 490.536 Z" fill="#000000" fill-rule="nonzero" fill-opacity="1" /><path clip-path="url(#clip450)" d="M212.22 404.851 L271.572 404.851 L271.572 412.721 L212.22 412.721 L212.22 404.851 Z" fill="#000000" fill-rule="nonzero" fill-opacity="1" /><path clip-path="url(#clip450)" d="M293.377 430.638 L308.655 430.638 L308.655 377.907 L292.035 381.24 L292.035 372.721 L308.563 369.388 L317.914 369.388 L317.914 430.638 L333.192 430.638 L333.192 438.508 L293.377 438.508 L293.377 430.638 Z" fill="#000000" fill-rule="nonzero" fill-opacity="1" /><path clip-path="url(#clip450)" d="M372.081 375.546 Q364.859 375.546 361.201 382.675 Q357.59 389.758 357.59 404.018 Q357.59 418.231 361.201 425.36 Q364.859 432.443 372.081 432.443 Q379.349 432.443 382.96 425.36 Q386.618 418.231 386.618 404.018 Q386.618 389.758 382.96 382.675 Q379.349 375.546 372.081 375.546 M372.081 368.138 Q383.701 368.138 389.812 377.351 Q395.969 386.518 395.969 404.018 Q395.969 421.471 389.812 430.684 Q383.701 439.851 372.081 439.851 Q360.46 439.851 354.303 430.684 Q348.192 421.471 348.192 404.018 Q348.192 386.518 354.303 377.351 Q360.46 368.138 372.081 368.138 Z" fill="#000000" fill-rule="nonzero" fill-opacity="1" /><path clip-path="url(#clip450)" d="M372.081 253.148 Q364.859 253.148 361.201 260.277 Q357.59 267.36 357.59 281.62 Q357.59 295.832 361.201 302.962 Q364.859 310.045 372.081 310.045 Q379.349 310.045 382.96 302.962 Q386.618 295.832 386.618 281.62 Q386.618 267.36 382.96 260.277 Q379.349 253.148 372.081 253.148 M372.081 245.74 Q383.701 245.74 389.812 254.953 Q395.969 264.12 395.969 281.62 Q395.969 299.073 389.812 308.286 Q383.701 317.453 372.081 317.453 Q360.46 317.453 354.303 308.286 Q348.192 299.073 348.192 281.62 Q348.192 264.12 354.303 254.953 Q360.46 245.74 372.081 245.74 Z" fill="#000000" fill-rule="nonzero" fill-opacity="1" /><path clip-path="url(#clip450)" d="M293.377 185.842 L308.655 185.842 L308.655 133.111 L292.035 136.444 L292.035 127.925 L308.563 124.592 L317.914 124.592 L317.914 185.842 L333.192 185.842 L333.192 193.712 L293.377 193.712 L293.377 185.842 Z" fill="#000000" fill-rule="nonzero" fill-opacity="1" /><path clip-path="url(#clip450)" d="M372.081 130.75 Q364.859 130.75 361.201 137.879 Q357.59 144.962 357.59 159.222 Q357.59 173.434 361.201 180.564 Q364.859 187.647 372.081 187.647 Q379.349 187.647 382.96 180.564 Q386.618 173.434 386.618 159.222 Q386.618 144.962 382.96 137.879 Q379.349 130.75 372.081 130.75 M372.081 123.342 Q383.701 123.342 389.812 132.555 Q395.969 141.722 395.969 159.222 Q395.969 176.675 389.812 185.888 Q383.701 195.055 372.081 195.055 Q360.46 195.055 354.303 185.888 Q348.192 176.675 348.192 159.222 Q348.192 141.722 354.303 132.555 Q360.46 123.342 372.081 123.342 Z" fill="#000000" fill-rule="nonzero" fill-opacity="1" /><path clip-path="url(#clip452)" d="M589.237 246.953 L606.08 312.535 L622.922 361.825 L639.765 398.468 L656.608 424.421 L673.451 441.262 L690.293 442.354 L707.136 433.053 L723.979 409.387 L740.821 386.082 L757.664 380.448 L774.507 385.658 L791.35 396.893 L808.192 413.426 L825.035 430.271 L841.878 445.693 L858.72 456.883 L875.563 467.841 L892.406 478.778 L909.249 494.878 L926.091 513.401 L942.934 532.211 L959.777 546.224 L976.619 556.451 L993.462 566.812 L1010.3 586.341 L1027.15 605.119 L1043.99 621.996 L1060.83 634.527 L1077.68 641.628 L1094.52 635.194 L1111.36 619.245 L1128.2 588.735 L1145.05 558.243 L1161.89 545.789 L1178.73 544.09 L1195.57 549.078 L1212.42 558.944 L1229.26 569.567 L1246.1 578.709 L1262.95 583.698 L1279.79 587.534 L1296.63 591.98 L1313.47 603.084 L1330.32 617.074 L1347.16 632.315 L1364 643.181 L1380.84 650.612 L1397.69 658.551 L1414.53 676.149 L1431.37 693.449 L1448.22 709.16 L1465.06 720.675 L1481.9 727.256 L1498.74 720.123 L1515.59 702.927 L1532.43 670.634 L1549.27 637.291 L1566.11 621.143 L1582.96 615.811 L1599.8 616.899 L1616.64 623.326 L1633.49 630.542 L1650.33 636.348 L1667.17 637.888 L1684.01 639.171 L1700.86 640.042 L1717.7 648.441 L1734.54 660.335 L1751.38 674.009 L1768.23 683.483 L1785.07 689.59 L1801.91 696.451 L1818.76 713.261 L1835.6 729.965 L1852.44 745.215 L1869.28 756.434 L1886.13 762.706 L1902.97 755.321 L1919.81 737.853 L1936.65 705.195 L1953.5 671.899 L1970.34 654.723 L1987.18 647.733 L2004.02 647.15 L2020.87 651.55 L2037.71 657.033 L2054.55 661.226 L2071.4 661.632 L2088.24 661.273 L2105.08 661.861 L2121.92 669.123 L2138.77 680.146 L2155.61 693.241 L2172.45 702.318 L2189.29 707.968 L2206.14 714.871 L2222.98 731.993 L2239.82 749.514 L2256.67 766.096 L2273.51 779.038 L2290.35 787.04 L2307.19 781.211 L2324.04 764.961 L2340.88 733.021 L2357.72 699.105 L2374.56 681.148 L2391.41 673.319 L2408.25 671.885 L2425.09 675.445 L2441.94 680.256 L2458.78 683.821 L2475.62 683.109 L2492.46 682.055 L2509.31 681.572 L2526.15 688.251 L2542.99 698.975 L2559.83 711.779 L2576.68 720.462 L2593.52 726.108 L2610.36 732.737 L2627.21 749.666 L2644.05 767.044 L2660.89 783.52 L2677.73 796.37 L2694.58 804.296 L2711.42 798.328 L2728.26 781.906 L2745.1 749.688 L2761.95 715.35 L2778.79 696.866 L2795.63 688.469 L2812.48 686.536 L2829.32 689.637 L2846.16 693.924 L2863 696.953 L2879.85 695.653 L2896.69 694.042 L2913.53 693.06 L2930.37 699.325 L2947.22 709.636 L2964.06 722.177 L2980.9 730.508 L2997.75 735.901 L3014.59 742.38 L3031.43 759.196 L3048.27 776.495 L3065.12 792.898 L3081.96 805.691 L3098.8 813.563 L3115.64 807.537 L3132.49 791.032 L3149.33 758.681 L3166.17 724.093 L3183.01 705.367 L3199.86 696.721 L3216.7 694.483 L3233.54 697.311 L3250.39 701.305 L3267.23 704.015 L3284.07 702.434 L3300.91 700.547 L3317.76 699.338 L3334.6 705.242 L3351.44 715.299 L3368.28 727.615 L3385.13 735.943 L3401.97 741.334 L3418.81 747.783 L3435.66 764.63 L3452.5 781.973 L3469.34 798.427 L3486.18 811.258 L3503.03 819.15 L3519.87 813.167 L3536.71 796.71 L3553.55 764.385 L3570.4 729.774 L3587.24 710.967 L3604.08 702.223 L3620.93 699.885 L3637.77 702.607 L3654.61 706.492 L3671.45 709.088 L3688.3 707.371 L3705.14 705.342 L3721.98 703.98 L3738.82 709.842 L3755.67 719.898 L3772.51 732.206 L3789.35 740.535 L3806.2 745.938 L3823.04 752.389 L3839.88 769.148 L3856.72 786.418 L3873.57 802.811 L3890.41 815.582 L3907.25 823.438 L3924.09 817.407 L3940.94 800.874 L3957.78 768.45 L3974.62 733.701 L3991.47 714.701 L4008.31 705.781 L4025.15 703.301 L4041.99 705.879 L4058.84 709.737 L4075.68 712.365 L4092.52 710.7 L4109.36 708.748 L4126.21 707.462 L4143.05 713.306 L4159.89 723.372 L4176.74 735.685 L4193.58 744 L4210.42 749.363 L4227.26 755.764 L4244.11 772.524 L4260.95 789.778 L4277.79 806.153 L4294.63 818.916 L4311.48 826.751 L4328.32 820.647 L4345.16 804.076 L4362 771.59 L4378.85 736.76 L4395.69 717.651 L4412.53 708.619 L4429.38 706.015 L4446.22 708.496 L4463.06 712.28 L4479.9 714.836 L4496.75 713.102 L4513.59 711.08 L4530.43 709.756 L4547.27 715.602 L4564.12 725.618 L4580.96 737.923 L4597.8 746.105 L4614.65 751.385 L4631.49 757.773 L4631.49 93.9199 L4614.65 104.065 L4597.8 122.955 L4580.96 141.138 L4564.12 152.293 L4547.27 157.664 L4530.43 161.99 L4513.59 161.458 L4496.75 154.831 L4479.9 143.707 L4463.06 127.913 L4446.22 112.739 L4429.38 103.491 L4412.53 103.26 L4395.69 110.122 L4378.85 125.428 L4362 153.352 L4345.16 180.092 L4328.32 191.804 L4311.48 188.343 L4294.63 169.469 L4277.79 145.82 L4260.95 121.392 L4244.11 102.229 L4227.26 93.4663 L4210.42 103.636 L4193.58 122.474 L4176.74 140.529 L4159.89 151.571 L4143.05 157.284 L4126.21 161.515 L4109.36 160.851 L4092.52 154.474 L4075.68 143.294 L4058.84 127.466 L4041.99 112.382 L4025.15 102.477 L4008.31 102.504 L3991.47 109.189 L3974.62 124.445 L3957.78 152.123 L3940.94 179.54 L3924.09 191.19 L3907.25 187.719 L3890.41 168.814 L3873.57 145.131 L3856.72 120.674 L3839.88 101.492 L3823.04 92.6978 L3806.2 102.885 L3789.35 121.724 L3772.51 139.766 L3755.67 150.792 L3738.82 156.494 L3721.98 160.626 L3705.14 160.357 L3688.3 153.7 L3671.45 142.386 L3654.61 126.433 L3637.77 111.116 L3620.93 101.184 L3604.08 101.153 L3587.24 108.9 L3570.4 123.362 L3553.55 151.797 L3536.71 178.605 L3519.87 190.27 L3503.03 186.896 L3486.18 168.053 L3469.34 144.409 L3452.5 120.007 L3435.66 100.869 L3418.81 92.0909 L3401.97 102.232 L3385.13 121.017 L3368.28 139.053 L3351.44 149.892 L3334.6 155.317 L3317.76 159.514 L3300.91 159.327 L3284.07 152.566 L3267.23 141.118 L3250.39 125.032 L3233.54 109.497 L3216.7 99.7595 L3199.86 99.7155 L3183.01 107.494 L3166.17 123.042 L3149.33 150.593 L3132.49 177.24 L3115.64 189.219 L3098.8 185.905 L3081.96 167.096 L3065.12 143.478 L3048.27 119.074 L3031.43 99.9335 L3014.59 91.1493 L2997.75 101.315 L2980.9 120.089 L2964.06 138.028 L2947.22 148.737 L2930.37 154.226 L2913.53 158.492 L2896.69 158.208 L2879.85 151.26 L2863 139.744 L2846.16 123.722 L2829.32 108.088 L2812.48 98.378 L2795.63 97.9396 L2778.79 105.852 L2761.95 120.846 L2745.1 148.497 L2728.26 174.921 L2711.42 186.831 L2694.58 183.624 L2677.73 164.925 L2660.89 141.413 L2644.05 117.127 L2627.21 98.1023 L2610.36 89.4209 L2593.52 99.6027 L2576.68 118.411 L2559.83 136.366 L2542.99 146.899 L2526.15 152.463 L2509.31 156.752 L2492.46 156.074 L2475.62 149.47 L2458.78 137.921 L2441.94 121.572 L2425.09 105.857 L2408.25 95.1803 L2391.41 94.2659 L2374.56 102.065 L2357.72 117.496 L2340.88 145.312 L2324.04 171.929 L2307.19 183.979 L2290.35 180.883 L2273.51 162.28 L2256.67 138.846 L2239.82 114.633 L2222.98 95.6656 L2206.14 87.0216 L2189.29 97.2655 L2172.45 116.093 L2155.61 134.073 L2138.77 144.122 L2121.92 149.729 L2105.08 154.228 L2088.24 153.413 L2071.4 146.669 L2054.55 134.929 L2037.71 118.416 L2020.87 102.359 L2004.02 92.0203 L1987.18 91.3193 L1970.34 98.4558 L1953.5 113.523 L1936.65 141.062 L1919.81 167.142 L1902.97 179.492 L1886.13 176.521 L1869.28 158.026 L1852.44 134.68 L1835.6 110.552 L1818.76 91.6297 L1801.91 82.8784 L1785.07 93.088 L1768.23 111.809 L1751.38 129.725 L1734.54 139.769 L1717.7 145.416 L1700.86 148.112 L1684.01 149.411 L1667.17 142.18 L1650.33 130.173 L1633.49 113.212 L1616.64 96.6373 L1599.8 85.7626 L1582.96 84.1205 L1566.11 90.6077 L1549.27 104.461 L1532.43 132.971 L1515.59 159.681 L1498.74 172.097 L1481.9 169.388 L1465.06 151.146 L1448.22 127.666 L1431.37 103.452 L1414.53 84.6027 L1397.69 76.1557 L1380.84 86.6357 L1364 105.524 L1347.16 123.187 L1330.32 133.317 L1313.47 139.167 L1296.63 140.003 L1279.79 140.468 L1262.95 136.329 L1246.1 124.045 L1229.26 106.901 L1212.42 89.9481 L1195.57 78.5854 L1178.73 76.6284 L1161.89 82.1818 L1145.05 95.6373 L1128.2 121.986 L1111.36 148.345 L1094.52 161.585 L1077.68 159.53 L1060.83 141.945 L1043.99 119.431 L1027.15 95.8844 L1010.3 77.7011 L993.462 69.9482 L976.619 81.1974 L959.777 100.814 L942.934 119.339 L926.091 130.513 L909.249 137.632 L892.406 143.285 L875.563 144.456 L858.72 139.041 L841.878 129.814 L825.035 116.523 L808.192 104.892 L791.35 99.9883 L774.507 106.993 L757.664 124.758 L740.821 151.448 L723.979 186.702 L707.136 219.931 L690.293 237.093 L673.451 239.194 L656.608 226.237 L639.765 209.486 L622.922 189.644 L606.08 177.954 L589.237 180.566  Z" fill="#aeaeae" fill-rule="evenodd" fill-opacity="0.5"/>
<polyline clip-path="url(#clip452)" style="stroke:#aeaeae; stroke-linecap:round; stroke-linejoin:round; stroke-width:0; stroke-opacity:1; fill:none" points="589.237,244.199 606.08,253.121 622.922,263.649 639.765,274.87 656.608,284.684 673.451,291.744 690.293,290.778 707.136,283.25 723.979,267.063 740.821,249.855 757.664,240.402 774.507,235.873 791.35,235.277 808.192,238.461 825.035,243.429 841.878,248.289 858.72,250.806 875.563,251.683 892.406,250.474 909.249,249.73 926.091,249 942.934,247.766 959.777,243.902 976.619,239.27 993.462,237.342 1010.3,243.189 1027.15,252.178 1043.99,262.637 1060.83,272.204 1077.68,279.276 1094.52,278.514 1111.36,271.306 1128.2,256.034 1145.05,240.535 1161.89,233.384 1178.73,231.154 1195.57,232.619 1212.42,237.465 1229.26,243.726 1246.1,249.58 1262.95,252.851 1279.79,254.312 1296.63,253.586 1313.47,253.293 1330.32,252.965 1347.16,252.065 1364,248.517 1380.84,244.201 1397.69,242.566 1414.53,248.713 1431.37,258.011 1448.22,268.781 1465.06,278.664 1481.9,286.028 1498.74,285.539 1515.59,278.554 1532.43,263.259 1549.27,247.503 1566.11,239.89 1582.96,237.205 1599.8,238.221 1616.64,242.729 1633.49,248.702 1650.33,254.329 1667.17,257.401 1684.01,258.746 1700.86,257.957 1717.7,257.654 1734.54,257.306 1751.38,256.403 1768.23,252.875 1785.07,248.604 1801.91,247.021 1818.76,253.239 1835.6,262.625 1852.44,273.497 1869.28,283.485 1886.13,290.96 1902.97,290.572 1919.81,283.645 1936.65,268.308 1953.5,252.363 1970.34,244.426 1987.18,241.389 2004.02,242.116 2020.87,246.357 2037.71,252.104 2054.55,257.552 2071.4,260.48 2088.24,261.705 2105.08,260.865 2121.92,260.524 2138.77,260.162 2155.61,259.252 2172.45,255.732 2189.29,251.46 2206.14,249.907 2222.98,256.161 2239.82,265.594 2256.67,276.525 2273.51,286.567 2290.35,294.102 2307.19,293.77 2324.04,286.865 2340.88,271.506 2357.72,255.43 2374.56,247.304 2391.41,244.066 2408.25,244.591 2425.09,248.655 2441.94,254.273 2458.78,259.609 2475.62,262.456 2492.46,263.613 2509.31,262.713 2526.15,262.363 2542.99,261.993 2559.83,261.086 2576.68,257.576 2593.52,253.327 2610.36,251.792 2627.21,258.071 2644.05,267.536 2660.89,278.504 2677.73,288.581 2694.58,296.16 2711.42,295.858 2728.26,288.977 2745.1,273.606 2761.95,257.455 2778.79,249.198 2795.63,245.818 2812.48,246.218 2829.32,250.18 2846.16,255.709 2863,260.974 2879.85,263.757 2896.69,264.876 2913.53,263.965 2930.37,263.606 2947.22,263.232 2964.06,262.326 2980.9,258.825 2997.75,254.583 3014.59,253.061 3031.43,259.356 3048.27,268.839 3065.12,279.831 3081.96,289.939 3098.8,297.543 3115.64,297.263 3132.49,290.389 3149.33,274.995 3166.17,258.776 3183.01,250.444 3199.86,246.983 3216.7,247.295 3233.54,251.191 3250.39,256.667 3267.23,261.884 3284.07,264.637 3300.91,265.722 3317.76,264.809 3334.6,264.443 3351.44,264.066 3368.28,263.162 3385.13,259.666 3401.97,255.428 3418.81,253.916 3435.66,260.223 3452.5,269.72 3469.34,280.726 3486.18,290.848 3503.03,298.471 3519.87,298.203 3536.71,291.355 3553.55,275.954 3570.4,259.711 3587.24,251.315 3604.08,247.786 3620.93,248.041 3637.77,251.885 3654.61,257.318 3671.45,262.506 3688.3,265.234 3705.14,266.301 3721.98,265.373 3738.82,265.001 3755.67,264.628 3772.51,263.718 3789.35,260.224 3806.2,255.999 3823.04,254.493 3839.88,260.807 3856.72,270.312 3873.57,281.326 3890.41,291.456 3907.25,299.093 3924.09,298.837 3940.94,291.994 3957.78,276.595 3974.62,260.318 3991.47,251.877 4008.31,248.304 4025.15,248.534 4041.99,252.349 4058.84,257.755 4075.68,262.917 4092.52,265.625 4109.36,266.69 4126.21,265.754 4143.05,265.37 4159.89,264.999 4176.74,264.099 4193.58,260.612 4210.42,256.396 4227.26,254.895 4244.11,261.213 4260.95,270.723 4277.79,281.739 4294.63,291.871 4311.48,299.51 4328.32,299.263 4345.16,292.419 4362,277.009 4378.85,260.75 4395.69,252.285 4412.53,248.684 4429.38,248.867 4446.22,252.652 4463.06,258.043 4479.9,263.194 4496.75,265.892 4513.59,266.946 4530.43,266.022 4547.27,265.645 4564.12,265.283 4580.96,264.381 4597.8,260.9 4614.65,256.679 4631.49,255.182 "/>
<path clip-path="url(#clip452)" d="M589.237 225.813 L606.08 267.635 L622.922 301.834 L639.765 329.202 L656.608 350.346 L673.451 364.887 L690.293 365.595 L707.136 354.239 L723.979 326.758 L740.821 297.08 L757.664 284.549 L774.507 283.134 L791.35 286.801 L808.192 297.192 L825.035 307.605 L841.878 316.278 L858.72 318.368 L875.563 318.486 L892.406 316.714 L909.249 320.388 L926.091 326.436 L942.934 334.761 L959.777 337.744 L976.619 339.42 L993.462 344.604 L1010.3 358.85 L1027.15 374.33 L1043.99 390.905 L1060.83 404.833 L1077.68 412.437 L1094.52 406.615 L1111.36 391.69 L1128.2 360.066 L1145.05 328.585 L1161.89 316.563 L1178.73 314.155 L1195.57 316.254 L1212.42 323.777 L1229.26 330.277 L1246.1 336.551 L1262.95 338.652 L1279.79 339.556 L1296.63 339.009 L1313.47 343.051 L1330.32 348.39 L1347.16 355.723 L1364 358.376 L1380.84 358.526 L1397.69 362.725 L1414.53 378.948 L1431.37 396.105 L1448.22 412.007 L1465.06 427.227 L1481.9 435.453 L1498.74 430.323 L1515.59 415.317 L1532.43 384.489 L1549.27 351.677 L1566.11 336.809 L1582.96 332.781 L1599.8 336.006 L1616.64 342.813 L1633.49 349.766 L1650.33 353.573 L1667.17 354.466 L1684.01 353.872 L1700.86 352.253 L1717.7 355.809 L1734.54 359.41 L1751.38 364.4 L1768.23 370.277 L1785.07 373.043 L1801.91 376.376 L1818.76 391.383 L1835.6 408.554 L1852.44 426.044 L1869.28 441.232 L1886.13 451.139 L1902.97 445.684 L1919.81 431.908 L1936.65 401.847 L1953.5 369.815 L1970.34 352.161 L1987.18 346.888 L2004.02 348.265 L2020.87 353.086 L2037.71 359.791 L2054.55 364.078 L2071.4 363.656 L2088.24 361.563 L2105.08 358.443 L2121.92 361.433 L2138.77 368.169 L2155.61 376.377 L2172.45 380.473 L2189.29 381.473 L2206.14 385.168 L2222.98 400.518 L2239.82 417.33 L2256.67 433.949 L2273.51 447.649 L2290.35 457.59 L2307.19 454.945 L2324.04 441.679 L2340.88 410.585 L2357.72 377.623 L2374.56 360.774 L2391.41 354.925 L2408.25 355.797 L2425.09 361.139 L2441.94 366.26 L2458.78 370.126 L2475.62 369.401 L2492.46 367.524 L2509.31 364.179 L2526.15 367.826 L2542.99 373.545 L2559.83 381.391 L2576.68 385.58 L2593.52 387.237 L2610.36 391.344 L2627.21 406.42 L2644.05 422.828 L2660.89 439.196 L2677.73 452.041 L2694.58 463.722 L2711.42 460.783 L2728.26 446.267 L2745.1 415.557 L2761.95 383.322 L2778.79 366.149 L2795.63 360.217 L2812.48 361.47 L2829.32 366.167 L2846.16 370.026 L2863 373.466 L2879.85 373.317 L2896.69 371.702 L2913.53 370.081 L2930.37 372.239 L2947.22 376.513 L2964.06 385.021 L2980.9 389.416 L2997.75 391.158 L3014.59 395.377 L3031.43 410.315 L3048.27 426.64 L3065.12 441.862 L3081.96 455.683 L3098.8 468.147 L3115.64 464.009 L3132.49 449.198 L3149.33 418.023 L3166.17 386.441 L3183.01 369.498 L3199.86 362.617 L3216.7 363.653 L3233.54 369.301 L3250.39 373.865 L3267.23 377.196 L3284.07 376.343 L3300.91 375.15 L3317.76 373.209 L3334.6 375.366 L3351.44 379.75 L3368.28 387.454 L3385.13 391.603 L3401.97 393.375 L3418.81 397.673 L3435.66 412.315 L3452.5 427.955 L3469.34 443.244 L3486.18 459.604 L3503.03 470.214 L3519.87 466.174 L3536.71 450.971 L3553.55 419.222 L3570.4 388.219 L3587.24 371.227 L3604.08 364.223 L3620.93 365.314 L3637.77 371.036 L3654.61 375.884 L3671.45 379.949 L3688.3 378.36 L3705.14 377.11 L3721.98 375.161 L3738.82 377.954 L3755.67 382.22 L3772.51 388.943 L3789.35 392.452 L3806.2 394.009 L3823.04 398.335 L3839.88 412.988 L3856.72 428.654 L3873.57 445.177 L3890.41 461.624 L3907.25 471.606 L3924.09 467.737 L3940.94 452.412 L3957.78 421.04 L3974.62 389.081 L3991.47 372.878 L4008.31 365.76 L4025.15 366.059 L4041.99 371.658 L4058.84 376.979 L4075.68 381.044 L4092.52 380.341 L4109.36 378.785 L4126.21 376.556 L4143.05 378.89 L4159.89 384.288 L4176.74 390.773 L4193.58 393.846 L4210.42 395.29 L4227.26 399.668 L4244.11 414.324 L4260.95 430.009 L4277.79 447.568 L4294.63 462.729 L4311.48 472.447 L4328.32 468.345 L4345.16 452.32 L4362 420.781 L4378.85 389.255 L4395.69 373.461 L4412.53 366.179 L4429.38 366.657 L4446.22 371.78 L4463.06 377.782 L4479.9 381.581 L4496.75 381.593 L4513.59 379.762 L4530.43 377.469 L4547.27 379.479 L4564.12 385.443 L4580.96 391.975 L4597.8 394.072 L4614.65 395.523 L4631.49 399.724 L4631.49 118.405 L4614.65 128.538 L4597.8 147.09 L4580.96 163.531 L4564.12 173.281 L4547.27 179.033 L4530.43 182.015 L4513.59 182.932 L4496.75 178.327 L4479.9 167.601 L4463.06 151.657 L4446.22 136.19 L4429.38 127.697 L4412.53 128.393 L4395.69 136.671 L4378.85 151.614 L4362 180.086 L4345.16 207.86 L4328.32 220.282 L4311.48 217.244 L4294.63 198.646 L4277.79 173.795 L4260.95 148.03 L4244.11 127.437 L4227.26 117.62 L4210.42 127.743 L4193.58 146.257 L4176.74 162.984 L4159.89 172.546 L4143.05 178.775 L4126.21 181.9 L4109.36 182.497 L4092.52 177.745 L4075.68 167.298 L4058.84 151.424 L4041.99 135.818 L4025.15 127.057 L4008.31 127.905 L3991.47 136.032 L3974.62 150.98 L3957.78 179.297 L3940.94 207.335 L3924.09 219.594 L3907.25 216.684 L3890.41 198.288 L3873.57 173.162 L3856.72 147.377 L3839.88 126.996 L3823.04 116.995 L3806.2 127.209 L3789.35 145.462 L3772.51 162.437 L3755.67 172.112 L3738.82 178.081 L3721.98 181.37 L3705.14 182.002 L3688.3 177.129 L3671.45 166.784 L3654.61 150.656 L3637.77 135.11 L3620.93 126.242 L3604.08 127.384 L3587.24 135.172 L3570.4 149.877 L3553.55 178.153 L3536.71 206.639 L3519.87 218.375 L3503.03 215.395 L3486.18 197.169 L3469.34 172.153 L3452.5 146.451 L3435.66 125.99 L3418.81 116.057 L3401.97 126.17 L3385.13 144.532 L3368.28 161.699 L3351.44 171.407 L3334.6 177.425 L3317.76 180.112 L3300.91 181.072 L3284.07 176.229 L3267.23 165.994 L3250.39 149.999 L3233.54 134.051 L3216.7 125.065 L3199.86 125.841 L3183.01 134.034 L3166.17 148.478 L3149.33 176.863 L3132.49 205.247 L3115.64 216.719 L3098.8 213.93 L3081.96 195.719 L3065.12 170.722 L3048.27 145.366 L3031.43 124.682 L3014.59 114.748 L2997.75 124.917 L2980.9 142.994 L2964.06 160.485 L2947.22 170.391 L2930.37 175.785 L2913.53 178.73 L2896.69 179.855 L2879.85 175.132 L2863 164.359 L2846.16 148.546 L2829.32 133.009 L2812.48 123.996 L2795.63 123.993 L2778.79 131.865 L2761.95 146.928 L2745.1 174.85 L2728.26 203.173 L2711.42 214.519 L2694.58 211.884 L2677.73 193.481 L2660.89 168.498 L2644.05 143.432 L2627.21 122.562 L2610.36 112.826 L2593.52 123 L2576.68 140.932 L2559.83 158.481 L2542.99 168.813 L2526.15 173.665 L2509.31 176.63 L2492.46 178.382 L2475.62 173.29 L2458.78 162.53 L2441.94 146.728 L2425.09 131.388 L2408.25 122.023 L2391.41 121.105 L2374.56 129.046 L2357.72 143.935 L2340.88 171.68 L2324.04 199.491 L2307.19 211.436 L2290.35 208.807 L2273.51 190.452 L2256.67 165.35 L2239.82 140.339 L2222.98 119.64 L2206.14 109.931 L2189.29 120.187 L2172.45 138.19 L2155.61 155.504 L2138.77 165.892 L2121.92 170.434 L2105.08 173.167 L2088.24 175.047 L2071.4 170.219 L2054.55 159.947 L2037.71 143.68 L2020.87 128.37 L2004.02 118.025 L1987.18 117.442 L1970.34 124.317 L1953.5 139.022 L1936.65 166.66 L1919.81 194.048 L1902.97 206.098 L1886.13 203.864 L1869.28 185.21 L1852.44 161.221 L1835.6 135.522 L1818.76 114.757 L1801.91 105.235 L1785.07 115.835 L1768.23 134.146 L1751.38 151.056 L1734.54 161.17 L1717.7 165.335 L1700.86 168.921 L1684.01 170.818 L1667.17 165.531 L1650.33 154.976 L1633.49 139.547 L1616.64 123.592 L1599.8 112.929 L1582.96 111.654 L1566.11 117.809 L1549.27 131.465 L1532.43 158.413 L1515.59 186.554 L1498.74 198.26 L1481.9 195.855 L1465.06 177.763 L1448.22 154.076 L1431.37 128.283 L1414.53 107.543 L1397.69 98.4839 L1380.84 109.251 L1364 127.696 L1347.16 144.37 L1330.32 153.412 L1313.47 158.641 L1296.63 162.508 L1279.79 164.212 L1262.95 159.334 L1246.1 149.342 L1229.26 133.273 L1212.42 116.573 L1195.57 105.846 L1178.73 103.354 L1161.89 109.099 L1145.05 121.879 L1128.2 148.462 L1111.36 176.52 L1094.52 189.414 L1077.68 187.539 L1060.83 169.576 L1043.99 146.036 L1027.15 121.105 L1010.3 100.683 L993.462 92.1763 L976.619 103.98 L959.777 124.125 L942.934 142.063 L926.091 153.662 L909.249 158.914 L892.406 163.02 L875.563 164.901 L858.72 161.255 L841.878 153.719 L825.035 139.761 L808.192 126.892 L791.35 121.195 L774.507 128.392 L757.664 144.912 L740.821 169.604 L723.979 205.55 L707.136 238.598 L690.293 255.691 L673.451 257.941 L656.608 244.157 L639.765 224.323 L622.922 204.353 L606.08 191.574 L589.237 190.101  Z" fill="#757575" fill-rule="evenodd" fill-opacity="0.5"/>
<polyline clip-path="url(#clip452)" style="stroke:#757575; stroke-linecap:round; stroke-linejoin:round; stroke-width:0; stroke-opacity:1; fill:none" points="589.237,244.199 606.08,253.121 622.922,263.649 639.765,274.87 656.608,284.684 673.451,291.744 690.293,290.778 707.136,283.25 723.979,267.063 740.821,249.855 757.664,240.402 774.507,235.873 791.35,235.277 808.192,238.461 825.035,243.429 841.878,248.289 858.72,250.806 875.563,251.683 892.406,250.474 909.249,249.73 926.091,249 942.934,247.766 959.777,243.902 976.619,239.27 993.462,237.342 1010.3,243.189 1027.15,252.178 1043.99,262.637 1060.83,272.204 1077.68,279.276 1094.52,278.514 1111.36,271.306 1128.2,256.034 1145.05,240.535 1161.89,233.384 1178.73,231.154 1195.57,232.619 1212.42,237.465 1229.26,243.726 1246.1,249.58 1262.95,252.851 1279.79,254.312 1296.63,253.586 1313.47,253.293 1330.32,252.965 1347.16,252.065 1364,248.517 1380.84,244.201 1397.69,242.566 1414.53,248.713 1431.37,258.011 1448.22,268.781 1465.06,278.664 1481.9,286.028 1498.74,285.539 1515.59,278.554 1532.43,263.259 1549.27,247.503 1566.11,239.89 1582.96,237.205 1599.8,238.221 1616.64,242.729 1633.49,248.702 1650.33,254.329 1667.17,257.401 1684.01,258.746 1700.86,257.957 1717.7,257.654 1734.54,257.306 1751.38,256.403 1768.23,252.875 1785.07,248.604 1801.91,247.021 1818.76,253.239 1835.6,262.625 1852.44,273.497 1869.28,283.485 1886.13,290.96 1902.97,290.572 1919.81,283.645 1936.65,268.308 1953.5,252.363 1970.34,244.426 1987.18,241.389 2004.02,242.116 2020.87,246.357 2037.71,252.104 2054.55,257.552 2071.4,260.48 2088.24,261.705 2105.08,260.865 2121.92,260.524 2138.77,260.162 2155.61,259.252 2172.45,255.732 2189.29,251.46 2206.14,249.907 2222.98,256.161 2239.82,265.594 2256.67,276.525 2273.51,286.567 2290.35,294.102 2307.19,293.77 2324.04,286.865 2340.88,271.506 2357.72,255.43 2374.56,247.304 2391.41,244.066 2408.25,244.591 2425.09,248.655 2441.94,254.273 2458.78,259.609 2475.62,262.456 2492.46,263.613 2509.31,262.713 2526.15,262.363 2542.99,261.993 2559.83,261.086 2576.68,257.576 2593.52,253.327 2610.36,251.792 2627.21,258.071 2644.05,267.536 2660.89,278.504 2677.73,288.581 2694.58,296.16 2711.42,295.858 2728.26,288.977 2745.1,273.606 2761.95,257.455 2778.79,249.198 2795.63,245.818 2812.48,246.218 2829.32,250.18 2846.16,255.709 2863,260.974 2879.85,263.757 2896.69,264.876 2913.53,263.965 2930.37,263.606 2947.22,263.232 2964.06,262.326 2980.9,258.825 2997.75,254.583 3014.59,253.061 3031.43,259.356 3048.27,268.839 3065.12,279.831 3081.96,289.939 3098.8,297.543 3115.64,297.263 3132.49,290.389 3149.33,274.995 3166.17,258.776 3183.01,250.444 3199.86,246.983 3216.7,247.295 3233.54,251.191 3250.39,256.667 3267.23,261.884 3284.07,264.637 3300.91,265.722 3317.76,264.809 3334.6,264.443 3351.44,264.066 3368.28,263.162 3385.13,259.666 3401.97,255.428 3418.81,253.916 3435.66,260.223 3452.5,269.72 3469.34,280.726 3486.18,290.848 3503.03,298.471 3519.87,298.203 3536.71,291.355 3553.55,275.954 3570.4,259.711 3587.24,251.315 3604.08,247.786 3620.93,248.041 3637.77,251.885 3654.61,257.318 3671.45,262.506 3688.3,265.234 3705.14,266.301 3721.98,265.373 3738.82,265.001 3755.67,264.628 3772.51,263.718 3789.35,260.224 3806.2,255.999 3823.04,254.493 3839.88,260.807 3856.72,270.312 3873.57,281.326 3890.41,291.456 3907.25,299.093 3924.09,298.837 3940.94,291.994 3957.78,276.595 3974.62,260.318 3991.47,251.877 4008.31,248.304 4025.15,248.534 4041.99,252.349 4058.84,257.755 4075.68,262.917 4092.52,265.625 4109.36,266.69 4126.21,265.754 4143.05,265.37 4159.89,264.999 4176.74,264.099 4193.58,260.612 4210.42,256.396 4227.26,254.895 4244.11,261.213 4260.95,270.723 4277.79,281.739 4294.63,291.871 4311.48,299.51 4328.32,299.263 4345.16,292.419 4362,277.009 4378.85,260.75 4395.69,252.285 4412.53,248.684 4429.38,248.867 4446.22,252.652 4463.06,258.043 4479.9,263.194 4496.75,265.892 4513.59,266.946 4530.43,266.022 4547.27,265.645 4564.12,265.283 4580.96,264.381 4597.8,260.9 4614.65,256.679 4631.49,255.182 "/>
<path clip-path="url(#clip452)" d="M589.237 220.249 L606.08 255.395 L622.922 284.309 L639.765 310.619 L656.608 331.071 L673.451 347.031 L690.293 346.23 L707.136 332.945 L723.979 303.731 L740.821 272.415 L757.664 256.364 L774.507 251.751 L791.35 254.654 L808.192 263.166 L825.035 271.526 L841.878 277.545 L858.72 279.33 L875.563 278.141 L892.406 276.757 L909.249 280.394 L926.091 286.67 L942.934 291.457 L959.777 295.238 L976.619 297.625 L993.462 302.432 L1010.3 315.159 L1027.15 330.737 L1043.99 346.798 L1060.83 360.278 L1077.68 371.063 L1094.52 365.612 L1111.36 350.872 L1128.2 318.614 L1145.05 285.739 L1161.89 273.289 L1178.73 269.156 L1195.57 269.875 L1212.42 277.829 L1229.26 285.755 L1246.1 293.37 L1262.95 294.616 L1279.79 294.483 L1296.63 292.05 L1313.47 294.97 L1330.32 301.146 L1347.16 306.639 L1364 309.881 L1380.84 313.181 L1397.69 317.424 L1414.53 332.126 L1431.37 348.133 L1448.22 363.632 L1465.06 377.731 L1481.9 389.157 L1498.74 384.446 L1515.59 367.682 L1532.43 336.284 L1549.27 301.769 L1566.11 287.988 L1582.96 283.256 L1599.8 285.616 L1616.64 291.648 L1633.49 297.981 L1650.33 303.44 L1667.17 305.324 L1684.01 306.643 L1700.86 304.189 L1717.7 305.42 L1734.54 309.897 L1751.38 317.427 L1768.23 320.989 L1785.07 323.13 L1801.91 327.378 L1818.76 342.954 L1835.6 358.619 L1852.44 375.918 L1869.28 389.628 L1886.13 400.187 L1902.97 396.673 L1919.81 380.719 L1936.65 350.092 L1953.5 314.483 L1970.34 299.383 L1987.18 294.52 L2004.02 296.826 L2020.87 302.876 L2037.71 309.527 L2054.55 314.988 L2071.4 315.081 L2088.24 313.402 L2105.08 311.507 L2121.92 314.554 L2138.77 318.998 L2155.61 325.47 L2172.45 329.153 L2189.29 330.484 L2206.14 334.863 L2222.98 349.267 L2239.82 365.125 L2256.67 383.119 L2273.51 396.657 L2290.35 407.443 L2307.19 403.741 L2324.04 388.068 L2340.88 356.487 L2357.72 323.207 L2374.56 306.974 L2391.41 301.562 L2408.25 304.563 L2425.09 310.386 L2441.94 316.738 L2458.78 321.135 L2475.62 321.142 L2492.46 319.506 L2509.31 316.691 L2526.15 319.463 L2542.99 323.853 L2559.83 330.377 L2576.68 333.342 L2593.52 334.478 L2610.36 338.139 L2627.21 352.868 L2644.05 369.702 L2660.89 387.04 L2677.73 400.976 L2694.58 412.101 L2711.42 408.811 L2728.26 393.855 L2745.1 361.564 L2761.95 327.958 L2778.79 312.595 L2795.63 305.628 L2812.48 307.078 L2829.32 314.71 L2846.16 319.904 L2863 325.958 L2879.85 324.941 L2896.69 323.759 L2913.53 320.232 L2930.37 323.964 L2947.22 327.6 L2964.06 332.916 L2980.9 335.524 L2997.75 336.218 L3014.59 340.911 L3031.43 355.176 L3048.27 371.116 L3065.12 389.813 L3081.96 403.848 L3098.8 414.799 L3115.64 411.737 L3132.49 397.54 L3149.33 364.714 L3166.17 331.343 L3183.01 314.684 L3199.86 308.064 L3216.7 309.679 L3233.54 316.206 L3250.39 323.978 L3267.23 329.691 L3284.07 328.603 L3300.91 325.589 L3317.76 321.493 L3334.6 324.846 L3351.44 329.691 L3368.28 335.582 L3385.13 337.141 L3401.97 337.911 L3418.81 342.231 L3435.66 356.806 L3452.5 373.077 L3469.34 390.967 L3486.18 405.399 L3503.03 417.54 L3519.87 414.563 L3536.71 400.032 L3553.55 367.526 L3570.4 333.424 L3587.24 316.849 L3604.08 309.854 L3620.93 310.797 L3637.77 317.261 L3654.61 325.251 L3671.45 331.073 L3688.3 330.088 L3705.14 326.917 L3721.98 323.895 L3738.82 325.83 L3755.67 331.014 L3772.51 337.43 L3789.35 337.981 L3806.2 339.45 L3823.04 343.665 L3839.88 358.585 L3856.72 374.863 L3873.57 392.323 L3890.41 407.13 L3907.25 419.137 L3924.09 417.107 L3940.94 402.433 L3957.78 369.36 L3974.62 333.861 L3991.47 317.137 L4008.31 310.481 L4025.15 312.662 L4041.99 317.748 L4058.84 326.198 L4075.68 332.152 L4092.52 331.912 L4109.36 328.753 L4126.21 324.621 L4143.05 326.463 L4159.89 331.99 L4176.74 338.472 L4193.58 338.408 L4210.42 340.253 L4227.26 344.08 L4244.11 359.493 L4260.95 375.981 L4277.79 393.027 L4294.63 408.335 L4311.48 420.535 L4328.32 417.273 L4345.16 403.18 L4362 370.245 L4378.85 335.088 L4395.69 317.499 L4412.53 310.327 L4429.38 313.921 L4446.22 318.331 L4463.06 326.228 L4479.9 333.019 L4496.75 332.42 L4513.59 329.214 L4530.43 324.834 L4547.27 328.561 L4564.12 332.557 L4580.96 339.06 L4597.8 339.565 L4614.65 340.462 L4631.49 344.935 L4631.49 127.862 L4614.65 138.05 L4597.8 156.535 L4580.96 171.944 L4564.12 181.871 L4547.27 186.864 L4530.43 190.641 L4513.59 191.437 L4496.75 186.389 L4479.9 176.956 L4463.06 161.318 L4446.22 146.09 L4429.38 137.85 L4412.53 138.862 L4395.69 146.716 L4378.85 162.294 L4362 191.274 L4345.16 219.142 L4328.32 231.787 L4311.48 228.676 L4294.63 210.317 L4277.79 185.08 L4260.95 158.635 L4244.11 137.836 L4227.26 127.716 L4210.42 137.875 L4193.58 156.126 L4176.74 171.603 L4159.89 181.292 L4143.05 186.389 L4126.21 190.3 L4109.36 191.133 L4092.52 185.797 L4075.68 176.49 L4058.84 160.937 L4041.99 145.897 L4025.15 137.536 L4008.31 138.561 L3991.47 145.608 L3974.62 161.252 L3957.78 190.559 L3940.94 218.058 L3924.09 230.697 L3907.25 227.722 L3890.41 209.799 L3873.57 184.575 L3856.72 158.109 L3839.88 137.221 L3823.04 127.281 L3806.2 137.285 L3789.35 155.466 L3772.51 171.182 L3755.67 180.983 L3738.82 186.056 L3721.98 189.643 L3705.14 190.4 L3688.3 185.349 L3671.45 175.873 L3654.61 160.493 L3637.77 145.009 L3620.93 136.555 L3604.08 137.379 L3587.24 144.777 L3570.4 160.261 L3553.55 189.744 L3536.71 217.108 L3519.87 229.811 L3503.03 227.011 L3486.18 208.785 L3469.34 183.622 L3452.5 157.037 L3435.66 136.589 L3418.81 126.804 L3401.97 136.072 L3385.13 154.806 L3368.28 170.322 L3351.44 179.997 L3334.6 185.486 L3317.76 188.825 L3300.91 189.513 L3284.07 184.732 L3267.23 175.254 L3250.39 159.754 L3233.54 143.9 L3216.7 135.218 L3199.86 136.419 L3183.01 143.358 L3166.17 158.374 L3149.33 188.03 L3132.49 215.768 L3115.64 228.278 L3098.8 225.404 L3081.96 207.437 L3065.12 182.385 L3048.27 156.168 L3031.43 135.364 L3014.59 125.676 L2997.75 134.975 L2980.9 153.318 L2964.06 169.372 L2947.22 178.671 L2930.37 184.016 L2913.53 187.344 L2896.69 187.821 L2879.85 183.765 L2863 173.526 L2846.16 158.359 L2829.32 142.81 L2812.48 133.891 L2795.63 134.315 L2778.79 141.396 L2761.95 156.386 L2745.1 186.04 L2728.26 213.099 L2711.42 226.2 L2694.58 223.287 L2677.73 204.956 L2660.89 180.335 L2644.05 153.974 L2627.21 133.392 L2610.36 123.225 L2593.52 133.223 L2576.68 151.746 L2559.83 167.695 L2542.99 176.795 L2526.15 182.646 L2509.31 185.58 L2492.46 185.721 L2475.62 181.875 L2458.78 171.743 L2441.94 156.395 L2425.09 140.646 L2408.25 131.991 L2391.41 132.478 L2374.56 138.73 L2357.72 153.809 L2340.88 182.582 L2324.04 209.556 L2307.19 223.178 L2290.35 220.093 L2273.51 201.388 L2256.67 177.33 L2239.82 151.063 L2222.98 130.146 L2206.14 120.292 L2189.29 129.914 L2172.45 148.591 L2155.61 164.704 L2138.77 174.111 L2121.92 179.56 L2105.08 182.814 L2088.24 182.95 L2071.4 178.679 L2054.55 168.859 L2037.71 153.397 L2020.87 137.78 L2004.02 128.7 L1987.18 128.583 L1970.34 134.207 L1953.5 148.379 L1936.65 176.706 L1919.81 204.791 L1902.97 217.988 L1886.13 215.481 L1869.28 196.463 L1852.44 172.788 L1835.6 146.653 L1818.76 126.419 L1801.91 116.184 L1785.07 125.998 L1768.23 144.282 L1751.38 160.44 L1734.54 169.534 L1717.7 175.438 L1700.86 178.003 L1684.01 178.962 L1667.17 174.065 L1650.33 164.555 L1633.49 148.611 L1616.64 132.804 L1599.8 123.664 L1582.96 122.258 L1566.11 127.23 L1549.27 140.242 L1532.43 168.939 L1515.59 197.728 L1498.74 209.92 L1481.9 207.66 L1465.06 189.18 L1448.22 165.806 L1431.37 139.754 L1414.53 119.578 L1397.69 109.672 L1380.84 119.487 L1364 137.622 L1347.16 154.325 L1330.32 163.233 L1313.47 168.73 L1296.63 171.726 L1279.79 172.45 L1262.95 167.149 L1246.1 158.658 L1229.26 142.095 L1212.42 125.747 L1195.57 116.054 L1178.73 113.867 L1161.89 118.902 L1145.05 130.666 L1128.2 158.494 L1111.36 186.562 L1094.52 199.816 L1077.68 198.727 L1060.83 180.202 L1043.99 157.493 L1027.15 131.761 L1010.3 112.013 L993.462 103.103 L976.619 113.902 L959.777 133.406 L942.934 150.512 L926.091 160.733 L909.249 166.989 L892.406 171.219 L875.563 173.544 L858.72 169.748 L841.878 161.841 L825.035 149.018 L808.192 137.202 L791.35 132.554 L774.507 139.17 L757.664 153.043 L740.821 175.944 L723.979 211.692 L707.136 244.527 L690.293 260.394 L673.451 262.921 L656.608 248.97 L639.765 230.176 L622.922 209.923 L606.08 196.047 L589.237 193.223  Z" fill="#414141" fill-rule="evenodd" fill-opacity="0.5"/>
<polyline clip-path="url(#clip452)" style="stroke:#414141; stroke-linecap:round; stroke-linejoin:round; stroke-width:0; stroke-opacity:1; fill:none" points="589.237,244.199 606.08,253.121 622.922,263.649 639.765,274.87 656.608,284.684 673.451,291.744 690.293,290.778 707.136,283.25 723.979,267.063 740.821,249.855 757.664,240.402 774.507,235.873 791.35,235.277 808.192,238.461 825.035,243.429 841.878,248.289 858.72,250.806 875.563,251.683 892.406,250.474 909.249,249.73 926.091,249 942.934,247.766 959.777,243.902 976.619,239.27 993.462,237.342 1010.3,243.189 1027.15,252.178 1043.99,262.637 1060.83,272.204 1077.68,279.276 1094.52,278.514 1111.36,271.306 1128.2,256.034 1145.05,240.535 1161.89,233.384 1178.73,231.154 1195.57,232.619 1212.42,237.465 1229.26,243.726 1246.1,249.58 1262.95,252.851 1279.79,254.312 1296.63,253.586 1313.47,253.293 1330.32,252.965 1347.16,252.065 1364,248.517 1380.84,244.201 1397.69,242.566 1414.53,248.713 1431.37,258.011 1448.22,268.781 1465.06,278.664 1481.9,286.028 1498.74,285.539 1515.59,278.554 1532.43,263.259 1549.27,247.503 1566.11,239.89 1582.96,237.205 1599.8,238.221 1616.64,242.729 1633.49,248.702 1650.33,254.329 1667.17,257.401 1684.01,258.746 1700.86,257.957 1717.7,257.654 1734.54,257.306 1751.38,256.403 1768.23,252.875 1785.07,248.604 1801.91,247.021 1818.76,253.239 1835.6,262.625 1852.44,273.497 1869.28,283.485 1886.13,290.96 1902.97,290.572 1919.81,283.645 1936.65,268.308 1953.5,252.363 1970.34,244.426 1987.18,241.389 2004.02,242.116 2020.87,246.357 2037.71,252.104 2054.55,257.552 2071.4,260.48 2088.24,261.705 2105.08,260.865 2121.92,260.524 2138.77,260.162 2155.61,259.252 2172.45,255.732 2189.29,251.46 2206.14,249.907 2222.98,256.161 2239.82,265.594 2256.67,276.525 2273.51,286.567 2290.35,294.102 2307.19,293.77 2324.04,286.865 2340.88,271.506 2357.72,255.43 2374.56,247.304 2391.41,244.066 2408.25,244.591 2425.09,248.655 2441.94,254.273 2458.78,259.609 2475.62,262.456 2492.46,263.613 2509.31,262.713 2526.15,262.363 2542.99,261.993 2559.83,261.086 2576.68,257.576 2593.52,253.327 2610.36,251.792 2627.21,258.071 2644.05,267.536 2660.89,278.504 2677.73,288.581 2694.58,296.16 2711.42,295.858 2728.26,288.977 2745.1,273.606 2761.95,257.455 2778.79,249.198 2795.63,245.818 2812.48,246.218 2829.32,250.18 2846.16,255.709 2863,260.974 2879.85,263.757 2896.69,264.876 2913.53,263.965 2930.37,263.606 2947.22,263.232 2964.06,262.326 2980.9,258.825 2997.75,254.583 3014.59,253.061 3031.43,259.356 3048.27,268.839 3065.12,279.831 3081.96,289.939 3098.8,297.543 3115.64,297.263 3132.49,290.389 3149.33,274.995 3166.17,258.776 3183.01,250.444 3199.86,246.983 3216.7,247.295 3233.54,251.191 3250.39,256.667 3267.23,261.884 3284.07,264.637 3300.91,265.722 3317.76,264.809 3334.6,264.443 3351.44,264.066 3368.28,263.162 3385.13,259.666 3401.97,255.428 3418.81,253.916 3435.66,260.223 3452.5,269.72 3469.34,280.726 3486.18,290.848 3503.03,298.471 3519.87,298.203 3536.71,291.355 3553.55,275.954 3570.4,259.711 3587.24,251.315 3604.08,247.786 3620.93,248.041 3637.77,251.885 3654.61,257.318 3671.45,262.506 3688.3,265.234 3705.14,266.301 3721.98,265.373 3738.82,265.001 3755.67,264.628 3772.51,263.718 3789.35,260.224 3806.2,255.999 3823.04,254.493 3839.88,260.807 3856.72,270.312 3873.57,281.326 3890.41,291.456 3907.25,299.093 3924.09,298.837 3940.94,291.994 3957.78,276.595 3974.62,260.318 3991.47,251.877 4008.31,248.304 4025.15,248.534 4041.99,252.349 4058.84,257.755 4075.68,262.917 4092.52,265.625 4109.36,266.69 4126.21,265.754 4143.05,265.37 4159.89,264.999 4176.74,264.099 4193.58,260.612 4210.42,256.396 4227.26,254.895 4244.11,261.213 4260.95,270.723 4277.79,281.739 4294.63,291.871 4311.48,299.51 4328.32,299.263 4345.16,292.419 4362,277.009 4378.85,260.75 4395.69,252.285 4412.53,248.684 4429.38,248.867 4446.22,252.652 4463.06,258.043 4479.9,263.194 4496.75,265.892 4513.59,266.946 4530.43,266.022 4547.27,265.645 4564.12,265.283 4580.96,264.381 4597.8,260.9 4614.65,256.679 4631.49,255.182 "/>
<path clip-path="url(#clip450)" d="M3862.18 592.384 L4609.93 592.384 L4609.93 73.9845 L3862.18 73.9845  Z" fill="#ffffff" fill-rule="evenodd" fill-opacity="1"/>
<polyline clip-path="url(#clip450)" style="stroke:#000000; stroke-linecap:round; stroke-linejoin:round; stroke-width:4; stroke-opacity:1; fill:none" points="3862.18,592.384 4609.93,592.384 4609.93,73.9845 3862.18,73.9845 3862.18,592.384 "/>
<polyline clip-path="url(#clip450)" style="stroke:#aeaeae; stroke-linecap:round; stroke-linejoin:round; stroke-width:2; stroke-opacity:1; fill:none" points="3909.79,203.584 4195.44,203.584 "/>
<path clip-path="url(#clip450)" d="M4244.73 236.947 L4263.83 236.947 L4263.83 171.033 L4243.05 175.199 L4243.05 164.551 L4263.71 160.384 L4275.4 160.384 L4275.4 236.947 L4294.5 236.947 L4294.5 246.784 L4244.73 246.784 L4244.73 236.947 Z" fill="#000000" fill-rule="nonzero" fill-opacity="1" /><path clip-path="url(#clip450)" d="M4343.11 168.081 Q4334.08 168.081 4329.51 176.993 Q4325 185.847 4325 203.671 Q4325 221.437 4329.51 230.349 Q4334.08 239.203 4343.11 239.203 Q4352.19 239.203 4356.71 230.349 Q4361.28 221.437 4361.28 203.671 Q4361.28 185.847 4356.71 176.993 Q4352.19 168.081 4343.11 168.081 M4343.11 158.822 Q4357.63 158.822 4365.27 170.338 Q4372.97 181.796 4372.97 203.671 Q4372.97 225.488 4365.27 237.004 Q4357.63 248.463 4343.11 248.463 Q4328.58 248.463 4320.89 237.004 Q4313.25 225.488 4313.25 203.671 Q4313.25 181.796 4320.89 170.338 Q4328.58 158.822 4343.11 158.822 Z" fill="#000000" fill-rule="nonzero" fill-opacity="1" /><path clip-path="url(#clip450)" d="M4418.51 168.081 Q4409.49 168.081 4404.91 176.993 Q4400.4 185.847 4400.4 203.671 Q4400.4 221.437 4404.91 230.349 Q4409.49 239.203 4418.51 239.203 Q4427.6 239.203 4432.11 230.349 Q4436.69 221.437 4436.69 203.671 Q4436.69 185.847 4432.11 176.993 Q4427.6 168.081 4418.51 168.081 M4418.51 158.822 Q4433.04 158.822 4440.68 170.338 Q4448.37 181.796 4448.37 203.671 Q4448.37 225.488 4440.68 237.004 Q4433.04 248.463 4418.51 248.463 Q4403.99 248.463 4396.29 237.004 Q4388.65 225.488 4388.65 203.671 Q4388.65 181.796 4396.29 170.338 Q4403.99 158.822 4418.51 158.822 Z" fill="#000000" fill-rule="nonzero" fill-opacity="1" /><path clip-path="url(#clip450)" d="M4542.41 208.764 Q4537.38 208.764 4534.49 213.046 Q4531.65 217.329 4531.65 224.967 Q4531.65 232.491 4534.49 236.831 Q4537.38 241.113 4542.41 241.113 Q4547.33 241.113 4550.17 236.831 Q4553.06 232.491 4553.06 224.967 Q4553.06 217.386 4550.17 213.104 Q4547.33 208.764 4542.41 208.764 M4542.41 201.414 Q4551.56 201.414 4556.94 207.78 Q4562.32 214.146 4562.32 224.967 Q4562.32 235.789 4556.88 242.155 Q4551.5 248.463 4542.41 248.463 Q4533.15 248.463 4527.77 242.155 Q4522.39 235.789 4522.39 224.967 Q4522.39 214.088 4527.77 207.78 Q4533.21 201.414 4542.41 201.414 M4482.69 166.171 Q4477.71 166.171 4474.82 170.512 Q4471.99 174.794 4471.99 182.317 Q4471.99 189.956 4474.82 194.238 Q4477.66 198.521 4482.69 198.521 Q4487.73 198.521 4490.56 194.238 Q4493.46 189.956 4493.46 182.317 Q4493.46 174.852 4490.56 170.512 Q4487.67 166.171 4482.69 166.171 M4534.95 158.822 L4544.21 158.822 L4490.16 248.463 L4480.9 248.463 L4534.95 158.822 M4482.69 158.822 Q4491.84 158.822 4497.28 165.188 Q4502.71 171.496 4502.71 182.317 Q4502.71 193.255 4497.28 199.563 Q4491.89 205.87 4482.69 205.87 Q4473.49 205.87 4468.11 199.563 Q4462.78 193.197 4462.78 182.317 Q4462.78 171.553 4468.17 165.188 Q4473.55 158.822 4482.69 158.822 Z" fill="#000000" fill-rule="nonzero" fill-opacity="1" /><polyline clip-path="url(#clip450)" style="stroke:#757575; stroke-linecap:round; stroke-linejoin:round; stroke-width:2; stroke-opacity:1; fill:none" points="3909.79,333.184 4195.44,333.184 "/>
<path clip-path="url(#clip450)" d="M4248.61 374.591 L4248.61 363.942 Q4253.01 366.026 4257.52 367.125 Q4262.03 368.225 4266.37 368.225 Q4277.95 368.225 4284.02 360.47 Q4290.16 352.658 4291.03 336.801 Q4287.67 341.778 4282.52 344.44 Q4277.37 347.102 4271.12 347.102 Q4258.16 347.102 4250.57 339.29 Q4243.05 331.419 4243.05 317.82 Q4243.05 304.51 4250.92 296.466 Q4258.79 288.422 4271.87 288.422 Q4286.86 288.422 4294.73 299.938 Q4302.66 311.396 4302.66 333.271 Q4302.66 353.699 4292.94 365.91 Q4283.27 378.063 4266.89 378.063 Q4262.5 378.063 4257.98 377.195 Q4253.47 376.327 4248.61 374.591 M4271.87 337.959 Q4279.74 337.959 4284.31 332.577 Q4288.94 327.195 4288.94 317.82 Q4288.94 308.503 4284.31 303.121 Q4279.74 297.681 4271.87 297.681 Q4264 297.681 4259.37 303.121 Q4254.8 308.503 4254.8 317.82 Q4254.8 327.195 4259.37 332.577 Q4264 337.959 4271.87 337.959 Z" fill="#000000" fill-rule="nonzero" fill-opacity="1" /><path clip-path="url(#clip450)" d="M4348.66 297.681 Q4339.64 297.681 4335.07 306.593 Q4330.55 315.447 4330.55 333.271 Q4330.55 351.037 4335.07 359.949 Q4339.64 368.803 4348.66 368.803 Q4357.75 368.803 4362.26 359.949 Q4366.84 351.037 4366.84 333.271 Q4366.84 315.447 4362.26 306.593 Q4357.75 297.681 4348.66 297.681 M4348.66 288.422 Q4363.19 288.422 4370.83 299.938 Q4378.53 311.396 4378.53 333.271 Q4378.53 355.088 4370.83 366.604 Q4363.19 378.063 4348.66 378.063 Q4334.14 378.063 4326.44 366.604 Q4318.8 355.088 4318.8 333.271 Q4318.8 311.396 4326.44 299.938 Q4334.14 288.422 4348.66 288.422 Z" fill="#000000" fill-rule="nonzero" fill-opacity="1" /><path clip-path="url(#clip450)" d="M4472.56 338.364 Q4467.53 338.364 4464.64 342.646 Q4461.8 346.929 4461.8 354.567 Q4461.8 362.091 4464.64 366.431 Q4467.53 370.713 4472.56 370.713 Q4477.48 370.713 4480.32 366.431 Q4483.21 362.091 4483.21 354.567 Q4483.21 346.986 4480.32 342.704 Q4477.48 338.364 4472.56 338.364 M4472.56 331.014 Q4481.71 331.014 4487.09 337.38 Q4492.47 343.746 4492.47 354.567 Q4492.47 365.389 4487.03 371.755 Q4481.65 378.063 4472.56 378.063 Q4463.31 378.063 4457.92 371.755 Q4452.54 365.389 4452.54 354.567 Q4452.54 343.688 4457.92 337.38 Q4463.36 331.014 4472.56 331.014 M4412.84 295.771 Q4407.87 295.771 4404.97 300.112 Q4402.14 304.394 4402.14 311.917 Q4402.14 319.556 4404.97 323.838 Q4407.81 328.121 4412.84 328.121 Q4417.88 328.121 4420.71 323.838 Q4423.61 319.556 4423.61 311.917 Q4423.61 304.452 4420.71 300.112 Q4417.82 295.771 4412.84 295.771 M4465.1 288.422 L4474.36 288.422 L4420.31 378.063 L4411.05 378.063 L4465.1 288.422 M4412.84 288.422 Q4421.99 288.422 4427.43 294.788 Q4432.87 301.096 4432.87 311.917 Q4432.87 322.855 4427.43 329.163 Q4422.04 335.47 4412.84 335.47 Q4403.64 335.47 4398.26 329.163 Q4392.94 322.797 4392.94 311.917 Q4392.94 301.153 4398.32 294.788 Q4403.7 288.422 4412.84 288.422 Z" fill="#000000" fill-rule="nonzero" fill-opacity="1" /><polyline clip-path="url(#clip450)" style="stroke:#414141; stroke-linecap:round; stroke-linejoin:round; stroke-width:2; stroke-opacity:1; fill:none" points="3909.79,462.784 4195.44,462.784 "/>
<path clip-path="url(#clip450)" d="M4272.68 464.955 Q4264.35 464.955 4259.54 469.411 Q4254.8 473.867 4254.8 481.679 Q4254.8 489.492 4259.54 493.947 Q4264.35 498.403 4272.68 498.403 Q4281.01 498.403 4285.82 493.947 Q4290.62 489.434 4290.62 481.679 Q4290.62 473.867 4285.82 469.411 Q4281.07 464.955 4272.68 464.955 M4260.99 459.978 Q4253.47 458.126 4249.24 452.975 Q4245.08 447.825 4245.08 440.418 Q4245.08 430.059 4252.43 424.04 Q4259.83 418.022 4272.68 418.022 Q4285.59 418.022 4292.94 424.04 Q4300.29 430.059 4300.29 440.418 Q4300.29 447.825 4296.06 452.975 Q4291.89 458.126 4284.43 459.978 Q4292.88 461.945 4297.57 467.674 Q4302.31 473.404 4302.31 481.679 Q4302.31 494.237 4294.61 500.95 Q4286.98 507.663 4272.68 507.663 Q4258.39 507.663 4250.69 500.95 Q4243.05 494.237 4243.05 481.679 Q4243.05 473.404 4247.8 467.674 Q4252.54 461.945 4260.99 459.978 M4256.71 441.517 Q4256.71 448.23 4260.88 451.992 Q4265.1 455.753 4272.68 455.753 Q4280.2 455.753 4284.43 451.992 Q4288.71 448.23 4288.71 441.517 Q4288.71 434.804 4284.43 431.043 Q4280.2 427.281 4272.68 427.281 Q4265.1 427.281 4260.88 431.043 Q4256.71 434.804 4256.71 441.517 Z" fill="#000000" fill-rule="nonzero" fill-opacity="1" /><path clip-path="url(#clip450)" d="M4348.09 427.281 Q4339.06 427.281 4334.49 436.193 Q4329.97 445.047 4329.97 462.871 Q4329.97 480.637 4334.49 489.549 Q4339.06 498.403 4348.09 498.403 Q4357.17 498.403 4361.69 489.549 Q4366.26 480.637 4366.26 462.871 Q4366.26 445.047 4361.69 436.193 Q4357.17 427.281 4348.09 427.281 M4348.09 418.022 Q4362.61 418.022 4370.25 429.538 Q4377.95 440.996 4377.95 462.871 Q4377.95 484.688 4370.25 496.204 Q4362.61 507.663 4348.09 507.663 Q4333.56 507.663 4325.86 496.204 Q4318.23 484.688 4318.23 462.871 Q4318.23 440.996 4325.86 429.538 Q4333.56 418.022 4348.09 418.022 Z" fill="#000000" fill-rule="nonzero" fill-opacity="1" /><path clip-path="url(#clip450)" d="M4471.99 467.964 Q4466.95 467.964 4464.06 472.246 Q4461.22 476.529 4461.22 484.167 Q4461.22 491.691 4464.06 496.031 Q4466.95 500.313 4471.99 500.313 Q4476.9 500.313 4479.74 496.031 Q4482.63 491.691 4482.63 484.167 Q4482.63 476.586 4479.74 472.304 Q4476.9 467.964 4471.99 467.964 M4471.99 460.614 Q4481.13 460.614 4486.51 466.98 Q4491.89 473.346 4491.89 484.167 Q4491.89 494.989 4486.45 501.355 Q4481.07 507.663 4471.99 507.663 Q4462.73 507.663 4457.34 501.355 Q4451.96 494.989 4451.96 484.167 Q4451.96 473.288 4457.34 466.98 Q4462.78 460.614 4471.99 460.614 M4412.26 425.371 Q4407.29 425.371 4404.39 429.712 Q4401.56 433.994 4401.56 441.517 Q4401.56 449.156 4404.39 453.438 Q4407.23 457.721 4412.26 457.721 Q4417.3 457.721 4420.13 453.438 Q4423.03 449.156 4423.03 441.517 Q4423.03 434.052 4420.13 429.712 Q4417.24 425.371 4412.26 425.371 M4464.52 418.022 L4473.78 418.022 L4419.73 507.663 L4410.47 507.663 L4464.52 418.022 M4412.26 418.022 Q4421.41 418.022 4426.85 424.388 Q4432.29 430.696 4432.29 441.517 Q4432.29 452.455 4426.85 458.763 Q4421.47 465.07 4412.26 465.07 Q4403.06 465.07 4397.68 458.763 Q4392.36 452.397 4392.36 441.517 Q4392.36 430.753 4397.74 424.388 Q4403.12 418.022 4412.26 418.022 Z" fill="#000000" fill-rule="nonzero" fill-opacity="1" /></svg>
