<?xml version="1.0" encoding="utf-8"?>
<svg xmlns="http://www.w3.org/2000/svg" xmlns:xlink="http://www.w3.org/1999/xlink" width="1200" height="300" viewBox="0 0 4800 1200">
<defs>
  <clipPath id="clip060">
    <rect x="0" y="0" width="4800" height="1200"/>
  </clipPath>
</defs>
<path clip-path="url(#clip060)" d="M0 1200 L4800 1200 L4800 0 L0 0  Z" fill="#ffffff" fill-rule="evenodd" fill-opacity="1"/>
<defs>
  <clipPath id="clip061">
    <rect x="960" y="0" width="3361" height="1200"/>
  </clipPath>
</defs>
<path clip-path="url(#clip060)" d="M660.509 849.455 L4752.76 849.455 L4752.76 47.2441 L660.509 47.2441  Z" fill="#ffffff" fill-rule="evenodd" fill-opacity="1"/>
<defs>
  <clipPath id="clip062">
    <rect x="660" y="47" width="4093" height="803"/>
  </clipPath>
</defs>
<polyline clip-path="url(#clip062)" style="stroke:#000000; stroke-linecap:round; stroke-linejoin:round; stroke-width:2; stroke-opacity:0.1; fill:none" points="776.327,849.455 776.327,47.2441 "/>
<polyline clip-path="url(#clip062)" style="stroke:#000000; stroke-linecap:round; stroke-linejoin:round; stroke-width:2; stroke-opacity:0.1; fill:none" points="1548.45,849.455 1548.45,47.2441 "/>
<polyline clip-path="url(#clip062)" style="stroke:#000000; stroke-linecap:round; stroke-linejoin:round; stroke-width:2; stroke-opacity:0.1; fill:none" points="2320.57,849.455 2320.57,47.2441 "/>
<polyline clip-path="url(#clip062)" style="stroke:#000000; stroke-linecap:round; stroke-linejoin:round; stroke-width:2; stroke-opacity:0.1; fill:none" points="3092.69,849.455 3092.69,47.2441 "/>
<polyline clip-path="url(#clip062)" style="stroke:#000000; stroke-linecap:round; stroke-linejoin:round; stroke-width:2; stroke-opacity:0.1; fill:none" points="3864.82,849.455 3864.82,47.2441 "/>
<polyline clip-path="url(#clip062)" style="stroke:#000000; stroke-linecap:round; stroke-linejoin:round; stroke-width:2; stroke-opacity:0.1; fill:none" points="4636.94,849.455 4636.94,47.2441 "/>
<polyline clip-path="url(#clip062)" style="stroke:#000000; stroke-linecap:round; stroke-linejoin:round; stroke-width:2; stroke-opacity:0.1; fill:none" points="660.509,827.123 4752.76,827.123 "/>
<polyline clip-path="url(#clip062)" style="stroke:#000000; stroke-linecap:round; stroke-linejoin:round; stroke-width:2; stroke-opacity:0.1; fill:none" points="660.509,663.562 4752.76,663.562 "/>
<polyline clip-path="url(#clip062)" style="stroke:#000000; stroke-linecap:round; stroke-linejoin:round; stroke-width:2; stroke-opacity:0.1; fill:none" points="660.509,500 4752.76,500 "/>
<polyline clip-path="url(#clip062)" style="stroke:#000000; stroke-linecap:round; stroke-linejoin:round; stroke-width:2; stroke-opacity:0.1; fill:none" points="660.509,336.439 4752.76,336.439 "/>
<polyline clip-path="url(#clip062)" style="stroke:#000000; stroke-linecap:round; stroke-linejoin:round; stroke-width:2; stroke-opacity:0.1; fill:none" points="660.509,172.878 4752.76,172.878 "/>
<polyline clip-path="url(#clip060)" style="stroke:#000000; stroke-linecap:round; stroke-linejoin:round; stroke-width:4; stroke-opacity:1; fill:none" points="660.509,849.455 4752.76,849.455 "/>
<polyline clip-path="url(#clip060)" style="stroke:#000000; stroke-linecap:round; stroke-linejoin:round; stroke-width:4; stroke-opacity:1; fill:none" points="776.327,849.455 776.327,830.558 "/>
<polyline clip-path="url(#clip060)" style="stroke:#000000; stroke-linecap:round; stroke-linejoin:round; stroke-width:4; stroke-opacity:1; fill:none" points="1548.45,849.455 1548.45,830.558 "/>
<polyline clip-path="url(#clip060)" style="stroke:#000000; stroke-linecap:round; stroke-linejoin:round; stroke-width:4; stroke-opacity:1; fill:none" points="2320.57,849.455 2320.57,830.558 "/>
<polyline clip-path="url(#clip060)" style="stroke:#000000; stroke-linecap:round; stroke-linejoin:round; stroke-width:4; stroke-opacity:1; fill:none" points="3092.69,849.455 3092.69,830.558 "/>
<polyline clip-path="url(#clip060)" style="stroke:#000000; stroke-linecap:round; stroke-linejoin:round; stroke-width:4; stroke-opacity:1; fill:none" points="3864.82,849.455 3864.82,830.558 "/>
<polyline clip-path="url(#clip060)" style="stroke:#000000; stroke-linecap:round; stroke-linejoin:round; stroke-width:4; stroke-opacity:1; fill:none" points="4636.94,849.455 4636.94,830.558 "/>
<path clip-path="url(#clip060)" d="M776.327 911.293 Q769.105 911.293 765.448 918.422 Q761.837 925.506 761.837 939.765 Q761.837 953.978 765.448 961.107 Q769.105 968.191 776.327 968.191 Q783.596 968.191 787.207 961.107 Q790.864 953.978 790.864 939.765 Q790.864 925.506 787.207 918.422 Q783.596 911.293 776.327 911.293 M776.327 903.885 Q787.948 903.885 794.059 913.098 Q800.216 922.265 800.216 939.765 Q800.216 957.218 794.059 966.431 Q787.948 975.598 776.327 975.598 Q764.707 975.598 758.55 966.431 Q752.439 957.218 752.439 939.765 Q752.439 922.265 758.55 913.098 Q764.707 903.885 776.327 903.885 Z" fill="#000000" fill-rule="nonzero" fill-opacity="1" /><path clip-path="url(#clip060)" d="M1537.75 966.385 L1570.39 966.385 L1570.39 974.255 L1526.51 974.255 L1526.51 966.385 Q1531.83 960.876 1541 951.617 Q1550.21 942.311 1552.57 939.626 Q1557.06 934.58 1558.82 931.108 Q1560.63 927.589 1560.63 924.209 Q1560.63 918.7 1556.74 915.228 Q1552.89 911.756 1546.69 911.756 Q1542.29 911.756 1537.38 913.284 Q1532.52 914.811 1526.97 917.913 L1526.97 908.469 Q1532.62 906.2 1537.52 905.043 Q1542.43 903.885 1546.5 903.885 Q1557.25 903.885 1563.63 909.256 Q1570.02 914.626 1570.02 923.608 Q1570.02 927.867 1568.4 931.709 Q1566.83 935.506 1562.62 940.691 Q1561.46 942.033 1555.25 948.469 Q1549.05 954.857 1537.75 966.385 Z" fill="#000000" fill-rule="nonzero" fill-opacity="1" /><path clip-path="url(#clip060)" d="M2326.59 913.284 L2302.98 950.181 L2326.59 950.181 L2326.59 913.284 M2324.14 905.135 L2335.9 905.135 L2335.9 950.181 L2345.76 950.181 L2345.76 957.959 L2335.9 957.959 L2335.9 974.255 L2326.59 974.255 L2326.59 957.959 L2295.39 957.959 L2295.39 948.931 L2324.14 905.135 Z" fill="#000000" fill-rule="nonzero" fill-opacity="1" /><path clip-path="url(#clip060)" d="M3093.5 935.969 Q3087.21 935.969 3083.5 940.274 Q3079.85 944.58 3079.85 952.08 Q3079.85 959.533 3083.5 963.885 Q3087.21 968.191 3093.5 968.191 Q3099.8 968.191 3103.46 963.885 Q3107.16 959.533 3107.16 952.08 Q3107.16 944.58 3103.46 940.274 Q3099.8 935.969 3093.5 935.969 M3112.07 906.663 L3112.07 915.182 Q3108.55 913.515 3104.94 912.635 Q3101.37 911.756 3097.86 911.756 Q3088.6 911.756 3083.69 918.006 Q3078.83 924.256 3078.13 936.895 Q3080.86 932.867 3084.99 930.737 Q3089.11 928.561 3094.06 928.561 Q3104.48 928.561 3110.49 934.904 Q3116.56 941.2 3116.56 952.08 Q3116.56 962.728 3110.26 969.163 Q3103.97 975.598 3093.5 975.598 Q3081.51 975.598 3075.17 966.431 Q3068.83 957.218 3068.83 939.765 Q3068.83 923.376 3076.61 913.654 Q3084.38 903.885 3097.49 903.885 Q3101 903.885 3104.57 904.58 Q3108.18 905.274 3112.07 906.663 Z" fill="#000000" fill-rule="nonzero" fill-opacity="1" /><path clip-path="url(#clip060)" d="M3864.82 941.432 Q3858.15 941.432 3854.31 944.996 Q3850.51 948.561 3850.51 954.811 Q3850.51 961.061 3854.31 964.626 Q3858.15 968.191 3864.82 968.191 Q3871.48 968.191 3875.32 964.626 Q3879.17 961.015 3879.17 954.811 Q3879.17 948.561 3875.32 944.996 Q3871.53 941.432 3864.82 941.432 M3855.46 937.45 Q3849.45 935.969 3846.07 931.848 Q3842.73 927.728 3842.73 921.802 Q3842.73 913.515 3848.61 908.7 Q3854.54 903.885 3864.82 903.885 Q3875.14 903.885 3881.02 908.7 Q3886.9 913.515 3886.9 921.802 Q3886.9 927.728 3883.52 931.848 Q3880.19 935.969 3874.21 937.45 Q3880.97 939.024 3884.72 943.607 Q3888.52 948.191 3888.52 954.811 Q3888.52 964.857 3882.36 970.228 Q3876.25 975.598 3864.82 975.598 Q3853.38 975.598 3847.22 970.228 Q3841.11 964.857 3841.11 954.811 Q3841.11 948.191 3844.91 943.607 Q3848.7 939.024 3855.46 937.45 M3852.04 922.682 Q3852.04 928.052 3855.37 931.061 Q3858.75 934.07 3864.82 934.07 Q3870.83 934.07 3874.21 931.061 Q3877.64 928.052 3877.64 922.682 Q3877.64 917.311 3874.21 914.302 Q3870.83 911.293 3864.82 911.293 Q3858.75 911.293 3855.37 914.302 Q3852.04 917.311 3852.04 922.682 Z" fill="#000000" fill-rule="nonzero" fill-opacity="1" /><path clip-path="url(#clip060)" d="M4586.31 966.385 L4601.59 966.385 L4601.59 913.654 L4584.97 916.987 L4584.97 908.469 L4601.5 905.135 L4610.85 905.135 L4610.85 966.385 L4626.13 966.385 L4626.13 974.255 L4586.31 974.255 L4586.31 966.385 Z" fill="#000000" fill-rule="nonzero" fill-opacity="1" /><path clip-path="url(#clip060)" d="M4665.02 911.293 Q4657.79 911.293 4654.14 918.422 Q4650.53 925.506 4650.53 939.765 Q4650.53 953.978 4654.14 961.107 Q4657.79 968.191 4665.02 968.191 Q4672.28 968.191 4675.9 961.107 Q4679.55 953.978 4679.55 939.765 Q4679.55 925.506 4675.9 918.422 Q4672.28 911.293 4665.02 911.293 M4665.02 903.885 Q4676.64 903.885 4682.75 913.098 Q4688.9 922.265 4688.9 939.765 Q4688.9 957.218 4682.75 966.431 Q4676.64 975.598 4665.02 975.598 Q4653.4 975.598 4647.24 966.431 Q4641.13 957.218 4641.13 939.765 Q4641.13 922.265 4647.24 913.098 Q4653.4 903.885 4665.02 903.885 Z" fill="#000000" fill-rule="nonzero" fill-opacity="1" /><path clip-path="url(#clip060)" d="M2423.87 1040.69 L2489.65 1040.69 L2489.65 1049.54 L2462.05 1049.54 L2462.05 1118.45 L2451.48 1118.45 L2451.48 1049.54 L2423.87 1049.54 L2423.87 1040.69 Z" fill="#000000" fill-rule="nonzero" fill-opacity="1" /><path clip-path="url(#clip060)" d="M2496.11 1060.11 L2505.7 1060.11 L2505.7 1118.45 L2496.11 1118.45 L2496.11 1060.11 M2496.11 1037.41 L2505.7 1037.41 L2505.7 1049.54 L2496.11 1049.54 L2496.11 1037.41 Z" fill="#000000" fill-rule="nonzero" fill-opacity="1" /><path clip-path="url(#clip060)" d="M2571.16 1071.31 Q2574.76 1064.85 2579.76 1061.78 Q2584.76 1058.71 2591.53 1058.71 Q2600.64 1058.71 2605.59 1065.11 Q2610.54 1071.47 2610.54 1083.24 L2610.54 1118.45 L2600.9 1118.45 L2600.9 1083.55 Q2600.9 1075.17 2597.94 1071.1 Q2594.97 1067.04 2588.87 1067.04 Q2581.42 1067.04 2577.1 1071.99 Q2572.78 1076.94 2572.78 1085.48 L2572.78 1118.45 L2563.14 1118.45 L2563.14 1083.55 Q2563.14 1075.11 2560.17 1071.1 Q2557.21 1067.04 2551.01 1067.04 Q2543.66 1067.04 2539.34 1072.04 Q2535.02 1076.99 2535.02 1085.48 L2535.02 1118.45 L2525.38 1118.45 L2525.38 1060.11 L2535.02 1060.11 L2535.02 1069.18 Q2538.3 1063.81 2542.88 1061.26 Q2547.47 1058.71 2553.77 1058.71 Q2560.12 1058.71 2564.55 1061.94 Q2569.03 1065.17 2571.16 1071.31 Z" fill="#000000" fill-rule="nonzero" fill-opacity="1" /><path clip-path="url(#clip060)" d="M2679.55 1086.89 L2679.55 1091.57 L2635.49 1091.57 Q2636.11 1101.47 2641.42 1106.68 Q2646.79 1111.83 2656.32 1111.83 Q2661.84 1111.83 2667 1110.48 Q2672.21 1109.12 2677.31 1106.42 L2677.31 1115.48 Q2672.15 1117.67 2666.74 1118.81 Q2661.32 1119.96 2655.75 1119.96 Q2641.79 1119.96 2633.61 1111.83 Q2625.49 1103.71 2625.49 1089.85 Q2625.49 1075.53 2633.2 1067.15 Q2640.96 1058.71 2654.08 1058.71 Q2665.85 1058.71 2672.67 1066.31 Q2679.55 1073.86 2679.55 1086.89 M2669.97 1084.07 Q2669.86 1076.21 2665.54 1071.52 Q2661.27 1066.83 2654.18 1066.83 Q2646.16 1066.83 2641.32 1071.36 Q2636.53 1075.9 2635.8 1084.12 L2669.97 1084.07 Z" fill="#000000" fill-rule="nonzero" fill-opacity="1" /><path clip-path="url(#clip060)" d="M2752.21 1037.51 Q2745.23 1049.49 2741.84 1061.21 Q2738.46 1072.93 2738.46 1084.96 Q2738.46 1096.99 2741.84 1108.81 Q2745.28 1120.58 2752.21 1132.51 L2743.87 1132.51 Q2736.06 1120.27 2732.15 1108.45 Q2728.3 1096.62 2728.3 1084.96 Q2728.3 1073.34 2732.15 1061.57 Q2736.01 1049.8 2743.87 1037.51 L2752.21 1037.51 Z" fill="#000000" fill-rule="nonzero" fill-opacity="1" /><path clip-path="url(#clip060)" d="M2809.18 1068.97 L2809.18 1037.41 L2818.77 1037.41 L2818.77 1118.45 L2809.18 1118.45 L2809.18 1109.7 Q2806.16 1114.91 2801.53 1117.46 Q2796.94 1119.96 2790.49 1119.96 Q2779.91 1119.96 2773.25 1111.52 Q2766.63 1103.08 2766.63 1089.33 Q2766.63 1075.58 2773.25 1067.15 Q2779.91 1058.71 2790.49 1058.71 Q2796.94 1058.71 2801.53 1061.26 Q2806.16 1063.76 2809.18 1068.97 M2776.53 1089.33 Q2776.53 1099.91 2780.85 1105.95 Q2785.23 1111.94 2792.83 1111.94 Q2800.43 1111.94 2804.81 1105.95 Q2809.18 1099.91 2809.18 1089.33 Q2809.18 1078.76 2804.81 1072.77 Q2800.43 1066.73 2792.83 1066.73 Q2785.23 1066.73 2780.85 1072.77 Q2776.53 1078.76 2776.53 1089.33 Z" fill="#000000" fill-rule="nonzero" fill-opacity="1" /><path clip-path="url(#clip060)" d="M2865.02 1089.12 Q2853.4 1089.12 2848.92 1091.78 Q2844.44 1094.44 2844.44 1100.84 Q2844.44 1105.95 2847.78 1108.97 Q2851.16 1111.94 2856.94 1111.94 Q2864.91 1111.94 2869.7 1106.31 Q2874.55 1100.64 2874.55 1091.26 L2874.55 1089.12 L2865.02 1089.12 M2884.13 1085.17 L2884.13 1118.45 L2874.55 1118.45 L2874.55 1109.59 Q2871.27 1114.91 2866.37 1117.46 Q2861.48 1119.96 2854.39 1119.96 Q2845.43 1119.96 2840.12 1114.96 Q2834.86 1109.91 2834.86 1101.47 Q2834.86 1091.62 2841.42 1086.62 Q2848.04 1081.62 2861.11 1081.62 L2874.55 1081.62 L2874.55 1080.69 Q2874.55 1074.07 2870.17 1070.48 Q2865.85 1066.83 2857.99 1066.83 Q2852.99 1066.83 2848.25 1068.03 Q2843.51 1069.23 2839.13 1071.62 L2839.13 1062.77 Q2844.39 1060.74 2849.34 1059.75 Q2854.29 1058.71 2858.98 1058.71 Q2871.63 1058.71 2877.88 1065.27 Q2884.13 1071.83 2884.13 1085.17 Z" fill="#000000" fill-rule="nonzero" fill-opacity="1" /><path clip-path="url(#clip060)" d="M2928.14 1123.86 Q2924.08 1134.28 2920.23 1137.46 Q2916.37 1140.63 2909.91 1140.63 L2902.26 1140.63 L2902.26 1132.61 L2907.88 1132.61 Q2911.84 1132.61 2914.03 1130.74 Q2916.21 1128.86 2918.87 1121.88 L2920.59 1117.51 L2897 1060.11 L2907.15 1060.11 L2925.38 1105.74 L2943.61 1060.11 L2953.77 1060.11 L2928.14 1123.86 Z" fill="#000000" fill-rule="nonzero" fill-opacity="1" /><path clip-path="url(#clip060)" d="M2965.49 1037.51 L2973.82 1037.51 Q2981.63 1049.8 2985.49 1061.57 Q2989.39 1073.34 2989.39 1084.96 Q2989.39 1096.62 2985.49 1108.45 Q2981.63 1120.27 2973.82 1132.51 L2965.49 1132.51 Q2972.41 1120.58 2975.8 1108.81 Q2979.24 1096.99 2979.24 1084.96 Q2979.24 1072.93 2975.8 1061.21 Q2972.41 1049.49 2965.49 1037.51 Z" fill="#000000" fill-rule="nonzero" fill-opacity="1" /><polyline clip-path="url(#clip060)" style="stroke:#000000; stroke-linecap:round; stroke-linejoin:round; stroke-width:4; stroke-opacity:1; fill:none" points="660.509,849.455 660.509,47.2441 "/>
<polyline clip-path="url(#clip060)" style="stroke:#000000; stroke-linecap:round; stroke-linejoin:round; stroke-width:4; stroke-opacity:1; fill:none" points="660.509,827.123 679.407,827.123 "/>
<polyline clip-path="url(#clip060)" style="stroke:#000000; stroke-linecap:round; stroke-linejoin:round; stroke-width:4; stroke-opacity:1; fill:none" points="660.509,663.562 679.407,663.562 "/>
<polyline clip-path="url(#clip060)" style="stroke:#000000; stroke-linecap:round; stroke-linejoin:round; stroke-width:4; stroke-opacity:1; fill:none" points="660.509,500 679.407,500 "/>
<polyline clip-path="url(#clip060)" style="stroke:#000000; stroke-linecap:round; stroke-linejoin:round; stroke-width:4; stroke-opacity:1; fill:none" points="660.509,336.439 679.407,336.439 "/>
<polyline clip-path="url(#clip060)" style="stroke:#000000; stroke-linecap:round; stroke-linejoin:round; stroke-width:4; stroke-opacity:1; fill:none" points="660.509,172.878 679.407,172.878 "/>
<path clip-path="url(#clip060)" d="M564.62 798.72 Q557.398 798.72 553.741 805.85 Q550.13 812.933 550.13 827.192 Q550.13 841.405 553.741 848.535 Q557.398 855.618 564.62 855.618 Q571.889 855.618 575.5 848.535 Q579.157 841.405 579.157 827.192 Q579.157 812.933 575.5 805.85 Q571.889 798.72 564.62 798.72 M564.62 791.313 Q576.241 791.313 582.352 800.526 Q588.509 809.692 588.509 827.192 Q588.509 844.646 582.352 853.859 Q576.241 863.025 564.62 863.025 Q553 863.025 546.843 853.859 Q540.731 844.646 540.731 827.192 Q540.731 809.692 546.843 800.526 Q553 791.313 564.62 791.313 Z" fill="#000000" fill-rule="nonzero" fill-opacity="1" /><path clip-path="url(#clip060)" d="M225.785 703.146 L258.424 703.146 L258.424 711.017 L214.535 711.017 L214.535 703.146 Q219.859 697.637 229.026 688.378 Q238.239 679.072 240.6 676.387 Q245.091 671.341 246.85 667.869 Q248.655 664.35 248.655 660.971 Q248.655 655.461 244.767 651.989 Q240.924 648.517 234.72 648.517 Q230.322 648.517 225.415 650.045 Q220.554 651.573 214.998 654.674 L214.998 645.23 Q220.646 642.962 225.554 641.804 Q230.461 640.647 234.535 640.647 Q245.276 640.647 251.665 646.017 Q258.054 651.387 258.054 660.369 Q258.054 664.628 256.433 668.471 Q254.859 672.267 250.646 677.452 Q249.489 678.795 243.285 685.23 Q237.081 691.619 225.785 703.146 Z" fill="#000000" fill-rule="nonzero" fill-opacity="1" /><path clip-path="url(#clip060)" d="M278.053 699.258 L287.822 699.258 L287.822 711.017 L278.053 711.017 L278.053 699.258 Z" fill="#000000" fill-rule="nonzero" fill-opacity="1" /><path clip-path="url(#clip060)" d="M328.192 648.054 Q320.97 648.054 317.313 655.184 Q313.701 662.267 313.701 676.526 Q313.701 690.739 317.313 697.869 Q320.97 704.952 328.192 704.952 Q335.461 704.952 339.072 697.869 Q342.729 690.739 342.729 676.526 Q342.729 662.267 339.072 655.184 Q335.461 648.054 328.192 648.054 M328.192 640.647 Q339.812 640.647 345.923 649.86 Q352.081 659.026 352.081 676.526 Q352.081 693.98 345.923 703.193 Q339.812 712.359 328.192 712.359 Q316.572 712.359 310.414 703.193 Q304.303 693.98 304.303 676.526 Q304.303 659.026 310.414 649.86 Q316.572 640.647 328.192 640.647 Z" fill="#000000" fill-rule="nonzero" fill-opacity="1" /><path clip-path="url(#clip060)" d="M424.858 660.091 L403.701 681.341 L424.858 702.498 L419.349 708.1 L398.099 686.85 L376.849 708.1 L371.386 702.498 L392.497 681.341 L371.386 660.091 L376.849 654.489 L398.099 675.739 L419.349 654.489 L424.858 660.091 Z" fill="#000000" fill-rule="nonzero" fill-opacity="1" /><path clip-path="url(#clip060)" d="M449.58 703.146 L464.858 703.146 L464.858 650.415 L448.238 653.749 L448.238 645.23 L464.765 641.897 L474.117 641.897 L474.117 703.146 L489.395 703.146 L489.395 711.017 L449.58 711.017 L449.58 703.146 Z" fill="#000000" fill-rule="nonzero" fill-opacity="1" /><path clip-path="url(#clip060)" d="M528.284 648.054 Q521.061 648.054 517.404 655.184 Q513.793 662.267 513.793 676.526 Q513.793 690.739 517.404 697.869 Q521.061 704.952 528.284 704.952 Q535.552 704.952 539.163 697.869 Q542.821 690.739 542.821 676.526 Q542.821 662.267 539.163 655.184 Q535.552 648.054 528.284 648.054 M528.284 640.647 Q539.904 640.647 546.015 649.86 Q552.172 659.026 552.172 676.526 Q552.172 693.98 546.015 703.193 Q539.904 712.359 528.284 712.359 Q516.663 712.359 510.506 703.193 Q504.395 693.98 504.395 676.526 Q504.395 659.026 510.506 649.86 Q516.663 640.647 528.284 640.647 Z" fill="#000000" fill-rule="nonzero" fill-opacity="1" /><path clip-path="url(#clip060)" d="M554.542 600.036 L584.371 600.036 L584.371 606.431 L561.501 606.431 L561.501 620.198 Q563.156 619.634 564.811 619.37 Q566.466 619.069 568.121 619.069 Q577.525 619.069 583.017 624.223 Q588.509 629.376 588.509 638.178 Q588.509 647.243 582.867 652.284 Q577.224 657.287 566.955 657.287 Q563.419 657.287 559.733 656.685 Q556.084 656.083 552.172 654.879 L552.172 647.243 Q555.558 649.087 559.169 649.989 Q562.78 650.892 566.805 650.892 Q573.312 650.892 577.111 647.469 Q580.911 644.046 580.911 638.178 Q580.911 632.31 577.111 628.887 Q573.312 625.464 566.805 625.464 Q563.758 625.464 560.711 626.141 Q557.702 626.818 554.542 628.248 L554.542 600.036 Z" fill="#000000" fill-rule="nonzero" fill-opacity="1" /><path clip-path="url(#clip060)" d="M243.424 486.484 L219.813 523.382 L243.424 523.382 L243.424 486.484 M240.97 478.335 L252.73 478.335 L252.73 523.382 L262.591 523.382 L262.591 531.159 L252.73 531.159 L252.73 547.455 L243.424 547.455 L243.424 531.159 L212.22 531.159 L212.22 522.132 L240.97 478.335 Z" fill="#000000" fill-rule="nonzero" fill-opacity="1" /><path clip-path="url(#clip060)" d="M278.053 535.696 L287.822 535.696 L287.822 547.455 L278.053 547.455 L278.053 535.696 Z" fill="#000000" fill-rule="nonzero" fill-opacity="1" /><path clip-path="url(#clip060)" d="M328.192 484.493 Q320.97 484.493 317.313 491.622 Q313.701 498.706 313.701 512.965 Q313.701 527.178 317.313 534.307 Q320.97 541.391 328.192 541.391 Q335.461 541.391 339.072 534.307 Q342.729 527.178 342.729 512.965 Q342.729 498.706 339.072 491.622 Q335.461 484.493 328.192 484.493 M328.192 477.085 Q339.812 477.085 345.923 486.298 Q352.081 495.465 352.081 512.965 Q352.081 530.419 345.923 539.631 Q339.812 548.798 328.192 548.798 Q316.572 548.798 310.414 539.631 Q304.303 530.419 304.303 512.965 Q304.303 495.465 310.414 486.298 Q316.572 477.085 328.192 477.085 Z" fill="#000000" fill-rule="nonzero" fill-opacity="1" /><path clip-path="url(#clip060)" d="M424.858 496.53 L403.701 517.78 L424.858 538.937 L419.349 544.539 L398.099 523.289 L376.849 544.539 L371.386 538.937 L392.497 517.78 L371.386 496.53 L376.849 490.928 L398.099 512.178 L419.349 490.928 L424.858 496.53 Z" fill="#000000" fill-rule="nonzero" fill-opacity="1" /><path clip-path="url(#clip060)" d="M449.58 539.585 L464.858 539.585 L464.858 486.854 L448.238 490.187 L448.238 481.669 L464.765 478.335 L474.117 478.335 L474.117 539.585 L489.395 539.585 L489.395 547.455 L449.58 547.455 L449.58 539.585 Z" fill="#000000" fill-rule="nonzero" fill-opacity="1" /><path clip-path="url(#clip060)" d="M528.284 484.493 Q521.061 484.493 517.404 491.622 Q513.793 498.706 513.793 512.965 Q513.793 527.178 517.404 534.307 Q521.061 541.391 528.284 541.391 Q535.552 541.391 539.163 534.307 Q542.821 527.178 542.821 512.965 Q542.821 498.706 539.163 491.622 Q535.552 484.493 528.284 484.493 M528.284 477.085 Q539.904 477.085 546.015 486.298 Q552.172 495.465 552.172 512.965 Q552.172 530.419 546.015 539.631 Q539.904 548.798 528.284 548.798 Q516.663 548.798 510.506 539.631 Q504.395 530.419 504.395 512.965 Q504.395 495.465 510.506 486.298 Q516.663 477.085 528.284 477.085 Z" fill="#000000" fill-rule="nonzero" fill-opacity="1" /><path clip-path="url(#clip060)" d="M554.542 436.475 L584.371 436.475 L584.371 442.869 L561.501 442.869 L561.501 456.637 Q563.156 456.072 564.811 455.809 Q566.466 455.508 568.121 455.508 Q577.525 455.508 583.017 460.661 Q588.509 465.815 588.509 474.617 Q588.509 483.682 582.867 488.723 Q577.224 493.726 566.955 493.726 Q563.419 493.726 559.733 493.124 Q556.084 492.522 552.172 491.318 L552.172 483.682 Q555.558 485.525 559.169 486.428 Q562.78 487.331 566.805 487.331 Q573.312 487.331 577.111 483.908 Q580.911 480.485 580.911 474.617 Q580.911 468.749 577.111 465.326 Q573.312 461.903 566.805 461.903 Q563.758 461.903 560.711 462.58 Q557.702 463.257 554.542 464.686 L554.542 436.475 Z" fill="#000000" fill-rule="nonzero" fill-opacity="1" /><path clip-path="url(#clip060)" d="M238.887 345.607 Q232.591 345.607 228.887 349.913 Q225.23 354.218 225.23 361.718 Q225.23 369.172 228.887 373.524 Q232.591 377.829 238.887 377.829 Q245.183 377.829 248.841 373.524 Q252.544 369.172 252.544 361.718 Q252.544 354.218 248.841 349.913 Q245.183 345.607 238.887 345.607 M257.452 316.302 L257.452 324.82 Q253.933 323.154 250.322 322.274 Q246.757 321.395 243.239 321.395 Q233.98 321.395 229.072 327.645 Q224.211 333.894 223.517 346.533 Q226.248 342.506 230.369 340.376 Q234.489 338.2 239.443 338.2 Q249.859 338.2 255.878 344.543 Q261.942 350.839 261.942 361.718 Q261.942 372.367 255.646 378.802 Q249.35 385.237 238.887 385.237 Q226.896 385.237 220.554 376.07 Q214.211 366.857 214.211 349.404 Q214.211 333.015 221.989 323.293 Q229.767 313.524 242.868 313.524 Q246.387 313.524 249.952 314.219 Q253.563 314.913 257.452 316.302 Z" fill="#000000" fill-rule="nonzero" fill-opacity="1" /><path clip-path="url(#clip060)" d="M278.053 372.135 L287.822 372.135 L287.822 383.894 L278.053 383.894 L278.053 372.135 Z" fill="#000000" fill-rule="nonzero" fill-opacity="1" /><path clip-path="url(#clip060)" d="M328.192 320.932 Q320.97 320.932 317.313 328.061 Q313.701 335.144 313.701 349.404 Q313.701 363.617 317.313 370.746 Q320.97 377.829 328.192 377.829 Q335.461 377.829 339.072 370.746 Q342.729 363.617 342.729 349.404 Q342.729 335.144 339.072 328.061 Q335.461 320.932 328.192 320.932 M328.192 313.524 Q339.812 313.524 345.923 322.737 Q352.081 331.904 352.081 349.404 Q352.081 366.857 345.923 376.07 Q339.812 385.237 328.192 385.237 Q316.572 385.237 310.414 376.07 Q304.303 366.857 304.303 349.404 Q304.303 331.904 310.414 322.737 Q316.572 313.524 328.192 313.524 Z" fill="#000000" fill-rule="nonzero" fill-opacity="1" /><path clip-path="url(#clip060)" d="M424.858 332.969 L403.701 354.218 L424.858 375.376 L419.349 380.978 L398.099 359.728 L376.849 380.978 L371.386 375.376 L392.497 354.218 L371.386 332.969 L376.849 327.367 L398.099 348.617 L419.349 327.367 L424.858 332.969 Z" fill="#000000" fill-rule="nonzero" fill-opacity="1" /><path clip-path="url(#clip060)" d="M449.58 376.024 L464.858 376.024 L464.858 323.293 L448.238 326.626 L448.238 318.108 L464.765 314.774 L474.117 314.774 L474.117 376.024 L489.395 376.024 L489.395 383.894 L449.58 383.894 L449.58 376.024 Z" fill="#000000" fill-rule="nonzero" fill-opacity="1" /><path clip-path="url(#clip060)" d="M528.284 320.932 Q521.061 320.932 517.404 328.061 Q513.793 335.144 513.793 349.404 Q513.793 363.617 517.404 370.746 Q521.061 377.829 528.284 377.829 Q535.552 377.829 539.163 370.746 Q542.821 363.617 542.821 349.404 Q542.821 335.144 539.163 328.061 Q535.552 320.932 528.284 320.932 M528.284 313.524 Q539.904 313.524 546.015 322.737 Q552.172 331.904 552.172 349.404 Q552.172 366.857 546.015 376.07 Q539.904 385.237 528.284 385.237 Q516.663 385.237 510.506 376.07 Q504.395 366.857 504.395 349.404 Q504.395 331.904 510.506 322.737 Q516.663 313.524 528.284 313.524 Z" fill="#000000" fill-rule="nonzero" fill-opacity="1" /><path clip-path="url(#clip060)" d="M554.542 272.913 L584.371 272.913 L584.371 279.308 L561.501 279.308 L561.501 293.075 Q563.156 292.511 564.811 292.248 Q566.466 291.947 568.121 291.947 Q577.525 291.947 583.017 297.1 Q588.509 302.254 588.509 311.056 Q588.509 320.121 582.867 325.161 Q577.224 330.164 566.955 330.164 Q563.419 330.164 559.733 329.562 Q556.084 328.961 552.172 327.757 L552.172 320.121 Q555.558 321.964 559.169 322.867 Q562.78 323.77 566.805 323.77 Q573.312 323.77 577.111 320.347 Q580.911 316.924 580.911 311.056 Q580.911 305.188 577.111 301.765 Q573.312 298.342 566.805 298.342 Q563.758 298.342 560.711 299.019 Q557.702 299.696 554.542 301.125 L554.542 272.913 Z" fill="#000000" fill-rule="nonzero" fill-opacity="1" /><path clip-path="url(#clip060)" d="M237.73 187.509 Q231.063 187.509 227.22 191.074 Q223.424 194.639 223.424 200.889 Q223.424 207.139 227.22 210.703 Q231.063 214.268 237.73 214.268 Q244.396 214.268 248.239 210.703 Q252.081 207.092 252.081 200.889 Q252.081 194.639 248.239 191.074 Q244.443 187.509 237.73 187.509 M228.378 183.528 Q222.359 182.046 218.98 177.926 Q215.646 173.805 215.646 167.88 Q215.646 159.593 221.526 154.778 Q227.452 149.963 237.73 149.963 Q248.054 149.963 253.933 154.778 Q259.813 159.593 259.813 167.88 Q259.813 173.805 256.433 177.926 Q253.1 182.046 247.128 183.528 Q253.887 185.102 257.637 189.685 Q261.433 194.268 261.433 200.889 Q261.433 210.935 255.276 216.305 Q249.165 221.676 237.73 221.676 Q226.294 221.676 220.137 216.305 Q214.026 210.935 214.026 200.889 Q214.026 194.268 217.822 189.685 Q221.619 185.102 228.378 183.528 M224.952 168.759 Q224.952 174.13 228.285 177.139 Q231.665 180.148 237.73 180.148 Q243.748 180.148 247.128 177.139 Q250.554 174.13 250.554 168.759 Q250.554 163.389 247.128 160.38 Q243.748 157.37 237.73 157.37 Q231.665 157.37 228.285 160.38 Q224.952 163.389 224.952 168.759 Z" fill="#000000" fill-rule="nonzero" fill-opacity="1" /><path clip-path="url(#clip060)" d="M278.053 208.574 L287.822 208.574 L287.822 220.333 L278.053 220.333 L278.053 208.574 Z" fill="#000000" fill-rule="nonzero" fill-opacity="1" /><path clip-path="url(#clip060)" d="M328.192 157.37 Q320.97 157.37 317.313 164.5 Q313.701 171.583 313.701 185.842 Q313.701 200.055 317.313 207.185 Q320.97 214.268 328.192 214.268 Q335.461 214.268 339.072 207.185 Q342.729 200.055 342.729 185.842 Q342.729 171.583 339.072 164.5 Q335.461 157.37 328.192 157.37 M328.192 149.963 Q339.812 149.963 345.923 159.176 Q352.081 168.343 352.081 185.842 Q352.081 203.296 345.923 212.509 Q339.812 221.676 328.192 221.676 Q316.572 221.676 310.414 212.509 Q304.303 203.296 304.303 185.842 Q304.303 168.343 310.414 159.176 Q316.572 149.963 328.192 149.963 Z" fill="#000000" fill-rule="nonzero" fill-opacity="1" /><path clip-path="url(#clip060)" d="M424.858 169.407 L403.701 190.657 L424.858 211.815 L419.349 217.416 L398.099 196.166 L376.849 217.416 L371.386 211.815 L392.497 190.657 L371.386 169.407 L376.849 163.806 L398.099 185.055 L419.349 163.806 L424.858 169.407 Z" fill="#000000" fill-rule="nonzero" fill-opacity="1" /><path clip-path="url(#clip060)" d="M449.58 212.463 L464.858 212.463 L464.858 159.731 L448.238 163.065 L448.238 154.546 L464.765 151.213 L474.117 151.213 L474.117 212.463 L489.395 212.463 L489.395 220.333 L449.58 220.333 L449.58 212.463 Z" fill="#000000" fill-rule="nonzero" fill-opacity="1" /><path clip-path="url(#clip060)" d="M528.284 157.37 Q521.061 157.37 517.404 164.5 Q513.793 171.583 513.793 185.842 Q513.793 200.055 517.404 207.185 Q521.061 214.268 528.284 214.268 Q535.552 214.268 539.163 207.185 Q542.821 200.055 542.821 185.842 Q542.821 171.583 539.163 164.5 Q535.552 157.37 528.284 157.37 M528.284 149.963 Q539.904 149.963 546.015 159.176 Q552.172 168.343 552.172 185.842 Q552.172 203.296 546.015 212.509 Q539.904 221.676 528.284 221.676 Q516.663 221.676 510.506 212.509 Q504.395 203.296 504.395 185.842 Q504.395 168.343 510.506 159.176 Q516.663 149.963 528.284 149.963 Z" fill="#000000" fill-rule="nonzero" fill-opacity="1" /><path clip-path="url(#clip060)" d="M554.542 109.352 L584.371 109.352 L584.371 115.747 L561.501 115.747 L561.501 129.514 Q563.156 128.95 564.811 128.687 Q566.466 128.386 568.121 128.386 Q577.525 128.386 583.017 133.539 Q588.509 138.692 588.509 147.494 Q588.509 156.56 582.867 161.6 Q577.224 166.603 566.955 166.603 Q563.419 166.603 559.733 166.001 Q556.084 165.399 552.172 164.196 L552.172 156.56 Q555.558 158.403 559.169 159.306 Q562.78 160.208 566.805 160.208 Q573.312 160.208 577.111 156.785 Q580.911 153.362 580.911 147.494 Q580.911 141.626 577.111 138.203 Q573.312 134.78 566.805 134.78 Q563.758 134.78 560.711 135.457 Q557.702 136.134 554.542 137.564 L554.542 109.352 Z" fill="#000000" fill-rule="nonzero" fill-opacity="1" /><path clip-path="url(#clip062)" d="M776.327 826.751 L792.413 825.404 L808.499 824.314 L824.585 823.268 L840.671 822.26 L856.757 821.152 L872.843 818.309 L888.928 812.699 L905.014 810.082 L921.1 808.955 L937.186 807.834 L953.272 806.733 L969.358 805.685 L985.444 804.716 L1001.53 803.84 L1017.62 803.062 L1033.7 802.378 L1049.79 801.776 L1065.87 801.245 L1081.96 800.77 L1098.04 800.341 L1114.13 799.936 L1130.22 799.546 L1146.3 799.167 L1162.39 798.801 L1178.47 798.447 L1194.56 798.105 L1210.65 797.774 L1226.73 797.455 L1242.82 797.146 L1258.9 796.848 L1274.99 796.565 L1291.08 796.311 L1307.16 796.08 L1323.25 795.873 L1339.33 795.694 L1355.42 795.544 L1371.5 795.42 L1387.59 795.316 L1403.68 795.224 L1419.76 795.132 L1435.85 795.032 L1451.93 794.913 L1468.02 794.771 L1484.11 794.629 L1500.19 794.495 L1516.28 794.365 L1532.36 794.239 L1548.45 794.117 L1564.54 793.999 L1580.62 793.885 L1596.71 793.776 L1612.79 793.67 L1628.88 793.569 L1644.96 793.473 L1661.05 793.398 L1677.14 793.372 L1693.22 793.392 L1709.31 793.453 L1725.39 793.547 L1741.48 793.663 L1757.57 793.791 L1773.65 793.918 L1789.74 794.033 L1805.82 794.124 L1821.91 794.18 L1838 794.195 L1854.08 794.166 L1870.17 794.121 L1886.25 794.075 L1902.34 794.03 L1918.42 793.985 L1934.51 793.941 L1950.6 793.899 L1966.68 793.858 L1982.77 793.82 L1998.85 793.783 L2014.94 793.748 L2031.03 793.717 L2047.11 793.705 L2063.2 793.743 L2079.28 793.83 L2095.37 793.96 L2111.46 794.122 L2127.54 794.305 L2143.63 794.497 L2159.71 794.683 L2175.8 794.852 L2191.88 794.993 L2207.97 795.096 L2224.06 795.155 L2240.14 795.168 L2256.23 795.162 L2272.31 795.152 L2288.4 795.14 L2304.49 795.126 L2320.57 795.111 L2336.66 795.097 L2352.74 795.083 L2368.83 795.07 L2384.91 795.057 L2401 795.046 L2417.09 795.037 L2433.17 795.045 L2449.26 795.1 L2465.34 795.2 L2481.43 795.339 L2497.52 795.504 L2513.6 795.679 L2529.69 795.853 L2545.77 796.016 L2561.86 796.159 L2577.95 796.277 L2594.03 796.365 L2610.12 796.422 L2626.2 796.447 L2642.29 796.461 L2658.37 796.471 L2674.46 796.479 L2690.55 796.484 L2706.63 796.489 L2722.72 796.492 L2738.8 796.495 L2754.89 796.498 L2770.98 796.501 L2787.06 796.504 L2803.15 796.503 L2819.23 796.502 L2835.32 796.547 L2851.41 796.632 L2867.49 796.744 L2883.58 796.869 L2899.66 797 L2915.75 797.133 L2931.83 797.26 L2947.92 797.373 L2964.01 797.469 L2980.09 797.542 L2996.18 797.588 L3012.26 797.609 L3028.35 797.621 L3044.44 797.632 L3060.52 797.64 L3076.61 797.648 L3092.69 797.655 L3108.78 797.663 L3124.87 797.671 L3140.95 797.679 L3157.04 797.688 L3173.12 797.696 L3189.21 797.701 L3205.29 797.694 L3221.38 797.716 L3237.47 797.779 L3253.55 797.868 L3269.64 797.975 L3285.72 798.091 L3301.81 798.21 L3317.9 798.326 L3333.98 798.43 L3350.07 798.518 L3366.15 798.586 L3382.24 798.629 L3398.33 798.648 L3414.41 798.66 L3430.5 798.67 L3446.58 798.679 L3462.67 798.687 L3478.75 798.694 L3494.84 798.702 L3510.93 798.711 L3527.01 798.719 L3543.1 798.729 L3559.18 798.738 L3575.27 798.744 L3591.36 798.737 L3607.44 798.752 L3623.53 798.81 L3639.61 798.893 L3655.7 798.993 L3671.79 799.104 L3687.87 799.217 L3703.96 799.327 L3720.04 799.427 L3736.13 799.512 L3752.21 799.576 L3768.3 799.617 L3784.39 799.637 L3800.47 799.649 L3816.56 799.659 L3832.64 799.668 L3848.73 799.675 L3864.82 799.682 L3880.9 799.69 L3896.99 799.698 L3913.07 799.707 L3929.16 799.717 L3945.24 799.726 L3961.33 799.733 L3977.42 799.726 L3993.5 799.74 L4009.59 799.795 L4025.67 799.874 L4041.76 799.971 L4057.85 800.076 L4073.93 800.185 L4090.02 800.291 L4106.1 800.387 L4122.19 800.468 L4138.28 800.53 L4154.36 800.57 L4170.45 800.589 L4186.53 800.6 L4202.62 800.61 L4218.7 800.619 L4234.79 800.626 L4250.88 800.633 L4266.96 800.641 L4283.05 800.649 L4299.13 800.657 L4315.22 800.667 L4331.31 800.676 L4347.39 800.683 L4363.48 800.677 L4379.56 800.691 L4395.65 800.743 L4411.74 800.819 L4427.82 800.911 L4443.91 801.013 L4459.99 801.118 L4476.08 801.219 L4492.16 801.311 L4508.25 801.39 L4524.34 801.449 L4540.42 801.488 L4556.51 801.506 L4572.59 801.517 L4588.68 801.527 L4604.77 801.535 L4620.85 801.542 L4636.94 801.549 L4636.94 269.618 L4620.85 269.413 L4604.77 269.209 L4588.68 269.006 L4572.59 268.805 L4556.51 268.606 L4540.42 268.232 L4524.34 267.353 L4508.25 265.969 L4492.16 264.144 L4476.08 261.974 L4459.99 259.579 L4443.91 257.094 L4427.82 254.665 L4411.74 252.433 L4395.65 250.533 L4379.56 249.094 L4363.48 248.294 L4347.39 249.227 L4331.31 249.028 L4315.22 248.823 L4299.13 248.615 L4283.05 248.404 L4266.96 248.191 L4250.88 247.978 L4234.79 247.765 L4218.7 247.553 L4202.62 247.342 L4186.53 247.134 L4170.45 246.927 L4154.36 246.54 L4138.28 245.627 L4122.19 244.191 L4106.1 242.296 L4090.02 240.042 L4073.93 237.553 L4057.85 234.973 L4041.76 232.449 L4025.67 230.13 L4009.59 228.155 L3993.5 226.658 L3977.42 225.822 L3961.33 226.796 L3945.24 226.59 L3929.16 226.378 L3913.07 226.162 L3896.99 225.943 L3880.9 225.723 L3864.82 225.502 L3848.73 225.281 L3832.64 225.061 L3816.56 224.843 L3800.47 224.627 L3784.39 224.413 L3768.3 224.013 L3752.21 223.067 L3736.13 221.576 L3720.04 219.609 L3703.96 217.268 L3687.87 214.684 L3671.79 212.005 L3655.7 209.384 L3639.61 206.976 L3623.53 204.925 L3607.44 203.37 L3591.36 202.496 L3575.27 203.506 L3559.18 203.294 L3543.1 203.076 L3527.01 202.854 L3510.93 202.629 L3494.84 202.403 L3478.75 202.176 L3462.67 201.95 L3446.58 201.725 L3430.5 201.501 L3414.41 201.28 L3398.33 201.061 L3382.24 200.649 L3366.15 199.67 L3350.07 198.125 L3333.98 196.084 L3317.9 193.657 L3301.81 190.977 L3285.72 188.197 L3269.64 185.478 L3253.55 182.98 L3237.47 180.851 L3221.38 179.233 L3205.29 178.317 L3189.21 179.311 L3173.12 179.097 L3157.04 178.875 L3140.95 178.648 L3124.87 178.419 L3108.78 178.188 L3092.69 177.955 L3076.61 177.722 L3060.52 177.49 L3044.44 177.259 L3028.35 177.029 L3012.26 176.801 L2996.18 176.366 L2980.09 175.338 L2964.01 173.72 L2947.92 171.583 L2931.83 169.039 L2915.75 166.227 L2899.66 163.305 L2883.58 160.438 L2867.49 157.792 L2851.41 155.521 L2835.32 153.775 L2819.23 152.744 L2803.15 153.655 L2787.06 153.404 L2770.98 153.138 L2754.89 152.863 L2738.8 152.578 L2722.72 152.286 L2706.63 151.986 L2690.55 151.678 L2674.46 151.364 L2658.37 151.043 L2642.29 150.715 L2626.2 150.38 L2610.12 149.81 L2594.03 148.589 L2577.95 146.714 L2561.86 144.257 L2545.77 141.329 L2529.69 138.073 L2513.6 134.657 L2497.52 131.268 L2481.43 127.765 L2465.34 124.319 L2449.26 121.754 L2433.17 120.256 L2417.09 119.895 L2401 120.105 L2384.91 120.322 L2368.83 120.544 L2352.74 120.769 L2336.66 120.996 L2320.57 121.22 L2304.49 121.435 L2288.4 121.632 L2272.31 121.797 L2256.23 121.917 L2240.14 121.984 L2224.06 121.476 L2207.97 119.86 L2191.88 117.217 L2175.8 113.688 L2159.71 109.471 L2143.63 104.82 L2127.54 100.028 L2111.46 95.4103 L2095.37 91.2779 L2079.28 87.9148 L2063.2 85.5519 L2047.11 84.3505 L2031.03 84.3752 L2014.94 85.0216 L1998.85 85.6914 L1982.77 86.3819 L1966.68 87.094 L1950.6 87.8283 L1934.51 88.5852 L1918.42 89.3658 L1902.34 90.1707 L1886.25 91.0003 L1870.17 91.8558 L1854.08 92.7411 L1838 93.1026 L1821.91 92.3714 L1805.82 90.651 L1789.74 88.1178 L1773.65 85.0063 L1757.57 81.5934 L1741.48 78.1781 L1725.39 75.0585 L1709.31 72.5068 L1693.22 70.7484 L1677.14 69.9482 L1661.05 70.2082 L1644.96 71.6115 L1628.88 73.6329 L1612.79 75.7233 L1596.71 77.8813 L1580.62 80.1094 L1564.54 82.4103 L1548.45 84.7856 L1532.36 87.2384 L1516.28 89.771 L1500.19 92.3859 L1484.11 95.0898 L1468.02 97.9653 L1451.93 100.659 L1435.85 102.771 L1419.76 104.461 L1403.68 105.945 L1387.59 107.475 L1371.5 109.305 L1355.42 111.663 L1339.33 114.714 L1323.25 118.538 L1307.16 123.117 L1291.08 128.345 L1274.99 134.058 L1258.9 140.229 L1242.82 146.737 L1226.73 153.462 L1210.65 160.409 L1194.56 167.587 L1178.47 175.002 L1162.39 182.663 L1146.3 190.578 L1130.22 198.755 L1114.13 207.202 L1098.04 215.931 L1081.96 225.121 L1065.87 235.209 L1049.79 246.674 L1033.7 259.857 L1017.62 275.086 L1001.53 292.627 L985.444 312.614 L969.358 334.976 L953.272 359.383 L937.186 385.219 L921.1 411.612 L905.014 437.544 L888.928 463.495 L872.843 529.067 L856.757 683.114 L840.671 719.1 L824.585 741.822 L808.499 765.305 L792.413 789.583 L776.327 818.909  Z" fill="#aeaeae" fill-rule="evenodd" fill-opacity="0.5"/>
<polyline clip-path="url(#clip062)" style="stroke:#aeaeae; stroke-linecap:round; stroke-linejoin:round; stroke-width:0; stroke-opacity:1; fill:none" points="776.327,826.747 792.413,825.402 808.499,824.312 824.585,823.266 840.671,822.258 856.757,821.148 872.843,818.306 888.928,812.695 905.014,810.077 921.1,808.951 937.186,807.83 953.272,806.729 969.358,805.682 985.444,804.713 1001.53,803.838 1017.62,803.06 1033.7,802.374 1049.79,801.772 1065.87,801.24 1081.96,800.764 1098.04,800.335 1114.13,799.931 1130.22,799.541 1146.3,799.163 1162.39,798.798 1178.47,798.445 1194.56,798.103 1210.65,797.772 1226.73,797.452 1242.82,797.142 1258.9,796.843 1274.99,796.56 1291.08,796.305 1307.16,796.073 1323.25,795.866 1339.33,795.687 1355.42,795.538 1371.5,795.414 1387.59,795.31 1403.68,795.218 1419.76,795.125 1435.85,795.024 1451.93,794.904 1468.02,794.761 1484.11,794.619 1500.19,794.485 1516.28,794.356 1532.36,794.231 1548.45,794.11 1564.54,793.993 1580.62,793.879 1596.71,793.77 1612.79,793.664 1628.88,793.561 1644.96,793.464 1661.05,793.388 1677.14,793.361 1693.22,793.38 1709.31,793.441 1725.39,793.535 1741.48,793.651 1757.57,793.78 1773.65,793.907 1789.74,794.022 1805.82,794.112 1821.91,794.168 1838,794.182 1854.08,794.151 1870.17,794.106 1886.25,794.06 1902.34,794.015 1918.42,793.971 1934.51,793.928 1950.6,793.887 1966.68,793.847 1982.77,793.809 1998.85,793.771 2014.94,793.735 2031.03,793.703 2047.11,793.69 2063.2,793.726 2079.28,793.813 2095.37,793.942 2111.46,794.105 2127.54,794.289 2143.63,794.48 2159.71,794.667 2175.8,794.836 2191.88,794.976 2207.97,795.078 2224.06,795.137 2240.14,795.149 2256.23,795.142 2272.31,795.132 2288.4,795.12 2304.49,795.107 2320.57,795.094 2336.66,795.08 2352.74,795.067 2368.83,795.054 2384.91,795.041 2401,795.028 2417.09,795.018 2433.17,795.025 2449.26,795.078 2465.34,795.178 2481.43,795.316 2497.52,795.482 2513.6,795.658 2529.69,795.833 2545.77,795.995 2561.86,796.138 2577.95,796.256 2594.03,796.344 2610.12,796.399 2626.2,796.424 2642.29,796.437 2658.37,796.447 2674.46,796.455 2690.55,796.462 2706.63,796.467 2722.72,796.472 2738.8,796.475 2754.89,796.478 2770.98,796.48 2787.06,796.482 2803.15,796.479 2819.23,796.477 2835.32,796.521 2851.41,796.606 2867.49,796.717 2883.58,796.843 2899.66,796.975 2915.75,797.108 2931.83,797.235 2947.92,797.349 2964.01,797.444 2980.09,797.516 2996.18,797.562 3012.26,797.582 3028.35,797.594 3044.44,797.604 3060.52,797.613 3076.61,797.622 3092.69,797.63 3108.78,797.639 3124.87,797.647 3140.95,797.655 3157.04,797.663 3173.12,797.67 3189.21,797.674 3205.29,797.666 3221.38,797.686 3237.47,797.749 3253.55,797.839 3269.64,797.945 3285.72,798.062 3301.81,798.182 3317.9,798.298 3333.98,798.403 3350.07,798.49 3366.15,798.557 3382.24,798.599 3398.33,798.618 3414.41,798.629 3430.5,798.639 3446.58,798.649 3462.67,798.658 3478.75,798.666 3494.84,798.675 3510.93,798.684 3527.01,798.693 3543.1,798.702 3559.18,798.71 3575.27,798.714 3591.36,798.705 3607.44,798.72 3623.53,798.777 3639.61,798.86 3655.7,798.961 3671.79,799.072 3687.87,799.185 3703.96,799.296 3720.04,799.395 3736.13,799.479 3752.21,799.543 3768.3,799.584 3784.39,799.602 3800.47,799.613 3816.56,799.623 3832.64,799.633 3848.73,799.642 3864.82,799.651 3880.9,799.66 3896.99,799.669 3913.07,799.678 3929.16,799.687 3945.24,799.695 3961.33,799.7 3977.42,799.692 3993.5,799.704 4009.59,799.758 4025.67,799.837 4041.76,799.934 4057.85,800.04 4073.93,800.149 4090.02,800.255 4106.1,800.351 4122.19,800.431 4138.28,800.493 4154.36,800.532 4170.45,800.55 4186.53,800.561 4202.62,800.571 4218.7,800.58 4234.79,800.589 4250.88,800.598 4266.96,800.606 4283.05,800.615 4299.13,800.624 4315.22,800.633 4331.31,800.642 4347.39,800.647 4363.48,800.639 4379.56,800.651 4395.65,800.702 4411.74,800.778 4427.82,800.87 4443.91,800.972 4459.99,801.078 4476.08,801.179 4492.16,801.272 4508.25,801.35 4524.34,801.409 4540.42,801.446 4556.51,801.464 4572.59,801.474 4588.68,801.484 4604.77,801.493 4620.85,801.502 4636.94,801.51 "/>
<path clip-path="url(#clip062)" d="M776.327 826.75 L792.413 825.404 L808.499 824.313 L824.585 823.267 L840.671 822.259 L856.757 821.149 L872.843 818.306 L888.928 812.695 L905.014 810.077 L921.1 808.95 L937.186 807.828 L953.272 806.727 L969.358 805.679 L985.444 804.71 L1001.53 803.835 L1017.62 803.057 L1033.7 802.372 L1049.79 801.769 L1065.87 801.237 L1081.96 800.761 L1098.04 800.331 L1114.13 799.926 L1130.22 799.536 L1146.3 799.158 L1162.39 798.792 L1178.47 798.438 L1194.56 798.096 L1210.65 797.765 L1226.73 797.445 L1242.82 797.135 L1258.9 796.836 L1274.99 796.553 L1291.08 796.299 L1307.16 796.066 L1323.25 795.859 L1339.33 795.68 L1355.42 795.53 L1371.5 795.407 L1387.59 795.303 L1403.68 795.211 L1419.76 795.119 L1435.85 795.017 L1451.93 794.897 L1468.02 794.755 L1484.11 794.613 L1500.19 794.477 L1516.28 794.348 L1532.36 794.222 L1548.45 794.1 L1564.54 793.983 L1580.62 793.87 L1596.71 793.76 L1612.79 793.655 L1628.88 793.552 L1644.96 793.455 L1661.05 793.379 L1677.14 793.352 L1693.22 793.371 L1709.31 793.432 L1725.39 793.525 L1741.48 793.642 L1757.57 793.77 L1773.65 793.898 L1789.74 794.013 L1805.82 794.104 L1821.91 794.16 L1838 794.173 L1854.08 794.143 L1870.17 794.097 L1886.25 794.051 L1902.34 794.005 L1918.42 793.961 L1934.51 793.918 L1950.6 793.876 L1966.68 793.836 L1982.77 793.798 L1998.85 793.761 L2014.94 793.725 L2031.03 793.693 L2047.11 793.68 L2063.2 793.716 L2079.28 793.803 L2095.37 793.932 L2111.46 794.095 L2127.54 794.278 L2143.63 794.47 L2159.71 794.657 L2175.8 794.827 L2191.88 794.967 L2207.97 795.07 L2224.06 795.127 L2240.14 795.139 L2256.23 795.133 L2272.31 795.123 L2288.4 795.111 L2304.49 795.097 L2320.57 795.083 L2336.66 795.07 L2352.74 795.056 L2368.83 795.043 L2384.91 795.03 L2401 795.018 L2417.09 795.008 L2433.17 795.015 L2449.26 795.069 L2465.34 795.168 L2481.43 795.306 L2497.52 795.472 L2513.6 795.648 L2529.69 795.823 L2545.77 795.985 L2561.86 796.128 L2577.95 796.246 L2594.03 796.335 L2610.12 796.391 L2626.2 796.415 L2642.29 796.428 L2658.37 796.438 L2674.46 796.446 L2690.55 796.452 L2706.63 796.457 L2722.72 796.461 L2738.8 796.464 L2754.89 796.468 L2770.98 796.471 L2787.06 796.472 L2803.15 796.47 L2819.23 796.468 L2835.32 796.512 L2851.41 796.596 L2867.49 796.708 L2883.58 796.833 L2899.66 796.966 L2915.75 797.099 L2931.83 797.226 L2947.92 797.34 L2964.01 797.436 L2980.09 797.508 L2996.18 797.554 L3012.26 797.574 L3028.35 797.586 L3044.44 797.596 L3060.52 797.604 L3076.61 797.612 L3092.69 797.621 L3108.78 797.629 L3124.87 797.637 L3140.95 797.645 L3157.04 797.654 L3173.12 797.662 L3189.21 797.665 L3205.29 797.657 L3221.38 797.678 L3237.47 797.741 L3253.55 797.83 L3269.64 797.937 L3285.72 798.054 L3301.81 798.174 L3317.9 798.29 L3333.98 798.395 L3350.07 798.483 L3366.15 798.55 L3382.24 798.592 L3398.33 798.611 L3414.41 798.623 L3430.5 798.632 L3446.58 798.641 L3462.67 798.649 L3478.75 798.658 L3494.84 798.666 L3510.93 798.675 L3527.01 798.684 L3543.1 798.694 L3559.18 798.702 L3575.27 798.707 L3591.36 798.698 L3607.44 798.712 L3623.53 798.769 L3639.61 798.852 L3655.7 798.953 L3671.79 799.064 L3687.87 799.178 L3703.96 799.289 L3720.04 799.389 L3736.13 799.473 L3752.21 799.537 L3768.3 799.578 L3784.39 799.596 L3800.47 799.607 L3816.56 799.617 L3832.64 799.626 L3848.73 799.635 L3864.82 799.643 L3880.9 799.652 L3896.99 799.661 L3913.07 799.671 L3929.16 799.68 L3945.24 799.689 L3961.33 799.694 L3977.42 799.686 L3993.5 799.698 L4009.59 799.752 L4025.67 799.831 L4041.76 799.927 L4057.85 800.033 L4073.93 800.143 L4090.02 800.249 L4106.1 800.346 L4122.19 800.426 L4138.28 800.488 L4154.36 800.527 L4170.45 800.545 L4186.53 800.556 L4202.62 800.565 L4218.7 800.574 L4234.79 800.583 L4250.88 800.591 L4266.96 800.6 L4283.05 800.609 L4299.13 800.619 L4315.22 800.628 L4331.31 800.637 L4347.39 800.642 L4363.48 800.634 L4379.56 800.646 L4395.65 800.697 L4411.74 800.773 L4427.82 800.865 L4443.91 800.967 L4459.99 801.073 L4476.08 801.175 L4492.16 801.268 L4508.25 801.346 L4524.34 801.405 L4540.42 801.443 L4556.51 801.46 L4572.59 801.47 L4588.68 801.48 L4604.77 801.489 L4620.85 801.497 L4636.94 801.505 L4636.94 646.195 L4620.85 646.131 L4604.77 646.066 L4588.68 646.001 L4572.59 645.935 L4556.51 645.867 L4540.42 645.743 L4524.34 645.468 L4508.25 645.038 L4492.16 644.471 L4476.08 643.798 L4459.99 643.055 L4443.91 642.286 L4427.82 641.538 L4411.74 640.856 L4395.65 640.272 L4379.56 639.86 L4363.48 639.769 L4347.39 639.887 L4331.31 639.827 L4315.22 639.762 L4299.13 639.695 L4283.05 639.628 L4266.96 639.56 L4250.88 639.492 L4234.79 639.424 L4218.7 639.355 L4202.62 639.286 L4186.53 639.216 L4170.45 639.144 L4154.36 639.012 L4138.28 638.75 L4122.19 638.315 L4106.1 637.725 L4090.02 637.013 L4073.93 636.222 L4057.85 635.402 L4041.76 634.605 L4025.67 633.883 L4009.59 633.294 L3993.5 632.911 L3977.42 632.938 L3961.33 633.016 L3945.24 632.956 L3929.16 632.891 L3913.07 632.825 L3896.99 632.757 L3880.9 632.69 L3864.82 632.623 L3848.73 632.556 L3832.64 632.488 L3816.56 632.419 L3800.47 632.35 L3784.39 632.278 L3768.3 632.189 L3752.21 631.923 L3736.13 631.473 L3720.04 630.862 L3703.96 630.126 L3687.87 629.308 L3671.79 628.459 L3655.7 627.633 L3639.61 626.887 L3623.53 626.276 L3607.44 625.878 L3591.36 625.903 L3575.27 625.983 L3559.18 625.923 L3543.1 625.858 L3527.01 625.79 L3510.93 625.722 L3494.84 625.655 L3478.75 625.587 L3462.67 625.519 L3446.58 625.451 L3430.5 625.382 L3414.41 625.312 L3398.33 625.24 L3382.24 625.15 L3366.15 624.877 L3350.07 624.413 L3333.98 623.782 L3317.9 623.021 L3301.81 622.175 L3285.72 621.296 L3269.64 620.442 L3253.55 619.668 L3237.47 619.035 L3221.38 618.616 L3205.29 618.618 L3189.21 618.682 L3173.12 618.622 L3157.04 618.558 L3140.95 618.491 L3124.87 618.422 L3108.78 618.353 L3092.69 618.284 L3076.61 618.214 L3060.52 618.143 L3044.44 618.071 L3028.35 617.997 L3012.26 617.92 L2996.18 617.822 L2980.09 617.53 L2964.01 617.038 L2947.92 616.369 L2931.83 615.561 L2915.75 614.66 L2899.66 613.721 L2883.58 612.804 L2867.49 611.975 L2851.41 611.151 L2835.32 610.486 L2819.23 610.246 L2803.15 610.264 L2787.06 610.27 L2770.98 610.272 L2754.89 610.272 L2738.8 610.271 L2722.72 610.26 L2706.63 610.212 L2690.55 610.133 L2674.46 610.035 L2658.37 609.928 L2642.29 609.814 L2626.2 609.651 L2610.12 609.408 L2594.03 608.972 L2577.95 608.342 L2561.86 607.534 L2545.77 606.58 L2529.69 605.442 L2513.6 604.089 L2497.52 602.694 L2481.43 601.432 L2465.34 600.402 L2449.26 599.684 L2433.17 599.284 L2417.09 599.131 L2401 599.117 L2384.91 599.192 L2368.83 599.267 L2352.74 599.341 L2336.66 599.414 L2320.57 599.485 L2304.49 599.553 L2288.4 599.616 L2272.31 599.672 L2256.23 599.719 L2240.14 599.671 L2224.06 599.448 L2207.97 598.91 L2191.88 598.086 L2175.8 597.015 L2159.71 595.757 L2143.63 594.381 L2127.54 592.969 L2111.46 591.609 L2095.37 590.385 L2079.28 589.375 L2063.2 588.643 L2047.11 588.235 L2031.03 588.168 L2014.94 588.276 L1998.85 588.506 L1982.77 588.742 L1966.68 588.986 L1950.6 589.237 L1934.51 589.495 L1918.42 589.761 L1902.34 590.034 L1886.25 590.315 L1870.17 590.605 L1854.08 590.793 L1838 590.86 L1821.91 590.904 L1805.82 590.634 L1789.74 590.106 L1773.65 589.397 L1757.57 588.593 L1741.48 587.784 L1725.39 587.064 L1709.31 586.513 L1693.22 586.2 L1677.14 586.183 L1661.05 586.502 L1644.96 587.177 L1628.88 587.92 L1612.79 588.688 L1596.71 589.481 L1580.62 590.3 L1564.54 591.145 L1548.45 592.017 L1532.36 592.918 L1516.28 593.847 L1500.19 594.806 L1484.11 595.801 L1468.02 596.851 L1451.93 597.951 L1435.85 598.834 L1419.76 599.565 L1403.68 600.214 L1387.59 600.863 L1371.5 601.593 L1355.42 602.537 L1339.33 603.76 L1323.25 605.191 L1307.16 606.814 L1291.08 608.588 L1274.99 610.493 L1258.9 612.621 L1242.82 614.829 L1226.73 617.11 L1210.65 619.465 L1194.56 621.897 L1178.47 624.407 L1162.39 626.994 L1146.3 629.666 L1130.22 632.425 L1114.13 635.274 L1098.04 638.218 L1081.96 641.278 L1065.87 644.669 L1049.79 648.491 L1033.7 652.85 L1017.62 657.839 L1001.53 663.507 L985.444 669.931 L969.358 676.998 L953.272 684.606 L937.186 692.544 L921.1 700.064 L905.014 707.714 L888.928 719.947 L872.843 771.22 L856.757 785.478 L840.671 792.587 L824.585 799.701 L808.499 807.324 L792.413 815.28 L776.327 824.375  Z" fill="#757575" fill-rule="evenodd" fill-opacity="0.5"/>
<polyline clip-path="url(#clip062)" style="stroke:#757575; stroke-linecap:round; stroke-linejoin:round; stroke-width:0; stroke-opacity:1; fill:none" points="776.327,826.747 792.413,825.402 808.499,824.312 824.585,823.266 840.671,822.258 856.757,821.148 872.843,818.306 888.928,812.695 905.014,810.077 921.1,808.951 937.186,807.83 953.272,806.729 969.358,805.682 985.444,804.713 1001.53,803.838 1017.62,803.06 1033.7,802.374 1049.79,801.772 1065.87,801.24 1081.96,800.764 1098.04,800.335 1114.13,799.931 1130.22,799.541 1146.3,799.163 1162.39,798.798 1178.47,798.445 1194.56,798.103 1210.65,797.772 1226.73,797.452 1242.82,797.142 1258.9,796.843 1274.99,796.56 1291.08,796.305 1307.16,796.073 1323.25,795.866 1339.33,795.687 1355.42,795.538 1371.5,795.414 1387.59,795.31 1403.68,795.218 1419.76,795.125 1435.85,795.024 1451.93,794.904 1468.02,794.761 1484.11,794.619 1500.19,794.485 1516.28,794.356 1532.36,794.231 1548.45,794.11 1564.54,793.993 1580.62,793.879 1596.71,793.77 1612.79,793.664 1628.88,793.561 1644.96,793.464 1661.05,793.388 1677.14,793.361 1693.22,793.38 1709.31,793.441 1725.39,793.535 1741.48,793.651 1757.57,793.78 1773.65,793.907 1789.74,794.022 1805.82,794.112 1821.91,794.168 1838,794.182 1854.08,794.151 1870.17,794.106 1886.25,794.06 1902.34,794.015 1918.42,793.971 1934.51,793.928 1950.6,793.887 1966.68,793.847 1982.77,793.809 1998.85,793.771 2014.94,793.735 2031.03,793.703 2047.11,793.69 2063.2,793.726 2079.28,793.813 2095.37,793.942 2111.46,794.105 2127.54,794.289 2143.63,794.48 2159.71,794.667 2175.8,794.836 2191.88,794.976 2207.97,795.078 2224.06,795.137 2240.14,795.149 2256.23,795.142 2272.31,795.132 2288.4,795.12 2304.49,795.107 2320.57,795.094 2336.66,795.08 2352.74,795.067 2368.83,795.054 2384.91,795.041 2401,795.028 2417.09,795.018 2433.17,795.025 2449.26,795.078 2465.34,795.178 2481.43,795.316 2497.52,795.482 2513.6,795.658 2529.69,795.833 2545.77,795.995 2561.86,796.138 2577.95,796.256 2594.03,796.344 2610.12,796.399 2626.2,796.424 2642.29,796.437 2658.37,796.447 2674.46,796.455 2690.55,796.462 2706.63,796.467 2722.72,796.472 2738.8,796.475 2754.89,796.478 2770.98,796.48 2787.06,796.482 2803.15,796.479 2819.23,796.477 2835.32,796.521 2851.41,796.606 2867.49,796.717 2883.58,796.843 2899.66,796.975 2915.75,797.108 2931.83,797.235 2947.92,797.349 2964.01,797.444 2980.09,797.516 2996.18,797.562 3012.26,797.582 3028.35,797.594 3044.44,797.604 3060.52,797.613 3076.61,797.622 3092.69,797.63 3108.78,797.639 3124.87,797.647 3140.95,797.655 3157.04,797.663 3173.12,797.67 3189.21,797.674 3205.29,797.666 3221.38,797.686 3237.47,797.749 3253.55,797.839 3269.64,797.945 3285.72,798.062 3301.81,798.182 3317.9,798.298 3333.98,798.403 3350.07,798.49 3366.15,798.557 3382.24,798.599 3398.33,798.618 3414.41,798.629 3430.5,798.639 3446.58,798.649 3462.67,798.658 3478.75,798.666 3494.84,798.675 3510.93,798.684 3527.01,798.693 3543.1,798.702 3559.18,798.71 3575.27,798.714 3591.36,798.705 3607.44,798.72 3623.53,798.777 3639.61,798.86 3655.7,798.961 3671.79,799.072 3687.87,799.185 3703.96,799.296 3720.04,799.395 3736.13,799.479 3752.21,799.543 3768.3,799.584 3784.39,799.602 3800.47,799.613 3816.56,799.623 3832.64,799.633 3848.73,799.642 3864.82,799.651 3880.9,799.66 3896.99,799.669 3913.07,799.678 3929.16,799.687 3945.24,799.695 3961.33,799.7 3977.42,799.692 3993.5,799.704 4009.59,799.758 4025.67,799.837 4041.76,799.934 4057.85,800.04 4073.93,800.149 4090.02,800.255 4106.1,800.351 4122.19,800.431 4138.28,800.493 4154.36,800.532 4170.45,800.55 4186.53,800.561 4202.62,800.571 4218.7,800.58 4234.79,800.589 4250.88,800.598 4266.96,800.606 4283.05,800.615 4299.13,800.624 4315.22,800.633 4331.31,800.642 4347.39,800.647 4363.48,800.639 4379.56,800.651 4395.65,800.702 4411.74,800.778 4427.82,800.87 4443.91,800.972 4459.99,801.078 4476.08,801.179 4492.16,801.272 4508.25,801.35 4524.34,801.409 4540.42,801.446 4556.51,801.464 4572.59,801.474 4588.68,801.484 4604.77,801.493 4620.85,801.502 4636.94,801.51 "/>
<path clip-path="url(#clip062)" d="M776.327 826.75 L792.413 825.403 L808.499 824.313 L824.585 823.267 L840.671 822.258 L856.757 821.149 L872.843 818.306 L888.928 812.694 L905.014 810.076 L921.1 808.949 L937.186 807.827 L953.272 806.726 L969.358 805.678 L985.444 804.709 L1001.53 803.833 L1017.62 803.055 L1033.7 802.37 L1049.79 801.767 L1065.87 801.234 L1081.96 800.758 L1098.04 800.329 L1114.13 799.924 L1130.22 799.533 L1146.3 799.155 L1162.39 798.789 L1178.47 798.436 L1194.56 798.094 L1210.65 797.763 L1226.73 797.443 L1242.82 797.133 L1258.9 796.834 L1274.99 796.551 L1291.08 796.296 L1307.16 796.063 L1323.25 795.856 L1339.33 795.677 L1355.42 795.527 L1371.5 795.404 L1387.59 795.3 L1403.68 795.207 L1419.76 795.115 L1435.85 795.013 L1451.93 794.893 L1468.02 794.75 L1484.11 794.608 L1500.19 794.473 L1516.28 794.344 L1532.36 794.218 L1548.45 794.097 L1564.54 793.98 L1580.62 793.866 L1596.71 793.757 L1612.79 793.651 L1628.88 793.548 L1644.96 793.451 L1661.05 793.375 L1677.14 793.348 L1693.22 793.367 L1709.31 793.427 L1725.39 793.521 L1741.48 793.638 L1757.57 793.766 L1773.65 793.894 L1789.74 794.008 L1805.82 794.098 L1821.91 794.154 L1838 794.168 L1854.08 794.138 L1870.17 794.092 L1886.25 794.046 L1902.34 794.001 L1918.42 793.956 L1934.51 793.913 L1950.6 793.872 L1966.68 793.832 L1982.77 793.794 L1998.85 793.757 L2014.94 793.721 L2031.03 793.688 L2047.11 793.675 L2063.2 793.711 L2079.28 793.798 L2095.37 793.927 L2111.46 794.09 L2127.54 794.273 L2143.63 794.465 L2159.71 794.652 L2175.8 794.821 L2191.88 794.961 L2207.97 795.064 L2224.06 795.122 L2240.14 795.134 L2256.23 795.127 L2272.31 795.117 L2288.4 795.105 L2304.49 795.092 L2320.57 795.078 L2336.66 795.064 L2352.74 795.051 L2368.83 795.038 L2384.91 795.025 L2401 795.012 L2417.09 795.002 L2433.17 795.009 L2449.26 795.062 L2465.34 795.161 L2481.43 795.3 L2497.52 795.465 L2513.6 795.642 L2529.69 795.817 L2545.77 795.98 L2561.86 796.123 L2577.95 796.241 L2594.03 796.329 L2610.12 796.384 L2626.2 796.409 L2642.29 796.421 L2658.37 796.431 L2674.46 796.439 L2690.55 796.446 L2706.63 796.451 L2722.72 796.455 L2738.8 796.458 L2754.89 796.462 L2770.98 796.464 L2787.06 796.466 L2803.15 796.463 L2819.23 796.461 L2835.32 796.505 L2851.41 796.589 L2867.49 796.701 L2883.58 796.826 L2899.66 796.959 L2915.75 797.092 L2931.83 797.219 L2947.92 797.334 L2964.01 797.429 L2980.09 797.501 L2996.18 797.547 L3012.26 797.567 L3028.35 797.578 L3044.44 797.588 L3060.52 797.597 L3076.61 797.606 L3092.69 797.614 L3108.78 797.622 L3124.87 797.631 L3140.95 797.639 L3157.04 797.647 L3173.12 797.655 L3189.21 797.658 L3205.29 797.65 L3221.38 797.67 L3237.47 797.733 L3253.55 797.823 L3269.64 797.929 L3285.72 798.047 L3301.81 798.167 L3317.9 798.283 L3333.98 798.387 L3350.07 798.476 L3366.15 798.542 L3382.24 798.584 L3398.33 798.603 L3414.41 798.615 L3430.5 798.625 L3446.58 798.634 L3462.67 798.643 L3478.75 798.651 L3494.84 798.66 L3510.93 798.669 L3527.01 798.678 L3543.1 798.687 L3559.18 798.696 L3575.27 798.7 L3591.36 798.691 L3607.44 798.705 L3623.53 798.762 L3639.61 798.845 L3655.7 798.945 L3671.79 799.057 L3687.87 799.171 L3703.96 799.281 L3720.04 799.382 L3736.13 799.466 L3752.21 799.529 L3768.3 799.57 L3784.39 799.589 L3800.47 799.6 L3816.56 799.61 L3832.64 799.619 L3848.73 799.628 L3864.82 799.637 L3880.9 799.646 L3896.99 799.655 L3913.07 799.664 L3929.16 799.674 L3945.24 799.682 L3961.33 799.687 L3977.42 799.679 L3993.5 799.691 L4009.59 799.745 L4025.67 799.824 L4041.76 799.92 L4057.85 800.026 L4073.93 800.136 L4090.02 800.242 L4106.1 800.338 L4122.19 800.419 L4138.28 800.481 L4154.36 800.52 L4170.45 800.538 L4186.53 800.548 L4202.62 800.558 L4218.7 800.568 L4234.79 800.576 L4250.88 800.585 L4266.96 800.594 L4283.05 800.603 L4299.13 800.612 L4315.22 800.621 L4331.31 800.63 L4347.39 800.635 L4363.48 800.628 L4379.56 800.639 L4395.65 800.69 L4411.74 800.766 L4427.82 800.858 L4443.91 800.96 L4459.99 801.066 L4476.08 801.168 L4492.16 801.261 L4508.25 801.339 L4524.34 801.398 L4540.42 801.435 L4556.51 801.452 L4572.59 801.463 L4588.68 801.473 L4604.77 801.482 L4620.85 801.49 L4636.94 801.499 L4636.94 702.646 L4620.85 702.605 L4604.77 702.564 L4588.68 702.521 L4572.59 702.477 L4556.51 702.431 L4540.42 702.377 L4524.34 702.222 L4508.25 701.952 L4492.16 701.587 L4476.08 701.199 L4459.99 700.765 L4443.91 700.316 L4427.82 699.884 L4411.74 699.508 L4395.65 699.225 L4379.56 699.09 L4363.48 698.983 L4347.39 698.95 L4331.31 698.978 L4315.22 698.932 L4299.13 698.885 L4283.05 698.837 L4266.96 698.789 L4250.88 698.74 L4234.79 698.69 L4218.7 698.64 L4202.62 698.589 L4186.53 698.538 L4170.45 698.46 L4154.36 698.315 L4138.28 698.073 L4122.19 697.736 L4106.1 697.315 L4090.02 696.829 L4073.93 696.3 L4057.85 695.755 L4041.76 695.222 L4025.67 694.73 L4009.59 694.308 L3993.5 694.047 L3977.42 694.09 L3961.33 694.064 L3945.24 694.034 L3929.16 693.991 L3913.07 693.946 L3896.99 693.9 L3880.9 693.855 L3864.82 693.811 L3848.73 693.766 L3832.64 693.721 L3816.56 693.674 L3800.47 693.626 L3784.39 693.573 L3768.3 693.505 L3752.21 693.326 L3736.13 693.023 L3720.04 692.613 L3703.96 692.12 L3687.87 691.572 L3671.79 691.005 L3655.7 690.456 L3639.61 689.963 L3623.53 689.568 L3607.44 689.326 L3591.36 689.364 L3575.27 689.339 L3559.18 689.31 L3543.1 689.267 L3527.01 689.222 L3510.93 689.176 L3494.84 689.132 L3478.75 689.087 L3462.67 689.042 L3446.58 688.997 L3430.5 688.951 L3414.41 688.903 L3398.33 688.85 L3382.24 688.782 L3366.15 688.595 L3350.07 688.283 L3333.98 687.858 L3317.9 687.347 L3301.81 686.779 L3285.72 686.191 L3269.64 685.62 L3253.55 685.105 L3237.47 684.692 L3221.38 684.429 L3205.29 684.428 L3189.21 684.403 L3173.12 684.375 L3157.04 684.333 L3140.95 684.287 L3124.87 684.241 L3108.78 684.195 L3092.69 684.148 L3076.61 684.101 L3060.52 684.052 L3044.44 684.001 L3028.35 683.948 L3012.26 683.888 L2996.18 683.811 L2980.09 683.607 L2964.01 683.267 L2947.92 682.808 L2931.83 682.254 L2915.75 681.638 L2899.66 681.001 L2883.58 680.337 L2867.49 679.627 L2851.41 679.009 L2835.32 678.565 L2819.23 678.341 L2803.15 678.338 L2787.06 678.347 L2770.98 678.349 L2754.89 678.347 L2738.8 678.343 L2722.72 678.338 L2706.63 678.332 L2690.55 678.324 L2674.46 678.313 L2658.37 678.3 L2642.29 678.282 L2626.2 678.235 L2610.12 678.102 L2594.03 677.81 L2577.95 677.349 L2561.86 676.706 L2545.77 675.902 L2529.69 674.983 L2513.6 674.009 L2497.52 673.052 L2481.43 672.183 L2465.34 671.466 L2449.26 670.956 L2433.17 670.689 L2417.09 670.674 L2401 670.724 L2384.91 670.784 L2368.83 670.843 L2352.74 670.903 L2336.66 670.964 L2320.57 671.024 L2304.49 671.083 L2288.4 671.139 L2272.31 671.191 L2256.23 671.237 L2240.14 671.267 L2224.06 671.228 L2207.97 670.944 L2191.88 670.427 L2175.8 669.708 L2159.71 668.832 L2143.63 667.859 L2127.54 666.868 L2111.46 665.956 L2095.37 665.151 L2079.28 664.516 L2063.2 664.101 L2047.11 663.943 L2031.03 664.051 L2014.94 664.225 L1998.85 664.406 L1982.77 664.593 L1966.68 664.785 L1950.6 664.984 L1934.51 665.189 L1918.42 665.401 L1902.34 665.62 L1886.25 665.845 L1870.17 666.079 L1854.08 666.319 L1838 666.517 L1821.91 666.477 L1805.82 666.22 L1789.74 665.785 L1773.65 665.254 L1757.57 665 L1741.48 664.505 L1725.39 663.961 L1709.31 663.512 L1693.22 663.199 L1677.14 663.053 L1661.05 663.102 L1644.96 663.358 L1628.88 663.78 L1612.79 664.249 L1596.71 664.732 L1580.62 665.231 L1564.54 665.747 L1548.45 666.279 L1532.36 666.828 L1516.28 667.398 L1500.19 667.99 L1484.11 668.618 L1468.02 669.277 L1451.93 669.947 L1435.85 670.55 L1419.76 671.051 L1403.68 671.497 L1387.59 671.94 L1371.5 672.435 L1355.42 673.033 L1339.33 673.779 L1323.25 674.669 L1307.16 675.696 L1291.08 676.726 L1274.99 677.847 L1258.9 679.268 L1242.82 680.75 L1226.73 682.285 L1210.65 683.876 L1194.56 685.519 L1178.47 687.217 L1162.39 688.988 L1146.3 690.833 L1130.22 692.717 L1114.13 694.672 L1098.04 696.71 L1081.96 698.646 L1065.87 700.738 L1049.79 703.17 L1033.7 706.389 L1017.62 710.056 L1001.53 714.112 L985.444 718.395 L969.358 723.108 L953.272 728.172 L937.186 733.455 L921.1 738.69 L905.014 743.745 L888.928 760.69 L872.843 790.797 L856.757 798.304 L840.671 803.397 L824.585 808.451 L808.499 813.475 L792.413 818.774 L776.327 825.31  Z" fill="#414141" fill-rule="evenodd" fill-opacity="0.5"/>
<polyline clip-path="url(#clip062)" style="stroke:#414141; stroke-linecap:round; stroke-linejoin:round; stroke-width:0; stroke-opacity:1; fill:none" points="776.327,826.747 792.413,825.402 808.499,824.312 824.585,823.266 840.671,822.258 856.757,821.148 872.843,818.306 888.928,812.695 905.014,810.077 921.1,808.951 937.186,807.83 953.272,806.729 969.358,805.682 985.444,804.713 1001.53,803.838 1017.62,803.06 1033.7,802.374 1049.79,801.772 1065.87,801.24 1081.96,800.764 1098.04,800.335 1114.13,799.931 1130.22,799.541 1146.3,799.163 1162.39,798.798 1178.47,798.445 1194.56,798.103 1210.65,797.772 1226.73,797.452 1242.82,797.142 1258.9,796.843 1274.99,796.56 1291.08,796.305 1307.16,796.073 1323.25,795.866 1339.33,795.687 1355.42,795.538 1371.5,795.414 1387.59,795.31 1403.68,795.218 1419.76,795.125 1435.85,795.024 1451.93,794.904 1468.02,794.761 1484.11,794.619 1500.19,794.485 1516.28,794.356 1532.36,794.231 1548.45,794.11 1564.54,793.993 1580.62,793.879 1596.71,793.77 1612.79,793.664 1628.88,793.561 1644.96,793.464 1661.05,793.388 1677.14,793.361 1693.22,793.38 1709.31,793.441 1725.39,793.535 1741.48,793.651 1757.57,793.78 1773.65,793.907 1789.74,794.022 1805.82,794.112 1821.91,794.168 1838,794.182 1854.08,794.151 1870.17,794.106 1886.25,794.06 1902.34,794.015 1918.42,793.971 1934.51,793.928 1950.6,793.887 1966.68,793.847 1982.77,793.809 1998.85,793.771 2014.94,793.735 2031.03,793.703 2047.11,793.69 2063.2,793.726 2079.28,793.813 2095.37,793.942 2111.46,794.105 2127.54,794.289 2143.63,794.48 2159.71,794.667 2175.8,794.836 2191.88,794.976 2207.97,795.078 2224.06,795.137 2240.14,795.149 2256.23,795.142 2272.31,795.132 2288.4,795.12 2304.49,795.107 2320.57,795.094 2336.66,795.08 2352.74,795.067 2368.83,795.054 2384.91,795.041 2401,795.028 2417.09,795.018 2433.17,795.025 2449.26,795.078 2465.34,795.178 2481.43,795.316 2497.52,795.482 2513.6,795.658 2529.69,795.833 2545.77,795.995 2561.86,796.138 2577.95,796.256 2594.03,796.344 2610.12,796.399 2626.2,796.424 2642.29,796.437 2658.37,796.447 2674.46,796.455 2690.55,796.462 2706.63,796.467 2722.72,796.472 2738.8,796.475 2754.89,796.478 2770.98,796.48 2787.06,796.482 2803.15,796.479 2819.23,796.477 2835.32,796.521 2851.41,796.606 2867.49,796.717 2883.58,796.843 2899.66,796.975 2915.75,797.108 2931.83,797.235 2947.92,797.349 2964.01,797.444 2980.09,797.516 2996.18,797.562 3012.26,797.582 3028.35,797.594 3044.44,797.604 3060.52,797.613 3076.61,797.622 3092.69,797.63 3108.78,797.639 3124.87,797.647 3140.95,797.655 3157.04,797.663 3173.12,797.67 3189.21,797.674 3205.29,797.666 3221.38,797.686 3237.47,797.749 3253.55,797.839 3269.64,797.945 3285.72,798.062 3301.81,798.182 3317.9,798.298 3333.98,798.403 3350.07,798.49 3366.15,798.557 3382.24,798.599 3398.33,798.618 3414.41,798.629 3430.5,798.639 3446.58,798.649 3462.67,798.658 3478.75,798.666 3494.84,798.675 3510.93,798.684 3527.01,798.693 3543.1,798.702 3559.18,798.71 3575.27,798.714 3591.36,798.705 3607.44,798.72 3623.53,798.777 3639.61,798.86 3655.7,798.961 3671.79,799.072 3687.87,799.185 3703.96,799.296 3720.04,799.395 3736.13,799.479 3752.21,799.543 3768.3,799.584 3784.39,799.602 3800.47,799.613 3816.56,799.623 3832.64,799.633 3848.73,799.642 3864.82,799.651 3880.9,799.66 3896.99,799.669 3913.07,799.678 3929.16,799.687 3945.24,799.695 3961.33,799.7 3977.42,799.692 3993.5,799.704 4009.59,799.758 4025.67,799.837 4041.76,799.934 4057.85,800.04 4073.93,800.149 4090.02,800.255 4106.1,800.351 4122.19,800.431 4138.28,800.493 4154.36,800.532 4170.45,800.55 4186.53,800.561 4202.62,800.571 4218.7,800.58 4234.79,800.589 4250.88,800.598 4266.96,800.606 4283.05,800.615 4299.13,800.624 4315.22,800.633 4331.31,800.642 4347.39,800.647 4363.48,800.639 4379.56,800.651 4395.65,800.702 4411.74,800.778 4427.82,800.87 4443.91,800.972 4459.99,801.078 4476.08,801.179 4492.16,801.272 4508.25,801.35 4524.34,801.409 4540.42,801.446 4556.51,801.464 4572.59,801.474 4588.68,801.484 4604.77,801.493 4620.85,801.502 4636.94,801.51 "/>
<path clip-path="url(#clip060)" d="M3887.85 592.384 L4616.35 592.384 L4616.35 73.9845 L3887.85 73.9845  Z" fill="#ffffff" fill-rule="evenodd" fill-opacity="1"/>
<polyline clip-path="url(#clip060)" style="stroke:#000000; stroke-linecap:round; stroke-linejoin:round; stroke-width:4; stroke-opacity:1; fill:none" points="3887.85,592.384 4616.35,592.384 4616.35,73.9845 3887.85,73.9845 3887.85,592.384 "/>
<polyline clip-path="url(#clip060)" style="stroke:#aeaeae; stroke-linecap:round; stroke-linejoin:round; stroke-width:2; stroke-opacity:1; fill:none" points="3933.32,203.584 4206.14,203.584 "/>
<path clip-path="url(#clip060)" d="M4253.29 236.947 L4272.38 236.947 L4272.38 171.033 L4251.61 175.199 L4251.61 164.551 L4272.27 160.384 L4283.96 160.384 L4283.96 236.947 L4303.06 236.947 L4303.06 246.784 L4253.29 246.784 L4253.29 236.947 Z" fill="#000000" fill-rule="nonzero" fill-opacity="1" /><path clip-path="url(#clip060)" d="M4351.67 168.081 Q4342.64 168.081 4338.07 176.993 Q4333.55 185.847 4333.55 203.671 Q4333.55 221.437 4338.07 230.349 Q4342.64 239.203 4351.67 239.203 Q4360.75 239.203 4365.27 230.349 Q4369.84 221.437 4369.84 203.671 Q4369.84 185.847 4365.27 176.993 Q4360.75 168.081 4351.67 168.081 M4351.67 158.822 Q4366.19 158.822 4373.83 170.338 Q4381.53 181.796 4381.53 203.671 Q4381.53 225.488 4373.83 237.004 Q4366.19 248.463 4351.67 248.463 Q4337.14 248.463 4329.44 237.004 Q4321.81 225.488 4321.81 203.671 Q4321.81 181.796 4329.44 170.338 Q4337.14 158.822 4351.67 158.822 Z" fill="#000000" fill-rule="nonzero" fill-opacity="1" /><path clip-path="url(#clip060)" d="M4427.07 168.081 Q4418.04 168.081 4413.47 176.993 Q4408.96 185.847 4408.96 203.671 Q4408.96 221.437 4413.47 230.349 Q4418.04 239.203 4427.07 239.203 Q4436.16 239.203 4440.67 230.349 Q4445.24 221.437 4445.24 203.671 Q4445.24 185.847 4440.67 176.993 Q4436.16 168.081 4427.07 168.081 M4427.07 158.822 Q4441.6 158.822 4449.24 170.338 Q4456.93 181.796 4456.93 203.671 Q4456.93 225.488 4449.24 237.004 Q4441.6 248.463 4427.07 248.463 Q4412.55 248.463 4404.85 237.004 Q4397.21 225.488 4397.21 203.671 Q4397.21 181.796 4404.85 170.338 Q4412.55 158.822 4427.07 158.822 Z" fill="#000000" fill-rule="nonzero" fill-opacity="1" /><path clip-path="url(#clip060)" d="M4550.97 208.764 Q4545.94 208.764 4543.04 213.046 Q4540.21 217.329 4540.21 224.967 Q4540.21 232.491 4543.04 236.831 Q4545.94 241.113 4550.97 241.113 Q4555.89 241.113 4558.73 236.831 Q4561.62 232.491 4561.62 224.967 Q4561.62 217.386 4558.73 213.104 Q4555.89 208.764 4550.97 208.764 M4550.97 201.414 Q4560.11 201.414 4565.5 207.78 Q4570.88 214.146 4570.88 224.967 Q4570.88 235.789 4565.44 242.155 Q4560.06 248.463 4550.97 248.463 Q4541.71 248.463 4536.33 242.155 Q4530.95 235.789 4530.95 224.967 Q4530.95 214.088 4536.33 207.78 Q4541.77 201.414 4550.97 201.414 M4491.25 166.171 Q4486.27 166.171 4483.38 170.512 Q4480.54 174.794 4480.54 182.317 Q4480.54 189.956 4483.38 194.238 Q4486.21 198.521 4491.25 198.521 Q4496.28 198.521 4499.12 194.238 Q4502.01 189.956 4502.01 182.317 Q4502.01 174.852 4499.12 170.512 Q4496.23 166.171 4491.25 166.171 M4543.51 158.822 L4552.76 158.822 L4498.71 248.463 L4489.46 248.463 L4543.51 158.822 M4491.25 158.822 Q4500.39 158.822 4505.83 165.188 Q4511.27 171.496 4511.27 182.317 Q4511.27 193.255 4505.83 199.563 Q4500.45 205.87 4491.25 205.87 Q4482.05 205.87 4476.67 199.563 Q4471.34 193.197 4471.34 182.317 Q4471.34 171.553 4476.72 165.188 Q4482.11 158.822 4491.25 158.822 Z" fill="#000000" fill-rule="nonzero" fill-opacity="1" /><polyline clip-path="url(#clip060)" style="stroke:#757575; stroke-linecap:round; stroke-linejoin:round; stroke-width:2; stroke-opacity:1; fill:none" points="3933.32,333.184 4206.14,333.184 "/>
<path clip-path="url(#clip060)" d="M4257.16 374.591 L4257.16 363.942 Q4261.56 366.026 4266.08 367.125 Q4270.59 368.225 4274.93 368.225 Q4286.5 368.225 4292.58 360.47 Q4298.72 352.658 4299.58 336.801 Q4296.23 341.778 4291.08 344.44 Q4285.93 347.102 4279.68 347.102 Q4266.71 347.102 4259.13 339.29 Q4251.61 331.419 4251.61 317.82 Q4251.61 304.51 4259.48 296.466 Q4267.35 288.422 4280.43 288.422 Q4295.42 288.422 4303.29 299.938 Q4311.22 311.396 4311.22 333.271 Q4311.22 353.699 4301.49 365.91 Q4291.83 378.063 4275.45 378.063 Q4271.05 378.063 4266.54 377.195 Q4262.03 376.327 4257.16 374.591 M4280.43 337.959 Q4288.3 337.959 4292.87 332.577 Q4297.5 327.195 4297.5 317.82 Q4297.5 308.503 4292.87 303.121 Q4288.3 297.681 4280.43 297.681 Q4272.56 297.681 4267.93 303.121 Q4263.36 308.503 4263.36 317.82 Q4263.36 327.195 4267.93 332.577 Q4272.56 337.959 4280.43 337.959 Z" fill="#000000" fill-rule="nonzero" fill-opacity="1" /><path clip-path="url(#clip060)" d="M4357.22 297.681 Q4348.19 297.681 4343.62 306.593 Q4339.11 315.447 4339.11 333.271 Q4339.11 351.037 4343.62 359.949 Q4348.19 368.803 4357.22 368.803 Q4366.31 368.803 4370.82 359.949 Q4375.39 351.037 4375.39 333.271 Q4375.39 315.447 4370.82 306.593 Q4366.31 297.681 4357.22 297.681 M4357.22 288.422 Q4371.75 288.422 4379.39 299.938 Q4387.08 311.396 4387.08 333.271 Q4387.08 355.088 4379.39 366.604 Q4371.75 378.063 4357.22 378.063 Q4342.7 378.063 4335 366.604 Q4327.36 355.088 4327.36 333.271 Q4327.36 311.396 4335 299.938 Q4342.7 288.422 4357.22 288.422 Z" fill="#000000" fill-rule="nonzero" fill-opacity="1" /><path clip-path="url(#clip060)" d="M4481.12 338.364 Q4476.09 338.364 4473.19 342.646 Q4470.36 346.929 4470.36 354.567 Q4470.36 362.091 4473.19 366.431 Q4476.09 370.713 4481.12 370.713 Q4486.04 370.713 4488.88 366.431 Q4491.77 362.091 4491.77 354.567 Q4491.77 346.986 4488.88 342.704 Q4486.04 338.364 4481.12 338.364 M4481.12 331.014 Q4490.27 331.014 4495.65 337.38 Q4501.03 343.746 4501.03 354.567 Q4501.03 365.389 4495.59 371.755 Q4490.21 378.063 4481.12 378.063 Q4471.86 378.063 4466.48 371.755 Q4461.1 365.389 4461.1 354.567 Q4461.1 343.688 4466.48 337.38 Q4471.92 331.014 4481.12 331.014 M4421.4 295.771 Q4416.42 295.771 4413.53 300.112 Q4410.69 304.394 4410.69 311.917 Q4410.69 319.556 4413.53 323.838 Q4416.37 328.121 4421.4 328.121 Q4426.43 328.121 4429.27 323.838 Q4432.16 319.556 4432.16 311.917 Q4432.16 304.452 4429.27 300.112 Q4426.38 295.771 4421.4 295.771 M4473.66 288.422 L4482.92 288.422 L4428.87 378.063 L4419.61 378.063 L4473.66 288.422 M4421.4 288.422 Q4430.54 288.422 4435.98 294.788 Q4441.42 301.096 4441.42 311.917 Q4441.42 322.855 4435.98 329.163 Q4430.6 335.47 4421.4 335.47 Q4412.2 335.47 4406.82 329.163 Q4401.49 322.797 4401.49 311.917 Q4401.49 301.153 4406.87 294.788 Q4412.26 288.422 4421.4 288.422 Z" fill="#000000" fill-rule="nonzero" fill-opacity="1" /><polyline clip-path="url(#clip060)" style="stroke:#414141; stroke-linecap:round; stroke-linejoin:round; stroke-width:2; stroke-opacity:1; fill:none" points="3933.32,462.784 4206.14,462.784 "/>
<path clip-path="url(#clip060)" d="M4281.24 464.955 Q4272.91 464.955 4268.1 469.411 Q4263.36 473.867 4263.36 481.679 Q4263.36 489.492 4268.1 493.947 Q4272.91 498.403 4281.24 498.403 Q4289.57 498.403 4294.38 493.947 Q4299.18 489.434 4299.18 481.679 Q4299.18 473.867 4294.38 469.411 Q4289.63 464.955 4281.24 464.955 M4269.55 459.978 Q4262.03 458.126 4257.8 452.975 Q4253.63 447.825 4253.63 440.418 Q4253.63 430.059 4260.98 424.04 Q4268.39 418.022 4281.24 418.022 Q4294.14 418.022 4301.49 424.04 Q4308.84 430.059 4308.84 440.418 Q4308.84 447.825 4304.62 452.975 Q4300.45 458.126 4292.99 459.978 Q4301.44 461.945 4306.12 467.674 Q4310.87 473.404 4310.87 481.679 Q4310.87 494.237 4303.17 500.95 Q4295.53 507.663 4281.24 507.663 Q4266.94 507.663 4259.25 500.95 Q4251.61 494.237 4251.61 481.679 Q4251.61 473.404 4256.35 467.674 Q4261.1 461.945 4269.55 459.978 M4265.27 441.517 Q4265.27 448.23 4269.43 451.992 Q4273.66 455.753 4281.24 455.753 Q4288.76 455.753 4292.99 451.992 Q4297.27 448.23 4297.27 441.517 Q4297.27 434.804 4292.99 431.043 Q4288.76 427.281 4281.24 427.281 Q4273.66 427.281 4269.43 431.043 Q4265.27 434.804 4265.27 441.517 Z" fill="#000000" fill-rule="nonzero" fill-opacity="1" /><path clip-path="url(#clip060)" d="M4356.64 427.281 Q4347.62 427.281 4343.04 436.193 Q4338.53 445.047 4338.53 462.871 Q4338.53 480.637 4343.04 489.549 Q4347.62 498.403 4356.64 498.403 Q4365.73 498.403 4370.24 489.549 Q4374.81 480.637 4374.81 462.871 Q4374.81 445.047 4370.24 436.193 Q4365.73 427.281 4356.64 427.281 M4356.64 418.022 Q4371.17 418.022 4378.81 429.538 Q4386.5 440.996 4386.5 462.871 Q4386.5 484.688 4378.81 496.204 Q4371.17 507.663 4356.64 507.663 Q4342.12 507.663 4334.42 496.204 Q4326.78 484.688 4326.78 462.871 Q4326.78 440.996 4334.42 429.538 Q4342.12 418.022 4356.64 418.022 Z" fill="#000000" fill-rule="nonzero" fill-opacity="1" /><path clip-path="url(#clip060)" d="M4480.54 467.964 Q4475.51 467.964 4472.61 472.246 Q4469.78 476.529 4469.78 484.167 Q4469.78 491.691 4472.61 496.031 Q4475.51 500.313 4480.54 500.313 Q4485.46 500.313 4488.3 496.031 Q4491.19 491.691 4491.19 484.167 Q4491.19 476.586 4488.3 472.304 Q4485.46 467.964 4480.54 467.964 M4480.54 460.614 Q4489.69 460.614 4495.07 466.98 Q4500.45 473.346 4500.45 484.167 Q4500.45 494.989 4495.01 501.355 Q4489.63 507.663 4480.54 507.663 Q4471.28 507.663 4465.9 501.355 Q4460.52 494.989 4460.52 484.167 Q4460.52 473.288 4465.9 466.98 Q4471.34 460.614 4480.54 460.614 M4420.82 425.371 Q4415.84 425.371 4412.95 429.712 Q4410.12 433.994 4410.12 441.517 Q4410.12 449.156 4412.95 453.438 Q4415.79 457.721 4420.82 457.721 Q4425.86 457.721 4428.69 453.438 Q4431.59 449.156 4431.59 441.517 Q4431.59 434.052 4428.69 429.712 Q4425.8 425.371 4420.82 425.371 M4473.08 418.022 L4482.34 418.022 L4428.29 507.663 L4419.03 507.663 L4473.08 418.022 M4420.82 418.022 Q4429.96 418.022 4435.4 424.388 Q4440.84 430.696 4440.84 441.517 Q4440.84 452.455 4435.4 458.763 Q4430.02 465.07 4420.82 465.07 Q4411.62 465.07 4406.24 458.763 Q4400.91 452.397 4400.91 441.517 Q4400.91 430.753 4406.3 424.388 Q4411.68 418.022 4420.82 418.022 Z" fill="#000000" fill-rule="nonzero" fill-opacity="1" /></svg>
