<?xml version="1.0" encoding="utf-8"?>
<svg xmlns="http://www.w3.org/2000/svg" xmlns:xlink="http://www.w3.org/1999/xlink" width="1200" height="300" viewBox="0 0 4800 1200">
<defs>
  <clipPath id="clip570">
    <rect x="0" y="0" width="4800" height="1200"/>
  </clipPath>
</defs>
<path clip-path="url(#clip570)" d="M0 1200 L4800 1200 L4800 0 L0 0  Z" fill="#ffffff" fill-rule="evenodd" fill-opacity="1"/>
<defs>
  <clipPath id="clip571">
    <rect x="960" y="0" width="3361" height="1200"/>
  </clipPath>
</defs>
<path clip-path="url(#clip570)" d="M284.22 904.535 L4752.76 904.535 L4752.76 47.2441 L284.22 47.2441  Z" fill="#ffffff" fill-rule="evenodd" fill-opacity="1"/>
<defs>
  <clipPath id="clip572">
    <rect x="284" y="47" width="4470" height="858"/>
  </clipPath>
</defs>
<polyline clip-path="url(#clip572)" style="stroke:#000000; stroke-linecap:round; stroke-linejoin:round; stroke-width:2; stroke-opacity:0.1; fill:none" points="410.688,904.535 410.688,47.2441 "/>
<polyline clip-path="url(#clip572)" style="stroke:#000000; stroke-linecap:round; stroke-linejoin:round; stroke-width:2; stroke-opacity:0.1; fill:none" points="1253.81,904.535 1253.81,47.2441 "/>
<polyline clip-path="url(#clip572)" style="stroke:#000000; stroke-linecap:round; stroke-linejoin:round; stroke-width:2; stroke-opacity:0.1; fill:none" points="2096.93,904.535 2096.93,47.2441 "/>
<polyline clip-path="url(#clip572)" style="stroke:#000000; stroke-linecap:round; stroke-linejoin:round; stroke-width:2; stroke-opacity:0.1; fill:none" points="2940.05,904.535 2940.05,47.2441 "/>
<polyline clip-path="url(#clip572)" style="stroke:#000000; stroke-linecap:round; stroke-linejoin:round; stroke-width:2; stroke-opacity:0.1; fill:none" points="3783.17,904.535 3783.17,47.2441 "/>
<polyline clip-path="url(#clip572)" style="stroke:#000000; stroke-linecap:round; stroke-linejoin:round; stroke-width:2; stroke-opacity:0.1; fill:none" points="4626.29,904.535 4626.29,47.2441 "/>
<polyline clip-path="url(#clip572)" style="stroke:#000000; stroke-linecap:round; stroke-linejoin:round; stroke-width:2; stroke-opacity:0.1; fill:none" points="284.22,798.491 4752.76,798.491 "/>
<polyline clip-path="url(#clip572)" style="stroke:#000000; stroke-linecap:round; stroke-linejoin:round; stroke-width:2; stroke-opacity:0.1; fill:none" points="284.22,585.749 4752.76,585.749 "/>
<polyline clip-path="url(#clip572)" style="stroke:#000000; stroke-linecap:round; stroke-linejoin:round; stroke-width:2; stroke-opacity:0.1; fill:none" points="284.22,373.007 4752.76,373.007 "/>
<polyline clip-path="url(#clip572)" style="stroke:#000000; stroke-linecap:round; stroke-linejoin:round; stroke-width:2; stroke-opacity:0.1; fill:none" points="284.22,160.265 4752.76,160.265 "/>
<polyline clip-path="url(#clip570)" style="stroke:#000000; stroke-linecap:round; stroke-linejoin:round; stroke-width:4; stroke-opacity:1; fill:none" points="284.22,904.535 4752.76,904.535 "/>
<polyline clip-path="url(#clip570)" style="stroke:#000000; stroke-linecap:round; stroke-linejoin:round; stroke-width:4; stroke-opacity:1; fill:none" points="410.688,904.535 410.688,885.638 "/>
<polyline clip-path="url(#clip570)" style="stroke:#000000; stroke-linecap:round; stroke-linejoin:round; stroke-width:4; stroke-opacity:1; fill:none" points="1253.81,904.535 1253.81,885.638 "/>
<polyline clip-path="url(#clip570)" style="stroke:#000000; stroke-linecap:round; stroke-linejoin:round; stroke-width:4; stroke-opacity:1; fill:none" points="2096.93,904.535 2096.93,885.638 "/>
<polyline clip-path="url(#clip570)" style="stroke:#000000; stroke-linecap:round; stroke-linejoin:round; stroke-width:4; stroke-opacity:1; fill:none" points="2940.05,904.535 2940.05,885.638 "/>
<polyline clip-path="url(#clip570)" style="stroke:#000000; stroke-linecap:round; stroke-linejoin:round; stroke-width:4; stroke-opacity:1; fill:none" points="3783.17,904.535 3783.17,885.638 "/>
<polyline clip-path="url(#clip570)" style="stroke:#000000; stroke-linecap:round; stroke-linejoin:round; stroke-width:4; stroke-opacity:1; fill:none" points="4626.29,904.535 4626.29,885.638 "/>
<path clip-path="url(#clip570)" d="M410.688 966.373 Q403.466 966.373 399.809 973.502 Q396.198 980.586 396.198 994.845 Q396.198 1009.06 399.809 1016.19 Q403.466 1023.27 410.688 1023.27 Q417.957 1023.27 421.568 1016.19 Q425.225 1009.06 425.225 994.845 Q425.225 980.586 421.568 973.502 Q417.957 966.373 410.688 966.373 M410.688 958.965 Q422.309 958.965 428.42 968.178 Q434.577 977.345 434.577 994.845 Q434.577 1012.3 428.42 1021.51 Q422.309 1030.68 410.688 1030.68 Q399.068 1030.68 392.911 1021.51 Q386.8 1012.3 386.8 994.845 Q386.8 977.345 392.911 968.178 Q399.068 958.965 410.688 958.965 Z" fill="#000000" fill-rule="nonzero" fill-opacity="1" /><path clip-path="url(#clip570)" d="M1243.11 1021.47 L1275.75 1021.47 L1275.75 1029.34 L1231.86 1029.34 L1231.86 1021.47 Q1237.19 1015.96 1246.35 1006.7 Q1255.57 997.391 1257.93 994.706 Q1262.42 989.66 1264.18 986.188 Q1265.98 982.669 1265.98 979.289 Q1265.98 973.78 1262.1 970.308 Q1258.25 966.836 1252.05 966.836 Q1247.65 966.836 1242.74 968.364 Q1237.88 969.891 1232.33 972.993 L1232.33 963.549 Q1237.98 961.28 1242.88 960.123 Q1247.79 958.965 1251.86 958.965 Q1262.6 958.965 1268.99 964.336 Q1275.38 969.706 1275.38 978.688 Q1275.38 982.947 1273.76 986.789 Q1272.19 990.586 1267.97 995.771 Q1266.82 997.113 1260.61 1003.55 Q1254.41 1009.94 1243.11 1021.47 Z" fill="#000000" fill-rule="nonzero" fill-opacity="1" /><path clip-path="url(#clip570)" d="M2102.95 968.364 L2079.34 1005.26 L2102.95 1005.26 L2102.95 968.364 M2100.49 960.215 L2112.25 960.215 L2112.25 1005.26 L2122.11 1005.26 L2122.11 1013.04 L2112.25 1013.04 L2112.25 1029.34 L2102.95 1029.34 L2102.95 1013.04 L2071.74 1013.04 L2071.74 1004.01 L2100.49 960.215 Z" fill="#000000" fill-rule="nonzero" fill-opacity="1" /><path clip-path="url(#clip570)" d="M2940.86 991.049 Q2934.56 991.049 2930.86 995.354 Q2927.2 999.66 2927.2 1007.16 Q2927.2 1014.61 2930.86 1018.97 Q2934.56 1023.27 2940.86 1023.27 Q2947.15 1023.27 2950.81 1018.97 Q2954.52 1014.61 2954.52 1007.16 Q2954.52 999.66 2950.81 995.354 Q2947.15 991.049 2940.86 991.049 M2959.42 961.743 L2959.42 970.262 Q2955.9 968.595 2952.29 967.715 Q2948.73 966.836 2945.21 966.836 Q2935.95 966.836 2931.04 973.086 Q2926.18 979.336 2925.49 991.975 Q2928.22 987.947 2932.34 985.817 Q2936.46 983.641 2941.41 983.641 Q2951.83 983.641 2957.85 989.984 Q2963.91 996.28 2963.91 1007.16 Q2963.91 1017.81 2957.62 1024.24 Q2951.32 1030.68 2940.86 1030.68 Q2928.87 1030.68 2922.53 1021.51 Q2916.18 1012.3 2916.18 994.845 Q2916.18 978.456 2923.96 968.734 Q2931.74 958.965 2944.84 958.965 Q2948.36 958.965 2951.92 959.66 Q2955.53 960.354 2959.42 961.743 Z" fill="#000000" fill-rule="nonzero" fill-opacity="1" /><path clip-path="url(#clip570)" d="M3783.17 996.512 Q3776.5 996.512 3772.66 1000.08 Q3768.86 1003.64 3768.86 1009.89 Q3768.86 1016.14 3772.66 1019.71 Q3776.5 1023.27 3783.17 1023.27 Q3789.83 1023.27 3793.68 1019.71 Q3797.52 1016.09 3797.52 1009.89 Q3797.52 1003.64 3793.68 1000.08 Q3789.88 996.512 3783.17 996.512 M3773.82 992.53 Q3767.8 991.049 3764.42 986.928 Q3761.08 982.808 3761.08 976.882 Q3761.08 968.595 3766.96 963.78 Q3772.89 958.965 3783.17 958.965 Q3793.49 958.965 3799.37 963.78 Q3805.25 968.595 3805.25 976.882 Q3805.25 982.808 3801.87 986.928 Q3798.54 991.049 3792.57 992.53 Q3799.33 994.104 3803.08 998.687 Q3806.87 1003.27 3806.87 1009.89 Q3806.87 1019.94 3800.71 1025.31 Q3794.6 1030.68 3783.17 1030.68 Q3771.73 1030.68 3765.58 1025.31 Q3759.46 1019.94 3759.46 1009.89 Q3759.46 1003.27 3763.26 998.687 Q3767.06 994.104 3773.82 992.53 M3770.39 977.762 Q3770.39 983.132 3773.72 986.141 Q3777.1 989.15 3783.17 989.15 Q3789.19 989.15 3792.57 986.141 Q3795.99 983.132 3795.99 977.762 Q3795.99 972.391 3792.57 969.382 Q3789.19 966.373 3783.17 966.373 Q3777.1 966.373 3773.72 969.382 Q3770.39 972.391 3770.39 977.762 Z" fill="#000000" fill-rule="nonzero" fill-opacity="1" /><path clip-path="url(#clip570)" d="M4575.66 1021.47 L4590.94 1021.47 L4590.94 968.734 L4574.32 972.067 L4574.32 963.549 L4590.85 960.215 L4600.2 960.215 L4600.2 1021.47 L4615.48 1021.47 L4615.48 1029.34 L4575.66 1029.34 L4575.66 1021.47 Z" fill="#000000" fill-rule="nonzero" fill-opacity="1" /><path clip-path="url(#clip570)" d="M4654.37 966.373 Q4647.14 966.373 4643.49 973.502 Q4639.88 980.586 4639.88 994.845 Q4639.88 1009.06 4643.49 1016.19 Q4647.14 1023.27 4654.37 1023.27 Q4661.63 1023.27 4665.25 1016.19 Q4668.9 1009.06 4668.9 994.845 Q4668.9 980.586 4665.25 973.502 Q4661.63 966.373 4654.37 966.373 M4654.37 958.965 Q4665.99 958.965 4672.1 968.178 Q4678.26 977.345 4678.26 994.845 Q4678.26 1012.3 4672.1 1021.51 Q4665.99 1030.68 4654.37 1030.68 Q4642.75 1030.68 4636.59 1021.51 Q4630.48 1012.3 4630.48 994.845 Q4630.48 977.345 4636.59 968.178 Q4642.75 958.965 4654.37 958.965 Z" fill="#000000" fill-rule="nonzero" fill-opacity="1" /><path clip-path="url(#clip570)" d="M2235.73 1095.77 L2301.51 1095.77 L2301.51 1104.62 L2273.91 1104.62 L2273.91 1173.53 L2263.33 1173.53 L2263.33 1104.62 L2235.73 1104.62 L2235.73 1095.77 Z" fill="#000000" fill-rule="nonzero" fill-opacity="1" /><path clip-path="url(#clip570)" d="M2307.97 1115.19 L2317.55 1115.19 L2317.55 1173.53 L2307.97 1173.53 L2307.97 1115.19 M2307.97 1092.49 L2317.55 1092.49 L2317.55 1104.62 L2307.97 1104.62 L2307.97 1092.49 Z" fill="#000000" fill-rule="nonzero" fill-opacity="1" /><path clip-path="url(#clip570)" d="M2383.02 1126.39 Q2386.61 1119.93 2391.61 1116.86 Q2396.61 1113.79 2403.38 1113.79 Q2412.5 1113.79 2417.45 1120.19 Q2422.39 1126.55 2422.39 1138.32 L2422.39 1173.53 L2412.76 1173.53 L2412.76 1138.63 Q2412.76 1130.25 2409.79 1126.18 Q2406.82 1122.12 2400.73 1122.12 Q2393.28 1122.12 2388.96 1127.07 Q2384.63 1132.02 2384.63 1140.56 L2384.63 1173.53 L2375 1173.53 L2375 1138.63 Q2375 1130.19 2372.03 1126.18 Q2369.06 1122.12 2362.86 1122.12 Q2355.52 1122.12 2351.2 1127.12 Q2346.87 1132.07 2346.87 1140.56 L2346.87 1173.53 L2337.24 1173.53 L2337.24 1115.19 L2346.87 1115.19 L2346.87 1124.26 Q2350.16 1118.89 2354.74 1116.34 Q2359.32 1113.79 2365.62 1113.79 Q2371.98 1113.79 2376.41 1117.02 Q2380.88 1120.25 2383.02 1126.39 Z" fill="#000000" fill-rule="nonzero" fill-opacity="1" /><path clip-path="url(#clip570)" d="M2491.41 1141.97 L2491.41 1146.65 L2447.34 1146.65 Q2447.97 1156.55 2453.28 1161.76 Q2458.64 1166.91 2468.18 1166.91 Q2473.7 1166.91 2478.85 1165.56 Q2484.06 1164.2 2489.17 1161.5 L2489.17 1170.56 Q2484.01 1172.75 2478.59 1173.89 Q2473.18 1175.04 2467.6 1175.04 Q2453.64 1175.04 2445.47 1166.91 Q2437.34 1158.79 2437.34 1144.93 Q2437.34 1130.61 2445.05 1122.23 Q2452.81 1113.79 2465.94 1113.79 Q2477.71 1113.79 2484.53 1121.39 Q2491.41 1128.94 2491.41 1141.97 M2481.82 1139.15 Q2481.72 1131.29 2477.39 1126.6 Q2473.12 1121.91 2466.04 1121.91 Q2458.02 1121.91 2453.18 1126.44 Q2448.38 1130.98 2447.66 1139.2 L2481.82 1139.15 Z" fill="#000000" fill-rule="nonzero" fill-opacity="1" /><path clip-path="url(#clip570)" d="M2564.06 1092.59 Q2557.08 1104.57 2553.7 1116.29 Q2550.31 1128.01 2550.31 1140.04 Q2550.31 1152.07 2553.7 1163.89 Q2557.13 1175.66 2564.06 1187.59 L2555.73 1187.59 Q2547.92 1175.35 2544.01 1163.53 Q2540.15 1151.7 2540.15 1140.04 Q2540.15 1128.42 2544.01 1116.65 Q2547.86 1104.88 2555.73 1092.59 L2564.06 1092.59 Z" fill="#000000" fill-rule="nonzero" fill-opacity="1" /><path clip-path="url(#clip570)" d="M2621.04 1124.05 L2621.04 1092.49 L2630.62 1092.49 L2630.62 1173.53 L2621.04 1173.53 L2621.04 1164.78 Q2618.02 1169.99 2613.38 1172.54 Q2608.8 1175.04 2602.34 1175.04 Q2591.77 1175.04 2585.1 1166.6 Q2578.49 1158.16 2578.49 1144.41 Q2578.49 1130.66 2585.1 1122.23 Q2591.77 1113.79 2602.34 1113.79 Q2608.8 1113.79 2613.38 1116.34 Q2618.02 1118.84 2621.04 1124.05 M2588.38 1144.41 Q2588.38 1154.99 2592.71 1161.03 Q2597.08 1167.02 2604.69 1167.02 Q2612.29 1167.02 2616.66 1161.03 Q2621.04 1154.99 2621.04 1144.41 Q2621.04 1133.84 2616.66 1127.85 Q2612.29 1121.81 2604.69 1121.81 Q2597.08 1121.81 2592.71 1127.85 Q2588.38 1133.84 2588.38 1144.41 Z" fill="#000000" fill-rule="nonzero" fill-opacity="1" /><path clip-path="url(#clip570)" d="M2676.87 1144.2 Q2665.26 1144.2 2660.78 1146.86 Q2656.3 1149.52 2656.3 1155.92 Q2656.3 1161.03 2659.63 1164.05 Q2663.02 1167.02 2668.8 1167.02 Q2676.77 1167.02 2681.56 1161.39 Q2686.4 1155.72 2686.4 1146.34 L2686.4 1144.2 L2676.87 1144.2 M2695.99 1140.25 L2695.99 1173.53 L2686.4 1173.53 L2686.4 1164.67 Q2683.12 1169.99 2678.23 1172.54 Q2673.33 1175.04 2666.25 1175.04 Q2657.29 1175.04 2651.98 1170.04 Q2646.72 1164.99 2646.72 1156.55 Q2646.72 1146.7 2653.28 1141.7 Q2659.89 1136.7 2672.97 1136.7 L2686.4 1136.7 L2686.4 1135.77 Q2686.4 1129.15 2682.03 1125.56 Q2677.71 1121.91 2669.84 1121.91 Q2664.84 1121.91 2660.1 1123.11 Q2655.36 1124.31 2650.99 1126.7 L2650.99 1117.85 Q2656.25 1115.82 2661.2 1114.83 Q2666.14 1113.79 2670.83 1113.79 Q2683.49 1113.79 2689.74 1120.35 Q2695.99 1126.91 2695.99 1140.25 Z" fill="#000000" fill-rule="nonzero" fill-opacity="1" /><path clip-path="url(#clip570)" d="M2740 1178.94 Q2735.93 1189.36 2732.08 1192.54 Q2728.23 1195.71 2721.77 1195.71 L2714.11 1195.71 L2714.11 1187.69 L2719.74 1187.69 Q2723.7 1187.69 2725.88 1185.82 Q2728.07 1183.94 2730.73 1176.96 L2732.45 1172.59 L2708.85 1115.19 L2719.01 1115.19 L2737.24 1160.82 L2755.47 1115.19 L2765.62 1115.19 L2740 1178.94 Z" fill="#000000" fill-rule="nonzero" fill-opacity="1" /><path clip-path="url(#clip570)" d="M2777.34 1092.59 L2785.67 1092.59 Q2793.49 1104.88 2797.34 1116.65 Q2801.25 1128.42 2801.25 1140.04 Q2801.25 1151.7 2797.34 1163.53 Q2793.49 1175.35 2785.67 1187.59 L2777.34 1187.59 Q2784.27 1175.66 2787.65 1163.89 Q2791.09 1152.07 2791.09 1140.04 Q2791.09 1128.01 2787.65 1116.29 Q2784.27 1104.57 2777.34 1092.59 Z" fill="#000000" fill-rule="nonzero" fill-opacity="1" /><polyline clip-path="url(#clip570)" style="stroke:#000000; stroke-linecap:round; stroke-linejoin:round; stroke-width:4; stroke-opacity:1; fill:none" points="284.22,904.535 284.22,47.2441 "/>
<polyline clip-path="url(#clip570)" style="stroke:#000000; stroke-linecap:round; stroke-linejoin:round; stroke-width:4; stroke-opacity:1; fill:none" points="284.22,798.491 303.118,798.491 "/>
<polyline clip-path="url(#clip570)" style="stroke:#000000; stroke-linecap:round; stroke-linejoin:round; stroke-width:4; stroke-opacity:1; fill:none" points="284.22,585.749 303.118,585.749 "/>
<polyline clip-path="url(#clip570)" style="stroke:#000000; stroke-linecap:round; stroke-linejoin:round; stroke-width:4; stroke-opacity:1; fill:none" points="284.22,373.007 303.118,373.007 "/>
<polyline clip-path="url(#clip570)" style="stroke:#000000; stroke-linecap:round; stroke-linejoin:round; stroke-width:4; stroke-opacity:1; fill:none" points="284.22,160.265 303.118,160.265 "/>
<path clip-path="url(#clip570)" d="M188.332 770.088 Q181.11 770.088 177.452 777.218 Q173.841 784.301 173.841 798.56 Q173.841 812.773 177.452 819.903 Q181.11 826.986 188.332 826.986 Q195.6 826.986 199.211 819.903 Q202.869 812.773 202.869 798.56 Q202.869 784.301 199.211 777.218 Q195.6 770.088 188.332 770.088 M188.332 762.681 Q199.952 762.681 206.063 771.894 Q212.22 781.06 212.22 798.56 Q212.22 816.014 206.063 825.227 Q199.952 834.393 188.332 834.393 Q176.711 834.393 170.554 825.227 Q164.443 816.014 164.443 798.56 Q164.443 781.06 170.554 771.894 Q176.711 762.681 188.332 762.681 Z" fill="#000000" fill-rule="nonzero" fill-opacity="1" /><path clip-path="url(#clip570)" d="M47.7769 551.189 L84.4897 551.189 L84.4897 559.059 L56.3417 559.059 L56.3417 576.003 Q58.3787 575.309 60.4157 574.985 Q62.4528 574.615 64.4898 574.615 Q76.0638 574.615 82.823 580.957 Q89.5822 587.3 89.5822 598.133 Q89.5822 609.29 82.6378 615.494 Q75.6934 621.651 63.0546 621.651 Q58.7028 621.651 54.1658 620.911 Q49.675 620.17 44.8603 618.688 L44.8603 609.29 Q49.0269 611.559 53.4713 612.67 Q57.9157 613.781 62.8694 613.781 Q70.8786 613.781 75.5545 609.568 Q80.2304 605.355 80.2304 598.133 Q80.2304 590.911 75.5545 586.698 Q70.8786 582.485 62.8694 582.485 Q59.1194 582.485 55.3695 583.318 Q51.6658 584.152 47.7769 585.911 L47.7769 551.189 Z" fill="#000000" fill-rule="nonzero" fill-opacity="1" /><path clip-path="url(#clip570)" d="M128.008 557.346 Q120.786 557.346 117.128 564.476 Q113.517 571.559 113.517 585.818 Q113.517 600.031 117.128 607.161 Q120.786 614.244 128.008 614.244 Q135.276 614.244 138.888 607.161 Q142.545 600.031 142.545 585.818 Q142.545 571.559 138.888 564.476 Q135.276 557.346 128.008 557.346 M128.008 549.939 Q139.628 549.939 145.739 559.152 Q151.897 568.318 151.897 585.818 Q151.897 603.272 145.739 612.485 Q139.628 621.651 128.008 621.651 Q116.388 621.651 110.23 612.485 Q104.119 603.272 104.119 585.818 Q104.119 568.318 110.23 559.152 Q116.388 549.939 128.008 549.939 Z" fill="#000000" fill-rule="nonzero" fill-opacity="1" /><path clip-path="url(#clip570)" d="M188.332 557.346 Q181.11 557.346 177.452 564.476 Q173.841 571.559 173.841 585.818 Q173.841 600.031 177.452 607.161 Q181.11 614.244 188.332 614.244 Q195.6 614.244 199.211 607.161 Q202.869 600.031 202.869 585.818 Q202.869 571.559 199.211 564.476 Q195.6 557.346 188.332 557.346 M188.332 549.939 Q199.952 549.939 206.063 559.152 Q212.22 568.318 212.22 585.818 Q212.22 603.272 206.063 612.485 Q199.952 621.651 188.332 621.651 Q176.711 621.651 170.554 612.485 Q164.443 603.272 164.443 585.818 Q164.443 568.318 170.554 559.152 Q176.711 549.939 188.332 549.939 Z" fill="#000000" fill-rule="nonzero" fill-opacity="1" /><path clip-path="url(#clip570)" d="M-11.0191 399.697 L4.25862 399.697 L4.25862 346.965 L-12.3617 350.299 L-12.3617 341.78 L4.16603 338.447 L13.5178 338.447 L13.5178 399.697 L28.7955 399.697 L28.7955 407.567 L-11.0191 407.567 L-11.0191 399.697 Z" fill="#000000" fill-rule="nonzero" fill-opacity="1" /><path clip-path="url(#clip570)" d="M67.6842 344.604 Q60.462 344.604 56.8046 351.734 Q53.1935 358.817 53.1935 373.076 Q53.1935 387.289 56.8046 394.419 Q60.462 401.502 67.6842 401.502 Q74.9527 401.502 78.5638 394.419 Q82.2212 387.289 82.2212 373.076 Q82.2212 358.817 78.5638 351.734 Q74.9527 344.604 67.6842 344.604 M67.6842 337.197 Q79.3045 337.197 85.4156 346.41 Q91.573 355.576 91.573 373.076 Q91.573 390.53 85.4156 399.743 Q79.3045 408.909 67.6842 408.909 Q56.0639 408.909 49.9065 399.743 Q43.7954 390.53 43.7954 373.076 Q43.7954 355.576 49.9065 346.41 Q56.0639 337.197 67.6842 337.197 Z" fill="#000000" fill-rule="nonzero" fill-opacity="1" /><path clip-path="url(#clip570)" d="M128.008 344.604 Q120.786 344.604 117.128 351.734 Q113.517 358.817 113.517 373.076 Q113.517 387.289 117.128 394.419 Q120.786 401.502 128.008 401.502 Q135.276 401.502 138.888 394.419 Q142.545 387.289 142.545 373.076 Q142.545 358.817 138.888 351.734 Q135.276 344.604 128.008 344.604 M128.008 337.197 Q139.628 337.197 145.739 346.41 Q151.897 355.576 151.897 373.076 Q151.897 390.53 145.739 399.743 Q139.628 408.909 128.008 408.909 Q116.388 408.909 110.23 399.743 Q104.119 390.53 104.119 373.076 Q104.119 355.576 110.23 346.41 Q116.388 337.197 128.008 337.197 Z" fill="#000000" fill-rule="nonzero" fill-opacity="1" /><path clip-path="url(#clip570)" d="M188.332 344.604 Q181.11 344.604 177.452 351.734 Q173.841 358.817 173.841 373.076 Q173.841 387.289 177.452 394.419 Q181.11 401.502 188.332 401.502 Q195.6 401.502 199.211 394.419 Q202.869 387.289 202.869 373.076 Q202.869 358.817 199.211 351.734 Q195.6 344.604 188.332 344.604 M188.332 337.197 Q199.952 337.197 206.063 346.41 Q212.22 355.576 212.22 373.076 Q212.22 390.53 206.063 399.743 Q199.952 408.909 188.332 408.909 Q176.711 408.909 170.554 399.743 Q164.443 390.53 164.443 373.076 Q164.443 355.576 170.554 346.41 Q176.711 337.197 188.332 337.197 Z" fill="#000000" fill-rule="nonzero" fill-opacity="1" /><path clip-path="url(#clip570)" d="M-11.0191 186.955 L4.25862 186.955 L4.25862 134.223 L-12.3617 137.557 L-12.3617 129.038 L4.16603 125.705 L13.5178 125.705 L13.5178 186.955 L28.7955 186.955 L28.7955 194.825 L-11.0191 194.825 L-11.0191 186.955 Z" fill="#000000" fill-rule="nonzero" fill-opacity="1" /><path clip-path="url(#clip570)" d="M47.7769 125.705 L84.4897 125.705 L84.4897 133.575 L56.3417 133.575 L56.3417 150.52 Q58.3787 149.825 60.4157 149.501 Q62.4528 149.131 64.4898 149.131 Q76.0638 149.131 82.823 155.473 Q89.5822 161.816 89.5822 172.649 Q89.5822 183.806 82.6378 190.01 Q75.6934 196.168 63.0546 196.168 Q58.7028 196.168 54.1658 195.427 Q49.675 194.686 44.8603 193.205 L44.8603 183.806 Q49.0269 186.075 53.4713 187.186 Q57.9157 188.297 62.8694 188.297 Q70.8786 188.297 75.5545 184.084 Q80.2304 179.871 80.2304 172.649 Q80.2304 165.427 75.5545 161.214 Q70.8786 157.001 62.8694 157.001 Q59.1194 157.001 55.3695 157.834 Q51.6658 158.668 47.7769 160.427 L47.7769 125.705 Z" fill="#000000" fill-rule="nonzero" fill-opacity="1" /><path clip-path="url(#clip570)" d="M128.008 131.862 Q120.786 131.862 117.128 138.992 Q113.517 146.075 113.517 160.334 Q113.517 174.547 117.128 181.677 Q120.786 188.76 128.008 188.76 Q135.276 188.76 138.888 181.677 Q142.545 174.547 142.545 160.334 Q142.545 146.075 138.888 138.992 Q135.276 131.862 128.008 131.862 M128.008 124.455 Q139.628 124.455 145.739 133.668 Q151.897 142.834 151.897 160.334 Q151.897 177.788 145.739 187.001 Q139.628 196.168 128.008 196.168 Q116.388 196.168 110.23 187.001 Q104.119 177.788 104.119 160.334 Q104.119 142.834 110.23 133.668 Q116.388 124.455 128.008 124.455 Z" fill="#000000" fill-rule="nonzero" fill-opacity="1" /><path clip-path="url(#clip570)" d="M188.332 131.862 Q181.11 131.862 177.452 138.992 Q173.841 146.075 173.841 160.334 Q173.841 174.547 177.452 181.677 Q181.11 188.76 188.332 188.76 Q195.6 188.76 199.211 181.677 Q202.869 174.547 202.869 160.334 Q202.869 146.075 199.211 138.992 Q195.6 131.862 188.332 131.862 M188.332 124.455 Q199.952 124.455 206.063 133.668 Q212.22 142.834 212.22 160.334 Q212.22 177.788 206.063 187.001 Q199.952 196.168 188.332 196.168 Q176.711 196.168 170.554 187.001 Q164.443 177.788 164.443 160.334 Q164.443 142.834 170.554 133.668 Q176.711 124.455 188.332 124.455 Z" fill="#000000" fill-rule="nonzero" fill-opacity="1" /><path clip-path="url(#clip572)" d="M410.688 802.153 L428.253 801.966 L445.818 802.49 L463.383 803.154 L480.948 804.102 L498.513 805.061 L516.078 805.482 L533.643 806.55 L551.208 807.746 L568.773 808.47 L586.338 808.948 L603.903 808.959 L621.468 808.739 L639.033 808.657 L656.598 808.89 L674.163 809.461 L691.728 810.295 L709.293 811.459 L726.858 812.699 L744.423 813.936 L761.988 815.247 L779.553 816.257 L797.118 816.437 L814.683 815.928 L832.248 815.223 L849.813 815.219 L867.378 815.557 L884.943 816.362 L902.508 817.665 L920.073 819.531 L937.638 821.457 L955.203 823.233 L972.768 824.51 L990.333 825.069 L1007.9 825.339 L1025.46 825.103 L1043.03 824.56 L1060.59 824.05 L1078.16 823.762 L1095.72 823.813 L1113.29 824.144 L1130.85 824.927 L1148.42 826.023 L1165.98 827.42 L1183.55 828.92 L1201.11 830.072 L1218.68 830.311 L1236.24 829.772 L1253.81 828.966 L1271.37 828.839 L1288.94 829.065 L1306.5 829.814 L1324.07 831.158 L1341.63 833.2 L1359.2 835.438 L1376.76 837.632 L1394.33 838.961 L1411.89 839.28 L1429.46 839.166 L1447.02 838.503 L1464.59 837.495 L1482.15 836.482 L1499.72 835.701 L1517.28 835.3 L1534.85 835.259 L1552.41 836.261 L1569.98 837.493 L1587.54 838.924 L1605.11 840.295 L1622.67 841.335 L1640.24 841.602 L1657.8 840.99 L1675.37 840.039 L1692.93 839.746 L1710.5 839.825 L1728.06 840.501 L1745.63 841.896 L1763.19 844.16 L1780.76 846.796 L1798.32 849.488 L1815.89 851.151 L1833.45 851.476 L1851.02 851.147 L1868.58 850.146 L1886.15 848.713 L1903.71 847.292 L1921.28 846.122 L1938.84 845.391 L1956.41 845.218 L1973.97 846.033 L1991.54 847.158 L2009.1 848.626 L2026.67 850.223 L2044.23 851.635 L2061.8 851.924 L2079.36 851.219 L2096.93 850.096 L2114.49 849.61 L2132.06 849.527 L2149.62 850.129 L2167.19 851.595 L2184.75 854.132 L2202.32 857.219 L2219.88 860.372 L2237.45 862.309 L2255.01 862.64 L2272.58 862.11 L2290.14 860.787 L2307.71 858.988 L2325.27 857.183 L2342.84 855.656 L2360.4 854.639 L2377.97 854.16 L2395.53 854.522 L2413.1 855.637 L2430.66 857.574 L2448.23 859.616 L2465.79 861.124 L2483.36 861.396 L2500.92 860.568 L2518.49 859.252 L2536.05 858.56 L2553.62 858.305 L2571.18 858.824 L2588.75 860.345 L2606.31 863.104 L2623.88 866.463 L2641.44 869.662 L2659.01 871.348 L2676.57 871.418 L2694.14 870.574 L2711.7 868.922 L2729.27 866.775 L2746.83 864.631 L2764.4 862.796 L2781.96 861.524 L2799.53 860.845 L2817.09 861.115 L2834.66 862.217 L2852.22 864.176 L2869.79 866.288 L2887.35 867.82 L2904.92 868.039 L2922.48 867.09 L2940.05 865.611 L2957.61 864.751 L2975.18 864.356 L2992.74 864.794 L3010.31 866.319 L3027.87 869.149 L3045.44 872.465 L3063 875.322 L3080.57 876.633 L3098.13 876.398 L3115.7 875.307 L3133.26 873.405 L3150.83 871.029 L3168.39 868.671 L3185.96 866.64 L3203.52 865.2 L3221.09 864.391 L3238.65 864.576 L3256.22 865.628 L3273.78 867.574 L3291.35 869.694 L3308.91 871.213 L3326.48 871.386 L3344.04 870.36 L3361.61 868.788 L3379.17 867.835 L3396.74 867.36 L3414.3 867.745 L3431.87 869.253 L3449.43 872.071 L3467 875.275 L3484.56 877.887 L3502.13 878.938 L3519.69 878.527 L3537.26 877.305 L3554.82 875.278 L3572.39 872.805 L3589.95 870.362 L3607.52 868.249 L3625.08 866.729 L3642.65 865.862 L3660.21 865.985 L3677.78 867.023 L3695.34 868.958 L3712.91 871.07 L3730.47 872.577 L3748.04 872.726 L3765.6 871.667 L3783.17 870.056 L3800.73 869.066 L3818.3 868.558 L3835.86 868.92 L3853.43 870.416 L3870.99 873.221 L3888.56 876.37 L3906.12 878.879 L3923.69 879.85 L3941.25 879.396 L3958.82 878.137 L3976.38 876.079 L3993.95 873.556 L4011.51 871.066 L4029.08 868.918 L4046.64 867.372 L4064.21 866.478 L4081.77 866.591 L4099.34 867.629 L4116.9 869.548 L4134.47 871.655 L4152.03 873.154 L4169.6 873.293 L4187.16 872.221 L4204.73 870.596 L4222.29 869.592 L4239.86 869.073 L4257.42 869.426 L4274.99 870.916 L4292.55 873.716 L4310.12 876.849 L4327.68 879.334 L4345.25 880.272 L4362.81 879.766 L4380.38 878.49 L4397.94 876.42 L4415.51 873.888 L4433.07 871.388 L4450.64 869.233 L4468.2 867.678 L4485.77 866.775 L4503.33 866.891 L4520.9 867.905 L4538.46 869.828 L4556.03 871.931 L4573.59 873.426 L4591.16 873.562 L4608.72 872.487 L4626.29 870.859 L4626.29 354.749 L4608.72 353.122 L4591.16 351.417 L4573.59 349.479 L4556.03 347.408 L4538.46 344.851 L4520.9 342.119 L4503.33 339.549 L4485.77 337.128 L4468.2 334.956 L4450.64 333.01 L4433.07 331.381 L4415.51 330.074 L4397.94 329.048 L4380.38 328.184 L4362.81 327.365 L4345.25 326.601 L4327.68 325.644 L4310.12 324.407 L4292.55 323.059 L4274.99 321.558 L4257.42 319.574 L4239.86 317.38 L4222.29 315.26 L4204.73 313.256 L4187.16 311.66 L4169.6 309.972 L4152.03 308.03 L4134.47 305.915 L4116.9 303.29 L4099.34 300.441 L4081.77 297.72 L4064.21 295.123 L4046.64 292.762 L4029.08 290.621 L4011.51 288.803 L3993.95 287.334 L3976.38 286.159 L3958.82 285.181 L3941.25 284.301 L3923.69 283.517 L3906.12 282.614 L3888.56 281.445 L3870.99 280.205 L3853.43 278.803 L3835.86 276.917 L3818.3 274.815 L3800.73 272.78 L3783.17 270.853 L3765.6 269.321 L3748.04 267.681 L3730.47 265.763 L3712.91 263.63 L3695.34 260.948 L3677.78 257.998 L3660.21 255.135 L3642.65 252.362 L3625.08 249.807 L3607.52 247.467 L3589.95 245.456 L3572.39 243.809 L3554.82 242.492 L3537.26 241.414 L3519.69 240.484 L3502.13 239.716 L3484.56 238.897 L3467 237.848 L3449.43 236.762 L3431.87 235.509 L3414.3 233.771 L3396.74 231.812 L3379.17 229.91 L3361.61 228.108 L3344.04 226.687 L3326.48 225.139 L3308.91 223.29 L3291.35 221.177 L3273.78 218.465 L3256.22 215.435 L3238.65 212.44 L3221.09 209.506 L3203.52 206.767 L3185.96 204.237 L3168.39 202.04 L3150.83 200.223 L3133.26 198.779 L3115.7 197.622 L3098.13 196.679 L3080.57 195.967 L3063 195.241 L3045.44 194.385 L3027.87 193.524 L3010.31 192.49 L2992.74 190.97 L2975.18 189.226 L2957.61 187.533 L2940.05 185.93 L2922.48 184.699 L2904.92 183.32 L2887.35 181.608 L2869.79 179.592 L2852.22 176.918 L2834.66 173.863 L2817.09 170.792 L2799.53 167.735 L2781.96 164.851 L2764.4 162.163 L2746.83 159.816 L2729.27 157.866 L2711.7 156.335 L2694.14 155.146 L2676.57 154.242 L2659.01 153.67 L2641.44 153.16 L2623.88 152.585 L2606.31 152.056 L2588.75 151.345 L2571.18 150.15 L2553.62 148.731 L2536.05 147.36 L2518.49 146.074 L2500.92 145.15 L2483.36 144.061 L2465.79 142.613 L2448.23 140.81 L2430.66 138.297 L2413.1 135.326 L2395.53 132.273 L2377.97 129.192 L2360.4 126.25 L2342.84 123.493 L2325.27 121.081 L2307.71 119.095 L2290.14 117.565 L2272.58 116.441 L2255.01 115.683 L2237.45 115.358 L2219.88 115.19 L2202.32 115.054 L2184.75 115.016 L2167.19 114.788 L2149.62 114.085 L2132.06 113.164 L2114.49 112.295 L2096.93 111.512 L2079.36 111.087 L2061.8 110.486 L2044.23 109.5 L2026.67 108.104 L2009.1 105.948 L1991.54 103.261 L1973.97 100.43 L1956.41 97.5177 L1938.84 94.7117 L1921.28 92.0766 L1903.71 89.7928 L1886.15 87.9614 L1868.58 86.6341 L1851.02 85.7824 L1833.45 85.3896 L1815.89 85.5408 L1798.32 85.9798 L1780.76 86.5445 L1763.19 87.2693 L1745.63 87.7933 L1728.06 87.8626 L1710.5 87.7316 L1692.93 87.6665 L1675.37 87.6976 L1657.8 88.1026 L1640.24 88.3376 L1622.67 88.1727 L1605.11 87.5517 L1587.54 86.1414 L1569.98 84.1326 L1552.41 81.9236 L1534.85 79.5832 L1517.28 77.3263 L1499.72 75.236 L1482.15 73.5139 L1464.59 72.287 L1447.02 71.6166 L1429.46 71.5071 L1411.89 71.9646 L1394.33 73.1043 L1376.76 74.6748 L1359.2 76.454 L1341.63 78.4562 L1324.07 80.2459 L1306.5 81.6185 L1288.94 82.8318 L1271.37 84.1517 L1253.81 85.6071 L1236.24 87.4786 L1218.68 89.2176 L1201.11 90.5768 L1183.55 91.4571 L1165.98 91.5802 L1148.42 91.0828 L1130.85 90.3682 L1113.29 89.5219 L1095.72 88.7793 L1078.16 88.2471 L1060.59 88.1521 L1043.03 88.637 L1025.46 89.8055 L1007.9 91.6713 L990.333 94.2561 L972.768 97.6971 L955.203 101.706 L937.638 105.997 L920.073 110.507 L902.508 114.744 L884.943 118.67 L867.378 122.559 L849.813 126.681 L832.248 131.061 L814.683 136.012 L797.118 140.98 L779.553 145.712 L761.988 150.081 L744.423 153.973 L726.858 157.524 L709.293 161.173 L691.728 165.061 L674.163 169.526 L656.598 174.806 L639.033 181.318 L621.468 189.478 L603.903 199.824 L586.338 213.086 L568.773 230.643 L551.208 255.698 L533.643 295.544 L516.078 380.144 L498.513 675.309 L480.948 691.269 L463.383 709.031 L445.818 729.777 L428.253 755.175 L410.688 795.332  Z" fill="#414141" fill-rule="evenodd" fill-opacity="0.5"/>
<polyline clip-path="url(#clip572)" style="stroke:#414141; stroke-linecap:round; stroke-linejoin:round; stroke-width:0; stroke-opacity:1; fill:none" points="410.688,799.203 428.253,799.141 445.818,799.202 463.383,799.336 480.948,799.491 498.513,799.638 516.078,799.197 533.643,798.819 551.208,798.335 568.773,797.788 586.338,797.432 603.903,797.192 621.468,797.047 639.033,797.003 656.598,797.016 674.163,797.053 691.728,797.045 709.293,797.026 726.858,796.966 744.423,796.963 761.988,796.988 779.553,797.026 797.118,796.97 814.683,796.849 832.248,796.762 849.813,796.913 867.378,797.134 884.943,797.406 902.508,797.685 920.073,797.95 937.638,798.046 955.203,798.001 972.768,797.691 990.333,797.269 1007.9,797.017 1025.46,796.87 1043.03,796.799 1060.59,796.814 1078.16,796.87 1095.72,796.939 1113.29,796.953 1130.85,796.953 1148.42,796.915 1165.98,796.942 1183.55,796.999 1201.11,797.064 1218.68,797.031 1236.24,796.929 1253.81,796.858 1271.37,797.023 1288.94,797.257 1306.5,797.543 1324.07,797.838 1341.63,798.122 1359.2,798.238 1376.76,798.211 1394.33,797.908 1411.89,797.483 1429.46,797.227 1447.02,797.076 1464.59,797.002 1482.15,797.011 1499.72,797.061 1517.28,797.122 1534.85,797.128 1552.41,797.123 1569.98,797.084 1587.54,797.121 1605.11,797.19 1622.67,797.266 1640.24,797.242 1657.8,797.147 1675.37,797.083 1692.93,797.253 1710.5,797.493 1728.06,797.787 1745.63,798.091 1763.19,798.387 1780.76,798.517 1798.32,798.502 1815.89,798.204 1833.45,797.774 1851.02,797.51 1868.58,797.352 1886.15,797.27 1903.71,797.272 1921.28,797.315 1938.84,797.368 1956.41,797.367 1973.97,797.358 1991.54,797.319 2009.1,797.362 2026.67,797.439 2044.23,797.522 2061.8,797.505 2079.36,797.416 2096.93,797.355 2114.49,797.529 2132.06,797.774 2149.62,798.074 2167.19,798.386 2184.75,798.691 2202.32,798.831 2219.88,798.828 2237.45,798.534 2255.01,798.102 2272.58,797.832 2290.14,797.667 2307.71,797.579 2325.27,797.575 2342.84,797.611 2360.4,797.659 2377.97,797.652 2395.53,797.64 2413.1,797.601 2430.66,797.648 2448.23,797.731 2465.79,797.82 2483.36,797.807 2500.92,797.721 2518.49,797.663 2536.05,797.841 2553.62,798.089 2571.18,798.393 2588.75,798.711 2606.31,799.024 2623.88,799.174 2641.44,799.178 2659.01,798.887 2676.57,798.455 2694.14,798.18 2711.7,798.011 2729.27,797.917 2746.83,797.908 2764.4,797.94 2781.96,797.982 2799.53,797.971 2817.09,797.956 2834.66,797.917 2852.22,797.967 2869.79,798.053 2887.35,798.145 2904.92,798.135 2922.48,798.052 2940.05,797.996 2957.61,798.176 2975.18,798.427 2992.74,798.735 3010.31,799.058 3027.87,799.378 3045.44,799.535 3063,799.544 3080.57,799.256 3098.13,798.821 3115.7,798.543 3133.26,798.369 3150.83,798.271 3168.39,798.257 3185.96,798.284 3203.52,798.322 3221.09,798.307 3238.65,798.289 3256.22,798.25 3273.78,798.3 3291.35,798.389 3308.91,798.483 3326.48,798.476 3344.04,798.394 3361.61,798.34 3379.17,798.522 3396.74,798.775 3414.3,799.086 3431.87,799.413 3449.43,799.738 3467,799.9 3484.56,799.915 3502.13,799.629 3519.69,799.192 3537.26,798.911 3554.82,798.732 3572.39,798.63 3589.95,798.612 3607.52,798.634 3625.08,798.669 3642.65,798.65 3660.21,798.63 3677.78,798.589 3695.34,798.64 3712.91,798.729 3730.47,798.824 3748.04,798.818 3765.6,798.739 3783.17,798.686 3800.73,798.869 3818.3,799.124 3835.86,799.437 3853.43,799.768 3870.99,800.096 3888.56,800.263 3906.12,800.28 3923.69,799.995 3941.25,799.558 3958.82,799.274 3976.38,799.091 3993.95,798.986 4011.51,798.964 4029.08,798.983 4046.64,799.013 4064.21,798.991 4081.77,798.968 4099.34,798.926 4116.9,798.977 4134.47,799.067 4152.03,799.164 4169.6,799.159 4187.16,799.08 4204.73,799.028 4222.29,799.213 4239.86,799.469 4257.42,799.785 4274.99,800.118 4292.55,800.45 4310.12,800.62 4327.68,800.641 4345.25,800.358 4362.81,799.92 4380.38,799.633 4397.94,799.446 4415.51,799.336 4433.07,799.311 4450.64,799.326 4468.2,799.353 4485.77,799.328 4503.33,799.303 4520.9,799.259 4538.46,799.309 4556.03,799.399 4573.59,799.496 4591.16,799.492 4608.72,799.414 4626.29,799.363 "/>
<path clip-path="url(#clip572)" d="M410.688 801.18 L428.253 800.968 L445.818 801.161 L463.383 801.714 L480.948 802.539 L498.513 803.449 L516.078 803.653 L533.643 803.784 L551.208 803.578 L568.773 803.068 L586.338 802.782 L603.903 802.536 L621.468 802.456 L639.033 802.534 L656.598 802.783 L674.163 803.21 L691.728 803.715 L709.293 804.189 L726.858 804.67 L744.423 805.193 L761.988 805.576 L779.553 806.117 L797.118 806.1 L814.683 805.763 L832.248 805.241 L849.813 805.465 L867.378 805.968 L884.943 806.833 L902.508 807.908 L920.073 809.118 L937.638 809.976 L955.203 810.622 L972.768 810.537 L990.333 809.967 L1007.9 809.643 L1025.46 809.366 L1043.03 809.324 L1060.59 809.448 L1078.16 809.839 L1095.72 810.231 L1113.29 810.389 L1130.85 810.752 L1148.42 811.045 L1165.98 811.361 L1183.55 811.783 L1201.11 812.281 L1218.68 812.392 L1236.24 811.837 L1253.81 811.983 L1271.37 812.354 L1288.94 812.741 L1306.5 813.484 L1324.07 814.336 L1341.63 815.519 L1359.2 816.515 L1376.76 817.226 L1394.33 817.089 L1411.89 816.62 L1429.46 816.185 L1447.02 815.677 L1464.59 815.064 L1482.15 814.728 L1499.72 814.727 L1517.28 814.777 L1534.85 815.014 L1552.41 815.4 L1569.98 815.869 L1587.54 816.402 L1605.11 816.89 L1622.67 817.161 L1640.24 817.092 L1657.8 816.865 L1675.37 816.525 L1692.93 817.172 L1710.5 817.855 L1728.06 818.489 L1745.63 819.441 L1763.19 820.638 L1780.76 821.552 L1798.32 822.298 L1815.89 822.036 L1833.45 821.264 L1851.02 820.908 L1868.58 820.299 L1886.15 819.298 L1903.71 818.845 L1921.28 818.317 L1938.84 817.972 L1956.41 817.923 L1973.97 818.18 L1991.54 818.475 L2009.1 819.02 L2026.67 819.523 L2044.23 819.824 L2061.8 819.778 L2079.36 819.637 L2096.93 819.735 L2114.49 820.077 L2132.06 820.626 L2149.62 821.31 L2167.19 822.278 L2184.75 823.59 L2202.32 824.654 L2219.88 825.474 L2237.45 825.096 L2255.01 824.311 L2272.58 823.52 L2290.14 822.634 L2307.71 821.847 L2325.27 821.293 L2342.84 820.82 L2360.4 820.565 L2377.97 820.68 L2395.53 820.928 L2413.1 821.083 L2430.66 821.546 L2448.23 822.028 L2465.79 822.45 L2483.36 822.365 L2500.92 822.035 L2518.49 821.577 L2536.05 821.985 L2553.62 822.772 L2571.18 823.547 L2588.75 824.414 L2606.31 825.561 L2623.88 826.712 L2641.44 827.57 L2659.01 827.371 L2676.57 826.658 L2694.14 825.742 L2711.7 824.722 L2729.27 823.768 L2746.83 823.535 L2764.4 823.707 L2781.96 823.813 L2799.53 823.434 L2817.09 823.13 L2834.66 823.226 L2852.22 823.736 L2869.79 824.415 L2887.35 825.102 L2904.92 825.452 L2922.48 824.897 L2940.05 824.36 L2957.61 823.926 L2975.18 824.066 L2992.74 825.012 L3010.31 826.069 L3027.87 827.338 L3045.44 828.394 L3063 829.222 L3080.57 828.938 L3098.13 828.095 L3115.7 827.816 L3133.26 827.14 L3150.83 826.812 L3168.39 826.596 L3185.96 826.066 L3203.52 825.569 L3221.09 825.198 L3238.65 824.766 L3256.22 825.025 L3273.78 825.653 L3291.35 826.358 L3308.91 827.01 L3326.48 827.059 L3344.04 826.997 L3361.61 826.379 L3379.17 826.105 L3396.74 826.196 L3414.3 826.787 L3431.87 827.728 L3449.43 828.77 L3467 829.889 L3484.56 830.624 L3502.13 830.492 L3519.69 829.867 L3537.26 829.623 L3554.82 829.028 L3572.39 828.562 L3589.95 828.006 L3607.52 827.217 L3625.08 826.697 L3642.65 826.308 L3660.21 826.091 L3677.78 825.81 L3695.34 826.359 L3712.91 827.089 L3730.47 827.661 L3748.04 827.982 L3765.6 828.214 L3783.17 827.908 L3800.73 827.649 L3818.3 828.232 L3835.86 828.85 L3853.43 829.888 L3870.99 831.107 L3888.56 832.18 L3906.12 832.965 L3923.69 833.021 L3941.25 832.566 L3958.82 832.118 L3976.38 831.357 L3993.95 830.112 L4011.51 829.656 L4029.08 828.763 L4046.64 828.391 L4064.21 828.022 L4081.77 827.621 L4099.34 827.78 L4116.9 828.355 L4134.47 829.095 L4152.03 829.769 L4169.6 830.006 L4187.16 829.777 L4204.73 829.417 L4222.29 829.441 L4239.86 829.678 L4257.42 830.37 L4274.99 831.309 L4292.55 832.624 L4310.12 833.846 L4327.68 834.843 L4345.25 834.95 L4362.81 834.348 L4380.38 833.381 L4397.94 832.522 L4415.51 831.848 L4433.07 831.41 L4450.64 830.995 L4468.2 830.509 L4485.77 829.907 L4503.33 829.686 L4520.9 829.896 L4538.46 830.511 L4556.03 831.195 L4573.59 831.942 L4591.16 832.179 L4608.72 831.667 L4626.29 831.06 L4626.29 785.351 L4608.72 785.26 L4591.16 785.231 L4573.59 785.047 L4556.03 784.847 L4538.46 784.675 L4520.9 784.599 L4503.33 784.706 L4485.77 784.857 L4468.2 785.04 L4450.64 785.099 L4433.07 785.096 L4415.51 785.166 L4397.94 785.333 L4380.38 785.6 L4362.81 786.062 L4345.25 786.822 L4327.68 787.348 L4310.12 787.411 L4292.55 787.243 L4274.99 786.821 L4257.42 786.29 L4239.86 785.753 L4222.29 785.27 L4204.73 784.897 L4187.16 784.812 L4169.6 784.724 L4152.03 784.6 L4134.47 784.331 L4116.9 784.179 L4099.34 784.126 L4081.77 784.265 L4064.21 784.425 L4046.64 784.582 L4029.08 784.628 L4011.51 784.684 L3993.95 784.755 L3976.38 784.896 L3958.82 785.141 L3941.25 785.624 L3923.69 786.405 L3906.12 786.936 L3888.56 786.982 L3870.99 786.816 L3853.43 786.389 L3835.86 785.933 L3818.3 785.43 L3800.73 784.958 L3783.17 784.598 L3765.6 784.518 L3748.04 784.454 L3730.47 784.315 L3712.91 784.119 L3695.34 783.915 L3677.78 783.836 L3660.21 783.943 L3642.65 784.137 L3625.08 784.324 L3607.52 784.404 L3589.95 784.459 L3572.39 784.507 L3554.82 784.618 L3537.26 784.901 L3519.69 785.393 L3502.13 786.165 L3484.56 786.717 L3467 786.788 L3449.43 786.622 L3431.87 786.212 L3414.3 785.759 L3396.74 785.254 L3379.17 784.792 L3361.61 784.373 L3344.04 784.318 L3326.48 784.293 L3308.91 784.205 L3291.35 783.971 L3273.78 783.8 L3256.22 783.736 L3238.65 783.893 L3221.09 784.072 L3203.52 784.232 L3185.96 784.325 L3168.39 784.355 L3150.83 784.405 L3133.26 784.57 L3115.7 784.858 L3098.13 785.356 L3080.57 786.122 L3063 786.683 L3045.44 786.78 L3027.87 786.643 L3010.31 786.23 L2992.74 785.812 L2975.18 785.31 L2957.61 784.843 L2940.05 784.44 L2922.48 784.388 L2904.92 784.372 L2887.35 784.299 L2869.79 784.104 L2852.22 783.93 L2834.66 783.908 L2817.09 784.081 L2799.53 784.299 L2781.96 784.49 L2764.4 784.568 L2746.83 784.638 L2729.27 784.713 L2711.7 784.871 L2694.14 785.158 L2676.57 785.651 L2659.01 786.443 L2641.44 787 L2623.88 787.133 L2606.31 787.028 L2588.75 786.634 L2571.18 786.162 L2553.62 785.689 L2536.05 785.316 L2518.49 784.91 L2500.92 784.831 L2483.36 784.819 L2465.79 784.751 L2448.23 784.567 L2430.66 784.526 L2413.1 784.51 L2395.53 784.691 L2377.97 784.878 L2360.4 785.066 L2342.84 785.181 L2325.27 785.274 L2307.71 785.365 L2290.14 785.514 L2272.58 785.847 L2255.01 786.335 L2237.45 787.148 L2219.88 787.746 L2202.32 787.879 L2184.75 787.766 L2167.19 787.374 L2149.62 787.012 L2132.06 786.569 L2114.49 786.141 L2096.93 785.768 L2079.36 785.724 L2061.8 785.712 L2044.23 785.668 L2026.67 785.573 L2009.1 785.549 L1991.54 785.538 L1973.97 785.762 L1956.41 785.959 L1938.84 786.207 L1921.28 786.313 L1903.71 786.366 L1886.15 786.452 L1868.58 786.649 L1851.02 786.978 L1833.45 787.51 L1815.89 788.355 L1798.32 788.932 L1780.76 789.111 L1763.19 789.022 L1745.63 788.655 L1728.06 788.257 L1710.5 787.826 L1692.93 787.475 L1675.37 787.13 L1657.8 787.135 L1640.24 787.177 L1622.67 787.222 L1605.11 787.138 L1587.54 787.07 L1569.98 787.13 L1552.41 787.379 L1534.85 787.637 L1517.28 787.866 L1499.72 788.001 L1482.15 788.121 L1464.59 788.231 L1447.02 788.425 L1429.46 788.763 L1411.89 789.289 L1394.33 790.141 L1376.76 790.76 L1359.2 790.978 L1341.63 790.944 L1324.07 790.621 L1306.5 790.215 L1288.94 789.861 L1271.37 789.499 L1253.81 789.235 L1236.24 789.289 L1218.68 789.435 L1201.11 789.474 L1183.55 789.33 L1165.98 789.289 L1148.42 789.382 L1130.85 789.687 L1113.29 789.999 L1095.72 790.275 L1078.16 790.45 L1060.59 790.575 L1043.03 790.72 L1025.46 790.975 L1007.9 791.349 L990.333 791.91 L972.768 792.787 L955.203 793.434 L937.638 793.686 L920.073 793.702 L902.508 793.447 L884.943 793.112 L867.378 792.789 L849.813 792.495 L832.248 792.257 L814.683 792.373 L797.118 792.501 L779.553 792.566 L761.988 792.511 L744.423 792.525 L726.858 792.707 L709.293 793.066 L691.728 793.407 L674.163 793.759 L656.598 794.005 L639.033 794.249 L621.468 794.509 L603.903 794.89 L586.338 795.451 L568.773 796.204 L551.208 797.265 L533.643 798.203 L516.078 798.891 L498.513 799.58 L480.948 799.58 L463.383 799.537 L445.818 799.484 L428.253 799.402 L410.688 799.463  Z" fill="#757575" fill-rule="evenodd" fill-opacity="0.5"/>
<polyline clip-path="url(#clip572)" style="stroke:#757575; stroke-linecap:round; stroke-linejoin:round; stroke-width:0; stroke-opacity:1; fill:none" points="410.688,799.203 428.253,799.141 445.818,799.202 463.383,799.336 480.948,799.491 498.513,799.638 516.078,799.197 533.643,798.819 551.208,798.335 568.773,797.788 586.338,797.432 603.903,797.192 621.468,797.047 639.033,797.003 656.598,797.016 674.163,797.053 691.728,797.045 709.293,797.026 726.858,796.966 744.423,796.963 761.988,796.988 779.553,797.026 797.118,796.97 814.683,796.849 832.248,796.762 849.813,796.913 867.378,797.134 884.943,797.406 902.508,797.685 920.073,797.95 937.638,798.046 955.203,798.001 972.768,797.691 990.333,797.269 1007.9,797.017 1025.46,796.87 1043.03,796.799 1060.59,796.814 1078.16,796.87 1095.72,796.939 1113.29,796.953 1130.85,796.953 1148.42,796.915 1165.98,796.942 1183.55,796.999 1201.11,797.064 1218.68,797.031 1236.24,796.929 1253.81,796.858 1271.37,797.023 1288.94,797.257 1306.5,797.543 1324.07,797.838 1341.63,798.122 1359.2,798.238 1376.76,798.211 1394.33,797.908 1411.89,797.483 1429.46,797.227 1447.02,797.076 1464.59,797.002 1482.15,797.011 1499.72,797.061 1517.28,797.122 1534.85,797.128 1552.41,797.123 1569.98,797.084 1587.54,797.121 1605.11,797.19 1622.67,797.266 1640.24,797.242 1657.8,797.147 1675.37,797.083 1692.93,797.253 1710.5,797.493 1728.06,797.787 1745.63,798.091 1763.19,798.387 1780.76,798.517 1798.32,798.502 1815.89,798.204 1833.45,797.774 1851.02,797.51 1868.58,797.352 1886.15,797.27 1903.71,797.272 1921.28,797.315 1938.84,797.368 1956.41,797.367 1973.97,797.358 1991.54,797.319 2009.1,797.362 2026.67,797.439 2044.23,797.522 2061.8,797.505 2079.36,797.416 2096.93,797.355 2114.49,797.529 2132.06,797.774 2149.62,798.074 2167.19,798.386 2184.75,798.691 2202.32,798.831 2219.88,798.828 2237.45,798.534 2255.01,798.102 2272.58,797.832 2290.14,797.667 2307.71,797.579 2325.27,797.575 2342.84,797.611 2360.4,797.659 2377.97,797.652 2395.53,797.64 2413.1,797.601 2430.66,797.648 2448.23,797.731 2465.79,797.82 2483.36,797.807 2500.92,797.721 2518.49,797.663 2536.05,797.841 2553.62,798.089 2571.18,798.393 2588.75,798.711 2606.31,799.024 2623.88,799.174 2641.44,799.178 2659.01,798.887 2676.57,798.455 2694.14,798.18 2711.7,798.011 2729.27,797.917 2746.83,797.908 2764.4,797.94 2781.96,797.982 2799.53,797.971 2817.09,797.956 2834.66,797.917 2852.22,797.967 2869.79,798.053 2887.35,798.145 2904.92,798.135 2922.48,798.052 2940.05,797.996 2957.61,798.176 2975.18,798.427 2992.74,798.735 3010.31,799.058 3027.87,799.378 3045.44,799.535 3063,799.544 3080.57,799.256 3098.13,798.821 3115.7,798.543 3133.26,798.369 3150.83,798.271 3168.39,798.257 3185.96,798.284 3203.52,798.322 3221.09,798.307 3238.65,798.289 3256.22,798.25 3273.78,798.3 3291.35,798.389 3308.91,798.483 3326.48,798.476 3344.04,798.394 3361.61,798.34 3379.17,798.522 3396.74,798.775 3414.3,799.086 3431.87,799.413 3449.43,799.738 3467,799.9 3484.56,799.915 3502.13,799.629 3519.69,799.192 3537.26,798.911 3554.82,798.732 3572.39,798.63 3589.95,798.612 3607.52,798.634 3625.08,798.669 3642.65,798.65 3660.21,798.63 3677.78,798.589 3695.34,798.64 3712.91,798.729 3730.47,798.824 3748.04,798.818 3765.6,798.739 3783.17,798.686 3800.73,798.869 3818.3,799.124 3835.86,799.437 3853.43,799.768 3870.99,800.096 3888.56,800.263 3906.12,800.28 3923.69,799.995 3941.25,799.558 3958.82,799.274 3976.38,799.091 3993.95,798.986 4011.51,798.964 4029.08,798.983 4046.64,799.013 4064.21,798.991 4081.77,798.968 4099.34,798.926 4116.9,798.977 4134.47,799.067 4152.03,799.164 4169.6,799.159 4187.16,799.08 4204.73,799.028 4222.29,799.213 4239.86,799.469 4257.42,799.785 4274.99,800.118 4292.55,800.45 4310.12,800.62 4327.68,800.641 4345.25,800.358 4362.81,799.92 4380.38,799.633 4397.94,799.446 4415.51,799.336 4433.07,799.311 4450.64,799.326 4468.2,799.353 4485.77,799.328 4503.33,799.303 4520.9,799.259 4538.46,799.309 4556.03,799.399 4573.59,799.496 4591.16,799.492 4608.72,799.414 4626.29,799.363 "/>
<path clip-path="url(#clip572)" d="M410.688 800.656 L428.253 800.636 L445.818 800.864 L463.383 801.385 L480.948 802.091 L498.513 802.844 L516.078 802.859 L533.643 802.756 L551.208 802.142 L568.773 801.419 L586.338 800.989 L603.903 800.688 L621.468 800.493 L639.033 800.715 L656.598 800.874 L674.163 801.266 L691.728 801.614 L709.293 802.036 L726.858 802.237 L744.423 802.491 L761.988 802.769 L779.553 802.974 L797.118 803.006 L814.683 802.701 L832.248 802.375 L849.813 802.707 L867.378 803.316 L884.943 804.18 L902.508 805.106 L920.073 806.061 L937.638 806.655 L955.203 806.882 L972.768 806.459 L990.333 805.828 L1007.9 805.448 L1025.46 805.181 L1043.03 804.947 L1060.59 804.775 L1078.16 804.906 L1095.72 805.246 L1113.29 805.418 L1130.85 805.67 L1148.42 805.901 L1165.98 806.126 L1183.55 806.427 L1201.11 806.69 L1218.68 806.628 L1236.24 806.702 L1253.81 806.342 L1271.37 806.613 L1288.94 807.093 L1306.5 807.863 L1324.07 808.805 L1341.63 809.723 L1359.2 810.344 L1376.76 810.756 L1394.33 810.305 L1411.89 809.496 L1429.46 809.034 L1447.02 808.563 L1464.59 808.352 L1482.15 808.024 L1499.72 808.045 L1517.28 808.256 L1534.85 808.232 L1552.41 808.308 L1569.98 808.377 L1587.54 808.786 L1605.11 809.096 L1622.67 809.497 L1640.24 809.631 L1657.8 809.146 L1675.37 808.75 L1692.93 808.997 L1710.5 809.509 L1728.06 810.389 L1745.63 811.233 L1763.19 812.14 L1780.76 812.744 L1798.32 813.036 L1815.89 812.592 L1833.45 811.656 L1851.02 810.905 L1868.58 810.484 L1886.15 810.185 L1903.71 810.058 L1921.28 810.103 L1938.84 810.179 L1956.41 810.208 L1973.97 810.263 L1991.54 810.371 L2009.1 810.561 L2026.67 810.915 L2044.23 811.255 L2061.8 811.18 L2079.36 810.751 L2096.93 810.205 L2114.49 810.527 L2132.06 811.108 L2149.62 811.911 L2167.19 812.794 L2184.75 813.721 L2202.32 814.257 L2219.88 814.568 L2237.45 813.987 L2255.01 813.173 L2272.58 812.695 L2290.14 812.226 L2307.71 811.779 L2325.27 811.466 L2342.84 811.312 L2360.4 811.368 L2377.97 811.21 L2395.53 811.372 L2413.1 811.564 L2430.66 811.906 L2448.23 812.286 L2465.79 812.389 L2483.36 812.188 L2500.92 811.691 L2518.49 811.344 L2536.05 811.622 L2553.62 812.213 L2571.18 812.978 L2588.75 813.891 L2606.31 815.014 L2623.88 815.743 L2641.44 816.154 L2659.01 815.774 L2676.57 814.691 L2694.14 813.848 L2711.7 813.184 L2729.27 812.644 L2746.83 812.358 L2764.4 812.16 L2781.96 812.222 L2799.53 812.134 L2817.09 812.197 L2834.66 812.273 L2852.22 812.486 L2869.79 812.795 L2887.35 813.038 L2904.92 812.858 L2922.48 812.662 L2940.05 812.237 L2957.61 812.569 L2975.18 813.043 L2992.74 813.793 L3010.31 814.636 L3027.87 815.643 L3045.44 816.445 L3063 816.892 L3080.57 816.484 L3098.13 815.392 L3115.7 814.484 L3133.26 813.821 L3150.83 813.518 L3168.39 813.028 L3185.96 812.861 L3203.52 812.833 L3221.09 812.765 L3238.65 812.798 L3256.22 812.811 L3273.78 813.015 L3291.35 813.277 L3308.91 813.676 L3326.48 813.658 L3344.04 813.35 L3361.61 812.962 L3379.17 813.26 L3396.74 813.763 L3414.3 814.505 L3431.87 815.342 L3449.43 816.306 L3467 816.94 L3484.56 817.37 L3502.13 816.921 L3519.69 815.949 L3537.26 815.21 L3554.82 814.614 L3572.39 814.057 L3589.95 813.71 L3607.52 813.509 L3625.08 813.46 L3642.65 813.356 L3660.21 813.364 L3677.78 813.383 L3695.34 813.553 L3712.91 813.897 L3730.47 814.222 L3748.04 814.253 L3765.6 813.884 L3783.17 813.5 L3800.73 813.733 L3818.3 814.285 L3835.86 815.055 L3853.43 815.973 L3870.99 816.903 L3888.56 817.592 L3906.12 817.898 L3923.69 817.445 L3941.25 816.452 L3958.82 815.568 L3976.38 815.078 L3993.95 814.48 L4011.51 814.154 L4029.08 813.957 L4046.64 813.976 L4064.21 813.808 L4081.77 813.974 L4099.34 814.071 L4116.9 814.097 L4134.47 814.326 L4152.03 814.635 L4169.6 814.67 L4187.16 814.374 L4204.73 813.922 L4222.29 814.146 L4239.86 814.685 L4257.42 815.553 L4274.99 816.435 L4292.55 817.387 L4310.12 817.99 L4327.68 818.373 L4345.25 817.924 L4362.81 816.922 L4380.38 816.008 L4397.94 815.472 L4415.51 814.942 L4433.07 814.632 L4450.64 814.307 L4468.2 814.294 L4485.77 814.302 L4503.33 814.383 L4520.9 814.572 L4538.46 814.709 L4556.03 814.925 L4573.59 815.155 L4591.16 815.173 L4608.72 814.815 L4626.29 814.308 L4626.29 787.489 L4608.72 787.412 L4591.16 787.413 L4573.59 787.208 L4556.03 786.889 L4538.46 786.751 L4520.9 786.655 L4503.33 786.823 L4485.77 787.031 L4468.2 787.246 L4450.64 787.239 L4433.07 787.262 L4415.51 787.245 L4397.94 787.403 L4380.38 787.673 L4362.81 788.178 L4345.25 788.993 L4327.68 789.581 L4310.12 789.639 L4292.55 789.456 L4274.99 788.963 L4257.42 788.362 L4239.86 787.787 L4222.29 787.264 L4204.73 786.831 L4187.16 786.815 L4169.6 786.838 L4152.03 786.694 L4134.47 786.346 L4116.9 786.171 L4099.34 786.118 L4081.77 786.29 L4064.21 786.485 L4046.64 786.722 L4029.08 786.776 L4011.51 786.772 L3993.95 786.717 L3976.38 786.852 L3958.82 787.123 L3941.25 787.573 L3923.69 788.333 L3906.12 788.889 L3888.56 789.002 L3870.99 788.896 L3853.43 788.431 L3835.86 787.903 L3818.3 787.325 L3800.73 786.825 L3783.17 786.399 L3765.6 786.325 L3748.04 786.415 L3730.47 786.238 L3712.91 785.947 L3695.34 785.811 L3677.78 785.774 L3660.21 785.912 L3642.65 786.091 L3625.08 786.232 L3607.52 786.305 L3589.95 786.301 L3572.39 786.234 L3554.82 786.356 L3537.26 786.666 L3519.69 787.184 L3502.13 787.94 L3484.56 788.495 L3467 788.628 L3449.43 788.517 L3431.87 788.02 L3414.3 787.513 L3396.74 786.998 L3379.17 786.492 L3361.61 786.071 L3344.04 786.021 L3326.48 785.997 L3308.91 785.844 L3291.35 785.583 L3273.78 785.416 L3256.22 785.425 L3238.65 785.635 L3221.09 785.875 L3203.52 786.014 L3185.96 786.037 L3168.39 786.027 L3150.83 786.059 L3133.26 786.21 L3115.7 786.49 L3098.13 786.988 L3080.57 787.765 L3063 788.328 L3045.44 788.461 L3027.87 788.361 L3010.31 787.924 L2992.74 787.384 L2975.18 786.869 L2957.61 786.443 L2940.05 786.02 L2922.48 785.929 L2904.92 785.955 L2887.35 785.802 L2869.79 785.532 L2852.22 785.399 L2834.66 785.408 L2817.09 785.613 L2799.53 785.81 L2781.96 786.051 L2764.4 786.116 L2746.83 786.093 L2729.27 786.115 L2711.7 786.31 L2694.14 786.604 L2676.57 787.108 L2659.01 787.899 L2641.44 788.485 L2623.88 788.608 L2606.31 788.484 L2588.75 788.059 L2571.18 787.57 L2553.62 787.079 L2536.05 786.651 L2518.49 786.23 L2500.92 786.193 L2483.36 786.199 L2465.79 786.088 L2448.23 785.882 L2430.66 785.772 L2413.1 785.752 L2395.53 785.987 L2377.97 786.201 L2360.4 786.445 L2342.84 786.517 L2325.27 786.515 L2307.71 786.505 L2290.14 786.656 L2272.58 786.993 L2255.01 787.525 L2237.45 788.286 L2219.88 788.912 L2202.32 789.058 L2184.75 788.955 L2167.19 788.557 L2149.62 788.122 L2132.06 787.656 L2114.49 787.262 L2096.93 786.964 L2079.36 786.936 L2061.8 786.857 L2044.23 786.809 L2026.67 786.636 L2009.1 786.505 L1991.54 786.484 L1973.97 786.743 L1956.41 786.981 L1938.84 787.184 L1921.28 787.315 L1903.71 787.351 L1886.15 787.348 L1868.58 787.496 L1851.02 787.796 L1833.45 788.356 L1815.89 789.112 L1798.32 789.745 L1780.76 789.944 L1763.19 789.925 L1745.63 789.576 L1728.06 789.148 L1710.5 788.68 L1692.93 788.305 L1675.37 788.029 L1657.8 788.04 L1640.24 788.038 L1622.67 787.985 L1605.11 787.813 L1587.54 787.753 L1569.98 787.757 L1552.41 788.034 L1534.85 788.277 L1517.28 788.532 L1499.72 788.654 L1482.15 788.757 L1464.59 788.819 L1447.02 789.006 L1429.46 789.309 L1411.89 789.857 L1394.33 790.721 L1376.76 791.38 L1359.2 791.556 L1341.63 791.57 L1324.07 791.242 L1306.5 790.853 L1288.94 790.457 L1271.37 790.112 L1253.81 789.758 L1236.24 789.786 L1218.68 789.905 L1201.11 789.878 L1183.55 789.796 L1165.98 789.754 L1148.42 789.877 L1130.85 790.154 L1113.29 790.376 L1095.72 790.676 L1078.16 790.815 L1060.59 790.935 L1043.03 791.048 L1025.46 791.286 L1007.9 791.646 L990.333 792.185 L972.768 793.065 L955.203 793.754 L937.638 794.012 L920.073 794.04 L902.508 793.771 L884.943 793.454 L867.378 793.074 L849.813 792.742 L832.248 792.473 L814.683 792.58 L797.118 792.736 L779.553 792.822 L761.988 792.806 L744.423 792.858 L726.858 793.072 L709.293 793.447 L691.728 793.783 L674.163 794.096 L656.598 794.285 L639.033 794.454 L621.468 794.677 L603.903 795.045 L586.338 795.582 L568.773 796.337 L551.208 797.42 L533.643 798.381 L516.078 799.061 L498.513 799.715 L480.948 799.685 L463.383 799.608 L445.818 799.521 L428.253 799.456 L410.688 799.502  Z" fill="#aeaeae" fill-rule="evenodd" fill-opacity="0.5"/>
<polyline clip-path="url(#clip572)" style="stroke:#aeaeae; stroke-linecap:round; stroke-linejoin:round; stroke-width:0; stroke-opacity:1; fill:none" points="410.688,799.203 428.253,799.141 445.818,799.202 463.383,799.336 480.948,799.491 498.513,799.638 516.078,799.197 533.643,798.819 551.208,798.335 568.773,797.788 586.338,797.432 603.903,797.192 621.468,797.047 639.033,797.003 656.598,797.016 674.163,797.053 691.728,797.045 709.293,797.026 726.858,796.966 744.423,796.963 761.988,796.988 779.553,797.026 797.118,796.97 814.683,796.849 832.248,796.762 849.813,796.913 867.378,797.134 884.943,797.406 902.508,797.685 920.073,797.95 937.638,798.046 955.203,798.001 972.768,797.691 990.333,797.269 1007.9,797.017 1025.46,796.87 1043.03,796.799 1060.59,796.814 1078.16,796.87 1095.72,796.939 1113.29,796.953 1130.85,796.953 1148.42,796.915 1165.98,796.942 1183.55,796.999 1201.11,797.064 1218.68,797.031 1236.24,796.929 1253.81,796.858 1271.37,797.023 1288.94,797.257 1306.5,797.543 1324.07,797.838 1341.63,798.122 1359.2,798.238 1376.76,798.211 1394.33,797.908 1411.89,797.483 1429.46,797.227 1447.02,797.076 1464.59,797.002 1482.15,797.011 1499.72,797.061 1517.28,797.122 1534.85,797.128 1552.41,797.123 1569.98,797.084 1587.54,797.121 1605.11,797.19 1622.67,797.266 1640.24,797.242 1657.8,797.147 1675.37,797.083 1692.93,797.253 1710.5,797.493 1728.06,797.787 1745.63,798.091 1763.19,798.387 1780.76,798.517 1798.32,798.502 1815.89,798.204 1833.45,797.774 1851.02,797.51 1868.58,797.352 1886.15,797.27 1903.71,797.272 1921.28,797.315 1938.84,797.368 1956.41,797.367 1973.97,797.358 1991.54,797.319 2009.1,797.362 2026.67,797.439 2044.23,797.522 2061.8,797.505 2079.36,797.416 2096.93,797.355 2114.49,797.529 2132.06,797.774 2149.62,798.074 2167.19,798.386 2184.75,798.691 2202.32,798.831 2219.88,798.828 2237.45,798.534 2255.01,798.102 2272.58,797.832 2290.14,797.667 2307.71,797.579 2325.27,797.575 2342.84,797.611 2360.4,797.659 2377.97,797.652 2395.53,797.64 2413.1,797.601 2430.66,797.648 2448.23,797.731 2465.79,797.82 2483.36,797.807 2500.92,797.721 2518.49,797.663 2536.05,797.841 2553.62,798.089 2571.18,798.393 2588.75,798.711 2606.31,799.024 2623.88,799.174 2641.44,799.178 2659.01,798.887 2676.57,798.455 2694.14,798.18 2711.7,798.011 2729.27,797.917 2746.83,797.908 2764.4,797.94 2781.96,797.982 2799.53,797.971 2817.09,797.956 2834.66,797.917 2852.22,797.967 2869.79,798.053 2887.35,798.145 2904.92,798.135 2922.48,798.052 2940.05,797.996 2957.61,798.176 2975.18,798.427 2992.74,798.735 3010.31,799.058 3027.87,799.378 3045.44,799.535 3063,799.544 3080.57,799.256 3098.13,798.821 3115.7,798.543 3133.26,798.369 3150.83,798.271 3168.39,798.257 3185.96,798.284 3203.52,798.322 3221.09,798.307 3238.65,798.289 3256.22,798.25 3273.78,798.3 3291.35,798.389 3308.91,798.483 3326.48,798.476 3344.04,798.394 3361.61,798.34 3379.17,798.522 3396.74,798.775 3414.3,799.086 3431.87,799.413 3449.43,799.738 3467,799.9 3484.56,799.915 3502.13,799.629 3519.69,799.192 3537.26,798.911 3554.82,798.732 3572.39,798.63 3589.95,798.612 3607.52,798.634 3625.08,798.669 3642.65,798.65 3660.21,798.63 3677.78,798.589 3695.34,798.64 3712.91,798.729 3730.47,798.824 3748.04,798.818 3765.6,798.739 3783.17,798.686 3800.73,798.869 3818.3,799.124 3835.86,799.437 3853.43,799.768 3870.99,800.096 3888.56,800.263 3906.12,800.28 3923.69,799.995 3941.25,799.558 3958.82,799.274 3976.38,799.091 3993.95,798.986 4011.51,798.964 4029.08,798.983 4046.64,799.013 4064.21,798.991 4081.77,798.968 4099.34,798.926 4116.9,798.977 4134.47,799.067 4152.03,799.164 4169.6,799.159 4187.16,799.08 4204.73,799.028 4222.29,799.213 4239.86,799.469 4257.42,799.785 4274.99,800.118 4292.55,800.45 4310.12,800.62 4327.68,800.641 4345.25,800.358 4362.81,799.92 4380.38,799.633 4397.94,799.446 4415.51,799.336 4433.07,799.311 4450.64,799.326 4468.2,799.353 4485.77,799.328 4503.33,799.303 4520.9,799.259 4538.46,799.309 4556.03,799.399 4573.59,799.496 4591.16,799.492 4608.72,799.414 4626.29,799.363 "/>
<path clip-path="url(#clip570)" d="M3837.68 594.22 L4603.8 594.22 L4603.8 75.8205 L3837.68 75.8205  Z" fill="#ffffff" fill-rule="evenodd" fill-opacity="1"/>
<polyline clip-path="url(#clip570)" style="stroke:#000000; stroke-linecap:round; stroke-linejoin:round; stroke-width:4; stroke-opacity:1; fill:none" points="3837.68,594.22 4603.8,594.22 4603.8,75.8205 3837.68,75.8205 3837.68,594.22 "/>
<polyline clip-path="url(#clip570)" style="stroke:#414141; stroke-linecap:round; stroke-linejoin:round; stroke-width:2; stroke-opacity:1; fill:none" points="3887.33,205.42 4185.23,205.42 "/>
<path clip-path="url(#clip570)" d="M4236.56 238.783 L4255.66 238.783 L4255.66 172.869 L4234.89 177.035 L4234.89 166.387 L4255.54 162.22 L4267.23 162.22 L4267.23 238.783 L4286.33 238.783 L4286.33 248.62 L4236.56 248.62 L4236.56 238.783 Z" fill="#000000" fill-rule="nonzero" fill-opacity="1" /><path clip-path="url(#clip570)" d="M4334.94 169.917 Q4325.91 169.917 4321.34 178.829 Q4316.83 187.683 4316.83 205.507 Q4316.83 223.273 4321.34 232.185 Q4325.91 241.039 4334.94 241.039 Q4344.03 241.039 4348.54 232.185 Q4353.11 223.273 4353.11 205.507 Q4353.11 187.683 4348.54 178.829 Q4344.03 169.917 4334.94 169.917 M4334.94 160.658 Q4349.47 160.658 4357.11 172.174 Q4364.8 183.632 4364.8 205.507 Q4364.8 227.324 4357.11 238.84 Q4349.47 250.299 4334.94 250.299 Q4320.42 250.299 4312.72 238.84 Q4305.08 227.324 4305.08 205.507 Q4305.08 183.632 4312.72 172.174 Q4320.42 160.658 4334.94 160.658 Z" fill="#000000" fill-rule="nonzero" fill-opacity="1" /><path clip-path="url(#clip570)" d="M4410.35 169.917 Q4401.32 169.917 4396.75 178.829 Q4392.23 187.683 4392.23 205.507 Q4392.23 223.273 4396.75 232.185 Q4401.32 241.039 4410.35 241.039 Q4419.43 241.039 4423.95 232.185 Q4428.52 223.273 4428.52 205.507 Q4428.52 187.683 4423.95 178.829 Q4419.43 169.917 4410.35 169.917 M4410.35 160.658 Q4424.87 160.658 4432.51 172.174 Q4440.21 183.632 4440.21 205.507 Q4440.21 227.324 4432.51 238.84 Q4424.87 250.299 4410.35 250.299 Q4395.82 250.299 4388.13 238.84 Q4380.49 227.324 4380.49 205.507 Q4380.49 183.632 4388.13 172.174 Q4395.82 160.658 4410.35 160.658 Z" fill="#000000" fill-rule="nonzero" fill-opacity="1" /><path clip-path="url(#clip570)" d="M4534.25 210.6 Q4529.21 210.6 4526.32 214.882 Q4523.48 219.165 4523.48 226.803 Q4523.48 234.327 4526.32 238.667 Q4529.21 242.949 4534.25 242.949 Q4539.17 242.949 4542 238.667 Q4544.9 234.327 4544.9 226.803 Q4544.9 219.222 4542 214.94 Q4539.17 210.6 4534.25 210.6 M4534.25 203.25 Q4543.39 203.25 4548.77 209.616 Q4554.15 215.982 4554.15 226.803 Q4554.15 237.625 4548.71 243.991 Q4543.33 250.299 4534.25 250.299 Q4524.99 250.299 4519.61 243.991 Q4514.22 237.625 4514.22 226.803 Q4514.22 215.924 4519.61 209.616 Q4525.05 203.25 4534.25 203.25 M4474.53 168.007 Q4469.55 168.007 4466.65 172.348 Q4463.82 176.63 4463.82 184.153 Q4463.82 191.792 4466.65 196.074 Q4469.49 200.357 4474.53 200.357 Q4479.56 200.357 4482.4 196.074 Q4485.29 191.792 4485.29 184.153 Q4485.29 176.688 4482.4 172.348 Q4479.5 168.007 4474.53 168.007 M4526.78 160.658 L4536.04 160.658 L4481.99 250.299 L4472.73 250.299 L4526.78 160.658 M4474.53 160.658 Q4483.67 160.658 4489.11 167.024 Q4494.55 173.332 4494.55 184.153 Q4494.55 195.091 4489.11 201.399 Q4483.73 207.706 4474.53 207.706 Q4465.32 207.706 4459.94 201.399 Q4454.62 195.033 4454.62 184.153 Q4454.62 173.389 4460 167.024 Q4465.38 160.658 4474.53 160.658 Z" fill="#000000" fill-rule="nonzero" fill-opacity="1" /><polyline clip-path="url(#clip570)" style="stroke:#757575; stroke-linecap:round; stroke-linejoin:round; stroke-width:2; stroke-opacity:1; fill:none" points="3887.33,335.02 4185.23,335.02 "/>
<path clip-path="url(#clip570)" d="M4240.44 376.427 L4240.44 365.778 Q4244.84 367.862 4249.35 368.961 Q4253.87 370.061 4258.21 370.061 Q4269.78 370.061 4275.86 362.306 Q4281.99 354.494 4282.86 338.637 Q4279.5 343.614 4274.35 346.276 Q4269.2 348.938 4262.95 348.938 Q4249.99 348.938 4242.41 341.126 Q4234.89 333.255 4234.89 319.656 Q4234.89 306.346 4242.76 298.302 Q4250.63 290.258 4263.7 290.258 Q4278.69 290.258 4286.56 301.774 Q4294.49 313.232 4294.49 335.107 Q4294.49 355.535 4284.77 367.746 Q4275.1 379.899 4258.73 379.899 Q4254.33 379.899 4249.82 379.031 Q4245.3 378.163 4240.44 376.427 M4263.7 339.795 Q4271.57 339.795 4276.15 334.413 Q4280.78 329.031 4280.78 319.656 Q4280.78 310.339 4276.15 304.957 Q4271.57 299.517 4263.7 299.517 Q4255.83 299.517 4251.2 304.957 Q4246.63 310.339 4246.63 319.656 Q4246.63 329.031 4251.2 334.413 Q4255.83 339.795 4263.7 339.795 Z" fill="#000000" fill-rule="nonzero" fill-opacity="1" /><path clip-path="url(#clip570)" d="M4340.5 299.517 Q4331.47 299.517 4326.9 308.429 Q4322.38 317.283 4322.38 335.107 Q4322.38 352.873 4326.9 361.785 Q4331.47 370.639 4340.5 370.639 Q4349.58 370.639 4354.1 361.785 Q4358.67 352.873 4358.67 335.107 Q4358.67 317.283 4354.1 308.429 Q4349.58 299.517 4340.5 299.517 M4340.5 290.258 Q4355.02 290.258 4362.66 301.774 Q4370.36 313.232 4370.36 335.107 Q4370.36 356.924 4362.66 368.44 Q4355.02 379.899 4340.5 379.899 Q4325.97 379.899 4318.28 368.44 Q4310.64 356.924 4310.64 335.107 Q4310.64 313.232 4318.28 301.774 Q4325.97 290.258 4340.5 290.258 Z" fill="#000000" fill-rule="nonzero" fill-opacity="1" /><path clip-path="url(#clip570)" d="M4464.4 340.2 Q4459.36 340.2 4456.47 344.482 Q4453.63 348.765 4453.63 356.403 Q4453.63 363.927 4456.47 368.267 Q4459.36 372.549 4464.4 372.549 Q4469.32 372.549 4472.15 368.267 Q4475.05 363.927 4475.05 356.403 Q4475.05 348.822 4472.15 344.54 Q4469.32 340.2 4464.4 340.2 M4464.4 332.85 Q4473.54 332.85 4478.92 339.216 Q4484.31 345.582 4484.31 356.403 Q4484.31 367.225 4478.87 373.591 Q4473.48 379.899 4464.4 379.899 Q4455.14 379.899 4449.76 373.591 Q4444.37 367.225 4444.37 356.403 Q4444.37 345.524 4449.76 339.216 Q4455.2 332.85 4464.4 332.85 M4404.68 297.607 Q4399.7 297.607 4396.81 301.948 Q4393.97 306.23 4393.97 313.753 Q4393.97 321.392 4396.81 325.674 Q4399.64 329.957 4404.68 329.957 Q4409.71 329.957 4412.55 325.674 Q4415.44 321.392 4415.44 313.753 Q4415.44 306.288 4412.55 301.948 Q4409.65 297.607 4404.68 297.607 M4456.93 290.258 L4466.19 290.258 L4412.14 379.899 L4402.88 379.899 L4456.93 290.258 M4404.68 290.258 Q4413.82 290.258 4419.26 296.624 Q4424.7 302.932 4424.7 313.753 Q4424.7 324.691 4419.26 330.999 Q4413.88 337.306 4404.68 337.306 Q4395.47 337.306 4390.09 330.999 Q4384.77 324.633 4384.77 313.753 Q4384.77 302.989 4390.15 296.624 Q4395.53 290.258 4404.68 290.258 Z" fill="#000000" fill-rule="nonzero" fill-opacity="1" /><polyline clip-path="url(#clip570)" style="stroke:#aeaeae; stroke-linecap:round; stroke-linejoin:round; stroke-width:2; stroke-opacity:1; fill:none" points="3887.33,464.62 4185.23,464.62 "/>
<path clip-path="url(#clip570)" d="M4264.51 466.791 Q4256.18 466.791 4251.38 471.247 Q4246.63 475.703 4246.63 483.515 Q4246.63 491.328 4251.38 495.783 Q4256.18 500.239 4264.51 500.239 Q4272.85 500.239 4277.65 495.783 Q4282.45 491.27 4282.45 483.515 Q4282.45 475.703 4277.65 471.247 Q4272.91 466.791 4264.51 466.791 M4252.82 461.814 Q4245.3 459.962 4241.08 454.811 Q4236.91 449.661 4236.91 442.254 Q4236.91 431.895 4244.26 425.876 Q4251.67 419.858 4264.51 419.858 Q4277.42 419.858 4284.77 425.876 Q4292.12 431.895 4292.12 442.254 Q4292.12 449.661 4287.89 454.811 Q4283.73 459.962 4276.26 461.814 Q4284.71 463.781 4289.4 469.51 Q4294.14 475.24 4294.14 483.515 Q4294.14 496.073 4286.45 502.786 Q4278.81 509.499 4264.51 509.499 Q4250.22 509.499 4242.52 502.786 Q4234.89 496.073 4234.89 483.515 Q4234.89 475.24 4239.63 469.51 Q4244.38 463.781 4252.82 461.814 M4248.54 443.353 Q4248.54 450.066 4252.71 453.828 Q4256.93 457.589 4264.51 457.589 Q4272.04 457.589 4276.26 453.828 Q4280.54 450.066 4280.54 443.353 Q4280.54 436.64 4276.26 432.879 Q4272.04 429.117 4264.51 429.117 Q4256.93 429.117 4252.71 432.879 Q4248.54 436.64 4248.54 443.353 Z" fill="#000000" fill-rule="nonzero" fill-opacity="1" /><path clip-path="url(#clip570)" d="M4339.92 429.117 Q4330.89 429.117 4326.32 438.029 Q4321.81 446.883 4321.81 464.707 Q4321.81 482.473 4326.32 491.385 Q4330.89 500.239 4339.92 500.239 Q4349 500.239 4353.52 491.385 Q4358.09 482.473 4358.09 464.707 Q4358.09 446.883 4353.52 438.029 Q4349 429.117 4339.92 429.117 M4339.92 419.858 Q4354.44 419.858 4362.08 431.374 Q4369.78 442.832 4369.78 464.707 Q4369.78 486.524 4362.08 498.04 Q4354.44 509.499 4339.92 509.499 Q4325.39 509.499 4317.7 498.04 Q4310.06 486.524 4310.06 464.707 Q4310.06 442.832 4317.7 431.374 Q4325.39 419.858 4339.92 419.858 Z" fill="#000000" fill-rule="nonzero" fill-opacity="1" /><path clip-path="url(#clip570)" d="M4463.82 469.8 Q4458.78 469.8 4455.89 474.082 Q4453.06 478.365 4453.06 486.003 Q4453.06 493.527 4455.89 497.867 Q4458.78 502.149 4463.82 502.149 Q4468.74 502.149 4471.57 497.867 Q4474.47 493.527 4474.47 486.003 Q4474.47 478.422 4471.57 474.14 Q4468.74 469.8 4463.82 469.8 M4463.82 462.45 Q4472.96 462.45 4478.34 468.816 Q4483.73 475.182 4483.73 486.003 Q4483.73 496.825 4478.29 503.191 Q4472.9 509.499 4463.82 509.499 Q4454.56 509.499 4449.18 503.191 Q4443.8 496.825 4443.8 486.003 Q4443.8 475.124 4449.18 468.816 Q4454.62 462.45 4463.82 462.45 M4404.1 427.207 Q4399.12 427.207 4396.23 431.548 Q4393.39 435.83 4393.39 443.353 Q4393.39 450.992 4396.23 455.274 Q4399.06 459.557 4404.1 459.557 Q4409.13 459.557 4411.97 455.274 Q4414.86 450.992 4414.86 443.353 Q4414.86 435.888 4411.97 431.548 Q4409.07 427.207 4404.1 427.207 M4456.35 419.858 L4465.61 419.858 L4411.56 509.499 L4402.3 509.499 L4456.35 419.858 M4404.1 419.858 Q4413.24 419.858 4418.68 426.224 Q4424.12 432.532 4424.12 443.353 Q4424.12 454.291 4418.68 460.599 Q4413.3 466.906 4404.1 466.906 Q4394.9 466.906 4389.51 460.599 Q4384.19 454.233 4384.19 443.353 Q4384.19 432.589 4389.57 426.224 Q4394.95 419.858 4404.1 419.858 Z" fill="#000000" fill-rule="nonzero" fill-opacity="1" /></svg>
