<?xml version="1.0" encoding="UTF-8" standalone="no"?>
<svg
   width="1200"
   height="800"
   viewBox="0 0 4800 3200"
   version="1.1"
   id="svg43"
   sodipodi:docname="c.svg"
   inkscape:version="1.3 (0e150ed6c4, 2023-07-21)"
   xmlns:inkscape="http://www.inkscape.org/namespaces/inkscape"
   xmlns:sodipodi="http://sodipodi.sourceforge.net/DTD/sodipodi-0.dtd"
   xmlns="http://www.w3.org/2000/svg"
   xmlns:svg="http://www.w3.org/2000/svg">
  <sodipodi:namedview
     id="namedview43"
     pagecolor="#ffffff"
     bordercolor="#000000"
     borderopacity="0.25"
     inkscape:showpageshadow="2"
     inkscape:pageopacity="0.0"
     inkscape:pagecheckerboard="0"
     inkscape:deskcolor="#d1d1d1"
     inkscape:zoom="0.74416667"
     inkscape:cx="600"
     inkscape:cy="400.44793"
     inkscape:window-width="1920"
     inkscape:window-height="1010"
     inkscape:window-x="1529"
     inkscape:window-y="-6"
     inkscape:window-maximized="1"
     inkscape:current-layer="svg43" />
  <defs
     id="defs1">
    <clipPath
       id="clip400">
      <rect
         x="0"
         y="0"
         width="4800"
         height="3200"
         id="rect1" />
    </clipPath>
  </defs>
  <defs
     id="defs2">
    <clipPath
       id="clip401">
      <rect
         x="960"
         y="0"
         width="3361"
         height="3200"
         id="rect2" />
    </clipPath>
  </defs>
  <path
     clip-path="url(#clip400)"
     d="M217.936 1470.45 L1552.76 1470.45 L1552.76 123.472 L217.936 123.472  Z"
     fill="#ffffff"
     fill-rule="evenodd"
     fill-opacity="1"
     id="path2" />
  <defs
     id="defs3">
    <clipPath
       id="clip402">
      <rect
         x="217"
         y="123"
         width="1336"
         height="1348"
         id="rect3" />
    </clipPath>
  </defs>
  <path
     clip-path="url(#clip400)"
     d="M886.359 28.9478 L886.359 35.9153 Q883.199 34.1734 879.999 33.3227 Q876.839 32.4315 873.598 32.4315 Q866.347 32.4315 862.337 37.0496 Q858.326 41.6271 858.326 49.9314 Q858.326 58.2358 862.337 62.8538 Q866.347 67.4314 873.598 67.4314 Q876.839 67.4314 879.999 66.5807 Q883.199 65.6895 886.359 63.9476 L886.359 70.8341 Q883.239 72.2924 879.877 73.0216 Q876.555 73.7508 872.788 73.7508 Q862.539 73.7508 856.504 67.3098 Q850.468 60.8689 850.468 49.9314 Q850.468 38.832 856.544 32.472 Q862.661 26.1121 873.274 26.1121 Q876.718 26.1121 879.999 26.8413 Q883.28 27.5299 886.359 28.9478 Z"
     fill="#000000"
     fill-rule="nonzero"
     fill-opacity="1"
     id="path3" />
  <path
     clip-path="url(#clip400)"
     d="M897.823 68.12 L906.087 68.12 L906.087 43.369 L897.053 45.0299 L897.053 40.3308 L906.37 38.7509 L911.92 38.7509 L911.92 68.12 L920.224 68.12 L920.224 72.576 L897.823 72.576 L897.823 68.12 Z"
     fill="#000000"
     fill-rule="nonzero"
     fill-opacity="1"
     id="path4" />
  <path
     clip-path="url(#clip402)"
     d="M885.229 796.899 L1514.98 796.899 L1513.47 753.351 L1508.96 710.011 L1501.45 667.087 L1491 624.785 L1477.65 583.306 L1461.46 542.851 L1442.51 503.611 L1420.9 465.776 L1396.72 429.526 L1370.09 395.035 L1341.14 362.468 L1310.01 331.981 L1276.84 303.72 L1241.8 277.82 L1205.05 254.405 L1166.77 233.588 L1127.14 215.467 L1086.35 200.13 L1044.6 187.651 L1002.09 178.088 L959.021 171.488 L915.596 167.882 L872.025 167.288 L828.518 169.709 L785.282 175.132 L742.525 183.532 L700.451 194.868 L659.262 209.087 L619.155 226.12 L580.321 245.886 L542.947 268.29 L507.212 293.225 L473.287 320.571 L441.334 350.198 L411.507 381.964 L383.947 415.716 L358.788 451.293 L336.149 488.524 L316.138 527.233 L298.853 567.232 L284.375 608.331 L272.773 650.332 L264.104 693.036 L258.408 736.236 L255.714 779.727 L256.033 823.301 L259.365 866.748 L265.694 909.86 L274.988 952.432 L885.229 796.899  Z"
     fill="#9e0142"
     fill-rule="evenodd"
     fill-opacity="1"
     id="path5" />
  <polyline
     clip-path="url(#clip402)"
     style="stroke:#000000; stroke-linecap:round; stroke-linejoin:round; stroke-width:4; stroke-opacity:0; fill:none"
     points="885.229,796.899 1514.98,796.899 1513.47,753.351 1508.96,710.011 1501.45,667.087 1491,624.785 1477.65,583.306 1461.46,542.851 1442.51,503.611 1420.9,465.776 1396.72,429.526 1370.09,395.035 1341.14,362.468 1310.01,331.981 1276.84,303.72 1241.8,277.82 1205.05,254.405 1166.77,233.588 1127.14,215.467 1086.35,200.13 1044.6,187.651 1002.09,178.088 959.021,171.488 915.596,167.882 872.025,167.288 828.518,169.709 785.282,175.132 742.525,183.532 700.451,194.868 659.262,209.087 619.155,226.12 580.321,245.886 542.947,268.29 507.212,293.225 473.287,320.571 441.334,350.198 411.507,381.964 383.947,415.716 358.788,451.293 336.149,488.524 316.138,527.233 298.853,567.232 284.375,608.331 272.773,650.332 264.104,693.036 258.408,736.236 255.714,779.727 256.033,823.301 259.365,866.748 265.694,909.86 274.988,952.432 885.229,796.899 "
     id="polyline5" />
  <path
     clip-path="url(#clip402)"
     d="M885.229 796.899 L274.988 952.432 L280.797 973.666 L287.345 994.685 L294.624 1015.46 L302.624 1035.97 L311.336 1056.19 L320.75 1076.09 L330.853 1095.65 L341.634 1114.84 L353.079 1133.65 L365.175 1152.04 L377.906 1170 L391.257 1187.51 L405.211 1204.53 L419.752 1221.06 L434.863 1237.07 L450.523 1252.55 L466.715 1267.46 L483.418 1281.8 L500.612 1295.55 L518.276 1308.69 L536.389 1321.2 L554.928 1333.08 L573.871 1344.29 L593.194 1354.84 L612.874 1364.71 L632.887 1373.88 L653.208 1382.35 L673.813 1390.1 L694.676 1397.13 L715.772 1403.42 L737.075 1408.97 L758.559 1413.78 L780.198 1417.83 L801.965 1421.12 L823.835 1423.65 L845.779 1425.41 L867.771 1426.41 L889.785 1426.63 L911.793 1426.09 L933.768 1424.77 L955.684 1422.69 L977.515 1419.85 L999.232 1416.24 L1020.81 1411.88 L1042.22 1406.77 L1063.44 1400.91 L1084.45 1394.31 L1105.21 1386.98 L1125.7 1378.93 L885.229 796.899  Z"
     fill="#c0274a"
     fill-rule="evenodd"
     fill-opacity="1"
     id="path6" />
  <polyline
     clip-path="url(#clip402)"
     style="stroke:#000000; stroke-linecap:round; stroke-linejoin:round; stroke-width:4; stroke-opacity:0; fill:none"
     points="885.229,796.899 274.988,952.432 280.797,973.666 287.345,994.685 294.624,1015.46 302.624,1035.97 311.336,1056.19 320.75,1076.09 330.853,1095.65 341.634,1114.84 353.079,1133.65 365.175,1152.04 377.906,1170 391.257,1187.51 405.211,1204.53 419.752,1221.06 434.863,1237.07 450.523,1252.55 466.715,1267.46 483.418,1281.8 500.612,1295.55 518.276,1308.69 536.389,1321.2 554.928,1333.08 573.871,1344.29 593.194,1354.84 612.874,1364.71 632.887,1373.88 653.208,1382.35 673.813,1390.1 694.676,1397.13 715.772,1403.42 737.075,1408.97 758.559,1413.78 780.198,1417.83 801.965,1421.12 823.835,1423.65 845.779,1425.41 867.771,1426.41 889.785,1426.63 911.793,1426.09 933.768,1424.77 955.684,1422.69 977.515,1419.85 999.232,1416.24 1020.81,1411.88 1042.22,1406.77 1063.44,1400.91 1084.45,1394.31 1105.21,1386.98 1125.7,1378.93 885.229,796.899 "
     id="polyline6" />
  <path
     clip-path="url(#clip402)"
     d="M885.229 796.899 L1125.7 1378.93 L1128.9 1377.6 L1132.09 1376.24 L1135.28 1374.88 L1138.46 1373.49 L1141.64 1372.09 L1144.8 1370.66 L1147.96 1369.22 L1151.11 1367.77 L1154.25 1366.3 L1157.38 1364.8 L1160.51 1363.3 L1163.62 1361.77 L1166.73 1360.23 L1169.83 1358.67 L1172.92 1357.09 L1176 1355.5 L1179.08 1353.89 L1182.14 1352.26 L1185.2 1350.62 L1188.24 1348.96 L1191.28 1347.28 L1194.31 1345.58 L1197.33 1343.87 L1200.34 1342.14 L1203.33 1340.4 L1206.32 1338.64 L1209.3 1336.86 L1212.27 1335.07 L1215.23 1333.26 L1218.18 1331.43 L1221.12 1329.59 L1224.05 1327.73 L1226.97 1325.85 L1229.88 1323.96 L1232.78 1322.06 L1235.67 1320.13 L1238.55 1318.2 L1241.41 1316.24 L1244.27 1314.27 L1247.12 1312.28 L1249.95 1310.28 L1252.77 1308.27 L1255.58 1306.23 L1258.38 1304.18 L1261.17 1302.12 L1263.95 1300.04 L1266.72 1297.95 L1269.47 1295.84 L1272.22 1293.71 L885.229 796.899  Z"
     fill="#dc494c"
     fill-rule="evenodd"
     fill-opacity="1"
     id="path7" />
  <polyline
     clip-path="url(#clip402)"
     style="stroke:#000000; stroke-linecap:round; stroke-linejoin:round; stroke-width:4; stroke-opacity:0; fill:none"
     points="885.229,796.899 1125.7,1378.93 1128.9,1377.6 1132.09,1376.24 1135.28,1374.88 1138.46,1373.49 1141.64,1372.09 1144.8,1370.66 1147.96,1369.22 1151.11,1367.77 1154.25,1366.3 1157.38,1364.8 1160.51,1363.3 1163.62,1361.77 1166.73,1360.23 1169.83,1358.67 1172.92,1357.09 1176,1355.5 1179.08,1353.89 1182.14,1352.26 1185.2,1350.62 1188.24,1348.96 1191.28,1347.28 1194.31,1345.58 1197.33,1343.87 1200.34,1342.14 1203.33,1340.4 1206.32,1338.64 1209.3,1336.86 1212.27,1335.07 1215.23,1333.26 1218.18,1331.43 1221.12,1329.59 1224.05,1327.73 1226.97,1325.85 1229.88,1323.96 1232.78,1322.06 1235.67,1320.13 1238.55,1318.2 1241.41,1316.24 1244.27,1314.27 1247.12,1312.28 1249.95,1310.28 1252.77,1308.27 1255.58,1306.23 1258.38,1304.18 1261.17,1302.12 1263.95,1300.04 1266.72,1297.95 1269.47,1295.84 1272.22,1293.71 885.229,796.899 "
     id="polyline7" />
  <path
     clip-path="url(#clip402)"
     d="M885.229 796.899 L1272.22 1293.71 L1281.37 1286.45 L1290.38 1279.02 L1299.25 1271.42 L1307.98 1263.66 L1316.57 1255.73 L1325.01 1247.65 L1333.29 1239.42 L1341.43 1231.03 L1349.4 1222.49 L1357.22 1213.81 L1364.87 1204.98 L1372.36 1196.01 L1379.68 1186.91 L1386.83 1177.67 L1393.8 1168.3 L1400.61 1158.8 L1407.23 1149.18 L1413.67 1139.43 L1419.94 1129.57 L1426.02 1119.59 L1431.91 1109.51 L1437.62 1099.31 L1443.13 1089.01 L1448.45 1078.61 L1453.58 1068.12 L1458.52 1057.53 L1463.25 1046.85 L1467.79 1036.08 L1472.13 1025.23 L1476.26 1014.31 L1480.19 1003.3 L1483.92 992.232 L1487.44 981.092 L1490.75 969.889 L1493.86 958.627 L1496.75 947.308 L1499.44 935.938 L1501.91 924.521 L1504.17 913.059 L1506.22 901.557 L1508.06 890.019 L1509.68 878.45 L1511.08 866.852 L1512.27 855.23 L1513.24 843.588 L1514 831.93 L1514.54 820.259 L1514.87 808.581 L1514.98 796.899 L885.229 796.899  Z"
     fill="#5e4fa1"
     fill-rule="evenodd"
     fill-opacity="1"
     id="path8" />
  <polyline
     clip-path="url(#clip402)"
     style="stroke:#000000; stroke-linecap:round; stroke-linejoin:round; stroke-width:4; stroke-opacity:0; fill:none"
     points="885.229,796.899 1272.22,1293.71 1281.37,1286.45 1290.38,1279.02 1299.25,1271.42 1307.98,1263.66 1316.57,1255.73 1325.01,1247.65 1333.29,1239.42 1341.43,1231.03 1349.4,1222.49 1357.22,1213.81 1364.87,1204.98 1372.36,1196.01 1379.68,1186.91 1386.83,1177.67 1393.8,1168.3 1400.61,1158.8 1407.23,1149.18 1413.67,1139.43 1419.94,1129.57 1426.02,1119.59 1431.91,1109.51 1437.62,1099.31 1443.13,1089.01 1448.45,1078.61 1453.58,1068.12 1458.52,1057.53 1463.25,1046.85 1467.79,1036.08 1472.13,1025.23 1476.26,1014.31 1480.19,1003.3 1483.92,992.232 1487.44,981.092 1490.75,969.889 1493.86,958.627 1496.75,947.308 1499.44,935.938 1501.91,924.521 1504.17,913.059 1506.22,901.557 1508.06,890.019 1509.68,878.45 1511.08,866.852 1512.27,855.23 1513.24,843.588 1514,831.93 1514.54,820.259 1514.87,808.581 1514.98,796.899 885.229,796.899 "
     id="polyline8" />
  <path
     clip-path="url(#clip400)"
     d="M1817.94 1470.45 L3152.76 1470.45 L3152.76 123.472 L1817.94 123.472  Z"
     fill="#ffffff"
     fill-rule="evenodd"
     fill-opacity="1"
     id="path9" />
  <defs
     id="defs9">
    <clipPath
       id="clip403">
      <rect
         x="1817"
         y="123"
         width="1336"
         height="1348"
         id="rect9" />
    </clipPath>
  </defs>
  <path
     clip-path="url(#clip400)"
     d="M2486.7 28.9478 L2486.7 35.9153 Q2483.54 34.1734 2480.34 33.3227 Q2477.18 32.4315 2473.94 32.4315 Q2466.69 32.4315 2462.68 37.0496 Q2458.67 41.6271 2458.67 49.9314 Q2458.67 58.2358 2462.68 62.8538 Q2466.69 67.4314 2473.94 67.4314 Q2477.18 67.4314 2480.34 66.5807 Q2483.54 65.6895 2486.7 63.9476 L2486.7 70.8341 Q2483.58 72.2924 2480.22 73.0216 Q2476.9 73.7508 2473.13 73.7508 Q2462.88 73.7508 2456.85 67.3098 Q2450.81 60.8689 2450.81 49.9314 Q2450.81 38.832 2456.89 32.472 Q2463.01 26.1121 2473.62 26.1121 Q2477.06 26.1121 2480.34 26.8413 Q2483.62 27.5299 2486.7 28.9478 Z"
     fill="#000000"
     fill-rule="nonzero"
     fill-opacity="1"
     id="path10" />
  <path
     clip-path="url(#clip400)"
     d="M2502.7 67.958 L2519.88 67.958 L2519.88 72.576 L2495.66 72.576 L2495.66 68.12 Q2497.03 66.8642 2499.58 64.5957 Q2513.52 52.2405 2513.52 48.4326 Q2513.52 45.759 2511.41 44.1387 Q2509.31 42.4778 2505.86 42.4778 Q2503.76 42.4778 2501.29 43.2069 Q2498.82 43.8956 2495.9 45.3134 L2495.9 40.3308 Q2499.02 39.1965 2501.69 38.6294 Q2504.41 38.0623 2506.71 38.0623 Q2512.59 38.0623 2516.11 40.7359 Q2519.64 43.4095 2519.64 47.7845 Q2519.64 53.4152 2506.23 64.9198 Q2503.96 66.8642 2502.7 67.958 Z"
     fill="#000000"
     fill-rule="nonzero"
     fill-opacity="1"
     id="path11" />
  <path
     clip-path="url(#clip403)"
     d="M2485.17 797.308 L3114.98 797.308 L3110.48 722.192 L3097.06 648.149 L3074.9 576.235 L3044.33 507.477 L3005.77 442.856 L2959.78 383.296 L2907.01 329.646 L2848.22 282.672 L2784.25 243.045 L2716.01 211.331 L2644.48 187.982 L2570.67 173.331 L2495.64 167.589 L2420.46 170.836 L2346.2 183.026 L2273.93 203.986 L2204.67 233.415 L2139.42 270.895 L2079.1 315.89 L2024.58 367.757 L1976.64 425.757 L1935.96 489.061 L1903.11 556.765 L1878.58 627.903 L1862.7 701.459 L1855.71 776.384 L1857.71 851.608 L1868.67 926.056 L1888.42 998.666 L1916.7 1068.4 L1953.09 1134.27 L1997.07 1195.32 L2048.03 1250.7 L2105.22 1299.6 L2167.84 1341.33 L2234.99 1375.29 L2305.71 1401 L2379 1418.1 L2453.79 1426.33 L2529.04 1425.58 L2603.66 1415.87 L2676.59 1397.32 L2746.79 1370.21 L2813.25 1334.92 L2875.02 1291.95 L2931.24 1241.92 L2981.08 1185.55 L3023.85 1123.63 L3058.92 1057.05 L2485.17 797.308  Z"
     fill="#d7ef9a"
     fill-rule="evenodd"
     fill-opacity="1"
     id="path12" />
  <polyline
     clip-path="url(#clip403)"
     style="stroke:#000000; stroke-linecap:round; stroke-linejoin:round; stroke-width:4; stroke-opacity:0; fill:none"
     points="2485.17,797.308 3114.98,797.308 3110.48,722.192 3097.06,648.149 3074.9,576.235 3044.33,507.477 3005.77,442.856 2959.78,383.296 2907.01,329.646 2848.22,282.672 2784.25,243.045 2716.01,211.331 2644.48,187.982 2570.67,173.331 2495.64,167.589 2420.46,170.836 2346.2,183.026 2273.93,203.986 2204.67,233.415 2139.42,270.895 2079.1,315.89 2024.58,367.757 1976.64,425.757 1935.96,489.061 1903.11,556.765 1878.58,627.903 1862.7,701.459 1855.71,776.384 1857.71,851.608 1868.67,926.056 1888.42,998.666 1916.7,1068.4 1953.09,1134.27 1997.07,1195.32 2048.03,1250.7 2105.22,1299.6 2167.84,1341.33 2234.99,1375.29 2305.71,1401 2379,1418.1 2453.79,1426.33 2529.04,1425.58 2603.66,1415.87 2676.59,1397.32 2746.79,1370.21 2813.25,1334.92 2875.02,1291.95 2931.24,1241.92 2981.08,1185.55 3023.85,1123.63 3058.92,1057.05 2485.17,797.308 "
     id="polyline12" />
  <path
     clip-path="url(#clip403)"
     d="M2485.17 797.308 L3058.92 1057.05 L3059.59 1055.57 L3060.26 1054.08 L3060.92 1052.59 L3061.58 1051.1 L3062.23 1049.61 L3062.89 1048.11 L3063.53 1046.62 L3064.18 1045.12 L3064.82 1043.62 L3065.45 1042.12 L3066.08 1040.61 L3066.71 1039.11 L3067.33 1037.6 L3067.95 1036.1 L3068.57 1034.59 L3069.18 1033.08 L3069.79 1031.56 L3070.4 1030.05 L3071 1028.53 L3071.59 1027.02 L3072.19 1025.5 L3072.77 1023.98 L3073.36 1022.46 L3073.94 1020.93 L3074.52 1019.41 L3075.09 1017.88 L3075.66 1016.35 L3076.22 1014.82 L3076.78 1013.29 L3077.34 1011.76 L3077.9 1010.23 L3078.44 1008.69 L3078.99 1007.16 L3079.53 1005.62 L3080.07 1004.08 L3080.6 1002.54 L3081.13 1001 L3081.66 999.453 L3082.18 997.908 L3082.69 996.362 L3083.21 994.815 L3083.72 993.266 L3084.22 991.716 L3084.72 990.165 L3085.22 988.612 L3085.71 987.058 L3086.2 985.503 L3086.69 983.946 L3087.17 982.389 L2485.17 797.308  Z"
     fill="#f88d51"
     fill-rule="evenodd"
     fill-opacity="1"
     id="path13" />
  <polyline
     clip-path="url(#clip403)"
     style="stroke:#000000; stroke-linecap:round; stroke-linejoin:round; stroke-width:4; stroke-opacity:0; fill:none"
     points="2485.17,797.308 3058.92,1057.05 3059.59,1055.57 3060.26,1054.08 3060.92,1052.59 3061.58,1051.1 3062.23,1049.61 3062.89,1048.11 3063.53,1046.62 3064.18,1045.12 3064.82,1043.62 3065.45,1042.12 3066.08,1040.61 3066.71,1039.11 3067.33,1037.6 3067.95,1036.1 3068.57,1034.59 3069.18,1033.08 3069.79,1031.56 3070.4,1030.05 3071,1028.53 3071.59,1027.02 3072.19,1025.5 3072.77,1023.98 3073.36,1022.46 3073.94,1020.93 3074.52,1019.41 3075.09,1017.88 3075.66,1016.35 3076.22,1014.82 3076.78,1013.29 3077.34,1011.76 3077.9,1010.23 3078.44,1008.69 3078.99,1007.16 3079.53,1005.62 3080.07,1004.08 3080.6,1002.54 3081.13,1001 3081.66,999.453 3082.18,997.908 3082.69,996.362 3083.21,994.815 3083.72,993.266 3084.22,991.716 3084.72,990.165 3085.22,988.612 3085.71,987.058 3086.2,985.503 3086.69,983.946 3087.17,982.389 2485.17,797.308 "
     id="polyline13" />
  <path
     clip-path="url(#clip403)"
     d="M2485.17 797.308 L3087.17 982.389 L3087.59 981.021 L3088 979.652 L3088.42 978.283 L3088.83 976.912 L3089.23 975.54 L3089.64 974.168 L3090.04 972.795 L3090.43 971.42 L3090.83 970.045 L3091.22 968.669 L3091.6 967.292 L3091.99 965.914 L3092.37 964.536 L3092.75 963.156 L3093.12 961.776 L3093.5 960.395 L3093.86 959.013 L3094.23 957.63 L3094.59 956.246 L3094.95 954.861 L3095.31 953.476 L3095.66 952.09 L3096.01 950.703 L3096.36 949.315 L3096.7 947.926 L3097.04 946.537 L3097.38 945.147 L3097.71 943.756 L3098.05 942.365 L3098.37 940.972 L3098.7 939.579 L3099.02 938.185 L3099.34 936.791 L3099.65 935.395 L3099.97 933.999 L3100.27 932.603 L3100.58 931.205 L3100.88 929.807 L3101.18 928.408 L3101.48 927.009 L3101.77 925.609 L3102.06 924.208 L3102.35 922.807 L3102.63 921.405 L3102.91 920.002 L3103.19 918.598 L3103.46 917.194 L3103.73 915.79 L3104 914.385 L2485.17 797.308  Z"
     fill="#fdb466"
     fill-rule="evenodd"
     fill-opacity="1"
     id="path14" />
  <polyline
     clip-path="url(#clip403)"
     style="stroke:#000000; stroke-linecap:round; stroke-linejoin:round; stroke-width:4; stroke-opacity:0; fill:none"
     points="2485.17,797.308 3087.17,982.389 3087.59,981.021 3088,979.652 3088.42,978.283 3088.83,976.912 3089.23,975.54 3089.64,974.168 3090.04,972.795 3090.43,971.42 3090.83,970.045 3091.22,968.669 3091.6,967.292 3091.99,965.914 3092.37,964.536 3092.75,963.156 3093.12,961.776 3093.5,960.395 3093.86,959.013 3094.23,957.63 3094.59,956.246 3094.95,954.861 3095.31,953.476 3095.66,952.09 3096.01,950.703 3096.36,949.315 3096.7,947.926 3097.04,946.537 3097.38,945.147 3097.71,943.756 3098.05,942.365 3098.37,940.972 3098.7,939.579 3099.02,938.185 3099.34,936.791 3099.65,935.395 3099.97,933.999 3100.27,932.603 3100.58,931.205 3100.88,929.807 3101.18,928.408 3101.48,927.009 3101.77,925.609 3102.06,924.208 3102.35,922.807 3102.63,921.405 3102.91,920.002 3103.19,918.598 3103.46,917.194 3103.73,915.79 3104,914.385 2485.17,797.308 "
     id="polyline14" />
  <path
     clip-path="url(#clip403)"
     d="M2485.17 797.308 L3104 914.385 L3104.44 912.022 L3104.88 909.658 L3105.3 907.293 L3105.72 904.926 L3106.12 902.557 L3106.52 900.187 L3106.91 897.815 L3107.29 895.442 L3107.66 893.067 L3108.02 890.691 L3108.37 888.313 L3108.71 885.935 L3109.04 883.555 L3109.37 881.173 L3109.68 878.791 L3109.99 876.407 L3110.29 874.022 L3110.58 871.636 L3110.86 869.249 L3111.13 866.861 L3111.39 864.472 L3111.64 862.082 L3111.88 859.691 L3112.11 857.299 L3112.34 854.906 L3112.55 852.513 L3112.76 850.118 L3112.96 847.723 L3113.14 845.327 L3113.32 842.93 L3113.49 840.533 L3113.65 838.135 L3113.8 835.736 L3113.95 833.337 L3114.08 830.938 L3114.2 828.538 L3114.32 826.137 L3114.42 823.736 L3114.52 821.335 L3114.61 818.933 L3114.68 816.531 L3114.75 814.129 L3114.81 811.726 L3114.86 809.323 L3114.9 806.92 L3114.94 804.517 L3114.96 802.114 L3114.97 799.711 L3114.98 797.307 L2485.17 797.308  Z"
     fill="#5e4fa1"
     fill-rule="evenodd"
     fill-opacity="1"
     id="path15" />
  <polyline
     clip-path="url(#clip403)"
     style="stroke:#000000; stroke-linecap:round; stroke-linejoin:round; stroke-width:4; stroke-opacity:0; fill:none"
     points="2485.17,797.308 3104,914.385 3104.44,912.022 3104.88,909.658 3105.3,907.293 3105.72,904.926 3106.12,902.557 3106.52,900.187 3106.91,897.815 3107.29,895.442 3107.66,893.067 3108.02,890.691 3108.37,888.313 3108.71,885.935 3109.04,883.555 3109.37,881.173 3109.68,878.791 3109.99,876.407 3110.29,874.022 3110.58,871.636 3110.86,869.249 3111.13,866.861 3111.39,864.472 3111.64,862.082 3111.88,859.691 3112.11,857.299 3112.34,854.906 3112.55,852.513 3112.76,850.118 3112.96,847.723 3113.14,845.327 3113.32,842.93 3113.49,840.533 3113.65,838.135 3113.8,835.736 3113.95,833.337 3114.08,830.938 3114.2,828.538 3114.32,826.137 3114.42,823.736 3114.52,821.335 3114.61,818.933 3114.68,816.531 3114.75,814.129 3114.81,811.726 3114.86,809.323 3114.9,806.92 3114.94,804.517 3114.96,802.114 3114.97,799.711 3114.98,797.307 2485.17,797.308 "
     id="polyline15" />
  <path
     clip-path="url(#clip400)"
     d="M3417.94 1470.45 L4752.76 1470.45 L4752.76 123.472 L3417.94 123.472  Z"
     fill="#ffffff"
     fill-rule="evenodd"
     fill-opacity="1"
     id="path16" />
  <defs
     id="defs16">
    <clipPath
       id="clip404">
      <rect
         x="3417"
         y="123"
         width="1336"
         height="1348"
         id="rect16" />
    </clipPath>
  </defs>
  <path
     clip-path="url(#clip400)"
     d="M4086.2 28.9478 L4086.2 35.9153 Q4083.04 34.1734 4079.84 33.3227 Q4076.68 32.4315 4073.44 32.4315 Q4066.19 32.4315 4062.17 37.0496 Q4058.16 41.6271 4058.16 49.9314 Q4058.16 58.2358 4062.17 62.8538 Q4066.19 67.4314 4073.44 67.4314 Q4076.68 67.4314 4079.84 66.5807 Q4083.04 65.6895 4086.2 63.9476 L4086.2 70.8341 Q4083.08 72.2924 4079.72 73.0216 Q4076.39 73.7508 4072.63 73.7508 Q4062.38 73.7508 4056.34 67.3098 Q4050.31 60.8689 4050.31 49.9314 Q4050.31 38.832 4056.38 32.472 Q4062.5 26.1121 4073.11 26.1121 Q4076.56 26.1121 4079.84 26.8413 Q4083.12 27.5299 4086.2 28.9478 Z"
     fill="#000000"
     fill-rule="nonzero"
     fill-opacity="1"
     id="path17" />
  <path
     clip-path="url(#clip400)"
     d="M4112.57 54.2659 Q4116.29 54.9951 4118.32 57.2231 Q4120.39 59.4106 4120.39 62.7323 Q4120.39 67.7554 4116.54 70.4695 Q4112.69 73.1836 4105.52 73.1836 Q4103.21 73.1836 4100.66 72.738 Q4098.15 72.3329 4095.31 71.5228 L4095.31 66.6212 Q4097.42 67.7149 4099.81 68.2415 Q4102.24 68.7682 4104.95 68.7682 Q4109.37 68.7682 4111.8 67.1883 Q4114.23 65.5679 4114.23 62.7323 Q4114.23 59.7346 4111.96 58.1953 Q4109.73 56.6559 4105.36 56.6559 L4101.87 56.6559 L4101.87 52.281 L4105.68 52.281 Q4109.49 52.281 4111.43 51.0252 Q4113.42 49.7289 4113.42 47.2984 Q4113.42 44.9488 4111.39 43.7336 Q4109.37 42.4778 4105.52 42.4778 Q4103.9 42.4778 4101.83 42.8424 Q4099.77 43.2069 4096.49 44.1387 L4096.49 39.4801 Q4099.44 38.7915 4102.04 38.4269 Q4104.63 38.0623 4106.86 38.0623 Q4112.69 38.0623 4116.09 40.4523 Q4119.54 42.8424 4119.54 46.8528 Q4119.54 49.6479 4117.71 51.5923 Q4115.89 53.5368 4112.57 54.2659 Z"
     fill="#000000"
     fill-rule="nonzero"
     fill-opacity="1"
     id="path18" />
  <path
     clip-path="url(#clip404)"
     d="M4085.34 796.973 L4714.98 796.973 L4714.31 768.004 L4712.31 739.098 L4708.99 710.313 L4704.34 681.713 L4698.38 653.356 L4691.12 625.303 L4682.58 597.615 L4672.78 570.348 L4661.73 543.561 L4649.46 517.311 L4636 491.653 L4621.37 466.642 L4605.6 442.33 L4588.73 418.77 L4570.8 396.01 L4551.84 374.1 L4531.89 353.085 L4511 333.011 L4489.2 313.918 L4466.55 295.849 L4443.09 278.842 L4418.87 262.931 L4393.95 248.152 L4368.37 234.535 L4342.19 222.109 L4315.47 210.9 L4288.27 200.933 L4260.63 192.228 L4232.62 184.804 L4204.3 178.676 L4175.73 173.858 L4146.96 170.359 L4118.07 168.187 L4089.11 167.348 L4060.13 167.841 L4031.22 169.667 L4002.41 172.822 L3973.78 177.298 L3945.39 183.087 L3917.3 190.175 L3889.56 198.549 L3862.23 208.191 L3835.38 219.079 L3809.06 231.191 L3783.32 244.501 L3758.22 258.982 L3733.82 274.602 L3710.16 291.328 L3687.29 309.125 L4085.34 796.973  Z"
     fill="#fdd380"
     fill-rule="evenodd"
     fill-opacity="1"
     id="path19" />
  <polyline
     clip-path="url(#clip404)"
     style="stroke:#000000; stroke-linecap:round; stroke-linejoin:round; stroke-width:0; stroke-opacity:1; fill:none"
     points="4085.34,796.973 4714.98,796.973 4714.31,768.004 4712.31,739.098 4708.99,710.313 4704.34,681.713 4698.38,653.356 4691.12,625.303 4682.58,597.615 4672.78,570.348 4661.73,543.561 4649.46,517.311 4636,491.653 4621.37,466.642 4605.6,442.33 4588.73,418.77 4570.8,396.01 4551.84,374.1 4531.89,353.085 4511,333.011 4489.2,313.918 4466.55,295.849 4443.09,278.842 4418.87,262.931 4393.95,248.152 4368.37,234.535 4342.19,222.109 4315.47,210.9 4288.27,200.933 4260.63,192.228 4232.62,184.804 4204.3,178.676 4175.73,173.858 4146.96,170.359 4118.07,168.187 4089.11,167.348 4060.13,167.841 4031.22,169.667 4002.41,172.822 3973.78,177.298 3945.39,183.087 3917.3,190.175 3889.56,198.549 3862.23,208.191 3835.38,219.079 3809.06,231.191 3783.32,244.501 3758.22,258.982 3733.82,274.602 3710.16,291.328 3687.29,309.125 4085.34,796.973 "
     id="polyline19" />
  <path
     clip-path="url(#clip404)"
     d="M4085.34 796.973 L3687.29 309.125 L3670.34 323.455 L3653.91 338.374 L3638.02 353.862 L3622.68 369.901 L3607.92 386.471 L3593.75 403.55 L3580.19 421.118 L3567.26 439.154 L3554.97 457.633 L3543.34 476.534 L3532.39 495.833 L3522.12 515.507 L3512.55 535.53 L3503.69 555.878 L3495.56 576.525 L3488.16 597.446 L3481.5 618.615 L3475.58 640.005 L3470.43 661.591 L3466.04 683.345 L3462.42 705.24 L3459.58 727.248 L3457.51 749.344 L3456.22 771.498 L3455.71 793.685 L3455.99 815.875 L3457.05 838.042 L3458.88 860.158 L3461.5 882.195 L3464.89 904.127 L3469.05 925.925 L3473.98 947.563 L3479.67 969.014 L3486.1 990.252 L3493.29 1011.25 L3501.21 1031.98 L3509.85 1052.42 L3519.21 1072.54 L3529.27 1092.32 L3540.03 1111.73 L3551.46 1130.75 L3563.55 1149.36 L3576.29 1167.53 L3589.67 1185.24 L3603.66 1202.47 L3618.25 1219.19 L3633.42 1235.39 L3649.15 1251.04 L3665.42 1266.13 L4085.34 796.973  Z"
     fill="#feeb9e"
     fill-rule="evenodd"
     fill-opacity="1"
     id="path20" />
  <polyline
     clip-path="url(#clip404)"
     style="stroke:#000000; stroke-linecap:round; stroke-linejoin:round; stroke-width:0; stroke-opacity:1; fill:none"
     points="4085.34,796.973 3687.29,309.125 3670.34,323.455 3653.91,338.374 3638.02,353.862 3622.68,369.901 3607.92,386.471 3593.75,403.55 3580.19,421.118 3567.26,439.154 3554.97,457.633 3543.34,476.534 3532.39,495.833 3522.12,515.507 3512.55,535.53 3503.69,555.878 3495.56,576.525 3488.16,597.446 3481.5,618.615 3475.58,640.005 3470.43,661.591 3466.04,683.345 3462.42,705.24 3459.58,727.248 3457.51,749.344 3456.22,771.498 3455.71,793.685 3455.99,815.875 3457.05,838.042 3458.88,860.158 3461.5,882.195 3464.89,904.127 3469.05,925.925 3473.98,947.563 3479.67,969.014 3486.1,990.252 3493.29,1011.25 3501.21,1031.98 3509.85,1052.42 3519.21,1072.54 3529.27,1092.32 3540.03,1111.73 3551.46,1130.75 3563.55,1149.36 3576.29,1167.53 3589.67,1185.24 3603.66,1202.47 3618.25,1219.19 3633.42,1235.39 3649.15,1251.04 3665.42,1266.13 4085.34,796.973 "
     id="polyline20" />
  <path
     clip-path="url(#clip404)"
     d="M4085.34 796.973 L3665.42 1266.13 L3680.98 1279.61 L3696.98 1292.57 L3713.38 1305 L3730.19 1316.89 L3747.38 1328.22 L3764.92 1338.98 L3782.81 1349.17 L3801.03 1358.76 L3819.54 1367.76 L3838.34 1376.14 L3857.41 1383.9 L3876.72 1391.04 L3896.25 1397.54 L3915.98 1403.4 L3935.9 1408.62 L3955.97 1413.18 L3976.19 1417.08 L3996.52 1420.31 L4016.94 1422.88 L4037.44 1424.78 L4057.99 1426.01 L4078.56 1426.57 L4099.15 1426.46 L4119.72 1425.67 L4140.25 1424.21 L4160.73 1422.08 L4181.12 1419.28 L4201.42 1415.82 L4221.58 1411.69 L4241.61 1406.91 L4261.46 1401.48 L4281.13 1395.39 L4300.59 1388.67 L4319.81 1381.32 L4338.79 1373.34 L4357.5 1364.75 L4375.91 1355.55 L4394.02 1345.75 L4411.79 1335.37 L4429.22 1324.41 L4446.28 1312.89 L4462.95 1300.81 L4479.22 1288.2 L4495.07 1275.06 L4510.48 1261.41 L4525.43 1247.26 L4539.92 1232.64 L4553.91 1217.54 L4567.41 1202 L4085.34 796.973  Z"
     fill="#eff8a6"
     fill-rule="evenodd"
     fill-opacity="1"
     id="path21" />
  <polyline
     clip-path="url(#clip404)"
     style="stroke:#000000; stroke-linecap:round; stroke-linejoin:round; stroke-width:0; stroke-opacity:1; fill:none"
     points="4085.34,796.973 3665.42,1266.13 3680.98,1279.61 3696.98,1292.57 3713.38,1305 3730.19,1316.89 3747.38,1328.22 3764.92,1338.98 3782.81,1349.17 3801.03,1358.76 3819.54,1367.76 3838.34,1376.14 3857.41,1383.9 3876.72,1391.04 3896.25,1397.54 3915.98,1403.4 3935.9,1408.62 3955.97,1413.18 3976.19,1417.08 3996.52,1420.31 4016.94,1422.88 4037.44,1424.78 4057.99,1426.01 4078.56,1426.57 4099.15,1426.46 4119.72,1425.67 4140.25,1424.21 4160.73,1422.08 4181.12,1419.28 4201.42,1415.82 4221.58,1411.69 4241.61,1406.91 4261.46,1401.48 4281.13,1395.39 4300.59,1388.67 4319.81,1381.32 4338.79,1373.34 4357.5,1364.75 4375.91,1355.55 4394.02,1345.75 4411.79,1335.37 4429.22,1324.41 4446.28,1312.89 4462.95,1300.81 4479.22,1288.2 4495.07,1275.06 4510.48,1261.41 4525.43,1247.26 4539.92,1232.64 4553.91,1217.54 4567.41,1202 4085.34,796.973 "
     id="polyline21" />
  <path
     clip-path="url(#clip404)"
     d="M4085.34 796.973 L4567.41 1202 L4573.14 1195.09 L4578.77 1188.09 L4584.29 1181.01 L4589.72 1173.86 L4595.04 1166.63 L4600.26 1159.32 L4605.38 1151.94 L4610.39 1144.49 L4615.29 1136.97 L4620.08 1129.38 L4624.77 1121.72 L4629.35 1113.99 L4633.81 1106.2 L4638.16 1098.35 L4642.41 1090.44 L4646.53 1082.46 L4650.55 1074.43 L4654.45 1066.34 L4658.23 1058.2 L4661.9 1050 L4665.45 1041.76 L4668.88 1033.46 L4672.19 1025.11 L4675.39 1016.72 L4678.46 1008.29 L4681.41 999.806 L4684.24 991.286 L4686.95 982.725 L4689.54 974.128 L4692.01 965.494 L4694.35 956.825 L4696.57 948.125 L4698.66 939.393 L4700.63 930.633 L4702.47 921.845 L4704.19 913.032 L4705.78 904.195 L4707.25 895.337 L4708.59 886.458 L4709.8 877.562 L4710.88 868.649 L4711.84 859.721 L4712.67 850.781 L4713.38 841.83 L4713.95 832.869 L4714.4 823.901 L4714.72 814.928 L4714.91 805.951 L4714.98 796.973 L4085.34 796.973  Z"
     fill="#5e4fa1"
     fill-rule="evenodd"
     fill-opacity="1"
     id="path22" />
  <polyline
     clip-path="url(#clip404)"
     style="stroke:#000000; stroke-linecap:round; stroke-linejoin:round; stroke-width:0; stroke-opacity:1; fill:none"
     points="4085.34,796.973 4567.41,1202 4573.14,1195.09 4578.77,1188.09 4584.29,1181.01 4589.72,1173.86 4595.04,1166.63 4600.26,1159.32 4605.38,1151.94 4610.39,1144.49 4615.29,1136.97 4620.08,1129.38 4624.77,1121.72 4629.35,1113.99 4633.81,1106.2 4638.16,1098.35 4642.41,1090.44 4646.53,1082.46 4650.55,1074.43 4654.45,1066.34 4658.23,1058.2 4661.9,1050 4665.45,1041.76 4668.88,1033.46 4672.19,1025.11 4675.39,1016.72 4678.46,1008.29 4681.41,999.806 4684.24,991.286 4686.95,982.725 4689.54,974.128 4692.01,965.494 4694.35,956.825 4696.57,948.125 4698.66,939.393 4700.63,930.633 4702.47,921.845 4704.19,913.032 4705.78,904.195 4707.25,895.337 4708.59,886.458 4709.8,877.562 4710.88,868.649 4711.84,859.721 4712.67,850.781 4713.38,841.83 4713.95,832.869 4714.4,823.901 4714.72,814.928 4714.91,805.951 4714.98,796.973 4085.34,796.973 "
     id="polyline22" />
  <path
     clip-path="url(#clip400)"
     d="M217.936 3070.45 L1552.76 3070.45 L1552.76 1723.47 L217.936 1723.47  Z"
     fill="#ffffff"
     fill-rule="evenodd"
     fill-opacity="1"
     id="path23" />
  <defs
     id="defs23">
    <clipPath
       id="clip405">
      <rect
         x="217"
         y="1723"
         width="1336"
         height="1348"
         id="rect23" />
    </clipPath>
  </defs>
  <path
     clip-path="url(#clip400)"
     d="M885.407 1628.95 L885.407 1635.92 Q882.247 1634.17 879.047 1633.32 Q875.887 1632.43 872.646 1632.43 Q865.395 1632.43 861.385 1637.05 Q857.374 1641.63 857.374 1649.93 Q857.374 1658.24 861.385 1662.85 Q865.395 1667.43 872.646 1667.43 Q875.887 1667.43 879.047 1666.58 Q882.247 1665.69 885.407 1663.95 L885.407 1670.83 Q882.288 1672.29 878.925 1673.02 Q875.604 1673.75 871.836 1673.75 Q861.587 1673.75 855.552 1667.31 Q849.516 1660.87 849.516 1649.93 Q849.516 1638.83 855.592 1632.47 Q861.709 1626.11 872.322 1626.11 Q875.766 1626.11 879.047 1626.84 Q882.328 1627.53 885.407 1628.95 Z"
     fill="#000000"
     fill-rule="nonzero"
     fill-opacity="1"
     id="path24" />
  <path
     clip-path="url(#clip400)"
     d="M909.874 1643.65 L897.357 1660.63 L909.874 1660.63 L909.874 1643.65 M908.983 1638.75 L915.707 1638.75 L915.707 1660.63 L921.176 1660.63 L921.176 1665.04 L915.707 1665.04 L915.707 1672.58 L909.874 1672.58 L909.874 1665.04 L893.103 1665.04 L893.103 1660.14 L908.983 1638.75 Z"
     fill="#000000"
     fill-rule="nonzero"
     fill-opacity="1"
     id="path25" />
  <path
     clip-path="url(#clip405)"
     d="M884.971 2396.83 L1514.98 2396.83 L1510.85 2324.82 L1498.52 2253.76 L1478.14 2184.57 L1450 2118.16 L1414.44 2055.41 L1371.95 1997.13 L1323.07 1944.09 L1268.45 1896.98 L1208.81 1856.42 L1144.92 1822.95 L1077.62 1797 L1007.8 1778.91 L936.371 1768.92 L864.266 1767.16 L792.433 1773.66 L721.812 1788.32 L653.33 1810.95 L587.884 1841.27 L526.332 1878.87 L469.48 1923.25 L418.074 1973.84 L372.788 2029.98 L334.215 2090.93 L302.86 2155.88 L279.135 2223.99 L263.351 2294.37 L255.714 2366.09 L256.325 2438.22 L265.175 2509.8 L282.148 2579.9 L307.023 2647.6 L339.473 2712.01 L379.073 2772.3 L425.303 2827.66 L477.558 2877.38 L535.153 2920.79 L597.333 2957.34 L663.283 2986.54 L732.139 3008.02 L802.997 3021.48 L874.93 3026.76 L946.995 3023.78 L1018.25 3012.58 L1087.75 2993.31 L1154.6 2966.22 L1217.91 2931.67 L1276.86 2890.12 L1330.67 2842.09 L1378.65 2788.23 L884.971 2396.83  Z"
     fill="#4272b2"
     fill-rule="evenodd"
     fill-opacity="1"
     id="path26" />
  <polyline
     clip-path="url(#clip405)"
     style="stroke:#000000; stroke-linecap:round; stroke-linejoin:round; stroke-width:0; stroke-opacity:1; fill:none"
     points="884.971,2396.83 1514.98,2396.83 1510.85,2324.82 1498.52,2253.76 1478.14,2184.57 1450,2118.16 1414.44,2055.41 1371.95,1997.13 1323.07,1944.09 1268.45,1896.98 1208.81,1856.42 1144.92,1822.95 1077.62,1797 1007.8,1778.91 936.371,1768.92 864.266,1767.16 792.433,1773.66 721.812,1788.32 653.33,1810.95 587.884,1841.27 526.332,1878.87 469.48,1923.25 418.074,1973.84 372.788,2029.98 334.215,2090.93 302.86,2155.88 279.135,2223.99 263.351,2294.37 255.714,2366.09 256.325,2438.22 265.175,2509.8 282.148,2579.9 307.023,2647.6 339.473,2712.01 379.073,2772.3 425.303,2827.66 477.558,2877.38 535.153,2920.79 597.333,2957.34 663.283,2986.54 732.139,3008.02 802.997,3021.48 874.93,3026.76 946.995,3023.78 1018.25,3012.58 1087.75,2993.31 1154.6,2966.22 1217.91,2931.67 1276.86,2890.12 1330.67,2842.09 1378.65,2788.23 884.971,2396.83 "
     id="polyline26" />
  <path
     clip-path="url(#clip405)"
     d="M884.971 2396.83 L1378.65 2788.23 L1382.41 2783.43 L1386.13 2778.6 L1389.8 2773.73 L1393.42 2768.83 L1397 2763.89 L1400.53 2758.92 L1404.01 2753.92 L1407.44 2748.88 L1410.82 2743.8 L1414.15 2738.7 L1417.44 2733.56 L1420.67 2728.39 L1423.85 2723.19 L1426.99 2717.96 L1430.07 2712.7 L1433.1 2707.41 L1436.08 2702.09 L1439.01 2696.75 L1441.89 2691.37 L1444.71 2685.97 L1447.48 2680.54 L1450.2 2675.08 L1452.87 2669.6 L1455.48 2664.09 L1458.04 2658.56 L1460.55 2653 L1463 2647.42 L1465.4 2641.81 L1467.74 2636.18 L1470.03 2630.53 L1472.26 2624.86 L1474.44 2619.17 L1476.57 2613.45 L1478.63 2607.72 L1480.65 2601.96 L1482.6 2596.19 L1484.51 2590.39 L1486.35 2584.58 L1488.14 2578.75 L1489.87 2572.91 L1491.55 2567.05 L1493.17 2561.17 L1494.73 2555.28 L1496.23 2549.37 L1497.68 2543.45 L1499.07 2537.51 L1500.4 2531.56 L1501.68 2525.6 L1502.9 2519.62 L884.971 2396.83  Z"
     fill="#fdd380"
     fill-rule="evenodd"
     fill-opacity="1"
     id="path27" />
  <polyline
     clip-path="url(#clip405)"
     style="stroke:#000000; stroke-linecap:round; stroke-linejoin:round; stroke-width:0; stroke-opacity:1; fill:none"
     points="884.971,2396.83 1378.65,2788.23 1382.41,2783.43 1386.13,2778.6 1389.8,2773.73 1393.42,2768.83 1397,2763.89 1400.53,2758.92 1404.01,2753.92 1407.44,2748.88 1410.82,2743.8 1414.15,2738.7 1417.44,2733.56 1420.67,2728.39 1423.85,2723.19 1426.99,2717.96 1430.07,2712.7 1433.1,2707.41 1436.08,2702.09 1439.01,2696.75 1441.89,2691.37 1444.71,2685.97 1447.48,2680.54 1450.2,2675.08 1452.87,2669.6 1455.48,2664.09 1458.04,2658.56 1460.55,2653 1463,2647.42 1465.4,2641.81 1467.74,2636.18 1470.03,2630.53 1472.26,2624.86 1474.44,2619.17 1476.57,2613.45 1478.63,2607.72 1480.65,2601.96 1482.6,2596.19 1484.51,2590.39 1486.35,2584.58 1488.14,2578.75 1489.87,2572.91 1491.55,2567.05 1493.17,2561.17 1494.73,2555.28 1496.23,2549.37 1497.68,2543.45 1499.07,2537.51 1500.4,2531.56 1501.68,2525.6 1502.9,2519.62 884.971,2396.83 "
     id="polyline27" />
  <path
     clip-path="url(#clip405)"
     d="M884.971 2396.83 L1502.9 2519.62 L1503.04 2518.89 L1503.19 2518.15 L1503.33 2517.42 L1503.47 2516.68 L1503.62 2515.94 L1503.76 2515.21 L1503.9 2514.47 L1504.04 2513.73 L1504.18 2512.99 L1504.31 2512.26 L1504.45 2511.52 L1504.59 2510.78 L1504.72 2510.04 L1504.86 2509.31 L1504.99 2508.57 L1505.12 2507.83 L1505.25 2507.09 L1505.39 2506.35 L1505.52 2505.61 L1505.64 2504.87 L1505.77 2504.13 L1505.9 2503.4 L1506.03 2502.66 L1506.15 2501.92 L1506.28 2501.18 L1506.4 2500.44 L1506.52 2499.7 L1506.65 2498.96 L1506.77 2498.22 L1506.89 2497.47 L1507.01 2496.73 L1507.12 2495.99 L1507.24 2495.25 L1507.36 2494.51 L1507.48 2493.77 L1507.59 2493.03 L1507.7 2492.29 L1507.82 2491.55 L1507.93 2490.8 L1508.04 2490.06 L1508.15 2489.32 L1508.26 2488.58 L1508.37 2487.84 L1508.48 2487.09 L1508.59 2486.35 L1508.69 2485.61 L1508.8 2484.86 L1508.9 2484.12 L1509 2483.38 L884.971 2396.83  Z"
     fill="#f06744"
     fill-rule="evenodd"
     fill-opacity="1"
     id="path28" />
  <polyline
     clip-path="url(#clip405)"
     style="stroke:#000000; stroke-linecap:round; stroke-linejoin:round; stroke-width:0; stroke-opacity:1; fill:none"
     points="884.971,2396.83 1502.9,2519.62 1503.04,2518.89 1503.19,2518.15 1503.33,2517.42 1503.47,2516.68 1503.62,2515.94 1503.76,2515.21 1503.9,2514.47 1504.04,2513.73 1504.18,2512.99 1504.31,2512.26 1504.45,2511.52 1504.59,2510.78 1504.72,2510.04 1504.86,2509.31 1504.99,2508.57 1505.12,2507.83 1505.25,2507.09 1505.39,2506.35 1505.52,2505.61 1505.64,2504.87 1505.77,2504.13 1505.9,2503.4 1506.03,2502.66 1506.15,2501.92 1506.28,2501.18 1506.4,2500.44 1506.52,2499.7 1506.65,2498.96 1506.77,2498.22 1506.89,2497.47 1507.01,2496.73 1507.12,2495.99 1507.24,2495.25 1507.36,2494.51 1507.48,2493.77 1507.59,2493.03 1507.7,2492.29 1507.82,2491.55 1507.93,2490.8 1508.04,2490.06 1508.15,2489.32 1508.26,2488.58 1508.37,2487.84 1508.48,2487.09 1508.59,2486.35 1508.69,2485.61 1508.8,2484.86 1508.9,2484.12 1509,2483.38 884.971,2396.83 "
     id="polyline28" />
  <path
     clip-path="url(#clip405)"
     d="M884.971 2396.83 L1509 2483.38 L1509.25 2481.62 L1509.48 2479.87 L1509.71 2478.11 L1509.94 2476.35 L1510.16 2474.59 L1510.38 2472.84 L1510.59 2471.08 L1510.79 2469.32 L1511 2467.56 L1511.19 2465.8 L1511.38 2464.03 L1511.57 2462.27 L1511.75 2460.51 L1511.93 2458.75 L1512.1 2456.98 L1512.27 2455.22 L1512.43 2453.45 L1512.58 2451.69 L1512.74 2449.92 L1512.88 2448.16 L1513.03 2446.39 L1513.16 2444.63 L1513.29 2442.86 L1513.42 2441.09 L1513.54 2439.32 L1513.66 2437.56 L1513.77 2435.79 L1513.88 2434.02 L1513.98 2432.25 L1514.08 2430.48 L1514.17 2428.71 L1514.26 2426.94 L1514.34 2425.17 L1514.42 2423.4 L1514.49 2421.63 L1514.56 2419.86 L1514.62 2418.09 L1514.68 2416.32 L1514.73 2414.55 L1514.78 2412.78 L1514.82 2411 L1514.86 2409.23 L1514.89 2407.46 L1514.92 2405.69 L1514.94 2403.92 L1514.96 2402.15 L1514.97 2400.37 L1514.98 2398.6 L1514.98 2396.83 L884.971 2396.83  Z"
     fill="#5e4fa1"
     fill-rule="evenodd"
     fill-opacity="1"
     id="path29" />
  <polyline
     clip-path="url(#clip405)"
     style="stroke:#000000; stroke-linecap:round; stroke-linejoin:round; stroke-width:0; stroke-opacity:1; fill:none"
     points="884.971,2396.83 1509,2483.38 1509.25,2481.62 1509.48,2479.87 1509.71,2478.11 1509.94,2476.35 1510.16,2474.59 1510.38,2472.84 1510.59,2471.08 1510.79,2469.32 1511,2467.56 1511.19,2465.8 1511.38,2464.03 1511.57,2462.27 1511.75,2460.51 1511.93,2458.75 1512.1,2456.98 1512.27,2455.22 1512.43,2453.45 1512.58,2451.69 1512.74,2449.92 1512.88,2448.16 1513.03,2446.39 1513.16,2444.63 1513.29,2442.86 1513.42,2441.09 1513.54,2439.32 1513.66,2437.56 1513.77,2435.79 1513.88,2434.02 1513.98,2432.25 1514.08,2430.48 1514.17,2428.71 1514.26,2426.94 1514.34,2425.17 1514.42,2423.4 1514.49,2421.63 1514.56,2419.86 1514.62,2418.09 1514.68,2416.32 1514.73,2414.55 1514.78,2412.78 1514.82,2411 1514.86,2409.23 1514.89,2407.46 1514.92,2405.69 1514.94,2403.92 1514.96,2402.15 1514.97,2400.37 1514.98,2398.6 1514.98,2396.83 884.971,2396.83 "
     id="polyline29" />
  <path
     clip-path="url(#clip400)"
     d="M1817.94 3070.45 L3152.76 3070.45 L3152.76 1723.47 L1817.94 1723.47  Z"
     fill="#ffffff"
     fill-rule="evenodd"
     fill-opacity="1"
     id="path30" />
  <defs
     id="defs30">
    <clipPath
       id="clip406">
      <rect
         x="1817"
         y="1723"
         width="1336"
         height="1348"
         id="rect30" />
    </clipPath>
  </defs>
  <path
     clip-path="url(#clip400)"
     d="M2486.08 1628.95 L2486.08 1635.92 Q2482.92 1634.17 2479.72 1633.32 Q2476.56 1632.43 2473.31 1632.43 Q2466.06 1632.43 2462.05 1637.05 Q2458.04 1641.63 2458.04 1649.93 Q2458.04 1658.24 2462.05 1662.85 Q2466.06 1667.43 2473.31 1667.43 Q2476.56 1667.43 2479.72 1666.58 Q2482.92 1665.69 2486.08 1663.95 L2486.08 1670.83 Q2482.96 1672.29 2479.59 1673.02 Q2476.27 1673.75 2472.5 1673.75 Q2462.26 1673.75 2456.22 1667.31 Q2450.18 1660.87 2450.18 1649.93 Q2450.18 1638.83 2456.26 1632.47 Q2462.38 1626.11 2472.99 1626.11 Q2476.43 1626.11 2479.72 1626.84 Q2483 1627.53 2486.08 1628.95 Z"
     fill="#000000"
     fill-rule="nonzero"
     fill-opacity="1"
     id="path31" />
  <path
     clip-path="url(#clip400)"
     d="M2496.97 1638.75 L2517.63 1638.75 L2517.63 1642.6 L2501.79 1642.6 L2501.79 1650.86 Q2502.93 1650.5 2504.1 1650.34 Q2505.24 1650.17 2506.37 1650.17 Q2512.89 1650.17 2516.7 1653.29 Q2520.51 1656.37 2520.51 1661.68 Q2520.51 1667.15 2516.58 1670.19 Q2512.69 1673.18 2505.56 1673.18 Q2503.13 1673.18 2500.58 1672.82 Q2498.03 1672.45 2495.35 1671.73 L2495.35 1667.15 Q2497.66 1668.24 2500.17 1668.81 Q2502.68 1669.34 2505.48 1669.34 Q2509.98 1669.34 2512.61 1667.27 Q2515.24 1665.2 2515.24 1661.68 Q2515.24 1658.15 2512.61 1656.09 Q2509.98 1654.02 2505.48 1654.02 Q2503.37 1654.02 2501.27 1654.43 Q2499.16 1654.83 2496.97 1655.68 L2496.97 1638.75 Z"
     fill="#000000"
     fill-rule="nonzero"
     fill-opacity="1"
     id="path32" />
  <path
     clip-path="url(#clip406)"
     d="M2485.33 2396.72 L3114.98 2396.72 L3112.46 2340.47 L3104.93 2284.68 L3092.44 2229.77 L3075.1 2176.21 L3053.04 2124.4 L3026.45 2074.78 L2995.53 2027.73 L2960.52 1983.62 L2921.72 1942.83 L2879.43 1905.66 L2833.99 1872.42 L2785.76 1843.37 L2735.12 1818.74 L2682.49 1798.74 L2628.29 1783.51 L2572.94 1773.2 L2516.88 1767.86 L2460.58 1767.56 L2404.48 1772.28 L2349.02 1782 L2294.65 1796.64 L2241.81 1816.07 L2190.91 1840.14 L2142.37 1868.67 L2096.57 1901.42 L2053.87 1938.13 L2014.63 1978.5 L1979.15 2022.22 L1947.72 2068.94 L1920.59 2118.27 L1897.98 2169.83 L1880.06 2223.21 L1866.98 2277.97 L1858.84 2333.69 L1855.71 2389.9 L1857.62 2446.17 L1864.55 2502.05 L1876.44 2557.08 L1893.2 2610.84 L1914.69 2662.88 L1940.75 2712.79 L1971.16 2760.17 L2005.69 2804.65 L2044.04 2845.86 L2085.93 2883.49 L2131.01 2917.22 L2178.93 2946.79 L2229.29 2971.96 L2281.7 2992.54 L2485.33 2396.72  Z"
     fill="#9e0142"
     fill-rule="evenodd"
     fill-opacity="1"
     id="path33" />
  <polyline
     clip-path="url(#clip406)"
     style="stroke:#808080; stroke-linecap:round; stroke-linejoin:round; stroke-width:0; stroke-opacity:1; fill:none"
     points="2485.33,2396.72 3114.98,2396.72 3112.46,2340.47 3104.93,2284.68 3092.44,2229.77 3075.1,2176.21 3053.04,2124.4 3026.45,2074.78 2995.53,2027.73 2960.52,1983.62 2921.72,1942.83 2879.43,1905.66 2833.99,1872.42 2785.76,1843.37 2735.12,1818.74 2682.49,1798.74 2628.29,1783.51 2572.94,1773.2 2516.88,1767.86 2460.58,1767.56 2404.48,1772.28 2349.02,1782 2294.65,1796.64 2241.81,1816.07 2190.91,1840.14 2142.37,1868.67 2096.57,1901.42 2053.87,1938.13 2014.63,1978.5 1979.15,2022.22 1947.72,2068.94 1920.59,2118.27 1897.98,2169.83 1880.06,2223.21 1866.98,2277.97 1858.84,2333.69 1855.71,2389.9 1857.62,2446.17 1864.55,2502.05 1876.44,2557.08 1893.2,2610.84 1914.69,2662.88 1940.75,2712.79 1971.16,2760.17 2005.69,2804.65 2044.04,2845.86 2085.93,2883.49 2131.01,2917.22 2178.93,2946.79 2229.29,2971.96 2281.7,2992.54 2485.33,2396.72 "
     id="polyline33" />
  <path
     clip-path="url(#clip406)"
     d="M2485.33 2396.72 L2281.7 2992.54 L2288.14 2994.7 L2294.61 2996.79 L2301.1 2998.82 L2307.61 3000.77 L2314.14 3002.65 L2320.69 3004.47 L2327.26 3006.21 L2333.85 3007.88 L2340.46 3009.48 L2347.08 3011.01 L2353.72 3012.46 L2360.37 3013.85 L2367.04 3015.16 L2373.73 3016.4 L2380.42 3017.57 L2387.13 3018.67 L2393.85 3019.69 L2400.58 3020.64 L2407.32 3021.52 L2414.07 3022.33 L2420.83 3023.06 L2427.59 3023.72 L2434.37 3024.31 L2441.14 3024.82 L2447.93 3025.26 L2454.71 3025.63 L2461.5 3025.92 L2468.3 3026.14 L2475.09 3026.29 L2481.89 3026.36 L2488.69 3026.36 L2495.49 3026.29 L2502.28 3026.14 L2509.07 3025.92 L2515.87 3025.63 L2522.65 3025.26 L2529.44 3024.82 L2536.21 3024.31 L2542.99 3023.73 L2549.75 3023.07 L2556.51 3022.34 L2563.26 3021.53 L2570 3020.65 L2576.73 3019.7 L2583.45 3018.68 L2590.16 3017.58 L2596.85 3016.42 L2603.54 3015.18 L2610.21 3013.86 L2485.33 2396.72  Z"
     fill="#b2e0a2"
     fill-rule="evenodd"
     fill-opacity="1"
     id="path34" />
  <polyline
     clip-path="url(#clip406)"
     style="stroke:#808080; stroke-linecap:round; stroke-linejoin:round; stroke-width:0; stroke-opacity:1; fill:none"
     points="2485.33,2396.72 2281.7,2992.54 2288.14,2994.7 2294.61,2996.79 2301.1,2998.82 2307.61,3000.77 2314.14,3002.65 2320.69,3004.47 2327.26,3006.21 2333.85,3007.88 2340.46,3009.48 2347.08,3011.01 2353.72,3012.46 2360.37,3013.85 2367.04,3015.16 2373.73,3016.4 2380.42,3017.57 2387.13,3018.67 2393.85,3019.69 2400.58,3020.64 2407.32,3021.52 2414.07,3022.33 2420.83,3023.06 2427.59,3023.72 2434.37,3024.31 2441.14,3024.82 2447.93,3025.26 2454.71,3025.63 2461.5,3025.92 2468.3,3026.14 2475.09,3026.29 2481.89,3026.36 2488.69,3026.36 2495.49,3026.29 2502.28,3026.14 2509.07,3025.92 2515.87,3025.63 2522.65,3025.26 2529.44,3024.82 2536.21,3024.31 2542.99,3023.73 2549.75,3023.07 2556.51,3022.34 2563.26,3021.53 2570,3020.65 2576.73,3019.7 2583.45,3018.68 2590.16,3017.58 2596.85,3016.42 2603.54,3015.18 2610.21,3013.86 2485.33,2396.72 "
     id="polyline34" />
  <path
     clip-path="url(#clip406)"
     d="M2485.33 2396.72 L2610.21 3013.86 L2615.15 3012.84 L2620.09 3011.78 L2625.02 3010.68 L2629.94 3009.54 L2634.85 3008.36 L2639.75 3007.14 L2644.64 3005.88 L2649.52 3004.59 L2654.39 3003.25 L2659.25 3001.87 L2664.1 3000.46 L2668.94 2999.01 L2673.76 2997.51 L2678.58 2995.98 L2683.38 2994.41 L2688.16 2992.81 L2692.94 2991.16 L2697.7 2989.48 L2702.45 2987.75 L2707.18 2985.99 L2711.9 2984.19 L2716.61 2982.36 L2721.3 2980.48 L2725.97 2978.57 L2730.63 2976.62 L2735.27 2974.64 L2739.9 2972.61 L2744.51 2970.55 L2749.11 2968.46 L2753.68 2966.32 L2758.24 2964.15 L2762.79 2961.94 L2767.31 2959.7 L2771.82 2957.42 L2776.3 2955.1 L2780.77 2952.75 L2785.22 2950.36 L2789.66 2947.94 L2794.07 2945.48 L2798.46 2942.99 L2802.83 2940.46 L2807.18 2937.9 L2811.51 2935.3 L2815.82 2932.66 L2820.11 2929.99 L2824.38 2927.29 L2828.62 2924.56 L2832.84 2921.79 L2837.04 2918.98 L2485.33 2396.72  Z"
     fill="#88cfa4"
     fill-rule="evenodd"
     fill-opacity="1"
     id="path35" />
  <polyline
     clip-path="url(#clip406)"
     style="stroke:#808080; stroke-linecap:round; stroke-linejoin:round; stroke-width:0; stroke-opacity:1; fill:none"
     points="2485.33,2396.72 2610.21,3013.86 2615.15,3012.84 2620.09,3011.78 2625.02,3010.68 2629.94,3009.54 2634.85,3008.36 2639.75,3007.14 2644.64,3005.88 2649.52,3004.59 2654.39,3003.25 2659.25,3001.87 2664.1,3000.46 2668.94,2999.01 2673.76,2997.51 2678.58,2995.98 2683.38,2994.41 2688.16,2992.81 2692.94,2991.16 2697.7,2989.48 2702.45,2987.75 2707.18,2985.99 2711.9,2984.19 2716.61,2982.36 2721.3,2980.48 2725.97,2978.57 2730.63,2976.62 2735.27,2974.64 2739.9,2972.61 2744.51,2970.55 2749.11,2968.46 2753.68,2966.32 2758.24,2964.15 2762.79,2961.94 2767.31,2959.7 2771.82,2957.42 2776.3,2955.1 2780.77,2952.75 2785.22,2950.36 2789.66,2947.94 2794.07,2945.48 2798.46,2942.99 2802.83,2940.46 2807.18,2937.9 2811.51,2935.3 2815.82,2932.66 2820.11,2929.99 2824.38,2927.29 2828.62,2924.56 2832.84,2921.79 2837.04,2918.98 2485.33,2396.72 "
     id="polyline35" />
  <path
     clip-path="url(#clip406)"
     d="M2485.33 2396.72 L2837.04 2918.98 L2847.4 2911.86 L2857.61 2904.53 L2867.67 2897 L2877.58 2889.26 L2887.33 2881.34 L2896.93 2873.22 L2906.35 2864.91 L2915.62 2856.41 L2924.7 2847.73 L2933.62 2838.87 L2942.36 2829.83 L2950.91 2820.62 L2959.28 2811.25 L2967.46 2801.7 L2975.44 2792 L2983.24 2782.14 L2990.83 2772.12 L2998.22 2761.96 L3005.41 2751.65 L3012.39 2741.2 L3019.16 2730.61 L3025.72 2719.89 L3032.06 2709.03 L3038.19 2698.06 L3044.09 2686.96 L3049.77 2675.75 L3055.23 2664.43 L3060.46 2653 L3065.46 2641.47 L3070.23 2629.84 L3074.77 2618.12 L3079.07 2606.31 L3083.14 2594.42 L3086.96 2582.45 L3090.55 2570.4 L3093.9 2558.29 L3097 2546.11 L3099.86 2533.87 L3102.48 2521.58 L3104.84 2509.23 L3106.97 2496.84 L3108.84 2484.42 L3110.47 2471.95 L3111.84 2459.46 L3112.97 2446.94 L3113.85 2434.4 L3114.48 2421.85 L3114.85 2409.29 L3114.98 2396.72 L2485.33 2396.72  Z"
     fill="#5e4fa1"
     fill-rule="evenodd"
     fill-opacity="1"
     id="path36" />
  <polyline
     clip-path="url(#clip406)"
     style="stroke:#808080; stroke-linecap:round; stroke-linejoin:round; stroke-width:0; stroke-opacity:1; fill:none"
     points="2485.33,2396.72 2837.04,2918.98 2847.4,2911.86 2857.61,2904.53 2867.67,2897 2877.58,2889.26 2887.33,2881.34 2896.93,2873.22 2906.35,2864.91 2915.62,2856.41 2924.7,2847.73 2933.62,2838.87 2942.36,2829.83 2950.91,2820.62 2959.28,2811.25 2967.46,2801.7 2975.44,2792 2983.24,2782.14 2990.83,2772.12 2998.22,2761.96 3005.41,2751.65 3012.39,2741.2 3019.16,2730.61 3025.72,2719.89 3032.06,2709.03 3038.19,2698.06 3044.09,2686.96 3049.77,2675.75 3055.23,2664.43 3060.46,2653 3065.46,2641.47 3070.23,2629.84 3074.77,2618.12 3079.07,2606.31 3083.14,2594.42 3086.96,2582.45 3090.55,2570.4 3093.9,2558.29 3097,2546.11 3099.86,2533.87 3102.48,2521.58 3104.84,2509.23 3106.97,2496.84 3108.84,2484.42 3110.47,2471.95 3111.84,2459.46 3112.97,2446.94 3113.85,2434.4 3114.48,2421.85 3114.85,2409.29 3114.98,2396.72 2485.33,2396.72 "
     id="polyline36" />
  <path
     clip-path="url(#clip400)"
     d="M3417.94 3070.45 L4752.76 3070.45 L4752.76 1723.47 L3417.94 1723.47  Z"
     fill="#ffffff"
     fill-rule="evenodd"
     fill-opacity="1"
     id="path37" />
  <defs
     id="defs37">
    <clipPath
       id="clip407">
      <rect
         x="3417"
         y="1723"
         width="1336"
         height="1348"
         id="rect37" />
    </clipPath>
  </defs>
  <path
     clip-path="url(#clip400)"
     d="M4085.43 1628.95 L4085.43 1635.92 Q4082.27 1634.17 4079.07 1633.32 Q4075.91 1632.43 4072.67 1632.43 Q4065.42 1632.43 4061.41 1637.05 Q4057.39 1641.63 4057.39 1649.93 Q4057.39 1658.24 4061.41 1662.85 Q4065.42 1667.43 4072.67 1667.43 Q4075.91 1667.43 4079.07 1666.58 Q4082.27 1665.69 4085.43 1663.95 L4085.43 1670.83 Q4082.31 1672.29 4078.95 1673.02 Q4075.62 1673.75 4071.86 1673.75 Q4061.61 1673.75 4055.57 1667.31 Q4049.54 1660.87 4049.54 1649.93 Q4049.54 1638.83 4055.61 1632.47 Q4061.73 1626.11 4072.34 1626.11 Q4075.79 1626.11 4079.07 1626.84 Q4082.35 1627.53 4085.43 1628.95 Z"
     fill="#000000"
     fill-rule="nonzero"
     fill-opacity="1"
     id="path38" />
  <path
     clip-path="url(#clip400)"
     d="M4108.19 1653.74 Q4104.63 1653.74 4102.56 1655.85 Q4100.5 1657.99 4100.5 1661.68 Q4100.5 1665.32 4102.56 1667.43 Q4104.63 1669.58 4108.19 1669.58 Q4111.72 1669.58 4113.78 1667.43 Q4115.85 1665.32 4115.85 1661.68 Q4115.85 1657.99 4113.78 1655.85 Q4111.72 1653.74 4108.19 1653.74 M4118.64 1639.4 L4118.64 1643.57 Q4116.66 1642.76 4114.63 1642.36 Q4112.61 1641.91 4110.62 1641.91 Q4105.44 1641.91 4102.68 1644.95 Q4099.93 1648.03 4099.52 1654.23 Q4101.06 1652.24 4103.37 1651.19 Q4105.72 1650.13 4108.48 1650.13 Q4114.35 1650.13 4117.75 1653.21 Q4121.16 1656.33 4121.16 1661.68 Q4121.16 1666.82 4117.59 1670.02 Q4114.07 1673.18 4108.19 1673.18 Q4101.43 1673.18 4097.86 1668.69 Q4094.3 1664.19 4094.3 1655.6 Q4094.3 1647.58 4098.67 1642.84 Q4103.05 1638.06 4110.42 1638.06 Q4112.41 1638.06 4114.43 1638.39 Q4116.46 1638.75 4118.64 1639.4 Z"
     fill="#000000"
     fill-rule="nonzero"
     fill-opacity="1"
     id="path39" />
  <path
     clip-path="url(#clip407)"
     d="M4084.99 2396.75 L4714.98 2396.75 L4710.16 2318.99 L4695.78 2242.41 L4672.06 2168.2 L4639.36 2097.48 L4598.18 2031.34 L4549.15 1970.79 L4493.03 1916.76 L4430.66 1870.06 L4363.01 1831.42 L4291.1 1801.43 L4216.04 1780.54 L4138.98 1769.07 L4061.09 1767.21 L3983.57 1774.97 L3907.59 1792.25 L3834.33 1818.76 L3764.91 1854.12 L3700.38 1897.78 L3641.73 1949.07 L3589.86 2007.21 L3545.57 2071.3 L3509.52 2140.37 L3482.27 2213.36 L3464.25 2289.16 L3455.71 2366.6 L3456.8 2444.51 L3467.5 2521.68 L3487.65 2596.94 L3516.92 2669.14 L3554.89 2737.18 L3600.96 2800 L3654.44 2856.66 L3714.5 2906.29 L3780.23 2948.12 L3850.62 2981.53 L3924.59 3005.98 L4001.02 3021.12 L4078.73 3026.71 L4156.53 3022.67 L4233.25 3009.05 L4307.69 2986.06 L4378.73 2954.07 L4445.27 2913.55 L4506.31 2865.13 L4560.9 2809.54 L4608.21 2747.64 L4647.52 2680.37 L4678.23 2608.77 L4699.86 2533.92 L4084.99 2396.75  Z"
     fill="#5fbaa7"
     fill-rule="evenodd"
     fill-opacity="1"
     id="path40" />
  <polyline
     clip-path="url(#clip407)"
     style="stroke:#000000; stroke-linecap:round; stroke-linejoin:round; stroke-width:0; stroke-opacity:1; fill:none"
     points="4084.99,2396.75 4714.98,2396.75 4710.16,2318.99 4695.78,2242.41 4672.06,2168.2 4639.36,2097.48 4598.18,2031.34 4549.15,1970.79 4493.03,1916.76 4430.66,1870.06 4363.01,1831.42 4291.1,1801.43 4216.04,1780.54 4138.98,1769.07 4061.09,1767.21 3983.57,1774.97 3907.59,1792.25 3834.33,1818.76 3764.91,1854.12 3700.38,1897.78 3641.73,1949.07 3589.86,2007.21 3545.57,2071.3 3509.52,2140.37 3482.27,2213.36 3464.25,2289.16 3455.71,2366.6 3456.8,2444.51 3467.5,2521.68 3487.65,2596.94 3516.92,2669.14 3554.89,2737.18 3600.96,2800 3654.44,2856.66 3714.5,2906.29 3780.23,2948.12 3850.62,2981.53 3924.59,3005.98 4001.02,3021.12 4078.73,3026.71 4156.53,3022.67 4233.25,3009.05 4307.69,2986.06 4378.73,2954.07 4445.27,2913.55 4506.31,2865.13 4560.9,2809.54 4608.21,2747.64 4647.52,2680.37 4678.23,2608.77 4699.86,2533.92 4084.99,2396.75 "
     id="polyline40" />
  <path
     clip-path="url(#clip407)"
     d="M4084.99 2396.75 L4699.86 2533.92 L4700.08 2532.96 L4700.29 2532 L4700.5 2531.04 L4700.71 2530.07 L4700.92 2529.11 L4701.12 2528.15 L4701.33 2527.19 L4701.53 2526.22 L4701.73 2525.26 L4701.93 2524.3 L4702.13 2523.33 L4702.33 2522.37 L4702.52 2521.4 L4702.72 2520.44 L4702.91 2519.47 L4703.1 2518.51 L4703.29 2517.54 L4703.48 2516.58 L4703.66 2515.61 L4703.85 2514.64 L4704.03 2513.68 L4704.21 2512.71 L4704.39 2511.74 L4704.57 2510.77 L4704.75 2509.81 L4704.93 2508.84 L4705.1 2507.87 L4705.27 2506.9 L4705.44 2505.93 L4705.61 2504.96 L4705.78 2503.99 L4705.95 2503.02 L4706.11 2502.05 L4706.28 2501.08 L4706.44 2500.11 L4706.6 2499.14 L4706.76 2498.17 L4706.92 2497.2 L4707.07 2496.23 L4707.23 2495.25 L4707.38 2494.28 L4707.53 2493.31 L4707.68 2492.34 L4707.83 2491.36 L4707.98 2490.39 L4708.13 2489.42 L4708.27 2488.44 L4708.41 2487.47 L4708.55 2486.5 L4084.99 2396.75  Z"
     fill="#3e96b6"
     fill-rule="evenodd"
     fill-opacity="1"
     id="path41" />
  <polyline
     clip-path="url(#clip407)"
     style="stroke:#000000; stroke-linecap:round; stroke-linejoin:round; stroke-width:0; stroke-opacity:1; fill:none"
     points="4084.99,2396.75 4699.86,2533.92 4700.08,2532.96 4700.29,2532 4700.5,2531.04 4700.71,2530.07 4700.92,2529.11 4701.12,2528.15 4701.33,2527.19 4701.53,2526.22 4701.73,2525.26 4701.93,2524.3 4702.13,2523.33 4702.33,2522.37 4702.52,2521.4 4702.72,2520.44 4702.91,2519.47 4703.1,2518.51 4703.29,2517.54 4703.48,2516.58 4703.66,2515.61 4703.85,2514.64 4704.03,2513.68 4704.21,2512.71 4704.39,2511.74 4704.57,2510.77 4704.75,2509.81 4704.93,2508.84 4705.1,2507.87 4705.27,2506.9 4705.44,2505.93 4705.61,2504.96 4705.78,2503.99 4705.95,2503.02 4706.11,2502.05 4706.28,2501.08 4706.44,2500.11 4706.6,2499.14 4706.76,2498.17 4706.92,2497.2 4707.07,2496.23 4707.23,2495.25 4707.38,2494.28 4707.53,2493.31 4707.68,2492.34 4707.83,2491.36 4707.98,2490.39 4708.13,2489.42 4708.27,2488.44 4708.41,2487.47 4708.55,2486.5 4084.99,2396.75 "
     id="polyline41" />
  <path
     clip-path="url(#clip407)"
     d="M4084.99 2396.75 L4708.55 2486.5 L4708.63 2485.95 L4708.71 2485.4 L4708.79 2484.85 L4708.86 2484.3 L4708.94 2483.75 L4709.02 2483.2 L4709.09 2482.65 L4709.17 2482.1 L4709.24 2481.55 L4709.32 2481 L4709.39 2480.45 L4709.47 2479.9 L4709.54 2479.35 L4709.61 2478.8 L4709.68 2478.25 L4709.76 2477.7 L4709.83 2477.15 L4709.9 2476.6 L4709.97 2476.05 L4710.04 2475.5 L4710.11 2474.95 L4710.17 2474.4 L4710.24 2473.85 L4710.31 2473.3 L4710.38 2472.75 L4710.44 2472.2 L4710.51 2471.65 L4710.58 2471.1 L4710.64 2470.55 L4710.71 2470 L4710.77 2469.44 L4710.83 2468.89 L4710.9 2468.34 L4710.96 2467.79 L4711.02 2467.24 L4711.08 2466.69 L4711.15 2466.14 L4711.21 2465.59 L4711.27 2465.03 L4711.33 2464.48 L4711.39 2463.93 L4711.44 2463.38 L4711.5 2462.83 L4711.56 2462.28 L4711.62 2461.72 L4711.68 2461.17 L4711.73 2460.62 L4711.79 2460.07 L4711.84 2459.52 L4084.99 2396.75  Z"
     fill="#ffffbe"
     fill-rule="evenodd"
     fill-opacity="1"
     id="path42" />
  <polyline
     clip-path="url(#clip407)"
     style="stroke:#000000; stroke-linecap:round; stroke-linejoin:round; stroke-width:0; stroke-opacity:1; fill:none"
     points="4084.99,2396.75 4708.55,2486.5 4708.63,2485.95 4708.71,2485.4 4708.79,2484.85 4708.86,2484.3 4708.94,2483.75 4709.02,2483.2 4709.09,2482.65 4709.17,2482.1 4709.24,2481.55 4709.32,2481 4709.39,2480.45 4709.47,2479.9 4709.54,2479.35 4709.61,2478.8 4709.68,2478.25 4709.76,2477.7 4709.83,2477.15 4709.9,2476.6 4709.97,2476.05 4710.04,2475.5 4710.11,2474.95 4710.17,2474.4 4710.24,2473.85 4710.31,2473.3 4710.38,2472.75 4710.44,2472.2 4710.51,2471.65 4710.58,2471.1 4710.64,2470.55 4710.71,2470 4710.77,2469.44 4710.83,2468.89 4710.9,2468.34 4710.96,2467.79 4711.02,2467.24 4711.08,2466.69 4711.15,2466.14 4711.21,2465.59 4711.27,2465.03 4711.33,2464.48 4711.39,2463.93 4711.44,2463.38 4711.5,2462.83 4711.56,2462.28 4711.62,2461.72 4711.68,2461.17 4711.73,2460.62 4711.79,2460.07 4711.84,2459.52 4084.99,2396.75 "
     id="polyline42" />
  <path
     clip-path="url(#clip407)"
     d="M4084.99 2396.75 L4711.84 2459.52 L4711.97 2458.24 L4712.09 2456.96 L4712.22 2455.69 L4712.33 2454.41 L4712.45 2453.13 L4712.56 2451.85 L4712.67 2450.57 L4712.78 2449.3 L4712.89 2448.02 L4712.99 2446.74 L4713.09 2445.46 L4713.19 2444.18 L4713.29 2442.9 L4713.38 2441.62 L4713.47 2440.34 L4713.56 2439.06 L4713.64 2437.78 L4713.72 2436.5 L4713.8 2435.22 L4713.88 2433.94 L4713.95 2432.66 L4714.03 2431.38 L4714.09 2430.09 L4714.16 2428.81 L4714.23 2427.53 L4714.29 2426.25 L4714.35 2424.97 L4714.4 2423.69 L4714.46 2422.4 L4714.51 2421.12 L4714.55 2419.84 L4714.6 2418.56 L4714.64 2417.28 L4714.68 2415.99 L4714.72 2414.71 L4714.76 2413.43 L4714.79 2412.14 L4714.82 2410.86 L4714.85 2409.58 L4714.87 2408.3 L4714.89 2407.01 L4714.91 2405.73 L4714.93 2404.45 L4714.95 2403.16 L4714.96 2401.88 L4714.97 2400.6 L4714.97 2399.32 L4714.98 2398.03 L4714.98 2396.75 L4084.99 2396.75  Z"
     fill="#5e4fa1"
     fill-rule="evenodd"
     fill-opacity="1"
     id="path43" />
  <polyline
     clip-path="url(#clip407)"
     style="stroke:#000000; stroke-linecap:round; stroke-linejoin:round; stroke-width:0; stroke-opacity:1; fill:none"
     points="4084.99,2396.75 4711.84,2459.52 4711.97,2458.24 4712.09,2456.96 4712.22,2455.69 4712.33,2454.41 4712.45,2453.13 4712.56,2451.85 4712.67,2450.57 4712.78,2449.3 4712.89,2448.02 4712.99,2446.74 4713.09,2445.46 4713.19,2444.18 4713.29,2442.9 4713.38,2441.62 4713.47,2440.34 4713.56,2439.06 4713.64,2437.78 4713.72,2436.5 4713.8,2435.22 4713.88,2433.94 4713.95,2432.66 4714.03,2431.38 4714.09,2430.09 4714.16,2428.81 4714.23,2427.53 4714.29,2426.25 4714.35,2424.97 4714.4,2423.69 4714.46,2422.4 4714.51,2421.12 4714.55,2419.84 4714.6,2418.56 4714.64,2417.28 4714.68,2415.99 4714.72,2414.71 4714.76,2413.43 4714.79,2412.14 4714.82,2410.86 4714.85,2409.58 4714.87,2408.3 4714.89,2407.01 4714.91,2405.73 4714.93,2404.45 4714.95,2403.16 4714.96,2401.88 4714.97,2400.6 4714.97,2399.32 4714.98,2398.03 4714.98,2396.75 4084.99,2396.75 "
     id="polyline43" />
</svg>
