<?xml version="1.0" encoding="utf-8"?>
<svg xmlns="http://www.w3.org/2000/svg" xmlns:xlink="http://www.w3.org/1999/xlink" width="500" height="400" viewBox="0 0 2000 1600">
<defs>
  <clipPath id="clip360">
    <rect x="0" y="0" width="2000" height="1600"/>
  </clipPath>
</defs>
<path clip-path="url(#clip360)" d="M0 1600 L2000 1600 L2000 0 L0 0  Z" fill="#ffffff" fill-rule="evenodd" fill-opacity="1"/>
<defs>
  <clipPath id="clip361">
    <rect x="400" y="0" width="1401" height="1401"/>
  </clipPath>
</defs>
<path clip-path="url(#clip360)" d="M189.936 1276.63 L1420.47 1276.63 L1420.47 338.475 L189.936 338.475  Z" fill="#ffffff" fill-rule="evenodd" fill-opacity="1"/>
<defs>
  <clipPath id="clip362">
    <rect x="189" y="338" width="1232" height="939"/>
  </clipPath>
</defs>
<path clip-path="url(#clip360)" d="M796.797 28.9478 L796.797 35.9153 Q793.637 34.1734 790.437 33.3227 Q787.277 32.4315 784.037 32.4315 Q776.786 32.4315 772.775 37.0496 Q768.765 41.6271 768.765 49.9314 Q768.765 58.2358 772.775 62.8538 Q776.786 67.4314 784.037 67.4314 Q787.277 67.4314 790.437 66.5807 Q793.637 65.6895 796.797 63.9476 L796.797 70.8341 Q793.678 72.2924 790.316 73.0216 Q786.994 73.7508 783.227 73.7508 Q772.978 73.7508 766.942 67.3098 Q760.906 60.8689 760.906 49.9314 Q760.906 38.832 766.982 32.472 Q773.099 26.1121 783.713 26.1121 Q787.156 26.1121 790.437 26.8413 Q793.718 27.5299 796.797 28.9478 Z" fill="#000000" fill-rule="nonzero" fill-opacity="1" /><path clip-path="url(#clip360)" d="M829.326 39.075 Q823.817 39.075 820.576 42.8424 Q817.376 46.6097 817.376 53.1722 Q817.376 59.6941 820.576 63.502 Q823.817 67.2693 829.326 67.2693 Q834.835 67.2693 838.035 63.502 Q841.276 59.6941 841.276 53.1722 Q841.276 46.6097 838.035 42.8424 Q834.835 39.075 829.326 39.075 M845.57 13.4328 L845.57 20.8865 Q842.491 19.4281 839.332 18.6585 Q836.212 17.8888 833.134 17.8888 Q825.032 17.8888 820.738 23.3575 Q816.485 28.8262 815.877 39.8852 Q818.267 36.3609 821.872 34.4975 Q825.478 32.5936 829.812 32.5936 Q838.927 32.5936 844.193 38.1433 Q849.499 43.6525 849.499 53.1722 Q849.499 62.4892 843.99 68.12 Q838.481 73.7508 829.326 73.7508 Q818.834 73.7508 813.284 65.73 Q807.735 57.6687 807.735 42.3968 Q807.735 28.0566 814.54 19.5497 Q821.346 11.0023 832.81 11.0023 Q835.888 11.0023 839.008 11.6099 Q842.167 12.2175 845.57 13.4328 Z" fill="#000000" fill-rule="nonzero" fill-opacity="1" /><path clip-path="url(#clip362)" d="M805.201 807.552 L1247.73 807.552 L1247.72 804.214 L1247.68 800.876 L1247.61 797.539 L1247.53 794.202 L1247.41 790.866 L1247.27 787.531 L1247.11 784.198 L1246.92 780.865 L1246.71 777.534 L1246.47 774.205 L1246.21 770.877 L1245.92 767.552 L1245.6 764.229 L1245.26 760.908 L1244.9 757.59 L1244.51 754.275 L1244.09 750.963 L1243.66 747.654 L1243.19 744.349 L1242.7 741.047 L1242.19 737.749 L1241.65 734.455 L1241.08 731.165 L1240.5 727.879 L1239.88 724.598 L1239.24 721.322 L1238.58 718.05 L1237.89 714.784 L1237.18 711.523 L1236.45 708.267 L1235.68 705.017 L1234.9 701.773 L1234.09 698.535 L1233.25 695.303 L1232.4 692.078 L1231.51 688.859 L1230.61 685.646 L1229.67 682.441 L1228.72 679.243 L1227.74 676.052 L1226.73 672.869 L1225.71 669.693 L1224.65 666.525 L1223.58 663.366 L1222.48 660.214 L1221.36 657.071 L1220.21 653.936 L1219.04 650.81 L1217.84 647.693 L805.201 807.552  Z" fill="#9e0142" fill-rule="evenodd" fill-opacity="1"/>
<polyline clip-path="url(#clip362)" style="stroke:#000000; stroke-linecap:round; stroke-linejoin:round; stroke-width:4; stroke-opacity:0; fill:none" points="805.201,807.552 1247.73,807.552 1247.72,804.214 1247.68,800.876 1247.61,797.539 1247.53,794.202 1247.41,790.866 1247.27,787.531 1247.11,784.198 1246.92,780.865 1246.71,777.534 1246.47,774.205 1246.21,770.877 1245.92,767.552 1245.6,764.229 1245.26,760.908 1244.9,757.59 1244.51,754.275 1244.09,750.963 1243.66,747.654 1243.19,744.349 1242.7,741.047 1242.19,737.749 1241.65,734.455 1241.08,731.165 1240.5,727.879 1239.88,724.598 1239.24,721.322 1238.58,718.05 1237.89,714.784 1237.18,711.523 1236.45,708.267 1235.68,705.017 1234.9,701.773 1234.09,698.535 1233.25,695.303 1232.4,692.078 1231.51,688.859 1230.61,685.646 1229.67,682.441 1228.72,679.243 1227.74,676.052 1226.73,672.869 1225.71,669.693 1224.65,666.525 1223.58,663.366 1222.48,660.214 1221.36,657.071 1220.21,653.936 1219.04,650.81 1217.84,647.693 805.201,807.552 "/>
<path clip-path="url(#clip362)" d="M805.201 807.552 L1217.84 647.693 L1216.63 644.585 L1215.39 641.486 L1214.12 638.397 L1212.83 635.318 L1211.52 632.248 L1210.19 629.188 L1208.83 626.138 L1207.45 623.099 L1206.05 620.07 L1204.63 617.052 L1203.18 614.045 L1201.71 611.048 L1200.21 608.063 L1198.7 605.089 L1197.16 602.127 L1195.6 599.176 L1194.01 596.238 L1192.41 593.311 L1190.78 590.396 L1189.13 587.494 L1187.46 584.605 L1185.77 581.728 L1184.06 578.864 L1182.32 576.012 L1180.56 573.175 L1178.78 570.35 L1176.99 567.539 L1175.16 564.741 L1173.32 561.958 L1171.46 559.188 L1169.58 556.433 L1167.67 553.691 L1165.75 550.964 L1163.8 548.252 L1161.83 545.555 L1159.85 542.872 L1157.84 540.205 L1155.81 537.552 L1153.77 534.916 L1151.7 532.294 L1149.62 529.688 L1147.51 527.098 L1145.39 524.525 L1143.24 521.967 L1141.08 519.425 L1138.89 516.9 L1136.69 514.391 L1134.47 511.899 L1132.23 509.424 L805.201 807.552  Z" fill="#c0274a" fill-rule="evenodd" fill-opacity="1"/>
<polyline clip-path="url(#clip362)" style="stroke:#000000; stroke-linecap:round; stroke-linejoin:round; stroke-width:4; stroke-opacity:0; fill:none" points="805.201,807.552 1217.84,647.693 1216.63,644.585 1215.39,641.486 1214.12,638.397 1212.83,635.318 1211.52,632.248 1210.19,629.188 1208.83,626.138 1207.45,623.099 1206.05,620.07 1204.63,617.052 1203.18,614.045 1201.71,611.048 1200.21,608.063 1198.7,605.089 1197.16,602.127 1195.6,599.176 1194.01,596.238 1192.41,593.311 1190.78,590.396 1189.13,587.494 1187.46,584.605 1185.77,581.728 1184.06,578.864 1182.32,576.012 1180.56,573.175 1178.78,570.35 1176.99,567.539 1175.16,564.741 1173.32,561.958 1171.46,559.188 1169.58,556.433 1167.67,553.691 1165.75,550.964 1163.8,548.252 1161.83,545.555 1159.85,542.872 1157.84,540.205 1155.81,537.552 1153.77,534.916 1151.7,532.294 1149.62,529.688 1147.51,527.098 1145.39,524.525 1143.24,521.967 1141.08,519.425 1138.89,516.9 1136.69,514.391 1134.47,511.899 1132.23,509.424 805.201,807.552 "/>
<path clip-path="url(#clip362)" d="M805.201 807.552 L1132.23 509.424 L1129.97 506.966 L1127.7 504.524 L1125.4 502.101 L1123.09 499.694 L1120.76 497.305 L1118.41 494.934 L1116.04 492.58 L1113.66 490.244 L1111.26 487.927 L1108.84 485.628 L1106.4 483.346 L1103.95 481.084 L1101.47 478.84 L1098.99 476.614 L1096.48 474.408 L1093.96 472.22 L1091.42 470.052 L1088.87 467.902 L1086.3 465.772 L1083.71 463.662 L1081.11 461.571 L1078.49 459.5 L1075.86 457.448 L1073.21 455.417 L1070.55 453.405 L1067.87 451.414 L1065.18 449.442 L1062.47 447.492 L1059.74 445.561 L1057.01 443.652 L1054.26 441.763 L1051.49 439.895 L1048.71 438.047 L1045.91 436.221 L1043.11 434.416 L1040.29 432.632 L1037.45 430.87 L1034.6 429.129 L1031.74 427.409 L1028.87 425.711 L1025.98 424.035 L1023.08 422.381 L1020.17 420.748 L1017.25 419.138 L1014.31 417.549 L1011.36 415.983 L1008.41 414.439 L1005.43 412.918 L1002.45 411.419 L805.201 807.552  Z" fill="#dc494c" fill-rule="evenodd" fill-opacity="1"/>
<polyline clip-path="url(#clip362)" style="stroke:#000000; stroke-linecap:round; stroke-linejoin:round; stroke-width:4; stroke-opacity:0; fill:none" points="805.201,807.552 1132.23,509.424 1129.97,506.966 1127.7,504.524 1125.4,502.101 1123.09,499.694 1120.76,497.305 1118.41,494.934 1116.04,492.58 1113.66,490.244 1111.26,487.927 1108.84,485.628 1106.4,483.346 1103.95,481.084 1101.47,478.84 1098.99,476.614 1096.48,474.408 1093.96,472.22 1091.42,470.052 1088.87,467.902 1086.3,465.772 1083.71,463.662 1081.11,461.571 1078.49,459.5 1075.86,457.448 1073.21,455.417 1070.55,453.405 1067.87,451.414 1065.18,449.442 1062.47,447.492 1059.74,445.561 1057.01,443.652 1054.26,441.763 1051.49,439.895 1048.71,438.047 1045.91,436.221 1043.11,434.416 1040.29,432.632 1037.45,430.87 1034.6,429.129 1031.74,427.409 1028.87,425.711 1025.98,424.035 1023.08,422.381 1020.17,420.748 1017.25,419.138 1014.31,417.549 1011.36,415.983 1008.41,414.439 1005.43,412.918 1002.45,411.419 805.201,807.552 "/>
<path clip-path="url(#clip362)" d="M805.201 807.552 L1002.45 411.419 L999.459 409.942 L996.454 408.488 L993.439 407.057 L990.412 405.648 L987.376 404.263 L984.329 402.9 L981.271 401.561 L978.204 400.244 L975.127 398.951 L972.04 397.681 L968.944 396.434 L965.838 395.211 L962.723 394.011 L959.6 392.834 L956.467 391.681 L953.326 390.552 L950.176 389.447 L947.019 388.365 L943.853 387.308 L940.679 386.274 L937.497 385.264 L934.308 384.278 L931.112 383.316 L927.909 382.378 L924.698 381.465 L921.481 380.576 L918.257 379.711 L915.027 378.87 L911.79 378.054 L908.547 377.262 L905.299 376.495 L902.045 375.752 L898.785 375.034 L895.52 374.341 L892.25 373.672 L888.975 373.027 L885.695 372.408 L882.41 371.813 L879.121 371.243 L875.828 370.698 L872.531 370.178 L869.23 369.682 L865.926 369.212 L862.618 368.766 L859.306 368.346 L855.992 367.95 L852.675 367.579 L849.355 367.234 L846.032 366.913 L805.201 807.552  Z" fill="#d7ef9a" fill-rule="evenodd" fill-opacity="1"/>
<polyline clip-path="url(#clip362)" style="stroke:#000000; stroke-linecap:round; stroke-linejoin:round; stroke-width:4; stroke-opacity:0; fill:none" points="805.201,807.552 1002.45,411.419 999.459,409.942 996.454,408.488 993.439,407.057 990.412,405.648 987.376,404.263 984.329,402.9 981.271,401.561 978.204,400.244 975.127,398.951 972.04,397.681 968.944,396.434 965.838,395.211 962.723,394.011 959.6,392.834 956.467,391.681 953.326,390.552 950.176,389.447 947.019,388.365 943.853,387.308 940.679,386.274 937.497,385.264 934.308,384.278 931.112,383.316 927.909,382.378 924.698,381.465 921.481,380.576 918.257,379.711 915.027,378.87 911.79,378.054 908.547,377.262 905.299,376.495 902.045,375.752 898.785,375.034 895.52,374.341 892.25,373.672 888.975,373.027 885.695,372.408 882.41,371.813 879.121,371.243 875.828,370.698 872.531,370.178 869.23,369.682 865.926,369.212 862.618,368.766 859.306,368.346 855.992,367.95 852.675,367.579 849.355,367.234 846.032,366.913 805.201,807.552 "/>
<path clip-path="url(#clip362)" d="M805.201 807.552 L846.032 366.913 L842.708 366.618 L839.381 366.347 L836.052 366.102 L832.721 365.882 L829.389 365.687 L826.055 365.517 L822.721 365.372 L819.385 365.253 L816.048 365.158 L812.711 365.089 L809.373 365.045 L806.036 365.026 L802.698 365.033 L799.36 365.064 L796.023 365.121 L792.686 365.203 L789.349 365.31 L786.014 365.442 L782.68 365.599 L779.347 365.781 L776.016 365.989 L772.686 366.222 L769.358 366.48 L766.032 366.762 L762.708 367.07 L759.387 367.403 L756.069 367.762 L752.753 368.145 L749.44 368.553 L746.13 368.986 L742.824 369.444 L739.521 369.927 L736.222 370.435 L732.927 370.967 L729.636 371.525 L726.349 372.107 L723.067 372.715 L719.789 373.346 L716.517 374.003 L713.249 374.684 L709.987 375.39 L706.73 376.121 L703.478 376.876 L700.233 377.655 L696.993 378.459 L693.76 379.288 L690.533 380.14 L687.312 381.017 L684.098 381.919 L805.201 807.552  Z" fill="#f88d51" fill-rule="evenodd" fill-opacity="1"/>
<polyline clip-path="url(#clip362)" style="stroke:#000000; stroke-linecap:round; stroke-linejoin:round; stroke-width:4; stroke-opacity:0; fill:none" points="805.201,807.552 846.032,366.913 842.708,366.618 839.381,366.347 836.052,366.102 832.721,365.882 829.389,365.687 826.055,365.517 822.721,365.372 819.385,365.253 816.048,365.158 812.711,365.089 809.373,365.045 806.036,365.026 802.698,365.033 799.36,365.064 796.023,365.121 792.686,365.203 789.349,365.31 786.014,365.442 782.68,365.599 779.347,365.781 776.016,365.989 772.686,366.222 769.358,366.48 766.032,366.762 762.708,367.07 759.387,367.403 756.069,367.762 752.753,368.145 749.44,368.553 746.13,368.986 742.824,369.444 739.521,369.927 736.222,370.435 732.927,370.967 729.636,371.525 726.349,372.107 723.067,372.715 719.789,373.346 716.517,374.003 713.249,374.684 709.987,375.39 706.73,376.121 703.478,376.876 700.233,377.655 696.993,378.459 693.76,379.288 690.533,380.14 687.312,381.017 684.098,381.919 805.201,807.552 "/>
<path clip-path="url(#clip362)" d="M805.201 807.552 L684.098 381.919 L680.891 382.844 L677.691 383.794 L674.498 384.768 L671.313 385.766 L668.136 386.788 L664.966 387.833 L661.804 388.903 L658.65 389.997 L655.505 391.114 L652.368 392.255 L649.24 393.419 L646.121 394.608 L643.01 395.819 L639.909 397.054 L636.818 398.313 L633.736 399.595 L630.664 400.899 L627.601 402.228 L624.549 403.579 L621.507 404.953 L618.476 406.35 L615.455 407.77 L612.445 409.212 L609.446 410.677 L606.458 412.165 L603.481 413.676 L600.516 415.208 L597.562 416.763 L594.62 418.341 L591.691 419.94 L588.773 421.562 L585.868 423.205 L582.975 424.87 L580.095 426.557 L577.228 428.266 L574.373 429.997 L571.532 431.748 L568.704 433.522 L565.889 435.316 L563.089 437.132 L560.301 438.968 L557.528 440.826 L554.769 442.705 L552.024 444.604 L549.294 446.524 L546.578 448.465 L543.877 450.426 L541.191 452.407 L538.519 454.408 L805.201 807.552  Z" fill="#fdb466" fill-rule="evenodd" fill-opacity="1"/>
<polyline clip-path="url(#clip362)" style="stroke:#000000; stroke-linecap:round; stroke-linejoin:round; stroke-width:4; stroke-opacity:0; fill:none" points="805.201,807.552 684.098,381.919 680.891,382.844 677.691,383.794 674.498,384.768 671.313,385.766 668.136,386.788 664.966,387.833 661.804,388.903 658.65,389.997 655.505,391.114 652.368,392.255 649.24,393.419 646.121,394.608 643.01,395.819 639.909,397.054 636.818,398.313 633.736,399.595 630.664,400.899 627.601,402.228 624.549,403.579 621.507,404.953 618.476,406.35 615.455,407.77 612.445,409.212 609.446,410.677 606.458,412.165 603.481,413.676 600.516,415.208 597.562,416.763 594.62,418.341 591.691,419.94 588.773,421.562 585.868,423.205 582.975,424.87 580.095,426.557 577.228,428.266 574.373,429.997 571.532,431.748 568.704,433.522 565.889,435.316 563.089,437.132 560.301,438.968 557.528,440.826 554.769,442.705 552.024,444.604 549.294,446.524 546.578,448.465 543.877,450.426 541.191,452.407 538.519,454.408 805.201,807.552 "/>
<path clip-path="url(#clip362)" d="M805.201 807.552 L538.519 454.408 L535.863 456.43 L533.223 458.471 L530.597 460.533 L527.988 462.614 L525.394 464.715 L522.816 466.835 L520.254 468.975 L517.708 471.134 L515.179 473.312 L512.666 475.509 L510.17 477.725 L507.69 479.959 L505.228 482.213 L502.782 484.485 L500.354 486.775 L497.943 489.083 L495.55 491.41 L493.174 493.755 L490.816 496.117 L488.476 498.497 L486.154 500.895 L483.85 503.31 L481.564 505.743 L479.297 508.193 L477.048 510.659 L474.818 513.143 L472.607 515.643 L470.414 518.16 L468.241 520.694 L466.087 523.244 L463.952 525.81 L461.837 528.391 L459.741 530.989 L457.665 533.603 L455.608 536.232 L453.572 538.877 L451.555 541.537 L449.559 544.212 L447.583 546.902 L445.627 549.607 L443.691 552.326 L441.776 555.06 L439.882 557.809 L438.009 560.571 L436.156 563.348 L434.325 566.138 L432.515 568.943 L430.725 571.761 L428.958 574.592 L805.201 807.552  Z" fill="#fdd380" fill-rule="evenodd" fill-opacity="1"/>
<polyline clip-path="url(#clip362)" style="stroke:#000000; stroke-linecap:round; stroke-linejoin:round; stroke-width:4; stroke-opacity:0; fill:none" points="805.201,807.552 538.519,454.408 535.863,456.43 533.223,458.471 530.597,460.533 527.988,462.614 525.394,464.715 522.816,466.835 520.254,468.975 517.708,471.134 515.179,473.312 512.666,475.509 510.17,477.725 507.69,479.959 505.228,482.213 502.782,484.485 500.354,486.775 497.943,489.083 495.55,491.41 493.174,493.755 490.816,496.117 488.476,498.497 486.154,500.895 483.85,503.31 481.564,505.743 479.297,508.193 477.048,510.659 474.818,513.143 472.607,515.643 470.414,518.16 468.241,520.694 466.087,523.244 463.952,525.81 461.837,528.391 459.741,530.989 457.665,533.603 455.608,536.232 453.572,538.877 451.555,541.537 449.559,544.212 447.583,546.902 445.627,549.607 443.691,552.326 441.776,555.06 439.882,557.809 438.009,560.571 436.156,563.348 434.325,566.138 432.515,568.943 430.725,571.761 428.958,574.592 805.201,807.552 "/>
<path clip-path="url(#clip362)" d="M805.201 807.552 L428.958 574.592 L427.211 577.436 L425.486 580.294 L423.783 583.165 L422.101 586.048 L420.441 588.944 L418.803 591.852 L417.187 594.773 L415.593 597.706 L414.022 600.65 L412.472 603.607 L410.945 606.575 L409.44 609.554 L407.958 612.545 L406.499 615.547 L405.062 618.56 L403.648 621.583 L402.256 624.617 L400.888 627.662 L399.543 630.717 L398.22 633.782 L396.921 636.856 L395.645 639.941 L394.393 643.035 L393.163 646.138 L391.958 649.25 L390.775 652.372 L389.617 655.502 L388.482 658.641 L387.37 661.789 L386.283 664.944 L385.219 668.108 L384.179 671.28 L383.163 674.46 L382.171 677.647 L381.203 680.841 L380.26 684.043 L379.34 687.252 L378.445 690.467 L377.574 693.69 L376.727 696.918 L375.905 700.153 L375.107 703.394 L374.334 706.642 L373.585 709.894 L372.861 713.153 L372.161 716.416 L371.486 719.685 L370.835 722.959 L370.21 726.238 L805.201 807.552  Z" fill="#feeb9e" fill-rule="evenodd" fill-opacity="1"/>
<polyline clip-path="url(#clip362)" style="stroke:#000000; stroke-linecap:round; stroke-linejoin:round; stroke-width:4; stroke-opacity:0; fill:none" points="805.201,807.552 428.958,574.592 427.211,577.436 425.486,580.294 423.783,583.165 422.101,586.048 420.441,588.944 418.803,591.852 417.187,594.773 415.593,597.706 414.022,600.65 412.472,603.607 410.945,606.575 409.44,609.554 407.958,612.545 406.499,615.547 405.062,618.56 403.648,621.583 402.256,624.617 400.888,627.662 399.543,630.717 398.22,633.782 396.921,636.856 395.645,639.941 394.393,643.035 393.163,646.138 391.958,649.25 390.775,652.372 389.617,655.502 388.482,658.641 387.37,661.789 386.283,664.944 385.219,668.108 384.179,671.28 383.163,674.46 382.171,677.647 381.203,680.841 380.26,684.043 379.34,687.252 378.445,690.467 377.574,693.69 376.727,696.918 375.905,700.153 375.107,703.394 374.334,706.642 373.585,709.894 372.861,713.153 372.161,716.416 371.486,719.685 370.835,722.959 370.21,726.238 805.201,807.552 "/>
<path clip-path="url(#clip362)" d="M805.201 807.552 L370.21 726.238 L369.609 729.521 L369.032 732.809 L368.481 736.101 L367.955 739.397 L367.453 742.697 L366.976 746.001 L366.524 749.308 L366.098 752.619 L365.696 755.932 L365.319 759.249 L364.967 762.568 L364.64 765.89 L364.339 769.214 L364.062 772.541 L363.81 775.869 L363.584 779.199 L363.383 782.531 L363.206 785.864 L363.055 789.199 L362.93 792.534 L362.829 795.871 L362.753 799.208 L362.703 802.545 L362.678 805.883 L362.678 809.221 L362.703 812.559 L362.753 815.896 L362.829 819.233 L362.93 822.57 L363.055 825.905 L363.206 829.24 L363.383 832.573 L363.584 835.905 L363.81 839.235 L364.062 842.563 L364.339 845.89 L364.64 849.214 L364.967 852.536 L365.319 855.855 L365.696 859.172 L366.098 862.485 L366.524 865.796 L366.976 869.103 L367.453 872.407 L367.955 875.707 L368.481 879.003 L369.032 882.295 L369.609 885.583 L370.21 888.866 L805.201 807.552  Z" fill="#4272b2" fill-rule="evenodd" fill-opacity="1"/>
<polyline clip-path="url(#clip362)" style="stroke:#000000; stroke-linecap:round; stroke-linejoin:round; stroke-width:4; stroke-opacity:0; fill:none" points="805.201,807.552 370.21,726.238 369.609,729.521 369.032,732.809 368.481,736.101 367.955,739.397 367.453,742.697 366.976,746.001 366.524,749.308 366.098,752.619 365.696,755.932 365.319,759.249 364.967,762.568 364.64,765.89 364.339,769.214 364.062,772.541 363.81,775.869 363.584,779.199 363.383,782.531 363.206,785.864 363.055,789.199 362.93,792.534 362.829,795.871 362.753,799.208 362.703,802.545 362.678,805.883 362.678,809.221 362.703,812.559 362.753,815.896 362.829,819.233 362.93,822.57 363.055,825.905 363.206,829.24 363.383,832.573 363.584,835.905 363.81,839.235 364.062,842.563 364.339,845.89 364.64,849.214 364.967,852.536 365.319,855.855 365.696,859.172 366.098,862.485 366.524,865.796 366.976,869.103 367.453,872.407 367.955,875.707 368.481,879.003 369.032,882.295 369.609,885.583 370.21,888.866 805.201,807.552 "/>
<path clip-path="url(#clip362)" d="M805.201 807.552 L370.21 888.866 L370.835 892.145 L371.486 895.419 L372.161 898.688 L372.861 901.951 L373.585 905.21 L374.334 908.462 L375.107 911.71 L375.905 914.951 L376.727 918.186 L377.574 921.414 L378.445 924.637 L379.34 927.852 L380.26 931.061 L381.203 934.263 L382.171 937.457 L383.163 940.644 L384.179 943.824 L385.219 946.996 L386.283 950.16 L387.37 953.315 L388.482 956.463 L389.617 959.602 L390.775 962.732 L391.958 965.854 L393.163 968.966 L394.393 972.069 L395.645 975.163 L396.921 978.248 L398.22 981.322 L399.543 984.387 L400.888 987.442 L402.256 990.487 L403.648 993.521 L405.062 996.544 L406.499 999.557 L407.958 1002.56 L409.44 1005.55 L410.945 1008.53 L412.472 1011.5 L414.022 1014.45 L415.593 1017.4 L417.187 1020.33 L418.803 1023.25 L420.441 1026.16 L422.101 1029.06 L423.783 1031.94 L425.486 1034.81 L427.211 1037.67 L428.958 1040.51 L805.201 807.552  Z" fill="#eff8a6" fill-rule="evenodd" fill-opacity="1"/>
<polyline clip-path="url(#clip362)" style="stroke:#000000; stroke-linecap:round; stroke-linejoin:round; stroke-width:4; stroke-opacity:0; fill:none" points="805.201,807.552 370.21,888.866 370.835,892.145 371.486,895.419 372.161,898.688 372.861,901.951 373.585,905.21 374.334,908.462 375.107,911.71 375.905,914.951 376.727,918.186 377.574,921.414 378.445,924.637 379.34,927.852 380.26,931.061 381.203,934.263 382.171,937.457 383.163,940.644 384.179,943.824 385.219,946.996 386.283,950.16 387.37,953.315 388.482,956.463 389.617,959.602 390.775,962.732 391.958,965.854 393.163,968.966 394.393,972.069 395.645,975.163 396.921,978.248 398.22,981.322 399.543,984.387 400.888,987.442 402.256,990.487 403.648,993.521 405.062,996.544 406.499,999.557 407.958,1002.56 409.44,1005.55 410.945,1008.53 412.472,1011.5 414.022,1014.45 415.593,1017.4 417.187,1020.33 418.803,1023.25 420.441,1026.16 422.101,1029.06 423.783,1031.94 425.486,1034.81 427.211,1037.67 428.958,1040.51 805.201,807.552 "/>
<path clip-path="url(#clip362)" d="M805.201 807.552 L428.958 1040.51 L430.725 1043.34 L432.515 1046.16 L434.325 1048.97 L436.156 1051.76 L438.009 1054.53 L439.882 1057.3 L441.776 1060.04 L443.691 1062.78 L445.627 1065.5 L447.583 1068.2 L449.559 1070.89 L451.555 1073.57 L453.572 1076.23 L455.608 1078.87 L457.665 1081.5 L459.741 1084.11 L461.837 1086.71 L463.952 1089.29 L466.087 1091.86 L468.241 1094.41 L470.414 1096.94 L472.607 1099.46 L474.818 1101.96 L477.048 1104.44 L479.297 1106.91 L481.564 1109.36 L483.85 1111.79 L486.154 1114.21 L488.476 1116.61 L490.816 1118.99 L493.174 1121.35 L495.55 1123.69 L497.943 1126.02 L500.354 1128.33 L502.782 1130.62 L505.228 1132.89 L507.69 1135.14 L510.17 1137.38 L512.666 1139.6 L515.179 1141.79 L517.708 1143.97 L520.254 1146.13 L522.816 1148.27 L525.394 1150.39 L527.988 1152.49 L530.597 1154.57 L533.223 1156.63 L535.863 1158.67 L538.519 1160.7 L805.201 807.552  Z" fill="#f06744" fill-rule="evenodd" fill-opacity="1"/>
<polyline clip-path="url(#clip362)" style="stroke:#000000; stroke-linecap:round; stroke-linejoin:round; stroke-width:4; stroke-opacity:0; fill:none" points="805.201,807.552 428.958,1040.51 430.725,1043.34 432.515,1046.16 434.325,1048.97 436.156,1051.76 438.009,1054.53 439.882,1057.3 441.776,1060.04 443.691,1062.78 445.627,1065.5 447.583,1068.2 449.559,1070.89 451.555,1073.57 453.572,1076.23 455.608,1078.87 457.665,1081.5 459.741,1084.11 461.837,1086.71 463.952,1089.29 466.087,1091.86 468.241,1094.41 470.414,1096.94 472.607,1099.46 474.818,1101.96 477.048,1104.44 479.297,1106.91 481.564,1109.36 483.85,1111.79 486.154,1114.21 488.476,1116.61 490.816,1118.99 493.174,1121.35 495.55,1123.69 497.943,1126.02 500.354,1128.33 502.782,1130.62 505.228,1132.89 507.69,1135.14 510.17,1137.38 512.666,1139.6 515.179,1141.79 517.708,1143.97 520.254,1146.13 522.816,1148.27 525.394,1150.39 527.988,1152.49 530.597,1154.57 533.223,1156.63 535.863,1158.67 538.519,1160.7 805.201,807.552 "/>
<path clip-path="url(#clip362)" d="M805.201 807.552 L538.519 1160.7 L541.191 1162.7 L543.877 1164.68 L546.578 1166.64 L549.294 1168.58 L552.024 1170.5 L554.769 1172.4 L557.528 1174.28 L560.301 1176.14 L563.089 1177.97 L565.889 1179.79 L568.704 1181.58 L571.532 1183.36 L574.373 1185.11 L577.228 1186.84 L580.095 1188.55 L582.975 1190.23 L585.868 1191.9 L588.773 1193.54 L591.691 1195.16 L594.62 1196.76 L597.562 1198.34 L600.516 1199.9 L603.481 1201.43 L606.458 1202.94 L609.446 1204.43 L612.445 1205.89 L615.455 1207.33 L618.476 1208.75 L621.507 1210.15 L624.549 1211.53 L627.601 1212.88 L630.664 1214.2 L633.736 1215.51 L636.818 1216.79 L639.909 1218.05 L643.01 1219.28 L646.121 1220.5 L649.24 1221.68 L652.368 1222.85 L655.505 1223.99 L658.65 1225.11 L661.804 1226.2 L664.966 1227.27 L668.136 1228.32 L671.313 1229.34 L674.498 1230.34 L677.691 1231.31 L680.891 1232.26 L684.098 1233.19 L805.201 807.552  Z" fill="#b2e0a2" fill-rule="evenodd" fill-opacity="1"/>
<polyline clip-path="url(#clip362)" style="stroke:#000000; stroke-linecap:round; stroke-linejoin:round; stroke-width:4; stroke-opacity:0; fill:none" points="805.201,807.552 538.519,1160.7 541.191,1162.7 543.877,1164.68 546.578,1166.64 549.294,1168.58 552.024,1170.5 554.769,1172.4 557.528,1174.28 560.301,1176.14 563.089,1177.97 565.889,1179.79 568.704,1181.58 571.532,1183.36 574.373,1185.11 577.228,1186.84 580.095,1188.55 582.975,1190.23 585.868,1191.9 588.773,1193.54 591.691,1195.16 594.62,1196.76 597.562,1198.34 600.516,1199.9 603.481,1201.43 606.458,1202.94 609.446,1204.43 612.445,1205.89 615.455,1207.33 618.476,1208.75 621.507,1210.15 624.549,1211.53 627.601,1212.88 630.664,1214.2 633.736,1215.51 636.818,1216.79 639.909,1218.05 643.01,1219.28 646.121,1220.5 649.24,1221.68 652.368,1222.85 655.505,1223.99 658.65,1225.11 661.804,1226.2 664.966,1227.27 668.136,1228.32 671.313,1229.34 674.498,1230.34 677.691,1231.31 680.891,1232.26 684.098,1233.19 805.201,807.552 "/>
<path clip-path="url(#clip362)" d="M805.201 807.552 L684.098 1233.19 L687.312 1234.09 L690.533 1234.96 L693.76 1235.82 L696.993 1236.64 L700.233 1237.45 L703.478 1238.23 L706.73 1238.98 L709.987 1239.71 L713.249 1240.42 L716.517 1241.1 L719.789 1241.76 L723.067 1242.39 L726.349 1243 L729.636 1243.58 L732.927 1244.14 L736.222 1244.67 L739.521 1245.18 L742.824 1245.66 L746.13 1246.12 L749.44 1246.55 L752.753 1246.96 L756.069 1247.34 L759.387 1247.7 L762.708 1248.03 L766.032 1248.34 L769.358 1248.62 L772.686 1248.88 L776.016 1249.11 L779.347 1249.32 L782.68 1249.51 L786.014 1249.66 L789.349 1249.79 L792.686 1249.9 L796.023 1249.98 L799.36 1250.04 L802.698 1250.07 L806.036 1250.08 L809.373 1250.06 L812.711 1250.01 L816.048 1249.95 L819.385 1249.85 L822.721 1249.73 L826.055 1249.59 L829.389 1249.42 L832.721 1249.22 L836.052 1249 L839.381 1248.76 L842.708 1248.49 L846.032 1248.19 L805.201 807.552  Z" fill="#88cfa4" fill-rule="evenodd" fill-opacity="1"/>
<polyline clip-path="url(#clip362)" style="stroke:#000000; stroke-linecap:round; stroke-linejoin:round; stroke-width:4; stroke-opacity:0; fill:none" points="805.201,807.552 684.098,1233.19 687.312,1234.09 690.533,1234.96 693.76,1235.82 696.993,1236.64 700.233,1237.45 703.478,1238.23 706.73,1238.98 709.987,1239.71 713.249,1240.42 716.517,1241.1 719.789,1241.76 723.067,1242.39 726.349,1243 729.636,1243.58 732.927,1244.14 736.222,1244.67 739.521,1245.18 742.824,1245.66 746.13,1246.12 749.44,1246.55 752.753,1246.96 756.069,1247.34 759.387,1247.7 762.708,1248.03 766.032,1248.34 769.358,1248.62 772.686,1248.88 776.016,1249.11 779.347,1249.32 782.68,1249.51 786.014,1249.66 789.349,1249.79 792.686,1249.9 796.023,1249.98 799.36,1250.04 802.698,1250.07 806.036,1250.08 809.373,1250.06 812.711,1250.01 816.048,1249.95 819.385,1249.85 822.721,1249.73 826.055,1249.59 829.389,1249.42 832.721,1249.22 836.052,1249 839.381,1248.76 842.708,1248.49 846.032,1248.19 805.201,807.552 "/>
<path clip-path="url(#clip362)" d="M805.201 807.552 L846.032 1248.19 L849.355 1247.87 L852.675 1247.52 L855.992 1247.15 L859.306 1246.76 L862.618 1246.34 L865.926 1245.89 L869.23 1245.42 L872.531 1244.93 L875.828 1244.41 L879.121 1243.86 L882.41 1243.29 L885.695 1242.7 L888.975 1242.08 L892.25 1241.43 L895.52 1240.76 L898.785 1240.07 L902.045 1239.35 L905.299 1238.61 L908.547 1237.84 L911.79 1237.05 L915.027 1236.23 L918.257 1235.39 L921.481 1234.53 L924.698 1233.64 L927.909 1232.73 L931.112 1231.79 L934.308 1230.83 L937.497 1229.84 L940.679 1228.83 L943.853 1227.8 L947.019 1226.74 L950.176 1225.66 L953.326 1224.55 L956.467 1223.42 L959.6 1222.27 L962.723 1221.09 L965.838 1219.89 L968.944 1218.67 L972.04 1217.42 L975.127 1216.15 L978.204 1214.86 L981.271 1213.54 L984.329 1212.2 L987.376 1210.84 L990.412 1209.46 L993.439 1208.05 L996.454 1206.62 L999.459 1205.16 L1002.45 1203.69 L805.201 807.552  Z" fill="#5fbaa7" fill-rule="evenodd" fill-opacity="1"/>
<polyline clip-path="url(#clip362)" style="stroke:#000000; stroke-linecap:round; stroke-linejoin:round; stroke-width:4; stroke-opacity:0; fill:none" points="805.201,807.552 846.032,1248.19 849.355,1247.87 852.675,1247.52 855.992,1247.15 859.306,1246.76 862.618,1246.34 865.926,1245.89 869.23,1245.42 872.531,1244.93 875.828,1244.41 879.121,1243.86 882.41,1243.29 885.695,1242.7 888.975,1242.08 892.25,1241.43 895.52,1240.76 898.785,1240.07 902.045,1239.35 905.299,1238.61 908.547,1237.84 911.79,1237.05 915.027,1236.23 918.257,1235.39 921.481,1234.53 924.698,1233.64 927.909,1232.73 931.112,1231.79 934.308,1230.83 937.497,1229.84 940.679,1228.83 943.853,1227.8 947.019,1226.74 950.176,1225.66 953.326,1224.55 956.467,1223.42 959.6,1222.27 962.723,1221.09 965.838,1219.89 968.944,1218.67 972.04,1217.42 975.127,1216.15 978.204,1214.86 981.271,1213.54 984.329,1212.2 987.376,1210.84 990.412,1209.46 993.439,1208.05 996.454,1206.62 999.459,1205.16 1002.45,1203.69 805.201,807.552 "/>
<path clip-path="url(#clip362)" d="M805.201 807.552 L1002.45 1203.69 L1005.43 1202.19 L1008.41 1200.66 L1011.36 1199.12 L1014.31 1197.55 L1017.25 1195.97 L1020.17 1194.36 L1023.08 1192.72 L1025.98 1191.07 L1028.87 1189.39 L1031.74 1187.69 L1034.6 1185.98 L1037.45 1184.23 L1040.29 1182.47 L1043.11 1180.69 L1045.91 1178.88 L1048.71 1177.06 L1051.49 1175.21 L1054.26 1173.34 L1057.01 1171.45 L1059.74 1169.54 L1062.47 1167.61 L1065.18 1165.66 L1067.87 1163.69 L1070.55 1161.7 L1073.21 1159.69 L1075.86 1157.66 L1078.49 1155.6 L1081.11 1153.53 L1083.71 1151.44 L1086.3 1149.33 L1088.87 1147.2 L1091.42 1145.05 L1093.96 1142.88 L1096.48 1140.7 L1098.99 1138.49 L1101.47 1136.26 L1103.95 1134.02 L1106.4 1131.76 L1108.84 1129.48 L1111.26 1127.18 L1113.66 1124.86 L1116.04 1122.52 L1118.41 1120.17 L1120.76 1117.8 L1123.09 1115.41 L1125.4 1113 L1127.7 1110.58 L1129.97 1108.14 L1132.23 1105.68 L805.201 807.552  Z" fill="#3e96b6" fill-rule="evenodd" fill-opacity="1"/>
<polyline clip-path="url(#clip362)" style="stroke:#000000; stroke-linecap:round; stroke-linejoin:round; stroke-width:4; stroke-opacity:0; fill:none" points="805.201,807.552 1002.45,1203.69 1005.43,1202.19 1008.41,1200.66 1011.36,1199.12 1014.31,1197.55 1017.25,1195.97 1020.17,1194.36 1023.08,1192.72 1025.98,1191.07 1028.87,1189.39 1031.74,1187.69 1034.6,1185.98 1037.45,1184.23 1040.29,1182.47 1043.11,1180.69 1045.91,1178.88 1048.71,1177.06 1051.49,1175.21 1054.26,1173.34 1057.01,1171.45 1059.74,1169.54 1062.47,1167.61 1065.18,1165.66 1067.87,1163.69 1070.55,1161.7 1073.21,1159.69 1075.86,1157.66 1078.49,1155.6 1081.11,1153.53 1083.71,1151.44 1086.3,1149.33 1088.87,1147.2 1091.42,1145.05 1093.96,1142.88 1096.48,1140.7 1098.99,1138.49 1101.47,1136.26 1103.95,1134.02 1106.4,1131.76 1108.84,1129.48 1111.26,1127.18 1113.66,1124.86 1116.04,1122.52 1118.41,1120.17 1120.76,1117.8 1123.09,1115.41 1125.4,1113 1127.7,1110.58 1129.97,1108.14 1132.23,1105.68 805.201,807.552 "/>
<path clip-path="url(#clip362)" d="M805.201 807.552 L1132.23 1105.68 L1134.47 1103.2 L1136.69 1100.71 L1138.89 1098.2 L1141.08 1095.68 L1143.24 1093.14 L1145.39 1090.58 L1147.51 1088.01 L1149.62 1085.42 L1151.7 1082.81 L1153.77 1080.19 L1155.81 1077.55 L1157.84 1074.9 L1159.85 1072.23 L1161.83 1069.55 L1163.8 1066.85 L1165.75 1064.14 L1167.67 1061.41 L1169.58 1058.67 L1171.46 1055.92 L1173.32 1053.15 L1175.16 1050.36 L1176.99 1047.57 L1178.78 1044.75 L1180.56 1041.93 L1182.32 1039.09 L1184.06 1036.24 L1185.77 1033.38 L1187.46 1030.5 L1189.13 1027.61 L1190.78 1024.71 L1192.41 1021.79 L1194.01 1018.87 L1195.6 1015.93 L1197.16 1012.98 L1198.7 1010.01 L1200.21 1007.04 L1201.71 1004.06 L1203.18 1001.06 L1204.63 998.052 L1206.05 995.034 L1207.45 992.005 L1208.83 988.966 L1210.19 985.916 L1211.52 982.856 L1212.83 979.786 L1214.12 976.707 L1215.39 973.618 L1216.63 970.519 L1217.84 967.411 L805.201 807.552  Z" fill="#ffffbe" fill-rule="evenodd" fill-opacity="1"/>
<polyline clip-path="url(#clip362)" style="stroke:#000000; stroke-linecap:round; stroke-linejoin:round; stroke-width:4; stroke-opacity:0; fill:none" points="805.201,807.552 1132.23,1105.68 1134.47,1103.2 1136.69,1100.71 1138.89,1098.2 1141.08,1095.68 1143.24,1093.14 1145.39,1090.58 1147.51,1088.01 1149.62,1085.42 1151.7,1082.81 1153.77,1080.19 1155.81,1077.55 1157.84,1074.9 1159.85,1072.23 1161.83,1069.55 1163.8,1066.85 1165.75,1064.14 1167.67,1061.41 1169.58,1058.67 1171.46,1055.92 1173.32,1053.15 1175.16,1050.36 1176.99,1047.57 1178.78,1044.75 1180.56,1041.93 1182.32,1039.09 1184.06,1036.24 1185.77,1033.38 1187.46,1030.5 1189.13,1027.61 1190.78,1024.71 1192.41,1021.79 1194.01,1018.87 1195.6,1015.93 1197.16,1012.98 1198.7,1010.01 1200.21,1007.04 1201.71,1004.06 1203.18,1001.06 1204.63,998.052 1206.05,995.034 1207.45,992.005 1208.83,988.966 1210.19,985.916 1211.52,982.856 1212.83,979.786 1214.12,976.707 1215.39,973.618 1216.63,970.519 1217.84,967.411 805.201,807.552 "/>
<path clip-path="url(#clip362)" d="M805.201 807.552 L1217.84 967.411 L1219.04 964.294 L1220.21 961.168 L1221.36 958.033 L1222.48 954.89 L1223.58 951.738 L1224.65 948.579 L1225.71 945.411 L1226.73 942.235 L1227.74 939.052 L1228.72 935.861 L1229.67 932.663 L1230.61 929.458 L1231.51 926.245 L1232.4 923.026 L1233.25 919.801 L1234.09 916.569 L1234.9 913.331 L1235.68 910.087 L1236.45 906.837 L1237.18 903.581 L1237.89 900.32 L1238.58 897.054 L1239.24 893.782 L1239.88 890.506 L1240.5 887.225 L1241.08 883.939 L1241.65 880.649 L1242.19 877.355 L1242.7 874.057 L1243.19 870.755 L1243.66 867.45 L1244.09 864.141 L1244.51 860.829 L1244.9 857.514 L1245.26 854.196 L1245.6 850.875 L1245.92 847.552 L1246.21 844.227 L1246.47 840.899 L1246.71 837.57 L1246.92 834.239 L1247.11 830.906 L1247.27 827.573 L1247.41 824.238 L1247.53 820.902 L1247.61 817.565 L1247.68 814.228 L1247.72 810.89 L1247.73 807.552 L805.201 807.552  Z" fill="#5e4fa1" fill-rule="evenodd" fill-opacity="1"/>
<polyline clip-path="url(#clip362)" style="stroke:#000000; stroke-linecap:round; stroke-linejoin:round; stroke-width:4; stroke-opacity:0; fill:none" points="805.201,807.552 1217.84,967.411 1219.04,964.294 1220.21,961.168 1221.36,958.033 1222.48,954.89 1223.58,951.738 1224.65,948.579 1225.71,945.411 1226.73,942.235 1227.74,939.052 1228.72,935.861 1229.67,932.663 1230.61,929.458 1231.51,926.245 1232.4,923.026 1233.25,919.801 1234.09,916.569 1234.9,913.331 1235.68,910.087 1236.45,906.837 1237.18,903.581 1237.89,900.32 1238.58,897.054 1239.24,893.782 1239.88,890.506 1240.5,887.225 1241.08,883.939 1241.65,880.649 1242.19,877.355 1242.7,874.057 1243.19,870.755 1243.66,867.45 1244.09,864.141 1244.51,860.829 1244.9,857.514 1245.26,854.196 1245.6,850.875 1245.92,847.552 1246.21,844.227 1246.47,840.899 1246.71,837.57 1246.92,834.239 1247.11,830.906 1247.27,827.573 1247.41,824.238 1247.53,820.902 1247.61,817.565 1247.68,814.228 1247.72,810.89 1247.73,807.552 805.201,807.552 "/>
<path clip-path="url(#clip360)" d="M1479.23 1292.99 L1952.76 1292.99 L1952.76 359.871 L1479.23 359.871  Z" fill="#ffffff" fill-rule="evenodd" fill-opacity="1"/>
<polyline clip-path="url(#clip360)" style="stroke:#000000; stroke-linecap:round; stroke-linejoin:round; stroke-width:4; stroke-opacity:1; fill:none" points="1479.23,1292.99 1952.76,1292.99 1952.76,359.871 1479.23,359.871 1479.23,1292.99 "/>
<path clip-path="url(#clip360)" d="M1498.82 432.447 L1616.34 432.447 L1616.34 390.975 L1498.82 390.975 L1498.82 432.447  Z" fill="#9e0142" fill-rule="evenodd" fill-opacity="1"/>
<polyline clip-path="url(#clip360)" style="stroke:#000000; stroke-linecap:round; stroke-linejoin:round; stroke-width:4; stroke-opacity:1; fill:none" points="1498.82,432.447 1616.34,432.447 1616.34,390.975 1498.82,390.975 1498.82,432.447 "/>
<path clip-path="url(#clip360)" d="M1663.8 397.093 L1663.8 402.023 Q1661.43 399.824 1658.75 398.736 Q1656.09 397.649 1653.08 397.649 Q1647.15 397.649 1644 401.283 Q1640.86 404.894 1640.86 411.746 Q1640.86 418.574 1644 422.209 Q1647.15 425.82 1653.08 425.82 Q1656.09 425.82 1658.75 424.732 Q1661.43 423.644 1663.8 421.445 L1663.8 426.329 Q1661.34 427.996 1658.59 428.829 Q1655.86 429.662 1652.8 429.662 Q1644.95 429.662 1640.44 424.871 Q1635.93 420.056 1635.93 411.746 Q1635.93 403.412 1640.44 398.621 Q1644.95 393.806 1652.8 393.806 Q1655.9 393.806 1658.63 394.639 Q1661.39 395.449 1663.8 397.093 Z" fill="#000000" fill-rule="nonzero" fill-opacity="1" /><path clip-path="url(#clip360)" d="M1671.02 394.431 L1675.69 394.431 L1675.69 408.598 L1692.68 408.598 L1692.68 394.431 L1697.36 394.431 L1697.36 428.991 L1692.68 428.991 L1692.68 412.533 L1675.69 412.533 L1675.69 428.991 L1671.02 428.991 L1671.02 394.431 Z" fill="#000000" fill-rule="nonzero" fill-opacity="1" /><path clip-path="url(#clip360)" d="M1721.25 410.357 Q1724.61 411.074 1726.48 413.343 Q1728.38 415.611 1728.38 418.945 Q1728.38 424.06 1724.86 426.861 Q1721.34 429.662 1714.86 429.662 Q1712.68 429.662 1710.37 429.222 Q1708.08 428.806 1705.62 427.949 L1705.62 423.435 Q1707.57 424.57 1709.88 425.148 Q1712.2 425.727 1714.72 425.727 Q1719.12 425.727 1721.41 423.991 Q1723.73 422.255 1723.73 418.945 Q1723.73 415.889 1721.57 414.176 Q1719.44 412.44 1715.62 412.44 L1711.6 412.44 L1711.6 408.598 L1715.81 408.598 Q1719.26 408.598 1721.09 407.232 Q1722.92 405.843 1722.92 403.25 Q1722.92 400.588 1721.02 399.176 Q1719.14 397.741 1715.62 397.741 Q1713.7 397.741 1711.5 398.158 Q1709.3 398.574 1706.67 399.454 L1706.67 395.287 Q1709.33 394.547 1711.64 394.176 Q1713.98 393.806 1716.04 393.806 Q1721.36 393.806 1724.47 396.236 Q1727.57 398.644 1727.57 402.764 Q1727.57 405.635 1725.92 407.625 Q1724.28 409.593 1721.25 410.357 Z" fill="#000000" fill-rule="nonzero" fill-opacity="1" /><path clip-path="url(#clip360)" d="M1750.86 397.602 Q1745.76 397.602 1742.75 401.398 Q1739.77 405.195 1739.77 411.746 Q1739.77 418.273 1742.75 422.07 Q1745.76 425.866 1750.86 425.866 Q1755.95 425.866 1758.91 422.07 Q1761.9 418.273 1761.9 411.746 Q1761.9 405.195 1758.91 401.398 Q1755.95 397.602 1750.86 397.602 M1750.86 393.806 Q1758.12 393.806 1762.48 398.69 Q1766.83 403.551 1766.83 411.746 Q1766.83 419.917 1762.48 424.801 Q1758.12 429.662 1750.86 429.662 Q1743.56 429.662 1739.19 424.801 Q1734.84 419.94 1734.84 411.746 Q1734.84 403.551 1739.19 398.69 Q1743.56 393.806 1750.86 393.806 Z" fill="#000000" fill-rule="nonzero" fill-opacity="1" /><path clip-path="url(#clip360)" d="M1788.17 397.602 Q1783.08 397.602 1780.07 401.398 Q1777.08 405.195 1777.08 411.746 Q1777.08 418.273 1780.07 422.07 Q1783.08 425.866 1788.17 425.866 Q1793.26 425.866 1796.23 422.07 Q1799.21 418.273 1799.21 411.746 Q1799.21 405.195 1796.23 401.398 Q1793.26 397.602 1788.17 397.602 M1788.17 393.806 Q1795.44 393.806 1799.79 398.69 Q1804.14 403.551 1804.14 411.746 Q1804.14 419.917 1799.79 424.801 Q1795.44 429.662 1788.17 429.662 Q1780.88 429.662 1776.5 424.801 Q1772.15 419.94 1772.15 411.746 Q1772.15 403.551 1776.5 398.69 Q1780.88 393.806 1788.17 393.806 Z" fill="#000000" fill-rule="nonzero" fill-opacity="1" /><path clip-path="url(#clip360)" d="M1811.46 394.431 L1816.13 394.431 L1816.13 408.598 L1833.12 408.598 L1833.12 394.431 L1837.8 394.431 L1837.8 428.991 L1833.12 428.991 L1833.12 412.533 L1816.13 412.533 L1816.13 428.991 L1811.46 428.991 L1811.46 394.431 Z" fill="#000000" fill-rule="nonzero" fill-opacity="1" /><path clip-path="url(#clip360)" d="M1498.82 484.287 L1616.34 484.287 L1616.34 442.815 L1498.82 442.815 L1498.82 484.287  Z" fill="#c0274a" fill-rule="evenodd" fill-opacity="1"/>
<polyline clip-path="url(#clip360)" style="stroke:#000000; stroke-linecap:round; stroke-linejoin:round; stroke-width:4; stroke-opacity:1; fill:none" points="1498.82,484.287 1616.34,484.287 1616.34,442.815 1498.82,442.815 1498.82,484.287 "/>
<path clip-path="url(#clip360)" d="M1635.93 446.271 L1642.22 446.271 L1657.55 475.183 L1657.55 446.271 L1662.08 446.271 L1662.08 480.831 L1655.79 480.831 L1640.46 451.919 L1640.46 480.831 L1635.93 480.831 L1635.93 446.271 Z" fill="#000000" fill-rule="nonzero" fill-opacity="1" /><path clip-path="url(#clip360)" d="M1676.06 450.113 L1676.06 463.1 L1681.94 463.1 Q1685.21 463.1 1686.99 461.41 Q1688.77 459.72 1688.77 456.595 Q1688.77 453.493 1686.99 451.803 Q1685.21 450.113 1681.94 450.113 L1676.06 450.113 M1671.39 446.271 L1681.94 446.271 Q1687.75 446.271 1690.72 448.91 Q1693.7 451.526 1693.7 456.595 Q1693.7 461.711 1690.72 464.326 Q1687.75 466.942 1681.94 466.942 L1676.06 466.942 L1676.06 480.831 L1671.39 480.831 L1671.39 446.271 Z" fill="#000000" fill-rule="nonzero" fill-opacity="1" /><path clip-path="url(#clip360)" d="M1699.98 446.271 L1721.83 446.271 L1721.83 450.206 L1704.65 450.206 L1704.65 460.438 L1721.11 460.438 L1721.11 464.373 L1704.65 464.373 L1704.65 476.896 L1722.24 476.896 L1722.24 480.831 L1699.98 480.831 L1699.98 446.271 Z" fill="#000000" fill-rule="nonzero" fill-opacity="1" /><path clip-path="url(#clip360)" d="M1734.61 464.326 L1734.61 476.988 L1742.11 476.988 Q1745.88 476.988 1747.68 475.437 Q1749.51 473.863 1749.51 470.646 Q1749.51 467.405 1747.68 465.877 Q1745.88 464.326 1742.11 464.326 L1734.61 464.326 M1734.61 450.113 L1734.61 460.53 L1741.53 460.53 Q1744.95 460.53 1746.62 459.257 Q1748.31 457.961 1748.31 455.322 Q1748.31 452.706 1746.62 451.41 Q1744.95 450.113 1741.53 450.113 L1734.61 450.113 M1729.93 446.271 L1741.87 446.271 Q1747.22 446.271 1750.11 448.493 Q1753.01 450.715 1753.01 454.813 Q1753.01 457.984 1751.53 459.859 Q1750.04 461.734 1747.17 462.197 Q1750.62 462.938 1752.52 465.299 Q1754.44 467.637 1754.44 471.155 Q1754.44 475.785 1751.29 478.308 Q1748.15 480.831 1742.34 480.831 L1729.93 480.831 L1729.93 446.271 Z" fill="#000000" fill-rule="nonzero" fill-opacity="1" /><path clip-path="url(#clip360)" d="M1776.48 449.442 Q1771.39 449.442 1768.38 453.238 Q1765.39 457.035 1765.39 463.586 Q1765.39 470.113 1768.38 473.91 Q1771.39 477.706 1776.48 477.706 Q1781.57 477.706 1784.54 473.91 Q1787.52 470.113 1787.52 463.586 Q1787.52 457.035 1784.54 453.238 Q1781.57 449.442 1776.48 449.442 M1783.03 480.206 L1789.19 486.942 L1783.54 486.942 L1778.42 481.41 Q1777.66 481.456 1777.24 481.479 Q1776.85 481.502 1776.48 481.502 Q1769.19 481.502 1764.81 476.641 Q1760.46 471.757 1760.46 463.586 Q1760.46 455.391 1764.81 450.53 Q1769.19 445.646 1776.48 445.646 Q1783.75 445.646 1788.1 450.53 Q1792.45 455.391 1792.45 463.586 Q1792.45 469.604 1790.02 473.887 Q1787.61 478.169 1783.03 480.206 Z" fill="#000000" fill-rule="nonzero" fill-opacity="1" /><path clip-path="url(#clip360)" d="M1813.79 449.442 Q1808.7 449.442 1805.69 453.238 Q1802.71 457.035 1802.71 463.586 Q1802.71 470.113 1805.69 473.91 Q1808.7 477.706 1813.79 477.706 Q1818.89 477.706 1821.85 473.91 Q1824.84 470.113 1824.84 463.586 Q1824.84 457.035 1821.85 453.238 Q1818.89 449.442 1813.79 449.442 M1813.79 445.646 Q1821.06 445.646 1825.41 450.53 Q1829.77 455.391 1829.77 463.586 Q1829.77 471.757 1825.41 476.641 Q1821.06 481.502 1813.79 481.502 Q1806.5 481.502 1802.13 476.641 Q1797.78 471.78 1797.78 463.586 Q1797.78 455.391 1802.13 450.53 Q1806.5 445.646 1813.79 445.646 Z" fill="#000000" fill-rule="nonzero" fill-opacity="1" /><path clip-path="url(#clip360)" d="M1498.82 536.127 L1616.34 536.127 L1616.34 494.655 L1498.82 494.655 L1498.82 536.127  Z" fill="#dc494c" fill-rule="evenodd" fill-opacity="1"/>
<polyline clip-path="url(#clip360)" style="stroke:#000000; stroke-linecap:round; stroke-linejoin:round; stroke-width:4; stroke-opacity:1; fill:none" points="1498.82,536.127 1616.34,536.127 1616.34,494.655 1498.82,494.655 1498.82,536.127 "/>
<path clip-path="url(#clip360)" d="M1640.6 516.166 L1640.6 528.828 L1648.1 528.828 Q1651.87 528.828 1653.68 527.277 Q1655.51 525.703 1655.51 522.486 Q1655.51 519.245 1653.68 517.717 Q1651.87 516.166 1648.1 516.166 L1640.6 516.166 M1640.6 501.953 L1640.6 512.37 L1647.52 512.37 Q1650.95 512.37 1652.61 511.097 Q1654.3 509.801 1654.3 507.162 Q1654.3 504.546 1652.61 503.25 Q1650.95 501.953 1647.52 501.953 L1640.6 501.953 M1635.93 498.111 L1647.87 498.111 Q1653.22 498.111 1656.11 500.333 Q1659 502.555 1659 506.653 Q1659 509.824 1657.52 511.699 Q1656.04 513.574 1653.17 514.037 Q1656.62 514.778 1658.52 517.139 Q1660.44 519.477 1660.44 522.995 Q1660.44 527.625 1657.29 530.148 Q1654.14 532.671 1648.33 532.671 L1635.93 532.671 L1635.93 498.111 Z" fill="#000000" fill-rule="nonzero" fill-opacity="1" /><path clip-path="url(#clip360)" d="M1693.49 500.773 L1693.49 505.703 Q1691.13 503.504 1688.45 502.416 Q1685.79 501.329 1682.78 501.329 Q1676.85 501.329 1673.7 504.963 Q1670.55 508.574 1670.55 515.426 Q1670.55 522.254 1673.7 525.889 Q1676.85 529.5 1682.78 529.5 Q1685.79 529.5 1688.45 528.412 Q1691.13 527.324 1693.49 525.125 L1693.49 530.009 Q1691.04 531.676 1688.29 532.509 Q1685.55 533.342 1682.5 533.342 Q1674.65 533.342 1670.14 528.551 Q1665.62 523.736 1665.62 515.426 Q1665.62 507.092 1670.14 502.301 Q1674.65 497.486 1682.5 497.486 Q1685.6 497.486 1688.33 498.319 Q1691.09 499.129 1693.49 500.773 Z" fill="#000000" fill-rule="nonzero" fill-opacity="1" /><path clip-path="url(#clip360)" d="M1712.27 502.717 L1705.92 519.916 L1718.63 519.916 L1712.27 502.717 M1709.63 498.111 L1714.93 498.111 L1728.1 532.671 L1723.24 532.671 L1720.09 523.805 L1704.51 523.805 L1701.36 532.671 L1696.43 532.671 L1709.63 498.111 Z" fill="#000000" fill-rule="nonzero" fill-opacity="1" /><path clip-path="url(#clip360)" d="M1733.15 498.111 L1737.82 498.111 L1737.82 528.736 L1754.65 528.736 L1754.65 532.671 L1733.15 532.671 L1733.15 498.111 Z" fill="#000000" fill-rule="nonzero" fill-opacity="1" /><path clip-path="url(#clip360)" d="M1785.44 500.773 L1785.44 505.703 Q1783.08 503.504 1780.39 502.416 Q1777.73 501.329 1774.72 501.329 Q1768.79 501.329 1765.65 504.963 Q1762.5 508.574 1762.5 515.426 Q1762.5 522.254 1765.65 525.889 Q1768.79 529.5 1774.72 529.5 Q1777.73 529.5 1780.39 528.412 Q1783.08 527.324 1785.44 525.125 L1785.44 530.009 Q1782.98 531.676 1780.23 532.509 Q1777.5 533.342 1774.44 533.342 Q1766.6 533.342 1762.08 528.551 Q1757.57 523.736 1757.57 515.426 Q1757.57 507.092 1762.08 502.301 Q1766.6 497.486 1774.44 497.486 Q1777.54 497.486 1780.28 498.319 Q1783.03 499.129 1785.44 500.773 Z" fill="#000000" fill-rule="nonzero" fill-opacity="1" /><path clip-path="url(#clip360)" d="M1806.69 501.282 Q1801.6 501.282 1798.59 505.078 Q1795.6 508.875 1795.6 515.426 Q1795.6 521.953 1798.59 525.75 Q1801.6 529.546 1806.69 529.546 Q1811.78 529.546 1814.74 525.75 Q1817.73 521.953 1817.73 515.426 Q1817.73 508.875 1814.74 505.078 Q1811.78 501.282 1806.69 501.282 M1806.69 497.486 Q1813.96 497.486 1818.31 502.37 Q1822.66 507.231 1822.66 515.426 Q1822.66 523.597 1818.31 528.481 Q1813.96 533.342 1806.69 533.342 Q1799.4 533.342 1795.02 528.481 Q1790.67 523.62 1790.67 515.426 Q1790.67 507.231 1795.02 502.37 Q1799.4 497.486 1806.69 497.486 Z" fill="#000000" fill-rule="nonzero" fill-opacity="1" /><path clip-path="url(#clip360)" d="M1498.82 587.967 L1616.34 587.967 L1616.34 546.495 L1498.82 546.495 L1498.82 587.967  Z" fill="#d7ef9a" fill-rule="evenodd" fill-opacity="1"/>
<polyline clip-path="url(#clip360)" style="stroke:#000000; stroke-linecap:round; stroke-linejoin:round; stroke-width:4; stroke-opacity:1; fill:none" points="1498.82,587.967 1616.34,587.967 1616.34,546.495 1498.82,546.495 1498.82,587.967 "/>
<path clip-path="url(#clip360)" d="M1635.93 549.951 L1642.22 549.951 L1657.55 578.863 L1657.55 549.951 L1662.08 549.951 L1662.08 584.511 L1655.79 584.511 L1640.46 555.599 L1640.46 584.511 L1635.93 584.511 L1635.93 549.951 Z" fill="#000000" fill-rule="nonzero" fill-opacity="1" /><path clip-path="url(#clip360)" d="M1685.42 553.122 Q1680.32 553.122 1677.31 556.918 Q1674.33 560.715 1674.33 567.266 Q1674.33 573.793 1677.31 577.59 Q1680.32 581.386 1685.42 581.386 Q1690.51 581.386 1693.47 577.59 Q1696.46 573.793 1696.46 567.266 Q1696.46 560.715 1693.47 556.918 Q1690.51 553.122 1685.42 553.122 M1685.42 549.326 Q1692.68 549.326 1697.04 554.21 Q1701.39 559.071 1701.39 567.266 Q1701.39 575.437 1697.04 580.321 Q1692.68 585.182 1685.42 585.182 Q1678.12 585.182 1673.75 580.321 Q1669.4 575.46 1669.4 567.266 Q1669.4 559.071 1673.75 554.21 Q1678.12 549.326 1685.42 549.326 Z" fill="#000000" fill-rule="nonzero" fill-opacity="1" /><path clip-path="url(#clip360)" d="M1498.82 639.807 L1616.34 639.807 L1616.34 598.335 L1498.82 598.335 L1498.82 639.807  Z" fill="#f88d51" fill-rule="evenodd" fill-opacity="1"/>
<polyline clip-path="url(#clip360)" style="stroke:#000000; stroke-linecap:round; stroke-linejoin:round; stroke-width:4; stroke-opacity:1; fill:none" points="1498.82,639.807 1616.34,639.807 1616.34,598.335 1498.82,598.335 1498.82,639.807 "/>
<path clip-path="url(#clip360)" d="M1640.6 605.633 L1640.6 618.62 L1646.48 618.62 Q1649.74 618.62 1651.53 616.93 Q1653.31 615.24 1653.31 612.115 Q1653.31 609.013 1651.53 607.323 Q1649.74 605.633 1646.48 605.633 L1640.6 605.633 M1635.93 601.791 L1646.48 601.791 Q1652.29 601.791 1655.25 604.43 Q1658.24 607.046 1658.24 612.115 Q1658.24 617.231 1655.25 619.846 Q1652.29 622.462 1646.48 622.462 L1640.6 622.462 L1640.6 636.351 L1635.93 636.351 L1635.93 601.791 Z" fill="#000000" fill-rule="nonzero" fill-opacity="1" /><path clip-path="url(#clip360)" d="M1662.85 601.791 L1667.87 601.791 L1676.46 614.638 L1685.09 601.791 L1690.11 601.791 L1679 618.388 L1690.86 636.351 L1685.83 636.351 L1676.11 621.652 L1666.32 636.351 L1661.27 636.351 L1673.61 617.902 L1662.85 601.791 Z" fill="#000000" fill-rule="nonzero" fill-opacity="1" /><path clip-path="url(#clip360)" d="M1692.24 601.791 L1697.27 601.791 L1706.85 616.004 L1716.36 601.791 L1721.39 601.791 L1709.17 619.893 L1709.17 636.351 L1704.47 636.351 L1704.47 619.893 L1692.24 601.791 Z" fill="#000000" fill-rule="nonzero" fill-opacity="1" /><path clip-path="url(#clip360)" d="M1725.95 601.791 L1732.92 601.791 L1741.73 625.309 L1750.6 601.791 L1757.57 601.791 L1757.57 636.351 L1753.01 636.351 L1753.01 606.004 L1744.1 629.707 L1739.4 629.707 L1730.48 606.004 L1730.48 636.351 L1725.95 636.351 L1725.95 601.791 Z" fill="#000000" fill-rule="nonzero" fill-opacity="1" /><path clip-path="url(#clip360)" d="M1766.32 601.791 L1771.02 601.791 L1771.02 622.786 Q1771.02 628.342 1773.03 630.795 Q1775.04 633.226 1779.56 633.226 Q1784.05 633.226 1786.06 630.795 Q1788.08 628.342 1788.08 622.786 L1788.08 601.791 L1792.78 601.791 L1792.78 623.365 Q1792.78 630.124 1789.42 633.573 Q1786.09 637.022 1779.56 637.022 Q1773.01 637.022 1769.65 633.573 Q1766.32 630.124 1766.32 623.365 L1766.32 601.791 Z" fill="#000000" fill-rule="nonzero" fill-opacity="1" /><path clip-path="url(#clip360)" d="M1827.43 604.453 L1827.43 609.383 Q1825.07 607.184 1822.38 606.096 Q1819.72 605.009 1816.71 605.009 Q1810.79 605.009 1807.64 608.643 Q1804.49 612.254 1804.49 619.106 Q1804.49 625.934 1807.64 629.569 Q1810.79 633.18 1816.71 633.18 Q1819.72 633.18 1822.38 632.092 Q1825.07 631.004 1827.43 628.805 L1827.43 633.689 Q1824.98 635.356 1822.22 636.189 Q1819.49 637.022 1816.43 637.022 Q1808.59 637.022 1804.07 632.231 Q1799.56 627.416 1799.56 619.106 Q1799.56 610.772 1804.07 605.981 Q1808.59 601.166 1816.43 601.166 Q1819.54 601.166 1822.27 601.999 Q1825.02 602.809 1827.43 604.453 Z" fill="#000000" fill-rule="nonzero" fill-opacity="1" /><path clip-path="url(#clip360)" d="M1860.53 604.453 L1860.53 609.383 Q1858.17 607.184 1855.48 606.096 Q1852.82 605.009 1849.81 605.009 Q1843.89 605.009 1840.74 608.643 Q1837.59 612.254 1837.59 619.106 Q1837.59 625.934 1840.74 629.569 Q1843.89 633.18 1849.81 633.18 Q1852.82 633.18 1855.48 632.092 Q1858.17 631.004 1860.53 628.805 L1860.53 633.689 Q1858.08 635.356 1855.32 636.189 Q1852.59 637.022 1849.54 637.022 Q1841.69 637.022 1837.17 632.231 Q1832.66 627.416 1832.66 619.106 Q1832.66 610.772 1837.17 605.981 Q1841.69 601.166 1849.54 601.166 Q1852.64 601.166 1855.37 601.999 Q1858.12 602.809 1860.53 604.453 Z" fill="#000000" fill-rule="nonzero" fill-opacity="1" /><path clip-path="url(#clip360)" d="M1881.78 604.962 Q1876.69 604.962 1873.68 608.758 Q1870.69 612.555 1870.69 619.106 Q1870.69 625.633 1873.68 629.43 Q1876.69 633.226 1881.78 633.226 Q1886.87 633.226 1889.84 629.43 Q1892.82 625.633 1892.82 619.106 Q1892.82 612.555 1889.84 608.758 Q1886.87 604.962 1881.78 604.962 M1881.78 601.166 Q1889.05 601.166 1893.4 606.05 Q1897.75 610.911 1897.75 619.106 Q1897.75 627.277 1893.4 632.161 Q1889.05 637.022 1881.78 637.022 Q1874.49 637.022 1870.11 632.161 Q1865.76 627.3 1865.76 619.106 Q1865.76 610.911 1870.11 606.05 Q1874.49 601.166 1881.78 601.166 Z" fill="#000000" fill-rule="nonzero" fill-opacity="1" /><path clip-path="url(#clip360)" d="M1498.82 691.647 L1616.34 691.647 L1616.34 650.175 L1498.82 650.175 L1498.82 691.647  Z" fill="#fdb466" fill-rule="evenodd" fill-opacity="1"/>
<polyline clip-path="url(#clip360)" style="stroke:#000000; stroke-linecap:round; stroke-linejoin:round; stroke-width:4; stroke-opacity:1; fill:none" points="1498.82,691.647 1616.34,691.647 1616.34,650.175 1498.82,650.175 1498.82,691.647 "/>
<path clip-path="url(#clip360)" d="M1635.93 653.631 L1640.6 653.631 L1640.6 688.191 L1635.93 688.191 L1635.93 653.631 Z" fill="#000000" fill-rule="nonzero" fill-opacity="1" /><path clip-path="url(#clip360)" d="M1649.91 653.631 L1656.2 653.631 L1671.53 682.543 L1671.53 653.631 L1676.06 653.631 L1676.06 688.191 L1669.77 688.191 L1654.44 659.279 L1654.44 688.191 L1649.91 688.191 L1649.91 653.631 Z" fill="#000000" fill-rule="nonzero" fill-opacity="1" /><path clip-path="url(#clip360)" d="M1690.05 657.473 L1690.05 684.348 L1695.69 684.348 Q1702.85 684.348 1706.16 681.108 Q1709.49 677.867 1709.49 670.876 Q1709.49 663.932 1706.16 660.714 Q1702.85 657.473 1695.69 657.473 L1690.05 657.473 M1685.37 653.631 L1694.98 653.631 Q1705.02 653.631 1709.72 657.821 Q1714.42 661.987 1714.42 670.876 Q1714.42 679.811 1709.7 684.001 Q1704.98 688.191 1694.98 688.191 L1685.37 688.191 L1685.37 653.631 Z" fill="#000000" fill-rule="nonzero" fill-opacity="1" /><path clip-path="url(#clip360)" d="M1735.9 656.802 Q1730.81 656.802 1727.8 660.598 Q1724.81 664.395 1724.81 670.946 Q1724.81 677.473 1727.8 681.27 Q1730.81 685.066 1735.9 685.066 Q1740.99 685.066 1743.96 681.27 Q1746.94 677.473 1746.94 670.946 Q1746.94 664.395 1743.96 660.598 Q1740.99 656.802 1735.9 656.802 M1735.9 653.006 Q1743.17 653.006 1747.52 657.89 Q1751.87 662.751 1751.87 670.946 Q1751.87 679.117 1747.52 684.001 Q1743.17 688.862 1735.9 688.862 Q1728.61 688.862 1724.23 684.001 Q1719.88 679.14 1719.88 670.946 Q1719.88 662.751 1724.23 657.89 Q1728.61 653.006 1735.9 653.006 Z" fill="#000000" fill-rule="nonzero" fill-opacity="1" /><path clip-path="url(#clip360)" d="M1773.22 656.802 Q1768.12 656.802 1765.11 660.598 Q1762.13 664.395 1762.13 670.946 Q1762.13 677.473 1765.11 681.27 Q1768.12 685.066 1773.22 685.066 Q1778.31 685.066 1781.27 681.27 Q1784.26 677.473 1784.26 670.946 Q1784.26 664.395 1781.27 660.598 Q1778.31 656.802 1773.22 656.802 M1773.22 653.006 Q1780.48 653.006 1784.84 657.89 Q1789.19 662.751 1789.19 670.946 Q1789.19 679.117 1784.84 684.001 Q1780.48 688.862 1773.22 688.862 Q1765.92 688.862 1761.55 684.001 Q1757.2 679.14 1757.2 670.946 Q1757.2 662.751 1761.55 657.89 Q1765.92 653.006 1773.22 653.006 Z" fill="#000000" fill-rule="nonzero" fill-opacity="1" /><path clip-path="url(#clip360)" d="M1796.5 653.631 L1801.18 653.631 L1801.18 667.798 L1818.17 667.798 L1818.17 653.631 L1822.85 653.631 L1822.85 688.191 L1818.17 688.191 L1818.17 671.733 L1801.18 671.733 L1801.18 688.191 L1796.5 688.191 L1796.5 653.631 Z" fill="#000000" fill-rule="nonzero" fill-opacity="1" /><path clip-path="url(#clip360)" d="M1498.82 743.487 L1616.34 743.487 L1616.34 702.015 L1498.82 702.015 L1498.82 743.487  Z" fill="#fdd380" fill-rule="evenodd" fill-opacity="1"/>
<polyline clip-path="url(#clip360)" style="stroke:#000000; stroke-linecap:round; stroke-linejoin:round; stroke-width:4; stroke-opacity:1; fill:none" points="1498.82,743.487 1616.34,743.487 1616.34,702.015 1498.82,702.015 1498.82,743.487 "/>
<path clip-path="url(#clip360)" d="M1651.94 708.642 Q1646.85 708.642 1643.84 712.438 Q1640.86 716.235 1640.86 722.786 Q1640.86 729.313 1643.84 733.11 Q1646.85 736.906 1651.94 736.906 Q1657.04 736.906 1660 733.11 Q1662.99 729.313 1662.99 722.786 Q1662.99 716.235 1660 712.438 Q1657.04 708.642 1651.94 708.642 M1651.94 704.846 Q1659.21 704.846 1663.56 709.73 Q1667.92 714.591 1667.92 722.786 Q1667.92 730.957 1663.56 735.841 Q1659.21 740.702 1651.94 740.702 Q1644.65 740.702 1640.28 735.841 Q1635.93 730.98 1635.93 722.786 Q1635.93 714.591 1640.28 709.73 Q1644.65 704.846 1651.94 704.846 Z" fill="#000000" fill-rule="nonzero" fill-opacity="1" /><path clip-path="url(#clip360)" d="M1675.23 705.471 L1679.91 705.471 L1679.91 719.638 L1696.9 719.638 L1696.9 705.471 L1701.57 705.471 L1701.57 740.031 L1696.9 740.031 L1696.9 723.573 L1679.91 723.573 L1679.91 740.031 L1675.23 740.031 L1675.23 705.471 Z" fill="#000000" fill-rule="nonzero" fill-opacity="1" /><path clip-path="url(#clip360)" d="M1498.82 795.327 L1616.34 795.327 L1616.34 753.855 L1498.82 753.855 L1498.82 795.327  Z" fill="#feeb9e" fill-rule="evenodd" fill-opacity="1"/>
<polyline clip-path="url(#clip360)" style="stroke:#000000; stroke-linecap:round; stroke-linejoin:round; stroke-width:4; stroke-opacity:1; fill:none" points="1498.82,795.327 1616.34,795.327 1616.34,753.855 1498.82,753.855 1498.82,795.327 "/>
<path clip-path="url(#clip360)" d="M1635.93 757.311 L1640.6 757.311 L1640.6 771.478 L1657.59 771.478 L1657.59 757.311 L1662.27 757.311 L1662.27 791.871 L1657.59 791.871 L1657.59 775.413 L1640.6 775.413 L1640.6 791.871 L1635.93 791.871 L1635.93 757.311 Z" fill="#000000" fill-rule="nonzero" fill-opacity="1" /><path clip-path="url(#clip360)" d="M1685.6 760.482 Q1680.51 760.482 1677.5 764.278 Q1674.51 768.075 1674.51 774.626 Q1674.51 781.153 1677.5 784.95 Q1680.51 788.746 1685.6 788.746 Q1690.69 788.746 1693.66 784.95 Q1696.64 781.153 1696.64 774.626 Q1696.64 768.075 1693.66 764.278 Q1690.69 760.482 1685.6 760.482 M1685.6 756.686 Q1692.87 756.686 1697.22 761.57 Q1701.57 766.431 1701.57 774.626 Q1701.57 782.797 1697.22 787.681 Q1692.87 792.542 1685.6 792.542 Q1678.31 792.542 1673.93 787.681 Q1669.58 782.82 1669.58 774.626 Q1669.58 766.431 1673.93 761.57 Q1678.31 756.686 1685.6 756.686 Z" fill="#000000" fill-rule="nonzero" fill-opacity="1" /><path clip-path="url(#clip360)" d="M1713.33 787.936 L1729.65 787.936 L1729.65 791.871 L1707.71 791.871 L1707.71 787.936 Q1710.37 785.181 1714.95 780.552 Q1719.56 775.899 1720.74 774.556 Q1722.98 772.033 1723.86 770.297 Q1724.77 768.538 1724.77 766.848 Q1724.77 764.093 1722.82 762.357 Q1720.9 760.621 1717.8 760.621 Q1715.6 760.621 1713.15 761.385 Q1710.72 762.149 1707.94 763.7 L1707.94 758.978 Q1710.76 757.843 1713.22 757.265 Q1715.67 756.686 1717.71 756.686 Q1723.08 756.686 1726.27 759.371 Q1729.47 762.056 1729.47 766.547 Q1729.47 768.677 1728.66 770.598 Q1727.87 772.496 1725.76 775.089 Q1725.18 775.76 1722.08 778.977 Q1718.98 782.172 1713.33 787.936 Z" fill="#000000" fill-rule="nonzero" fill-opacity="1" /><path clip-path="url(#clip360)" d="M1498.82 847.167 L1616.34 847.167 L1616.34 805.695 L1498.82 805.695 L1498.82 847.167  Z" fill="#4272b2" fill-rule="evenodd" fill-opacity="1"/>
<polyline clip-path="url(#clip360)" style="stroke:#000000; stroke-linecap:round; stroke-linejoin:round; stroke-width:4; stroke-opacity:1; fill:none" points="1498.82,847.167 1616.34,847.167 1616.34,805.695 1498.82,805.695 1498.82,847.167 "/>
<path clip-path="url(#clip360)" d="M1635.93 809.151 L1642.22 809.151 L1657.55 838.063 L1657.55 809.151 L1662.08 809.151 L1662.08 843.711 L1655.79 843.711 L1640.46 814.799 L1640.46 843.711 L1635.93 843.711 L1635.93 809.151 Z" fill="#000000" fill-rule="nonzero" fill-opacity="1" /><path clip-path="url(#clip360)" d="M1685.42 812.322 Q1680.32 812.322 1677.31 816.118 Q1674.33 819.915 1674.33 826.466 Q1674.33 832.993 1677.31 836.79 Q1680.32 840.586 1685.42 840.586 Q1690.51 840.586 1693.47 836.79 Q1696.46 832.993 1696.46 826.466 Q1696.46 819.915 1693.47 816.118 Q1690.51 812.322 1685.42 812.322 M1685.42 808.526 Q1692.68 808.526 1697.04 813.41 Q1701.39 818.271 1701.39 826.466 Q1701.39 834.637 1697.04 839.521 Q1692.68 844.382 1685.42 844.382 Q1678.12 844.382 1673.75 839.521 Q1669.4 834.66 1669.4 826.466 Q1669.4 818.271 1673.75 813.41 Q1678.12 808.526 1685.42 808.526 Z" fill="#000000" fill-rule="nonzero" fill-opacity="1" /><path clip-path="url(#clip360)" d="M1723.29 825.077 Q1726.64 825.794 1728.52 828.063 Q1730.42 830.331 1730.42 833.665 Q1730.42 838.78 1726.9 841.581 Q1723.38 844.382 1716.9 844.382 Q1714.72 844.382 1712.41 843.942 Q1710.11 843.526 1707.66 842.669 L1707.66 838.155 Q1709.61 839.29 1711.92 839.868 Q1714.24 840.447 1716.76 840.447 Q1721.16 840.447 1723.45 838.711 Q1725.76 836.975 1725.76 833.665 Q1725.76 830.609 1723.61 828.896 Q1721.48 827.16 1717.66 827.16 L1713.63 827.16 L1713.63 823.318 L1717.85 823.318 Q1721.3 823.318 1723.12 821.952 Q1724.95 820.563 1724.95 817.97 Q1724.95 815.308 1723.05 813.896 Q1721.18 812.461 1717.66 812.461 Q1715.74 812.461 1713.54 812.878 Q1711.34 813.294 1708.7 814.174 L1708.7 810.007 Q1711.36 809.267 1713.68 808.896 Q1716.02 808.526 1718.08 808.526 Q1723.4 808.526 1726.5 810.956 Q1729.61 813.364 1729.61 817.484 Q1729.61 820.355 1727.96 822.345 Q1726.32 824.313 1723.29 825.077 Z" fill="#000000" fill-rule="nonzero" fill-opacity="1" /><path clip-path="url(#clip360)" d="M1498.82 899.007 L1616.34 899.007 L1616.34 857.535 L1498.82 857.535 L1498.82 899.007  Z" fill="#eff8a6" fill-rule="evenodd" fill-opacity="1"/>
<polyline clip-path="url(#clip360)" style="stroke:#000000; stroke-linecap:round; stroke-linejoin:round; stroke-width:4; stroke-opacity:1; fill:none" points="1498.82,899.007 1616.34,899.007 1616.34,857.535 1498.82,857.535 1498.82,899.007 "/>
<path clip-path="url(#clip360)" d="M1635.93 860.991 L1642.22 860.991 L1657.55 889.903 L1657.55 860.991 L1662.08 860.991 L1662.08 895.551 L1655.79 895.551 L1640.46 866.639 L1640.46 895.551 L1635.93 895.551 L1635.93 860.991 Z" fill="#000000" fill-rule="nonzero" fill-opacity="1" /><path clip-path="url(#clip360)" d="M1685.42 864.162 Q1680.32 864.162 1677.31 867.958 Q1674.33 871.755 1674.33 878.306 Q1674.33 884.833 1677.31 888.63 Q1680.32 892.426 1685.42 892.426 Q1690.51 892.426 1693.47 888.63 Q1696.46 884.833 1696.46 878.306 Q1696.46 871.755 1693.47 867.958 Q1690.51 864.162 1685.42 864.162 M1685.42 860.366 Q1692.68 860.366 1697.04 865.25 Q1701.39 870.111 1701.39 878.306 Q1701.39 886.477 1697.04 891.361 Q1692.68 896.222 1685.42 896.222 Q1678.12 896.222 1673.75 891.361 Q1669.4 886.5 1669.4 878.306 Q1669.4 870.111 1673.75 865.25 Q1678.12 860.366 1685.42 860.366 Z" fill="#000000" fill-rule="nonzero" fill-opacity="1" /><path clip-path="url(#clip360)" d="M1713.15 891.616 L1729.47 891.616 L1729.47 895.551 L1707.52 895.551 L1707.52 891.616 Q1710.18 888.861 1714.77 884.232 Q1719.37 879.579 1720.55 878.236 Q1722.8 875.713 1723.68 873.977 Q1724.58 872.218 1724.58 870.528 Q1724.58 867.773 1722.64 866.037 Q1720.72 864.301 1717.61 864.301 Q1715.42 864.301 1712.96 865.065 Q1710.53 865.829 1707.75 867.38 L1707.75 862.658 Q1710.58 861.523 1713.03 860.945 Q1715.48 860.366 1717.52 860.366 Q1722.89 860.366 1726.09 863.051 Q1729.28 865.736 1729.28 870.227 Q1729.28 872.357 1728.47 874.278 Q1727.68 876.176 1725.58 878.769 Q1725 879.44 1721.9 882.657 Q1718.8 885.852 1713.15 891.616 Z" fill="#000000" fill-rule="nonzero" fill-opacity="1" /><path clip-path="url(#clip360)" d="M1498.82 950.847 L1616.34 950.847 L1616.34 909.375 L1498.82 909.375 L1498.82 950.847  Z" fill="#f06744" fill-rule="evenodd" fill-opacity="1"/>
<polyline clip-path="url(#clip360)" style="stroke:#000000; stroke-linecap:round; stroke-linejoin:round; stroke-width:4; stroke-opacity:1; fill:none" points="1498.82,950.847 1616.34,950.847 1616.34,909.375 1498.82,909.375 1498.82,950.847 "/>
<path clip-path="url(#clip360)" d="M1651.94 916.002 Q1646.85 916.002 1643.84 919.798 Q1640.86 923.595 1640.86 930.146 Q1640.86 936.673 1643.84 940.47 Q1646.85 944.266 1651.94 944.266 Q1657.04 944.266 1660 940.47 Q1662.99 936.673 1662.99 930.146 Q1662.99 923.595 1660 919.798 Q1657.04 916.002 1651.94 916.002 M1651.94 912.206 Q1659.21 912.206 1663.56 917.09 Q1667.92 921.951 1667.92 930.146 Q1667.92 938.317 1663.56 943.201 Q1659.21 948.062 1651.94 948.062 Q1644.65 948.062 1640.28 943.201 Q1635.93 938.34 1635.93 930.146 Q1635.93 921.951 1640.28 917.09 Q1644.65 912.206 1651.94 912.206 Z" fill="#000000" fill-rule="nonzero" fill-opacity="1" /><path clip-path="url(#clip360)" d="M1670.53 912.831 L1675.55 912.831 L1684.14 925.678 L1692.78 912.831 L1697.8 912.831 L1686.69 929.428 L1698.54 947.391 L1693.52 947.391 L1683.8 932.692 L1674 947.391 L1668.96 947.391 L1681.3 928.942 L1670.53 912.831 Z" fill="#000000" fill-rule="nonzero" fill-opacity="1" /><path clip-path="url(#clip360)" d="M1699.93 912.831 L1704.95 912.831 L1714.54 927.044 L1724.05 912.831 L1729.07 912.831 L1716.85 930.933 L1716.85 947.391 L1712.15 947.391 L1712.15 930.933 L1699.93 912.831 Z" fill="#000000" fill-rule="nonzero" fill-opacity="1" /><path clip-path="url(#clip360)" d="M1738.31 930.886 L1738.31 943.548 L1745.81 943.548 Q1749.58 943.548 1751.39 941.997 Q1753.22 940.423 1753.22 937.206 Q1753.22 933.965 1751.39 932.437 Q1749.58 930.886 1745.81 930.886 L1738.31 930.886 M1738.31 916.673 L1738.31 927.09 L1745.23 927.09 Q1748.66 927.09 1750.32 925.817 Q1752.01 924.521 1752.01 921.882 Q1752.01 919.266 1750.32 917.97 Q1748.66 916.673 1745.23 916.673 L1738.31 916.673 M1733.63 912.831 L1745.58 912.831 Q1750.92 912.831 1753.82 915.053 Q1756.71 917.275 1756.71 921.373 Q1756.71 924.544 1755.23 926.419 Q1753.75 928.294 1750.88 928.757 Q1754.33 929.498 1756.23 931.859 Q1758.15 934.197 1758.15 937.715 Q1758.15 942.345 1755 944.868 Q1751.85 947.391 1746.04 947.391 L1733.63 947.391 L1733.63 912.831 Z" fill="#000000" fill-rule="nonzero" fill-opacity="1" /><path clip-path="url(#clip360)" d="M1766.16 912.831 L1770.83 912.831 L1770.83 947.391 L1766.16 947.391 L1766.16 912.831 Z" fill="#000000" fill-rule="nonzero" fill-opacity="1" /><path clip-path="url(#clip360)" d="M1784.81 916.673 L1784.81 929.66 L1790.69 929.66 Q1793.96 929.66 1795.74 927.97 Q1797.52 926.28 1797.52 923.155 Q1797.52 920.053 1795.74 918.363 Q1793.96 916.673 1790.69 916.673 L1784.81 916.673 M1780.14 912.831 L1790.69 912.831 Q1796.5 912.831 1799.47 915.47 Q1802.45 918.086 1802.45 923.155 Q1802.45 928.271 1799.47 930.886 Q1796.5 933.502 1790.69 933.502 L1784.81 933.502 L1784.81 947.391 L1780.14 947.391 L1780.14 912.831 Z" fill="#000000" fill-rule="nonzero" fill-opacity="1" /><path clip-path="url(#clip360)" d="M1808.73 912.831 L1830.58 912.831 L1830.58 916.766 L1813.4 916.766 L1813.4 926.998 L1829.86 926.998 L1829.86 930.933 L1813.4 930.933 L1813.4 943.456 L1830.99 943.456 L1830.99 947.391 L1808.73 947.391 L1808.73 912.831 Z" fill="#000000" fill-rule="nonzero" fill-opacity="1" /><path clip-path="url(#clip360)" d="M1838.68 912.831 L1844.98 912.831 L1860.3 941.743 L1860.3 912.831 L1864.84 912.831 L1864.84 947.391 L1858.54 947.391 L1843.22 918.479 L1843.22 947.391 L1838.68 947.391 L1838.68 912.831 Z" fill="#000000" fill-rule="nonzero" fill-opacity="1" /><path clip-path="url(#clip360)" d="M1888.17 916.002 Q1883.08 916.002 1880.07 919.798 Q1877.08 923.595 1877.08 930.146 Q1877.08 936.673 1880.07 940.47 Q1883.08 944.266 1888.17 944.266 Q1893.26 944.266 1896.22 940.47 Q1899.21 936.673 1899.21 930.146 Q1899.21 923.595 1896.22 919.798 Q1893.26 916.002 1888.17 916.002 M1888.17 912.206 Q1895.44 912.206 1899.79 917.09 Q1904.14 921.951 1904.14 930.146 Q1904.14 938.317 1899.79 943.201 Q1895.44 948.062 1888.17 948.062 Q1880.88 948.062 1876.5 943.201 Q1872.15 938.34 1872.15 930.146 Q1872.15 921.951 1876.5 917.09 Q1880.88 912.206 1888.17 912.206 Z" fill="#000000" fill-rule="nonzero" fill-opacity="1" /><path clip-path="url(#clip360)" d="M1926.04 928.757 Q1929.4 929.474 1931.27 931.743 Q1933.17 934.011 1933.17 937.345 Q1933.17 942.46 1929.65 945.261 Q1926.13 948.062 1919.65 948.062 Q1917.47 948.062 1915.16 947.622 Q1912.87 947.206 1910.41 946.349 L1910.41 941.835 Q1912.36 942.97 1914.67 943.548 Q1916.99 944.127 1919.51 944.127 Q1923.91 944.127 1926.2 942.391 Q1928.52 940.655 1928.52 937.345 Q1928.52 934.289 1926.36 932.576 Q1924.23 930.84 1920.41 930.84 L1916.39 930.84 L1916.39 926.998 L1920.6 926.998 Q1924.05 926.998 1925.88 925.632 Q1927.71 924.243 1927.71 921.65 Q1927.71 918.988 1925.81 917.576 Q1923.93 916.141 1920.41 916.141 Q1918.49 916.141 1916.29 916.558 Q1914.1 916.974 1911.46 917.854 L1911.46 913.687 Q1914.12 912.947 1916.43 912.576 Q1918.77 912.206 1920.83 912.206 Q1926.16 912.206 1929.26 914.636 Q1932.36 917.044 1932.36 921.164 Q1932.36 924.035 1930.72 926.025 Q1929.07 927.993 1926.04 928.757 Z" fill="#000000" fill-rule="nonzero" fill-opacity="1" /><path clip-path="url(#clip360)" d="M1498.82 1002.69 L1616.34 1002.69 L1616.34 961.215 L1498.82 961.215 L1498.82 1002.69  Z" fill="#b2e0a2" fill-rule="evenodd" fill-opacity="1"/>
<polyline clip-path="url(#clip360)" style="stroke:#000000; stroke-linecap:round; stroke-linejoin:round; stroke-width:4; stroke-opacity:1; fill:none" points="1498.82,1002.69 1616.34,1002.69 1616.34,961.215 1498.82,961.215 1498.82,1002.69 "/>
<path clip-path="url(#clip360)" d="M1640.6 968.513 L1640.6 995.388 L1646.25 995.388 Q1653.4 995.388 1656.71 992.148 Q1660.05 988.907 1660.05 981.916 Q1660.05 974.972 1656.71 971.754 Q1653.4 968.513 1646.25 968.513 L1640.6 968.513 M1635.93 964.671 L1645.53 964.671 Q1655.58 964.671 1660.28 968.861 Q1664.98 973.027 1664.98 981.916 Q1664.98 990.851 1660.25 995.041 Q1655.53 999.231 1645.53 999.231 L1635.93 999.231 L1635.93 964.671 Z" fill="#000000" fill-rule="nonzero" fill-opacity="1" /><path clip-path="url(#clip360)" d="M1672.43 964.671 L1678.73 964.671 L1694.05 993.583 L1694.05 964.671 L1698.59 964.671 L1698.59 999.231 L1692.29 999.231 L1676.97 970.319 L1676.97 999.231 L1672.43 999.231 L1672.43 964.671 Z" fill="#000000" fill-rule="nonzero" fill-opacity="1" /><path clip-path="url(#clip360)" d="M1707.89 964.671 L1714.86 964.671 L1723.68 988.189 L1732.55 964.671 L1739.51 964.671 L1739.51 999.231 L1734.95 999.231 L1734.95 968.884 L1726.04 992.587 L1721.34 992.587 L1712.43 968.884 L1712.43 999.231 L1707.89 999.231 L1707.89 964.671 Z" fill="#000000" fill-rule="nonzero" fill-opacity="1" /><path clip-path="url(#clip360)" d="M1748.8 964.671 L1770.65 964.671 L1770.65 968.606 L1753.47 968.606 L1753.47 978.838 L1769.93 978.838 L1769.93 982.773 L1753.47 982.773 L1753.47 995.296 L1771.06 995.296 L1771.06 999.231 L1748.8 999.231 L1748.8 964.671 Z" fill="#000000" fill-rule="nonzero" fill-opacity="1" /><path clip-path="url(#clip360)" d="M1773.96 964.671 L1803.19 964.671 L1803.19 968.606 L1790.92 968.606 L1790.92 999.231 L1786.23 999.231 L1786.23 968.606 L1773.96 968.606 L1773.96 964.671 Z" fill="#000000" fill-rule="nonzero" fill-opacity="1" /><path clip-path="url(#clip360)" d="M1821.73 967.842 Q1816.64 967.842 1813.63 971.638 Q1810.65 975.435 1810.65 981.986 Q1810.65 988.513 1813.63 992.31 Q1816.64 996.106 1821.73 996.106 Q1826.83 996.106 1829.79 992.31 Q1832.78 988.513 1832.78 981.986 Q1832.78 975.435 1829.79 971.638 Q1826.83 967.842 1821.73 967.842 M1821.73 964.046 Q1829 964.046 1833.35 968.93 Q1837.71 973.791 1837.71 981.986 Q1837.71 990.157 1833.35 995.041 Q1829 999.902 1821.73 999.902 Q1814.44 999.902 1810.07 995.041 Q1805.72 990.18 1805.72 981.986 Q1805.72 973.791 1810.07 968.93 Q1814.44 964.046 1821.73 964.046 Z" fill="#000000" fill-rule="nonzero" fill-opacity="1" /><path clip-path="url(#clip360)" d="M1845.02 964.671 L1849.7 964.671 L1849.7 995.296 L1866.53 995.296 L1866.53 999.231 L1845.02 999.231 L1845.02 964.671 Z" fill="#000000" fill-rule="nonzero" fill-opacity="1" /><path clip-path="url(#clip360)" d="M1498.82 1054.53 L1616.34 1054.53 L1616.34 1013.05 L1498.82 1013.05 L1498.82 1054.53  Z" fill="#88cfa4" fill-rule="evenodd" fill-opacity="1"/>
<polyline clip-path="url(#clip360)" style="stroke:#000000; stroke-linecap:round; stroke-linejoin:round; stroke-width:4; stroke-opacity:1; fill:none" points="1498.82,1054.53 1616.34,1054.53 1616.34,1013.05 1498.82,1013.05 1498.82,1054.53 "/>
<path clip-path="url(#clip360)" d="M1635.93 1016.51 L1642.89 1016.51 L1651.71 1040.03 L1660.58 1016.51 L1667.55 1016.51 L1667.55 1051.07 L1662.99 1051.07 L1662.99 1020.72 L1654.07 1044.43 L1649.37 1044.43 L1640.46 1020.72 L1640.46 1051.07 L1635.93 1051.07 L1635.93 1016.51 Z" fill="#000000" fill-rule="nonzero" fill-opacity="1" /><path clip-path="url(#clip360)" d="M1676.83 1016.51 L1683.8 1016.51 L1692.61 1040.03 L1701.48 1016.51 L1708.45 1016.51 L1708.45 1051.07 L1703.89 1051.07 L1703.89 1020.72 L1694.98 1044.43 L1690.28 1044.43 L1681.36 1020.72 L1681.36 1051.07 L1676.83 1051.07 L1676.83 1016.51 Z" fill="#000000" fill-rule="nonzero" fill-opacity="1" /><path clip-path="url(#clip360)" d="M1743.61 1019.17 L1743.61 1024.1 Q1741.25 1021.9 1738.56 1020.82 Q1735.9 1019.73 1732.89 1019.73 Q1726.97 1019.73 1723.82 1023.36 Q1720.67 1026.97 1720.67 1033.83 Q1720.67 1040.65 1723.82 1044.29 Q1726.97 1047.9 1732.89 1047.9 Q1735.9 1047.9 1738.56 1046.81 Q1741.25 1045.72 1743.61 1043.52 L1743.61 1048.41 Q1741.16 1050.08 1738.4 1050.91 Q1735.67 1051.74 1732.61 1051.74 Q1724.77 1051.74 1720.25 1046.95 Q1715.74 1042.14 1715.74 1033.83 Q1715.74 1025.49 1720.25 1020.7 Q1724.77 1015.89 1732.61 1015.89 Q1735.72 1015.89 1738.45 1016.72 Q1741.2 1017.53 1743.61 1019.17 Z" fill="#000000" fill-rule="nonzero" fill-opacity="1" /><path clip-path="url(#clip360)" d="M1750.83 1016.51 L1770.69 1016.51 L1770.69 1020.45 L1755.51 1020.45 L1755.51 1030.63 L1769.21 1030.63 L1769.21 1034.57 L1755.51 1034.57 L1755.51 1051.07 L1750.83 1051.07 L1750.83 1016.51 Z" fill="#000000" fill-rule="nonzero" fill-opacity="1" /><path clip-path="url(#clip360)" d="M1792.13 1019.68 Q1787.04 1019.68 1784.03 1023.48 Q1781.04 1027.27 1781.04 1033.83 Q1781.04 1040.35 1784.03 1044.15 Q1787.04 1047.95 1792.13 1047.95 Q1797.22 1047.95 1800.18 1044.15 Q1803.17 1040.35 1803.17 1033.83 Q1803.17 1027.27 1800.18 1023.48 Q1797.22 1019.68 1792.13 1019.68 M1792.13 1015.89 Q1799.4 1015.89 1803.75 1020.77 Q1808.1 1025.63 1808.1 1033.83 Q1808.1 1042 1803.75 1046.88 Q1799.4 1051.74 1792.13 1051.74 Q1784.84 1051.74 1780.46 1046.88 Q1776.11 1042.02 1776.11 1033.83 Q1776.11 1025.63 1780.46 1020.77 Q1784.84 1015.89 1792.13 1015.89 Z" fill="#000000" fill-rule="nonzero" fill-opacity="1" /><path clip-path="url(#clip360)" d="M1498.82 1106.37 L1616.34 1106.37 L1616.34 1064.89 L1498.82 1064.89 L1498.82 1106.37  Z" fill="#5fbaa7" fill-rule="evenodd" fill-opacity="1"/>
<polyline clip-path="url(#clip360)" style="stroke:#000000; stroke-linecap:round; stroke-linejoin:round; stroke-width:4; stroke-opacity:1; fill:none" points="1498.82,1106.37 1616.34,1106.37 1616.34,1064.89 1498.82,1064.89 1498.82,1106.37 "/>
<path clip-path="url(#clip360)" d="M1651.94 1071.52 Q1646.85 1071.52 1643.84 1075.32 Q1640.86 1079.11 1640.86 1085.67 Q1640.86 1092.19 1643.84 1095.99 Q1646.85 1099.79 1651.94 1099.79 Q1657.04 1099.79 1660 1095.99 Q1662.99 1092.19 1662.99 1085.67 Q1662.99 1079.11 1660 1075.32 Q1657.04 1071.52 1651.94 1071.52 M1651.94 1067.73 Q1659.21 1067.73 1663.56 1072.61 Q1667.92 1077.47 1667.92 1085.67 Q1667.92 1093.84 1663.56 1098.72 Q1659.21 1103.58 1651.94 1103.58 Q1644.65 1103.58 1640.28 1098.72 Q1635.93 1093.86 1635.93 1085.67 Q1635.93 1077.47 1640.28 1072.61 Q1644.65 1067.73 1651.94 1067.73 Z" fill="#000000" fill-rule="nonzero" fill-opacity="1" /><path clip-path="url(#clip360)" d="M1689.81 1084.28 Q1693.17 1084.99 1695.05 1087.26 Q1696.94 1089.53 1696.94 1092.86 Q1696.94 1097.98 1693.42 1100.78 Q1689.91 1103.58 1683.42 1103.58 Q1681.25 1103.58 1678.93 1103.14 Q1676.64 1102.73 1674.19 1101.87 L1674.19 1097.36 Q1676.13 1098.49 1678.45 1099.07 Q1680.76 1099.65 1683.29 1099.65 Q1687.68 1099.65 1689.98 1097.91 Q1692.29 1096.17 1692.29 1092.86 Q1692.29 1089.81 1690.14 1088.1 Q1688.01 1086.36 1684.19 1086.36 L1680.16 1086.36 L1680.16 1082.52 L1684.37 1082.52 Q1687.82 1082.52 1689.65 1081.15 Q1691.48 1079.76 1691.48 1077.17 Q1691.48 1074.51 1689.58 1073.1 Q1687.71 1071.66 1684.19 1071.66 Q1682.27 1071.66 1680.07 1072.08 Q1677.87 1072.49 1675.23 1073.37 L1675.23 1069.21 Q1677.89 1068.47 1680.21 1068.1 Q1682.55 1067.73 1684.61 1067.73 Q1689.93 1067.73 1693.03 1070.16 Q1696.13 1072.56 1696.13 1076.68 Q1696.13 1079.55 1694.49 1081.55 Q1692.85 1083.51 1689.81 1084.28 Z" fill="#000000" fill-rule="nonzero" fill-opacity="1" /><path clip-path="url(#clip360)" d="M1498.82 1158.21 L1616.34 1158.21 L1616.34 1116.73 L1498.82 1116.73 L1498.82 1158.21  Z" fill="#3e96b6" fill-rule="evenodd" fill-opacity="1"/>
<polyline clip-path="url(#clip360)" style="stroke:#000000; stroke-linecap:round; stroke-linejoin:round; stroke-width:4; stroke-opacity:1; fill:none" points="1498.82,1158.21 1616.34,1158.21 1616.34,1116.73 1498.82,1116.73 1498.82,1158.21 "/>
<path clip-path="url(#clip360)" d="M1635.93 1120.19 L1640.6 1120.19 L1640.6 1134.36 L1657.59 1134.36 L1657.59 1120.19 L1662.27 1120.19 L1662.27 1154.75 L1657.59 1154.75 L1657.59 1138.29 L1640.6 1138.29 L1640.6 1154.75 L1635.93 1154.75 L1635.93 1120.19 Z" fill="#000000" fill-rule="nonzero" fill-opacity="1" /><path clip-path="url(#clip360)" d="M1685.6 1123.36 Q1680.51 1123.36 1677.5 1127.16 Q1674.51 1130.95 1674.51 1137.51 Q1674.51 1144.03 1677.5 1147.83 Q1680.51 1151.63 1685.6 1151.63 Q1690.69 1151.63 1693.66 1147.83 Q1696.64 1144.03 1696.64 1137.51 Q1696.64 1130.95 1693.66 1127.16 Q1690.69 1123.36 1685.6 1123.36 M1685.6 1119.57 Q1692.87 1119.57 1697.22 1124.45 Q1701.57 1129.31 1701.57 1137.51 Q1701.57 1145.68 1697.22 1150.56 Q1692.87 1155.42 1685.6 1155.42 Q1678.31 1155.42 1673.93 1150.56 Q1669.58 1145.7 1669.58 1137.51 Q1669.58 1129.31 1673.93 1124.45 Q1678.31 1119.57 1685.6 1119.57 Z" fill="#000000" fill-rule="nonzero" fill-opacity="1" /><path clip-path="url(#clip360)" d="M1710.11 1150.82 L1717.75 1150.82 L1717.75 1124.45 L1709.44 1126.12 L1709.44 1121.86 L1717.71 1120.19 L1722.38 1120.19 L1722.38 1150.82 L1730.02 1150.82 L1730.02 1154.75 L1710.11 1154.75 L1710.11 1150.82 Z" fill="#000000" fill-rule="nonzero" fill-opacity="1" /><path clip-path="url(#clip360)" d="M1764.93 1122.85 L1764.93 1127.78 Q1762.57 1125.58 1759.88 1124.5 Q1757.22 1123.41 1754.21 1123.41 Q1748.29 1123.41 1745.14 1127.04 Q1741.99 1130.65 1741.99 1137.51 Q1741.99 1144.33 1745.14 1147.97 Q1748.29 1151.58 1754.21 1151.58 Q1757.22 1151.58 1759.88 1150.49 Q1762.57 1149.4 1764.93 1147.2 L1764.93 1152.09 Q1762.48 1153.76 1759.72 1154.59 Q1756.99 1155.42 1753.93 1155.42 Q1746.09 1155.42 1741.57 1150.63 Q1737.06 1145.82 1737.06 1137.51 Q1737.06 1129.17 1741.57 1124.38 Q1746.09 1119.57 1753.93 1119.57 Q1757.04 1119.57 1759.77 1120.4 Q1762.52 1121.21 1764.93 1122.85 Z" fill="#000000" fill-rule="nonzero" fill-opacity="1" /><path clip-path="url(#clip360)" d="M1786.73 1136.12 Q1790.09 1136.83 1791.97 1139.1 Q1793.86 1141.37 1793.86 1144.7 Q1793.86 1149.82 1790.35 1152.62 Q1786.83 1155.42 1780.35 1155.42 Q1778.17 1155.42 1775.86 1154.98 Q1773.56 1154.57 1771.11 1153.71 L1771.11 1149.2 Q1773.05 1150.33 1775.37 1150.91 Q1777.68 1151.49 1780.21 1151.49 Q1784.6 1151.49 1786.9 1149.75 Q1789.21 1148.01 1789.21 1144.7 Q1789.21 1141.65 1787.06 1139.94 Q1784.93 1138.2 1781.11 1138.2 L1777.08 1138.2 L1777.08 1134.36 L1781.29 1134.36 Q1784.74 1134.36 1786.57 1132.99 Q1788.4 1131.6 1788.4 1129.01 Q1788.4 1126.35 1786.5 1124.94 Q1784.63 1123.5 1781.11 1123.5 Q1779.19 1123.5 1776.99 1123.92 Q1774.79 1124.33 1772.15 1125.21 L1772.15 1121.05 Q1774.81 1120.31 1777.13 1119.94 Q1779.47 1119.57 1781.53 1119.57 Q1786.85 1119.57 1789.95 1122 Q1793.05 1124.4 1793.05 1128.52 Q1793.05 1131.39 1791.41 1133.39 Q1789.77 1135.35 1786.73 1136.12 Z" fill="#000000" fill-rule="nonzero" fill-opacity="1" /><path clip-path="url(#clip360)" d="M1816.34 1123.36 Q1811.25 1123.36 1808.24 1127.16 Q1805.25 1130.95 1805.25 1137.51 Q1805.25 1144.03 1808.24 1147.83 Q1811.25 1151.63 1816.34 1151.63 Q1821.43 1151.63 1824.4 1147.83 Q1827.38 1144.03 1827.38 1137.51 Q1827.38 1130.95 1824.4 1127.16 Q1821.43 1123.36 1816.34 1123.36 M1816.34 1119.57 Q1823.61 1119.57 1827.96 1124.45 Q1832.31 1129.31 1832.31 1137.51 Q1832.31 1145.68 1827.96 1150.56 Q1823.61 1155.42 1816.34 1155.42 Q1809.05 1155.42 1804.67 1150.56 Q1800.32 1145.7 1800.32 1137.51 Q1800.32 1129.31 1804.67 1124.45 Q1809.05 1119.57 1816.34 1119.57 Z" fill="#000000" fill-rule="nonzero" fill-opacity="1" /><path clip-path="url(#clip360)" d="M1853.66 1123.36 Q1848.56 1123.36 1845.55 1127.16 Q1842.57 1130.95 1842.57 1137.51 Q1842.57 1144.03 1845.55 1147.83 Q1848.56 1151.63 1853.66 1151.63 Q1858.75 1151.63 1861.71 1147.83 Q1864.7 1144.03 1864.7 1137.51 Q1864.7 1130.95 1861.71 1127.16 Q1858.75 1123.36 1853.66 1123.36 M1853.66 1119.57 Q1860.92 1119.57 1865.28 1124.45 Q1869.63 1129.31 1869.63 1137.51 Q1869.63 1145.68 1865.28 1150.56 Q1860.92 1155.42 1853.66 1155.42 Q1846.36 1155.42 1841.99 1150.56 Q1837.64 1145.7 1837.64 1137.51 Q1837.64 1129.31 1841.99 1124.45 Q1846.36 1119.57 1853.66 1119.57 Z" fill="#000000" fill-rule="nonzero" fill-opacity="1" /><path clip-path="url(#clip360)" d="M1876.94 1120.19 L1881.62 1120.19 L1881.62 1134.36 L1898.61 1134.36 L1898.61 1120.19 L1903.28 1120.19 L1903.28 1154.75 L1898.61 1154.75 L1898.61 1138.29 L1881.62 1138.29 L1881.62 1154.75 L1876.94 1154.75 L1876.94 1120.19 Z" fill="#000000" fill-rule="nonzero" fill-opacity="1" /><path clip-path="url(#clip360)" d="M1498.82 1210.05 L1616.34 1210.05 L1616.34 1168.57 L1498.82 1168.57 L1498.82 1210.05  Z" fill="#ffffbe" fill-rule="evenodd" fill-opacity="1"/>
<polyline clip-path="url(#clip360)" style="stroke:#000000; stroke-linecap:round; stroke-linejoin:round; stroke-width:4; stroke-opacity:1; fill:none" points="1498.82,1210.05 1616.34,1210.05 1616.34,1168.57 1498.82,1168.57 1498.82,1210.05 "/>
<path clip-path="url(#clip360)" d="M1663.8 1174.69 L1663.8 1179.62 Q1661.43 1177.42 1658.75 1176.34 Q1656.09 1175.25 1653.08 1175.25 Q1647.15 1175.25 1644 1178.88 Q1640.86 1182.49 1640.86 1189.35 Q1640.86 1196.17 1644 1199.81 Q1647.15 1203.42 1653.08 1203.42 Q1656.09 1203.42 1658.75 1202.33 Q1661.43 1201.24 1663.8 1199.04 L1663.8 1203.93 Q1661.34 1205.6 1658.59 1206.43 Q1655.86 1207.26 1652.8 1207.26 Q1644.95 1207.26 1640.44 1202.47 Q1635.93 1197.66 1635.93 1189.35 Q1635.93 1181.01 1640.44 1176.22 Q1644.95 1171.41 1652.8 1171.41 Q1655.9 1171.41 1658.63 1172.24 Q1661.39 1173.05 1663.8 1174.69 Z" fill="#000000" fill-rule="nonzero" fill-opacity="1" /><path clip-path="url(#clip360)" d="M1682.01 1187.45 Q1678.86 1187.45 1677.01 1189.6 Q1675.18 1191.75 1675.18 1195.5 Q1675.18 1199.23 1677.01 1201.41 Q1678.86 1203.56 1682.01 1203.56 Q1685.16 1203.56 1686.99 1201.41 Q1688.84 1199.23 1688.84 1195.5 Q1688.84 1191.75 1686.99 1189.6 Q1685.16 1187.45 1682.01 1187.45 M1691.3 1172.79 L1691.3 1177.05 Q1689.54 1176.22 1687.73 1175.78 Q1685.95 1175.34 1684.19 1175.34 Q1679.56 1175.34 1677.11 1178.47 Q1674.68 1181.59 1674.33 1187.91 Q1675.69 1185.9 1677.75 1184.83 Q1679.81 1183.74 1682.29 1183.74 Q1687.5 1183.74 1690.51 1186.92 Q1693.54 1190.06 1693.54 1195.5 Q1693.54 1200.83 1690.39 1204.04 Q1687.24 1207.26 1682.01 1207.26 Q1676.02 1207.26 1672.85 1202.68 Q1669.68 1198.07 1669.68 1189.35 Q1669.68 1181.15 1673.56 1176.29 Q1677.45 1171.41 1684 1171.41 Q1685.76 1171.41 1687.55 1171.75 Q1689.35 1172.1 1691.3 1172.79 Z" fill="#000000" fill-rule="nonzero" fill-opacity="1" /><path clip-path="url(#clip360)" d="M1705.86 1175.87 L1705.86 1202.75 L1711.5 1202.75 Q1718.66 1202.75 1721.97 1199.51 Q1725.3 1196.27 1725.3 1189.28 Q1725.3 1182.33 1721.97 1179.11 Q1718.66 1175.87 1711.5 1175.87 L1705.86 1175.87 M1701.18 1172.03 L1710.79 1172.03 Q1720.83 1172.03 1725.53 1176.22 Q1730.23 1180.39 1730.23 1189.28 Q1730.23 1198.21 1725.51 1202.4 Q1720.79 1206.59 1710.79 1206.59 L1701.18 1206.59 L1701.18 1172.03 Z" fill="#000000" fill-rule="nonzero" fill-opacity="1" /><path clip-path="url(#clip360)" d="M1737.68 1172.03 L1742.36 1172.03 L1742.36 1206.59 L1737.68 1206.59 L1737.68 1172.03 Z" fill="#000000" fill-rule="nonzero" fill-opacity="1" /><path clip-path="url(#clip360)" d="M1777.54 1174.69 L1777.54 1179.62 Q1775.18 1177.42 1772.5 1176.34 Q1769.84 1175.25 1766.83 1175.25 Q1760.9 1175.25 1757.75 1178.88 Q1754.61 1182.49 1754.61 1189.35 Q1754.61 1196.17 1757.75 1199.81 Q1760.9 1203.42 1766.83 1203.42 Q1769.84 1203.42 1772.5 1202.33 Q1775.18 1201.24 1777.54 1199.04 L1777.54 1203.93 Q1775.09 1205.6 1772.34 1206.43 Q1769.61 1207.26 1766.55 1207.26 Q1758.7 1207.26 1754.19 1202.47 Q1749.67 1197.66 1749.67 1189.35 Q1749.67 1181.01 1754.19 1176.22 Q1758.7 1171.41 1766.55 1171.41 Q1769.65 1171.41 1772.38 1172.24 Q1775.14 1173.05 1777.54 1174.69 Z" fill="#000000" fill-rule="nonzero" fill-opacity="1" /><path clip-path="url(#clip360)" d="M1796.32 1176.64 L1789.98 1193.84 L1802.68 1193.84 L1796.32 1176.64 M1793.68 1172.03 L1798.98 1172.03 L1812.15 1206.59 L1807.29 1206.59 L1804.14 1197.73 L1788.56 1197.73 L1785.42 1206.59 L1780.48 1206.59 L1793.68 1172.03 Z" fill="#000000" fill-rule="nonzero" fill-opacity="1" /><path clip-path="url(#clip360)" d="M1833.59 1190.39 Q1835.09 1190.9 1836.5 1192.56 Q1837.94 1194.23 1839.37 1197.15 L1844.12 1206.59 L1839.1 1206.59 L1834.67 1197.73 Q1832.96 1194.25 1831.34 1193.12 Q1829.74 1191.98 1826.97 1191.98 L1821.87 1191.98 L1821.87 1206.59 L1817.2 1206.59 L1817.2 1172.03 L1827.75 1172.03 Q1833.68 1172.03 1836.6 1174.51 Q1839.51 1176.98 1839.51 1181.98 Q1839.51 1185.25 1837.98 1187.4 Q1836.48 1189.55 1833.59 1190.39 M1821.87 1175.87 L1821.87 1188.14 L1827.75 1188.14 Q1831.13 1188.14 1832.85 1186.59 Q1834.58 1185.02 1834.58 1181.98 Q1834.58 1178.95 1832.85 1177.42 Q1831.13 1175.87 1827.75 1175.87 L1821.87 1175.87 Z" fill="#000000" fill-rule="nonzero" fill-opacity="1" /><path clip-path="url(#clip360)" d="M1854.81 1190.09 L1854.81 1202.75 L1862.31 1202.75 Q1866.09 1202.75 1867.89 1201.2 Q1869.72 1199.62 1869.72 1196.41 Q1869.72 1193.17 1867.89 1191.64 Q1866.09 1190.09 1862.31 1190.09 L1854.81 1190.09 M1854.81 1175.87 L1854.81 1186.29 L1861.73 1186.29 Q1865.16 1186.29 1866.83 1185.02 Q1868.52 1183.72 1868.52 1181.08 Q1868.52 1178.47 1866.83 1177.17 Q1865.16 1175.87 1861.73 1175.87 L1854.81 1175.87 M1850.14 1172.03 L1862.08 1172.03 Q1867.43 1172.03 1870.32 1174.25 Q1873.22 1176.48 1873.22 1180.57 Q1873.22 1183.74 1871.73 1185.62 Q1870.25 1187.49 1867.38 1187.96 Q1870.83 1188.7 1872.73 1191.06 Q1874.65 1193.4 1874.65 1196.92 Q1874.65 1201.54 1871.5 1204.07 Q1868.35 1206.59 1862.54 1206.59 L1850.14 1206.59 L1850.14 1172.03 Z" fill="#000000" fill-rule="nonzero" fill-opacity="1" /><path clip-path="url(#clip360)" d="M1498.82 1261.89 L1616.34 1261.89 L1616.34 1220.41 L1498.82 1220.41 L1498.82 1261.89  Z" fill="#5e4fa1" fill-rule="evenodd" fill-opacity="1"/>
<polyline clip-path="url(#clip360)" style="stroke:#000000; stroke-linecap:round; stroke-linejoin:round; stroke-width:4; stroke-opacity:1; fill:none" points="1498.82,1261.89 1616.34,1261.89 1616.34,1220.41 1498.82,1220.41 1498.82,1261.89 "/>
<path clip-path="url(#clip360)" d="M1651.94 1227.04 Q1646.85 1227.04 1643.84 1230.84 Q1640.86 1234.63 1640.86 1241.19 Q1640.86 1247.71 1643.84 1251.51 Q1646.85 1255.31 1651.94 1255.31 Q1657.04 1255.31 1660 1251.51 Q1662.99 1247.71 1662.99 1241.19 Q1662.99 1234.63 1660 1230.84 Q1657.04 1227.04 1651.94 1227.04 M1651.94 1223.25 Q1659.21 1223.25 1663.56 1228.13 Q1667.92 1232.99 1667.92 1241.19 Q1667.92 1249.36 1663.56 1254.24 Q1659.21 1259.1 1651.94 1259.1 Q1644.65 1259.1 1640.28 1254.24 Q1635.93 1249.38 1635.93 1241.19 Q1635.93 1232.99 1640.28 1228.13 Q1644.65 1223.25 1651.94 1223.25 Z" fill="#000000" fill-rule="nonzero" fill-opacity="1" /><path clip-path="url(#clip360)" d="M1679.26 1225.14 L1679.26 1232.51 L1688.03 1232.51 L1688.03 1235.82 L1679.26 1235.82 L1679.26 1249.89 Q1679.26 1253.06 1680.11 1253.96 Q1680.99 1254.87 1683.66 1254.87 L1688.03 1254.87 L1688.03 1258.43 L1683.66 1258.43 Q1678.73 1258.43 1676.85 1256.6 Q1674.98 1254.75 1674.98 1249.89 L1674.98 1235.82 L1671.85 1235.82 L1671.85 1232.51 L1674.98 1232.51 L1674.98 1225.14 L1679.26 1225.14 Z" fill="#000000" fill-rule="nonzero" fill-opacity="1" /><path clip-path="url(#clip360)" d="M1715.18 1242.78 L1715.18 1258.43 L1710.92 1258.43 L1710.92 1242.92 Q1710.92 1239.24 1709.49 1237.41 Q1708.05 1235.58 1705.18 1235.58 Q1701.74 1235.58 1699.74 1237.78 Q1697.75 1239.98 1697.75 1243.78 L1697.75 1258.43 L1693.47 1258.43 L1693.47 1222.41 L1697.75 1222.41 L1697.75 1236.53 Q1699.28 1234.19 1701.34 1233.04 Q1703.42 1231.88 1706.13 1231.88 Q1710.6 1231.88 1712.89 1234.66 Q1715.18 1237.41 1715.18 1242.78 Z" fill="#000000" fill-rule="nonzero" fill-opacity="1" /><path clip-path="url(#clip360)" d="M1745.86 1244.4 L1745.86 1246.49 L1726.27 1246.49 Q1726.55 1250.88 1728.91 1253.2 Q1731.3 1255.49 1735.53 1255.49 Q1737.98 1255.49 1740.28 1254.89 Q1742.59 1254.29 1744.86 1253.08 L1744.86 1257.11 Q1742.57 1258.08 1740.16 1258.59 Q1737.75 1259.1 1735.28 1259.1 Q1729.07 1259.1 1725.44 1255.49 Q1721.83 1251.88 1721.83 1245.72 Q1721.83 1239.36 1725.25 1235.63 Q1728.7 1231.88 1734.54 1231.88 Q1739.77 1231.88 1742.8 1235.26 Q1745.86 1238.62 1745.86 1244.4 M1741.6 1243.15 Q1741.55 1239.66 1739.63 1237.57 Q1737.73 1235.49 1734.58 1235.49 Q1731.02 1235.49 1728.86 1237.51 Q1726.73 1239.52 1726.41 1243.18 L1741.6 1243.15 Z" fill="#000000" fill-rule="nonzero" fill-opacity="1" /><path clip-path="url(#clip360)" d="M1767.87 1236.49 Q1767.15 1236.07 1766.29 1235.88 Q1765.46 1235.68 1764.44 1235.68 Q1760.83 1235.68 1758.89 1238.04 Q1756.97 1240.38 1756.97 1244.77 L1756.97 1258.43 L1752.68 1258.43 L1752.68 1232.51 L1756.97 1232.51 L1756.97 1236.53 Q1758.31 1234.17 1760.46 1233.04 Q1762.61 1231.88 1765.69 1231.88 Q1766.13 1231.88 1766.67 1231.95 Q1767.2 1232 1767.85 1232.11 L1767.87 1236.49 Z" fill="#000000" fill-rule="nonzero" fill-opacity="1" /><path clip-path="url(#clip360)" d="M1788.86 1233.27 L1788.86 1237.3 Q1787.06 1236.37 1785.11 1235.91 Q1783.17 1235.44 1781.09 1235.44 Q1777.92 1235.44 1776.32 1236.42 Q1774.74 1237.39 1774.74 1239.33 Q1774.74 1240.82 1775.88 1241.67 Q1777.01 1242.51 1780.44 1243.27 L1781.9 1243.59 Q1786.43 1244.57 1788.33 1246.35 Q1790.25 1248.11 1790.25 1251.28 Q1790.25 1254.89 1787.38 1257 Q1784.54 1259.1 1779.54 1259.1 Q1777.45 1259.1 1775.18 1258.69 Q1772.94 1258.29 1770.44 1257.48 L1770.44 1253.08 Q1772.8 1254.31 1775.09 1254.94 Q1777.38 1255.54 1779.63 1255.54 Q1782.64 1255.54 1784.26 1254.52 Q1785.88 1253.48 1785.88 1251.6 Q1785.88 1249.87 1784.7 1248.94 Q1783.54 1248.01 1779.58 1247.16 L1778.1 1246.81 Q1774.14 1245.98 1772.38 1244.26 Q1770.62 1242.53 1770.62 1239.52 Q1770.62 1235.86 1773.22 1233.87 Q1775.81 1231.88 1780.58 1231.88 Q1782.94 1231.88 1785.02 1232.23 Q1787.1 1232.57 1788.86 1233.27 Z" fill="#000000" fill-rule="nonzero" fill-opacity="1" /></svg>
