<?xml version="1.0" encoding="utf-8"?>
<svg xmlns="http://www.w3.org/2000/svg" xmlns:xlink="http://www.w3.org/1999/xlink" width="1200" height="300" viewBox="0 0 4800 1200">
<defs>
  <clipPath id="clip820">
    <rect x="0" y="0" width="4800" height="1200"/>
  </clipPath>
</defs>
<path clip-path="url(#clip820)" d="M0 1200 L4800 1200 L4800 0 L0 0  Z" fill="#ffffff" fill-rule="evenodd" fill-opacity="1"/>
<defs>
  <clipPath id="clip821">
    <rect x="960" y="0" width="3361" height="1200"/>
  </clipPath>
</defs>
<path clip-path="url(#clip820)" d="M404.977 880.951 L4752.76 880.951 L4752.76 47.2441 L404.977 47.2441  Z" fill="#ffffff" fill-rule="evenodd" fill-opacity="1"/>
<defs>
  <clipPath id="clip822">
    <rect x="404" y="47" width="4349" height="835"/>
  </clipPath>
</defs>
<polyline clip-path="url(#clip822)" style="stroke:#000000; stroke-linecap:round; stroke-linejoin:round; stroke-width:2; stroke-opacity:0.1; fill:none" points="528.028,880.951 528.028,47.2441 "/>
<polyline clip-path="url(#clip822)" style="stroke:#000000; stroke-linecap:round; stroke-linejoin:round; stroke-width:2; stroke-opacity:0.1; fill:none" points="1348.36,880.951 1348.36,47.2441 "/>
<polyline clip-path="url(#clip822)" style="stroke:#000000; stroke-linecap:round; stroke-linejoin:round; stroke-width:2; stroke-opacity:0.1; fill:none" points="2168.7,880.951 2168.7,47.2441 "/>
<polyline clip-path="url(#clip822)" style="stroke:#000000; stroke-linecap:round; stroke-linejoin:round; stroke-width:2; stroke-opacity:0.1; fill:none" points="2989.03,880.951 2989.03,47.2441 "/>
<polyline clip-path="url(#clip822)" style="stroke:#000000; stroke-linecap:round; stroke-linejoin:round; stroke-width:2; stroke-opacity:0.1; fill:none" points="3809.37,880.951 3809.37,47.2441 "/>
<polyline clip-path="url(#clip822)" style="stroke:#000000; stroke-linecap:round; stroke-linejoin:round; stroke-width:2; stroke-opacity:0.1; fill:none" points="4629.71,880.951 4629.71,47.2441 "/>
<polyline clip-path="url(#clip822)" style="stroke:#000000; stroke-linecap:round; stroke-linejoin:round; stroke-width:2; stroke-opacity:0.1; fill:none" points="404.977,726.022 4752.76,726.022 "/>
<polyline clip-path="url(#clip822)" style="stroke:#000000; stroke-linecap:round; stroke-linejoin:round; stroke-width:2; stroke-opacity:0.1; fill:none" points="404.977,548.681 4752.76,548.681 "/>
<polyline clip-path="url(#clip822)" style="stroke:#000000; stroke-linecap:round; stroke-linejoin:round; stroke-width:2; stroke-opacity:0.1; fill:none" points="404.977,371.341 4752.76,371.341 "/>
<polyline clip-path="url(#clip822)" style="stroke:#000000; stroke-linecap:round; stroke-linejoin:round; stroke-width:2; stroke-opacity:0.1; fill:none" points="404.977,194 4752.76,194 "/>
<polyline clip-path="url(#clip820)" style="stroke:#000000; stroke-linecap:round; stroke-linejoin:round; stroke-width:4; stroke-opacity:1; fill:none" points="404.977,880.951 4752.76,880.951 "/>
<polyline clip-path="url(#clip820)" style="stroke:#000000; stroke-linecap:round; stroke-linejoin:round; stroke-width:4; stroke-opacity:1; fill:none" points="528.028,880.951 528.028,862.054 "/>
<polyline clip-path="url(#clip820)" style="stroke:#000000; stroke-linecap:round; stroke-linejoin:round; stroke-width:4; stroke-opacity:1; fill:none" points="1348.36,880.951 1348.36,862.054 "/>
<polyline clip-path="url(#clip820)" style="stroke:#000000; stroke-linecap:round; stroke-linejoin:round; stroke-width:4; stroke-opacity:1; fill:none" points="2168.7,880.951 2168.7,862.054 "/>
<polyline clip-path="url(#clip820)" style="stroke:#000000; stroke-linecap:round; stroke-linejoin:round; stroke-width:4; stroke-opacity:1; fill:none" points="2989.03,880.951 2989.03,862.054 "/>
<polyline clip-path="url(#clip820)" style="stroke:#000000; stroke-linecap:round; stroke-linejoin:round; stroke-width:4; stroke-opacity:1; fill:none" points="3809.37,880.951 3809.37,862.054 "/>
<polyline clip-path="url(#clip820)" style="stroke:#000000; stroke-linecap:round; stroke-linejoin:round; stroke-width:4; stroke-opacity:1; fill:none" points="4629.71,880.951 4629.71,862.054 "/>
<path clip-path="url(#clip820)" d="M528.028 942.789 Q520.806 942.789 517.148 949.918 Q513.537 957.002 513.537 971.261 Q513.537 985.474 517.148 992.603 Q520.806 999.687 528.028 999.687 Q535.296 999.687 538.907 992.603 Q542.565 985.474 542.565 971.261 Q542.565 957.002 538.907 949.918 Q535.296 942.789 528.028 942.789 M528.028 935.382 Q539.648 935.382 545.759 944.594 Q551.916 953.761 551.916 971.261 Q551.916 988.715 545.759 997.927 Q539.648 1007.09 528.028 1007.09 Q516.407 1007.09 510.25 997.927 Q504.139 988.715 504.139 971.261 Q504.139 953.761 510.25 944.594 Q516.407 935.382 528.028 935.382 Z" fill="#000000" fill-rule="nonzero" fill-opacity="1" /><path clip-path="url(#clip820)" d="M1337.67 997.881 L1370.31 997.881 L1370.31 1005.75 L1326.42 1005.75 L1326.42 997.881 Q1331.74 992.372 1340.91 983.113 Q1350.12 973.807 1352.48 971.122 Q1356.97 966.076 1358.73 962.604 Q1360.54 959.085 1360.54 955.705 Q1360.54 950.196 1356.65 946.724 Q1352.81 943.252 1346.6 943.252 Q1342.21 943.252 1337.3 944.78 Q1332.44 946.307 1326.88 949.409 L1326.88 939.965 Q1332.53 937.696 1337.44 936.539 Q1342.34 935.382 1346.42 935.382 Q1357.16 935.382 1363.55 940.752 Q1369.94 946.122 1369.94 955.104 Q1369.94 959.363 1368.32 963.205 Q1366.74 967.002 1362.53 972.187 Q1361.37 973.529 1355.17 979.965 Q1348.97 986.353 1337.67 997.881 Z" fill="#000000" fill-rule="nonzero" fill-opacity="1" /><path clip-path="url(#clip820)" d="M2174.72 944.78 L2151.11 981.678 L2174.72 981.678 L2174.72 944.78 M2172.26 936.631 L2184.02 936.631 L2184.02 981.678 L2193.88 981.678 L2193.88 989.455 L2184.02 989.455 L2184.02 1005.75 L2174.72 1005.75 L2174.72 989.455 L2143.51 989.455 L2143.51 980.428 L2172.26 936.631 Z" fill="#000000" fill-rule="nonzero" fill-opacity="1" /><path clip-path="url(#clip820)" d="M2989.84 967.465 Q2983.55 967.465 2979.84 971.77 Q2976.19 976.076 2976.19 983.576 Q2976.19 991.029 2979.84 995.381 Q2983.55 999.687 2989.84 999.687 Q2996.14 999.687 2999.8 995.381 Q3003.5 991.029 3003.5 983.576 Q3003.5 976.076 2999.8 971.77 Q2996.14 967.465 2989.84 967.465 M3008.41 938.159 L3008.41 946.678 Q3004.89 945.011 3001.28 944.131 Q2997.71 943.252 2994.2 943.252 Q2984.94 943.252 2980.03 949.502 Q2975.17 955.752 2974.47 968.391 Q2977.21 964.363 2981.33 962.233 Q2985.45 960.057 2990.4 960.057 Q3000.82 960.057 3006.84 966.4 Q3012.9 972.696 3012.9 983.576 Q3012.9 994.224 3006.6 1000.66 Q3000.31 1007.09 2989.84 1007.09 Q2977.85 1007.09 2971.51 997.927 Q2965.17 988.715 2965.17 971.261 Q2965.17 954.872 2972.95 945.15 Q2980.72 935.382 2993.83 935.382 Q2997.34 935.382 3000.91 936.076 Q3004.52 936.77 3008.41 938.159 Z" fill="#000000" fill-rule="nonzero" fill-opacity="1" /><path clip-path="url(#clip820)" d="M3809.37 972.928 Q3802.7 972.928 3798.86 976.492 Q3795.06 980.057 3795.06 986.307 Q3795.06 992.557 3798.86 996.122 Q3802.7 999.687 3809.37 999.687 Q3816.04 999.687 3819.88 996.122 Q3823.72 992.511 3823.72 986.307 Q3823.72 980.057 3819.88 976.492 Q3816.08 972.928 3809.37 972.928 M3800.02 968.946 Q3794 967.465 3790.62 963.344 Q3787.29 959.224 3787.29 953.298 Q3787.29 945.011 3793.17 940.196 Q3799.09 935.382 3809.37 935.382 Q3819.69 935.382 3825.57 940.196 Q3831.45 945.011 3831.45 953.298 Q3831.45 959.224 3828.07 963.344 Q3824.74 967.465 3818.77 968.946 Q3825.53 970.52 3829.28 975.104 Q3833.07 979.687 3833.07 986.307 Q3833.07 996.353 3826.92 1001.72 Q3820.81 1007.09 3809.37 1007.09 Q3797.93 1007.09 3791.78 1001.72 Q3785.67 996.353 3785.67 986.307 Q3785.67 979.687 3789.46 975.104 Q3793.26 970.52 3800.02 968.946 M3796.59 954.178 Q3796.59 959.548 3799.93 962.557 Q3803.31 965.567 3809.37 965.567 Q3815.39 965.567 3818.77 962.557 Q3822.19 959.548 3822.19 954.178 Q3822.19 948.807 3818.77 945.798 Q3815.39 942.789 3809.37 942.789 Q3803.31 942.789 3799.93 945.798 Q3796.59 948.807 3796.59 954.178 Z" fill="#000000" fill-rule="nonzero" fill-opacity="1" /><path clip-path="url(#clip820)" d="M4579.08 997.881 L4594.36 997.881 L4594.36 945.15 L4577.74 948.483 L4577.74 939.965 L4594.27 936.631 L4603.62 936.631 L4603.62 997.881 L4618.9 997.881 L4618.9 1005.75 L4579.08 1005.75 L4579.08 997.881 Z" fill="#000000" fill-rule="nonzero" fill-opacity="1" /><path clip-path="url(#clip820)" d="M4657.78 942.789 Q4650.56 942.789 4646.9 949.918 Q4643.29 957.002 4643.29 971.261 Q4643.29 985.474 4646.9 992.603 Q4650.56 999.687 4657.78 999.687 Q4665.05 999.687 4668.66 992.603 Q4672.32 985.474 4672.32 971.261 Q4672.32 957.002 4668.66 949.918 Q4665.05 942.789 4657.78 942.789 M4657.78 935.382 Q4669.4 935.382 4675.52 944.594 Q4681.67 953.761 4681.67 971.261 Q4681.67 988.715 4675.52 997.927 Q4669.4 1007.09 4657.78 1007.09 Q4646.16 1007.09 4640.01 997.927 Q4633.9 988.715 4633.9 971.261 Q4633.9 953.761 4640.01 944.594 Q4646.16 935.382 4657.78 935.382 Z" fill="#000000" fill-rule="nonzero" fill-opacity="1" /><path clip-path="url(#clip820)" d="M2296.11 1072.18 L2361.89 1072.18 L2361.89 1081.04 L2334.28 1081.04 L2334.28 1149.94 L2323.71 1149.94 L2323.71 1081.04 L2296.11 1081.04 L2296.11 1072.18 Z" fill="#000000" fill-rule="nonzero" fill-opacity="1" /><path clip-path="url(#clip820)" d="M2368.35 1091.61 L2377.93 1091.61 L2377.93 1149.94 L2368.35 1149.94 L2368.35 1091.61 M2368.35 1068.9 L2377.93 1068.9 L2377.93 1081.04 L2368.35 1081.04 L2368.35 1068.9 Z" fill="#000000" fill-rule="nonzero" fill-opacity="1" /><path clip-path="url(#clip820)" d="M2443.4 1102.81 Q2446.99 1096.35 2451.99 1093.28 Q2456.99 1090.2 2463.76 1090.2 Q2472.88 1090.2 2477.83 1096.61 Q2482.77 1102.96 2482.77 1114.74 L2482.77 1149.94 L2473.14 1149.94 L2473.14 1115.05 Q2473.14 1106.66 2470.17 1102.6 Q2467.2 1098.54 2461.11 1098.54 Q2453.66 1098.54 2449.34 1103.49 Q2445.01 1108.43 2445.01 1116.97 L2445.01 1149.94 L2435.38 1149.94 L2435.38 1115.05 Q2435.38 1106.61 2432.41 1102.6 Q2429.44 1098.54 2423.24 1098.54 Q2415.9 1098.54 2411.58 1103.54 Q2407.25 1108.49 2407.25 1116.97 L2407.25 1149.94 L2397.62 1149.94 L2397.62 1091.61 L2407.25 1091.61 L2407.25 1100.67 Q2410.53 1095.31 2415.12 1092.76 Q2419.7 1090.2 2426 1090.2 Q2432.36 1090.2 2436.78 1093.43 Q2441.26 1096.66 2443.4 1102.81 Z" fill="#000000" fill-rule="nonzero" fill-opacity="1" /><path clip-path="url(#clip820)" d="M2551.78 1118.38 L2551.78 1123.07 L2507.72 1123.07 Q2508.35 1132.96 2513.66 1138.17 Q2519.02 1143.33 2528.55 1143.33 Q2534.08 1143.33 2539.23 1141.97 Q2544.44 1140.62 2549.54 1137.91 L2549.54 1146.97 Q2544.39 1149.16 2538.97 1150.31 Q2533.55 1151.45 2527.98 1151.45 Q2514.02 1151.45 2505.85 1143.33 Q2497.72 1135.2 2497.72 1121.35 Q2497.72 1107.03 2505.43 1098.64 Q2513.19 1090.2 2526.31 1090.2 Q2538.09 1090.2 2544.91 1097.81 Q2551.78 1105.36 2551.78 1118.38 M2542.2 1115.57 Q2542.1 1107.7 2537.77 1103.02 Q2533.5 1098.33 2526.42 1098.33 Q2518.4 1098.33 2513.55 1102.86 Q2508.76 1107.39 2508.03 1115.62 L2542.2 1115.57 Z" fill="#000000" fill-rule="nonzero" fill-opacity="1" /><path clip-path="url(#clip820)" d="M2624.44 1069.01 Q2617.46 1080.99 2614.07 1092.7 Q2610.69 1104.42 2610.69 1116.45 Q2610.69 1128.49 2614.07 1140.31 Q2617.51 1152.08 2624.44 1164.01 L2616.11 1164.01 Q2608.29 1151.77 2604.39 1139.94 Q2600.53 1128.12 2600.53 1116.45 Q2600.53 1104.84 2604.39 1093.07 Q2608.24 1081.3 2616.11 1069.01 L2624.44 1069.01 Z" fill="#000000" fill-rule="nonzero" fill-opacity="1" /><path clip-path="url(#clip820)" d="M2681.42 1100.46 L2681.42 1068.9 L2691 1068.9 L2691 1149.94 L2681.42 1149.94 L2681.42 1141.19 Q2678.4 1146.4 2673.76 1148.95 Q2669.18 1151.45 2662.72 1151.45 Q2652.15 1151.45 2645.48 1143.02 Q2638.87 1134.58 2638.87 1120.83 Q2638.87 1107.08 2645.48 1098.64 Q2652.15 1090.2 2662.72 1090.2 Q2669.18 1090.2 2673.76 1092.76 Q2678.4 1095.26 2681.42 1100.46 M2648.76 1120.83 Q2648.76 1131.4 2653.08 1137.44 Q2657.46 1143.43 2665.06 1143.43 Q2672.67 1143.43 2677.04 1137.44 Q2681.42 1131.4 2681.42 1120.83 Q2681.42 1110.26 2677.04 1104.27 Q2672.67 1098.23 2665.06 1098.23 Q2657.46 1098.23 2653.08 1104.27 Q2648.76 1110.26 2648.76 1120.83 Z" fill="#000000" fill-rule="nonzero" fill-opacity="1" /><path clip-path="url(#clip820)" d="M2737.25 1120.62 Q2725.64 1120.62 2721.16 1123.28 Q2716.68 1125.93 2716.68 1132.34 Q2716.68 1137.44 2720.01 1140.46 Q2723.4 1143.43 2729.18 1143.43 Q2737.15 1143.43 2741.94 1137.81 Q2746.78 1132.13 2746.78 1122.76 L2746.78 1120.62 L2737.25 1120.62 M2756.37 1116.66 L2756.37 1149.94 L2746.78 1149.94 L2746.78 1141.09 Q2743.5 1146.4 2738.61 1148.95 Q2733.71 1151.45 2726.63 1151.45 Q2717.67 1151.45 2712.36 1146.45 Q2707.1 1141.4 2707.1 1132.96 Q2707.1 1123.12 2713.66 1118.12 Q2720.27 1113.12 2733.34 1113.12 L2746.78 1113.12 L2746.78 1112.18 Q2746.78 1105.57 2742.41 1101.98 Q2738.08 1098.33 2730.22 1098.33 Q2725.22 1098.33 2720.48 1099.53 Q2715.74 1100.73 2711.37 1103.12 L2711.37 1094.27 Q2716.63 1092.24 2721.57 1091.25 Q2726.52 1090.2 2731.21 1090.2 Q2743.87 1090.2 2750.12 1096.77 Q2756.37 1103.33 2756.37 1116.66 Z" fill="#000000" fill-rule="nonzero" fill-opacity="1" /><path clip-path="url(#clip820)" d="M2800.38 1155.36 Q2796.31 1165.78 2792.46 1168.95 Q2788.61 1172.13 2782.15 1172.13 L2774.49 1172.13 L2774.49 1164.11 L2780.12 1164.11 Q2784.07 1164.11 2786.26 1162.24 Q2788.45 1160.36 2791.11 1153.38 L2792.82 1149.01 L2769.23 1091.61 L2779.39 1091.61 L2797.62 1137.24 L2815.84 1091.61 L2826 1091.61 L2800.38 1155.36 Z" fill="#000000" fill-rule="nonzero" fill-opacity="1" /><path clip-path="url(#clip820)" d="M2837.72 1069.01 L2846.05 1069.01 Q2853.87 1081.3 2857.72 1093.07 Q2861.63 1104.84 2861.63 1116.45 Q2861.63 1128.12 2857.72 1139.94 Q2853.87 1151.77 2846.05 1164.01 L2837.72 1164.01 Q2844.65 1152.08 2848.03 1140.31 Q2851.47 1128.49 2851.47 1116.45 Q2851.47 1104.42 2848.03 1092.7 Q2844.65 1080.99 2837.72 1069.01 Z" fill="#000000" fill-rule="nonzero" fill-opacity="1" /><polyline clip-path="url(#clip820)" style="stroke:#000000; stroke-linecap:round; stroke-linejoin:round; stroke-width:4; stroke-opacity:1; fill:none" points="404.977,880.951 404.977,47.2441 "/>
<polyline clip-path="url(#clip820)" style="stroke:#000000; stroke-linecap:round; stroke-linejoin:round; stroke-width:4; stroke-opacity:1; fill:none" points="404.977,726.022 423.875,726.022 "/>
<polyline clip-path="url(#clip820)" style="stroke:#000000; stroke-linecap:round; stroke-linejoin:round; stroke-width:4; stroke-opacity:1; fill:none" points="404.977,548.681 423.875,548.681 "/>
<polyline clip-path="url(#clip820)" style="stroke:#000000; stroke-linecap:round; stroke-linejoin:round; stroke-width:4; stroke-opacity:1; fill:none" points="404.977,371.341 423.875,371.341 "/>
<polyline clip-path="url(#clip820)" style="stroke:#000000; stroke-linecap:round; stroke-linejoin:round; stroke-width:4; stroke-opacity:1; fill:none" points="404.977,194 423.875,194 "/>
<path clip-path="url(#clip820)" d="M151.219 726.925 L210.571 726.925 L210.571 734.795 L151.219 734.795 L151.219 726.925 Z" fill="#000000" fill-rule="nonzero" fill-opacity="1" /><path clip-path="url(#clip820)" d="M228.395 691.462 L272.839 691.462 L272.839 695.444 L247.746 760.582 L237.978 760.582 L261.589 699.333 L228.395 699.333 L228.395 691.462 Z" fill="#000000" fill-rule="nonzero" fill-opacity="1" /><path clip-path="url(#clip820)" d="M291.172 691.462 L327.885 691.462 L327.885 699.333 L299.737 699.333 L299.737 716.277 Q301.774 715.583 303.811 715.259 Q305.848 714.888 307.885 714.888 Q319.459 714.888 326.218 721.231 Q332.977 727.573 332.977 738.407 Q332.977 749.564 326.033 755.768 Q319.089 761.925 306.45 761.925 Q302.098 761.925 297.561 761.184 Q293.07 760.443 288.255 758.962 L288.255 749.564 Q292.422 751.832 296.866 752.943 Q301.311 754.055 306.265 754.055 Q314.274 754.055 318.95 749.842 Q323.626 745.629 323.626 738.407 Q323.626 731.184 318.95 726.971 Q314.274 722.758 306.265 722.758 Q302.515 722.758 298.765 723.592 Q295.061 724.425 291.172 726.184 L291.172 691.462 Z" fill="#000000" fill-rule="nonzero" fill-opacity="1" /><path clip-path="url(#clip820)" d="M149.228 549.584 L208.58 549.584 L208.58 557.455 L149.228 557.455 L149.228 549.584 Z" fill="#000000" fill-rule="nonzero" fill-opacity="1" /><path clip-path="url(#clip820)" d="M228.858 514.121 L265.57 514.121 L265.57 521.992 L237.422 521.992 L237.422 538.936 Q239.459 538.242 241.496 537.918 Q243.533 537.547 245.57 537.547 Q257.144 537.547 263.904 543.89 Q270.663 550.232 270.663 561.066 Q270.663 572.223 263.718 578.427 Q256.774 584.584 244.135 584.584 Q239.783 584.584 235.246 583.843 Q230.756 583.103 225.941 581.621 L225.941 572.223 Q230.108 574.492 234.552 575.603 Q238.996 576.714 243.95 576.714 Q251.959 576.714 256.635 572.501 Q261.311 568.288 261.311 561.066 Q261.311 553.843 256.635 549.631 Q251.959 545.418 243.95 545.418 Q240.2 545.418 236.45 546.251 Q232.746 547.084 228.858 548.843 L228.858 514.121 Z" fill="#000000" fill-rule="nonzero" fill-opacity="1" /><path clip-path="url(#clip820)" d="M309.089 520.279 Q301.866 520.279 298.209 527.408 Q294.598 534.492 294.598 548.751 Q294.598 562.964 298.209 570.093 Q301.866 577.177 309.089 577.177 Q316.357 577.177 319.968 570.093 Q323.626 562.964 323.626 548.751 Q323.626 534.492 319.968 527.408 Q316.357 520.279 309.089 520.279 M309.089 512.871 Q320.709 512.871 326.82 522.084 Q332.977 531.251 332.977 548.751 Q332.977 566.205 326.82 575.417 Q320.709 584.584 309.089 584.584 Q297.468 584.584 291.311 575.417 Q285.2 566.205 285.2 548.751 Q285.2 531.251 291.311 522.084 Q297.468 512.871 309.089 512.871 Z" fill="#000000" fill-rule="nonzero" fill-opacity="1" /><path clip-path="url(#clip820)" d="M151.219 372.243 L210.571 372.243 L210.571 380.114 L151.219 380.114 L151.219 372.243 Z" fill="#000000" fill-rule="nonzero" fill-opacity="1" /><path clip-path="url(#clip820)" d="M238.811 398.03 L271.45 398.03 L271.45 405.901 L227.561 405.901 L227.561 398.03 Q232.885 392.521 242.052 383.262 Q251.265 373.956 253.626 371.271 Q258.117 366.225 259.876 362.753 Q261.681 359.234 261.681 355.855 Q261.681 350.345 257.793 346.873 Q253.95 343.401 247.746 343.401 Q243.348 343.401 238.441 344.929 Q233.58 346.456 228.024 349.558 L228.024 340.114 Q233.672 337.845 238.58 336.688 Q243.487 335.531 247.561 335.531 Q258.302 335.531 264.691 340.901 Q271.08 346.271 271.08 355.253 Q271.08 359.512 269.459 363.355 Q267.885 367.151 263.672 372.336 Q262.515 373.679 256.311 380.114 Q250.107 386.503 238.811 398.03 Z" fill="#000000" fill-rule="nonzero" fill-opacity="1" /><path clip-path="url(#clip820)" d="M291.172 336.781 L327.885 336.781 L327.885 344.651 L299.737 344.651 L299.737 361.595 Q301.774 360.901 303.811 360.577 Q305.848 360.206 307.885 360.206 Q319.459 360.206 326.218 366.549 Q332.977 372.891 332.977 383.725 Q332.977 394.882 326.033 401.086 Q319.089 407.243 306.45 407.243 Q302.098 407.243 297.561 406.502 Q293.07 405.762 288.255 404.28 L288.255 394.882 Q292.422 397.151 296.866 398.262 Q301.311 399.373 306.265 399.373 Q314.274 399.373 318.95 395.16 Q323.626 390.947 323.626 383.725 Q323.626 376.503 318.95 372.29 Q314.274 368.077 306.265 368.077 Q302.515 368.077 298.765 368.91 Q295.061 369.743 291.172 371.503 L291.172 336.781 Z" fill="#000000" fill-rule="nonzero" fill-opacity="1" /><path clip-path="url(#clip820)" d="M309.089 165.597 Q301.866 165.597 298.209 172.727 Q294.598 179.81 294.598 194.069 Q294.598 208.282 298.209 215.412 Q301.866 222.495 309.089 222.495 Q316.357 222.495 319.968 215.412 Q323.626 208.282 323.626 194.069 Q323.626 179.81 319.968 172.727 Q316.357 165.597 309.089 165.597 M309.089 158.19 Q320.709 158.19 326.82 167.403 Q332.977 176.569 332.977 194.069 Q332.977 211.523 326.82 220.736 Q320.709 229.902 309.089 229.902 Q297.468 229.902 291.311 220.736 Q285.2 211.523 285.2 194.069 Q285.2 176.569 291.311 167.403 Q297.468 158.19 309.089 158.19 Z" fill="#000000" fill-rule="nonzero" fill-opacity="1" /><path clip-path="url(#clip822)" d="M528.028 214.061 L545.118 240.568 L562.208 269.576 L579.299 300.124 L596.389 329.366 L613.479 357.997 L630.57 376.706 L647.66 387.062 L664.75 375.256 L681.841 356.546 L698.931 347.181 L716.021 335.117 L733.112 329.474 L750.202 332.094 L767.292 340.822 L784.383 352.663 L801.473 364.185 L818.563 375.386 L835.654 384.931 L852.744 396.646 L869.834 409.024 L886.925 418.062 L904.015 415.916 L921.105 406.348 L938.195 415.467 L955.286 441.885 L972.376 470.862 L989.466 501.52 L1006.56 530.946 L1023.65 556.992 L1040.74 569.378 L1057.83 570.229 L1074.92 548.587 L1092.01 516.46 L1109.1 496.176 L1126.19 477.442 L1143.28 461.272 L1160.37 452.227 L1177.46 448.912 L1194.55 450.434 L1211.64 452.18 L1228.73 457.211 L1245.82 463.39 L1262.91 474.793 L1280 486.118 L1297.09 494.351 L1314.18 491.332 L1331.27 480.701 L1348.36 482.475 L1365.45 508.704 L1382.54 537.578 L1399.63 568.261 L1416.72 597.781 L1433.81 624.084 L1450.91 637.306 L1468 636.886 L1485.09 612.305 L1502.18 583.249 L1519.27 558.463 L1536.36 534.247 L1553.45 512.603 L1570.54 498.609 L1587.63 490.926 L1604.72 488.562 L1621.81 487.082 L1638.9 489.77 L1655.99 493.777 L1673.08 503.973 L1690.17 515.538 L1707.26 524.039 L1724.35 521.056 L1741.44 510.187 L1758.53 506.397 L1775.62 532.632 L1792.71 561.59 L1809.8 592.388 L1826.89 622.076 L1843.98 648.49 L1861.07 661.351 L1878.16 661.541 L1895.25 646.22 L1912.34 613.561 L1929.43 586.869 L1946.52 561.289 L1963.61 538.135 L1980.71 522.616 L1997.8 513.796 L2014.89 510.098 L2031.98 507.31 L2049.07 508.78 L2066.16 512.491 L2083.25 522.986 L2100.34 534.97 L2117.43 543.948 L2134.52 541.206 L2151.61 530.829 L2168.7 532.82 L2185.79 549.705 L2202.88 573.819 L2219.97 604.823 L2237.06 634.65 L2254.15 661.795 L2271.24 683.052 L2288.33 692.705 L2305.42 677.157 L2322.51 644.205 L2339.6 613.765 L2356.69 584.617 L2373.78 558.225 L2390.87 540.449 L2407.96 530.755 L2425.05 526.356 L2442.14 523.13 L2459.23 524.601 L2476.32 528.706 L2493.42 539.65 L2510.51 552.017 L2527.6 561.402 L2544.69 558.843 L2561.78 555.438 L2578.87 557.694 L2595.96 574.795 L2613.05 597.121 L2630.14 624.839 L2647.23 655.803 L2664.32 688.399 L2681.41 710.397 L2698.5 720.749 L2715.59 706.31 L2732.68 673.206 L2749.77 642.821 L2766.86 613.042 L2783.95 585.821 L2801.04 565.432 L2818.13 551.162 L2835.22 541.721 L2852.31 537.143 L2869.4 538.535 L2886.49 541.4 L2903.58 554.577 L2920.67 570.627 L2937.76 582.628 L2954.85 580.846 L2971.94 580.62 L2989.03 583.096 L3006.12 600.407 L3023.22 622.911 L3040.31 650.92 L3057.4 682.365 L3074.49 715.528 L3091.58 738.816 L3108.67 749.613 L3125.76 734.227 L3142.85 701.921 L3159.94 670.814 L3177.03 640.261 L3194.12 611.909 L3211.21 590.452 L3228.3 575.119 L3245.39 564.717 L3262.48 558.469 L3279.57 560.822 L3296.66 567.628 L3313.75 582.951 L3330.84 600.178 L3347.93 613.396 L3365.02 612.476 L3382.11 603.849 L3399.2 606.524 L3416.29 624.033 L3433.38 646.708 L3450.47 674.995 L3467.56 706.895 L3484.65 740.855 L3501.74 764.148 L3518.83 776.09 L3535.92 763.381 L3553.02 733.215 L3570.11 704.652 L3587.2 673.428 L3604.29 643.059 L3621.38 619.763 L3638.47 603.944 L3655.56 594.434 L3672.65 588.815 L3689.74 590.864 L3706.83 598.427 L3723.92 614.972 L3741.01 633.691 L3758.1 648.499 L3775.19 648.736 L3792.28 637.873 L3809.37 632.741 L3826.46 650.54 L3843.55 673.484 L3860.64 702.127 L3877.73 734.577 L3894.82 769.322 L3911.91 793.294 L3929 806.853 L3946.09 802.955 L3963.18 778.079 L3980.27 749.678 L3997.36 717.9 L4014.45 686.311 L4031.54 661.474 L4048.63 643.912 L4065.72 632.887 L4082.82 626.166 L4099.91 627.852 L4117 635.859 L4134.09 653.766 L4151.18 674.232 L4168.27 690.81 L4185.36 692.329 L4202.45 682.08 L4219.54 670.928 L4236.63 678.722 L4253.72 700.093 L4270.81 728.991 L4287.9 761.917 L4304.99 797.413 L4322.08 831.795 L4339.17 857.356 L4356.26 855.316 L4373.35 829.49 L4390.44 801.907 L4407.53 770.16 L4424.62 736.922 L4441.71 710.588 L4458.8 691.51 L4475.89 679.8 L4492.98 671.769 L4510.07 672.825 L4527.16 681.141 L4544.25 701.084 L4561.34 723.801 L4578.43 742.606 L4595.52 745.701 L4612.62 736.215 L4629.71 725.093 L4629.71 80.9147 L4612.62 81.742 L4595.52 85.2388 L4578.43 88.1462 L4561.34 88.5646 L4544.25 89.1304 L4527.16 90.1417 L4510.07 93.425 L4492.98 95.785 L4475.89 97.0874 L4458.8 94.6222 L4441.71 90.6092 L4424.62 87.272 L4407.53 87.6974 L4390.44 92.824 L4373.35 104.037 L4356.26 121.833 L4339.17 135.374 L4322.08 138.125 L4304.99 134.598 L4287.9 123.882 L4270.81 111.48 L4253.72 98.7273 L4236.63 87.8643 L4219.54 80.2574 L4202.45 81.1585 L4185.36 84.6967 L4168.27 87.5485 L4151.18 87.8979 L4134.09 88.3923 L4117 89.3397 L4099.91 92.5614 L4082.82 94.8076 L4065.72 96.187 L4048.63 93.6633 L4031.54 89.409 L4014.45 85.9485 L3997.36 86.1038 L3980.27 91.2095 L3963.18 102.372 L3946.09 120.121 L3929 133.549 L3911.91 136.212 L3894.82 132.662 L3877.73 121.933 L3860.64 109.512 L3843.55 96.7216 L3826.46 85.7984 L3809.37 78.1784 L3792.28 79.0531 L3775.19 82.5981 L3758.1 85.4535 L3741.01 85.7985 L3723.92 86.2991 L3706.83 87.3526 L3689.74 90.5356 L3672.65 92.6822 L3655.56 93.9853 L3638.47 91.5543 L3621.38 87.5505 L3604.29 84.132 L3587.2 84.4326 L3570.11 89.2967 L3553.02 100.176 L3535.92 117.959 L3518.83 131.522 L3501.74 134.348 L3484.65 130.874 L3467.56 120.124 L3450.47 107.645 L3433.38 94.76 L3416.29 83.7051 L3399.2 75.8875 L3382.11 76.7684 L3365.02 80.3411 L3347.93 83.2252 L3330.84 83.6002 L3313.75 84.1068 L3296.66 85.0825 L3279.57 87.6678 L3262.48 89.8528 L3245.39 91.5533 L3228.3 88.8262 L3211.21 84.3807 L3194.12 80.9029 L3177.03 81.0201 L3159.94 86.0825 L3142.85 97.323 L3125.76 115.162 L3108.67 128.736 L3091.58 131.55 L3074.49 128.12 L3057.4 117.46 L3040.31 105.066 L3023.22 92.2924 L3006.12 81.3631 L2989.03 73.6329 L2971.94 74.5243 L2954.85 78.1218 L2937.76 81.0149 L2920.67 81.4774 L2903.58 81.9615 L2886.49 82.2443 L2869.4 84.5726 L2852.31 86.7784 L2835.22 88.5897 L2818.13 86.6045 L2801.04 82.1179 L2783.95 78.4127 L2766.86 78.2086 L2749.77 83.2277 L2732.68 94.3795 L2715.59 112.112 L2698.5 125.661 L2681.41 128.647 L2664.32 125.381 L2647.23 114.831 L2630.14 102.559 L2613.05 89.9097 L2595.96 79.1137 L2578.87 71.535 L2561.78 72.4847 L2544.69 76.1276 L2527.6 79.0597 L2510.51 79.4733 L2493.42 80.0423 L2476.32 80.4689 L2459.23 82.9445 L2442.14 85.3402 L2425.05 87.3438 L2407.96 84.8855 L2390.87 80.7401 L2373.78 77.143 L2356.69 77.2437 L2339.6 81.5538 L2322.51 92.606 L2305.42 110.527 L2288.33 124.284 L2271.24 127.362 L2254.15 124.173 L2237.06 113.734 L2219.97 101.566 L2202.88 89.0131 L2185.79 78.3137 L2168.7 70.8396 L2151.61 71.8476 L2134.52 75.5266 L2117.43 78.4523 L2100.34 78.8765 L2083.25 79.2839 L2066.16 80.2811 L2049.07 83.4856 L2031.98 85.6996 L2014.89 86.9736 L1997.8 84.2597 L1980.71 80.7405 L1963.61 77.4271 L1946.52 77.811 L1929.43 82.4259 L1912.34 93.7367 L1895.25 111.966 L1878.16 125.963 L1861.07 129.206 L1843.98 126.262 L1826.89 116.07 L1809.8 104.142 L1792.71 91.8396 L1775.62 81.4036 L1758.53 74.2037 L1741.44 75.5095 L1724.35 79.481 L1707.26 82.7936 L1690.17 83.6091 L1673.08 84.6072 L1655.99 86.0805 L1638.9 89.7736 L1621.81 92.4765 L1604.72 94.3295 L1587.63 92.018 L1570.54 88.1037 L1553.45 85.0865 L1536.36 85.7423 L1519.27 90.7279 L1502.18 102.402 L1485.09 120.831 L1468 135.093 L1450.91 138.637 L1433.81 135.93 L1416.72 126.054 L1399.63 114.495 L1382.54 102.577 L1365.45 92.5677 L1348.36 85.8289 L1331.27 87.6823 L1314.18 92.2937 L1297.09 96.3008 L1280 97.9698 L1262.91 99.7162 L1245.82 101.212 L1228.73 103.946 L1211.64 106.622 L1194.55 108.999 L1177.46 108.905 L1160.37 108.379 L1143.28 106.359 L1126.19 108.095 L1109.1 114.281 L1092.01 126.747 L1074.92 145.87 L1057.83 160.769 L1040.74 164.958 L1023.65 162.892 L1006.56 153.488 L989.466 139.372 L972.376 124.864 L955.286 113.427 L938.195 107.883 L921.105 114.054 L904.015 125.285 L886.925 130.542 L869.834 131.76 L852.744 130.662 L835.654 131.445 L818.563 135.524 L801.473 139.435 L784.383 142.967 L767.292 144.11 L750.202 137.037 L733.112 134.667 L716.021 141.157 L698.931 154.552 L681.841 169.672 L664.75 192.216 L647.66 211.058 L630.57 219.484 L613.479 220.188 L596.389 213.971 L579.299 205.388 L562.208 192.634 L545.118 182.994 L528.028 178.94  Z" fill="#aeaeae" fill-rule="evenodd" fill-opacity="0.5"/>
<polyline clip-path="url(#clip822)" style="stroke:#aeaeae; stroke-linecap:round; stroke-linejoin:round; stroke-width:0; stroke-opacity:1; fill:none" points="528.028,191.513 545.118,195.914 562.208,202.31 579.299,209.77 596.389,216.919 613.479,222.971 630.57,224.562 647.66,222.249 664.75,213.576 681.841,202.372 698.931,195.056 716.021,190.601 733.112,188.729 750.202,189.735 767.292,192.255 784.383,195.042 801.473,196.381 818.563,196.944 835.654,196.386 852.744,196.52 869.834,196.615 886.925,196.438 904.015,194.406 921.105,191.66 938.195,190.508 955.286,194.749 972.376,201.093 989.466,208.565 1006.56,215.764 1023.65,221.898 1040.74,223.559 1057.83,221.279 1074.92,212.516 1092.01,201.166 1109.1,193.759 1126.19,189.311 1143.28,187.491 1160.37,188.537 1177.46,191.066 1194.55,193.812 1211.64,195.103 1228.73,195.619 1245.82,195.043 1262.91,195.28 1280,195.53 1297.09,195.513 1314.18,193.627 1331.27,191.007 1348.36,189.969 1365.45,194.321 1382.54,200.771 1399.63,208.345 1416.72,215.642 1433.81,221.877 1450.91,223.629 1468,221.423 1485.09,212.655 1502.18,201.239 1519.27,193.773 1536.36,189.292 1553.45,187.442 1570.54,188.458 1587.63,190.969 1604.72,193.69 1621.81,194.967 1638.9,195.486 1655.99,194.949 1673.08,195.241 1690.17,195.568 1707.26,195.635 1724.35,193.821 1741.44,191.27 1758.53,190.291 1775.62,194.705 1792.71,201.214 1809.8,208.847 1826.89,216.208 1843.98,222.51 1861.07,224.324 1878.16,222.158 1895.25,213.412 1912.34,202.001 1929.43,194.516 1946.52,190.008 1963.61,188.15 1980.71,189.154 1997.8,191.638 2014.89,194.356 2031.98,195.629 2049.07,196.138 2066.16,195.615 2083.25,195.946 2100.34,196.314 2117.43,196.429 2134.52,194.66 2151.61,192.142 2168.7,191.195 2185.79,195.644 2202.88,202.189 2219.97,209.859 2237.06,217.26 2254.15,223.599 2271.24,225.461 2288.33,223.335 2305.42,214.608 2322.51,203.197 2339.6,195.697 2356.69,191.172 2373.78,189.285 2390.87,190.261 2407.96,192.72 2425.05,195.406 2442.14,196.655 2459.23,197.172 2476.32,196.651 2493.42,196.98 2510.51,197.357 2527.6,197.486 2544.69,195.73 2561.78,193.227 2578.87,192.29 2595.96,196.751 2613.05,203.307 2630.14,210.992 2647.23,218.405 2664.32,224.768 2681.41,226.664 2698.5,224.576 2715.59,215.869 2732.68,204.465 2749.77,196.944 2766.86,192.385 2783.95,190.468 2801.04,191.413 2818.13,193.848 2835.22,196.518 2852.31,197.738 2869.4,198.235 2886.49,197.686 2903.58,198.005 2920.67,198.39 2937.76,198.521 2954.85,196.767 2971.94,194.269 2989.03,193.339 3006.12,197.807 3023.22,204.366 3040.31,212.059 3057.4,219.491 3074.49,225.868 3091.58,227.773 3108.67,225.688 3125.76,216.98 3142.85,205.581 3159.94,198.044 3177.03,193.463 3194.12,191.514 3211.21,192.431 3228.3,194.84 3245.39,197.478 3262.48,198.687 3279.57,199.157 3296.66,198.609 3313.75,198.94 3330.84,199.327 3347.93,199.465 3365.02,197.722 3382.11,195.23 3399.2,194.304 3416.29,198.782 3433.38,205.355 3450.47,213.065 3467.56,220.501 3484.65,226.893 3501.74,228.816 3518.83,226.741 3535.92,218.022 3553.02,206.597 3570.11,199.046 3587.2,194.445 3604.29,192.474 3621.38,193.366 3638.47,195.754 3655.56,198.372 3672.65,199.554 3689.74,200.022 3706.83,199.459 3723.92,199.768 3741.01,200.148 3758.1,200.289 3775.19,198.544 3792.28,196.05 3809.37,195.12 3826.46,199.592 3843.55,206.161 3860.64,213.865 3877.73,221.31 3894.82,227.709 3911.91,229.638 3929,227.564 3946.09,218.88 3963.18,207.428 3980.27,199.872 3997.36,195.257 4014.45,193.277 4031.54,194.152 4048.63,196.521 4065.72,199.116 4082.82,200.248 4099.91,200.69 4117,200.124 4134.09,200.453 4151.18,200.842 4168.27,200.986 4185.36,199.253 4202.45,196.765 4219.54,195.835 4236.63,200.307 4253.72,206.874 4270.81,214.58 4287.9,222.026 4304.99,228.437 4322.08,230.361 4339.17,228.304 4356.26,219.597 4373.35,208.17 4390.44,200.59 4407.53,195.951 4424.62,193.942 4441.71,194.794 4458.8,197.142 4475.89,199.727 4492.98,200.858 4510.07,201.279 4527.16,200.706 4544.25,201.031 4561.34,201.422 4578.43,201.57 4595.52,199.834 4612.62,197.343 4629.71,196.41 "/>
<path clip-path="url(#clip822)" d="M528.028 201.385 L545.118 213.555 L562.208 231.342 L579.299 253.945 L596.389 277.788 L613.479 301.182 L630.57 312.481 L647.66 316.998 L664.75 300.762 L681.841 276.5 L698.931 261.155 L716.021 248.805 L733.112 243.94 L750.202 246.21 L767.292 250.76 L784.383 258.519 L801.473 264.019 L818.563 270.883 L835.654 274.61 L852.744 278.65 L869.834 280.406 L886.925 283.281 L904.015 281.6 L921.105 279.802 L938.195 280.134 L955.286 294.787 L972.376 311.068 L989.466 332.632 L1006.56 355.395 L1023.65 376.509 L1040.74 385.404 L1057.83 385.383 L1074.92 367.134 L1092.01 339.275 L1109.1 320.427 L1126.19 304.228 L1143.28 293.691 L1160.37 294.586 L1177.46 293.491 L1194.55 295.506 L1211.64 293.888 L1228.73 294.615 L1245.82 295.202 L1262.91 297.8 L1280 304.177 L1297.09 306.818 L1314.18 307.804 L1331.27 306.776 L1348.36 303.006 L1365.45 314.43 L1382.54 334.024 L1399.63 356.845 L1416.72 380.413 L1433.81 400.783 L1450.91 410.78 L1468 412.506 L1485.09 392.32 L1502.18 365.351 L1519.27 338.913 L1536.36 318.851 L1553.45 311.172 L1570.54 306.129 L1587.63 306.136 L1604.72 305.557 L1621.81 303.954 L1638.9 303.586 L1655.99 303.318 L1673.08 306.068 L1690.17 311.533 L1707.26 316.498 L1724.35 316.035 L1741.44 315.059 L1758.53 310.381 L1775.62 321.796 L1792.71 340.143 L1809.8 363.018 L1826.89 387.748 L1843.98 408.487 L1861.07 418.733 L1878.16 418.226 L1895.25 401.321 L1912.34 372.133 L1929.43 347.057 L1946.52 324.771 L1963.61 313.936 L1980.71 309.3 L1997.8 308.948 L2014.89 310.133 L2031.98 309.145 L2049.07 307.104 L2066.16 306.207 L2083.25 310.3 L2100.34 315.907 L2117.43 321.057 L2134.52 320.232 L2151.61 317.491 L2168.7 321.002 L2185.79 328.301 L2202.88 344.118 L2219.97 367.068 L2237.06 393.269 L2254.15 413.006 L2271.24 421.738 L2288.33 422.65 L2305.42 405.039 L2322.51 378.869 L2339.6 352.001 L2356.69 328.818 L2373.78 317.206 L2390.87 311.695 L2407.96 311.036 L2425.05 312.911 L2442.14 312.495 L2459.23 310.51 L2476.32 310.032 L2493.42 313.969 L2510.51 318.326 L2527.6 324.637 L2544.69 322.395 L2561.78 322.188 L2578.87 325.125 L2595.96 337.393 L2613.05 351.033 L2630.14 371.532 L2647.23 396.262 L2664.32 415.356 L2681.41 423.45 L2698.5 425.447 L2715.59 409.564 L2732.68 383.158 L2749.77 354.578 L2766.86 332.685 L2783.95 319.082 L2801.04 314.616 L2818.13 315.798 L2835.22 315.499 L2852.31 314.965 L2869.4 312.64 L2886.49 310.41 L2903.58 315.113 L2920.67 320.386 L2937.76 325.529 L2954.85 324.811 L2971.94 325.487 L2989.03 326.997 L3006.12 340.348 L3023.22 357.166 L3040.31 375.456 L3057.4 398.993 L3074.49 418.604 L3091.58 425.732 L3108.67 427.813 L3125.76 413.057 L3142.85 384.524 L3159.94 354.963 L3177.03 334.903 L3194.12 321.718 L3211.21 315.708 L3228.3 317.151 L3245.39 316.65 L3262.48 316.577 L3279.57 314.448 L3296.66 312.253 L3313.75 316.716 L3330.84 322.272 L3347.93 326.072 L3365.02 325.538 L3382.11 327.047 L3399.2 328.069 L3416.29 342.915 L3433.38 360.082 L3450.47 379.499 L3467.56 400.02 L3484.65 420.373 L3501.74 427.015 L3518.83 429.519 L3535.92 414.28 L3553.02 385.934 L3570.11 357.355 L3587.2 337.124 L3604.29 322.355 L3621.38 316.543 L3638.47 317.904 L3655.56 318.307 L3672.65 317.945 L3689.74 315.735 L3706.83 314.008 L3723.92 319.063 L3741.01 323.951 L3758.1 327.39 L3775.19 326.726 L3792.28 327.9 L3809.37 328.969 L3826.46 343.731 L3843.55 361.214 L3860.64 381.302 L3877.73 401.178 L3894.82 420.962 L3911.91 428.515 L3929 431.576 L3946.09 414.401 L3963.18 385.748 L3980.27 357.783 L3997.36 338.862 L4014.45 322.523 L4031.54 317.42 L4048.63 318.468 L4065.72 319.564 L4082.82 319.43 L4099.91 317.49 L4117 315.079 L4134.09 320.019 L4151.18 325.237 L4168.27 328.394 L4185.36 328.034 L4202.45 329.411 L4219.54 332.247 L4236.63 343.415 L4253.72 360.973 L4270.81 382.688 L4287.9 401.594 L4304.99 422.596 L4322.08 431.554 L4339.17 431.344 L4356.26 414.557 L4373.35 386.836 L4390.44 359.199 L4407.53 340.951 L4424.62 324.496 L4441.71 319.092 L4458.8 318.957 L4475.89 320.455 L4492.98 320.753 L4510.07 318.705 L4527.16 316.987 L4544.25 320.743 L4561.34 326.566 L4578.43 330.42 L4595.52 331.19 L4612.62 330.318 L4629.71 333.896 L4629.71 119.047 L4612.62 121.703 L4595.52 127.47 L4578.43 130.604 L4561.34 130.02 L4544.25 129.343 L4527.16 131.141 L4510.07 134.138 L4492.98 136.648 L4475.89 136.973 L4458.8 133.847 L4441.71 127.096 L4424.62 123.551 L4407.53 123.993 L4390.44 130.143 L4373.35 141.814 L4356.26 160.961 L4339.17 176.47 L4322.08 180.569 L4304.99 177.536 L4287.9 165.636 L4270.81 152.118 L4253.72 137.286 L4236.63 125.087 L4219.54 117.812 L4202.45 120.066 L4185.36 126.557 L4168.27 129.094 L4151.18 128.283 L4134.09 127.487 L4117 128.899 L4099.91 132.154 L4082.82 134.119 L4065.72 134.138 L4048.63 131.473 L4031.54 125.439 L4014.45 122.187 L3997.36 122.996 L3980.27 127.75 L3963.18 139.798 L3946.09 158.682 L3929 174.341 L3911.91 178.319 L3894.82 175.734 L3877.73 164.442 L3860.64 150.587 L3843.55 136.247 L3826.46 124.692 L3809.37 116.478 L3792.28 119.316 L3775.19 124.841 L3758.1 127.305 L3741.01 125.627 L3723.92 125.255 L3706.83 126.814 L3689.74 129.966 L3672.65 132.256 L3655.56 132.121 L3638.47 128.578 L3621.38 123.365 L3604.29 119.996 L3587.2 121.197 L3570.11 126.421 L3553.02 137.637 L3535.92 156.883 L3518.83 172.755 L3501.74 176.24 L3484.65 173.677 L3467.56 162.444 L3450.47 148.25 L3433.38 134.4 L3416.29 122.779 L3399.2 114.407 L3382.11 117.381 L3365.02 122.686 L3347.93 125.559 L3330.84 122.857 L3313.75 122.65 L3296.66 123.454 L3279.57 126.076 L3262.48 128.201 L3245.39 129.389 L3228.3 126.116 L3211.21 120.628 L3194.12 117.65 L3177.03 119.027 L3159.94 124.255 L3142.85 134.954 L3125.76 153.95 L3108.67 169.43 L3091.58 173.753 L3074.49 170.264 L3057.4 159.627 L3040.31 146.257 L3023.22 131.349 L3006.12 119.698 L2989.03 111.905 L2971.94 114.648 L2954.85 119.714 L2937.76 122.697 L2920.67 120.162 L2903.58 119.612 L2886.49 119.706 L2869.4 122.62 L2852.31 124.726 L2835.22 126.025 L2818.13 122.991 L2801.04 118.641 L2783.95 115.406 L2766.86 116.406 L2749.77 122.29 L2732.68 132.194 L2715.59 151.506 L2698.5 166.875 L2681.41 170.678 L2664.32 167.764 L2647.23 156.979 L2630.14 143.548 L2613.05 129.04 L2595.96 117.333 L2578.87 110.022 L2561.78 112.422 L2544.69 117.257 L2527.6 119.334 L2510.51 117.402 L2493.42 117.227 L2476.32 117.643 L2459.23 120.11 L2442.14 122.053 L2425.05 123.099 L2407.96 120.405 L2390.87 115.513 L2373.78 112.56 L2356.69 113.872 L2339.6 119.248 L2322.51 130.246 L2305.42 148.607 L2288.33 164.516 L2271.24 168.339 L2254.15 165.13 L2237.06 154.552 L2219.97 141.404 L2202.88 127.845 L2185.79 116.247 L2168.7 108.366 L2151.61 110.727 L2134.52 115.649 L2117.43 118.036 L2100.34 116.117 L2083.25 116.256 L2066.16 116.761 L2049.07 118.752 L2031.98 120.618 L2014.89 122.174 L1997.8 119.757 L1980.71 114.772 L1963.61 111.505 L1946.52 112.604 L1929.43 118.682 L1912.34 129.885 L1895.25 149.045 L1878.16 163.915 L1861.07 167.964 L1843.98 165.146 L1826.89 154.408 L1809.8 140.972 L1792.71 127.778 L1775.62 116.204 L1758.53 108.411 L1741.44 110.702 L1724.35 115.848 L1707.26 119.732 L1690.17 116.899 L1673.08 117.324 L1655.99 117.849 L1638.9 120.485 L1621.81 122.431 L1604.72 123.988 L1587.63 122.907 L1570.54 117.114 L1553.45 114.024 L1536.36 115.225 L1519.27 121.98 L1502.18 133.234 L1485.09 152.612 L1468 167.904 L1450.91 171.622 L1433.81 170.057 L1416.72 159.458 L1399.63 146.152 L1382.54 132.803 L1365.45 120.965 L1348.36 113.759 L1331.27 116.965 L1314.18 123.107 L1297.09 127.042 L1280 128.241 L1262.91 127.787 L1245.82 128.222 L1228.73 131.065 L1211.64 133.676 L1194.55 135.444 L1177.46 132.125 L1160.37 127.5 L1143.28 125.264 L1126.19 127.474 L1109.1 134.584 L1092.01 147.402 L1074.92 167.433 L1057.83 183.409 L1040.74 188.15 L1023.65 185.885 L1006.56 175.427 L989.466 161.955 L972.376 147.794 L955.286 135.673 L938.195 129.335 L921.105 134.94 L904.015 142.305 L886.925 148.383 L869.834 150.411 L852.744 149.94 L835.654 150.976 L818.563 154.961 L801.473 158.567 L784.383 159.913 L767.292 157.144 L750.202 153.688 L733.112 152.279 L716.021 157.002 L698.931 167.135 L681.841 182.174 L664.75 203.669 L647.66 221.452 L630.57 228.111 L613.479 228.496 L596.389 221.332 L579.299 210.502 L562.208 197.632 L545.118 187.124 L528.028 181.813  Z" fill="#757575" fill-rule="evenodd" fill-opacity="0.5"/>
<polyline clip-path="url(#clip822)" style="stroke:#757575; stroke-linecap:round; stroke-linejoin:round; stroke-width:0; stroke-opacity:1; fill:none" points="528.028,191.513 545.118,195.914 562.208,202.31 579.299,209.77 596.389,216.919 613.479,222.971 630.57,224.562 647.66,222.249 664.75,213.576 681.841,202.372 698.931,195.056 716.021,190.601 733.112,188.729 750.202,189.735 767.292,192.255 784.383,195.042 801.473,196.381 818.563,196.944 835.654,196.386 852.744,196.52 869.834,196.615 886.925,196.438 904.015,194.406 921.105,191.66 938.195,190.508 955.286,194.749 972.376,201.093 989.466,208.565 1006.56,215.764 1023.65,221.898 1040.74,223.559 1057.83,221.279 1074.92,212.516 1092.01,201.166 1109.1,193.759 1126.19,189.311 1143.28,187.491 1160.37,188.537 1177.46,191.066 1194.55,193.812 1211.64,195.103 1228.73,195.619 1245.82,195.043 1262.91,195.28 1280,195.53 1297.09,195.513 1314.18,193.627 1331.27,191.007 1348.36,189.969 1365.45,194.321 1382.54,200.771 1399.63,208.345 1416.72,215.642 1433.81,221.877 1450.91,223.629 1468,221.423 1485.09,212.655 1502.18,201.239 1519.27,193.773 1536.36,189.292 1553.45,187.442 1570.54,188.458 1587.63,190.969 1604.72,193.69 1621.81,194.967 1638.9,195.486 1655.99,194.949 1673.08,195.241 1690.17,195.568 1707.26,195.635 1724.35,193.821 1741.44,191.27 1758.53,190.291 1775.62,194.705 1792.71,201.214 1809.8,208.847 1826.89,216.208 1843.98,222.51 1861.07,224.324 1878.16,222.158 1895.25,213.412 1912.34,202.001 1929.43,194.516 1946.52,190.008 1963.61,188.15 1980.71,189.154 1997.8,191.638 2014.89,194.356 2031.98,195.629 2049.07,196.138 2066.16,195.615 2083.25,195.946 2100.34,196.314 2117.43,196.429 2134.52,194.66 2151.61,192.142 2168.7,191.195 2185.79,195.644 2202.88,202.189 2219.97,209.859 2237.06,217.26 2254.15,223.599 2271.24,225.461 2288.33,223.335 2305.42,214.608 2322.51,203.197 2339.6,195.697 2356.69,191.172 2373.78,189.285 2390.87,190.261 2407.96,192.72 2425.05,195.406 2442.14,196.655 2459.23,197.172 2476.32,196.651 2493.42,196.98 2510.51,197.357 2527.6,197.486 2544.69,195.73 2561.78,193.227 2578.87,192.29 2595.96,196.751 2613.05,203.307 2630.14,210.992 2647.23,218.405 2664.32,224.768 2681.41,226.664 2698.5,224.576 2715.59,215.869 2732.68,204.465 2749.77,196.944 2766.86,192.385 2783.95,190.468 2801.04,191.413 2818.13,193.848 2835.22,196.518 2852.31,197.738 2869.4,198.235 2886.49,197.686 2903.58,198.005 2920.67,198.39 2937.76,198.521 2954.85,196.767 2971.94,194.269 2989.03,193.339 3006.12,197.807 3023.22,204.366 3040.31,212.059 3057.4,219.491 3074.49,225.868 3091.58,227.773 3108.67,225.688 3125.76,216.98 3142.85,205.581 3159.94,198.044 3177.03,193.463 3194.12,191.514 3211.21,192.431 3228.3,194.84 3245.39,197.478 3262.48,198.687 3279.57,199.157 3296.66,198.609 3313.75,198.94 3330.84,199.327 3347.93,199.465 3365.02,197.722 3382.11,195.23 3399.2,194.304 3416.29,198.782 3433.38,205.355 3450.47,213.065 3467.56,220.501 3484.65,226.893 3501.74,228.816 3518.83,226.741 3535.92,218.022 3553.02,206.597 3570.11,199.046 3587.2,194.445 3604.29,192.474 3621.38,193.366 3638.47,195.754 3655.56,198.372 3672.65,199.554 3689.74,200.022 3706.83,199.459 3723.92,199.768 3741.01,200.148 3758.1,200.289 3775.19,198.544 3792.28,196.05 3809.37,195.12 3826.46,199.592 3843.55,206.161 3860.64,213.865 3877.73,221.31 3894.82,227.709 3911.91,229.638 3929,227.564 3946.09,218.88 3963.18,207.428 3980.27,199.872 3997.36,195.257 4014.45,193.277 4031.54,194.152 4048.63,196.521 4065.72,199.116 4082.82,200.248 4099.91,200.69 4117,200.124 4134.09,200.453 4151.18,200.842 4168.27,200.986 4185.36,199.253 4202.45,196.765 4219.54,195.835 4236.63,200.307 4253.72,206.874 4270.81,214.58 4287.9,222.026 4304.99,228.437 4322.08,230.361 4339.17,228.304 4356.26,219.597 4373.35,208.17 4390.44,200.59 4407.53,195.951 4424.62,193.942 4441.71,194.794 4458.8,197.142 4475.89,199.727 4492.98,200.858 4510.07,201.279 4527.16,200.706 4544.25,201.031 4561.34,201.422 4578.43,201.57 4595.52,199.834 4612.62,197.343 4629.71,196.41 "/>
<path clip-path="url(#clip822)" d="M528.028 196.565 L545.118 207.572 L562.208 222.596 L579.299 242.979 L596.389 264.262 L613.479 284.207 L630.57 292.924 L647.66 292.078 L664.75 274.933 L681.841 249.55 L698.931 233.07 L716.021 221.523 L733.112 218.317 L750.202 222.148 L767.292 228.712 L784.383 236.205 L801.473 242.527 L818.563 245.04 L835.654 245.651 L852.744 247.761 L869.834 251.568 L886.925 253.16 L904.015 244.207 L921.105 240.717 L938.195 239.416 L955.286 250.355 L972.376 264.553 L989.466 280.59 L1006.56 299.272 L1023.65 317.216 L1040.74 325.997 L1057.83 327.871 L1074.92 307.169 L1092.01 278.134 L1109.1 258.244 L1126.19 245.597 L1143.28 240.703 L1160.37 241.11 L1177.46 246.385 L1194.55 251.96 L1211.64 256.319 L1228.73 258.779 L1245.82 258.687 L1262.91 260.788 L1280 262.621 L1297.09 262.329 L1314.18 253.95 L1331.27 249.463 L1348.36 250.417 L1365.45 260.205 L1382.54 272.541 L1399.63 289.668 L1416.72 309.681 L1433.81 327.478 L1450.91 334.143 L1468 335.932 L1485.09 317.741 L1502.18 285.474 L1519.27 268.31 L1536.36 254.15 L1553.45 248.215 L1570.54 248.303 L1587.63 251.911 L1604.72 257.58 L1621.81 260.287 L1638.9 262.322 L1655.99 261.888 L1673.08 263.749 L1690.17 266.574 L1707.26 265.584 L1724.35 258.12 L1741.44 256.71 L1758.53 257.216 L1775.62 265.633 L1792.71 277.905 L1809.8 292.925 L1826.89 313.107 L1843.98 331.939 L1861.07 338.255 L1878.16 338.077 L1895.25 317.503 L1912.34 288.43 L1929.43 271.051 L1946.52 258.223 L1963.61 251.5 L1980.71 250.781 L1997.8 254.719 L2014.89 260.053 L2031.98 262.03 L2049.07 263.761 L2066.16 263.498 L2083.25 264.594 L2100.34 267.667 L2117.43 267.899 L2134.52 263.074 L2151.61 260.316 L2168.7 258.766 L2185.79 270.291 L2202.88 281.689 L2219.97 296.758 L2237.06 314.91 L2254.15 333.179 L2271.24 340.556 L2288.33 340.18 L2305.42 319.66 L2322.51 290.838 L2339.6 272.487 L2356.69 259.258 L2373.78 254.166 L2390.87 254.256 L2407.96 257.561 L2425.05 262.415 L2442.14 264.637 L2459.23 267.326 L2476.32 266.122 L2493.42 266.396 L2510.51 270.549 L2527.6 271.331 L2544.69 264.954 L2561.78 261.097 L2578.87 260.761 L2595.96 272.355 L2613.05 284.724 L2630.14 298.553 L2647.23 315.884 L2664.32 334.865 L2681.41 341.227 L2698.5 340.256 L2715.59 320.892 L2732.68 294.266 L2749.77 274.774 L2766.86 262.609 L2783.95 257.22 L2801.04 257.698 L2818.13 260.174 L2835.22 264.481 L2852.31 267.285 L2869.4 268.89 L2886.49 268.074 L2903.58 269.294 L2920.67 273.391 L2937.76 272.754 L2954.85 266.866 L2971.94 262.351 L2989.03 262.564 L3006.12 273.529 L3023.22 286.684 L3040.31 300.444 L3057.4 317.397 L3074.49 335.907 L3091.58 344.692 L3108.67 341.631 L3125.76 323.596 L3142.85 296.115 L3159.94 277.771 L3177.03 266.004 L3194.12 259.793 L3211.21 258.645 L3228.3 262.124 L3245.39 265.449 L3262.48 268.517 L3279.57 271.359 L3296.66 271.083 L3313.75 272.837 L3330.84 274.929 L3347.93 274.147 L3365.02 268.594 L3382.11 263.433 L3399.2 264.546 L3416.29 274.508 L3433.38 288.546 L3450.47 302.017 L3467.56 318.801 L3484.65 338.403 L3501.74 344.408 L3518.83 342.903 L3535.92 324.259 L3553.02 298.239 L3570.11 278.006 L3587.2 267.181 L3604.29 260.497 L3621.38 259.715 L3638.47 263.176 L3655.56 267.061 L3672.65 269.74 L3689.74 272.22 L3706.83 272.57 L3723.92 273.316 L3741.01 275.64 L3758.1 276.698 L3775.19 269.956 L3792.28 265.747 L3809.37 266.197 L3826.46 275.679 L3843.55 289.667 L3860.64 304.891 L3877.73 321.446 L3894.82 339.114 L3911.91 346.365 L3929 343.909 L3946.09 325.37 L3963.18 298.562 L3980.27 279.082 L3997.36 269.342 L4014.45 261.434 L4031.54 261.176 L4048.63 264.483 L4065.72 268.68 L4082.82 270.854 L4099.91 272.897 L4117 273.29 L4134.09 273.945 L4151.18 276.789 L4168.27 277.163 L4185.36 270.871 L4202.45 267.941 L4219.54 267.605 L4236.63 277.174 L4253.72 290.396 L4270.81 306.472 L4287.9 322.704 L4304.99 339.541 L4322.08 347.02 L4339.17 345.276 L4356.26 326.558 L4373.35 299.785 L4390.44 281.12 L4407.53 270.717 L4424.62 262.731 L4441.71 262.102 L4458.8 265.807 L4475.89 269.584 L4492.98 271.316 L4510.07 273.579 L4527.16 274.222 L4544.25 274.598 L4561.34 277.75 L4578.43 277.955 L4595.52 273.294 L4612.62 268.236 L4629.71 268.741 L4629.71 131.37 L4612.62 132.588 L4595.52 138.136 L4578.43 144.444 L4561.34 145.999 L4544.25 145.799 L4527.16 147.061 L4510.07 151.145 L4492.98 152.268 L4475.89 150.184 L4458.8 144.737 L4441.71 139.258 L4424.62 134.411 L4407.53 134.797 L4390.44 140.798 L4373.35 152.263 L4356.26 172.403 L4339.17 187.24 L4322.08 191.861 L4304.99 188.591 L4287.9 176.335 L4270.81 163.676 L4253.72 150.022 L4236.63 138.068 L4219.54 129.792 L4202.45 130.779 L4185.36 136.69 L4168.27 142.786 L4151.18 144.811 L4134.09 144.148 L4117 146.276 L4099.91 150.023 L4082.82 151.075 L4065.72 148.659 L4048.63 143.523 L4031.54 137.034 L4014.45 133.293 L3997.36 134.024 L3980.27 139.36 L3963.18 150.751 L3946.09 170.451 L3929 185.444 L3911.91 189.574 L3894.82 186.749 L3877.73 175.03 L3860.64 161.779 L3843.55 148.337 L3826.46 136.413 L3809.37 128.023 L3792.28 129.116 L3775.19 135.451 L3758.1 140.774 L3741.01 142.254 L3723.92 142.443 L3706.83 144.566 L3689.74 148.648 L3672.65 149.746 L3655.56 147.117 L3638.47 141.895 L3621.38 135.607 L3604.29 131.891 L3587.2 132.419 L3570.11 137.422 L3553.02 148.544 L3535.92 168.195 L3518.83 183.531 L3501.74 187.809 L3484.65 184.8 L3467.56 172.981 L3450.47 159.858 L3433.38 146.445 L3416.29 134.528 L3399.2 125.663 L3382.11 127.235 L3365.02 133.533 L3347.93 139.812 L3330.84 139.856 L3313.75 140.682 L3296.66 142.632 L3279.57 146.858 L3262.48 147.74 L3245.39 145.704 L3228.3 139.498 L3211.21 133.384 L3194.12 129.546 L3177.03 130.314 L3159.94 135.24 L3142.85 146.535 L3125.76 165.185 L3108.67 181.549 L3091.58 184.934 L3074.49 182.598 L3057.4 171.138 L3040.31 157.361 L3023.22 143.891 L3006.12 131.776 L2989.03 122.915 L2971.94 124.872 L2954.85 130.93 L2937.76 136.878 L2920.67 137.153 L2903.58 137.996 L2886.49 140.178 L2869.4 143.733 L2852.31 145.131 L2835.22 143.892 L2818.13 137.626 L2801.04 131.109 L2783.95 126.427 L2766.86 127.862 L2749.77 132.275 L2732.68 143.984 L2715.59 162.86 L2698.5 178.257 L2681.41 182.856 L2664.32 180.211 L2647.23 168.357 L2630.14 155.352 L2613.05 141.705 L2595.96 129.099 L2578.87 120.961 L2561.78 122.86 L2544.69 129.616 L2527.6 134.675 L2510.51 135.02 L2493.42 136.022 L2476.32 137.54 L2459.23 140.312 L2442.14 142.192 L2425.05 141.418 L2407.96 135.838 L2390.87 129.196 L2373.78 123.845 L2356.69 125.362 L2339.6 130.614 L2322.51 141.864 L2305.42 160.743 L2288.33 176.478 L2271.24 180.693 L2254.15 178.633 L2237.06 167.213 L2219.97 153.072 L2202.88 139.089 L2185.79 127.294 L2168.7 118.896 L2151.61 121.519 L2134.52 128.653 L2117.43 132.245 L2100.34 133.315 L2083.25 133.334 L2066.16 134.69 L2049.07 138.366 L2031.98 140.833 L2014.89 139.284 L1997.8 134.023 L1980.71 127.468 L1963.61 122.323 L1946.52 123.827 L1929.43 129.293 L1912.34 140.235 L1895.25 159.67 L1878.16 175.3 L1861.07 180.281 L1843.98 177.239 L1826.89 165.898 L1809.8 152.692 L1792.71 139.243 L1775.62 127.133 L1758.53 119.564 L1741.44 121.258 L1724.35 127.259 L1707.26 132.485 L1690.17 133.476 L1673.08 133.658 L1655.99 135.566 L1638.9 139.545 L1621.81 141.523 L1604.72 139.641 L1587.63 134.385 L1570.54 128.721 L1553.45 124.403 L1536.36 125.923 L1519.27 131.027 L1502.18 142.059 L1485.09 162.413 L1468 178.136 L1450.91 183.039 L1433.81 180.441 L1416.72 170.415 L1399.63 157.055 L1382.54 143.2 L1365.45 131.298 L1348.36 123.9 L1331.27 127.204 L1314.18 132.498 L1297.09 137.501 L1280 138.98 L1262.91 139.912 L1245.82 142.014 L1228.73 146.011 L1211.64 147.987 L1194.55 147.472 L1177.46 141.56 L1160.37 136.78 L1143.28 133.111 L1126.19 134.569 L1109.1 141.411 L1092.01 153.874 L1074.92 174.336 L1057.83 190.148 L1040.74 195.354 L1023.65 193.843 L1006.56 183.711 L989.466 170.516 L972.376 156.349 L955.286 144.611 L938.195 137.647 L921.105 141.883 L904.015 149.453 L886.925 155.282 L869.834 157.705 L852.744 160.236 L835.654 161.8 L818.563 165.434 L801.473 166.472 L784.383 165.748 L767.292 161.596 L750.202 158.305 L733.112 157.188 L716.021 162.05 L698.931 171.371 L681.841 185.334 L664.75 206.996 L647.66 224.181 L630.57 230.879 L613.479 231.079 L596.389 222.886 L579.299 212.585 L562.208 199.802 L545.118 188.865 L528.028 182.927  Z" fill="#414141" fill-rule="evenodd" fill-opacity="0.5"/>
<polyline clip-path="url(#clip822)" style="stroke:#414141; stroke-linecap:round; stroke-linejoin:round; stroke-width:0; stroke-opacity:1; fill:none" points="528.028,191.513 545.118,195.914 562.208,202.31 579.299,209.77 596.389,216.919 613.479,222.971 630.57,224.562 647.66,222.249 664.75,213.576 681.841,202.372 698.931,195.056 716.021,190.601 733.112,188.729 750.202,189.735 767.292,192.255 784.383,195.042 801.473,196.381 818.563,196.944 835.654,196.386 852.744,196.52 869.834,196.615 886.925,196.438 904.015,194.406 921.105,191.66 938.195,190.508 955.286,194.749 972.376,201.093 989.466,208.565 1006.56,215.764 1023.65,221.898 1040.74,223.559 1057.83,221.279 1074.92,212.516 1092.01,201.166 1109.1,193.759 1126.19,189.311 1143.28,187.491 1160.37,188.537 1177.46,191.066 1194.55,193.812 1211.64,195.103 1228.73,195.619 1245.82,195.043 1262.91,195.28 1280,195.53 1297.09,195.513 1314.18,193.627 1331.27,191.007 1348.36,189.969 1365.45,194.321 1382.54,200.771 1399.63,208.345 1416.72,215.642 1433.81,221.877 1450.91,223.629 1468,221.423 1485.09,212.655 1502.18,201.239 1519.27,193.773 1536.36,189.292 1553.45,187.442 1570.54,188.458 1587.63,190.969 1604.72,193.69 1621.81,194.967 1638.9,195.486 1655.99,194.949 1673.08,195.241 1690.17,195.568 1707.26,195.635 1724.35,193.821 1741.44,191.27 1758.53,190.291 1775.62,194.705 1792.71,201.214 1809.8,208.847 1826.89,216.208 1843.98,222.51 1861.07,224.324 1878.16,222.158 1895.25,213.412 1912.34,202.001 1929.43,194.516 1946.52,190.008 1963.61,188.15 1980.71,189.154 1997.8,191.638 2014.89,194.356 2031.98,195.629 2049.07,196.138 2066.16,195.615 2083.25,195.946 2100.34,196.314 2117.43,196.429 2134.52,194.66 2151.61,192.142 2168.7,191.195 2185.79,195.644 2202.88,202.189 2219.97,209.859 2237.06,217.26 2254.15,223.599 2271.24,225.461 2288.33,223.335 2305.42,214.608 2322.51,203.197 2339.6,195.697 2356.69,191.172 2373.78,189.285 2390.87,190.261 2407.96,192.72 2425.05,195.406 2442.14,196.655 2459.23,197.172 2476.32,196.651 2493.42,196.98 2510.51,197.357 2527.6,197.486 2544.69,195.73 2561.78,193.227 2578.87,192.29 2595.96,196.751 2613.05,203.307 2630.14,210.992 2647.23,218.405 2664.32,224.768 2681.41,226.664 2698.5,224.576 2715.59,215.869 2732.68,204.465 2749.77,196.944 2766.86,192.385 2783.95,190.468 2801.04,191.413 2818.13,193.848 2835.22,196.518 2852.31,197.738 2869.4,198.235 2886.49,197.686 2903.58,198.005 2920.67,198.39 2937.76,198.521 2954.85,196.767 2971.94,194.269 2989.03,193.339 3006.12,197.807 3023.22,204.366 3040.31,212.059 3057.4,219.491 3074.49,225.868 3091.58,227.773 3108.67,225.688 3125.76,216.98 3142.85,205.581 3159.94,198.044 3177.03,193.463 3194.12,191.514 3211.21,192.431 3228.3,194.84 3245.39,197.478 3262.48,198.687 3279.57,199.157 3296.66,198.609 3313.75,198.94 3330.84,199.327 3347.93,199.465 3365.02,197.722 3382.11,195.23 3399.2,194.304 3416.29,198.782 3433.38,205.355 3450.47,213.065 3467.56,220.501 3484.65,226.893 3501.74,228.816 3518.83,226.741 3535.92,218.022 3553.02,206.597 3570.11,199.046 3587.2,194.445 3604.29,192.474 3621.38,193.366 3638.47,195.754 3655.56,198.372 3672.65,199.554 3689.74,200.022 3706.83,199.459 3723.92,199.768 3741.01,200.148 3758.1,200.289 3775.19,198.544 3792.28,196.05 3809.37,195.12 3826.46,199.592 3843.55,206.161 3860.64,213.865 3877.73,221.31 3894.82,227.709 3911.91,229.638 3929,227.564 3946.09,218.88 3963.18,207.428 3980.27,199.872 3997.36,195.257 4014.45,193.277 4031.54,194.152 4048.63,196.521 4065.72,199.116 4082.82,200.248 4099.91,200.69 4117,200.124 4134.09,200.453 4151.18,200.842 4168.27,200.986 4185.36,199.253 4202.45,196.765 4219.54,195.835 4236.63,200.307 4253.72,206.874 4270.81,214.58 4287.9,222.026 4304.99,228.437 4322.08,230.361 4339.17,228.304 4356.26,219.597 4373.35,208.17 4390.44,200.59 4407.53,195.951 4424.62,193.942 4441.71,194.794 4458.8,197.142 4475.89,199.727 4492.98,200.858 4510.07,201.279 4527.16,200.706 4544.25,201.031 4561.34,201.422 4578.43,201.57 4595.52,199.834 4612.62,197.343 4629.71,196.41 "/>
<path clip-path="url(#clip820)" d="M3853.78 853.161 L4607.83 853.161 L4607.83 334.761 L3853.78 334.761  Z" fill="#ffffff" fill-rule="evenodd" fill-opacity="1"/>
<polyline clip-path="url(#clip820)" style="stroke:#000000; stroke-linecap:round; stroke-linejoin:round; stroke-width:4; stroke-opacity:1; fill:none" points="3853.78,853.161 4607.83,853.161 4607.83,334.761 3853.78,334.761 3853.78,853.161 "/>
<polyline clip-path="url(#clip820)" style="stroke:#aeaeae; stroke-linecap:round; stroke-linejoin:round; stroke-width:2; stroke-opacity:1; fill:none" points="3902.09,464.361 4191.94,464.361 "/>
<path clip-path="url(#clip820)" d="M4241.93 497.723 L4261.03 497.723 L4261.03 431.809 L4240.25 435.976 L4240.25 425.328 L4260.91 421.161 L4272.6 421.161 L4272.6 497.723 L4291.7 497.723 L4291.7 507.561 L4241.93 507.561 L4241.93 497.723 Z" fill="#000000" fill-rule="nonzero" fill-opacity="1" /><path clip-path="url(#clip820)" d="M4340.31 428.858 Q4331.28 428.858 4326.71 437.77 Q4322.2 446.624 4322.2 464.448 Q4322.2 482.214 4326.71 491.126 Q4331.28 499.98 4340.31 499.98 Q4349.4 499.98 4353.91 491.126 Q4358.48 482.214 4358.48 464.448 Q4358.48 446.624 4353.91 437.77 Q4349.4 428.858 4340.31 428.858 M4340.31 419.599 Q4354.83 419.599 4362.47 431.115 Q4370.17 442.573 4370.17 464.448 Q4370.17 486.265 4362.47 497.781 Q4354.83 509.239 4340.31 509.239 Q4325.78 509.239 4318.09 497.781 Q4310.45 486.265 4310.45 464.448 Q4310.45 442.573 4318.09 431.115 Q4325.78 419.599 4340.31 419.599 Z" fill="#000000" fill-rule="nonzero" fill-opacity="1" /><path clip-path="url(#clip820)" d="M4415.71 428.858 Q4406.69 428.858 4402.11 437.77 Q4397.6 446.624 4397.6 464.448 Q4397.6 482.214 4402.11 491.126 Q4406.69 499.98 4415.71 499.98 Q4424.8 499.98 4429.31 491.126 Q4433.89 482.214 4433.89 464.448 Q4433.89 446.624 4429.31 437.77 Q4424.8 428.858 4415.71 428.858 M4415.71 419.599 Q4430.24 419.599 4437.88 431.115 Q4445.58 442.573 4445.58 464.448 Q4445.58 486.265 4437.88 497.781 Q4430.24 509.239 4415.71 509.239 Q4401.19 509.239 4393.49 497.781 Q4385.85 486.265 4385.85 464.448 Q4385.85 442.573 4393.49 431.115 Q4401.19 419.599 4415.71 419.599 Z" fill="#000000" fill-rule="nonzero" fill-opacity="1" /><path clip-path="url(#clip820)" d="M4539.61 469.541 Q4534.58 469.541 4531.69 473.823 Q4528.85 478.105 4528.85 485.744 Q4528.85 493.267 4531.69 497.608 Q4534.58 501.89 4539.61 501.89 Q4544.53 501.89 4547.37 497.608 Q4550.26 493.267 4550.26 485.744 Q4550.26 478.163 4547.37 473.881 Q4544.53 469.541 4539.61 469.541 M4539.61 462.191 Q4548.76 462.191 4554.14 468.557 Q4559.52 474.923 4559.52 485.744 Q4559.52 496.566 4554.08 502.932 Q4548.7 509.239 4539.61 509.239 Q4530.35 509.239 4524.97 502.932 Q4519.59 496.566 4519.59 485.744 Q4519.59 474.865 4524.97 468.557 Q4530.41 462.191 4539.61 462.191 M4479.89 426.948 Q4474.92 426.948 4472.02 431.289 Q4469.19 435.571 4469.19 443.094 Q4469.19 450.733 4472.02 455.015 Q4474.86 459.298 4479.89 459.298 Q4484.93 459.298 4487.76 455.015 Q4490.66 450.733 4490.66 443.094 Q4490.66 435.629 4487.76 431.289 Q4484.87 426.948 4479.89 426.948 M4532.15 419.599 L4541.41 419.599 L4487.36 509.239 L4478.1 509.239 L4532.15 419.599 M4479.89 419.599 Q4489.04 419.599 4494.48 425.964 Q4499.92 432.272 4499.92 443.094 Q4499.92 454.031 4494.48 460.339 Q4489.09 466.647 4479.89 466.647 Q4470.69 466.647 4465.31 460.339 Q4459.98 453.974 4459.98 443.094 Q4459.98 432.33 4465.37 425.964 Q4470.75 419.599 4479.89 419.599 Z" fill="#000000" fill-rule="nonzero" fill-opacity="1" /><polyline clip-path="url(#clip820)" style="stroke:#757575; stroke-linecap:round; stroke-linejoin:round; stroke-width:2; stroke-opacity:1; fill:none" points="3902.09,593.961 4191.94,593.961 "/>
<path clip-path="url(#clip820)" d="M4245.81 635.367 L4245.81 624.719 Q4250.21 626.803 4254.72 627.902 Q4259.23 629.002 4263.57 629.002 Q4275.15 629.002 4281.22 621.247 Q4287.36 613.435 4288.23 597.578 Q4284.87 602.555 4279.72 605.217 Q4274.57 607.879 4268.32 607.879 Q4255.36 607.879 4247.78 600.067 Q4240.25 592.196 4240.25 578.597 Q4240.25 565.287 4248.12 557.243 Q4255.99 549.199 4269.07 549.199 Q4284.06 549.199 4291.93 560.715 Q4299.86 572.173 4299.86 594.048 Q4299.86 614.476 4290.14 626.687 Q4280.47 638.839 4264.09 638.839 Q4259.7 638.839 4255.18 637.971 Q4250.67 637.103 4245.81 635.367 M4269.07 598.736 Q4276.94 598.736 4281.51 593.354 Q4286.14 587.972 4286.14 578.597 Q4286.14 569.28 4281.51 563.898 Q4276.94 558.458 4269.07 558.458 Q4261.2 558.458 4256.57 563.898 Q4252 569.28 4252 578.597 Q4252 587.972 4256.57 593.354 Q4261.2 598.736 4269.07 598.736 Z" fill="#000000" fill-rule="nonzero" fill-opacity="1" /><path clip-path="url(#clip820)" d="M4345.87 558.458 Q4336.84 558.458 4332.27 567.37 Q4327.75 576.224 4327.75 594.048 Q4327.75 611.814 4332.27 620.726 Q4336.84 629.58 4345.87 629.58 Q4354.95 629.58 4359.46 620.726 Q4364.04 611.814 4364.04 594.048 Q4364.04 576.224 4359.46 567.37 Q4354.95 558.458 4345.87 558.458 M4345.87 549.199 Q4360.39 549.199 4368.03 560.715 Q4375.73 572.173 4375.73 594.048 Q4375.73 615.865 4368.03 627.381 Q4360.39 638.839 4345.87 638.839 Q4331.34 638.839 4323.64 627.381 Q4316 615.865 4316 594.048 Q4316 572.173 4323.64 560.715 Q4331.34 549.199 4345.87 549.199 Z" fill="#000000" fill-rule="nonzero" fill-opacity="1" /><path clip-path="url(#clip820)" d="M4469.76 599.141 Q4464.73 599.141 4461.84 603.423 Q4459 607.705 4459 615.344 Q4459 622.867 4461.84 627.208 Q4464.73 631.49 4469.76 631.49 Q4474.68 631.49 4477.52 627.208 Q4480.41 622.867 4480.41 615.344 Q4480.41 607.763 4477.52 603.481 Q4474.68 599.141 4469.76 599.141 M4469.76 591.791 Q4478.91 591.791 4484.29 598.157 Q4489.67 604.523 4489.67 615.344 Q4489.67 626.166 4484.23 632.532 Q4478.85 638.839 4469.76 638.839 Q4460.51 638.839 4455.12 632.532 Q4449.74 626.166 4449.74 615.344 Q4449.74 604.465 4455.12 598.157 Q4460.56 591.791 4469.76 591.791 M4410.04 556.548 Q4405.07 556.548 4402.17 560.889 Q4399.34 565.171 4399.34 572.694 Q4399.34 580.333 4402.17 584.615 Q4405.01 588.898 4410.04 588.898 Q4415.08 588.898 4417.91 584.615 Q4420.81 580.333 4420.81 572.694 Q4420.81 565.229 4417.91 560.889 Q4415.02 556.548 4410.04 556.548 M4462.3 549.199 L4471.56 549.199 L4417.51 638.839 L4408.25 638.839 L4462.3 549.199 M4410.04 549.199 Q4419.19 549.199 4424.63 555.564 Q4430.07 561.872 4430.07 572.694 Q4430.07 583.631 4424.63 589.939 Q4419.24 596.247 4410.04 596.247 Q4400.84 596.247 4395.46 589.939 Q4390.14 583.574 4390.14 572.694 Q4390.14 561.93 4395.52 555.564 Q4400.9 549.199 4410.04 549.199 Z" fill="#000000" fill-rule="nonzero" fill-opacity="1" /><polyline clip-path="url(#clip820)" style="stroke:#414141; stroke-linecap:round; stroke-linejoin:round; stroke-width:2; stroke-opacity:1; fill:none" points="3902.09,723.561 4191.94,723.561 "/>
<path clip-path="url(#clip820)" d="M4269.88 725.731 Q4261.55 725.731 4256.75 730.187 Q4252 734.643 4252 742.456 Q4252 750.268 4256.75 754.724 Q4261.55 759.18 4269.88 759.18 Q4278.21 759.18 4283.02 754.724 Q4287.82 750.21 4287.82 742.456 Q4287.82 734.643 4283.02 730.187 Q4278.27 725.731 4269.88 725.731 M4258.19 720.755 Q4250.67 718.903 4246.44 713.752 Q4242.28 708.602 4242.28 701.194 Q4242.28 690.836 4249.63 684.817 Q4257.03 678.799 4269.88 678.799 Q4282.79 678.799 4290.14 684.817 Q4297.49 690.836 4297.49 701.194 Q4297.49 708.602 4293.26 713.752 Q4289.09 718.903 4281.63 720.755 Q4290.08 722.722 4294.77 728.451 Q4299.51 734.18 4299.51 742.456 Q4299.51 755.014 4291.81 761.727 Q4284.18 768.439 4269.88 768.439 Q4255.59 768.439 4247.89 761.727 Q4240.25 755.014 4240.25 742.456 Q4240.25 734.18 4245 728.451 Q4249.74 722.722 4258.19 720.755 M4253.91 702.294 Q4253.91 709.007 4258.08 712.768 Q4262.3 716.53 4269.88 716.53 Q4277.4 716.53 4281.63 712.768 Q4285.91 709.007 4285.91 702.294 Q4285.91 695.581 4281.63 691.82 Q4277.4 688.058 4269.88 688.058 Q4262.3 688.058 4258.08 691.82 Q4253.91 695.581 4253.91 702.294 Z" fill="#000000" fill-rule="nonzero" fill-opacity="1" /><path clip-path="url(#clip820)" d="M4345.29 688.058 Q4336.26 688.058 4331.69 696.97 Q4327.17 705.824 4327.17 723.648 Q4327.17 741.414 4331.69 750.326 Q4336.26 759.18 4345.29 759.18 Q4354.37 759.18 4358.89 750.326 Q4363.46 741.414 4363.46 723.648 Q4363.46 705.824 4358.89 696.97 Q4354.37 688.058 4345.29 688.058 M4345.29 678.799 Q4359.81 678.799 4367.45 690.315 Q4375.15 701.773 4375.15 723.648 Q4375.15 745.465 4367.45 756.981 Q4359.81 768.439 4345.29 768.439 Q4330.76 768.439 4323.06 756.981 Q4315.43 745.465 4315.43 723.648 Q4315.43 701.773 4323.06 690.315 Q4330.76 678.799 4345.29 678.799 Z" fill="#000000" fill-rule="nonzero" fill-opacity="1" /><path clip-path="url(#clip820)" d="M4469.19 728.741 Q4464.15 728.741 4461.26 733.023 Q4458.42 737.305 4458.42 744.944 Q4458.42 752.467 4461.26 756.808 Q4464.15 761.09 4469.19 761.09 Q4474.11 761.09 4476.94 756.808 Q4479.83 752.467 4479.83 744.944 Q4479.83 737.363 4476.94 733.081 Q4474.11 728.741 4469.19 728.741 M4469.19 721.391 Q4478.33 721.391 4483.71 727.757 Q4489.09 734.123 4489.09 744.944 Q4489.09 755.766 4483.65 762.132 Q4478.27 768.439 4469.19 768.439 Q4459.93 768.439 4454.55 762.132 Q4449.16 755.766 4449.16 744.944 Q4449.16 734.065 4454.55 727.757 Q4459.98 721.391 4469.19 721.391 M4409.46 686.148 Q4404.49 686.148 4401.59 690.489 Q4398.76 694.771 4398.76 702.294 Q4398.76 709.933 4401.59 714.215 Q4404.43 718.498 4409.46 718.498 Q4414.5 718.498 4417.33 714.215 Q4420.23 709.933 4420.23 702.294 Q4420.23 694.829 4417.33 690.489 Q4414.44 686.148 4409.46 686.148 M4461.72 678.799 L4470.98 678.799 L4416.93 768.439 L4407.67 768.439 L4461.72 678.799 M4409.46 678.799 Q4418.61 678.799 4424.05 685.164 Q4429.49 691.472 4429.49 702.294 Q4429.49 713.231 4424.05 719.539 Q4418.67 725.847 4409.46 725.847 Q4400.26 725.847 4394.88 719.539 Q4389.56 713.174 4389.56 702.294 Q4389.56 691.53 4394.94 685.164 Q4400.32 678.799 4409.46 678.799 Z" fill="#000000" fill-rule="nonzero" fill-opacity="1" /></svg>
