<?xml version="1.0" encoding="utf-8"?>
<svg xmlns="http://www.w3.org/2000/svg" xmlns:xlink="http://www.w3.org/1999/xlink" width="1200" height="300" viewBox="0 0 4800 1200">
<defs>
  <clipPath id="clip530">
    <rect x="0" y="0" width="4800" height="1200"/>
  </clipPath>
</defs>
<path clip-path="url(#clip530)" d="M0 1200 L4800 1200 L4800 0 L0 0  Z" fill="#ffffff" fill-rule="evenodd" fill-opacity="1"/>
<defs>
  <clipPath id="clip531">
    <rect x="960" y="0" width="3361" height="1200"/>
  </clipPath>
</defs>
<path clip-path="url(#clip530)" d="M404.977 880.951 L4752.76 880.951 L4752.76 47.2441 L404.977 47.2441  Z" fill="#ffffff" fill-rule="evenodd" fill-opacity="1"/>
<defs>
  <clipPath id="clip532">
    <rect x="404" y="47" width="4349" height="835"/>
  </clipPath>
</defs>
<polyline clip-path="url(#clip532)" style="stroke:#000000; stroke-linecap:round; stroke-linejoin:round; stroke-width:2; stroke-opacity:0.1; fill:none" points="528.028,880.951 528.028,47.2441 "/>
<polyline clip-path="url(#clip532)" style="stroke:#000000; stroke-linecap:round; stroke-linejoin:round; stroke-width:2; stroke-opacity:0.1; fill:none" points="1348.36,880.951 1348.36,47.2441 "/>
<polyline clip-path="url(#clip532)" style="stroke:#000000; stroke-linecap:round; stroke-linejoin:round; stroke-width:2; stroke-opacity:0.1; fill:none" points="2168.7,880.951 2168.7,47.2441 "/>
<polyline clip-path="url(#clip532)" style="stroke:#000000; stroke-linecap:round; stroke-linejoin:round; stroke-width:2; stroke-opacity:0.1; fill:none" points="2989.03,880.951 2989.03,47.2441 "/>
<polyline clip-path="url(#clip532)" style="stroke:#000000; stroke-linecap:round; stroke-linejoin:round; stroke-width:2; stroke-opacity:0.1; fill:none" points="3809.37,880.951 3809.37,47.2441 "/>
<polyline clip-path="url(#clip532)" style="stroke:#000000; stroke-linecap:round; stroke-linejoin:round; stroke-width:2; stroke-opacity:0.1; fill:none" points="4629.71,880.951 4629.71,47.2441 "/>
<polyline clip-path="url(#clip532)" style="stroke:#000000; stroke-linecap:round; stroke-linejoin:round; stroke-width:2; stroke-opacity:0.1; fill:none" points="404.977,726.735 4752.76,726.735 "/>
<polyline clip-path="url(#clip532)" style="stroke:#000000; stroke-linecap:round; stroke-linejoin:round; stroke-width:2; stroke-opacity:0.1; fill:none" points="404.977,549.754 4752.76,549.754 "/>
<polyline clip-path="url(#clip532)" style="stroke:#000000; stroke-linecap:round; stroke-linejoin:round; stroke-width:2; stroke-opacity:0.1; fill:none" points="404.977,372.774 4752.76,372.774 "/>
<polyline clip-path="url(#clip532)" style="stroke:#000000; stroke-linecap:round; stroke-linejoin:round; stroke-width:2; stroke-opacity:0.1; fill:none" points="404.977,195.794 4752.76,195.794 "/>
<polyline clip-path="url(#clip530)" style="stroke:#000000; stroke-linecap:round; stroke-linejoin:round; stroke-width:4; stroke-opacity:1; fill:none" points="404.977,880.951 4752.76,880.951 "/>
<polyline clip-path="url(#clip530)" style="stroke:#000000; stroke-linecap:round; stroke-linejoin:round; stroke-width:4; stroke-opacity:1; fill:none" points="528.028,880.951 528.028,862.054 "/>
<polyline clip-path="url(#clip530)" style="stroke:#000000; stroke-linecap:round; stroke-linejoin:round; stroke-width:4; stroke-opacity:1; fill:none" points="1348.36,880.951 1348.36,862.054 "/>
<polyline clip-path="url(#clip530)" style="stroke:#000000; stroke-linecap:round; stroke-linejoin:round; stroke-width:4; stroke-opacity:1; fill:none" points="2168.7,880.951 2168.7,862.054 "/>
<polyline clip-path="url(#clip530)" style="stroke:#000000; stroke-linecap:round; stroke-linejoin:round; stroke-width:4; stroke-opacity:1; fill:none" points="2989.03,880.951 2989.03,862.054 "/>
<polyline clip-path="url(#clip530)" style="stroke:#000000; stroke-linecap:round; stroke-linejoin:round; stroke-width:4; stroke-opacity:1; fill:none" points="3809.37,880.951 3809.37,862.054 "/>
<polyline clip-path="url(#clip530)" style="stroke:#000000; stroke-linecap:round; stroke-linejoin:round; stroke-width:4; stroke-opacity:1; fill:none" points="4629.71,880.951 4629.71,862.054 "/>
<path clip-path="url(#clip530)" d="M528.028 942.789 Q520.806 942.789 517.148 949.918 Q513.537 957.002 513.537 971.261 Q513.537 985.474 517.148 992.603 Q520.806 999.687 528.028 999.687 Q535.296 999.687 538.907 992.603 Q542.565 985.474 542.565 971.261 Q542.565 957.002 538.907 949.918 Q535.296 942.789 528.028 942.789 M528.028 935.382 Q539.648 935.382 545.759 944.594 Q551.916 953.761 551.916 971.261 Q551.916 988.715 545.759 997.927 Q539.648 1007.09 528.028 1007.09 Q516.407 1007.09 510.25 997.927 Q504.139 988.715 504.139 971.261 Q504.139 953.761 510.25 944.594 Q516.407 935.382 528.028 935.382 Z" fill="#000000" fill-rule="nonzero" fill-opacity="1" /><path clip-path="url(#clip530)" d="M1337.67 997.881 L1370.31 997.881 L1370.31 1005.75 L1326.42 1005.75 L1326.42 997.881 Q1331.74 992.372 1340.91 983.113 Q1350.12 973.807 1352.48 971.122 Q1356.97 966.076 1358.73 962.604 Q1360.54 959.085 1360.54 955.705 Q1360.54 950.196 1356.65 946.724 Q1352.81 943.252 1346.6 943.252 Q1342.21 943.252 1337.3 944.78 Q1332.44 946.307 1326.88 949.409 L1326.88 939.965 Q1332.53 937.696 1337.44 936.539 Q1342.34 935.382 1346.42 935.382 Q1357.16 935.382 1363.55 940.752 Q1369.94 946.122 1369.94 955.104 Q1369.94 959.363 1368.32 963.205 Q1366.74 967.002 1362.53 972.187 Q1361.37 973.529 1355.17 979.965 Q1348.97 986.353 1337.67 997.881 Z" fill="#000000" fill-rule="nonzero" fill-opacity="1" /><path clip-path="url(#clip530)" d="M2174.72 944.78 L2151.11 981.678 L2174.72 981.678 L2174.72 944.78 M2172.26 936.631 L2184.02 936.631 L2184.02 981.678 L2193.88 981.678 L2193.88 989.455 L2184.02 989.455 L2184.02 1005.75 L2174.72 1005.75 L2174.72 989.455 L2143.51 989.455 L2143.51 980.428 L2172.26 936.631 Z" fill="#000000" fill-rule="nonzero" fill-opacity="1" /><path clip-path="url(#clip530)" d="M2989.84 967.465 Q2983.55 967.465 2979.84 971.77 Q2976.19 976.076 2976.19 983.576 Q2976.19 991.029 2979.84 995.381 Q2983.55 999.687 2989.84 999.687 Q2996.14 999.687 2999.8 995.381 Q3003.5 991.029 3003.5 983.576 Q3003.5 976.076 2999.8 971.77 Q2996.14 967.465 2989.84 967.465 M3008.41 938.159 L3008.41 946.678 Q3004.89 945.011 3001.28 944.131 Q2997.71 943.252 2994.2 943.252 Q2984.94 943.252 2980.03 949.502 Q2975.17 955.752 2974.47 968.391 Q2977.21 964.363 2981.33 962.233 Q2985.45 960.057 2990.4 960.057 Q3000.82 960.057 3006.84 966.4 Q3012.9 972.696 3012.9 983.576 Q3012.9 994.224 3006.6 1000.66 Q3000.31 1007.09 2989.84 1007.09 Q2977.85 1007.09 2971.51 997.927 Q2965.17 988.715 2965.17 971.261 Q2965.17 954.872 2972.95 945.15 Q2980.72 935.382 2993.83 935.382 Q2997.34 935.382 3000.91 936.076 Q3004.52 936.77 3008.41 938.159 Z" fill="#000000" fill-rule="nonzero" fill-opacity="1" /><path clip-path="url(#clip530)" d="M3809.37 972.928 Q3802.7 972.928 3798.86 976.492 Q3795.06 980.057 3795.06 986.307 Q3795.06 992.557 3798.86 996.122 Q3802.7 999.687 3809.37 999.687 Q3816.04 999.687 3819.88 996.122 Q3823.72 992.511 3823.72 986.307 Q3823.72 980.057 3819.88 976.492 Q3816.08 972.928 3809.37 972.928 M3800.02 968.946 Q3794 967.465 3790.62 963.344 Q3787.29 959.224 3787.29 953.298 Q3787.29 945.011 3793.17 940.196 Q3799.09 935.382 3809.37 935.382 Q3819.69 935.382 3825.57 940.196 Q3831.45 945.011 3831.45 953.298 Q3831.45 959.224 3828.07 963.344 Q3824.74 967.465 3818.77 968.946 Q3825.53 970.52 3829.28 975.104 Q3833.07 979.687 3833.07 986.307 Q3833.07 996.353 3826.92 1001.72 Q3820.81 1007.09 3809.37 1007.09 Q3797.93 1007.09 3791.78 1001.72 Q3785.67 996.353 3785.67 986.307 Q3785.67 979.687 3789.46 975.104 Q3793.26 970.52 3800.02 968.946 M3796.59 954.178 Q3796.59 959.548 3799.93 962.557 Q3803.31 965.567 3809.37 965.567 Q3815.39 965.567 3818.77 962.557 Q3822.19 959.548 3822.19 954.178 Q3822.19 948.807 3818.77 945.798 Q3815.39 942.789 3809.37 942.789 Q3803.31 942.789 3799.93 945.798 Q3796.59 948.807 3796.59 954.178 Z" fill="#000000" fill-rule="nonzero" fill-opacity="1" /><path clip-path="url(#clip530)" d="M4579.08 997.881 L4594.36 997.881 L4594.36 945.15 L4577.74 948.483 L4577.74 939.965 L4594.27 936.631 L4603.62 936.631 L4603.62 997.881 L4618.9 997.881 L4618.9 1005.75 L4579.08 1005.75 L4579.08 997.881 Z" fill="#000000" fill-rule="nonzero" fill-opacity="1" /><path clip-path="url(#clip530)" d="M4657.78 942.789 Q4650.56 942.789 4646.9 949.918 Q4643.29 957.002 4643.29 971.261 Q4643.29 985.474 4646.9 992.603 Q4650.56 999.687 4657.78 999.687 Q4665.05 999.687 4668.66 992.603 Q4672.32 985.474 4672.32 971.261 Q4672.32 957.002 4668.66 949.918 Q4665.05 942.789 4657.78 942.789 M4657.78 935.382 Q4669.4 935.382 4675.52 944.594 Q4681.67 953.761 4681.67 971.261 Q4681.67 988.715 4675.52 997.927 Q4669.4 1007.09 4657.78 1007.09 Q4646.16 1007.09 4640.01 997.927 Q4633.9 988.715 4633.9 971.261 Q4633.9 953.761 4640.01 944.594 Q4646.16 935.382 4657.78 935.382 Z" fill="#000000" fill-rule="nonzero" fill-opacity="1" /><path clip-path="url(#clip530)" d="M2296.11 1072.18 L2361.89 1072.18 L2361.89 1081.04 L2334.28 1081.04 L2334.28 1149.94 L2323.71 1149.94 L2323.71 1081.04 L2296.11 1081.04 L2296.11 1072.18 Z" fill="#000000" fill-rule="nonzero" fill-opacity="1" /><path clip-path="url(#clip530)" d="M2368.35 1091.61 L2377.93 1091.61 L2377.93 1149.94 L2368.35 1149.94 L2368.35 1091.61 M2368.35 1068.9 L2377.93 1068.9 L2377.93 1081.04 L2368.35 1081.04 L2368.35 1068.9 Z" fill="#000000" fill-rule="nonzero" fill-opacity="1" /><path clip-path="url(#clip530)" d="M2443.4 1102.81 Q2446.99 1096.35 2451.99 1093.28 Q2456.99 1090.2 2463.76 1090.2 Q2472.88 1090.2 2477.83 1096.61 Q2482.77 1102.96 2482.77 1114.74 L2482.77 1149.94 L2473.14 1149.94 L2473.14 1115.05 Q2473.14 1106.66 2470.17 1102.6 Q2467.2 1098.54 2461.11 1098.54 Q2453.66 1098.54 2449.34 1103.49 Q2445.01 1108.43 2445.01 1116.97 L2445.01 1149.94 L2435.38 1149.94 L2435.38 1115.05 Q2435.38 1106.61 2432.41 1102.6 Q2429.44 1098.54 2423.24 1098.54 Q2415.9 1098.54 2411.58 1103.54 Q2407.25 1108.49 2407.25 1116.97 L2407.25 1149.94 L2397.62 1149.94 L2397.62 1091.61 L2407.25 1091.61 L2407.25 1100.67 Q2410.53 1095.31 2415.12 1092.76 Q2419.7 1090.2 2426 1090.2 Q2432.36 1090.2 2436.78 1093.43 Q2441.26 1096.66 2443.4 1102.81 Z" fill="#000000" fill-rule="nonzero" fill-opacity="1" /><path clip-path="url(#clip530)" d="M2551.78 1118.38 L2551.78 1123.07 L2507.72 1123.07 Q2508.35 1132.96 2513.66 1138.17 Q2519.02 1143.33 2528.55 1143.33 Q2534.08 1143.33 2539.23 1141.97 Q2544.44 1140.62 2549.54 1137.91 L2549.54 1146.97 Q2544.39 1149.16 2538.97 1150.31 Q2533.55 1151.45 2527.98 1151.45 Q2514.02 1151.45 2505.85 1143.33 Q2497.72 1135.2 2497.72 1121.35 Q2497.72 1107.03 2505.43 1098.64 Q2513.19 1090.2 2526.31 1090.2 Q2538.09 1090.2 2544.91 1097.81 Q2551.78 1105.36 2551.78 1118.38 M2542.2 1115.57 Q2542.1 1107.7 2537.77 1103.02 Q2533.5 1098.33 2526.42 1098.33 Q2518.4 1098.33 2513.55 1102.86 Q2508.76 1107.39 2508.03 1115.62 L2542.2 1115.57 Z" fill="#000000" fill-rule="nonzero" fill-opacity="1" /><path clip-path="url(#clip530)" d="M2624.44 1069.01 Q2617.46 1080.99 2614.07 1092.7 Q2610.69 1104.42 2610.69 1116.45 Q2610.69 1128.49 2614.07 1140.31 Q2617.51 1152.08 2624.44 1164.01 L2616.11 1164.01 Q2608.29 1151.77 2604.39 1139.94 Q2600.53 1128.12 2600.53 1116.45 Q2600.53 1104.84 2604.39 1093.07 Q2608.24 1081.3 2616.11 1069.01 L2624.44 1069.01 Z" fill="#000000" fill-rule="nonzero" fill-opacity="1" /><path clip-path="url(#clip530)" d="M2681.42 1100.46 L2681.42 1068.9 L2691 1068.9 L2691 1149.94 L2681.42 1149.94 L2681.42 1141.19 Q2678.4 1146.4 2673.76 1148.95 Q2669.18 1151.45 2662.72 1151.45 Q2652.15 1151.45 2645.48 1143.02 Q2638.87 1134.58 2638.87 1120.83 Q2638.87 1107.08 2645.48 1098.64 Q2652.15 1090.2 2662.72 1090.2 Q2669.18 1090.2 2673.76 1092.76 Q2678.4 1095.26 2681.42 1100.46 M2648.76 1120.83 Q2648.76 1131.4 2653.08 1137.44 Q2657.46 1143.43 2665.06 1143.43 Q2672.67 1143.43 2677.04 1137.44 Q2681.42 1131.4 2681.42 1120.83 Q2681.42 1110.26 2677.04 1104.27 Q2672.67 1098.23 2665.06 1098.23 Q2657.46 1098.23 2653.08 1104.27 Q2648.76 1110.26 2648.76 1120.83 Z" fill="#000000" fill-rule="nonzero" fill-opacity="1" /><path clip-path="url(#clip530)" d="M2737.25 1120.62 Q2725.64 1120.62 2721.16 1123.28 Q2716.68 1125.93 2716.68 1132.34 Q2716.68 1137.44 2720.01 1140.46 Q2723.4 1143.43 2729.18 1143.43 Q2737.15 1143.43 2741.94 1137.81 Q2746.78 1132.13 2746.78 1122.76 L2746.78 1120.62 L2737.25 1120.62 M2756.37 1116.66 L2756.37 1149.94 L2746.78 1149.94 L2746.78 1141.09 Q2743.5 1146.4 2738.61 1148.95 Q2733.71 1151.45 2726.63 1151.45 Q2717.67 1151.45 2712.36 1146.45 Q2707.1 1141.4 2707.1 1132.96 Q2707.1 1123.12 2713.66 1118.12 Q2720.27 1113.12 2733.34 1113.12 L2746.78 1113.12 L2746.78 1112.18 Q2746.78 1105.57 2742.41 1101.98 Q2738.08 1098.33 2730.22 1098.33 Q2725.22 1098.33 2720.48 1099.53 Q2715.74 1100.73 2711.37 1103.12 L2711.37 1094.27 Q2716.63 1092.24 2721.57 1091.25 Q2726.52 1090.2 2731.21 1090.2 Q2743.87 1090.2 2750.12 1096.77 Q2756.37 1103.33 2756.37 1116.66 Z" fill="#000000" fill-rule="nonzero" fill-opacity="1" /><path clip-path="url(#clip530)" d="M2800.38 1155.36 Q2796.31 1165.78 2792.46 1168.95 Q2788.61 1172.13 2782.15 1172.13 L2774.49 1172.13 L2774.49 1164.11 L2780.12 1164.11 Q2784.07 1164.11 2786.26 1162.24 Q2788.45 1160.36 2791.11 1153.38 L2792.82 1149.01 L2769.23 1091.61 L2779.39 1091.61 L2797.62 1137.24 L2815.84 1091.61 L2826 1091.61 L2800.38 1155.36 Z" fill="#000000" fill-rule="nonzero" fill-opacity="1" /><path clip-path="url(#clip530)" d="M2837.72 1069.01 L2846.05 1069.01 Q2853.87 1081.3 2857.72 1093.07 Q2861.63 1104.84 2861.63 1116.45 Q2861.63 1128.12 2857.72 1139.94 Q2853.87 1151.77 2846.05 1164.01 L2837.72 1164.01 Q2844.65 1152.08 2848.03 1140.31 Q2851.47 1128.49 2851.47 1116.45 Q2851.47 1104.42 2848.03 1092.7 Q2844.65 1080.99 2837.72 1069.01 Z" fill="#000000" fill-rule="nonzero" fill-opacity="1" /><polyline clip-path="url(#clip530)" style="stroke:#000000; stroke-linecap:round; stroke-linejoin:round; stroke-width:4; stroke-opacity:1; fill:none" points="404.977,880.951 404.977,47.2441 "/>
<polyline clip-path="url(#clip530)" style="stroke:#000000; stroke-linecap:round; stroke-linejoin:round; stroke-width:4; stroke-opacity:1; fill:none" points="404.977,726.735 423.875,726.735 "/>
<polyline clip-path="url(#clip530)" style="stroke:#000000; stroke-linecap:round; stroke-linejoin:round; stroke-width:4; stroke-opacity:1; fill:none" points="404.977,549.754 423.875,549.754 "/>
<polyline clip-path="url(#clip530)" style="stroke:#000000; stroke-linecap:round; stroke-linejoin:round; stroke-width:4; stroke-opacity:1; fill:none" points="404.977,372.774 423.875,372.774 "/>
<polyline clip-path="url(#clip530)" style="stroke:#000000; stroke-linecap:round; stroke-linejoin:round; stroke-width:4; stroke-opacity:1; fill:none" points="404.977,195.794 423.875,195.794 "/>
<path clip-path="url(#clip530)" d="M151.219 727.638 L210.571 727.638 L210.571 735.508 L151.219 735.508 L151.219 727.638 Z" fill="#000000" fill-rule="nonzero" fill-opacity="1" /><path clip-path="url(#clip530)" d="M228.395 692.175 L272.839 692.175 L272.839 696.156 L247.746 761.295 L237.978 761.295 L261.589 700.045 L228.395 700.045 L228.395 692.175 Z" fill="#000000" fill-rule="nonzero" fill-opacity="1" /><path clip-path="url(#clip530)" d="M291.172 692.175 L327.885 692.175 L327.885 700.045 L299.737 700.045 L299.737 716.99 Q301.774 716.295 303.811 715.971 Q305.848 715.601 307.885 715.601 Q319.459 715.601 326.218 721.943 Q332.977 728.286 332.977 739.119 Q332.977 750.276 326.033 756.48 Q319.089 762.637 306.45 762.637 Q302.098 762.637 297.561 761.897 Q293.07 761.156 288.255 759.675 L288.255 750.276 Q292.422 752.545 296.866 753.656 Q301.311 754.767 306.265 754.767 Q314.274 754.767 318.95 750.554 Q323.626 746.341 323.626 739.119 Q323.626 731.897 318.95 727.684 Q314.274 723.471 306.265 723.471 Q302.515 723.471 298.765 724.304 Q295.061 725.138 291.172 726.897 L291.172 692.175 Z" fill="#000000" fill-rule="nonzero" fill-opacity="1" /><path clip-path="url(#clip530)" d="M149.228 550.657 L208.58 550.657 L208.58 558.528 L149.228 558.528 L149.228 550.657 Z" fill="#000000" fill-rule="nonzero" fill-opacity="1" /><path clip-path="url(#clip530)" d="M228.858 515.194 L265.57 515.194 L265.57 523.065 L237.422 523.065 L237.422 540.009 Q239.459 539.315 241.496 538.991 Q243.533 538.62 245.57 538.62 Q257.144 538.62 263.904 544.963 Q270.663 551.305 270.663 562.139 Q270.663 573.296 263.718 579.5 Q256.774 585.657 244.135 585.657 Q239.783 585.657 235.246 584.916 Q230.756 584.176 225.941 582.694 L225.941 573.296 Q230.108 575.564 234.552 576.676 Q238.996 577.787 243.95 577.787 Q251.959 577.787 256.635 573.574 Q261.311 569.361 261.311 562.139 Q261.311 554.916 256.635 550.704 Q251.959 546.491 243.95 546.491 Q240.2 546.491 236.45 547.324 Q232.746 548.157 228.858 549.916 L228.858 515.194 Z" fill="#000000" fill-rule="nonzero" fill-opacity="1" /><path clip-path="url(#clip530)" d="M309.089 521.352 Q301.866 521.352 298.209 528.481 Q294.598 535.565 294.598 549.824 Q294.598 564.037 298.209 571.166 Q301.866 578.25 309.089 578.25 Q316.357 578.25 319.968 571.166 Q323.626 564.037 323.626 549.824 Q323.626 535.565 319.968 528.481 Q316.357 521.352 309.089 521.352 M309.089 513.944 Q320.709 513.944 326.82 523.157 Q332.977 532.324 332.977 549.824 Q332.977 567.278 326.82 576.49 Q320.709 585.657 309.089 585.657 Q297.468 585.657 291.311 576.49 Q285.2 567.278 285.2 549.824 Q285.2 532.324 291.311 523.157 Q297.468 513.944 309.089 513.944 Z" fill="#000000" fill-rule="nonzero" fill-opacity="1" /><path clip-path="url(#clip530)" d="M151.219 373.677 L210.571 373.677 L210.571 381.547 L151.219 381.547 L151.219 373.677 Z" fill="#000000" fill-rule="nonzero" fill-opacity="1" /><path clip-path="url(#clip530)" d="M238.811 399.464 L271.45 399.464 L271.45 407.334 L227.561 407.334 L227.561 399.464 Q232.885 393.954 242.052 384.695 Q251.265 375.39 253.626 372.705 Q258.117 367.658 259.876 364.186 Q261.681 360.668 261.681 357.288 Q261.681 351.779 257.793 348.307 Q253.95 344.834 247.746 344.834 Q243.348 344.834 238.441 346.362 Q233.58 347.89 228.024 350.992 L228.024 341.547 Q233.672 339.279 238.58 338.121 Q243.487 336.964 247.561 336.964 Q258.302 336.964 264.691 342.334 Q271.08 347.705 271.08 356.686 Q271.08 360.945 269.459 364.788 Q267.885 368.584 263.672 373.769 Q262.515 375.112 256.311 381.547 Q250.107 387.936 238.811 399.464 Z" fill="#000000" fill-rule="nonzero" fill-opacity="1" /><path clip-path="url(#clip530)" d="M291.172 338.214 L327.885 338.214 L327.885 346.084 L299.737 346.084 L299.737 363.029 Q301.774 362.334 303.811 362.01 Q305.848 361.64 307.885 361.64 Q319.459 361.64 326.218 367.982 Q332.977 374.325 332.977 385.158 Q332.977 396.316 326.033 402.519 Q319.089 408.677 306.45 408.677 Q302.098 408.677 297.561 407.936 Q293.07 407.195 288.255 405.714 L288.255 396.316 Q292.422 398.584 296.866 399.695 Q301.311 400.806 306.265 400.806 Q314.274 400.806 318.95 396.593 Q323.626 392.38 323.626 385.158 Q323.626 377.936 318.95 373.723 Q314.274 369.51 306.265 369.51 Q302.515 369.51 298.765 370.343 Q295.061 371.177 291.172 372.936 L291.172 338.214 Z" fill="#000000" fill-rule="nonzero" fill-opacity="1" /><path clip-path="url(#clip530)" d="M309.089 167.391 Q301.866 167.391 298.209 174.521 Q294.598 181.604 294.598 195.863 Q294.598 210.076 298.209 217.206 Q301.866 224.289 309.089 224.289 Q316.357 224.289 319.968 217.206 Q323.626 210.076 323.626 195.863 Q323.626 181.604 319.968 174.521 Q316.357 167.391 309.089 167.391 M309.089 159.984 Q320.709 159.984 326.82 169.197 Q332.977 178.363 332.977 195.863 Q332.977 213.317 326.82 222.53 Q320.709 231.696 309.089 231.696 Q297.468 231.696 291.311 222.53 Q285.2 213.317 285.2 195.863 Q285.2 178.363 291.311 169.197 Q297.468 159.984 309.089 159.984 Z" fill="#000000" fill-rule="nonzero" fill-opacity="1" /><path clip-path="url(#clip532)" d="M528.028 215.814 L545.118 242.377 L562.208 271.44 L579.299 302.048 L596.389 331.363 L613.479 360.185 L630.57 377.303 L647.66 385.977 L664.75 373.529 L681.841 355.751 L698.931 346.396 L716.021 336.047 L733.112 331.925 L750.202 334.254 L767.292 342.659 L784.383 354.461 L801.473 365.678 L818.563 376.919 L835.654 387.801 L852.744 401.225 L869.834 414.084 L886.925 423.48 L904.015 421.65 L921.105 412.364 L938.195 415.469 L955.286 442.088 L972.376 471.159 L989.466 501.855 L1006.56 531.28 L1023.65 556.848 L1040.74 571.002 L1057.83 572.033 L1074.92 549.425 L1092.01 524.013 L1109.1 503.334 L1126.19 483.784 L1143.28 466.697 L1160.37 456.781 L1177.46 453.381 L1194.55 454.4 L1211.64 454.552 L1228.73 459.032 L1245.82 465.054 L1262.91 476.566 L1280 488.057 L1297.09 496.388 L1314.18 493.439 L1331.27 482.865 L1348.36 482.454 L1365.45 508.567 L1382.54 537.297 L1399.63 567.781 L1416.72 597.094 L1433.81 623.421 L1450.91 636.899 L1468 636.388 L1485.09 614.77 L1502.18 586.861 L1519.27 561.579 L1536.36 536.967 L1553.45 514.966 L1570.54 500.499 L1587.63 492.896 L1604.72 490.388 L1621.81 488.535 L1638.9 490.628 L1655.99 494.919 L1673.08 505.356 L1690.17 516.942 L1707.26 525.456 L1724.35 522.475 L1741.44 511.6 L1758.53 506.431 L1775.62 532.531 L1792.71 561.334 L1809.8 591.94 L1826.89 621.415 L1843.98 647.814 L1861.07 660.827 L1878.16 660.22 L1895.25 643.323 L1912.34 612.968 L1929.43 586.441 L1946.52 560.635 L1963.61 537.598 L1980.71 521.997 L1997.8 513.094 L2014.89 509.16 L2031.98 506.559 L2049.07 508.153 L2066.16 511.946 L2083.25 522.633 L2100.34 534.809 L2117.43 543.919 L2134.52 541.279 L2151.61 530.61 L2168.7 532.652 L2185.79 549.458 L2202.88 572.905 L2219.97 603.669 L2237.06 633.325 L2254.15 660.691 L2271.24 682.22 L2288.33 691.866 L2305.42 676.423 L2322.51 643.251 L2339.6 613.192 L2356.69 584.262 L2373.78 558.043 L2390.87 540.921 L2407.96 530.843 L2425.05 526.435 L2442.14 522.781 L2459.23 524.11 L2476.32 528.265 L2493.42 539.417 L2510.51 551.992 L2527.6 561.489 L2544.69 559.034 L2561.78 555.948 L2578.87 558.173 L2595.96 575.158 L2613.05 597.33 L2630.14 624.862 L2647.23 655.631 L2664.32 688.025 L2681.41 709.47 L2698.5 719.601 L2715.59 704.902 L2732.68 673.224 L2749.77 642.447 L2766.86 612.608 L2783.95 585.471 L2801.04 565.211 L2818.13 550.945 L2835.22 541.194 L2852.31 536.872 L2869.4 538.067 L2886.49 542.023 L2903.58 554.705 L2920.67 570.99 L2937.76 583.128 L2954.85 581.457 L2971.94 580.351 L2989.03 582.835 L3006.12 600.103 L3023.22 622.51 L3040.31 650.375 L3057.4 681.653 L3074.49 714.774 L3091.58 737.173 L3108.67 748.435 L3125.76 734.107 L3142.85 701.373 L3159.94 670.529 L3177.03 640.277 L3194.12 612.372 L3211.21 591.115 L3228.3 575.827 L3245.39 565.419 L3262.48 558.546 L3279.57 560.643 L3296.66 567.402 L3313.75 582.787 L3330.84 600.162 L3347.93 613.554 L3365.02 612.77 L3382.11 606.154 L3399.2 608.839 L3416.29 626.35 L3433.38 648.967 L3450.47 677.138 L3467.56 708.895 L3484.65 742.691 L3501.74 765.612 L3518.83 776.861 L3535.92 762.984 L3553.02 734.371 L3570.11 705.873 L3587.2 674.918 L3604.29 643.688 L3621.38 620.259 L3638.47 604.52 L3655.56 595.662 L3672.65 590.015 L3689.74 591.43 L3706.83 598.036 L3723.92 614.64 L3741.01 633.512 L3758.1 648.419 L3775.19 648.756 L3792.28 637.986 L3809.37 633.682 L3826.46 651.409 L3843.55 674.216 L3860.64 702.709 L3877.73 734.99 L3894.82 769.557 L3911.91 793.404 L3929 807.235 L3946.09 803.776 L3963.18 777.813 L3980.27 749.911 L3997.36 718.248 L4014.45 686.494 L4031.54 661.733 L4048.63 644.071 L4065.72 633.818 L4082.82 626.634 L4099.91 627.915 L4117 635.519 L4134.09 653.625 L4151.18 674.274 L4168.27 690.988 L4185.36 692.635 L4202.45 682.508 L4219.54 671.452 L4236.63 679.354 L4253.72 702.057 L4270.81 730.811 L4287.9 763.572 L4304.99 798.884 L4322.08 831.999 L4339.17 857.356 L4356.26 855.63 L4373.35 830.513 L4390.44 802.799 L4407.53 770.985 L4424.62 738.261 L4441.71 711.727 L4458.8 692.532 L4475.89 680.732 L4492.98 672.615 L4510.07 673.688 L4527.16 682.035 L4544.25 701.974 L4561.34 724.809 L4578.43 743.706 L4595.52 746.914 L4612.62 737.527 L4629.71 726.475 L4629.71 83.8843 L4612.62 84.7293 L4595.52 88.2564 L4578.43 91.0965 L4561.34 91.4573 L4544.25 91.8043 L4527.16 92.6615 L4510.07 95.8266 L4492.98 98.0181 L4475.89 99.3385 L4458.8 96.8848 L4441.71 92.9115 L4424.62 89.4746 L4407.53 89.7252 L4390.44 94.3887 L4373.35 105.47 L4356.26 123.185 L4339.17 136.659 L4322.08 139.345 L4304.99 135.793 L4287.9 125.101 L4270.81 112.737 L4253.72 100.012 L4236.63 89.1875 L4219.54 81.5856 L4202.45 82.4491 L4185.36 85.9507 L4168.27 88.7276 L4151.18 89.0375 L4134.09 89.3338 L4117 90.1384 L4099.91 93.2285 L4082.82 95.3335 L4065.72 96.4494 L4048.63 93.6932 L4031.54 90.1013 L4014.45 86.6941 L3997.36 86.9534 L3980.27 91.6414 L3963.18 102.788 L3946.09 120.567 L3929 134.063 L3911.91 136.842 L3894.82 133.454 L3877.73 122.845 L3860.64 110.508 L3843.55 97.8033 L3826.46 86.9682 L3809.37 79.3549 L3792.28 80.225 L3775.19 83.7358 L3758.1 86.5567 L3741.01 86.8567 L3723.92 87.3022 L3706.83 87.6344 L3689.74 90.0065 L3672.65 92.2717 L3655.56 94.1227 L3638.47 92.1718 L3621.38 87.7602 L3604.29 84.1768 L3587.2 84.3088 L3570.11 89.1437 L3553.02 100.251 L3535.92 117.975 L3518.83 131.449 L3501.74 134.234 L3484.65 130.808 L3467.56 120.196 L3450.47 107.883 L3433.38 95.1856 L3416.29 84.3722 L3399.2 76.7727 L3382.11 77.6396 L3365.02 81.1305 L3347.93 83.8736 L3330.84 84.0899 L3313.75 84.3412 L3296.66 82.7505 L3279.57 84.97 L3262.48 87.12 L3245.39 88.878 L3228.3 88.0256 L3211.21 84.4757 L3194.12 80.8776 L3177.03 81.1497 L3159.94 86.1157 L3142.85 96.4844 L3125.76 114.212 L3108.67 127.607 L3091.58 130.559 L3074.49 127.289 L3057.4 116.794 L3040.31 104.594 L3023.22 92.0314 L3006.12 81.3291 L2989.03 73.8312 L2971.94 74.8082 L2954.85 78.3929 L2937.76 81.2289 L2920.67 81.5246 L2903.58 80.8591 L2886.49 79.5936 L2869.4 81.9386 L2852.31 84.2266 L2835.22 86.0997 L2818.13 85.2409 L2801.04 82.0124 L2783.95 78.4845 L2766.86 78.6822 L2749.77 83.6049 L2732.68 94.2813 L2715.59 112.2 L2698.5 125.827 L2681.41 128.795 L2664.32 125.608 L2647.23 115.148 L2630.14 102.953 L2613.05 90.3584 L2595.96 79.5834 L2578.87 71.9502 L2561.78 72.863 L2544.69 76.3883 L2527.6 79.1546 L2510.51 79.3613 L2493.42 79.2098 L2476.32 77.7521 L2459.23 80.0669 L2442.14 82.301 L2425.05 84.0842 L2407.96 83.2901 L2390.87 79.3223 L2373.78 75.6454 L2356.69 76.2279 L2339.6 81.0768 L2322.51 92.2395 L2305.42 110.014 L2288.33 123.605 L2271.24 126.65 L2254.15 123.538 L2237.06 113.24 L2219.97 101.215 L2202.88 88.7894 L2185.79 78.1887 L2168.7 70.8396 L2151.61 71.8852 L2134.52 75.5267 L2117.43 78.3967 L2100.34 78.7422 L2083.25 79.0244 L2066.16 78.446 L2049.07 80.9112 L2031.98 83.265 L2014.89 85.2502 L1997.8 84.0467 L1980.71 79.9478 L1963.61 76.4823 L1946.52 76.7238 L1929.43 81.6666 L1912.34 92.5677 L1895.25 110.694 L1878.16 124.71 L1861.07 128.097 L1843.98 125.312 L1826.89 115.261 L1809.8 103.484 L1792.71 91.3196 L1775.62 80.9973 L1758.53 73.9402 L1741.44 75.3331 L1724.35 79.4 L1707.26 82.7428 L1690.17 83.6041 L1673.08 84.4407 L1655.99 85.8591 L1638.9 89.4652 L1621.81 92.114 L1604.72 93.9117 L1587.63 91.8415 L1570.54 88.0058 L1553.45 85.0179 L1536.36 85.7665 L1519.27 91.0091 L1502.18 102.45 L1485.09 120.988 L1468 135.388 L1450.91 139.143 L1433.81 136.664 L1416.72 127.002 L1399.63 115.629 L1382.54 103.883 L1365.45 94.001 L1348.36 87.3356 L1331.27 89.2337 L1314.18 93.8534 L1297.09 97.8362 L1280 99.4419 L1262.91 101.083 L1245.82 102.409 L1228.73 104.981 L1211.64 107.531 L1194.55 109.828 L1177.46 109.784 L1160.37 109.337 L1143.28 107.409 L1126.19 109.113 L1109.1 115.133 L1092.01 127.498 L1074.92 146.537 L1057.83 161.397 L1040.74 165.63 L1023.65 163.661 L1006.56 154.549 L989.466 140.883 L972.376 126.597 L955.286 115.366 L938.195 110.005 L921.105 116.306 L904.015 126.145 L886.925 131.334 L869.834 133.979 L852.744 132.797 L835.654 133.346 L818.563 137.304 L801.473 141.15 L784.383 144.639 L767.292 145.678 L750.202 138.241 L733.112 135.739 L716.021 142.12 L698.931 156.133 L681.841 171.425 L664.75 193.683 L647.66 212.471 L630.57 220.598 L613.479 221.434 L596.389 215.323 L579.299 206.877 L562.208 194.186 L545.118 184.67 L528.028 180.764  Z" fill="#aeaeae" fill-rule="evenodd" fill-opacity="0.5"/>
<polyline clip-path="url(#clip532)" style="stroke:#aeaeae; stroke-linecap:round; stroke-linejoin:round; stroke-width:0; stroke-opacity:1; fill:none" points="528.028,193.312 545.118,197.654 562.208,204 579.299,211.418 596.389,218.525 613.479,224.539 630.57,226.113 647.66,223.807 664.75,215.19 681.841,204.038 698.931,196.754 716.021,192.299 733.112,190.43 750.202,191.416 767.292,193.919 784.383,196.699 801.473,198.061 818.563,198.662 835.654,198.178 852.744,198.399 869.834,198.583 886.925,198.479 904.015,196.487 921.105,193.77 938.195,192.627 955.286,196.846 972.376,203.144 989.466,210.55 1006.56,217.675 1023.65,223.724 1040.74,225.307 1057.83,222.988 1074.92,214.217 1092.01,202.851 1109.1,195.436 1126.19,190.984 1143.28,189.147 1160.37,190.163 1177.46,192.663 1194.55,195.396 1211.64,196.688 1228.73,197.234 1245.82,196.74 1262.91,197.044 1280,197.352 1297.09,197.375 1314.18,195.509 1331.27,192.896 1348.36,191.845 1365.45,196.155 1382.54,202.541 1399.63,210.032 1416.72,217.244 1433.81,223.393 1450.91,225.076 1468,222.82 1485.09,214.021 1502.18,202.588 1519.27,195.123 1536.36,190.639 1553.45,188.783 1570.54,189.791 1587.63,192.279 1604.72,195.015 1621.81,196.307 1638.9,196.865 1655.99,196.402 1673.08,196.775 1690.17,197.16 1707.26,197.262 1724.35,195.466 1741.44,192.919 1758.53,191.929 1775.62,196.303 1792.71,202.751 1809.8,210.313 1826.89,217.59 1843.98,223.81 1861.07,225.559 1878.16,223.345 1895.25,214.567 1912.34,203.139 1929.43,195.677 1946.52,191.195 1963.61,189.35 1980.71,190.353 1997.8,192.836 2014.89,195.556 2031.98,196.847 2049.07,197.408 2066.16,196.952 2083.25,197.351 2100.34,197.787 2117.43,197.943 2134.52,196.195 2151.61,193.692 2168.7,192.741 2185.79,197.157 2202.88,203.646 2219.97,211.25 2237.06,218.573 2254.15,224.837 2271.24,226.641 2288.33,224.474 2305.42,215.76 2322.51,204.357 2339.6,196.868 2356.69,192.351 2373.78,190.471 2390.87,191.45 2407.96,193.927 2425.05,196.627 2442.14,197.896 2459.23,198.437 2476.32,197.963 2493.42,198.374 2510.51,198.816 2527.6,198.989 2544.69,197.26 2561.78,194.776 2578.87,193.842 2595.96,198.277 2613.05,204.787 2630.14,212.409 2647.23,219.759 2664.32,226.06 2681.41,227.888 2698.5,225.768 2715.59,217.046 2732.68,205.646 2749.77,198.154 2766.86,193.614 2783.95,191.716 2801.04,192.663 2818.13,195.103 2835.22,197.768 2852.31,199.018 2869.4,199.542 2886.49,199.072 2903.58,199.486 2920.67,199.938 2937.76,200.117 2954.85,198.399 2971.94,195.92 2989.03,194.991 3006.12,199.437 3023.22,205.958 3040.31,213.601 3057.4,220.971 3074.49,227.289 3091.58,229.154 3108.67,227.045 3125.76,218.346 3142.85,206.941 3159.94,199.425 3177.03,194.86 3194.12,192.913 3211.21,193.829 3228.3,196.236 3245.39,198.874 3262.48,200.098 3279.57,200.613 3296.66,200.116 3313.75,200.512 3330.84,200.962 3347.93,201.15 3365.02,199.439 3382.11,196.969 3399.2,196.049 3416.29,200.503 3433.38,207.035 3450.47,214.687 3467.56,222.067 3484.65,228.406 3501.74,230.281 3518.83,228.2 3535.92,219.479 3553.02,208.063 3570.11,200.521 3587.2,195.938 3604.29,193.973 3621.38,194.864 3638.47,197.242 3655.56,199.858 3672.65,201.055 3689.74,201.539 3706.83,201.025 3723.92,201.413 3741.01,201.864 3758.1,202.052 3775.19,200.346 3792.28,197.879 3809.37,196.961 3826.46,201.421 3843.55,207.958 3860.64,215.623 3877.73,223.02 3894.82,229.368 3911.91,231.253 3929,229.172 3946.09,220.446 3963.18,209.018 3980.27,201.47 3997.36,196.854 4014.45,194.867 4031.54,195.737 4048.63,198.099 4065.72,200.708 4082.82,201.884 4099.91,202.368 4117,201.854 4134.09,202.231 4151.18,202.675 4168.27,202.864 4185.36,201.156 4202.45,198.689 4219.54,197.768 4236.63,202.227 4253.72,208.764 4270.81,216.426 4287.9,223.824 4304.99,230.184 4322.08,232.078 4339.17,230.018 4356.26,221.309 4373.35,209.868 4390.44,202.307 4407.53,197.68 4424.62,195.668 4441.71,196.517 4458.8,198.861 4475.89,201.448 4492.98,202.603 4510.07,203.077 4527.16,202.564 4544.25,202.952 4561.34,203.4 4578.43,203.597 4595.52,201.896 4612.62,199.432 4629.71,198.514 "/>
<path clip-path="url(#clip532)" d="M528.028 203.164 L545.118 215.247 L562.208 233.232 L579.299 255.681 L596.389 279.342 L613.479 302.933 L630.57 313.949 L647.66 318.646 L664.75 303.9 L681.841 278.009 L698.931 263.877 L716.021 251.716 L733.112 246.02 L750.202 247.526 L767.292 253.759 L784.383 261.399 L801.473 266.726 L818.563 273.268 L835.654 276.718 L852.744 280.52 L869.834 282.888 L886.925 287.178 L904.015 285.45 L921.105 282.499 L938.195 282.459 L955.286 296.614 L972.376 313.166 L989.466 334.289 L1006.56 359.209 L1023.65 379.634 L1040.74 388.311 L1057.83 387.834 L1074.92 369.593 L1092.01 342.718 L1109.1 321.094 L1126.19 305.085 L1143.28 296.658 L1160.37 295.918 L1177.46 294.183 L1194.55 296.827 L1211.64 296.581 L1228.73 295.906 L1245.82 297.007 L1262.91 299.417 L1280 305.335 L1297.09 308.806 L1314.18 309.021 L1331.27 308.612 L1348.36 305.142 L1365.45 316.791 L1382.54 336.119 L1399.63 359.026 L1416.72 382.489 L1433.81 402.89 L1450.91 411.115 L1468 413.72 L1485.09 392.445 L1502.18 365.287 L1519.27 339.784 L1536.36 321.138 L1553.45 311.639 L1570.54 307.277 L1587.63 305.759 L1604.72 306.702 L1621.81 304.908 L1638.9 304.056 L1655.99 304.698 L1673.08 307.447 L1690.17 313.42 L1707.26 317.629 L1724.35 317.633 L1741.44 316.565 L1758.53 312.512 L1775.62 323.365 L1792.71 341.44 L1809.8 364.137 L1826.89 388.909 L1843.98 409.63 L1861.07 418.912 L1878.16 420.487 L1895.25 402.391 L1912.34 372.928 L1929.43 347.329 L1946.52 325.974 L1963.61 314.905 L1980.71 310.224 L1997.8 309.519 L2014.89 310.967 L2031.98 309.457 L2049.07 308.35 L2066.16 307.646 L2083.25 311.297 L2100.34 316.442 L2117.43 321.712 L2134.52 320.867 L2151.61 319.83 L2168.7 323.002 L2185.79 330.8 L2202.88 345.8 L2219.97 368.7 L2237.06 394.327 L2254.15 413.597 L2271.24 422.195 L2288.33 422.454 L2305.42 406.089 L2322.51 379.373 L2339.6 351.61 L2356.69 329.572 L2373.78 317.127 L2390.87 312.087 L2407.96 311.733 L2425.05 312.909 L2442.14 312.61 L2459.23 311.153 L2476.32 310.895 L2493.42 314.215 L2510.51 319.743 L2527.6 325.641 L2544.69 323.036 L2561.78 323.959 L2578.87 326.579 L2595.96 339.347 L2613.05 351.946 L2630.14 373.556 L2647.23 398.013 L2664.32 415.805 L2681.41 423.927 L2698.5 425.023 L2715.59 411.195 L2732.68 384.406 L2749.77 355.382 L2766.86 333.22 L2783.95 319.077 L2801.04 315.016 L2818.13 315.554 L2835.22 315.501 L2852.31 316.105 L2869.4 313.512 L2886.49 312.345 L2903.58 316.558 L2920.67 321.794 L2937.76 327.932 L2954.85 325.403 L2971.94 326.115 L2989.03 328.794 L3006.12 342.365 L3023.22 359.098 L3040.31 376.887 L3057.4 400.385 L3074.49 418.472 L3091.58 426.458 L3108.67 428.396 L3125.76 413.952 L3142.85 386.672 L3159.94 357.287 L3177.03 336.718 L3194.12 324.231 L3211.21 316.29 L3228.3 317.804 L3245.39 317.815 L3262.48 317.912 L3279.57 315.832 L3296.66 313.599 L3313.75 318.388 L3330.84 324.114 L3347.93 328.767 L3365.02 327.465 L3382.11 327.521 L3399.2 330.561 L3416.29 345.346 L3433.38 362.423 L3450.47 381.024 L3467.56 401.642 L3484.65 420.604 L3501.74 428.83 L3518.83 431.774 L3535.92 416.915 L3553.02 388.882 L3570.11 359.244 L3587.2 339.109 L3604.29 324.248 L3621.38 317.734 L3638.47 319.117 L3655.56 319.756 L3672.65 319.215 L3689.74 317.296 L3706.83 314.938 L3723.92 320.331 L3741.01 325.28 L3758.1 329.707 L3775.19 328.854 L3792.28 329.372 L3809.37 331.332 L3826.46 345.985 L3843.55 363.341 L3860.64 383.471 L3877.73 402.357 L3894.82 422.754 L3911.91 430.687 L3929 434.153 L3946.09 417.029 L3963.18 387.386 L3980.27 360.222 L3997.36 341.142 L4014.45 323.56 L4031.54 318.523 L4048.63 320.074 L4065.72 321.406 L4082.82 321.255 L4099.91 319.533 L4117 316.706 L4134.09 322.335 L4151.18 327.325 L4168.27 331.267 L4185.36 330.978 L4202.45 330.24 L4219.54 334.255 L4236.63 345.621 L4253.72 362.994 L4270.81 384.563 L4287.9 403.393 L4304.99 424.006 L4322.08 433.555 L4339.17 434.048 L4356.26 417.307 L4373.35 388.107 L4390.44 361.079 L4407.53 342.962 L4424.62 325.092 L4441.71 320.368 L4458.8 319.832 L4475.89 322.21 L4492.98 322.455 L4510.07 320.476 L4527.16 318.885 L4544.25 323.533 L4561.34 328.46 L4578.43 332.315 L4595.52 332.117 L4612.62 331.574 L4629.71 334.829 L4629.71 122.021 L4612.62 124.417 L4595.52 130.275 L4578.43 132.745 L4561.34 131.276 L4544.25 131.325 L4527.16 132.081 L4510.07 135.729 L4492.98 137.503 L4475.89 138.264 L4458.8 134.646 L4441.71 128.093 L4424.62 123.769 L4407.53 125.525 L4390.44 131.705 L4373.35 142.922 L4356.26 161.725 L4339.17 177.647 L4322.08 182.205 L4304.99 179.195 L4287.9 168.096 L4270.81 153.877 L4253.72 139.565 L4236.63 127.784 L4219.54 120.037 L4202.45 123.179 L4185.36 128.666 L4168.27 130.415 L4151.18 128.799 L4134.09 129.618 L4117 130.678 L4099.91 133.665 L4082.82 135.561 L4065.72 136.706 L4048.63 131.52 L4031.54 126.453 L4014.45 121.871 L3997.36 124.502 L3980.27 129.68 L3963.18 140.332 L3946.09 159.035 L3929 175.119 L3911.91 179.052 L3894.82 176.641 L3877.73 165.869 L3860.64 152.226 L3843.55 137.636 L3826.46 125.54 L3809.37 117.673 L3792.28 121.266 L3775.19 125.561 L3758.1 128.287 L3741.01 125.963 L3723.92 127.188 L3706.83 127.406 L3689.74 129.792 L3672.65 131.901 L3655.56 133.534 L3638.47 129.535 L3621.38 124.271 L3604.29 120.371 L3587.2 122.375 L3570.11 127.325 L3553.02 137.634 L3535.92 156.964 L3518.83 172.115 L3501.74 176.668 L3484.65 174.49 L3467.56 164.041 L3450.47 150.085 L3433.38 135.388 L3416.29 123.695 L3399.2 116.169 L3382.11 119.032 L3365.02 123.669 L3347.93 124.637 L3330.84 123.187 L3313.75 123.345 L3296.66 123.605 L3279.57 126.62 L3262.48 128.399 L3245.39 129.409 L3228.3 127.298 L3211.21 120.973 L3194.12 117.945 L3177.03 119.773 L3159.94 124.318 L3142.85 135.105 L3125.76 153.771 L3108.67 169.266 L3091.58 172.212 L3074.49 170.892 L3057.4 160.474 L3040.31 146.717 L3023.22 132.849 L3006.12 120.847 L2989.03 113.501 L2971.94 115.889 L2954.85 120.487 L2937.76 121.297 L2920.67 119.113 L2903.58 119.806 L2886.49 119.732 L2869.4 122.575 L2852.31 124.12 L2835.22 125.258 L2818.13 123.412 L2801.04 117.627 L2783.95 115.027 L2766.86 117.057 L2749.77 122.097 L2732.68 132.04 L2715.59 150.739 L2698.5 166.365 L2681.41 169.744 L2664.32 167.387 L2647.23 156.603 L2630.14 143.794 L2613.05 129.932 L2595.96 118.342 L2578.87 111.033 L2561.78 113.316 L2544.69 117.024 L2527.6 117.71 L2510.51 116.703 L2493.42 116.369 L2476.32 116.266 L2459.23 118.519 L2442.14 120.19 L2425.05 121.668 L2407.96 119.705 L2390.87 115.516 L2373.78 112.221 L2356.69 113.516 L2339.6 119.246 L2322.51 129.558 L2305.42 148.655 L2288.33 163.848 L2271.24 167.477 L2254.15 165.053 L2237.06 154.533 L2219.97 141.83 L2202.88 128.159 L2185.79 116.869 L2168.7 109.328 L2151.61 111.517 L2134.52 115.682 L2117.43 116.848 L2100.34 115.686 L2083.25 115.041 L2066.16 115.323 L2049.07 117.439 L2031.98 119.376 L2014.89 120.715 L1997.8 118.712 L1980.71 114.373 L1963.61 111.491 L1946.52 112.667 L1929.43 118.04 L1912.34 129.242 L1895.25 148.324 L1878.16 163.433 L1861.07 167.696 L1843.98 164.653 L1826.89 154.67 L1809.8 141.8 L1792.71 128.566 L1775.62 117.215 L1758.53 109.607 L1741.44 111.999 L1724.35 117.074 L1707.26 119.992 L1690.17 117.481 L1673.08 117.881 L1655.99 117.69 L1638.9 119.654 L1621.81 121.937 L1604.72 123.73 L1587.63 121.815 L1570.54 117.7 L1553.45 114.432 L1536.36 116.095 L1519.27 121.649 L1502.18 133.685 L1485.09 153.374 L1468 168.623 L1450.91 172.551 L1433.81 170.724 L1416.72 159.985 L1399.63 147.428 L1382.54 135.037 L1365.45 122.56 L1348.36 115.328 L1331.27 118.282 L1314.18 125.009 L1297.09 128.275 L1280 128.732 L1262.91 127.909 L1245.82 129.138 L1228.73 131.965 L1211.64 134.336 L1194.55 136.781 L1177.46 133.33 L1160.37 128.398 L1143.28 126.302 L1126.19 128.773 L1109.1 136.085 L1092.01 148.569 L1074.92 168.547 L1057.83 184.511 L1040.74 189.336 L1023.65 187.23 L1006.56 177.199 L989.466 163.84 L972.376 150.051 L955.286 138.299 L938.195 132.03 L921.105 136.978 L904.015 144.701 L886.925 150.789 L869.834 152.506 L852.744 152.334 L835.654 152.994 L818.563 157.255 L801.473 160.543 L784.383 161.48 L767.292 159.201 L750.202 154.958 L733.112 153.952 L716.021 158.972 L698.931 168.334 L681.841 183.744 L664.75 205.303 L647.66 222.655 L630.57 229.644 L613.479 229.925 L596.389 222.693 L579.299 211.978 L562.208 199.253 L545.118 188.858 L528.028 183.632  Z" fill="#757575" fill-rule="evenodd" fill-opacity="0.5"/>
<polyline clip-path="url(#clip532)" style="stroke:#757575; stroke-linecap:round; stroke-linejoin:round; stroke-width:0; stroke-opacity:1; fill:none" points="528.028,193.312 545.118,197.654 562.208,204 579.299,211.418 596.389,218.525 613.479,224.539 630.57,226.113 647.66,223.807 664.75,215.19 681.841,204.038 698.931,196.754 716.021,192.299 733.112,190.43 750.202,191.416 767.292,193.919 784.383,196.699 801.473,198.061 818.563,198.662 835.654,198.178 852.744,198.399 869.834,198.583 886.925,198.479 904.015,196.487 921.105,193.77 938.195,192.627 955.286,196.846 972.376,203.144 989.466,210.55 1006.56,217.675 1023.65,223.724 1040.74,225.307 1057.83,222.988 1074.92,214.217 1092.01,202.851 1109.1,195.436 1126.19,190.984 1143.28,189.147 1160.37,190.163 1177.46,192.663 1194.55,195.396 1211.64,196.688 1228.73,197.234 1245.82,196.74 1262.91,197.044 1280,197.352 1297.09,197.375 1314.18,195.509 1331.27,192.896 1348.36,191.845 1365.45,196.155 1382.54,202.541 1399.63,210.032 1416.72,217.244 1433.81,223.393 1450.91,225.076 1468,222.82 1485.09,214.021 1502.18,202.588 1519.27,195.123 1536.36,190.639 1553.45,188.783 1570.54,189.791 1587.63,192.279 1604.72,195.015 1621.81,196.307 1638.9,196.865 1655.99,196.402 1673.08,196.775 1690.17,197.16 1707.26,197.262 1724.35,195.466 1741.44,192.919 1758.53,191.929 1775.62,196.303 1792.71,202.751 1809.8,210.313 1826.89,217.59 1843.98,223.81 1861.07,225.559 1878.16,223.345 1895.25,214.567 1912.34,203.139 1929.43,195.677 1946.52,191.195 1963.61,189.35 1980.71,190.353 1997.8,192.836 2014.89,195.556 2031.98,196.847 2049.07,197.408 2066.16,196.952 2083.25,197.351 2100.34,197.787 2117.43,197.943 2134.52,196.195 2151.61,193.692 2168.7,192.741 2185.79,197.157 2202.88,203.646 2219.97,211.25 2237.06,218.573 2254.15,224.837 2271.24,226.641 2288.33,224.474 2305.42,215.76 2322.51,204.357 2339.6,196.868 2356.69,192.351 2373.78,190.471 2390.87,191.45 2407.96,193.927 2425.05,196.627 2442.14,197.896 2459.23,198.437 2476.32,197.963 2493.42,198.374 2510.51,198.816 2527.6,198.989 2544.69,197.26 2561.78,194.776 2578.87,193.842 2595.96,198.277 2613.05,204.787 2630.14,212.409 2647.23,219.759 2664.32,226.06 2681.41,227.888 2698.5,225.768 2715.59,217.046 2732.68,205.646 2749.77,198.154 2766.86,193.614 2783.95,191.716 2801.04,192.663 2818.13,195.103 2835.22,197.768 2852.31,199.018 2869.4,199.542 2886.49,199.072 2903.58,199.486 2920.67,199.938 2937.76,200.117 2954.85,198.399 2971.94,195.92 2989.03,194.991 3006.12,199.437 3023.22,205.958 3040.31,213.601 3057.4,220.971 3074.49,227.289 3091.58,229.154 3108.67,227.045 3125.76,218.346 3142.85,206.941 3159.94,199.425 3177.03,194.86 3194.12,192.913 3211.21,193.829 3228.3,196.236 3245.39,198.874 3262.48,200.098 3279.57,200.613 3296.66,200.116 3313.75,200.512 3330.84,200.962 3347.93,201.15 3365.02,199.439 3382.11,196.969 3399.2,196.049 3416.29,200.503 3433.38,207.035 3450.47,214.687 3467.56,222.067 3484.65,228.406 3501.74,230.281 3518.83,228.2 3535.92,219.479 3553.02,208.063 3570.11,200.521 3587.2,195.938 3604.29,193.973 3621.38,194.864 3638.47,197.242 3655.56,199.858 3672.65,201.055 3689.74,201.539 3706.83,201.025 3723.92,201.413 3741.01,201.864 3758.1,202.052 3775.19,200.346 3792.28,197.879 3809.37,196.961 3826.46,201.421 3843.55,207.958 3860.64,215.623 3877.73,223.02 3894.82,229.368 3911.91,231.253 3929,229.172 3946.09,220.446 3963.18,209.018 3980.27,201.47 3997.36,196.854 4014.45,194.867 4031.54,195.737 4048.63,198.099 4065.72,200.708 4082.82,201.884 4099.91,202.368 4117,201.854 4134.09,202.231 4151.18,202.675 4168.27,202.864 4185.36,201.156 4202.45,198.689 4219.54,197.768 4236.63,202.227 4253.72,208.764 4270.81,216.426 4287.9,223.824 4304.99,230.184 4322.08,232.078 4339.17,230.018 4356.26,221.309 4373.35,209.868 4390.44,202.307 4407.53,197.68 4424.62,195.668 4441.71,196.517 4458.8,198.861 4475.89,201.448 4492.98,202.603 4510.07,203.077 4527.16,202.564 4544.25,202.952 4561.34,203.4 4578.43,203.597 4595.52,201.896 4612.62,199.432 4629.71,198.514 "/>
<path clip-path="url(#clip532)" d="M528.028 198.354 L545.118 209.192 L562.208 224.233 L579.299 244.518 L596.389 265.752 L613.479 285.784 L630.57 294.63 L647.66 293.303 L664.75 276.061 L681.841 251.34 L698.931 233.874 L716.021 223.123 L733.112 219.694 L750.202 223.845 L767.292 230.037 L784.383 237.544 L801.473 242.616 L818.563 246.771 L835.654 247.013 L852.744 250.245 L869.834 252.831 L886.925 256.027 L904.015 246.666 L921.105 243.083 L938.195 241.534 L955.286 252.335 L972.376 266.517 L989.466 283.014 L1006.56 301.427 L1023.65 320.874 L1040.74 329.268 L1057.83 331.101 L1074.92 310.495 L1092.01 281.691 L1109.1 259.853 L1126.19 248.103 L1143.28 242.657 L1160.37 243.486 L1177.46 247.585 L1194.55 253.338 L1211.64 257.348 L1228.73 259.318 L1245.82 259.379 L1262.91 262.034 L1280 264.541 L1297.09 264.48 L1314.18 255.899 L1331.27 251.773 L1348.36 251.31 L1365.45 261.51 L1382.54 274.195 L1399.63 291.338 L1416.72 311.183 L1433.81 328.446 L1450.91 336.216 L1468 337.928 L1485.09 319.791 L1502.18 286.545 L1519.27 267.836 L1536.36 256.334 L1553.45 249.558 L1570.54 248.995 L1587.63 253.178 L1604.72 258.098 L1621.81 260.79 L1638.9 263.282 L1655.99 264.051 L1673.08 264.224 L1690.17 267.449 L1707.26 267.315 L1724.35 260.351 L1741.44 256.234 L1758.53 257.097 L1775.62 266.593 L1792.71 278.35 L1809.8 294.647 L1826.89 314.045 L1843.98 332.649 L1861.07 339.226 L1878.16 339.728 L1895.25 320.026 L1912.34 289.174 L1929.43 271.08 L1946.52 258.158 L1963.61 252.663 L1980.71 252.044 L1997.8 255.054 L2014.89 260.458 L2031.98 262.472 L2049.07 264.337 L2066.16 265.841 L2083.25 265.701 L2100.34 268.649 L2117.43 268.688 L2134.52 262.728 L2151.61 260.061 L2168.7 260.105 L2185.79 271.197 L2202.88 282.175 L2219.97 296.42 L2237.06 315.564 L2254.15 333.946 L2271.24 341.173 L2288.33 340.331 L2305.42 321.119 L2322.51 291.999 L2339.6 273.73 L2356.69 261.314 L2373.78 255.669 L2390.87 254.641 L2407.96 259.226 L2425.05 263.524 L2442.14 264.846 L2459.23 267.072 L2476.32 267.578 L2493.42 267.603 L2510.51 271.342 L2527.6 271.475 L2544.69 266.265 L2561.78 263.234 L2578.87 262.82 L2595.96 272.99 L2613.05 284.403 L2630.14 299.987 L2647.23 317.566 L2664.32 335.839 L2681.41 343.415 L2698.5 342.637 L2715.59 322.109 L2732.68 294.666 L2749.77 275.975 L2766.86 263.812 L2783.95 257.595 L2801.04 257.703 L2818.13 261.373 L2835.22 265.501 L2852.31 268.013 L2869.4 270.052 L2886.49 269.52 L2903.58 269.634 L2920.67 273.737 L2937.76 274.543 L2954.85 269.273 L2971.94 263.472 L2989.03 263.43 L3006.12 274.704 L3023.22 287.717 L3040.31 301.03 L3057.4 319.78 L3074.49 337.022 L3091.58 345.208 L3108.67 343.42 L3125.76 324.107 L3142.85 297.246 L3159.94 278.214 L3177.03 266.789 L3194.12 260.988 L3211.21 259.98 L3228.3 263.333 L3245.39 267.273 L3262.48 269.849 L3279.57 272.47 L3296.66 271.348 L3313.75 273.019 L3330.84 276.512 L3347.93 276.962 L3365.02 270.49 L3382.11 264.597 L3399.2 264.613 L3416.29 275.826 L3433.38 289.13 L3450.47 303.046 L3467.56 321.834 L3484.65 337.778 L3501.74 347.14 L3518.83 345.327 L3535.92 325.758 L3553.02 298.849 L3570.11 279.172 L3587.2 268.466 L3604.29 261.28 L3621.38 261.463 L3638.47 263.72 L3655.56 268.878 L3672.65 271.636 L3689.74 274.203 L3706.83 273.149 L3723.92 274.536 L3741.01 277.636 L3758.1 278.47 L3775.19 273.06 L3792.28 265.94 L3809.37 266.649 L3826.46 276.907 L3843.55 290.493 L3860.64 304.319 L3877.73 323.27 L3894.82 340.876 L3911.91 348.243 L3929 345.879 L3946.09 327.989 L3963.18 300.605 L3980.27 280.137 L3997.36 271.214 L4014.45 263.383 L4031.54 262.763 L4048.63 266.469 L4065.72 270.624 L4082.82 272.246 L4099.91 274.627 L4117 274.349 L4134.09 276.271 L4151.18 278.05 L4168.27 278.608 L4185.36 273.542 L4202.45 267.931 L4219.54 268.234 L4236.63 278.202 L4253.72 291.796 L4270.81 306.774 L4287.9 324.769 L4304.99 341.76 L4322.08 348.635 L4339.17 346.757 L4356.26 328.618 L4373.35 302.303 L4390.44 282.74 L4407.53 273.071 L4424.62 264.017 L4441.71 263.882 L4458.8 267.77 L4475.89 271.607 L4492.98 273.275 L4510.07 275.024 L4527.16 275.472 L4544.25 276.783 L4561.34 279.214 L4578.43 279.792 L4595.52 275.105 L4612.62 269.71 L4629.71 270.199 L4629.71 133.686 L4612.62 133.755 L4595.52 139.983 L4578.43 146.219 L4561.34 146.514 L4544.25 147.54 L4527.16 149.33 L4510.07 153.445 L4492.98 154.443 L4475.89 151.541 L4458.8 145.801 L4441.71 140.26 L4424.62 135.95 L4407.53 136.783 L4390.44 142.266 L4373.35 153.523 L4356.26 173.206 L4339.17 188.938 L4322.08 192.886 L4304.99 190.178 L4287.9 178.009 L4270.81 164.404 L4253.72 151.428 L4236.63 139.887 L4219.54 131.617 L4202.45 132.589 L4185.36 139.066 L4168.27 144.855 L4151.18 144.927 L4134.09 145.805 L4117 148.203 L4099.91 151.313 L4082.82 153.123 L4065.72 150.84 L4048.63 144.676 L4031.54 138.661 L4014.45 135.162 L3997.36 135.646 L3980.27 140.724 L3963.18 151.812 L3946.09 171.498 L3929 186.745 L3911.91 190.96 L3894.82 188.727 L3877.73 176.013 L3860.64 162.251 L3843.55 149.467 L3826.46 137.79 L3809.37 128.874 L3792.28 129.74 L3775.19 137.062 L3758.1 142.541 L3741.01 142.479 L3723.92 143.796 L3706.83 146.322 L3689.74 149.664 L3672.65 151.414 L3655.56 149.046 L3638.47 142.669 L3621.38 136.61 L3604.29 132.39 L3587.2 134.149 L3570.11 139.028 L3553.02 149.91 L3535.92 169.323 L3518.83 185.063 L3501.74 188.721 L3484.65 185.49 L3467.56 174.793 L3450.47 160.417 L3433.38 146.028 L3416.29 134.271 L3399.2 126.08 L3382.11 128.082 L3365.02 135.501 L3347.93 139.996 L3330.84 140.635 L3313.75 142.387 L3296.66 143.901 L3279.57 148.079 L3262.48 149.1 L3245.39 146.798 L3228.3 140.613 L3211.21 134.751 L3194.12 130.496 L3177.03 131.859 L3159.94 135.84 L3142.85 147.907 L3125.76 167.163 L3108.67 182.484 L3091.58 186.369 L3074.49 183.491 L3057.4 172.062 L3040.31 158.81 L3023.22 143.745 L3006.12 131.754 L2989.03 123.956 L2971.94 126.307 L2954.85 133.27 L2937.76 137.699 L2920.67 138.563 L2903.58 139.236 L2886.49 141.451 L2869.4 144.988 L2852.31 146.656 L2835.22 144.785 L2818.13 138.744 L2801.04 131.549 L2783.95 127.554 L2766.86 128.29 L2749.77 133.216 L2732.68 145.175 L2715.59 164.105 L2698.5 180.037 L2681.41 183.946 L2664.32 181.073 L2647.23 169.718 L2630.14 156.006 L2613.05 141.659 L2595.96 129.81 L2578.87 121.988 L2561.78 123.967 L2544.69 130.931 L2527.6 134.83 L2510.51 136.574 L2493.42 137.119 L2476.32 137.561 L2459.23 141.106 L2442.14 143.008 L2425.05 142.048 L2407.96 136.4 L2390.87 129.179 L2373.78 124.878 L2356.69 125.835 L2339.6 131.272 L2322.51 142.325 L2305.42 161.081 L2288.33 177.655 L2271.24 181.563 L2254.15 178.663 L2237.06 167.945 L2219.97 154.033 L2202.88 139.325 L2185.79 127.561 L2168.7 120.037 L2151.61 122.061 L2134.52 129.655 L2117.43 133.555 L2100.34 134.29 L2083.25 134.736 L2066.16 134.983 L2049.07 138.685 L2031.98 140.851 L2014.89 140.333 L1997.8 134.456 L1980.71 127.699 L1963.61 123.232 L1946.52 124.354 L1929.43 129.361 L1912.34 140.896 L1895.25 160.211 L1878.16 176.204 L1861.07 180.089 L1843.98 177.474 L1826.89 166.964 L1809.8 153.265 L1792.71 139.833 L1775.62 127.92 L1758.53 120.339 L1741.44 122.252 L1724.35 129.74 L1707.26 133.804 L1690.17 134.647 L1673.08 135.108 L1655.99 135.555 L1638.9 140.613 L1621.81 142.021 L1604.72 140.459 L1587.63 134.828 L1570.54 129.328 L1553.45 125.394 L1536.36 126.248 L1519.27 132.395 L1502.18 143.832 L1485.09 163.303 L1468 178.948 L1450.91 183.542 L1433.81 181.546 L1416.72 171.131 L1399.63 158.728 L1382.54 144.692 L1365.45 133.003 L1348.36 125.882 L1331.27 128.888 L1314.18 134.793 L1297.09 139.618 L1280 140.897 L1262.91 142.238 L1245.82 143.792 L1228.73 147.6 L1211.64 149.304 L1194.55 148.415 L1177.46 142.945 L1160.37 137.408 L1143.28 134.888 L1126.19 136.195 L1109.1 142.936 L1092.01 154.941 L1074.92 175.747 L1057.83 191.897 L1040.74 196.655 L1023.65 195.714 L1006.56 185.503 L989.466 172.593 L972.376 158.399 L955.286 147.153 L938.195 140.316 L921.105 144.359 L904.015 151.911 L886.925 157.605 L869.834 159.638 L852.744 161.954 L835.654 163.869 L818.563 167.773 L801.473 168.168 L784.383 167.412 L767.292 163.16 L750.202 159.9 L733.112 158.934 L716.021 163.605 L698.931 172.91 L681.841 186.776 L664.75 207.962 L647.66 225.333 L630.57 232.115 L613.479 232.314 L596.389 224.298 L579.299 214.094 L562.208 201.411 L545.118 190.544 L528.028 184.744  Z" fill="#414141" fill-rule="evenodd" fill-opacity="0.5"/>
<polyline clip-path="url(#clip532)" style="stroke:#414141; stroke-linecap:round; stroke-linejoin:round; stroke-width:0; stroke-opacity:1; fill:none" points="528.028,193.312 545.118,197.654 562.208,204 579.299,211.418 596.389,218.525 613.479,224.539 630.57,226.113 647.66,223.807 664.75,215.19 681.841,204.038 698.931,196.754 716.021,192.299 733.112,190.43 750.202,191.416 767.292,193.919 784.383,196.699 801.473,198.061 818.563,198.662 835.654,198.178 852.744,198.399 869.834,198.583 886.925,198.479 904.015,196.487 921.105,193.77 938.195,192.627 955.286,196.846 972.376,203.144 989.466,210.55 1006.56,217.675 1023.65,223.724 1040.74,225.307 1057.83,222.988 1074.92,214.217 1092.01,202.851 1109.1,195.436 1126.19,190.984 1143.28,189.147 1160.37,190.163 1177.46,192.663 1194.55,195.396 1211.64,196.688 1228.73,197.234 1245.82,196.74 1262.91,197.044 1280,197.352 1297.09,197.375 1314.18,195.509 1331.27,192.896 1348.36,191.845 1365.45,196.155 1382.54,202.541 1399.63,210.032 1416.72,217.244 1433.81,223.393 1450.91,225.076 1468,222.82 1485.09,214.021 1502.18,202.588 1519.27,195.123 1536.36,190.639 1553.45,188.783 1570.54,189.791 1587.63,192.279 1604.72,195.015 1621.81,196.307 1638.9,196.865 1655.99,196.402 1673.08,196.775 1690.17,197.16 1707.26,197.262 1724.35,195.466 1741.44,192.919 1758.53,191.929 1775.62,196.303 1792.71,202.751 1809.8,210.313 1826.89,217.59 1843.98,223.81 1861.07,225.559 1878.16,223.345 1895.25,214.567 1912.34,203.139 1929.43,195.677 1946.52,191.195 1963.61,189.35 1980.71,190.353 1997.8,192.836 2014.89,195.556 2031.98,196.847 2049.07,197.408 2066.16,196.952 2083.25,197.351 2100.34,197.787 2117.43,197.943 2134.52,196.195 2151.61,193.692 2168.7,192.741 2185.79,197.157 2202.88,203.646 2219.97,211.25 2237.06,218.573 2254.15,224.837 2271.24,226.641 2288.33,224.474 2305.42,215.76 2322.51,204.357 2339.6,196.868 2356.69,192.351 2373.78,190.471 2390.87,191.45 2407.96,193.927 2425.05,196.627 2442.14,197.896 2459.23,198.437 2476.32,197.963 2493.42,198.374 2510.51,198.816 2527.6,198.989 2544.69,197.26 2561.78,194.776 2578.87,193.842 2595.96,198.277 2613.05,204.787 2630.14,212.409 2647.23,219.759 2664.32,226.06 2681.41,227.888 2698.5,225.768 2715.59,217.046 2732.68,205.646 2749.77,198.154 2766.86,193.614 2783.95,191.716 2801.04,192.663 2818.13,195.103 2835.22,197.768 2852.31,199.018 2869.4,199.542 2886.49,199.072 2903.58,199.486 2920.67,199.938 2937.76,200.117 2954.85,198.399 2971.94,195.92 2989.03,194.991 3006.12,199.437 3023.22,205.958 3040.31,213.601 3057.4,220.971 3074.49,227.289 3091.58,229.154 3108.67,227.045 3125.76,218.346 3142.85,206.941 3159.94,199.425 3177.03,194.86 3194.12,192.913 3211.21,193.829 3228.3,196.236 3245.39,198.874 3262.48,200.098 3279.57,200.613 3296.66,200.116 3313.75,200.512 3330.84,200.962 3347.93,201.15 3365.02,199.439 3382.11,196.969 3399.2,196.049 3416.29,200.503 3433.38,207.035 3450.47,214.687 3467.56,222.067 3484.65,228.406 3501.74,230.281 3518.83,228.2 3535.92,219.479 3553.02,208.063 3570.11,200.521 3587.2,195.938 3604.29,193.973 3621.38,194.864 3638.47,197.242 3655.56,199.858 3672.65,201.055 3689.74,201.539 3706.83,201.025 3723.92,201.413 3741.01,201.864 3758.1,202.052 3775.19,200.346 3792.28,197.879 3809.37,196.961 3826.46,201.421 3843.55,207.958 3860.64,215.623 3877.73,223.02 3894.82,229.368 3911.91,231.253 3929,229.172 3946.09,220.446 3963.18,209.018 3980.27,201.47 3997.36,196.854 4014.45,194.867 4031.54,195.737 4048.63,198.099 4065.72,200.708 4082.82,201.884 4099.91,202.368 4117,201.854 4134.09,202.231 4151.18,202.675 4168.27,202.864 4185.36,201.156 4202.45,198.689 4219.54,197.768 4236.63,202.227 4253.72,208.764 4270.81,216.426 4287.9,223.824 4304.99,230.184 4322.08,232.078 4339.17,230.018 4356.26,221.309 4373.35,209.868 4390.44,202.307 4407.53,197.68 4424.62,195.668 4441.71,196.517 4458.8,198.861 4475.89,201.448 4492.98,202.603 4510.07,203.077 4527.16,202.564 4544.25,202.952 4561.34,203.4 4578.43,203.597 4595.52,201.896 4612.62,199.432 4629.71,198.514 "/>
<path clip-path="url(#clip530)" d="M3853.78 853.161 L4607.83 853.161 L4607.83 334.761 L3853.78 334.761  Z" fill="#ffffff" fill-rule="evenodd" fill-opacity="1"/>
<polyline clip-path="url(#clip530)" style="stroke:#000000; stroke-linecap:round; stroke-linejoin:round; stroke-width:4; stroke-opacity:1; fill:none" points="3853.78,853.161 4607.83,853.161 4607.83,334.761 3853.78,334.761 3853.78,853.161 "/>
<polyline clip-path="url(#clip530)" style="stroke:#aeaeae; stroke-linecap:round; stroke-linejoin:round; stroke-width:2; stroke-opacity:1; fill:none" points="3902.09,464.361 4191.94,464.361 "/>
<path clip-path="url(#clip530)" d="M4241.93 497.723 L4261.03 497.723 L4261.03 431.809 L4240.25 435.976 L4240.25 425.328 L4260.91 421.161 L4272.6 421.161 L4272.6 497.723 L4291.7 497.723 L4291.7 507.561 L4241.93 507.561 L4241.93 497.723 Z" fill="#000000" fill-rule="nonzero" fill-opacity="1" /><path clip-path="url(#clip530)" d="M4340.31 428.858 Q4331.28 428.858 4326.71 437.77 Q4322.2 446.624 4322.2 464.448 Q4322.2 482.214 4326.71 491.126 Q4331.28 499.98 4340.31 499.98 Q4349.4 499.98 4353.91 491.126 Q4358.48 482.214 4358.48 464.448 Q4358.48 446.624 4353.91 437.77 Q4349.4 428.858 4340.31 428.858 M4340.31 419.599 Q4354.83 419.599 4362.47 431.115 Q4370.17 442.573 4370.17 464.448 Q4370.17 486.265 4362.47 497.781 Q4354.83 509.239 4340.31 509.239 Q4325.78 509.239 4318.09 497.781 Q4310.45 486.265 4310.45 464.448 Q4310.45 442.573 4318.09 431.115 Q4325.78 419.599 4340.31 419.599 Z" fill="#000000" fill-rule="nonzero" fill-opacity="1" /><path clip-path="url(#clip530)" d="M4415.71 428.858 Q4406.69 428.858 4402.11 437.77 Q4397.6 446.624 4397.6 464.448 Q4397.6 482.214 4402.11 491.126 Q4406.69 499.98 4415.71 499.98 Q4424.8 499.98 4429.31 491.126 Q4433.89 482.214 4433.89 464.448 Q4433.89 446.624 4429.31 437.77 Q4424.8 428.858 4415.71 428.858 M4415.71 419.599 Q4430.24 419.599 4437.88 431.115 Q4445.58 442.573 4445.58 464.448 Q4445.58 486.265 4437.88 497.781 Q4430.24 509.239 4415.71 509.239 Q4401.19 509.239 4393.49 497.781 Q4385.85 486.265 4385.85 464.448 Q4385.85 442.573 4393.49 431.115 Q4401.19 419.599 4415.71 419.599 Z" fill="#000000" fill-rule="nonzero" fill-opacity="1" /><path clip-path="url(#clip530)" d="M4539.61 469.541 Q4534.58 469.541 4531.69 473.823 Q4528.85 478.105 4528.85 485.744 Q4528.85 493.267 4531.69 497.608 Q4534.58 501.89 4539.61 501.89 Q4544.53 501.89 4547.37 497.608 Q4550.26 493.267 4550.26 485.744 Q4550.26 478.163 4547.37 473.881 Q4544.53 469.541 4539.61 469.541 M4539.61 462.191 Q4548.76 462.191 4554.14 468.557 Q4559.52 474.923 4559.52 485.744 Q4559.52 496.566 4554.08 502.932 Q4548.7 509.239 4539.61 509.239 Q4530.35 509.239 4524.97 502.932 Q4519.59 496.566 4519.59 485.744 Q4519.59 474.865 4524.97 468.557 Q4530.41 462.191 4539.61 462.191 M4479.89 426.948 Q4474.92 426.948 4472.02 431.289 Q4469.19 435.571 4469.19 443.094 Q4469.19 450.733 4472.02 455.015 Q4474.86 459.298 4479.89 459.298 Q4484.93 459.298 4487.76 455.015 Q4490.66 450.733 4490.66 443.094 Q4490.66 435.629 4487.76 431.289 Q4484.87 426.948 4479.89 426.948 M4532.15 419.599 L4541.41 419.599 L4487.36 509.239 L4478.1 509.239 L4532.15 419.599 M4479.89 419.599 Q4489.04 419.599 4494.48 425.964 Q4499.92 432.272 4499.92 443.094 Q4499.92 454.031 4494.48 460.339 Q4489.09 466.647 4479.89 466.647 Q4470.69 466.647 4465.31 460.339 Q4459.98 453.974 4459.98 443.094 Q4459.98 432.33 4465.37 425.964 Q4470.75 419.599 4479.89 419.599 Z" fill="#000000" fill-rule="nonzero" fill-opacity="1" /><polyline clip-path="url(#clip530)" style="stroke:#757575; stroke-linecap:round; stroke-linejoin:round; stroke-width:2; stroke-opacity:1; fill:none" points="3902.09,593.961 4191.94,593.961 "/>
<path clip-path="url(#clip530)" d="M4245.81 635.367 L4245.81 624.719 Q4250.21 626.803 4254.72 627.902 Q4259.23 629.002 4263.57 629.002 Q4275.15 629.002 4281.22 621.247 Q4287.36 613.435 4288.23 597.578 Q4284.87 602.555 4279.72 605.217 Q4274.57 607.879 4268.32 607.879 Q4255.36 607.879 4247.78 600.067 Q4240.25 592.196 4240.25 578.597 Q4240.25 565.287 4248.12 557.243 Q4255.99 549.199 4269.07 549.199 Q4284.06 549.199 4291.93 560.715 Q4299.86 572.173 4299.86 594.048 Q4299.86 614.476 4290.14 626.687 Q4280.47 638.839 4264.09 638.839 Q4259.7 638.839 4255.18 637.971 Q4250.67 637.103 4245.81 635.367 M4269.07 598.736 Q4276.94 598.736 4281.51 593.354 Q4286.14 587.972 4286.14 578.597 Q4286.14 569.28 4281.51 563.898 Q4276.94 558.458 4269.07 558.458 Q4261.2 558.458 4256.57 563.898 Q4252 569.28 4252 578.597 Q4252 587.972 4256.57 593.354 Q4261.2 598.736 4269.07 598.736 Z" fill="#000000" fill-rule="nonzero" fill-opacity="1" /><path clip-path="url(#clip530)" d="M4345.87 558.458 Q4336.84 558.458 4332.27 567.37 Q4327.75 576.224 4327.75 594.048 Q4327.75 611.814 4332.27 620.726 Q4336.84 629.58 4345.87 629.58 Q4354.95 629.58 4359.46 620.726 Q4364.04 611.814 4364.04 594.048 Q4364.04 576.224 4359.46 567.37 Q4354.95 558.458 4345.87 558.458 M4345.87 549.199 Q4360.39 549.199 4368.03 560.715 Q4375.73 572.173 4375.73 594.048 Q4375.73 615.865 4368.03 627.381 Q4360.39 638.839 4345.87 638.839 Q4331.34 638.839 4323.64 627.381 Q4316 615.865 4316 594.048 Q4316 572.173 4323.64 560.715 Q4331.34 549.199 4345.87 549.199 Z" fill="#000000" fill-rule="nonzero" fill-opacity="1" /><path clip-path="url(#clip530)" d="M4469.76 599.141 Q4464.73 599.141 4461.84 603.423 Q4459 607.705 4459 615.344 Q4459 622.867 4461.84 627.208 Q4464.73 631.49 4469.76 631.49 Q4474.68 631.49 4477.52 627.208 Q4480.41 622.867 4480.41 615.344 Q4480.41 607.763 4477.52 603.481 Q4474.68 599.141 4469.76 599.141 M4469.76 591.791 Q4478.91 591.791 4484.29 598.157 Q4489.67 604.523 4489.67 615.344 Q4489.67 626.166 4484.23 632.532 Q4478.85 638.839 4469.76 638.839 Q4460.51 638.839 4455.12 632.532 Q4449.74 626.166 4449.74 615.344 Q4449.74 604.465 4455.12 598.157 Q4460.56 591.791 4469.76 591.791 M4410.04 556.548 Q4405.07 556.548 4402.17 560.889 Q4399.34 565.171 4399.34 572.694 Q4399.34 580.333 4402.17 584.615 Q4405.01 588.898 4410.04 588.898 Q4415.08 588.898 4417.91 584.615 Q4420.81 580.333 4420.81 572.694 Q4420.81 565.229 4417.91 560.889 Q4415.02 556.548 4410.04 556.548 M4462.3 549.199 L4471.56 549.199 L4417.51 638.839 L4408.25 638.839 L4462.3 549.199 M4410.04 549.199 Q4419.19 549.199 4424.63 555.564 Q4430.07 561.872 4430.07 572.694 Q4430.07 583.631 4424.63 589.939 Q4419.24 596.247 4410.04 596.247 Q4400.84 596.247 4395.46 589.939 Q4390.14 583.574 4390.14 572.694 Q4390.14 561.93 4395.52 555.564 Q4400.9 549.199 4410.04 549.199 Z" fill="#000000" fill-rule="nonzero" fill-opacity="1" /><polyline clip-path="url(#clip530)" style="stroke:#414141; stroke-linecap:round; stroke-linejoin:round; stroke-width:2; stroke-opacity:1; fill:none" points="3902.09,723.561 4191.94,723.561 "/>
<path clip-path="url(#clip530)" d="M4269.88 725.731 Q4261.55 725.731 4256.75 730.187 Q4252 734.643 4252 742.456 Q4252 750.268 4256.75 754.724 Q4261.55 759.18 4269.88 759.18 Q4278.21 759.18 4283.02 754.724 Q4287.82 750.21 4287.82 742.456 Q4287.82 734.643 4283.02 730.187 Q4278.27 725.731 4269.88 725.731 M4258.19 720.755 Q4250.67 718.903 4246.44 713.752 Q4242.28 708.602 4242.28 701.194 Q4242.28 690.836 4249.63 684.817 Q4257.03 678.799 4269.88 678.799 Q4282.79 678.799 4290.14 684.817 Q4297.49 690.836 4297.49 701.194 Q4297.49 708.602 4293.26 713.752 Q4289.09 718.903 4281.63 720.755 Q4290.08 722.722 4294.77 728.451 Q4299.51 734.18 4299.51 742.456 Q4299.51 755.014 4291.81 761.727 Q4284.18 768.439 4269.88 768.439 Q4255.59 768.439 4247.89 761.727 Q4240.25 755.014 4240.25 742.456 Q4240.25 734.18 4245 728.451 Q4249.74 722.722 4258.19 720.755 M4253.91 702.294 Q4253.91 709.007 4258.08 712.768 Q4262.3 716.53 4269.88 716.53 Q4277.4 716.53 4281.63 712.768 Q4285.91 709.007 4285.91 702.294 Q4285.91 695.581 4281.63 691.82 Q4277.4 688.058 4269.88 688.058 Q4262.3 688.058 4258.08 691.82 Q4253.91 695.581 4253.91 702.294 Z" fill="#000000" fill-rule="nonzero" fill-opacity="1" /><path clip-path="url(#clip530)" d="M4345.29 688.058 Q4336.26 688.058 4331.69 696.97 Q4327.17 705.824 4327.17 723.648 Q4327.17 741.414 4331.69 750.326 Q4336.26 759.18 4345.29 759.18 Q4354.37 759.18 4358.89 750.326 Q4363.46 741.414 4363.46 723.648 Q4363.46 705.824 4358.89 696.97 Q4354.37 688.058 4345.29 688.058 M4345.29 678.799 Q4359.81 678.799 4367.45 690.315 Q4375.15 701.773 4375.15 723.648 Q4375.15 745.465 4367.45 756.981 Q4359.81 768.439 4345.29 768.439 Q4330.76 768.439 4323.06 756.981 Q4315.43 745.465 4315.43 723.648 Q4315.43 701.773 4323.06 690.315 Q4330.76 678.799 4345.29 678.799 Z" fill="#000000" fill-rule="nonzero" fill-opacity="1" /><path clip-path="url(#clip530)" d="M4469.19 728.741 Q4464.15 728.741 4461.26 733.023 Q4458.42 737.305 4458.42 744.944 Q4458.42 752.467 4461.26 756.808 Q4464.15 761.09 4469.19 761.09 Q4474.11 761.09 4476.94 756.808 Q4479.83 752.467 4479.83 744.944 Q4479.83 737.363 4476.94 733.081 Q4474.11 728.741 4469.19 728.741 M4469.19 721.391 Q4478.33 721.391 4483.71 727.757 Q4489.09 734.123 4489.09 744.944 Q4489.09 755.766 4483.65 762.132 Q4478.27 768.439 4469.19 768.439 Q4459.93 768.439 4454.55 762.132 Q4449.16 755.766 4449.16 744.944 Q4449.16 734.065 4454.55 727.757 Q4459.98 721.391 4469.19 721.391 M4409.46 686.148 Q4404.49 686.148 4401.59 690.489 Q4398.76 694.771 4398.76 702.294 Q4398.76 709.933 4401.59 714.215 Q4404.43 718.498 4409.46 718.498 Q4414.5 718.498 4417.33 714.215 Q4420.23 709.933 4420.23 702.294 Q4420.23 694.829 4417.33 690.489 Q4414.44 686.148 4409.46 686.148 M4461.72 678.799 L4470.98 678.799 L4416.93 768.439 L4407.67 768.439 L4461.72 678.799 M4409.46 678.799 Q4418.61 678.799 4424.05 685.164 Q4429.49 691.472 4429.49 702.294 Q4429.49 713.231 4424.05 719.539 Q4418.67 725.847 4409.46 725.847 Q4400.26 725.847 4394.88 719.539 Q4389.56 713.174 4389.56 702.294 Q4389.56 691.53 4394.94 685.164 Q4400.32 678.799 4409.46 678.799 Z" fill="#000000" fill-rule="nonzero" fill-opacity="1" /></svg>
