<?xml version="1.0" encoding="utf-8"?>
<svg xmlns="http://www.w3.org/2000/svg" xmlns:xlink="http://www.w3.org/1999/xlink" width="1200" height="300" viewBox="0 0 4800 1200">
<defs>
  <clipPath id="clip610">
    <rect x="0" y="0" width="4800" height="1200"/>
  </clipPath>
</defs>
<path clip-path="url(#clip610)" d="M0 1200 L4800 1200 L4800 0 L0 0  Z" fill="#ffffff" fill-rule="evenodd" fill-opacity="1"/>
<defs>
  <clipPath id="clip611">
    <rect x="960" y="0" width="3361" height="1200"/>
  </clipPath>
</defs>
<path clip-path="url(#clip610)" d="M404.977 880.951 L4752.76 880.951 L4752.76 47.2441 L404.977 47.2441  Z" fill="#ffffff" fill-rule="evenodd" fill-opacity="1"/>
<defs>
  <clipPath id="clip612">
    <rect x="404" y="47" width="4349" height="835"/>
  </clipPath>
</defs>
<polyline clip-path="url(#clip612)" style="stroke:#000000; stroke-linecap:round; stroke-linejoin:round; stroke-width:2; stroke-opacity:0.1; fill:none" points="528.028,880.951 528.028,47.2441 "/>
<polyline clip-path="url(#clip612)" style="stroke:#000000; stroke-linecap:round; stroke-linejoin:round; stroke-width:2; stroke-opacity:0.1; fill:none" points="1348.36,880.951 1348.36,47.2441 "/>
<polyline clip-path="url(#clip612)" style="stroke:#000000; stroke-linecap:round; stroke-linejoin:round; stroke-width:2; stroke-opacity:0.1; fill:none" points="2168.7,880.951 2168.7,47.2441 "/>
<polyline clip-path="url(#clip612)" style="stroke:#000000; stroke-linecap:round; stroke-linejoin:round; stroke-width:2; stroke-opacity:0.1; fill:none" points="2989.03,880.951 2989.03,47.2441 "/>
<polyline clip-path="url(#clip612)" style="stroke:#000000; stroke-linecap:round; stroke-linejoin:round; stroke-width:2; stroke-opacity:0.1; fill:none" points="3809.37,880.951 3809.37,47.2441 "/>
<polyline clip-path="url(#clip612)" style="stroke:#000000; stroke-linecap:round; stroke-linejoin:round; stroke-width:2; stroke-opacity:0.1; fill:none" points="4629.71,880.951 4629.71,47.2441 "/>
<polyline clip-path="url(#clip612)" style="stroke:#000000; stroke-linecap:round; stroke-linejoin:round; stroke-width:2; stroke-opacity:0.1; fill:none" points="404.977,726.129 4752.76,726.129 "/>
<polyline clip-path="url(#clip612)" style="stroke:#000000; stroke-linecap:round; stroke-linejoin:round; stroke-width:2; stroke-opacity:0.1; fill:none" points="404.977,548.45 4752.76,548.45 "/>
<polyline clip-path="url(#clip612)" style="stroke:#000000; stroke-linecap:round; stroke-linejoin:round; stroke-width:2; stroke-opacity:0.1; fill:none" points="404.977,370.771 4752.76,370.771 "/>
<polyline clip-path="url(#clip612)" style="stroke:#000000; stroke-linecap:round; stroke-linejoin:round; stroke-width:2; stroke-opacity:0.1; fill:none" points="404.977,193.092 4752.76,193.092 "/>
<polyline clip-path="url(#clip610)" style="stroke:#000000; stroke-linecap:round; stroke-linejoin:round; stroke-width:4; stroke-opacity:1; fill:none" points="404.977,880.951 4752.76,880.951 "/>
<polyline clip-path="url(#clip610)" style="stroke:#000000; stroke-linecap:round; stroke-linejoin:round; stroke-width:4; stroke-opacity:1; fill:none" points="528.028,880.951 528.028,862.054 "/>
<polyline clip-path="url(#clip610)" style="stroke:#000000; stroke-linecap:round; stroke-linejoin:round; stroke-width:4; stroke-opacity:1; fill:none" points="1348.36,880.951 1348.36,862.054 "/>
<polyline clip-path="url(#clip610)" style="stroke:#000000; stroke-linecap:round; stroke-linejoin:round; stroke-width:4; stroke-opacity:1; fill:none" points="2168.7,880.951 2168.7,862.054 "/>
<polyline clip-path="url(#clip610)" style="stroke:#000000; stroke-linecap:round; stroke-linejoin:round; stroke-width:4; stroke-opacity:1; fill:none" points="2989.03,880.951 2989.03,862.054 "/>
<polyline clip-path="url(#clip610)" style="stroke:#000000; stroke-linecap:round; stroke-linejoin:round; stroke-width:4; stroke-opacity:1; fill:none" points="3809.37,880.951 3809.37,862.054 "/>
<polyline clip-path="url(#clip610)" style="stroke:#000000; stroke-linecap:round; stroke-linejoin:round; stroke-width:4; stroke-opacity:1; fill:none" points="4629.71,880.951 4629.71,862.054 "/>
<path clip-path="url(#clip610)" d="M528.028 942.789 Q520.806 942.789 517.148 949.918 Q513.537 957.002 513.537 971.261 Q513.537 985.474 517.148 992.603 Q520.806 999.687 528.028 999.687 Q535.296 999.687 538.907 992.603 Q542.565 985.474 542.565 971.261 Q542.565 957.002 538.907 949.918 Q535.296 942.789 528.028 942.789 M528.028 935.382 Q539.648 935.382 545.759 944.594 Q551.916 953.761 551.916 971.261 Q551.916 988.715 545.759 997.927 Q539.648 1007.09 528.028 1007.09 Q516.407 1007.09 510.25 997.927 Q504.139 988.715 504.139 971.261 Q504.139 953.761 510.25 944.594 Q516.407 935.382 528.028 935.382 Z" fill="#000000" fill-rule="nonzero" fill-opacity="1" /><path clip-path="url(#clip610)" d="M1337.67 997.881 L1370.31 997.881 L1370.31 1005.75 L1326.42 1005.75 L1326.42 997.881 Q1331.74 992.372 1340.91 983.113 Q1350.12 973.807 1352.48 971.122 Q1356.97 966.076 1358.73 962.604 Q1360.54 959.085 1360.54 955.705 Q1360.54 950.196 1356.65 946.724 Q1352.81 943.252 1346.6 943.252 Q1342.21 943.252 1337.3 944.78 Q1332.44 946.307 1326.88 949.409 L1326.88 939.965 Q1332.53 937.696 1337.44 936.539 Q1342.34 935.382 1346.42 935.382 Q1357.16 935.382 1363.55 940.752 Q1369.94 946.122 1369.94 955.104 Q1369.94 959.363 1368.32 963.205 Q1366.74 967.002 1362.53 972.187 Q1361.37 973.529 1355.17 979.965 Q1348.97 986.353 1337.67 997.881 Z" fill="#000000" fill-rule="nonzero" fill-opacity="1" /><path clip-path="url(#clip610)" d="M2174.72 944.78 L2151.11 981.678 L2174.72 981.678 L2174.72 944.78 M2172.26 936.631 L2184.02 936.631 L2184.02 981.678 L2193.88 981.678 L2193.88 989.455 L2184.02 989.455 L2184.02 1005.75 L2174.72 1005.75 L2174.72 989.455 L2143.51 989.455 L2143.51 980.428 L2172.26 936.631 Z" fill="#000000" fill-rule="nonzero" fill-opacity="1" /><path clip-path="url(#clip610)" d="M2989.84 967.465 Q2983.55 967.465 2979.84 971.77 Q2976.19 976.076 2976.19 983.576 Q2976.19 991.029 2979.84 995.381 Q2983.55 999.687 2989.84 999.687 Q2996.14 999.687 2999.8 995.381 Q3003.5 991.029 3003.5 983.576 Q3003.5 976.076 2999.8 971.77 Q2996.14 967.465 2989.84 967.465 M3008.41 938.159 L3008.41 946.678 Q3004.89 945.011 3001.28 944.131 Q2997.71 943.252 2994.2 943.252 Q2984.94 943.252 2980.03 949.502 Q2975.17 955.752 2974.47 968.391 Q2977.21 964.363 2981.33 962.233 Q2985.45 960.057 2990.4 960.057 Q3000.82 960.057 3006.84 966.4 Q3012.9 972.696 3012.9 983.576 Q3012.9 994.224 3006.6 1000.66 Q3000.31 1007.09 2989.84 1007.09 Q2977.85 1007.09 2971.51 997.927 Q2965.17 988.715 2965.17 971.261 Q2965.17 954.872 2972.95 945.15 Q2980.72 935.382 2993.83 935.382 Q2997.34 935.382 3000.91 936.076 Q3004.52 936.77 3008.41 938.159 Z" fill="#000000" fill-rule="nonzero" fill-opacity="1" /><path clip-path="url(#clip610)" d="M3809.37 972.928 Q3802.7 972.928 3798.86 976.492 Q3795.06 980.057 3795.06 986.307 Q3795.06 992.557 3798.86 996.122 Q3802.7 999.687 3809.37 999.687 Q3816.04 999.687 3819.88 996.122 Q3823.72 992.511 3823.72 986.307 Q3823.72 980.057 3819.88 976.492 Q3816.08 972.928 3809.37 972.928 M3800.02 968.946 Q3794 967.465 3790.62 963.344 Q3787.29 959.224 3787.29 953.298 Q3787.29 945.011 3793.17 940.196 Q3799.09 935.382 3809.37 935.382 Q3819.69 935.382 3825.57 940.196 Q3831.45 945.011 3831.45 953.298 Q3831.45 959.224 3828.07 963.344 Q3824.74 967.465 3818.77 968.946 Q3825.53 970.52 3829.28 975.104 Q3833.07 979.687 3833.07 986.307 Q3833.07 996.353 3826.92 1001.72 Q3820.81 1007.09 3809.37 1007.09 Q3797.93 1007.09 3791.78 1001.72 Q3785.67 996.353 3785.67 986.307 Q3785.67 979.687 3789.46 975.104 Q3793.26 970.52 3800.02 968.946 M3796.59 954.178 Q3796.59 959.548 3799.93 962.557 Q3803.31 965.567 3809.37 965.567 Q3815.39 965.567 3818.77 962.557 Q3822.19 959.548 3822.19 954.178 Q3822.19 948.807 3818.77 945.798 Q3815.39 942.789 3809.37 942.789 Q3803.31 942.789 3799.93 945.798 Q3796.59 948.807 3796.59 954.178 Z" fill="#000000" fill-rule="nonzero" fill-opacity="1" /><path clip-path="url(#clip610)" d="M4579.08 997.881 L4594.36 997.881 L4594.36 945.15 L4577.74 948.483 L4577.74 939.965 L4594.27 936.631 L4603.62 936.631 L4603.62 997.881 L4618.9 997.881 L4618.9 1005.75 L4579.08 1005.75 L4579.08 997.881 Z" fill="#000000" fill-rule="nonzero" fill-opacity="1" /><path clip-path="url(#clip610)" d="M4657.78 942.789 Q4650.56 942.789 4646.9 949.918 Q4643.29 957.002 4643.29 971.261 Q4643.29 985.474 4646.9 992.603 Q4650.56 999.687 4657.78 999.687 Q4665.05 999.687 4668.66 992.603 Q4672.32 985.474 4672.32 971.261 Q4672.32 957.002 4668.66 949.918 Q4665.05 942.789 4657.78 942.789 M4657.78 935.382 Q4669.4 935.382 4675.52 944.594 Q4681.67 953.761 4681.67 971.261 Q4681.67 988.715 4675.52 997.927 Q4669.4 1007.09 4657.78 1007.09 Q4646.16 1007.09 4640.01 997.927 Q4633.9 988.715 4633.9 971.261 Q4633.9 953.761 4640.01 944.594 Q4646.16 935.382 4657.78 935.382 Z" fill="#000000" fill-rule="nonzero" fill-opacity="1" /><path clip-path="url(#clip610)" d="M2296.11 1072.18 L2361.89 1072.18 L2361.89 1081.04 L2334.28 1081.04 L2334.28 1149.94 L2323.71 1149.94 L2323.71 1081.04 L2296.11 1081.04 L2296.11 1072.18 Z" fill="#000000" fill-rule="nonzero" fill-opacity="1" /><path clip-path="url(#clip610)" d="M2368.35 1091.61 L2377.93 1091.61 L2377.93 1149.94 L2368.35 1149.94 L2368.35 1091.61 M2368.35 1068.9 L2377.93 1068.9 L2377.93 1081.04 L2368.35 1081.04 L2368.35 1068.9 Z" fill="#000000" fill-rule="nonzero" fill-opacity="1" /><path clip-path="url(#clip610)" d="M2443.4 1102.81 Q2446.99 1096.35 2451.99 1093.28 Q2456.99 1090.2 2463.76 1090.2 Q2472.88 1090.2 2477.83 1096.61 Q2482.77 1102.96 2482.77 1114.74 L2482.77 1149.94 L2473.14 1149.94 L2473.14 1115.05 Q2473.14 1106.66 2470.17 1102.6 Q2467.2 1098.54 2461.11 1098.54 Q2453.66 1098.54 2449.34 1103.49 Q2445.01 1108.43 2445.01 1116.97 L2445.01 1149.94 L2435.38 1149.94 L2435.38 1115.05 Q2435.38 1106.61 2432.41 1102.6 Q2429.44 1098.54 2423.24 1098.54 Q2415.9 1098.54 2411.58 1103.54 Q2407.25 1108.49 2407.25 1116.97 L2407.25 1149.94 L2397.62 1149.94 L2397.62 1091.61 L2407.25 1091.61 L2407.25 1100.67 Q2410.53 1095.31 2415.12 1092.76 Q2419.7 1090.2 2426 1090.2 Q2432.36 1090.2 2436.78 1093.43 Q2441.26 1096.66 2443.4 1102.81 Z" fill="#000000" fill-rule="nonzero" fill-opacity="1" /><path clip-path="url(#clip610)" d="M2551.78 1118.38 L2551.78 1123.07 L2507.72 1123.07 Q2508.35 1132.96 2513.66 1138.17 Q2519.02 1143.33 2528.55 1143.33 Q2534.08 1143.33 2539.23 1141.97 Q2544.44 1140.62 2549.54 1137.91 L2549.54 1146.97 Q2544.39 1149.16 2538.97 1150.31 Q2533.55 1151.45 2527.98 1151.45 Q2514.02 1151.45 2505.85 1143.33 Q2497.72 1135.2 2497.72 1121.35 Q2497.72 1107.03 2505.43 1098.64 Q2513.19 1090.2 2526.31 1090.2 Q2538.09 1090.2 2544.91 1097.81 Q2551.78 1105.36 2551.78 1118.38 M2542.2 1115.57 Q2542.1 1107.7 2537.77 1103.02 Q2533.5 1098.33 2526.42 1098.33 Q2518.4 1098.33 2513.55 1102.86 Q2508.76 1107.39 2508.03 1115.62 L2542.2 1115.57 Z" fill="#000000" fill-rule="nonzero" fill-opacity="1" /><path clip-path="url(#clip610)" d="M2624.44 1069.01 Q2617.46 1080.99 2614.07 1092.7 Q2610.69 1104.42 2610.69 1116.45 Q2610.69 1128.49 2614.07 1140.31 Q2617.51 1152.08 2624.44 1164.01 L2616.11 1164.01 Q2608.29 1151.77 2604.39 1139.94 Q2600.53 1128.12 2600.53 1116.45 Q2600.53 1104.84 2604.39 1093.07 Q2608.24 1081.3 2616.11 1069.01 L2624.44 1069.01 Z" fill="#000000" fill-rule="nonzero" fill-opacity="1" /><path clip-path="url(#clip610)" d="M2681.42 1100.46 L2681.42 1068.9 L2691 1068.9 L2691 1149.94 L2681.42 1149.94 L2681.42 1141.19 Q2678.4 1146.4 2673.76 1148.95 Q2669.18 1151.45 2662.72 1151.45 Q2652.15 1151.45 2645.48 1143.02 Q2638.87 1134.58 2638.87 1120.83 Q2638.87 1107.08 2645.48 1098.64 Q2652.15 1090.2 2662.72 1090.2 Q2669.18 1090.2 2673.76 1092.76 Q2678.4 1095.26 2681.42 1100.46 M2648.76 1120.83 Q2648.76 1131.4 2653.08 1137.44 Q2657.46 1143.43 2665.06 1143.43 Q2672.67 1143.43 2677.04 1137.44 Q2681.42 1131.4 2681.42 1120.83 Q2681.42 1110.26 2677.04 1104.27 Q2672.67 1098.23 2665.06 1098.23 Q2657.46 1098.23 2653.08 1104.27 Q2648.76 1110.26 2648.76 1120.83 Z" fill="#000000" fill-rule="nonzero" fill-opacity="1" /><path clip-path="url(#clip610)" d="M2737.25 1120.62 Q2725.64 1120.62 2721.16 1123.28 Q2716.68 1125.93 2716.68 1132.34 Q2716.68 1137.44 2720.01 1140.46 Q2723.4 1143.43 2729.18 1143.43 Q2737.15 1143.43 2741.94 1137.81 Q2746.78 1132.13 2746.78 1122.76 L2746.78 1120.62 L2737.25 1120.62 M2756.37 1116.66 L2756.37 1149.94 L2746.78 1149.94 L2746.78 1141.09 Q2743.5 1146.4 2738.61 1148.95 Q2733.71 1151.45 2726.63 1151.45 Q2717.67 1151.45 2712.36 1146.45 Q2707.1 1141.4 2707.1 1132.96 Q2707.1 1123.12 2713.66 1118.12 Q2720.27 1113.12 2733.34 1113.12 L2746.78 1113.12 L2746.78 1112.18 Q2746.78 1105.57 2742.41 1101.98 Q2738.08 1098.33 2730.22 1098.33 Q2725.22 1098.33 2720.48 1099.53 Q2715.74 1100.73 2711.37 1103.12 L2711.37 1094.27 Q2716.63 1092.24 2721.57 1091.25 Q2726.52 1090.2 2731.21 1090.2 Q2743.87 1090.2 2750.12 1096.77 Q2756.37 1103.33 2756.37 1116.66 Z" fill="#000000" fill-rule="nonzero" fill-opacity="1" /><path clip-path="url(#clip610)" d="M2800.38 1155.36 Q2796.31 1165.78 2792.46 1168.95 Q2788.61 1172.13 2782.15 1172.13 L2774.49 1172.13 L2774.49 1164.11 L2780.12 1164.11 Q2784.07 1164.11 2786.26 1162.24 Q2788.45 1160.36 2791.11 1153.38 L2792.82 1149.01 L2769.23 1091.61 L2779.39 1091.61 L2797.62 1137.24 L2815.84 1091.61 L2826 1091.61 L2800.38 1155.36 Z" fill="#000000" fill-rule="nonzero" fill-opacity="1" /><path clip-path="url(#clip610)" d="M2837.72 1069.01 L2846.05 1069.01 Q2853.87 1081.3 2857.72 1093.07 Q2861.63 1104.84 2861.63 1116.45 Q2861.63 1128.12 2857.72 1139.94 Q2853.87 1151.77 2846.05 1164.01 L2837.72 1164.01 Q2844.65 1152.08 2848.03 1140.31 Q2851.47 1128.49 2851.47 1116.45 Q2851.47 1104.42 2848.03 1092.7 Q2844.65 1080.99 2837.72 1069.01 Z" fill="#000000" fill-rule="nonzero" fill-opacity="1" /><polyline clip-path="url(#clip610)" style="stroke:#000000; stroke-linecap:round; stroke-linejoin:round; stroke-width:4; stroke-opacity:1; fill:none" points="404.977,880.951 404.977,47.2441 "/>
<polyline clip-path="url(#clip610)" style="stroke:#000000; stroke-linecap:round; stroke-linejoin:round; stroke-width:4; stroke-opacity:1; fill:none" points="404.977,726.129 423.875,726.129 "/>
<polyline clip-path="url(#clip610)" style="stroke:#000000; stroke-linecap:round; stroke-linejoin:round; stroke-width:4; stroke-opacity:1; fill:none" points="404.977,548.45 423.875,548.45 "/>
<polyline clip-path="url(#clip610)" style="stroke:#000000; stroke-linecap:round; stroke-linejoin:round; stroke-width:4; stroke-opacity:1; fill:none" points="404.977,370.771 423.875,370.771 "/>
<polyline clip-path="url(#clip610)" style="stroke:#000000; stroke-linecap:round; stroke-linejoin:round; stroke-width:4; stroke-opacity:1; fill:none" points="404.977,193.092 423.875,193.092 "/>
<path clip-path="url(#clip610)" d="M151.219 727.032 L210.571 727.032 L210.571 734.902 L151.219 734.902 L151.219 727.032 Z" fill="#000000" fill-rule="nonzero" fill-opacity="1" /><path clip-path="url(#clip610)" d="M228.395 691.569 L272.839 691.569 L272.839 695.551 L247.746 760.689 L237.978 760.689 L261.589 699.44 L228.395 699.44 L228.395 691.569 Z" fill="#000000" fill-rule="nonzero" fill-opacity="1" /><path clip-path="url(#clip610)" d="M291.172 691.569 L327.885 691.569 L327.885 699.44 L299.737 699.44 L299.737 716.384 Q301.774 715.69 303.811 715.365 Q305.848 714.995 307.885 714.995 Q319.459 714.995 326.218 721.338 Q332.977 727.68 332.977 738.513 Q332.977 749.671 326.033 755.874 Q319.089 762.032 306.45 762.032 Q302.098 762.032 297.561 761.291 Q293.07 760.55 288.255 759.069 L288.255 749.671 Q292.422 751.939 296.866 753.05 Q301.311 754.162 306.265 754.162 Q314.274 754.162 318.95 749.949 Q323.626 745.736 323.626 738.513 Q323.626 731.291 318.95 727.078 Q314.274 722.865 306.265 722.865 Q302.515 722.865 298.765 723.699 Q295.061 724.532 291.172 726.291 L291.172 691.569 Z" fill="#000000" fill-rule="nonzero" fill-opacity="1" /><path clip-path="url(#clip610)" d="M149.228 549.353 L208.58 549.353 L208.58 557.223 L149.228 557.223 L149.228 549.353 Z" fill="#000000" fill-rule="nonzero" fill-opacity="1" /><path clip-path="url(#clip610)" d="M228.858 513.89 L265.57 513.89 L265.57 521.761 L237.422 521.761 L237.422 538.705 Q239.459 538.01 241.496 537.686 Q243.533 537.316 245.57 537.316 Q257.144 537.316 263.904 543.659 Q270.663 550.001 270.663 560.834 Q270.663 571.992 263.718 578.195 Q256.774 584.353 244.135 584.353 Q239.783 584.353 235.246 583.612 Q230.756 582.871 225.941 581.39 L225.941 571.992 Q230.108 574.26 234.552 575.371 Q238.996 576.482 243.95 576.482 Q251.959 576.482 256.635 572.269 Q261.311 568.057 261.311 560.834 Q261.311 553.612 256.635 549.399 Q251.959 545.186 243.95 545.186 Q240.2 545.186 236.45 546.02 Q232.746 546.853 228.858 548.612 L228.858 513.89 Z" fill="#000000" fill-rule="nonzero" fill-opacity="1" /><path clip-path="url(#clip610)" d="M309.089 520.048 Q301.866 520.048 298.209 527.177 Q294.598 534.26 294.598 548.52 Q294.598 562.733 298.209 569.862 Q301.866 576.945 309.089 576.945 Q316.357 576.945 319.968 569.862 Q323.626 562.733 323.626 548.52 Q323.626 534.26 319.968 527.177 Q316.357 520.048 309.089 520.048 M309.089 512.64 Q320.709 512.64 326.82 521.853 Q332.977 531.02 332.977 548.52 Q332.977 565.973 326.82 575.186 Q320.709 584.353 309.089 584.353 Q297.468 584.353 291.311 575.186 Q285.2 565.973 285.2 548.52 Q285.2 531.02 291.311 521.853 Q297.468 512.64 309.089 512.64 Z" fill="#000000" fill-rule="nonzero" fill-opacity="1" /><path clip-path="url(#clip610)" d="M151.219 371.674 L210.571 371.674 L210.571 379.544 L151.219 379.544 L151.219 371.674 Z" fill="#000000" fill-rule="nonzero" fill-opacity="1" /><path clip-path="url(#clip610)" d="M238.811 397.461 L271.45 397.461 L271.45 405.331 L227.561 405.331 L227.561 397.461 Q232.885 391.952 242.052 382.692 Q251.265 373.387 253.626 370.702 Q258.117 365.655 259.876 362.183 Q261.681 358.665 261.681 355.285 Q261.681 349.776 257.793 346.304 Q253.95 342.831 247.746 342.831 Q243.348 342.831 238.441 344.359 Q233.58 345.887 228.024 348.989 L228.024 339.544 Q233.672 337.276 238.58 336.118 Q243.487 334.961 247.561 334.961 Q258.302 334.961 264.691 340.331 Q271.08 345.702 271.08 354.683 Q271.08 358.942 269.459 362.785 Q267.885 366.581 263.672 371.766 Q262.515 373.109 256.311 379.544 Q250.107 385.933 238.811 397.461 Z" fill="#000000" fill-rule="nonzero" fill-opacity="1" /><path clip-path="url(#clip610)" d="M291.172 336.211 L327.885 336.211 L327.885 344.081 L299.737 344.081 L299.737 361.026 Q301.774 360.331 303.811 360.007 Q305.848 359.637 307.885 359.637 Q319.459 359.637 326.218 365.979 Q332.977 372.322 332.977 383.155 Q332.977 394.313 326.033 400.516 Q319.089 406.674 306.45 406.674 Q302.098 406.674 297.561 405.933 Q293.07 405.192 288.255 403.711 L288.255 394.313 Q292.422 396.581 296.866 397.692 Q301.311 398.803 306.265 398.803 Q314.274 398.803 318.95 394.59 Q323.626 390.377 323.626 383.155 Q323.626 375.933 318.95 371.72 Q314.274 367.507 306.265 367.507 Q302.515 367.507 298.765 368.341 Q295.061 369.174 291.172 370.933 L291.172 336.211 Z" fill="#000000" fill-rule="nonzero" fill-opacity="1" /><path clip-path="url(#clip610)" d="M309.089 164.689 Q301.866 164.689 298.209 171.819 Q294.598 178.902 294.598 193.161 Q294.598 207.374 298.209 214.504 Q301.866 221.587 309.089 221.587 Q316.357 221.587 319.968 214.504 Q323.626 207.374 323.626 193.161 Q323.626 178.902 319.968 171.819 Q316.357 164.689 309.089 164.689 M309.089 157.282 Q320.709 157.282 326.82 166.495 Q332.977 175.661 332.977 193.161 Q332.977 210.615 326.82 219.828 Q320.709 228.995 309.089 228.995 Q297.468 228.995 291.311 219.828 Q285.2 210.615 285.2 193.161 Q285.2 175.661 291.311 166.495 Q297.468 157.282 309.089 157.282 Z" fill="#000000" fill-rule="nonzero" fill-opacity="1" /><path clip-path="url(#clip612)" d="M528.028 213.128 L545.118 238.752 L562.208 267.058 L579.299 297.041 L596.389 325.781 L613.479 355.619 L630.57 372.478 L647.66 381.02 L664.75 368.142 L681.841 352.938 L698.931 342.624 L716.021 337.396 L733.112 334.205 L750.202 337.502 L767.292 345.594 L784.383 357.923 L801.473 369.14 L818.563 380.222 L835.654 389.1 L852.744 400.201 L869.834 412.073 L886.925 420.792 L904.015 418.425 L921.105 408.674 L938.195 411.626 L955.286 438.007 L972.376 466.977 L989.466 497.641 L1006.56 527.056 L1023.65 552.979 L1040.74 565.409 L1057.83 566.648 L1074.92 544.993 L1092.01 518.051 L1109.1 497.991 L1126.19 478.933 L1143.28 462.442 L1160.37 453.317 L1177.46 450.46 L1194.55 451.978 L1211.64 453.522 L1228.73 458.156 L1245.82 463.8 L1262.91 474.349 L1280 485.042 L1297.09 492.789 L1314.18 489.378 L1331.27 478.412 L1348.36 478.47 L1365.45 504.607 L1382.54 533.442 L1399.63 564.069 L1416.72 593.521 L1433.81 619.299 L1450.91 632.601 L1468 632.083 L1485.09 608.831 L1502.18 579.518 L1519.27 554.918 L1536.36 531.098 L1553.45 510.027 L1570.54 496.636 L1587.63 489.864 L1604.72 487.868 L1621.81 486.404 L1638.9 488.718 L1655.99 492.793 L1673.08 502.7 L1690.17 513.754 L1707.26 521.924 L1724.35 518.673 L1741.44 507.571 L1758.53 501.076 L1775.62 526.284 L1792.71 555.131 L1809.8 585.838 L1826.89 615.433 L1843.98 642.001 L1861.07 655.204 L1878.16 657.258 L1895.25 642.803 L1912.34 610.904 L1929.43 582.819 L1946.52 557.678 L1963.61 535.321 L1980.71 520.462 L1997.8 511.942 L2014.89 508.754 L2031.98 506.416 L2049.07 506.812 L2066.16 510.696 L2083.25 521.036 L2100.34 532.596 L2117.43 541.191 L2134.52 538.131 L2151.61 528.204 L2168.7 530.03 L2185.79 546.74 L2202.88 569.396 L2219.97 600.272 L2237.06 629.956 L2254.15 658.488 L2271.24 679.314 L2288.33 688.743 L2305.42 673.607 L2322.51 641.915 L2339.6 611.717 L2356.69 582.738 L2373.78 556.865 L2390.87 540.017 L2407.96 530.455 L2425.05 526.35 L2442.14 522.742 L2459.23 523.859 L2476.32 527.579 L2493.42 538.126 L2510.51 550.104 L2527.6 559.135 L2544.69 556.266 L2561.78 554.667 L2578.87 556.737 L2595.96 573.744 L2613.05 596.023 L2630.14 623.733 L2647.23 654.712 L2664.32 687.316 L2681.41 708.928 L2698.5 719.66 L2715.59 704.755 L2732.68 671.337 L2749.77 640.853 L2766.86 611.733 L2783.95 585.183 L2801.04 565.402 L2818.13 551.636 L2835.22 542.427 L2852.31 537.25 L2869.4 538.329 L2886.49 542.491 L2903.58 553.534 L2920.67 569.225 L2937.76 580.99 L2954.85 578.998 L2971.94 579.13 L2989.03 581.396 L3006.12 598.657 L3023.22 621.165 L3040.31 649.202 L3057.4 680.678 L3074.49 714.027 L3091.58 736.573 L3108.67 747.52 L3125.76 732.692 L3142.85 700.23 L3159.94 669.742 L3177.03 639.959 L3194.12 612.454 L3211.21 591.576 L3228.3 576.526 L3245.39 566.088 L3262.48 559.557 L3279.57 561.125 L3296.66 566.948 L3313.75 581.911 L3330.84 598.845 L3347.93 611.919 L3365.02 610.88 L3382.11 602.654 L3399.2 605.186 L3416.29 622.681 L3433.38 645.366 L3450.47 673.706 L3467.56 705.679 L3484.65 739.636 L3501.74 763.576 L3518.83 775.46 L3535.92 761.942 L3553.02 732.44 L3570.11 703.923 L3587.2 673.966 L3604.29 644.165 L3621.38 621.408 L3638.47 606.054 L3655.56 596.832 L3672.65 591.225 L3689.74 592.745 L3706.83 597.723 L3723.92 613.851 L3741.01 632.293 L3758.1 646.953 L3775.19 647.115 L3792.28 636.208 L3809.37 632.563 L3826.46 650.299 L3843.55 673.182 L3860.64 701.843 L3877.73 734.327 L3894.82 769.143 L3911.91 793.439 L3929 806.529 L3946.09 804.374 L3963.18 777.981 L3980.27 750.037 L3997.36 719.072 L4014.45 687.971 L4031.54 663.609 L4048.63 646.373 L4065.72 636.25 L4082.82 629.169 L4099.91 630.117 L4117 637.206 L4134.09 654.694 L4151.18 674.768 L4168.27 691.036 L4185.36 692.314 L4202.45 681.884 L4219.54 670.612 L4236.63 678.464 L4253.72 701.291 L4270.81 730.277 L4287.9 763.304 L4304.99 798.905 L4322.08 832.234 L4339.17 857.356 L4356.26 854.423 L4373.35 829.984 L4390.44 802.39 L4407.53 770.711 L4424.62 738.708 L4441.71 712.96 L4458.8 694.235 L4475.89 681.991 L4492.98 674.45 L4510.07 675.773 L4527.16 682.672 L4544.25 701.885 L4561.34 724.315 L4578.43 742.864 L4595.52 745.794 L4612.62 736.169 L4629.71 724.97 L4629.71 91.0577 L4612.62 91.7748 L4595.52 95.2487 L4578.43 98.1051 L4561.34 98.5531 L4544.25 99.262 L4527.16 100.328 L4510.07 102.935 L4492.98 105.423 L4475.89 107.457 L4458.8 105.327 L4441.71 101.123 L4424.62 97.8027 L4407.53 97.9386 L4390.44 102.879 L4373.35 114.034 L4356.26 131.693 L4339.17 145.041 L4322.08 147.551 L4304.99 143.759 L4287.9 132.715 L4270.81 119.959 L4253.72 106.842 L4236.63 95.6441 L4219.54 87.7124 L4202.45 88.3608 L4185.36 91.7126 L4168.27 94.4034 L4151.18 94.7093 L4134.09 95.1304 L4117 95.9971 L4099.91 98.6239 L4082.82 101.152 L4065.72 103.194 L4048.63 101.053 L4031.54 96.9307 L4014.45 93.3278 L3997.36 93.656 L3980.27 98.9761 L3963.18 110.214 L3946.09 127.956 L3929 141.395 L3911.91 143.965 L3894.82 140.239 L3877.73 129.169 L3860.64 116.355 L3843.55 103.13 L3826.46 91.7551 L3809.37 83.6513 L3792.28 84.2678 L3775.19 87.5825 L3758.1 90.3242 L3741.01 90.6522 L3723.92 91.1034 L3706.83 92.2101 L3689.74 95.2351 L3672.65 97.6983 L3655.56 99.3841 L3638.47 96.9964 L3621.38 92.567 L3604.29 88.8848 L3587.2 89.0254 L3570.11 93.9425 L3553.02 104.727 L3535.92 122.422 L3518.83 135.913 L3501.74 138.539 L3484.65 134.843 L3467.56 123.885 L3450.47 111.184 L3433.38 98.0812 L3416.29 86.8751 L3399.2 78.8578 L3382.11 79.4176 L3365.02 82.7849 L3347.93 85.4717 L3330.84 85.6934 L3313.75 86.1365 L3296.66 86.5387 L3279.57 89.0232 L3262.48 91.3905 L3245.39 93.225 L3228.3 91.4309 L3211.21 87.0665 L3194.12 83.4519 L3177.03 83.3997 L3159.94 88.0525 L3142.85 99.1384 L3125.76 116.929 L3108.67 130.463 L3091.58 133.182 L3074.49 129.634 L3057.4 118.838 L3040.31 106.333 L3023.22 93.4674 L3006.12 82.5455 L2989.03 74.9259 L2971.94 75.8043 L2954.85 79.3872 L2937.76 82.3184 L2920.67 82.8205 L2903.58 80.6158 L2886.49 79.2757 L2869.4 81.7574 L2852.31 84.1558 L2835.22 86.1246 L2818.13 85.2823 L2801.04 83.7723 L2783.95 80.5671 L2766.86 80.8312 L2749.77 85.7743 L2732.68 96.5848 L2715.59 114.394 L2698.5 127.842 L2681.41 130.685 L2664.32 127.283 L2647.23 116.632 L2630.14 104.205 L2613.05 91.3981 L2595.96 80.4753 L2578.87 72.8081 L2561.78 73.6882 L2544.69 77.2449 L2527.6 80.134 L2510.51 80.5757 L2493.42 77.9548 L2476.32 76.8676 L2459.23 79.4716 L2442.14 81.9808 L2425.05 84.0492 L2407.96 83.3456 L2390.87 81.9541 L2373.78 78.6824 L2356.69 78.6438 L2339.6 83.2965 L2322.51 94.4682 L2305.42 112.309 L2288.33 125.965 L2271.24 128.784 L2254.15 125.312 L2237.06 114.647 L2219.97 102.284 L2202.88 89.5058 L2185.79 78.5616 L2168.7 70.8396 L2151.61 71.7853 L2134.52 75.4836 L2117.43 78.5272 L2100.34 79.1308 L2083.25 78.4596 L2066.16 77.4188 L2049.07 80.1569 L2031.98 82.7955 L2014.89 84.9794 L1997.8 84.4783 L1980.71 82.084 L1963.61 78.5704 L1946.52 78.7763 L1929.43 83.5307 L1912.34 94.9687 L1895.25 113.097 L1878.16 126.967 L1861.07 130.072 L1843.98 126.936 L1826.89 116.493 L1809.8 104.271 L1792.71 91.6194 L1775.62 80.7835 L1758.53 73.1881 L1741.44 74.272 L1724.35 78.0382 L1707.26 81.2046 L1690.17 81.9399 L1673.08 82.7602 L1655.99 84.2317 L1638.9 87.9261 L1621.81 90.7852 L1604.72 92.6074 L1587.63 90.3534 L1570.54 86.2873 L1553.45 83.0591 L1536.36 83.6307 L1519.27 89.4455 L1502.18 101.434 L1485.09 120.008 L1468 134.326 L1450.91 137.817 L1433.81 135.085 L1416.72 125.087 L1399.63 113.381 L1382.54 101.295 L1365.45 91.0969 L1348.36 84.1704 L1331.27 85.8838 L1314.18 90.3669 L1297.09 94.2846 L1280 95.8286 L1262.91 97.6319 L1245.82 100.145 L1228.73 103.308 L1211.64 105.897 L1194.55 108.086 L1177.46 107.818 L1160.37 106.248 L1143.28 104.087 L1126.19 105.636 L1109.1 111.37 L1092.01 123.489 L1074.92 142.461 L1057.83 157.344 L1040.74 161.52 L1023.65 159.47 L1006.56 150.153 L989.466 138.437 L972.376 123.807 L955.286 112.269 L938.195 106.663 L921.105 112.922 L904.015 121.39 L886.925 126.837 L869.834 128.851 L852.744 127.807 L835.654 128.638 L818.563 132.915 L801.473 137.004 L784.383 140.661 L767.292 141.611 L750.202 137.127 L733.112 134.088 L716.021 139.874 L698.931 153.301 L681.841 168.117 L664.75 190.331 L647.66 209.37 L630.57 217.103 L613.479 218.028 L596.389 211.987 L579.299 203.846 L562.208 191.286 L545.118 181.791 L528.028 178.039  Z" fill="#aeaeae" fill-rule="evenodd" fill-opacity="0.5"/>
<polyline clip-path="url(#clip612)" style="stroke:#aeaeae; stroke-linecap:round; stroke-linejoin:round; stroke-width:0; stroke-opacity:1; fill:none" points="528.028,190.638 545.118,194.85 562.208,201.094 579.299,208.432 596.389,215.475 613.479,221.437 630.57,222.948 647.66,220.558 664.75,211.833 681.841,200.62 698.931,193.366 716.021,189.024 733.112,187.339 750.202,188.537 767.292,191.218 784.383,194.093 801.473,195.432 818.563,195.922 835.654,195.212 852.744,195.176 869.834,195.127 886.925,194.857 904.015,192.758 921.105,189.965 938.195,188.786 955.286,193.03 972.376,199.394 989.466,206.901 1006.56,214.127 1023.65,220.296 1040.74,221.989 1057.83,219.749 1074.92,211.005 1092.01,199.711 1109.1,192.36 1126.19,187.999 1143.28,186.334 1160.37,187.533 1177.46,190.182 1194.55,192.997 1211.64,194.273 1228.73,194.691 1245.82,193.985 1262.91,194.059 1280,194.161 1297.09,194.038 1314.18,192.08 1331.27,189.408 1348.36,188.336 1365.45,192.688 1382.54,199.153 1399.63,206.757 1416.72,214.081 1433.81,220.349 1450.91,222.126 1468,219.953 1485.09,211.199 1502.18,199.843 1519.27,192.412 1536.36,188.001 1553.45,186.296 1570.54,187.465 1587.63,190.109 1604.72,192.884 1621.81,194.14 1638.9,194.57 1655.99,193.893 1673.08,194.019 1690.17,194.195 1707.26,194.152 1724.35,192.262 1741.44,189.655 1758.53,188.644 1775.62,193.053 1792.71,199.577 1809.8,207.242 1826.89,214.635 1843.98,220.963 1861.07,222.804 1878.16,220.69 1895.25,211.956 1912.34,200.598 1929.43,193.166 1946.52,188.746 1963.61,187.029 1980.71,188.188 1997.8,190.814 2014.89,193.584 2031.98,194.851 2049.07,195.281 2066.16,194.622 2083.25,194.786 2100.34,195.005 2117.43,195.003 2134.52,193.152 2151.61,190.579 2168.7,189.599 2185.79,194.044 2202.88,200.607 2219.97,208.308 2237.06,215.742 2254.15,222.122 2271.24,224.025 2288.33,221.964 2305.42,213.25 2322.51,201.899 2339.6,194.456 2356.69,190.024 2373.78,188.271 2390.87,189.403 2407.96,192.001 2425.05,194.756 2442.14,195.99 2459.23,196.411 2476.32,195.747 2493.42,195.913 2510.51,196.152 2527.6,196.18 2544.69,194.35 2561.78,191.803 2578.87,190.846 2595.96,195.317 2613.05,201.899 2630.14,209.63 2647.23,217.101 2664.32,223.513 2681.41,225.448 2698.5,223.388 2715.59,214.723 2732.68,203.362 2749.77,195.899 2766.86,191.445 2783.95,189.69 2801.04,190.8 2818.13,193.379 2835.22,196.097 2852.31,197.289 2869.4,197.7 2886.49,197.036 2903.58,197.199 2920.67,197.437 2937.76,197.466 2954.85,195.648 2971.94,193.112 2989.03,192.166 3006.12,196.653 3023.22,203.256 3040.31,211.009 3057.4,218.499 3074.49,224.939 3091.58,226.883 3108.67,224.873 3125.76,216.213 3142.85,204.869 3159.94,197.394 3177.03,192.912 3194.12,191.126 3211.21,192.202 3228.3,194.746 3245.39,197.43 3262.48,198.618 3279.57,198.999 3296.66,198.322 3313.75,198.494 3330.84,198.73 3347.93,198.761 3365.02,196.944 3382.11,194.414 3399.2,193.471 3416.29,197.963 3433.38,204.572 3450.47,212.332 3467.56,219.832 3484.65,226.29 3501.74,228.262 3518.83,226.275 3535.92,217.59 3553.02,206.225 3570.11,198.735 3587.2,194.248 3604.29,192.426 3621.38,193.477 3638.47,195.995 3655.56,198.664 3672.65,199.826 3689.74,200.185 3706.83,199.48 3723.92,199.626 3741.01,199.856 3758.1,199.894 3775.19,198.084 3792.28,195.561 3809.37,194.625 3826.46,199.127 3843.55,205.744 3860.64,213.522 3877.73,221.039 3894.82,227.524 3911.91,229.52 3929,227.527 3946.09,218.87 3963.18,207.523 3980.27,200.02 3997.36,195.498 4014.45,193.653 4031.54,194.674 4048.63,197.169 4065.72,199.801 4082.82,200.946 4099.91,201.298 4117,200.573 4134.09,200.727 4151.18,200.967 4168.27,201.013 4185.36,199.207 4202.45,196.684 4219.54,195.748 4236.63,200.25 4253.72,206.87 4270.81,214.649 4287.9,222.178 4304.99,228.673 4322.08,230.687 4339.17,228.722 4356.26,220.071 4373.35,208.713 4390.44,201.189 4407.53,196.645 4424.62,194.78 4441.71,195.775 4458.8,198.242 4475.89,200.845 4492.98,201.963 4510.07,202.281 4527.16,201.552 4544.25,201.696 4561.34,201.932 4578.43,201.974 4595.52,200.175 4612.62,197.651 4629.71,196.716 "/>
<path clip-path="url(#clip612)" d="M528.028 200.542 L545.118 212.54 L562.208 230.495 L579.299 252.47 L596.389 276.268 L613.479 299.497 L630.57 311.637 L647.66 314.561 L664.75 299.111 L681.841 275.878 L698.931 260.008 L716.021 248.022 L733.112 242.531 L750.202 246.004 L767.292 252.999 L784.383 260.453 L801.473 266.321 L818.563 272.038 L835.654 273.409 L852.744 277.576 L869.834 280.302 L886.925 283.244 L904.015 280.267 L921.105 277.403 L938.195 278.409 L955.286 291.711 L972.376 308.517 L989.466 330.697 L1006.56 353.675 L1023.65 375.037 L1040.74 385.366 L1057.83 384.767 L1074.92 366.156 L1092.01 337.624 L1109.1 318.57 L1126.19 301.866 L1143.28 291.719 L1160.37 291.642 L1177.46 292.82 L1194.55 296.116 L1211.64 294.55 L1228.73 294.817 L1245.82 294.2 L1262.91 299.025 L1280 304.377 L1297.09 305.94 L1314.18 304.615 L1331.27 303.881 L1348.36 301.664 L1365.45 313.081 L1382.54 332.959 L1399.63 355.369 L1416.72 378.051 L1433.81 398.435 L1450.91 407.602 L1468 409.91 L1485.09 390.004 L1502.18 363.267 L1519.27 338.933 L1536.36 318.363 L1553.45 308.662 L1570.54 306.64 L1587.63 305.702 L1604.72 304.808 L1621.81 303.945 L1638.9 304.089 L1655.99 301.411 L1673.08 305.249 L1690.17 310.438 L1707.26 313.827 L1724.35 314.019 L1741.44 311.389 L1758.53 308.119 L1775.62 319.346 L1792.71 337.645 L1809.8 360.619 L1826.89 385.798 L1843.98 405.801 L1861.07 413.932 L1878.16 417.726 L1895.25 398.901 L1912.34 372.332 L1929.43 346.064 L1946.52 323.274 L1963.61 313.83 L1980.71 309.679 L1997.8 309.156 L2014.89 309.145 L2031.98 308.584 L2049.07 307.515 L2066.16 306.604 L2083.25 309.172 L2100.34 313.704 L2117.43 318.346 L2134.52 317.775 L2151.61 316.661 L2168.7 315.834 L2185.79 324.298 L2202.88 342.501 L2219.97 365.419 L2237.06 390.716 L2254.15 410.881 L2271.24 420.088 L2288.33 421.616 L2305.42 404.016 L2322.51 377.546 L2339.6 351.376 L2356.69 328.457 L2373.78 316.891 L2390.87 312.125 L2407.96 310.95 L2425.05 312.677 L2442.14 311.216 L2459.23 310.477 L2476.32 308.924 L2493.42 312.474 L2510.51 316.766 L2527.6 321.721 L2544.69 320.501 L2561.78 320.832 L2578.87 322.491 L2595.96 332.828 L2613.05 346.832 L2630.14 370.81 L2647.23 394.329 L2664.32 413.766 L2681.41 422.652 L2698.5 424.512 L2715.59 409.47 L2732.68 382.418 L2749.77 353.551 L2766.86 330.956 L2783.95 318.522 L2801.04 313.22 L2818.13 313.116 L2835.22 314.814 L2852.31 314.703 L2869.4 313.778 L2886.49 312.781 L2903.58 315.274 L2920.67 320.488 L2937.76 325.291 L2954.85 323.668 L2971.94 322.497 L2989.03 325.765 L3006.12 339.802 L3023.22 354.882 L3040.31 374.566 L3057.4 397.011 L3074.49 416.269 L3091.58 424.563 L3108.67 428.061 L3125.76 412.444 L3142.85 385.329 L3159.94 356.323 L3177.03 335.754 L3194.12 319.9 L3211.21 317.289 L3228.3 316.796 L3245.39 317.758 L3262.48 318.292 L3279.57 316.224 L3296.66 314.319 L3313.75 318.312 L3330.84 323.246 L3347.93 326.442 L3365.02 325.17 L3382.11 323.486 L3399.2 326.684 L3416.29 341.474 L3433.38 359.083 L3450.47 376.338 L3467.56 397.891 L3484.65 418.349 L3501.74 426.283 L3518.83 431.82 L3535.92 416.066 L3553.02 385.969 L3570.11 358.244 L3587.2 338.583 L3604.29 323.572 L3621.38 317.458 L3638.47 317.497 L3655.56 319.988 L3672.65 319.053 L3689.74 317.865 L3706.83 314.766 L3723.92 319.662 L3741.01 323.985 L3758.1 328.177 L3775.19 327.4 L3792.28 326.692 L3809.37 330.178 L3826.46 343.408 L3843.55 361.176 L3860.64 380.497 L3877.73 399.554 L3894.82 422.17 L3911.91 429.859 L3929 433.122 L3946.09 416.805 L3963.18 388.919 L3980.27 361.771 L3997.36 340.382 L4014.45 325.138 L4031.54 319.011 L4048.63 319.858 L4065.72 321.135 L4082.82 320.653 L4099.91 319.843 L4117 316.537 L4134.09 320.804 L4151.18 325.264 L4168.27 330.652 L4185.36 328.864 L4202.45 327.171 L4219.54 330.824 L4236.63 343.058 L4253.72 360.534 L4270.81 382.814 L4287.9 400.363 L4304.99 422.883 L4322.08 431.976 L4339.17 433.641 L4356.26 417.004 L4373.35 387.596 L4390.44 361.602 L4407.53 342.766 L4424.62 325.379 L4441.71 319.684 L4458.8 320.398 L4475.89 323.802 L4492.98 322.972 L4510.07 321.63 L4527.16 318.451 L4544.25 322.862 L4561.34 327.216 L4578.43 331.574 L4595.52 329.973 L4612.62 329.378 L4629.71 332.343 L4629.71 122.764 L4612.62 126.279 L4595.52 132.224 L4578.43 135.763 L4561.34 134.359 L4544.25 133.015 L4527.16 134.372 L4510.07 138.712 L4492.98 142.112 L4475.89 141.219 L4458.8 137.218 L4441.71 131.3 L4424.62 127.712 L4407.53 129.453 L4390.44 134.387 L4373.35 146.514 L4356.26 165.406 L4339.17 179.934 L4322.08 184.31 L4304.99 181.49 L4287.9 169.667 L4270.81 156.539 L4253.72 141.033 L4236.63 128.08 L4219.54 120.691 L4202.45 123.847 L4185.36 129.737 L4168.27 132.118 L4151.18 131.262 L4134.09 130.403 L4117 132.057 L4099.91 135.932 L4082.82 138.345 L4065.72 139.454 L4048.63 133.875 L4031.54 128.532 L4014.45 125.194 L3997.36 126.149 L3980.27 131.613 L3963.18 142.536 L3946.09 161.389 L3929 176.767 L3911.91 180.561 L3894.82 177.733 L3877.73 166.67 L3860.64 153.203 L3843.55 138.353 L3826.46 126.258 L3809.37 118.297 L3792.28 120.925 L3775.19 125.758 L3758.1 129.361 L3741.01 127.447 L3723.92 127.328 L3706.83 127.842 L3689.74 130.579 L3672.65 133.066 L3655.56 134.42 L3638.47 131.482 L3621.38 125.112 L3604.29 121.047 L3587.2 122.201 L3570.11 127.788 L3553.02 139.447 L3535.92 157.627 L3518.83 173.429 L3501.74 176.925 L3484.65 173.102 L3467.56 163.15 L3450.47 149.309 L3433.38 135.937 L3416.29 123.25 L3399.2 115.613 L3382.11 117.359 L3365.02 122.189 L3347.93 125.658 L3330.84 123.949 L3313.75 123.537 L3296.66 124.214 L3279.57 126.723 L3262.48 128.65 L3245.39 129.889 L3228.3 126.831 L3211.21 122.205 L3194.12 118.054 L3177.03 118.819 L3159.94 124.63 L3142.85 135.202 L3125.76 153.774 L3108.67 168.894 L3091.58 172.831 L3074.49 169.882 L3057.4 158.623 L3040.31 145.635 L3023.22 131.318 L3006.12 119.556 L2989.03 111.503 L2971.94 113.892 L2954.85 118.036 L2937.76 121.947 L2920.67 119.717 L2903.58 119.421 L2886.49 119.354 L2869.4 122.232 L2852.31 123.453 L2835.22 124.615 L2818.13 123.327 L2801.04 119.306 L2783.95 115.299 L2766.86 116.049 L2749.77 121.266 L2732.68 131.195 L2715.59 150.039 L2698.5 165.445 L2681.41 169.57 L2664.32 164.971 L2647.23 154.915 L2630.14 142.348 L2613.05 127.879 L2595.96 116.439 L2578.87 108.087 L2561.78 110.504 L2544.69 114.759 L2527.6 118.373 L2510.51 116.92 L2493.42 115.737 L2476.32 115.08 L2459.23 117.515 L2442.14 119.443 L2425.05 120.58 L2407.96 119.018 L2390.87 115.933 L2373.78 112.392 L2356.69 113.098 L2339.6 117.651 L2322.51 128.479 L2305.42 147.372 L2288.33 162.592 L2271.24 165.89 L2254.15 162.677 L2237.06 152.036 L2219.97 140.089 L2202.88 126.037 L2185.79 114.535 L2168.7 106.369 L2151.61 108.116 L2134.52 113.011 L2117.43 115.414 L2100.34 115.012 L2083.25 114.428 L2066.16 112.937 L2049.07 115.517 L2031.98 117.448 L2014.89 118.72 L1997.8 117.147 L1980.71 114.175 L1963.61 110.301 L1946.52 111.785 L1929.43 116.582 L1912.34 126.194 L1895.25 145.719 L1878.16 161.433 L1861.07 165.467 L1843.98 162.481 L1826.89 152.283 L1809.8 139.943 L1792.71 126.747 L1775.62 114.144 L1758.53 106.944 L1741.44 108.577 L1724.35 113.991 L1707.26 117.107 L1690.17 115.755 L1673.08 114.903 L1655.99 115.172 L1638.9 117.759 L1621.81 119.553 L1604.72 121.036 L1587.63 118.785 L1570.54 115.87 L1553.45 112.37 L1536.36 113.922 L1519.27 119.865 L1502.18 131.272 L1485.09 150.873 L1468 165.903 L1450.91 169.982 L1433.81 167.955 L1416.72 158.285 L1399.63 145.038 L1382.54 130.79 L1365.45 118.69 L1348.36 110.992 L1331.27 115.572 L1314.18 120.847 L1297.09 124.67 L1280 124.501 L1262.91 124.108 L1245.82 124.694 L1228.73 127.348 L1211.64 130.47 L1194.55 132.772 L1177.46 130.555 L1160.37 125.564 L1143.28 122.654 L1126.19 125.276 L1109.1 132.316 L1092.01 145.214 L1074.92 165.034 L1057.83 180.965 L1040.74 185.704 L1023.65 183.323 L1006.56 173.25 L989.466 159.826 L972.376 146.239 L955.286 134.481 L938.195 127.814 L921.105 132.484 L904.015 139.865 L886.925 145.815 L869.834 147.034 L852.744 146.657 L835.654 147.955 L818.563 152.003 L801.473 155.761 L784.383 158.104 L767.292 155.405 L750.202 151.836 L733.112 150.393 L716.021 155.528 L698.931 164.821 L681.841 179.571 L664.75 200.979 L647.66 218.93 L630.57 225.705 L613.479 226.263 L596.389 219.145 L579.299 208.752 L562.208 196.266 L545.118 186.038 L528.028 180.956  Z" fill="#757575" fill-rule="evenodd" fill-opacity="0.5"/>
<polyline clip-path="url(#clip612)" style="stroke:#757575; stroke-linecap:round; stroke-linejoin:round; stroke-width:0; stroke-opacity:1; fill:none" points="528.028,190.638 545.118,194.85 562.208,201.094 579.299,208.432 596.389,215.475 613.479,221.437 630.57,222.948 647.66,220.558 664.75,211.833 681.841,200.62 698.931,193.366 716.021,189.024 733.112,187.339 750.202,188.537 767.292,191.218 784.383,194.093 801.473,195.432 818.563,195.922 835.654,195.212 852.744,195.176 869.834,195.127 886.925,194.857 904.015,192.758 921.105,189.965 938.195,188.786 955.286,193.03 972.376,199.394 989.466,206.901 1006.56,214.127 1023.65,220.296 1040.74,221.989 1057.83,219.749 1074.92,211.005 1092.01,199.711 1109.1,192.36 1126.19,187.999 1143.28,186.334 1160.37,187.533 1177.46,190.182 1194.55,192.997 1211.64,194.273 1228.73,194.691 1245.82,193.985 1262.91,194.059 1280,194.161 1297.09,194.038 1314.18,192.08 1331.27,189.408 1348.36,188.336 1365.45,192.688 1382.54,199.153 1399.63,206.757 1416.72,214.081 1433.81,220.349 1450.91,222.126 1468,219.953 1485.09,211.199 1502.18,199.843 1519.27,192.412 1536.36,188.001 1553.45,186.296 1570.54,187.465 1587.63,190.109 1604.72,192.884 1621.81,194.14 1638.9,194.57 1655.99,193.893 1673.08,194.019 1690.17,194.195 1707.26,194.152 1724.35,192.262 1741.44,189.655 1758.53,188.644 1775.62,193.053 1792.71,199.577 1809.8,207.242 1826.89,214.635 1843.98,220.963 1861.07,222.804 1878.16,220.69 1895.25,211.956 1912.34,200.598 1929.43,193.166 1946.52,188.746 1963.61,187.029 1980.71,188.188 1997.8,190.814 2014.89,193.584 2031.98,194.851 2049.07,195.281 2066.16,194.622 2083.25,194.786 2100.34,195.005 2117.43,195.003 2134.52,193.152 2151.61,190.579 2168.7,189.599 2185.79,194.044 2202.88,200.607 2219.97,208.308 2237.06,215.742 2254.15,222.122 2271.24,224.025 2288.33,221.964 2305.42,213.25 2322.51,201.899 2339.6,194.456 2356.69,190.024 2373.78,188.271 2390.87,189.403 2407.96,192.001 2425.05,194.756 2442.14,195.99 2459.23,196.411 2476.32,195.747 2493.42,195.913 2510.51,196.152 2527.6,196.18 2544.69,194.35 2561.78,191.803 2578.87,190.846 2595.96,195.317 2613.05,201.899 2630.14,209.63 2647.23,217.101 2664.32,223.513 2681.41,225.448 2698.5,223.388 2715.59,214.723 2732.68,203.362 2749.77,195.899 2766.86,191.445 2783.95,189.69 2801.04,190.8 2818.13,193.379 2835.22,196.097 2852.31,197.289 2869.4,197.7 2886.49,197.036 2903.58,197.199 2920.67,197.437 2937.76,197.466 2954.85,195.648 2971.94,193.112 2989.03,192.166 3006.12,196.653 3023.22,203.256 3040.31,211.009 3057.4,218.499 3074.49,224.939 3091.58,226.883 3108.67,224.873 3125.76,216.213 3142.85,204.869 3159.94,197.394 3177.03,192.912 3194.12,191.126 3211.21,192.202 3228.3,194.746 3245.39,197.43 3262.48,198.618 3279.57,198.999 3296.66,198.322 3313.75,198.494 3330.84,198.73 3347.93,198.761 3365.02,196.944 3382.11,194.414 3399.2,193.471 3416.29,197.963 3433.38,204.572 3450.47,212.332 3467.56,219.832 3484.65,226.29 3501.74,228.262 3518.83,226.275 3535.92,217.59 3553.02,206.225 3570.11,198.735 3587.2,194.248 3604.29,192.426 3621.38,193.477 3638.47,195.995 3655.56,198.664 3672.65,199.826 3689.74,200.185 3706.83,199.48 3723.92,199.626 3741.01,199.856 3758.1,199.894 3775.19,198.084 3792.28,195.561 3809.37,194.625 3826.46,199.127 3843.55,205.744 3860.64,213.522 3877.73,221.039 3894.82,227.524 3911.91,229.52 3929,227.527 3946.09,218.87 3963.18,207.523 3980.27,200.02 3997.36,195.498 4014.45,193.653 4031.54,194.674 4048.63,197.169 4065.72,199.801 4082.82,200.946 4099.91,201.298 4117,200.573 4134.09,200.727 4151.18,200.967 4168.27,201.013 4185.36,199.207 4202.45,196.684 4219.54,195.748 4236.63,200.25 4253.72,206.87 4270.81,214.649 4287.9,222.178 4304.99,228.673 4322.08,230.687 4339.17,228.722 4356.26,220.071 4373.35,208.713 4390.44,201.189 4407.53,196.645 4424.62,194.78 4441.71,195.775 4458.8,198.242 4475.89,200.845 4492.98,201.963 4510.07,202.281 4527.16,201.552 4544.25,201.696 4561.34,201.932 4578.43,201.974 4595.52,200.175 4612.62,197.651 4629.71,196.716 "/>
<path clip-path="url(#clip612)" d="M528.028 195.799 L545.118 206.28 L562.208 221.054 L579.299 241.958 L596.389 263.151 L613.479 282.734 L630.57 290.962 L647.66 290.566 L664.75 272.314 L681.841 246.888 L698.931 230.453 L716.021 219.942 L733.112 216.614 L750.202 220.853 L767.292 228.54 L784.383 236.805 L801.473 241.513 L818.563 245.095 L835.654 244.556 L852.744 246.589 L869.834 249.866 L886.925 251.615 L904.015 242.181 L921.105 237.237 L938.195 236.365 L955.286 247.348 L972.376 261.057 L989.466 278.01 L1006.56 297.191 L1023.65 315.733 L1040.74 325.157 L1057.83 326.701 L1074.92 305.617 L1092.01 277.253 L1109.1 256.751 L1126.19 245.989 L1143.28 240.517 L1160.37 240.229 L1177.46 245.97 L1194.55 251.28 L1211.64 255.657 L1228.73 257.607 L1245.82 256.969 L1262.91 258.433 L1280 262.535 L1297.09 261.291 L1314.18 252.138 L1331.27 247.545 L1348.36 246.755 L1365.45 255.897 L1382.54 270.781 L1399.63 287.637 L1416.72 307.291 L1433.81 325.43 L1450.91 333.165 L1468 336.501 L1485.09 315.179 L1502.18 283.202 L1519.27 265.423 L1536.36 252.151 L1553.45 246.403 L1570.54 247.343 L1587.63 251.776 L1604.72 257.208 L1621.81 259.259 L1638.9 262.189 L1655.99 261.508 L1673.08 261.708 L1690.17 265.089 L1707.26 264.084 L1724.35 255.302 L1741.44 251.835 L1758.53 251.58 L1775.62 261.011 L1792.71 274.244 L1809.8 290.733 L1826.89 310.242 L1843.98 328.926 L1861.07 335.801 L1878.16 336.937 L1895.25 315.241 L1912.34 286.859 L1929.43 268.647 L1946.52 256.497 L1963.61 251.069 L1980.71 251.128 L1997.8 255.192 L2014.89 260.401 L2031.98 261.67 L2049.07 264.194 L2066.16 263.691 L2083.25 263.566 L2100.34 266.936 L2117.43 266.593 L2134.52 258.333 L2151.61 255.644 L2168.7 255.789 L2185.79 264.915 L2202.88 277.752 L2219.97 294.126 L2237.06 312.739 L2254.15 332.498 L2271.24 340.198 L2288.33 338.249 L2305.42 318.64 L2322.51 289.951 L2339.6 270.145 L2356.69 259.43 L2373.78 253.784 L2390.87 252.979 L2407.96 256.959 L2425.05 261.732 L2442.14 263.517 L2459.23 265.739 L2476.32 265.571 L2493.42 264.928 L2510.51 268.352 L2527.6 267.941 L2544.69 262.509 L2561.78 258.743 L2578.87 257.816 L2595.96 267.096 L2613.05 280.112 L2630.14 295.986 L2647.23 313.668 L2664.32 333.603 L2681.41 342.248 L2698.5 339.693 L2715.59 320.773 L2732.68 291.85 L2749.77 273.208 L2766.86 261.544 L2783.95 256.626 L2801.04 255.538 L2818.13 259.701 L2835.22 264.579 L2852.31 266.41 L2869.4 267.426 L2886.49 268.2 L2903.58 267.165 L2920.67 269.924 L2937.76 270.341 L2954.85 265.529 L2971.94 260.872 L2989.03 260.518 L3006.12 270.209 L3023.22 283.031 L3040.31 297.705 L3057.4 316.572 L3074.49 334.764 L3091.58 343.526 L3108.67 342.343 L3125.76 321.966 L3142.85 294.407 L3159.94 274.302 L3177.03 263.757 L3194.12 258.738 L3211.21 259.614 L3228.3 262.965 L3245.39 267.009 L3262.48 269.68 L3279.57 270.784 L3296.66 269.714 L3313.75 269.799 L3330.84 272.508 L3347.93 273.725 L3365.02 266.937 L3382.11 260.837 L3399.2 262.017 L3416.29 272.188 L3433.38 284.99 L3450.47 299.766 L3467.56 318.93 L3484.65 336.737 L3501.74 345.645 L3518.83 343.562 L3535.92 323.955 L3553.02 297.211 L3570.11 277.367 L3587.2 265.987 L3604.29 260.714 L3621.38 261.598 L3638.47 265.261 L3655.56 269.94 L3672.65 271.658 L3689.74 272.814 L3706.83 271.641 L3723.92 273.288 L3741.01 275.078 L3758.1 276.143 L3775.19 270.109 L3792.28 263.316 L3809.37 263.485 L3826.46 273.497 L3843.55 286.992 L3860.64 301.604 L3877.73 321.432 L3894.82 339.407 L3911.91 346.991 L3929 344.775 L3946.09 326.027 L3963.18 299.216 L3980.27 279.421 L3997.36 269.215 L4014.45 263.778 L4031.54 263.408 L4048.63 266.91 L4065.72 271.549 L4082.82 273.266 L4099.91 275.061 L4117 273.532 L4134.09 275.235 L4151.18 277.019 L4168.27 277.501 L4185.36 271.99 L4202.45 267.129 L4219.54 265.392 L4236.63 275.028 L4253.72 288.779 L4270.81 303.416 L4287.9 322.765 L4304.99 341.618 L4322.08 348.009 L4339.17 345.748 L4356.26 327.069 L4373.35 301.758 L4390.44 281.153 L4407.53 271.997 L4424.62 264.133 L4441.71 264.533 L4458.8 268.804 L4475.89 273.206 L4492.98 274.32 L4510.07 275.802 L4527.16 274.876 L4544.25 275.904 L4561.34 278.068 L4578.43 279.187 L4595.52 271.673 L4612.62 268.693 L4629.71 266.816 L4629.71 134.046 L4612.62 136.965 L4595.52 141.307 L4578.43 147.557 L4561.34 149.948 L4544.25 149.642 L4527.16 152.333 L4510.07 156.696 L4492.98 157.749 L4475.89 155.336 L4458.8 149.965 L4441.71 143.185 L4424.62 138.748 L4407.53 138.789 L4390.44 144.486 L4373.35 155.91 L4356.26 175.604 L4339.17 190.601 L4322.08 195.143 L4304.99 191.747 L4287.9 180.188 L4270.81 167.085 L4253.72 153.41 L4236.63 139.789 L4219.54 132.195 L4202.45 133.716 L4185.36 139.263 L4168.27 145.115 L4151.18 147.762 L4134.09 148.065 L4117 149.726 L4099.91 153.659 L4082.82 155.01 L4065.72 152.668 L4048.63 146.775 L4031.54 140.508 L4014.45 135.948 L3997.36 136.356 L3980.27 141.24 L3963.18 152.953 L3946.09 172.38 L3929 188.116 L3911.91 191.774 L3894.82 189.308 L3877.73 178.465 L3860.64 164.786 L3843.55 149.881 L3826.46 137.435 L3809.37 129.284 L3792.28 131.45 L3775.19 136.681 L3758.1 142.422 L3741.01 144.539 L3723.92 145.704 L3706.83 146.18 L3689.74 150.27 L3672.65 152.586 L3655.56 150.412 L3638.47 143.684 L3621.38 138.377 L3604.29 133.278 L3587.2 133.684 L3570.11 138.292 L3553.02 149.892 L3535.92 169.635 L3518.83 184.55 L3501.74 188.793 L3484.65 186.901 L3467.56 174.882 L3450.47 161.482 L3433.38 146.92 L3416.29 133.687 L3399.2 125.887 L3382.11 127.857 L3365.02 134.549 L3347.93 139.906 L3330.84 141.502 L3313.75 142.276 L3296.66 143.942 L3279.57 146.955 L3262.48 148.981 L3245.39 147.471 L3228.3 141.084 L3211.21 134.494 L3194.12 129.892 L3177.03 130.867 L3159.94 135.828 L3142.85 146.868 L3125.76 166.121 L3108.67 181.631 L3091.58 186.418 L3074.49 182.933 L3057.4 171.803 L3040.31 157.221 L3023.22 143.271 L3006.12 130.807 L2989.03 123.105 L2971.94 124.582 L2954.85 131.711 L2937.76 136.333 L2920.67 137.969 L2903.58 138.186 L2886.49 140.224 L2869.4 143.885 L2852.31 145.601 L2835.22 143.984 L2818.13 138.238 L2801.04 130.95 L2783.95 126.12 L2766.86 126.961 L2749.77 132.867 L2732.68 143.42 L2715.59 162.991 L2698.5 177.94 L2681.41 183.07 L2664.32 179.902 L2647.23 168.849 L2630.14 154.028 L2613.05 139.783 L2595.96 128.126 L2578.87 119.859 L2561.78 122.09 L2544.69 129.194 L2527.6 133.768 L2510.51 134.115 L2493.42 134.503 L2476.32 136.257 L2459.23 138.508 L2442.14 141.008 L2425.05 140.344 L2407.96 134.625 L2390.87 127.841 L2373.78 123.013 L2356.69 124.081 L2339.6 129.296 L2322.51 140.905 L2305.42 160.173 L2288.33 175.63 L2271.24 179.896 L2254.15 177.025 L2237.06 165.397 L2219.97 151.524 L2202.88 137.32 L2185.79 125.201 L2168.7 117.377 L2151.61 119.216 L2134.52 126.622 L2117.43 131.476 L2100.34 131.29 L2083.25 131.8 L2066.16 132.529 L2049.07 136.191 L2031.98 138.478 L2014.89 138.015 L1997.8 132.065 L1980.71 126.038 L1963.61 121.434 L1946.52 122.064 L1929.43 127.711 L1912.34 139.359 L1895.25 158.706 L1878.16 173.966 L1861.07 179.094 L1843.98 175.825 L1826.89 164.132 L1809.8 150.165 L1792.71 137.069 L1775.62 124.605 L1758.53 116.996 L1741.44 118.708 L1724.35 125.865 L1707.26 131.042 L1690.17 131.425 L1673.08 131.061 L1655.99 131.978 L1638.9 136.482 L1621.81 139.424 L1604.72 138.489 L1587.63 132.974 L1570.54 127.195 L1553.45 123.271 L1536.36 124.855 L1519.27 129.779 L1502.18 140.861 L1485.09 160.694 L1468 176.716 L1450.91 180.728 L1433.81 178.124 L1416.72 167.93 L1399.63 154.551 L1382.54 141.098 L1365.45 128.372 L1348.36 121.16 L1331.27 124.469 L1314.18 129.991 L1297.09 135.751 L1280 137.04 L1262.91 137.745 L1245.82 140.554 L1228.73 143.799 L1211.64 145.906 L1194.55 145.102 L1177.46 140.633 L1160.37 135.215 L1143.28 131.358 L1126.19 132.807 L1109.1 139.716 L1092.01 151.754 L1074.92 172.07 L1057.83 188.25 L1040.74 193.143 L1023.65 191.718 L1006.56 181.734 L989.466 168.127 L972.376 154.266 L955.286 142.271 L938.195 135.552 L921.105 139.807 L904.015 147.004 L886.925 152.321 L869.834 154.708 L852.744 157.561 L835.654 159.034 L818.563 163.919 L801.473 164.958 L784.383 164.286 L767.292 160.483 L750.202 156.77 L733.112 155.419 L716.021 159.904 L698.931 168.922 L681.841 182.594 L664.75 204.16 L647.66 221.795 L630.57 228.616 L613.479 228.651 L596.389 220.815 L579.299 210.744 L562.208 198.483 L545.118 187.656 L528.028 182.063  Z" fill="#414141" fill-rule="evenodd" fill-opacity="0.5"/>
<polyline clip-path="url(#clip612)" style="stroke:#414141; stroke-linecap:round; stroke-linejoin:round; stroke-width:0; stroke-opacity:1; fill:none" points="528.028,190.638 545.118,194.85 562.208,201.094 579.299,208.432 596.389,215.475 613.479,221.437 630.57,222.948 647.66,220.558 664.75,211.833 681.841,200.62 698.931,193.366 716.021,189.024 733.112,187.339 750.202,188.537 767.292,191.218 784.383,194.093 801.473,195.432 818.563,195.922 835.654,195.212 852.744,195.176 869.834,195.127 886.925,194.857 904.015,192.758 921.105,189.965 938.195,188.786 955.286,193.03 972.376,199.394 989.466,206.901 1006.56,214.127 1023.65,220.296 1040.74,221.989 1057.83,219.749 1074.92,211.005 1092.01,199.711 1109.1,192.36 1126.19,187.999 1143.28,186.334 1160.37,187.533 1177.46,190.182 1194.55,192.997 1211.64,194.273 1228.73,194.691 1245.82,193.985 1262.91,194.059 1280,194.161 1297.09,194.038 1314.18,192.08 1331.27,189.408 1348.36,188.336 1365.45,192.688 1382.54,199.153 1399.63,206.757 1416.72,214.081 1433.81,220.349 1450.91,222.126 1468,219.953 1485.09,211.199 1502.18,199.843 1519.27,192.412 1536.36,188.001 1553.45,186.296 1570.54,187.465 1587.63,190.109 1604.72,192.884 1621.81,194.14 1638.9,194.57 1655.99,193.893 1673.08,194.019 1690.17,194.195 1707.26,194.152 1724.35,192.262 1741.44,189.655 1758.53,188.644 1775.62,193.053 1792.71,199.577 1809.8,207.242 1826.89,214.635 1843.98,220.963 1861.07,222.804 1878.16,220.69 1895.25,211.956 1912.34,200.598 1929.43,193.166 1946.52,188.746 1963.61,187.029 1980.71,188.188 1997.8,190.814 2014.89,193.584 2031.98,194.851 2049.07,195.281 2066.16,194.622 2083.25,194.786 2100.34,195.005 2117.43,195.003 2134.52,193.152 2151.61,190.579 2168.7,189.599 2185.79,194.044 2202.88,200.607 2219.97,208.308 2237.06,215.742 2254.15,222.122 2271.24,224.025 2288.33,221.964 2305.42,213.25 2322.51,201.899 2339.6,194.456 2356.69,190.024 2373.78,188.271 2390.87,189.403 2407.96,192.001 2425.05,194.756 2442.14,195.99 2459.23,196.411 2476.32,195.747 2493.42,195.913 2510.51,196.152 2527.6,196.18 2544.69,194.35 2561.78,191.803 2578.87,190.846 2595.96,195.317 2613.05,201.899 2630.14,209.63 2647.23,217.101 2664.32,223.513 2681.41,225.448 2698.5,223.388 2715.59,214.723 2732.68,203.362 2749.77,195.899 2766.86,191.445 2783.95,189.69 2801.04,190.8 2818.13,193.379 2835.22,196.097 2852.31,197.289 2869.4,197.7 2886.49,197.036 2903.58,197.199 2920.67,197.437 2937.76,197.466 2954.85,195.648 2971.94,193.112 2989.03,192.166 3006.12,196.653 3023.22,203.256 3040.31,211.009 3057.4,218.499 3074.49,224.939 3091.58,226.883 3108.67,224.873 3125.76,216.213 3142.85,204.869 3159.94,197.394 3177.03,192.912 3194.12,191.126 3211.21,192.202 3228.3,194.746 3245.39,197.43 3262.48,198.618 3279.57,198.999 3296.66,198.322 3313.75,198.494 3330.84,198.73 3347.93,198.761 3365.02,196.944 3382.11,194.414 3399.2,193.471 3416.29,197.963 3433.38,204.572 3450.47,212.332 3467.56,219.832 3484.65,226.29 3501.74,228.262 3518.83,226.275 3535.92,217.59 3553.02,206.225 3570.11,198.735 3587.2,194.248 3604.29,192.426 3621.38,193.477 3638.47,195.995 3655.56,198.664 3672.65,199.826 3689.74,200.185 3706.83,199.48 3723.92,199.626 3741.01,199.856 3758.1,199.894 3775.19,198.084 3792.28,195.561 3809.37,194.625 3826.46,199.127 3843.55,205.744 3860.64,213.522 3877.73,221.039 3894.82,227.524 3911.91,229.52 3929,227.527 3946.09,218.87 3963.18,207.523 3980.27,200.02 3997.36,195.498 4014.45,193.653 4031.54,194.674 4048.63,197.169 4065.72,199.801 4082.82,200.946 4099.91,201.298 4117,200.573 4134.09,200.727 4151.18,200.967 4168.27,201.013 4185.36,199.207 4202.45,196.684 4219.54,195.748 4236.63,200.25 4253.72,206.87 4270.81,214.649 4287.9,222.178 4304.99,228.673 4322.08,230.687 4339.17,228.722 4356.26,220.071 4373.35,208.713 4390.44,201.189 4407.53,196.645 4424.62,194.78 4441.71,195.775 4458.8,198.242 4475.89,200.845 4492.98,201.963 4510.07,202.281 4527.16,201.552 4544.25,201.696 4561.34,201.932 4578.43,201.974 4595.52,200.175 4612.62,197.651 4629.71,196.716 "/>
<path clip-path="url(#clip610)" d="M3853.78 853.161 L4607.83 853.161 L4607.83 334.761 L3853.78 334.761  Z" fill="#ffffff" fill-rule="evenodd" fill-opacity="1"/>
<polyline clip-path="url(#clip610)" style="stroke:#000000; stroke-linecap:round; stroke-linejoin:round; stroke-width:4; stroke-opacity:1; fill:none" points="3853.78,853.161 4607.83,853.161 4607.83,334.761 3853.78,334.761 3853.78,853.161 "/>
<polyline clip-path="url(#clip610)" style="stroke:#aeaeae; stroke-linecap:round; stroke-linejoin:round; stroke-width:2; stroke-opacity:1; fill:none" points="3902.09,464.361 4191.94,464.361 "/>
<path clip-path="url(#clip610)" d="M4241.93 497.723 L4261.03 497.723 L4261.03 431.809 L4240.25 435.976 L4240.25 425.328 L4260.91 421.161 L4272.6 421.161 L4272.6 497.723 L4291.7 497.723 L4291.7 507.561 L4241.93 507.561 L4241.93 497.723 Z" fill="#000000" fill-rule="nonzero" fill-opacity="1" /><path clip-path="url(#clip610)" d="M4340.31 428.858 Q4331.28 428.858 4326.71 437.77 Q4322.2 446.624 4322.2 464.448 Q4322.2 482.214 4326.71 491.126 Q4331.28 499.98 4340.31 499.98 Q4349.4 499.98 4353.91 491.126 Q4358.48 482.214 4358.48 464.448 Q4358.48 446.624 4353.91 437.77 Q4349.4 428.858 4340.31 428.858 M4340.31 419.599 Q4354.83 419.599 4362.47 431.115 Q4370.17 442.573 4370.17 464.448 Q4370.17 486.265 4362.47 497.781 Q4354.83 509.239 4340.31 509.239 Q4325.78 509.239 4318.09 497.781 Q4310.45 486.265 4310.45 464.448 Q4310.45 442.573 4318.09 431.115 Q4325.78 419.599 4340.31 419.599 Z" fill="#000000" fill-rule="nonzero" fill-opacity="1" /><path clip-path="url(#clip610)" d="M4415.71 428.858 Q4406.69 428.858 4402.11 437.77 Q4397.6 446.624 4397.6 464.448 Q4397.6 482.214 4402.11 491.126 Q4406.69 499.98 4415.71 499.98 Q4424.8 499.98 4429.31 491.126 Q4433.89 482.214 4433.89 464.448 Q4433.89 446.624 4429.31 437.77 Q4424.8 428.858 4415.71 428.858 M4415.71 419.599 Q4430.24 419.599 4437.88 431.115 Q4445.58 442.573 4445.58 464.448 Q4445.58 486.265 4437.88 497.781 Q4430.24 509.239 4415.71 509.239 Q4401.19 509.239 4393.49 497.781 Q4385.85 486.265 4385.85 464.448 Q4385.85 442.573 4393.49 431.115 Q4401.19 419.599 4415.71 419.599 Z" fill="#000000" fill-rule="nonzero" fill-opacity="1" /><path clip-path="url(#clip610)" d="M4539.61 469.541 Q4534.58 469.541 4531.69 473.823 Q4528.85 478.105 4528.85 485.744 Q4528.85 493.267 4531.69 497.608 Q4534.58 501.89 4539.61 501.89 Q4544.53 501.89 4547.37 497.608 Q4550.26 493.267 4550.26 485.744 Q4550.26 478.163 4547.37 473.881 Q4544.53 469.541 4539.61 469.541 M4539.61 462.191 Q4548.76 462.191 4554.14 468.557 Q4559.52 474.923 4559.52 485.744 Q4559.52 496.566 4554.08 502.932 Q4548.7 509.239 4539.61 509.239 Q4530.35 509.239 4524.97 502.932 Q4519.59 496.566 4519.59 485.744 Q4519.59 474.865 4524.97 468.557 Q4530.41 462.191 4539.61 462.191 M4479.89 426.948 Q4474.92 426.948 4472.02 431.289 Q4469.19 435.571 4469.19 443.094 Q4469.19 450.733 4472.02 455.015 Q4474.86 459.298 4479.89 459.298 Q4484.93 459.298 4487.76 455.015 Q4490.66 450.733 4490.66 443.094 Q4490.66 435.629 4487.76 431.289 Q4484.87 426.948 4479.89 426.948 M4532.15 419.599 L4541.41 419.599 L4487.36 509.239 L4478.1 509.239 L4532.15 419.599 M4479.89 419.599 Q4489.04 419.599 4494.48 425.964 Q4499.92 432.272 4499.92 443.094 Q4499.92 454.031 4494.48 460.339 Q4489.09 466.647 4479.89 466.647 Q4470.69 466.647 4465.31 460.339 Q4459.98 453.974 4459.98 443.094 Q4459.98 432.33 4465.37 425.964 Q4470.75 419.599 4479.89 419.599 Z" fill="#000000" fill-rule="nonzero" fill-opacity="1" /><polyline clip-path="url(#clip610)" style="stroke:#757575; stroke-linecap:round; stroke-linejoin:round; stroke-width:2; stroke-opacity:1; fill:none" points="3902.09,593.961 4191.94,593.961 "/>
<path clip-path="url(#clip610)" d="M4245.81 635.367 L4245.81 624.719 Q4250.21 626.803 4254.72 627.902 Q4259.23 629.002 4263.57 629.002 Q4275.15 629.002 4281.22 621.247 Q4287.36 613.435 4288.23 597.578 Q4284.87 602.555 4279.72 605.217 Q4274.57 607.879 4268.32 607.879 Q4255.36 607.879 4247.78 600.067 Q4240.25 592.196 4240.25 578.597 Q4240.25 565.287 4248.12 557.243 Q4255.99 549.199 4269.07 549.199 Q4284.06 549.199 4291.93 560.715 Q4299.86 572.173 4299.86 594.048 Q4299.86 614.476 4290.14 626.687 Q4280.47 638.839 4264.09 638.839 Q4259.7 638.839 4255.18 637.971 Q4250.67 637.103 4245.81 635.367 M4269.07 598.736 Q4276.94 598.736 4281.51 593.354 Q4286.14 587.972 4286.14 578.597 Q4286.14 569.28 4281.51 563.898 Q4276.94 558.458 4269.07 558.458 Q4261.2 558.458 4256.57 563.898 Q4252 569.28 4252 578.597 Q4252 587.972 4256.57 593.354 Q4261.2 598.736 4269.07 598.736 Z" fill="#000000" fill-rule="nonzero" fill-opacity="1" /><path clip-path="url(#clip610)" d="M4345.87 558.458 Q4336.84 558.458 4332.27 567.37 Q4327.75 576.224 4327.75 594.048 Q4327.75 611.814 4332.27 620.726 Q4336.84 629.58 4345.87 629.58 Q4354.95 629.58 4359.46 620.726 Q4364.04 611.814 4364.04 594.048 Q4364.04 576.224 4359.46 567.37 Q4354.95 558.458 4345.87 558.458 M4345.87 549.199 Q4360.39 549.199 4368.03 560.715 Q4375.73 572.173 4375.73 594.048 Q4375.73 615.865 4368.03 627.381 Q4360.39 638.839 4345.87 638.839 Q4331.34 638.839 4323.64 627.381 Q4316 615.865 4316 594.048 Q4316 572.173 4323.64 560.715 Q4331.34 549.199 4345.87 549.199 Z" fill="#000000" fill-rule="nonzero" fill-opacity="1" /><path clip-path="url(#clip610)" d="M4469.76 599.141 Q4464.73 599.141 4461.84 603.423 Q4459 607.705 4459 615.344 Q4459 622.867 4461.84 627.208 Q4464.73 631.49 4469.76 631.49 Q4474.68 631.49 4477.52 627.208 Q4480.41 622.867 4480.41 615.344 Q4480.41 607.763 4477.52 603.481 Q4474.68 599.141 4469.76 599.141 M4469.76 591.791 Q4478.91 591.791 4484.29 598.157 Q4489.67 604.523 4489.67 615.344 Q4489.67 626.166 4484.23 632.532 Q4478.85 638.839 4469.76 638.839 Q4460.51 638.839 4455.12 632.532 Q4449.74 626.166 4449.74 615.344 Q4449.74 604.465 4455.12 598.157 Q4460.56 591.791 4469.76 591.791 M4410.04 556.548 Q4405.07 556.548 4402.17 560.889 Q4399.34 565.171 4399.34 572.694 Q4399.34 580.333 4402.17 584.615 Q4405.01 588.898 4410.04 588.898 Q4415.08 588.898 4417.91 584.615 Q4420.81 580.333 4420.81 572.694 Q4420.81 565.229 4417.91 560.889 Q4415.02 556.548 4410.04 556.548 M4462.3 549.199 L4471.56 549.199 L4417.51 638.839 L4408.25 638.839 L4462.3 549.199 M4410.04 549.199 Q4419.19 549.199 4424.63 555.564 Q4430.07 561.872 4430.07 572.694 Q4430.07 583.631 4424.63 589.939 Q4419.24 596.247 4410.04 596.247 Q4400.84 596.247 4395.46 589.939 Q4390.14 583.574 4390.14 572.694 Q4390.14 561.93 4395.52 555.564 Q4400.9 549.199 4410.04 549.199 Z" fill="#000000" fill-rule="nonzero" fill-opacity="1" /><polyline clip-path="url(#clip610)" style="stroke:#414141; stroke-linecap:round; stroke-linejoin:round; stroke-width:2; stroke-opacity:1; fill:none" points="3902.09,723.561 4191.94,723.561 "/>
<path clip-path="url(#clip610)" d="M4269.88 725.731 Q4261.55 725.731 4256.75 730.187 Q4252 734.643 4252 742.456 Q4252 750.268 4256.75 754.724 Q4261.55 759.18 4269.88 759.18 Q4278.21 759.18 4283.02 754.724 Q4287.82 750.21 4287.82 742.456 Q4287.82 734.643 4283.02 730.187 Q4278.27 725.731 4269.88 725.731 M4258.19 720.755 Q4250.67 718.903 4246.44 713.752 Q4242.28 708.602 4242.28 701.194 Q4242.28 690.836 4249.63 684.817 Q4257.03 678.799 4269.88 678.799 Q4282.79 678.799 4290.14 684.817 Q4297.49 690.836 4297.49 701.194 Q4297.49 708.602 4293.26 713.752 Q4289.09 718.903 4281.63 720.755 Q4290.08 722.722 4294.77 728.451 Q4299.51 734.18 4299.51 742.456 Q4299.51 755.014 4291.81 761.727 Q4284.18 768.439 4269.88 768.439 Q4255.59 768.439 4247.89 761.727 Q4240.25 755.014 4240.25 742.456 Q4240.25 734.18 4245 728.451 Q4249.74 722.722 4258.19 720.755 M4253.91 702.294 Q4253.91 709.007 4258.08 712.768 Q4262.3 716.53 4269.88 716.53 Q4277.4 716.53 4281.63 712.768 Q4285.91 709.007 4285.91 702.294 Q4285.91 695.581 4281.63 691.82 Q4277.4 688.058 4269.88 688.058 Q4262.3 688.058 4258.08 691.82 Q4253.91 695.581 4253.91 702.294 Z" fill="#000000" fill-rule="nonzero" fill-opacity="1" /><path clip-path="url(#clip610)" d="M4345.29 688.058 Q4336.26 688.058 4331.69 696.97 Q4327.17 705.824 4327.17 723.648 Q4327.17 741.414 4331.69 750.326 Q4336.26 759.18 4345.29 759.18 Q4354.37 759.18 4358.89 750.326 Q4363.46 741.414 4363.46 723.648 Q4363.46 705.824 4358.89 696.97 Q4354.37 688.058 4345.29 688.058 M4345.29 678.799 Q4359.81 678.799 4367.45 690.315 Q4375.15 701.773 4375.15 723.648 Q4375.15 745.465 4367.45 756.981 Q4359.81 768.439 4345.29 768.439 Q4330.76 768.439 4323.06 756.981 Q4315.43 745.465 4315.43 723.648 Q4315.43 701.773 4323.06 690.315 Q4330.76 678.799 4345.29 678.799 Z" fill="#000000" fill-rule="nonzero" fill-opacity="1" /><path clip-path="url(#clip610)" d="M4469.19 728.741 Q4464.15 728.741 4461.26 733.023 Q4458.42 737.305 4458.42 744.944 Q4458.42 752.467 4461.26 756.808 Q4464.15 761.09 4469.19 761.09 Q4474.11 761.09 4476.94 756.808 Q4479.83 752.467 4479.83 744.944 Q4479.83 737.363 4476.94 733.081 Q4474.11 728.741 4469.19 728.741 M4469.19 721.391 Q4478.33 721.391 4483.71 727.757 Q4489.09 734.123 4489.09 744.944 Q4489.09 755.766 4483.65 762.132 Q4478.27 768.439 4469.19 768.439 Q4459.93 768.439 4454.55 762.132 Q4449.16 755.766 4449.16 744.944 Q4449.16 734.065 4454.55 727.757 Q4459.98 721.391 4469.19 721.391 M4409.46 686.148 Q4404.49 686.148 4401.59 690.489 Q4398.76 694.771 4398.76 702.294 Q4398.76 709.933 4401.59 714.215 Q4404.43 718.498 4409.46 718.498 Q4414.5 718.498 4417.33 714.215 Q4420.23 709.933 4420.23 702.294 Q4420.23 694.829 4417.33 690.489 Q4414.44 686.148 4409.46 686.148 M4461.72 678.799 L4470.98 678.799 L4416.93 768.439 L4407.67 768.439 L4461.72 678.799 M4409.46 678.799 Q4418.61 678.799 4424.05 685.164 Q4429.49 691.472 4429.49 702.294 Q4429.49 713.231 4424.05 719.539 Q4418.67 725.847 4409.46 725.847 Q4400.26 725.847 4394.88 719.539 Q4389.56 713.174 4389.56 702.294 Q4389.56 691.53 4394.94 685.164 Q4400.32 678.799 4409.46 678.799 Z" fill="#000000" fill-rule="nonzero" fill-opacity="1" /></svg>
