<?xml version="1.0" encoding="utf-8"?>
<svg xmlns="http://www.w3.org/2000/svg" xmlns:xlink="http://www.w3.org/1999/xlink" width="1200" height="300" viewBox="0 0 4800 1200">
<defs>
  <clipPath id="clip200">
    <rect x="0" y="0" width="4800" height="1200"/>
  </clipPath>
</defs>
<path clip-path="url(#clip200)" d="M0 1200 L4800 1200 L4800 0 L0 0  Z" fill="#ffffff" fill-rule="evenodd" fill-opacity="1"/>
<defs>
  <clipPath id="clip201">
    <rect x="960" y="0" width="3361" height="1200"/>
  </clipPath>
</defs>
<path clip-path="url(#clip200)" d="M404.977 880.951 L4752.76 880.951 L4752.76 47.2441 L404.977 47.2441  Z" fill="#ffffff" fill-rule="evenodd" fill-opacity="1"/>
<defs>
  <clipPath id="clip202">
    <rect x="404" y="47" width="4349" height="835"/>
  </clipPath>
</defs>
<polyline clip-path="url(#clip202)" style="stroke:#000000; stroke-linecap:round; stroke-linejoin:round; stroke-width:2; stroke-opacity:0.1; fill:none" points="528.028,880.951 528.028,47.2441 "/>
<polyline clip-path="url(#clip202)" style="stroke:#000000; stroke-linecap:round; stroke-linejoin:round; stroke-width:2; stroke-opacity:0.1; fill:none" points="1348.36,880.951 1348.36,47.2441 "/>
<polyline clip-path="url(#clip202)" style="stroke:#000000; stroke-linecap:round; stroke-linejoin:round; stroke-width:2; stroke-opacity:0.1; fill:none" points="2168.7,880.951 2168.7,47.2441 "/>
<polyline clip-path="url(#clip202)" style="stroke:#000000; stroke-linecap:round; stroke-linejoin:round; stroke-width:2; stroke-opacity:0.1; fill:none" points="2989.03,880.951 2989.03,47.2441 "/>
<polyline clip-path="url(#clip202)" style="stroke:#000000; stroke-linecap:round; stroke-linejoin:round; stroke-width:2; stroke-opacity:0.1; fill:none" points="3809.37,880.951 3809.37,47.2441 "/>
<polyline clip-path="url(#clip202)" style="stroke:#000000; stroke-linecap:round; stroke-linejoin:round; stroke-width:2; stroke-opacity:0.1; fill:none" points="4629.71,880.951 4629.71,47.2441 "/>
<polyline clip-path="url(#clip202)" style="stroke:#000000; stroke-linecap:round; stroke-linejoin:round; stroke-width:2; stroke-opacity:0.1; fill:none" points="404.977,724.76 4752.76,724.76 "/>
<polyline clip-path="url(#clip202)" style="stroke:#000000; stroke-linecap:round; stroke-linejoin:round; stroke-width:2; stroke-opacity:0.1; fill:none" points="404.977,546.796 4752.76,546.796 "/>
<polyline clip-path="url(#clip202)" style="stroke:#000000; stroke-linecap:round; stroke-linejoin:round; stroke-width:2; stroke-opacity:0.1; fill:none" points="404.977,368.832 4752.76,368.832 "/>
<polyline clip-path="url(#clip202)" style="stroke:#000000; stroke-linecap:round; stroke-linejoin:round; stroke-width:2; stroke-opacity:0.1; fill:none" points="404.977,190.868 4752.76,190.868 "/>
<polyline clip-path="url(#clip200)" style="stroke:#000000; stroke-linecap:round; stroke-linejoin:round; stroke-width:4; stroke-opacity:1; fill:none" points="404.977,880.951 4752.76,880.951 "/>
<polyline clip-path="url(#clip200)" style="stroke:#000000; stroke-linecap:round; stroke-linejoin:round; stroke-width:4; stroke-opacity:1; fill:none" points="528.028,880.951 528.028,862.054 "/>
<polyline clip-path="url(#clip200)" style="stroke:#000000; stroke-linecap:round; stroke-linejoin:round; stroke-width:4; stroke-opacity:1; fill:none" points="1348.36,880.951 1348.36,862.054 "/>
<polyline clip-path="url(#clip200)" style="stroke:#000000; stroke-linecap:round; stroke-linejoin:round; stroke-width:4; stroke-opacity:1; fill:none" points="2168.7,880.951 2168.7,862.054 "/>
<polyline clip-path="url(#clip200)" style="stroke:#000000; stroke-linecap:round; stroke-linejoin:round; stroke-width:4; stroke-opacity:1; fill:none" points="2989.03,880.951 2989.03,862.054 "/>
<polyline clip-path="url(#clip200)" style="stroke:#000000; stroke-linecap:round; stroke-linejoin:round; stroke-width:4; stroke-opacity:1; fill:none" points="3809.37,880.951 3809.37,862.054 "/>
<polyline clip-path="url(#clip200)" style="stroke:#000000; stroke-linecap:round; stroke-linejoin:round; stroke-width:4; stroke-opacity:1; fill:none" points="4629.71,880.951 4629.71,862.054 "/>
<path clip-path="url(#clip200)" d="M528.028 942.789 Q520.806 942.789 517.148 949.918 Q513.537 957.002 513.537 971.261 Q513.537 985.474 517.148 992.603 Q520.806 999.687 528.028 999.687 Q535.296 999.687 538.907 992.603 Q542.565 985.474 542.565 971.261 Q542.565 957.002 538.907 949.918 Q535.296 942.789 528.028 942.789 M528.028 935.382 Q539.648 935.382 545.759 944.594 Q551.916 953.761 551.916 971.261 Q551.916 988.715 545.759 997.927 Q539.648 1007.09 528.028 1007.09 Q516.407 1007.09 510.25 997.927 Q504.139 988.715 504.139 971.261 Q504.139 953.761 510.25 944.594 Q516.407 935.382 528.028 935.382 Z" fill="#000000" fill-rule="nonzero" fill-opacity="1" /><path clip-path="url(#clip200)" d="M1337.67 997.881 L1370.31 997.881 L1370.31 1005.75 L1326.42 1005.75 L1326.42 997.881 Q1331.74 992.372 1340.91 983.113 Q1350.12 973.807 1352.48 971.122 Q1356.97 966.076 1358.73 962.604 Q1360.54 959.085 1360.54 955.705 Q1360.54 950.196 1356.65 946.724 Q1352.81 943.252 1346.6 943.252 Q1342.21 943.252 1337.3 944.78 Q1332.44 946.307 1326.88 949.409 L1326.88 939.965 Q1332.53 937.696 1337.44 936.539 Q1342.34 935.382 1346.42 935.382 Q1357.16 935.382 1363.55 940.752 Q1369.94 946.122 1369.94 955.104 Q1369.94 959.363 1368.32 963.205 Q1366.74 967.002 1362.53 972.187 Q1361.37 973.529 1355.17 979.965 Q1348.97 986.353 1337.67 997.881 Z" fill="#000000" fill-rule="nonzero" fill-opacity="1" /><path clip-path="url(#clip200)" d="M2174.72 944.78 L2151.11 981.678 L2174.72 981.678 L2174.72 944.78 M2172.26 936.631 L2184.02 936.631 L2184.02 981.678 L2193.88 981.678 L2193.88 989.455 L2184.02 989.455 L2184.02 1005.75 L2174.72 1005.75 L2174.72 989.455 L2143.51 989.455 L2143.51 980.428 L2172.26 936.631 Z" fill="#000000" fill-rule="nonzero" fill-opacity="1" /><path clip-path="url(#clip200)" d="M2989.84 967.465 Q2983.55 967.465 2979.84 971.77 Q2976.19 976.076 2976.19 983.576 Q2976.19 991.029 2979.84 995.381 Q2983.55 999.687 2989.84 999.687 Q2996.14 999.687 2999.8 995.381 Q3003.5 991.029 3003.5 983.576 Q3003.5 976.076 2999.8 971.77 Q2996.14 967.465 2989.84 967.465 M3008.41 938.159 L3008.41 946.678 Q3004.89 945.011 3001.28 944.131 Q2997.71 943.252 2994.2 943.252 Q2984.94 943.252 2980.03 949.502 Q2975.17 955.752 2974.47 968.391 Q2977.21 964.363 2981.33 962.233 Q2985.45 960.057 2990.4 960.057 Q3000.82 960.057 3006.84 966.4 Q3012.9 972.696 3012.9 983.576 Q3012.9 994.224 3006.6 1000.66 Q3000.31 1007.09 2989.84 1007.09 Q2977.85 1007.09 2971.51 997.927 Q2965.17 988.715 2965.17 971.261 Q2965.17 954.872 2972.95 945.15 Q2980.72 935.382 2993.83 935.382 Q2997.34 935.382 3000.91 936.076 Q3004.52 936.77 3008.41 938.159 Z" fill="#000000" fill-rule="nonzero" fill-opacity="1" /><path clip-path="url(#clip200)" d="M3809.37 972.928 Q3802.7 972.928 3798.86 976.492 Q3795.06 980.057 3795.06 986.307 Q3795.06 992.557 3798.86 996.122 Q3802.7 999.687 3809.37 999.687 Q3816.04 999.687 3819.88 996.122 Q3823.72 992.511 3823.72 986.307 Q3823.72 980.057 3819.88 976.492 Q3816.08 972.928 3809.37 972.928 M3800.02 968.946 Q3794 967.465 3790.62 963.344 Q3787.29 959.224 3787.29 953.298 Q3787.29 945.011 3793.17 940.196 Q3799.09 935.382 3809.37 935.382 Q3819.69 935.382 3825.57 940.196 Q3831.45 945.011 3831.45 953.298 Q3831.45 959.224 3828.07 963.344 Q3824.74 967.465 3818.77 968.946 Q3825.53 970.52 3829.28 975.104 Q3833.07 979.687 3833.07 986.307 Q3833.07 996.353 3826.92 1001.72 Q3820.81 1007.09 3809.37 1007.09 Q3797.93 1007.09 3791.78 1001.72 Q3785.67 996.353 3785.67 986.307 Q3785.67 979.687 3789.46 975.104 Q3793.26 970.52 3800.02 968.946 M3796.59 954.178 Q3796.59 959.548 3799.93 962.557 Q3803.31 965.567 3809.37 965.567 Q3815.39 965.567 3818.77 962.557 Q3822.19 959.548 3822.19 954.178 Q3822.19 948.807 3818.77 945.798 Q3815.39 942.789 3809.37 942.789 Q3803.31 942.789 3799.93 945.798 Q3796.59 948.807 3796.59 954.178 Z" fill="#000000" fill-rule="nonzero" fill-opacity="1" /><path clip-path="url(#clip200)" d="M4579.08 997.881 L4594.36 997.881 L4594.36 945.15 L4577.74 948.483 L4577.74 939.965 L4594.27 936.631 L4603.62 936.631 L4603.62 997.881 L4618.9 997.881 L4618.9 1005.75 L4579.08 1005.75 L4579.08 997.881 Z" fill="#000000" fill-rule="nonzero" fill-opacity="1" /><path clip-path="url(#clip200)" d="M4657.78 942.789 Q4650.56 942.789 4646.9 949.918 Q4643.29 957.002 4643.29 971.261 Q4643.29 985.474 4646.9 992.603 Q4650.56 999.687 4657.78 999.687 Q4665.05 999.687 4668.66 992.603 Q4672.32 985.474 4672.32 971.261 Q4672.32 957.002 4668.66 949.918 Q4665.05 942.789 4657.78 942.789 M4657.78 935.382 Q4669.4 935.382 4675.52 944.594 Q4681.67 953.761 4681.67 971.261 Q4681.67 988.715 4675.52 997.927 Q4669.4 1007.09 4657.78 1007.09 Q4646.16 1007.09 4640.01 997.927 Q4633.9 988.715 4633.9 971.261 Q4633.9 953.761 4640.01 944.594 Q4646.16 935.382 4657.78 935.382 Z" fill="#000000" fill-rule="nonzero" fill-opacity="1" /><path clip-path="url(#clip200)" d="M2296.11 1072.18 L2361.89 1072.18 L2361.89 1081.04 L2334.28 1081.04 L2334.28 1149.94 L2323.71 1149.94 L2323.71 1081.04 L2296.11 1081.04 L2296.11 1072.18 Z" fill="#000000" fill-rule="nonzero" fill-opacity="1" /><path clip-path="url(#clip200)" d="M2368.35 1091.61 L2377.93 1091.61 L2377.93 1149.94 L2368.35 1149.94 L2368.35 1091.61 M2368.35 1068.9 L2377.93 1068.9 L2377.93 1081.04 L2368.35 1081.04 L2368.35 1068.9 Z" fill="#000000" fill-rule="nonzero" fill-opacity="1" /><path clip-path="url(#clip200)" d="M2443.4 1102.81 Q2446.99 1096.35 2451.99 1093.28 Q2456.99 1090.2 2463.76 1090.2 Q2472.88 1090.2 2477.83 1096.61 Q2482.77 1102.96 2482.77 1114.74 L2482.77 1149.94 L2473.14 1149.94 L2473.14 1115.05 Q2473.14 1106.66 2470.17 1102.6 Q2467.2 1098.54 2461.11 1098.54 Q2453.66 1098.54 2449.34 1103.49 Q2445.01 1108.43 2445.01 1116.97 L2445.01 1149.94 L2435.38 1149.94 L2435.38 1115.05 Q2435.38 1106.61 2432.41 1102.6 Q2429.44 1098.54 2423.24 1098.54 Q2415.9 1098.54 2411.58 1103.54 Q2407.25 1108.49 2407.25 1116.97 L2407.25 1149.94 L2397.62 1149.94 L2397.62 1091.61 L2407.25 1091.61 L2407.25 1100.67 Q2410.53 1095.31 2415.12 1092.76 Q2419.7 1090.2 2426 1090.2 Q2432.36 1090.2 2436.78 1093.43 Q2441.26 1096.66 2443.4 1102.81 Z" fill="#000000" fill-rule="nonzero" fill-opacity="1" /><path clip-path="url(#clip200)" d="M2551.78 1118.38 L2551.78 1123.07 L2507.72 1123.07 Q2508.35 1132.96 2513.66 1138.17 Q2519.02 1143.33 2528.55 1143.33 Q2534.08 1143.33 2539.23 1141.97 Q2544.44 1140.62 2549.54 1137.91 L2549.54 1146.97 Q2544.39 1149.16 2538.97 1150.31 Q2533.55 1151.45 2527.98 1151.45 Q2514.02 1151.45 2505.85 1143.33 Q2497.72 1135.2 2497.72 1121.35 Q2497.72 1107.03 2505.43 1098.64 Q2513.19 1090.2 2526.31 1090.2 Q2538.09 1090.2 2544.91 1097.81 Q2551.78 1105.36 2551.78 1118.38 M2542.2 1115.57 Q2542.1 1107.7 2537.77 1103.02 Q2533.5 1098.33 2526.42 1098.33 Q2518.4 1098.33 2513.55 1102.86 Q2508.76 1107.39 2508.03 1115.62 L2542.2 1115.57 Z" fill="#000000" fill-rule="nonzero" fill-opacity="1" /><path clip-path="url(#clip200)" d="M2624.44 1069.01 Q2617.46 1080.99 2614.07 1092.7 Q2610.69 1104.42 2610.69 1116.45 Q2610.69 1128.49 2614.07 1140.31 Q2617.51 1152.08 2624.44 1164.01 L2616.11 1164.01 Q2608.29 1151.77 2604.39 1139.94 Q2600.53 1128.12 2600.53 1116.45 Q2600.53 1104.84 2604.39 1093.07 Q2608.24 1081.3 2616.11 1069.01 L2624.44 1069.01 Z" fill="#000000" fill-rule="nonzero" fill-opacity="1" /><path clip-path="url(#clip200)" d="M2681.42 1100.46 L2681.42 1068.9 L2691 1068.9 L2691 1149.94 L2681.42 1149.94 L2681.42 1141.19 Q2678.4 1146.4 2673.76 1148.95 Q2669.18 1151.45 2662.72 1151.45 Q2652.15 1151.45 2645.48 1143.02 Q2638.87 1134.58 2638.87 1120.83 Q2638.87 1107.08 2645.48 1098.64 Q2652.15 1090.2 2662.72 1090.2 Q2669.18 1090.2 2673.76 1092.76 Q2678.4 1095.26 2681.42 1100.46 M2648.76 1120.83 Q2648.76 1131.4 2653.08 1137.44 Q2657.46 1143.43 2665.06 1143.43 Q2672.67 1143.43 2677.04 1137.44 Q2681.42 1131.4 2681.42 1120.83 Q2681.42 1110.26 2677.04 1104.27 Q2672.67 1098.23 2665.06 1098.23 Q2657.46 1098.23 2653.08 1104.27 Q2648.76 1110.26 2648.76 1120.83 Z" fill="#000000" fill-rule="nonzero" fill-opacity="1" /><path clip-path="url(#clip200)" d="M2737.25 1120.62 Q2725.64 1120.62 2721.16 1123.28 Q2716.68 1125.93 2716.68 1132.34 Q2716.68 1137.44 2720.01 1140.46 Q2723.4 1143.43 2729.18 1143.43 Q2737.15 1143.43 2741.94 1137.81 Q2746.78 1132.13 2746.78 1122.76 L2746.78 1120.62 L2737.25 1120.62 M2756.37 1116.66 L2756.37 1149.94 L2746.78 1149.94 L2746.78 1141.09 Q2743.5 1146.4 2738.61 1148.95 Q2733.71 1151.45 2726.63 1151.45 Q2717.67 1151.45 2712.36 1146.45 Q2707.1 1141.4 2707.1 1132.96 Q2707.1 1123.12 2713.66 1118.12 Q2720.27 1113.12 2733.34 1113.12 L2746.78 1113.12 L2746.78 1112.18 Q2746.78 1105.57 2742.41 1101.98 Q2738.08 1098.33 2730.22 1098.33 Q2725.22 1098.33 2720.48 1099.53 Q2715.74 1100.73 2711.37 1103.12 L2711.37 1094.27 Q2716.63 1092.24 2721.57 1091.25 Q2726.52 1090.2 2731.21 1090.2 Q2743.87 1090.2 2750.12 1096.77 Q2756.37 1103.33 2756.37 1116.66 Z" fill="#000000" fill-rule="nonzero" fill-opacity="1" /><path clip-path="url(#clip200)" d="M2800.38 1155.36 Q2796.31 1165.78 2792.46 1168.95 Q2788.61 1172.13 2782.15 1172.13 L2774.49 1172.13 L2774.49 1164.11 L2780.12 1164.11 Q2784.07 1164.11 2786.26 1162.24 Q2788.45 1160.36 2791.11 1153.38 L2792.82 1149.01 L2769.23 1091.61 L2779.39 1091.61 L2797.62 1137.24 L2815.84 1091.61 L2826 1091.61 L2800.38 1155.36 Z" fill="#000000" fill-rule="nonzero" fill-opacity="1" /><path clip-path="url(#clip200)" d="M2837.72 1069.01 L2846.05 1069.01 Q2853.87 1081.3 2857.72 1093.07 Q2861.63 1104.84 2861.63 1116.45 Q2861.63 1128.12 2857.72 1139.94 Q2853.87 1151.77 2846.05 1164.01 L2837.72 1164.01 Q2844.65 1152.08 2848.03 1140.31 Q2851.47 1128.49 2851.47 1116.45 Q2851.47 1104.42 2848.03 1092.7 Q2844.65 1080.99 2837.72 1069.01 Z" fill="#000000" fill-rule="nonzero" fill-opacity="1" /><polyline clip-path="url(#clip200)" style="stroke:#000000; stroke-linecap:round; stroke-linejoin:round; stroke-width:4; stroke-opacity:1; fill:none" points="404.977,880.951 404.977,47.2441 "/>
<polyline clip-path="url(#clip200)" style="stroke:#000000; stroke-linecap:round; stroke-linejoin:round; stroke-width:4; stroke-opacity:1; fill:none" points="404.977,724.76 423.875,724.76 "/>
<polyline clip-path="url(#clip200)" style="stroke:#000000; stroke-linecap:round; stroke-linejoin:round; stroke-width:4; stroke-opacity:1; fill:none" points="404.977,546.796 423.875,546.796 "/>
<polyline clip-path="url(#clip200)" style="stroke:#000000; stroke-linecap:round; stroke-linejoin:round; stroke-width:4; stroke-opacity:1; fill:none" points="404.977,368.832 423.875,368.832 "/>
<polyline clip-path="url(#clip200)" style="stroke:#000000; stroke-linecap:round; stroke-linejoin:round; stroke-width:4; stroke-opacity:1; fill:none" points="404.977,190.868 423.875,190.868 "/>
<path clip-path="url(#clip200)" d="M151.219 725.663 L210.571 725.663 L210.571 733.533 L151.219 733.533 L151.219 725.663 Z" fill="#000000" fill-rule="nonzero" fill-opacity="1" /><path clip-path="url(#clip200)" d="M228.395 690.2 L272.839 690.2 L272.839 694.182 L247.746 759.32 L237.978 759.32 L261.589 698.07 L228.395 698.07 L228.395 690.2 Z" fill="#000000" fill-rule="nonzero" fill-opacity="1" /><path clip-path="url(#clip200)" d="M291.172 690.2 L327.885 690.2 L327.885 698.07 L299.737 698.07 L299.737 715.015 Q301.774 714.32 303.811 713.996 Q305.848 713.626 307.885 713.626 Q319.459 713.626 326.218 719.968 Q332.977 726.311 332.977 737.144 Q332.977 748.302 326.033 754.505 Q319.089 760.663 306.45 760.663 Q302.098 760.663 297.561 759.922 Q293.07 759.181 288.255 757.7 L288.255 748.302 Q292.422 750.57 296.866 751.681 Q301.311 752.792 306.265 752.792 Q314.274 752.792 318.95 748.579 Q323.626 744.366 323.626 737.144 Q323.626 729.922 318.95 725.709 Q314.274 721.496 306.265 721.496 Q302.515 721.496 298.765 722.33 Q295.061 723.163 291.172 724.922 L291.172 690.2 Z" fill="#000000" fill-rule="nonzero" fill-opacity="1" /><path clip-path="url(#clip200)" d="M149.228 547.699 L208.58 547.699 L208.58 555.569 L149.228 555.569 L149.228 547.699 Z" fill="#000000" fill-rule="nonzero" fill-opacity="1" /><path clip-path="url(#clip200)" d="M228.858 512.236 L265.57 512.236 L265.57 520.107 L237.422 520.107 L237.422 537.051 Q239.459 536.356 241.496 536.032 Q243.533 535.662 245.57 535.662 Q257.144 535.662 263.904 542.005 Q270.663 548.347 270.663 559.18 Q270.663 570.338 263.718 576.541 Q256.774 582.699 244.135 582.699 Q239.783 582.699 235.246 581.958 Q230.756 581.217 225.941 579.736 L225.941 570.338 Q230.108 572.606 234.552 573.717 Q238.996 574.828 243.95 574.828 Q251.959 574.828 256.635 570.616 Q261.311 566.403 261.311 559.18 Q261.311 551.958 256.635 547.745 Q251.959 543.532 243.95 543.532 Q240.2 543.532 236.45 544.366 Q232.746 545.199 228.858 546.958 L228.858 512.236 Z" fill="#000000" fill-rule="nonzero" fill-opacity="1" /><path clip-path="url(#clip200)" d="M309.089 518.394 Q301.866 518.394 298.209 525.523 Q294.598 532.606 294.598 546.866 Q294.598 561.079 298.209 568.208 Q301.866 575.291 309.089 575.291 Q316.357 575.291 319.968 568.208 Q323.626 561.079 323.626 546.866 Q323.626 532.606 319.968 525.523 Q316.357 518.394 309.089 518.394 M309.089 510.986 Q320.709 510.986 326.82 520.199 Q332.977 529.366 332.977 546.866 Q332.977 564.319 326.82 573.532 Q320.709 582.699 309.089 582.699 Q297.468 582.699 291.311 573.532 Q285.2 564.319 285.2 546.866 Q285.2 529.366 291.311 520.199 Q297.468 510.986 309.089 510.986 Z" fill="#000000" fill-rule="nonzero" fill-opacity="1" /><path clip-path="url(#clip200)" d="M151.219 369.735 L210.571 369.735 L210.571 377.605 L151.219 377.605 L151.219 369.735 Z" fill="#000000" fill-rule="nonzero" fill-opacity="1" /><path clip-path="url(#clip200)" d="M238.811 395.522 L271.45 395.522 L271.45 403.392 L227.561 403.392 L227.561 395.522 Q232.885 390.013 242.052 380.754 Q251.265 371.448 253.626 368.763 Q258.117 363.717 259.876 360.244 Q261.681 356.726 261.681 353.346 Q261.681 347.837 257.793 344.365 Q253.95 340.893 247.746 340.893 Q243.348 340.893 238.441 342.42 Q233.58 343.948 228.024 347.05 L228.024 337.606 Q233.672 335.337 238.58 334.18 Q243.487 333.022 247.561 333.022 Q258.302 333.022 264.691 338.393 Q271.08 343.763 271.08 352.744 Q271.08 357.004 269.459 360.846 Q267.885 364.643 263.672 369.828 Q262.515 371.17 256.311 377.605 Q250.107 383.994 238.811 395.522 Z" fill="#000000" fill-rule="nonzero" fill-opacity="1" /><path clip-path="url(#clip200)" d="M291.172 334.272 L327.885 334.272 L327.885 342.143 L299.737 342.143 L299.737 359.087 Q301.774 358.393 303.811 358.068 Q305.848 357.698 307.885 357.698 Q319.459 357.698 326.218 364.041 Q332.977 370.383 332.977 381.217 Q332.977 392.374 326.033 398.578 Q319.089 404.735 306.45 404.735 Q302.098 404.735 297.561 403.994 Q293.07 403.253 288.255 401.772 L288.255 392.374 Q292.422 394.642 296.866 395.753 Q301.311 396.865 306.265 396.865 Q314.274 396.865 318.95 392.652 Q323.626 388.439 323.626 381.217 Q323.626 373.994 318.95 369.781 Q314.274 365.568 306.265 365.568 Q302.515 365.568 298.765 366.402 Q295.061 367.235 291.172 368.994 L291.172 334.272 Z" fill="#000000" fill-rule="nonzero" fill-opacity="1" /><path clip-path="url(#clip200)" d="M309.089 162.466 Q301.866 162.466 298.209 169.595 Q294.598 176.679 294.598 190.938 Q294.598 205.151 298.209 212.28 Q301.866 219.364 309.089 219.364 Q316.357 219.364 319.968 212.28 Q323.626 205.151 323.626 190.938 Q323.626 176.679 319.968 169.595 Q316.357 162.466 309.089 162.466 M309.089 155.058 Q320.709 155.058 326.82 164.271 Q332.977 173.438 332.977 190.938 Q332.977 208.391 326.82 217.604 Q320.709 226.771 309.089 226.771 Q297.468 226.771 291.311 217.604 Q285.2 208.391 285.2 190.938 Q285.2 173.438 291.311 164.271 Q297.468 155.058 309.089 155.058 Z" fill="#000000" fill-rule="nonzero" fill-opacity="1" /><path clip-path="url(#clip202)" d="M528.028 210.936 L545.118 236.162 L562.208 264.082 L579.299 293.695 L596.389 321.831 L613.479 352.378 L630.57 368.994 L647.66 377.135 L664.75 363.943 L681.841 351.847 L698.931 342.206 L716.021 332.643 L733.112 329.561 L750.202 332.914 L767.292 342.123 L784.383 354.105 L801.473 365.076 L818.563 374.543 L835.654 384.922 L852.744 397.495 L869.834 409.718 L886.925 418.605 L904.015 416.363 L921.105 406.679 L938.195 408.196 L955.286 434.81 L972.376 463.978 L989.466 494.79 L1006.56 524.315 L1023.65 550.569 L1040.74 564.248 L1057.83 565.588 L1074.92 544.183 L1092.01 518.232 L1109.1 497.566 L1126.19 478.305 L1143.28 461.241 L1160.37 452.032 L1177.46 449.247 L1194.55 450.713 L1211.64 451.293 L1228.73 455.705 L1245.82 460.481 L1262.91 470.263 L1280 481.218 L1297.09 489.152 L1314.18 485.855 L1331.27 474.973 L1348.36 477.939 L1365.45 504.007 L1382.54 532.775 L1399.63 563.347 L1416.72 592.75 L1433.81 619.081 L1450.91 632.941 L1468 632.489 L1485.09 607.224 L1502.18 577.222 L1519.27 552.396 L1536.36 528.818 L1553.45 508.155 L1570.54 494.875 L1587.63 488.214 L1604.72 485.939 L1621.81 484.505 L1638.9 487.03 L1655.99 490.529 L1673.08 500.332 L1690.17 511.538 L1707.26 519.74 L1724.35 516.484 L1741.44 505.349 L1758.53 501.291 L1775.62 527.094 L1792.71 555.948 L1809.8 586.659 L1826.89 616.23 L1843.98 642.715 L1861.07 655.676 L1878.16 659.206 L1895.25 643.763 L1912.34 610.571 L1929.43 582.332 L1946.52 557.407 L1963.61 534.827 L1980.71 519.656 L1997.8 511.306 L2014.89 508.061 L2031.98 505.585 L2049.07 506.951 L2066.16 510.435 L2083.25 520.495 L2100.34 532.069 L2117.43 540.682 L2134.52 537.611 L2151.61 528.349 L2168.7 530.142 L2185.79 546.833 L2202.88 568.856 L2219.97 598.964 L2237.06 628.791 L2254.15 658.586 L2271.24 679.708 L2288.33 691.329 L2305.42 676.185 L2322.51 643.044 L2339.6 613.392 L2356.69 584.618 L2373.78 558.579 L2390.87 539.657 L2407.96 529.362 L2425.05 524.981 L2442.14 521.719 L2459.23 522.985 L2476.32 526.616 L2493.42 537.044 L2510.51 549.099 L2527.6 558.143 L2544.69 555.262 L2561.78 553.94 L2578.87 555.975 L2595.96 572.945 L2613.05 595.213 L2630.14 622.92 L2647.23 653.897 L2664.32 686.509 L2681.41 708.048 L2698.5 718.749 L2715.59 704.388 L2732.68 671.672 L2749.77 641.568 L2766.86 612.285 L2783.95 585.433 L2801.04 565.498 L2818.13 551.298 L2835.22 542.077 L2852.31 536.821 L2869.4 538.208 L2886.49 541.812 L2903.58 554.728 L2920.67 570.359 L2937.76 582.041 L2954.85 579.961 L2971.94 578.543 L2989.03 580.895 L3006.12 598.234 L3023.22 620.78 L3040.31 648.869 L3057.4 680.405 L3074.49 713.79 L3091.58 736.458 L3108.67 747.505 L3125.76 733.101 L3142.85 700.441 L3159.94 670.156 L3177.03 640.382 L3194.12 612.782 L3211.21 591.866 L3228.3 576.855 L3245.39 566.528 L3262.48 558.843 L3279.57 560.71 L3296.66 567.375 L3313.75 582.677 L3330.84 599.605 L3347.93 612.641 L3365.02 611.575 L3382.11 604.462 L3399.2 606.999 L3416.29 624.534 L3433.38 647.278 L3450.47 675.651 L3467.56 707.651 L3484.65 741.706 L3501.74 764.803 L3518.83 776.302 L3535.92 762.827 L3553.02 733.169 L3570.11 704.817 L3587.2 674.106 L3604.29 644.03 L3621.38 621.16 L3638.47 605.561 L3655.56 596.873 L3672.65 590.958 L3689.74 592.316 L3706.83 599.047 L3723.92 615.099 L3741.01 633.417 L3758.1 647.9 L3775.19 647.866 L3792.28 636.772 L3809.37 632.004 L3826.46 649.764 L3843.55 672.655 L3860.64 701.338 L3877.73 733.856 L3894.82 768.686 L3911.91 792.684 L3929 807.322 L3946.09 803.459 L3963.18 776.1 L3980.27 748.524 L3997.36 717.588 L4014.45 686.465 L4031.54 662.2 L4048.63 644.855 L4065.72 634.721 L4082.82 628.039 L4099.91 629.54 L4117 636.702 L4134.09 654.125 L4151.18 674.321 L4168.27 690.631 L4185.36 691.928 L4202.45 681.475 L4219.54 670.238 L4236.63 678.079 L4253.72 699.824 L4270.81 728.759 L4287.9 761.758 L4304.99 797.342 L4322.08 831.797 L4339.17 857.356 L4356.26 855.392 L4373.35 829.815 L4390.44 802.779 L4407.53 771.519 L4424.62 739.327 L4441.71 713.314 L4458.8 694.589 L4475.89 682.905 L4492.98 674.046 L4510.07 675.039 L4527.16 683.326 L4544.25 703.554 L4561.34 725.916 L4578.43 744.398 L4595.52 747.236 L4612.62 737.501 L4629.71 726.174 L4629.71 91.9032 L4612.62 92.7105 L4595.52 96.2778 L4578.43 99.2608 L4561.34 99.8899 L4544.25 100.561 L4527.16 101.768 L4510.07 104.411 L4492.98 106.925 L4475.89 108.972 L4458.8 107.401 L4441.71 102.932 L4424.62 99.4572 L4407.53 99.629 L4390.44 104.46 L4373.35 115.484 L4356.26 133.103 L4339.17 146.483 L4322.08 149.081 L4304.99 145.357 L4287.9 134.346 L4270.81 121.611 L4253.72 108.483 L4236.63 97.2844 L4219.54 89.3024 L4202.45 90.0282 L4185.36 93.5097 L4168.27 96.3769 L4151.18 96.9002 L4134.09 97.5452 L4117 98.1548 L4099.91 100.795 L4082.82 103.352 L4065.72 105.41 L4048.63 103.39 L4031.54 99.3982 L4014.45 95.846 L3997.36 95.9548 L3980.27 100.207 L3963.18 111.015 L3946.09 128.52 L3929 141.679 L3911.91 144.247 L3894.82 140.514 L3877.73 129.507 L3860.64 116.782 L3843.55 103.685 L3826.46 92.4674 L3809.37 84.5119 L3792.28 85.2381 L3775.19 88.735 L3758.1 91.6341 L3741.01 92.1303 L3723.92 92.8093 L3706.83 94.0514 L3689.74 96.7674 L3672.65 99.2243 L3655.56 101.081 L3638.47 98.5745 L3621.38 94.4051 L3604.29 90.7895 L3587.2 90.8674 L3570.11 95.0956 L3553.02 105.869 L3535.92 123.453 L3518.83 136.874 L3501.74 139.516 L3484.65 135.88 L3467.56 124.949 L3450.47 112.291 L3433.38 99.2205 L3416.29 88.0629 L3399.2 80.114 L3382.11 80.8717 L3365.02 84.3831 L3347.93 87.358 L3330.84 87.9004 L3313.75 88.6512 L3296.66 87.6921 L3279.57 90.0831 L3262.48 92.3554 L3245.39 94.1171 L3228.3 93.225 L3211.21 90.0439 L3194.12 86.8748 L3177.03 87.0857 L3159.94 91.5685 L3142.85 102.589 L3125.76 120.422 L3108.67 134.016 L3091.58 136.766 L3074.49 133.21 L3057.4 122.364 L3040.31 109.762 L3023.22 96.7711 L3006.12 85.6665 L2989.03 77.8191 L2971.94 78.5105 L2954.85 81.8593 L2937.76 84.4927 L2920.67 84.6634 L2903.58 82.3842 L2886.49 81.2386 L2869.4 83.662 L2852.31 85.9365 L2835.22 87.7711 L2818.13 86.8286 L2801.04 85.2178 L2783.95 82.1498 L2766.86 82.0839 L2749.77 86.4123 L2732.68 97.4537 L2715.59 115.281 L2698.5 128.893 L2681.41 131.738 L2664.32 128.258 L2647.23 117.461 L2630.14 104.899 L2613.05 91.9177 L2595.96 80.8008 L2578.87 72.8597 L2561.78 73.5759 L2544.69 77.0177 L2527.6 79.7619 L2510.51 80.0698 L2493.42 78.3178 L2476.32 77.2686 L2459.23 79.7876 L2442.14 82.199 L2425.05 84.1401 L2407.96 83.2593 L2390.87 81.2117 L2373.78 77.4718 L2356.69 77.4204 L2339.6 82.3567 L2322.51 93.5221 L2305.42 111.549 L2288.33 125.389 L2271.24 128.399 L2254.15 125.096 L2237.06 114.488 L2219.97 102.128 L2202.88 89.3674 L2185.79 78.4749 L2168.7 70.8396 L2151.61 71.7362 L2134.52 75.3366 L2117.43 78.275 L2100.34 78.7445 L2083.25 77.9529 L2066.16 76.9467 L2049.07 79.4738 L2031.98 81.8527 L2014.89 83.7524 L1997.8 83.0109 L1980.71 81.0333 L1963.61 77.3574 L1946.52 77.4737 L1929.43 82.4911 L1912.34 93.7101 L1895.25 111.911 L1878.16 125.845 L1861.07 128.955 L1843.98 125.754 L1826.89 115.318 L1809.8 103.145 L1792.71 90.5508 L1775.62 79.8356 L1758.53 72.3433 L1741.44 73.4732 L1724.35 77.3518 L1707.26 80.603 L1690.17 81.4402 L1673.08 82.3354 L1655.99 82.7509 L1638.9 85.7748 L1621.81 88.6683 L1604.72 91.0492 L1587.63 89.684 L1570.54 85.7821 L1553.45 82.6438 L1536.36 83.3132 L1519.27 88.7831 L1502.18 100.541 L1485.09 119.051 L1468 133.39 L1450.91 136.972 L1433.81 134.209 L1416.72 124.127 L1399.63 112.291 L1382.54 100.057 L1365.45 89.6833 L1348.36 82.6096 L1331.27 84.3143 L1314.18 88.8017 L1297.09 92.7215 L1280 94.288 L1262.91 96.1664 L1245.82 97.3959 L1228.73 101.13 L1211.64 104.047 L1194.55 106.438 L1177.46 106.487 L1160.37 104.309 L1143.28 102.046 L1126.19 103.415 L1109.1 109.125 L1092.01 121.416 L1074.92 140.417 L1057.83 155.215 L1040.74 159.363 L1023.65 157.261 L1006.56 147.886 L989.466 135.601 L972.376 120.968 L955.286 109.431 L938.195 103.843 L921.105 110.125 L904.015 118.363 L886.925 123.591 L869.834 126.13 L852.744 125.03 L835.654 125.701 L818.563 129.574 L801.473 133.391 L784.383 137.002 L767.292 137.941 L750.202 133.731 L733.112 130.652 L716.021 136.379 L698.931 149.117 L681.841 164.977 L664.75 187.26 L647.66 205.801 L630.57 213.792 L613.479 214.856 L596.389 208.966 L579.299 201.126 L562.208 188.67 L545.118 179.332 L528.028 175.791  Z" fill="#aeaeae" fill-rule="evenodd" fill-opacity="0.5"/>
<polyline clip-path="url(#clip202)" style="stroke:#aeaeae; stroke-linecap:round; stroke-linejoin:round; stroke-width:0; stroke-opacity:1; fill:none" points="528.028,188.411 545.118,192.496 562.208,198.628 579.299,205.865 596.389,212.818 613.479,218.696 630.57,220.115 647.66,217.658 664.75,208.89 681.841,197.675 698.931,190.43 716.021,186.135 733.112,184.505 750.202,185.743 767.292,188.453 784.383,191.354 801.473,192.712 818.563,193.203 835.654,192.528 852.744,192.515 869.834,192.481 886.925,192.219 904.015,190.118 921.105,187.319 938.195,186.134 955.286,190.375 972.376,196.734 989.466,204.233 1006.56,211.457 1023.65,217.613 1040.74,219.292 1057.83,217.027 1074.92,208.293 1092.01,197.002 1109.1,189.681 1126.19,185.392 1143.28,183.795 1160.37,185.051 1177.46,187.761 1194.55,190.579 1211.64,191.888 1228.73,192.364 1245.82,191.692 1262.91,191.797 1280,191.92 1297.09,191.811 1314.18,189.852 1331.27,187.186 1348.36,186.12 1365.45,190.481 1382.54,196.954 1399.63,204.563 1416.72,211.895 1433.81,218.161 1450.91,219.949 1468,217.748 1485.09,208.996 1502.18,197.686 1519.27,190.297 1536.36,185.936 1553.45,184.26 1570.54,185.464 1587.63,188.133 1604.72,190.93 1621.81,192.215 1638.9,192.661 1655.99,192.008 1673.08,192.163 1690.17,192.358 1707.26,192.326 1724.35,190.436 1741.44,187.833 1758.53,186.827 1775.62,191.249 1792.71,197.782 1809.8,205.459 1826.89,212.849 1843.98,219.181 1861.07,221.028 1878.16,218.906 1895.25,210.165 1912.34,198.791 1929.43,191.388 1946.52,186.992 1963.61,185.307 1980.71,186.491 1997.8,189.135 2014.89,191.905 2031.98,193.185 2049.07,193.634 2066.16,192.995 2083.25,193.181 2100.34,193.416 2117.43,193.42 2134.52,191.567 2151.61,188.994 2168.7,188.02 2185.79,192.474 2202.88,199.043 2219.97,206.756 2237.06,214.196 2254.15,220.575 2271.24,222.46 2288.33,220.372 2305.42,211.665 2322.51,200.308 2339.6,192.892 2356.69,188.479 2373.78,186.757 2390.87,187.909 2407.96,190.516 2425.05,193.272 2442.14,194.513 2459.23,194.945 2476.32,194.297 2493.42,194.485 2510.51,194.737 2527.6,194.761 2544.69,192.929 2561.78,190.379 2578.87,189.42 2595.96,193.896 2613.05,200.486 2630.14,208.222 2647.23,215.689 2664.32,222.099 2681.41,224.015 2698.5,221.958 2715.59,213.278 2732.68,201.955 2749.77,194.503 2766.86,190.069 2783.95,188.316 2801.04,189.433 2818.13,192.011 2835.22,194.72 2852.31,195.927 2869.4,196.334 2886.49,195.648 2903.58,195.813 2920.67,196.064 2937.76,196.095 2954.85,194.276 2971.94,191.736 2989.03,190.788 3006.12,195.275 3023.22,201.884 3040.31,209.632 3057.4,217.123 3074.49,223.556 3091.58,225.501 3108.67,223.486 3125.76,214.823 3142.85,203.509 3159.94,196.058 3177.03,191.584 3194.12,189.795 3211.21,190.875 3228.3,193.417 3245.39,196.09 3262.48,197.277 3279.57,197.666 3296.66,196.987 3313.75,197.153 3330.84,197.394 3347.93,197.424 3365.02,195.611 3382.11,193.075 3399.2,192.131 3416.29,196.628 3433.38,203.245 3450.47,211.01 3467.56,218.51 3484.65,224.965 3501.74,226.928 3518.83,224.926 3535.92,216.271 3553.02,204.927 3570.11,197.448 3587.2,192.97 3604.29,191.168 3621.38,192.221 3638.47,194.741 3655.56,197.385 3672.65,198.548 3689.74,198.918 3706.83,198.212 3723.92,198.369 3741.01,198.605 3758.1,198.639 3775.19,196.821 3792.28,194.287 3809.37,193.344 3826.46,197.848 3843.55,204.47 3860.64,212.245 3877.73,219.764 3894.82,226.239 3911.91,228.23 3929,226.235 3946.09,217.594 3963.18,206.224 3980.27,198.725 3997.36,194.22 4014.45,192.377 4031.54,193.4 4048.63,195.893 4065.72,198.533 4082.82,199.641 4099.91,199.956 4117,199.248 4134.09,199.393 4151.18,199.628 4168.27,199.667 4185.36,197.858 4202.45,195.326 4219.54,194.384 4236.63,198.89 4253.72,205.515 4270.81,213.295 4287.9,220.824 4304.99,227.309 4322.08,229.315 4339.17,227.328 4356.26,218.681 4373.35,207.337 4390.44,199.829 4407.53,195.311 4424.62,193.456 4441.71,194.459 4458.8,196.926 4475.89,199.544 4492.98,200.639 4510.07,200.955 4527.16,200.24 4544.25,200.382 4561.34,200.621 4578.43,200.662 4595.52,198.858 4612.62,196.327 4629.71,195.386 "/>
<path clip-path="url(#clip202)" d="M528.028 198.331 L545.118 210.12 L562.208 227.892 L579.299 249.69 L596.389 273.33 L613.479 296.263 L630.57 308.564 L647.66 311.954 L664.75 294.637 L681.841 270.641 L698.931 257.929 L716.021 244.49 L733.112 239.001 L750.202 243.445 L767.292 249.819 L784.383 258.39 L801.473 263.996 L818.563 269.092 L835.654 271.502 L852.744 275.959 L869.834 277.365 L886.925 280.376 L904.015 278.34 L921.105 274.146 L938.195 276.317 L955.286 288.675 L972.376 305.939 L989.466 328.748 L1006.56 350.698 L1023.65 371.807 L1040.74 382.519 L1057.83 382.549 L1074.92 363.989 L1092.01 334.613 L1109.1 316.024 L1126.19 300.898 L1143.28 290.012 L1160.37 290.451 L1177.46 291.222 L1194.55 293.45 L1211.64 292.186 L1228.73 293.006 L1245.82 293.609 L1262.91 295.444 L1280 301.451 L1297.09 304.03 L1314.18 303.22 L1331.27 302.264 L1348.36 299.85 L1365.45 311.306 L1382.54 331.028 L1399.63 353.231 L1416.72 375.616 L1433.81 396.512 L1450.91 406.709 L1468 408.586 L1485.09 387.761 L1502.18 361.393 L1519.27 336.911 L1536.36 315.829 L1553.45 308.384 L1570.54 304.28 L1587.63 304.19 L1604.72 303.533 L1621.81 302.597 L1638.9 302.326 L1655.99 298.897 L1673.08 302.877 L1690.17 308.842 L1707.26 313.461 L1724.35 313.141 L1741.44 311.009 L1758.53 307.604 L1775.62 318.918 L1792.71 337.163 L1809.8 360.102 L1826.89 384.359 L1843.98 404.358 L1861.07 414.184 L1878.16 416.428 L1895.25 398.599 L1912.34 370.754 L1929.43 345.119 L1946.52 322.051 L1963.61 312.832 L1980.71 308.804 L1997.8 308.775 L2014.89 307.934 L2031.98 306.937 L2049.07 307.06 L2066.16 305.249 L2083.25 308.679 L2100.34 313.133 L2117.43 318.123 L2134.52 317.823 L2151.61 315.804 L2168.7 315.104 L2185.79 324.252 L2202.88 342.485 L2219.97 365.455 L2237.06 390.26 L2254.15 409.543 L2271.24 419.856 L2288.33 421.234 L2305.42 402.744 L2322.51 376.481 L2339.6 349.168 L2356.69 326.765 L2373.78 314.547 L2390.87 310.02 L2407.96 310.038 L2425.05 310.787 L2442.14 310.963 L2459.23 310.077 L2476.32 307.881 L2493.42 311.557 L2510.51 315.853 L2527.6 321.248 L2544.69 320.584 L2561.78 319.169 L2578.87 322.618 L2595.96 333.557 L2613.05 346.543 L2630.14 370.184 L2647.23 393.833 L2664.32 412.971 L2681.41 421.351 L2698.5 423.837 L2715.59 408.262 L2732.68 381.319 L2749.77 351.924 L2766.86 331.581 L2783.95 317.007 L2801.04 312.654 L2818.13 311.694 L2835.22 313.898 L2852.31 315.253 L2869.4 313.466 L2886.49 312.173 L2903.58 314.853 L2920.67 319.933 L2937.76 325.111 L2954.85 322.414 L2971.94 320.789 L2989.03 323.873 L3006.12 337.622 L3023.22 354.342 L3040.31 373.494 L3057.4 395.098 L3074.49 414.753 L3091.58 423.771 L3108.67 426.793 L3125.76 412.313 L3142.85 384.286 L3159.94 356.1 L3177.03 334.135 L3194.12 318.773 L3211.21 315.541 L3228.3 316.167 L3245.39 317.021 L3262.48 317.101 L3279.57 315.465 L3296.66 313.372 L3313.75 317.233 L3330.84 321.85 L3347.93 326.679 L3365.02 324.41 L3382.11 323.444 L3399.2 325.62 L3416.29 341.051 L3433.38 358.567 L3450.47 375.929 L3467.56 397.322 L3484.65 417.877 L3501.74 424.966 L3518.83 431.519 L3535.92 415.171 L3553.02 384.289 L3570.11 357.128 L3587.2 336.464 L3604.29 322.852 L3621.38 316.092 L3638.47 318.088 L3655.56 318.869 L3672.65 318.523 L3689.74 317.075 L3706.83 314.921 L3723.92 319.291 L3741.01 323.816 L3758.1 328.336 L3775.19 326.349 L3792.28 325.962 L3809.37 329.036 L3826.46 342.571 L3843.55 360.055 L3860.64 379.774 L3877.73 399.289 L3894.82 420.569 L3911.91 429.143 L3929 431.844 L3946.09 416.41 L3963.18 387.032 L3980.27 360.31 L3997.36 339.743 L4014.45 324.972 L4031.54 318.004 L4048.63 318.92 L4065.72 320.406 L4082.82 320.274 L4099.91 320.085 L4117 317.017 L4134.09 322.104 L4151.18 326.376 L4168.27 329.732 L4185.36 327.442 L4202.45 326.113 L4219.54 329.323 L4236.63 342.813 L4253.72 360.512 L4270.81 380.622 L4287.9 398.993 L4304.99 422.676 L4322.08 432.472 L4339.17 432.994 L4356.26 416.158 L4373.35 387.424 L4390.44 361.894 L4407.53 342.547 L4424.62 324.45 L4441.71 319.584 L4458.8 320.691 L4475.89 322.605 L4492.98 322.337 L4510.07 320.88 L4527.16 318.939 L4544.25 322.473 L4561.34 326.916 L4578.43 331.478 L4595.52 330.778 L4612.62 329.271 L4629.71 332.904 L4629.71 122.462 L4612.62 125.927 L4595.52 132.381 L4578.43 135.989 L4561.34 135.743 L4544.25 134.413 L4527.16 135.312 L4510.07 139.273 L4492.98 141.712 L4475.89 142.055 L4458.8 138.075 L4441.71 131.549 L4424.62 128.806 L4407.53 129.57 L4390.44 135.147 L4373.35 147.327 L4356.26 166.763 L4339.17 181.152 L4322.08 185.284 L4304.99 181.53 L4287.9 169.901 L4270.81 155.795 L4253.72 140.609 L4236.63 128.265 L4219.54 120.249 L4202.45 123.58 L4185.36 130.08 L4168.27 133.166 L4151.18 132.073 L4134.09 131.023 L4117 131.614 L4099.91 135.863 L4082.82 138.409 L4065.72 138.133 L4048.63 135.076 L4031.54 128.809 L4014.45 125.849 L3997.36 127.279 L3980.27 131.992 L3963.18 143.312 L3946.09 162.713 L3929 177.243 L3911.91 181.629 L3894.82 178.579 L3877.73 166.987 L3860.64 153.411 L3843.55 138.284 L3826.46 125.931 L3809.37 118.198 L3792.28 121.412 L3775.19 126.665 L3758.1 129.455 L3741.01 128.939 L3723.92 128.178 L3706.83 130.114 L3689.74 133.988 L3672.65 135.595 L3655.56 135.933 L3638.47 131.822 L3621.38 125.978 L3604.29 122.04 L3587.2 122.668 L3570.11 128.522 L3553.02 139.939 L3535.92 158.707 L3518.83 173.996 L3501.74 177.628 L3484.65 174.534 L3467.56 163.322 L3450.47 149.892 L3433.38 135.41 L3416.29 123.469 L3399.2 115.549 L3382.11 117.626 L3365.02 122.997 L3347.93 126.801 L3330.84 124.353 L3313.75 124.685 L3296.66 125.36 L3279.57 127.745 L3262.48 130.326 L3245.39 131.412 L3228.3 128.771 L3211.21 122.007 L3194.12 118.928 L3177.03 119.304 L3159.94 125.43 L3142.85 136.044 L3125.76 154.624 L3108.67 169.372 L3091.58 173.202 L3074.49 169.574 L3057.4 159.622 L3040.31 146.345 L3023.22 132.423 L3006.12 120.092 L2989.03 112.629 L2971.94 114.213 L2954.85 118.876 L2937.76 123.098 L2920.67 120.599 L2903.58 120.434 L2886.49 120.688 L2869.4 122.893 L2852.31 124.39 L2835.22 125.698 L2818.13 124.085 L2801.04 118.938 L2783.95 115.52 L2766.86 116.405 L2749.77 121.675 L2732.68 132.147 L2715.59 150.623 L2698.5 165.926 L2681.41 169.356 L2664.32 166.204 L2647.23 155.593 L2630.14 142.448 L2613.05 129.198 L2595.96 117.069 L2578.87 109.113 L2561.78 110.471 L2544.69 115.419 L2527.6 118.796 L2510.51 117.134 L2493.42 116.867 L2476.32 115.975 L2459.23 118.271 L2442.14 120.707 L2425.05 121.133 L2407.96 119.279 L2390.87 115.196 L2373.78 112.052 L2356.69 113.149 L2339.6 117.875 L2322.51 128.335 L2305.42 147.395 L2288.33 162.796 L2271.24 166.373 L2254.15 163.249 L2237.06 152.922 L2219.97 139.444 L2202.88 125.937 L2185.79 114.363 L2168.7 106.329 L2151.61 107.996 L2134.52 113.09 L2117.43 116.057 L2100.34 114.424 L2083.25 113.762 L2066.16 113.135 L2049.07 116.139 L2031.98 118.534 L2014.89 119.146 L1997.8 116.176 L1980.71 112.679 L1963.61 110.075 L1946.52 111.002 L1929.43 115.708 L1912.34 126.083 L1895.25 145.487 L1878.16 161.032 L1861.07 164.535 L1843.98 161.968 L1826.89 151.9 L1809.8 139.041 L1792.71 125.873 L1775.62 113.873 L1758.53 106.275 L1741.44 107.668 L1724.35 112.596 L1707.26 116.06 L1690.17 114.294 L1673.08 113.702 L1655.99 113.272 L1638.9 115.368 L1621.81 117.84 L1604.72 118.827 L1587.63 117.431 L1570.54 113.954 L1553.45 111.23 L1536.36 112.393 L1519.27 117.997 L1502.18 129.526 L1485.09 148.799 L1468 163.978 L1450.91 168.082 L1433.81 165.82 L1416.72 155.96 L1399.63 142.889 L1382.54 129.172 L1365.45 116.644 L1348.36 109.355 L1331.27 113.232 L1314.18 118.417 L1297.09 122.407 L1280 121.336 L1262.91 121.649 L1245.82 122.174 L1228.73 125.686 L1211.64 128.259 L1194.55 129.847 L1177.46 127.748 L1160.37 122.865 L1143.28 120.434 L1126.19 122.467 L1109.1 129.378 L1092.01 141.926 L1074.92 161.601 L1057.83 177.717 L1040.74 182.579 L1023.65 180.013 L1006.56 170.108 L989.466 156.916 L972.376 143.107 L955.286 131.489 L938.195 125.151 L921.105 129.629 L904.015 137.236 L886.925 142.034 L869.834 143.302 L852.744 142.65 L835.654 143.785 L818.563 148.108 L801.473 152.101 L784.383 154.566 L767.292 151.5 L750.202 148.74 L733.112 147.375 L716.021 152.02 L698.931 161.432 L681.841 175.849 L664.75 197.574 L647.66 215.128 L630.57 222.298 L613.479 222.999 L596.389 215.906 L579.299 205.967 L562.208 193.677 L545.118 183.601 L528.028 178.713  Z" fill="#757575" fill-rule="evenodd" fill-opacity="0.5"/>
<polyline clip-path="url(#clip202)" style="stroke:#757575; stroke-linecap:round; stroke-linejoin:round; stroke-width:0; stroke-opacity:1; fill:none" points="528.028,188.411 545.118,192.496 562.208,198.628 579.299,205.865 596.389,212.818 613.479,218.696 630.57,220.115 647.66,217.658 664.75,208.89 681.841,197.675 698.931,190.43 716.021,186.135 733.112,184.505 750.202,185.743 767.292,188.453 784.383,191.354 801.473,192.712 818.563,193.203 835.654,192.528 852.744,192.515 869.834,192.481 886.925,192.219 904.015,190.118 921.105,187.319 938.195,186.134 955.286,190.375 972.376,196.734 989.466,204.233 1006.56,211.457 1023.65,217.613 1040.74,219.292 1057.83,217.027 1074.92,208.293 1092.01,197.002 1109.1,189.681 1126.19,185.392 1143.28,183.795 1160.37,185.051 1177.46,187.761 1194.55,190.579 1211.64,191.888 1228.73,192.364 1245.82,191.692 1262.91,191.797 1280,191.92 1297.09,191.811 1314.18,189.852 1331.27,187.186 1348.36,186.12 1365.45,190.481 1382.54,196.954 1399.63,204.563 1416.72,211.895 1433.81,218.161 1450.91,219.949 1468,217.748 1485.09,208.996 1502.18,197.686 1519.27,190.297 1536.36,185.936 1553.45,184.26 1570.54,185.464 1587.63,188.133 1604.72,190.93 1621.81,192.215 1638.9,192.661 1655.99,192.008 1673.08,192.163 1690.17,192.358 1707.26,192.326 1724.35,190.436 1741.44,187.833 1758.53,186.827 1775.62,191.249 1792.71,197.782 1809.8,205.459 1826.89,212.849 1843.98,219.181 1861.07,221.028 1878.16,218.906 1895.25,210.165 1912.34,198.791 1929.43,191.388 1946.52,186.992 1963.61,185.307 1980.71,186.491 1997.8,189.135 2014.89,191.905 2031.98,193.185 2049.07,193.634 2066.16,192.995 2083.25,193.181 2100.34,193.416 2117.43,193.42 2134.52,191.567 2151.61,188.994 2168.7,188.02 2185.79,192.474 2202.88,199.043 2219.97,206.756 2237.06,214.196 2254.15,220.575 2271.24,222.46 2288.33,220.372 2305.42,211.665 2322.51,200.308 2339.6,192.892 2356.69,188.479 2373.78,186.757 2390.87,187.909 2407.96,190.516 2425.05,193.272 2442.14,194.513 2459.23,194.945 2476.32,194.297 2493.42,194.485 2510.51,194.737 2527.6,194.761 2544.69,192.929 2561.78,190.379 2578.87,189.42 2595.96,193.896 2613.05,200.486 2630.14,208.222 2647.23,215.689 2664.32,222.099 2681.41,224.015 2698.5,221.958 2715.59,213.278 2732.68,201.955 2749.77,194.503 2766.86,190.069 2783.95,188.316 2801.04,189.433 2818.13,192.011 2835.22,194.72 2852.31,195.927 2869.4,196.334 2886.49,195.648 2903.58,195.813 2920.67,196.064 2937.76,196.095 2954.85,194.276 2971.94,191.736 2989.03,190.788 3006.12,195.275 3023.22,201.884 3040.31,209.632 3057.4,217.123 3074.49,223.556 3091.58,225.501 3108.67,223.486 3125.76,214.823 3142.85,203.509 3159.94,196.058 3177.03,191.584 3194.12,189.795 3211.21,190.875 3228.3,193.417 3245.39,196.09 3262.48,197.277 3279.57,197.666 3296.66,196.987 3313.75,197.153 3330.84,197.394 3347.93,197.424 3365.02,195.611 3382.11,193.075 3399.2,192.131 3416.29,196.628 3433.38,203.245 3450.47,211.01 3467.56,218.51 3484.65,224.965 3501.74,226.928 3518.83,224.926 3535.92,216.271 3553.02,204.927 3570.11,197.448 3587.2,192.97 3604.29,191.168 3621.38,192.221 3638.47,194.741 3655.56,197.385 3672.65,198.548 3689.74,198.918 3706.83,198.212 3723.92,198.369 3741.01,198.605 3758.1,198.639 3775.19,196.821 3792.28,194.287 3809.37,193.344 3826.46,197.848 3843.55,204.47 3860.64,212.245 3877.73,219.764 3894.82,226.239 3911.91,228.23 3929,226.235 3946.09,217.594 3963.18,206.224 3980.27,198.725 3997.36,194.22 4014.45,192.377 4031.54,193.4 4048.63,195.893 4065.72,198.533 4082.82,199.641 4099.91,199.956 4117,199.248 4134.09,199.393 4151.18,199.628 4168.27,199.667 4185.36,197.858 4202.45,195.326 4219.54,194.384 4236.63,198.89 4253.72,205.515 4270.81,213.295 4287.9,220.824 4304.99,227.309 4322.08,229.315 4339.17,227.328 4356.26,218.681 4373.35,207.337 4390.44,199.829 4407.53,195.311 4424.62,193.456 4441.71,194.459 4458.8,196.926 4475.89,199.544 4492.98,200.639 4510.07,200.955 4527.16,200.24 4544.25,200.382 4561.34,200.621 4578.43,200.662 4595.52,198.858 4612.62,196.327 4629.71,195.386 "/>
<path clip-path="url(#clip202)" d="M528.028 193.579 L545.118 203.68 L562.208 218.385 L579.299 239.267 L596.389 259.933 L613.479 279.65 L630.57 287.347 L647.66 287.265 L664.75 268.394 L681.841 242.72 L698.931 227.461 L716.021 216.526 L733.112 213.003 L750.202 218.056 L767.292 224.65 L784.383 232.618 L801.473 238.068 L818.563 241.943 L835.654 241.944 L852.744 244.131 L869.834 246.439 L886.925 248.909 L904.015 239.172 L921.105 234.485 L938.195 233.969 L955.286 244.357 L972.376 258.739 L989.466 275.407 L1006.56 294.175 L1023.65 314.3 L1040.74 322.549 L1057.83 325.126 L1074.92 303.33 L1092.01 273.498 L1109.1 253.681 L1126.19 242.661 L1143.28 237.54 L1160.37 239.023 L1177.46 243.587 L1194.55 248.615 L1211.64 252.929 L1228.73 254.785 L1245.82 254.195 L1262.91 256.772 L1280 260.595 L1297.09 259.166 L1314.18 249.517 L1331.27 245.439 L1348.36 244.233 L1365.45 254.49 L1382.54 269.217 L1399.63 285.57 L1416.72 305.642 L1433.81 323.088 L1450.91 331.369 L1468 333.92 L1485.09 313.386 L1502.18 282.039 L1519.27 263.6 L1536.36 252.123 L1553.45 245.475 L1570.54 246.077 L1587.63 250.443 L1604.72 256.203 L1621.81 258.285 L1638.9 260.187 L1655.99 260.348 L1673.08 260.247 L1690.17 264.773 L1707.26 263.248 L1724.35 254.788 L1741.44 249.758 L1758.53 249.978 L1775.62 258.907 L1792.71 272.74 L1809.8 289.479 L1826.89 309.272 L1843.98 327.741 L1861.07 335.101 L1878.16 335.002 L1895.25 316.893 L1912.34 287.15 L1929.43 267.936 L1946.52 256.291 L1963.61 249.667 L1980.71 249.862 L1997.8 252.989 L2014.89 258.871 L2031.98 259.904 L2049.07 263.035 L2066.16 262.878 L2083.25 263.183 L2100.34 266.221 L2117.43 266.087 L2134.52 256.623 L2151.61 253.425 L2168.7 254.143 L2185.79 264.156 L2202.88 276.19 L2219.97 291.732 L2237.06 311.358 L2254.15 330.157 L2271.24 338.148 L2288.33 337.807 L2305.42 318.965 L2322.51 289.181 L2339.6 269.164 L2356.69 257.934 L2373.78 252.699 L2390.87 251.412 L2407.96 255.619 L2425.05 261.556 L2442.14 262.499 L2459.23 265.118 L2476.32 265.068 L2493.42 264.649 L2510.51 267.356 L2527.6 266.442 L2544.69 261.188 L2561.78 257.541 L2578.87 257.032 L2595.96 266.866 L2613.05 279.1 L2630.14 295.112 L2647.23 312.764 L2664.32 331.516 L2681.41 340.919 L2698.5 339.747 L2715.59 320.413 L2732.68 292.651 L2749.77 272.186 L2766.86 260.678 L2783.95 255.244 L2801.04 254.58 L2818.13 259.005 L2835.22 263.492 L2852.31 265.746 L2869.4 266.872 L2886.49 266.763 L2903.58 266.721 L2920.67 269.148 L2937.76 269.293 L2954.85 263.654 L2971.94 259.26 L2989.03 259.186 L3006.12 269.29 L3023.22 283.279 L3040.31 296.973 L3057.4 315.334 L3074.49 332.859 L3091.58 342.488 L3108.67 340.992 L3125.76 322.099 L3142.85 293.157 L3159.94 274.015 L3177.03 262.518 L3194.12 256.78 L3211.21 258.216 L3228.3 261.636 L3245.39 266.445 L3262.48 268.524 L3279.57 269.967 L3296.66 269.134 L3313.75 268.932 L3330.84 272.327 L3347.93 272.773 L3365.02 266.266 L3382.11 261.237 L3399.2 261.331 L3416.29 271.658 L3433.38 284.193 L3450.47 298.8 L3467.56 318.8 L3484.65 335.81 L3501.74 344.175 L3518.83 342.781 L3535.92 324.838 L3553.02 296.844 L3570.11 277.267 L3587.2 266.927 L3604.29 259.903 L3621.38 260.348 L3638.47 263.922 L3655.56 268.818 L3672.65 270.823 L3689.74 272.575 L3706.83 271.848 L3723.92 272.747 L3741.01 274.275 L3758.1 274.158 L3775.19 268.942 L3792.28 263.366 L3809.37 263.476 L3826.46 273.126 L3843.55 287.845 L3860.64 300.629 L3877.73 320.848 L3894.82 339.072 L3911.91 346.493 L3929 343.942 L3946.09 326.344 L3963.18 299.589 L3980.27 278.942 L3997.36 267.752 L4014.45 263.447 L4031.54 262.375 L4048.63 266.672 L4065.72 270.368 L4082.82 272.336 L4099.91 273.7 L4117 272.792 L4134.09 274.03 L4151.18 275.963 L4168.27 276.506 L4185.36 270.582 L4202.45 267.135 L4219.54 265.078 L4236.63 274.598 L4253.72 289.681 L4270.81 303.186 L4287.9 321.729 L4304.99 340.623 L4322.08 347.93 L4339.17 344.576 L4356.26 327.678 L4373.35 300.746 L4390.44 280.89 L4407.53 270.582 L4424.62 264.814 L4441.71 264.181 L4458.8 268.307 L4475.89 272.228 L4492.98 273.992 L4510.07 275.18 L4527.16 273.946 L4544.25 275.143 L4561.34 277.351 L4578.43 277.534 L4595.52 272.557 L4612.62 268.415 L4629.71 266.628 L4629.71 134.074 L4612.62 137.356 L4595.52 141.307 L4578.43 147.918 L4561.34 150.622 L4544.25 151.132 L4527.16 152.295 L4510.07 156.253 L4492.98 157.244 L4475.89 155.436 L4458.8 150.66 L4441.71 143.078 L4424.62 138.238 L4407.53 138.402 L4390.44 144.206 L4373.35 156.023 L4356.26 175.617 L4339.17 191.13 L4322.08 195.332 L4304.99 192.32 L4287.9 181.767 L4270.81 167.925 L4253.72 152.92 L4236.63 139.754 L4219.54 131.942 L4202.45 134.188 L4185.36 139.265 L4168.27 145.567 L4151.18 147.206 L4134.09 148.151 L4117 150.064 L4099.91 154.278 L4082.82 155.37 L4065.72 152.917 L4048.63 147.886 L4031.54 140.545 L4014.45 136.06 L3997.36 135.824 L3980.27 141.653 L3963.18 153.588 L3946.09 173.213 L3929 188.718 L3911.91 193.233 L3894.82 189.535 L3877.73 178.597 L3860.64 165.255 L3843.55 150.4 L3826.46 137.833 L3809.37 129.911 L3792.28 131.615 L3775.19 137.274 L3758.1 143.066 L3741.01 145.222 L3723.92 145.895 L3706.83 146.896 L3689.74 150.749 L3672.65 153.172 L3655.56 150.823 L3638.47 144.26 L3621.38 138.505 L3604.29 133.695 L3587.2 134.044 L3570.11 138.759 L3553.02 150.358 L3535.92 169.579 L3518.83 185.522 L3501.74 189.857 L3484.65 186.949 L3467.56 175.604 L3450.47 162.456 L3433.38 147.221 L3416.29 134.21 L3399.2 126.501 L3382.11 129.029 L3365.02 133.938 L3347.93 140.337 L3330.84 142.645 L3313.75 142.158 L3296.66 143.398 L3279.57 147.698 L3262.48 149.508 L3245.39 147.816 L3228.3 140.582 L3211.21 135.286 L3194.12 129.876 L3177.03 130.994 L3159.94 136.153 L3142.85 147.262 L3125.76 166.356 L3108.67 182.073 L3091.58 186.647 L3074.49 183.84 L3057.4 172.213 L3040.31 157.888 L3023.22 143.023 L3006.12 130.776 L2989.03 122.868 L2971.94 125.427 L2954.85 132.065 L2937.76 137.119 L2920.67 138.313 L2903.58 138.566 L2886.49 139.82 L2869.4 143.155 L2852.31 145.596 L2835.22 144.424 L2818.13 137.942 L2801.04 131.238 L2783.95 126.469 L2766.86 126.661 L2749.77 132.753 L2732.68 143.66 L2715.59 163.209 L2698.5 178.599 L2681.41 182.708 L2664.32 180.106 L2647.23 168.061 L2630.14 154.17 L2613.05 140.321 L2595.96 127.657 L2578.87 119.733 L2561.78 121.505 L2544.69 128.65 L2527.6 133.966 L2510.51 134.515 L2493.42 134.628 L2476.32 135.361 L2459.23 139.284 L2442.14 141.335 L2425.05 140.813 L2407.96 134.115 L2390.87 127.94 L2373.78 122.78 L2356.69 124.361 L2339.6 129.403 L2322.51 140.484 L2305.42 159.935 L2288.33 175.664 L2271.24 179.589 L2254.15 176.628 L2237.06 165.716 L2219.97 150.901 L2202.88 137.485 L2185.79 124.878 L2168.7 117.206 L2151.61 119.337 L2134.52 126.22 L2117.43 131.396 L2100.34 131.359 L2083.25 131.545 L2066.16 131.851 L2049.07 135.765 L2031.98 138.217 L2014.89 136.991 L1997.8 131.952 L1980.71 125.584 L1963.61 120.668 L1946.52 121.646 L1929.43 126.792 L1912.34 138.624 L1895.25 157.976 L1878.16 173.636 L1861.07 177.396 L1843.98 174.765 L1826.89 163.641 L1809.8 149.669 L1792.71 135.618 L1775.62 123.141 L1758.53 115.713 L1741.44 117.638 L1724.35 124.189 L1707.26 130.012 L1690.17 130.154 L1673.08 130.009 L1655.99 130.99 L1638.9 134.931 L1621.81 137.038 L1604.72 137.838 L1587.63 131.946 L1570.54 125.53 L1553.45 121.061 L1536.36 121.726 L1519.27 127.938 L1502.18 139.136 L1485.09 158.444 L1468 174.18 L1450.91 178.962 L1433.81 176.102 L1416.72 165.169 L1399.63 152.319 L1382.54 138.684 L1365.45 126.098 L1348.36 118.934 L1331.27 121.781 L1314.18 127.898 L1297.09 133.746 L1280 134.724 L1262.91 134.58 L1245.82 137.457 L1228.73 141.182 L1211.64 143.605 L1194.55 142.178 L1177.46 138.186 L1160.37 132.882 L1143.28 129.132 L1126.19 129.926 L1109.1 136.579 L1092.01 148.88 L1074.92 169.569 L1057.83 185.263 L1040.74 189.978 L1023.65 188.283 L1006.56 178.502 L989.466 164.945 L972.376 150.951 L955.286 139.486 L938.195 132.532 L921.105 136.698 L904.015 143.881 L886.925 149.35 L869.834 151.305 L852.744 153.35 L835.654 155.177 L818.563 159.58 L801.473 161.292 L784.383 160.476 L767.292 157.088 L750.202 153.108 L733.112 152.163 L716.021 156.097 L698.931 165.208 L681.841 178.721 L664.75 200.484 L647.66 217.972 L630.57 225.104 L613.479 225.362 L596.389 217.802 L579.299 207.803 L562.208 195.724 L545.118 185.208 L528.028 179.822  Z" fill="#414141" fill-rule="evenodd" fill-opacity="0.5"/>
<polyline clip-path="url(#clip202)" style="stroke:#414141; stroke-linecap:round; stroke-linejoin:round; stroke-width:0; stroke-opacity:1; fill:none" points="528.028,188.411 545.118,192.496 562.208,198.628 579.299,205.865 596.389,212.818 613.479,218.696 630.57,220.115 647.66,217.658 664.75,208.89 681.841,197.675 698.931,190.43 716.021,186.135 733.112,184.505 750.202,185.743 767.292,188.453 784.383,191.354 801.473,192.712 818.563,193.203 835.654,192.528 852.744,192.515 869.834,192.481 886.925,192.219 904.015,190.118 921.105,187.319 938.195,186.134 955.286,190.375 972.376,196.734 989.466,204.233 1006.56,211.457 1023.65,217.613 1040.74,219.292 1057.83,217.027 1074.92,208.293 1092.01,197.002 1109.1,189.681 1126.19,185.392 1143.28,183.795 1160.37,185.051 1177.46,187.761 1194.55,190.579 1211.64,191.888 1228.73,192.364 1245.82,191.692 1262.91,191.797 1280,191.92 1297.09,191.811 1314.18,189.852 1331.27,187.186 1348.36,186.12 1365.45,190.481 1382.54,196.954 1399.63,204.563 1416.72,211.895 1433.81,218.161 1450.91,219.949 1468,217.748 1485.09,208.996 1502.18,197.686 1519.27,190.297 1536.36,185.936 1553.45,184.26 1570.54,185.464 1587.63,188.133 1604.72,190.93 1621.81,192.215 1638.9,192.661 1655.99,192.008 1673.08,192.163 1690.17,192.358 1707.26,192.326 1724.35,190.436 1741.44,187.833 1758.53,186.827 1775.62,191.249 1792.71,197.782 1809.8,205.459 1826.89,212.849 1843.98,219.181 1861.07,221.028 1878.16,218.906 1895.25,210.165 1912.34,198.791 1929.43,191.388 1946.52,186.992 1963.61,185.307 1980.71,186.491 1997.8,189.135 2014.89,191.905 2031.98,193.185 2049.07,193.634 2066.16,192.995 2083.25,193.181 2100.34,193.416 2117.43,193.42 2134.52,191.567 2151.61,188.994 2168.7,188.02 2185.79,192.474 2202.88,199.043 2219.97,206.756 2237.06,214.196 2254.15,220.575 2271.24,222.46 2288.33,220.372 2305.42,211.665 2322.51,200.308 2339.6,192.892 2356.69,188.479 2373.78,186.757 2390.87,187.909 2407.96,190.516 2425.05,193.272 2442.14,194.513 2459.23,194.945 2476.32,194.297 2493.42,194.485 2510.51,194.737 2527.6,194.761 2544.69,192.929 2561.78,190.379 2578.87,189.42 2595.96,193.896 2613.05,200.486 2630.14,208.222 2647.23,215.689 2664.32,222.099 2681.41,224.015 2698.5,221.958 2715.59,213.278 2732.68,201.955 2749.77,194.503 2766.86,190.069 2783.95,188.316 2801.04,189.433 2818.13,192.011 2835.22,194.72 2852.31,195.927 2869.4,196.334 2886.49,195.648 2903.58,195.813 2920.67,196.064 2937.76,196.095 2954.85,194.276 2971.94,191.736 2989.03,190.788 3006.12,195.275 3023.22,201.884 3040.31,209.632 3057.4,217.123 3074.49,223.556 3091.58,225.501 3108.67,223.486 3125.76,214.823 3142.85,203.509 3159.94,196.058 3177.03,191.584 3194.12,189.795 3211.21,190.875 3228.3,193.417 3245.39,196.09 3262.48,197.277 3279.57,197.666 3296.66,196.987 3313.75,197.153 3330.84,197.394 3347.93,197.424 3365.02,195.611 3382.11,193.075 3399.2,192.131 3416.29,196.628 3433.38,203.245 3450.47,211.01 3467.56,218.51 3484.65,224.965 3501.74,226.928 3518.83,224.926 3535.92,216.271 3553.02,204.927 3570.11,197.448 3587.2,192.97 3604.29,191.168 3621.38,192.221 3638.47,194.741 3655.56,197.385 3672.65,198.548 3689.74,198.918 3706.83,198.212 3723.92,198.369 3741.01,198.605 3758.1,198.639 3775.19,196.821 3792.28,194.287 3809.37,193.344 3826.46,197.848 3843.55,204.47 3860.64,212.245 3877.73,219.764 3894.82,226.239 3911.91,228.23 3929,226.235 3946.09,217.594 3963.18,206.224 3980.27,198.725 3997.36,194.22 4014.45,192.377 4031.54,193.4 4048.63,195.893 4065.72,198.533 4082.82,199.641 4099.91,199.956 4117,199.248 4134.09,199.393 4151.18,199.628 4168.27,199.667 4185.36,197.858 4202.45,195.326 4219.54,194.384 4236.63,198.89 4253.72,205.515 4270.81,213.295 4287.9,220.824 4304.99,227.309 4322.08,229.315 4339.17,227.328 4356.26,218.681 4373.35,207.337 4390.44,199.829 4407.53,195.311 4424.62,193.456 4441.71,194.459 4458.8,196.926 4475.89,199.544 4492.98,200.639 4510.07,200.955 4527.16,200.24 4544.25,200.382 4561.34,200.621 4578.43,200.662 4595.52,198.858 4612.62,196.327 4629.71,195.386 "/>
<path clip-path="url(#clip200)" d="M3853.78 853.161 L4607.83 853.161 L4607.83 334.761 L3853.78 334.761  Z" fill="#ffffff" fill-rule="evenodd" fill-opacity="1"/>
<polyline clip-path="url(#clip200)" style="stroke:#000000; stroke-linecap:round; stroke-linejoin:round; stroke-width:4; stroke-opacity:1; fill:none" points="3853.78,853.161 4607.83,853.161 4607.83,334.761 3853.78,334.761 3853.78,853.161 "/>
<polyline clip-path="url(#clip200)" style="stroke:#aeaeae; stroke-linecap:round; stroke-linejoin:round; stroke-width:2; stroke-opacity:1; fill:none" points="3902.09,464.361 4191.94,464.361 "/>
<path clip-path="url(#clip200)" d="M4241.93 497.723 L4261.03 497.723 L4261.03 431.809 L4240.25 435.976 L4240.25 425.328 L4260.91 421.161 L4272.6 421.161 L4272.6 497.723 L4291.7 497.723 L4291.7 507.561 L4241.93 507.561 L4241.93 497.723 Z" fill="#000000" fill-rule="nonzero" fill-opacity="1" /><path clip-path="url(#clip200)" d="M4340.31 428.858 Q4331.28 428.858 4326.71 437.77 Q4322.2 446.624 4322.2 464.448 Q4322.2 482.214 4326.71 491.126 Q4331.28 499.98 4340.31 499.98 Q4349.4 499.98 4353.91 491.126 Q4358.48 482.214 4358.48 464.448 Q4358.48 446.624 4353.91 437.77 Q4349.4 428.858 4340.31 428.858 M4340.31 419.599 Q4354.83 419.599 4362.47 431.115 Q4370.17 442.573 4370.17 464.448 Q4370.17 486.265 4362.47 497.781 Q4354.83 509.239 4340.31 509.239 Q4325.78 509.239 4318.09 497.781 Q4310.45 486.265 4310.45 464.448 Q4310.45 442.573 4318.09 431.115 Q4325.78 419.599 4340.31 419.599 Z" fill="#000000" fill-rule="nonzero" fill-opacity="1" /><path clip-path="url(#clip200)" d="M4415.71 428.858 Q4406.69 428.858 4402.11 437.77 Q4397.6 446.624 4397.6 464.448 Q4397.6 482.214 4402.11 491.126 Q4406.69 499.98 4415.71 499.98 Q4424.8 499.98 4429.31 491.126 Q4433.89 482.214 4433.89 464.448 Q4433.89 446.624 4429.31 437.77 Q4424.8 428.858 4415.71 428.858 M4415.71 419.599 Q4430.24 419.599 4437.88 431.115 Q4445.58 442.573 4445.58 464.448 Q4445.58 486.265 4437.88 497.781 Q4430.24 509.239 4415.71 509.239 Q4401.19 509.239 4393.49 497.781 Q4385.85 486.265 4385.85 464.448 Q4385.85 442.573 4393.49 431.115 Q4401.19 419.599 4415.71 419.599 Z" fill="#000000" fill-rule="nonzero" fill-opacity="1" /><path clip-path="url(#clip200)" d="M4539.61 469.541 Q4534.58 469.541 4531.69 473.823 Q4528.85 478.105 4528.85 485.744 Q4528.85 493.267 4531.69 497.608 Q4534.58 501.89 4539.61 501.89 Q4544.53 501.89 4547.37 497.608 Q4550.26 493.267 4550.26 485.744 Q4550.26 478.163 4547.37 473.881 Q4544.53 469.541 4539.61 469.541 M4539.61 462.191 Q4548.76 462.191 4554.14 468.557 Q4559.52 474.923 4559.52 485.744 Q4559.52 496.566 4554.08 502.932 Q4548.7 509.239 4539.61 509.239 Q4530.35 509.239 4524.97 502.932 Q4519.59 496.566 4519.59 485.744 Q4519.59 474.865 4524.97 468.557 Q4530.41 462.191 4539.61 462.191 M4479.89 426.948 Q4474.92 426.948 4472.02 431.289 Q4469.19 435.571 4469.19 443.094 Q4469.19 450.733 4472.02 455.015 Q4474.86 459.298 4479.89 459.298 Q4484.93 459.298 4487.76 455.015 Q4490.66 450.733 4490.66 443.094 Q4490.66 435.629 4487.76 431.289 Q4484.87 426.948 4479.89 426.948 M4532.15 419.599 L4541.41 419.599 L4487.36 509.239 L4478.1 509.239 L4532.15 419.599 M4479.89 419.599 Q4489.04 419.599 4494.48 425.964 Q4499.92 432.272 4499.92 443.094 Q4499.92 454.031 4494.48 460.339 Q4489.09 466.647 4479.89 466.647 Q4470.69 466.647 4465.31 460.339 Q4459.98 453.974 4459.98 443.094 Q4459.98 432.33 4465.37 425.964 Q4470.75 419.599 4479.89 419.599 Z" fill="#000000" fill-rule="nonzero" fill-opacity="1" /><polyline clip-path="url(#clip200)" style="stroke:#757575; stroke-linecap:round; stroke-linejoin:round; stroke-width:2; stroke-opacity:1; fill:none" points="3902.09,593.961 4191.94,593.961 "/>
<path clip-path="url(#clip200)" d="M4245.81 635.367 L4245.81 624.719 Q4250.21 626.803 4254.72 627.902 Q4259.23 629.002 4263.57 629.002 Q4275.15 629.002 4281.22 621.247 Q4287.36 613.435 4288.23 597.578 Q4284.87 602.555 4279.72 605.217 Q4274.57 607.879 4268.32 607.879 Q4255.36 607.879 4247.78 600.067 Q4240.25 592.196 4240.25 578.597 Q4240.25 565.287 4248.12 557.243 Q4255.99 549.199 4269.07 549.199 Q4284.06 549.199 4291.93 560.715 Q4299.86 572.173 4299.86 594.048 Q4299.86 614.476 4290.14 626.687 Q4280.47 638.839 4264.09 638.839 Q4259.7 638.839 4255.18 637.971 Q4250.67 637.103 4245.81 635.367 M4269.07 598.736 Q4276.94 598.736 4281.51 593.354 Q4286.14 587.972 4286.14 578.597 Q4286.14 569.28 4281.51 563.898 Q4276.94 558.458 4269.07 558.458 Q4261.2 558.458 4256.57 563.898 Q4252 569.28 4252 578.597 Q4252 587.972 4256.57 593.354 Q4261.2 598.736 4269.07 598.736 Z" fill="#000000" fill-rule="nonzero" fill-opacity="1" /><path clip-path="url(#clip200)" d="M4345.87 558.458 Q4336.84 558.458 4332.27 567.37 Q4327.75 576.224 4327.75 594.048 Q4327.75 611.814 4332.27 620.726 Q4336.84 629.58 4345.87 629.58 Q4354.95 629.58 4359.46 620.726 Q4364.04 611.814 4364.04 594.048 Q4364.04 576.224 4359.46 567.37 Q4354.95 558.458 4345.87 558.458 M4345.87 549.199 Q4360.39 549.199 4368.03 560.715 Q4375.73 572.173 4375.73 594.048 Q4375.73 615.865 4368.03 627.381 Q4360.39 638.839 4345.87 638.839 Q4331.34 638.839 4323.64 627.381 Q4316 615.865 4316 594.048 Q4316 572.173 4323.64 560.715 Q4331.34 549.199 4345.87 549.199 Z" fill="#000000" fill-rule="nonzero" fill-opacity="1" /><path clip-path="url(#clip200)" d="M4469.76 599.141 Q4464.73 599.141 4461.84 603.423 Q4459 607.705 4459 615.344 Q4459 622.867 4461.84 627.208 Q4464.73 631.49 4469.76 631.49 Q4474.68 631.49 4477.52 627.208 Q4480.41 622.867 4480.41 615.344 Q4480.41 607.763 4477.52 603.481 Q4474.68 599.141 4469.76 599.141 M4469.76 591.791 Q4478.91 591.791 4484.29 598.157 Q4489.67 604.523 4489.67 615.344 Q4489.67 626.166 4484.23 632.532 Q4478.85 638.839 4469.76 638.839 Q4460.51 638.839 4455.12 632.532 Q4449.74 626.166 4449.74 615.344 Q4449.74 604.465 4455.12 598.157 Q4460.56 591.791 4469.76 591.791 M4410.04 556.548 Q4405.07 556.548 4402.17 560.889 Q4399.34 565.171 4399.34 572.694 Q4399.34 580.333 4402.17 584.615 Q4405.01 588.898 4410.04 588.898 Q4415.08 588.898 4417.91 584.615 Q4420.81 580.333 4420.81 572.694 Q4420.81 565.229 4417.91 560.889 Q4415.02 556.548 4410.04 556.548 M4462.3 549.199 L4471.56 549.199 L4417.51 638.839 L4408.25 638.839 L4462.3 549.199 M4410.04 549.199 Q4419.19 549.199 4424.63 555.564 Q4430.07 561.872 4430.07 572.694 Q4430.07 583.631 4424.63 589.939 Q4419.24 596.247 4410.04 596.247 Q4400.84 596.247 4395.46 589.939 Q4390.14 583.574 4390.14 572.694 Q4390.14 561.93 4395.52 555.564 Q4400.9 549.199 4410.04 549.199 Z" fill="#000000" fill-rule="nonzero" fill-opacity="1" /><polyline clip-path="url(#clip200)" style="stroke:#414141; stroke-linecap:round; stroke-linejoin:round; stroke-width:2; stroke-opacity:1; fill:none" points="3902.09,723.561 4191.94,723.561 "/>
<path clip-path="url(#clip200)" d="M4269.88 725.731 Q4261.55 725.731 4256.75 730.187 Q4252 734.643 4252 742.456 Q4252 750.268 4256.75 754.724 Q4261.55 759.18 4269.88 759.18 Q4278.21 759.18 4283.02 754.724 Q4287.82 750.21 4287.82 742.456 Q4287.82 734.643 4283.02 730.187 Q4278.27 725.731 4269.88 725.731 M4258.19 720.755 Q4250.67 718.903 4246.44 713.752 Q4242.28 708.602 4242.28 701.194 Q4242.28 690.836 4249.63 684.817 Q4257.03 678.799 4269.88 678.799 Q4282.79 678.799 4290.14 684.817 Q4297.49 690.836 4297.49 701.194 Q4297.49 708.602 4293.26 713.752 Q4289.09 718.903 4281.63 720.755 Q4290.08 722.722 4294.77 728.451 Q4299.51 734.18 4299.51 742.456 Q4299.51 755.014 4291.81 761.727 Q4284.18 768.439 4269.88 768.439 Q4255.59 768.439 4247.89 761.727 Q4240.25 755.014 4240.25 742.456 Q4240.25 734.18 4245 728.451 Q4249.74 722.722 4258.19 720.755 M4253.91 702.294 Q4253.91 709.007 4258.08 712.768 Q4262.3 716.53 4269.88 716.53 Q4277.4 716.53 4281.63 712.768 Q4285.91 709.007 4285.91 702.294 Q4285.91 695.581 4281.63 691.82 Q4277.4 688.058 4269.88 688.058 Q4262.3 688.058 4258.08 691.82 Q4253.91 695.581 4253.91 702.294 Z" fill="#000000" fill-rule="nonzero" fill-opacity="1" /><path clip-path="url(#clip200)" d="M4345.29 688.058 Q4336.26 688.058 4331.69 696.97 Q4327.17 705.824 4327.17 723.648 Q4327.17 741.414 4331.69 750.326 Q4336.26 759.18 4345.29 759.18 Q4354.37 759.18 4358.89 750.326 Q4363.46 741.414 4363.46 723.648 Q4363.46 705.824 4358.89 696.97 Q4354.37 688.058 4345.29 688.058 M4345.29 678.799 Q4359.81 678.799 4367.45 690.315 Q4375.15 701.773 4375.15 723.648 Q4375.15 745.465 4367.45 756.981 Q4359.81 768.439 4345.29 768.439 Q4330.76 768.439 4323.06 756.981 Q4315.43 745.465 4315.43 723.648 Q4315.43 701.773 4323.06 690.315 Q4330.76 678.799 4345.29 678.799 Z" fill="#000000" fill-rule="nonzero" fill-opacity="1" /><path clip-path="url(#clip200)" d="M4469.19 728.741 Q4464.15 728.741 4461.26 733.023 Q4458.42 737.305 4458.42 744.944 Q4458.42 752.467 4461.26 756.808 Q4464.15 761.09 4469.19 761.09 Q4474.11 761.09 4476.94 756.808 Q4479.83 752.467 4479.83 744.944 Q4479.83 737.363 4476.94 733.081 Q4474.11 728.741 4469.19 728.741 M4469.19 721.391 Q4478.33 721.391 4483.71 727.757 Q4489.09 734.123 4489.09 744.944 Q4489.09 755.766 4483.65 762.132 Q4478.27 768.439 4469.19 768.439 Q4459.93 768.439 4454.55 762.132 Q4449.16 755.766 4449.16 744.944 Q4449.16 734.065 4454.55 727.757 Q4459.98 721.391 4469.19 721.391 M4409.46 686.148 Q4404.49 686.148 4401.59 690.489 Q4398.76 694.771 4398.76 702.294 Q4398.76 709.933 4401.59 714.215 Q4404.43 718.498 4409.46 718.498 Q4414.5 718.498 4417.33 714.215 Q4420.23 709.933 4420.23 702.294 Q4420.23 694.829 4417.33 690.489 Q4414.44 686.148 4409.46 686.148 M4461.72 678.799 L4470.98 678.799 L4416.93 768.439 L4407.67 768.439 L4461.72 678.799 M4409.46 678.799 Q4418.61 678.799 4424.05 685.164 Q4429.49 691.472 4429.49 702.294 Q4429.49 713.231 4424.05 719.539 Q4418.67 725.847 4409.46 725.847 Q4400.26 725.847 4394.88 719.539 Q4389.56 713.174 4389.56 702.294 Q4389.56 691.53 4394.94 685.164 Q4400.32 678.799 4409.46 678.799 Z" fill="#000000" fill-rule="nonzero" fill-opacity="1" /></svg>
