<?xml version="1.0" encoding="utf-8"?>
<svg xmlns="http://www.w3.org/2000/svg" xmlns:xlink="http://www.w3.org/1999/xlink" width="700" height="450" viewBox="0 0 2800 1800">
<defs>
  <clipPath id="clip930">
    <rect x="0" y="0" width="2800" height="1800"/>
  </clipPath>
</defs>
<path clip-path="url(#clip930)" d="M0 1800 L2800 1800 L2800 -2.27374e-13 L0 -2.27374e-13  Z" fill="#ffffff" fill-rule="evenodd" fill-opacity="1"/>
<defs>
  <clipPath id="clip931">
    <rect x="560" y="0" width="1961" height="1800"/>
  </clipPath>
</defs>
<path clip-path="url(#clip930)" d="M431.123 1438.41 L2611.02 1438.41 L2611.02 47.2441 L431.123 47.2441  Z" fill="#ffffff" fill-rule="evenodd" fill-opacity="1"/>
<defs>
  <clipPath id="clip932">
    <rect x="431" y="47" width="2181" height="1392"/>
  </clipPath>
</defs>
<polyline clip-path="url(#clip932)" style="stroke:#000000; stroke-linecap:round; stroke-linejoin:round; stroke-width:2; stroke-opacity:0.1; fill:none" points="492.818,1438.41 492.818,47.2441 "/>
<polyline clip-path="url(#clip932)" style="stroke:#000000; stroke-linecap:round; stroke-linejoin:round; stroke-width:2; stroke-opacity:0.1; fill:none" points="904.12,1438.41 904.12,47.2441 "/>
<polyline clip-path="url(#clip932)" style="stroke:#000000; stroke-linecap:round; stroke-linejoin:round; stroke-width:2; stroke-opacity:0.1; fill:none" points="1315.42,1438.41 1315.42,47.2441 "/>
<polyline clip-path="url(#clip932)" style="stroke:#000000; stroke-linecap:round; stroke-linejoin:round; stroke-width:2; stroke-opacity:0.1; fill:none" points="1726.72,1438.41 1726.72,47.2441 "/>
<polyline clip-path="url(#clip932)" style="stroke:#000000; stroke-linecap:round; stroke-linejoin:round; stroke-width:2; stroke-opacity:0.1; fill:none" points="2138.03,1438.41 2138.03,47.2441 "/>
<polyline clip-path="url(#clip932)" style="stroke:#000000; stroke-linecap:round; stroke-linejoin:round; stroke-width:2; stroke-opacity:0.1; fill:none" points="2549.33,1438.41 2549.33,47.2441 "/>
<polyline clip-path="url(#clip932)" style="stroke:#000000; stroke-linecap:round; stroke-linejoin:round; stroke-width:2; stroke-opacity:0.1; fill:none" points="431.123,1390.06 2611.02,1390.06 "/>
<polyline clip-path="url(#clip932)" style="stroke:#000000; stroke-linecap:round; stroke-linejoin:round; stroke-width:2; stroke-opacity:0.1; fill:none" points="431.123,1241.9 2611.02,1241.9 "/>
<polyline clip-path="url(#clip932)" style="stroke:#000000; stroke-linecap:round; stroke-linejoin:round; stroke-width:2; stroke-opacity:0.1; fill:none" points="431.123,1093.75 2611.02,1093.75 "/>
<polyline clip-path="url(#clip932)" style="stroke:#000000; stroke-linecap:round; stroke-linejoin:round; stroke-width:2; stroke-opacity:0.1; fill:none" points="431.123,945.595 2611.02,945.595 "/>
<polyline clip-path="url(#clip932)" style="stroke:#000000; stroke-linecap:round; stroke-linejoin:round; stroke-width:2; stroke-opacity:0.1; fill:none" points="431.123,797.44 2611.02,797.44 "/>
<polyline clip-path="url(#clip932)" style="stroke:#000000; stroke-linecap:round; stroke-linejoin:round; stroke-width:2; stroke-opacity:0.1; fill:none" points="431.123,649.285 2611.02,649.285 "/>
<polyline clip-path="url(#clip932)" style="stroke:#000000; stroke-linecap:round; stroke-linejoin:round; stroke-width:2; stroke-opacity:0.1; fill:none" points="431.123,501.13 2611.02,501.13 "/>
<polyline clip-path="url(#clip932)" style="stroke:#000000; stroke-linecap:round; stroke-linejoin:round; stroke-width:2; stroke-opacity:0.1; fill:none" points="431.123,352.975 2611.02,352.975 "/>
<polyline clip-path="url(#clip932)" style="stroke:#000000; stroke-linecap:round; stroke-linejoin:round; stroke-width:2; stroke-opacity:0.1; fill:none" points="431.123,204.82 2611.02,204.82 "/>
<polyline clip-path="url(#clip932)" style="stroke:#000000; stroke-linecap:round; stroke-linejoin:round; stroke-width:2; stroke-opacity:0.1; fill:none" points="431.123,56.6649 2611.02,56.6649 "/>
<polyline clip-path="url(#clip930)" style="stroke:#000000; stroke-linecap:round; stroke-linejoin:round; stroke-width:4; stroke-opacity:1; fill:none" points="431.123,1438.41 2611.02,1438.41 "/>
<polyline clip-path="url(#clip930)" style="stroke:#000000; stroke-linecap:round; stroke-linejoin:round; stroke-width:4; stroke-opacity:1; fill:none" points="492.818,1438.41 492.818,1419.52 "/>
<polyline clip-path="url(#clip930)" style="stroke:#000000; stroke-linecap:round; stroke-linejoin:round; stroke-width:4; stroke-opacity:1; fill:none" points="904.12,1438.41 904.12,1419.52 "/>
<polyline clip-path="url(#clip930)" style="stroke:#000000; stroke-linecap:round; stroke-linejoin:round; stroke-width:4; stroke-opacity:1; fill:none" points="1315.42,1438.41 1315.42,1419.52 "/>
<polyline clip-path="url(#clip930)" style="stroke:#000000; stroke-linecap:round; stroke-linejoin:round; stroke-width:4; stroke-opacity:1; fill:none" points="1726.72,1438.41 1726.72,1419.52 "/>
<polyline clip-path="url(#clip930)" style="stroke:#000000; stroke-linecap:round; stroke-linejoin:round; stroke-width:4; stroke-opacity:1; fill:none" points="2138.03,1438.41 2138.03,1419.52 "/>
<polyline clip-path="url(#clip930)" style="stroke:#000000; stroke-linecap:round; stroke-linejoin:round; stroke-width:4; stroke-opacity:1; fill:none" points="2549.33,1438.41 2549.33,1419.52 "/>
<path clip-path="url(#clip930)" d="M449.046 1529.47 L458.595 1529.47 L458.595 1496.51 L448.207 1498.6 L448.207 1493.27 L458.537 1491.19 L464.382 1491.19 L464.382 1529.47 L473.931 1529.47 L473.931 1534.39 L449.046 1534.39 L449.046 1529.47 Z" fill="#000000" fill-rule="nonzero" fill-opacity="1" /><path clip-path="url(#clip930)" d="M498.236 1495.04 Q493.722 1495.04 491.436 1499.49 Q489.179 1503.92 489.179 1512.83 Q489.179 1521.71 491.436 1526.17 Q493.722 1530.6 498.236 1530.6 Q502.779 1530.6 505.036 1526.17 Q507.322 1521.71 507.322 1512.83 Q507.322 1503.92 505.036 1499.49 Q502.779 1495.04 498.236 1495.04 M498.236 1490.41 Q505.499 1490.41 509.318 1496.17 Q513.166 1501.89 513.166 1512.83 Q513.166 1523.74 509.318 1529.5 Q505.499 1535.23 498.236 1535.23 Q490.973 1535.23 487.125 1529.5 Q483.306 1523.74 483.306 1512.83 Q483.306 1501.89 487.125 1496.17 Q490.973 1490.41 498.236 1490.41 Z" fill="#000000" fill-rule="nonzero" fill-opacity="1" /><path clip-path="url(#clip930)" d="M525.297 1468.15 Q521.63 1468.15 519.773 1471.77 Q517.939 1475.37 517.939 1482.61 Q517.939 1489.83 519.773 1493.45 Q521.63 1497.05 525.297 1497.05 Q528.989 1497.05 530.822 1493.45 Q532.68 1489.83 532.68 1482.61 Q532.68 1475.37 530.822 1471.77 Q528.989 1468.15 525.297 1468.15 M525.297 1464.39 Q531.198 1464.39 534.302 1469.07 Q537.428 1473.72 537.428 1482.61 Q537.428 1491.47 534.302 1496.15 Q531.198 1500.81 525.297 1500.81 Q519.397 1500.81 516.27 1496.15 Q513.166 1491.47 513.166 1482.61 Q513.166 1473.72 516.27 1469.07 Q519.397 1464.39 525.297 1464.39 Z" fill="#000000" fill-rule="nonzero" fill-opacity="1" /><path clip-path="url(#clip930)" d="M862.029 1529.47 L871.578 1529.47 L871.578 1496.51 L861.19 1498.6 L861.19 1493.27 L871.52 1491.19 L877.365 1491.19 L877.365 1529.47 L886.914 1529.47 L886.914 1534.39 L862.029 1534.39 L862.029 1529.47 Z" fill="#000000" fill-rule="nonzero" fill-opacity="1" /><path clip-path="url(#clip930)" d="M911.219 1495.04 Q906.705 1495.04 904.419 1499.49 Q902.162 1503.92 902.162 1512.83 Q902.162 1521.71 904.419 1526.17 Q906.705 1530.6 911.219 1530.6 Q915.762 1530.6 918.019 1526.17 Q920.305 1521.71 920.305 1512.83 Q920.305 1503.92 918.019 1499.49 Q915.762 1495.04 911.219 1495.04 M911.219 1490.41 Q918.482 1490.41 922.301 1496.17 Q926.149 1501.89 926.149 1512.83 Q926.149 1523.74 922.301 1529.5 Q918.482 1535.23 911.219 1535.23 Q903.956 1535.23 900.108 1529.5 Q896.289 1523.74 896.289 1512.83 Q896.289 1501.89 900.108 1496.17 Q903.956 1490.41 911.219 1490.41 Z" fill="#000000" fill-rule="nonzero" fill-opacity="1" /><path clip-path="url(#clip930)" d="M926.831 1496.13 L934.589 1496.13 L934.589 1469.35 L926.149 1471.04 L926.149 1466.72 L934.542 1465.03 L939.291 1465.03 L939.291 1496.13 L947.05 1496.13 L947.05 1500.13 L926.831 1500.13 L926.831 1496.13 Z" fill="#000000" fill-rule="nonzero" fill-opacity="1" /><path clip-path="url(#clip930)" d="M1272.64 1529.47 L1282.19 1529.47 L1282.19 1496.51 L1271.8 1498.6 L1271.8 1493.27 L1282.13 1491.19 L1287.97 1491.19 L1287.97 1529.47 L1297.52 1529.47 L1297.52 1534.39 L1272.64 1534.39 L1272.64 1529.47 Z" fill="#000000" fill-rule="nonzero" fill-opacity="1" /><path clip-path="url(#clip930)" d="M1321.83 1495.04 Q1317.31 1495.04 1315.03 1499.49 Q1312.77 1503.92 1312.77 1512.83 Q1312.77 1521.71 1315.03 1526.17 Q1317.31 1530.6 1321.83 1530.6 Q1326.37 1530.6 1328.63 1526.17 Q1330.91 1521.71 1330.91 1512.83 Q1330.91 1503.92 1328.63 1499.49 Q1326.37 1495.04 1321.83 1495.04 M1321.83 1490.41 Q1329.09 1490.41 1332.91 1496.17 Q1336.76 1501.89 1336.76 1512.83 Q1336.76 1523.74 1332.91 1529.5 Q1329.09 1535.23 1321.83 1535.23 Q1314.56 1535.23 1310.72 1529.5 Q1306.9 1523.74 1306.9 1512.83 Q1306.9 1501.89 1310.72 1496.17 Q1314.56 1490.41 1321.83 1490.41 Z" fill="#000000" fill-rule="nonzero" fill-opacity="1" /><path clip-path="url(#clip930)" d="M1342.47 1496.13 L1359.05 1496.13 L1359.05 1500.13 L1336.76 1500.13 L1336.76 1496.13 Q1339.46 1493.33 1344.12 1488.63 Q1348.8 1483.9 1349.99 1482.54 Q1352.27 1479.98 1353.17 1478.21 Q1354.08 1476.43 1354.08 1474.71 Q1354.08 1471.91 1352.11 1470.15 Q1350.16 1468.39 1347.01 1468.39 Q1344.77 1468.39 1342.28 1469.16 Q1339.81 1469.94 1336.99 1471.51 L1336.99 1466.72 Q1339.86 1465.57 1342.35 1464.98 Q1344.85 1464.39 1346.91 1464.39 Q1352.37 1464.39 1355.61 1467.12 Q1358.86 1469.84 1358.86 1474.41 Q1358.86 1476.57 1358.03 1478.52 Q1357.23 1480.45 1355.1 1483.08 Q1354.51 1483.76 1351.36 1487.03 Q1348.21 1490.27 1342.47 1496.13 Z" fill="#000000" fill-rule="nonzero" fill-opacity="1" /><path clip-path="url(#clip930)" d="M1683.53 1529.47 L1693.08 1529.47 L1693.08 1496.51 L1682.69 1498.6 L1682.69 1493.27 L1693.02 1491.19 L1698.86 1491.19 L1698.86 1529.47 L1708.41 1529.47 L1708.41 1534.39 L1683.53 1534.39 L1683.53 1529.47 Z" fill="#000000" fill-rule="nonzero" fill-opacity="1" /><path clip-path="url(#clip930)" d="M1732.72 1495.04 Q1728.2 1495.04 1725.92 1499.49 Q1723.66 1503.92 1723.66 1512.83 Q1723.66 1521.71 1725.92 1526.17 Q1728.2 1530.6 1732.72 1530.6 Q1737.26 1530.6 1739.52 1526.17 Q1741.8 1521.71 1741.8 1512.83 Q1741.8 1503.92 1739.52 1499.49 Q1737.26 1495.04 1732.72 1495.04 M1732.72 1490.41 Q1739.98 1490.41 1743.8 1496.17 Q1747.65 1501.89 1747.65 1512.83 Q1747.65 1523.74 1743.8 1529.5 Q1739.98 1535.23 1732.72 1535.23 Q1725.46 1535.23 1721.61 1529.5 Q1717.79 1523.74 1717.79 1512.83 Q1717.79 1501.89 1721.61 1496.17 Q1725.46 1490.41 1732.72 1490.41 Z" fill="#000000" fill-rule="nonzero" fill-opacity="1" /><path clip-path="url(#clip930)" d="M1763.52 1481.2 Q1766.93 1481.93 1768.83 1484.23 Q1770.76 1486.54 1770.76 1489.92 Q1770.76 1495.12 1767.19 1497.96 Q1763.61 1500.81 1757.03 1500.81 Q1754.82 1500.81 1752.47 1500.36 Q1750.14 1499.94 1747.65 1499.07 L1747.65 1494.48 Q1749.62 1495.63 1751.97 1496.22 Q1754.33 1496.81 1756.89 1496.81 Q1761.35 1496.81 1763.68 1495.05 Q1766.03 1493.28 1766.03 1489.92 Q1766.03 1486.82 1763.85 1485.08 Q1761.68 1483.32 1757.8 1483.32 L1753.71 1483.32 L1753.71 1479.41 L1757.99 1479.41 Q1761.5 1479.41 1763.35 1478.03 Q1765.21 1476.62 1765.21 1473.98 Q1765.21 1471.28 1763.28 1469.84 Q1761.38 1468.39 1757.8 1468.39 Q1755.85 1468.39 1753.62 1468.81 Q1751.39 1469.23 1748.71 1470.13 L1748.71 1465.9 Q1751.41 1465.14 1753.76 1464.77 Q1756.14 1464.39 1758.23 1464.39 Q1763.64 1464.39 1766.79 1466.86 Q1769.94 1469.3 1769.94 1473.49 Q1769.94 1476.4 1768.27 1478.43 Q1766.6 1480.42 1763.52 1481.2 Z" fill="#000000" fill-rule="nonzero" fill-opacity="1" /><path clip-path="url(#clip930)" d="M2093.6 1529.47 L2103.15 1529.47 L2103.15 1496.51 L2092.76 1498.6 L2092.76 1493.27 L2103.09 1491.19 L2108.93 1491.19 L2108.93 1529.47 L2118.48 1529.47 L2118.48 1534.39 L2093.6 1534.39 L2093.6 1529.47 Z" fill="#000000" fill-rule="nonzero" fill-opacity="1" /><path clip-path="url(#clip930)" d="M2142.79 1495.04 Q2138.27 1495.04 2135.99 1499.49 Q2133.73 1503.92 2133.73 1512.83 Q2133.73 1521.71 2135.99 1526.17 Q2138.27 1530.6 2142.79 1530.6 Q2147.33 1530.6 2149.59 1526.17 Q2151.87 1521.71 2151.87 1512.83 Q2151.87 1503.92 2149.59 1499.49 Q2147.33 1495.04 2142.79 1495.04 M2142.79 1490.41 Q2150.05 1490.41 2153.87 1496.17 Q2157.72 1501.89 2157.72 1512.83 Q2157.72 1523.74 2153.87 1529.5 Q2150.05 1535.23 2142.79 1535.23 Q2135.52 1535.23 2131.67 1529.5 Q2127.86 1523.74 2127.86 1512.83 Q2127.86 1501.89 2131.67 1496.17 Q2135.52 1490.41 2142.79 1490.41 Z" fill="#000000" fill-rule="nonzero" fill-opacity="1" /><path clip-path="url(#clip930)" d="M2173.56 1469.16 L2161.57 1487.9 L2173.56 1487.9 L2173.56 1469.16 M2172.32 1465.03 L2178.29 1465.03 L2178.29 1487.9 L2183.3 1487.9 L2183.3 1491.85 L2178.29 1491.85 L2178.29 1500.13 L2173.56 1500.13 L2173.56 1491.85 L2157.72 1491.85 L2157.72 1487.27 L2172.32 1465.03 Z" fill="#000000" fill-rule="nonzero" fill-opacity="1" /><path clip-path="url(#clip930)" d="M2506.33 1529.47 L2515.88 1529.47 L2515.88 1496.51 L2505.49 1498.6 L2505.49 1493.27 L2515.82 1491.19 L2521.67 1491.19 L2521.67 1529.47 L2531.22 1529.47 L2531.22 1534.39 L2506.33 1534.39 L2506.33 1529.47 Z" fill="#000000" fill-rule="nonzero" fill-opacity="1" /><path clip-path="url(#clip930)" d="M2555.52 1495.04 Q2551.01 1495.04 2548.72 1499.49 Q2546.47 1503.92 2546.47 1512.83 Q2546.47 1521.71 2548.72 1526.17 Q2551.01 1530.6 2555.52 1530.6 Q2560.07 1530.6 2562.32 1526.17 Q2564.61 1521.71 2564.61 1512.83 Q2564.61 1503.92 2562.32 1499.49 Q2560.07 1495.04 2555.52 1495.04 M2555.52 1490.41 Q2562.78 1490.41 2566.6 1496.17 Q2570.45 1501.89 2570.45 1512.83 Q2570.45 1523.74 2566.6 1529.5 Q2562.78 1535.23 2555.52 1535.23 Q2548.26 1535.23 2544.41 1529.5 Q2540.59 1523.74 2540.59 1512.83 Q2540.59 1501.89 2544.41 1496.17 Q2548.26 1490.41 2555.52 1490.41 Z" fill="#000000" fill-rule="nonzero" fill-opacity="1" /><path clip-path="url(#clip930)" d="M2571.93 1465.03 L2590.58 1465.03 L2590.58 1469.02 L2576.28 1469.02 L2576.28 1477.63 Q2577.32 1477.27 2578.35 1477.11 Q2579.39 1476.92 2580.42 1476.92 Q2586.3 1476.92 2589.73 1480.14 Q2593.16 1483.36 2593.16 1488.86 Q2593.16 1494.53 2589.64 1497.68 Q2586.11 1500.81 2579.69 1500.81 Q2577.48 1500.81 2575.18 1500.43 Q2572.9 1500.05 2570.45 1499.3 L2570.45 1494.53 Q2572.57 1495.68 2574.83 1496.25 Q2577.08 1496.81 2579.6 1496.81 Q2583.67 1496.81 2586.04 1494.67 Q2588.41 1492.53 2588.41 1488.86 Q2588.41 1485.2 2586.04 1483.06 Q2583.67 1480.92 2579.6 1480.92 Q2577.69 1480.92 2575.79 1481.34 Q2573.91 1481.76 2571.93 1482.66 L2571.93 1465.03 Z" fill="#000000" fill-rule="nonzero" fill-opacity="1" /><path clip-path="url(#clip930)" d="M989.942 1582.07 L1002.53 1582.07 L1033.18 1639.89 L1033.18 1582.07 L1042.26 1582.07 L1042.26 1651.19 L1029.66 1651.19 L999.016 1593.36 L999.016 1651.19 L989.942 1651.19 L989.942 1582.07 Z" fill="#000000" fill-rule="nonzero" fill-opacity="1" /><path clip-path="url(#clip930)" d="M1059.62 1630.73 L1059.62 1599.34 L1068.14 1599.34 L1068.14 1630.4 Q1068.14 1637.76 1071.01 1641.47 Q1073.88 1645.12 1079.62 1645.12 Q1086.52 1645.12 1090.5 1640.73 Q1094.52 1636.33 1094.52 1628.73 L1094.52 1599.34 L1103.04 1599.34 L1103.04 1651.19 L1094.52 1651.19 L1094.52 1643.23 Q1091.42 1647.95 1087.3 1650.26 Q1083.23 1652.53 1077.81 1652.53 Q1068.88 1652.53 1064.25 1646.98 Q1059.62 1641.42 1059.62 1630.73 M1081.05 1598.09 L1081.05 1598.09 Z" fill="#000000" fill-rule="nonzero" fill-opacity="1" /><path clip-path="url(#clip930)" d="M1160.96 1609.29 Q1164.15 1603.55 1168.6 1600.82 Q1173.04 1598.09 1179.06 1598.09 Q1187.16 1598.09 1191.56 1603.78 Q1195.96 1609.43 1195.96 1619.89 L1195.96 1651.19 L1187.39 1651.19 L1187.39 1620.17 Q1187.39 1612.72 1184.76 1609.11 Q1182.12 1605.49 1176.7 1605.49 Q1170.08 1605.49 1166.24 1609.89 Q1162.39 1614.29 1162.39 1621.88 L1162.39 1651.19 L1153.83 1651.19 L1153.83 1620.17 Q1153.83 1612.67 1151.19 1609.11 Q1148.55 1605.49 1143.04 1605.49 Q1136.51 1605.49 1132.67 1609.94 Q1128.83 1614.34 1128.83 1621.88 L1128.83 1651.19 L1120.27 1651.19 L1120.27 1599.34 L1128.83 1599.34 L1128.83 1607.39 Q1131.75 1602.62 1135.82 1600.36 Q1139.89 1598.09 1145.5 1598.09 Q1151.14 1598.09 1155.08 1600.96 Q1159.06 1603.83 1160.96 1609.29 Z" fill="#000000" fill-rule="nonzero" fill-opacity="1" /><path clip-path="url(#clip930)" d="M1250.17 1625.31 Q1250.17 1615.91 1246.28 1610.59 Q1242.44 1605.22 1235.68 1605.22 Q1228.92 1605.22 1225.03 1610.59 Q1221.19 1615.91 1221.19 1625.31 Q1221.19 1634.71 1225.03 1640.08 Q1228.92 1645.4 1235.68 1645.4 Q1242.44 1645.4 1246.28 1640.08 Q1250.17 1634.71 1250.17 1625.31 M1221.19 1607.21 Q1223.88 1602.58 1227.95 1600.36 Q1232.07 1598.09 1237.76 1598.09 Q1247.21 1598.09 1253.09 1605.59 Q1259.01 1613.09 1259.01 1625.31 Q1259.01 1637.53 1253.09 1645.03 Q1247.21 1652.53 1237.76 1652.53 Q1232.07 1652.53 1227.95 1650.31 Q1223.88 1648.04 1221.19 1643.41 L1221.19 1651.19 L1212.63 1651.19 L1212.63 1579.15 L1221.19 1579.15 L1221.19 1607.21 Z" fill="#000000" fill-rule="nonzero" fill-opacity="1" /><path clip-path="url(#clip930)" d="M1317.49 1623.13 L1317.49 1627.3 L1278.32 1627.3 Q1278.88 1636.1 1283.6 1640.73 Q1288.37 1645.31 1296.84 1645.31 Q1301.75 1645.31 1306.33 1644.11 Q1310.96 1642.9 1315.5 1640.49 L1315.5 1648.55 Q1310.91 1650.49 1306.1 1651.51 Q1301.28 1652.53 1296.33 1652.53 Q1283.92 1652.53 1276.65 1645.31 Q1269.43 1638.09 1269.43 1625.77 Q1269.43 1613.04 1276.28 1605.59 Q1283.18 1598.09 1294.85 1598.09 Q1305.31 1598.09 1311.38 1604.85 Q1317.49 1611.56 1317.49 1623.13 M1308.97 1620.63 Q1308.88 1613.64 1305.03 1609.48 Q1301.24 1605.31 1294.94 1605.31 Q1287.81 1605.31 1283.5 1609.34 Q1279.25 1613.36 1278.6 1620.68 L1308.97 1620.63 Z" fill="#000000" fill-rule="nonzero" fill-opacity="1" /><path clip-path="url(#clip930)" d="M1361.51 1607.3 Q1360.08 1606.47 1358.37 1606.1 Q1356.7 1605.68 1354.66 1605.68 Q1347.44 1605.68 1343.55 1610.4 Q1339.71 1615.08 1339.71 1623.87 L1339.71 1651.19 L1331.14 1651.19 L1331.14 1599.34 L1339.71 1599.34 L1339.71 1607.39 Q1342.39 1602.67 1346.7 1600.4 Q1351 1598.09 1357.16 1598.09 Q1358.04 1598.09 1359.11 1598.23 Q1360.17 1598.32 1361.47 1598.55 L1361.51 1607.3 Z" fill="#000000" fill-rule="nonzero" fill-opacity="1" /><path clip-path="url(#clip930)" d="M1420.68 1605.31 Q1413.83 1605.31 1409.85 1610.68 Q1405.87 1616 1405.87 1625.31 Q1405.87 1634.61 1409.8 1639.98 Q1413.78 1645.31 1420.68 1645.31 Q1427.49 1645.31 1431.47 1639.94 Q1435.45 1634.57 1435.45 1625.31 Q1435.45 1616.1 1431.47 1610.73 Q1427.49 1605.31 1420.68 1605.31 M1420.68 1598.09 Q1431.79 1598.09 1438.13 1605.31 Q1444.48 1612.53 1444.48 1625.31 Q1444.48 1638.04 1438.13 1645.31 Q1431.79 1652.53 1420.68 1652.53 Q1409.52 1652.53 1403.18 1645.31 Q1396.88 1638.04 1396.88 1625.31 Q1396.88 1612.53 1403.18 1605.31 Q1409.52 1598.09 1420.68 1598.09 Z" fill="#000000" fill-rule="nonzero" fill-opacity="1" /><path clip-path="url(#clip930)" d="M1484.85 1579.15 L1484.85 1586.23 L1476.7 1586.23 Q1472.12 1586.23 1470.31 1588.09 Q1468.55 1589.94 1468.55 1594.75 L1468.55 1599.34 L1482.58 1599.34 L1482.58 1605.96 L1468.55 1605.96 L1468.55 1651.19 L1459.99 1651.19 L1459.99 1605.96 L1451.84 1605.96 L1451.84 1599.34 L1459.99 1599.34 L1459.99 1595.73 Q1459.99 1587.07 1464.01 1583.13 Q1468.04 1579.15 1476.79 1579.15 L1484.85 1579.15 Z" fill="#000000" fill-rule="nonzero" fill-opacity="1" /><path clip-path="url(#clip930)" d="M1555.17 1600.86 L1555.17 1608.92 Q1551.56 1607.07 1547.67 1606.14 Q1543.78 1605.22 1539.61 1605.22 Q1533.27 1605.22 1530.08 1607.16 Q1526.93 1609.11 1526.93 1612.99 Q1526.93 1615.96 1529.2 1617.67 Q1531.47 1619.34 1538.32 1620.86 L1541.24 1621.51 Q1550.31 1623.46 1554.11 1627.02 Q1557.95 1630.54 1557.95 1636.88 Q1557.95 1644.11 1552.21 1648.32 Q1546.51 1652.53 1536.51 1652.53 Q1532.35 1652.53 1527.81 1651.7 Q1523.32 1650.91 1518.32 1649.29 L1518.32 1640.49 Q1523.04 1642.95 1527.62 1644.2 Q1532.21 1645.4 1536.7 1645.4 Q1542.72 1645.4 1545.96 1643.36 Q1549.2 1641.28 1549.2 1637.53 Q1549.2 1634.06 1546.84 1632.21 Q1544.52 1630.36 1536.61 1628.64 L1533.64 1627.95 Q1525.73 1626.28 1522.21 1622.86 Q1518.69 1619.38 1518.69 1613.36 Q1518.69 1606.05 1523.87 1602.07 Q1529.06 1598.09 1538.6 1598.09 Q1543.32 1598.09 1547.49 1598.78 Q1551.65 1599.48 1555.17 1600.86 Z" fill="#000000" fill-rule="nonzero" fill-opacity="1" /><path clip-path="url(#clip930)" d="M1571.51 1599.34 L1580.03 1599.34 L1580.03 1651.19 L1571.51 1651.19 L1571.51 1599.34 M1571.51 1579.15 L1580.03 1579.15 L1580.03 1589.94 L1571.51 1589.94 L1571.51 1579.15 Z" fill="#000000" fill-rule="nonzero" fill-opacity="1" /><path clip-path="url(#clip930)" d="M1638.23 1609.29 Q1641.42 1603.55 1645.86 1600.82 Q1650.31 1598.09 1656.33 1598.09 Q1664.43 1598.09 1668.83 1603.78 Q1673.23 1609.43 1673.23 1619.89 L1673.23 1651.19 L1664.66 1651.19 L1664.66 1620.17 Q1664.66 1612.72 1662.02 1609.11 Q1659.38 1605.49 1653.97 1605.49 Q1647.35 1605.49 1643.5 1609.89 Q1639.66 1614.29 1639.66 1621.88 L1639.66 1651.19 L1631.1 1651.19 L1631.1 1620.17 Q1631.1 1612.67 1628.46 1609.11 Q1625.82 1605.49 1620.31 1605.49 Q1613.78 1605.49 1609.94 1609.94 Q1606.1 1614.34 1606.1 1621.88 L1606.1 1651.19 L1597.53 1651.19 L1597.53 1599.34 L1606.1 1599.34 L1606.1 1607.39 Q1609.01 1602.62 1613.09 1600.36 Q1617.16 1598.09 1622.76 1598.09 Q1628.41 1598.09 1632.35 1600.96 Q1636.33 1603.83 1638.23 1609.29 Z" fill="#000000" fill-rule="nonzero" fill-opacity="1" /><path clip-path="url(#clip930)" d="M1689.34 1630.73 L1689.34 1599.34 L1697.85 1599.34 L1697.85 1630.4 Q1697.85 1637.76 1700.72 1641.47 Q1703.6 1645.12 1709.34 1645.12 Q1716.23 1645.12 1720.22 1640.73 Q1724.24 1636.33 1724.24 1628.73 L1724.24 1599.34 L1732.76 1599.34 L1732.76 1651.19 L1724.24 1651.19 L1724.24 1643.23 Q1721.14 1647.95 1717.02 1650.26 Q1712.95 1652.53 1707.53 1652.53 Q1698.6 1652.53 1693.97 1646.98 Q1689.34 1641.42 1689.34 1630.73 M1710.77 1598.09 L1710.77 1598.09 Z" fill="#000000" fill-rule="nonzero" fill-opacity="1" /><path clip-path="url(#clip930)" d="M1750.31 1579.15 L1758.83 1579.15 L1758.83 1651.19 L1750.31 1651.19 L1750.31 1579.15 Z" fill="#000000" fill-rule="nonzero" fill-opacity="1" /><path clip-path="url(#clip930)" d="M1800.22 1625.12 Q1789.89 1625.12 1785.91 1627.48 Q1781.93 1629.85 1781.93 1635.54 Q1781.93 1640.08 1784.89 1642.76 Q1787.9 1645.4 1793.04 1645.4 Q1800.12 1645.4 1804.38 1640.4 Q1808.69 1635.36 1808.69 1627.02 L1808.69 1625.12 L1800.22 1625.12 M1817.21 1621.61 L1817.21 1651.19 L1808.69 1651.19 L1808.69 1643.32 Q1805.77 1648.04 1801.42 1650.31 Q1797.07 1652.53 1790.77 1652.53 Q1782.81 1652.53 1778.09 1648.09 Q1773.41 1643.6 1773.41 1636.1 Q1773.41 1627.35 1779.24 1622.9 Q1785.12 1618.46 1796.74 1618.46 L1808.69 1618.46 L1808.69 1617.62 Q1808.69 1611.74 1804.8 1608.55 Q1800.96 1605.31 1793.97 1605.31 Q1789.52 1605.31 1785.31 1606.37 Q1781.09 1607.44 1777.21 1609.57 L1777.21 1601.7 Q1781.88 1599.89 1786.28 1599.01 Q1790.68 1598.09 1794.84 1598.09 Q1806.09 1598.09 1811.65 1603.92 Q1817.21 1609.75 1817.21 1621.61 Z" fill="#000000" fill-rule="nonzero" fill-opacity="1" /><path clip-path="url(#clip930)" d="M1843.18 1584.61 L1843.18 1599.34 L1860.72 1599.34 L1860.72 1605.96 L1843.18 1605.96 L1843.18 1634.11 Q1843.18 1640.45 1844.89 1642.25 Q1846.65 1644.06 1851.97 1644.06 L1860.72 1644.06 L1860.72 1651.19 L1851.97 1651.19 Q1842.11 1651.19 1838.36 1647.53 Q1834.61 1643.83 1834.61 1634.11 L1834.61 1605.96 L1828.36 1605.96 L1828.36 1599.34 L1834.61 1599.34 L1834.61 1584.61 L1843.18 1584.61 Z" fill="#000000" fill-rule="nonzero" fill-opacity="1" /><path clip-path="url(#clip930)" d="M1871.93 1599.34 L1880.45 1599.34 L1880.45 1651.19 L1871.93 1651.19 L1871.93 1599.34 M1871.93 1579.15 L1880.45 1579.15 L1880.45 1589.94 L1871.93 1589.94 L1871.93 1579.15 Z" fill="#000000" fill-rule="nonzero" fill-opacity="1" /><path clip-path="url(#clip930)" d="M1918.36 1605.31 Q1911.51 1605.31 1907.53 1610.68 Q1903.55 1616 1903.55 1625.31 Q1903.55 1634.61 1907.48 1639.98 Q1911.46 1645.31 1918.36 1645.31 Q1925.17 1645.31 1929.15 1639.94 Q1933.13 1634.57 1933.13 1625.31 Q1933.13 1616.1 1929.15 1610.73 Q1925.17 1605.31 1918.36 1605.31 M1918.36 1598.09 Q1929.47 1598.09 1935.82 1605.31 Q1942.16 1612.53 1942.16 1625.31 Q1942.16 1638.04 1935.82 1645.31 Q1929.47 1652.53 1918.36 1652.53 Q1907.21 1652.53 1900.86 1645.31 Q1894.57 1638.04 1894.57 1625.31 Q1894.57 1612.53 1900.86 1605.31 Q1907.21 1598.09 1918.36 1598.09 Z" fill="#000000" fill-rule="nonzero" fill-opacity="1" /><path clip-path="url(#clip930)" d="M1999.38 1619.89 L1999.38 1651.19 L1990.86 1651.19 L1990.86 1620.17 Q1990.86 1612.81 1987.99 1609.15 Q1985.12 1605.49 1979.38 1605.49 Q1972.48 1605.49 1968.5 1609.89 Q1964.52 1614.29 1964.52 1621.88 L1964.52 1651.19 L1955.96 1651.19 L1955.96 1599.34 L1964.52 1599.34 L1964.52 1607.39 Q1967.58 1602.72 1971.7 1600.4 Q1975.86 1598.09 1981.28 1598.09 Q1990.21 1598.09 1994.8 1603.64 Q1999.38 1609.15 1999.38 1619.89 Z" fill="#000000" fill-rule="nonzero" fill-opacity="1" /><path clip-path="url(#clip930)" d="M2049.43 1600.86 L2049.43 1608.92 Q2045.82 1607.07 2041.93 1606.14 Q2038.04 1605.22 2033.87 1605.22 Q2027.53 1605.22 2024.33 1607.16 Q2021.19 1609.11 2021.19 1612.99 Q2021.19 1615.96 2023.45 1617.67 Q2025.72 1619.34 2032.57 1620.86 L2035.49 1621.51 Q2044.57 1623.46 2048.36 1627.02 Q2052.2 1630.54 2052.2 1636.88 Q2052.2 1644.11 2046.46 1648.32 Q2040.77 1652.53 2030.77 1652.53 Q2026.6 1652.53 2022.07 1651.7 Q2017.58 1650.91 2012.58 1649.29 L2012.58 1640.49 Q2017.3 1642.95 2021.88 1644.2 Q2026.46 1645.4 2030.95 1645.4 Q2036.97 1645.4 2040.21 1643.36 Q2043.45 1641.28 2043.45 1637.53 Q2043.45 1634.06 2041.09 1632.21 Q2038.78 1630.36 2030.86 1628.64 L2027.9 1627.95 Q2019.98 1626.28 2016.46 1622.86 Q2012.95 1619.38 2012.95 1613.36 Q2012.95 1606.05 2018.13 1602.07 Q2023.32 1598.09 2032.85 1598.09 Q2037.57 1598.09 2041.74 1598.78 Q2045.91 1599.48 2049.43 1600.86 Z" fill="#000000" fill-rule="nonzero" fill-opacity="1" /><polyline clip-path="url(#clip930)" style="stroke:#000000; stroke-linecap:round; stroke-linejoin:round; stroke-width:4; stroke-opacity:1; fill:none" points="431.123,1438.41 431.123,47.2441 "/>
<polyline clip-path="url(#clip930)" style="stroke:#000000; stroke-linecap:round; stroke-linejoin:round; stroke-width:4; stroke-opacity:1; fill:none" points="431.123,1390.06 450.02,1390.06 "/>
<polyline clip-path="url(#clip930)" style="stroke:#000000; stroke-linecap:round; stroke-linejoin:round; stroke-width:4; stroke-opacity:1; fill:none" points="431.123,1241.9 450.02,1241.9 "/>
<polyline clip-path="url(#clip930)" style="stroke:#000000; stroke-linecap:round; stroke-linejoin:round; stroke-width:4; stroke-opacity:1; fill:none" points="431.123,1093.75 450.02,1093.75 "/>
<polyline clip-path="url(#clip930)" style="stroke:#000000; stroke-linecap:round; stroke-linejoin:round; stroke-width:4; stroke-opacity:1; fill:none" points="431.123,945.595 450.02,945.595 "/>
<polyline clip-path="url(#clip930)" style="stroke:#000000; stroke-linecap:round; stroke-linejoin:round; stroke-width:4; stroke-opacity:1; fill:none" points="431.123,797.44 450.02,797.44 "/>
<polyline clip-path="url(#clip930)" style="stroke:#000000; stroke-linecap:round; stroke-linejoin:round; stroke-width:4; stroke-opacity:1; fill:none" points="431.123,649.285 450.02,649.285 "/>
<polyline clip-path="url(#clip930)" style="stroke:#000000; stroke-linecap:round; stroke-linejoin:round; stroke-width:4; stroke-opacity:1; fill:none" points="431.123,501.13 450.02,501.13 "/>
<polyline clip-path="url(#clip930)" style="stroke:#000000; stroke-linecap:round; stroke-linejoin:round; stroke-width:4; stroke-opacity:1; fill:none" points="431.123,352.975 450.02,352.975 "/>
<polyline clip-path="url(#clip930)" style="stroke:#000000; stroke-linecap:round; stroke-linejoin:round; stroke-width:4; stroke-opacity:1; fill:none" points="431.123,204.82 450.02,204.82 "/>
<polyline clip-path="url(#clip930)" style="stroke:#000000; stroke-linecap:round; stroke-linejoin:round; stroke-width:4; stroke-opacity:1; fill:none" points="431.123,56.6649 450.02,56.6649 "/>
<path clip-path="url(#clip930)" d="M273.963 1414.8 L283.512 1414.8 L283.512 1381.84 L273.124 1383.93 L273.124 1378.6 L283.454 1376.52 L289.299 1376.52 L289.299 1414.8 L298.847 1414.8 L298.847 1419.72 L273.963 1419.72 L273.963 1414.8 Z" fill="#000000" fill-rule="nonzero" fill-opacity="1" /><path clip-path="url(#clip930)" d="M323.153 1380.37 Q318.639 1380.37 316.353 1384.82 Q314.096 1389.25 314.096 1398.16 Q314.096 1407.05 316.353 1411.5 Q318.639 1415.93 323.153 1415.93 Q327.695 1415.93 329.952 1411.5 Q332.238 1407.05 332.238 1398.16 Q332.238 1389.25 329.952 1384.82 Q327.695 1380.37 323.153 1380.37 M323.153 1375.74 Q330.415 1375.74 334.235 1381.5 Q338.083 1387.22 338.083 1398.16 Q338.083 1409.07 334.235 1414.83 Q330.415 1420.56 323.153 1420.56 Q315.89 1420.56 312.041 1414.83 Q308.222 1409.07 308.222 1398.16 Q308.222 1387.22 312.041 1381.5 Q315.89 1375.74 323.153 1375.74 Z" fill="#000000" fill-rule="nonzero" fill-opacity="1" /><path clip-path="url(#clip930)" d="M338.083 1370.34 L350.755 1370.34 L350.755 1374.19 L338.083 1374.19 L338.083 1370.34 Z" fill="#000000" fill-rule="nonzero" fill-opacity="1" /><path clip-path="url(#clip930)" d="M368.904 1381.46 L376.662 1381.46 L376.662 1354.68 L368.222 1356.37 L368.222 1352.05 L376.615 1350.36 L381.364 1350.36 L381.364 1381.46 L389.123 1381.46 L389.123 1385.46 L368.904 1385.46 L368.904 1381.46 Z" fill="#000000" fill-rule="nonzero" fill-opacity="1" /><path clip-path="url(#clip930)" d="M300.741 1266.64 L310.289 1266.64 L310.289 1233.69 L299.901 1235.77 L299.901 1230.45 L310.231 1228.36 L316.076 1228.36 L316.076 1266.64 L325.625 1266.64 L325.625 1271.56 L300.741 1271.56 L300.741 1266.64 Z" fill="#000000" fill-rule="nonzero" fill-opacity="1" /><path clip-path="url(#clip930)" d="M349.93 1232.21 Q345.416 1232.21 343.13 1236.67 Q340.873 1241.1 340.873 1250.01 Q340.873 1258.89 343.13 1263.35 Q345.416 1267.77 349.93 1267.77 Q354.473 1267.77 356.73 1263.35 Q359.016 1258.89 359.016 1250.01 Q359.016 1241.1 356.73 1236.67 Q354.473 1232.21 349.93 1232.21 M349.93 1227.58 Q357.193 1227.58 361.012 1233.34 Q364.861 1239.07 364.861 1250.01 Q364.861 1260.92 361.012 1266.67 Q357.193 1272.4 349.93 1272.4 Q342.667 1272.4 338.819 1266.67 Q335 1260.92 335 1250.01 Q335 1239.07 338.819 1233.34 Q342.667 1227.58 349.93 1227.58 Z" fill="#000000" fill-rule="nonzero" fill-opacity="1" /><path clip-path="url(#clip930)" d="M376.992 1205.33 Q373.324 1205.33 371.467 1208.95 Q369.633 1212.55 369.633 1219.79 Q369.633 1227 371.467 1230.62 Q373.324 1234.22 376.992 1234.22 Q380.683 1234.22 382.516 1230.62 Q384.374 1227 384.374 1219.79 Q384.374 1212.55 382.516 1208.95 Q380.683 1205.33 376.992 1205.33 M376.992 1201.57 Q382.893 1201.57 385.996 1206.24 Q389.123 1210.9 389.123 1219.79 Q389.123 1228.65 385.996 1233.33 Q382.893 1237.98 376.992 1237.98 Q371.091 1237.98 367.964 1233.33 Q364.861 1228.65 364.861 1219.79 Q364.861 1210.9 367.964 1206.24 Q371.091 1201.57 376.992 1201.57 Z" fill="#000000" fill-rule="nonzero" fill-opacity="1" /><path clip-path="url(#clip930)" d="M304.102 1118.49 L313.651 1118.49 L313.651 1085.53 L303.263 1087.62 L303.263 1082.29 L313.593 1080.21 L319.438 1080.21 L319.438 1118.49 L328.987 1118.49 L328.987 1123.41 L304.102 1123.41 L304.102 1118.49 Z" fill="#000000" fill-rule="nonzero" fill-opacity="1" /><path clip-path="url(#clip930)" d="M353.292 1084.06 Q348.778 1084.06 346.492 1088.51 Q344.235 1092.94 344.235 1101.85 Q344.235 1110.74 346.492 1115.19 Q348.778 1119.62 353.292 1119.62 Q357.835 1119.62 360.092 1115.19 Q362.378 1110.74 362.378 1101.85 Q362.378 1092.94 360.092 1088.51 Q357.835 1084.06 353.292 1084.06 M353.292 1079.43 Q360.555 1079.43 364.374 1085.19 Q368.222 1090.91 368.222 1101.85 Q368.222 1112.76 364.374 1118.52 Q360.555 1124.25 353.292 1124.25 Q346.029 1124.25 342.181 1118.52 Q338.362 1112.76 338.362 1101.85 Q338.362 1090.91 342.181 1085.19 Q346.029 1079.43 353.292 1079.43 Z" fill="#000000" fill-rule="nonzero" fill-opacity="1" /><path clip-path="url(#clip930)" d="M368.904 1085.15 L376.662 1085.15 L376.662 1058.37 L368.222 1060.06 L368.222 1055.74 L376.615 1054.05 L381.364 1054.05 L381.364 1085.15 L389.123 1085.15 L389.123 1089.15 L368.904 1089.15 L368.904 1085.15 Z" fill="#000000" fill-rule="nonzero" fill-opacity="1" /><path clip-path="url(#clip930)" d="M302.715 970.335 L312.264 970.335 L312.264 937.378 L301.876 939.461 L301.876 934.137 L312.206 932.054 L318.051 932.054 L318.051 970.335 L327.599 970.335 L327.599 975.254 L302.715 975.254 L302.715 970.335 Z" fill="#000000" fill-rule="nonzero" fill-opacity="1" /><path clip-path="url(#clip930)" d="M351.905 935.902 Q347.391 935.902 345.105 940.358 Q342.848 944.785 342.848 953.697 Q342.848 962.581 345.105 967.036 Q347.391 971.464 351.905 971.464 Q356.448 971.464 358.705 967.036 Q360.991 962.581 360.991 953.697 Q360.991 944.785 358.705 940.358 Q356.448 935.902 351.905 935.902 M351.905 931.273 Q359.168 931.273 362.987 937.031 Q366.835 942.76 366.835 953.697 Q366.835 964.606 362.987 970.364 Q359.168 976.093 351.905 976.093 Q344.642 976.093 340.794 970.364 Q336.974 964.606 336.974 953.697 Q336.974 942.76 340.794 937.031 Q344.642 931.273 351.905 931.273 Z" fill="#000000" fill-rule="nonzero" fill-opacity="1" /><path clip-path="url(#clip930)" d="M372.548 936.994 L389.123 936.994 L389.123 940.991 L366.835 940.991 L366.835 936.994 Q369.539 934.197 374.194 929.495 Q378.872 924.769 380.071 923.406 Q382.352 920.843 383.245 919.08 Q384.162 917.293 384.162 915.577 Q384.162 912.779 382.187 911.016 Q380.236 909.253 377.086 909.253 Q374.852 909.253 372.36 910.029 Q369.892 910.805 367.07 912.38 L367.07 907.584 Q369.939 906.432 372.431 905.844 Q374.923 905.256 376.992 905.256 Q382.446 905.256 385.69 907.983 Q388.935 910.711 388.935 915.271 Q388.935 917.434 388.112 919.386 Q387.312 921.313 385.173 923.947 Q384.585 924.628 381.435 927.896 Q378.285 931.14 372.548 936.994 Z" fill="#000000" fill-rule="nonzero" fill-opacity="1" /><path clip-path="url(#clip930)" d="M301.893 822.18 L311.441 822.18 L311.441 789.223 L301.053 791.306 L301.053 785.982 L311.383 783.899 L317.228 783.899 L317.228 822.18 L326.777 822.18 L326.777 827.099 L301.893 827.099 L301.893 822.18 Z" fill="#000000" fill-rule="nonzero" fill-opacity="1" /><path clip-path="url(#clip930)" d="M351.082 787.747 Q346.568 787.747 344.282 792.203 Q342.025 796.631 342.025 805.543 Q342.025 814.426 344.282 818.882 Q346.568 823.309 351.082 823.309 Q355.625 823.309 357.882 818.882 Q360.168 814.426 360.168 805.543 Q360.168 796.631 357.882 792.203 Q355.625 787.747 351.082 787.747 M351.082 783.118 Q358.345 783.118 362.164 788.876 Q366.013 794.605 366.013 805.543 Q366.013 816.451 362.164 822.209 Q358.345 827.938 351.082 827.938 Q343.819 827.938 339.971 822.209 Q336.152 816.451 336.152 805.543 Q336.152 794.605 339.971 788.876 Q343.819 783.118 351.082 783.118 Z" fill="#000000" fill-rule="nonzero" fill-opacity="1" /><path clip-path="url(#clip930)" d="M381.882 773.911 Q385.291 774.64 387.195 776.944 Q389.123 779.247 389.123 782.633 Q389.123 787.829 385.549 790.673 Q381.976 793.518 375.393 793.518 Q373.183 793.518 370.832 793.071 Q368.505 792.648 366.013 791.778 L366.013 787.194 Q367.987 788.346 370.338 788.933 Q372.689 789.521 375.252 789.521 Q379.719 789.521 382.046 787.758 Q384.397 785.995 384.397 782.633 Q384.397 779.53 382.211 777.79 Q380.048 776.027 376.169 776.027 L372.078 776.027 L372.078 772.124 L376.357 772.124 Q379.86 772.124 381.717 770.737 Q383.574 769.326 383.574 766.693 Q383.574 763.99 381.647 762.556 Q379.742 761.098 376.169 761.098 Q374.217 761.098 371.984 761.521 Q369.751 761.944 367.07 762.838 L367.07 758.606 Q369.774 757.854 372.125 757.478 Q374.5 757.101 376.592 757.101 Q381.999 757.101 385.149 759.57 Q388.3 762.015 388.3 766.2 Q388.3 769.115 386.631 771.137 Q384.961 773.135 381.882 773.911 Z" fill="#000000" fill-rule="nonzero" fill-opacity="1" /><path clip-path="url(#clip930)" d="M299.424 674.025 L308.973 674.025 L308.973 641.068 L298.585 643.152 L298.585 637.827 L308.915 635.744 L314.76 635.744 L314.76 674.025 L324.308 674.025 L324.308 678.944 L299.424 678.944 L299.424 674.025 Z" fill="#000000" fill-rule="nonzero" fill-opacity="1" /><path clip-path="url(#clip930)" d="M348.614 639.593 Q344.1 639.593 341.814 644.049 Q339.557 648.476 339.557 657.388 Q339.557 666.271 341.814 670.727 Q344.1 675.154 348.614 675.154 Q353.156 675.154 355.413 670.727 Q357.699 666.271 357.699 657.388 Q357.699 648.476 355.413 644.049 Q353.156 639.593 348.614 639.593 M348.614 634.963 Q355.876 634.963 359.696 640.721 Q363.544 646.45 363.544 657.388 Q363.544 668.296 359.696 674.054 Q355.876 679.783 348.614 679.783 Q341.351 679.783 337.503 674.054 Q333.683 668.296 333.683 657.388 Q333.683 646.45 337.503 640.721 Q341.351 634.963 348.614 634.963 Z" fill="#000000" fill-rule="nonzero" fill-opacity="1" /><path clip-path="url(#clip930)" d="M379.39 613.719 L367.4 632.456 L379.39 632.456 L379.39 613.719 M378.144 609.581 L384.115 609.581 L384.115 632.456 L389.123 632.456 L389.123 636.406 L384.115 636.406 L384.115 644.681 L379.39 644.681 L379.39 636.406 L363.544 636.406 L363.544 631.821 L378.144 609.581 Z" fill="#000000" fill-rule="nonzero" fill-opacity="1" /><path clip-path="url(#clip930)" d="M302.292 525.87 L311.841 525.87 L311.841 492.913 L301.453 494.997 L301.453 489.673 L311.783 487.589 L317.628 487.589 L317.628 525.87 L327.176 525.87 L327.176 530.789 L302.292 530.789 L302.292 525.87 Z" fill="#000000" fill-rule="nonzero" fill-opacity="1" /><path clip-path="url(#clip930)" d="M351.482 491.438 Q346.968 491.438 344.682 495.894 Q342.425 500.321 342.425 509.233 Q342.425 518.116 344.682 522.572 Q346.968 526.999 351.482 526.999 Q356.025 526.999 358.281 522.572 Q360.567 518.116 360.567 509.233 Q360.567 500.321 358.281 495.894 Q356.025 491.438 351.482 491.438 M351.482 486.808 Q358.744 486.808 362.564 492.566 Q366.412 498.295 366.412 509.233 Q366.412 520.141 362.564 525.899 Q358.744 531.628 351.482 531.628 Q344.219 531.628 340.371 525.899 Q336.551 520.141 336.551 509.233 Q336.551 498.295 340.371 492.566 Q344.219 486.808 351.482 486.808 Z" fill="#000000" fill-rule="nonzero" fill-opacity="1" /><path clip-path="url(#clip930)" d="M367.893 461.426 L386.537 461.426 L386.537 465.423 L372.243 465.423 L372.243 474.027 Q373.277 473.675 374.311 473.51 Q375.346 473.322 376.38 473.322 Q382.258 473.322 385.69 476.543 Q389.123 479.764 389.123 485.265 Q389.123 490.931 385.596 494.081 Q382.07 497.208 375.652 497.208 Q373.442 497.208 371.138 496.832 Q368.857 496.456 366.412 495.703 L366.412 490.931 Q368.528 492.083 370.785 492.647 Q373.042 493.211 375.557 493.211 Q379.625 493.211 381.999 491.072 Q384.374 488.933 384.374 485.265 Q384.374 481.598 381.999 479.458 Q379.625 477.319 375.557 477.319 Q373.653 477.319 371.749 477.742 Q369.868 478.165 367.893 479.059 L367.893 461.426 Z" fill="#000000" fill-rule="nonzero" fill-opacity="1" /><path clip-path="url(#clip930)" d="M300.764 377.715 L310.313 377.715 L310.313 344.758 L299.925 346.842 L299.925 341.518 L310.255 339.434 L316.1 339.434 L316.1 377.715 L325.648 377.715 L325.648 382.634 L300.764 382.634 L300.764 377.715 Z" fill="#000000" fill-rule="nonzero" fill-opacity="1" /><path clip-path="url(#clip930)" d="M349.954 343.283 Q345.44 343.283 343.154 347.739 Q340.897 352.166 340.897 361.078 Q340.897 369.961 343.154 374.417 Q345.44 378.844 349.954 378.844 Q354.496 378.844 356.753 374.417 Q359.039 369.961 359.039 361.078 Q359.039 352.166 356.753 347.739 Q354.496 343.283 349.954 343.283 M349.954 338.653 Q357.216 338.653 361.036 344.411 Q364.884 350.14 364.884 361.078 Q364.884 371.986 361.036 377.744 Q357.216 383.473 349.954 383.473 Q342.691 383.473 338.843 377.744 Q335.023 371.986 335.023 361.078 Q335.023 350.14 338.843 344.411 Q342.691 338.653 349.954 338.653 Z" fill="#000000" fill-rule="nonzero" fill-opacity="1" /><path clip-path="url(#clip930)" d="M377.415 328.929 Q374.217 328.929 372.337 331.115 Q370.479 333.302 370.479 337.11 Q370.479 340.895 372.337 343.105 Q374.217 345.292 377.415 345.292 Q380.612 345.292 382.469 343.105 Q384.35 340.895 384.35 337.11 Q384.35 333.302 382.469 331.115 Q380.612 328.929 377.415 328.929 M386.842 314.047 L386.842 318.373 Q385.055 317.527 383.222 317.08 Q381.411 316.633 379.625 316.633 Q374.923 316.633 372.431 319.807 Q369.962 322.981 369.61 329.399 Q370.997 327.354 373.089 326.272 Q375.181 325.167 377.697 325.167 Q382.987 325.167 386.043 328.388 Q389.123 331.585 389.123 337.11 Q389.123 342.517 385.925 345.785 Q382.728 349.053 377.415 349.053 Q371.326 349.053 368.105 344.398 Q364.884 339.72 364.884 330.857 Q364.884 322.534 368.834 317.597 Q372.783 312.637 379.437 312.637 Q381.223 312.637 383.034 312.989 Q384.867 313.342 386.842 314.047 Z" fill="#000000" fill-rule="nonzero" fill-opacity="1" /><path clip-path="url(#clip930)" d="M302.433 229.56 L311.982 229.56 L311.982 196.603 L301.594 198.687 L301.594 193.363 L311.924 191.279 L317.769 191.279 L317.769 229.56 L327.317 229.56 L327.317 234.479 L302.433 234.479 L302.433 229.56 Z" fill="#000000" fill-rule="nonzero" fill-opacity="1" /><path clip-path="url(#clip930)" d="M351.623 195.128 Q347.109 195.128 344.823 199.584 Q342.566 204.011 342.566 212.923 Q342.566 221.806 344.823 226.262 Q347.109 230.689 351.623 230.689 Q356.166 230.689 358.423 226.262 Q360.708 221.806 360.708 212.923 Q360.708 204.011 358.423 199.584 Q356.166 195.128 351.623 195.128 M351.623 190.498 Q358.885 190.498 362.705 196.256 Q366.553 201.985 366.553 212.923 Q366.553 223.831 362.705 229.589 Q358.885 235.318 351.623 235.318 Q344.36 235.318 340.512 229.589 Q336.692 223.831 336.692 212.923 Q336.692 201.985 340.512 196.256 Q344.36 190.498 351.623 190.498 Z" fill="#000000" fill-rule="nonzero" fill-opacity="1" /><path clip-path="url(#clip930)" d="M366.553 165.116 L389.123 165.116 L389.123 167.138 L376.38 200.216 L371.42 200.216 L383.41 169.113 L366.553 169.113 L366.553 165.116 Z" fill="#000000" fill-rule="nonzero" fill-opacity="1" /><path clip-path="url(#clip930)" d="M300.929 81.4055 L310.477 81.4055 L310.477 48.4485 L300.09 50.5318 L300.09 45.2077 L310.419 43.1244 L316.264 43.1244 L316.264 81.4055 L325.813 81.4055 L325.813 86.3244 L300.929 86.3244 L300.929 81.4055 Z" fill="#000000" fill-rule="nonzero" fill-opacity="1" /><path clip-path="url(#clip930)" d="M350.118 46.9728 Q345.604 46.9728 343.318 51.4288 Q341.062 55.8558 341.062 64.7678 Q341.062 73.6509 343.318 78.1069 Q345.604 82.5339 350.118 82.5339 Q354.661 82.5339 356.918 78.1069 Q359.204 73.6509 359.204 64.7678 Q359.204 55.8558 356.918 51.4288 Q354.661 46.9728 350.118 46.9728 M350.118 42.3432 Q357.381 42.3432 361.2 48.1012 Q365.049 53.8304 365.049 64.7678 Q365.049 75.6763 361.2 81.4344 Q357.381 87.1635 350.118 87.1635 Q342.855 87.1635 339.007 81.4344 Q335.188 75.6763 335.188 64.7678 Q335.188 53.8304 339.007 48.1012 Q342.855 42.3432 350.118 42.3432 Z" fill="#000000" fill-rule="nonzero" fill-opacity="1" /><path clip-path="url(#clip930)" d="M377.086 35.393 Q373.7 35.393 371.749 37.2033 Q369.821 39.0135 369.821 42.1873 Q369.821 45.3611 371.749 47.1714 Q373.7 48.9816 377.086 48.9816 Q380.471 48.9816 382.422 47.1714 Q384.374 45.3376 384.374 42.1873 Q384.374 39.0135 382.422 37.2033 Q380.495 35.393 377.086 35.393 M372.337 33.3712 Q369.28 32.6189 367.564 30.5265 Q365.871 28.4341 365.871 25.4249 Q365.871 21.2167 368.857 18.7717 Q371.866 16.3266 377.086 16.3266 Q382.328 16.3266 385.314 18.7717 Q388.3 21.2167 388.3 25.4249 Q388.3 28.4341 386.584 30.5265 Q384.891 32.6189 381.858 33.3712 Q385.291 34.1705 387.195 36.498 Q389.123 38.8254 389.123 42.1873 Q389.123 47.2889 385.996 50.0161 Q382.893 52.7432 377.086 52.7432 Q371.279 52.7432 368.152 50.0161 Q365.049 47.2889 365.049 42.1873 Q365.049 38.8254 366.976 36.498 Q368.904 34.1705 372.337 33.3712 M370.597 25.8716 Q370.597 28.5987 372.29 30.1268 Q374.006 31.655 377.086 31.655 Q380.142 31.655 381.858 30.1268 Q383.598 28.5987 383.598 25.8716 Q383.598 23.1445 381.858 21.6163 Q380.142 20.0882 377.086 20.0882 Q374.006 20.0882 372.29 21.6163 Q370.597 23.1445 370.597 25.8716 Z" fill="#000000" fill-rule="nonzero" fill-opacity="1" /><path clip-path="url(#clip930)" d="M146.592 1372.76 L156.453 1372.76 Q152.055 1377.48 149.879 1382.85 Q147.703 1388.17 147.703 1394.19 Q147.703 1406.04 154.971 1412.34 Q162.194 1418.64 175.897 1418.64 Q189.555 1418.64 196.823 1412.34 Q204.045 1406.04 204.045 1394.19 Q204.045 1388.17 201.869 1382.85 Q199.693 1377.48 195.295 1372.76 L205.064 1372.76 Q208.397 1377.66 210.064 1383.17 Q211.73 1388.64 211.73 1394.75 Q211.73 1410.44 202.147 1419.47 Q192.518 1428.5 175.897 1428.5 Q159.231 1428.5 149.647 1419.47 Q140.018 1410.44 140.018 1394.75 Q140.018 1388.54 141.685 1383.08 Q143.305 1377.57 146.592 1372.76 Z" fill="#000000" fill-rule="nonzero" fill-opacity="1" /><path clip-path="url(#clip930)" d="M164.508 1338.59 Q164.508 1345.44 169.879 1349.42 Q175.203 1353.4 184.508 1353.4 Q193.814 1353.4 199.184 1349.47 Q204.508 1345.49 204.508 1338.59 Q204.508 1331.78 199.138 1327.8 Q193.768 1323.82 184.508 1323.82 Q175.295 1323.82 169.925 1327.8 Q164.508 1331.78 164.508 1338.59 M157.286 1338.59 Q157.286 1327.48 164.508 1321.14 Q171.731 1314.79 184.508 1314.79 Q197.24 1314.79 204.508 1321.14 Q211.73 1327.48 211.73 1338.59 Q211.73 1349.75 204.508 1356.09 Q197.24 1362.39 184.508 1362.39 Q171.731 1362.39 164.508 1356.09 Q157.286 1349.75 157.286 1338.59 Z" fill="#000000" fill-rule="nonzero" fill-opacity="1" /><path clip-path="url(#clip930)" d="M168.49 1260.3 Q162.749 1257.11 160.018 1252.66 Q157.286 1248.22 157.286 1242.2 Q157.286 1234.1 162.981 1229.7 Q168.629 1225.3 179.092 1225.3 L210.388 1225.3 L210.388 1233.87 L179.37 1233.87 Q171.916 1233.87 168.305 1236.51 Q164.694 1239.15 164.694 1244.56 Q164.694 1251.18 169.092 1255.03 Q173.49 1258.87 181.082 1258.87 L210.388 1258.87 L210.388 1267.43 L179.37 1267.43 Q171.87 1267.43 168.305 1270.07 Q164.694 1272.71 164.694 1278.22 Q164.694 1284.75 169.138 1288.59 Q173.536 1292.43 181.082 1292.43 L210.388 1292.43 L210.388 1301 L158.536 1301 L158.536 1292.43 L166.592 1292.43 Q161.823 1289.52 159.555 1285.44 Q157.286 1281.37 157.286 1275.77 Q157.286 1270.12 160.157 1266.18 Q163.027 1262.2 168.49 1260.3 Z" fill="#000000" fill-rule="nonzero" fill-opacity="1" /><path clip-path="url(#clip930)" d="M202.61 1200.07 L230.11 1200.07 L230.11 1208.64 L158.536 1208.64 L158.536 1200.07 L166.407 1200.07 Q161.777 1197.39 159.555 1193.31 Q157.286 1189.19 157.286 1183.5 Q157.286 1174.05 164.786 1168.17 Q172.286 1162.25 184.508 1162.25 Q196.731 1162.25 204.23 1168.17 Q211.73 1174.05 211.73 1183.5 Q211.73 1189.19 209.508 1193.31 Q207.24 1197.39 202.61 1200.07 M184.508 1171.09 Q175.11 1171.09 169.786 1174.98 Q164.416 1178.82 164.416 1185.58 Q164.416 1192.34 169.786 1196.23 Q175.11 1200.07 184.508 1200.07 Q193.906 1200.07 199.277 1196.23 Q204.601 1192.34 204.601 1185.58 Q204.601 1178.82 199.277 1174.98 Q193.906 1171.09 184.508 1171.09 Z" fill="#000000" fill-rule="nonzero" fill-opacity="1" /><path clip-path="url(#clip930)" d="M189.925 1149.01 L158.536 1149.01 L158.536 1140.49 L189.601 1140.49 Q196.962 1140.49 200.666 1137.62 Q204.323 1134.75 204.323 1129.01 Q204.323 1122.11 199.925 1118.13 Q195.527 1114.1 187.934 1114.1 L158.536 1114.1 L158.536 1105.58 L210.388 1105.58 L210.388 1114.1 L202.425 1114.1 Q207.147 1117.2 209.462 1121.32 Q211.73 1125.4 211.73 1130.81 Q211.73 1139.75 206.175 1144.38 Q200.619 1149.01 189.925 1149.01 M157.286 1127.57 L157.286 1127.57 Z" fill="#000000" fill-rule="nonzero" fill-opacity="1" /><path clip-path="url(#clip930)" d="M143.814 1079.61 L158.536 1079.61 L158.536 1062.06 L165.157 1062.06 L165.157 1079.61 L193.305 1079.61 Q199.647 1079.61 201.453 1077.9 Q203.258 1076.14 203.258 1070.81 L203.258 1062.06 L210.388 1062.06 L210.388 1070.81 Q210.388 1080.67 206.73 1084.42 Q203.027 1088.17 193.305 1088.17 L165.157 1088.17 L165.157 1094.42 L158.536 1094.42 L158.536 1088.17 L143.814 1088.17 L143.814 1079.61 Z" fill="#000000" fill-rule="nonzero" fill-opacity="1" /><path clip-path="url(#clip930)" d="M184.323 1027.29 Q184.323 1037.62 186.684 1041.6 Q189.045 1045.58 194.74 1045.58 Q199.277 1045.58 201.962 1042.62 Q204.601 1039.61 204.601 1034.47 Q204.601 1027.39 199.601 1023.13 Q194.555 1018.82 186.221 1018.82 L184.323 1018.82 L184.323 1027.29 M180.805 1010.3 L210.388 1010.3 L210.388 1018.82 L202.518 1018.82 Q207.24 1021.74 209.508 1026.09 Q211.73 1030.44 211.73 1036.74 Q211.73 1044.7 207.286 1049.42 Q202.795 1054.1 195.295 1054.1 Q186.545 1054.1 182.101 1048.27 Q177.657 1042.39 177.657 1030.77 L177.657 1018.82 L176.823 1018.82 Q170.944 1018.82 167.749 1022.71 Q164.508 1026.55 164.508 1033.54 Q164.508 1037.99 165.573 1042.2 Q166.638 1046.42 168.768 1050.3 L160.897 1050.3 Q159.092 1045.63 158.212 1041.23 Q157.286 1036.83 157.286 1032.67 Q157.286 1021.42 163.12 1015.86 Q168.953 1010.3 180.805 1010.3 Z" fill="#000000" fill-rule="nonzero" fill-opacity="1" /><path clip-path="url(#clip930)" d="M143.814 984.332 L158.536 984.332 L158.536 966.786 L165.157 966.786 L165.157 984.332 L193.305 984.332 Q199.647 984.332 201.453 982.619 Q203.258 980.86 203.258 975.536 L203.258 966.786 L210.388 966.786 L210.388 975.536 Q210.388 985.397 206.73 989.147 Q203.027 992.897 193.305 992.897 L165.157 992.897 L165.157 999.147 L158.536 999.147 L158.536 992.897 L143.814 992.897 L143.814 984.332 Z" fill="#000000" fill-rule="nonzero" fill-opacity="1" /><path clip-path="url(#clip930)" d="M158.536 955.582 L158.536 947.064 L210.388 947.064 L210.388 955.582 L158.536 955.582 M138.351 955.582 L138.351 947.064 L149.138 947.064 L149.138 955.582 L138.351 955.582 Z" fill="#000000" fill-rule="nonzero" fill-opacity="1" /><path clip-path="url(#clip930)" d="M164.508 909.147 Q164.508 915.999 169.879 919.981 Q175.203 923.962 184.508 923.962 Q193.814 923.962 199.184 920.027 Q204.508 916.045 204.508 909.147 Q204.508 902.342 199.138 898.36 Q193.768 894.379 184.508 894.379 Q175.295 894.379 169.925 898.36 Q164.508 902.342 164.508 909.147 M157.286 909.147 Q157.286 898.036 164.508 891.694 Q171.731 885.351 184.508 885.351 Q197.24 885.351 204.508 891.694 Q211.73 898.036 211.73 909.147 Q211.73 920.305 204.508 926.647 Q197.24 932.943 184.508 932.943 Q171.731 932.943 164.508 926.647 Q157.286 920.305 157.286 909.147 Z" fill="#000000" fill-rule="nonzero" fill-opacity="1" /><path clip-path="url(#clip930)" d="M179.092 828.129 L210.388 828.129 L210.388 836.648 L179.37 836.648 Q172.008 836.648 168.351 839.518 Q164.694 842.388 164.694 848.129 Q164.694 855.027 169.092 859.009 Q173.49 862.99 181.082 862.99 L210.388 862.99 L210.388 871.555 L158.536 871.555 L158.536 862.99 L166.592 862.99 Q161.916 859.935 159.601 855.814 Q157.286 851.648 157.286 846.231 Q157.286 837.296 162.842 832.712 Q168.351 828.129 179.092 828.129 Z" fill="#000000" fill-rule="nonzero" fill-opacity="1" /><path clip-path="url(#clip930)" d="M184.323 787.574 Q184.323 797.898 186.684 801.879 Q189.045 805.861 194.74 805.861 Q199.277 805.861 201.962 802.898 Q204.601 799.889 204.601 794.75 Q204.601 787.666 199.601 783.407 Q194.555 779.102 186.221 779.102 L184.323 779.102 L184.323 787.574 M180.805 770.583 L210.388 770.583 L210.388 779.102 L202.518 779.102 Q207.24 782.018 209.508 786.37 Q211.73 790.722 211.73 797.018 Q211.73 804.981 207.286 809.703 Q202.795 814.379 195.295 814.379 Q186.545 814.379 182.101 808.546 Q177.657 802.666 177.657 791.046 L177.657 779.102 L176.823 779.102 Q170.944 779.102 167.749 782.991 Q164.508 786.833 164.508 793.824 Q164.508 798.268 165.573 802.481 Q166.638 806.694 168.768 810.583 L160.897 810.583 Q159.092 805.907 158.212 801.509 Q157.286 797.111 157.286 792.944 Q157.286 781.694 163.12 776.139 Q168.953 770.583 180.805 770.583 Z" fill="#000000" fill-rule="nonzero" fill-opacity="1" /><path clip-path="url(#clip930)" d="M138.351 753.037 L138.351 744.519 L210.388 744.519 L210.388 753.037 L138.351 753.037 Z" fill="#000000" fill-rule="nonzero" fill-opacity="1" /><path clip-path="url(#clip930)" d="M143.814 688.13 L158.536 688.13 L158.536 670.584 L165.157 670.584 L165.157 688.13 L193.305 688.13 Q199.647 688.13 201.453 686.417 Q203.258 684.658 203.258 679.334 L203.258 670.584 L210.388 670.584 L210.388 679.334 Q210.388 689.195 206.73 692.945 Q203.027 696.695 193.305 696.695 L165.157 696.695 L165.157 702.945 L158.536 702.945 L158.536 696.695 L143.814 696.695 L143.814 688.13 Z" fill="#000000" fill-rule="nonzero" fill-opacity="1" /><path clip-path="url(#clip930)" d="M158.536 659.38 L158.536 650.862 L210.388 650.862 L210.388 659.38 L158.536 659.38 M138.351 659.38 L138.351 650.862 L149.138 650.862 L149.138 659.38 L138.351 659.38 Z" fill="#000000" fill-rule="nonzero" fill-opacity="1" /><path clip-path="url(#clip930)" d="M168.49 592.667 Q162.749 589.473 160.018 585.029 Q157.286 580.584 157.286 574.566 Q157.286 566.464 162.981 562.066 Q168.629 557.668 179.092 557.668 L210.388 557.668 L210.388 566.232 L179.37 566.232 Q171.916 566.232 168.305 568.871 Q164.694 571.51 164.694 576.927 Q164.694 583.547 169.092 587.39 Q173.49 591.232 181.082 591.232 L210.388 591.232 L210.388 599.797 L179.37 599.797 Q171.87 599.797 168.305 602.436 Q164.694 605.075 164.694 610.584 Q164.694 617.112 169.138 620.954 Q173.536 624.797 181.082 624.797 L210.388 624.797 L210.388 633.362 L158.536 633.362 L158.536 624.797 L166.592 624.797 Q161.823 621.88 159.555 617.806 Q157.286 613.732 157.286 608.13 Q157.286 602.482 160.157 598.547 Q163.027 594.566 168.49 592.667 Z" fill="#000000" fill-rule="nonzero" fill-opacity="1" /><path clip-path="url(#clip930)" d="M182.332 496.325 L186.499 496.325 L186.499 535.492 Q195.295 534.936 199.925 530.214 Q204.508 525.446 204.508 516.973 Q204.508 512.066 203.305 507.483 Q202.101 502.853 199.693 498.316 L207.749 498.316 Q209.693 502.899 210.712 507.714 Q211.73 512.529 211.73 517.483 Q211.73 529.89 204.508 537.159 Q197.286 544.381 184.971 544.381 Q172.24 544.381 164.786 537.529 Q157.286 530.631 157.286 518.964 Q157.286 508.501 164.046 502.436 Q170.758 496.325 182.332 496.325 M179.832 504.844 Q172.842 504.936 168.675 508.779 Q164.508 512.575 164.508 518.872 Q164.508 526.001 168.536 530.307 Q172.564 534.566 179.879 535.214 L179.832 504.844 Z" fill="#000000" fill-rule="nonzero" fill-opacity="1" /><path clip-path="url(#clip930)" d="M138.444 431.742 Q149.092 437.946 159.509 440.955 Q169.925 443.965 180.62 443.965 Q191.314 443.965 201.823 440.955 Q212.286 437.9 222.888 431.742 L222.888 439.15 Q212.008 446.094 201.499 449.566 Q190.99 452.992 180.62 452.992 Q170.295 452.992 159.833 449.566 Q149.37 446.14 138.444 439.15 L138.444 431.742 Z" fill="#000000" fill-rule="nonzero" fill-opacity="1" /><path clip-path="url(#clip930)" d="M160.064 382.159 L168.12 382.159 Q166.268 385.77 165.342 389.659 Q164.416 393.548 164.416 397.715 Q164.416 404.057 166.36 407.252 Q168.305 410.4 172.194 410.4 Q175.157 410.4 176.87 408.131 Q178.536 405.863 180.064 399.011 L180.712 396.094 Q182.657 387.02 186.221 383.224 Q189.74 379.382 196.082 379.382 Q203.305 379.382 207.518 385.122 Q211.73 390.817 211.73 400.817 Q211.73 404.983 210.897 409.52 Q210.11 414.011 208.49 419.011 L199.693 419.011 Q202.147 414.289 203.397 409.706 Q204.601 405.122 204.601 400.631 Q204.601 394.613 202.564 391.372 Q200.481 388.132 196.731 388.132 Q193.258 388.132 191.406 390.493 Q189.555 392.807 187.842 400.724 L187.147 403.687 Q185.481 411.604 182.055 415.122 Q178.582 418.641 172.564 418.641 Q165.249 418.641 161.268 413.455 Q157.286 408.27 157.286 398.733 Q157.286 394.011 157.981 389.844 Q158.675 385.678 160.064 382.159 Z" fill="#000000" fill-rule="nonzero" fill-opacity="1" /><path clip-path="url(#clip930)" d="M182.332 321.465 L186.499 321.465 L186.499 360.632 Q195.295 360.076 199.925 355.354 Q204.508 350.585 204.508 342.113 Q204.508 337.206 203.305 332.623 Q202.101 327.993 199.693 323.456 L207.749 323.456 Q209.693 328.039 210.712 332.854 Q211.73 337.669 211.73 342.623 Q211.73 355.03 204.508 362.298 Q197.286 369.521 184.971 369.521 Q172.24 369.521 164.786 362.669 Q157.286 355.771 157.286 344.104 Q157.286 333.641 164.046 327.576 Q170.758 321.465 182.332 321.465 M179.832 329.984 Q172.842 330.076 168.675 333.919 Q164.508 337.715 164.508 344.011 Q164.508 351.141 168.536 355.447 Q172.564 359.706 179.879 360.354 L179.832 329.984 Z" fill="#000000" fill-rule="nonzero" fill-opacity="1" /><path clip-path="url(#clip930)" d="M160.527 270.169 L168.49 270.169 Q166.499 273.78 165.527 277.438 Q164.508 281.049 164.508 284.752 Q164.508 293.039 169.786 297.623 Q175.018 302.206 184.508 302.206 Q193.999 302.206 199.277 297.623 Q204.508 293.039 204.508 284.752 Q204.508 281.049 203.536 277.438 Q202.518 273.78 200.527 270.169 L208.397 270.169 Q210.064 273.734 210.897 277.577 Q211.73 281.373 211.73 285.678 Q211.73 297.391 204.369 304.289 Q197.008 311.188 184.508 311.188 Q171.823 311.188 164.555 304.243 Q157.286 297.252 157.286 285.123 Q157.286 281.188 158.12 277.438 Q158.907 273.688 160.527 270.169 Z" fill="#000000" fill-rule="nonzero" fill-opacity="1" /><path clip-path="url(#clip930)" d="M164.508 235.262 Q164.508 242.114 169.879 246.095 Q175.203 250.077 184.508 250.077 Q193.814 250.077 199.184 246.142 Q204.508 242.16 204.508 235.262 Q204.508 228.456 199.138 224.475 Q193.768 220.494 184.508 220.494 Q175.295 220.494 169.925 224.475 Q164.508 228.456 164.508 235.262 M157.286 235.262 Q157.286 224.151 164.508 217.808 Q171.731 211.466 184.508 211.466 Q197.24 211.466 204.508 217.808 Q211.73 224.151 211.73 235.262 Q211.73 246.419 204.508 252.762 Q197.24 259.058 184.508 259.058 Q171.731 259.058 164.508 252.762 Q157.286 246.419 157.286 235.262 Z" fill="#000000" fill-rule="nonzero" fill-opacity="1" /><path clip-path="url(#clip930)" d="M179.092 154.244 L210.388 154.244 L210.388 162.762 L179.37 162.762 Q172.008 162.762 168.351 165.633 Q164.694 168.503 164.694 174.244 Q164.694 181.142 169.092 185.123 Q173.49 189.105 181.082 189.105 L210.388 189.105 L210.388 197.67 L158.536 197.67 L158.536 189.105 L166.592 189.105 Q161.916 186.049 159.601 181.929 Q157.286 177.762 157.286 172.346 Q157.286 163.411 162.842 158.827 Q168.351 154.244 179.092 154.244 Z" fill="#000000" fill-rule="nonzero" fill-opacity="1" /><path clip-path="url(#clip930)" d="M166.407 103.133 L138.351 103.133 L138.351 94.6146 L210.388 94.6146 L210.388 103.133 L202.61 103.133 Q207.24 105.818 209.508 109.939 Q211.73 114.013 211.73 119.753 Q211.73 129.151 204.23 135.077 Q196.731 140.957 184.508 140.957 Q172.286 140.957 164.786 135.077 Q157.286 129.151 157.286 119.753 Q157.286 114.013 159.555 109.939 Q161.777 105.818 166.407 103.133 M184.508 132.161 Q193.906 132.161 199.277 128.318 Q204.601 124.429 204.601 117.67 Q204.601 110.911 199.277 107.022 Q193.906 103.133 184.508 103.133 Q175.11 103.133 169.786 107.022 Q164.416 110.911 164.416 117.67 Q164.416 124.429 169.786 128.318 Q175.11 132.161 184.508 132.161 Z" fill="#000000" fill-rule="nonzero" fill-opacity="1" /><path clip-path="url(#clip930)" d="M138.444 78.411 L138.444 71.0036 Q149.37 64.0592 159.833 60.6333 Q170.295 57.1611 180.62 57.1611 Q190.99 57.1611 201.499 60.6333 Q212.008 64.0592 222.888 71.0036 L222.888 78.411 Q212.286 72.2536 201.823 69.2444 Q191.314 66.1888 180.62 66.1888 Q169.925 66.1888 159.509 69.2444 Q149.092 72.2536 138.444 78.411 Z" fill="#000000" fill-rule="nonzero" fill-opacity="1" /><polyline clip-path="url(#clip932)" style="stroke:#ff0000; stroke-linecap:round; stroke-linejoin:round; stroke-width:8; stroke-opacity:1; fill:none" points="492.818,1399.04 904.12,1251.5 1315.42,949.762 1726.72,848.178 2138.03,772.493 2549.33,640.002 "/>
<path clip-path="url(#clip932)" d="M460.818 1367.04 L460.818 1431.04 L524.818 1431.04 L524.818 1367.04 L460.818 1367.04 Z" fill="#ff0000" fill-rule="evenodd" fill-opacity="1" stroke="#000000" stroke-opacity="1" stroke-width="3.6"/>
<path clip-path="url(#clip932)" d="M872.12 1219.5 L872.12 1283.5 L936.12 1283.5 L936.12 1219.5 L872.12 1219.5 Z" fill="#ff0000" fill-rule="evenodd" fill-opacity="1" stroke="#000000" stroke-opacity="1" stroke-width="3.6"/>
<path clip-path="url(#clip932)" d="M1283.42 917.762 L1283.42 981.762 L1347.42 981.762 L1347.42 917.762 L1283.42 917.762 Z" fill="#ff0000" fill-rule="evenodd" fill-opacity="1" stroke="#000000" stroke-opacity="1" stroke-width="3.6"/>
<path clip-path="url(#clip932)" d="M1694.72 816.178 L1694.72 880.178 L1758.72 880.178 L1758.72 816.178 L1694.72 816.178 Z" fill="#ff0000" fill-rule="evenodd" fill-opacity="1" stroke="#000000" stroke-opacity="1" stroke-width="3.6"/>
<path clip-path="url(#clip932)" d="M2106.03 740.493 L2106.03 804.493 L2170.03 804.493 L2170.03 740.493 L2106.03 740.493 Z" fill="#ff0000" fill-rule="evenodd" fill-opacity="1" stroke="#000000" stroke-opacity="1" stroke-width="3.6"/>
<path clip-path="url(#clip932)" d="M2517.33 608.002 L2517.33 672.002 L2581.33 672.002 L2581.33 608.002 L2517.33 608.002 Z" fill="#ff0000" fill-rule="evenodd" fill-opacity="1" stroke="#000000" stroke-opacity="1" stroke-width="3.6"/>
<polyline clip-path="url(#clip932)" style="stroke:#ff0000; stroke-linecap:round; stroke-linejoin:round; stroke-width:8; stroke-opacity:1; fill:none" points="492.818,1296.88 904.12,1291.81 1315.42,1285.9 1726.72,1145.9 2138.03,1075.21 2549.33,939.129 "/>
<path clip-path="url(#clip932)" d="M492.818 1264.88 L460.818 1328.88 L524.818 1328.88 L492.818 1264.88 Z" fill="#ff0000" fill-rule="evenodd" fill-opacity="1" stroke="#000000" stroke-opacity="1" stroke-width="3.6"/>
<path clip-path="url(#clip932)" d="M904.12 1259.81 L872.12 1323.81 L936.12 1323.81 L904.12 1259.81 Z" fill="#ff0000" fill-rule="evenodd" fill-opacity="1" stroke="#000000" stroke-opacity="1" stroke-width="3.6"/>
<path clip-path="url(#clip932)" d="M1315.42 1253.9 L1283.42 1317.9 L1347.42 1317.9 L1315.42 1253.9 Z" fill="#ff0000" fill-rule="evenodd" fill-opacity="1" stroke="#000000" stroke-opacity="1" stroke-width="3.6"/>
<path clip-path="url(#clip932)" d="M1726.72 1113.9 L1694.72 1177.9 L1758.72 1177.9 L1726.72 1113.9 Z" fill="#ff0000" fill-rule="evenodd" fill-opacity="1" stroke="#000000" stroke-opacity="1" stroke-width="3.6"/>
<path clip-path="url(#clip932)" d="M2138.03 1043.21 L2106.03 1107.21 L2170.03 1107.21 L2138.03 1043.21 Z" fill="#ff0000" fill-rule="evenodd" fill-opacity="1" stroke="#000000" stroke-opacity="1" stroke-width="3.6"/>
<path clip-path="url(#clip932)" d="M2549.33 907.129 L2517.33 971.129 L2581.33 971.129 L2549.33 907.129 Z" fill="#ff0000" fill-rule="evenodd" fill-opacity="1" stroke="#000000" stroke-opacity="1" stroke-width="3.6"/>
<polyline clip-path="url(#clip932)" style="stroke:#ff0000; stroke-linecap:round; stroke-linejoin:round; stroke-width:8; stroke-opacity:1; fill:none" points="492.818,827.392 904.12,679.237 1315.42,531.082 1726.72,382.927 2138.03,234.772 2549.33,86.6168 "/>
<circle clip-path="url(#clip932)" cx="492.818" cy="827.392" r="28.8" fill="#ff0000" fill-rule="evenodd" fill-opacity="1" stroke="#000000" stroke-opacity="1" stroke-width="3.6"/>
<circle clip-path="url(#clip932)" cx="904.12" cy="679.237" r="28.8" fill="#ff0000" fill-rule="evenodd" fill-opacity="1" stroke="#000000" stroke-opacity="1" stroke-width="3.6"/>
<circle clip-path="url(#clip932)" cx="1315.42" cy="531.082" r="28.8" fill="#ff0000" fill-rule="evenodd" fill-opacity="1" stroke="#000000" stroke-opacity="1" stroke-width="3.6"/>
<circle clip-path="url(#clip932)" cx="1726.72" cy="382.927" r="28.8" fill="#ff0000" fill-rule="evenodd" fill-opacity="1" stroke="#000000" stroke-opacity="1" stroke-width="3.6"/>
<circle clip-path="url(#clip932)" cx="2138.03" cy="234.772" r="28.8" fill="#ff0000" fill-rule="evenodd" fill-opacity="1" stroke="#000000" stroke-opacity="1" stroke-width="3.6"/>
<circle clip-path="url(#clip932)" cx="2549.33" cy="86.6168" r="28.8" fill="#ff0000" fill-rule="evenodd" fill-opacity="1" stroke="#000000" stroke-opacity="1" stroke-width="3.6"/>
<path clip-path="url(#clip930)" d="M503.786 508.336 L1375.48 508.336 L1375.48 93.6164 L503.786 93.6164  Z" fill="#ffffff" fill-rule="evenodd" fill-opacity="1"/>
<polyline clip-path="url(#clip930)" style="stroke:#000000; stroke-linecap:round; stroke-linejoin:round; stroke-width:4; stroke-opacity:1; fill:none" points="503.786,508.336 1375.48,508.336 1375.48,93.6164 503.786,93.6164 503.786,508.336 "/>
<polyline clip-path="url(#clip930)" style="stroke:#ff0000; stroke-linecap:round; stroke-linejoin:round; stroke-width:16; stroke-opacity:1; fill:none" points="528.007,197.296 673.334,197.296 "/>
<path clip-path="url(#clip930)" d="M589.457 186.083 L589.457 208.51 L611.884 208.51 L611.884 186.083 L589.457 186.083 Z" fill="#ff0000" fill-rule="evenodd" fill-opacity="1" stroke="#000000" stroke-opacity="1" stroke-width="5.42118"/>
<path clip-path="url(#clip930)" d="M742.045 165.005 L742.045 174.125 Q736.721 171.579 731.999 170.329 Q727.277 169.079 722.879 169.079 Q715.24 169.079 711.073 172.042 Q706.953 175.005 706.953 180.468 Q706.953 185.051 709.685 187.412 Q712.462 189.727 720.147 191.162 L725.796 192.32 Q736.258 194.31 741.212 199.357 Q746.212 204.357 746.212 212.782 Q746.212 222.829 739.453 228.014 Q732.74 233.199 719.731 233.199 Q714.823 233.199 709.268 232.088 Q703.759 230.977 697.833 228.801 L697.833 219.171 Q703.527 222.366 708.99 223.986 Q714.453 225.606 719.731 225.606 Q727.74 225.606 732.092 222.458 Q736.444 219.31 736.444 213.477 Q736.444 208.384 733.295 205.514 Q730.194 202.644 723.064 201.208 L717.37 200.097 Q706.907 198.014 702.231 193.57 Q697.555 189.125 697.555 181.209 Q697.555 172.042 703.99 166.764 Q710.472 161.486 721.814 161.486 Q726.675 161.486 731.721 162.366 Q736.768 163.246 742.045 165.005 Z" fill="#000000" fill-rule="nonzero" fill-opacity="1" /><path clip-path="url(#clip930)" d="M760.795 162.736 L770.147 162.736 L770.147 231.856 L760.795 231.856 L760.795 162.736 Z" fill="#000000" fill-rule="nonzero" fill-opacity="1" /><path clip-path="url(#clip930)" d="M788.758 162.736 L802.693 162.736 L820.332 209.773 L838.063 162.736 L851.999 162.736 L851.999 231.856 L842.878 231.856 L842.878 171.162 L825.054 218.569 L815.656 218.569 L797.832 171.162 L797.832 231.856 L788.758 231.856 L788.758 162.736 Z" fill="#000000" fill-rule="nonzero" fill-opacity="1" /><path clip-path="url(#clip930)" d="M893.665 171.949 L880.98 206.347 L906.396 206.347 L893.665 171.949 M888.387 162.736 L898.989 162.736 L925.332 231.856 L915.609 231.856 L909.313 214.125 L878.156 214.125 L871.86 231.856 L861.999 231.856 L888.387 162.736 Z" fill="#000000" fill-rule="nonzero" fill-opacity="1" /><path clip-path="url(#clip930)" d="M944.776 170.422 L944.776 224.171 L956.072 224.171 Q970.378 224.171 976.998 217.69 Q983.665 211.208 983.665 197.227 Q983.665 183.338 976.998 176.903 Q970.378 170.422 956.072 170.422 L944.776 170.422 M935.424 162.736 L954.637 162.736 Q974.729 162.736 984.127 171.116 Q993.526 179.449 993.526 197.227 Q993.526 215.097 984.081 223.477 Q974.637 231.856 954.637 231.856 L935.424 231.856 L935.424 162.736 Z" fill="#000000" fill-rule="nonzero" fill-opacity="1" /><path clip-path="url(#clip930)" d="M1029.64 236.671 Q1026.03 245.93 1022.6 248.754 Q1019.17 251.579 1013.43 251.579 L1006.63 251.579 L1006.63 244.449 L1011.63 244.449 Q1015.15 244.449 1017.09 242.782 Q1019.03 241.116 1021.4 234.912 L1022.92 231.023 L1001.95 180.005 L1010.98 180.005 L1027.18 220.56 L1043.39 180.005 L1052.41 180.005 L1029.64 236.671 Z" fill="#000000" fill-rule="nonzero" fill-opacity="1" /><path clip-path="url(#clip930)" d="M1114.77 159.912 Q1108.57 170.56 1105.56 180.977 Q1102.55 191.394 1102.55 202.088 Q1102.55 212.782 1105.56 223.292 Q1108.62 233.755 1114.77 244.356 L1107.37 244.356 Q1100.42 233.477 1096.95 222.968 Q1093.53 212.458 1093.53 202.088 Q1093.53 191.764 1096.95 181.301 Q1100.38 170.838 1107.37 159.912 L1114.77 159.912 Z" fill="#000000" fill-rule="nonzero" fill-opacity="1" /><path clip-path="url(#clip930)" d="M1183.43 168.06 L1183.43 177.922 Q1178.71 173.523 1173.34 171.347 Q1168.02 169.172 1162 169.172 Q1150.15 169.172 1143.85 176.44 Q1137.55 183.662 1137.55 197.366 Q1137.55 211.023 1143.85 218.292 Q1150.15 225.514 1162 225.514 Q1168.02 225.514 1173.34 223.338 Q1178.71 221.162 1183.43 216.764 L1183.43 226.532 Q1178.52 229.866 1173.02 231.532 Q1167.55 233.199 1161.44 233.199 Q1145.75 233.199 1136.72 223.616 Q1127.69 213.986 1127.69 197.366 Q1127.69 180.699 1136.72 171.116 Q1145.75 161.486 1161.44 161.486 Q1167.65 161.486 1173.11 163.153 Q1178.62 164.773 1183.43 168.06 Z" fill="#000000" fill-rule="nonzero" fill-opacity="1" /><path clip-path="url(#clip930)" d="M1207.23 170.422 L1207.23 196.394 L1218.99 196.394 Q1225.52 196.394 1229.08 193.014 Q1232.64 189.634 1232.64 183.384 Q1232.64 177.181 1229.08 173.801 Q1225.52 170.422 1218.99 170.422 L1207.23 170.422 M1197.88 162.736 L1218.99 162.736 Q1230.61 162.736 1236.53 168.014 Q1242.51 173.246 1242.51 183.384 Q1242.51 193.616 1236.53 198.847 Q1230.61 204.079 1218.99 204.079 L1207.23 204.079 L1207.23 231.856 L1197.88 231.856 L1197.88 162.736 Z" fill="#000000" fill-rule="nonzero" fill-opacity="1" /><path clip-path="url(#clip930)" d="M1253.99 162.736 L1263.39 162.736 L1263.39 204.727 Q1263.39 215.838 1267.41 220.745 Q1271.44 225.606 1280.47 225.606 Q1289.45 225.606 1293.48 220.745 Q1297.51 215.838 1297.51 204.727 L1297.51 162.736 L1306.9 162.736 L1306.9 205.884 Q1306.9 219.403 1300.19 226.301 Q1293.52 233.199 1280.47 233.199 Q1267.37 233.199 1260.65 226.301 Q1253.99 219.403 1253.99 205.884 L1253.99 162.736 Z" fill="#000000" fill-rule="nonzero" fill-opacity="1" /><path clip-path="url(#clip930)" d="M1322.74 159.912 L1330.14 159.912 Q1337.09 170.838 1340.51 181.301 Q1343.99 191.764 1343.99 202.088 Q1343.99 212.458 1340.51 222.968 Q1337.09 233.477 1330.14 244.356 L1322.74 244.356 Q1328.89 233.755 1331.9 223.292 Q1334.96 212.782 1334.96 202.088 Q1334.96 191.394 1331.9 180.977 Q1328.89 170.56 1322.74 159.912 Z" fill="#000000" fill-rule="nonzero" fill-opacity="1" /><polyline clip-path="url(#clip930)" style="stroke:#ff0000; stroke-linecap:round; stroke-linejoin:round; stroke-width:16; stroke-opacity:1; fill:none" points="528.007,300.976 673.334,300.976 "/>
<path clip-path="url(#clip930)" d="M600.67 289.763 L589.457 312.19 L611.884 312.19 L600.67 289.763 Z" fill="#ff0000" fill-rule="evenodd" fill-opacity="1" stroke="#000000" stroke-opacity="1" stroke-width="5.42118"/>
<path clip-path="url(#clip930)" d="M742.045 268.685 L742.045 277.805 Q736.721 275.259 731.999 274.009 Q727.277 272.759 722.879 272.759 Q715.24 272.759 711.073 275.722 Q706.953 278.685 706.953 284.148 Q706.953 288.731 709.685 291.092 Q712.462 293.407 720.147 294.842 L725.796 296 Q736.258 297.99 741.212 303.037 Q746.212 308.037 746.212 316.462 Q746.212 326.509 739.453 331.694 Q732.74 336.879 719.731 336.879 Q714.823 336.879 709.268 335.768 Q703.759 334.657 697.833 332.481 L697.833 322.851 Q703.527 326.046 708.99 327.666 Q714.453 329.286 719.731 329.286 Q727.74 329.286 732.092 326.138 Q736.444 322.99 736.444 317.157 Q736.444 312.064 733.295 309.194 Q730.194 306.324 723.064 304.888 L717.37 303.777 Q706.907 301.694 702.231 297.25 Q697.555 292.805 697.555 284.889 Q697.555 275.722 703.99 270.444 Q710.472 265.166 721.814 265.166 Q726.675 265.166 731.721 266.046 Q736.768 266.926 742.045 268.685 Z" fill="#000000" fill-rule="nonzero" fill-opacity="1" /><path clip-path="url(#clip930)" d="M760.795 266.416 L770.147 266.416 L770.147 335.536 L760.795 335.536 L760.795 266.416 Z" fill="#000000" fill-rule="nonzero" fill-opacity="1" /><path clip-path="url(#clip930)" d="M788.758 266.416 L802.693 266.416 L820.332 313.453 L838.063 266.416 L851.999 266.416 L851.999 335.536 L842.878 335.536 L842.878 274.842 L825.054 322.249 L815.656 322.249 L797.832 274.842 L797.832 335.536 L788.758 335.536 L788.758 266.416 Z" fill="#000000" fill-rule="nonzero" fill-opacity="1" /><path clip-path="url(#clip930)" d="M893.665 275.629 L880.98 310.027 L906.396 310.027 L893.665 275.629 M888.387 266.416 L898.989 266.416 L925.332 335.536 L915.609 335.536 L909.313 317.805 L878.156 317.805 L871.86 335.536 L861.999 335.536 L888.387 266.416 Z" fill="#000000" fill-rule="nonzero" fill-opacity="1" /><path clip-path="url(#clip930)" d="M944.776 274.102 L944.776 327.851 L956.072 327.851 Q970.378 327.851 976.998 321.37 Q983.665 314.888 983.665 300.907 Q983.665 287.018 976.998 280.583 Q970.378 274.102 956.072 274.102 L944.776 274.102 M935.424 266.416 L954.637 266.416 Q974.729 266.416 984.127 274.796 Q993.526 283.129 993.526 300.907 Q993.526 318.777 984.081 327.157 Q974.637 335.536 954.637 335.536 L935.424 335.536 L935.424 266.416 Z" fill="#000000" fill-rule="nonzero" fill-opacity="1" /><path clip-path="url(#clip930)" d="M1029.64 340.351 Q1026.03 349.61 1022.6 352.434 Q1019.17 355.259 1013.43 355.259 L1006.63 355.259 L1006.63 348.129 L1011.63 348.129 Q1015.15 348.129 1017.09 346.462 Q1019.03 344.796 1021.4 338.592 L1022.92 334.703 L1001.95 283.685 L1010.98 283.685 L1027.18 324.24 L1043.39 283.685 L1052.41 283.685 L1029.64 340.351 Z" fill="#000000" fill-rule="nonzero" fill-opacity="1" /><path clip-path="url(#clip930)" d="M1114.77 263.592 Q1108.57 274.24 1105.56 284.657 Q1102.55 295.074 1102.55 305.768 Q1102.55 316.462 1105.56 326.972 Q1108.62 337.435 1114.77 348.036 L1107.37 348.036 Q1100.42 337.157 1096.95 326.648 Q1093.53 316.138 1093.53 305.768 Q1093.53 295.444 1096.95 284.981 Q1100.38 274.518 1107.37 263.592 L1114.77 263.592 Z" fill="#000000" fill-rule="nonzero" fill-opacity="1" /><path clip-path="url(#clip930)" d="M1178.8 325.675 L1178.8 307.111 L1163.52 307.111 L1163.52 299.425 L1188.06 299.425 L1188.06 329.101 Q1182.64 332.944 1176.12 334.935 Q1169.59 336.879 1162.18 336.879 Q1145.98 336.879 1136.81 327.435 Q1127.69 317.944 1127.69 301.046 Q1127.69 284.101 1136.81 274.657 Q1145.98 265.166 1162.18 265.166 Q1168.94 265.166 1175.01 266.833 Q1181.12 268.5 1186.26 271.74 L1186.26 281.694 Q1181.07 277.296 1175.24 275.074 Q1169.4 272.852 1162.97 272.852 Q1150.28 272.852 1143.9 279.935 Q1137.55 287.018 1137.55 301.046 Q1137.55 315.027 1143.9 322.111 Q1150.28 329.194 1162.97 329.194 Q1167.92 329.194 1171.81 328.361 Q1175.7 327.481 1178.8 325.675 Z" fill="#000000" fill-rule="nonzero" fill-opacity="1" /><path clip-path="url(#clip930)" d="M1214.5 274.102 L1214.5 300.074 L1226.26 300.074 Q1232.78 300.074 1236.35 296.694 Q1239.91 293.314 1239.91 287.064 Q1239.91 280.861 1236.35 277.481 Q1232.78 274.102 1226.26 274.102 L1214.5 274.102 M1205.14 266.416 L1226.26 266.416 Q1237.88 266.416 1243.8 271.694 Q1249.77 276.926 1249.77 287.064 Q1249.77 297.296 1243.8 302.527 Q1237.88 307.759 1226.26 307.759 L1214.5 307.759 L1214.5 335.536 L1205.14 335.536 L1205.14 266.416 Z" fill="#000000" fill-rule="nonzero" fill-opacity="1" /><path clip-path="url(#clip930)" d="M1261.26 266.416 L1270.65 266.416 L1270.65 308.407 Q1270.65 319.518 1274.68 324.425 Q1278.71 329.286 1287.74 329.286 Q1296.72 329.286 1300.75 324.425 Q1304.77 319.518 1304.77 308.407 L1304.77 266.416 L1314.17 266.416 L1314.17 309.564 Q1314.17 323.083 1307.46 329.981 Q1300.79 336.879 1287.74 336.879 Q1274.64 336.879 1267.92 329.981 Q1261.26 323.083 1261.26 309.564 L1261.26 266.416 Z" fill="#000000" fill-rule="nonzero" fill-opacity="1" /><path clip-path="url(#clip930)" d="M1330.01 263.592 L1337.41 263.592 Q1344.36 274.518 1347.78 284.981 Q1351.26 295.444 1351.26 305.768 Q1351.26 316.138 1347.78 326.648 Q1344.36 337.157 1337.41 348.036 L1330.01 348.036 Q1336.16 337.435 1339.17 326.972 Q1342.23 316.462 1342.23 305.768 Q1342.23 295.074 1339.17 284.657 Q1336.16 274.24 1330.01 263.592 Z" fill="#000000" fill-rule="nonzero" fill-opacity="1" /><polyline clip-path="url(#clip930)" style="stroke:#ff0000; stroke-linecap:round; stroke-linejoin:round; stroke-width:16; stroke-opacity:1; fill:none" points="528.007,404.656 673.334,404.656 "/>
<circle clip-path="url(#clip930)" cx="600.67" cy="404.656" r="10.0921" fill="#ff0000" fill-rule="evenodd" fill-opacity="1" stroke="#000000" stroke-opacity="1" stroke-width="5.42118"/>
<path clip-path="url(#clip930)" d="M697.555 370.096 L711.49 370.096 L729.129 417.133 L746.86 370.096 L760.795 370.096 L760.795 439.216 L751.675 439.216 L751.675 378.522 L733.851 425.929 L724.453 425.929 L706.629 378.522 L706.629 439.216 L697.555 439.216 L697.555 370.096 Z" fill="#000000" fill-rule="nonzero" fill-opacity="1" /><path clip-path="url(#clip930)" d="M831.119 375.42 L831.119 385.282 Q826.397 380.883 821.027 378.707 Q815.702 376.532 809.684 376.532 Q797.832 376.532 791.536 383.8 Q785.24 391.022 785.24 404.726 Q785.24 418.383 791.536 425.652 Q797.832 432.874 809.684 432.874 Q815.702 432.874 821.027 430.698 Q826.397 428.522 831.119 424.124 L831.119 433.892 Q826.212 437.226 820.702 438.892 Q815.239 440.559 809.128 440.559 Q793.434 440.559 784.406 430.976 Q775.379 421.346 775.379 404.726 Q775.379 388.059 784.406 378.476 Q793.434 368.846 809.128 368.846 Q815.332 368.846 820.795 370.513 Q826.304 372.133 831.119 375.42 Z" fill="#000000" fill-rule="nonzero" fill-opacity="1" /><path clip-path="url(#clip930)" d="M845.563 370.096 L859.499 370.096 L877.137 417.133 L894.869 370.096 L908.804 370.096 L908.804 439.216 L899.683 439.216 L899.683 378.522 L881.86 425.929 L872.461 425.929 L854.637 378.522 L854.637 439.216 L845.563 439.216 L845.563 370.096 Z" fill="#000000" fill-rule="nonzero" fill-opacity="1" /></svg>
