<?xml version="1.0" encoding="utf-8"?>
<svg xmlns="http://www.w3.org/2000/svg" xmlns:xlink="http://www.w3.org/1999/xlink" width="1200" height="300" viewBox="0 0 4800 1200">
<defs>
  <clipPath id="clip660">
    <rect x="0" y="0" width="4800" height="1200"/>
  </clipPath>
</defs>
<path clip-path="url(#clip660)" d="M0 1200 L4800 1200 L4800 0 L0 0  Z" fill="#ffffff" fill-rule="evenodd" fill-opacity="1"/>
<defs>
  <clipPath id="clip661">
    <rect x="960" y="0" width="3361" height="1200"/>
  </clipPath>
</defs>
<path clip-path="url(#clip660)" d="M467.969 849.455 L4752.76 849.455 L4752.76 47.2441 L467.969 47.2441  Z" fill="#ffffff" fill-rule="evenodd" fill-opacity="1"/>
<defs>
  <clipPath id="clip662">
    <rect x="467" y="47" width="4286" height="803"/>
  </clipPath>
</defs>
<polyline clip-path="url(#clip662)" style="stroke:#000000; stroke-linecap:round; stroke-linejoin:round; stroke-width:2; stroke-opacity:0.1; fill:none" points="589.237,849.455 589.237,47.2441 "/>
<polyline clip-path="url(#clip662)" style="stroke:#000000; stroke-linecap:round; stroke-linejoin:round; stroke-width:2; stroke-opacity:0.1; fill:none" points="1397.69,849.455 1397.69,47.2441 "/>
<polyline clip-path="url(#clip662)" style="stroke:#000000; stroke-linecap:round; stroke-linejoin:round; stroke-width:2; stroke-opacity:0.1; fill:none" points="2206.14,849.455 2206.14,47.2441 "/>
<polyline clip-path="url(#clip662)" style="stroke:#000000; stroke-linecap:round; stroke-linejoin:round; stroke-width:2; stroke-opacity:0.1; fill:none" points="3014.59,849.455 3014.59,47.2441 "/>
<polyline clip-path="url(#clip662)" style="stroke:#000000; stroke-linecap:round; stroke-linejoin:round; stroke-width:2; stroke-opacity:0.1; fill:none" points="3823.04,849.455 3823.04,47.2441 "/>
<polyline clip-path="url(#clip662)" style="stroke:#000000; stroke-linecap:round; stroke-linejoin:round; stroke-width:2; stroke-opacity:0.1; fill:none" points="4631.49,849.455 4631.49,47.2441 "/>
<polyline clip-path="url(#clip662)" style="stroke:#000000; stroke-linecap:round; stroke-linejoin:round; stroke-width:2; stroke-opacity:0.1; fill:none" points="467.969,741.203 4752.76,741.203 "/>
<polyline clip-path="url(#clip662)" style="stroke:#000000; stroke-linecap:round; stroke-linejoin:round; stroke-width:2; stroke-opacity:0.1; fill:none" points="467.969,596.356 4752.76,596.356 "/>
<polyline clip-path="url(#clip662)" style="stroke:#000000; stroke-linecap:round; stroke-linejoin:round; stroke-width:2; stroke-opacity:0.1; fill:none" points="467.969,451.509 4752.76,451.509 "/>
<polyline clip-path="url(#clip662)" style="stroke:#000000; stroke-linecap:round; stroke-linejoin:round; stroke-width:2; stroke-opacity:0.1; fill:none" points="467.969,306.662 4752.76,306.662 "/>
<polyline clip-path="url(#clip662)" style="stroke:#000000; stroke-linecap:round; stroke-linejoin:round; stroke-width:2; stroke-opacity:0.1; fill:none" points="467.969,161.815 4752.76,161.815 "/>
<polyline clip-path="url(#clip660)" style="stroke:#000000; stroke-linecap:round; stroke-linejoin:round; stroke-width:4; stroke-opacity:1; fill:none" points="467.969,849.455 4752.76,849.455 "/>
<polyline clip-path="url(#clip660)" style="stroke:#000000; stroke-linecap:round; stroke-linejoin:round; stroke-width:4; stroke-opacity:1; fill:none" points="589.237,849.455 589.237,830.558 "/>
<polyline clip-path="url(#clip660)" style="stroke:#000000; stroke-linecap:round; stroke-linejoin:round; stroke-width:4; stroke-opacity:1; fill:none" points="1397.69,849.455 1397.69,830.558 "/>
<polyline clip-path="url(#clip660)" style="stroke:#000000; stroke-linecap:round; stroke-linejoin:round; stroke-width:4; stroke-opacity:1; fill:none" points="2206.14,849.455 2206.14,830.558 "/>
<polyline clip-path="url(#clip660)" style="stroke:#000000; stroke-linecap:round; stroke-linejoin:round; stroke-width:4; stroke-opacity:1; fill:none" points="3014.59,849.455 3014.59,830.558 "/>
<polyline clip-path="url(#clip660)" style="stroke:#000000; stroke-linecap:round; stroke-linejoin:round; stroke-width:4; stroke-opacity:1; fill:none" points="3823.04,849.455 3823.04,830.558 "/>
<polyline clip-path="url(#clip660)" style="stroke:#000000; stroke-linecap:round; stroke-linejoin:round; stroke-width:4; stroke-opacity:1; fill:none" points="4631.49,849.455 4631.49,830.558 "/>
<path clip-path="url(#clip660)" d="M589.237 911.293 Q582.015 911.293 578.357 918.422 Q574.746 925.506 574.746 939.765 Q574.746 953.978 578.357 961.107 Q582.015 968.191 589.237 968.191 Q596.506 968.191 600.117 961.107 Q603.774 953.978 603.774 939.765 Q603.774 925.506 600.117 918.422 Q596.506 911.293 589.237 911.293 M589.237 903.885 Q600.857 903.885 606.968 913.098 Q613.126 922.265 613.126 939.765 Q613.126 957.218 606.968 966.431 Q600.857 975.598 589.237 975.598 Q577.617 975.598 571.459 966.431 Q565.348 957.218 565.348 939.765 Q565.348 922.265 571.459 913.098 Q577.617 903.885 589.237 903.885 Z" fill="#000000" fill-rule="nonzero" fill-opacity="1" /><path clip-path="url(#clip660)" d="M1386.99 966.385 L1419.63 966.385 L1419.63 974.255 L1375.74 974.255 L1375.74 966.385 Q1381.07 960.876 1390.23 951.617 Q1399.45 942.311 1401.81 939.626 Q1406.3 934.58 1408.06 931.108 Q1409.86 927.589 1409.86 924.209 Q1409.86 918.7 1405.97 915.228 Q1402.13 911.756 1395.93 911.756 Q1391.53 911.756 1386.62 913.284 Q1381.76 914.811 1376.21 917.913 L1376.21 908.469 Q1381.85 906.2 1386.76 905.043 Q1391.67 903.885 1395.74 903.885 Q1406.48 903.885 1412.87 909.256 Q1419.26 914.626 1419.26 923.608 Q1419.26 927.867 1417.64 931.709 Q1416.07 935.506 1411.85 940.691 Q1410.7 942.033 1404.49 948.469 Q1398.29 954.857 1386.99 966.385 Z" fill="#000000" fill-rule="nonzero" fill-opacity="1" /><path clip-path="url(#clip660)" d="M2212.16 913.284 L2188.55 950.181 L2212.16 950.181 L2212.16 913.284 M2209.7 905.135 L2221.46 905.135 L2221.46 950.181 L2231.32 950.181 L2231.32 957.959 L2221.46 957.959 L2221.46 974.255 L2212.16 974.255 L2212.16 957.959 L2180.95 957.959 L2180.95 948.931 L2209.7 905.135 Z" fill="#000000" fill-rule="nonzero" fill-opacity="1" /><path clip-path="url(#clip660)" d="M3015.4 935.969 Q3009.1 935.969 3005.4 940.274 Q3001.74 944.58 3001.74 952.08 Q3001.74 959.533 3005.4 963.885 Q3009.1 968.191 3015.4 968.191 Q3021.69 968.191 3025.35 963.885 Q3029.06 959.533 3029.06 952.08 Q3029.06 944.58 3025.35 940.274 Q3021.69 935.969 3015.4 935.969 M3033.96 906.663 L3033.96 915.182 Q3030.44 913.515 3026.83 912.635 Q3023.27 911.756 3019.75 911.756 Q3010.49 911.756 3005.58 918.006 Q3000.72 924.256 3000.03 936.895 Q3002.76 932.867 3006.88 930.737 Q3011 928.561 3015.95 928.561 Q3026.37 928.561 3032.39 934.904 Q3038.45 941.2 3038.45 952.08 Q3038.45 962.728 3032.16 969.163 Q3025.86 975.598 3015.4 975.598 Q3003.41 975.598 2997.06 966.431 Q2990.72 957.218 2990.72 939.765 Q2990.72 923.376 2998.5 913.654 Q3006.28 903.885 3019.38 903.885 Q3022.9 903.885 3026.46 904.58 Q3030.07 905.274 3033.96 906.663 Z" fill="#000000" fill-rule="nonzero" fill-opacity="1" /><path clip-path="url(#clip660)" d="M3823.04 941.432 Q3816.37 941.432 3812.53 944.996 Q3808.73 948.561 3808.73 954.811 Q3808.73 961.061 3812.53 964.626 Q3816.37 968.191 3823.04 968.191 Q3829.7 968.191 3833.55 964.626 Q3837.39 961.015 3837.39 954.811 Q3837.39 948.561 3833.55 944.996 Q3829.75 941.432 3823.04 941.432 M3813.69 937.45 Q3807.67 935.969 3804.29 931.848 Q3800.95 927.728 3800.95 921.802 Q3800.95 913.515 3806.83 908.7 Q3812.76 903.885 3823.04 903.885 Q3833.36 903.885 3839.24 908.7 Q3845.12 913.515 3845.12 921.802 Q3845.12 927.728 3841.74 931.848 Q3838.41 935.969 3832.44 937.45 Q3839.2 939.024 3842.95 943.607 Q3846.74 948.191 3846.74 954.811 Q3846.74 964.857 3840.58 970.228 Q3834.47 975.598 3823.04 975.598 Q3811.6 975.598 3805.45 970.228 Q3799.33 964.857 3799.33 954.811 Q3799.33 948.191 3803.13 943.607 Q3806.93 939.024 3813.69 937.45 M3810.26 922.682 Q3810.26 928.052 3813.59 931.061 Q3816.97 934.07 3823.04 934.07 Q3829.06 934.07 3832.44 931.061 Q3835.86 928.052 3835.86 922.682 Q3835.86 917.311 3832.44 914.302 Q3829.06 911.293 3823.04 911.293 Q3816.97 911.293 3813.59 914.302 Q3810.26 917.311 3810.26 922.682 Z" fill="#000000" fill-rule="nonzero" fill-opacity="1" /><path clip-path="url(#clip660)" d="M4580.86 966.385 L4596.14 966.385 L4596.14 913.654 L4579.52 916.987 L4579.52 908.469 L4596.05 905.135 L4605.4 905.135 L4605.4 966.385 L4620.68 966.385 L4620.68 974.255 L4580.86 974.255 L4580.86 966.385 Z" fill="#000000" fill-rule="nonzero" fill-opacity="1" /><path clip-path="url(#clip660)" d="M4659.57 911.293 Q4652.34 911.293 4648.69 918.422 Q4645.08 925.506 4645.08 939.765 Q4645.08 953.978 4648.69 961.107 Q4652.34 968.191 4659.57 968.191 Q4666.84 968.191 4670.45 961.107 Q4674.1 953.978 4674.1 939.765 Q4674.1 925.506 4670.45 918.422 Q4666.84 911.293 4659.57 911.293 M4659.57 903.885 Q4671.19 903.885 4677.3 913.098 Q4683.46 922.265 4683.46 939.765 Q4683.46 957.218 4677.3 966.431 Q4671.19 975.598 4659.57 975.598 Q4647.95 975.598 4641.79 966.431 Q4635.68 957.218 4635.68 939.765 Q4635.68 922.265 4641.79 913.098 Q4647.95 903.885 4659.57 903.885 Z" fill="#000000" fill-rule="nonzero" fill-opacity="1" /><path clip-path="url(#clip660)" d="M2327.6 1040.69 L2393.38 1040.69 L2393.38 1049.54 L2365.78 1049.54 L2365.78 1118.45 L2355.21 1118.45 L2355.21 1049.54 L2327.6 1049.54 L2327.6 1040.69 Z" fill="#000000" fill-rule="nonzero" fill-opacity="1" /><path clip-path="url(#clip660)" d="M2399.84 1060.11 L2409.43 1060.11 L2409.43 1118.45 L2399.84 1118.45 L2399.84 1060.11 M2399.84 1037.41 L2409.43 1037.41 L2409.43 1049.54 L2399.84 1049.54 L2399.84 1037.41 Z" fill="#000000" fill-rule="nonzero" fill-opacity="1" /><path clip-path="url(#clip660)" d="M2474.89 1071.31 Q2478.49 1064.85 2483.49 1061.78 Q2488.49 1058.71 2495.26 1058.71 Q2504.37 1058.71 2509.32 1065.11 Q2514.27 1071.47 2514.27 1083.24 L2514.27 1118.45 L2504.63 1118.45 L2504.63 1083.55 Q2504.63 1075.17 2501.67 1071.1 Q2498.7 1067.04 2492.6 1067.04 Q2485.16 1067.04 2480.83 1071.99 Q2476.51 1076.94 2476.51 1085.48 L2476.51 1118.45 L2466.87 1118.45 L2466.87 1083.55 Q2466.87 1075.11 2463.91 1071.1 Q2460.94 1067.04 2454.74 1067.04 Q2447.39 1067.04 2443.07 1072.04 Q2438.75 1076.99 2438.75 1085.48 L2438.75 1118.45 L2429.11 1118.45 L2429.11 1060.11 L2438.75 1060.11 L2438.75 1069.18 Q2442.03 1063.81 2446.61 1061.26 Q2451.2 1058.71 2457.5 1058.71 Q2463.85 1058.71 2468.28 1061.94 Q2472.76 1065.17 2474.89 1071.31 Z" fill="#000000" fill-rule="nonzero" fill-opacity="1" /><path clip-path="url(#clip660)" d="M2583.28 1086.89 L2583.28 1091.57 L2539.22 1091.57 Q2539.84 1101.47 2545.15 1106.68 Q2550.52 1111.83 2560.05 1111.83 Q2565.57 1111.83 2570.73 1110.48 Q2575.94 1109.12 2581.04 1106.42 L2581.04 1115.48 Q2575.88 1117.67 2570.47 1118.81 Q2565.05 1119.96 2559.48 1119.96 Q2545.52 1119.96 2537.34 1111.83 Q2529.22 1103.71 2529.22 1089.85 Q2529.22 1075.53 2536.93 1067.15 Q2544.69 1058.71 2557.81 1058.71 Q2569.58 1058.71 2576.4 1066.31 Q2583.28 1073.86 2583.28 1086.89 M2573.7 1084.07 Q2573.59 1076.21 2569.27 1071.52 Q2565 1066.83 2557.92 1066.83 Q2549.89 1066.83 2545.05 1071.36 Q2540.26 1075.9 2539.53 1084.12 L2573.7 1084.07 Z" fill="#000000" fill-rule="nonzero" fill-opacity="1" /><path clip-path="url(#clip660)" d="M2655.94 1037.51 Q2648.96 1049.49 2645.57 1061.21 Q2642.19 1072.93 2642.19 1084.96 Q2642.19 1096.99 2645.57 1108.81 Q2649.01 1120.58 2655.94 1132.51 L2647.6 1132.51 Q2639.79 1120.27 2635.88 1108.45 Q2632.03 1096.62 2632.03 1084.96 Q2632.03 1073.34 2635.88 1061.57 Q2639.74 1049.8 2647.6 1037.51 L2655.94 1037.51 Z" fill="#000000" fill-rule="nonzero" fill-opacity="1" /><path clip-path="url(#clip660)" d="M2712.91 1068.97 L2712.91 1037.41 L2722.5 1037.41 L2722.5 1118.45 L2712.91 1118.45 L2712.91 1109.7 Q2709.89 1114.91 2705.26 1117.46 Q2700.67 1119.96 2694.22 1119.96 Q2683.64 1119.96 2676.98 1111.52 Q2670.36 1103.08 2670.36 1089.33 Q2670.36 1075.58 2676.98 1067.15 Q2683.64 1058.71 2694.22 1058.71 Q2700.67 1058.71 2705.26 1061.26 Q2709.89 1063.76 2712.91 1068.97 M2680.26 1089.33 Q2680.26 1099.91 2684.58 1105.95 Q2688.96 1111.94 2696.56 1111.94 Q2704.16 1111.94 2708.54 1105.95 Q2712.91 1099.91 2712.91 1089.33 Q2712.91 1078.76 2708.54 1072.77 Q2704.16 1066.73 2696.56 1066.73 Q2688.96 1066.73 2684.58 1072.77 Q2680.26 1078.76 2680.26 1089.33 Z" fill="#000000" fill-rule="nonzero" fill-opacity="1" /><path clip-path="url(#clip660)" d="M2768.75 1089.12 Q2757.13 1089.12 2752.65 1091.78 Q2748.17 1094.44 2748.17 1100.84 Q2748.17 1105.95 2751.51 1108.97 Q2754.89 1111.94 2760.67 1111.94 Q2768.64 1111.94 2773.43 1106.31 Q2778.28 1100.64 2778.28 1091.26 L2778.28 1089.12 L2768.75 1089.12 M2787.86 1085.17 L2787.86 1118.45 L2778.28 1118.45 L2778.28 1109.59 Q2775 1114.91 2770.1 1117.46 Q2765.21 1119.96 2758.12 1119.96 Q2749.16 1119.96 2743.85 1114.96 Q2738.59 1109.91 2738.59 1101.47 Q2738.59 1091.62 2745.15 1086.62 Q2751.77 1081.62 2764.84 1081.62 L2778.28 1081.62 L2778.28 1080.69 Q2778.28 1074.07 2773.9 1070.48 Q2769.58 1066.83 2761.72 1066.83 Q2756.72 1066.83 2751.98 1068.03 Q2747.24 1069.23 2742.86 1071.62 L2742.86 1062.77 Q2748.12 1060.74 2753.07 1059.75 Q2758.02 1058.71 2762.71 1058.71 Q2775.36 1058.71 2781.61 1065.27 Q2787.86 1071.83 2787.86 1085.17 Z" fill="#000000" fill-rule="nonzero" fill-opacity="1" /><path clip-path="url(#clip660)" d="M2831.87 1123.86 Q2827.81 1134.28 2823.96 1137.46 Q2820.1 1140.63 2813.64 1140.63 L2805.99 1140.63 L2805.99 1132.61 L2811.61 1132.61 Q2815.57 1132.61 2817.76 1130.74 Q2819.94 1128.86 2822.6 1121.88 L2824.32 1117.51 L2800.73 1060.11 L2810.88 1060.11 L2829.11 1105.74 L2847.34 1060.11 L2857.5 1060.11 L2831.87 1123.86 Z" fill="#000000" fill-rule="nonzero" fill-opacity="1" /><path clip-path="url(#clip660)" d="M2869.22 1037.51 L2877.55 1037.51 Q2885.36 1049.8 2889.22 1061.57 Q2893.12 1073.34 2893.12 1084.96 Q2893.12 1096.62 2889.22 1108.45 Q2885.36 1120.27 2877.55 1132.51 L2869.22 1132.51 Q2876.14 1120.58 2879.53 1108.81 Q2882.97 1096.99 2882.97 1084.96 Q2882.97 1072.93 2879.53 1061.21 Q2876.14 1049.49 2869.22 1037.51 Z" fill="#000000" fill-rule="nonzero" fill-opacity="1" /><polyline clip-path="url(#clip660)" style="stroke:#000000; stroke-linecap:round; stroke-linejoin:round; stroke-width:4; stroke-opacity:1; fill:none" points="467.969,849.455 467.969,47.2441 "/>
<polyline clip-path="url(#clip660)" style="stroke:#000000; stroke-linecap:round; stroke-linejoin:round; stroke-width:4; stroke-opacity:1; fill:none" points="467.969,741.203 486.867,741.203 "/>
<polyline clip-path="url(#clip660)" style="stroke:#000000; stroke-linecap:round; stroke-linejoin:round; stroke-width:4; stroke-opacity:1; fill:none" points="467.969,596.356 486.867,596.356 "/>
<polyline clip-path="url(#clip660)" style="stroke:#000000; stroke-linecap:round; stroke-linejoin:round; stroke-width:4; stroke-opacity:1; fill:none" points="467.969,451.509 486.867,451.509 "/>
<polyline clip-path="url(#clip660)" style="stroke:#000000; stroke-linecap:round; stroke-linejoin:round; stroke-width:4; stroke-opacity:1; fill:none" points="467.969,306.662 486.867,306.662 "/>
<polyline clip-path="url(#clip660)" style="stroke:#000000; stroke-linecap:round; stroke-linejoin:round; stroke-width:4; stroke-opacity:1; fill:none" points="467.969,161.815 486.867,161.815 "/>
<path clip-path="url(#clip660)" d="M212.22 742.106 L271.572 742.106 L271.572 749.976 L212.22 749.976 L212.22 742.106 Z" fill="#000000" fill-rule="nonzero" fill-opacity="1" /><path clip-path="url(#clip660)" d="M320.09 738.495 Q326.803 739.93 330.553 744.467 Q334.349 749.004 334.349 755.671 Q334.349 765.902 327.312 771.504 Q320.275 777.106 307.313 777.106 Q302.961 777.106 298.331 776.226 Q293.748 775.393 288.84 773.68 L288.84 764.652 Q292.729 766.921 297.359 768.078 Q301.989 769.235 307.035 769.235 Q315.831 769.235 320.414 765.763 Q325.044 762.291 325.044 755.671 Q325.044 749.559 320.738 746.134 Q316.479 742.661 308.84 742.661 L300.785 742.661 L300.785 734.976 L309.211 734.976 Q316.109 734.976 319.766 732.245 Q323.424 729.467 323.424 724.282 Q323.424 718.958 319.627 716.134 Q315.877 713.263 308.84 713.263 Q304.998 713.263 300.6 714.097 Q296.202 714.93 290.924 716.689 L290.924 708.356 Q296.248 706.875 300.877 706.134 Q305.553 705.393 309.674 705.393 Q320.322 705.393 326.525 710.254 Q332.729 715.069 332.729 723.31 Q332.729 729.05 329.442 733.032 Q326.155 736.967 320.09 738.495 Z" fill="#000000" fill-rule="nonzero" fill-opacity="1" /><path clip-path="url(#clip660)" d="M372.081 712.8 Q364.859 712.8 361.201 719.93 Q357.59 727.013 357.59 741.273 Q357.59 755.485 361.201 762.615 Q364.859 769.698 372.081 769.698 Q379.349 769.698 382.96 762.615 Q386.618 755.485 386.618 741.273 Q386.618 727.013 382.96 719.93 Q379.349 712.8 372.081 712.8 M372.081 705.393 Q383.701 705.393 389.812 714.606 Q395.969 723.773 395.969 741.273 Q395.969 758.726 389.812 767.939 Q383.701 777.106 372.081 777.106 Q360.46 777.106 354.303 767.939 Q348.192 758.726 348.192 741.273 Q348.192 723.773 354.303 714.606 Q360.46 705.393 372.081 705.393 Z" fill="#000000" fill-rule="nonzero" fill-opacity="1" /><path clip-path="url(#clip660)" d="M212.22 597.259 L271.572 597.259 L271.572 605.129 L212.22 605.129 L212.22 597.259 Z" fill="#000000" fill-rule="nonzero" fill-opacity="1" /><path clip-path="url(#clip660)" d="M299.813 623.046 L332.451 623.046 L332.451 630.916 L288.563 630.916 L288.563 623.046 Q293.887 617.537 303.053 608.277 Q312.266 598.972 314.627 596.287 Q319.118 591.24 320.877 587.768 Q322.683 584.25 322.683 580.87 Q322.683 575.361 318.794 571.889 Q314.951 568.416 308.748 568.416 Q304.35 568.416 299.442 569.944 Q294.581 571.472 289.026 574.574 L289.026 565.129 Q294.674 562.861 299.581 561.704 Q304.488 560.546 308.563 560.546 Q319.303 560.546 325.692 565.916 Q332.081 571.287 332.081 580.268 Q332.081 584.527 330.461 588.37 Q328.887 592.166 324.674 597.351 Q323.516 598.694 317.313 605.129 Q311.109 611.518 299.813 623.046 Z" fill="#000000" fill-rule="nonzero" fill-opacity="1" /><path clip-path="url(#clip660)" d="M372.081 567.953 Q364.859 567.953 361.201 575.083 Q357.59 582.166 357.59 596.426 Q357.59 610.638 361.201 617.768 Q364.859 624.851 372.081 624.851 Q379.349 624.851 382.96 617.768 Q386.618 610.638 386.618 596.426 Q386.618 582.166 382.96 575.083 Q379.349 567.953 372.081 567.953 M372.081 560.546 Q383.701 560.546 389.812 569.759 Q395.969 578.926 395.969 596.426 Q395.969 613.879 389.812 623.092 Q383.701 632.259 372.081 632.259 Q360.46 632.259 354.303 623.092 Q348.192 613.879 348.192 596.426 Q348.192 578.926 354.303 569.759 Q360.46 560.546 372.081 560.546 Z" fill="#000000" fill-rule="nonzero" fill-opacity="1" /><path clip-path="url(#clip660)" d="M212.22 452.412 L271.572 452.412 L271.572 460.282 L212.22 460.282 L212.22 452.412 Z" fill="#000000" fill-rule="nonzero" fill-opacity="1" /><path clip-path="url(#clip660)" d="M293.377 478.199 L308.655 478.199 L308.655 425.468 L292.035 428.801 L292.035 420.283 L308.563 416.949 L317.914 416.949 L317.914 478.199 L333.192 478.199 L333.192 486.069 L293.377 486.069 L293.377 478.199 Z" fill="#000000" fill-rule="nonzero" fill-opacity="1" /><path clip-path="url(#clip660)" d="M372.081 423.107 Q364.859 423.107 361.201 430.236 Q357.59 437.319 357.59 451.579 Q357.59 465.792 361.201 472.921 Q364.859 480.004 372.081 480.004 Q379.349 480.004 382.96 472.921 Q386.618 465.792 386.618 451.579 Q386.618 437.319 382.96 430.236 Q379.349 423.107 372.081 423.107 M372.081 415.699 Q383.701 415.699 389.812 424.912 Q395.969 434.079 395.969 451.579 Q395.969 469.032 389.812 478.245 Q383.701 487.412 372.081 487.412 Q360.46 487.412 354.303 478.245 Q348.192 469.032 348.192 451.579 Q348.192 434.079 354.303 424.912 Q360.46 415.699 372.081 415.699 Z" fill="#000000" fill-rule="nonzero" fill-opacity="1" /><path clip-path="url(#clip660)" d="M372.081 278.26 Q364.859 278.26 361.201 285.389 Q357.59 292.473 357.59 306.732 Q357.59 320.945 361.201 328.074 Q364.859 335.157 372.081 335.157 Q379.349 335.157 382.96 328.074 Q386.618 320.945 386.618 306.732 Q386.618 292.473 382.96 285.389 Q379.349 278.26 372.081 278.26 M372.081 270.852 Q383.701 270.852 389.812 280.065 Q395.969 289.232 395.969 306.732 Q395.969 324.185 389.812 333.398 Q383.701 342.565 372.081 342.565 Q360.46 342.565 354.303 333.398 Q348.192 324.185 348.192 306.732 Q348.192 289.232 354.303 280.065 Q360.46 270.852 372.081 270.852 Z" fill="#000000" fill-rule="nonzero" fill-opacity="1" /><path clip-path="url(#clip660)" d="M293.377 188.505 L308.655 188.505 L308.655 135.774 L292.035 139.107 L292.035 130.589 L308.563 127.255 L317.914 127.255 L317.914 188.505 L333.192 188.505 L333.192 196.375 L293.377 196.375 L293.377 188.505 Z" fill="#000000" fill-rule="nonzero" fill-opacity="1" /><path clip-path="url(#clip660)" d="M372.081 133.413 Q364.859 133.413 361.201 140.542 Q357.59 147.626 357.59 161.885 Q357.59 176.098 361.201 183.227 Q364.859 190.311 372.081 190.311 Q379.349 190.311 382.96 183.227 Q386.618 176.098 386.618 161.885 Q386.618 147.626 382.96 140.542 Q379.349 133.413 372.081 133.413 M372.081 126.005 Q383.701 126.005 389.812 135.218 Q395.969 144.385 395.969 161.885 Q395.969 179.338 389.812 188.551 Q383.701 197.718 372.081 197.718 Q360.46 197.718 354.303 188.551 Q348.192 179.338 348.192 161.885 Q348.192 144.385 354.303 135.218 Q360.46 126.005 372.081 126.005 Z" fill="#000000" fill-rule="nonzero" fill-opacity="1" /><path clip-path="url(#clip662)" d="M589.237 307.407 L606.08 352.085 L622.922 399.801 L639.765 451.692 L656.608 499.49 L673.451 538.356 L690.293 551.795 L707.136 548.26 L723.979 503.252 L740.821 441.516 L757.664 401.234 L774.507 375.068 L791.35 368.256 L808.192 378.785 L825.035 398.107 L841.878 417.007 L858.72 432.405 L875.563 443.768 L892.406 446.104 L909.249 446.791 L926.091 451.505 L942.934 464.702 L959.777 475.62 L976.619 485.213 L993.462 502.479 L1010.3 543.86 L1027.15 591.363 L1043.99 642.05 L1060.83 689.258 L1077.68 727.997 L1094.52 738.272 L1111.36 726.14 L1128.2 668.961 L1145.05 591.554 L1161.89 534.354 L1178.73 491.903 L1195.57 468.385 L1212.42 478.205 L1229.26 490.207 L1246.1 501.242 L1262.95 507.551 L1279.79 511.964 L1296.63 516.582 L1313.47 527.127 L1330.32 540.285 L1347.16 554.897 L1364 564.225 L1380.84 569.93 L1397.69 576.99 L1414.53 596.07 L1431.37 633.253 L1448.22 684.38 L1465.06 732.054 L1481.9 771.277 L1498.74 781.593 L1515.59 768.425 L1532.43 709.162 L1549.27 627.645 L1566.11 566.43 L1582.96 542.679 L1599.8 543.564 L1616.64 551.691 L1633.49 561.625 L1650.33 570.475 L1667.17 574.493 L1684.01 577.724 L1700.86 579.231 L1717.7 588.384 L1734.54 600.233 L1751.38 613.423 L1768.23 621.759 L1785.07 626.421 L1801.91 632.609 L1818.76 651.091 L1835.6 670.665 L1852.44 700.23 L1869.28 748.248 L1886.13 787.675 L1902.97 798.872 L1919.81 785.743 L1936.65 725.783 L1953.5 643.563 L1970.34 601.835 L1987.18 593.085 L2004.02 592.979 L2020.87 599.537 L2037.71 608.199 L2054.55 615.878 L2071.4 618.69 L2088.24 620.036 L2105.08 621.451 L2121.92 629.401 L2138.77 640.336 L2155.61 653.219 L2172.45 661.21 L2189.29 664.954 L2206.14 670.472 L2222.98 688.473 L2239.82 707.674 L2256.67 726.347 L2273.51 756.798 L2290.35 796.435 L2307.19 807.503 L2324.04 794.4 L2340.88 734.276 L2357.72 657.777 L2374.56 636.412 L2391.41 626.798 L2408.25 625.653 L2425.09 631.296 L2441.94 639.101 L2458.78 645.838 L2475.62 647.828 L2492.46 648.414 L2509.31 648.948 L2526.15 656.164 L2542.99 666.608 L2559.83 678.984 L2576.68 685.867 L2593.52 690.016 L2610.36 695.059 L2627.21 712.744 L2644.05 731.916 L2660.89 750.64 L2677.73 765.773 L2694.58 803.05 L2711.42 813.776 L2728.26 800.312 L2745.1 740.378 L2761.95 681.646 L2778.79 659.802 L2795.63 649.568 L2812.48 647.664 L2829.32 652.798 L2846.16 660.077 L2863 666.258 L2879.85 667.632 L2896.69 668.133 L2913.53 667.462 L2930.37 674.053 L2947.22 684.271 L2964.06 696.406 L2980.9 703.208 L2997.75 707.152 L3014.59 712.153 L3031.43 729.781 L3048.27 748.805 L3065.12 767.649 L3081.96 782.767 L3098.8 807.636 L3115.64 818.742 L3132.49 805.584 L3149.33 745.715 L3166.17 698.184 L3183.01 675.929 L3199.86 665.36 L3216.7 663.299 L3233.54 667.933 L3250.39 674.725 L3267.23 680.562 L3284.07 681.575 L3300.91 681.219 L3317.76 680.996 L3334.6 687.566 L3351.44 697.467 L3368.28 709.406 L3385.13 716.119 L3401.97 720.006 L3418.81 724.992 L3435.66 742.629 L3452.5 761.663 L3469.34 780.518 L3486.18 795.656 L3503.03 811.266 L3519.87 822.887 L3536.71 809.202 L3553.55 750.114 L3570.4 710.857 L3587.24 688.389 L3604.08 677.575 L3620.93 675.176 L3637.77 679.547 L3654.61 686.102 L3671.45 691.618 L3688.3 692.44 L3705.14 691.859 L3721.98 691.414 L3738.82 697.698 L3755.67 707.388 L3772.51 719.033 L3789.35 726.371 L3806.2 730.005 L3823.04 735.035 L3839.88 752.705 L3856.72 771.759 L3873.57 790.601 L3890.41 805.918 L3907.25 816.15 L3924.09 824.662 L3940.94 811.324 L3957.78 760.282 L3974.62 720.916 L3991.47 698.285 L4008.31 687.239 L4025.15 684.625 L4041.99 688.747 L4058.84 695.057 L4075.68 700.348 L4092.52 700.878 L4109.36 700.221 L4126.21 699.446 L4143.05 705.447 L4159.89 714.99 L4176.74 726.489 L4193.58 733.693 L4210.42 737.141 L4227.26 742.166 L4244.11 759.806 L4260.95 778.825 L4277.79 797.681 L4294.63 812.966 L4311.48 823.18 L4328.32 826.751 L4345.16 813.642 L4362 767.124 L4378.85 727.605 L4395.69 704.833 L4412.53 693.572 L4429.38 690.498 L4446.22 694.582 L4463.06 700.689 L4479.9 705.809 L4496.75 706.219 L4513.59 705.503 L4530.43 704.484 L4547.27 710.539 L4564.12 720.273 L4580.96 731.855 L4597.8 739.136 L4614.65 742.745 L4631.49 747.807 L4631.49 101.167 L4614.65 110.861 L4597.8 131.001 L4580.96 145.2 L4564.12 147.585 L4547.27 150.127 L4530.43 153.496 L4513.59 160.548 L4496.75 164.971 L4479.9 166.816 L4463.06 151.207 L4446.22 128.426 L4429.38 113.936 L4412.53 113.749 L4395.69 127.948 L4378.85 153.631 L4362 191.947 L4345.16 223.996 L4328.32 232.204 L4311.48 224.674 L4294.63 199.776 L4277.79 169.476 L4260.95 138.165 L4244.11 112.987 L4227.26 99.6964 L4210.42 109.293 L4193.58 129.394 L4176.74 142.357 L4159.89 144.696 L4143.05 147.155 L4126.21 150.471 L4109.36 157.405 L4092.52 161.697 L4075.68 163.513 L4058.84 151.156 L4041.99 128.658 L4025.15 113.878 L4008.31 114.138 L3991.47 127.585 L3974.62 154.187 L3957.78 189.161 L3940.94 221.335 L3924.09 229.626 L3907.25 222.21 L3890.41 197.403 L3873.57 167.196 L3856.72 135.985 L3839.88 110.918 L3823.04 97.7529 L3806.2 107.473 L3789.35 127.658 L3772.51 138.493 L3755.67 140.709 L3738.82 142.995 L3721.98 146.073 L3705.14 152.698 L3688.3 156.721 L3671.45 158.728 L3654.61 149.04 L3637.77 126.367 L3620.93 111.822 L3604.08 111.296 L3587.24 125.348 L3570.4 150.857 L3553.55 186.638 L3536.71 218.932 L3519.87 227.326 L3503.03 219.962 L3486.18 195.209 L3469.34 165.033 L3452.5 133.864 L3435.66 108.842 L3418.81 95.7105 L3401.97 105.487 L3385.13 125.745 L3368.28 133.742 L3351.44 135.989 L3334.6 138.315 L3317.76 141.484 L3300.91 148.341 L3284.07 152.552 L3267.23 154.153 L3250.39 147.545 L3233.54 125.662 L3216.7 111.219 L3199.86 110.8 L3183.01 124.961 L3166.17 147.089 L3149.33 181.65 L3132.49 213.877 L3115.64 222.311 L3098.8 215.013 L3081.96 190.326 L3065.12 160.215 L3048.27 129.097 L3031.43 104.12 L3014.59 91.0175 L2997.75 100.813 L2980.9 120.36 L2964.06 126.795 L2947.22 128.83 L2930.37 130.837 L2913.53 133.744 L2896.69 140.102 L2879.85 143.873 L2863 145.418 L2846.16 138.907 L2829.32 122.422 L2812.48 108.098 L2795.63 107.961 L2778.79 121.157 L2761.95 141.936 L2745.1 176.471 L2728.26 207.47 L2711.42 215.311 L2694.58 209.989 L2677.73 185.592 L2660.89 155.546 L2644.05 124.467 L2627.21 99.474 L2610.36 86.3247 L2593.52 96.0319 L2576.68 111.053 L2559.83 117.462 L2542.99 119.443 L2526.15 121.449 L2509.31 124.254 L2492.46 130.637 L2475.62 134.421 L2458.78 135.86 L2441.94 128.861 L2425.09 118.124 L2408.25 104.909 L2391.41 103.864 L2374.56 111.934 L2357.72 132.573 L2340.88 168.086 L2324.04 196.951 L2307.19 204.95 L2290.35 199.815 L2273.51 179.306 L2256.67 149.378 L2239.82 118.397 L2222.98 93.4807 L2206.14 80.3724 L2189.29 90.0876 L2172.45 101.619 L2155.61 108.008 L2138.77 109.926 L2121.92 111.855 L2105.08 114.552 L2088.24 120.819 L2071.4 124.486 L2054.55 126.12 L2037.71 119.103 L2020.87 108.163 L2004.02 97.8434 L1987.18 93.4217 L1970.34 101.181 L1953.5 122.073 L1936.65 157.789 L1919.81 186.949 L1902.97 195.32 L1886.13 190.556 L1869.28 170.446 L1852.44 141.58 L1835.6 110.842 L1818.76 86.1932 L1801.91 73.3548 L1785.07 83.3374 L1768.23 94.5349 L1751.38 101.198 L1734.54 103.392 L1717.7 105.602 L1700.86 108.536 L1684.01 115.069 L1667.17 118.842 L1650.33 120.908 L1633.49 114.23 L1616.64 103.324 L1599.8 91.5391 L1582.96 89.155 L1566.11 97.0958 L1549.27 118.355 L1532.43 154.428 L1515.59 184.16 L1498.74 193.114 L1481.9 188.958 L1465.06 166.393 L1448.22 137.081 L1431.37 106.724 L1414.53 82.4354 L1397.69 69.9482 L1380.84 80.3189 L1364 97.6806 L1347.16 105.287 L1330.32 108.453 L1313.47 111.629 L1296.63 115.761 L1279.79 121.121 L1262.95 123.912 L1246.1 125.603 L1229.26 122.29 L1212.42 112.529 L1195.57 98.1929 L1178.73 97.6666 L1161.89 110.811 L1145.05 130.026 L1128.2 166.501 L1111.36 200.218 L1094.52 210.514 L1077.68 205.179 L1060.83 182.476 L1043.99 154.385 L1027.15 125.383 L1010.3 101.31 L993.462 89.7134 L976.619 103.369 L959.777 126.862 L942.934 147.425 L926.091 153.955 L909.249 153.212 L892.406 154.237 L875.563 161.236 L858.72 167.763 L841.878 173.323 L825.035 166.828 L808.192 151.85 L791.35 145.61 L774.507 156.038 L757.664 181.891 L740.821 219.233 L723.979 264.688 L707.136 304.957 L690.293 324.253 L673.451 328.503 L656.608 314.853 L639.765 295.989 L622.922 271.07 L606.08 251.466 L589.237 246.027  Z" fill="#aeaeae" fill-rule="evenodd" fill-opacity="0.5"/>
<polyline clip-path="url(#clip662)" style="stroke:#aeaeae; stroke-linecap:round; stroke-linejoin:round; stroke-width:0; stroke-opacity:1; fill:none" points="589.237,287.564 606.08,296.319 622.922,308.745 639.765,323.026 656.608,336.285 673.451,346.784 690.293,347.665 707.136,340.406 723.979,320.653 740.821,297.09 757.664,282.307 774.507,273.96 791.35,271.288 808.192,274.197 825.035,279.866 841.878,285.615 858.72,288.318 875.563,288.985 892.406,286.981 909.249,285.762 926.091,284.42 942.934,282.641 959.777,277.713 976.619,271.733 993.462,269.293 1010.3,277.31 1027.15,289.613 1043.99,304.049 1060.83,317.65 1077.68,328.578 1094.52,329.928 1111.36,323.082 1128.2,304.116 1145.05,281.947 1161.89,269.086 1178.73,262.683 1195.57,261.979 1212.42,266.581 1229.26,273.647 1246.1,280.547 1262.95,284.19 1279.79,285.621 1296.63,284.229 1313.47,283.585 1330.32,282.834 1347.16,281.581 1364,277.121 1380.84,271.591 1397.69,269.557 1414.53,277.957 1431.37,290.619 1448.22,305.406 1465.06,319.325 1481.9,330.556 1498.74,332.216 1515.59,325.611 1532.43,306.797 1549.27,284.681 1566.11,271.821 1582.96,265.428 1599.8,264.748 1616.64,269.4 1633.49,276.486 1650.33,283.411 1667.17,287.074 1684.01,288.538 1700.86,287.225 1717.7,286.682 1734.54,286.044 1751.38,284.895 1768.23,280.544 1785.07,275.129 1801.91,273.21 1818.76,281.73 1835.6,294.518 1852.44,309.436 1869.28,323.489 1886.13,334.863 1902.97,336.631 1919.81,330.119 1936.65,311.33 1953.5,289.144 1970.34,276.155 1987.18,269.632 2004.02,268.798 2020.87,273.317 2037.71,280.295 2054.55,287.12 2071.4,290.693 2088.24,292.11 2105.08,290.758 2121.92,290.231 2138.77,289.597 2155.61,288.471 2172.45,284.149 2189.29,278.768 2206.14,276.897 2222.98,285.469 2239.82,298.319 2256.67,313.301 2273.51,327.424 2290.35,338.869 2307.19,340.709 2324.04,334.249 2340.88,315.49 2357.72,293.252 2374.56,280.153 2391.41,273.506 2408.25,272.513 2425.09,276.902 2441.94,283.771 2458.78,290.493 2475.62,293.984 2492.46,295.335 2509.31,293.952 2526.15,293.38 2542.99,292.721 2559.83,291.583 2576.68,287.266 2593.52,281.895 2610.36,280.039 2627.21,288.637 2644.05,301.521 2660.89,316.539 2677.73,330.702 2694.58,342.19 2711.42,344.082 2728.26,337.667 2745.1,318.91 2761.95,296.593 2778.79,283.393 2795.63,276.627 2812.48,275.548 2829.32,279.815 2846.16,286.582 2863,293.217 2879.85,296.629 2896.69,297.906 2913.53,296.484 2930.37,295.886 2947.22,295.212 2964.06,294.057 2980.9,289.728 2997.75,284.365 3014.59,282.515 3031.43,291.124 3048.27,304.022 3065.12,319.07 3081.96,333.26 3098.8,344.775 3115.64,346.687 3132.49,340.29 3149.33,321.53 3166.17,299.19 3183.01,285.916 3199.86,279.056 3216.7,277.868 3233.54,282.081 3250.39,288.778 3267.23,295.347 3284.07,298.703 3300.91,299.946 3317.76,298.443 3334.6,297.834 3351.44,297.148 3368.28,295.982 3385.13,291.658 3401.97,286.293 3418.81,284.449 3435.66,293.067 3452.5,305.978 3469.34,321.041 3486.18,335.25 3503.03,346.785 3519.87,348.727 3536.71,342.346 3553.55,323.588 3570.4,301.208 3587.24,287.853 3604.08,280.944 3620.93,279.682 3637.77,283.808 3654.61,290.44 3671.45,296.969 3688.3,300.278 3705.14,301.468 3721.98,299.972 3738.82,299.306 3755.67,298.588 3772.51,297.405 3789.35,293.064 3806.2,287.694 3823.04,285.851 3839.88,294.471 3856.72,307.387 3873.57,322.457 3890.41,336.672 3907.25,348.221 3924.09,350.155 3940.94,343.785 3957.78,325.013 3974.62,302.62 3991.47,289.241 4008.31,282.276 4025.15,281.006 4041.99,285.076 4058.84,291.669 4075.68,298.159 4092.52,301.431 4109.36,302.606 4126.21,301.085 4143.05,300.421 4159.89,299.695 4176.74,298.504 4193.58,294.163 4210.42,288.786 4227.26,286.941 4244.11,295.563 4260.95,308.482 4277.79,323.559 4294.63,337.782 4311.48,349.339 4328.32,351.288 4345.16,344.921 4362,326.168 4378.85,303.749 4395.69,290.326 4412.53,283.328 4429.38,282.019 4446.22,286.062 4463.06,292.622 4479.9,299.083 4496.75,302.333 4513.59,303.479 4530.43,301.931 4547.27,301.249 4564.12,300.504 4580.96,299.314 4597.8,294.966 4614.65,289.603 4631.49,287.758 "/>
<path clip-path="url(#clip662)" d="M589.237 286.869 L606.08 315.668 L622.922 348.674 L639.765 382.959 L656.608 417.66 L673.451 451.836 L690.293 461.694 L707.136 452.286 L723.979 410.538 L740.821 358.078 L757.664 329.412 L774.507 312.148 L791.35 309.124 L808.192 317.61 L825.035 330.463 L841.878 343.346 L858.72 352.233 L875.563 357.955 L892.406 356.889 L909.249 356.726 L926.091 361.052 L942.934 366.812 L959.777 369.255 L976.619 367.303 L993.462 372.783 L1010.3 395.276 L1027.15 421.001 L1043.99 442.759 L1060.83 472.903 L1077.68 496.246 L1094.52 499.209 L1111.36 486.002 L1128.2 443.953 L1145.05 395.21 L1161.89 366.266 L1178.73 350.275 L1195.57 343.94 L1212.42 347.199 L1229.26 358.128 L1246.1 367.242 L1262.95 371.482 L1279.79 374.19 L1296.63 370.828 L1313.47 376.369 L1330.32 381.096 L1347.16 387.994 L1364 388.752 L1380.84 386.477 L1397.69 390.119 L1414.53 414.818 L1431.37 439.98 L1448.22 462.225 L1465.06 495.959 L1481.9 520.099 L1498.74 521.956 L1515.59 509.384 L1532.43 468.713 L1549.27 417.19 L1566.11 386.708 L1582.96 366.74 L1599.8 359.929 L1616.64 362.545 L1633.49 371.89 L1650.33 381.036 L1667.17 384.069 L1684.01 386.207 L1700.86 385.2 L1717.7 388.8 L1734.54 394.643 L1751.38 401.259 L1768.23 403.01 L1785.07 402.858 L1801.91 405.084 L1818.76 425.214 L1835.6 453.184 L1852.44 477.497 L1869.28 506.915 L1886.13 531.625 L1902.97 533.138 L1919.81 523.536 L1936.65 481.408 L1953.5 429.413 L1970.34 396.21 L1987.18 380.149 L2004.02 372.54 L2020.87 374.617 L2037.71 383.855 L2054.55 393.215 L2071.4 394.998 L2088.24 394.983 L2105.08 393.703 L2121.92 397.972 L2138.77 404.541 L2155.61 412.017 L2172.45 412.826 L2189.29 410.884 L2206.14 414.37 L2222.98 433.914 L2239.82 460.027 L2256.67 488.742 L2273.51 518.944 L2290.35 539.268 L2307.19 543.92 L2324.04 530.007 L2340.88 489.248 L2357.72 439.005 L2374.56 405.44 L2391.41 389.857 L2408.25 382.1 L2425.09 384.167 L2441.94 394.34 L2458.78 401.753 L2475.62 404.11 L2492.46 403.797 L2509.31 403.09 L2526.15 407.571 L2542.99 410.798 L2559.83 419.375 L2576.68 420.306 L2593.52 419.358 L2610.36 422.347 L2627.21 445.524 L2644.05 471.467 L2660.89 496.607 L2677.73 525.438 L2694.58 544.53 L2711.42 549.97 L2728.26 538.202 L2745.1 495.203 L2761.95 446.736 L2778.79 417.261 L2795.63 399.006 L2812.48 388.631 L2829.32 394.383 L2846.16 401.027 L2863 408.671 L2879.85 411.402 L2896.69 411.735 L2913.53 410.331 L2930.37 414.025 L2947.22 418.495 L2964.06 425.09 L2980.9 426.033 L2997.75 424.852 L3014.59 428.629 L3031.43 450.31 L3048.27 476.356 L3065.12 505.595 L3081.96 531.839 L3098.8 554.3 L3115.64 557.244 L3132.49 544.433 L3149.33 502.699 L3166.17 453.329 L3183.01 426.924 L3199.86 405.074 L3216.7 392.564 L3233.54 398.091 L3250.39 405.55 L3267.23 414.593 L3284.07 417.105 L3300.91 416.985 L3317.76 415.077 L3334.6 418.403 L3351.44 421.238 L3368.28 428.354 L3385.13 427.937 L3401.97 427.187 L3418.81 431.017 L3435.66 455.703 L3452.5 480.669 L3469.34 510.944 L3486.18 537.688 L3503.03 557.151 L3519.87 561.808 L3536.71 548.762 L3553.55 507.536 L3570.4 458.403 L3587.24 431.039 L3604.08 407.046 L3620.93 397.211 L3637.77 401.308 L3654.61 408.408 L3671.45 417.286 L3688.3 420.996 L3705.14 423.141 L3721.98 418.521 L3738.82 420.652 L3755.67 423.298 L3772.51 430.054 L3789.35 429.503 L3806.2 428.554 L3823.04 433.491 L3839.88 457.859 L3856.72 482.761 L3873.57 513.225 L3890.41 542.205 L3907.25 562.711 L3924.09 563.406 L3940.94 553.307 L3957.78 513.255 L3974.62 461.291 L3991.47 433.669 L4008.31 410.727 L4025.15 400.755 L4041.99 404.121 L4058.84 410.999 L4075.68 419.324 L4092.52 424.509 L4109.36 427.633 L4126.21 421.643 L4143.05 423.146 L4159.89 425.045 L4176.74 432.001 L4193.58 432.035 L4210.42 429.728 L4227.26 434.832 L4244.11 459.721 L4260.95 484.668 L4277.79 514.505 L4294.63 546.844 L4311.48 569.153 L4328.32 569.482 L4345.16 555.577 L4362 518.66 L4378.85 462.771 L4395.69 435.726 L4412.53 412.973 L4429.38 403.375 L4446.22 406.64 L4463.06 414.504 L4479.9 421.46 L4496.75 426.612 L4513.59 428.894 L4530.43 425.568 L4547.27 425.482 L4564.12 426.455 L4580.96 432.649 L4597.8 433.013 L4614.65 431.565 L4631.49 435.813 L4631.49 140.011 L4614.65 152.708 L4597.8 173.459 L4580.96 192.367 L4564.12 202.933 L4547.27 208.007 L4530.43 212.497 L4513.59 215.39 L4496.75 212.104 L4479.9 204.031 L4463.06 186.246 L4446.22 168.786 L4429.38 156.405 L4412.53 155.222 L4395.69 167.419 L4378.85 191.685 L4362 231.027 L4345.16 265.718 L4328.32 278.204 L4311.48 271.854 L4294.63 245.189 L4277.79 215.783 L4260.95 181.373 L4244.11 153.134 L4227.26 138.952 L4210.42 152.04 L4193.58 172.041 L4176.74 191.157 L4159.89 200.628 L4143.05 206.283 L4126.21 210.287 L4109.36 213.471 L4092.52 210.275 L4075.68 201.738 L4058.84 184.28 L4041.99 167.016 L4025.15 155.025 L4008.31 153.708 L3991.47 166.315 L3974.62 189.096 L3957.78 228.941 L3940.94 263.935 L3924.09 276.397 L3907.25 270.108 L3890.41 243.33 L3873.57 213.357 L3856.72 179.986 L3839.88 151.165 L3823.04 137.635 L3806.2 150.219 L3789.35 170.737 L3772.51 189.546 L3755.67 197.563 L3738.82 202.401 L3721.98 207.796 L3705.14 210.958 L3688.3 208.157 L3671.45 199.626 L3654.61 182.828 L3637.77 165.066 L3620.93 153.08 L3604.08 151.807 L3587.24 163.439 L3570.4 186.983 L3553.55 226.778 L3536.71 262.319 L3519.87 273.701 L3503.03 267.677 L3486.18 242.473 L3469.34 211.067 L3452.5 178.219 L3435.66 149.344 L3418.81 135.734 L3401.97 148.627 L3385.13 168.365 L3368.28 186.151 L3351.44 193.359 L3334.6 198.609 L3317.76 204.513 L3300.91 208.624 L3284.07 203.246 L3267.23 196.985 L3250.39 180.972 L3233.54 161.429 L3216.7 150.783 L3199.86 148.707 L3183.01 160.36 L3166.17 182.832 L3149.33 223.828 L3132.49 258.502 L3115.64 270.165 L3098.8 264.768 L3081.96 239.564 L3065.12 208.376 L3048.27 175.251 L3031.43 146.372 L3014.59 132.8 L2997.75 145.76 L2980.9 163.969 L2964.06 181.859 L2947.22 189.388 L2930.37 194.435 L2913.53 196.888 L2896.69 203.699 L2879.85 199.58 L2863 191.725 L2846.16 176.798 L2829.32 158.023 L2812.48 145.675 L2795.63 144.993 L2778.79 156.411 L2761.95 177.554 L2745.1 219.246 L2728.26 253.894 L2711.42 265.048 L2694.58 260.3 L2677.73 234.795 L2660.89 204.07 L2644.05 172.358 L2627.21 143.168 L2610.36 128.991 L2593.52 142.3 L2576.68 158.856 L2559.83 175.766 L2542.99 182.897 L2526.15 185.937 L2509.31 191.579 L2492.46 198.401 L2475.62 193.771 L2458.78 185.493 L2441.94 171.198 L2425.09 154.588 L2408.25 140.684 L2391.41 140.335 L2374.56 149.308 L2357.72 172.817 L2340.88 212.711 L2324.04 248.195 L2307.19 259.474 L2290.35 253.353 L2273.51 228.536 L2256.67 197.873 L2239.82 165.774 L2222.98 138.663 L2206.14 124.77 L2189.29 137.37 L2172.45 153.387 L2155.61 169.999 L2138.77 175.619 L2121.92 178.102 L2105.08 181.232 L2088.24 187.984 L2071.4 188.616 L2054.55 178.121 L2037.71 163.528 L2020.87 149.257 L2004.02 135.822 L1987.18 133.745 L1970.34 142.407 L1953.5 165.966 L1936.65 206.212 L1919.81 240.283 L1902.97 252.971 L1886.13 245.207 L1869.28 220.453 L1852.44 190.901 L1835.6 160.58 L1818.76 132.676 L1801.91 119.142 L1785.07 130.973 L1768.23 147.467 L1751.38 162.668 L1734.54 168.468 L1717.7 169.67 L1700.86 173.015 L1684.01 180.433 L1667.17 180.855 L1650.33 172.015 L1633.49 158.081 L1616.64 142.766 L1599.8 130.876 L1582.96 127.008 L1566.11 137.357 L1549.27 160.568 L1532.43 199.582 L1515.59 233.775 L1498.74 245.605 L1481.9 238.763 L1465.06 215.413 L1448.22 185.285 L1431.37 155.827 L1414.53 128.282 L1397.69 114.706 L1380.84 126.865 L1364 143.424 L1347.16 160.052 L1330.32 165.169 L1313.47 168.376 L1296.63 172.89 L1279.79 178.28 L1262.95 181.312 L1246.1 172.14 L1229.26 159.21 L1212.42 143.172 L1195.57 131.767 L1178.73 130.338 L1161.89 139.419 L1145.05 163.111 L1128.2 204.472 L1111.36 239.834 L1094.52 252.395 L1077.68 246.704 L1060.83 223.216 L1043.99 195.549 L1027.15 162.917 L1010.3 137.069 L993.462 124.52 L976.619 138.396 L959.777 160.372 L942.934 178.155 L926.091 188.132 L909.249 194.486 L892.406 199.491 L875.563 206.427 L858.72 206.559 L841.878 203.628 L825.035 189.817 L808.192 177.968 L791.35 174.54 L774.507 185.621 L757.664 206.755 L740.821 238.398 L723.979 286.667 L707.136 324.587 L690.293 341.543 L673.451 345.176 L656.608 329.67 L639.765 306.389 L622.922 280.918 L606.08 260.527 L589.237 253.439  Z" fill="#757575" fill-rule="evenodd" fill-opacity="0.5"/>
<polyline clip-path="url(#clip662)" style="stroke:#757575; stroke-linecap:round; stroke-linejoin:round; stroke-width:0; stroke-opacity:1; fill:none" points="589.237,287.564 606.08,296.319 622.922,308.745 639.765,323.026 656.608,336.285 673.451,346.784 690.293,347.665 707.136,340.406 723.979,320.653 740.821,297.09 757.664,282.307 774.507,273.96 791.35,271.288 808.192,274.197 825.035,279.866 841.878,285.615 858.72,288.318 875.563,288.985 892.406,286.981 909.249,285.762 926.091,284.42 942.934,282.641 959.777,277.713 976.619,271.733 993.462,269.293 1010.3,277.31 1027.15,289.613 1043.99,304.049 1060.83,317.65 1077.68,328.578 1094.52,329.928 1111.36,323.082 1128.2,304.116 1145.05,281.947 1161.89,269.086 1178.73,262.683 1195.57,261.979 1212.42,266.581 1229.26,273.647 1246.1,280.547 1262.95,284.19 1279.79,285.621 1296.63,284.229 1313.47,283.585 1330.32,282.834 1347.16,281.581 1364,277.121 1380.84,271.591 1397.69,269.557 1414.53,277.957 1431.37,290.619 1448.22,305.406 1465.06,319.325 1481.9,330.556 1498.74,332.216 1515.59,325.611 1532.43,306.797 1549.27,284.681 1566.11,271.821 1582.96,265.428 1599.8,264.748 1616.64,269.4 1633.49,276.486 1650.33,283.411 1667.17,287.074 1684.01,288.538 1700.86,287.225 1717.7,286.682 1734.54,286.044 1751.38,284.895 1768.23,280.544 1785.07,275.129 1801.91,273.21 1818.76,281.73 1835.6,294.518 1852.44,309.436 1869.28,323.489 1886.13,334.863 1902.97,336.631 1919.81,330.119 1936.65,311.33 1953.5,289.144 1970.34,276.155 1987.18,269.632 2004.02,268.798 2020.87,273.317 2037.71,280.295 2054.55,287.12 2071.4,290.693 2088.24,292.11 2105.08,290.758 2121.92,290.231 2138.77,289.597 2155.61,288.471 2172.45,284.149 2189.29,278.768 2206.14,276.897 2222.98,285.469 2239.82,298.319 2256.67,313.301 2273.51,327.424 2290.35,338.869 2307.19,340.709 2324.04,334.249 2340.88,315.49 2357.72,293.252 2374.56,280.153 2391.41,273.506 2408.25,272.513 2425.09,276.902 2441.94,283.771 2458.78,290.493 2475.62,293.984 2492.46,295.335 2509.31,293.952 2526.15,293.38 2542.99,292.721 2559.83,291.583 2576.68,287.266 2593.52,281.895 2610.36,280.039 2627.21,288.637 2644.05,301.521 2660.89,316.539 2677.73,330.702 2694.58,342.19 2711.42,344.082 2728.26,337.667 2745.1,318.91 2761.95,296.593 2778.79,283.393 2795.63,276.627 2812.48,275.548 2829.32,279.815 2846.16,286.582 2863,293.217 2879.85,296.629 2896.69,297.906 2913.53,296.484 2930.37,295.886 2947.22,295.212 2964.06,294.057 2980.9,289.728 2997.75,284.365 3014.59,282.515 3031.43,291.124 3048.27,304.022 3065.12,319.07 3081.96,333.26 3098.8,344.775 3115.64,346.687 3132.49,340.29 3149.33,321.53 3166.17,299.19 3183.01,285.916 3199.86,279.056 3216.7,277.868 3233.54,282.081 3250.39,288.778 3267.23,295.347 3284.07,298.703 3300.91,299.946 3317.76,298.443 3334.6,297.834 3351.44,297.148 3368.28,295.982 3385.13,291.658 3401.97,286.293 3418.81,284.449 3435.66,293.067 3452.5,305.978 3469.34,321.041 3486.18,335.25 3503.03,346.785 3519.87,348.727 3536.71,342.346 3553.55,323.588 3570.4,301.208 3587.24,287.853 3604.08,280.944 3620.93,279.682 3637.77,283.808 3654.61,290.44 3671.45,296.969 3688.3,300.278 3705.14,301.468 3721.98,299.972 3738.82,299.306 3755.67,298.588 3772.51,297.405 3789.35,293.064 3806.2,287.694 3823.04,285.851 3839.88,294.471 3856.72,307.387 3873.57,322.457 3890.41,336.672 3907.25,348.221 3924.09,350.155 3940.94,343.785 3957.78,325.013 3974.62,302.62 3991.47,289.241 4008.31,282.276 4025.15,281.006 4041.99,285.076 4058.84,291.669 4075.68,298.159 4092.52,301.431 4109.36,302.606 4126.21,301.085 4143.05,300.421 4159.89,299.695 4176.74,298.504 4193.58,294.163 4210.42,288.786 4227.26,286.941 4244.11,295.563 4260.95,308.482 4277.79,323.559 4294.63,337.782 4311.48,349.339 4328.32,351.288 4345.16,344.921 4362,326.168 4378.85,303.749 4395.69,290.326 4412.53,283.328 4429.38,282.019 4446.22,286.062 4463.06,292.622 4479.9,299.083 4496.75,302.333 4513.59,303.479 4530.43,301.931 4547.27,301.249 4564.12,300.504 4580.96,299.314 4597.8,294.966 4614.65,289.603 4631.49,287.758 "/>
<path clip-path="url(#clip662)" d="M589.237 281.593 L606.08 306.808 L622.922 337.272 L639.765 370.886 L656.608 405.147 L673.451 432.976 L690.293 441.872 L707.136 429.477 L723.979 389.017 L740.821 341.312 L757.664 311.216 L774.507 296.78 L791.35 293.369 L808.192 300.231 L825.035 311.98 L841.878 323.396 L858.72 334.018 L875.563 336.075 L892.406 335.653 L909.249 336.086 L926.091 336.516 L942.934 339.5 L959.777 338.11 L976.619 335.998 L993.462 337.122 L1010.3 356.837 L1027.15 380.937 L1043.99 405.577 L1060.83 427.888 L1077.68 450.968 L1094.52 453.727 L1111.36 440.174 L1128.2 400.727 L1145.05 355.223 L1161.89 325.019 L1178.73 309.12 L1195.57 310.088 L1212.42 318.129 L1229.26 326.835 L1246.1 339.372 L1262.95 344.949 L1279.79 348.205 L1296.63 347.699 L1313.47 348.164 L1330.32 349.527 L1347.16 352.191 L1364 353.817 L1380.84 350.771 L1397.69 351.625 L1414.53 371.876 L1431.37 395.903 L1448.22 420.945 L1465.06 445.288 L1481.9 463.972 L1498.74 469.811 L1515.59 455.875 L1532.43 416.648 L1549.27 370.951 L1566.11 341.465 L1582.96 323.806 L1599.8 322.892 L1616.64 327.597 L1633.49 337.084 L1650.33 349.031 L1667.17 357.169 L1684.01 359.325 L1700.86 358.217 L1717.7 359.548 L1734.54 358.026 L1751.38 362.425 L1768.23 362.191 L1785.07 360.851 L1801.91 361.74 L1818.76 382.744 L1835.6 408.062 L1852.44 432.434 L1869.28 456.337 L1886.13 476.685 L1902.97 482.151 L1919.81 469.423 L1936.65 429.191 L1953.5 383.513 L1970.34 351.111 L1987.18 332.845 L2004.02 331.443 L2020.87 338.027 L2037.71 348.674 L2054.55 357.509 L2071.4 365.84 L2088.24 367.154 L2105.08 365.606 L2121.92 366.13 L2138.77 366.919 L2155.61 370.967 L2172.45 369.644 L2189.29 368.21 L2206.14 369.779 L2222.98 390.392 L2239.82 415.436 L2256.67 442.101 L2273.51 466.781 L2290.35 484.307 L2307.19 490.096 L2324.04 480.968 L2340.88 443.503 L2357.72 390.446 L2374.56 357.542 L2391.41 340.555 L2408.25 338.276 L2425.09 347.809 L2441.94 356.596 L2458.78 367.441 L2475.62 372.28 L2492.46 374.656 L2509.31 371.94 L2526.15 371.904 L2542.99 373.495 L2559.83 377.749 L2576.68 375.66 L2593.52 373.432 L2610.36 374.955 L2627.21 395.613 L2644.05 421.734 L2660.89 449.442 L2677.73 472.915 L2694.58 493.4 L2711.42 497.663 L2728.26 486.535 L2745.1 450.598 L2761.95 399.207 L2778.79 365.38 L2795.63 346.704 L2812.48 345.124 L2829.32 353.007 L2846.16 360.173 L2863 371.949 L2879.85 377.803 L2896.69 380.098 L2913.53 376.059 L2930.37 377.204 L2947.22 377.472 L2964.06 383.528 L2980.9 379.727 L2997.75 377.779 L3014.59 380.339 L3031.43 400.609 L3048.27 425.961 L3065.12 455.274 L3081.96 477.825 L3098.8 498.888 L3115.64 504.357 L3132.49 492.315 L3149.33 454.677 L3166.17 403.696 L3183.01 369.769 L3199.86 352.459 L3216.7 351.954 L3233.54 357.107 L3250.39 365.292 L3267.23 375.331 L3284.07 381.075 L3300.91 383.017 L3317.76 380.213 L3334.6 379.967 L3351.44 380.407 L3368.28 386.137 L3385.13 384.17 L3401.97 382.245 L3418.81 384.492 L3435.66 404.543 L3452.5 429.393 L3469.34 458.642 L3486.18 484.155 L3503.03 503.967 L3519.87 508.056 L3536.71 496.062 L3553.55 456.673 L3570.4 408.437 L3587.24 374.401 L3604.08 358.129 L3620.93 357.052 L3637.77 362.266 L3654.61 368.344 L3671.45 378.342 L3688.3 383.654 L3705.14 385.759 L3721.98 382.747 L3738.82 382.907 L3755.67 382.968 L3772.51 389.754 L3789.35 386.355 L3806.2 385.498 L3823.04 388.975 L3839.88 408.035 L3856.72 432.903 L3873.57 460.99 L3890.41 488.588 L3907.25 507.758 L3924.09 510.164 L3940.94 498.019 L3957.78 459.317 L3974.62 411.243 L3991.47 378.793 L4008.31 362.446 L4025.15 360.174 L4041.99 365.945 L4058.84 372.3 L4075.68 380.03 L4092.52 385.888 L4109.36 387.551 L4126.21 384.681 L4143.05 384.85 L4159.89 385.504 L4176.74 391.997 L4193.58 390.218 L4210.42 388.617 L4227.26 391.791 L4244.11 409.658 L4260.95 436.099 L4277.79 462.358 L4294.63 490.313 L4311.48 511.193 L4328.32 511.99 L4345.16 500.142 L4362 461.555 L4378.85 414.005 L4395.69 384.385 L4412.53 365.931 L4429.38 363.047 L4446.22 367.054 L4463.06 376.244 L4479.9 383.356 L4496.75 387.402 L4513.59 389.536 L4530.43 386.696 L4547.27 386.494 L4564.12 387.348 L4580.96 394.086 L4597.8 390.847 L4614.65 391.03 L4631.49 392.805 L4631.49 156.22 L4614.65 167.796 L4597.8 187.922 L4580.96 207.358 L4564.12 215.209 L4547.27 221.459 L4530.43 225.679 L4513.59 228.884 L4496.75 225.179 L4479.9 215.704 L4463.06 197.486 L4446.22 180.29 L4429.38 169.115 L4412.53 170.499 L4395.69 181.864 L4378.85 206.346 L4362 249.694 L4345.16 284.752 L4328.32 295.616 L4311.48 289.536 L4294.63 263.491 L4277.79 231.036 L4260.95 196.737 L4244.11 169.357 L4227.26 154.909 L4210.42 166.793 L4193.58 186.886 L4176.74 205.521 L4159.89 213.754 L4143.05 219.558 L4126.21 224.043 L4109.36 227.691 L4092.52 223.845 L4075.68 214.4 L4058.84 196.46 L4041.99 178.67 L4025.15 167.59 L4008.31 168.403 L3991.47 180.286 L3974.62 204.91 L3957.78 248.094 L3940.94 282.996 L3924.09 293.568 L3907.25 287.591 L3890.41 261.5 L3873.57 229.598 L3856.72 195.482 L3839.88 167.972 L3823.04 153.19 L3806.2 164.948 L3789.35 185.469 L3772.51 202.946 L3755.67 209.882 L3738.82 217.238 L3721.98 221.861 L3705.14 225.513 L3688.3 221.665 L3671.45 212.228 L3654.61 194.81 L3637.77 176.677 L3620.93 165.371 L3604.08 166.555 L3587.24 178.482 L3570.4 203.214 L3553.55 245.098 L3536.71 280.4 L3519.87 290.819 L3503.03 284.708 L3486.18 259.433 L3469.34 227.27 L3452.5 193.83 L3435.66 166.211 L3418.81 150.918 L3401.97 163.215 L3385.13 182.964 L3368.28 200.082 L3351.44 208.336 L3334.6 214.107 L3317.76 218.2 L3300.91 222.663 L3284.07 218.56 L3267.23 208.625 L3250.39 192.813 L3233.54 174.364 L3216.7 162.565 L3199.86 163.428 L3183.01 174.463 L3166.17 199.796 L3149.33 241.703 L3132.49 274.826 L3115.64 286.741 L3098.8 280.626 L3081.96 256.213 L3065.12 224.078 L3048.27 190.553 L3031.43 162.963 L3014.59 148.523 L2997.75 159.611 L2980.9 179.21 L2964.06 196.268 L2947.22 203.958 L2930.37 209.508 L2913.53 213.879 L2896.69 217.35 L2879.85 215.438 L2863 205.5 L2846.16 188.242 L2829.32 171.059 L2812.48 160.179 L2795.63 159.982 L2778.79 170.516 L2761.95 195.413 L2745.1 236.906 L2728.26 270.269 L2711.42 281.577 L2694.58 276.599 L2677.73 251.185 L2660.89 220.177 L2644.05 186.449 L2627.21 158.686 L2610.36 144.665 L2593.52 155.438 L2576.68 174.497 L2559.83 192.24 L2542.99 198.007 L2526.15 203.773 L2509.31 208.947 L2492.46 213.232 L2475.62 210.613 L2458.78 200.711 L2441.94 183.246 L2425.09 166.384 L2408.25 156.126 L2391.41 154.94 L2374.56 165.667 L2357.72 189.865 L2340.88 229.007 L2324.04 262.612 L2307.19 274.236 L2290.35 270.472 L2273.51 245.222 L2256.67 213.66 L2239.82 180.62 L2222.98 153.308 L2206.14 139.242 L2189.29 149.318 L2172.45 168.474 L2155.61 184.513 L2138.77 191.084 L2121.92 197.669 L2105.08 202.851 L2088.24 206.575 L2071.4 205.954 L2054.55 195.034 L2037.71 177.43 L2020.87 160.125 L2004.02 149.081 L1987.18 148.635 L1970.34 159.381 L1953.5 181.091 L1936.65 220.106 L1919.81 254.538 L1902.97 266.518 L1886.13 263.468 L1869.28 238.118 L1852.44 206.839 L1835.6 174.767 L1818.76 147.364 L1801.91 133.384 L1785.07 143.516 L1768.23 162.747 L1751.38 176.971 L1734.54 184.946 L1717.7 191.985 L1700.86 195.81 L1684.01 200.048 L1667.17 197.558 L1650.33 189.46 L1633.49 171.827 L1616.64 154.336 L1599.8 143.191 L1582.96 142.742 L1566.11 152.47 L1549.27 174.065 L1532.43 213.371 L1515.59 247.746 L1498.74 260.481 L1481.9 257.408 L1465.06 232.415 L1448.22 201.713 L1431.37 169.295 L1414.53 142.487 L1397.69 128.823 L1380.84 139.271 L1364 159.282 L1347.16 173.46 L1330.32 181.599 L1313.47 187.807 L1296.63 192.023 L1279.79 196.807 L1262.95 194.597 L1246.1 187.586 L1229.26 171.135 L1212.42 154.662 L1195.57 142.85 L1178.73 143.527 L1161.89 154.305 L1145.05 178.631 L1128.2 218.414 L1111.36 253.553 L1094.52 266.893 L1077.68 262.532 L1060.83 238.922 L1043.99 208.939 L1027.15 177.294 L1010.3 150.44 L993.462 137.934 L976.619 151.45 L959.777 173.175 L942.934 191.329 L926.091 199.664 L909.249 206.119 L892.406 211.819 L875.563 218.328 L858.72 217.894 L841.878 212.75 L825.035 201.227 L808.192 188.435 L791.35 185.134 L774.507 194.43 L757.664 215.619 L740.821 246.149 L723.979 292.958 L707.136 332.809 L690.293 349.624 L673.451 350.975 L656.608 334.706 L639.765 311.34 L622.922 284.823 L606.08 264.688 L589.237 256.028  Z" fill="#414141" fill-rule="evenodd" fill-opacity="0.5"/>
<polyline clip-path="url(#clip662)" style="stroke:#414141; stroke-linecap:round; stroke-linejoin:round; stroke-width:0; stroke-opacity:1; fill:none" points="589.237,287.564 606.08,296.319 622.922,308.745 639.765,323.026 656.608,336.285 673.451,346.784 690.293,347.665 707.136,340.406 723.979,320.653 740.821,297.09 757.664,282.307 774.507,273.96 791.35,271.288 808.192,274.197 825.035,279.866 841.878,285.615 858.72,288.318 875.563,288.985 892.406,286.981 909.249,285.762 926.091,284.42 942.934,282.641 959.777,277.713 976.619,271.733 993.462,269.293 1010.3,277.31 1027.15,289.613 1043.99,304.049 1060.83,317.65 1077.68,328.578 1094.52,329.928 1111.36,323.082 1128.2,304.116 1145.05,281.947 1161.89,269.086 1178.73,262.683 1195.57,261.979 1212.42,266.581 1229.26,273.647 1246.1,280.547 1262.95,284.19 1279.79,285.621 1296.63,284.229 1313.47,283.585 1330.32,282.834 1347.16,281.581 1364,277.121 1380.84,271.591 1397.69,269.557 1414.53,277.957 1431.37,290.619 1448.22,305.406 1465.06,319.325 1481.9,330.556 1498.74,332.216 1515.59,325.611 1532.43,306.797 1549.27,284.681 1566.11,271.821 1582.96,265.428 1599.8,264.748 1616.64,269.4 1633.49,276.486 1650.33,283.411 1667.17,287.074 1684.01,288.538 1700.86,287.225 1717.7,286.682 1734.54,286.044 1751.38,284.895 1768.23,280.544 1785.07,275.129 1801.91,273.21 1818.76,281.73 1835.6,294.518 1852.44,309.436 1869.28,323.489 1886.13,334.863 1902.97,336.631 1919.81,330.119 1936.65,311.33 1953.5,289.144 1970.34,276.155 1987.18,269.632 2004.02,268.798 2020.87,273.317 2037.71,280.295 2054.55,287.12 2071.4,290.693 2088.24,292.11 2105.08,290.758 2121.92,290.231 2138.77,289.597 2155.61,288.471 2172.45,284.149 2189.29,278.768 2206.14,276.897 2222.98,285.469 2239.82,298.319 2256.67,313.301 2273.51,327.424 2290.35,338.869 2307.19,340.709 2324.04,334.249 2340.88,315.49 2357.72,293.252 2374.56,280.153 2391.41,273.506 2408.25,272.513 2425.09,276.902 2441.94,283.771 2458.78,290.493 2475.62,293.984 2492.46,295.335 2509.31,293.952 2526.15,293.38 2542.99,292.721 2559.83,291.583 2576.68,287.266 2593.52,281.895 2610.36,280.039 2627.21,288.637 2644.05,301.521 2660.89,316.539 2677.73,330.702 2694.58,342.19 2711.42,344.082 2728.26,337.667 2745.1,318.91 2761.95,296.593 2778.79,283.393 2795.63,276.627 2812.48,275.548 2829.32,279.815 2846.16,286.582 2863,293.217 2879.85,296.629 2896.69,297.906 2913.53,296.484 2930.37,295.886 2947.22,295.212 2964.06,294.057 2980.9,289.728 2997.75,284.365 3014.59,282.515 3031.43,291.124 3048.27,304.022 3065.12,319.07 3081.96,333.26 3098.8,344.775 3115.64,346.687 3132.49,340.29 3149.33,321.53 3166.17,299.19 3183.01,285.916 3199.86,279.056 3216.7,277.868 3233.54,282.081 3250.39,288.778 3267.23,295.347 3284.07,298.703 3300.91,299.946 3317.76,298.443 3334.6,297.834 3351.44,297.148 3368.28,295.982 3385.13,291.658 3401.97,286.293 3418.81,284.449 3435.66,293.067 3452.5,305.978 3469.34,321.041 3486.18,335.25 3503.03,346.785 3519.87,348.727 3536.71,342.346 3553.55,323.588 3570.4,301.208 3587.24,287.853 3604.08,280.944 3620.93,279.682 3637.77,283.808 3654.61,290.44 3671.45,296.969 3688.3,300.278 3705.14,301.468 3721.98,299.972 3738.82,299.306 3755.67,298.588 3772.51,297.405 3789.35,293.064 3806.2,287.694 3823.04,285.851 3839.88,294.471 3856.72,307.387 3873.57,322.457 3890.41,336.672 3907.25,348.221 3924.09,350.155 3940.94,343.785 3957.78,325.013 3974.62,302.62 3991.47,289.241 4008.31,282.276 4025.15,281.006 4041.99,285.076 4058.84,291.669 4075.68,298.159 4092.52,301.431 4109.36,302.606 4126.21,301.085 4143.05,300.421 4159.89,299.695 4176.74,298.504 4193.58,294.163 4210.42,288.786 4227.26,286.941 4244.11,295.563 4260.95,308.482 4277.79,323.559 4294.63,337.782 4311.48,349.339 4328.32,351.288 4345.16,344.921 4362,326.168 4378.85,303.749 4395.69,290.326 4412.53,283.328 4429.38,282.019 4446.22,286.062 4463.06,292.622 4479.9,299.083 4496.75,302.333 4513.59,303.479 4530.43,301.931 4547.27,301.249 4564.12,300.504 4580.96,299.314 4597.8,294.966 4614.65,289.603 4631.49,287.758 "/>
<path clip-path="url(#clip660)" d="M3862.18 592.384 L4609.93 592.384 L4609.93 73.9845 L3862.18 73.9845  Z" fill="#ffffff" fill-rule="evenodd" fill-opacity="1"/>
<polyline clip-path="url(#clip660)" style="stroke:#000000; stroke-linecap:round; stroke-linejoin:round; stroke-width:4; stroke-opacity:1; fill:none" points="3862.18,592.384 4609.93,592.384 4609.93,73.9845 3862.18,73.9845 3862.18,592.384 "/>
<polyline clip-path="url(#clip660)" style="stroke:#aeaeae; stroke-linecap:round; stroke-linejoin:round; stroke-width:2; stroke-opacity:1; fill:none" points="3909.79,203.584 4195.44,203.584 "/>
<path clip-path="url(#clip660)" d="M4244.73 236.947 L4263.83 236.947 L4263.83 171.033 L4243.05 175.199 L4243.05 164.551 L4263.71 160.384 L4275.4 160.384 L4275.4 236.947 L4294.5 236.947 L4294.5 246.784 L4244.73 246.784 L4244.73 236.947 Z" fill="#000000" fill-rule="nonzero" fill-opacity="1" /><path clip-path="url(#clip660)" d="M4343.11 168.081 Q4334.08 168.081 4329.51 176.993 Q4325 185.847 4325 203.671 Q4325 221.437 4329.51 230.349 Q4334.08 239.203 4343.11 239.203 Q4352.19 239.203 4356.71 230.349 Q4361.28 221.437 4361.28 203.671 Q4361.28 185.847 4356.71 176.993 Q4352.19 168.081 4343.11 168.081 M4343.11 158.822 Q4357.63 158.822 4365.27 170.338 Q4372.97 181.796 4372.97 203.671 Q4372.97 225.488 4365.27 237.004 Q4357.63 248.463 4343.11 248.463 Q4328.58 248.463 4320.89 237.004 Q4313.25 225.488 4313.25 203.671 Q4313.25 181.796 4320.89 170.338 Q4328.58 158.822 4343.11 158.822 Z" fill="#000000" fill-rule="nonzero" fill-opacity="1" /><path clip-path="url(#clip660)" d="M4418.51 168.081 Q4409.49 168.081 4404.91 176.993 Q4400.4 185.847 4400.4 203.671 Q4400.4 221.437 4404.91 230.349 Q4409.49 239.203 4418.51 239.203 Q4427.6 239.203 4432.11 230.349 Q4436.69 221.437 4436.69 203.671 Q4436.69 185.847 4432.11 176.993 Q4427.6 168.081 4418.51 168.081 M4418.51 158.822 Q4433.04 158.822 4440.68 170.338 Q4448.37 181.796 4448.37 203.671 Q4448.37 225.488 4440.68 237.004 Q4433.04 248.463 4418.51 248.463 Q4403.99 248.463 4396.29 237.004 Q4388.65 225.488 4388.65 203.671 Q4388.65 181.796 4396.29 170.338 Q4403.99 158.822 4418.51 158.822 Z" fill="#000000" fill-rule="nonzero" fill-opacity="1" /><path clip-path="url(#clip660)" d="M4542.41 208.764 Q4537.38 208.764 4534.49 213.046 Q4531.65 217.329 4531.65 224.967 Q4531.65 232.491 4534.49 236.831 Q4537.38 241.113 4542.41 241.113 Q4547.33 241.113 4550.17 236.831 Q4553.06 232.491 4553.06 224.967 Q4553.06 217.386 4550.17 213.104 Q4547.33 208.764 4542.41 208.764 M4542.41 201.414 Q4551.56 201.414 4556.94 207.78 Q4562.32 214.146 4562.32 224.967 Q4562.32 235.789 4556.88 242.155 Q4551.5 248.463 4542.41 248.463 Q4533.15 248.463 4527.77 242.155 Q4522.39 235.789 4522.39 224.967 Q4522.39 214.088 4527.77 207.78 Q4533.21 201.414 4542.41 201.414 M4482.69 166.171 Q4477.71 166.171 4474.82 170.512 Q4471.99 174.794 4471.99 182.317 Q4471.99 189.956 4474.82 194.238 Q4477.66 198.521 4482.69 198.521 Q4487.73 198.521 4490.56 194.238 Q4493.46 189.956 4493.46 182.317 Q4493.46 174.852 4490.56 170.512 Q4487.67 166.171 4482.69 166.171 M4534.95 158.822 L4544.21 158.822 L4490.16 248.463 L4480.9 248.463 L4534.95 158.822 M4482.69 158.822 Q4491.84 158.822 4497.28 165.188 Q4502.71 171.496 4502.71 182.317 Q4502.71 193.255 4497.28 199.563 Q4491.89 205.87 4482.69 205.87 Q4473.49 205.87 4468.11 199.563 Q4462.78 193.197 4462.78 182.317 Q4462.78 171.553 4468.17 165.188 Q4473.55 158.822 4482.69 158.822 Z" fill="#000000" fill-rule="nonzero" fill-opacity="1" /><polyline clip-path="url(#clip660)" style="stroke:#757575; stroke-linecap:round; stroke-linejoin:round; stroke-width:2; stroke-opacity:1; fill:none" points="3909.79,333.184 4195.44,333.184 "/>
<path clip-path="url(#clip660)" d="M4248.61 374.591 L4248.61 363.942 Q4253.01 366.026 4257.52 367.125 Q4262.03 368.225 4266.37 368.225 Q4277.95 368.225 4284.02 360.47 Q4290.16 352.658 4291.03 336.801 Q4287.67 341.778 4282.52 344.44 Q4277.37 347.102 4271.12 347.102 Q4258.16 347.102 4250.57 339.29 Q4243.05 331.419 4243.05 317.82 Q4243.05 304.51 4250.92 296.466 Q4258.79 288.422 4271.87 288.422 Q4286.86 288.422 4294.73 299.938 Q4302.66 311.396 4302.66 333.271 Q4302.66 353.699 4292.94 365.91 Q4283.27 378.063 4266.89 378.063 Q4262.5 378.063 4257.98 377.195 Q4253.47 376.327 4248.61 374.591 M4271.87 337.959 Q4279.74 337.959 4284.31 332.577 Q4288.94 327.195 4288.94 317.82 Q4288.94 308.503 4284.31 303.121 Q4279.74 297.681 4271.87 297.681 Q4264 297.681 4259.37 303.121 Q4254.8 308.503 4254.8 317.82 Q4254.8 327.195 4259.37 332.577 Q4264 337.959 4271.87 337.959 Z" fill="#000000" fill-rule="nonzero" fill-opacity="1" /><path clip-path="url(#clip660)" d="M4348.66 297.681 Q4339.64 297.681 4335.07 306.593 Q4330.55 315.447 4330.55 333.271 Q4330.55 351.037 4335.07 359.949 Q4339.64 368.803 4348.66 368.803 Q4357.75 368.803 4362.26 359.949 Q4366.84 351.037 4366.84 333.271 Q4366.84 315.447 4362.26 306.593 Q4357.75 297.681 4348.66 297.681 M4348.66 288.422 Q4363.19 288.422 4370.83 299.938 Q4378.53 311.396 4378.53 333.271 Q4378.53 355.088 4370.83 366.604 Q4363.19 378.063 4348.66 378.063 Q4334.14 378.063 4326.44 366.604 Q4318.8 355.088 4318.8 333.271 Q4318.8 311.396 4326.44 299.938 Q4334.14 288.422 4348.66 288.422 Z" fill="#000000" fill-rule="nonzero" fill-opacity="1" /><path clip-path="url(#clip660)" d="M4472.56 338.364 Q4467.53 338.364 4464.64 342.646 Q4461.8 346.929 4461.8 354.567 Q4461.8 362.091 4464.64 366.431 Q4467.53 370.713 4472.56 370.713 Q4477.48 370.713 4480.32 366.431 Q4483.21 362.091 4483.21 354.567 Q4483.21 346.986 4480.32 342.704 Q4477.48 338.364 4472.56 338.364 M4472.56 331.014 Q4481.71 331.014 4487.09 337.38 Q4492.47 343.746 4492.47 354.567 Q4492.47 365.389 4487.03 371.755 Q4481.65 378.063 4472.56 378.063 Q4463.31 378.063 4457.92 371.755 Q4452.54 365.389 4452.54 354.567 Q4452.54 343.688 4457.92 337.38 Q4463.36 331.014 4472.56 331.014 M4412.84 295.771 Q4407.87 295.771 4404.97 300.112 Q4402.14 304.394 4402.14 311.917 Q4402.14 319.556 4404.97 323.838 Q4407.81 328.121 4412.84 328.121 Q4417.88 328.121 4420.71 323.838 Q4423.61 319.556 4423.61 311.917 Q4423.61 304.452 4420.71 300.112 Q4417.82 295.771 4412.84 295.771 M4465.1 288.422 L4474.36 288.422 L4420.31 378.063 L4411.05 378.063 L4465.1 288.422 M4412.84 288.422 Q4421.99 288.422 4427.43 294.788 Q4432.87 301.096 4432.87 311.917 Q4432.87 322.855 4427.43 329.163 Q4422.04 335.47 4412.84 335.47 Q4403.64 335.47 4398.26 329.163 Q4392.94 322.797 4392.94 311.917 Q4392.94 301.153 4398.32 294.788 Q4403.7 288.422 4412.84 288.422 Z" fill="#000000" fill-rule="nonzero" fill-opacity="1" /><polyline clip-path="url(#clip660)" style="stroke:#414141; stroke-linecap:round; stroke-linejoin:round; stroke-width:2; stroke-opacity:1; fill:none" points="3909.79,462.784 4195.44,462.784 "/>
<path clip-path="url(#clip660)" d="M4272.68 464.955 Q4264.35 464.955 4259.54 469.411 Q4254.8 473.867 4254.8 481.679 Q4254.8 489.492 4259.54 493.947 Q4264.35 498.403 4272.68 498.403 Q4281.01 498.403 4285.82 493.947 Q4290.62 489.434 4290.62 481.679 Q4290.62 473.867 4285.82 469.411 Q4281.07 464.955 4272.68 464.955 M4260.99 459.978 Q4253.47 458.126 4249.24 452.975 Q4245.08 447.825 4245.08 440.418 Q4245.08 430.059 4252.43 424.04 Q4259.83 418.022 4272.68 418.022 Q4285.59 418.022 4292.94 424.04 Q4300.29 430.059 4300.29 440.418 Q4300.29 447.825 4296.06 452.975 Q4291.89 458.126 4284.43 459.978 Q4292.88 461.945 4297.57 467.674 Q4302.31 473.404 4302.31 481.679 Q4302.31 494.237 4294.61 500.95 Q4286.98 507.663 4272.68 507.663 Q4258.39 507.663 4250.69 500.95 Q4243.05 494.237 4243.05 481.679 Q4243.05 473.404 4247.8 467.674 Q4252.54 461.945 4260.99 459.978 M4256.71 441.517 Q4256.71 448.23 4260.88 451.992 Q4265.1 455.753 4272.68 455.753 Q4280.2 455.753 4284.43 451.992 Q4288.71 448.23 4288.71 441.517 Q4288.71 434.804 4284.43 431.043 Q4280.2 427.281 4272.68 427.281 Q4265.1 427.281 4260.88 431.043 Q4256.71 434.804 4256.71 441.517 Z" fill="#000000" fill-rule="nonzero" fill-opacity="1" /><path clip-path="url(#clip660)" d="M4348.09 427.281 Q4339.06 427.281 4334.49 436.193 Q4329.97 445.047 4329.97 462.871 Q4329.97 480.637 4334.49 489.549 Q4339.06 498.403 4348.09 498.403 Q4357.17 498.403 4361.69 489.549 Q4366.26 480.637 4366.26 462.871 Q4366.26 445.047 4361.69 436.193 Q4357.17 427.281 4348.09 427.281 M4348.09 418.022 Q4362.61 418.022 4370.25 429.538 Q4377.95 440.996 4377.95 462.871 Q4377.95 484.688 4370.25 496.204 Q4362.61 507.663 4348.09 507.663 Q4333.56 507.663 4325.86 496.204 Q4318.23 484.688 4318.23 462.871 Q4318.23 440.996 4325.86 429.538 Q4333.56 418.022 4348.09 418.022 Z" fill="#000000" fill-rule="nonzero" fill-opacity="1" /><path clip-path="url(#clip660)" d="M4471.99 467.964 Q4466.95 467.964 4464.06 472.246 Q4461.22 476.529 4461.22 484.167 Q4461.22 491.691 4464.06 496.031 Q4466.95 500.313 4471.99 500.313 Q4476.9 500.313 4479.74 496.031 Q4482.63 491.691 4482.63 484.167 Q4482.63 476.586 4479.74 472.304 Q4476.9 467.964 4471.99 467.964 M4471.99 460.614 Q4481.13 460.614 4486.51 466.98 Q4491.89 473.346 4491.89 484.167 Q4491.89 494.989 4486.45 501.355 Q4481.07 507.663 4471.99 507.663 Q4462.73 507.663 4457.34 501.355 Q4451.96 494.989 4451.96 484.167 Q4451.96 473.288 4457.34 466.98 Q4462.78 460.614 4471.99 460.614 M4412.26 425.371 Q4407.29 425.371 4404.39 429.712 Q4401.56 433.994 4401.56 441.517 Q4401.56 449.156 4404.39 453.438 Q4407.23 457.721 4412.26 457.721 Q4417.3 457.721 4420.13 453.438 Q4423.03 449.156 4423.03 441.517 Q4423.03 434.052 4420.13 429.712 Q4417.24 425.371 4412.26 425.371 M4464.52 418.022 L4473.78 418.022 L4419.73 507.663 L4410.47 507.663 L4464.52 418.022 M4412.26 418.022 Q4421.41 418.022 4426.85 424.388 Q4432.29 430.696 4432.29 441.517 Q4432.29 452.455 4426.85 458.763 Q4421.47 465.07 4412.26 465.07 Q4403.06 465.07 4397.68 458.763 Q4392.36 452.397 4392.36 441.517 Q4392.36 430.753 4397.74 424.388 Q4403.12 418.022 4412.26 418.022 Z" fill="#000000" fill-rule="nonzero" fill-opacity="1" /></svg>
