<?xml version="1.0" encoding="utf-8"?>
<svg xmlns="http://www.w3.org/2000/svg" xmlns:xlink="http://www.w3.org/1999/xlink" width="1200" height="300" viewBox="0 0 4800 1200">
<defs>
  <clipPath id="clip900">
    <rect x="0" y="0" width="4800" height="1200"/>
  </clipPath>
</defs>
<path clip-path="url(#clip900)" d="M0 1200 L4800 1200 L4800 0 L0 0  Z" fill="#ffffff" fill-rule="evenodd" fill-opacity="1"/>
<defs>
  <clipPath id="clip901">
    <rect x="960" y="0" width="3361" height="1200"/>
  </clipPath>
</defs>
<path clip-path="url(#clip900)" d="M404.977 880.951 L4752.76 880.951 L4752.76 47.2441 L404.977 47.2441  Z" fill="#ffffff" fill-rule="evenodd" fill-opacity="1"/>
<defs>
  <clipPath id="clip902">
    <rect x="404" y="47" width="4349" height="835"/>
  </clipPath>
</defs>
<polyline clip-path="url(#clip902)" style="stroke:#000000; stroke-linecap:round; stroke-linejoin:round; stroke-width:2; stroke-opacity:0.1; fill:none" points="528.028,880.951 528.028,47.2441 "/>
<polyline clip-path="url(#clip902)" style="stroke:#000000; stroke-linecap:round; stroke-linejoin:round; stroke-width:2; stroke-opacity:0.1; fill:none" points="1348.36,880.951 1348.36,47.2441 "/>
<polyline clip-path="url(#clip902)" style="stroke:#000000; stroke-linecap:round; stroke-linejoin:round; stroke-width:2; stroke-opacity:0.1; fill:none" points="2168.7,880.951 2168.7,47.2441 "/>
<polyline clip-path="url(#clip902)" style="stroke:#000000; stroke-linecap:round; stroke-linejoin:round; stroke-width:2; stroke-opacity:0.1; fill:none" points="2989.03,880.951 2989.03,47.2441 "/>
<polyline clip-path="url(#clip902)" style="stroke:#000000; stroke-linecap:round; stroke-linejoin:round; stroke-width:2; stroke-opacity:0.1; fill:none" points="3809.37,880.951 3809.37,47.2441 "/>
<polyline clip-path="url(#clip902)" style="stroke:#000000; stroke-linecap:round; stroke-linejoin:round; stroke-width:2; stroke-opacity:0.1; fill:none" points="4629.71,880.951 4629.71,47.2441 "/>
<polyline clip-path="url(#clip902)" style="stroke:#000000; stroke-linecap:round; stroke-linejoin:round; stroke-width:2; stroke-opacity:0.1; fill:none" points="404.977,734.541 4752.76,734.541 "/>
<polyline clip-path="url(#clip902)" style="stroke:#000000; stroke-linecap:round; stroke-linejoin:round; stroke-width:2; stroke-opacity:0.1; fill:none" points="404.977,568.8 4752.76,568.8 "/>
<polyline clip-path="url(#clip902)" style="stroke:#000000; stroke-linecap:round; stroke-linejoin:round; stroke-width:2; stroke-opacity:0.1; fill:none" points="404.977,403.06 4752.76,403.06 "/>
<polyline clip-path="url(#clip902)" style="stroke:#000000; stroke-linecap:round; stroke-linejoin:round; stroke-width:2; stroke-opacity:0.1; fill:none" points="404.977,237.32 4752.76,237.32 "/>
<polyline clip-path="url(#clip902)" style="stroke:#000000; stroke-linecap:round; stroke-linejoin:round; stroke-width:2; stroke-opacity:0.1; fill:none" points="404.977,71.5794 4752.76,71.5794 "/>
<polyline clip-path="url(#clip900)" style="stroke:#000000; stroke-linecap:round; stroke-linejoin:round; stroke-width:4; stroke-opacity:1; fill:none" points="404.977,880.951 4752.76,880.951 "/>
<polyline clip-path="url(#clip900)" style="stroke:#000000; stroke-linecap:round; stroke-linejoin:round; stroke-width:4; stroke-opacity:1; fill:none" points="528.028,880.951 528.028,862.054 "/>
<polyline clip-path="url(#clip900)" style="stroke:#000000; stroke-linecap:round; stroke-linejoin:round; stroke-width:4; stroke-opacity:1; fill:none" points="1348.36,880.951 1348.36,862.054 "/>
<polyline clip-path="url(#clip900)" style="stroke:#000000; stroke-linecap:round; stroke-linejoin:round; stroke-width:4; stroke-opacity:1; fill:none" points="2168.7,880.951 2168.7,862.054 "/>
<polyline clip-path="url(#clip900)" style="stroke:#000000; stroke-linecap:round; stroke-linejoin:round; stroke-width:4; stroke-opacity:1; fill:none" points="2989.03,880.951 2989.03,862.054 "/>
<polyline clip-path="url(#clip900)" style="stroke:#000000; stroke-linecap:round; stroke-linejoin:round; stroke-width:4; stroke-opacity:1; fill:none" points="3809.37,880.951 3809.37,862.054 "/>
<polyline clip-path="url(#clip900)" style="stroke:#000000; stroke-linecap:round; stroke-linejoin:round; stroke-width:4; stroke-opacity:1; fill:none" points="4629.71,880.951 4629.71,862.054 "/>
<path clip-path="url(#clip900)" d="M528.028 942.789 Q520.806 942.789 517.148 949.918 Q513.537 957.002 513.537 971.261 Q513.537 985.474 517.148 992.603 Q520.806 999.687 528.028 999.687 Q535.296 999.687 538.907 992.603 Q542.565 985.474 542.565 971.261 Q542.565 957.002 538.907 949.918 Q535.296 942.789 528.028 942.789 M528.028 935.382 Q539.648 935.382 545.759 944.594 Q551.916 953.761 551.916 971.261 Q551.916 988.715 545.759 997.927 Q539.648 1007.09 528.028 1007.09 Q516.407 1007.09 510.25 997.927 Q504.139 988.715 504.139 971.261 Q504.139 953.761 510.25 944.594 Q516.407 935.382 528.028 935.382 Z" fill="#000000" fill-rule="nonzero" fill-opacity="1" /><path clip-path="url(#clip900)" d="M1337.67 997.881 L1370.31 997.881 L1370.31 1005.75 L1326.42 1005.75 L1326.42 997.881 Q1331.74 992.372 1340.91 983.113 Q1350.12 973.807 1352.48 971.122 Q1356.97 966.076 1358.73 962.604 Q1360.54 959.085 1360.54 955.705 Q1360.54 950.196 1356.65 946.724 Q1352.81 943.252 1346.6 943.252 Q1342.21 943.252 1337.3 944.78 Q1332.44 946.307 1326.88 949.409 L1326.88 939.965 Q1332.53 937.696 1337.44 936.539 Q1342.34 935.382 1346.42 935.382 Q1357.16 935.382 1363.55 940.752 Q1369.94 946.122 1369.94 955.104 Q1369.94 959.363 1368.32 963.205 Q1366.74 967.002 1362.53 972.187 Q1361.37 973.529 1355.17 979.965 Q1348.97 986.353 1337.67 997.881 Z" fill="#000000" fill-rule="nonzero" fill-opacity="1" /><path clip-path="url(#clip900)" d="M2174.72 944.78 L2151.11 981.678 L2174.72 981.678 L2174.72 944.78 M2172.26 936.631 L2184.02 936.631 L2184.02 981.678 L2193.88 981.678 L2193.88 989.455 L2184.02 989.455 L2184.02 1005.75 L2174.72 1005.75 L2174.72 989.455 L2143.51 989.455 L2143.51 980.428 L2172.26 936.631 Z" fill="#000000" fill-rule="nonzero" fill-opacity="1" /><path clip-path="url(#clip900)" d="M2989.84 967.465 Q2983.55 967.465 2979.84 971.77 Q2976.19 976.076 2976.19 983.576 Q2976.19 991.029 2979.84 995.381 Q2983.55 999.687 2989.84 999.687 Q2996.14 999.687 2999.8 995.381 Q3003.5 991.029 3003.5 983.576 Q3003.5 976.076 2999.8 971.77 Q2996.14 967.465 2989.84 967.465 M3008.41 938.159 L3008.41 946.678 Q3004.89 945.011 3001.28 944.131 Q2997.71 943.252 2994.2 943.252 Q2984.94 943.252 2980.03 949.502 Q2975.17 955.752 2974.47 968.391 Q2977.21 964.363 2981.33 962.233 Q2985.45 960.057 2990.4 960.057 Q3000.82 960.057 3006.84 966.4 Q3012.9 972.696 3012.9 983.576 Q3012.9 994.224 3006.6 1000.66 Q3000.31 1007.09 2989.84 1007.09 Q2977.85 1007.09 2971.51 997.927 Q2965.17 988.715 2965.17 971.261 Q2965.17 954.872 2972.95 945.15 Q2980.72 935.382 2993.83 935.382 Q2997.34 935.382 3000.91 936.076 Q3004.52 936.77 3008.41 938.159 Z" fill="#000000" fill-rule="nonzero" fill-opacity="1" /><path clip-path="url(#clip900)" d="M3809.37 972.928 Q3802.7 972.928 3798.86 976.492 Q3795.06 980.057 3795.06 986.307 Q3795.06 992.557 3798.86 996.122 Q3802.7 999.687 3809.37 999.687 Q3816.04 999.687 3819.88 996.122 Q3823.72 992.511 3823.72 986.307 Q3823.72 980.057 3819.88 976.492 Q3816.08 972.928 3809.37 972.928 M3800.02 968.946 Q3794 967.465 3790.62 963.344 Q3787.29 959.224 3787.29 953.298 Q3787.29 945.011 3793.17 940.196 Q3799.09 935.382 3809.37 935.382 Q3819.69 935.382 3825.57 940.196 Q3831.45 945.011 3831.45 953.298 Q3831.45 959.224 3828.07 963.344 Q3824.74 967.465 3818.77 968.946 Q3825.53 970.52 3829.28 975.104 Q3833.07 979.687 3833.07 986.307 Q3833.07 996.353 3826.92 1001.72 Q3820.81 1007.09 3809.37 1007.09 Q3797.93 1007.09 3791.78 1001.72 Q3785.67 996.353 3785.67 986.307 Q3785.67 979.687 3789.46 975.104 Q3793.26 970.52 3800.02 968.946 M3796.59 954.178 Q3796.59 959.548 3799.93 962.557 Q3803.31 965.567 3809.37 965.567 Q3815.39 965.567 3818.77 962.557 Q3822.19 959.548 3822.19 954.178 Q3822.19 948.807 3818.77 945.798 Q3815.39 942.789 3809.37 942.789 Q3803.31 942.789 3799.93 945.798 Q3796.59 948.807 3796.59 954.178 Z" fill="#000000" fill-rule="nonzero" fill-opacity="1" /><path clip-path="url(#clip900)" d="M4579.08 997.881 L4594.36 997.881 L4594.36 945.15 L4577.74 948.483 L4577.74 939.965 L4594.27 936.631 L4603.62 936.631 L4603.62 997.881 L4618.9 997.881 L4618.9 1005.75 L4579.08 1005.75 L4579.08 997.881 Z" fill="#000000" fill-rule="nonzero" fill-opacity="1" /><path clip-path="url(#clip900)" d="M4657.78 942.789 Q4650.56 942.789 4646.9 949.918 Q4643.29 957.002 4643.29 971.261 Q4643.29 985.474 4646.9 992.603 Q4650.56 999.687 4657.78 999.687 Q4665.05 999.687 4668.66 992.603 Q4672.32 985.474 4672.32 971.261 Q4672.32 957.002 4668.66 949.918 Q4665.05 942.789 4657.78 942.789 M4657.78 935.382 Q4669.4 935.382 4675.52 944.594 Q4681.67 953.761 4681.67 971.261 Q4681.67 988.715 4675.52 997.927 Q4669.4 1007.09 4657.78 1007.09 Q4646.16 1007.09 4640.01 997.927 Q4633.9 988.715 4633.9 971.261 Q4633.9 953.761 4640.01 944.594 Q4646.16 935.382 4657.78 935.382 Z" fill="#000000" fill-rule="nonzero" fill-opacity="1" /><path clip-path="url(#clip900)" d="M2296.11 1072.18 L2361.89 1072.18 L2361.89 1081.04 L2334.28 1081.04 L2334.28 1149.94 L2323.71 1149.94 L2323.71 1081.04 L2296.11 1081.04 L2296.11 1072.18 Z" fill="#000000" fill-rule="nonzero" fill-opacity="1" /><path clip-path="url(#clip900)" d="M2368.35 1091.61 L2377.93 1091.61 L2377.93 1149.94 L2368.35 1149.94 L2368.35 1091.61 M2368.35 1068.9 L2377.93 1068.9 L2377.93 1081.04 L2368.35 1081.04 L2368.35 1068.9 Z" fill="#000000" fill-rule="nonzero" fill-opacity="1" /><path clip-path="url(#clip900)" d="M2443.4 1102.81 Q2446.99 1096.35 2451.99 1093.28 Q2456.99 1090.2 2463.76 1090.2 Q2472.88 1090.2 2477.83 1096.61 Q2482.77 1102.96 2482.77 1114.74 L2482.77 1149.94 L2473.14 1149.94 L2473.14 1115.05 Q2473.14 1106.66 2470.17 1102.6 Q2467.2 1098.54 2461.11 1098.54 Q2453.66 1098.54 2449.34 1103.49 Q2445.01 1108.43 2445.01 1116.97 L2445.01 1149.94 L2435.38 1149.94 L2435.38 1115.05 Q2435.38 1106.61 2432.41 1102.6 Q2429.44 1098.54 2423.24 1098.54 Q2415.9 1098.54 2411.58 1103.54 Q2407.25 1108.49 2407.25 1116.97 L2407.25 1149.94 L2397.62 1149.94 L2397.62 1091.61 L2407.25 1091.61 L2407.25 1100.67 Q2410.53 1095.31 2415.12 1092.76 Q2419.7 1090.2 2426 1090.2 Q2432.36 1090.2 2436.78 1093.43 Q2441.26 1096.66 2443.4 1102.81 Z" fill="#000000" fill-rule="nonzero" fill-opacity="1" /><path clip-path="url(#clip900)" d="M2551.78 1118.38 L2551.78 1123.07 L2507.72 1123.07 Q2508.35 1132.96 2513.66 1138.17 Q2519.02 1143.33 2528.55 1143.33 Q2534.08 1143.33 2539.23 1141.97 Q2544.44 1140.62 2549.54 1137.91 L2549.54 1146.97 Q2544.39 1149.16 2538.97 1150.31 Q2533.55 1151.45 2527.98 1151.45 Q2514.02 1151.45 2505.85 1143.33 Q2497.72 1135.2 2497.72 1121.35 Q2497.72 1107.03 2505.43 1098.64 Q2513.19 1090.2 2526.31 1090.2 Q2538.09 1090.2 2544.91 1097.81 Q2551.78 1105.36 2551.78 1118.38 M2542.2 1115.57 Q2542.1 1107.7 2537.77 1103.02 Q2533.5 1098.33 2526.42 1098.33 Q2518.4 1098.33 2513.55 1102.86 Q2508.76 1107.39 2508.03 1115.62 L2542.2 1115.57 Z" fill="#000000" fill-rule="nonzero" fill-opacity="1" /><path clip-path="url(#clip900)" d="M2624.44 1069.01 Q2617.46 1080.99 2614.07 1092.7 Q2610.69 1104.42 2610.69 1116.45 Q2610.69 1128.49 2614.07 1140.31 Q2617.51 1152.08 2624.44 1164.01 L2616.11 1164.01 Q2608.29 1151.77 2604.39 1139.94 Q2600.53 1128.12 2600.53 1116.45 Q2600.53 1104.84 2604.39 1093.07 Q2608.24 1081.3 2616.11 1069.01 L2624.44 1069.01 Z" fill="#000000" fill-rule="nonzero" fill-opacity="1" /><path clip-path="url(#clip900)" d="M2681.42 1100.46 L2681.42 1068.9 L2691 1068.9 L2691 1149.94 L2681.42 1149.94 L2681.42 1141.19 Q2678.4 1146.4 2673.76 1148.95 Q2669.18 1151.45 2662.72 1151.45 Q2652.15 1151.45 2645.48 1143.02 Q2638.87 1134.58 2638.87 1120.83 Q2638.87 1107.08 2645.48 1098.64 Q2652.15 1090.2 2662.72 1090.2 Q2669.18 1090.2 2673.76 1092.76 Q2678.4 1095.26 2681.42 1100.46 M2648.76 1120.83 Q2648.76 1131.4 2653.08 1137.44 Q2657.46 1143.43 2665.06 1143.43 Q2672.67 1143.43 2677.04 1137.44 Q2681.42 1131.4 2681.42 1120.83 Q2681.42 1110.26 2677.04 1104.27 Q2672.67 1098.23 2665.06 1098.23 Q2657.46 1098.23 2653.08 1104.27 Q2648.76 1110.26 2648.76 1120.83 Z" fill="#000000" fill-rule="nonzero" fill-opacity="1" /><path clip-path="url(#clip900)" d="M2737.25 1120.62 Q2725.64 1120.62 2721.16 1123.28 Q2716.68 1125.93 2716.68 1132.34 Q2716.68 1137.44 2720.01 1140.46 Q2723.4 1143.43 2729.18 1143.43 Q2737.15 1143.43 2741.94 1137.81 Q2746.78 1132.13 2746.78 1122.76 L2746.78 1120.62 L2737.25 1120.62 M2756.37 1116.66 L2756.37 1149.94 L2746.78 1149.94 L2746.78 1141.09 Q2743.5 1146.4 2738.61 1148.95 Q2733.71 1151.45 2726.63 1151.45 Q2717.67 1151.45 2712.36 1146.45 Q2707.1 1141.4 2707.1 1132.96 Q2707.1 1123.12 2713.66 1118.12 Q2720.27 1113.12 2733.34 1113.12 L2746.78 1113.12 L2746.78 1112.18 Q2746.78 1105.57 2742.41 1101.98 Q2738.08 1098.33 2730.22 1098.33 Q2725.22 1098.33 2720.48 1099.53 Q2715.74 1100.73 2711.37 1103.12 L2711.37 1094.27 Q2716.63 1092.24 2721.57 1091.25 Q2726.52 1090.2 2731.21 1090.2 Q2743.87 1090.2 2750.12 1096.77 Q2756.37 1103.33 2756.37 1116.66 Z" fill="#000000" fill-rule="nonzero" fill-opacity="1" /><path clip-path="url(#clip900)" d="M2800.38 1155.36 Q2796.31 1165.78 2792.46 1168.95 Q2788.61 1172.13 2782.15 1172.13 L2774.49 1172.13 L2774.49 1164.11 L2780.12 1164.11 Q2784.07 1164.11 2786.26 1162.24 Q2788.45 1160.36 2791.11 1153.38 L2792.82 1149.01 L2769.23 1091.61 L2779.39 1091.61 L2797.62 1137.24 L2815.84 1091.61 L2826 1091.61 L2800.38 1155.36 Z" fill="#000000" fill-rule="nonzero" fill-opacity="1" /><path clip-path="url(#clip900)" d="M2837.72 1069.01 L2846.05 1069.01 Q2853.87 1081.3 2857.72 1093.07 Q2861.63 1104.84 2861.63 1116.45 Q2861.63 1128.12 2857.72 1139.94 Q2853.87 1151.77 2846.05 1164.01 L2837.72 1164.01 Q2844.65 1152.08 2848.03 1140.31 Q2851.47 1128.49 2851.47 1116.45 Q2851.47 1104.42 2848.03 1092.7 Q2844.65 1080.99 2837.72 1069.01 Z" fill="#000000" fill-rule="nonzero" fill-opacity="1" /><polyline clip-path="url(#clip900)" style="stroke:#000000; stroke-linecap:round; stroke-linejoin:round; stroke-width:4; stroke-opacity:1; fill:none" points="404.977,880.951 404.977,47.2441 "/>
<polyline clip-path="url(#clip900)" style="stroke:#000000; stroke-linecap:round; stroke-linejoin:round; stroke-width:4; stroke-opacity:1; fill:none" points="404.977,734.541 423.875,734.541 "/>
<polyline clip-path="url(#clip900)" style="stroke:#000000; stroke-linecap:round; stroke-linejoin:round; stroke-width:4; stroke-opacity:1; fill:none" points="404.977,568.8 423.875,568.8 "/>
<polyline clip-path="url(#clip900)" style="stroke:#000000; stroke-linecap:round; stroke-linejoin:round; stroke-width:4; stroke-opacity:1; fill:none" points="404.977,403.06 423.875,403.06 "/>
<polyline clip-path="url(#clip900)" style="stroke:#000000; stroke-linecap:round; stroke-linejoin:round; stroke-width:4; stroke-opacity:1; fill:none" points="404.977,237.32 423.875,237.32 "/>
<polyline clip-path="url(#clip900)" style="stroke:#000000; stroke-linecap:round; stroke-linejoin:round; stroke-width:4; stroke-opacity:1; fill:none" points="404.977,71.5794 423.875,71.5794 "/>
<path clip-path="url(#clip900)" d="M151.219 735.443 L210.571 735.443 L210.571 743.314 L151.219 743.314 L151.219 735.443 Z" fill="#000000" fill-rule="nonzero" fill-opacity="1" /><path clip-path="url(#clip900)" d="M228.395 699.981 L272.839 699.981 L272.839 703.962 L247.746 769.101 L237.978 769.101 L261.589 707.851 L228.395 707.851 L228.395 699.981 Z" fill="#000000" fill-rule="nonzero" fill-opacity="1" /><path clip-path="url(#clip900)" d="M291.172 699.981 L327.885 699.981 L327.885 707.851 L299.737 707.851 L299.737 724.795 Q301.774 724.101 303.811 723.777 Q305.848 723.406 307.885 723.406 Q319.459 723.406 326.218 729.749 Q332.977 736.092 332.977 746.925 Q332.977 758.082 326.033 764.286 Q319.089 770.443 306.45 770.443 Q302.098 770.443 297.561 769.703 Q293.07 768.962 288.255 767.48 L288.255 758.082 Q292.422 760.351 296.866 761.462 Q301.311 762.573 306.265 762.573 Q314.274 762.573 318.95 758.36 Q323.626 754.147 323.626 746.925 Q323.626 739.703 318.95 735.49 Q314.274 731.277 306.265 731.277 Q302.515 731.277 298.765 732.11 Q295.061 732.943 291.172 734.703 L291.172 699.981 Z" fill="#000000" fill-rule="nonzero" fill-opacity="1" /><path clip-path="url(#clip900)" d="M149.228 569.703 L208.58 569.703 L208.58 577.573 L149.228 577.573 L149.228 569.703 Z" fill="#000000" fill-rule="nonzero" fill-opacity="1" /><path clip-path="url(#clip900)" d="M228.858 534.24 L265.57 534.24 L265.57 542.111 L237.422 542.111 L237.422 559.055 Q239.459 558.361 241.496 558.037 Q243.533 557.666 245.57 557.666 Q257.144 557.666 263.904 564.009 Q270.663 570.351 270.663 581.185 Q270.663 592.342 263.718 598.546 Q256.774 604.703 244.135 604.703 Q239.783 604.703 235.246 603.962 Q230.756 603.221 225.941 601.74 L225.941 592.342 Q230.108 594.61 234.552 595.722 Q238.996 596.833 243.95 596.833 Q251.959 596.833 256.635 592.62 Q261.311 588.407 261.311 581.185 Q261.311 573.962 256.635 569.749 Q251.959 565.537 243.95 565.537 Q240.2 565.537 236.45 566.37 Q232.746 567.203 228.858 568.962 L228.858 534.24 Z" fill="#000000" fill-rule="nonzero" fill-opacity="1" /><path clip-path="url(#clip900)" d="M309.089 540.398 Q301.866 540.398 298.209 547.527 Q294.598 554.611 294.598 568.87 Q294.598 583.083 298.209 590.212 Q301.866 597.296 309.089 597.296 Q316.357 597.296 319.968 590.212 Q323.626 583.083 323.626 568.87 Q323.626 554.611 319.968 547.527 Q316.357 540.398 309.089 540.398 M309.089 532.99 Q320.709 532.99 326.82 542.203 Q332.977 551.37 332.977 568.87 Q332.977 586.323 326.82 595.536 Q320.709 604.703 309.089 604.703 Q297.468 604.703 291.311 595.536 Q285.2 586.323 285.2 568.87 Q285.2 551.37 291.311 542.203 Q297.468 532.99 309.089 532.99 Z" fill="#000000" fill-rule="nonzero" fill-opacity="1" /><path clip-path="url(#clip900)" d="M151.219 403.963 L210.571 403.963 L210.571 411.833 L151.219 411.833 L151.219 403.963 Z" fill="#000000" fill-rule="nonzero" fill-opacity="1" /><path clip-path="url(#clip900)" d="M238.811 429.75 L271.45 429.75 L271.45 437.62 L227.561 437.62 L227.561 429.75 Q232.885 424.241 242.052 414.981 Q251.265 405.676 253.626 402.991 Q258.117 397.944 259.876 394.472 Q261.681 390.954 261.681 387.574 Q261.681 382.065 257.793 378.593 Q253.95 375.12 247.746 375.12 Q243.348 375.12 238.441 376.648 Q233.58 378.176 228.024 381.278 L228.024 371.833 Q233.672 369.565 238.58 368.407 Q243.487 367.25 247.561 367.25 Q258.302 367.25 264.691 372.62 Q271.08 377.991 271.08 386.972 Q271.08 391.231 269.459 395.074 Q267.885 398.87 263.672 404.055 Q262.515 405.398 256.311 411.833 Q250.107 418.222 238.811 429.75 Z" fill="#000000" fill-rule="nonzero" fill-opacity="1" /><path clip-path="url(#clip900)" d="M291.172 368.5 L327.885 368.5 L327.885 376.37 L299.737 376.37 L299.737 393.315 Q301.774 392.62 303.811 392.296 Q305.848 391.926 307.885 391.926 Q319.459 391.926 326.218 398.268 Q332.977 404.611 332.977 415.444 Q332.977 426.602 326.033 432.805 Q319.089 438.963 306.45 438.963 Q302.098 438.963 297.561 438.222 Q293.07 437.481 288.255 436 L288.255 426.602 Q292.422 428.87 296.866 429.981 Q301.311 431.092 306.265 431.092 Q314.274 431.092 318.95 426.879 Q323.626 422.666 323.626 415.444 Q323.626 408.222 318.95 404.009 Q314.274 399.796 306.265 399.796 Q302.515 399.796 298.765 400.63 Q295.061 401.463 291.172 403.222 L291.172 368.5 Z" fill="#000000" fill-rule="nonzero" fill-opacity="1" /><path clip-path="url(#clip900)" d="M309.089 208.917 Q301.866 208.917 298.209 216.047 Q294.598 223.13 294.598 237.389 Q294.598 251.602 298.209 258.732 Q301.866 265.815 309.089 265.815 Q316.357 265.815 319.968 258.732 Q323.626 251.602 323.626 237.389 Q323.626 223.13 319.968 216.047 Q316.357 208.917 309.089 208.917 M309.089 201.51 Q320.709 201.51 326.82 210.723 Q332.977 219.889 332.977 237.389 Q332.977 254.843 326.82 264.056 Q320.709 273.222 309.089 273.222 Q297.468 273.222 291.311 264.056 Q285.2 254.843 285.2 237.389 Q285.2 219.889 291.311 210.723 Q297.468 201.51 309.089 201.51 Z" fill="#000000" fill-rule="nonzero" fill-opacity="1" /><path clip-path="url(#clip900)" d="M238.811 98.2691 L271.45 98.2691 L271.45 106.139 L227.561 106.139 L227.561 98.2691 Q232.885 92.7599 242.052 83.5007 Q251.265 74.1952 253.626 71.51 Q258.117 66.4637 259.876 62.9915 Q261.681 59.473 261.681 56.0934 Q261.681 50.5842 257.793 47.112 Q253.95 43.6398 247.746 43.6398 Q243.348 43.6398 238.441 45.1675 Q233.58 46.6953 228.024 49.7971 L228.024 40.3528 Q233.672 38.0842 238.58 36.9268 Q243.487 35.7694 247.561 35.7694 Q258.302 35.7694 264.691 41.1398 Q271.08 46.5101 271.08 55.4916 Q271.08 59.7508 269.459 63.5934 Q267.885 67.3896 263.672 72.5748 Q262.515 73.9174 256.311 80.3525 Q250.107 86.7414 238.811 98.2691 Z" fill="#000000" fill-rule="nonzero" fill-opacity="1" /><path clip-path="url(#clip900)" d="M291.172 37.0194 L327.885 37.0194 L327.885 44.8898 L299.737 44.8898 L299.737 61.8341 Q301.774 61.1397 303.811 60.8156 Q305.848 60.4452 307.885 60.4452 Q319.459 60.4452 326.218 66.7878 Q332.977 73.1304 332.977 83.9636 Q332.977 95.121 326.033 101.325 Q319.089 107.482 306.45 107.482 Q302.098 107.482 297.561 106.741 Q293.07 106.001 288.255 104.519 L288.255 95.121 Q292.422 97.3895 296.866 98.5006 Q301.311 99.6117 306.265 99.6117 Q314.274 99.6117 318.95 95.3988 Q323.626 91.1858 323.626 83.9636 Q323.626 76.7414 318.95 72.5285 Q314.274 68.3156 306.265 68.3156 Q302.515 68.3156 298.765 69.1489 Q295.061 69.9822 291.172 71.7415 L291.172 37.0194 Z" fill="#000000" fill-rule="nonzero" fill-opacity="1" /><path clip-path="url(#clip902)" d="M528.028 488.123 L545.118 505.167 L562.208 522.973 L579.299 540.967 L596.389 557.251 L613.479 570.935 L630.57 587.667 L647.66 589.192 L664.75 560.329 L681.841 530.776 L698.931 512.486 L716.021 499.347 L733.112 490.192 L750.202 484.483 L767.292 479.393 L784.383 473.608 L801.473 464.419 L818.563 454.85 L835.654 446.478 L852.744 444.859 L869.834 448.624 L886.925 456.353 L904.015 463.332 L921.105 469.362 L938.195 477.357 L955.286 493.526 L972.376 510.914 L989.466 537.299 L1006.56 574.833 L1023.65 609.707 L1040.74 628.477 L1057.83 629.776 L1074.92 601.237 L1092.01 556.86 L1109.1 518.135 L1126.19 485.822 L1143.28 476.656 L1160.37 470.818 L1177.46 466.036 L1194.55 460.053 L1211.64 450.571 L1228.73 441.063 L1245.82 432.903 L1262.91 431.927 L1280 435.823 L1297.09 443.926 L1314.18 450.77 L1331.27 456.795 L1348.36 464.925 L1365.45 487.719 L1382.54 525.877 L1399.63 566.029 L1416.72 605.545 L1433.81 640.44 L1450.91 659.244 L1468 660.73 L1485.09 639.911 L1502.18 598.67 L1519.27 558.707 L1536.36 521.191 L1553.45 487.999 L1570.54 462.833 L1587.63 454.863 L1604.72 449.105 L1621.81 440.002 L1638.9 430.52 L1655.99 422.853 L1673.08 421.798 L1690.17 425.651 L1707.26 443.083 L1724.35 457.038 L1741.44 466.843 L1758.53 478.195 L1775.62 506.431 L1792.71 546.025 L1809.8 587.104 L1826.89 626.569 L1843.98 662.079 L1861.07 681.293 L1878.16 693.364 L1895.25 674.247 L1912.34 631.633 L1929.43 590.78 L1946.52 552.476 L1963.61 518.297 L1980.71 492.342 L1997.8 471.903 L2014.89 455.944 L2031.98 440.122 L2049.07 429.335 L2066.16 423.959 L2083.25 432.429 L2100.34 448.454 L2117.43 469.108 L2134.52 483.556 L2151.61 493.225 L2168.7 504.686 L2185.79 531.849 L2202.88 564.755 L2219.97 602.456 L2237.06 642.409 L2254.15 682.714 L2271.24 710.006 L2288.33 722.662 L2305.42 703.471 L2322.51 660.663 L2339.6 619.357 L2356.69 580.383 L2373.78 545.402 L2390.87 517.911 L2407.96 496.836 L2425.05 479.962 L2442.14 463.294 L2459.23 451.704 L2476.32 446.286 L2493.42 454.748 L2510.51 471.373 L2527.6 492.744 L2544.69 507.801 L2561.78 517.762 L2578.87 529.383 L2595.96 556.925 L2613.05 590.036 L2630.14 627.87 L2647.23 668.19 L2664.32 709.048 L2681.41 737.045 L2698.5 750.113 L2715.59 731.328 L2732.68 688.812 L2749.77 647.691 L2766.86 608.249 L2783.95 572.25 L2801.04 543.572 L2818.13 521.069 L2835.22 502.314 L2852.31 484.393 L2869.4 472.152 L2886.49 466.363 L2903.58 474.985 L2920.67 493.148 L2937.76 515.322 L2954.85 531.504 L2971.94 542.087 L2989.03 553.905 L3006.12 581.84 L3023.22 614.894 L3040.31 652.802 L3057.4 693.466 L3074.49 735.101 L3091.58 763.839 L3108.67 777.508 L3125.76 758.798 L3142.85 715.844 L3159.94 674.333 L3177.03 634.192 L3194.12 597.358 L3211.21 568.175 L3228.3 544.511 L3245.39 525.41 L3262.48 507.152 L3279.57 494.425 L3296.66 488.401 L3313.75 497.926 L3330.84 515.391 L3347.93 537.818 L3365.02 554.363 L3382.11 565.381 L3399.2 577.608 L3416.29 605.974 L3433.38 639.043 L3450.47 677.168 L3467.56 718.195 L3484.65 760.241 L3501.74 789.822 L3518.83 803.158 L3535.92 785.246 L3553.02 742.538 L3570.11 700.656 L3587.2 660.044 L3604.29 622.509 L3621.38 592.254 L3638.47 567.719 L3655.56 547.411 L3672.65 527.917 L3689.74 514.667 L3706.83 508.538 L3723.92 517.85 L3741.01 538.809 L3758.1 560.375 L3775.19 577.128 L3792.28 588.492 L3809.37 600.8 L3826.46 629.305 L3843.55 662.583 L3860.64 701.001 L3877.73 742.528 L3894.82 785.186 L3911.91 815.227 L3929 829.839 L3946.09 812.322 L3963.18 769.723 L3980.27 728.094 L3997.36 687.118 L4014.45 648.779 L4031.54 617.431 L4048.63 591.602 L4065.72 570.294 L4082.82 549.774 L4099.91 536.112 L4117 535.373 L4134.09 552.751 L4151.18 575.899 L4168.27 598.602 L4185.36 608.674 L4202.45 612.268 L4219.54 624.657 L4236.63 652.89 L4253.72 686.374 L4270.81 725.43 L4287.9 767.498 L4304.99 811.042 L4322.08 842.267 L4339.17 857.356 L4356.26 844.647 L4373.35 808 L4390.44 768.427 L4407.53 725.724 L4424.62 683.971 L4441.71 649.799 L4458.8 623.01 L4475.89 602.334 L4492.98 585.136 L4510.07 577.817 L4527.16 579.564 L4544.25 598.182 L4561.34 624.316 L4578.43 649.212 L4595.52 660.358 L4612.62 660.332 L4629.71 659.435 L4629.71 73.444 L4612.62 70.8396 L4595.52 74.7771 L4578.43 78.6559 L4561.34 78.7803 L4544.25 79.4611 L4527.16 81.2956 L4510.07 86.9359 L4492.98 91.2172 L4475.89 94.0801 L4458.8 94.6847 L4441.71 94.1915 L4424.62 99.1774 L4407.53 113.719 L4390.44 136.605 L4373.35 166.12 L4356.26 196.818 L4339.17 215.881 L4322.08 215.199 L4304.99 201.952 L4287.9 176.902 L4270.81 148.105 L4253.72 119.151 L4236.63 93.4644 L4219.54 74.6087 L4202.45 70.9407 L4185.36 75.0563 L4168.27 78.7988 L4151.18 79.6983 L4134.09 80.8128 L4117 82.1436 L4099.91 88.0807 L4082.82 92.5605 L4065.72 95.4633 L4048.63 94.7853 L4031.54 94.5027 L4014.45 99.6743 L3997.36 114.276 L3980.27 137.215 L3963.18 167.055 L3946.09 197.121 L3929 216.219 L3911.91 214.715 L3894.82 201.893 L3877.73 176.608 L3860.64 148.335 L3843.55 119.216 L3826.46 93.4674 L3809.37 74.9145 L3792.28 71.6789 L3775.19 75.5831 L3758.1 79.5534 L3741.01 80.1791 L3723.92 81.0755 L3706.83 82.4081 L3689.74 88.2839 L3672.65 92.8287 L3655.56 96.0496 L3638.47 94.8471 L3621.38 94.4971 L3604.29 99.8987 L3587.2 114.674 L3570.11 137.924 L3553.02 166.481 L3535.92 197.209 L3518.83 216.039 L3501.74 214.329 L3484.65 201.659 L3467.56 176.724 L3450.47 148.351 L3433.38 119.153 L3416.29 93.2493 L3399.2 75.3047 L3382.11 72.7038 L3365.02 76.5093 L3347.93 80.3774 L3330.84 80.9208 L3313.75 81.9016 L3296.66 83.6191 L3279.57 89.4176 L3262.48 93.92 L3245.39 96.5376 L3228.3 95.5163 L3211.21 95.2391 L3194.12 100.376 L3177.03 115.124 L3159.94 138.209 L3142.85 167.802 L3125.76 199.197 L3108.67 217.739 L3091.58 216.017 L3074.49 203.538 L3057.4 178.817 L3040.31 150.577 L3023.22 121.513 L3006.12 95.7919 L2989.03 77.0387 L2971.94 74.3772 L2954.85 78.4329 L2937.76 82.601 L2920.67 82.1307 L2903.58 81.0821 L2886.49 83.0309 L2869.4 88.8847 L2852.31 93.6089 L2835.22 96.779 L2818.13 96.6136 L2801.04 95.7509 L2783.95 100.816 L2766.86 115.626 L2749.77 138.996 L2732.68 168.692 L2715.59 199.69 L2698.5 219.546 L2681.41 219.018 L2664.32 206.378 L2647.23 181.242 L2630.14 153.018 L2613.05 124.076 L2595.96 98.8692 L2578.87 80.1195 L2561.78 76.6065 L2544.69 80.9321 L2527.6 84.9859 L2510.51 83.5403 L2493.42 83.2226 L2476.32 84.8117 L2459.23 90.1944 L2442.14 94.8188 L2425.05 97.6582 L2407.96 96.5943 L2390.87 96.7621 L2373.78 102.073 L2356.69 116.883 L2339.6 140.502 L2322.51 170.988 L2305.42 201.782 L2288.33 221.675 L2271.24 221.368 L2254.15 207.78 L2237.06 182.797 L2219.97 154.612 L2202.88 125.624 L2185.79 99.9496 L2168.7 81.1787 L2151.61 77.2052 L2134.52 81.4221 L2117.43 85.3779 L2100.34 86.2965 L2083.25 85.7503 L2066.16 86.9151 L2049.07 92.6723 L2031.98 96.9586 L2014.89 99.7748 L1997.8 98.9846 L1980.71 98.7878 L1963.61 104.237 L1946.52 119.143 L1929.43 142.35 L1912.34 172.278 L1895.25 206.37 L1878.16 225.439 L1861.07 224.06 L1843.98 211 L1826.89 186.527 L1809.8 158.301 L1792.71 129.445 L1775.62 103.871 L1758.53 85.0482 L1741.44 81.7651 L1724.35 85.5263 L1707.26 89.4468 L1690.17 88.8096 L1673.08 87.7858 L1655.99 89.2077 L1638.9 94.7276 L1621.81 99.1106 L1604.72 102.543 L1587.63 101.549 L1570.54 101.281 L1553.45 107.041 L1536.36 122.104 L1519.27 145.853 L1502.18 176.079 L1485.09 209.63 L1468 228.981 L1450.91 227.502 L1433.81 214.388 L1416.72 190.806 L1399.63 162.721 L1382.54 133.846 L1365.45 108.325 L1348.36 89.7027 L1331.27 86.3417 L1314.18 90.463 L1297.09 94.1724 L1280 92.5727 L1262.91 90.854 L1245.82 92.213 L1228.73 97.5799 L1211.64 101.858 L1194.55 104.76 L1177.46 104.65 L1160.37 104.403 L1143.28 109.79 L1126.19 124.749 L1109.1 148.25 L1092.01 178.73 L1074.92 214.618 L1057.83 235.421 L1040.74 234.52 L1023.65 221.544 L1006.56 196.427 L989.466 168.384 L972.376 139.583 L955.286 112.904 L938.195 93.4043 L921.105 90.5959 L904.015 95.8277 L886.925 99.3208 L869.834 97.8583 L852.744 96.7213 L835.654 98.0562 L818.563 102.815 L801.473 106.412 L784.383 108.562 L767.292 107.635 L750.202 108.935 L733.112 116.221 L716.021 131.575 L698.931 155.697 L681.841 186.479 L664.75 223.589 L647.66 245.412 L630.57 244.653 L613.479 232.257 L596.389 208.41 L579.299 179.506 L562.208 149.382 L545.118 123.242 L528.028 105.074  Z" fill="#aeaeae" fill-rule="evenodd" fill-opacity="0.5"/>
<polyline clip-path="url(#clip902)" style="stroke:#aeaeae; stroke-linecap:round; stroke-linejoin:round; stroke-width:0; stroke-opacity:1; fill:none" points="528.028,229.067 545.118,238.669 562.208,250.227 579.299,262.788 596.389,274.856 613.479,285.367 630.57,290.25 647.66,289.696 664.75,279.23 681.841,262.965 698.931,250.013 716.021,240.175 733.112,233.326 750.202,229.614 767.292,227.429 784.383,225.193 801.473,221.246 818.563,217.091 835.654,213.233 852.744,212.631 869.834,214.145 886.925,217.15 904.015,218.998 921.105,220.488 938.195,224.013 955.286,233.77 972.376,245.588 989.466,258.38 1006.56,270.682 1023.65,281.358 1040.74,286.449 1057.83,285.891 1074.92,275.524 1092.01,259.489 1109.1,246.664 1126.19,236.905 1143.28,230.11 1160.37,226.438 1177.46,224.253 1194.55,221.983 1211.64,218.053 1228.73,213.914 1245.82,210.085 1262.91,209.563 1280,211.156 1297.09,214.217 1314.18,216.125 1331.27,217.646 1348.36,221.203 1365.45,230.975 1382.54,242.839 1399.63,255.678 1416.72,268.028 1433.81,278.76 1450.91,283.896 1468,283.376 1485.09,273.016 1502.18,256.989 1519.27,244.185 1536.36,234.442 1553.45,227.664 1570.54,224 1587.63,221.827 1604.72,219.568 1621.81,215.664 1638.9,211.545 1655.99,207.758 1673.08,207.283 1690.17,208.915 1707.26,212.013 1724.35,213.961 1741.44,215.518 1758.53,219.094 1775.62,228.896 1792.71,240.786 1809.8,253.651 1826.89,266.044 1843.98,276.816 1861.07,281.983 1878.16,281.535 1895.25,271.224 1912.34,255.212 1929.43,242.419 1946.52,232.684 1963.61,225.912 1980.71,222.258 1997.8,220.101 2014.89,217.847 2031.98,213.946 2049.07,209.836 2066.16,206.049 2083.25,205.574 2100.34,207.237 2117.43,210.374 2134.52,212.342 2151.61,213.922 2168.7,217.531 2185.79,227.358 2202.88,239.271 2219.97,252.161 2237.06,264.57 2254.15,275.373 2271.24,280.579 2288.33,280.151 2305.42,269.86 2322.51,253.855 2339.6,241.077 2356.69,231.362 2373.78,224.599 2390.87,220.952 2407.96,218.8 2425.05,216.569 2442.14,212.677 2459.23,208.582 2476.32,204.825 2493.42,204.389 2510.51,206.061 2527.6,209.204 2544.69,211.193 2561.78,212.791 2578.87,216.413 2595.96,226.247 2613.05,238.174 2630.14,251.08 2647.23,263.505 2664.32,274.307 2681.41,279.531 2698.5,279.119 2715.59,268.833 2732.68,252.847 2749.77,240.099 2766.86,230.393 2783.95,223.639 2801.04,220 2818.13,217.839 2835.22,215.613 2852.31,211.735 2869.4,207.643 2886.49,203.875 2903.58,203.446 2920.67,205.145 2937.76,208.31 2954.85,210.319 2971.94,211.934 2989.03,215.586 3006.12,225.452 3023.22,237.387 3040.31,250.303 3057.4,262.744 3074.49,273.561 3091.58,278.801 3108.67,278.399 3125.76,268.139 3142.85,252.171 3159.94,239.418 3177.03,229.711 3194.12,222.962 3211.21,219.332 3228.3,217.178 3245.39,214.944 3262.48,211.064 3279.57,206.981 3296.66,203.219 3313.75,202.82 3330.84,204.541 3347.93,207.731 3365.02,209.759 3382.11,211.388 3399.2,215.042 3416.29,224.915 3433.38,236.852 3450.47,249.771 3467.56,262.22 3484.65,273.037 3501.74,278.293 3518.83,277.922 3535.92,267.671 3553.02,251.691 3570.11,238.944 3587.2,229.244 3604.29,222.497 3621.38,218.856 3638.47,216.71 3655.56,214.489 3672.65,210.62 3689.74,206.541 3706.83,202.795 3723.92,202.397 3741.01,204.135 3758.1,207.343 3775.19,209.379 3792.28,211.013 3809.37,214.664 3826.46,224.53 3843.55,236.473 3860.64,249.396 3877.73,261.855 3894.82,272.7 3911.91,277.963 3929,277.588 3946.09,267.33 3963.18,251.354 3980.27,238.613 3997.36,228.923 4014.45,222.183 4031.54,218.546 4048.63,216.403 4065.72,214.169 4082.82,210.304 4099.91,206.228 4117,202.496 4134.09,202.132 4151.18,203.888 4168.27,207.105 4185.36,209.153 4202.45,210.79 4219.54,214.441 4236.63,224.318 4253.72,236.254 4270.81,249.178 4287.9,261.64 4304.99,272.501 4322.08,277.774 4339.17,277.413 4356.26,267.187 4373.35,251.23 4390.44,238.485 4407.53,228.787 4424.62,222.037 4441.71,218.411 4458.8,216.267 4475.89,214.014 4492.98,210.131 4510.07,206.068 4527.16,202.346 4544.25,201.966 4561.34,203.697 4578.43,206.926 4595.52,208.996 4612.62,210.658 4629.71,214.198 "/>
<path clip-path="url(#clip902)" d="M528.028 327.905 L545.118 347.571 L562.208 369.69 L579.299 392.521 L596.389 418.02 L613.479 439.015 L630.57 453.25 L647.66 454.377 L664.75 432.567 L681.841 394.89 L698.931 368.289 L716.021 349.97 L733.112 339.87 L750.202 332.65 L767.292 326.781 L784.383 319.925 L801.473 309.69 L818.563 299.776 L835.654 290.911 L852.744 287.852 L869.834 291.184 L886.925 300.916 L904.015 305.615 L921.105 311.516 L938.195 320.016 L955.286 340.658 L972.376 363.684 L989.466 391.42 L1006.56 417.575 L1023.65 442.483 L1040.74 457.789 L1057.83 462.72 L1074.92 440.09 L1092.01 404.221 L1109.1 375.029 L1126.19 347.43 L1143.28 331.679 L1160.37 321.803 L1177.46 315.702 L1194.55 308.662 L1211.64 298.382 L1228.73 289.135 L1245.82 280.871 L1262.91 280.407 L1280 286.573 L1297.09 293.915 L1314.18 301.125 L1331.27 309.168 L1348.36 317.272 L1365.45 340.296 L1382.54 364.869 L1399.63 393.488 L1416.72 424.128 L1433.81 451.402 L1450.91 467.117 L1468 467.349 L1485.09 444.825 L1502.18 406.483 L1519.27 377.376 L1536.36 354.23 L1553.45 333.251 L1570.54 320.31 L1587.63 312.805 L1604.72 305.156 L1621.81 295.569 L1638.9 285.355 L1655.99 277.204 L1673.08 278.248 L1690.17 284.709 L1707.26 296.196 L1724.35 304.449 L1741.44 307.648 L1758.53 318.876 L1775.62 342.628 L1792.71 367.94 L1809.8 398.301 L1826.89 427.615 L1843.98 454.213 L1861.07 468.55 L1878.16 467.304 L1895.25 444.97 L1912.34 409.24 L1929.43 380.704 L1946.52 352.89 L1963.61 337.496 L1980.71 321.901 L1997.8 312.082 L2014.89 305.286 L2031.98 293.532 L2049.07 283.461 L2066.16 277.757 L2083.25 280.733 L2100.34 290.318 L2117.43 299.361 L2134.52 306.366 L2151.61 311.387 L2168.7 319.85 L2185.79 343.226 L2202.88 370.2 L2219.97 402.118 L2237.06 430.55 L2254.15 456.936 L2271.24 471.514 L2288.33 472.14 L2305.42 449.21 L2322.51 408.687 L2339.6 381.948 L2356.69 354.951 L2373.78 337.192 L2390.87 326.266 L2407.96 315.059 L2425.05 306.669 L2442.14 295.167 L2459.23 287.736 L2476.32 280.709 L2493.42 284.521 L2510.51 289.938 L2527.6 298.411 L2544.69 305.153 L2561.78 311.486 L2578.87 323.525 L2595.96 346.911 L2613.05 372.573 L2630.14 402.848 L2647.23 428.078 L2664.32 458.24 L2681.41 472.186 L2698.5 473.425 L2715.59 449.882 L2732.68 410.726 L2749.77 379.435 L2766.86 357.393 L2783.95 335.504 L2801.04 325.01 L2818.13 317.051 L2835.22 307.598 L2852.31 297.306 L2869.4 289.559 L2886.49 282.168 L2903.58 283.239 L2920.67 287.916 L2937.76 298.712 L2954.85 304.637 L2971.94 312.485 L2989.03 323.184 L3006.12 347.113 L3023.22 373.987 L3040.31 403.047 L3057.4 428.952 L3074.49 459.138 L3091.58 471.032 L3108.67 475.347 L3125.76 451.374 L3142.85 412.061 L3159.94 380.107 L3177.03 358 L3194.12 335.881 L3211.21 322.075 L3228.3 316.683 L3245.39 308.496 L3262.48 297.939 L3279.57 288.82 L3296.66 281.629 L3313.75 280.745 L3330.84 285.841 L3347.93 298.647 L3365.02 303.426 L3382.11 311.879 L3399.2 322.572 L3416.29 347.448 L3433.38 373.969 L3450.47 402.645 L3467.56 428.544 L3484.65 458.619 L3501.74 471.796 L3518.83 472.027 L3535.92 451.714 L3553.02 412.736 L3570.11 378.461 L3587.2 359.059 L3604.29 336.123 L3621.38 319.864 L3638.47 313.269 L3655.56 306.645 L3672.65 295.914 L3689.74 287.508 L3706.83 280.002 L3723.92 278.295 L3741.01 282.775 L3758.1 298.459 L3775.19 304.662 L3792.28 311.161 L3809.37 323.362 L3826.46 348 L3843.55 374.953 L3860.64 401.386 L3877.73 428.936 L3894.82 458.405 L3911.91 470.474 L3929 473.448 L3946.09 450.26 L3963.18 413.319 L3980.27 379.261 L3997.36 356.654 L4014.45 337.418 L4031.54 319.53 L4048.63 311.815 L4065.72 305.673 L4082.82 295.514 L4099.91 287.039 L4117 278.6 L4134.09 277.105 L4151.18 282.771 L4168.27 298.367 L4185.36 305.568 L4202.45 312.656 L4219.54 322.968 L4236.63 346.521 L4253.72 375.354 L4270.81 400.462 L4287.9 428.404 L4304.99 457.552 L4322.08 469.167 L4339.17 471.502 L4356.26 449.944 L4373.35 413.461 L4390.44 379.7 L4407.53 355.172 L4424.62 336.972 L4441.71 319.414 L4458.8 311.994 L4475.89 304.063 L4492.98 294.87 L4510.07 284.964 L4527.16 276.489 L4544.25 275.037 L4561.34 282.761 L4578.43 298.221 L4595.52 305.714 L4612.62 312.141 L4629.71 322.24 L4629.71 106.326 L4612.62 102.412 L4595.52 103.283 L4578.43 105.093 L4561.34 103.118 L4544.25 102.696 L4527.16 104.576 L4510.07 111.172 L4492.98 117.551 L4475.89 122.522 L4458.8 123.459 L4441.71 124.66 L4424.62 130.049 L4407.53 144.678 L4390.44 164.303 L4373.35 188.487 L4356.26 219.538 L4339.17 238.273 L4322.08 238.562 L4304.99 226.729 L4287.9 203.413 L4270.81 177.271 L4253.72 150.243 L4236.63 125.895 L4219.54 107.272 L4202.45 102.394 L4185.36 103.824 L4168.27 105.477 L4151.18 103.571 L4134.09 102.998 L4117 104.691 L4099.91 111.768 L4082.82 117.681 L4065.72 122.743 L4048.63 123.779 L4031.54 124.633 L4014.45 130.414 L3997.36 144.933 L3980.27 164.792 L3963.18 188.782 L3946.09 220.124 L3929 239.04 L3911.91 239.075 L3894.82 227.82 L3877.73 204.56 L3860.64 178.017 L3843.55 150.976 L3826.46 126.659 L3809.37 108.536 L3792.28 103.474 L3775.19 104.726 L3758.1 105.724 L3741.01 104.176 L3723.92 103.911 L3706.83 105.525 L3689.74 112.751 L3672.65 118.53 L3655.56 123.12 L3638.47 123.999 L3621.38 125.006 L3604.29 130.815 L3587.2 145.138 L3570.11 165.726 L3553.02 190.346 L3535.92 220.373 L3518.83 240.15 L3501.74 239.705 L3484.65 227.602 L3467.56 205.333 L3450.47 178.733 L3433.38 151.889 L3416.29 127.749 L3399.2 109.668 L3382.11 104.985 L3365.02 105.782 L3347.93 107.056 L3330.84 105.173 L3313.75 104.477 L3296.66 106.42 L3279.57 113.305 L3262.48 119.763 L3245.39 124.123 L3228.3 124.615 L3211.21 125.77 L3194.12 131.847 L3177.03 146.33 L3159.94 166.636 L3142.85 191.533 L3125.76 221.734 L3108.67 241.182 L3091.58 240.92 L3074.49 228.845 L3057.4 206.993 L3040.31 180.612 L3023.22 153.914 L3006.12 129.264 L2989.03 111.334 L2971.94 106.935 L2954.85 107.315 L2937.76 108.494 L2920.67 106.733 L2903.58 106.204 L2886.49 108.17 L2869.4 114.261 L2852.31 121.108 L2835.22 125.204 L2818.13 125.251 L2801.04 126.508 L2783.95 133.035 L2766.86 147.475 L2749.77 169.079 L2732.68 193.308 L2715.59 223.874 L2698.5 243.184 L2681.41 242.865 L2664.32 231.545 L2647.23 208.814 L2630.14 182.725 L2613.05 156.016 L2595.96 131.56 L2578.87 112.907 L2561.78 108.453 L2544.69 109.419 L2527.6 110.598 L2510.51 109.025 L2493.42 107.93 L2476.32 109.712 L2459.23 116.228 L2442.14 122.342 L2425.05 126.374 L2407.96 126.534 L2390.87 128.333 L2373.78 133.75 L2356.69 148.571 L2339.6 171.344 L2322.51 196.193 L2305.42 226.212 L2288.33 245.974 L2271.24 246.089 L2254.15 234.624 L2237.06 211.447 L2219.97 185.869 L2202.88 158.582 L2185.79 132.931 L2168.7 114.031 L2151.61 110.589 L2134.52 112.565 L2117.43 113.383 L2100.34 111.279 L2083.25 110.373 L2066.16 112.149 L2049.07 118.857 L2031.98 124.144 L2014.89 128.285 L1997.8 128.451 L1980.71 130.275 L1963.61 136.054 L1946.52 150.318 L1929.43 173.535 L1912.34 200.52 L1895.25 230.082 L1878.16 249.564 L1861.07 249.967 L1843.98 238.671 L1826.89 215.885 L1809.8 189.107 L1792.71 160.666 L1775.62 135.738 L1758.53 117.254 L1741.44 113.034 L1724.35 115.286 L1707.26 116.828 L1690.17 114.949 L1673.08 113.587 L1655.99 115.306 L1638.9 122.453 L1621.81 127.521 L1604.72 131.719 L1587.63 131.588 L1570.54 132.518 L1553.45 138.706 L1536.36 153.067 L1519.27 176.221 L1502.18 204.642 L1485.09 235.31 L1468 255.094 L1450.91 255.14 L1433.81 244.23 L1416.72 221.313 L1399.63 193.029 L1382.54 164.928 L1365.45 140.027 L1348.36 121.01 L1331.27 116.178 L1314.18 118.82 L1297.09 121.113 L1280 119.333 L1262.91 118.018 L1245.82 119.108 L1228.73 124.489 L1211.64 129.858 L1194.55 134.255 L1177.46 134.825 L1160.37 136.176 L1143.28 141.784 L1126.19 156.723 L1109.1 178.77 L1092.01 208.437 L1074.92 242.508 L1057.83 262.423 L1040.74 262.641 L1023.65 251.672 L1006.56 226.758 L989.466 198.875 L972.376 171.138 L955.286 145.164 L938.195 126.176 L921.105 122.687 L904.015 124.792 L886.925 127.664 L869.834 123.153 L852.744 121.955 L835.654 121.849 L818.563 127.596 L801.473 132.751 L784.383 136.064 L767.292 136.555 L750.202 137.986 L733.112 145.594 L716.021 161.347 L698.931 184.376 L681.841 214.225 L664.75 249.718 L647.66 272.122 L630.57 271.941 L613.479 259.989 L596.389 235.941 L579.299 207.807 L562.208 179.638 L545.118 155.317 L528.028 136.883  Z" fill="#757575" fill-rule="evenodd" fill-opacity="0.5"/>
<polyline clip-path="url(#clip902)" style="stroke:#757575; stroke-linecap:round; stroke-linejoin:round; stroke-width:0; stroke-opacity:1; fill:none" points="528.028,229.067 545.118,238.669 562.208,250.227 579.299,262.788 596.389,274.856 613.479,285.367 630.57,290.25 647.66,289.696 664.75,279.23 681.841,262.965 698.931,250.013 716.021,240.175 733.112,233.326 750.202,229.614 767.292,227.429 784.383,225.193 801.473,221.246 818.563,217.091 835.654,213.233 852.744,212.631 869.834,214.145 886.925,217.15 904.015,218.998 921.105,220.488 938.195,224.013 955.286,233.77 972.376,245.588 989.466,258.38 1006.56,270.682 1023.65,281.358 1040.74,286.449 1057.83,285.891 1074.92,275.524 1092.01,259.489 1109.1,246.664 1126.19,236.905 1143.28,230.11 1160.37,226.438 1177.46,224.253 1194.55,221.983 1211.64,218.053 1228.73,213.914 1245.82,210.085 1262.91,209.563 1280,211.156 1297.09,214.217 1314.18,216.125 1331.27,217.646 1348.36,221.203 1365.45,230.975 1382.54,242.839 1399.63,255.678 1416.72,268.028 1433.81,278.76 1450.91,283.896 1468,283.376 1485.09,273.016 1502.18,256.989 1519.27,244.185 1536.36,234.442 1553.45,227.664 1570.54,224 1587.63,221.827 1604.72,219.568 1621.81,215.664 1638.9,211.545 1655.99,207.758 1673.08,207.283 1690.17,208.915 1707.26,212.013 1724.35,213.961 1741.44,215.518 1758.53,219.094 1775.62,228.896 1792.71,240.786 1809.8,253.651 1826.89,266.044 1843.98,276.816 1861.07,281.983 1878.16,281.535 1895.25,271.224 1912.34,255.212 1929.43,242.419 1946.52,232.684 1963.61,225.912 1980.71,222.258 1997.8,220.101 2014.89,217.847 2031.98,213.946 2049.07,209.836 2066.16,206.049 2083.25,205.574 2100.34,207.237 2117.43,210.374 2134.52,212.342 2151.61,213.922 2168.7,217.531 2185.79,227.358 2202.88,239.271 2219.97,252.161 2237.06,264.57 2254.15,275.373 2271.24,280.579 2288.33,280.151 2305.42,269.86 2322.51,253.855 2339.6,241.077 2356.69,231.362 2373.78,224.599 2390.87,220.952 2407.96,218.8 2425.05,216.569 2442.14,212.677 2459.23,208.582 2476.32,204.825 2493.42,204.389 2510.51,206.061 2527.6,209.204 2544.69,211.193 2561.78,212.791 2578.87,216.413 2595.96,226.247 2613.05,238.174 2630.14,251.08 2647.23,263.505 2664.32,274.307 2681.41,279.531 2698.5,279.119 2715.59,268.833 2732.68,252.847 2749.77,240.099 2766.86,230.393 2783.95,223.639 2801.04,220 2818.13,217.839 2835.22,215.613 2852.31,211.735 2869.4,207.643 2886.49,203.875 2903.58,203.446 2920.67,205.145 2937.76,208.31 2954.85,210.319 2971.94,211.934 2989.03,215.586 3006.12,225.452 3023.22,237.387 3040.31,250.303 3057.4,262.744 3074.49,273.561 3091.58,278.801 3108.67,278.399 3125.76,268.139 3142.85,252.171 3159.94,239.418 3177.03,229.711 3194.12,222.962 3211.21,219.332 3228.3,217.178 3245.39,214.944 3262.48,211.064 3279.57,206.981 3296.66,203.219 3313.75,202.82 3330.84,204.541 3347.93,207.731 3365.02,209.759 3382.11,211.388 3399.2,215.042 3416.29,224.915 3433.38,236.852 3450.47,249.771 3467.56,262.22 3484.65,273.037 3501.74,278.293 3518.83,277.922 3535.92,267.671 3553.02,251.691 3570.11,238.944 3587.2,229.244 3604.29,222.497 3621.38,218.856 3638.47,216.71 3655.56,214.489 3672.65,210.62 3689.74,206.541 3706.83,202.795 3723.92,202.397 3741.01,204.135 3758.1,207.343 3775.19,209.379 3792.28,211.013 3809.37,214.664 3826.46,224.53 3843.55,236.473 3860.64,249.396 3877.73,261.855 3894.82,272.7 3911.91,277.963 3929,277.588 3946.09,267.33 3963.18,251.354 3980.27,238.613 3997.36,228.923 4014.45,222.183 4031.54,218.546 4048.63,216.403 4065.72,214.169 4082.82,210.304 4099.91,206.228 4117,202.496 4134.09,202.132 4151.18,203.888 4168.27,207.105 4185.36,209.153 4202.45,210.79 4219.54,214.441 4236.63,224.318 4253.72,236.254 4270.81,249.178 4287.9,261.64 4304.99,272.501 4322.08,277.774 4339.17,277.413 4356.26,267.187 4373.35,251.23 4390.44,238.485 4407.53,228.787 4424.62,222.037 4441.71,218.411 4458.8,216.267 4475.89,214.014 4492.98,210.131 4510.07,206.068 4527.16,202.346 4544.25,201.966 4561.34,203.697 4578.43,206.926 4595.52,208.996 4612.62,210.658 4629.71,214.198 "/>
<path clip-path="url(#clip902)" d="M528.028 298.09 L545.118 319.197 L562.208 344.97 L579.299 367.032 L596.389 389.562 L613.479 411.255 L630.57 420.92 L647.66 418.86 L664.75 400.319 L681.841 368.34 L698.931 347.559 L716.021 323.442 L733.112 306.38 L750.202 299.041 L767.292 292.776 L784.383 286.487 L801.473 276.328 L818.563 264.918 L835.654 256.001 L852.744 255.564 L869.834 260.573 L886.925 271.128 L904.015 277.049 L921.105 283.081 L938.195 294.574 L955.286 313.609 L972.376 337.393 L989.466 360.479 L1006.56 384.364 L1023.65 403.478 L1040.74 413.996 L1057.83 414.199 L1074.92 393.627 L1092.01 363.581 L1109.1 341.21 L1126.19 320.43 L1143.28 307.668 L1160.37 296.653 L1177.46 288.726 L1194.55 279.579 L1211.64 270.53 L1228.73 261.246 L1245.82 253.137 L1262.91 253.887 L1280 258.841 L1297.09 268.54 L1314.18 277.476 L1331.27 283.864 L1348.36 291.46 L1365.45 310.137 L1382.54 331.878 L1399.63 356.041 L1416.72 378.007 L1433.81 397.787 L1450.91 409.253 L1468 410.99 L1485.09 390.89 L1502.18 357.272 L1519.27 333.634 L1536.36 315.674 L1553.45 302.932 L1570.54 292.532 L1587.63 285.837 L1604.72 277.814 L1621.81 267.427 L1638.9 257.956 L1655.99 248.711 L1673.08 250.689 L1690.17 255.629 L1707.26 262.581 L1724.35 269.934 L1741.44 275.905 L1758.53 285.176 L1775.62 304.061 L1792.71 326.74 L1809.8 351.092 L1826.89 372.511 L1843.98 395.118 L1861.07 409.458 L1878.16 408.473 L1895.25 388.106 L1912.34 354.596 L1929.43 328.107 L1946.52 310.011 L1963.61 297.445 L1980.71 290.581 L1997.8 283.203 L2014.89 275.898 L2031.98 266.396 L2049.07 255.333 L2066.16 247.378 L2083.25 247.016 L2100.34 250.424 L2117.43 259.637 L2134.52 264.788 L2151.61 270.993 L2168.7 280.136 L2185.79 300.54 L2202.88 323.027 L2219.97 344.842 L2237.06 370.921 L2254.15 393.152 L2271.24 404.901 L2288.33 409.676 L2305.42 385.333 L2322.51 353.142 L2339.6 324.065 L2356.69 306.255 L2373.78 292.761 L2390.87 284.967 L2407.96 278.878 L2425.05 272.886 L2442.14 262.009 L2459.23 253.378 L2476.32 245.69 L2493.42 243.6 L2510.51 249.26 L2527.6 257.009 L2544.69 262.085 L2561.78 268.684 L2578.87 277.867 L2595.96 297.631 L2613.05 319.328 L2630.14 343.501 L2647.23 369.821 L2664.32 392.868 L2681.41 401.44 L2698.5 403.656 L2715.59 383.348 L2732.68 350.772 L2749.77 322.578 L2766.86 301.916 L2783.95 289.508 L2801.04 280.464 L2818.13 275.796 L2835.22 269.522 L2852.31 260.19 L2869.4 250.233 L2886.49 241.948 L2903.58 240.986 L2920.67 246.354 L2937.76 254.042 L2954.85 260.16 L2971.94 265.931 L2989.03 275.083 L3006.12 294.261 L3023.22 315.57 L3040.31 342.622 L3057.4 368.741 L3074.49 388.672 L3091.58 400.266 L3108.67 401.14 L3125.76 383.566 L3142.85 348.619 L3159.94 322.879 L3177.03 299.724 L3194.12 287.122 L3211.21 278.476 L3228.3 272.74 L3245.39 267.163 L3262.48 257.497 L3279.57 247.473 L3296.66 239.935 L3313.75 239.167 L3330.84 243.686 L3347.93 252.6 L3365.02 257.946 L3382.11 264.024 L3399.2 274.092 L3416.29 292.737 L3433.38 314.542 L3450.47 342.357 L3467.56 368.18 L3484.65 388.105 L3501.74 399.629 L3518.83 398.342 L3535.92 381.059 L3553.02 347.354 L3570.11 322.583 L3587.2 298.434 L3604.29 285.954 L3621.38 276.046 L3638.47 270.624 L3655.56 265.188 L3672.65 256.154 L3689.74 246.71 L3706.83 238.055 L3723.92 237.739 L3741.01 242.252 L3758.1 250.548 L3775.19 256.346 L3792.28 261.88 L3809.37 271.513 L3826.46 290.584 L3843.55 314.073 L3860.64 342.191 L3877.73 367.613 L3894.82 388.064 L3911.91 398.768 L3929 398.716 L3946.09 378.793 L3963.18 346.833 L3980.27 322.675 L3997.36 297.308 L4014.45 284.044 L4031.54 275.172 L4048.63 269.407 L4065.72 264 L4082.82 255.095 L4099.91 244.662 L4117 236.531 L4134.09 236.539 L4151.18 242.753 L4168.27 249.699 L4185.36 255.518 L4202.45 261.582 L4219.54 271.363 L4236.63 289.938 L4253.72 313.407 L4270.81 340.821 L4287.9 366.829 L4304.99 387.094 L4322.08 398.805 L4339.17 397.292 L4356.26 377.481 L4373.35 346.153 L4390.44 321.732 L4407.53 297.793 L4424.62 283.078 L4441.71 275.903 L4458.8 269.464 L4475.89 263.888 L4492.98 254.106 L4510.07 243.873 L4527.16 235.844 L4544.25 236.217 L4561.34 243.125 L4578.43 250.535 L4595.52 255.129 L4612.62 261.464 L4629.71 269.894 L4629.71 118.15 L4612.62 113.988 L4595.52 114.981 L4578.43 115.35 L4561.34 111.404 L4544.25 110.288 L4527.16 111.436 L4510.07 118.74 L4492.98 126.322 L4475.89 132.028 L4458.8 133.552 L4441.71 135.365 L4424.62 141.133 L4407.53 153.524 L4390.44 173.514 L4373.35 197.695 L4356.26 228.503 L4339.17 249.075 L4322.08 249.682 L4304.99 238.388 L4287.9 215.391 L4270.81 189.138 L4253.72 162.144 L4236.63 137.045 L4219.54 118.666 L4202.45 114.112 L4185.36 115.014 L4168.27 115.86 L4151.18 111.686 L4134.09 110.241 L4117 111.862 L4099.91 119.63 L4082.82 127.085 L4065.72 132.672 L4048.63 133.791 L4031.54 135.616 L4014.45 141.712 L3997.36 153.674 L3980.27 173.985 L3963.18 198.056 L3946.09 229.145 L3929 249.912 L3911.91 249.705 L3894.82 238.993 L3877.73 215.857 L3860.64 189.812 L3843.55 162.507 L3826.46 137.813 L3809.37 118.928 L3792.28 115.022 L3775.19 115.568 L3758.1 116.251 L3741.01 112.089 L3723.92 110.846 L3706.83 112.764 L3689.74 120.294 L3672.65 128.141 L3655.56 133.266 L3638.47 134.767 L3621.38 136.503 L3604.29 142.07 L3587.2 154.423 L3570.11 174.447 L3553.02 199.015 L3535.92 229.929 L3518.83 250.726 L3501.74 250.838 L3484.65 239.911 L3467.56 217.632 L3450.47 190.271 L3433.38 163.006 L3416.29 138.584 L3399.2 119.326 L3382.11 115.594 L3365.02 116.723 L3347.93 116.644 L3330.84 113.47 L3313.75 112.011 L3296.66 113.777 L3279.57 121.05 L3262.48 128.778 L3245.39 134.277 L3228.3 135.827 L3211.21 137.513 L3194.12 143.051 L3177.03 155.647 L3159.94 175.11 L3142.85 199.851 L3125.76 231.462 L3108.67 251.647 L3091.58 252.056 L3074.49 241.18 L3057.4 218.531 L3040.31 192.005 L3023.22 164.933 L3006.12 139.58 L2989.03 120.27 L2971.94 116.587 L2954.85 116.97 L2937.76 118 L2920.67 114.879 L2903.58 113.287 L2886.49 115.195 L2869.4 122.737 L2852.31 130.135 L2835.22 135.274 L2818.13 137.092 L2801.04 138.818 L2783.95 144.474 L2766.86 157.396 L2749.77 176.537 L2732.68 201.626 L2715.59 233.253 L2698.5 253.32 L2681.41 254.487 L2664.32 242.81 L2647.23 220.265 L2630.14 193.774 L2613.05 165.971 L2595.96 140.721 L2578.87 121.91 L2561.78 118.173 L2544.69 119.563 L2527.6 119.484 L2510.51 116.535 L2493.42 115.456 L2476.32 117.119 L2459.23 124.629 L2442.14 132.291 L2425.05 137.192 L2407.96 138.731 L2390.87 141.208 L2373.78 146.527 L2356.69 160.047 L2339.6 179.257 L2322.51 204.151 L2305.42 235.659 L2288.33 256.184 L2271.24 256.753 L2254.15 245.558 L2237.06 222.87 L2219.97 195.582 L2202.88 167.704 L2185.79 142.967 L2168.7 124.545 L2151.61 120.224 L2134.52 122.588 L2117.43 122.145 L2100.34 119.16 L2083.25 117.892 L2066.16 119.484 L2049.07 127.343 L2031.98 134.118 L2014.89 139.864 L1997.8 141.007 L1980.71 142.882 L1963.61 149.048 L1946.52 162.247 L1929.43 181.589 L1912.34 207.072 L1895.25 238.445 L1878.16 258.892 L1861.07 260.275 L1843.98 249.282 L1826.89 226.649 L1809.8 198.664 L1792.71 171.952 L1775.62 146.855 L1758.53 128.054 L1741.44 123.976 L1724.35 125.518 L1707.26 125.924 L1690.17 123.206 L1673.08 121.027 L1655.99 123.017 L1638.9 130.524 L1621.81 137.173 L1604.72 142.267 L1587.63 143.342 L1570.54 145.507 L1553.45 152.182 L1536.36 166.029 L1519.27 185.382 L1502.18 211.526 L1485.09 242.964 L1468 264.185 L1450.91 265.824 L1433.81 254.521 L1416.72 230.255 L1399.63 203.379 L1382.54 175.879 L1365.45 151.112 L1348.36 132.969 L1331.27 129.106 L1314.18 130.651 L1297.09 130.852 L1280 127.937 L1262.91 126.491 L1245.82 127.845 L1228.73 134.34 L1211.64 140.536 L1194.55 145.569 L1177.46 146.774 L1160.37 148.68 L1143.28 155.249 L1126.19 170.523 L1109.1 191.622 L1092.01 217.92 L1074.92 249.605 L1057.83 270.638 L1040.74 271.274 L1023.65 260.389 L1006.56 236.65 L989.466 210.032 L972.376 182.965 L955.286 157.818 L938.195 139.038 L921.105 135.248 L904.015 137.021 L886.925 136.892 L869.834 132.87 L852.744 131.533 L835.654 132.929 L818.563 138.741 L801.473 144.531 L784.383 148.141 L767.292 149.968 L750.202 151.355 L733.112 158.787 L716.021 174.922 L698.931 198.14 L681.841 226.464 L664.75 259.155 L647.66 279.746 L630.57 280.227 L613.479 270.23 L596.389 248.428 L579.299 221.212 L562.208 193.42 L545.118 168.774 L528.028 150.399  Z" fill="#414141" fill-rule="evenodd" fill-opacity="0.5"/>
<polyline clip-path="url(#clip902)" style="stroke:#414141; stroke-linecap:round; stroke-linejoin:round; stroke-width:0; stroke-opacity:1; fill:none" points="528.028,229.067 545.118,238.669 562.208,250.227 579.299,262.788 596.389,274.856 613.479,285.367 630.57,290.25 647.66,289.696 664.75,279.23 681.841,262.965 698.931,250.013 716.021,240.175 733.112,233.326 750.202,229.614 767.292,227.429 784.383,225.193 801.473,221.246 818.563,217.091 835.654,213.233 852.744,212.631 869.834,214.145 886.925,217.15 904.015,218.998 921.105,220.488 938.195,224.013 955.286,233.77 972.376,245.588 989.466,258.38 1006.56,270.682 1023.65,281.358 1040.74,286.449 1057.83,285.891 1074.92,275.524 1092.01,259.489 1109.1,246.664 1126.19,236.905 1143.28,230.11 1160.37,226.438 1177.46,224.253 1194.55,221.983 1211.64,218.053 1228.73,213.914 1245.82,210.085 1262.91,209.563 1280,211.156 1297.09,214.217 1314.18,216.125 1331.27,217.646 1348.36,221.203 1365.45,230.975 1382.54,242.839 1399.63,255.678 1416.72,268.028 1433.81,278.76 1450.91,283.896 1468,283.376 1485.09,273.016 1502.18,256.989 1519.27,244.185 1536.36,234.442 1553.45,227.664 1570.54,224 1587.63,221.827 1604.72,219.568 1621.81,215.664 1638.9,211.545 1655.99,207.758 1673.08,207.283 1690.17,208.915 1707.26,212.013 1724.35,213.961 1741.44,215.518 1758.53,219.094 1775.62,228.896 1792.71,240.786 1809.8,253.651 1826.89,266.044 1843.98,276.816 1861.07,281.983 1878.16,281.535 1895.25,271.224 1912.34,255.212 1929.43,242.419 1946.52,232.684 1963.61,225.912 1980.71,222.258 1997.8,220.101 2014.89,217.847 2031.98,213.946 2049.07,209.836 2066.16,206.049 2083.25,205.574 2100.34,207.237 2117.43,210.374 2134.52,212.342 2151.61,213.922 2168.7,217.531 2185.79,227.358 2202.88,239.271 2219.97,252.161 2237.06,264.57 2254.15,275.373 2271.24,280.579 2288.33,280.151 2305.42,269.86 2322.51,253.855 2339.6,241.077 2356.69,231.362 2373.78,224.599 2390.87,220.952 2407.96,218.8 2425.05,216.569 2442.14,212.677 2459.23,208.582 2476.32,204.825 2493.42,204.389 2510.51,206.061 2527.6,209.204 2544.69,211.193 2561.78,212.791 2578.87,216.413 2595.96,226.247 2613.05,238.174 2630.14,251.08 2647.23,263.505 2664.32,274.307 2681.41,279.531 2698.5,279.119 2715.59,268.833 2732.68,252.847 2749.77,240.099 2766.86,230.393 2783.95,223.639 2801.04,220 2818.13,217.839 2835.22,215.613 2852.31,211.735 2869.4,207.643 2886.49,203.875 2903.58,203.446 2920.67,205.145 2937.76,208.31 2954.85,210.319 2971.94,211.934 2989.03,215.586 3006.12,225.452 3023.22,237.387 3040.31,250.303 3057.4,262.744 3074.49,273.561 3091.58,278.801 3108.67,278.399 3125.76,268.139 3142.85,252.171 3159.94,239.418 3177.03,229.711 3194.12,222.962 3211.21,219.332 3228.3,217.178 3245.39,214.944 3262.48,211.064 3279.57,206.981 3296.66,203.219 3313.75,202.82 3330.84,204.541 3347.93,207.731 3365.02,209.759 3382.11,211.388 3399.2,215.042 3416.29,224.915 3433.38,236.852 3450.47,249.771 3467.56,262.22 3484.65,273.037 3501.74,278.293 3518.83,277.922 3535.92,267.671 3553.02,251.691 3570.11,238.944 3587.2,229.244 3604.29,222.497 3621.38,218.856 3638.47,216.71 3655.56,214.489 3672.65,210.62 3689.74,206.541 3706.83,202.795 3723.92,202.397 3741.01,204.135 3758.1,207.343 3775.19,209.379 3792.28,211.013 3809.37,214.664 3826.46,224.53 3843.55,236.473 3860.64,249.396 3877.73,261.855 3894.82,272.7 3911.91,277.963 3929,277.588 3946.09,267.33 3963.18,251.354 3980.27,238.613 3997.36,228.923 4014.45,222.183 4031.54,218.546 4048.63,216.403 4065.72,214.169 4082.82,210.304 4099.91,206.228 4117,202.496 4134.09,202.132 4151.18,203.888 4168.27,207.105 4185.36,209.153 4202.45,210.79 4219.54,214.441 4236.63,224.318 4253.72,236.254 4270.81,249.178 4287.9,261.64 4304.99,272.501 4322.08,277.774 4339.17,277.413 4356.26,267.187 4373.35,251.23 4390.44,238.485 4407.53,228.787 4424.62,222.037 4441.71,218.411 4458.8,216.267 4475.89,214.014 4492.98,210.131 4510.07,206.068 4527.16,202.346 4544.25,201.966 4561.34,203.697 4578.43,206.926 4595.52,208.996 4612.62,210.658 4629.71,214.198 "/>
<path clip-path="url(#clip900)" d="M3853.78 853.161 L4607.83 853.161 L4607.83 334.761 L3853.78 334.761  Z" fill="#ffffff" fill-rule="evenodd" fill-opacity="1"/>
<polyline clip-path="url(#clip900)" style="stroke:#000000; stroke-linecap:round; stroke-linejoin:round; stroke-width:4; stroke-opacity:1; fill:none" points="3853.78,853.161 4607.83,853.161 4607.83,334.761 3853.78,334.761 3853.78,853.161 "/>
<polyline clip-path="url(#clip900)" style="stroke:#aeaeae; stroke-linecap:round; stroke-linejoin:round; stroke-width:2; stroke-opacity:1; fill:none" points="3902.09,464.361 4191.94,464.361 "/>
<path clip-path="url(#clip900)" d="M4241.93 497.723 L4261.03 497.723 L4261.03 431.809 L4240.25 435.976 L4240.25 425.328 L4260.91 421.161 L4272.6 421.161 L4272.6 497.723 L4291.7 497.723 L4291.7 507.561 L4241.93 507.561 L4241.93 497.723 Z" fill="#000000" fill-rule="nonzero" fill-opacity="1" /><path clip-path="url(#clip900)" d="M4340.31 428.858 Q4331.28 428.858 4326.71 437.77 Q4322.2 446.624 4322.2 464.448 Q4322.2 482.214 4326.71 491.126 Q4331.28 499.98 4340.31 499.98 Q4349.4 499.98 4353.91 491.126 Q4358.48 482.214 4358.48 464.448 Q4358.48 446.624 4353.91 437.77 Q4349.4 428.858 4340.31 428.858 M4340.31 419.599 Q4354.83 419.599 4362.47 431.115 Q4370.17 442.573 4370.17 464.448 Q4370.17 486.265 4362.47 497.781 Q4354.83 509.239 4340.31 509.239 Q4325.78 509.239 4318.09 497.781 Q4310.45 486.265 4310.45 464.448 Q4310.45 442.573 4318.09 431.115 Q4325.78 419.599 4340.31 419.599 Z" fill="#000000" fill-rule="nonzero" fill-opacity="1" /><path clip-path="url(#clip900)" d="M4415.71 428.858 Q4406.69 428.858 4402.11 437.77 Q4397.6 446.624 4397.6 464.448 Q4397.6 482.214 4402.11 491.126 Q4406.69 499.98 4415.71 499.98 Q4424.8 499.98 4429.31 491.126 Q4433.89 482.214 4433.89 464.448 Q4433.89 446.624 4429.31 437.77 Q4424.8 428.858 4415.71 428.858 M4415.71 419.599 Q4430.24 419.599 4437.88 431.115 Q4445.58 442.573 4445.58 464.448 Q4445.58 486.265 4437.88 497.781 Q4430.24 509.239 4415.71 509.239 Q4401.19 509.239 4393.49 497.781 Q4385.85 486.265 4385.85 464.448 Q4385.85 442.573 4393.49 431.115 Q4401.19 419.599 4415.71 419.599 Z" fill="#000000" fill-rule="nonzero" fill-opacity="1" /><path clip-path="url(#clip900)" d="M4539.61 469.541 Q4534.58 469.541 4531.69 473.823 Q4528.85 478.105 4528.85 485.744 Q4528.85 493.267 4531.69 497.608 Q4534.58 501.89 4539.61 501.89 Q4544.53 501.89 4547.37 497.608 Q4550.26 493.267 4550.26 485.744 Q4550.26 478.163 4547.37 473.881 Q4544.53 469.541 4539.61 469.541 M4539.61 462.191 Q4548.76 462.191 4554.14 468.557 Q4559.52 474.923 4559.52 485.744 Q4559.52 496.566 4554.08 502.932 Q4548.7 509.239 4539.61 509.239 Q4530.35 509.239 4524.97 502.932 Q4519.59 496.566 4519.59 485.744 Q4519.59 474.865 4524.97 468.557 Q4530.41 462.191 4539.61 462.191 M4479.89 426.948 Q4474.92 426.948 4472.02 431.289 Q4469.19 435.571 4469.19 443.094 Q4469.19 450.733 4472.02 455.015 Q4474.86 459.298 4479.89 459.298 Q4484.93 459.298 4487.76 455.015 Q4490.66 450.733 4490.66 443.094 Q4490.66 435.629 4487.76 431.289 Q4484.87 426.948 4479.89 426.948 M4532.15 419.599 L4541.41 419.599 L4487.36 509.239 L4478.1 509.239 L4532.15 419.599 M4479.89 419.599 Q4489.04 419.599 4494.48 425.964 Q4499.92 432.272 4499.92 443.094 Q4499.92 454.031 4494.48 460.339 Q4489.09 466.647 4479.89 466.647 Q4470.69 466.647 4465.31 460.339 Q4459.98 453.974 4459.98 443.094 Q4459.98 432.33 4465.37 425.964 Q4470.75 419.599 4479.89 419.599 Z" fill="#000000" fill-rule="nonzero" fill-opacity="1" /><polyline clip-path="url(#clip900)" style="stroke:#757575; stroke-linecap:round; stroke-linejoin:round; stroke-width:2; stroke-opacity:1; fill:none" points="3902.09,593.961 4191.94,593.961 "/>
<path clip-path="url(#clip900)" d="M4245.81 635.367 L4245.81 624.719 Q4250.21 626.803 4254.72 627.902 Q4259.23 629.002 4263.57 629.002 Q4275.15 629.002 4281.22 621.247 Q4287.36 613.435 4288.23 597.578 Q4284.87 602.555 4279.72 605.217 Q4274.57 607.879 4268.32 607.879 Q4255.36 607.879 4247.78 600.067 Q4240.25 592.196 4240.25 578.597 Q4240.25 565.287 4248.12 557.243 Q4255.99 549.199 4269.07 549.199 Q4284.06 549.199 4291.93 560.715 Q4299.86 572.173 4299.86 594.048 Q4299.86 614.476 4290.14 626.687 Q4280.47 638.839 4264.09 638.839 Q4259.7 638.839 4255.18 637.971 Q4250.67 637.103 4245.81 635.367 M4269.07 598.736 Q4276.94 598.736 4281.51 593.354 Q4286.14 587.972 4286.14 578.597 Q4286.14 569.28 4281.51 563.898 Q4276.94 558.458 4269.07 558.458 Q4261.2 558.458 4256.57 563.898 Q4252 569.28 4252 578.597 Q4252 587.972 4256.57 593.354 Q4261.2 598.736 4269.07 598.736 Z" fill="#000000" fill-rule="nonzero" fill-opacity="1" /><path clip-path="url(#clip900)" d="M4345.87 558.458 Q4336.84 558.458 4332.27 567.37 Q4327.75 576.224 4327.75 594.048 Q4327.75 611.814 4332.27 620.726 Q4336.84 629.58 4345.87 629.58 Q4354.95 629.58 4359.46 620.726 Q4364.04 611.814 4364.04 594.048 Q4364.04 576.224 4359.46 567.37 Q4354.95 558.458 4345.87 558.458 M4345.87 549.199 Q4360.39 549.199 4368.03 560.715 Q4375.73 572.173 4375.73 594.048 Q4375.73 615.865 4368.03 627.381 Q4360.39 638.839 4345.87 638.839 Q4331.34 638.839 4323.64 627.381 Q4316 615.865 4316 594.048 Q4316 572.173 4323.64 560.715 Q4331.34 549.199 4345.87 549.199 Z" fill="#000000" fill-rule="nonzero" fill-opacity="1" /><path clip-path="url(#clip900)" d="M4469.76 599.141 Q4464.73 599.141 4461.84 603.423 Q4459 607.705 4459 615.344 Q4459 622.867 4461.84 627.208 Q4464.73 631.49 4469.76 631.49 Q4474.68 631.49 4477.52 627.208 Q4480.41 622.867 4480.41 615.344 Q4480.41 607.763 4477.52 603.481 Q4474.68 599.141 4469.76 599.141 M4469.76 591.791 Q4478.91 591.791 4484.29 598.157 Q4489.67 604.523 4489.67 615.344 Q4489.67 626.166 4484.23 632.532 Q4478.85 638.839 4469.76 638.839 Q4460.51 638.839 4455.12 632.532 Q4449.74 626.166 4449.74 615.344 Q4449.74 604.465 4455.12 598.157 Q4460.56 591.791 4469.76 591.791 M4410.04 556.548 Q4405.07 556.548 4402.17 560.889 Q4399.34 565.171 4399.34 572.694 Q4399.34 580.333 4402.17 584.615 Q4405.01 588.898 4410.04 588.898 Q4415.08 588.898 4417.91 584.615 Q4420.81 580.333 4420.81 572.694 Q4420.81 565.229 4417.91 560.889 Q4415.02 556.548 4410.04 556.548 M4462.3 549.199 L4471.56 549.199 L4417.51 638.839 L4408.25 638.839 L4462.3 549.199 M4410.04 549.199 Q4419.19 549.199 4424.63 555.564 Q4430.07 561.872 4430.07 572.694 Q4430.07 583.631 4424.63 589.939 Q4419.24 596.247 4410.04 596.247 Q4400.84 596.247 4395.46 589.939 Q4390.14 583.574 4390.14 572.694 Q4390.14 561.93 4395.52 555.564 Q4400.9 549.199 4410.04 549.199 Z" fill="#000000" fill-rule="nonzero" fill-opacity="1" /><polyline clip-path="url(#clip900)" style="stroke:#414141; stroke-linecap:round; stroke-linejoin:round; stroke-width:2; stroke-opacity:1; fill:none" points="3902.09,723.561 4191.94,723.561 "/>
<path clip-path="url(#clip900)" d="M4269.88 725.731 Q4261.55 725.731 4256.75 730.187 Q4252 734.643 4252 742.456 Q4252 750.268 4256.75 754.724 Q4261.55 759.18 4269.88 759.18 Q4278.21 759.18 4283.02 754.724 Q4287.82 750.21 4287.82 742.456 Q4287.82 734.643 4283.02 730.187 Q4278.27 725.731 4269.88 725.731 M4258.19 720.755 Q4250.67 718.903 4246.44 713.752 Q4242.28 708.602 4242.28 701.194 Q4242.28 690.836 4249.63 684.817 Q4257.03 678.799 4269.88 678.799 Q4282.79 678.799 4290.14 684.817 Q4297.49 690.836 4297.49 701.194 Q4297.49 708.602 4293.26 713.752 Q4289.09 718.903 4281.63 720.755 Q4290.08 722.722 4294.77 728.451 Q4299.51 734.18 4299.51 742.456 Q4299.51 755.014 4291.81 761.727 Q4284.18 768.439 4269.88 768.439 Q4255.59 768.439 4247.89 761.727 Q4240.25 755.014 4240.25 742.456 Q4240.25 734.18 4245 728.451 Q4249.74 722.722 4258.19 720.755 M4253.91 702.294 Q4253.91 709.007 4258.08 712.768 Q4262.3 716.53 4269.88 716.53 Q4277.4 716.53 4281.63 712.768 Q4285.91 709.007 4285.91 702.294 Q4285.91 695.581 4281.63 691.82 Q4277.4 688.058 4269.88 688.058 Q4262.3 688.058 4258.08 691.82 Q4253.91 695.581 4253.91 702.294 Z" fill="#000000" fill-rule="nonzero" fill-opacity="1" /><path clip-path="url(#clip900)" d="M4345.29 688.058 Q4336.26 688.058 4331.69 696.97 Q4327.17 705.824 4327.17 723.648 Q4327.17 741.414 4331.69 750.326 Q4336.26 759.18 4345.29 759.18 Q4354.37 759.18 4358.89 750.326 Q4363.46 741.414 4363.46 723.648 Q4363.46 705.824 4358.89 696.97 Q4354.37 688.058 4345.29 688.058 M4345.29 678.799 Q4359.81 678.799 4367.45 690.315 Q4375.15 701.773 4375.15 723.648 Q4375.15 745.465 4367.45 756.981 Q4359.81 768.439 4345.29 768.439 Q4330.76 768.439 4323.06 756.981 Q4315.43 745.465 4315.43 723.648 Q4315.43 701.773 4323.06 690.315 Q4330.76 678.799 4345.29 678.799 Z" fill="#000000" fill-rule="nonzero" fill-opacity="1" /><path clip-path="url(#clip900)" d="M4469.19 728.741 Q4464.15 728.741 4461.26 733.023 Q4458.42 737.305 4458.42 744.944 Q4458.42 752.467 4461.26 756.808 Q4464.15 761.09 4469.19 761.09 Q4474.11 761.09 4476.94 756.808 Q4479.83 752.467 4479.83 744.944 Q4479.83 737.363 4476.94 733.081 Q4474.11 728.741 4469.19 728.741 M4469.19 721.391 Q4478.33 721.391 4483.71 727.757 Q4489.09 734.123 4489.09 744.944 Q4489.09 755.766 4483.65 762.132 Q4478.27 768.439 4469.19 768.439 Q4459.93 768.439 4454.55 762.132 Q4449.16 755.766 4449.16 744.944 Q4449.16 734.065 4454.55 727.757 Q4459.98 721.391 4469.19 721.391 M4409.46 686.148 Q4404.49 686.148 4401.59 690.489 Q4398.76 694.771 4398.76 702.294 Q4398.76 709.933 4401.59 714.215 Q4404.43 718.498 4409.46 718.498 Q4414.5 718.498 4417.33 714.215 Q4420.23 709.933 4420.23 702.294 Q4420.23 694.829 4417.33 690.489 Q4414.44 686.148 4409.46 686.148 M4461.72 678.799 L4470.98 678.799 L4416.93 768.439 L4407.67 768.439 L4461.72 678.799 M4409.46 678.799 Q4418.61 678.799 4424.05 685.164 Q4429.49 691.472 4429.49 702.294 Q4429.49 713.231 4424.05 719.539 Q4418.67 725.847 4409.46 725.847 Q4400.26 725.847 4394.88 719.539 Q4389.56 713.174 4389.56 702.294 Q4389.56 691.53 4394.94 685.164 Q4400.32 678.799 4409.46 678.799 Z" fill="#000000" fill-rule="nonzero" fill-opacity="1" /></svg>
