<?xml version="1.0" encoding="utf-8"?>
<svg xmlns="http://www.w3.org/2000/svg" xmlns:xlink="http://www.w3.org/1999/xlink" width="1200" height="300" viewBox="0 0 4800 1200">
<defs>
  <clipPath id="clip220">
    <rect x="0" y="0" width="4800" height="1200"/>
  </clipPath>
</defs>
<path clip-path="url(#clip220)" d="M0 1200 L4800 1200 L4800 0 L0 0  Z" fill="#ffffff" fill-rule="evenodd" fill-opacity="1"/>
<defs>
  <clipPath id="clip221">
    <rect x="960" y="0" width="3361" height="1200"/>
  </clipPath>
</defs>
<path clip-path="url(#clip220)" d="M404.977 880.951 L4752.76 880.951 L4752.76 47.2441 L404.977 47.2441  Z" fill="#ffffff" fill-rule="evenodd" fill-opacity="1"/>
<defs>
  <clipPath id="clip222">
    <rect x="404" y="47" width="4349" height="835"/>
  </clipPath>
</defs>
<polyline clip-path="url(#clip222)" style="stroke:#000000; stroke-linecap:round; stroke-linejoin:round; stroke-width:2; stroke-opacity:0.1; fill:none" points="528.028,880.951 528.028,47.2441 "/>
<polyline clip-path="url(#clip222)" style="stroke:#000000; stroke-linecap:round; stroke-linejoin:round; stroke-width:2; stroke-opacity:0.1; fill:none" points="1348.36,880.951 1348.36,47.2441 "/>
<polyline clip-path="url(#clip222)" style="stroke:#000000; stroke-linecap:round; stroke-linejoin:round; stroke-width:2; stroke-opacity:0.1; fill:none" points="2168.7,880.951 2168.7,47.2441 "/>
<polyline clip-path="url(#clip222)" style="stroke:#000000; stroke-linecap:round; stroke-linejoin:round; stroke-width:2; stroke-opacity:0.1; fill:none" points="2989.03,880.951 2989.03,47.2441 "/>
<polyline clip-path="url(#clip222)" style="stroke:#000000; stroke-linecap:round; stroke-linejoin:round; stroke-width:2; stroke-opacity:0.1; fill:none" points="3809.37,880.951 3809.37,47.2441 "/>
<polyline clip-path="url(#clip222)" style="stroke:#000000; stroke-linecap:round; stroke-linejoin:round; stroke-width:2; stroke-opacity:0.1; fill:none" points="4629.71,880.951 4629.71,47.2441 "/>
<polyline clip-path="url(#clip222)" style="stroke:#000000; stroke-linecap:round; stroke-linejoin:round; stroke-width:2; stroke-opacity:0.1; fill:none" points="404.977,733.61 4752.76,733.61 "/>
<polyline clip-path="url(#clip222)" style="stroke:#000000; stroke-linecap:round; stroke-linejoin:round; stroke-width:2; stroke-opacity:0.1; fill:none" points="404.977,568.291 4752.76,568.291 "/>
<polyline clip-path="url(#clip222)" style="stroke:#000000; stroke-linecap:round; stroke-linejoin:round; stroke-width:2; stroke-opacity:0.1; fill:none" points="404.977,402.973 4752.76,402.973 "/>
<polyline clip-path="url(#clip222)" style="stroke:#000000; stroke-linecap:round; stroke-linejoin:round; stroke-width:2; stroke-opacity:0.1; fill:none" points="404.977,237.654 4752.76,237.654 "/>
<polyline clip-path="url(#clip222)" style="stroke:#000000; stroke-linecap:round; stroke-linejoin:round; stroke-width:2; stroke-opacity:0.1; fill:none" points="404.977,72.335 4752.76,72.335 "/>
<polyline clip-path="url(#clip220)" style="stroke:#000000; stroke-linecap:round; stroke-linejoin:round; stroke-width:4; stroke-opacity:1; fill:none" points="404.977,880.951 4752.76,880.951 "/>
<polyline clip-path="url(#clip220)" style="stroke:#000000; stroke-linecap:round; stroke-linejoin:round; stroke-width:4; stroke-opacity:1; fill:none" points="528.028,880.951 528.028,862.054 "/>
<polyline clip-path="url(#clip220)" style="stroke:#000000; stroke-linecap:round; stroke-linejoin:round; stroke-width:4; stroke-opacity:1; fill:none" points="1348.36,880.951 1348.36,862.054 "/>
<polyline clip-path="url(#clip220)" style="stroke:#000000; stroke-linecap:round; stroke-linejoin:round; stroke-width:4; stroke-opacity:1; fill:none" points="2168.7,880.951 2168.7,862.054 "/>
<polyline clip-path="url(#clip220)" style="stroke:#000000; stroke-linecap:round; stroke-linejoin:round; stroke-width:4; stroke-opacity:1; fill:none" points="2989.03,880.951 2989.03,862.054 "/>
<polyline clip-path="url(#clip220)" style="stroke:#000000; stroke-linecap:round; stroke-linejoin:round; stroke-width:4; stroke-opacity:1; fill:none" points="3809.37,880.951 3809.37,862.054 "/>
<polyline clip-path="url(#clip220)" style="stroke:#000000; stroke-linecap:round; stroke-linejoin:round; stroke-width:4; stroke-opacity:1; fill:none" points="4629.71,880.951 4629.71,862.054 "/>
<path clip-path="url(#clip220)" d="M528.028 942.789 Q520.806 942.789 517.148 949.918 Q513.537 957.002 513.537 971.261 Q513.537 985.474 517.148 992.603 Q520.806 999.687 528.028 999.687 Q535.296 999.687 538.907 992.603 Q542.565 985.474 542.565 971.261 Q542.565 957.002 538.907 949.918 Q535.296 942.789 528.028 942.789 M528.028 935.382 Q539.648 935.382 545.759 944.594 Q551.916 953.761 551.916 971.261 Q551.916 988.715 545.759 997.927 Q539.648 1007.09 528.028 1007.09 Q516.407 1007.09 510.25 997.927 Q504.139 988.715 504.139 971.261 Q504.139 953.761 510.25 944.594 Q516.407 935.382 528.028 935.382 Z" fill="#000000" fill-rule="nonzero" fill-opacity="1" /><path clip-path="url(#clip220)" d="M1337.67 997.881 L1370.31 997.881 L1370.31 1005.75 L1326.42 1005.75 L1326.42 997.881 Q1331.74 992.372 1340.91 983.113 Q1350.12 973.807 1352.48 971.122 Q1356.97 966.076 1358.73 962.604 Q1360.54 959.085 1360.54 955.705 Q1360.54 950.196 1356.65 946.724 Q1352.81 943.252 1346.6 943.252 Q1342.21 943.252 1337.3 944.78 Q1332.44 946.307 1326.88 949.409 L1326.88 939.965 Q1332.53 937.696 1337.44 936.539 Q1342.34 935.382 1346.42 935.382 Q1357.16 935.382 1363.55 940.752 Q1369.94 946.122 1369.94 955.104 Q1369.94 959.363 1368.32 963.205 Q1366.74 967.002 1362.53 972.187 Q1361.37 973.529 1355.17 979.965 Q1348.97 986.353 1337.67 997.881 Z" fill="#000000" fill-rule="nonzero" fill-opacity="1" /><path clip-path="url(#clip220)" d="M2174.72 944.78 L2151.11 981.678 L2174.72 981.678 L2174.72 944.78 M2172.26 936.631 L2184.02 936.631 L2184.02 981.678 L2193.88 981.678 L2193.88 989.455 L2184.02 989.455 L2184.02 1005.75 L2174.72 1005.75 L2174.72 989.455 L2143.51 989.455 L2143.51 980.428 L2172.26 936.631 Z" fill="#000000" fill-rule="nonzero" fill-opacity="1" /><path clip-path="url(#clip220)" d="M2989.84 967.465 Q2983.55 967.465 2979.84 971.77 Q2976.19 976.076 2976.19 983.576 Q2976.19 991.029 2979.84 995.381 Q2983.55 999.687 2989.84 999.687 Q2996.14 999.687 2999.8 995.381 Q3003.5 991.029 3003.5 983.576 Q3003.5 976.076 2999.8 971.77 Q2996.14 967.465 2989.84 967.465 M3008.41 938.159 L3008.41 946.678 Q3004.89 945.011 3001.28 944.131 Q2997.71 943.252 2994.2 943.252 Q2984.94 943.252 2980.03 949.502 Q2975.17 955.752 2974.47 968.391 Q2977.21 964.363 2981.33 962.233 Q2985.45 960.057 2990.4 960.057 Q3000.82 960.057 3006.84 966.4 Q3012.9 972.696 3012.9 983.576 Q3012.9 994.224 3006.6 1000.66 Q3000.31 1007.09 2989.84 1007.09 Q2977.85 1007.09 2971.51 997.927 Q2965.17 988.715 2965.17 971.261 Q2965.17 954.872 2972.95 945.15 Q2980.72 935.382 2993.83 935.382 Q2997.34 935.382 3000.91 936.076 Q3004.52 936.77 3008.41 938.159 Z" fill="#000000" fill-rule="nonzero" fill-opacity="1" /><path clip-path="url(#clip220)" d="M3809.37 972.928 Q3802.7 972.928 3798.86 976.492 Q3795.06 980.057 3795.06 986.307 Q3795.06 992.557 3798.86 996.122 Q3802.7 999.687 3809.37 999.687 Q3816.04 999.687 3819.88 996.122 Q3823.72 992.511 3823.72 986.307 Q3823.72 980.057 3819.88 976.492 Q3816.08 972.928 3809.37 972.928 M3800.02 968.946 Q3794 967.465 3790.62 963.344 Q3787.29 959.224 3787.29 953.298 Q3787.29 945.011 3793.17 940.196 Q3799.09 935.382 3809.37 935.382 Q3819.69 935.382 3825.57 940.196 Q3831.45 945.011 3831.45 953.298 Q3831.45 959.224 3828.07 963.344 Q3824.74 967.465 3818.77 968.946 Q3825.53 970.52 3829.28 975.104 Q3833.07 979.687 3833.07 986.307 Q3833.07 996.353 3826.92 1001.72 Q3820.81 1007.09 3809.37 1007.09 Q3797.93 1007.09 3791.78 1001.72 Q3785.67 996.353 3785.67 986.307 Q3785.67 979.687 3789.46 975.104 Q3793.26 970.52 3800.02 968.946 M3796.59 954.178 Q3796.59 959.548 3799.93 962.557 Q3803.31 965.567 3809.37 965.567 Q3815.39 965.567 3818.77 962.557 Q3822.19 959.548 3822.19 954.178 Q3822.19 948.807 3818.77 945.798 Q3815.39 942.789 3809.37 942.789 Q3803.31 942.789 3799.93 945.798 Q3796.59 948.807 3796.59 954.178 Z" fill="#000000" fill-rule="nonzero" fill-opacity="1" /><path clip-path="url(#clip220)" d="M4579.08 997.881 L4594.36 997.881 L4594.36 945.15 L4577.74 948.483 L4577.74 939.965 L4594.27 936.631 L4603.62 936.631 L4603.62 997.881 L4618.9 997.881 L4618.9 1005.75 L4579.08 1005.75 L4579.08 997.881 Z" fill="#000000" fill-rule="nonzero" fill-opacity="1" /><path clip-path="url(#clip220)" d="M4657.78 942.789 Q4650.56 942.789 4646.9 949.918 Q4643.29 957.002 4643.29 971.261 Q4643.29 985.474 4646.9 992.603 Q4650.56 999.687 4657.78 999.687 Q4665.05 999.687 4668.66 992.603 Q4672.32 985.474 4672.32 971.261 Q4672.32 957.002 4668.66 949.918 Q4665.05 942.789 4657.78 942.789 M4657.78 935.382 Q4669.4 935.382 4675.52 944.594 Q4681.67 953.761 4681.67 971.261 Q4681.67 988.715 4675.52 997.927 Q4669.4 1007.09 4657.78 1007.09 Q4646.16 1007.09 4640.01 997.927 Q4633.9 988.715 4633.9 971.261 Q4633.9 953.761 4640.01 944.594 Q4646.16 935.382 4657.78 935.382 Z" fill="#000000" fill-rule="nonzero" fill-opacity="1" /><path clip-path="url(#clip220)" d="M2296.11 1072.18 L2361.89 1072.18 L2361.89 1081.04 L2334.28 1081.04 L2334.28 1149.94 L2323.71 1149.94 L2323.71 1081.04 L2296.11 1081.04 L2296.11 1072.18 Z" fill="#000000" fill-rule="nonzero" fill-opacity="1" /><path clip-path="url(#clip220)" d="M2368.35 1091.61 L2377.93 1091.61 L2377.93 1149.94 L2368.35 1149.94 L2368.35 1091.61 M2368.35 1068.9 L2377.93 1068.9 L2377.93 1081.04 L2368.35 1081.04 L2368.35 1068.9 Z" fill="#000000" fill-rule="nonzero" fill-opacity="1" /><path clip-path="url(#clip220)" d="M2443.4 1102.81 Q2446.99 1096.35 2451.99 1093.28 Q2456.99 1090.2 2463.76 1090.2 Q2472.88 1090.2 2477.83 1096.61 Q2482.77 1102.96 2482.77 1114.74 L2482.77 1149.94 L2473.14 1149.94 L2473.14 1115.05 Q2473.14 1106.66 2470.17 1102.6 Q2467.2 1098.54 2461.11 1098.54 Q2453.66 1098.54 2449.34 1103.49 Q2445.01 1108.43 2445.01 1116.97 L2445.01 1149.94 L2435.38 1149.94 L2435.38 1115.05 Q2435.38 1106.61 2432.41 1102.6 Q2429.44 1098.54 2423.24 1098.54 Q2415.9 1098.54 2411.58 1103.54 Q2407.25 1108.49 2407.25 1116.97 L2407.25 1149.94 L2397.62 1149.94 L2397.62 1091.61 L2407.25 1091.61 L2407.25 1100.67 Q2410.53 1095.31 2415.12 1092.76 Q2419.7 1090.2 2426 1090.2 Q2432.36 1090.2 2436.78 1093.43 Q2441.26 1096.66 2443.4 1102.81 Z" fill="#000000" fill-rule="nonzero" fill-opacity="1" /><path clip-path="url(#clip220)" d="M2551.78 1118.38 L2551.78 1123.07 L2507.72 1123.07 Q2508.35 1132.96 2513.66 1138.17 Q2519.02 1143.33 2528.55 1143.33 Q2534.08 1143.33 2539.23 1141.97 Q2544.44 1140.62 2549.54 1137.91 L2549.54 1146.97 Q2544.39 1149.16 2538.97 1150.31 Q2533.55 1151.45 2527.98 1151.45 Q2514.02 1151.45 2505.85 1143.33 Q2497.72 1135.2 2497.72 1121.35 Q2497.72 1107.03 2505.43 1098.64 Q2513.19 1090.2 2526.31 1090.2 Q2538.09 1090.2 2544.91 1097.81 Q2551.78 1105.36 2551.78 1118.38 M2542.2 1115.57 Q2542.1 1107.7 2537.77 1103.02 Q2533.5 1098.33 2526.42 1098.33 Q2518.4 1098.33 2513.55 1102.86 Q2508.76 1107.39 2508.03 1115.62 L2542.2 1115.57 Z" fill="#000000" fill-rule="nonzero" fill-opacity="1" /><path clip-path="url(#clip220)" d="M2624.44 1069.01 Q2617.46 1080.99 2614.07 1092.7 Q2610.69 1104.42 2610.69 1116.45 Q2610.69 1128.49 2614.07 1140.31 Q2617.51 1152.08 2624.44 1164.01 L2616.11 1164.01 Q2608.29 1151.77 2604.39 1139.94 Q2600.53 1128.12 2600.53 1116.45 Q2600.53 1104.84 2604.39 1093.07 Q2608.24 1081.3 2616.11 1069.01 L2624.44 1069.01 Z" fill="#000000" fill-rule="nonzero" fill-opacity="1" /><path clip-path="url(#clip220)" d="M2681.42 1100.46 L2681.42 1068.9 L2691 1068.9 L2691 1149.94 L2681.42 1149.94 L2681.42 1141.19 Q2678.4 1146.4 2673.76 1148.95 Q2669.18 1151.45 2662.72 1151.45 Q2652.15 1151.45 2645.48 1143.02 Q2638.87 1134.58 2638.87 1120.83 Q2638.87 1107.08 2645.48 1098.64 Q2652.15 1090.2 2662.72 1090.2 Q2669.18 1090.2 2673.76 1092.76 Q2678.4 1095.26 2681.42 1100.46 M2648.76 1120.83 Q2648.76 1131.4 2653.08 1137.44 Q2657.46 1143.43 2665.06 1143.43 Q2672.67 1143.43 2677.04 1137.44 Q2681.42 1131.4 2681.42 1120.83 Q2681.42 1110.26 2677.04 1104.27 Q2672.67 1098.23 2665.06 1098.23 Q2657.46 1098.23 2653.08 1104.27 Q2648.76 1110.26 2648.76 1120.83 Z" fill="#000000" fill-rule="nonzero" fill-opacity="1" /><path clip-path="url(#clip220)" d="M2737.25 1120.62 Q2725.64 1120.62 2721.16 1123.28 Q2716.68 1125.93 2716.68 1132.34 Q2716.68 1137.44 2720.01 1140.46 Q2723.4 1143.43 2729.18 1143.43 Q2737.15 1143.43 2741.94 1137.81 Q2746.78 1132.13 2746.78 1122.76 L2746.78 1120.62 L2737.25 1120.62 M2756.37 1116.66 L2756.37 1149.94 L2746.78 1149.94 L2746.78 1141.09 Q2743.5 1146.4 2738.61 1148.95 Q2733.71 1151.45 2726.63 1151.45 Q2717.67 1151.45 2712.36 1146.45 Q2707.1 1141.4 2707.1 1132.96 Q2707.1 1123.12 2713.66 1118.12 Q2720.27 1113.12 2733.34 1113.12 L2746.78 1113.12 L2746.78 1112.18 Q2746.78 1105.57 2742.41 1101.98 Q2738.08 1098.33 2730.22 1098.33 Q2725.22 1098.33 2720.48 1099.53 Q2715.74 1100.73 2711.37 1103.12 L2711.37 1094.27 Q2716.63 1092.24 2721.57 1091.25 Q2726.52 1090.2 2731.21 1090.2 Q2743.87 1090.2 2750.12 1096.77 Q2756.37 1103.33 2756.37 1116.66 Z" fill="#000000" fill-rule="nonzero" fill-opacity="1" /><path clip-path="url(#clip220)" d="M2800.38 1155.36 Q2796.31 1165.78 2792.46 1168.95 Q2788.61 1172.13 2782.15 1172.13 L2774.49 1172.13 L2774.49 1164.11 L2780.12 1164.11 Q2784.07 1164.11 2786.26 1162.24 Q2788.45 1160.36 2791.11 1153.38 L2792.82 1149.01 L2769.23 1091.61 L2779.39 1091.61 L2797.62 1137.24 L2815.84 1091.61 L2826 1091.61 L2800.38 1155.36 Z" fill="#000000" fill-rule="nonzero" fill-opacity="1" /><path clip-path="url(#clip220)" d="M2837.72 1069.01 L2846.05 1069.01 Q2853.87 1081.3 2857.72 1093.07 Q2861.63 1104.84 2861.63 1116.45 Q2861.63 1128.12 2857.72 1139.94 Q2853.87 1151.77 2846.05 1164.01 L2837.72 1164.01 Q2844.65 1152.08 2848.03 1140.31 Q2851.47 1128.49 2851.47 1116.45 Q2851.47 1104.42 2848.03 1092.7 Q2844.65 1080.99 2837.72 1069.01 Z" fill="#000000" fill-rule="nonzero" fill-opacity="1" /><polyline clip-path="url(#clip220)" style="stroke:#000000; stroke-linecap:round; stroke-linejoin:round; stroke-width:4; stroke-opacity:1; fill:none" points="404.977,880.951 404.977,47.2441 "/>
<polyline clip-path="url(#clip220)" style="stroke:#000000; stroke-linecap:round; stroke-linejoin:round; stroke-width:4; stroke-opacity:1; fill:none" points="404.977,733.61 423.875,733.61 "/>
<polyline clip-path="url(#clip220)" style="stroke:#000000; stroke-linecap:round; stroke-linejoin:round; stroke-width:4; stroke-opacity:1; fill:none" points="404.977,568.291 423.875,568.291 "/>
<polyline clip-path="url(#clip220)" style="stroke:#000000; stroke-linecap:round; stroke-linejoin:round; stroke-width:4; stroke-opacity:1; fill:none" points="404.977,402.973 423.875,402.973 "/>
<polyline clip-path="url(#clip220)" style="stroke:#000000; stroke-linecap:round; stroke-linejoin:round; stroke-width:4; stroke-opacity:1; fill:none" points="404.977,237.654 423.875,237.654 "/>
<polyline clip-path="url(#clip220)" style="stroke:#000000; stroke-linecap:round; stroke-linejoin:round; stroke-width:4; stroke-opacity:1; fill:none" points="404.977,72.335 423.875,72.335 "/>
<path clip-path="url(#clip220)" d="M151.219 734.513 L210.571 734.513 L210.571 742.383 L151.219 742.383 L151.219 734.513 Z" fill="#000000" fill-rule="nonzero" fill-opacity="1" /><path clip-path="url(#clip220)" d="M228.395 699.05 L272.839 699.05 L272.839 703.032 L247.746 768.17 L237.978 768.17 L261.589 706.921 L228.395 706.921 L228.395 699.05 Z" fill="#000000" fill-rule="nonzero" fill-opacity="1" /><path clip-path="url(#clip220)" d="M291.172 699.05 L327.885 699.05 L327.885 706.921 L299.737 706.921 L299.737 723.865 Q301.774 723.171 303.811 722.846 Q305.848 722.476 307.885 722.476 Q319.459 722.476 326.218 728.819 Q332.977 735.161 332.977 745.994 Q332.977 757.152 326.033 763.355 Q319.089 769.513 306.45 769.513 Q302.098 769.513 297.561 768.772 Q293.07 768.031 288.255 766.55 L288.255 757.152 Q292.422 759.42 296.866 760.531 Q301.311 761.643 306.265 761.643 Q314.274 761.643 318.95 757.43 Q323.626 753.217 323.626 745.994 Q323.626 738.772 318.95 734.559 Q314.274 730.346 306.265 730.346 Q302.515 730.346 298.765 731.18 Q295.061 732.013 291.172 733.772 L291.172 699.05 Z" fill="#000000" fill-rule="nonzero" fill-opacity="1" /><path clip-path="url(#clip220)" d="M149.228 569.194 L208.58 569.194 L208.58 577.065 L149.228 577.065 L149.228 569.194 Z" fill="#000000" fill-rule="nonzero" fill-opacity="1" /><path clip-path="url(#clip220)" d="M228.858 533.731 L265.57 533.731 L265.57 541.602 L237.422 541.602 L237.422 558.546 Q239.459 557.852 241.496 557.528 Q243.533 557.157 245.57 557.157 Q257.144 557.157 263.904 563.5 Q270.663 569.842 270.663 580.676 Q270.663 591.833 263.718 598.037 Q256.774 604.194 244.135 604.194 Q239.783 604.194 235.246 603.453 Q230.756 602.713 225.941 601.231 L225.941 591.833 Q230.108 594.101 234.552 595.213 Q238.996 596.324 243.95 596.324 Q251.959 596.324 256.635 592.111 Q261.311 587.898 261.311 580.676 Q261.311 573.453 256.635 569.241 Q251.959 565.028 243.95 565.028 Q240.2 565.028 236.45 565.861 Q232.746 566.694 228.858 568.453 L228.858 533.731 Z" fill="#000000" fill-rule="nonzero" fill-opacity="1" /><path clip-path="url(#clip220)" d="M309.089 539.889 Q301.866 539.889 298.209 547.018 Q294.598 554.102 294.598 568.361 Q294.598 582.574 298.209 589.703 Q301.866 596.787 309.089 596.787 Q316.357 596.787 319.968 589.703 Q323.626 582.574 323.626 568.361 Q323.626 554.102 319.968 547.018 Q316.357 539.889 309.089 539.889 M309.089 532.481 Q320.709 532.481 326.82 541.694 Q332.977 550.861 332.977 568.361 Q332.977 585.814 326.82 595.027 Q320.709 604.194 309.089 604.194 Q297.468 604.194 291.311 595.027 Q285.2 585.814 285.2 568.361 Q285.2 550.861 291.311 541.694 Q297.468 532.481 309.089 532.481 Z" fill="#000000" fill-rule="nonzero" fill-opacity="1" /><path clip-path="url(#clip220)" d="M151.219 403.875 L210.571 403.875 L210.571 411.746 L151.219 411.746 L151.219 403.875 Z" fill="#000000" fill-rule="nonzero" fill-opacity="1" /><path clip-path="url(#clip220)" d="M238.811 429.662 L271.45 429.662 L271.45 437.533 L227.561 437.533 L227.561 429.662 Q232.885 424.153 242.052 414.894 Q251.265 405.588 253.626 402.903 Q258.117 397.857 259.876 394.385 Q261.681 390.866 261.681 387.487 Q261.681 381.977 257.793 378.505 Q253.95 375.033 247.746 375.033 Q243.348 375.033 238.441 376.561 Q233.58 378.088 228.024 381.19 L228.024 371.746 Q233.672 369.477 238.58 368.32 Q243.487 367.163 247.561 367.163 Q258.302 367.163 264.691 372.533 Q271.08 377.903 271.08 386.885 Q271.08 391.144 269.459 394.987 Q267.885 398.783 263.672 403.968 Q262.515 405.311 256.311 411.746 Q250.107 418.135 238.811 429.662 Z" fill="#000000" fill-rule="nonzero" fill-opacity="1" /><path clip-path="url(#clip220)" d="M291.172 368.413 L327.885 368.413 L327.885 376.283 L299.737 376.283 L299.737 393.227 Q301.774 392.533 303.811 392.209 Q305.848 391.838 307.885 391.838 Q319.459 391.838 326.218 398.181 Q332.977 404.524 332.977 415.357 Q332.977 426.514 326.033 432.718 Q319.089 438.875 306.45 438.875 Q302.098 438.875 297.561 438.134 Q293.07 437.394 288.255 435.912 L288.255 426.514 Q292.422 428.783 296.866 429.894 Q301.311 431.005 306.265 431.005 Q314.274 431.005 318.95 426.792 Q323.626 422.579 323.626 415.357 Q323.626 408.135 318.95 403.922 Q314.274 399.709 306.265 399.709 Q302.515 399.709 298.765 400.542 Q295.061 401.375 291.172 403.135 L291.172 368.413 Z" fill="#000000" fill-rule="nonzero" fill-opacity="1" /><path clip-path="url(#clip220)" d="M309.089 209.251 Q301.866 209.251 298.209 216.381 Q294.598 223.464 294.598 237.723 Q294.598 251.936 298.209 259.066 Q301.866 266.149 309.089 266.149 Q316.357 266.149 319.968 259.066 Q323.626 251.936 323.626 237.723 Q323.626 223.464 319.968 216.381 Q316.357 209.251 309.089 209.251 M309.089 201.844 Q320.709 201.844 326.82 211.057 Q332.977 220.223 332.977 237.723 Q332.977 255.177 326.82 264.39 Q320.709 273.556 309.089 273.556 Q297.468 273.556 291.311 264.39 Q285.2 255.177 285.2 237.723 Q285.2 220.223 291.311 211.057 Q297.468 201.844 309.089 201.844 Z" fill="#000000" fill-rule="nonzero" fill-opacity="1" /><path clip-path="url(#clip220)" d="M238.811 99.0246 L271.45 99.0246 L271.45 106.895 L227.561 106.895 L227.561 99.0246 Q232.885 93.5154 242.052 84.2562 Q251.265 74.9507 253.626 72.2655 Q258.117 67.2192 259.876 63.747 Q261.681 60.2285 261.681 56.8489 Q261.681 51.3397 257.793 47.8675 Q253.95 44.3953 247.746 44.3953 Q243.348 44.3953 238.441 45.9231 Q233.58 47.4508 228.024 50.5527 L228.024 41.1083 Q233.672 38.8398 238.58 37.6824 Q243.487 36.525 247.561 36.525 Q258.302 36.525 264.691 41.8953 Q271.08 47.2657 271.08 56.2471 Q271.08 60.5063 269.459 64.3489 Q267.885 68.1452 263.672 73.3303 Q262.515 74.6729 256.311 81.1081 Q250.107 87.4969 238.811 99.0246 Z" fill="#000000" fill-rule="nonzero" fill-opacity="1" /><path clip-path="url(#clip220)" d="M291.172 37.775 L327.885 37.775 L327.885 45.6453 L299.737 45.6453 L299.737 62.5896 Q301.774 61.8952 303.811 61.5711 Q305.848 61.2008 307.885 61.2008 Q319.459 61.2008 326.218 67.5433 Q332.977 73.8859 332.977 84.7192 Q332.977 95.8765 326.033 102.08 Q319.089 108.238 306.45 108.238 Q302.098 108.238 297.561 107.497 Q293.07 106.756 288.255 105.275 L288.255 95.8765 Q292.422 98.145 296.866 99.2561 Q301.311 100.367 306.265 100.367 Q314.274 100.367 318.95 96.1543 Q323.626 91.9413 323.626 84.7192 Q323.626 77.497 318.95 73.284 Q314.274 69.0711 306.265 69.0711 Q302.515 69.0711 298.765 69.9044 Q295.061 70.7377 291.172 72.497 L291.172 37.775 Z" fill="#000000" fill-rule="nonzero" fill-opacity="1" /><path clip-path="url(#clip222)" d="M528.028 487.819 L545.118 504.779 L562.208 522.649 L579.299 540.578 L596.389 556.797 L613.479 570.162 L630.57 587.267 L647.66 588.691 L664.75 559.641 L681.841 529.95 L698.931 511.77 L716.021 498.849 L733.112 489.789 L750.202 483.995 L767.292 479.164 L784.383 472.959 L801.473 463.608 L818.563 454.118 L835.654 445.808 L852.744 444.364 L869.834 448.982 L886.925 456.684 L904.015 463.289 L921.105 469.235 L938.195 477.347 L955.286 493.563 L972.376 510.854 L989.466 537.583 L1006.56 575.798 L1023.65 610.978 L1040.74 629.59 L1057.83 631.171 L1074.92 601.849 L1092.01 556.232 L1109.1 517.218 L1126.19 485.078 L1143.28 475.94 L1160.37 470.346 L1177.46 465.593 L1194.55 459.246 L1211.64 449.976 L1228.73 440.513 L1245.82 432.533 L1262.91 431.231 L1280 435.095 L1297.09 443.023 L1314.18 449.98 L1331.27 456.068 L1348.36 463.918 L1365.45 487.523 L1382.54 525.644 L1399.63 566.576 L1416.72 605.941 L1433.81 640.659 L1450.91 659.56 L1468 660.827 L1485.09 638.85 L1502.18 596.79 L1519.27 556.905 L1536.36 519.517 L1553.45 486.56 L1570.54 461.715 L1587.63 454.06 L1604.72 448.159 L1621.81 438.902 L1638.9 429.47 L1655.99 421.753 L1673.08 420.786 L1690.17 425.216 L1707.26 442.232 L1724.35 456.276 L1741.44 466.029 L1758.53 478.1 L1775.62 506.05 L1792.71 545.547 L1809.8 586.479 L1826.89 626.31 L1843.98 661.774 L1861.07 681.233 L1878.16 692.231 L1895.25 672.754 L1912.34 630.92 L1929.43 590.791 L1946.52 552.778 L1963.61 518.677 L1980.71 492.207 L1997.8 472.111 L2014.89 455.559 L2031.98 439.551 L2049.07 428.634 L2066.16 423.41 L2083.25 431.355 L2100.34 448.132 L2117.43 468.973 L2134.52 484.02 L2151.61 493.948 L2168.7 505.188 L2185.79 532.5 L2202.88 565.296 L2219.97 602.749 L2237.06 642.573 L2254.15 682.812 L2271.24 710.127 L2288.33 722.615 L2305.42 703.711 L2322.51 661.421 L2339.6 620.503 L2356.69 581.506 L2373.78 546.376 L2390.87 518.906 L2407.96 497.647 L2425.05 480.637 L2442.14 463.72 L2459.23 452.098 L2476.32 446.689 L2493.42 455.154 L2510.51 471.91 L2527.6 493.282 L2544.69 508.235 L2561.78 518.543 L2578.87 529.831 L2595.96 557.412 L2613.05 590.303 L2630.14 627.979 L2647.23 668.146 L2664.32 708.722 L2681.41 736.407 L2698.5 749.589 L2715.59 730.852 L2732.68 688.24 L2749.77 647.285 L2766.86 607.879 L2783.95 571.956 L2801.04 543.817 L2818.13 521.187 L2835.22 503.076 L2852.31 485.468 L2869.4 473.505 L2886.49 467.652 L2903.58 476.424 L2920.67 493.578 L2937.76 515.509 L2954.85 531.056 L2971.94 541.701 L2989.03 553.863 L3006.12 581.931 L3023.22 615.212 L3040.31 653.217 L3057.4 693.805 L3074.49 734.465 L3091.58 762.876 L3108.67 776.024 L3125.76 757.433 L3142.85 715.138 L3159.94 673.818 L3177.03 633.933 L3194.12 597.257 L3211.21 567.768 L3228.3 544.38 L3245.39 525.06 L3262.48 506.491 L3279.57 493.88 L3296.66 487.892 L3313.75 496.902 L3330.84 514.446 L3347.93 537.049 L3365.02 553.704 L3382.11 564.962 L3399.2 576.643 L3416.29 604.243 L3433.38 637.48 L3450.47 675.608 L3467.56 716.781 L3484.65 758.298 L3501.74 787.524 L3518.83 801.476 L3535.92 783.238 L3553.02 741.38 L3570.11 699.649 L3587.2 658.973 L3604.29 621.537 L3621.38 591.431 L3638.47 567.39 L3655.56 546.435 L3672.65 527.13 L3689.74 514.142 L3706.83 508.252 L3723.92 517.641 L3741.01 539.192 L3758.1 560.42 L3775.19 576.307 L3792.28 587.798 L3809.37 599.863 L3826.46 628.183 L3843.55 661.455 L3860.64 699.811 L3877.73 741.311 L3894.82 783.492 L3911.91 813.497 L3929 828.92 L3946.09 811.668 L3963.18 768.922 L3980.27 727.234 L3997.36 686.196 L4014.45 647.945 L4031.54 616.773 L4048.63 591.253 L4065.72 570.286 L4082.82 550.228 L4099.91 536.592 L4117 534.12 L4134.09 551.474 L4151.18 575.823 L4168.27 598.637 L4185.36 608.444 L4202.45 612.318 L4219.54 624.962 L4236.63 653.633 L4253.72 686.95 L4270.81 725.529 L4287.9 767.342 L4304.99 810.715 L4322.08 841.543 L4339.17 857.356 L4356.26 843.799 L4373.35 806.688 L4390.44 766.749 L4407.53 724.155 L4424.62 682.446 L4441.71 648.383 L4458.8 621.612 L4475.89 600.779 L4492.98 583.688 L4510.07 576.122 L4527.16 577.732 L4544.25 596.745 L4561.34 622.07 L4578.43 646.975 L4595.52 658.22 L4612.62 658.44 L4629.71 657.808 L4629.71 73.9264 L4612.62 71.0296 L4595.52 74.673 L4578.43 78.4967 L4561.34 79.1887 L4544.25 79.2552 L4527.16 81.8367 L4510.07 87.7386 L4492.98 92.3317 L4475.89 95.2673 L4458.8 94.5424 L4441.71 94.3428 L4424.62 99.5404 L4407.53 114.059 L4390.44 136.956 L4373.35 166.379 L4356.26 196.715 L4339.17 215.627 L4322.08 214.151 L4304.99 200.892 L4287.9 176.251 L4270.81 147.874 L4253.72 118.848 L4236.63 93.0915 L4219.54 74.0877 L4202.45 70.8396 L4185.36 74.585 L4168.27 79.7435 L4151.18 79.9027 L4134.09 79.4349 L4117 80.5539 L4099.91 86.2455 L4082.82 90.8803 L4065.72 93.4265 L4048.63 94.1865 L4031.54 94.0816 L4014.45 98.9791 L3997.36 113.461 L3980.27 136.376 L3963.18 166.308 L3946.09 197.079 L3929 216.115 L3911.91 214.736 L3894.82 201.488 L3877.73 176.836 L3860.64 148.491 L3843.55 119.484 L3826.46 93.7744 L3809.37 74.882 L3792.28 71.8937 L3775.19 75.5962 L3758.1 79.3862 L3741.01 79.8911 L3723.92 79.0006 L3706.83 82.2691 L3689.74 87.9546 L3672.65 92.4183 L3655.56 95.578 L3638.47 94.865 L3621.38 94.5137 L3604.29 99.6233 L3587.2 114.333 L3570.11 137.473 L3553.02 166.376 L3535.92 196.94 L3518.83 216.314 L3501.74 214.964 L3484.65 202.411 L3467.56 177.989 L3450.47 149.387 L3433.38 120.363 L3416.29 94.6757 L3399.2 75.8406 L3382.11 72.2043 L3365.02 76.0256 L3347.93 79.5675 L3330.84 80.4629 L3313.75 79.4541 L3296.66 80.924 L3279.57 86.7205 L3262.48 91.5037 L3245.39 94.6276 L3228.3 94.6275 L3211.21 93.7773 L3194.12 98.616 L3177.03 113.104 L3159.94 136.066 L3142.85 165.718 L3125.76 197.639 L3108.67 216.372 L3091.58 216.806 L3074.49 203.356 L3057.4 178.29 L3040.31 149.97 L3023.22 120.552 L3006.12 94.8713 L2989.03 76.5981 L2971.94 73.6819 L2954.85 77.7457 L2937.76 81.6718 L2920.67 81.9387 L2903.58 81.5569 L2886.49 83.0852 L2869.4 88.5773 L2852.31 92.9779 L2835.22 95.975 L2818.13 94.908 L2801.04 95.4815 L2783.95 100.683 L2766.86 115.386 L2749.77 138.808 L2732.68 169.075 L2715.59 200.929 L2698.5 219.745 L2681.41 218.273 L2664.32 205.468 L2647.23 180.549 L2630.14 152.387 L2613.05 123.451 L2595.96 97.8577 L2578.87 79.0092 L2561.78 76.1165 L2544.69 80.1118 L2527.6 84.1783 L2510.51 83.4894 L2493.42 82.5688 L2476.32 83.9938 L2459.23 89.64 L2442.14 94.0993 L2425.05 97.0644 L2407.96 96.5145 L2390.87 96.2979 L2373.78 101.703 L2356.69 116.331 L2339.6 139.255 L2322.51 169.059 L2305.42 202.556 L2288.33 221.585 L2271.24 220.898 L2254.15 207.77 L2237.06 182.89 L2219.97 154.265 L2202.88 125.478 L2185.79 99.9408 L2168.7 81.2524 L2151.61 77.658 L2134.52 81.8828 L2117.43 85.731 L2100.34 86.0104 L2083.25 85.2752 L2066.16 86.5936 L2049.07 91.3963 L2031.98 95.415 L2014.89 98.1521 L1997.8 97.8892 L1980.71 97.8817 L1963.61 103.638 L1946.52 118.479 L1929.43 141.9 L1912.34 171.765 L1895.25 204.162 L1878.16 223.095 L1861.07 223.086 L1843.98 210.087 L1826.89 185.313 L1809.8 156.684 L1792.71 127.863 L1775.62 102.292 L1758.53 83.5234 L1741.44 79.9825 L1724.35 84.1532 L1707.26 87.8089 L1690.17 87.6194 L1673.08 86.7754 L1655.99 88.0411 L1638.9 93.642 L1621.81 98.1711 L1604.72 101.133 L1587.63 101.005 L1570.54 100.981 L1553.45 106.645 L1536.36 121.466 L1519.27 144.54 L1502.18 174.37 L1485.09 207.931 L1468 227.465 L1450.91 227.675 L1433.81 214.226 L1416.72 189.351 L1399.63 161.278 L1382.54 132.387 L1365.45 106.708 L1348.36 88.1558 L1331.27 85.6718 L1314.18 89.4991 L1297.09 93.5937 L1280 92.6622 L1262.91 92.0287 L1245.82 92.3452 L1228.73 97.9789 L1211.64 102.638 L1194.55 105.535 L1177.46 104.994 L1160.37 104.841 L1143.28 110.404 L1126.19 125.325 L1109.1 148.643 L1092.01 178.858 L1074.92 214.427 L1057.83 233.591 L1040.74 233.56 L1023.65 220.709 L1006.56 196.502 L989.466 168.415 L972.376 139.644 L955.286 112.593 L938.195 93.4346 L921.105 91.8996 L904.015 97.0969 L886.925 99.4346 L869.834 98.1208 L852.744 97.5793 L835.654 98.2558 L818.563 103.999 L801.473 107.01 L784.383 109.881 L767.292 108.949 L750.202 109.777 L733.112 116.132 L716.021 131.323 L698.931 155.011 L681.841 186.249 L664.75 223.6 L647.66 246.273 L630.57 245.311 L613.479 232.847 L596.389 208.678 L579.299 179.903 L562.208 149.882 L545.118 123.833 L528.028 105.744  Z" fill="#aeaeae" fill-rule="evenodd" fill-opacity="0.5"/>
<polyline clip-path="url(#clip222)" style="stroke:#aeaeae; stroke-linecap:round; stroke-linejoin:round; stroke-width:0; stroke-opacity:1; fill:none" points="528.028,229.422 545.118,239.003 562.208,250.531 579.299,263.062 596.389,275.103 613.479,285.58 630.57,290.454 647.66,289.906 664.75,279.477 681.841,263.257 698.931,250.348 716.021,240.532 733.112,233.699 750.202,229.994 767.292,227.809 784.383,225.596 801.473,221.664 818.563,217.515 835.654,213.659 852.744,213.059 869.834,214.554 886.925,217.547 904.015,219.389 921.105,220.864 938.195,224.39 955.286,234.122 972.376,245.907 989.466,258.667 1006.56,270.939 1023.65,281.586 1040.74,286.667 1057.83,286.124 1074.92,275.775 1092.01,259.768 1109.1,246.974 1126.19,237.236 1143.28,230.46 1160.37,226.8 1177.46,224.63 1194.55,222.352 1211.64,218.441 1228.73,214.314 1245.82,210.494 1262.91,209.983 1280,211.562 1297.09,214.603 1314.18,216.509 1331.27,218.04 1348.36,221.578 1365.45,231.335 1382.54,243.169 1399.63,255.973 1416.72,268.293 1433.81,278.991 1450.91,284.121 1468,283.63 1485.09,273.327 1502.18,257.337 1519.27,244.564 1536.36,234.841 1553.45,228.074 1570.54,224.429 1587.63,222.248 1604.72,219.989 1621.81,216.093 1638.9,211.98 1655.99,208.188 1673.08,207.712 1690.17,209.338 1707.26,212.438 1724.35,214.375 1741.44,215.931 1758.53,219.494 1775.62,229.268 1792.71,241.124 1809.8,253.956 1826.89,266.315 1843.98,277.049 1861.07,282.226 1878.16,281.746 1895.25,271.465 1912.34,255.491 1929.43,242.731 1946.52,233.024 1963.61,226.275 1980.71,222.638 1997.8,220.488 2014.89,218.242 2031.98,214.354 2049.07,210.259 2066.16,206.478 2083.25,206.015 2100.34,207.669 2117.43,210.79 2134.52,212.756 2151.61,214.331 2168.7,217.921 2185.79,227.718 2202.88,239.602 2219.97,252.459 2237.06,264.84 2254.15,275.59 2271.24,280.777 2288.33,280.358 2305.42,270.109 2322.51,254.155 2339.6,241.419 2356.69,231.73 2373.78,224.986 2390.87,221.352 2407.96,219.189 2425.05,216.961 2442.14,213.079 2459.23,208.995 2476.32,205.233 2493.42,204.791 2510.51,206.458 2527.6,209.594 2544.69,211.598 2561.78,213.191 2578.87,216.793 2595.96,226.61 2613.05,238.502 2630.14,251.377 2647.23,263.771 2664.32,274.565 2681.41,279.773 2698.5,279.371 2715.59,269.121 2732.68,253.174 2749.77,240.444 2766.86,230.759 2783.95,224.022 2801.04,220.393 2818.13,218.241 2835.22,216.013 2852.31,212.148 2869.4,208.073 2886.49,204.313 2903.58,203.9 2920.67,205.607 2937.76,208.771 2954.85,210.771 2971.94,212.376 2989.03,215.984 3006.12,225.802 3023.22,237.707 3040.31,250.593 3057.4,263 3074.49,273.805 3091.58,279.047 3108.67,278.654 3125.76,268.425 3142.85,252.499 3159.94,239.773 3177.03,230.092 3194.12,223.362 3211.21,219.738 3228.3,217.593 3245.39,215.36 3262.48,211.497 3279.57,207.424 3296.66,203.681 3313.75,203.255 3330.84,204.979 3347.93,208.165 3365.02,210.183 3382.11,211.8 3399.2,215.421 3416.29,225.255 3433.38,237.16 3450.47,250.048 3467.56,262.469 3484.65,273.274 3501.74,278.51 3518.83,278.129 3535.92,267.92 3553.02,252.006 3570.11,239.301 3587.2,229.632 3604.29,222.9 3621.38,219.279 3638.47,217.142 3655.56,214.902 3672.65,211.035 3689.74,206.971 3706.83,203.242 3723.92,202.845 3741.01,204.585 3758.1,207.78 3775.19,209.81 3792.28,211.442 3809.37,215.076 3826.46,224.915 3843.55,236.823 3860.64,249.718 3877.73,262.141 3894.82,272.965 3911.91,278.231 3929,277.855 3946.09,267.617 3963.18,251.693 3980.27,238.994 3997.36,229.327 4014.45,222.598 4031.54,218.971 4048.63,216.828 4065.72,214.606 4082.82,210.739 4099.91,206.68 4117,202.965 4134.09,202.585 4151.18,204.322 4168.27,207.523 4185.36,209.557 4202.45,211.192 4219.54,214.836 4236.63,224.676 4253.72,236.586 4270.81,249.484 4287.9,261.905 4304.99,272.755 4322.08,278.019 4339.17,277.672 4356.26,267.464 4373.35,251.567 4390.44,238.867 4407.53,229.191 4424.62,222.456 4441.71,218.833 4458.8,216.685 4475.89,214.477 4492.98,210.614 4510.07,206.553 4527.16,202.809 4544.25,202.421 4561.34,204.167 4578.43,207.385 4595.52,209.439 4612.62,211.099 4629.71,214.627 "/>
<path clip-path="url(#clip222)" d="M528.028 328.009 L545.118 347.524 L562.208 369.625 L579.299 392.417 L596.389 418.024 L613.479 439.073 L630.57 452.833 L647.66 454.14 L664.75 431.842 L681.841 394.049 L698.931 367.795 L716.021 350.057 L733.112 340.005 L750.202 332.679 L767.292 326.981 L784.383 319.971 L801.473 309.76 L818.563 299.785 L835.654 291.239 L852.744 288.129 L869.834 291.571 L886.925 301.796 L904.015 305.881 L921.105 312.094 L938.195 321.173 L955.286 341.214 L972.376 364.256 L989.466 391.468 L1006.56 416.949 L1023.65 442.864 L1040.74 457.642 L1057.83 462.46 L1074.92 438.955 L1092.01 404.392 L1109.1 375.54 L1126.19 347.318 L1143.28 332.25 L1160.37 321.872 L1177.46 315.584 L1194.55 308.509 L1211.64 298.437 L1228.73 289.222 L1245.82 280.963 L1262.91 280.281 L1280 287.286 L1297.09 294.638 L1314.18 301.488 L1331.27 309.45 L1348.36 317.74 L1365.45 340.153 L1382.54 364.813 L1399.63 393.359 L1416.72 424.605 L1433.81 451.571 L1450.91 467.072 L1468 465.403 L1485.09 445.144 L1502.18 405.9 L1519.27 377.546 L1536.36 355.346 L1553.45 333.372 L1570.54 320.296 L1587.63 312.615 L1604.72 305.248 L1621.81 295.206 L1638.9 285.505 L1655.99 278.097 L1673.08 278.946 L1690.17 285.457 L1707.26 297.052 L1724.35 304.488 L1741.44 308.128 L1758.53 318.688 L1775.62 341.829 L1792.71 367.852 L1809.8 398.552 L1826.89 427.597 L1843.98 454.002 L1861.07 467.81 L1878.16 467.052 L1895.25 444.609 L1912.34 410.037 L1929.43 380.758 L1946.52 353.91 L1963.61 337.677 L1980.71 321.874 L1997.8 311.875 L2014.89 305.148 L2031.98 294.205 L2049.07 284.679 L2066.16 276.953 L2083.25 281.306 L2100.34 290.872 L2117.43 299.379 L2134.52 306.76 L2151.61 311.395 L2168.7 320.034 L2185.79 343.413 L2202.88 370.025 L2219.97 401.223 L2237.06 430.024 L2254.15 456.759 L2271.24 470.505 L2288.33 472.041 L2305.42 449.068 L2322.51 408.248 L2339.6 382.381 L2356.69 355.155 L2373.78 338.051 L2390.87 326.949 L2407.96 314.692 L2425.05 306.372 L2442.14 294.889 L2459.23 287.585 L2476.32 280.696 L2493.42 284.668 L2510.51 291.3 L2527.6 298.8 L2544.69 306.671 L2561.78 311.574 L2578.87 323.418 L2595.96 346.144 L2613.05 372.855 L2630.14 403.397 L2647.23 428.946 L2664.32 457.682 L2681.41 471.219 L2698.5 474.168 L2715.59 450.909 L2732.68 410.699 L2749.77 379.57 L2766.86 357.441 L2783.95 334.942 L2801.04 325.219 L2818.13 317.286 L2835.22 307.405 L2852.31 297.568 L2869.4 290.408 L2886.49 282.304 L2903.58 283.559 L2920.67 288.475 L2937.76 298.901 L2954.85 305.364 L2971.94 312.506 L2989.03 323.528 L3006.12 347.202 L3023.22 374.14 L3040.31 403.316 L3057.4 428.747 L3074.49 458.783 L3091.58 470.832 L3108.67 474.594 L3125.76 450.405 L3142.85 411.759 L3159.94 379.42 L3177.03 358.063 L3194.12 335.452 L3211.21 322.129 L3228.3 316.936 L3245.39 308.705 L3262.48 298.479 L3279.57 288.609 L3296.66 281.546 L3313.75 280.738 L3330.84 286.22 L3347.93 299.078 L3365.02 303.119 L3382.11 311.176 L3399.2 323.035 L3416.29 347.759 L3433.38 374.493 L3450.47 403.055 L3467.56 427.465 L3484.65 459.041 L3501.74 471.631 L3518.83 471.762 L3535.92 451.998 L3553.02 412.106 L3570.11 378.929 L3587.2 359.012 L3604.29 336.348 L3621.38 320.442 L3638.47 313.689 L3655.56 307.114 L3672.65 296.976 L3689.74 287.684 L3706.83 279.909 L3723.92 278.938 L3741.01 283.415 L3758.1 298.71 L3775.19 303.952 L3792.28 311.348 L3809.37 323.353 L3826.46 347.364 L3843.55 374.799 L3860.64 401.805 L3877.73 429.219 L3894.82 458.015 L3911.91 469.838 L3929 473.334 L3946.09 450.476 L3963.18 412.493 L3980.27 379.664 L3997.36 357.659 L4014.45 337.919 L4031.54 319.989 L4048.63 312.21 L4065.72 305.229 L4082.82 295.415 L4099.91 286.768 L4117 278.308 L4134.09 277.075 L4151.18 282.482 L4168.27 298.281 L4185.36 305.142 L4202.45 312.304 L4219.54 322.832 L4236.63 347.079 L4253.72 375.944 L4270.81 400.785 L4287.9 428.976 L4304.99 457.808 L4322.08 468.942 L4339.17 472.744 L4356.26 449.716 L4373.35 412.481 L4390.44 379.968 L4407.53 356.805 L4424.62 337.284 L4441.71 320.255 L4458.8 311.865 L4475.89 304.18 L4492.98 295.157 L4510.07 285.754 L4527.16 277.166 L4544.25 275.82 L4561.34 282.673 L4578.43 298.053 L4595.52 305.143 L4612.62 312.518 L4629.71 322.725 L4629.71 107.157 L4612.62 103.209 L4595.52 104.931 L4578.43 106.022 L4561.34 103.37 L4544.25 103.025 L4527.16 104.428 L4510.07 111.873 L4492.98 118.407 L4475.89 122.78 L4458.8 124.082 L4441.71 125.245 L4424.62 130.302 L4407.53 145.131 L4390.44 164.841 L4373.35 189.293 L4356.26 219.772 L4339.17 238.485 L4322.08 239.217 L4304.99 227.714 L4287.9 203.819 L4270.81 177.421 L4253.72 150.966 L4236.63 125.977 L4219.54 107.816 L4202.45 103.309 L4185.36 104.745 L4168.27 106.31 L4151.18 104.305 L4134.09 104.004 L4117 105.307 L4099.91 112.498 L4082.82 118.538 L4065.72 123.212 L4048.63 124.219 L4031.54 125.455 L4014.45 130.702 L3997.36 145.276 L3980.27 165.368 L3963.18 189.746 L3946.09 220.548 L3929 239.181 L3911.91 239.588 L3894.82 228.024 L3877.73 204.629 L3860.64 178.366 L3843.55 151.796 L3826.46 126.782 L3809.37 108.402 L3792.28 103.94 L3775.19 105.214 L3758.1 106.672 L3741.01 104.82 L3723.92 104.239 L3706.83 105.756 L3689.74 112.94 L3672.65 118.776 L3655.56 123.548 L3638.47 124.525 L3621.38 125.679 L3604.29 132.033 L3587.2 145.971 L3570.11 166.423 L3553.02 190.686 L3535.92 221.394 L3518.83 240.029 L3501.74 240.394 L3484.65 229.148 L3467.56 206.271 L3450.47 179.409 L3433.38 152.518 L3416.29 128.438 L3399.2 110.154 L3382.11 105.62 L3365.02 106.352 L3347.93 107.494 L3330.84 105.786 L3313.75 105.266 L3296.66 107.475 L3279.57 114.315 L3262.48 119.904 L3245.39 124.337 L3228.3 124.978 L3211.21 126.192 L3194.12 132.672 L3177.03 147.248 L3159.94 167.774 L3142.85 192.35 L3125.76 222.294 L3108.67 241.62 L3091.58 241.466 L3074.49 229.659 L3057.4 207.115 L3040.31 180.782 L3023.22 153.811 L3006.12 129.79 L2989.03 111.405 L2971.94 107.133 L2954.85 107.77 L2937.76 109.041 L2920.67 107.196 L2903.58 106.69 L2886.49 108.387 L2869.4 114.521 L2852.31 121.261 L2835.22 125.364 L2818.13 126.181 L2801.04 127.289 L2783.95 132.899 L2766.86 148.032 L2749.77 169.721 L2732.68 193.18 L2715.59 223.593 L2698.5 243.785 L2681.41 243.29 L2664.32 232.014 L2647.23 209.456 L2630.14 183.077 L2613.05 156.356 L2595.96 131.442 L2578.87 113.098 L2561.78 109.277 L2544.69 110.194 L2527.6 111.419 L2510.51 109.653 L2493.42 108.471 L2476.32 110.346 L2459.23 116.846 L2442.14 122.919 L2425.05 127.258 L2407.96 127.395 L2390.87 128.713 L2373.78 134.059 L2356.69 148.898 L2339.6 171.855 L2322.51 196.54 L2305.42 226.688 L2288.33 245.82 L2271.24 246.12 L2254.15 234.996 L2237.06 212.362 L2219.97 186.319 L2202.88 158.709 L2185.79 133.099 L2168.7 114.649 L2151.61 111.2 L2134.52 112.816 L2117.43 114.083 L2100.34 111.984 L2083.25 110.841 L2066.16 112.561 L2049.07 119.516 L2031.98 125.09 L2014.89 129.363 L1997.8 129.191 L1980.71 130.706 L1963.61 135.851 L1946.52 150.445 L1929.43 173.687 L1912.34 200.337 L1895.25 230.455 L1878.16 249.45 L1861.07 250.638 L1843.98 239.08 L1826.89 216.394 L1809.8 189.877 L1792.71 161.186 L1775.62 136.348 L1758.53 117.571 L1741.44 114.018 L1724.35 115.716 L1707.26 117.113 L1690.17 115.494 L1673.08 114.502 L1655.99 115.725 L1638.9 122.565 L1621.81 127.967 L1604.72 131.931 L1587.63 132.086 L1570.54 132.919 L1553.45 139.133 L1536.36 153.243 L1519.27 176.213 L1502.18 204.805 L1485.09 236.04 L1468 255.194 L1450.91 255.512 L1433.81 244.156 L1416.72 220.922 L1399.63 194.111 L1382.54 165.337 L1365.45 139.697 L1348.36 120.877 L1331.27 116.872 L1314.18 119.586 L1297.09 121.954 L1280 119.868 L1262.91 118.322 L1245.82 118.947 L1228.73 124.625 L1211.64 130.343 L1194.55 134.867 L1177.46 135.597 L1160.37 136.387 L1143.28 142.443 L1126.19 157.21 L1109.1 179.071 L1092.01 209.497 L1074.92 242.895 L1057.83 263.097 L1040.74 262.614 L1023.65 251.797 L1006.56 227.577 L989.466 198.918 L972.376 171.324 L955.286 145.459 L938.195 126.381 L921.105 123.151 L904.015 125.65 L886.925 127.218 L869.834 123.801 L852.744 122.319 L835.654 122.545 L818.563 128.297 L801.473 133.45 L784.383 136.874 L767.292 137.096 L750.202 138.769 L733.112 146.714 L716.021 162.171 L698.931 184.839 L681.841 214.295 L664.75 250.02 L647.66 272.233 L630.57 271.88 L613.479 260.089 L596.389 236.152 L579.299 208.109 L562.208 180.183 L545.118 155.846 L528.028 137.472  Z" fill="#757575" fill-rule="evenodd" fill-opacity="0.5"/>
<polyline clip-path="url(#clip222)" style="stroke:#757575; stroke-linecap:round; stroke-linejoin:round; stroke-width:0; stroke-opacity:1; fill:none" points="528.028,229.422 545.118,239.003 562.208,250.531 579.299,263.062 596.389,275.103 613.479,285.58 630.57,290.454 647.66,289.906 664.75,279.477 681.841,263.257 698.931,250.348 716.021,240.532 733.112,233.699 750.202,229.994 767.292,227.809 784.383,225.596 801.473,221.664 818.563,217.515 835.654,213.659 852.744,213.059 869.834,214.554 886.925,217.547 904.015,219.389 921.105,220.864 938.195,224.39 955.286,234.122 972.376,245.907 989.466,258.667 1006.56,270.939 1023.65,281.586 1040.74,286.667 1057.83,286.124 1074.92,275.775 1092.01,259.768 1109.1,246.974 1126.19,237.236 1143.28,230.46 1160.37,226.8 1177.46,224.63 1194.55,222.352 1211.64,218.441 1228.73,214.314 1245.82,210.494 1262.91,209.983 1280,211.562 1297.09,214.603 1314.18,216.509 1331.27,218.04 1348.36,221.578 1365.45,231.335 1382.54,243.169 1399.63,255.973 1416.72,268.293 1433.81,278.991 1450.91,284.121 1468,283.63 1485.09,273.327 1502.18,257.337 1519.27,244.564 1536.36,234.841 1553.45,228.074 1570.54,224.429 1587.63,222.248 1604.72,219.989 1621.81,216.093 1638.9,211.98 1655.99,208.188 1673.08,207.712 1690.17,209.338 1707.26,212.438 1724.35,214.375 1741.44,215.931 1758.53,219.494 1775.62,229.268 1792.71,241.124 1809.8,253.956 1826.89,266.315 1843.98,277.049 1861.07,282.226 1878.16,281.746 1895.25,271.465 1912.34,255.491 1929.43,242.731 1946.52,233.024 1963.61,226.275 1980.71,222.638 1997.8,220.488 2014.89,218.242 2031.98,214.354 2049.07,210.259 2066.16,206.478 2083.25,206.015 2100.34,207.669 2117.43,210.79 2134.52,212.756 2151.61,214.331 2168.7,217.921 2185.79,227.718 2202.88,239.602 2219.97,252.459 2237.06,264.84 2254.15,275.59 2271.24,280.777 2288.33,280.358 2305.42,270.109 2322.51,254.155 2339.6,241.419 2356.69,231.73 2373.78,224.986 2390.87,221.352 2407.96,219.189 2425.05,216.961 2442.14,213.079 2459.23,208.995 2476.32,205.233 2493.42,204.791 2510.51,206.458 2527.6,209.594 2544.69,211.598 2561.78,213.191 2578.87,216.793 2595.96,226.61 2613.05,238.502 2630.14,251.377 2647.23,263.771 2664.32,274.565 2681.41,279.773 2698.5,279.371 2715.59,269.121 2732.68,253.174 2749.77,240.444 2766.86,230.759 2783.95,224.022 2801.04,220.393 2818.13,218.241 2835.22,216.013 2852.31,212.148 2869.4,208.073 2886.49,204.313 2903.58,203.9 2920.67,205.607 2937.76,208.771 2954.85,210.771 2971.94,212.376 2989.03,215.984 3006.12,225.802 3023.22,237.707 3040.31,250.593 3057.4,263 3074.49,273.805 3091.58,279.047 3108.67,278.654 3125.76,268.425 3142.85,252.499 3159.94,239.773 3177.03,230.092 3194.12,223.362 3211.21,219.738 3228.3,217.593 3245.39,215.36 3262.48,211.497 3279.57,207.424 3296.66,203.681 3313.75,203.255 3330.84,204.979 3347.93,208.165 3365.02,210.183 3382.11,211.8 3399.2,215.421 3416.29,225.255 3433.38,237.16 3450.47,250.048 3467.56,262.469 3484.65,273.274 3501.74,278.51 3518.83,278.129 3535.92,267.92 3553.02,252.006 3570.11,239.301 3587.2,229.632 3604.29,222.9 3621.38,219.279 3638.47,217.142 3655.56,214.902 3672.65,211.035 3689.74,206.971 3706.83,203.242 3723.92,202.845 3741.01,204.585 3758.1,207.78 3775.19,209.81 3792.28,211.442 3809.37,215.076 3826.46,224.915 3843.55,236.823 3860.64,249.718 3877.73,262.141 3894.82,272.965 3911.91,278.231 3929,277.855 3946.09,267.617 3963.18,251.693 3980.27,238.994 3997.36,229.327 4014.45,222.598 4031.54,218.971 4048.63,216.828 4065.72,214.606 4082.82,210.739 4099.91,206.68 4117,202.965 4134.09,202.585 4151.18,204.322 4168.27,207.523 4185.36,209.557 4202.45,211.192 4219.54,214.836 4236.63,224.676 4253.72,236.586 4270.81,249.484 4287.9,261.905 4304.99,272.755 4322.08,278.019 4339.17,277.672 4356.26,267.464 4373.35,251.567 4390.44,238.867 4407.53,229.191 4424.62,222.456 4441.71,218.833 4458.8,216.685 4475.89,214.477 4492.98,210.614 4510.07,206.553 4527.16,202.809 4544.25,202.421 4561.34,204.167 4578.43,207.385 4595.52,209.439 4612.62,211.099 4629.71,214.627 "/>
<path clip-path="url(#clip222)" d="M528.028 298.269 L545.118 319.329 L562.208 345.043 L579.299 367.024 L596.389 390.131 L613.479 410.874 L630.57 420.867 L647.66 418.868 L664.75 399.789 L681.841 368.771 L698.931 347.808 L716.021 324.208 L733.112 306.569 L750.202 299.217 L767.292 293.13 L784.383 286.779 L801.473 276.541 L818.563 265.706 L835.654 256.169 L852.744 255.286 L869.834 261.122 L886.925 271.592 L904.015 276.958 L921.105 284.059 L938.195 294.964 L955.286 313.509 L972.376 338.272 L989.466 361.114 L1006.56 384.21 L1023.65 403.229 L1040.74 413.973 L1057.83 412.68 L1074.92 393.57 L1092.01 363.183 L1109.1 340.554 L1126.19 321.026 L1143.28 307.911 L1160.37 296.74 L1177.46 288.965 L1194.55 280.306 L1211.64 270.951 L1228.73 261.118 L1245.82 253.678 L1262.91 253.92 L1280 259.044 L1297.09 268.664 L1314.18 277.569 L1331.27 284.139 L1348.36 291.657 L1365.45 310.501 L1382.54 331.888 L1399.63 357.205 L1416.72 377.428 L1433.81 398.015 L1450.91 409.918 L1468 410.783 L1485.09 391.431 L1502.18 357.501 L1519.27 333.87 L1536.36 315.374 L1553.45 303.788 L1570.54 292.671 L1587.63 286.103 L1604.72 278.459 L1621.81 267.919 L1638.9 257.801 L1655.99 249.259 L1673.08 250.955 L1690.17 256.625 L1707.26 263.381 L1724.35 270.548 L1741.44 276.01 L1758.53 285.222 L1775.62 304.272 L1792.71 327.267 L1809.8 350.616 L1826.89 373.638 L1843.98 394.87 L1861.07 409.722 L1878.16 407.72 L1895.25 388.49 L1912.34 353.558 L1929.43 328.512 L1946.52 310.153 L1963.61 297.765 L1980.71 290.344 L1997.8 283.86 L2014.89 276.594 L2031.98 266.144 L2049.07 255.615 L2066.16 247.824 L2083.25 247.905 L2100.34 250.879 L2117.43 260.322 L2134.52 265.746 L2151.61 271.424 L2168.7 280.799 L2185.79 301.25 L2202.88 322.49 L2219.97 345.117 L2237.06 370.667 L2254.15 393.644 L2271.24 404.538 L2288.33 408.271 L2305.42 384.928 L2322.51 353.106 L2339.6 323.552 L2356.69 306.407 L2373.78 293.289 L2390.87 285.64 L2407.96 279.467 L2425.05 273.484 L2442.14 262.59 L2459.23 253.452 L2476.32 244.905 L2493.42 244.288 L2510.51 248.595 L2527.6 256.965 L2544.69 263.017 L2561.78 269.481 L2578.87 277.892 L2595.96 298.434 L2613.05 318.495 L2630.14 343.672 L2647.23 370.307 L2664.32 391.89 L2681.41 401.966 L2698.5 404.411 L2715.59 382.431 L2732.68 351.437 L2749.77 322.772 L2766.86 302.597 L2783.95 288.972 L2801.04 281.228 L2818.13 276.101 L2835.22 269.485 L2852.31 260.076 L2869.4 250.598 L2886.49 241.741 L2903.58 242.25 L2920.67 246.988 L2937.76 254.281 L2954.85 260.817 L2971.94 266.144 L2989.03 275.426 L3006.12 294.429 L3023.22 316.037 L3040.31 342.42 L3057.4 368.99 L3074.49 388.933 L3091.58 400.286 L3108.67 400.857 L3125.76 383.714 L3142.85 349.148 L3159.94 323.234 L3177.03 299.999 L3194.12 287.826 L3211.21 278.63 L3228.3 273.081 L3245.39 267.153 L3262.48 257.591 L3279.57 247.561 L3296.66 240.684 L3313.75 239.383 L3330.84 243.689 L3347.93 253.185 L3365.02 258.551 L3382.11 264.324 L3399.2 273.691 L3416.29 293.029 L3433.38 314.827 L3450.47 342.68 L3467.56 368.464 L3484.65 388.314 L3501.74 399.171 L3518.83 398.111 L3535.92 380.961 L3553.02 348.023 L3570.11 321.868 L3587.2 298.881 L3604.29 286.3 L3621.38 275.781 L3638.47 270.824 L3655.56 264.613 L3672.65 255.94 L3689.74 246.546 L3706.83 238.283 L3723.92 238.082 L3741.01 242.966 L3758.1 250.789 L3775.19 257.063 L3792.28 262.757 L3809.37 271.968 L3826.46 291.715 L3843.55 313.645 L3860.64 342.219 L3877.73 368.042 L3894.82 388.213 L3911.91 398.107 L3929 397.476 L3946.09 378.147 L3963.18 347.376 L3980.27 322.293 L3997.36 298.192 L4014.45 284.627 L4031.54 275.301 L4048.63 269.419 L4065.72 263.708 L4082.82 255.348 L4099.91 245.357 L4117 236.939 L4134.09 237.008 L4151.18 243.866 L4168.27 250.335 L4185.36 255.666 L4202.45 261.53 L4219.54 271.366 L4236.63 290.325 L4253.72 314.103 L4270.81 341.164 L4287.9 366.926 L4304.99 387.422 L4322.08 398.885 L4339.17 396.741 L4356.26 377.492 L4373.35 346.839 L4390.44 322.028 L4407.53 298.066 L4424.62 283.411 L4441.71 276.241 L4458.8 268.877 L4475.89 263.737 L4492.98 253.786 L4510.07 244.28 L4527.16 236.315 L4544.25 236.811 L4561.34 243.598 L4578.43 251.427 L4595.52 255.166 L4612.62 260.537 L4629.71 270.345 L4629.71 118.714 L4612.62 114.596 L4595.52 114.889 L4578.43 115.982 L4561.34 112.257 L4544.25 111.251 L4527.16 111.878 L4510.07 119.481 L4492.98 127.394 L4475.89 132.967 L4458.8 134.389 L4441.71 136.156 L4424.62 141.761 L4407.53 154.19 L4390.44 173.827 L4373.35 198.061 L4356.26 228.783 L4339.17 249.601 L4322.08 249.614 L4304.99 238.844 L4287.9 215.895 L4270.81 189.667 L4253.72 162.555 L4236.63 137.829 L4219.54 119.012 L4202.45 114.537 L4185.36 115.549 L4168.27 116.43 L4151.18 112.713 L4134.09 111.288 L4117 112.702 L4099.91 120.215 L4082.82 127.528 L4065.72 133.466 L4048.63 134.433 L4031.54 136.43 L4014.45 141.992 L3997.36 154.642 L3980.27 174.242 L3963.18 198.133 L3946.09 229.519 L3929 250.069 L3911.91 249.947 L3894.82 239.11 L3877.73 216.669 L3860.64 190.65 L3843.55 162.973 L3826.46 138.046 L3809.37 119.361 L3792.28 115.175 L3775.19 115.742 L3758.1 117.088 L3741.01 113.057 L3723.92 111.471 L3706.83 113.079 L3689.74 120.804 L3672.65 128.336 L3655.56 133.455 L3638.47 135.501 L3621.38 137.372 L3604.29 143.107 L3587.2 155.18 L3570.11 175.156 L3553.02 199.323 L3535.92 230.284 L3518.83 250.751 L3501.74 251.26 L3484.65 240.273 L3467.56 217.902 L3450.47 191.018 L3433.38 162.861 L3416.29 139.078 L3399.2 120.599 L3382.11 116.604 L3365.02 116.819 L3347.93 117.67 L3330.84 114.177 L3313.75 112.538 L3296.66 114.4 L3279.57 121.909 L3262.48 129.47 L3245.39 134.501 L3228.3 136.451 L3211.21 138.426 L3194.12 143.858 L3177.03 156.16 L3159.94 175.596 L3142.85 200.057 L3125.76 231.845 L3108.67 252.41 L3091.58 252.575 L3074.49 241.365 L3057.4 218.719 L3040.31 192.424 L3023.22 164.554 L3006.12 140.193 L2989.03 120.907 L2971.94 117.707 L2954.85 118.206 L2937.76 118.596 L2920.67 115.408 L2903.58 113.696 L2886.49 115.718 L2869.4 123.532 L2852.31 131.004 L2835.22 135.88 L2818.13 137.726 L2801.04 139.673 L2783.95 145.063 L2766.86 157.419 L2749.77 177.45 L2732.68 201.542 L2715.59 233.641 L2698.5 253.876 L2681.41 254.574 L2664.32 243.2 L2647.23 220.225 L2630.14 194.119 L2613.05 166.37 L2595.96 141.184 L2578.87 122.817 L2561.78 118.845 L2544.69 120.245 L2527.6 120.578 L2510.51 117.521 L2493.42 116.056 L2476.32 117.733 L2459.23 125.119 L2442.14 132.368 L2425.05 137.44 L2407.96 139.039 L2390.87 141.461 L2373.78 146.846 L2356.69 159.928 L2339.6 179.324 L2322.51 204.173 L2305.42 236.182 L2288.33 256.517 L2271.24 256.652 L2254.15 245.147 L2237.06 222.869 L2219.97 196.536 L2202.88 168.218 L2185.79 143.382 L2168.7 125.165 L2151.61 120.946 L2134.52 123.411 L2117.43 123.259 L2100.34 120.009 L2083.25 118.994 L2066.16 120.05 L2049.07 127.774 L2031.98 134.645 L2014.89 140.16 L1997.8 141.269 L1980.71 143.533 L1963.61 149.677 L1946.52 162.696 L1929.43 182.083 L1912.34 207.535 L1895.25 239.037 L1878.16 259.4 L1861.07 260.586 L1843.98 249.043 L1826.89 226.832 L1809.8 198.76 L1792.71 171.836 L1775.62 146.788 L1758.53 128.04 L1741.44 124.163 L1724.35 126.083 L1707.26 126.503 L1690.17 124.001 L1673.08 121.976 L1655.99 123.828 L1638.9 130.752 L1621.81 137.717 L1604.72 143.118 L1587.63 144.671 L1570.54 146.197 L1553.45 152.721 L1536.36 166.153 L1519.27 186.229 L1502.18 211.964 L1485.09 243.32 L1468 264.609 L1450.91 266.08 L1433.81 254.739 L1416.72 230.945 L1399.63 203.894 L1382.54 176.292 L1365.45 151.529 L1348.36 133.55 L1331.27 129.451 L1314.18 131.158 L1297.09 131.939 L1280 128.226 L1262.91 126.544 L1245.82 128.306 L1228.73 134.746 L1211.64 140.815 L1194.55 146.092 L1177.46 147.452 L1160.37 148.97 L1143.28 155.607 L1126.19 171.328 L1109.1 192.028 L1092.01 218.186 L1074.92 249.753 L1057.83 270.831 L1040.74 272.146 L1023.65 261.105 L1006.56 237.276 L989.466 210.719 L972.376 183.704 L955.286 158.511 L938.195 139.953 L921.105 135.88 L904.015 137.735 L886.925 137.347 L869.834 132.981 L852.744 132.39 L835.654 133.884 L818.563 139.451 L801.473 145.216 L784.383 149.652 L767.292 150.517 L750.202 151.795 L733.112 159.041 L716.021 175.296 L698.931 198.28 L681.841 226.805 L664.75 259.388 L647.66 280.184 L630.57 280.792 L613.479 270.352 L596.389 248.697 L579.299 221.538 L562.208 193.773 L545.118 169.294 L528.028 150.954  Z" fill="#414141" fill-rule="evenodd" fill-opacity="0.5"/>
<polyline clip-path="url(#clip222)" style="stroke:#414141; stroke-linecap:round; stroke-linejoin:round; stroke-width:0; stroke-opacity:1; fill:none" points="528.028,229.422 545.118,239.003 562.208,250.531 579.299,263.062 596.389,275.103 613.479,285.58 630.57,290.454 647.66,289.906 664.75,279.477 681.841,263.257 698.931,250.348 716.021,240.532 733.112,233.699 750.202,229.994 767.292,227.809 784.383,225.596 801.473,221.664 818.563,217.515 835.654,213.659 852.744,213.059 869.834,214.554 886.925,217.547 904.015,219.389 921.105,220.864 938.195,224.39 955.286,234.122 972.376,245.907 989.466,258.667 1006.56,270.939 1023.65,281.586 1040.74,286.667 1057.83,286.124 1074.92,275.775 1092.01,259.768 1109.1,246.974 1126.19,237.236 1143.28,230.46 1160.37,226.8 1177.46,224.63 1194.55,222.352 1211.64,218.441 1228.73,214.314 1245.82,210.494 1262.91,209.983 1280,211.562 1297.09,214.603 1314.18,216.509 1331.27,218.04 1348.36,221.578 1365.45,231.335 1382.54,243.169 1399.63,255.973 1416.72,268.293 1433.81,278.991 1450.91,284.121 1468,283.63 1485.09,273.327 1502.18,257.337 1519.27,244.564 1536.36,234.841 1553.45,228.074 1570.54,224.429 1587.63,222.248 1604.72,219.989 1621.81,216.093 1638.9,211.98 1655.99,208.188 1673.08,207.712 1690.17,209.338 1707.26,212.438 1724.35,214.375 1741.44,215.931 1758.53,219.494 1775.62,229.268 1792.71,241.124 1809.8,253.956 1826.89,266.315 1843.98,277.049 1861.07,282.226 1878.16,281.746 1895.25,271.465 1912.34,255.491 1929.43,242.731 1946.52,233.024 1963.61,226.275 1980.71,222.638 1997.8,220.488 2014.89,218.242 2031.98,214.354 2049.07,210.259 2066.16,206.478 2083.25,206.015 2100.34,207.669 2117.43,210.79 2134.52,212.756 2151.61,214.331 2168.7,217.921 2185.79,227.718 2202.88,239.602 2219.97,252.459 2237.06,264.84 2254.15,275.59 2271.24,280.777 2288.33,280.358 2305.42,270.109 2322.51,254.155 2339.6,241.419 2356.69,231.73 2373.78,224.986 2390.87,221.352 2407.96,219.189 2425.05,216.961 2442.14,213.079 2459.23,208.995 2476.32,205.233 2493.42,204.791 2510.51,206.458 2527.6,209.594 2544.69,211.598 2561.78,213.191 2578.87,216.793 2595.96,226.61 2613.05,238.502 2630.14,251.377 2647.23,263.771 2664.32,274.565 2681.41,279.773 2698.5,279.371 2715.59,269.121 2732.68,253.174 2749.77,240.444 2766.86,230.759 2783.95,224.022 2801.04,220.393 2818.13,218.241 2835.22,216.013 2852.31,212.148 2869.4,208.073 2886.49,204.313 2903.58,203.9 2920.67,205.607 2937.76,208.771 2954.85,210.771 2971.94,212.376 2989.03,215.984 3006.12,225.802 3023.22,237.707 3040.31,250.593 3057.4,263 3074.49,273.805 3091.58,279.047 3108.67,278.654 3125.76,268.425 3142.85,252.499 3159.94,239.773 3177.03,230.092 3194.12,223.362 3211.21,219.738 3228.3,217.593 3245.39,215.36 3262.48,211.497 3279.57,207.424 3296.66,203.681 3313.75,203.255 3330.84,204.979 3347.93,208.165 3365.02,210.183 3382.11,211.8 3399.2,215.421 3416.29,225.255 3433.38,237.16 3450.47,250.048 3467.56,262.469 3484.65,273.274 3501.74,278.51 3518.83,278.129 3535.92,267.92 3553.02,252.006 3570.11,239.301 3587.2,229.632 3604.29,222.9 3621.38,219.279 3638.47,217.142 3655.56,214.902 3672.65,211.035 3689.74,206.971 3706.83,203.242 3723.92,202.845 3741.01,204.585 3758.1,207.78 3775.19,209.81 3792.28,211.442 3809.37,215.076 3826.46,224.915 3843.55,236.823 3860.64,249.718 3877.73,262.141 3894.82,272.965 3911.91,278.231 3929,277.855 3946.09,267.617 3963.18,251.693 3980.27,238.994 3997.36,229.327 4014.45,222.598 4031.54,218.971 4048.63,216.828 4065.72,214.606 4082.82,210.739 4099.91,206.68 4117,202.965 4134.09,202.585 4151.18,204.322 4168.27,207.523 4185.36,209.557 4202.45,211.192 4219.54,214.836 4236.63,224.676 4253.72,236.586 4270.81,249.484 4287.9,261.905 4304.99,272.755 4322.08,278.019 4339.17,277.672 4356.26,267.464 4373.35,251.567 4390.44,238.867 4407.53,229.191 4424.62,222.456 4441.71,218.833 4458.8,216.685 4475.89,214.477 4492.98,210.614 4510.07,206.553 4527.16,202.809 4544.25,202.421 4561.34,204.167 4578.43,207.385 4595.52,209.439 4612.62,211.099 4629.71,214.627 "/>
<path clip-path="url(#clip220)" d="M3853.78 853.161 L4607.83 853.161 L4607.83 334.761 L3853.78 334.761  Z" fill="#ffffff" fill-rule="evenodd" fill-opacity="1"/>
<polyline clip-path="url(#clip220)" style="stroke:#000000; stroke-linecap:round; stroke-linejoin:round; stroke-width:4; stroke-opacity:1; fill:none" points="3853.78,853.161 4607.83,853.161 4607.83,334.761 3853.78,334.761 3853.78,853.161 "/>
<polyline clip-path="url(#clip220)" style="stroke:#aeaeae; stroke-linecap:round; stroke-linejoin:round; stroke-width:2; stroke-opacity:1; fill:none" points="3902.09,464.361 4191.94,464.361 "/>
<path clip-path="url(#clip220)" d="M4241.93 497.723 L4261.03 497.723 L4261.03 431.809 L4240.25 435.976 L4240.25 425.328 L4260.91 421.161 L4272.6 421.161 L4272.6 497.723 L4291.7 497.723 L4291.7 507.561 L4241.93 507.561 L4241.93 497.723 Z" fill="#000000" fill-rule="nonzero" fill-opacity="1" /><path clip-path="url(#clip220)" d="M4340.31 428.858 Q4331.28 428.858 4326.71 437.77 Q4322.2 446.624 4322.2 464.448 Q4322.2 482.214 4326.71 491.126 Q4331.28 499.98 4340.31 499.98 Q4349.4 499.98 4353.91 491.126 Q4358.48 482.214 4358.48 464.448 Q4358.48 446.624 4353.91 437.77 Q4349.4 428.858 4340.31 428.858 M4340.31 419.599 Q4354.83 419.599 4362.47 431.115 Q4370.17 442.573 4370.17 464.448 Q4370.17 486.265 4362.47 497.781 Q4354.83 509.239 4340.31 509.239 Q4325.78 509.239 4318.09 497.781 Q4310.45 486.265 4310.45 464.448 Q4310.45 442.573 4318.09 431.115 Q4325.78 419.599 4340.31 419.599 Z" fill="#000000" fill-rule="nonzero" fill-opacity="1" /><path clip-path="url(#clip220)" d="M4415.71 428.858 Q4406.69 428.858 4402.11 437.77 Q4397.6 446.624 4397.6 464.448 Q4397.6 482.214 4402.11 491.126 Q4406.69 499.98 4415.71 499.98 Q4424.8 499.98 4429.31 491.126 Q4433.89 482.214 4433.89 464.448 Q4433.89 446.624 4429.31 437.77 Q4424.8 428.858 4415.71 428.858 M4415.71 419.599 Q4430.24 419.599 4437.88 431.115 Q4445.58 442.573 4445.58 464.448 Q4445.58 486.265 4437.88 497.781 Q4430.24 509.239 4415.71 509.239 Q4401.19 509.239 4393.49 497.781 Q4385.85 486.265 4385.85 464.448 Q4385.85 442.573 4393.49 431.115 Q4401.19 419.599 4415.71 419.599 Z" fill="#000000" fill-rule="nonzero" fill-opacity="1" /><path clip-path="url(#clip220)" d="M4539.61 469.541 Q4534.58 469.541 4531.69 473.823 Q4528.85 478.105 4528.85 485.744 Q4528.85 493.267 4531.69 497.608 Q4534.58 501.89 4539.61 501.89 Q4544.53 501.89 4547.37 497.608 Q4550.26 493.267 4550.26 485.744 Q4550.26 478.163 4547.37 473.881 Q4544.53 469.541 4539.61 469.541 M4539.61 462.191 Q4548.76 462.191 4554.14 468.557 Q4559.52 474.923 4559.52 485.744 Q4559.52 496.566 4554.08 502.932 Q4548.7 509.239 4539.61 509.239 Q4530.35 509.239 4524.97 502.932 Q4519.59 496.566 4519.59 485.744 Q4519.59 474.865 4524.97 468.557 Q4530.41 462.191 4539.61 462.191 M4479.89 426.948 Q4474.92 426.948 4472.02 431.289 Q4469.19 435.571 4469.19 443.094 Q4469.19 450.733 4472.02 455.015 Q4474.86 459.298 4479.89 459.298 Q4484.93 459.298 4487.76 455.015 Q4490.66 450.733 4490.66 443.094 Q4490.66 435.629 4487.76 431.289 Q4484.87 426.948 4479.89 426.948 M4532.15 419.599 L4541.41 419.599 L4487.36 509.239 L4478.1 509.239 L4532.15 419.599 M4479.89 419.599 Q4489.04 419.599 4494.48 425.964 Q4499.92 432.272 4499.92 443.094 Q4499.92 454.031 4494.48 460.339 Q4489.09 466.647 4479.89 466.647 Q4470.69 466.647 4465.31 460.339 Q4459.98 453.974 4459.98 443.094 Q4459.98 432.33 4465.37 425.964 Q4470.75 419.599 4479.89 419.599 Z" fill="#000000" fill-rule="nonzero" fill-opacity="1" /><polyline clip-path="url(#clip220)" style="stroke:#757575; stroke-linecap:round; stroke-linejoin:round; stroke-width:2; stroke-opacity:1; fill:none" points="3902.09,593.961 4191.94,593.961 "/>
<path clip-path="url(#clip220)" d="M4245.81 635.367 L4245.81 624.719 Q4250.21 626.803 4254.72 627.902 Q4259.23 629.002 4263.57 629.002 Q4275.15 629.002 4281.22 621.247 Q4287.36 613.435 4288.23 597.578 Q4284.87 602.555 4279.72 605.217 Q4274.57 607.879 4268.32 607.879 Q4255.36 607.879 4247.78 600.067 Q4240.25 592.196 4240.25 578.597 Q4240.25 565.287 4248.12 557.243 Q4255.99 549.199 4269.07 549.199 Q4284.06 549.199 4291.93 560.715 Q4299.86 572.173 4299.86 594.048 Q4299.86 614.476 4290.14 626.687 Q4280.47 638.839 4264.09 638.839 Q4259.7 638.839 4255.18 637.971 Q4250.67 637.103 4245.81 635.367 M4269.07 598.736 Q4276.94 598.736 4281.51 593.354 Q4286.14 587.972 4286.14 578.597 Q4286.14 569.28 4281.51 563.898 Q4276.94 558.458 4269.07 558.458 Q4261.2 558.458 4256.57 563.898 Q4252 569.28 4252 578.597 Q4252 587.972 4256.57 593.354 Q4261.2 598.736 4269.07 598.736 Z" fill="#000000" fill-rule="nonzero" fill-opacity="1" /><path clip-path="url(#clip220)" d="M4345.87 558.458 Q4336.84 558.458 4332.27 567.37 Q4327.75 576.224 4327.75 594.048 Q4327.75 611.814 4332.27 620.726 Q4336.84 629.58 4345.87 629.58 Q4354.95 629.58 4359.46 620.726 Q4364.04 611.814 4364.04 594.048 Q4364.04 576.224 4359.46 567.37 Q4354.95 558.458 4345.87 558.458 M4345.87 549.199 Q4360.39 549.199 4368.03 560.715 Q4375.73 572.173 4375.73 594.048 Q4375.73 615.865 4368.03 627.381 Q4360.39 638.839 4345.87 638.839 Q4331.34 638.839 4323.64 627.381 Q4316 615.865 4316 594.048 Q4316 572.173 4323.64 560.715 Q4331.34 549.199 4345.87 549.199 Z" fill="#000000" fill-rule="nonzero" fill-opacity="1" /><path clip-path="url(#clip220)" d="M4469.76 599.141 Q4464.73 599.141 4461.84 603.423 Q4459 607.705 4459 615.344 Q4459 622.867 4461.84 627.208 Q4464.73 631.49 4469.76 631.49 Q4474.68 631.49 4477.52 627.208 Q4480.41 622.867 4480.41 615.344 Q4480.41 607.763 4477.52 603.481 Q4474.68 599.141 4469.76 599.141 M4469.76 591.791 Q4478.91 591.791 4484.29 598.157 Q4489.67 604.523 4489.67 615.344 Q4489.67 626.166 4484.23 632.532 Q4478.85 638.839 4469.76 638.839 Q4460.51 638.839 4455.12 632.532 Q4449.74 626.166 4449.74 615.344 Q4449.74 604.465 4455.12 598.157 Q4460.56 591.791 4469.76 591.791 M4410.04 556.548 Q4405.07 556.548 4402.17 560.889 Q4399.34 565.171 4399.34 572.694 Q4399.34 580.333 4402.17 584.615 Q4405.01 588.898 4410.04 588.898 Q4415.08 588.898 4417.91 584.615 Q4420.81 580.333 4420.81 572.694 Q4420.81 565.229 4417.91 560.889 Q4415.02 556.548 4410.04 556.548 M4462.3 549.199 L4471.56 549.199 L4417.51 638.839 L4408.25 638.839 L4462.3 549.199 M4410.04 549.199 Q4419.19 549.199 4424.63 555.564 Q4430.07 561.872 4430.07 572.694 Q4430.07 583.631 4424.63 589.939 Q4419.24 596.247 4410.04 596.247 Q4400.84 596.247 4395.46 589.939 Q4390.14 583.574 4390.14 572.694 Q4390.14 561.93 4395.52 555.564 Q4400.9 549.199 4410.04 549.199 Z" fill="#000000" fill-rule="nonzero" fill-opacity="1" /><polyline clip-path="url(#clip220)" style="stroke:#414141; stroke-linecap:round; stroke-linejoin:round; stroke-width:2; stroke-opacity:1; fill:none" points="3902.09,723.561 4191.94,723.561 "/>
<path clip-path="url(#clip220)" d="M4269.88 725.731 Q4261.55 725.731 4256.75 730.187 Q4252 734.643 4252 742.456 Q4252 750.268 4256.75 754.724 Q4261.55 759.18 4269.88 759.18 Q4278.21 759.18 4283.02 754.724 Q4287.82 750.21 4287.82 742.456 Q4287.82 734.643 4283.02 730.187 Q4278.27 725.731 4269.88 725.731 M4258.19 720.755 Q4250.67 718.903 4246.44 713.752 Q4242.28 708.602 4242.28 701.194 Q4242.28 690.836 4249.63 684.817 Q4257.03 678.799 4269.88 678.799 Q4282.79 678.799 4290.14 684.817 Q4297.49 690.836 4297.49 701.194 Q4297.49 708.602 4293.26 713.752 Q4289.09 718.903 4281.63 720.755 Q4290.08 722.722 4294.77 728.451 Q4299.51 734.18 4299.51 742.456 Q4299.51 755.014 4291.81 761.727 Q4284.18 768.439 4269.88 768.439 Q4255.59 768.439 4247.89 761.727 Q4240.25 755.014 4240.25 742.456 Q4240.25 734.18 4245 728.451 Q4249.74 722.722 4258.19 720.755 M4253.91 702.294 Q4253.91 709.007 4258.08 712.768 Q4262.3 716.53 4269.88 716.53 Q4277.4 716.53 4281.63 712.768 Q4285.91 709.007 4285.91 702.294 Q4285.91 695.581 4281.63 691.82 Q4277.4 688.058 4269.88 688.058 Q4262.3 688.058 4258.08 691.82 Q4253.91 695.581 4253.91 702.294 Z" fill="#000000" fill-rule="nonzero" fill-opacity="1" /><path clip-path="url(#clip220)" d="M4345.29 688.058 Q4336.26 688.058 4331.69 696.97 Q4327.17 705.824 4327.17 723.648 Q4327.17 741.414 4331.69 750.326 Q4336.26 759.18 4345.29 759.18 Q4354.37 759.18 4358.89 750.326 Q4363.46 741.414 4363.46 723.648 Q4363.46 705.824 4358.89 696.97 Q4354.37 688.058 4345.29 688.058 M4345.29 678.799 Q4359.81 678.799 4367.45 690.315 Q4375.15 701.773 4375.15 723.648 Q4375.15 745.465 4367.45 756.981 Q4359.81 768.439 4345.29 768.439 Q4330.76 768.439 4323.06 756.981 Q4315.43 745.465 4315.43 723.648 Q4315.43 701.773 4323.06 690.315 Q4330.76 678.799 4345.29 678.799 Z" fill="#000000" fill-rule="nonzero" fill-opacity="1" /><path clip-path="url(#clip220)" d="M4469.19 728.741 Q4464.15 728.741 4461.26 733.023 Q4458.42 737.305 4458.42 744.944 Q4458.42 752.467 4461.26 756.808 Q4464.15 761.09 4469.19 761.09 Q4474.11 761.09 4476.94 756.808 Q4479.83 752.467 4479.83 744.944 Q4479.83 737.363 4476.94 733.081 Q4474.11 728.741 4469.19 728.741 M4469.19 721.391 Q4478.33 721.391 4483.71 727.757 Q4489.09 734.123 4489.09 744.944 Q4489.09 755.766 4483.65 762.132 Q4478.27 768.439 4469.19 768.439 Q4459.93 768.439 4454.55 762.132 Q4449.16 755.766 4449.16 744.944 Q4449.16 734.065 4454.55 727.757 Q4459.98 721.391 4469.19 721.391 M4409.46 686.148 Q4404.49 686.148 4401.59 690.489 Q4398.76 694.771 4398.76 702.294 Q4398.76 709.933 4401.59 714.215 Q4404.43 718.498 4409.46 718.498 Q4414.5 718.498 4417.33 714.215 Q4420.23 709.933 4420.23 702.294 Q4420.23 694.829 4417.33 690.489 Q4414.44 686.148 4409.46 686.148 M4461.72 678.799 L4470.98 678.799 L4416.93 768.439 L4407.67 768.439 L4461.72 678.799 M4409.46 678.799 Q4418.61 678.799 4424.05 685.164 Q4429.49 691.472 4429.49 702.294 Q4429.49 713.231 4424.05 719.539 Q4418.67 725.847 4409.46 725.847 Q4400.26 725.847 4394.88 719.539 Q4389.56 713.174 4389.56 702.294 Q4389.56 691.53 4394.94 685.164 Q4400.32 678.799 4409.46 678.799 Z" fill="#000000" fill-rule="nonzero" fill-opacity="1" /></svg>
